G75*
G70*
%OFA0B0*%
%FSLAX25Y25*%
%IPPOS*%
%LPD*%
%AMOC8*
5,1,8,0,0,1.08239X$1,22.5*
%
%AMM125*
21,1,0.033470,0.026770,-0.000000,-0.000000,0.000000*
21,1,0.026770,0.033470,-0.000000,-0.000000,0.000000*
1,1,0.006690,0.013390,-0.013390*
1,1,0.006690,-0.013390,-0.013390*
1,1,0.006690,-0.013390,0.013390*
1,1,0.006690,0.013390,0.013390*
%
%AMM126*
21,1,0.035830,0.026770,-0.000000,-0.000000,180.000000*
21,1,0.029130,0.033470,-0.000000,-0.000000,180.000000*
1,1,0.006690,-0.014570,0.013390*
1,1,0.006690,0.014570,0.013390*
1,1,0.006690,0.014570,-0.013390*
1,1,0.006690,-0.014570,-0.013390*
%
%AMM127*
21,1,0.027560,0.030710,-0.000000,-0.000000,180.000000*
21,1,0.022050,0.036220,-0.000000,-0.000000,180.000000*
1,1,0.005510,-0.011020,0.015350*
1,1,0.005510,0.011020,0.015350*
1,1,0.005510,0.011020,-0.015350*
1,1,0.005510,-0.011020,-0.015350*
%
%AMM128*
21,1,0.035430,0.030320,-0.000000,-0.000000,180.000000*
21,1,0.028350,0.037400,-0.000000,-0.000000,180.000000*
1,1,0.007090,-0.014170,0.015160*
1,1,0.007090,0.014170,0.015160*
1,1,0.007090,0.014170,-0.015160*
1,1,0.007090,-0.014170,-0.015160*
%
%AMM129*
21,1,0.033470,0.026770,-0.000000,-0.000000,90.000000*
21,1,0.026770,0.033470,-0.000000,-0.000000,90.000000*
1,1,0.006690,0.013390,0.013390*
1,1,0.006690,0.013390,-0.013390*
1,1,0.006690,-0.013390,-0.013390*
1,1,0.006690,-0.013390,0.013390*
%
%AMM2*
21,1,0.035830,0.026770,0.000000,0.000000,0.000000*
21,1,0.029130,0.033470,0.000000,0.000000,0.000000*
1,1,0.006690,0.014570,-0.013390*
1,1,0.006690,-0.014570,-0.013390*
1,1,0.006690,-0.014570,0.013390*
1,1,0.006690,0.014570,0.013390*
%
%AMM21*
21,1,0.086610,0.073230,0.000000,0.000000,270.000000*
21,1,0.069290,0.090550,0.000000,0.000000,270.000000*
1,1,0.017320,-0.036610,-0.034650*
1,1,0.017320,-0.036610,0.034650*
1,1,0.017320,0.036610,0.034650*
1,1,0.017320,0.036610,-0.034650*
%
%AMM22*
21,1,0.094490,0.111020,0.000000,0.000000,0.000000*
21,1,0.075590,0.129920,0.000000,0.000000,0.000000*
1,1,0.018900,0.037800,-0.055510*
1,1,0.018900,-0.037800,-0.055510*
1,1,0.018900,-0.037800,0.055510*
1,1,0.018900,0.037800,0.055510*
%
%AMM23*
21,1,0.074800,0.083460,0.000000,0.000000,0.000000*
21,1,0.059840,0.098430,0.000000,0.000000,0.000000*
1,1,0.014960,0.029920,-0.041730*
1,1,0.014960,-0.029920,-0.041730*
1,1,0.014960,-0.029920,0.041730*
1,1,0.014960,0.029920,0.041730*
%
%AMM24*
21,1,0.078740,0.053540,0.000000,0.000000,180.000000*
21,1,0.065350,0.066930,0.000000,0.000000,180.000000*
1,1,0.013390,-0.032680,0.026770*
1,1,0.013390,0.032680,0.026770*
1,1,0.013390,0.032680,-0.026770*
1,1,0.013390,-0.032680,-0.026770*
%
%AMM25*
21,1,0.035430,0.030320,0.000000,0.000000,90.000000*
21,1,0.028350,0.037400,0.000000,0.000000,90.000000*
1,1,0.007090,0.015160,0.014170*
1,1,0.007090,0.015160,-0.014170*
1,1,0.007090,-0.015160,-0.014170*
1,1,0.007090,-0.015160,0.014170*
%
%AMM253*
21,1,0.035430,0.030320,0.000000,-0.000000,0.000000*
21,1,0.028350,0.037400,0.000000,-0.000000,0.000000*
1,1,0.007090,0.014170,-0.015160*
1,1,0.007090,-0.014170,-0.015160*
1,1,0.007090,-0.014170,0.015160*
1,1,0.007090,0.014170,0.015160*
%
%AMM254*
21,1,0.043310,0.075980,0.000000,-0.000000,270.000000*
21,1,0.034650,0.084650,0.000000,-0.000000,270.000000*
1,1,0.008660,-0.037990,-0.017320*
1,1,0.008660,-0.037990,0.017320*
1,1,0.008660,0.037990,0.017320*
1,1,0.008660,0.037990,-0.017320*
%
%AMM255*
21,1,0.043310,0.075990,0.000000,-0.000000,270.000000*
21,1,0.034650,0.084650,0.000000,-0.000000,270.000000*
1,1,0.008660,-0.037990,-0.017320*
1,1,0.008660,-0.037990,0.017320*
1,1,0.008660,0.037990,0.017320*
1,1,0.008660,0.037990,-0.017320*
%
%AMM256*
21,1,0.137800,0.067720,0.000000,-0.000000,270.000000*
21,1,0.120870,0.084650,0.000000,-0.000000,270.000000*
1,1,0.016930,-0.033860,-0.060430*
1,1,0.016930,-0.033860,0.060430*
1,1,0.016930,0.033860,0.060430*
1,1,0.016930,0.033860,-0.060430*
%
%AMM257*
21,1,0.039370,0.035430,0.000000,-0.000000,270.000000*
21,1,0.031500,0.043310,0.000000,-0.000000,270.000000*
1,1,0.007870,-0.017720,-0.015750*
1,1,0.007870,-0.017720,0.015750*
1,1,0.007870,0.017720,0.015750*
1,1,0.007870,0.017720,-0.015750*
%
%AMM258*
21,1,0.023620,0.030710,0.000000,-0.000000,90.000000*
21,1,0.018900,0.035430,0.000000,-0.000000,90.000000*
1,1,0.004720,0.015350,0.009450*
1,1,0.004720,0.015350,-0.009450*
1,1,0.004720,-0.015350,-0.009450*
1,1,0.004720,-0.015350,0.009450*
%
%AMM259*
21,1,0.027560,0.018900,0.000000,-0.000000,90.000000*
21,1,0.022840,0.023620,0.000000,-0.000000,90.000000*
1,1,0.004720,0.009450,0.011420*
1,1,0.004720,0.009450,-0.011420*
1,1,0.004720,-0.009450,-0.011420*
1,1,0.004720,-0.009450,0.011420*
%
%AMM26*
21,1,0.021650,0.052760,0.000000,0.000000,270.000000*
21,1,0.017320,0.057090,0.000000,0.000000,270.000000*
1,1,0.004330,-0.026380,-0.008660*
1,1,0.004330,-0.026380,0.008660*
1,1,0.004330,0.026380,0.008660*
1,1,0.004330,0.026380,-0.008660*
%
%AMM260*
21,1,0.023620,0.030710,0.000000,-0.000000,180.000000*
21,1,0.018900,0.035430,0.000000,-0.000000,180.000000*
1,1,0.004720,-0.009450,0.015350*
1,1,0.004720,0.009450,0.015350*
1,1,0.004720,0.009450,-0.015350*
1,1,0.004720,-0.009450,-0.015350*
%
%AMM261*
21,1,0.086610,0.073230,0.000000,-0.000000,0.000000*
21,1,0.069290,0.090550,0.000000,-0.000000,0.000000*
1,1,0.017320,0.034650,-0.036610*
1,1,0.017320,-0.034650,-0.036610*
1,1,0.017320,-0.034650,0.036610*
1,1,0.017320,0.034650,0.036610*
%
%AMM262*
21,1,0.025590,0.026380,0.000000,-0.000000,0.000000*
21,1,0.020470,0.031500,0.000000,-0.000000,0.000000*
1,1,0.005120,0.010240,-0.013190*
1,1,0.005120,-0.010240,-0.013190*
1,1,0.005120,-0.010240,0.013190*
1,1,0.005120,0.010240,0.013190*
%
%AMM263*
21,1,0.017720,0.027950,0.000000,-0.000000,0.000000*
21,1,0.014170,0.031500,0.000000,-0.000000,0.000000*
1,1,0.003540,0.007090,-0.013980*
1,1,0.003540,-0.007090,-0.013980*
1,1,0.003540,-0.007090,0.013980*
1,1,0.003540,0.007090,0.013980*
%
%AMM264*
21,1,0.031500,0.072440,0.000000,-0.000000,0.000000*
21,1,0.025200,0.078740,0.000000,-0.000000,0.000000*
1,1,0.006300,0.012600,-0.036220*
1,1,0.006300,-0.012600,-0.036220*
1,1,0.006300,-0.012600,0.036220*
1,1,0.006300,0.012600,0.036220*
%
%AMM265*
21,1,0.012600,0.028980,0.000000,-0.000000,0.000000*
21,1,0.010080,0.031500,0.000000,-0.000000,0.000000*
1,1,0.002520,0.005040,-0.014490*
1,1,0.002520,-0.005040,-0.014490*
1,1,0.002520,-0.005040,0.014490*
1,1,0.002520,0.005040,0.014490*
%
%AMM266*
21,1,0.012600,0.028980,0.000000,-0.000000,90.000000*
21,1,0.010080,0.031500,0.000000,-0.000000,90.000000*
1,1,0.002520,0.014490,0.005040*
1,1,0.002520,0.014490,-0.005040*
1,1,0.002520,-0.014490,-0.005040*
1,1,0.002520,-0.014490,0.005040*
%
%AMM267*
21,1,0.039370,0.035430,0.000000,-0.000000,180.000000*
21,1,0.031500,0.043310,0.000000,-0.000000,180.000000*
1,1,0.007870,-0.015750,0.017720*
1,1,0.007870,0.015750,0.017720*
1,1,0.007870,0.015750,-0.017720*
1,1,0.007870,-0.015750,-0.017720*
%
%AMM268*
21,1,0.027560,0.018900,0.000000,-0.000000,0.000000*
21,1,0.022840,0.023620,0.000000,-0.000000,0.000000*
1,1,0.004720,0.011420,-0.009450*
1,1,0.004720,-0.011420,-0.009450*
1,1,0.004720,-0.011420,0.009450*
1,1,0.004720,0.011420,0.009450*
%
%AMM27*
21,1,0.070870,0.036220,0.000000,0.000000,90.000000*
21,1,0.061810,0.045280,0.000000,0.000000,90.000000*
1,1,0.009060,0.018110,0.030910*
1,1,0.009060,0.018110,-0.030910*
1,1,0.009060,-0.018110,-0.030910*
1,1,0.009060,-0.018110,0.030910*
%
%AMM28*
21,1,0.033470,0.026770,0.000000,0.000000,0.000000*
21,1,0.026770,0.033470,0.000000,0.000000,0.000000*
1,1,0.006690,0.013390,-0.013390*
1,1,0.006690,-0.013390,-0.013390*
1,1,0.006690,-0.013390,0.013390*
1,1,0.006690,0.013390,0.013390*
%
%AMM29*
21,1,0.015750,0.016540,0.000000,0.000000,270.000000*
21,1,0.012600,0.019680,0.000000,0.000000,270.000000*
1,1,0.003150,-0.008270,-0.006300*
1,1,0.003150,-0.008270,0.006300*
1,1,0.003150,0.008270,0.006300*
1,1,0.003150,0.008270,-0.006300*
%
%AMM30*
21,1,0.023620,0.018900,0.000000,0.000000,90.000000*
21,1,0.018900,0.023620,0.000000,0.000000,90.000000*
1,1,0.004720,0.009450,0.009450*
1,1,0.004720,0.009450,-0.009450*
1,1,0.004720,-0.009450,-0.009450*
1,1,0.004720,-0.009450,0.009450*
%
%AMM31*
21,1,0.019680,0.019680,0.000000,0.000000,0.000000*
21,1,0.015750,0.023620,0.000000,0.000000,0.000000*
1,1,0.003940,0.007870,-0.009840*
1,1,0.003940,-0.007870,-0.009840*
1,1,0.003940,-0.007870,0.009840*
1,1,0.003940,0.007870,0.009840*
%
%AMM32*
21,1,0.019680,0.019680,0.000000,0.000000,270.000000*
21,1,0.015750,0.023620,0.000000,0.000000,270.000000*
1,1,0.003940,-0.009840,-0.007870*
1,1,0.003940,-0.009840,0.007870*
1,1,0.003940,0.009840,0.007870*
1,1,0.003940,0.009840,-0.007870*
%
%ADD107M21*%
%ADD108M22*%
%ADD109M23*%
%ADD110M24*%
%ADD111M25*%
%ADD112M26*%
%ADD113M27*%
%ADD114M28*%
%ADD115M29*%
%ADD116M30*%
%ADD117M31*%
%ADD118M32*%
%ADD120C,0.03150*%
%ADD156O,0.00866X0.05118*%
%ADD157O,0.05118X0.00866*%
%ADD169O,0.01181X0.04331*%
%ADD170O,0.04331X0.01181*%
%ADD174R,0.01476X0.01378*%
%ADD175R,0.01378X0.01476*%
%ADD21R,0.05750X0.02100*%
%ADD23R,0.12000X0.05500*%
%ADD24R,0.23300X0.21700*%
%ADD244R,0.05512X0.01181*%
%ADD269M125*%
%ADD270M126*%
%ADD271M127*%
%ADD272M128*%
%ADD273M129*%
%ADD302O,0.02362X0.08661*%
%ADD35R,0.09055X0.00787*%
%ADD36R,0.42126X0.00787*%
%ADD37R,0.08268X0.00787*%
%ADD38R,0.23622X0.00787*%
%ADD39R,0.21260X0.00787*%
%ADD40R,0.00787X0.05512*%
%ADD406M253*%
%ADD407M254*%
%ADD408M255*%
%ADD409M256*%
%ADD41R,0.00787X0.19685*%
%ADD410M257*%
%ADD411M258*%
%ADD412M259*%
%ADD413M260*%
%ADD414M261*%
%ADD415M262*%
%ADD416M263*%
%ADD417M264*%
%ADD418M265*%
%ADD419M266*%
%ADD42R,0.00787X0.26772*%
%ADD420M267*%
%ADD421M268*%
%ADD43R,0.00787X0.17717*%
%ADD44R,0.06299X0.00787*%
%ADD45R,0.22441X0.00787*%
%ADD46R,0.07874X0.00787*%
%ADD51R,0.02800X0.05100*%
%ADD52R,0.05100X0.02800*%
%ADD53R,0.03500X0.03500*%
%ADD54R,0.04528X0.02756*%
%ADD55R,0.04724X0.02756*%
%ADD56R,0.16142X0.07756*%
%ADD57R,0.09800X0.03700*%
%ADD79O,0.04016X0.11221*%
%ADD81M2*%
X0000000Y0000000D02*
%LPD*%
G01*
G36*
G01*
X0132362Y0119744D02*
X0132362Y0121201D01*
G75*
G02*
X0132894Y0121732I0000531J0000000D01*
G01*
X0133957Y0121732D01*
G75*
G02*
X0134488Y0121201I0000000J-000531D01*
G01*
X0134488Y0119744D01*
G75*
G02*
X0133957Y0119213I-000531J0000000D01*
G01*
X0132894Y0119213D01*
G75*
G02*
X0132362Y0119744I0000000J0000531D01*
G01*
G37*
G36*
G01*
X0136378Y0119744D02*
X0136378Y0121201D01*
G75*
G02*
X0136909Y0121732I0000531J0000000D01*
G01*
X0137972Y0121732D01*
G75*
G02*
X0138504Y0121201I0000000J-000531D01*
G01*
X0138504Y0119744D01*
G75*
G02*
X0137972Y0119213I-000531J0000000D01*
G01*
X0136909Y0119213D01*
G75*
G02*
X0136378Y0119744I0000000J0000531D01*
G01*
G37*
G36*
G01*
X0168575Y0295083D02*
X0168575Y0292917D01*
G75*
G02*
X0167787Y0292130I-000787J0000000D01*
G01*
X0166213Y0292130D01*
G75*
G02*
X0165425Y0292917I0000000J0000787D01*
G01*
X0165425Y0295083D01*
G75*
G02*
X0166213Y0295870I0000787J0000000D01*
G01*
X0167787Y0295870D01*
G75*
G02*
X0168575Y0295083I0000000J-000787D01*
G01*
G37*
G36*
G01*
X0162079Y0295083D02*
X0162079Y0292917D01*
G75*
G02*
X0161291Y0292130I-000787J0000000D01*
G01*
X0159717Y0292130D01*
G75*
G02*
X0158929Y0292917I0000000J0000787D01*
G01*
X0158929Y0295083D01*
G75*
G02*
X0159717Y0295870I0000787J0000000D01*
G01*
X0161291Y0295870D01*
G75*
G02*
X0162079Y0295083I0000000J-000787D01*
G01*
G37*
G36*
G01*
X0160965Y0351654D02*
X0159508Y0351654D01*
G75*
G02*
X0158976Y0352185I0000000J0000531D01*
G01*
X0158976Y0353248D01*
G75*
G02*
X0159508Y0353780I0000531J0000000D01*
G01*
X0160965Y0353780D01*
G75*
G02*
X0161496Y0353248I0000000J-000531D01*
G01*
X0161496Y0352185D01*
G75*
G02*
X0160965Y0351654I-000531J0000000D01*
G01*
G37*
G36*
G01*
X0160965Y0355669D02*
X0159508Y0355669D01*
G75*
G02*
X0158976Y0356201I0000000J0000531D01*
G01*
X0158976Y0357264D01*
G75*
G02*
X0159508Y0357795I0000531J0000000D01*
G01*
X0160965Y0357795D01*
G75*
G02*
X0161496Y0357264I0000000J-000531D01*
G01*
X0161496Y0356201D01*
G75*
G02*
X0160965Y0355669I-000531J0000000D01*
G01*
G37*
G36*
G01*
X0326118Y0300331D02*
X0326118Y0301669D01*
G75*
G02*
X0326669Y0302220I0000551J0000000D01*
G01*
X0327772Y0302220D01*
G75*
G02*
X0328323Y0301669I0000000J-000551D01*
G01*
X0328323Y0300331D01*
G75*
G02*
X0327772Y0299780I-000551J0000000D01*
G01*
X0326669Y0299780D01*
G75*
G02*
X0326118Y0300331I0000000J0000551D01*
G01*
G37*
G36*
G01*
X0329898Y0300331D02*
X0329898Y0301669D01*
G75*
G02*
X0330449Y0302220I0000551J0000000D01*
G01*
X0331551Y0302220D01*
G75*
G02*
X0332102Y0301669I0000000J-000551D01*
G01*
X0332102Y0300331D01*
G75*
G02*
X0331551Y0299780I-000551J0000000D01*
G01*
X0330449Y0299780D01*
G75*
G02*
X0329898Y0300331I0000000J0000551D01*
G01*
G37*
D21*
X0122725Y0225500D03*
X0122725Y0230500D03*
X0122725Y0235500D03*
X0122725Y0240500D03*
X0101275Y0240500D03*
X0101275Y0235500D03*
X0101275Y0230500D03*
X0101275Y0225500D03*
G36*
G01*
X0331988Y0288679D02*
X0331988Y0287321D01*
G75*
G02*
X0331407Y0286740I-000581J0000000D01*
G01*
X0330246Y0286740D01*
G75*
G02*
X0329665Y0287321I0000000J0000581D01*
G01*
X0329665Y0288679D01*
G75*
G02*
X0330246Y0289260I0000581J0000000D01*
G01*
X0331407Y0289260D01*
G75*
G02*
X0331988Y0288679I0000000J-000581D01*
G01*
G37*
G36*
G01*
X0328169Y0288679D02*
X0328169Y0287321D01*
G75*
G02*
X0327589Y0286740I-000581J0000000D01*
G01*
X0326427Y0286740D01*
G75*
G02*
X0325846Y0287321I0000000J0000581D01*
G01*
X0325846Y0288679D01*
G75*
G02*
X0326427Y0289260I0000581J0000000D01*
G01*
X0327589Y0289260D01*
G75*
G02*
X0328169Y0288679I0000000J-000581D01*
G01*
G37*
G36*
G01*
X0132728Y0192429D02*
X0131272Y0192429D01*
G75*
G02*
X0130740Y0192961I0000000J0000531D01*
G01*
X0130740Y0194024D01*
G75*
G02*
X0131272Y0194555I0000531J0000000D01*
G01*
X0132728Y0194555D01*
G75*
G02*
X0133260Y0194024I0000000J-000531D01*
G01*
X0133260Y0192961D01*
G75*
G02*
X0132728Y0192429I-000531J0000000D01*
G01*
G37*
G36*
G01*
X0132728Y0196445D02*
X0131272Y0196445D01*
G75*
G02*
X0130740Y0196976I0000000J0000531D01*
G01*
X0130740Y0198039D01*
G75*
G02*
X0131272Y0198571I0000531J0000000D01*
G01*
X0132728Y0198571D01*
G75*
G02*
X0133260Y0198039I0000000J-000531D01*
G01*
X0133260Y0196976D01*
G75*
G02*
X0132728Y0196445I-000531J0000000D01*
G01*
G37*
D23*
X0150300Y0264984D03*
D24*
X0121350Y0274000D03*
D23*
X0150300Y0283016D03*
G36*
G01*
X0123189Y0062028D02*
X0124646Y0062028D01*
G75*
G02*
X0125177Y0061496I0000000J-000531D01*
G01*
X0125177Y0060433D01*
G75*
G02*
X0124646Y0059902I-000531J0000000D01*
G01*
X0123189Y0059902D01*
G75*
G02*
X0122657Y0060433I0000000J0000531D01*
G01*
X0122657Y0061496D01*
G75*
G02*
X0123189Y0062028I0000531J0000000D01*
G01*
G37*
G36*
G01*
X0123189Y0058012D02*
X0124646Y0058012D01*
G75*
G02*
X0125177Y0057480I0000000J-000531D01*
G01*
X0125177Y0056417D01*
G75*
G02*
X0124646Y0055886I-000531J0000000D01*
G01*
X0123189Y0055886D01*
G75*
G02*
X0122657Y0056417I0000000J0000531D01*
G01*
X0122657Y0057480D01*
G75*
G02*
X0123189Y0058012I0000531J0000000D01*
G01*
G37*
X0150300Y0293984D03*
D24*
X0121350Y0303000D03*
D23*
X0150300Y0312016D03*
G36*
G01*
X0346118Y0382331D02*
X0346118Y0383669D01*
G75*
G02*
X0346669Y0384220I0000551J0000000D01*
G01*
X0347772Y0384220D01*
G75*
G02*
X0348323Y0383669I0000000J-000551D01*
G01*
X0348323Y0382331D01*
G75*
G02*
X0347772Y0381780I-000551J0000000D01*
G01*
X0346669Y0381780D01*
G75*
G02*
X0346118Y0382331I0000000J0000551D01*
G01*
G37*
G36*
G01*
X0349898Y0382331D02*
X0349898Y0383669D01*
G75*
G02*
X0350449Y0384220I0000551J0000000D01*
G01*
X0351551Y0384220D01*
G75*
G02*
X0352102Y0383669I0000000J-000551D01*
G01*
X0352102Y0382331D01*
G75*
G02*
X0351551Y0381780I-000551J0000000D01*
G01*
X0350449Y0381780D01*
G75*
G02*
X0349898Y0382331I0000000J0000551D01*
G01*
G37*
G36*
G01*
X0129728Y0234937D02*
X0128272Y0234937D01*
G75*
G02*
X0127740Y0235469I0000000J0000531D01*
G01*
X0127740Y0236531D01*
G75*
G02*
X0128272Y0237063I0000531J0000000D01*
G01*
X0129728Y0237063D01*
G75*
G02*
X0130260Y0236531I0000000J-000531D01*
G01*
X0130260Y0235469D01*
G75*
G02*
X0129728Y0234937I-000531J0000000D01*
G01*
G37*
G36*
G01*
X0129728Y0238953D02*
X0128272Y0238953D01*
G75*
G02*
X0127740Y0239484I0000000J0000531D01*
G01*
X0127740Y0240547D01*
G75*
G02*
X0128272Y0241079I0000531J0000000D01*
G01*
X0129728Y0241079D01*
G75*
G02*
X0130260Y0240547I0000000J-000531D01*
G01*
X0130260Y0239484D01*
G75*
G02*
X0129728Y0238953I-000531J0000000D01*
G01*
G37*
G36*
G01*
X0127929Y0227272D02*
X0127929Y0228728D01*
G75*
G02*
X0128461Y0229260I0000531J0000000D01*
G01*
X0129524Y0229260D01*
G75*
G02*
X0130055Y0228728I0000000J-000531D01*
G01*
X0130055Y0227272D01*
G75*
G02*
X0129524Y0226740I-000531J0000000D01*
G01*
X0128461Y0226740D01*
G75*
G02*
X0127929Y0227272I0000000J0000531D01*
G01*
G37*
G36*
G01*
X0131945Y0227272D02*
X0131945Y0228728D01*
G75*
G02*
X0132476Y0229260I0000531J0000000D01*
G01*
X0133539Y0229260D01*
G75*
G02*
X0134071Y0228728I0000000J-000531D01*
G01*
X0134071Y0227272D01*
G75*
G02*
X0133539Y0226740I-000531J0000000D01*
G01*
X0132476Y0226740D01*
G75*
G02*
X0131945Y0227272I0000000J0000531D01*
G01*
G37*
G36*
G01*
X0160571Y0322874D02*
X0159114Y0322874D01*
G75*
G02*
X0158583Y0323406I0000000J0000531D01*
G01*
X0158583Y0324469D01*
G75*
G02*
X0159114Y0325000I0000531J0000000D01*
G01*
X0160571Y0325000D01*
G75*
G02*
X0161102Y0324469I0000000J-000531D01*
G01*
X0161102Y0323406D01*
G75*
G02*
X0160571Y0322874I-000531J0000000D01*
G01*
G37*
G36*
G01*
X0160571Y0326890D02*
X0159114Y0326890D01*
G75*
G02*
X0158583Y0327421I0000000J0000531D01*
G01*
X0158583Y0328484D01*
G75*
G02*
X0159114Y0329016I0000531J0000000D01*
G01*
X0160571Y0329016D01*
G75*
G02*
X0161102Y0328484I0000000J-000531D01*
G01*
X0161102Y0327421D01*
G75*
G02*
X0160571Y0326890I-000531J0000000D01*
G01*
G37*
G36*
G01*
X0325937Y0291272D02*
X0325937Y0292728D01*
G75*
G02*
X0326469Y0293260I0000531J0000000D01*
G01*
X0327531Y0293260D01*
G75*
G02*
X0328063Y0292728I0000000J-000531D01*
G01*
X0328063Y0291272D01*
G75*
G02*
X0327531Y0290740I-000531J0000000D01*
G01*
X0326469Y0290740D01*
G75*
G02*
X0325937Y0291272I0000000J0000531D01*
G01*
G37*
G36*
G01*
X0329953Y0291272D02*
X0329953Y0292728D01*
G75*
G02*
X0330484Y0293260I0000531J0000000D01*
G01*
X0331547Y0293260D01*
G75*
G02*
X0332079Y0292728I0000000J-000531D01*
G01*
X0332079Y0291272D01*
G75*
G02*
X0331547Y0290740I-000531J0000000D01*
G01*
X0330484Y0290740D01*
G75*
G02*
X0329953Y0291272I0000000J0000531D01*
G01*
G37*
G36*
G01*
X0130650Y0108346D02*
X0129193Y0108346D01*
G75*
G02*
X0128661Y0108878I0000000J0000531D01*
G01*
X0128661Y0109941D01*
G75*
G02*
X0129193Y0110472I0000531J0000000D01*
G01*
X0130650Y0110472D01*
G75*
G02*
X0131181Y0109941I0000000J-000531D01*
G01*
X0131181Y0108878D01*
G75*
G02*
X0130650Y0108346I-000531J0000000D01*
G01*
G37*
G36*
G01*
X0130650Y0112362D02*
X0129193Y0112362D01*
G75*
G02*
X0128661Y0112894I0000000J0000531D01*
G01*
X0128661Y0113957D01*
G75*
G02*
X0129193Y0114488I0000531J0000000D01*
G01*
X0130650Y0114488D01*
G75*
G02*
X0131181Y0113957I0000000J-000531D01*
G01*
X0131181Y0112894D01*
G75*
G02*
X0130650Y0112362I-000531J0000000D01*
G01*
G37*
G36*
G01*
X0361929Y0304272D02*
X0361929Y0305728D01*
G75*
G02*
X0362461Y0306260I0000531J0000000D01*
G01*
X0363524Y0306260D01*
G75*
G02*
X0364055Y0305728I0000000J-000531D01*
G01*
X0364055Y0304272D01*
G75*
G02*
X0363524Y0303740I-000531J0000000D01*
G01*
X0362461Y0303740D01*
G75*
G02*
X0361929Y0304272I0000000J0000531D01*
G01*
G37*
G36*
G01*
X0365945Y0304272D02*
X0365945Y0305728D01*
G75*
G02*
X0366476Y0306260I0000531J0000000D01*
G01*
X0367539Y0306260D01*
G75*
G02*
X0368071Y0305728I0000000J-000531D01*
G01*
X0368071Y0304272D01*
G75*
G02*
X0367539Y0303740I-000531J0000000D01*
G01*
X0366476Y0303740D01*
G75*
G02*
X0365945Y0304272I0000000J0000531D01*
G01*
G37*
G36*
G01*
X0123287Y0084961D02*
X0124744Y0084961D01*
G75*
G02*
X0125276Y0084429I0000000J-000531D01*
G01*
X0125276Y0083366D01*
G75*
G02*
X0124744Y0082835I-000531J0000000D01*
G01*
X0123287Y0082835D01*
G75*
G02*
X0122756Y0083366I0000000J0000531D01*
G01*
X0122756Y0084429D01*
G75*
G02*
X0123287Y0084961I0000531J0000000D01*
G01*
G37*
G36*
G01*
X0123287Y0080945D02*
X0124744Y0080945D01*
G75*
G02*
X0125276Y0080413I0000000J-000531D01*
G01*
X0125276Y0079350D01*
G75*
G02*
X0124744Y0078819I-000531J0000000D01*
G01*
X0123287Y0078819D01*
G75*
G02*
X0122756Y0079350I0000000J0000531D01*
G01*
X0122756Y0080413D01*
G75*
G02*
X0123287Y0080945I0000531J0000000D01*
G01*
G37*
G36*
G01*
X0123287Y0095394D02*
X0124744Y0095394D01*
G75*
G02*
X0125276Y0094862I0000000J-000531D01*
G01*
X0125276Y0093799D01*
G75*
G02*
X0124744Y0093268I-000531J0000000D01*
G01*
X0123287Y0093268D01*
G75*
G02*
X0122756Y0093799I0000000J0000531D01*
G01*
X0122756Y0094862D01*
G75*
G02*
X0123287Y0095394I0000531J0000000D01*
G01*
G37*
G36*
G01*
X0123287Y0091378D02*
X0124744Y0091378D01*
G75*
G02*
X0125276Y0090846I0000000J-000531D01*
G01*
X0125276Y0089783D01*
G75*
G02*
X0124744Y0089252I-000531J0000000D01*
G01*
X0123287Y0089252D01*
G75*
G02*
X0122756Y0089783I0000000J0000531D01*
G01*
X0122756Y0090846D01*
G75*
G02*
X0123287Y0091378I0000531J0000000D01*
G01*
G37*
G36*
G01*
X0354020Y0386272D02*
X0354020Y0387728D01*
G75*
G02*
X0354551Y0388260I0000531J0000000D01*
G01*
X0355614Y0388260D01*
G75*
G02*
X0356146Y0387728I0000000J-000531D01*
G01*
X0356146Y0386272D01*
G75*
G02*
X0355614Y0385740I-000531J0000000D01*
G01*
X0354551Y0385740D01*
G75*
G02*
X0354020Y0386272I0000000J0000531D01*
G01*
G37*
G36*
G01*
X0358035Y0386272D02*
X0358035Y0387728D01*
G75*
G02*
X0358567Y0388260I0000531J0000000D01*
G01*
X0359630Y0388260D01*
G75*
G02*
X0360161Y0387728I0000000J-000531D01*
G01*
X0360161Y0386272D01*
G75*
G02*
X0359630Y0385740I-000531J0000000D01*
G01*
X0358567Y0385740D01*
G75*
G02*
X0358035Y0386272I0000000J0000531D01*
G01*
G37*
G36*
G01*
X0323126Y0308016D02*
X0323126Y0309984D01*
G75*
G02*
X0324012Y0310870I0000886J0000000D01*
G01*
X0325783Y0310870D01*
G75*
G02*
X0326669Y0309984I0000000J-000886D01*
G01*
X0326669Y0308016D01*
G75*
G02*
X0325783Y0307130I-000886J0000000D01*
G01*
X0324012Y0307130D01*
G75*
G02*
X0323126Y0308016I0000000J0000886D01*
G01*
G37*
G36*
G01*
X0329228Y0308016D02*
X0329228Y0309984D01*
G75*
G02*
X0330114Y0310870I0000886J0000000D01*
G01*
X0331886Y0310870D01*
G75*
G02*
X0332772Y0309984I0000000J-000886D01*
G01*
X0332772Y0308016D01*
G75*
G02*
X0331886Y0307130I-000886J0000000D01*
G01*
X0330114Y0307130D01*
G75*
G02*
X0329228Y0308016I0000000J0000886D01*
G01*
G37*
G36*
G01*
X0342126Y0387016D02*
X0342126Y0388984D01*
G75*
G02*
X0343012Y0389870I0000886J0000000D01*
G01*
X0344783Y0389870D01*
G75*
G02*
X0345669Y0388984I0000000J-000886D01*
G01*
X0345669Y0387016D01*
G75*
G02*
X0344783Y0386130I-000886J0000000D01*
G01*
X0343012Y0386130D01*
G75*
G02*
X0342126Y0387016I0000000J0000886D01*
G01*
G37*
G36*
G01*
X0348228Y0387016D02*
X0348228Y0388984D01*
G75*
G02*
X0349114Y0389870I0000886J0000000D01*
G01*
X0350886Y0389870D01*
G75*
G02*
X0351772Y0388984I0000000J-000886D01*
G01*
X0351772Y0387016D01*
G75*
G02*
X0350886Y0386130I-000886J0000000D01*
G01*
X0349114Y0386130D01*
G75*
G02*
X0348228Y0387016I0000000J0000886D01*
G01*
G37*
G36*
G01*
X0354020Y0382321D02*
X0354020Y0383679D01*
G75*
G02*
X0354600Y0384260I0000581J0000000D01*
G01*
X0355762Y0384260D01*
G75*
G02*
X0356343Y0383679I0000000J-000581D01*
G01*
X0356343Y0382321D01*
G75*
G02*
X0355762Y0381740I-000581J0000000D01*
G01*
X0354600Y0381740D01*
G75*
G02*
X0354020Y0382321I0000000J0000581D01*
G01*
G37*
G36*
G01*
X0357839Y0382321D02*
X0357839Y0383679D01*
G75*
G02*
X0358419Y0384260I0000581J0000000D01*
G01*
X0359581Y0384260D01*
G75*
G02*
X0360161Y0383679I0000000J-000581D01*
G01*
X0360161Y0382321D01*
G75*
G02*
X0359581Y0381740I-000581J0000000D01*
G01*
X0358419Y0381740D01*
G75*
G02*
X0357839Y0382321I0000000J0000581D01*
G01*
G37*
D21*
X0122725Y0193500D03*
X0122725Y0198500D03*
X0122725Y0203500D03*
X0122725Y0208500D03*
X0101275Y0208500D03*
X0101275Y0203500D03*
X0101275Y0198500D03*
X0101275Y0193500D03*
X0122725Y0110500D03*
X0122725Y0115500D03*
X0122725Y0120500D03*
X0122725Y0125500D03*
X0101275Y0125500D03*
X0101275Y0120500D03*
X0101275Y0115500D03*
X0101275Y0110500D03*
G36*
G01*
X0375128Y0026322D02*
X0371782Y0026322D01*
G75*
G02*
X0371191Y0026913I0000000J0000591D01*
G01*
X0371191Y0028094D01*
G75*
G02*
X0371782Y0028684I0000591J0000000D01*
G01*
X0375128Y0028684D01*
G75*
G02*
X0375719Y0028094I0000000J-000591D01*
G01*
X0375719Y0026913D01*
G75*
G02*
X0375128Y0026322I-000591J0000000D01*
G01*
G37*
G36*
G01*
X0375128Y0029472D02*
X0371782Y0029472D01*
G75*
G02*
X0371191Y0030062I0000000J0000591D01*
G01*
X0371191Y0031243D01*
G75*
G02*
X0371782Y0031834I0000591J0000000D01*
G01*
X0375128Y0031834D01*
G75*
G02*
X0375719Y0031243I0000000J-000591D01*
G01*
X0375719Y0030062D01*
G75*
G02*
X0375128Y0029472I-000591J0000000D01*
G01*
G37*
G36*
G01*
X0375423Y0034590D02*
X0371486Y0034590D01*
G75*
G02*
X0371191Y0034885I0000000J0000295D01*
G01*
X0371191Y0035476D01*
G75*
G02*
X0371486Y0035771I0000295J0000000D01*
G01*
X0375423Y0035771D01*
G75*
G02*
X0375719Y0035476I0000000J-000295D01*
G01*
X0375719Y0034885D01*
G75*
G02*
X0375423Y0034590I-000295J0000000D01*
G01*
G37*
G36*
G01*
X0375423Y0038527D02*
X0371486Y0038527D01*
G75*
G02*
X0371191Y0038822I0000000J0000295D01*
G01*
X0371191Y0039413D01*
G75*
G02*
X0371486Y0039708I0000295J0000000D01*
G01*
X0375423Y0039708D01*
G75*
G02*
X0375719Y0039413I0000000J-000295D01*
G01*
X0375719Y0038822D01*
G75*
G02*
X0375423Y0038527I-000295J0000000D01*
G01*
G37*
G36*
G01*
X0375423Y0040495D02*
X0371486Y0040495D01*
G75*
G02*
X0371191Y0040791I0000000J0000295D01*
G01*
X0371191Y0041381D01*
G75*
G02*
X0371486Y0041676I0000295J0000000D01*
G01*
X0375423Y0041676D01*
G75*
G02*
X0375719Y0041381I0000000J-000295D01*
G01*
X0375719Y0040791D01*
G75*
G02*
X0375423Y0040495I-000295J0000000D01*
G01*
G37*
G36*
G01*
X0375423Y0044432D02*
X0371486Y0044432D01*
G75*
G02*
X0371191Y0044728I0000000J0000295D01*
G01*
X0371191Y0045318D01*
G75*
G02*
X0371486Y0045613I0000295J0000000D01*
G01*
X0375423Y0045613D01*
G75*
G02*
X0375719Y0045318I0000000J-000295D01*
G01*
X0375719Y0044728D01*
G75*
G02*
X0375423Y0044432I-000295J0000000D01*
G01*
G37*
G36*
G01*
X0375128Y0048369D02*
X0371782Y0048369D01*
G75*
G02*
X0371191Y0048960I0000000J0000591D01*
G01*
X0371191Y0050141D01*
G75*
G02*
X0371782Y0050732I0000591J0000000D01*
G01*
X0375128Y0050732D01*
G75*
G02*
X0375719Y0050141I0000000J-000591D01*
G01*
X0375719Y0048960D01*
G75*
G02*
X0375128Y0048369I-000591J0000000D01*
G01*
G37*
G36*
G01*
X0375128Y0051519D02*
X0371782Y0051519D01*
G75*
G02*
X0371191Y0052110I0000000J0000591D01*
G01*
X0371191Y0053291D01*
G75*
G02*
X0371782Y0053881I0000591J0000000D01*
G01*
X0375128Y0053881D01*
G75*
G02*
X0375719Y0053291I0000000J-000591D01*
G01*
X0375719Y0052110D01*
G75*
G02*
X0375128Y0051519I-000591J0000000D01*
G01*
G37*
G36*
G01*
X0375128Y0051519D02*
X0371782Y0051519D01*
G75*
G02*
X0371191Y0052110I0000000J0000591D01*
G01*
X0371191Y0053291D01*
G75*
G02*
X0371782Y0053881I0000591J0000000D01*
G01*
X0375128Y0053881D01*
G75*
G02*
X0375719Y0053291I0000000J-000591D01*
G01*
X0375719Y0052110D01*
G75*
G02*
X0375128Y0051519I-000591J0000000D01*
G01*
G37*
G36*
G01*
X0375128Y0048369D02*
X0371782Y0048369D01*
G75*
G02*
X0371191Y0048960I0000000J0000591D01*
G01*
X0371191Y0050141D01*
G75*
G02*
X0371782Y0050732I0000591J0000000D01*
G01*
X0375128Y0050732D01*
G75*
G02*
X0375719Y0050141I0000000J-000591D01*
G01*
X0375719Y0048960D01*
G75*
G02*
X0375128Y0048369I-000591J0000000D01*
G01*
G37*
G36*
G01*
X0375423Y0046401D02*
X0371486Y0046401D01*
G75*
G02*
X0371191Y0046696I0000000J0000295D01*
G01*
X0371191Y0047287D01*
G75*
G02*
X0371486Y0047582I0000295J0000000D01*
G01*
X0375423Y0047582D01*
G75*
G02*
X0375719Y0047287I0000000J-000295D01*
G01*
X0375719Y0046696D01*
G75*
G02*
X0375423Y0046401I-000295J0000000D01*
G01*
G37*
G36*
G01*
X0375423Y0042464D02*
X0371486Y0042464D01*
G75*
G02*
X0371191Y0042759I0000000J0000295D01*
G01*
X0371191Y0043350D01*
G75*
G02*
X0371486Y0043645I0000295J0000000D01*
G01*
X0375423Y0043645D01*
G75*
G02*
X0375719Y0043350I0000000J-000295D01*
G01*
X0375719Y0042759D01*
G75*
G02*
X0375423Y0042464I-000295J0000000D01*
G01*
G37*
G36*
G01*
X0375423Y0036558D02*
X0371486Y0036558D01*
G75*
G02*
X0371191Y0036854I0000000J0000295D01*
G01*
X0371191Y0037444D01*
G75*
G02*
X0371486Y0037739I0000295J0000000D01*
G01*
X0375423Y0037739D01*
G75*
G02*
X0375719Y0037444I0000000J-000295D01*
G01*
X0375719Y0036854D01*
G75*
G02*
X0375423Y0036558I-000295J0000000D01*
G01*
G37*
G36*
G01*
X0375423Y0032621D02*
X0371486Y0032621D01*
G75*
G02*
X0371191Y0032917I0000000J0000295D01*
G01*
X0371191Y0033507D01*
G75*
G02*
X0371486Y0033802I0000295J0000000D01*
G01*
X0375423Y0033802D01*
G75*
G02*
X0375719Y0033507I0000000J-000295D01*
G01*
X0375719Y0032917D01*
G75*
G02*
X0375423Y0032621I-000295J0000000D01*
G01*
G37*
G36*
G01*
X0375128Y0029472D02*
X0371782Y0029472D01*
G75*
G02*
X0371191Y0030062I0000000J0000591D01*
G01*
X0371191Y0031243D01*
G75*
G02*
X0371782Y0031834I0000591J0000000D01*
G01*
X0375128Y0031834D01*
G75*
G02*
X0375719Y0031243I0000000J-000591D01*
G01*
X0375719Y0030062D01*
G75*
G02*
X0375128Y0029472I-000591J0000000D01*
G01*
G37*
G36*
G01*
X0375128Y0026322D02*
X0371782Y0026322D01*
G75*
G02*
X0371191Y0026913I0000000J0000591D01*
G01*
X0371191Y0028094D01*
G75*
G02*
X0371782Y0028684I0000591J0000000D01*
G01*
X0375128Y0028684D01*
G75*
G02*
X0375719Y0028094I0000000J-000591D01*
G01*
X0375719Y0026913D01*
G75*
G02*
X0375128Y0026322I-000591J0000000D01*
G01*
G37*
G36*
G01*
X0378671Y0015692D02*
X0372766Y0015692D01*
G75*
G02*
X0371782Y0016676I0000000J0000984D01*
G01*
X0371782Y0023291D01*
G75*
G02*
X0372766Y0024275I0000984J0000000D01*
G01*
X0378671Y0024275D01*
G75*
G02*
X0379656Y0023291I0000000J-000984D01*
G01*
X0379656Y0016676D01*
G75*
G02*
X0378671Y0015692I-000984J0000000D01*
G01*
G37*
G36*
G01*
X0394144Y0015692D02*
X0388238Y0015692D01*
G75*
G02*
X0387254Y0016676I0000000J0000984D01*
G01*
X0387254Y0023291D01*
G75*
G02*
X0388238Y0024275I0000984J0000000D01*
G01*
X0394144Y0024275D01*
G75*
G02*
X0395128Y0023291I0000000J-000984D01*
G01*
X0395128Y0016676D01*
G75*
G02*
X0394144Y0015692I-000984J0000000D01*
G01*
G37*
G36*
G01*
X0378671Y0055928D02*
X0372766Y0055928D01*
G75*
G02*
X0371782Y0056913I0000000J0000984D01*
G01*
X0371782Y0063527D01*
G75*
G02*
X0372766Y0064511I0000984J0000000D01*
G01*
X0378671Y0064511D01*
G75*
G02*
X0379656Y0063527I0000000J-000984D01*
G01*
X0379656Y0056913D01*
G75*
G02*
X0378671Y0055928I-000984J0000000D01*
G01*
G37*
G36*
G01*
X0394144Y0055928D02*
X0388238Y0055928D01*
G75*
G02*
X0387254Y0056913I0000000J0000984D01*
G01*
X0387254Y0063527D01*
G75*
G02*
X0388238Y0064511I0000984J0000000D01*
G01*
X0394144Y0064511D01*
G75*
G02*
X0395128Y0063527I0000000J-000984D01*
G01*
X0395128Y0056913D01*
G75*
G02*
X0394144Y0055928I-000984J0000000D01*
G01*
G37*
G36*
G01*
X0368211Y0035712D02*
X0368211Y0034255D01*
G75*
G02*
X0367679Y0033724I-000531J0000000D01*
G01*
X0366616Y0033724D01*
G75*
G02*
X0366085Y0034255I0000000J0000531D01*
G01*
X0366085Y0035712D01*
G75*
G02*
X0366616Y0036243I0000531J0000000D01*
G01*
X0367679Y0036243D01*
G75*
G02*
X0368211Y0035712I0000000J-000531D01*
G01*
G37*
G36*
G01*
X0364195Y0035712D02*
X0364195Y0034255D01*
G75*
G02*
X0363663Y0033724I-000531J0000000D01*
G01*
X0362601Y0033724D01*
G75*
G02*
X0362069Y0034255I0000000J0000531D01*
G01*
X0362069Y0035712D01*
G75*
G02*
X0362601Y0036243I0000531J0000000D01*
G01*
X0363663Y0036243D01*
G75*
G02*
X0364195Y0035712I0000000J-000531D01*
G01*
G37*
G36*
G01*
X0361921Y0308321D02*
X0361921Y0309679D01*
G75*
G02*
X0362502Y0310260I0000581J0000000D01*
G01*
X0363663Y0310260D01*
G75*
G02*
X0364244Y0309679I0000000J-000581D01*
G01*
X0364244Y0308321D01*
G75*
G02*
X0363663Y0307740I-000581J0000000D01*
G01*
X0362502Y0307740D01*
G75*
G02*
X0361921Y0308321I0000000J0000581D01*
G01*
G37*
G36*
G01*
X0365740Y0308321D02*
X0365740Y0309679D01*
G75*
G02*
X0366321Y0310260I0000581J0000000D01*
G01*
X0367482Y0310260D01*
G75*
G02*
X0368063Y0309679I0000000J-000581D01*
G01*
X0368063Y0308321D01*
G75*
G02*
X0367482Y0307740I-000581J0000000D01*
G01*
X0366321Y0307740D01*
G75*
G02*
X0365740Y0308321I0000000J0000581D01*
G01*
G37*
D35*
X0206083Y0242382D03*
D36*
X0335217Y0242382D03*
D37*
X0302933Y0242382D03*
D38*
X0255492Y0242382D03*
D39*
X0229114Y0242382D03*
D40*
X0201949Y0235295D03*
D41*
X0359035Y0229783D03*
D42*
X0359035Y0196319D03*
D43*
X0359035Y0157539D03*
D44*
X0353130Y0076634D03*
D45*
X0227736Y0076634D03*
D46*
X0205492Y0076634D03*
G36*
G01*
X0168575Y0266083D02*
X0168575Y0263917D01*
G75*
G02*
X0167787Y0263130I-000787J0000000D01*
G01*
X0166213Y0263130D01*
G75*
G02*
X0165425Y0263917I0000000J0000787D01*
G01*
X0165425Y0266083D01*
G75*
G02*
X0166213Y0266870I0000787J0000000D01*
G01*
X0167787Y0266870D01*
G75*
G02*
X0168575Y0266083I0000000J-000787D01*
G01*
G37*
G36*
G01*
X0162079Y0266083D02*
X0162079Y0263917D01*
G75*
G02*
X0161291Y0263130I-000787J0000000D01*
G01*
X0159717Y0263130D01*
G75*
G02*
X0158929Y0263917I0000000J0000787D01*
G01*
X0158929Y0266083D01*
G75*
G02*
X0159717Y0266870I0000787J0000000D01*
G01*
X0161291Y0266870D01*
G75*
G02*
X0162079Y0266083I0000000J-000787D01*
G01*
G37*
G36*
G01*
X0368219Y0047712D02*
X0368219Y0046255D01*
G75*
G02*
X0367687Y0045724I-000531J0000000D01*
G01*
X0366624Y0045724D01*
G75*
G02*
X0366093Y0046255I0000000J0000531D01*
G01*
X0366093Y0047712D01*
G75*
G02*
X0366624Y0048243I0000531J0000000D01*
G01*
X0367687Y0048243D01*
G75*
G02*
X0368219Y0047712I0000000J-000531D01*
G01*
G37*
G36*
G01*
X0364203Y0047712D02*
X0364203Y0046255D01*
G75*
G02*
X0363671Y0045724I-000531J0000000D01*
G01*
X0362608Y0045724D01*
G75*
G02*
X0362077Y0046255I0000000J0000531D01*
G01*
X0362077Y0047712D01*
G75*
G02*
X0362608Y0048243I0000531J0000000D01*
G01*
X0363671Y0048243D01*
G75*
G02*
X0364203Y0047712I0000000J-000531D01*
G01*
G37*
D51*
X0374409Y0375591D03*
X0370472Y0375591D03*
X0366535Y0375591D03*
X0362598Y0375591D03*
X0358661Y0375591D03*
X0354724Y0375591D03*
X0350787Y0375591D03*
X0346850Y0375591D03*
X0342913Y0375591D03*
X0338976Y0375591D03*
X0335039Y0375591D03*
X0331102Y0375591D03*
X0327165Y0375591D03*
D52*
X0320669Y0370079D03*
X0320669Y0366142D03*
X0320669Y0362205D03*
X0320669Y0358268D03*
X0320669Y0354331D03*
X0320669Y0350394D03*
X0320669Y0346457D03*
X0320669Y0342520D03*
X0320669Y0338583D03*
X0320669Y0334646D03*
X0320669Y0330709D03*
X0320669Y0326772D03*
X0320669Y0322835D03*
D51*
X0327165Y0317323D03*
X0331102Y0317323D03*
X0335039Y0317323D03*
X0338976Y0317323D03*
X0342913Y0317323D03*
X0346850Y0317323D03*
X0350787Y0317323D03*
X0354724Y0317323D03*
X0358661Y0317323D03*
X0362598Y0317323D03*
X0366535Y0317323D03*
X0370472Y0317323D03*
X0374409Y0317323D03*
D53*
X0351575Y0353858D03*
X0351575Y0349134D03*
X0351575Y0344409D03*
X0346850Y0353858D03*
X0346850Y0349134D03*
X0346850Y0344409D03*
X0342126Y0353858D03*
X0342126Y0349134D03*
X0342126Y0344409D03*
D54*
X0116437Y0046358D03*
X0116437Y0051358D03*
X0116437Y0056358D03*
X0116437Y0061358D03*
D55*
X0093307Y0061358D03*
X0093307Y0056358D03*
X0093307Y0051358D03*
X0093307Y0046358D03*
D56*
X0103740Y0048858D03*
X0103740Y0058858D03*
D57*
X0149606Y0353260D03*
X0149606Y0371260D03*
D24*
X0121656Y0362260D03*
G36*
G01*
X0129728Y0202421D02*
X0128272Y0202421D01*
G75*
G02*
X0127740Y0202953I0000000J0000531D01*
G01*
X0127740Y0204016D01*
G75*
G02*
X0128272Y0204547I0000531J0000000D01*
G01*
X0129728Y0204547D01*
G75*
G02*
X0130260Y0204016I0000000J-000531D01*
G01*
X0130260Y0202953D01*
G75*
G02*
X0129728Y0202421I-000531J0000000D01*
G01*
G37*
G36*
G01*
X0129728Y0206437D02*
X0128272Y0206437D01*
G75*
G02*
X0127740Y0206969I0000000J0000531D01*
G01*
X0127740Y0208031D01*
G75*
G02*
X0128272Y0208563I0000531J0000000D01*
G01*
X0129728Y0208563D01*
G75*
G02*
X0130260Y0208031I0000000J-000531D01*
G01*
X0130260Y0206969D01*
G75*
G02*
X0129728Y0206437I-000531J0000000D01*
G01*
G37*
G36*
G01*
X0123189Y0051988D02*
X0124646Y0051988D01*
G75*
G02*
X0125177Y0051457I0000000J-000531D01*
G01*
X0125177Y0050394D01*
G75*
G02*
X0124646Y0049862I-000531J0000000D01*
G01*
X0123189Y0049862D01*
G75*
G02*
X0122657Y0050394I0000000J0000531D01*
G01*
X0122657Y0051457D01*
G75*
G02*
X0123189Y0051988I0000531J0000000D01*
G01*
G37*
G36*
G01*
X0123189Y0047972D02*
X0124646Y0047972D01*
G75*
G02*
X0125177Y0047441I0000000J-000531D01*
G01*
X0125177Y0046378D01*
G75*
G02*
X0124646Y0045846I-000531J0000000D01*
G01*
X0123189Y0045846D01*
G75*
G02*
X0122657Y0046378I0000000J0000531D01*
G01*
X0122657Y0047441D01*
G75*
G02*
X0123189Y0047972I0000531J0000000D01*
G01*
G37*
D54*
X0116732Y0079685D03*
X0116732Y0084685D03*
X0116732Y0089685D03*
X0116732Y0094685D03*
D55*
X0093602Y0094685D03*
X0093602Y0089685D03*
X0093602Y0084685D03*
X0093602Y0079685D03*
D56*
X0104035Y0082185D03*
X0104035Y0092185D03*
D57*
X0149606Y0324016D03*
X0149606Y0342016D03*
D24*
X0121656Y0333016D03*
X0345664Y0045971D02*
G01*
G75*
D79*
X0298007Y0035341D02*
D03*
X0298007Y0011916D02*
D03*
X0308007Y0035341D02*
D03*
X0308007Y0011916D02*
D03*
X0318007Y0035341D02*
D03*
X0318007Y0011916D02*
D03*
X0328007Y0035341D02*
D03*
X0328007Y0011916D02*
D03*
X0338007Y0035341D02*
D03*
X0338007Y0011916D02*
D03*
D269*
X0287948Y0022251D02*
D03*
X0281727Y0022251D02*
D03*
X0285389Y0034258D02*
D03*
X0279168Y0034258D02*
D03*
D270*
X0277751Y0028254D02*
D03*
X0290743Y0028254D02*
D03*
D271*
X0279227Y0038884D02*
D03*
X0285526Y0038884D02*
D03*
D272*
X0285231Y0008392D02*
D03*
X0288971Y0017644D02*
D03*
D272*
X0281491Y0017644D02*
D03*
D273*
X0289857Y0039435D02*
D03*
X0289857Y0033215D02*
D03*
X0193024Y0267547D02*
G01*
G75*
D107*
X0238103Y0291914D02*
D03*
X0238103Y0274197D02*
D03*
D108*
X0234776Y0316366D02*
D03*
X0207414Y0316366D02*
D03*
D109*
X0223536Y0293138D02*
D03*
X0207394Y0293138D02*
D03*
D110*
X0225307Y0275027D02*
D03*
X0209559Y0275027D02*
D03*
D111*
X0202368Y0336805D02*
D03*
X0211620Y0333065D02*
D03*
D111*
X0211620Y0340545D02*
D03*
D112*
X0234455Y0346484D02*
D03*
D112*
X0234455Y0342744D02*
D03*
X0234455Y0339004D02*
D03*
X0242919Y0339004D02*
D03*
X0242919Y0346484D02*
D03*
D81*
X0246771Y0332483D02*
D03*
X0233779Y0332483D02*
D03*
D113*
X0228485Y0332771D02*
D03*
X0217067Y0332771D02*
D03*
D114*
X0247670Y0300224D02*
D03*
X0241449Y0300224D02*
D03*
X0237079Y0300224D02*
D03*
X0230859Y0300224D02*
D03*
D115*
X0196993Y0277335D02*
D03*
X0196993Y0281469D02*
D03*
X0247548Y0319209D02*
D03*
X0247548Y0323343D02*
D03*
X0247548Y0314496D02*
D03*
X0247548Y0310362D02*
D03*
X0248440Y0294847D02*
D03*
X0248440Y0290713D02*
D03*
D116*
X0229337Y0339054D02*
D03*
X0229337Y0342991D02*
D03*
X0215662Y0339956D02*
D03*
X0224323Y0339956D02*
D03*
X0215662Y0346353D02*
D03*
X0224323Y0346353D02*
D03*
D117*
X0207289Y0346484D02*
D03*
X0210833Y0346484D02*
D03*
D118*
X0243290Y0323146D02*
D03*
X0243290Y0319602D02*
D03*
X0243290Y0314102D02*
D03*
X0243290Y0310559D02*
D03*
X0248440Y0282546D02*
D03*
X0248440Y0286090D02*
D03*
X0201555Y0242776D02*
G01*
G75*
D39*
X0229114Y0242382D02*
D03*
D35*
X0206083Y0242382D02*
D03*
D38*
X0255492Y0242382D02*
D03*
D46*
X0205492Y0076634D02*
D03*
D37*
X0302933Y0242382D02*
D03*
D36*
X0335216Y0242382D02*
D03*
D41*
X0359035Y0229784D02*
D03*
D42*
X0359035Y0196319D02*
D03*
D43*
X0359035Y0157540D02*
D03*
D45*
X0227736Y0076634D02*
D03*
D44*
X0353130Y0076634D02*
D03*
D40*
X0201949Y0235296D02*
D03*
D157*
X0352638Y0174371D02*
D03*
X0352638Y0172402D02*
D03*
X0352638Y0170434D02*
D03*
X0352638Y0168465D02*
D03*
X0352638Y0166497D02*
D03*
X0352638Y0164528D02*
D03*
X0352638Y0162560D02*
D03*
X0352638Y0160591D02*
D03*
X0352638Y0158623D02*
D03*
X0352638Y0156654D02*
D03*
X0352638Y0154686D02*
D03*
X0352638Y0152717D02*
D03*
X0352638Y0150748D02*
D03*
X0352638Y0148780D02*
D03*
X0352638Y0146811D02*
D03*
X0352638Y0144843D02*
D03*
X0352638Y0142874D02*
D03*
X0352638Y0140906D02*
D03*
X0352638Y0138937D02*
D03*
X0352638Y0136969D02*
D03*
X0352638Y0135000D02*
D03*
X0352638Y0133032D02*
D03*
X0352638Y0131063D02*
D03*
X0352638Y0129095D02*
D03*
X0352638Y0127126D02*
D03*
X0352638Y0125158D02*
D03*
X0352638Y0123189D02*
D03*
X0352638Y0121221D02*
D03*
X0352638Y0119252D02*
D03*
X0352638Y0117284D02*
D03*
X0352638Y0115315D02*
D03*
X0352638Y0113347D02*
D03*
X0352638Y0111378D02*
D03*
X0352638Y0109410D02*
D03*
X0352638Y0107441D02*
D03*
X0352638Y0105473D02*
D03*
X0268976Y0105473D02*
D03*
X0268976Y0107441D02*
D03*
X0268976Y0109410D02*
D03*
X0268976Y0111378D02*
D03*
X0268976Y0113347D02*
D03*
X0268976Y0115315D02*
D03*
X0268976Y0117284D02*
D03*
X0268976Y0119252D02*
D03*
X0268976Y0121221D02*
D03*
X0268976Y0123189D02*
D03*
X0268976Y0125158D02*
D03*
X0268976Y0127126D02*
D03*
X0268976Y0129095D02*
D03*
X0268976Y0131063D02*
D03*
X0268976Y0133032D02*
D03*
X0268976Y0135000D02*
D03*
X0268976Y0136969D02*
D03*
X0268976Y0138937D02*
D03*
X0268976Y0140906D02*
D03*
X0268976Y0142874D02*
D03*
X0268976Y0144843D02*
D03*
X0268976Y0146811D02*
D03*
X0268976Y0148780D02*
D03*
X0268976Y0150748D02*
D03*
X0268976Y0152717D02*
D03*
X0268976Y0154686D02*
D03*
X0268976Y0156654D02*
D03*
X0268976Y0158623D02*
D03*
X0268976Y0160591D02*
D03*
X0268976Y0162560D02*
D03*
X0268976Y0164528D02*
D03*
X0268976Y0166497D02*
D03*
X0268976Y0168465D02*
D03*
X0268976Y0170434D02*
D03*
X0268976Y0172402D02*
D03*
X0268976Y0174371D02*
D03*
D156*
X0345256Y0098091D02*
D03*
X0343287Y0098091D02*
D03*
X0341319Y0098091D02*
D03*
X0339350Y0098091D02*
D03*
X0337382Y0098091D02*
D03*
X0335413Y0098091D02*
D03*
X0333445Y0098091D02*
D03*
X0331476Y0098091D02*
D03*
X0329508Y0098091D02*
D03*
X0327539Y0098091D02*
D03*
X0325571Y0098091D02*
D03*
X0323602Y0098091D02*
D03*
X0321634Y0098091D02*
D03*
X0319665Y0098091D02*
D03*
X0317697Y0098091D02*
D03*
X0315728Y0098091D02*
D03*
X0313760Y0098091D02*
D03*
X0311791Y0098091D02*
D03*
X0309823Y0098091D02*
D03*
X0307854Y0098091D02*
D03*
X0305886Y0098091D02*
D03*
X0303917Y0098091D02*
D03*
X0301949Y0098091D02*
D03*
X0299980Y0098091D02*
D03*
X0298012Y0098091D02*
D03*
X0296043Y0098091D02*
D03*
X0294075Y0098091D02*
D03*
X0292106Y0098091D02*
D03*
X0290138Y0098091D02*
D03*
X0288169Y0098091D02*
D03*
X0286201Y0098091D02*
D03*
X0284232Y0098091D02*
D03*
X0282264Y0098091D02*
D03*
X0280295Y0098091D02*
D03*
X0278327Y0098091D02*
D03*
X0276358Y0098091D02*
D03*
X0276358Y0181752D02*
D03*
X0278327Y0181752D02*
D03*
X0280295Y0181752D02*
D03*
X0282264Y0181752D02*
D03*
X0284232Y0181752D02*
D03*
X0286201Y0181752D02*
D03*
X0288169Y0181752D02*
D03*
X0290138Y0181752D02*
D03*
X0292106Y0181752D02*
D03*
X0294075Y0181752D02*
D03*
X0296043Y0181752D02*
D03*
X0298012Y0181752D02*
D03*
X0299980Y0181752D02*
D03*
X0301949Y0181752D02*
D03*
X0303917Y0181752D02*
D03*
X0305886Y0181752D02*
D03*
X0307854Y0181752D02*
D03*
X0309823Y0181752D02*
D03*
X0311791Y0181752D02*
D03*
X0313760Y0181752D02*
D03*
X0315728Y0181752D02*
D03*
X0317697Y0181752D02*
D03*
X0319665Y0181752D02*
D03*
X0321634Y0181752D02*
D03*
X0323602Y0181752D02*
D03*
X0325571Y0181752D02*
D03*
X0327539Y0181752D02*
D03*
X0329508Y0181752D02*
D03*
X0331476Y0181752D02*
D03*
X0333445Y0181752D02*
D03*
X0335413Y0181752D02*
D03*
X0337382Y0181752D02*
D03*
X0339350Y0181752D02*
D03*
X0341319Y0181752D02*
D03*
X0343287Y0181752D02*
D03*
X0345256Y0181752D02*
D03*
D406*
X0329067Y0081746D02*
D03*
X0332807Y0090998D02*
D03*
D406*
X0336547Y0081746D02*
D03*
D407*
X0326752Y0235296D02*
D03*
X0326752Y0217185D02*
D03*
D408*
X0326752Y0226241D02*
D03*
D409*
X0351161Y0226241D02*
D03*
D410*
X0302736Y0204981D02*
D03*
X0302736Y0198288D02*
D03*
X0309823Y0198288D02*
D03*
X0309823Y0204981D02*
D03*
X0316909Y0204981D02*
D03*
X0316909Y0198288D02*
D03*
X0323996Y0198288D02*
D03*
X0323996Y0204981D02*
D03*
X0295256Y0214823D02*
D03*
X0295256Y0221516D02*
D03*
X0295256Y0198288D02*
D03*
X0295256Y0204981D02*
D03*
X0288169Y0214823D02*
D03*
X0288169Y0221516D02*
D03*
X0288169Y0198288D02*
D03*
X0288169Y0204981D02*
D03*
X0281083Y0214823D02*
D03*
X0281083Y0221516D02*
D03*
X0281083Y0198288D02*
D03*
X0281083Y0204981D02*
D03*
X0273996Y0221516D02*
D03*
X0273996Y0214823D02*
D03*
X0273996Y0198288D02*
D03*
X0273996Y0204981D02*
D03*
D411*
X0353694Y0082345D02*
D03*
X0353694Y0086085D02*
D03*
X0353694Y0089826D02*
D03*
X0344245Y0089826D02*
D03*
X0344245Y0086085D02*
D03*
X0344245Y0082345D02*
D03*
D412*
X0209035Y0238052D02*
D03*
X0212972Y0238052D02*
D03*
X0222027Y0091595D02*
D03*
X0218090Y0091595D02*
D03*
X0210610Y0195138D02*
D03*
X0206673Y0195138D02*
D03*
X0210610Y0180965D02*
D03*
X0206673Y0180965D02*
D03*
X0214547Y0162067D02*
D03*
X0210610Y0162067D02*
D03*
X0206673Y0162067D02*
D03*
X0210610Y0162067D02*
D03*
X0210610Y0152618D02*
D03*
X0214547Y0152618D02*
D03*
X0210610Y0152618D02*
D03*
X0206673Y0152618D02*
D03*
X0214547Y0128996D02*
D03*
X0210610Y0128996D02*
D03*
X0210610Y0105374D02*
D03*
X0214547Y0105374D02*
D03*
X0210610Y0105374D02*
D03*
X0206673Y0105374D02*
D03*
X0324390Y0188740D02*
D03*
X0328327Y0188740D02*
D03*
X0214153Y0100650D02*
D03*
X0218090Y0100650D02*
D03*
X0229705Y0238052D02*
D03*
X0225768Y0238052D02*
D03*
X0265728Y0226634D02*
D03*
X0269665Y0226634D02*
D03*
X0218090Y0082146D02*
D03*
X0222027Y0082146D02*
D03*
X0218090Y0086871D02*
D03*
X0222027Y0086871D02*
D03*
X0218090Y0096319D02*
D03*
X0222027Y0096319D02*
D03*
X0210610Y0232933D02*
D03*
X0214547Y0232933D02*
D03*
X0210610Y0228209D02*
D03*
X0214547Y0228209D02*
D03*
X0210610Y0223485D02*
D03*
X0214547Y0223485D02*
D03*
X0210610Y0218760D02*
D03*
X0214547Y0218760D02*
D03*
X0210610Y0232933D02*
D03*
X0206673Y0232933D02*
D03*
X0210610Y0228209D02*
D03*
X0206673Y0228209D02*
D03*
X0210610Y0223485D02*
D03*
X0206673Y0223485D02*
D03*
X0210610Y0218760D02*
D03*
X0206673Y0218760D02*
D03*
X0210610Y0214036D02*
D03*
X0214547Y0214036D02*
D03*
X0210610Y0209311D02*
D03*
X0214547Y0209311D02*
D03*
X0210610Y0204587D02*
D03*
X0214547Y0204587D02*
D03*
X0210610Y0199745D02*
D03*
X0214547Y0199745D02*
D03*
X0210610Y0214036D02*
D03*
X0206673Y0214036D02*
D03*
X0210610Y0209311D02*
D03*
X0206673Y0209311D02*
D03*
X0210610Y0204587D02*
D03*
X0206673Y0204587D02*
D03*
X0210610Y0199863D02*
D03*
X0206673Y0199863D02*
D03*
X0210610Y0195138D02*
D03*
X0214547Y0195138D02*
D03*
X0210610Y0190414D02*
D03*
X0214547Y0190414D02*
D03*
X0210610Y0185689D02*
D03*
X0214547Y0185689D02*
D03*
X0210610Y0180965D02*
D03*
X0214547Y0180965D02*
D03*
X0210610Y0190414D02*
D03*
X0206673Y0190414D02*
D03*
X0210610Y0185689D02*
D03*
X0206673Y0185689D02*
D03*
X0214547Y0176240D02*
D03*
X0210610Y0176240D02*
D03*
X0214547Y0171516D02*
D03*
X0210610Y0171516D02*
D03*
X0214547Y0166792D02*
D03*
X0210610Y0166792D02*
D03*
X0206673Y0176240D02*
D03*
X0210610Y0176240D02*
D03*
X0206673Y0171516D02*
D03*
X0210610Y0171516D02*
D03*
X0206673Y0166792D02*
D03*
X0210610Y0166792D02*
D03*
X0210610Y0157343D02*
D03*
X0214547Y0157343D02*
D03*
X0210610Y0147894D02*
D03*
X0214547Y0147894D02*
D03*
X0210610Y0143170D02*
D03*
X0214547Y0143170D02*
D03*
X0210610Y0157343D02*
D03*
X0206673Y0157343D02*
D03*
X0210610Y0147894D02*
D03*
X0206673Y0147894D02*
D03*
X0210610Y0143170D02*
D03*
X0206673Y0143170D02*
D03*
X0214547Y0138445D02*
D03*
X0210610Y0138445D02*
D03*
X0214547Y0133721D02*
D03*
X0210610Y0133721D02*
D03*
X0214547Y0124272D02*
D03*
X0210610Y0124272D02*
D03*
X0206673Y0138445D02*
D03*
X0210610Y0138445D02*
D03*
X0206673Y0133721D02*
D03*
X0210610Y0133721D02*
D03*
X0206673Y0128996D02*
D03*
X0210610Y0128996D02*
D03*
X0206673Y0124272D02*
D03*
X0210610Y0124272D02*
D03*
X0210610Y0119548D02*
D03*
X0214547Y0119548D02*
D03*
X0210610Y0114823D02*
D03*
X0214547Y0114823D02*
D03*
X0210610Y0110099D02*
D03*
X0214547Y0110099D02*
D03*
X0210610Y0119548D02*
D03*
X0206673Y0119548D02*
D03*
X0210610Y0114823D02*
D03*
X0206673Y0114823D02*
D03*
X0210610Y0110099D02*
D03*
X0206673Y0110099D02*
D03*
X0214547Y0096319D02*
D03*
X0210610Y0096319D02*
D03*
X0214547Y0091595D02*
D03*
X0210610Y0091595D02*
D03*
X0214547Y0086871D02*
D03*
X0210610Y0086871D02*
D03*
X0214547Y0082146D02*
D03*
X0210610Y0082146D02*
D03*
X0206673Y0096319D02*
D03*
X0210610Y0096319D02*
D03*
X0206673Y0091595D02*
D03*
X0210610Y0091595D02*
D03*
X0206673Y0086871D02*
D03*
X0210610Y0086871D02*
D03*
X0206673Y0082146D02*
D03*
X0210610Y0082146D02*
D03*
X0220649Y0238052D02*
D03*
X0216712Y0238052D02*
D03*
X0333445Y0202619D02*
D03*
X0337382Y0202619D02*
D03*
D413*
X0227342Y0183327D02*
D03*
X0223602Y0183327D02*
D03*
X0219862Y0183327D02*
D03*
X0219862Y0192776D02*
D03*
X0223602Y0192776D02*
D03*
X0227342Y0192776D02*
D03*
X0227342Y0221122D02*
D03*
X0223602Y0221122D02*
D03*
X0219862Y0221122D02*
D03*
X0219862Y0230571D02*
D03*
X0223602Y0230571D02*
D03*
X0227342Y0230571D02*
D03*
X0227342Y0202225D02*
D03*
X0223602Y0202225D02*
D03*
X0219862Y0202225D02*
D03*
X0219862Y0211674D02*
D03*
X0223602Y0211674D02*
D03*
X0227342Y0211674D02*
D03*
X0227342Y0164429D02*
D03*
X0223602Y0164429D02*
D03*
X0219862Y0164429D02*
D03*
X0219862Y0173878D02*
D03*
X0223602Y0173878D02*
D03*
X0227342Y0173878D02*
D03*
X0227342Y0145532D02*
D03*
X0223602Y0145532D02*
D03*
X0219862Y0145532D02*
D03*
X0219862Y0154981D02*
D03*
X0223602Y0154981D02*
D03*
X0227342Y0154981D02*
D03*
X0227342Y0126634D02*
D03*
X0223602Y0126634D02*
D03*
X0219862Y0126634D02*
D03*
X0219862Y0136083D02*
D03*
X0223602Y0136083D02*
D03*
X0227342Y0136083D02*
D03*
X0227342Y0107737D02*
D03*
X0223602Y0107737D02*
D03*
X0219862Y0107737D02*
D03*
X0219862Y0117185D02*
D03*
X0223602Y0117185D02*
D03*
X0227342Y0117185D02*
D03*
D414*
X0257460Y0086083D02*
D03*
X0275177Y0086083D02*
D03*
D120*
X0206673Y0100374D02*
D03*
X0204705Y0238052D02*
D03*
D415*
X0280197Y0231752D02*
D03*
X0280197Y0238839D02*
D03*
X0270157Y0238839D02*
D03*
X0270157Y0231752D02*
D03*
X0286299Y0231752D02*
D03*
X0286299Y0238839D02*
D03*
X0296339Y0238839D02*
D03*
X0296339Y0231752D02*
D03*
D416*
X0273602Y0238839D02*
D03*
X0276752Y0238839D02*
D03*
X0276752Y0231752D02*
D03*
X0273602Y0231752D02*
D03*
X0289744Y0231752D02*
D03*
X0292894Y0231752D02*
D03*
X0292894Y0238839D02*
D03*
X0289744Y0238839D02*
D03*
D417*
X0323208Y0084115D02*
D03*
X0306673Y0084115D02*
D03*
X0283839Y0084115D02*
D03*
X0300374Y0084115D02*
D03*
D170*
X0256673Y0096910D02*
D03*
X0256673Y0099469D02*
D03*
X0256673Y0102028D02*
D03*
X0256673Y0104587D02*
D03*
X0256673Y0107146D02*
D03*
X0256673Y0109705D02*
D03*
X0256673Y0112264D02*
D03*
X0234232Y0096910D02*
D03*
X0234232Y0099469D02*
D03*
X0234232Y0102028D02*
D03*
X0234232Y0104587D02*
D03*
X0234232Y0107146D02*
D03*
X0234232Y0109705D02*
D03*
X0234232Y0112264D02*
D03*
X0256673Y0165414D02*
D03*
X0256673Y0167973D02*
D03*
X0256673Y0170532D02*
D03*
X0256673Y0173091D02*
D03*
X0256673Y0175650D02*
D03*
X0256673Y0178209D02*
D03*
X0256673Y0180768D02*
D03*
X0234232Y0165414D02*
D03*
X0234232Y0167973D02*
D03*
X0234232Y0170532D02*
D03*
X0234232Y0173091D02*
D03*
X0234232Y0175650D02*
D03*
X0234232Y0178209D02*
D03*
X0234232Y0180768D02*
D03*
X0256673Y0142579D02*
D03*
X0256673Y0145138D02*
D03*
X0256673Y0147697D02*
D03*
X0256673Y0150256D02*
D03*
X0256673Y0152815D02*
D03*
X0256673Y0155374D02*
D03*
X0256673Y0157933D02*
D03*
X0234232Y0142579D02*
D03*
X0234232Y0145138D02*
D03*
X0234232Y0147697D02*
D03*
X0234232Y0150256D02*
D03*
X0234232Y0152815D02*
D03*
X0234232Y0155374D02*
D03*
X0234232Y0157933D02*
D03*
X0256673Y0119745D02*
D03*
X0256673Y0122304D02*
D03*
X0256673Y0124863D02*
D03*
X0256673Y0127422D02*
D03*
X0256673Y0129981D02*
D03*
X0256673Y0132540D02*
D03*
X0256673Y0135099D02*
D03*
X0234232Y0119745D02*
D03*
X0234232Y0122304D02*
D03*
X0234232Y0124863D02*
D03*
X0234232Y0127422D02*
D03*
X0234232Y0129981D02*
D03*
X0234232Y0132540D02*
D03*
X0234232Y0135099D02*
D03*
D169*
X0245256Y0187067D02*
D03*
X0247815Y0187067D02*
D03*
X0250374Y0187067D02*
D03*
X0252933Y0187067D02*
D03*
X0255492Y0187067D02*
D03*
X0258051Y0187067D02*
D03*
X0260610Y0187067D02*
D03*
X0245256Y0209508D02*
D03*
X0247815Y0209508D02*
D03*
X0250374Y0209508D02*
D03*
X0252933Y0209508D02*
D03*
X0255492Y0209508D02*
D03*
X0258051Y0209508D02*
D03*
X0260610Y0209508D02*
D03*
X0245256Y0215020D02*
D03*
X0247815Y0215020D02*
D03*
X0250374Y0215020D02*
D03*
X0252933Y0215020D02*
D03*
X0255492Y0215020D02*
D03*
X0258051Y0215020D02*
D03*
X0260610Y0215020D02*
D03*
X0245256Y0237461D02*
D03*
X0247815Y0237461D02*
D03*
X0250374Y0237461D02*
D03*
X0252933Y0237461D02*
D03*
X0255492Y0237461D02*
D03*
X0258051Y0237461D02*
D03*
X0260610Y0237461D02*
D03*
D418*
X0233642Y0204390D02*
D03*
X0236201Y0204390D02*
D03*
X0238760Y0204390D02*
D03*
X0233642Y0211870D02*
D03*
X0236201Y0211870D02*
D03*
X0238760Y0211870D02*
D03*
X0238760Y0224469D02*
D03*
X0236201Y0224469D02*
D03*
X0233642Y0224469D02*
D03*
X0238760Y0216989D02*
D03*
X0236201Y0216989D02*
D03*
X0233642Y0216989D02*
D03*
X0233642Y0229193D02*
D03*
X0236201Y0229193D02*
D03*
X0238760Y0229193D02*
D03*
X0233642Y0236674D02*
D03*
X0236201Y0236674D02*
D03*
X0238760Y0236674D02*
D03*
X0238760Y0199666D02*
D03*
X0236201Y0199666D02*
D03*
X0233642Y0199666D02*
D03*
X0238760Y0192185D02*
D03*
X0236201Y0192185D02*
D03*
X0233642Y0192185D02*
D03*
D302*
X0318112Y0236083D02*
D03*
X0313112Y0236083D02*
D03*
X0308112Y0236083D02*
D03*
X0303112Y0236083D02*
D03*
X0318112Y0217185D02*
D03*
X0313112Y0217185D02*
D03*
X0308112Y0217185D02*
D03*
X0303112Y0217185D02*
D03*
D419*
X0250571Y0083130D02*
D03*
X0250571Y0085689D02*
D03*
X0250571Y0088248D02*
D03*
X0243090Y0083130D02*
D03*
X0243090Y0085689D02*
D03*
X0243090Y0088248D02*
D03*
X0235216Y0083130D02*
D03*
X0235216Y0085689D02*
D03*
X0235216Y0088248D02*
D03*
X0227736Y0083130D02*
D03*
X0227736Y0085689D02*
D03*
X0227736Y0088248D02*
D03*
D175*
X0334232Y0196959D02*
D03*
X0336201Y0196959D02*
D03*
X0338169Y0196959D02*
D03*
X0338169Y0190955D02*
D03*
X0336201Y0190955D02*
D03*
X0334232Y0190955D02*
D03*
D174*
X0339203Y0194941D02*
D03*
X0339203Y0192973D02*
D03*
X0333199Y0192973D02*
D03*
X0333199Y0194941D02*
D03*
D420*
X0332264Y0207835D02*
D03*
X0338957Y0207835D02*
D03*
D421*
X0267303Y0199075D02*
D03*
X0267303Y0203012D02*
D03*
X0113571Y0139201D02*
%LPD*%
G01*
D244*
X0147429Y0152193D03*
X0147429Y0150225D03*
X0147429Y0148256D03*
X0147429Y0146288D03*
X0147429Y0144319D03*
X0164752Y0144319D03*
X0164752Y0146288D03*
X0164752Y0148256D03*
X0164752Y0150225D03*
X0164752Y0152193D03*
G36*
G01*
X0154949Y0165382D02*
X0158020Y0165382D01*
G75*
G02*
X0158295Y0165107I0000000J-000276D01*
G01*
X0158295Y0162902D01*
G75*
G02*
X0158020Y0162626I-000276J0000000D01*
G01*
X0154949Y0162626D01*
G75*
G02*
X0154673Y0162902I0000000J0000276D01*
G01*
X0154673Y0165107D01*
G75*
G02*
X0154949Y0165382I0000276J0000000D01*
G01*
G37*
G36*
G01*
X0154949Y0159083D02*
X0158020Y0159083D01*
G75*
G02*
X0158295Y0158807I0000000J-000276D01*
G01*
X0158295Y0156603D01*
G75*
G02*
X0158020Y0156327I-000276J0000000D01*
G01*
X0154949Y0156327D01*
G75*
G02*
X0154673Y0156603I0000000J0000276D01*
G01*
X0154673Y0158807D01*
G75*
G02*
X0154949Y0159083I0000276J0000000D01*
G01*
G37*
G36*
G01*
X0169280Y0172036D02*
X0169280Y0168965D01*
G75*
G02*
X0169004Y0168689I-000276J0000000D01*
G01*
X0166799Y0168689D01*
G75*
G02*
X0166524Y0168965I0000000J0000276D01*
G01*
X0166524Y0172036D01*
G75*
G02*
X0166799Y0172311I0000276J0000000D01*
G01*
X0169004Y0172311D01*
G75*
G02*
X0169280Y0172036I0000000J-000276D01*
G01*
G37*
G36*
G01*
X0162980Y0172036D02*
X0162980Y0168965D01*
G75*
G02*
X0162705Y0168689I-000276J0000000D01*
G01*
X0160500Y0168689D01*
G75*
G02*
X0160225Y0168965I0000000J0000276D01*
G01*
X0160225Y0172036D01*
G75*
G02*
X0160500Y0172311I0000276J0000000D01*
G01*
X0162705Y0172311D01*
G75*
G02*
X0162980Y0172036I0000000J-000276D01*
G01*
G37*
G36*
G01*
X0149043Y0165382D02*
X0152114Y0165382D01*
G75*
G02*
X0152390Y0165107I0000000J-000276D01*
G01*
X0152390Y0162902D01*
G75*
G02*
X0152114Y0162626I-000276J0000000D01*
G01*
X0149043Y0162626D01*
G75*
G02*
X0148768Y0162902I0000000J0000276D01*
G01*
X0148768Y0165107D01*
G75*
G02*
X0149043Y0165382I0000276J0000000D01*
G01*
G37*
G36*
G01*
X0149043Y0159083D02*
X0152114Y0159083D01*
G75*
G02*
X0152390Y0158807I0000000J-000276D01*
G01*
X0152390Y0156603D01*
G75*
G02*
X0152114Y0156327I-000276J0000000D01*
G01*
X0149043Y0156327D01*
G75*
G02*
X0148768Y0156603I0000000J0000276D01*
G01*
X0148768Y0158807D01*
G75*
G02*
X0149043Y0159083I0000276J0000000D01*
G01*
G37*
G36*
G01*
X0157370Y0171706D02*
X0157370Y0169688D01*
G75*
G02*
X0156509Y0168827I-000861J0000000D01*
G01*
X0154787Y0168827D01*
G75*
G02*
X0153925Y0169688I0000000J0000861D01*
G01*
X0153925Y0171706D01*
G75*
G02*
X0154787Y0172567I0000861J0000000D01*
G01*
X0156509Y0172567D01*
G75*
G02*
X0157370Y0171706I0000000J-000861D01*
G01*
G37*
G36*
G01*
X0151169Y0171706D02*
X0151169Y0169688D01*
G75*
G02*
X0150308Y0168827I-000861J0000000D01*
G01*
X0148586Y0168827D01*
G75*
G02*
X0147725Y0169688I0000000J0000861D01*
G01*
X0147725Y0171706D01*
G75*
G02*
X0148586Y0172567I0000861J0000000D01*
G01*
X0150308Y0172567D01*
G75*
G02*
X0151169Y0171706I0000000J-000861D01*
G01*
G37*
G36*
G01*
X0163315Y0164744D02*
X0163315Y0162067D01*
G75*
G02*
X0162980Y0161732I-000335J0000000D01*
G01*
X0160303Y0161732D01*
G75*
G02*
X0159969Y0162067I0000000J0000335D01*
G01*
X0159969Y0164744D01*
G75*
G02*
X0160303Y0165079I0000335J0000000D01*
G01*
X0162980Y0165079D01*
G75*
G02*
X0163315Y0164744I0000000J-000335D01*
G01*
G37*
G36*
G01*
X0169536Y0164744D02*
X0169536Y0162067D01*
G75*
G02*
X0169201Y0161732I-000335J0000000D01*
G01*
X0166524Y0161732D01*
G75*
G02*
X0166189Y0162067I0000000J0000335D01*
G01*
X0166189Y0164744D01*
G75*
G02*
X0166524Y0165079I0000335J0000000D01*
G01*
X0169201Y0165079D01*
G75*
G02*
X0169536Y0164744I0000000J-000335D01*
G01*
G37*
G36*
G01*
X0169536Y0159437D02*
X0169536Y0156760D01*
G75*
G02*
X0169201Y0156425I-000335J0000000D01*
G01*
X0166524Y0156425D01*
G75*
G02*
X0166189Y0156760I0000000J0000335D01*
G01*
X0166189Y0159437D01*
G75*
G02*
X0166524Y0159772I0000335J0000000D01*
G01*
X0169201Y0159772D01*
G75*
G02*
X0169536Y0159437I0000000J-000335D01*
G01*
G37*
G36*
G01*
X0163315Y0159437D02*
X0163315Y0156760D01*
G75*
G02*
X0162980Y0156425I-000335J0000000D01*
G01*
X0160303Y0156425D01*
G75*
G02*
X0159969Y0156760I0000000J0000335D01*
G01*
X0159969Y0159437D01*
G75*
G02*
X0160303Y0159772I0000335J0000000D01*
G01*
X0162980Y0159772D01*
G75*
G02*
X0163315Y0159437I0000000J-000335D01*
G01*
G37*
G36*
G01*
X0144122Y0165638D02*
X0146799Y0165638D01*
G75*
G02*
X0147134Y0165303I0000000J-000335D01*
G01*
X0147134Y0162626D01*
G75*
G02*
X0146799Y0162292I-000335J0000000D01*
G01*
X0144122Y0162292D01*
G75*
G02*
X0143788Y0162626I0000000J0000335D01*
G01*
X0143788Y0165303D01*
G75*
G02*
X0144122Y0165638I0000335J0000000D01*
G01*
G37*
G36*
G01*
X0144122Y0159418D02*
X0146799Y0159418D01*
G75*
G02*
X0147134Y0159083I0000000J-000335D01*
G01*
X0147134Y0156406D01*
G75*
G02*
X0146799Y0156071I-000335J0000000D01*
G01*
X0144122Y0156071D01*
G75*
G02*
X0143788Y0156406I0000000J0000335D01*
G01*
X0143788Y0159083D01*
G75*
G02*
X0144122Y0159418I0000335J0000000D01*
G01*
G37*
X0148185Y0196996D02*
G01*
G75*
D112*
X0162890Y0207220D02*
D03*
X0162890Y0199740D02*
D03*
X0154425Y0199740D02*
D03*
X0154425Y0203480D02*
D03*
X0178539Y0207220D02*
D03*
X0178539Y0199740D02*
D03*
X0170075Y0199740D02*
D03*
X0170075Y0203480D02*
D03*
D112*
X0154425Y0207220D02*
D03*
X0170075Y0207220D02*
D03*
X0149185Y0095996D02*
G01*
G75*
D112*
X0163890Y0106220D02*
D03*
X0163890Y0098740D02*
D03*
X0155425Y0098740D02*
D03*
X0155425Y0102480D02*
D03*
X0179539Y0106220D02*
D03*
X0179539Y0098740D02*
D03*
X0171075Y0098740D02*
D03*
X0171075Y0102480D02*
D03*
D112*
X0155425Y0106220D02*
D03*
X0171075Y0106220D02*
D03*
M02*
