G04 #@! TF.GenerationSoftware,KiCad,Pcbnew,8.0.6-8.0.6-0~ubuntu22.04.1*
G04 #@! TF.CreationDate,2024-11-14T01:46:21+00:00*
G04 #@! TF.ProjectId,hellenbremen,68656c6c-656e-4627-9265-6d656e2e6b69,rev?*
G04 #@! TF.SameCoordinates,Original*
G04 #@! TF.FileFunction,Legend,Top*
G04 #@! TF.FilePolarity,Positive*
%FSLAX46Y46*%
G04 Gerber Fmt 4.6, Leading zero omitted, Abs format (unit mm)*
G04 Created by KiCad (PCBNEW 8.0.6-8.0.6-0~ubuntu22.04.1) date 2024-11-14 01:46:21*
%MOMM*%
%LPD*%
G01*
G04 APERTURE LIST*
%ADD10C,0.150000*%
%ADD11C,0.100000*%
%ADD12C,0.120000*%
%ADD13C,0.200000*%
%ADD14C,0.152400*%
G04 APERTURE END LIST*
D10*
X90615333Y22339181D02*
X90282000Y22815372D01*
X90043905Y22339181D02*
X90043905Y23339181D01*
X90043905Y23339181D02*
X90424857Y23339181D01*
X90424857Y23339181D02*
X90520095Y23291562D01*
X90520095Y23291562D02*
X90567714Y23243943D01*
X90567714Y23243943D02*
X90615333Y23148705D01*
X90615333Y23148705D02*
X90615333Y23005848D01*
X90615333Y23005848D02*
X90567714Y22910610D01*
X90567714Y22910610D02*
X90520095Y22862991D01*
X90520095Y22862991D02*
X90424857Y22815372D01*
X90424857Y22815372D02*
X90043905Y22815372D01*
X90996286Y23243943D02*
X91043905Y23291562D01*
X91043905Y23291562D02*
X91139143Y23339181D01*
X91139143Y23339181D02*
X91377238Y23339181D01*
X91377238Y23339181D02*
X91472476Y23291562D01*
X91472476Y23291562D02*
X91520095Y23243943D01*
X91520095Y23243943D02*
X91567714Y23148705D01*
X91567714Y23148705D02*
X91567714Y23053467D01*
X91567714Y23053467D02*
X91520095Y22910610D01*
X91520095Y22910610D02*
X90948667Y22339181D01*
X90948667Y22339181D02*
X91567714Y22339181D01*
X90615333Y25387181D02*
X90282000Y25863372D01*
X90043905Y25387181D02*
X90043905Y26387181D01*
X90043905Y26387181D02*
X90424857Y26387181D01*
X90424857Y26387181D02*
X90520095Y26339562D01*
X90520095Y26339562D02*
X90567714Y26291943D01*
X90567714Y26291943D02*
X90615333Y26196705D01*
X90615333Y26196705D02*
X90615333Y26053848D01*
X90615333Y26053848D02*
X90567714Y25958610D01*
X90567714Y25958610D02*
X90520095Y25910991D01*
X90520095Y25910991D02*
X90424857Y25863372D01*
X90424857Y25863372D02*
X90043905Y25863372D01*
X91567714Y25387181D02*
X90996286Y25387181D01*
X91282000Y25387181D02*
X91282000Y26387181D01*
X91282000Y26387181D02*
X91186762Y26244324D01*
X91186762Y26244324D02*
X91091524Y26149086D01*
X91091524Y26149086D02*
X90996286Y26101467D01*
X96112819Y61410096D02*
X96112819Y61981524D01*
X97112819Y61695810D02*
X96112819Y61695810D01*
X97112819Y62314858D02*
X96112819Y62314858D01*
X96112819Y62314858D02*
X96112819Y62695810D01*
X96112819Y62695810D02*
X96160438Y62791048D01*
X96160438Y62791048D02*
X96208057Y62838667D01*
X96208057Y62838667D02*
X96303295Y62886286D01*
X96303295Y62886286D02*
X96446152Y62886286D01*
X96446152Y62886286D02*
X96541390Y62838667D01*
X96541390Y62838667D02*
X96589009Y62791048D01*
X96589009Y62791048D02*
X96636628Y62695810D01*
X96636628Y62695810D02*
X96636628Y62314858D01*
X97112819Y63838667D02*
X97112819Y63267239D01*
X97112819Y63552953D02*
X96112819Y63552953D01*
X96112819Y63552953D02*
X96255676Y63457715D01*
X96255676Y63457715D02*
X96350914Y63362477D01*
X96350914Y63362477D02*
X96398533Y63267239D01*
X29580736Y61118426D02*
X29580736Y61718426D01*
X29580736Y61718426D02*
X29780736Y61289855D01*
X29780736Y61289855D02*
X29980736Y61718426D01*
X29980736Y61718426D02*
X29980736Y61118426D01*
X30552164Y61718426D02*
X30266450Y61718426D01*
X30266450Y61718426D02*
X30237878Y61432712D01*
X30237878Y61432712D02*
X30266450Y61461283D01*
X30266450Y61461283D02*
X30323593Y61489855D01*
X30323593Y61489855D02*
X30466450Y61489855D01*
X30466450Y61489855D02*
X30523593Y61461283D01*
X30523593Y61461283D02*
X30552164Y61432712D01*
X30552164Y61432712D02*
X30580735Y61375569D01*
X30580735Y61375569D02*
X30580735Y61232712D01*
X30580735Y61232712D02*
X30552164Y61175569D01*
X30552164Y61175569D02*
X30523593Y61146997D01*
X30523593Y61146997D02*
X30466450Y61118426D01*
X30466450Y61118426D02*
X30323593Y61118426D01*
X30323593Y61118426D02*
X30266450Y61146997D01*
X30266450Y61146997D02*
X30237878Y61175569D01*
D11*
X18490411Y75189353D02*
X17776126Y75189353D01*
X17776126Y75189353D02*
X17633269Y75236972D01*
X17633269Y75236972D02*
X17538031Y75332210D01*
X17538031Y75332210D02*
X17490411Y75475067D01*
X17490411Y75475067D02*
X17490411Y75570305D01*
X17490411Y74189353D02*
X17490411Y74760781D01*
X17490411Y74475067D02*
X18490411Y74475067D01*
X18490411Y74475067D02*
X18347554Y74570305D01*
X18347554Y74570305D02*
X18252316Y74665543D01*
X18252316Y74665543D02*
X18204697Y74760781D01*
D10*
X96112819Y54806096D02*
X96112819Y55377524D01*
X97112819Y55091810D02*
X96112819Y55091810D01*
X97112819Y55710858D02*
X96112819Y55710858D01*
X96112819Y55710858D02*
X96112819Y56091810D01*
X96112819Y56091810D02*
X96160438Y56187048D01*
X96160438Y56187048D02*
X96208057Y56234667D01*
X96208057Y56234667D02*
X96303295Y56282286D01*
X96303295Y56282286D02*
X96446152Y56282286D01*
X96446152Y56282286D02*
X96541390Y56234667D01*
X96541390Y56234667D02*
X96589009Y56187048D01*
X96589009Y56187048D02*
X96636628Y56091810D01*
X96636628Y56091810D02*
X96636628Y55710858D01*
X96112819Y56615620D02*
X96112819Y57234667D01*
X96112819Y57234667D02*
X96493771Y56901334D01*
X96493771Y56901334D02*
X96493771Y57044191D01*
X96493771Y57044191D02*
X96541390Y57139429D01*
X96541390Y57139429D02*
X96589009Y57187048D01*
X96589009Y57187048D02*
X96684247Y57234667D01*
X96684247Y57234667D02*
X96922342Y57234667D01*
X96922342Y57234667D02*
X97017580Y57187048D01*
X97017580Y57187048D02*
X97065200Y57139429D01*
X97065200Y57139429D02*
X97112819Y57044191D01*
X97112819Y57044191D02*
X97112819Y56758477D01*
X97112819Y56758477D02*
X97065200Y56663239D01*
X97065200Y56663239D02*
X97017580Y56615620D01*
X97795180Y88337905D02*
X96985657Y88337905D01*
X96985657Y88337905D02*
X96890419Y88290286D01*
X96890419Y88290286D02*
X96842800Y88242667D01*
X96842800Y88242667D02*
X96795180Y88147429D01*
X96795180Y88147429D02*
X96795180Y87956953D01*
X96795180Y87956953D02*
X96842800Y87861715D01*
X96842800Y87861715D02*
X96890419Y87814096D01*
X96890419Y87814096D02*
X96985657Y87766477D01*
X96985657Y87766477D02*
X97795180Y87766477D01*
X96795180Y86766477D02*
X96795180Y87337905D01*
X96795180Y87052191D02*
X97795180Y87052191D01*
X97795180Y87052191D02*
X97652323Y87147429D01*
X97652323Y87147429D02*
X97557085Y87242667D01*
X97557085Y87242667D02*
X97509466Y87337905D01*
X101445180Y96258700D02*
X101207085Y96258700D01*
X101302323Y96496795D02*
X101207085Y96258700D01*
X101207085Y96258700D02*
X101302323Y96020605D01*
X101016609Y96401557D02*
X101207085Y96258700D01*
X101207085Y96258700D02*
X101016609Y96115843D01*
X100354819Y96258701D02*
X100592914Y96258701D01*
X100497676Y96020606D02*
X100592914Y96258701D01*
X100592914Y96258701D02*
X100497676Y96496796D01*
X100783390Y96115844D02*
X100592914Y96258701D01*
X100592914Y96258701D02*
X100783390Y96401558D01*
X96112819Y51250096D02*
X96112819Y51821524D01*
X97112819Y51535810D02*
X96112819Y51535810D01*
X97112819Y52154858D02*
X96112819Y52154858D01*
X96112819Y52154858D02*
X96112819Y52535810D01*
X96112819Y52535810D02*
X96160438Y52631048D01*
X96160438Y52631048D02*
X96208057Y52678667D01*
X96208057Y52678667D02*
X96303295Y52726286D01*
X96303295Y52726286D02*
X96446152Y52726286D01*
X96446152Y52726286D02*
X96541390Y52678667D01*
X96541390Y52678667D02*
X96589009Y52631048D01*
X96589009Y52631048D02*
X96636628Y52535810D01*
X96636628Y52535810D02*
X96636628Y52154858D01*
X96446152Y53583429D02*
X97112819Y53583429D01*
X96065200Y53345334D02*
X96779485Y53107239D01*
X96779485Y53107239D02*
X96779485Y53726286D01*
X96112819Y58108096D02*
X96112819Y58679524D01*
X97112819Y58393810D02*
X96112819Y58393810D01*
X97112819Y59012858D02*
X96112819Y59012858D01*
X96112819Y59012858D02*
X96112819Y59393810D01*
X96112819Y59393810D02*
X96160438Y59489048D01*
X96160438Y59489048D02*
X96208057Y59536667D01*
X96208057Y59536667D02*
X96303295Y59584286D01*
X96303295Y59584286D02*
X96446152Y59584286D01*
X96446152Y59584286D02*
X96541390Y59536667D01*
X96541390Y59536667D02*
X96589009Y59489048D01*
X96589009Y59489048D02*
X96636628Y59393810D01*
X96636628Y59393810D02*
X96636628Y59012858D01*
X96208057Y59965239D02*
X96160438Y60012858D01*
X96160438Y60012858D02*
X96112819Y60108096D01*
X96112819Y60108096D02*
X96112819Y60346191D01*
X96112819Y60346191D02*
X96160438Y60441429D01*
X96160438Y60441429D02*
X96208057Y60489048D01*
X96208057Y60489048D02*
X96303295Y60536667D01*
X96303295Y60536667D02*
X96398533Y60536667D01*
X96398533Y60536667D02*
X96541390Y60489048D01*
X96541390Y60489048D02*
X97112819Y59917620D01*
X97112819Y59917620D02*
X97112819Y60536667D01*
X92522819Y23730667D02*
X93237104Y23730667D01*
X93237104Y23730667D02*
X93379961Y23683048D01*
X93379961Y23683048D02*
X93475200Y23587810D01*
X93475200Y23587810D02*
X93522819Y23444953D01*
X93522819Y23444953D02*
X93522819Y23349715D01*
X92522819Y24111620D02*
X92522819Y24730667D01*
X92522819Y24730667D02*
X92903771Y24397334D01*
X92903771Y24397334D02*
X92903771Y24540191D01*
X92903771Y24540191D02*
X92951390Y24635429D01*
X92951390Y24635429D02*
X92999009Y24683048D01*
X92999009Y24683048D02*
X93094247Y24730667D01*
X93094247Y24730667D02*
X93332342Y24730667D01*
X93332342Y24730667D02*
X93427580Y24683048D01*
X93427580Y24683048D02*
X93475200Y24635429D01*
X93475200Y24635429D02*
X93522819Y24540191D01*
X93522819Y24540191D02*
X93522819Y24254477D01*
X93522819Y24254477D02*
X93475200Y24159239D01*
X93475200Y24159239D02*
X93427580Y24111620D01*
D12*
G04 #@! TO.C,R2*
X92715641Y23174000D02*
X92408359Y23174000D01*
X92715641Y22414000D02*
X92408359Y22414000D01*
G04 #@! TO.C,R1*
X92713641Y26222000D02*
X92406359Y26222000D01*
X92713641Y25462000D02*
X92406359Y25462000D01*
D13*
G04 #@! TO.C,M3*
X47334999Y69373002D02*
X47334999Y27273002D01*
X47334999Y69373002D02*
X87234998Y69373002D01*
X47334999Y27273002D02*
X87234998Y27272999D01*
X87234998Y69373002D02*
X87234998Y28572999D01*
X87234998Y28572999D02*
X87234998Y27272999D01*
G04 #@! TO.C,M1*
X90480949Y48134958D02*
X90480949Y31787058D01*
X90480949Y31787058D02*
X90615010Y31652997D01*
X90615010Y31652997D02*
X100855594Y31627594D01*
X92006999Y49661007D02*
X90480949Y48134958D01*
X92006999Y49661007D02*
X99431998Y49661007D01*
X99431998Y49661007D02*
X100881998Y48211008D01*
X100881998Y48211008D02*
X100882000Y31654000D01*
X100882000Y31654000D02*
X100855594Y31627594D01*
D12*
G04 #@! TO.C,TP1*
X99856000Y62672000D02*
G75*
G02*
X97456000Y62672000I-1200000J0D01*
G01*
X97456000Y62672000D02*
G75*
G02*
X99856000Y62672000I1200000J0D01*
G01*
D13*
G04 #@! TO.C,M5*
X29538995Y60199000D02*
X38638995Y60199000D01*
X29538995Y57098997D02*
X29538995Y58098999D01*
X29538995Y57098997D02*
X38638995Y57098997D01*
D12*
G04 #@! TO.C,TP3*
X99856000Y56068000D02*
G75*
G02*
X97456000Y56068000I-1200000J0D01*
G01*
X97456000Y56068000D02*
G75*
G02*
X99856000Y56068000I1200000J0D01*
G01*
D13*
G04 #@! TO.C,M2*
X28912999Y38556999D02*
X28912999Y41757002D01*
X28912999Y26456999D02*
X28912999Y36857001D01*
X28912999Y24556999D02*
X28912999Y24856999D01*
X28912999Y24556999D02*
X44312999Y24556999D01*
X30412999Y45156997D02*
X45712998Y45156999D01*
X45712996Y38457001D02*
X45712996Y43257001D01*
X45712996Y32256999D02*
X45712996Y34956999D01*
X45712996Y29557001D02*
X45712996Y30657004D01*
X45712996Y26006999D02*
X45713001Y27556999D01*
X45712998Y44857001D02*
X45712998Y45156999D01*
D14*
G04 #@! TO.C,U1*
X86772500Y95450000D02*
X88211659Y95450000D01*
X86772500Y94264341D02*
X86772500Y95450000D01*
X86772500Y79702000D02*
X86772500Y80887659D01*
X88211659Y79702000D02*
X86772500Y79702000D01*
X101588341Y95450000D02*
X107727500Y95450000D01*
X107727500Y95450000D02*
X107727500Y79702000D01*
X107727500Y79702000D02*
X101588341Y79702000D01*
D12*
G04 #@! TO.C,TP4*
X99856000Y52512000D02*
G75*
G02*
X97456000Y52512000I-1200000J0D01*
G01*
X97456000Y52512000D02*
G75*
G02*
X99856000Y52512000I1200000J0D01*
G01*
G04 #@! TO.C,TP2*
X99856000Y59370000D02*
G75*
G02*
X97456000Y59370000I-1200000J0D01*
G01*
X97456000Y59370000D02*
G75*
G02*
X99856000Y59370000I1200000J0D01*
G01*
G04 #@! TO.C,J3*
X93887000Y21104000D02*
X93887000Y20304000D01*
X93887000Y20304000D02*
X94037000Y20304000D01*
X97967000Y28644000D02*
X96557000Y28644000D01*
X97967000Y19484000D02*
X96557000Y19484000D01*
D13*
G04 #@! TO.C,M4*
X29888995Y56150499D02*
X29888995Y49750499D01*
X29888995Y46550499D02*
X29888995Y47850499D01*
X29888995Y46550499D02*
X44888995Y46550499D01*
X44288995Y56150499D02*
X29888995Y56150499D01*
X44888995Y46550499D02*
X44888995Y51650499D01*
G04 #@! TD*
M02*
