G04 #@! TF.GenerationSoftware,KiCad,Pcbnew,8.0.6-8.0.6-0~ubuntu22.04.1*
G04 #@! TF.CreationDate,2024-11-22T01:28:01+00:00*
G04 #@! TF.ProjectId,hellenbremen,68656c6c-656e-4627-9265-6d656e2e6b69,rev?*
G04 #@! TF.SameCoordinates,Original*
G04 #@! TF.FileFunction,Soldermask,Bot*
G04 #@! TF.FilePolarity,Negative*
%FSLAX46Y46*%
G04 Gerber Fmt 4.6, Leading zero omitted, Abs format (unit mm)*
G04 Created by KiCad (PCBNEW 8.0.6-8.0.6-0~ubuntu22.04.1) date 2024-11-22 01:28:01*
%MOMM*%
%LPD*%
G01*
G04 APERTURE LIST*
%ADD10C,0.600000*%
%ADD11C,0.650000*%
%ADD12C,4.500000*%
%ADD13C,2.100000*%
%ADD14C,2.000000*%
%ADD15C,1.600000*%
%ADD16R,1.700000X1.700000*%
%ADD17O,1.700000X1.700000*%
%ADD18C,1.500000*%
G04 APERTURE END LIST*
D10*
G04 #@! TO.C,M5*
X45720000Y49334998D03*
X45720000Y48384998D03*
X45720000Y47435000D03*
X37020000Y48434998D03*
X37020000Y49334998D03*
G04 #@! TD*
G04 #@! TO.C,M4*
X45425000Y41241000D03*
X45425000Y40041000D03*
X45425000Y42441000D03*
X45425000Y43641000D03*
X31000000Y37181000D03*
X31000000Y36181000D03*
G04 #@! TD*
G04 #@! TO.C,M1*
G36*
G01*
X91487168Y23528563D02*
X91237170Y23528563D01*
G75*
G02*
X91112170Y23653563I0J125000D01*
G01*
X91112170Y23653563D01*
G75*
G02*
X91237170Y23778563I125000J0D01*
G01*
X91487168Y23778563D01*
G75*
G02*
X91612168Y23653563I0J-125000D01*
G01*
X91612168Y23653563D01*
G75*
G02*
X91487168Y23528563I-125000J0D01*
G01*
G37*
G36*
G01*
X91487168Y24628561D02*
X91237170Y24628561D01*
G75*
G02*
X91112170Y24753561I0J125000D01*
G01*
X91112170Y24753561D01*
G75*
G02*
X91237170Y24878561I125000J0D01*
G01*
X91487168Y24878561D01*
G75*
G02*
X91612168Y24753561I0J-125000D01*
G01*
X91612168Y24753561D01*
G75*
G02*
X91487168Y24628561I-125000J0D01*
G01*
G37*
G36*
G01*
X91487168Y25728559D02*
X91237170Y25728559D01*
G75*
G02*
X91112170Y25853559I0J125000D01*
G01*
X91112170Y25853559D01*
G75*
G02*
X91237170Y25978559I125000J0D01*
G01*
X91487168Y25978559D01*
G75*
G02*
X91612168Y25853559I0J-125000D01*
G01*
X91612168Y25853559D01*
G75*
G02*
X91487168Y25728559I-125000J0D01*
G01*
G37*
G36*
G01*
X91487168Y26828557D02*
X91237170Y26828557D01*
G75*
G02*
X91112170Y26953557I0J125000D01*
G01*
X91112170Y26953557D01*
G75*
G02*
X91237170Y27078557I125000J0D01*
G01*
X91487168Y27078557D01*
G75*
G02*
X91612168Y26953557I0J-125000D01*
G01*
X91612168Y26953557D01*
G75*
G02*
X91487168Y26828557I-125000J0D01*
G01*
G37*
G36*
G01*
X91487168Y27928555D02*
X91237170Y27928555D01*
G75*
G02*
X91112170Y28053555I0J125000D01*
G01*
X91112170Y28053555D01*
G75*
G02*
X91237170Y28178555I125000J0D01*
G01*
X91487168Y28178555D01*
G75*
G02*
X91612168Y28053555I0J-125000D01*
G01*
X91612168Y28053555D01*
G75*
G02*
X91487168Y27928555I-125000J0D01*
G01*
G37*
G36*
G01*
X91487168Y29028552D02*
X91237170Y29028552D01*
G75*
G02*
X91112170Y29153552I0J125000D01*
G01*
X91112170Y29153552D01*
G75*
G02*
X91237170Y29278552I125000J0D01*
G01*
X91487168Y29278552D01*
G75*
G02*
X91612168Y29153552I0J-125000D01*
G01*
X91612168Y29153552D01*
G75*
G02*
X91487168Y29028552I-125000J0D01*
G01*
G37*
G04 #@! TD*
D11*
G04 #@! TO.C,J3*
X95949000Y7174000D03*
X95949000Y12954000D03*
G04 #@! TD*
D12*
G04 #@! TO.C,J1*
X8890000Y92700000D03*
D13*
X17790000Y88200000D03*
X17790000Y17200000D03*
D12*
X8890000Y12700000D03*
D14*
X9650000Y83200000D03*
X9650000Y77400000D03*
X11980000Y80300000D03*
X17780000Y83200000D03*
X17780000Y77400000D03*
D15*
X17780000Y23780000D03*
X17780000Y26320000D03*
X17780000Y28860000D03*
X17780000Y31400000D03*
X17780000Y33940000D03*
X17780000Y36480000D03*
X17780000Y39020000D03*
X17780000Y41560000D03*
X17780000Y44100000D03*
X17780000Y46640000D03*
X17780000Y49180000D03*
X17780000Y51720000D03*
X17780000Y54260000D03*
X17780000Y56800000D03*
X17780000Y59340000D03*
X17780000Y61880000D03*
X17780000Y64420000D03*
X17780000Y66960000D03*
X17780000Y69500000D03*
X15240000Y23780000D03*
X15240000Y26320000D03*
X15240000Y28860000D03*
X15240000Y31400000D03*
X15240000Y33940000D03*
X15240000Y36480000D03*
X15240000Y39020000D03*
X15240000Y41560000D03*
X15240000Y44100000D03*
X15240000Y46640000D03*
X15240000Y49180000D03*
X15240000Y51720000D03*
X15240000Y54260000D03*
X15240000Y56800000D03*
X15240000Y59340000D03*
X15240000Y61880000D03*
X15240000Y64420000D03*
X15240000Y66960000D03*
X15240000Y69500000D03*
X9190000Y23780000D03*
X9190000Y26320000D03*
X9190000Y28860000D03*
X9190000Y31400000D03*
X9190000Y33940000D03*
X9190000Y36480000D03*
X9190000Y39020000D03*
X9190000Y41560000D03*
X9190000Y44100000D03*
X9190000Y46640000D03*
X9190000Y49180000D03*
X9190000Y51720000D03*
X9190000Y54260000D03*
X9190000Y56800000D03*
X9190000Y59340000D03*
X9190000Y61880000D03*
X9190000Y64420000D03*
X9190000Y66960000D03*
X9190000Y69500000D03*
X6650000Y23780000D03*
X6650000Y26320000D03*
X6650000Y28860000D03*
X6650000Y31400000D03*
X6650000Y33940000D03*
X6650000Y36480000D03*
X6650000Y39020000D03*
X6650000Y41560000D03*
X6650000Y44100000D03*
X6650000Y46640000D03*
X6650000Y49180000D03*
X6650000Y51720000D03*
X6650000Y54260000D03*
X6650000Y56800000D03*
X6650000Y59340000D03*
X6650000Y61880000D03*
X6650000Y64420000D03*
X6650000Y66960000D03*
X6650000Y69500000D03*
G04 #@! TD*
D16*
G04 #@! TO.C,J2*
X93218000Y74422000D03*
D17*
X93218000Y71882000D03*
X93218000Y69342000D03*
G04 #@! TD*
D18*
G04 #@! TO.C,M2*
X65972999Y77312000D03*
X65972999Y70912003D03*
X65972999Y69012000D03*
X65972999Y64712000D03*
D10*
X66422998Y62312003D03*
X66422998Y61312002D03*
D18*
X65972999Y58462000D03*
X50473002Y77762002D03*
X50473002Y75912003D03*
X50473002Y70962000D03*
X50473002Y58912002D03*
G04 #@! TD*
D10*
G04 #@! TO.C,M6*
X45623000Y32062998D03*
X45623000Y31112998D03*
X45623000Y30163000D03*
X36923000Y31162998D03*
X36923000Y32062998D03*
G04 #@! TD*
M02*
