G04 #@! TF.GenerationSoftware,KiCad,Pcbnew,8.0.6-8.0.6-0~ubuntu22.04.1*
G04 #@! TF.CreationDate,2024-11-19T00:49:20+00:00*
G04 #@! TF.ProjectId,hellenbremen,68656c6c-656e-4627-9265-6d656e2e6b69,rev?*
G04 #@! TF.SameCoordinates,Original*
G04 #@! TF.FileFunction,Copper,L3,Inr*
G04 #@! TF.FilePolarity,Positive*
%FSLAX46Y46*%
G04 Gerber Fmt 4.6, Leading zero omitted, Abs format (unit mm)*
G04 Created by KiCad (PCBNEW 8.0.6-8.0.6-0~ubuntu22.04.1) date 2024-11-19 00:49:20*
%MOMM*%
%LPD*%
G01*
G04 APERTURE LIST*
G04 #@! TA.AperFunction,ComponentPad*
%ADD10C,0.600000*%
G04 #@! TD*
G04 #@! TA.AperFunction,Conductor*
%ADD11R,2.300000X0.200000*%
G04 #@! TD*
G04 #@! TA.AperFunction,Conductor*
%ADD12R,10.700000X0.200000*%
G04 #@! TD*
G04 #@! TA.AperFunction,Conductor*
%ADD13R,2.100000X0.200000*%
G04 #@! TD*
G04 #@! TA.AperFunction,Conductor*
%ADD14R,6.000000X0.200000*%
G04 #@! TD*
G04 #@! TA.AperFunction,Conductor*
%ADD15R,5.400000X0.200000*%
G04 #@! TD*
G04 #@! TA.AperFunction,Conductor*
%ADD16R,0.200000X1.400000*%
G04 #@! TD*
G04 #@! TA.AperFunction,Conductor*
%ADD17R,0.200000X5.000000*%
G04 #@! TD*
G04 #@! TA.AperFunction,Conductor*
%ADD18R,0.200000X6.800000*%
G04 #@! TD*
G04 #@! TA.AperFunction,Conductor*
%ADD19R,0.200000X4.500000*%
G04 #@! TD*
G04 #@! TA.AperFunction,Conductor*
%ADD20R,1.600000X0.200000*%
G04 #@! TD*
G04 #@! TA.AperFunction,Conductor*
%ADD21R,5.700000X0.200000*%
G04 #@! TD*
G04 #@! TA.AperFunction,Conductor*
%ADD22R,2.000000X0.200000*%
G04 #@! TD*
G04 #@! TA.AperFunction,Conductor*
%ADD23R,0.250000X6.185000*%
G04 #@! TD*
G04 #@! TA.AperFunction,Conductor*
%ADD24R,0.250000X1.115000*%
G04 #@! TD*
G04 #@! TA.AperFunction,Conductor*
%ADD25R,14.275000X0.250000*%
G04 #@! TD*
G04 #@! TA.AperFunction,Conductor*
%ADD26R,15.100000X0.250000*%
G04 #@! TD*
G04 #@! TA.AperFunction,Conductor*
%ADD27R,0.250000X5.175000*%
G04 #@! TD*
G04 #@! TA.AperFunction,ComponentPad*
%ADD28C,1.500000*%
G04 #@! TD*
G04 #@! TA.AperFunction,Conductor*
%ADD29O,0.200000X3.300000*%
G04 #@! TD*
G04 #@! TA.AperFunction,Conductor*
%ADD30O,0.200000X10.200000*%
G04 #@! TD*
G04 #@! TA.AperFunction,Conductor*
%ADD31O,0.200000X0.300000*%
G04 #@! TD*
G04 #@! TA.AperFunction,Conductor*
%ADD32O,17.000000X0.200000*%
G04 #@! TD*
G04 #@! TA.AperFunction,Conductor*
%ADD33O,15.400000X0.200000*%
G04 #@! TD*
G04 #@! TA.AperFunction,Conductor*
%ADD34O,0.200000X4.800000*%
G04 #@! TD*
G04 #@! TA.AperFunction,Conductor*
%ADD35O,0.200000X2.600000*%
G04 #@! TD*
G04 #@! TA.AperFunction,Conductor*
%ADD36O,0.200000X1.000000*%
G04 #@! TD*
G04 #@! TA.AperFunction,Conductor*
%ADD37O,0.200000X1.500000*%
G04 #@! TD*
G04 #@! TA.AperFunction,ComponentPad*
%ADD38R,1.700000X1.700000*%
G04 #@! TD*
G04 #@! TA.AperFunction,ComponentPad*
%ADD39O,1.700000X1.700000*%
G04 #@! TD*
G04 #@! TA.AperFunction,Conductor*
%ADD40O,0.200000X1.225000*%
G04 #@! TD*
G04 #@! TA.AperFunction,Conductor*
%ADD41O,9.300000X0.200000*%
G04 #@! TD*
G04 #@! TA.AperFunction,ComponentPad*
%ADD42C,2.000000*%
G04 #@! TD*
G04 #@! TA.AperFunction,ComponentPad*
%ADD43C,1.600000*%
G04 #@! TD*
G04 #@! TA.AperFunction,ViaPad*
%ADD44C,0.600000*%
G04 #@! TD*
G04 #@! TA.AperFunction,ViaPad*
%ADD45C,1.000000*%
G04 #@! TD*
G04 #@! TA.AperFunction,Conductor*
%ADD46C,0.200000*%
G04 #@! TD*
G04 #@! TA.AperFunction,Conductor*
%ADD47C,0.500000*%
G04 #@! TD*
G04 #@! TA.AperFunction,Conductor*
%ADD48C,1.000000*%
G04 #@! TD*
G04 APERTURE END LIST*
D10*
G04 #@! TO.N,unconnected-(M3-SPI2_SCK{slash}CAN2_TX-PadE1)*
G04 #@! TO.C,M3*
X79250996Y27800004D03*
G04 #@! TO.N,unconnected-(M3-SPI2_MISO-PadE2)*
X78450995Y27800004D03*
G04 #@! TO.N,unconnected-(M3-SPI2_MOSI-PadE3)*
X77650997Y27800004D03*
G04 #@! TO.N,unconnected-(M3-SPI2_CS{slash}CAN2_RX-PadE4)*
X76850996Y27800004D03*
G04 #@! TO.N,unconnected-(M3-OUT_IO3-PadE6)*
X76050995Y27800004D03*
G04 #@! TO.N,unconnected-(M3-OUT_IO5-PadE7)*
X75250997Y27800007D03*
G04 #@! TO.N,unconnected-(M3-OUT_IO1-PadE8)*
X74450996Y27800007D03*
G04 #@! TO.N,unconnected-(M3-OUT_IO6-PadE9)*
X73650992Y27800004D03*
G04 #@! TO.N,unconnected-(M3-OUT_IO10-PadE10)*
X72850996Y27800004D03*
G04 #@! TO.N,unconnected-(M3-OUT_IO9-PadE11)*
X72050996Y27800004D03*
G04 #@! TO.N,unconnected-(M3-OUT_IO2-PadE12)*
X71250995Y27800004D03*
G04 #@! TO.N,unconnected-(M3-OUT_IO12-PadE13)*
X70450996Y27800007D03*
G04 #@! TO.N,unconnected-(M3-OUT_PWM5-PadE14)*
X69650995Y27800007D03*
G04 #@! TO.N,unconnected-(M3-OUT_PWM4-PadE15)*
X68850994Y27800007D03*
G04 #@! TO.N,unconnected-(M3-OUT_PWM3-PadE16)*
X68050996Y27800004D03*
G04 #@! TO.N,MCU_CFC*
X67250995Y27800004D03*
G04 #@! TO.N,MCU_INJ2*
X66450997Y27800004D03*
G04 #@! TO.N,MCU_INJ1*
X65650996Y27800007D03*
G04 #@! TO.N,unconnected-(M3-OUT_IO13-PadE20)*
X64850995Y27800007D03*
G04 #@! TO.N,unconnected-(M3-OUT_IO4-PadE21)*
X64050996Y27800004D03*
G04 #@! TO.N,unconnected-(M3-OUT_IO8-PadE22)*
X63250995Y27800004D03*
G04 #@! TO.N,unconnected-(M3-OUT_IO7-PadE23)*
X62450994Y27800004D03*
G04 #@! TO.N,unconnected-(M3-OUT_IO11-PadE24)*
X61650996Y27800004D03*
G04 #@! TO.N,unconnected-(M3-OUT_PWM7-PadE25)*
X60850995Y27800004D03*
G04 #@! TO.N,unconnected-(M3-OUT_PWM6-PadE26)*
X60050997Y27800004D03*
G04 #@! TO.N,MCU_CPC*
X59250996Y27800004D03*
G04 #@! TO.N,unconnected-(M3-OUT_PWM8-PadE28)*
X58450995Y27800004D03*
G04 #@! TO.N,unconnected-(M3-OUT_INJ3-PadE29)*
X57650996Y27800004D03*
G04 #@! TO.N,unconnected-(M3-OUT_INJ4-PadE30)*
X56850995Y27800004D03*
G04 #@! TO.N,unconnected-(M3-OUT_INJ5-PadE31)*
X56050997Y27800007D03*
G04 #@! TO.N,unconnected-(M3-OUT_INJ6-PadE32)*
X55250994Y27800004D03*
G04 #@! TO.N,MCU_ACR1*
X54450995Y27800004D03*
G04 #@! TO.N,MCU_ACR2*
X53650997Y27800004D03*
G04 #@! TO.N,unconnected-(M3-IO6-PadE35)*
X52850996Y27800004D03*
G04 #@! TO.N,unconnected-(M3-IO7-PadE36)*
X52050995Y27800004D03*
G04 #@! TO.N,+5VA*
X45351001Y27800007D03*
G04 #@! TO.N,unconnected-(M3-GNDA-PadE39)*
X44551000Y27800004D03*
D11*
G04 #@! TO.N,GND*
X43201000Y69700009D03*
D12*
X76000998Y69700007D03*
D13*
X67800999Y69700007D03*
D14*
X55751000Y69700007D03*
D15*
X49051003Y69700007D03*
D16*
X42150997Y67900000D03*
D17*
X82050998Y66500005D03*
D18*
X82050998Y58000002D03*
D19*
X82050998Y48149999D03*
D20*
X80550999Y27600004D03*
D21*
X48700996Y27600004D03*
D22*
X43051003Y27600004D03*
D10*
G04 #@! TO.N,unconnected-(M3-USBID-PadN1)*
X81850999Y27800004D03*
G04 #@! TO.N,Net-(M3-USBM)*
X81851001Y28600002D03*
G04 #@! TO.N,Net-(M3-USBP)*
X81851001Y29400003D03*
G04 #@! TO.N,Net-(M3-VBUS)*
X81850999Y30200002D03*
G04 #@! TO.N,unconnected-(M3-BOOT0-PadN5)*
X81850999Y31000003D03*
G04 #@! TO.N,Net-(M1-SWO)*
X81850999Y31800004D03*
G04 #@! TO.N,Net-(M1-SWDIO)*
X81850999Y32600002D03*
G04 #@! TO.N,Net-(M1-SWCLK)*
X81851001Y33400003D03*
G04 #@! TO.N,Net-(M1-nReset)*
X81850999Y34200001D03*
G04 #@! TO.N,unconnected-(M3-SPI3_CS-PadN10)*
X81850999Y35000002D03*
G04 #@! TO.N,unconnected-(M3-SPI3_SCK-PadN11)*
X81850999Y35800003D03*
G04 #@! TO.N,unconnected-(M3-SPI3_MISO-PadN12)*
X81850999Y36600004D03*
G04 #@! TO.N,unconnected-(M3-SPI3_MOSI-PadN13)*
X81850999Y37400003D03*
G04 #@! TO.N,unconnected-(M3-I2C_SCL-PadN14)*
X81850999Y38200004D03*
G04 #@! TO.N,unconnected-(M3-I2C_SDA-PadN15)*
X81851001Y39000005D03*
G04 #@! TO.N,unconnected-(M3-IO1-PadN16)*
X81851001Y39800005D03*
G04 #@! TO.N,UART_BT_TX*
X81850999Y40600004D03*
G04 #@! TO.N,UART_BT_RX*
X81850999Y41400005D03*
G04 #@! TO.N,unconnected-(M3-IO2-PadN19)*
X81850999Y42200003D03*
G04 #@! TO.N,unconnected-(M3-IO4-PadN20)*
X81850999Y43000004D03*
G04 #@! TO.N,unconnected-(M3-IO3-PadN21)*
X81851001Y43800003D03*
G04 #@! TO.N,+3V3*
X81850999Y44600004D03*
G04 #@! TO.N,unconnected-(M3-IO5-PadN23)*
X81850999Y45400004D03*
G04 #@! TO.N,unconnected-(M3-UART8_RX-PadN24)*
X81850999Y50900004D03*
G04 #@! TO.N,unconnected-(M3-UART8_TX-PadN25)*
X81850999Y51700005D03*
G04 #@! TO.N,VIGN*
X81850999Y52500003D03*
G04 #@! TO.N,unconnected-(M3-VBAT-PadN27)*
X81850999Y53300001D03*
G04 #@! TO.N,+3V3SW*
X81850999Y54100000D03*
G04 #@! TO.N,PWR_EN*
X81850999Y61900004D03*
G04 #@! TO.N,unconnected-(M3-V5A_SWITCHABLE-PadN30)*
X81850999Y62700003D03*
G04 #@! TO.N,+5V*
X81850999Y63500001D03*
G04 #@! TO.N,+3V3*
X81850999Y69500005D03*
G04 #@! TO.N,unconnected-(M3-IN_D4-PadS1)*
X42350994Y28400005D03*
G04 #@! TO.N,unconnected-(M3-IN_D3-PadS2)*
X42350996Y29600006D03*
G04 #@! TO.N,unconnected-(M3-IN_D2-PadS3)*
X42350996Y30800003D03*
G04 #@! TO.N,unconnected-(M3-IN_D1-PadS4)*
X42350994Y32000003D03*
G04 #@! TO.N,unconnected-(M3-VREF2-PadS5)*
X42350996Y33200003D03*
G04 #@! TO.N,unconnected-(M3-IN_SENS4-PadS6)*
X42350996Y34299991D03*
G04 #@! TO.N,unconnected-(M3-IN_SENS3-PadS7)*
X42350996Y35499991D03*
G04 #@! TO.N,unconnected-(M3-IN_SENS2-PadS8)*
X42350994Y36699989D03*
G04 #@! TO.N,MCU_KNOCK_R*
X42350996Y37899989D03*
G04 #@! TO.N,unconnected-(M3-IN_AUX4-PadS10)*
X42350996Y39099992D03*
G04 #@! TO.N,H2OS1*
X42350994Y40299994D03*
G04 #@! TO.N,unconnected-(M3-IN_AUX2-PadS12)*
X42350996Y41499992D03*
G04 #@! TO.N,ETS*
X42350996Y42699990D03*
G04 #@! TO.N,unconnected-(M3-IN_RES2-PadS14)*
X42350996Y43899997D03*
G04 #@! TO.N,H2OS2*
X42350996Y45099997D03*
G04 #@! TO.N,H2OS1*
X42350996Y46299995D03*
G04 #@! TO.N,IN_JSS*
X42350996Y47499995D03*
G04 #@! TO.N,unconnected-(M3-IN_RES3-PadS18)*
X42350996Y48700000D03*
G04 #@! TO.N,unconnected-(M3-IN_MAP3-PadS19)*
X42350996Y49900001D03*
G04 #@! TO.N,unconnected-(M3-IN_MAP2-PadS20)*
X42350994Y51099998D03*
G04 #@! TO.N,IN_MAP*
X42350996Y52299998D03*
G04 #@! TO.N,IN_CRANK*
X42350994Y53500001D03*
G04 #@! TO.N,MCU_KNOCK_F*
X42350996Y54700001D03*
G04 #@! TO.N,unconnected-(M3-IN_CAM-PadS24)*
X42350996Y55899996D03*
G04 #@! TO.N,unconnected-(M3-IN_VSS-PadS25)*
X42350994Y57099999D03*
G04 #@! TO.N,IN_IAT*
X42350996Y58300004D03*
G04 #@! TO.N,IN_AAT*
X42350994Y59500004D03*
G04 #@! TO.N,IN_CLT*
X42350996Y60700002D03*
G04 #@! TO.N,unconnected-(M3-IN_AT2-PadS29)*
X42350996Y61900002D03*
G04 #@! TO.N,IN_TPS*
X42350996Y63100007D03*
G04 #@! TO.N,IN_PPS*
X42350996Y64300007D03*
G04 #@! TO.N,IN_TPS2*
X42350996Y65500005D03*
G04 #@! TO.N,IN_PPS2*
X42350996Y66700005D03*
G04 #@! TO.N,unconnected-(M3-VREF1-PadS35)*
X42350996Y69100005D03*
G04 #@! TO.N,GNDA*
X44850999Y69500007D03*
G04 #@! TO.N,+5VA*
X45851000Y69500007D03*
G04 #@! TO.N,unconnected-(M3-V33_REF-PadW3)*
X52251002Y69500005D03*
G04 #@! TO.N,unconnected-(M3-IGN8-PadW4)*
X59250998Y69500005D03*
G04 #@! TO.N,unconnected-(M3-IGN7-PadW5)*
X60250999Y69500005D03*
G04 #@! TO.N,unconnected-(M3-IGN6-PadW6)*
X61250997Y69500005D03*
G04 #@! TO.N,unconnected-(M3-IGN5-PadW7)*
X62250997Y69500005D03*
G04 #@! TO.N,unconnected-(M3-IGN4-PadW8)*
X63250998Y69500005D03*
G04 #@! TO.N,unconnected-(M3-IGN3-PadW9)*
X64250996Y69500005D03*
G04 #@! TO.N,MCUIGN_2*
X65250996Y69500005D03*
G04 #@! TO.N,MCUIGN_1*
X66250994Y69500005D03*
G04 #@! TO.N,CAN_H*
X69350998Y69500005D03*
G04 #@! TO.N,CAN_L*
X70150999Y69500005D03*
G04 #@! TD*
G04 #@! TO.N,unconnected-(M4-HALL_EN-PadE1)*
G04 #@! TO.C,M4*
X39837000Y45305000D03*
G04 #@! TO.N,unconnected-(M4-NC-PadE2)*
X39837000Y44105000D03*
G04 #@! TO.N,IN_CRANK*
X39837000Y46505000D03*
G04 #@! TO.N,unconnected-(M4-V5_IN-PadE4)*
X39837000Y47705000D03*
D23*
G04 #@! TO.N,GND*
X25187000Y45037500D03*
D24*
X25187000Y38987500D03*
D25*
X32199500Y48005000D03*
D26*
X32612000Y38555000D03*
D27*
X40037000Y41017500D03*
D10*
G04 #@! TO.N,CRANK_LOW*
X25412000Y41245000D03*
G04 #@! TO.N,CRANK_HIGH*
X25412000Y40245000D03*
G04 #@! TD*
D28*
G04 #@! TO.N,unconnected-(M2-VBAT-PadE1)*
G04 #@! TO.C,M2*
X57658995Y94922999D03*
G04 #@! TO.N,+12V*
X57658995Y88523002D03*
G04 #@! TO.N,VIGN*
X57658995Y86622999D03*
G04 #@! TO.N,+5V*
X57658995Y82322999D03*
D10*
G04 #@! TO.N,PWR_EN*
X58108994Y79923002D03*
G04 #@! TO.N,unconnected-(M2-PG_5VP-PadE6)*
X58108994Y78923001D03*
D29*
G04 #@! TO.N,GND*
X41508999Y91072999D03*
D30*
X41508999Y82573001D03*
D31*
X41508999Y75472999D03*
D32*
X49908997Y75422999D03*
D33*
X50708998Y96022999D03*
D28*
X57658995Y76072999D03*
D31*
X58308996Y95972999D03*
D34*
X58308996Y91773001D03*
D35*
X58308996Y84422999D03*
D36*
X58308996Y80923002D03*
D37*
X58308996Y77623001D03*
D28*
G04 #@! TO.N,+12V_BAT*
X42158998Y95373001D03*
G04 #@! TO.N,+12V_PSP*
X42158998Y93523002D03*
X42158998Y88572999D03*
G04 #@! TO.N,+5VP*
X42158998Y76523001D03*
G04 #@! TD*
D38*
G04 #@! TO.N,GND*
G04 #@! TO.C,J2*
X92441000Y74290000D03*
D39*
G04 #@! TO.N,DEBUG_RX*
X89901000Y74290000D03*
G04 #@! TO.N,DEBUG_TX*
X87361000Y74290000D03*
G04 #@! TD*
D10*
G04 #@! TO.N,unconnected-(M6-V5A-PadE1)*
G04 #@! TO.C,M6*
X34193000Y51874998D03*
D40*
G04 #@! TO.N,GND*
X25293000Y49899998D03*
D41*
X29843000Y52474998D03*
X29843000Y49374998D03*
D10*
X34193000Y50924998D03*
G04 #@! TO.N,MCU_KNOCK_R*
X34193000Y49975000D03*
G04 #@! TO.N,RAW_KNOCK_R*
X25493000Y50974998D03*
G04 #@! TO.N,unconnected-(M6-VREF-PadW2)*
X25493000Y51874998D03*
G04 #@! TD*
G04 #@! TO.N,unconnected-(M5-V5A-PadE1)*
G04 #@! TO.C,M5*
X34243000Y56929998D03*
D40*
G04 #@! TO.N,GND*
X25343000Y54954998D03*
D41*
X29893000Y57529998D03*
X29893000Y54429998D03*
D10*
X34243000Y55979998D03*
G04 #@! TO.N,MCU_KNOCK_F*
X34243000Y55030000D03*
G04 #@! TO.N,RAW_KNOCK_F*
X25543000Y56029998D03*
G04 #@! TO.N,unconnected-(M5-VREF-PadW2)*
X25543000Y56929998D03*
G04 #@! TD*
D42*
G04 #@! TO.N,CFC*
G04 #@! TO.C,J1*
X9660000Y83200000D03*
G04 #@! TO.N,GND*
X9660000Y77400000D03*
X11990000Y80300000D03*
G04 #@! TO.N,CPC*
X17790000Y83200000D03*
G04 #@! TO.N,+12V_PSP*
X17790000Y77400000D03*
D43*
G04 #@! TO.N,INJ_1*
X17790000Y23780000D03*
G04 #@! TO.N,INJ_2*
X17790000Y26320000D03*
G04 #@! TO.N,ACR_2*
X17790000Y28860000D03*
G04 #@! TO.N,unconnected-(J1-Pad9)*
X17790000Y31400000D03*
G04 #@! TO.N,unconnected-(J1-Pad10)*
X17790000Y33940000D03*
G04 #@! TO.N,CRANK_LOW*
X17790000Y36480000D03*
G04 #@! TO.N,unconnected-(J1-Pad12)*
X17790000Y39020000D03*
G04 #@! TO.N,unconnected-(J1-Pad13)*
X17790000Y41560000D03*
G04 #@! TO.N,GND*
X17790000Y44100000D03*
G04 #@! TO.N,unconnected-(J1-Pad15)*
X17790000Y46640000D03*
G04 #@! TO.N,unconnected-(J1-PRGSEL-Pad16)*
X17790000Y49180000D03*
G04 #@! TO.N,unconnected-(J1-FIVVTC-Pad17)*
X17790000Y51720000D03*
G04 #@! TO.N,unconnected-(J1-Pad18)*
X17790000Y54260000D03*
G04 #@! TO.N,unconnected-(J1-Pad19)*
X17790000Y56800000D03*
G04 #@! TO.N,unconnected-(J1-ETCL-Pad20)*
X17790000Y59340000D03*
G04 #@! TO.N,unconnected-(J1-ETCH-Pad21)*
X17790000Y61880000D03*
G04 #@! TO.N,unconnected-(J1-Pad22)*
X17790000Y64420000D03*
G04 #@! TO.N,GND*
X17790000Y66960000D03*
G04 #@! TO.N,IGN_1*
X17790000Y69500000D03*
G04 #@! TO.N,ACR_1*
X15250000Y23780000D03*
G04 #@! TO.N,H2OSPC*
X15250000Y26320000D03*
G04 #@! TO.N,IN_TPS2*
X15250000Y28860000D03*
G04 #@! TO.N,unconnected-(J1-PSP2-Pad28)*
X15250000Y31400000D03*
G04 #@! TO.N,GND*
X15250000Y33940000D03*
G04 #@! TO.N,CRANK_HIGH*
X15250000Y36480000D03*
G04 #@! TO.N,unconnected-(J1-FLS-Pad31)*
X15250000Y39020000D03*
G04 #@! TO.N,unconnected-(J1-OPS-Pad32)*
X15250000Y41560000D03*
G04 #@! TO.N,unconnected-(J1-Pad33)*
X15250000Y44100000D03*
G04 #@! TO.N,IN_JSS*
X15250000Y46640000D03*
G04 #@! TO.N,unconnected-(J1-Pad35)*
X15250000Y49180000D03*
G04 #@! TO.N,RAW_KNOCK_F*
X15250000Y51720000D03*
G04 #@! TO.N,unconnected-(J1-FKSL-Pad37)*
X15250000Y54260000D03*
G04 #@! TO.N,CAN_L*
X15250000Y56800000D03*
G04 #@! TO.N,CAN_H*
X15250000Y59340000D03*
G04 #@! TO.N,unconnected-(J1-Pad40)*
X15250000Y61880000D03*
G04 #@! TO.N,IN_PPS*
X15250000Y64420000D03*
G04 #@! TO.N,IN_PPS2*
X15250000Y66960000D03*
G04 #@! TO.N,IGN_2*
X15250000Y69500000D03*
G04 #@! TO.N,unconnected-(J1-CFFC-Pad44)*
X9200000Y23780000D03*
G04 #@! TO.N,RAW_KNOCK_R*
X9200000Y26320000D03*
G04 #@! TO.N,unconnected-(J1-RKSL-Pad46)*
X9200000Y28860000D03*
G04 #@! TO.N,H2OS1*
X9200000Y31400000D03*
G04 #@! TO.N,H2OS2*
X9200000Y33940000D03*
G04 #@! TO.N,IN_CLT*
X9200000Y36480000D03*
G04 #@! TO.N,unconnected-(J1-Pad50)*
X9200000Y39020000D03*
G04 #@! TO.N,unconnected-(J1-Pad51)*
X9200000Y41560000D03*
G04 #@! TO.N,IN_TPS*
X9200000Y44100000D03*
G04 #@! TO.N,IN_MAP*
X9200000Y46640000D03*
G04 #@! TO.N,unconnected-(J1-Pad54)*
X9200000Y49180000D03*
G04 #@! TO.N,ETS*
X9200000Y51720000D03*
G04 #@! TO.N,unconnected-(J1-Pad56)*
X9200000Y54260000D03*
G04 #@! TO.N,unconnected-(J1-Pad57)*
X9200000Y56800000D03*
G04 #@! TO.N,unconnected-(J1-Pad58)*
X9200000Y59340000D03*
G04 #@! TO.N,unconnected-(J1-Pad59)*
X9200000Y61880000D03*
G04 #@! TO.N,unconnected-(J1-Pad60)*
X9200000Y64420000D03*
G04 #@! TO.N,unconnected-(J1-Pad61)*
X9200000Y66960000D03*
G04 #@! TO.N,unconnected-(J1-Pad62)*
X9200000Y69500000D03*
G04 #@! TO.N,unconnected-(J1-Pad63)*
X6660000Y23780000D03*
G04 #@! TO.N,unconnected-(J1-Pad64)*
X6660000Y26320000D03*
G04 #@! TO.N,GND*
X6660000Y28860000D03*
G04 #@! TO.N,unconnected-(J1-Pad66)*
X6660000Y31400000D03*
G04 #@! TO.N,+12V_BAT*
X6660000Y33940000D03*
G04 #@! TO.N,unconnected-(J1-Pad68)*
X6660000Y36480000D03*
G04 #@! TO.N,unconnected-(J1-Pad69)*
X6660000Y39020000D03*
G04 #@! TO.N,unconnected-(J1-5VPS1-Pad70)*
X6660000Y41560000D03*
G04 #@! TO.N,IN_AAT*
X6660000Y44100000D03*
G04 #@! TO.N,IN_IAT*
X6660000Y46640000D03*
G04 #@! TO.N,unconnected-(J1-Pad73)*
X6660000Y49180000D03*
G04 #@! TO.N,GND*
X6660000Y51720000D03*
G04 #@! TO.N,unconnected-(J1-Pad75)*
X6660000Y54260000D03*
G04 #@! TO.N,unconnected-(J1-Pad76)*
X6660000Y56800000D03*
G04 #@! TO.N,unconnected-(J1-FICMPSNS-Pad77)*
X6660000Y59340000D03*
G04 #@! TO.N,unconnected-(J1-GEARSENS-Pad78)*
X6660000Y61880000D03*
G04 #@! TO.N,unconnected-(J1-Pad79)*
X6660000Y64420000D03*
G04 #@! TO.N,unconnected-(J1-PCHO2SHTR-Pad80)*
X6660000Y66960000D03*
G04 #@! TO.N,unconnected-(J1-Pad81)*
X6660000Y69500000D03*
G04 #@! TD*
D44*
G04 #@! TO.N,IN_TPS2*
X39116000Y56642000D03*
G04 #@! TO.N,IN_CLT*
X36830000Y61214000D03*
G04 #@! TO.N,IN_MAP*
X21590000Y47498000D03*
X38100000Y52324000D03*
G04 #@! TO.N,ETS*
X21590000Y36068000D03*
X38608000Y37338000D03*
G04 #@! TO.N,IN_TPS*
X23622000Y63100007D03*
G04 #@! TO.N,+3V3SW*
X78994000Y78994000D03*
X84328000Y74930000D03*
X93726000Y77470000D03*
X87122000Y58671004D03*
X87402000Y99822000D03*
G04 #@! TO.N,VIGN*
X85598000Y55118000D03*
X85598000Y58928000D03*
D45*
G04 #@! TO.N,+12V_BAT*
X8890000Y88392000D03*
D44*
G04 #@! TO.N,UART_BT_TX*
X77470000Y83312000D03*
X80610000Y78994000D03*
G04 #@! TO.N,MCU_KNOCK_R*
X39561000Y49975000D03*
X41148000Y45720000D03*
G04 #@! TO.N,MCUIGN_2*
X62484000Y74930000D03*
G04 #@! TO.N,MCU_CFC*
X22352000Y87884000D03*
G04 #@! TO.N,MCU_CPC*
X21336000Y86868000D03*
G04 #@! TO.N,IN_JSS*
X36830000Y48768000D03*
G04 #@! TD*
D46*
G04 #@! TO.N,IN_MAP*
X22860000Y48768000D02*
X34544000Y48768000D01*
X21590000Y47498000D02*
X22860000Y48768000D01*
X34544000Y48768000D02*
X38100000Y52324000D01*
G04 #@! TO.N,ETS*
X40894000Y37846000D02*
X40386000Y37338000D01*
X40386000Y37338000D02*
X38608000Y37338000D01*
X40894000Y41242994D02*
X40894000Y37846000D01*
X42350996Y42699990D02*
X40894000Y41242994D01*
D47*
G04 #@! TO.N,+5V*
X81850999Y63500001D02*
X82550994Y63500001D01*
X82550994Y63500001D02*
X83312000Y64261007D01*
X83312000Y70358000D02*
X71347001Y82322999D01*
X83312000Y64261007D02*
X83312000Y70358000D01*
X71347001Y82322999D02*
X57658995Y82322999D01*
G04 #@! TO.N,+3V3SW*
X78994000Y96774000D02*
X78994000Y78994000D01*
X82804000Y100584000D02*
X78994000Y96774000D01*
X87122000Y70866000D02*
X87122000Y58671004D01*
X84328000Y74930000D02*
X86868000Y77470000D01*
X78994000Y78994000D02*
X84328000Y73660000D01*
X84328000Y73660000D02*
X87122000Y70866000D01*
X82550996Y54100000D02*
X81850999Y54100000D01*
X84328000Y74930000D02*
X84328000Y73660000D01*
X86868000Y77470000D02*
X93726000Y77470000D01*
X87122000Y58671004D02*
X82550996Y54100000D01*
X87402000Y99822000D02*
X86640000Y100584000D01*
X86640000Y100584000D02*
X82804000Y100584000D01*
G04 #@! TO.N,VIGN*
X69079001Y86622999D02*
X57658995Y86622999D01*
X82980003Y52500003D02*
X81850999Y52500003D01*
X85598000Y55118000D02*
X82980003Y52500003D01*
X85598000Y70104000D02*
X69079001Y86622999D01*
X85598000Y58928000D02*
X85598000Y70104000D01*
D48*
G04 #@! TO.N,+12V_BAT*
X17018000Y92202000D02*
X28448000Y92202000D01*
X28448000Y92202000D02*
X31619001Y95373001D01*
X13208000Y88392000D02*
X17018000Y92202000D01*
X31619001Y95373001D02*
X42158998Y95373001D01*
X8890000Y88392000D02*
X13208000Y88392000D01*
D47*
G04 #@! TO.N,MCU_CFC*
X41620050Y24192000D02*
X64067255Y24192000D01*
X19558000Y86150661D02*
X19558000Y33808050D01*
X64067255Y24192000D02*
X67250995Y27375740D01*
X22378050Y30988000D02*
X34824050Y30988000D01*
X67250995Y27375740D02*
X67250995Y27800004D01*
X34824050Y30988000D02*
X41620050Y24192000D01*
X22352000Y87884000D02*
X21291339Y87884000D01*
X21291339Y87884000D02*
X19558000Y86150661D01*
X19558000Y33808050D02*
X22378050Y30988000D01*
G04 #@! TO.N,MCU_CPC*
X20320000Y34036000D02*
X22606000Y31750000D01*
X59250996Y27375740D02*
X59250996Y27800004D01*
X41910000Y24892000D02*
X56767256Y24892000D01*
X35052000Y31750000D02*
X41910000Y24892000D01*
X21336000Y86868000D02*
X20320000Y85852000D01*
X22606000Y31750000D02*
X35052000Y31750000D01*
X56767256Y24892000D02*
X59250996Y27375740D01*
X20320000Y85852000D02*
X20320000Y34036000D01*
D46*
G04 #@! TO.N,IN_JSS*
X41654005Y47499995D02*
X40386000Y48768000D01*
X40386000Y48768000D02*
X36830000Y48768000D01*
X42350996Y47499995D02*
X41654005Y47499995D01*
G04 #@! TD*
G04 #@! TA.AperFunction,Conductor*
G04 #@! TO.N,GND*
G36*
X7739024Y28134529D02*
G01*
X7790133Y28207518D01*
X7817341Y28265865D01*
X7863513Y28318304D01*
X7930707Y28337457D01*
X7997588Y28317242D01*
X8042105Y28265868D01*
X8069432Y28207266D01*
X8104734Y28156849D01*
X8199954Y28020859D01*
X8360858Y27859955D01*
X8360861Y27859953D01*
X8547266Y27729432D01*
X8604681Y27702659D01*
X8605275Y27702382D01*
X8657714Y27656209D01*
X8676866Y27589016D01*
X8656650Y27522135D01*
X8605275Y27477618D01*
X8547267Y27450569D01*
X8547265Y27450568D01*
X8360858Y27320046D01*
X8199954Y27159142D01*
X8069432Y26972735D01*
X8069431Y26972733D01*
X8042382Y26914725D01*
X7996209Y26862286D01*
X7929016Y26843134D01*
X7862135Y26863350D01*
X7817618Y26914725D01*
X7813910Y26922677D01*
X7790568Y26972734D01*
X7660047Y27159139D01*
X7660045Y27159142D01*
X7499141Y27320046D01*
X7392546Y27394683D01*
X7312734Y27450568D01*
X7254132Y27477895D01*
X7201694Y27524067D01*
X7182543Y27591261D01*
X7202759Y27658142D01*
X7254135Y27702659D01*
X7312482Y27729867D01*
X7385471Y27780976D01*
X6830234Y28336213D01*
X6872292Y28347482D01*
X6997708Y28419890D01*
X7100110Y28522292D01*
X7172518Y28647708D01*
X7183787Y28689766D01*
X7739024Y28134529D01*
G37*
G04 #@! TD.AperFunction*
G04 #@! TA.AperFunction,Conductor*
G36*
X7997865Y30856652D02*
G01*
X8042382Y30805275D01*
X8069429Y30747272D01*
X8069432Y30747266D01*
X8199954Y30560859D01*
X8360858Y30399955D01*
X8360861Y30399953D01*
X8547266Y30269432D01*
X8605275Y30242382D01*
X8657714Y30196209D01*
X8676866Y30129016D01*
X8656650Y30062135D01*
X8605275Y30017618D01*
X8547267Y29990569D01*
X8547265Y29990568D01*
X8360858Y29860046D01*
X8199954Y29699142D01*
X8069432Y29512735D01*
X8069428Y29512728D01*
X8042105Y29454134D01*
X7995932Y29401695D01*
X7928738Y29382544D01*
X7861858Y29402761D01*
X7817342Y29454136D01*
X7790136Y29512479D01*
X7790132Y29512487D01*
X7739025Y29585474D01*
X7183787Y29030236D01*
X7172518Y29072292D01*
X7100110Y29197708D01*
X6997708Y29300110D01*
X6872292Y29372518D01*
X6830234Y29383788D01*
X7385472Y29939026D01*
X7312480Y29990136D01*
X7254134Y30017343D01*
X7201695Y30063516D01*
X7182543Y30130709D01*
X7202759Y30197590D01*
X7254134Y30242107D01*
X7312734Y30269432D01*
X7499139Y30399953D01*
X7660047Y30560861D01*
X7790568Y30747266D01*
X7817618Y30805276D01*
X7863790Y30857715D01*
X7930983Y30876867D01*
X7997865Y30856652D01*
G37*
G04 #@! TD.AperFunction*
G04 #@! TA.AperFunction,Conductor*
G36*
X7739024Y50994529D02*
G01*
X7790133Y51067518D01*
X7817341Y51125865D01*
X7863513Y51178304D01*
X7930707Y51197457D01*
X7997588Y51177242D01*
X8042105Y51125868D01*
X8069432Y51067266D01*
X8069433Y51067265D01*
X8199954Y50880859D01*
X8360858Y50719955D01*
X8360861Y50719953D01*
X8547266Y50589432D01*
X8604681Y50562659D01*
X8605275Y50562382D01*
X8657714Y50516209D01*
X8676866Y50449016D01*
X8656650Y50382135D01*
X8605275Y50337618D01*
X8547267Y50310569D01*
X8547265Y50310568D01*
X8360858Y50180046D01*
X8199954Y50019142D01*
X8069432Y49832735D01*
X8069431Y49832733D01*
X8042382Y49774725D01*
X7996209Y49722286D01*
X7929016Y49703134D01*
X7862135Y49723350D01*
X7817618Y49774725D01*
X7807816Y49795746D01*
X7790568Y49832734D01*
X7660047Y50019139D01*
X7660045Y50019142D01*
X7499141Y50180046D01*
X7370402Y50270189D01*
X7312734Y50310568D01*
X7254132Y50337895D01*
X7201694Y50384067D01*
X7182543Y50451261D01*
X7202759Y50518142D01*
X7254135Y50562659D01*
X7312482Y50589867D01*
X7385471Y50640976D01*
X6830234Y51196213D01*
X6872292Y51207482D01*
X6997708Y51279890D01*
X7100110Y51382292D01*
X7172518Y51507708D01*
X7183787Y51549766D01*
X7739024Y50994529D01*
G37*
G04 #@! TD.AperFunction*
G04 #@! TA.AperFunction,Conductor*
G36*
X7997865Y53716652D02*
G01*
X8042382Y53665275D01*
X8069429Y53607272D01*
X8069432Y53607266D01*
X8199954Y53420859D01*
X8360858Y53259955D01*
X8360861Y53259953D01*
X8547266Y53129432D01*
X8605275Y53102382D01*
X8657714Y53056209D01*
X8676866Y52989016D01*
X8656650Y52922135D01*
X8605275Y52877618D01*
X8547267Y52850569D01*
X8547265Y52850568D01*
X8360858Y52720046D01*
X8199954Y52559142D01*
X8069432Y52372735D01*
X8069428Y52372728D01*
X8042105Y52314134D01*
X7995932Y52261695D01*
X7928738Y52242544D01*
X7861858Y52262761D01*
X7817342Y52314136D01*
X7790136Y52372479D01*
X7790132Y52372487D01*
X7739025Y52445474D01*
X7183787Y51890236D01*
X7172518Y51932292D01*
X7100110Y52057708D01*
X6997708Y52160110D01*
X6872292Y52232518D01*
X6830234Y52243788D01*
X7385472Y52799026D01*
X7312480Y52850136D01*
X7254134Y52877343D01*
X7201695Y52923516D01*
X7182543Y52990709D01*
X7202759Y53057590D01*
X7254134Y53102107D01*
X7312734Y53129432D01*
X7499139Y53259953D01*
X7660047Y53420861D01*
X7790568Y53607266D01*
X7817618Y53665276D01*
X7863790Y53717715D01*
X7930983Y53736867D01*
X7997865Y53716652D01*
G37*
G04 #@! TD.AperFunction*
G04 #@! TA.AperFunction,Conductor*
G36*
X25080039Y48147815D02*
G01*
X25125794Y48095011D01*
X25137000Y48043500D01*
X25137000Y42084592D01*
X25117315Y42017553D01*
X25066804Y41972873D01*
X25062480Y41970791D01*
X24909737Y41874816D01*
X24782184Y41747263D01*
X24686211Y41594524D01*
X24626631Y41424255D01*
X24626630Y41424250D01*
X24606435Y41245004D01*
X24606435Y41244997D01*
X24626630Y41065751D01*
X24626633Y41065738D01*
X24686209Y40895480D01*
X24739309Y40810971D01*
X24758309Y40743734D01*
X24739309Y40679029D01*
X24686209Y40594521D01*
X24626633Y40424263D01*
X24626630Y40424250D01*
X24606435Y40245004D01*
X24606435Y40244997D01*
X24626630Y40065751D01*
X24626631Y40065746D01*
X24686211Y39895477D01*
X24747629Y39797732D01*
X24782184Y39742738D01*
X24909738Y39615184D01*
X24993925Y39562286D01*
X25062478Y39519211D01*
X25066795Y39517132D01*
X25118658Y39470313D01*
X25137000Y39405409D01*
X25137000Y38605000D01*
X40037000Y38605000D01*
X40037000Y43238908D01*
X40056685Y43305947D01*
X40109489Y43351702D01*
X40120046Y43355950D01*
X40127813Y43358668D01*
X40186522Y43379211D01*
X40339262Y43475184D01*
X40466816Y43602738D01*
X40562789Y43755478D01*
X40622368Y43925745D01*
X40628397Y43979253D01*
X40642565Y44104997D01*
X40642565Y44105004D01*
X40622369Y44284250D01*
X40622368Y44284255D01*
X40607519Y44326692D01*
X40562789Y44454522D01*
X40466816Y44607262D01*
X40456759Y44617319D01*
X40423274Y44678642D01*
X40428258Y44748334D01*
X40456759Y44792681D01*
X40466816Y44802738D01*
X40562789Y44955478D01*
X40565021Y44961860D01*
X40605739Y45018637D01*
X40670690Y45044388D01*
X40739253Y45030936D01*
X40748037Y45025905D01*
X40789258Y45000004D01*
X40798478Y44994211D01*
X40955856Y44939142D01*
X40968745Y44934632D01*
X40968750Y44934631D01*
X41147996Y44914435D01*
X41148000Y44914435D01*
X41148004Y44914435D01*
X41327249Y44934631D01*
X41327252Y44934632D01*
X41327255Y44934632D01*
X41327256Y44934633D01*
X41327259Y44934633D01*
X41358280Y44945489D01*
X41418254Y44966475D01*
X41488031Y44970037D01*
X41548658Y44935309D01*
X41576250Y44890387D01*
X41625206Y44750476D01*
X41721180Y44597735D01*
X41731237Y44587678D01*
X41764722Y44526355D01*
X41759738Y44456663D01*
X41731237Y44412316D01*
X41721180Y44402260D01*
X41625207Y44249521D01*
X41565627Y44079252D01*
X41565626Y44079247D01*
X41545431Y43900001D01*
X41545431Y43899994D01*
X41565626Y43720748D01*
X41565627Y43720743D01*
X41625207Y43550474D01*
X41721180Y43397735D01*
X41731239Y43387676D01*
X41764724Y43326353D01*
X41759740Y43256661D01*
X41731245Y43212320D01*
X41721185Y43202259D01*
X41721182Y43202256D01*
X41625206Y43049512D01*
X41565626Y42879240D01*
X41555833Y42792322D01*
X41528766Y42727908D01*
X41520294Y42718525D01*
X40525286Y41723516D01*
X40413481Y41611712D01*
X40413479Y41611709D01*
X40395522Y41580607D01*
X40377565Y41549503D01*
X40334423Y41474779D01*
X40293499Y41322051D01*
X40293499Y41322049D01*
X40293499Y41153948D01*
X40293500Y41153935D01*
X40293500Y38146097D01*
X40273815Y38079058D01*
X40257181Y38058416D01*
X40173584Y37974819D01*
X40112261Y37941334D01*
X40085903Y37938500D01*
X39190412Y37938500D01*
X39123373Y37958185D01*
X39113097Y37965555D01*
X39110263Y37967815D01*
X39110262Y37967816D01*
X39045966Y38008216D01*
X38957523Y38063789D01*
X38787254Y38123369D01*
X38787249Y38123370D01*
X38608004Y38143565D01*
X38607996Y38143565D01*
X38428750Y38123370D01*
X38428745Y38123369D01*
X38258476Y38063789D01*
X38105737Y37967816D01*
X37978184Y37840263D01*
X37882211Y37687524D01*
X37822631Y37517255D01*
X37822630Y37517250D01*
X37802435Y37338004D01*
X37802435Y37337997D01*
X37822630Y37158751D01*
X37822631Y37158746D01*
X37882211Y36988477D01*
X37967105Y36853370D01*
X37978184Y36835738D01*
X38105738Y36708184D01*
X38258478Y36612211D01*
X38428745Y36552632D01*
X38428750Y36552631D01*
X38607996Y36532435D01*
X38608000Y36532435D01*
X38608004Y36532435D01*
X38787249Y36552631D01*
X38787252Y36552632D01*
X38787255Y36552632D01*
X38957522Y36612211D01*
X39110262Y36708184D01*
X39110267Y36708190D01*
X39113097Y36710445D01*
X39115275Y36711335D01*
X39116158Y36711889D01*
X39116255Y36711735D01*
X39177783Y36736855D01*
X39190412Y36737500D01*
X40299331Y36737500D01*
X40299347Y36737499D01*
X40306943Y36737499D01*
X40465054Y36737499D01*
X40465057Y36737499D01*
X40617785Y36778423D01*
X40695926Y36823538D01*
X40754716Y36857480D01*
X40866520Y36969284D01*
X40866520Y36969286D01*
X40876724Y36979489D01*
X40876728Y36979494D01*
X41252506Y37355272D01*
X41252511Y37355276D01*
X41262714Y37365480D01*
X41262716Y37365480D01*
X41374520Y37477284D01*
X41413687Y37545125D01*
X41464253Y37593339D01*
X41532860Y37606563D01*
X41597725Y37580595D01*
X41626068Y37549096D01*
X41721180Y37397727D01*
X41731236Y37387671D01*
X41764721Y37326348D01*
X41759737Y37256656D01*
X41731236Y37212309D01*
X41721178Y37202252D01*
X41625205Y37049513D01*
X41565625Y36879244D01*
X41565624Y36879239D01*
X41545429Y36699993D01*
X41545429Y36699986D01*
X41565624Y36520740D01*
X41565625Y36520735D01*
X41625205Y36350466D01*
X41721178Y36197727D01*
X41731235Y36187670D01*
X41764720Y36126347D01*
X41759736Y36056655D01*
X41731235Y36012308D01*
X41721180Y36002254D01*
X41625207Y35849515D01*
X41565627Y35679246D01*
X41565626Y35679241D01*
X41545431Y35499995D01*
X41545431Y35499988D01*
X41565626Y35320742D01*
X41565627Y35320737D01*
X41625207Y35150468D01*
X41721180Y34997729D01*
X41731237Y34987672D01*
X41764722Y34926349D01*
X41759738Y34856657D01*
X41731237Y34812310D01*
X41721180Y34802254D01*
X41625207Y34649515D01*
X41565627Y34479246D01*
X41565626Y34479241D01*
X41545431Y34299995D01*
X41545431Y34299988D01*
X41565626Y34120742D01*
X41565627Y34120737D01*
X41625207Y33950468D01*
X41709719Y33815969D01*
X41728719Y33748732D01*
X41709719Y33684025D01*
X41625207Y33549527D01*
X41565627Y33379258D01*
X41565626Y33379253D01*
X41545431Y33200007D01*
X41545431Y33200000D01*
X41565626Y33020754D01*
X41565627Y33020749D01*
X41625207Y32850480D01*
X41721180Y32697741D01*
X41731236Y32687685D01*
X41764721Y32626362D01*
X41759737Y32556670D01*
X41731236Y32512323D01*
X41721178Y32502266D01*
X41625205Y32349527D01*
X41565625Y32179258D01*
X41565624Y32179253D01*
X41545429Y32000007D01*
X41545429Y32000000D01*
X41565624Y31820754D01*
X41565625Y31820749D01*
X41625205Y31650480D01*
X41721178Y31497741D01*
X41731236Y31487683D01*
X41764721Y31426360D01*
X41759737Y31356668D01*
X41731236Y31312321D01*
X41721180Y31302266D01*
X41625207Y31149527D01*
X41565627Y30979258D01*
X41565626Y30979253D01*
X41545431Y30800007D01*
X41545431Y30800000D01*
X41565626Y30620754D01*
X41565627Y30620749D01*
X41625207Y30450480D01*
X41721180Y30297741D01*
X41731234Y30287687D01*
X41764719Y30226364D01*
X41759735Y30156672D01*
X41731240Y30112331D01*
X41721185Y30102275D01*
X41721182Y30102272D01*
X41625207Y29949530D01*
X41565627Y29779261D01*
X41565626Y29779256D01*
X41545431Y29600010D01*
X41545431Y29600003D01*
X41565626Y29420757D01*
X41565627Y29420752D01*
X41625207Y29250483D01*
X41721180Y29097744D01*
X41731235Y29087689D01*
X41764720Y29026366D01*
X41759736Y28956674D01*
X41731241Y28912333D01*
X41721183Y28902274D01*
X41721180Y28902271D01*
X41625205Y28749529D01*
X41565625Y28579260D01*
X41565624Y28579255D01*
X41545429Y28400009D01*
X41545429Y28400002D01*
X41565624Y28220756D01*
X41565625Y28220751D01*
X41625205Y28050482D01*
X41643819Y28020859D01*
X41721178Y27897743D01*
X41848732Y27770189D01*
X42001472Y27674216D01*
X42090617Y27643024D01*
X42137343Y27613663D01*
X42150999Y27600007D01*
X42294624Y27600007D01*
X42308508Y27599227D01*
X42350992Y27594440D01*
X42350994Y27594440D01*
X42350996Y27594440D01*
X42393480Y27599227D01*
X42407364Y27600007D01*
X43684907Y27600007D01*
X43751946Y27580322D01*
X43797701Y27527518D01*
X43801948Y27516963D01*
X43825211Y27450481D01*
X43825212Y27450480D01*
X43921184Y27297742D01*
X44048738Y27170188D01*
X44139080Y27113422D01*
X44201471Y27074219D01*
X44201478Y27074215D01*
X44371731Y27014641D01*
X44371745Y27014636D01*
X44371750Y27014635D01*
X44550996Y26994439D01*
X44551000Y26994439D01*
X44551004Y26994439D01*
X44730249Y27014635D01*
X44730251Y27014636D01*
X44730255Y27014636D01*
X44730258Y27014638D01*
X44730262Y27014638D01*
X44907095Y27076515D01*
X44907846Y27074367D01*
X44966128Y27083970D01*
X44994590Y27075616D01*
X44994906Y27076518D01*
X45171746Y27014639D01*
X45171751Y27014638D01*
X45350997Y26994442D01*
X45351001Y26994442D01*
X45351005Y26994442D01*
X45530250Y27014638D01*
X45530253Y27014639D01*
X45530256Y27014639D01*
X45700523Y27074218D01*
X45853263Y27170191D01*
X45980817Y27297745D01*
X46076790Y27450485D01*
X46100051Y27516962D01*
X46140771Y27573737D01*
X46205723Y27599485D01*
X46217092Y27600007D01*
X51184902Y27600007D01*
X51251941Y27580322D01*
X51297696Y27527518D01*
X51301941Y27516969D01*
X51325206Y27450482D01*
X51421179Y27297742D01*
X51548733Y27170188D01*
X51639075Y27113422D01*
X51701466Y27074219D01*
X51701473Y27074215D01*
X51871726Y27014641D01*
X51871740Y27014636D01*
X51871745Y27014635D01*
X52050991Y26994439D01*
X52050995Y26994439D01*
X52050999Y26994439D01*
X52230244Y27014635D01*
X52230246Y27014636D01*
X52230250Y27014636D01*
X52230253Y27014638D01*
X52230257Y27014638D01*
X52407090Y27076515D01*
X52407842Y27074364D01*
X52466105Y27083971D01*
X52494586Y27075612D01*
X52494902Y27076514D01*
X52671733Y27014638D01*
X52671739Y27014637D01*
X52671741Y27014636D01*
X52671742Y27014636D01*
X52671746Y27014635D01*
X52850992Y26994439D01*
X52850996Y26994439D01*
X52851000Y26994439D01*
X53030245Y27014635D01*
X53030247Y27014636D01*
X53030251Y27014636D01*
X53030254Y27014638D01*
X53030258Y27014638D01*
X53207091Y27076515D01*
X53207843Y27074364D01*
X53266106Y27083971D01*
X53294587Y27075612D01*
X53294903Y27076514D01*
X53471734Y27014638D01*
X53471740Y27014637D01*
X53471742Y27014636D01*
X53471743Y27014636D01*
X53471747Y27014635D01*
X53650993Y26994439D01*
X53650997Y26994439D01*
X53651001Y26994439D01*
X53830246Y27014635D01*
X53830249Y27014636D01*
X53830252Y27014636D01*
X54000519Y27074215D01*
X54000519Y27074216D01*
X54007092Y27076515D01*
X54007845Y27074363D01*
X54066107Y27083970D01*
X54094582Y27075609D01*
X54094900Y27076515D01*
X54271740Y27014636D01*
X54271745Y27014635D01*
X54450991Y26994439D01*
X54450995Y26994439D01*
X54450999Y26994439D01*
X54630244Y27014635D01*
X54630246Y27014636D01*
X54630250Y27014636D01*
X54630253Y27014638D01*
X54630257Y27014638D01*
X54807090Y27076515D01*
X54807842Y27074364D01*
X54866105Y27083971D01*
X54894582Y27075612D01*
X54894899Y27076515D01*
X55071731Y27014638D01*
X55071737Y27014637D01*
X55071739Y27014636D01*
X55071740Y27014636D01*
X55071744Y27014635D01*
X55250990Y26994439D01*
X55250994Y26994439D01*
X55250998Y26994439D01*
X55430243Y27014635D01*
X55430245Y27014636D01*
X55430249Y27014636D01*
X55430252Y27014638D01*
X55430256Y27014638D01*
X55607089Y27076515D01*
X55607840Y27074368D01*
X55666123Y27083971D01*
X55694586Y27075614D01*
X55694903Y27076517D01*
X55871734Y27014641D01*
X55871740Y27014640D01*
X55871742Y27014639D01*
X55871743Y27014639D01*
X55871747Y27014638D01*
X56050993Y26994442D01*
X56050997Y26994442D01*
X56051001Y26994442D01*
X56230246Y27014638D01*
X56230248Y27014639D01*
X56230252Y27014639D01*
X56230255Y27014641D01*
X56230259Y27014641D01*
X56407092Y27076518D01*
X56407846Y27074363D01*
X56466088Y27083973D01*
X56494583Y27075611D01*
X56494900Y27076515D01*
X56671740Y27014636D01*
X56671745Y27014635D01*
X56850991Y26994439D01*
X56850995Y26994439D01*
X56850999Y26994439D01*
X57030244Y27014635D01*
X57030246Y27014636D01*
X57030250Y27014636D01*
X57030253Y27014638D01*
X57030257Y27014638D01*
X57207090Y27076515D01*
X57207842Y27074364D01*
X57266105Y27083971D01*
X57294586Y27075612D01*
X57294902Y27076514D01*
X57471733Y27014638D01*
X57471737Y27014637D01*
X57471738Y27014637D01*
X57471741Y27014636D01*
X57536526Y27007337D01*
X57600937Y26980272D01*
X57640493Y26922677D01*
X57642632Y26852840D01*
X57610322Y26796436D01*
X56492707Y25678819D01*
X56431384Y25645334D01*
X56405026Y25642500D01*
X42272229Y25642500D01*
X42205190Y25662185D01*
X42184548Y25678819D01*
X35530421Y32332948D01*
X35530414Y32332954D01*
X35438394Y32394439D01*
X35438393Y32394439D01*
X35407500Y32415081D01*
X35407488Y32415088D01*
X35270917Y32471657D01*
X35270907Y32471660D01*
X35125920Y32500500D01*
X35125918Y32500500D01*
X22968229Y32500500D01*
X22901190Y32520185D01*
X22880548Y32536819D01*
X21106819Y34310549D01*
X21073334Y34371872D01*
X21070500Y34398230D01*
X21070500Y35226927D01*
X21090185Y35293966D01*
X21142989Y35339721D01*
X21212147Y35349665D01*
X21235455Y35343968D01*
X21410737Y35282634D01*
X21410743Y35282633D01*
X21410745Y35282632D01*
X21410746Y35282632D01*
X21410750Y35282631D01*
X21589996Y35262435D01*
X21590000Y35262435D01*
X21590004Y35262435D01*
X21769249Y35282631D01*
X21769252Y35282632D01*
X21769255Y35282632D01*
X21939522Y35342211D01*
X22092262Y35438184D01*
X22219816Y35565738D01*
X22315789Y35718478D01*
X22375368Y35888745D01*
X22380886Y35937715D01*
X22395565Y36067997D01*
X22395565Y36068004D01*
X22375369Y36247250D01*
X22375368Y36247255D01*
X22339253Y36350466D01*
X22315789Y36417522D01*
X22313761Y36420749D01*
X22276530Y36480002D01*
X22219816Y36570262D01*
X22092262Y36697816D01*
X22078126Y36706698D01*
X21939523Y36793789D01*
X21769254Y36853369D01*
X21769249Y36853370D01*
X21590004Y36873565D01*
X21589996Y36873565D01*
X21410750Y36853370D01*
X21410742Y36853368D01*
X21235454Y36792032D01*
X21165675Y36788471D01*
X21105048Y36823200D01*
X21072821Y36885193D01*
X21070500Y36909074D01*
X21070500Y46656927D01*
X21090185Y46723966D01*
X21142989Y46769721D01*
X21212147Y46779665D01*
X21235455Y46773968D01*
X21410737Y46712634D01*
X21410743Y46712633D01*
X21410745Y46712632D01*
X21410746Y46712632D01*
X21410750Y46712631D01*
X21589996Y46692435D01*
X21590000Y46692435D01*
X21590004Y46692435D01*
X21769249Y46712631D01*
X21769252Y46712632D01*
X21769255Y46712632D01*
X21939522Y46772211D01*
X22092262Y46868184D01*
X22219816Y46995738D01*
X22315789Y47148478D01*
X22375368Y47318745D01*
X22385161Y47405671D01*
X22412226Y47470082D01*
X22420690Y47479457D01*
X23072416Y48131181D01*
X23133739Y48164666D01*
X23160097Y48167500D01*
X25013000Y48167500D01*
X25080039Y48147815D01*
G37*
G04 #@! TD.AperFunction*
G04 #@! TA.AperFunction,Conductor*
G36*
X16329024Y33214529D02*
G01*
X16380133Y33287518D01*
X16407341Y33345865D01*
X16453513Y33398304D01*
X16520707Y33417457D01*
X16587588Y33397242D01*
X16632105Y33345868D01*
X16659432Y33287266D01*
X16692713Y33239735D01*
X16789954Y33100859D01*
X16950858Y32939955D01*
X16950861Y32939953D01*
X17137266Y32809432D01*
X17194681Y32782659D01*
X17195275Y32782382D01*
X17247714Y32736209D01*
X17266866Y32669016D01*
X17246650Y32602135D01*
X17195275Y32557618D01*
X17137267Y32530569D01*
X17137265Y32530568D01*
X16950858Y32400046D01*
X16789954Y32239142D01*
X16659432Y32052735D01*
X16659431Y32052733D01*
X16632382Y31994725D01*
X16586209Y31942286D01*
X16519016Y31923134D01*
X16452135Y31943350D01*
X16407618Y31994725D01*
X16380568Y32052733D01*
X16380567Y32052735D01*
X16250045Y32239142D01*
X16089141Y32400046D01*
X15928791Y32512323D01*
X15902734Y32530568D01*
X15844132Y32557895D01*
X15791694Y32604067D01*
X15772543Y32671261D01*
X15792759Y32738142D01*
X15844135Y32782659D01*
X15902482Y32809867D01*
X15975471Y32860976D01*
X15420234Y33416213D01*
X15462292Y33427482D01*
X15587708Y33499890D01*
X15690110Y33602292D01*
X15762518Y33727708D01*
X15773787Y33769766D01*
X16329024Y33214529D01*
G37*
G04 #@! TD.AperFunction*
G04 #@! TA.AperFunction,Conductor*
G36*
X16587865Y35936652D02*
G01*
X16632382Y35885275D01*
X16659429Y35827272D01*
X16659432Y35827266D01*
X16789954Y35640859D01*
X16950858Y35479955D01*
X16950861Y35479953D01*
X17137266Y35349432D01*
X17195275Y35322382D01*
X17247714Y35276209D01*
X17266866Y35209016D01*
X17246650Y35142135D01*
X17195275Y35097618D01*
X17137267Y35070569D01*
X17137265Y35070568D01*
X16950858Y34940046D01*
X16789954Y34779142D01*
X16659432Y34592735D01*
X16659428Y34592728D01*
X16632105Y34534134D01*
X16585932Y34481695D01*
X16518738Y34462544D01*
X16451858Y34482761D01*
X16407342Y34534136D01*
X16380136Y34592479D01*
X16380132Y34592487D01*
X16329025Y34665474D01*
X15773787Y34110236D01*
X15762518Y34152292D01*
X15690110Y34277708D01*
X15587708Y34380110D01*
X15462292Y34452518D01*
X15420234Y34463788D01*
X15975472Y35019026D01*
X15902480Y35070136D01*
X15844134Y35097343D01*
X15791695Y35143516D01*
X15772543Y35210709D01*
X15792759Y35277590D01*
X15844134Y35322107D01*
X15902734Y35349432D01*
X16089139Y35479953D01*
X16250047Y35640861D01*
X16380568Y35827266D01*
X16407618Y35885276D01*
X16453790Y35937715D01*
X16520983Y35956867D01*
X16587865Y35936652D01*
G37*
G04 #@! TD.AperFunction*
G04 #@! TA.AperFunction,Conductor*
G36*
X17277482Y43887708D02*
G01*
X17349890Y43762292D01*
X17452292Y43659890D01*
X17577708Y43587482D01*
X17619763Y43576213D01*
X17064526Y43020975D01*
X17137513Y42969868D01*
X17137521Y42969864D01*
X17195864Y42942658D01*
X17248304Y42896486D01*
X17267456Y42829293D01*
X17247241Y42762411D01*
X17195866Y42717895D01*
X17137272Y42690572D01*
X17137265Y42690568D01*
X16950858Y42560046D01*
X16789954Y42399142D01*
X16659432Y42212735D01*
X16659431Y42212733D01*
X16632382Y42154725D01*
X16586209Y42102286D01*
X16519016Y42083134D01*
X16452135Y42103350D01*
X16407618Y42154725D01*
X16386506Y42200000D01*
X16380568Y42212734D01*
X16250047Y42399139D01*
X16250045Y42399142D01*
X16089141Y42560046D01*
X15902734Y42690568D01*
X15902728Y42690571D01*
X15844725Y42717618D01*
X15792285Y42763790D01*
X15773133Y42830983D01*
X15793348Y42897865D01*
X15844725Y42942382D01*
X15845319Y42942659D01*
X15902734Y42969432D01*
X16089139Y43099953D01*
X16250047Y43260861D01*
X16380568Y43447266D01*
X16407893Y43505866D01*
X16454065Y43558305D01*
X16521258Y43577457D01*
X16588139Y43557242D01*
X16632657Y43505866D01*
X16659864Y43447520D01*
X16710974Y43374528D01*
X17266212Y43929766D01*
X17277482Y43887708D01*
G37*
G04 #@! TD.AperFunction*
G04 #@! TA.AperFunction,Conductor*
G36*
X16587865Y46096652D02*
G01*
X16632382Y46045275D01*
X16659429Y45987272D01*
X16659432Y45987266D01*
X16789954Y45800859D01*
X16950858Y45639955D01*
X16950861Y45639953D01*
X17137266Y45509432D01*
X17195865Y45482107D01*
X17248305Y45435935D01*
X17267457Y45368742D01*
X17247242Y45301861D01*
X17195867Y45257343D01*
X17137513Y45230132D01*
X17137512Y45230132D01*
X17064526Y45179027D01*
X17064526Y45179026D01*
X17619765Y44623788D01*
X17577708Y44612518D01*
X17452292Y44540110D01*
X17349890Y44437708D01*
X17277482Y44312292D01*
X17266212Y44270236D01*
X16710974Y44825474D01*
X16710973Y44825474D01*
X16659868Y44752488D01*
X16659868Y44752487D01*
X16632657Y44694133D01*
X16586484Y44641694D01*
X16519290Y44622543D01*
X16452409Y44642759D01*
X16407893Y44694135D01*
X16382619Y44748334D01*
X16380568Y44752734D01*
X16250047Y44939139D01*
X16250045Y44939142D01*
X16089141Y45100046D01*
X15902734Y45230568D01*
X15902728Y45230571D01*
X15844725Y45257618D01*
X15792285Y45303790D01*
X15773133Y45370983D01*
X15793348Y45437865D01*
X15844725Y45482382D01*
X15902734Y45509432D01*
X16089139Y45639953D01*
X16250047Y45800861D01*
X16380568Y45987266D01*
X16407618Y46045276D01*
X16453790Y46097715D01*
X16520983Y46116867D01*
X16587865Y46096652D01*
G37*
G04 #@! TD.AperFunction*
G04 #@! TA.AperFunction,Conductor*
G36*
X36068125Y49340378D02*
G01*
X36124058Y49298506D01*
X36148475Y49233042D01*
X36133623Y49164769D01*
X36129785Y49158225D01*
X36104212Y49117526D01*
X36044631Y48947255D01*
X36044630Y48947250D01*
X36024435Y48768004D01*
X36024435Y48767997D01*
X36044630Y48588751D01*
X36044631Y48588746D01*
X36104211Y48418477D01*
X36200184Y48265738D01*
X36249241Y48216681D01*
X36282726Y48155358D01*
X36277742Y48085666D01*
X36235870Y48029733D01*
X36170406Y48005316D01*
X36161560Y48005000D01*
X34886220Y48005000D01*
X34819181Y48024685D01*
X34773426Y48077489D01*
X34763482Y48146647D01*
X34792507Y48210203D01*
X34824215Y48236384D01*
X34829354Y48239352D01*
X34846164Y48249058D01*
X34846168Y48249058D01*
X34912709Y48287476D01*
X34912708Y48287476D01*
X34912716Y48287480D01*
X35024520Y48399284D01*
X35024520Y48399286D01*
X35034724Y48409489D01*
X35034728Y48409494D01*
X35937112Y49311879D01*
X35998433Y49345362D01*
X36068125Y49340378D01*
G37*
G04 #@! TD.AperFunction*
G04 #@! TA.AperFunction,Conductor*
G36*
X84267703Y70372484D02*
G01*
X84274181Y70366452D01*
X84811181Y69829452D01*
X84844666Y69768129D01*
X84847500Y69741771D01*
X84847500Y59227972D01*
X84840542Y59187018D01*
X84812631Y59107253D01*
X84792435Y58928004D01*
X84792435Y58927997D01*
X84812630Y58748751D01*
X84812631Y58748746D01*
X84872211Y58578477D01*
X84968184Y58425738D01*
X85095738Y58298184D01*
X85209598Y58226641D01*
X85248478Y58202211D01*
X85316563Y58178387D01*
X85373339Y58137665D01*
X85399087Y58072713D01*
X85385631Y58004151D01*
X85363290Y57973664D01*
X82276447Y54886819D01*
X82215124Y54853334D01*
X82188766Y54850500D01*
X82174998Y54850500D01*
X82107959Y54870185D01*
X82062204Y54922989D01*
X82050998Y54974500D01*
X82050998Y61033912D01*
X82070683Y61100951D01*
X82123487Y61146706D01*
X82134044Y61150954D01*
X82200521Y61174215D01*
X82353261Y61270188D01*
X82480815Y61397742D01*
X82576788Y61550482D01*
X82636367Y61720749D01*
X82636367Y61720752D01*
X82636368Y61720755D01*
X82656564Y61900001D01*
X82656564Y61900008D01*
X82636368Y62079254D01*
X82636365Y62079267D01*
X82574488Y62256099D01*
X82576636Y62256851D01*
X82567034Y62315132D01*
X82575392Y62343592D01*
X82574488Y62343908D01*
X82636365Y62520741D01*
X82636368Y62520754D01*
X82652848Y62667023D01*
X82679914Y62731437D01*
X82737509Y62770992D01*
X82751872Y62774756D01*
X82769907Y62778343D01*
X82906489Y62834917D01*
X82974031Y62880047D01*
X83029410Y62917049D01*
X83894952Y63782591D01*
X83963629Y63885375D01*
X83977084Y63905512D01*
X84033658Y64042094D01*
X84043096Y64089545D01*
X84062500Y64187087D01*
X84062500Y70278771D01*
X84082185Y70345810D01*
X84134989Y70391565D01*
X84204147Y70401509D01*
X84267703Y70372484D01*
G37*
G04 #@! TD.AperFunction*
G04 #@! TA.AperFunction,Conductor*
G36*
X82480834Y68895248D02*
G01*
X82536767Y68853376D01*
X82561184Y68787912D01*
X82561500Y68779066D01*
X82561500Y64623237D01*
X82541815Y64556198D01*
X82525181Y64535556D01*
X82276445Y64286820D01*
X82215122Y64253335D01*
X82188764Y64250501D01*
X82174998Y64250501D01*
X82107959Y64270186D01*
X82062204Y64322990D01*
X82050998Y64374501D01*
X82050998Y68633913D01*
X82070683Y68700952D01*
X82123487Y68746707D01*
X82134044Y68750955D01*
X82200521Y68774216D01*
X82353261Y68870189D01*
X82353265Y68870194D01*
X82358704Y68874530D01*
X82360332Y68872488D01*
X82411142Y68900232D01*
X82480834Y68895248D01*
G37*
G04 #@! TD.AperFunction*
G04 #@! TA.AperFunction,Conductor*
G36*
X17277482Y66747708D02*
G01*
X17349890Y66622292D01*
X17452292Y66519890D01*
X17577708Y66447482D01*
X17619763Y66436213D01*
X17064526Y65880975D01*
X17137513Y65829868D01*
X17137521Y65829864D01*
X17195864Y65802658D01*
X17248304Y65756486D01*
X17267456Y65689293D01*
X17247241Y65622411D01*
X17195866Y65577895D01*
X17137272Y65550572D01*
X17137265Y65550568D01*
X16950858Y65420046D01*
X16789954Y65259142D01*
X16659432Y65072735D01*
X16659431Y65072733D01*
X16632382Y65014725D01*
X16586209Y64962286D01*
X16519016Y64943134D01*
X16452135Y64963350D01*
X16407618Y65014725D01*
X16380568Y65072733D01*
X16380567Y65072735D01*
X16250045Y65259142D01*
X16089141Y65420046D01*
X15902734Y65550568D01*
X15902728Y65550571D01*
X15844725Y65577618D01*
X15792285Y65623790D01*
X15773133Y65690983D01*
X15793348Y65757865D01*
X15844725Y65802382D01*
X15845319Y65802659D01*
X15902734Y65829432D01*
X16089139Y65959953D01*
X16250047Y66120861D01*
X16380568Y66307266D01*
X16407893Y66365866D01*
X16454065Y66418305D01*
X16521258Y66437457D01*
X16588139Y66417242D01*
X16632657Y66365866D01*
X16659864Y66307520D01*
X16710974Y66234528D01*
X17266212Y66789766D01*
X17277482Y66747708D01*
G37*
G04 #@! TD.AperFunction*
G04 #@! TA.AperFunction,Conductor*
G36*
X16587865Y68956652D02*
G01*
X16632381Y68905276D01*
X16646517Y68874962D01*
X16659429Y68847272D01*
X16659432Y68847266D01*
X16789954Y68660859D01*
X16950858Y68499955D01*
X16950861Y68499953D01*
X17137266Y68369432D01*
X17195865Y68342107D01*
X17248305Y68295935D01*
X17267457Y68228742D01*
X17247242Y68161861D01*
X17195867Y68117343D01*
X17137513Y68090132D01*
X17137512Y68090132D01*
X17064526Y68039027D01*
X17064526Y68039026D01*
X17619765Y67483788D01*
X17577708Y67472518D01*
X17452292Y67400110D01*
X17349890Y67297708D01*
X17277482Y67172292D01*
X17266212Y67130236D01*
X16710974Y67685474D01*
X16710973Y67685474D01*
X16659868Y67612488D01*
X16659868Y67612487D01*
X16632657Y67554133D01*
X16586484Y67501694D01*
X16519290Y67482543D01*
X16452409Y67502759D01*
X16407893Y67554135D01*
X16380682Y67612488D01*
X16380568Y67612734D01*
X16250047Y67799139D01*
X16250045Y67799142D01*
X16089141Y67960046D01*
X15902734Y68090568D01*
X15902728Y68090571D01*
X15844725Y68117618D01*
X15792285Y68163790D01*
X15773133Y68230983D01*
X15793348Y68297865D01*
X15844725Y68342382D01*
X15902734Y68369432D01*
X16089139Y68499953D01*
X16250047Y68660861D01*
X16380568Y68847266D01*
X16407618Y68905276D01*
X16453790Y68957715D01*
X16520983Y68976867D01*
X16587865Y68956652D01*
G37*
G04 #@! TD.AperFunction*
G04 #@! TA.AperFunction,Conductor*
G36*
X68783810Y85852814D02*
G01*
X68804452Y85836180D01*
X71355452Y83285180D01*
X71388937Y83223857D01*
X71383953Y83154165D01*
X71342081Y83098232D01*
X71276617Y83073815D01*
X71267771Y83073499D01*
X58724619Y83073499D01*
X58657580Y83093184D01*
X58623043Y83126377D01*
X58620593Y83129876D01*
X58550463Y83200006D01*
X58465872Y83284597D01*
X58410842Y83323130D01*
X58361877Y83357416D01*
X58318253Y83411993D01*
X58309002Y83458990D01*
X58309002Y85487010D01*
X58328687Y85554049D01*
X58361879Y85588585D01*
X58465872Y85661401D01*
X58620593Y85816122D01*
X58623045Y85819625D01*
X58677623Y85863248D01*
X58724619Y85872499D01*
X68716771Y85872499D01*
X68783810Y85852814D01*
G37*
G04 #@! TD.AperFunction*
G04 #@! TA.AperFunction,Conductor*
G36*
X101442539Y106479815D02*
G01*
X101488294Y106427011D01*
X101499500Y106375500D01*
X101499500Y102124000D01*
X101479815Y102056961D01*
X101427011Y102011206D01*
X101375500Y102000000D01*
X96000000Y102000000D01*
X96000000Y96613304D01*
X95980315Y96546265D01*
X95927511Y96500510D01*
X95908097Y96493531D01*
X95866853Y96482480D01*
X95806812Y96466392D01*
X95692686Y96400500D01*
X95692683Y96400498D01*
X95599502Y96307317D01*
X95599500Y96307314D01*
X95533608Y96193188D01*
X95499500Y96065892D01*
X95499500Y79934109D01*
X95533608Y79806813D01*
X95537793Y79799565D01*
X95599500Y79692686D01*
X95692686Y79599500D01*
X95806814Y79533608D01*
X95908095Y79506471D01*
X95967753Y79470108D01*
X95998283Y79407261D01*
X96000000Y79386697D01*
X96000000Y74000000D01*
X101375500Y74000000D01*
X101442539Y73980315D01*
X101488294Y73927511D01*
X101499500Y73876000D01*
X101499500Y624500D01*
X101479815Y557461D01*
X101427011Y511706D01*
X101375500Y500500D01*
X624500Y500500D01*
X557461Y520185D01*
X511706Y572989D01*
X500500Y624500D01*
X500500Y12834398D01*
X7149500Y12834398D01*
X7149500Y12565603D01*
X7184582Y12299120D01*
X7184583Y12299115D01*
X7184584Y12299109D01*
X7184585Y12299107D01*
X7254152Y12039476D01*
X7357011Y11791150D01*
X7357019Y11791134D01*
X7437830Y11651168D01*
X7491413Y11558359D01*
X7491415Y11558356D01*
X7491416Y11558355D01*
X7655042Y11345112D01*
X7655048Y11345105D01*
X7845104Y11155049D01*
X7845110Y11155044D01*
X8058359Y10991413D01*
X8207968Y10905036D01*
X8291133Y10857020D01*
X8291149Y10857012D01*
X8446008Y10792868D01*
X8539474Y10754153D01*
X8799109Y10684584D01*
X8987319Y10659807D01*
X9065602Y10649500D01*
X9065603Y10649500D01*
X9334398Y10649500D01*
X9394905Y10657466D01*
X9600891Y10684584D01*
X9860526Y10754153D01*
X10047457Y10831583D01*
X10108850Y10857012D01*
X10108853Y10857014D01*
X10108859Y10857016D01*
X10341641Y10991413D01*
X10554890Y11155044D01*
X10744956Y11345110D01*
X10908587Y11558359D01*
X11042984Y11791141D01*
X11145847Y12039474D01*
X11215416Y12299109D01*
X11250500Y12565603D01*
X11250500Y12834397D01*
X11215416Y13100891D01*
X11145847Y13360526D01*
X11107132Y13453992D01*
X11042988Y13608851D01*
X11042980Y13608867D01*
X10994964Y13692032D01*
X10908587Y13841641D01*
X10744956Y14054890D01*
X10744951Y14054896D01*
X10554895Y14244952D01*
X10554888Y14244958D01*
X10341645Y14408584D01*
X10341644Y14408585D01*
X10341641Y14408587D01*
X10248832Y14462170D01*
X10108866Y14542981D01*
X10108850Y14542989D01*
X9860524Y14645848D01*
X9730708Y14680632D01*
X9600891Y14715416D01*
X9600885Y14715417D01*
X9600880Y14715418D01*
X9334398Y14750500D01*
X9334397Y14750500D01*
X9065603Y14750500D01*
X9065602Y14750500D01*
X8799119Y14715418D01*
X8799112Y14715417D01*
X8799109Y14715416D01*
X8744239Y14700714D01*
X8539475Y14645848D01*
X8291149Y14542989D01*
X8291133Y14542981D01*
X8058354Y14408584D01*
X7845111Y14244958D01*
X7845104Y14244952D01*
X7655048Y14054896D01*
X7655042Y14054889D01*
X7491416Y13841646D01*
X7357019Y13608867D01*
X7357011Y13608851D01*
X7254152Y13360525D01*
X7184585Y13100894D01*
X7184582Y13100881D01*
X7149500Y12834398D01*
X500500Y12834398D01*
X500500Y17302352D01*
X16499500Y17302352D01*
X16499500Y17097649D01*
X16531522Y16895466D01*
X16594781Y16700777D01*
X16687715Y16518387D01*
X16808028Y16352787D01*
X16952786Y16208029D01*
X17107749Y16095444D01*
X17118390Y16087713D01*
X17234607Y16028497D01*
X17300776Y15994782D01*
X17300778Y15994782D01*
X17300781Y15994780D01*
X17405137Y15960873D01*
X17495465Y15931523D01*
X17596557Y15915512D01*
X17697648Y15899500D01*
X17697649Y15899500D01*
X17902351Y15899500D01*
X17902352Y15899500D01*
X18104534Y15931523D01*
X18299219Y15994780D01*
X18481610Y16087713D01*
X18574590Y16155268D01*
X18647213Y16208029D01*
X18647215Y16208032D01*
X18647219Y16208034D01*
X18791966Y16352781D01*
X18791968Y16352785D01*
X18791971Y16352787D01*
X18844732Y16425410D01*
X18912287Y16518390D01*
X19005220Y16700781D01*
X19068477Y16895466D01*
X19100500Y17097648D01*
X19100500Y17185766D01*
X95319500Y17185766D01*
X95319500Y17034235D01*
X95358719Y16887864D01*
X95396602Y16822250D01*
X95434485Y16756635D01*
X95541635Y16649485D01*
X95672865Y16573719D01*
X95819234Y16534500D01*
X95819236Y16534500D01*
X95970764Y16534500D01*
X95970766Y16534500D01*
X96117135Y16573719D01*
X96248365Y16649485D01*
X96355515Y16756635D01*
X96431281Y16887865D01*
X96470500Y17034234D01*
X96470500Y17185766D01*
X96431281Y17332135D01*
X96355515Y17463365D01*
X96248365Y17570515D01*
X96182750Y17608398D01*
X96117136Y17646281D01*
X96043950Y17665891D01*
X95970766Y17685500D01*
X95819234Y17685500D01*
X95672863Y17646281D01*
X95541635Y17570515D01*
X95541632Y17570513D01*
X95434487Y17463368D01*
X95434485Y17463365D01*
X95358719Y17332137D01*
X95319500Y17185766D01*
X19100500Y17185766D01*
X19100500Y17302352D01*
X19068477Y17504534D01*
X19047038Y17570515D01*
X19039127Y17594863D01*
X19005220Y17699219D01*
X19005218Y17699222D01*
X19005218Y17699224D01*
X18971503Y17765393D01*
X18912287Y17881610D01*
X18904556Y17892251D01*
X18791971Y18047214D01*
X18647213Y18191972D01*
X18481613Y18312285D01*
X18481612Y18312286D01*
X18481610Y18312287D01*
X18424653Y18341309D01*
X18299223Y18405219D01*
X18104534Y18468478D01*
X17929995Y18496122D01*
X17902352Y18500500D01*
X17697648Y18500500D01*
X17673329Y18496649D01*
X17495465Y18468478D01*
X17300776Y18405219D01*
X17118386Y18312285D01*
X16952786Y18191972D01*
X16808028Y18047214D01*
X16687715Y17881614D01*
X16594781Y17699224D01*
X16531522Y17504535D01*
X16499500Y17302352D01*
X500500Y17302352D01*
X500500Y69500002D01*
X5354532Y69500002D01*
X5354532Y69499999D01*
X5374364Y69273314D01*
X5374366Y69273303D01*
X5433258Y69053512D01*
X5433261Y69053503D01*
X5529431Y68847268D01*
X5529432Y68847266D01*
X5659954Y68660859D01*
X5820858Y68499955D01*
X5820861Y68499953D01*
X6007266Y68369432D01*
X6065275Y68342382D01*
X6117714Y68296209D01*
X6136866Y68229016D01*
X6116650Y68162135D01*
X6065275Y68117618D01*
X6007267Y68090569D01*
X6007265Y68090568D01*
X5820858Y67960046D01*
X5659954Y67799142D01*
X5529432Y67612735D01*
X5529431Y67612733D01*
X5433261Y67406498D01*
X5433258Y67406489D01*
X5374366Y67186698D01*
X5374364Y67186687D01*
X5354532Y66960002D01*
X5354532Y66959999D01*
X5374364Y66733314D01*
X5374366Y66733303D01*
X5433258Y66513512D01*
X5433261Y66513503D01*
X5529431Y66307268D01*
X5529432Y66307266D01*
X5659954Y66120859D01*
X5820858Y65959955D01*
X5820861Y65959953D01*
X6007266Y65829432D01*
X6064681Y65802659D01*
X6065275Y65802382D01*
X6117714Y65756209D01*
X6136866Y65689016D01*
X6116650Y65622135D01*
X6065275Y65577618D01*
X6007267Y65550569D01*
X6007265Y65550568D01*
X5820858Y65420046D01*
X5659954Y65259142D01*
X5529432Y65072735D01*
X5529431Y65072733D01*
X5433261Y64866498D01*
X5433258Y64866489D01*
X5374366Y64646698D01*
X5374364Y64646687D01*
X5354532Y64420002D01*
X5354532Y64419999D01*
X5374364Y64193314D01*
X5374366Y64193303D01*
X5433258Y63973512D01*
X5433261Y63973503D01*
X5529431Y63767268D01*
X5529432Y63767266D01*
X5659954Y63580859D01*
X5820858Y63419955D01*
X5820861Y63419953D01*
X6007266Y63289432D01*
X6065275Y63262382D01*
X6117714Y63216209D01*
X6136866Y63149016D01*
X6116650Y63082135D01*
X6065275Y63037618D01*
X6007267Y63010569D01*
X6007265Y63010568D01*
X5820860Y62880047D01*
X5659954Y62719142D01*
X5529432Y62532735D01*
X5529431Y62532733D01*
X5433261Y62326498D01*
X5433258Y62326489D01*
X5374366Y62106698D01*
X5374364Y62106687D01*
X5354532Y61880002D01*
X5354532Y61879999D01*
X5374364Y61653314D01*
X5374366Y61653303D01*
X5433258Y61433512D01*
X5433261Y61433503D01*
X5529431Y61227268D01*
X5529432Y61227266D01*
X5659954Y61040859D01*
X5820858Y60879955D01*
X5820861Y60879953D01*
X6007266Y60749432D01*
X6065275Y60722382D01*
X6117714Y60676209D01*
X6136866Y60609016D01*
X6116650Y60542135D01*
X6065275Y60497618D01*
X6007267Y60470569D01*
X6007265Y60470568D01*
X5820858Y60340046D01*
X5659954Y60179142D01*
X5529432Y59992735D01*
X5529431Y59992733D01*
X5433261Y59786498D01*
X5433258Y59786489D01*
X5374366Y59566698D01*
X5374364Y59566687D01*
X5354532Y59340002D01*
X5354532Y59339999D01*
X5374364Y59113314D01*
X5374366Y59113303D01*
X5433258Y58893512D01*
X5433261Y58893503D01*
X5529431Y58687268D01*
X5529432Y58687266D01*
X5659954Y58500859D01*
X5820858Y58339955D01*
X5847242Y58321481D01*
X6007266Y58209432D01*
X6065275Y58182382D01*
X6117714Y58136209D01*
X6136866Y58069016D01*
X6116650Y58002135D01*
X6065275Y57957618D01*
X6007267Y57930569D01*
X6007265Y57930568D01*
X5820858Y57800046D01*
X5659954Y57639142D01*
X5529432Y57452735D01*
X5529431Y57452733D01*
X5433261Y57246498D01*
X5433258Y57246489D01*
X5374366Y57026698D01*
X5374364Y57026687D01*
X5354532Y56800002D01*
X5354532Y56799999D01*
X5374364Y56573314D01*
X5374366Y56573303D01*
X5433258Y56353512D01*
X5433261Y56353503D01*
X5529431Y56147268D01*
X5529432Y56147266D01*
X5659954Y55960859D01*
X5820858Y55799955D01*
X5820861Y55799953D01*
X6007266Y55669432D01*
X6065275Y55642382D01*
X6117714Y55596209D01*
X6136866Y55529016D01*
X6116650Y55462135D01*
X6065275Y55417618D01*
X6007267Y55390569D01*
X6007265Y55390568D01*
X5820858Y55260046D01*
X5659954Y55099142D01*
X5529432Y54912735D01*
X5529431Y54912733D01*
X5433261Y54706498D01*
X5433258Y54706489D01*
X5374366Y54486698D01*
X5374364Y54486687D01*
X5354532Y54260002D01*
X5354532Y54259999D01*
X5374364Y54033314D01*
X5374366Y54033303D01*
X5433258Y53813512D01*
X5433261Y53813503D01*
X5529431Y53607268D01*
X5529432Y53607266D01*
X5659954Y53420859D01*
X5820858Y53259955D01*
X5820861Y53259953D01*
X6007266Y53129432D01*
X6065865Y53102107D01*
X6118305Y53055935D01*
X6137457Y52988742D01*
X6117242Y52921861D01*
X6065867Y52877343D01*
X6007513Y52850132D01*
X6007512Y52850132D01*
X5934526Y52799027D01*
X5934526Y52799026D01*
X6489765Y52243788D01*
X6447708Y52232518D01*
X6322292Y52160110D01*
X6219890Y52057708D01*
X6147482Y51932292D01*
X6136212Y51890236D01*
X5580974Y52445474D01*
X5580973Y52445474D01*
X5529868Y52372488D01*
X5529866Y52372484D01*
X5433734Y52166327D01*
X5433730Y52166318D01*
X5374860Y51946611D01*
X5374858Y51946600D01*
X5355034Y51720003D01*
X5355034Y51719998D01*
X5374858Y51493401D01*
X5374860Y51493390D01*
X5433730Y51273683D01*
X5433735Y51273669D01*
X5529863Y51067522D01*
X5580974Y50994528D01*
X6136212Y51549766D01*
X6147482Y51507708D01*
X6219890Y51382292D01*
X6322292Y51279890D01*
X6447708Y51207482D01*
X6489765Y51196213D01*
X5934526Y50640975D01*
X6007513Y50589868D01*
X6007521Y50589864D01*
X6065864Y50562658D01*
X6118304Y50516486D01*
X6137456Y50449293D01*
X6117241Y50382411D01*
X6065866Y50337895D01*
X6007272Y50310572D01*
X6007265Y50310568D01*
X5820858Y50180046D01*
X5659954Y50019142D01*
X5529432Y49832735D01*
X5529431Y49832733D01*
X5433261Y49626498D01*
X5433258Y49626489D01*
X5374366Y49406698D01*
X5374364Y49406687D01*
X5354532Y49180002D01*
X5354532Y49179999D01*
X5374364Y48953314D01*
X5374366Y48953303D01*
X5433258Y48733512D01*
X5433261Y48733503D01*
X5529431Y48527268D01*
X5529432Y48527266D01*
X5659954Y48340859D01*
X5820858Y48179955D01*
X5820861Y48179953D01*
X6007266Y48049432D01*
X6060336Y48024685D01*
X6065275Y48022382D01*
X6117714Y47976209D01*
X6136866Y47909016D01*
X6116650Y47842135D01*
X6065275Y47797618D01*
X6007267Y47770569D01*
X6007265Y47770568D01*
X5820858Y47640046D01*
X5659954Y47479142D01*
X5529432Y47292735D01*
X5529431Y47292733D01*
X5433261Y47086498D01*
X5433258Y47086489D01*
X5374366Y46866698D01*
X5374364Y46866687D01*
X5354532Y46640002D01*
X5354532Y46639999D01*
X5374364Y46413314D01*
X5374366Y46413303D01*
X5433258Y46193512D01*
X5433261Y46193503D01*
X5529431Y45987268D01*
X5529432Y45987266D01*
X5659954Y45800859D01*
X5820858Y45639955D01*
X5820861Y45639953D01*
X6007266Y45509432D01*
X6065275Y45482382D01*
X6117714Y45436209D01*
X6136866Y45369016D01*
X6116650Y45302135D01*
X6065275Y45257618D01*
X6007267Y45230569D01*
X6007265Y45230568D01*
X5820858Y45100046D01*
X5659954Y44939142D01*
X5529432Y44752735D01*
X5529431Y44752733D01*
X5433261Y44546498D01*
X5433258Y44546489D01*
X5374366Y44326698D01*
X5374364Y44326687D01*
X5354532Y44100002D01*
X5354532Y44099999D01*
X5374364Y43873314D01*
X5374366Y43873303D01*
X5433258Y43653512D01*
X5433261Y43653503D01*
X5529431Y43447268D01*
X5529432Y43447266D01*
X5659954Y43260859D01*
X5820858Y43099955D01*
X5820861Y43099953D01*
X6007266Y42969432D01*
X6064681Y42942659D01*
X6065275Y42942382D01*
X6117714Y42896209D01*
X6136866Y42829016D01*
X6116650Y42762135D01*
X6065275Y42717618D01*
X6007267Y42690569D01*
X6007265Y42690568D01*
X5820858Y42560046D01*
X5659954Y42399142D01*
X5529432Y42212735D01*
X5529431Y42212733D01*
X5433261Y42006498D01*
X5433258Y42006489D01*
X5374366Y41786698D01*
X5374364Y41786687D01*
X5354532Y41560002D01*
X5354532Y41559999D01*
X5374364Y41333314D01*
X5374366Y41333303D01*
X5433258Y41113512D01*
X5433261Y41113503D01*
X5529431Y40907268D01*
X5529432Y40907266D01*
X5659954Y40720859D01*
X5820858Y40559955D01*
X5820861Y40559953D01*
X6007266Y40429432D01*
X6025887Y40420749D01*
X6065275Y40402382D01*
X6117714Y40356209D01*
X6136866Y40289016D01*
X6116650Y40222135D01*
X6065275Y40177618D01*
X6007267Y40150569D01*
X6007265Y40150568D01*
X5820858Y40020046D01*
X5659954Y39859142D01*
X5529432Y39672735D01*
X5529431Y39672733D01*
X5433261Y39466498D01*
X5433258Y39466489D01*
X5374366Y39246698D01*
X5374364Y39246687D01*
X5354532Y39020002D01*
X5354532Y39019999D01*
X5374364Y38793314D01*
X5374366Y38793303D01*
X5433258Y38573512D01*
X5433261Y38573503D01*
X5529431Y38367268D01*
X5529432Y38367266D01*
X5659954Y38180859D01*
X5820858Y38019955D01*
X5820861Y38019953D01*
X6007266Y37889432D01*
X6065275Y37862382D01*
X6117714Y37816209D01*
X6136866Y37749016D01*
X6116650Y37682135D01*
X6065275Y37637618D01*
X6007267Y37610569D01*
X6007265Y37610568D01*
X5820858Y37480046D01*
X5659954Y37319142D01*
X5529432Y37132735D01*
X5529431Y37132733D01*
X5433261Y36926498D01*
X5433258Y36926489D01*
X5374366Y36706698D01*
X5374364Y36706687D01*
X5354532Y36480002D01*
X5354532Y36479999D01*
X5374364Y36253314D01*
X5374366Y36253303D01*
X5433258Y36033512D01*
X5433261Y36033503D01*
X5529431Y35827268D01*
X5529432Y35827266D01*
X5659954Y35640859D01*
X5820858Y35479955D01*
X5820861Y35479953D01*
X6007266Y35349432D01*
X6065275Y35322382D01*
X6117714Y35276209D01*
X6136866Y35209016D01*
X6116650Y35142135D01*
X6065275Y35097618D01*
X6007267Y35070569D01*
X6007265Y35070568D01*
X5820858Y34940046D01*
X5659954Y34779142D01*
X5529432Y34592735D01*
X5529431Y34592733D01*
X5433261Y34386498D01*
X5433258Y34386489D01*
X5374366Y34166698D01*
X5374364Y34166687D01*
X5354532Y33940002D01*
X5354532Y33939999D01*
X5374364Y33713314D01*
X5374366Y33713303D01*
X5433258Y33493512D01*
X5433261Y33493503D01*
X5529431Y33287268D01*
X5529432Y33287266D01*
X5659954Y33100859D01*
X5820858Y32939955D01*
X5820861Y32939953D01*
X6007266Y32809432D01*
X6064681Y32782659D01*
X6065275Y32782382D01*
X6117714Y32736209D01*
X6136866Y32669016D01*
X6116650Y32602135D01*
X6065275Y32557618D01*
X6007267Y32530569D01*
X6007265Y32530568D01*
X5820858Y32400046D01*
X5659954Y32239142D01*
X5529432Y32052735D01*
X5529431Y32052733D01*
X5433261Y31846498D01*
X5433258Y31846489D01*
X5374366Y31626698D01*
X5374364Y31626687D01*
X5354532Y31400002D01*
X5354532Y31399999D01*
X5374364Y31173314D01*
X5374366Y31173303D01*
X5433258Y30953512D01*
X5433261Y30953503D01*
X5529431Y30747268D01*
X5529432Y30747266D01*
X5659954Y30560859D01*
X5820858Y30399955D01*
X5820861Y30399953D01*
X6007266Y30269432D01*
X6065865Y30242107D01*
X6118305Y30195935D01*
X6137457Y30128742D01*
X6117242Y30061861D01*
X6065867Y30017343D01*
X6007513Y29990132D01*
X6007512Y29990132D01*
X5934526Y29939027D01*
X5934526Y29939026D01*
X6489765Y29383788D01*
X6447708Y29372518D01*
X6322292Y29300110D01*
X6219890Y29197708D01*
X6147482Y29072292D01*
X6136212Y29030236D01*
X5580974Y29585474D01*
X5580973Y29585474D01*
X5529868Y29512488D01*
X5529866Y29512484D01*
X5433734Y29306327D01*
X5433730Y29306318D01*
X5374860Y29086611D01*
X5374858Y29086600D01*
X5355034Y28860003D01*
X5355034Y28859998D01*
X5374858Y28633401D01*
X5374860Y28633390D01*
X5433730Y28413683D01*
X5433735Y28413669D01*
X5529863Y28207522D01*
X5580974Y28134528D01*
X6136212Y28689766D01*
X6147482Y28647708D01*
X6219890Y28522292D01*
X6322292Y28419890D01*
X6447708Y28347482D01*
X6489765Y28336213D01*
X5934526Y27780975D01*
X6007513Y27729868D01*
X6007521Y27729864D01*
X6065864Y27702658D01*
X6118304Y27656486D01*
X6137456Y27589293D01*
X6117241Y27522411D01*
X6065866Y27477895D01*
X6007272Y27450572D01*
X6007265Y27450568D01*
X5820858Y27320046D01*
X5659954Y27159142D01*
X5529432Y26972735D01*
X5529431Y26972733D01*
X5433261Y26766498D01*
X5433258Y26766489D01*
X5374366Y26546698D01*
X5374364Y26546687D01*
X5354532Y26320002D01*
X5354532Y26319999D01*
X5374364Y26093314D01*
X5374366Y26093303D01*
X5433258Y25873512D01*
X5433261Y25873503D01*
X5529431Y25667268D01*
X5529432Y25667266D01*
X5659954Y25480859D01*
X5820858Y25319955D01*
X5820861Y25319953D01*
X6007266Y25189432D01*
X6065275Y25162382D01*
X6117714Y25116209D01*
X6136866Y25049016D01*
X6116650Y24982135D01*
X6065275Y24937618D01*
X6007267Y24910569D01*
X6007265Y24910568D01*
X5820858Y24780046D01*
X5659954Y24619142D01*
X5529432Y24432735D01*
X5529431Y24432733D01*
X5433261Y24226498D01*
X5433258Y24226489D01*
X5374366Y24006698D01*
X5374364Y24006687D01*
X5354532Y23780002D01*
X5354532Y23779999D01*
X5374364Y23553314D01*
X5374366Y23553303D01*
X5433258Y23333512D01*
X5433261Y23333503D01*
X5529431Y23127268D01*
X5529432Y23127266D01*
X5659954Y22940859D01*
X5820858Y22779955D01*
X5820861Y22779953D01*
X6007266Y22649432D01*
X6213504Y22553261D01*
X6433308Y22494365D01*
X6595230Y22480199D01*
X6659998Y22474532D01*
X6660000Y22474532D01*
X6660002Y22474532D01*
X6716673Y22479491D01*
X6886692Y22494365D01*
X7106496Y22553261D01*
X7312734Y22649432D01*
X7499139Y22779953D01*
X7660047Y22940861D01*
X7790568Y23127266D01*
X7817618Y23185276D01*
X7863790Y23237715D01*
X7930983Y23256867D01*
X7997865Y23236652D01*
X8042382Y23185275D01*
X8069429Y23127272D01*
X8069432Y23127266D01*
X8199954Y22940859D01*
X8360858Y22779955D01*
X8360861Y22779953D01*
X8547266Y22649432D01*
X8753504Y22553261D01*
X8973308Y22494365D01*
X9135230Y22480199D01*
X9199998Y22474532D01*
X9200000Y22474532D01*
X9200002Y22474532D01*
X9256673Y22479491D01*
X9426692Y22494365D01*
X9646496Y22553261D01*
X9852734Y22649432D01*
X10039139Y22779953D01*
X10200047Y22940861D01*
X10330568Y23127266D01*
X10426739Y23333504D01*
X10485635Y23553308D01*
X10505468Y23780000D01*
X10485635Y24006692D01*
X10426739Y24226496D01*
X10330568Y24432734D01*
X10200047Y24619139D01*
X10200045Y24619142D01*
X10039141Y24780046D01*
X9852734Y24910568D01*
X9852728Y24910571D01*
X9794725Y24937618D01*
X9742285Y24983790D01*
X9723133Y25050983D01*
X9743348Y25117865D01*
X9794725Y25162382D01*
X9852734Y25189432D01*
X10039139Y25319953D01*
X10200047Y25480861D01*
X10330568Y25667266D01*
X10426739Y25873504D01*
X10485635Y26093308D01*
X10505468Y26320000D01*
X10485635Y26546692D01*
X10426739Y26766496D01*
X10330568Y26972734D01*
X10200047Y27159139D01*
X10200045Y27159142D01*
X10039141Y27320046D01*
X9852734Y27450568D01*
X9852728Y27450571D01*
X9794725Y27477618D01*
X9742285Y27523790D01*
X9723133Y27590983D01*
X9743348Y27657865D01*
X9794725Y27702382D01*
X9795319Y27702659D01*
X9852734Y27729432D01*
X10039139Y27859953D01*
X10200047Y28020861D01*
X10330568Y28207266D01*
X10426739Y28413504D01*
X10485635Y28633308D01*
X10505468Y28860000D01*
X10485635Y29086692D01*
X10426739Y29306496D01*
X10330568Y29512734D01*
X10200047Y29699139D01*
X10200045Y29699142D01*
X10039141Y29860046D01*
X9852734Y29990568D01*
X9852728Y29990571D01*
X9794725Y30017618D01*
X9742285Y30063790D01*
X9723133Y30130983D01*
X9743348Y30197865D01*
X9794725Y30242382D01*
X9852734Y30269432D01*
X10039139Y30399953D01*
X10200047Y30560861D01*
X10330568Y30747266D01*
X10426739Y30953504D01*
X10485635Y31173308D01*
X10505468Y31400000D01*
X10501626Y31443909D01*
X10496917Y31497741D01*
X10485635Y31626692D01*
X10426739Y31846496D01*
X10330568Y32052734D01*
X10200047Y32239139D01*
X10200045Y32239142D01*
X10039141Y32400046D01*
X9852734Y32530568D01*
X9852728Y32530571D01*
X9794725Y32557618D01*
X9742285Y32603790D01*
X9723133Y32670983D01*
X9743348Y32737865D01*
X9794725Y32782382D01*
X9795319Y32782659D01*
X9852734Y32809432D01*
X10039139Y32939953D01*
X10200047Y33100861D01*
X10330568Y33287266D01*
X10426739Y33493504D01*
X10485635Y33713308D01*
X10505468Y33940000D01*
X10485635Y34166692D01*
X10437357Y34346868D01*
X10426741Y34386489D01*
X10426738Y34386498D01*
X10383491Y34479241D01*
X10330568Y34592734D01*
X10200047Y34779139D01*
X10200045Y34779142D01*
X10039141Y34940046D01*
X9852734Y35070568D01*
X9852728Y35070571D01*
X9794725Y35097618D01*
X9742285Y35143790D01*
X9723133Y35210983D01*
X9743348Y35277865D01*
X9794725Y35322382D01*
X9852734Y35349432D01*
X10039139Y35479953D01*
X10200047Y35640861D01*
X10330568Y35827266D01*
X10426739Y36033504D01*
X10485635Y36253308D01*
X10505468Y36480000D01*
X10485635Y36706692D01*
X10426739Y36926496D01*
X10330568Y37132734D01*
X10200047Y37319139D01*
X10200045Y37319142D01*
X10039141Y37480046D01*
X9852734Y37610568D01*
X9852728Y37610571D01*
X9794725Y37637618D01*
X9742285Y37683790D01*
X9723133Y37750983D01*
X9743348Y37817865D01*
X9794725Y37862382D01*
X9852734Y37889432D01*
X10039139Y38019953D01*
X10200047Y38180861D01*
X10330568Y38367266D01*
X10426739Y38573504D01*
X10485635Y38793308D01*
X10505468Y39020000D01*
X10485635Y39246692D01*
X10426739Y39466496D01*
X10330568Y39672734D01*
X10200047Y39859139D01*
X10200045Y39859142D01*
X10039141Y40020046D01*
X9852734Y40150568D01*
X9852728Y40150571D01*
X9794725Y40177618D01*
X9742285Y40223790D01*
X9723133Y40290983D01*
X9743348Y40357865D01*
X9794725Y40402382D01*
X9852734Y40429432D01*
X10039139Y40559953D01*
X10200047Y40720861D01*
X10330568Y40907266D01*
X10426739Y41113504D01*
X10485635Y41333308D01*
X10505468Y41560000D01*
X10503783Y41579255D01*
X10491162Y41723516D01*
X10485635Y41786692D01*
X10426739Y42006496D01*
X10330568Y42212734D01*
X10200047Y42399139D01*
X10200045Y42399142D01*
X10039141Y42560046D01*
X9852734Y42690568D01*
X9852728Y42690571D01*
X9794725Y42717618D01*
X9742285Y42763790D01*
X9723133Y42830983D01*
X9743348Y42897865D01*
X9794725Y42942382D01*
X9795319Y42942659D01*
X9852734Y42969432D01*
X10039139Y43099953D01*
X10200047Y43260861D01*
X10330568Y43447266D01*
X10426739Y43653504D01*
X10485635Y43873308D01*
X10505468Y44100000D01*
X10485635Y44326692D01*
X10426739Y44546496D01*
X10330568Y44752734D01*
X10200047Y44939139D01*
X10200045Y44939142D01*
X10039141Y45100046D01*
X9852734Y45230568D01*
X9852728Y45230571D01*
X9794725Y45257618D01*
X9742285Y45303790D01*
X9723133Y45370983D01*
X9743348Y45437865D01*
X9794725Y45482382D01*
X9852734Y45509432D01*
X10039139Y45639953D01*
X10200047Y45800861D01*
X10330568Y45987266D01*
X10426739Y46193504D01*
X10485635Y46413308D01*
X10505468Y46640000D01*
X10504635Y46649517D01*
X10499114Y46712631D01*
X10485635Y46866692D01*
X10440916Y47033585D01*
X10426741Y47086489D01*
X10426738Y47086498D01*
X10405855Y47131282D01*
X10330568Y47292734D01*
X10200047Y47479139D01*
X10200045Y47479142D01*
X10039141Y47640046D01*
X9852734Y47770568D01*
X9852728Y47770571D01*
X9794725Y47797618D01*
X9742285Y47843790D01*
X9723133Y47910983D01*
X9743348Y47977865D01*
X9794725Y48022382D01*
X9799664Y48024685D01*
X9852734Y48049432D01*
X10039139Y48179953D01*
X10200047Y48340861D01*
X10330568Y48527266D01*
X10426739Y48733504D01*
X10485635Y48953308D01*
X10503563Y49158225D01*
X10505468Y49179999D01*
X10505468Y49180002D01*
X10492557Y49327576D01*
X10485635Y49406692D01*
X10426739Y49626496D01*
X10330568Y49832734D01*
X10200047Y50019139D01*
X10200045Y50019142D01*
X10039141Y50180046D01*
X9852734Y50310568D01*
X9852728Y50310571D01*
X9794725Y50337618D01*
X9742285Y50383790D01*
X9723133Y50450983D01*
X9743348Y50517865D01*
X9794725Y50562382D01*
X9795319Y50562659D01*
X9852734Y50589432D01*
X10039139Y50719953D01*
X10200047Y50880861D01*
X10330568Y51067266D01*
X10426739Y51273504D01*
X10485635Y51493308D01*
X10505468Y51720000D01*
X10485635Y51946692D01*
X10426739Y52166496D01*
X10330568Y52372734D01*
X10200047Y52559139D01*
X10200045Y52559142D01*
X10039141Y52720046D01*
X9852734Y52850568D01*
X9852728Y52850571D01*
X9794725Y52877618D01*
X9742285Y52923790D01*
X9723133Y52990983D01*
X9743348Y53057865D01*
X9794725Y53102382D01*
X9852734Y53129432D01*
X10039139Y53259953D01*
X10200047Y53420861D01*
X10330568Y53607266D01*
X10426739Y53813504D01*
X10485635Y54033308D01*
X10504123Y54244631D01*
X10505468Y54259999D01*
X10505468Y54260002D01*
X10497552Y54350479D01*
X10485635Y54486692D01*
X10433711Y54680477D01*
X10426741Y54706489D01*
X10426738Y54706498D01*
X10330568Y54912734D01*
X10200047Y55099139D01*
X10200045Y55099142D01*
X10039141Y55260046D01*
X9852734Y55390568D01*
X9852728Y55390571D01*
X9794725Y55417618D01*
X9742285Y55463790D01*
X9723133Y55530983D01*
X9743348Y55597865D01*
X9794725Y55642382D01*
X9852734Y55669432D01*
X10039139Y55799953D01*
X10200047Y55960861D01*
X10330568Y56147266D01*
X10426739Y56353504D01*
X10485635Y56573308D01*
X10505468Y56800000D01*
X10503608Y56821255D01*
X10494095Y56929995D01*
X10485635Y57026692D01*
X10426739Y57246496D01*
X10330568Y57452734D01*
X10200047Y57639139D01*
X10200045Y57639142D01*
X10039141Y57800046D01*
X9852734Y57930568D01*
X9852728Y57930571D01*
X9821324Y57945215D01*
X9794724Y57957619D01*
X9742285Y58003790D01*
X9723133Y58070983D01*
X9743348Y58137865D01*
X9794725Y58182382D01*
X9852734Y58209432D01*
X10039139Y58339953D01*
X10200047Y58500861D01*
X10330568Y58687266D01*
X10426739Y58893504D01*
X10485635Y59113308D01*
X10505468Y59340000D01*
X10485635Y59566692D01*
X10426739Y59786496D01*
X10330568Y59992734D01*
X10200047Y60179139D01*
X10200045Y60179142D01*
X10039141Y60340046D01*
X9852734Y60470568D01*
X9852728Y60470571D01*
X9814899Y60488211D01*
X9794724Y60497619D01*
X9742285Y60543790D01*
X9723133Y60610983D01*
X9743348Y60677865D01*
X9794725Y60722382D01*
X9852734Y60749432D01*
X10039139Y60879953D01*
X10200047Y61040861D01*
X10330568Y61227266D01*
X10426739Y61433504D01*
X10485635Y61653308D01*
X10505468Y61880000D01*
X10485635Y62106692D01*
X10435328Y62294442D01*
X10426741Y62326489D01*
X10426738Y62326498D01*
X10418767Y62343592D01*
X10330568Y62532734D01*
X10200047Y62719139D01*
X10200045Y62719142D01*
X10039140Y62880047D01*
X9852734Y63010568D01*
X9852728Y63010571D01*
X9794725Y63037618D01*
X9742285Y63083790D01*
X9723133Y63150983D01*
X9743348Y63217865D01*
X9794725Y63262382D01*
X9852734Y63289432D01*
X10039139Y63419953D01*
X10200047Y63580861D01*
X10330568Y63767266D01*
X10426739Y63973504D01*
X10485635Y64193308D01*
X10505468Y64420000D01*
X10485635Y64646692D01*
X10426739Y64866496D01*
X10330568Y65072734D01*
X10200047Y65259139D01*
X10200045Y65259142D01*
X10039141Y65420046D01*
X9852734Y65550568D01*
X9852728Y65550571D01*
X9794725Y65577618D01*
X9742285Y65623790D01*
X9723133Y65690983D01*
X9743348Y65757865D01*
X9794725Y65802382D01*
X9795319Y65802659D01*
X9852734Y65829432D01*
X10039139Y65959953D01*
X10200047Y66120861D01*
X10330568Y66307266D01*
X10426739Y66513504D01*
X10485635Y66733308D01*
X10505468Y66960000D01*
X10485635Y67186692D01*
X10426739Y67406496D01*
X10330568Y67612734D01*
X10200047Y67799139D01*
X10200045Y67799142D01*
X10039141Y67960046D01*
X9852734Y68090568D01*
X9852728Y68090571D01*
X9794725Y68117618D01*
X9742285Y68163790D01*
X9723133Y68230983D01*
X9743348Y68297865D01*
X9794725Y68342382D01*
X9852734Y68369432D01*
X10039139Y68499953D01*
X10200047Y68660861D01*
X10330568Y68847266D01*
X10426739Y69053504D01*
X10485635Y69273308D01*
X10505468Y69500000D01*
X10485635Y69726692D01*
X10426739Y69946496D01*
X10330568Y70152734D01*
X10217500Y70314214D01*
X10200045Y70339142D01*
X10039141Y70500046D01*
X9852734Y70630568D01*
X9852732Y70630569D01*
X9646497Y70726739D01*
X9646488Y70726742D01*
X9426697Y70785634D01*
X9426693Y70785635D01*
X9426692Y70785635D01*
X9426691Y70785636D01*
X9426686Y70785636D01*
X9200002Y70805468D01*
X9199998Y70805468D01*
X8973313Y70785636D01*
X8973302Y70785634D01*
X8753511Y70726742D01*
X8753502Y70726739D01*
X8547267Y70630569D01*
X8547265Y70630568D01*
X8360858Y70500046D01*
X8199954Y70339142D01*
X8069432Y70152735D01*
X8069431Y70152733D01*
X8042382Y70094725D01*
X7996209Y70042286D01*
X7929016Y70023134D01*
X7862135Y70043350D01*
X7817618Y70094725D01*
X7790568Y70152734D01*
X7677500Y70314214D01*
X7660045Y70339142D01*
X7499141Y70500046D01*
X7312734Y70630568D01*
X7312732Y70630569D01*
X7106497Y70726739D01*
X7106488Y70726742D01*
X6886697Y70785634D01*
X6886693Y70785635D01*
X6886692Y70785635D01*
X6886691Y70785636D01*
X6886686Y70785636D01*
X6660002Y70805468D01*
X6659998Y70805468D01*
X6433313Y70785636D01*
X6433302Y70785634D01*
X6213511Y70726742D01*
X6213502Y70726739D01*
X6007267Y70630569D01*
X6007265Y70630568D01*
X5820858Y70500046D01*
X5659954Y70339142D01*
X5529432Y70152735D01*
X5529431Y70152733D01*
X5433261Y69946498D01*
X5433258Y69946489D01*
X5374366Y69726698D01*
X5374364Y69726687D01*
X5354532Y69500002D01*
X500500Y69500002D01*
X500500Y77400006D01*
X8154859Y77400006D01*
X8154859Y77399995D01*
X8175385Y77152271D01*
X8175387Y77152262D01*
X8236412Y76911283D01*
X8336266Y76683636D01*
X8436564Y76530118D01*
X8982421Y77075976D01*
X8995359Y77044742D01*
X9077437Y76921903D01*
X9181903Y76817437D01*
X9304742Y76735359D01*
X9335974Y76722423D01*
X8789942Y76176391D01*
X8836768Y76139945D01*
X8836770Y76139944D01*
X9055385Y76021636D01*
X9055396Y76021631D01*
X9290506Y75940917D01*
X9535707Y75900000D01*
X9784293Y75900000D01*
X10029493Y75940917D01*
X10264603Y76021631D01*
X10264614Y76021636D01*
X10483228Y76139943D01*
X10483231Y76139945D01*
X10530056Y76176391D01*
X9984025Y76722422D01*
X10015258Y76735359D01*
X10138097Y76817437D01*
X10242563Y76921903D01*
X10324641Y77044742D01*
X10337577Y77075975D01*
X10883434Y76530118D01*
X10983731Y76683631D01*
X11083587Y76911283D01*
X11144612Y77152262D01*
X11144614Y77152271D01*
X11165141Y77399995D01*
X11165141Y77400006D01*
X11144614Y77647730D01*
X11144612Y77647739D01*
X11083587Y77888718D01*
X10983731Y78116370D01*
X10883434Y78269884D01*
X10337577Y77724027D01*
X10324641Y77755258D01*
X10242563Y77878097D01*
X10138097Y77982563D01*
X10015258Y78064641D01*
X9984025Y78077579D01*
X10530057Y78623610D01*
X10530056Y78623611D01*
X10483229Y78660057D01*
X10264614Y78778365D01*
X10264603Y78778370D01*
X10029493Y78859084D01*
X9784293Y78900000D01*
X9535707Y78900000D01*
X9290506Y78859084D01*
X9055396Y78778370D01*
X9055390Y78778368D01*
X8836761Y78660051D01*
X8789942Y78623612D01*
X8789942Y78623610D01*
X9335974Y78077579D01*
X9304742Y78064641D01*
X9181903Y77982563D01*
X9077437Y77878097D01*
X8995359Y77755258D01*
X8982422Y77724026D01*
X8436564Y78269884D01*
X8336267Y78116368D01*
X8236412Y77888718D01*
X8175387Y77647739D01*
X8175385Y77647730D01*
X8154859Y77400006D01*
X500500Y77400006D01*
X500500Y80300006D01*
X10484859Y80300006D01*
X10484859Y80299995D01*
X10505385Y80052271D01*
X10505387Y80052262D01*
X10566412Y79811283D01*
X10666266Y79583636D01*
X10766564Y79430118D01*
X11312421Y79975976D01*
X11325359Y79944742D01*
X11407437Y79821903D01*
X11511903Y79717437D01*
X11634742Y79635359D01*
X11665974Y79622423D01*
X11119942Y79076391D01*
X11166768Y79039945D01*
X11166770Y79039944D01*
X11385385Y78921636D01*
X11385396Y78921631D01*
X11620506Y78840917D01*
X11865707Y78800000D01*
X12114293Y78800000D01*
X12359493Y78840917D01*
X12594603Y78921631D01*
X12594614Y78921636D01*
X12813228Y79039943D01*
X12813231Y79039945D01*
X12860056Y79076391D01*
X12314025Y79622422D01*
X12345258Y79635359D01*
X12468097Y79717437D01*
X12572563Y79821903D01*
X12654641Y79944742D01*
X12667578Y79975975D01*
X13213434Y79430118D01*
X13313731Y79583631D01*
X13413587Y79811283D01*
X13474612Y80052262D01*
X13474614Y80052271D01*
X13495141Y80299995D01*
X13495141Y80300006D01*
X13474614Y80547730D01*
X13474612Y80547739D01*
X13413587Y80788718D01*
X13313731Y81016370D01*
X13213434Y81169884D01*
X12667577Y80624027D01*
X12654641Y80655258D01*
X12572563Y80778097D01*
X12468097Y80882563D01*
X12345258Y80964641D01*
X12314025Y80977579D01*
X12860057Y81523610D01*
X12860056Y81523611D01*
X12813229Y81560057D01*
X12594614Y81678365D01*
X12594603Y81678370D01*
X12359493Y81759084D01*
X12114293Y81800000D01*
X11865707Y81800000D01*
X11620506Y81759084D01*
X11385396Y81678370D01*
X11385390Y81678368D01*
X11166761Y81560051D01*
X11119942Y81523612D01*
X11119942Y81523610D01*
X11665974Y80977579D01*
X11634742Y80964641D01*
X11511903Y80882563D01*
X11407437Y80778097D01*
X11325359Y80655258D01*
X11312422Y80624026D01*
X10766564Y81169884D01*
X10666267Y81016368D01*
X10566412Y80788718D01*
X10505387Y80547739D01*
X10505385Y80547730D01*
X10484859Y80300006D01*
X500500Y80300006D01*
X500500Y83200006D01*
X8154357Y83200006D01*
X8154357Y83199995D01*
X8174890Y82952188D01*
X8174892Y82952176D01*
X8235936Y82711119D01*
X8335826Y82483394D01*
X8471833Y82275218D01*
X8471836Y82275215D01*
X8640256Y82092262D01*
X8836491Y81939526D01*
X9055190Y81821172D01*
X9290386Y81740429D01*
X9535665Y81699500D01*
X9784335Y81699500D01*
X10029614Y81740429D01*
X10264810Y81821172D01*
X10483509Y81939526D01*
X10679744Y82092262D01*
X10848164Y82275215D01*
X10984173Y82483393D01*
X11084063Y82711119D01*
X11145108Y82952179D01*
X11145109Y82952188D01*
X11165643Y83199995D01*
X11165643Y83200006D01*
X11145109Y83447813D01*
X11145107Y83447825D01*
X11084063Y83688882D01*
X10984173Y83916607D01*
X10848166Y84124783D01*
X10826557Y84148256D01*
X10679744Y84307738D01*
X10483509Y84460474D01*
X10483507Y84460475D01*
X10483506Y84460476D01*
X10264811Y84578828D01*
X10264802Y84578831D01*
X10029616Y84659571D01*
X9784335Y84700500D01*
X9535665Y84700500D01*
X9290383Y84659571D01*
X9055197Y84578831D01*
X9055188Y84578828D01*
X8836493Y84460476D01*
X8640257Y84307739D01*
X8471833Y84124783D01*
X8335826Y83916607D01*
X8235936Y83688882D01*
X8174892Y83447825D01*
X8174890Y83447813D01*
X8154357Y83200006D01*
X500500Y83200006D01*
X500500Y88392001D01*
X7884659Y88392001D01*
X7888903Y88348910D01*
X7889500Y88336756D01*
X7889500Y88293456D01*
X7897945Y88250994D01*
X7899730Y88238965D01*
X7903975Y88195870D01*
X7903976Y88195866D01*
X7916547Y88154425D01*
X7919503Y88142622D01*
X7927946Y88100173D01*
X7927948Y88100166D01*
X7941064Y88068501D01*
X7943239Y88063250D01*
X7944517Y88060166D01*
X7948612Y88048723D01*
X7961186Y88007273D01*
X7961187Y88007271D01*
X7981597Y87969087D01*
X7986800Y87958085D01*
X8003368Y87918086D01*
X8003370Y87918082D01*
X8027425Y87882082D01*
X8033683Y87871642D01*
X8054088Y87833465D01*
X8054094Y87833457D01*
X8081552Y87799998D01*
X8088799Y87790228D01*
X8106039Y87764427D01*
X8112862Y87754217D01*
X8112865Y87754213D01*
X8143479Y87723599D01*
X8151651Y87714584D01*
X8179118Y87681116D01*
X8212581Y87653654D01*
X8221599Y87645480D01*
X8252214Y87614864D01*
X8252219Y87614860D01*
X8288219Y87590806D01*
X8297988Y87583562D01*
X8331462Y87556090D01*
X8364224Y87538579D01*
X8369640Y87535684D01*
X8380078Y87529428D01*
X8416086Y87505368D01*
X8456095Y87488797D01*
X8467091Y87483596D01*
X8505273Y87463186D01*
X8546710Y87450617D01*
X8558160Y87446520D01*
X8598165Y87429949D01*
X8640640Y87421501D01*
X8652414Y87418552D01*
X8693868Y87405976D01*
X8736964Y87401732D01*
X8748990Y87399948D01*
X8779480Y87393883D01*
X8791458Y87391500D01*
X8791459Y87391500D01*
X8834756Y87391500D01*
X8846909Y87390904D01*
X8890000Y87386659D01*
X8933090Y87390904D01*
X8945244Y87391500D01*
X13306542Y87391500D01*
X13325870Y87395345D01*
X13403188Y87410725D01*
X13499836Y87429949D01*
X13553165Y87452039D01*
X13681914Y87505368D01*
X13845782Y87614861D01*
X13985139Y87754218D01*
X13985139Y87754220D01*
X13995347Y87764427D01*
X13995348Y87764430D01*
X14533270Y88302352D01*
X16499500Y88302352D01*
X16499500Y88097648D01*
X16500130Y88093672D01*
X16531522Y87895466D01*
X16594781Y87700777D01*
X16618792Y87653654D01*
X16679516Y87534477D01*
X16687715Y87518387D01*
X16808028Y87352787D01*
X16952786Y87208029D01*
X17107749Y87095444D01*
X17118390Y87087713D01*
X17234607Y87028497D01*
X17300776Y86994782D01*
X17300778Y86994782D01*
X17300781Y86994780D01*
X17405137Y86960873D01*
X17495465Y86931523D01*
X17596557Y86915512D01*
X17697648Y86899500D01*
X17697649Y86899500D01*
X17902351Y86899500D01*
X17902352Y86899500D01*
X18104534Y86931523D01*
X18299219Y86994780D01*
X18481610Y87087713D01*
X18578644Y87158212D01*
X18647213Y87208029D01*
X18647215Y87208032D01*
X18647219Y87208034D01*
X18791966Y87352781D01*
X18791968Y87352785D01*
X18791971Y87352787D01*
X18864078Y87452036D01*
X18912287Y87518390D01*
X19005220Y87700781D01*
X19068477Y87895466D01*
X19100500Y88097648D01*
X19100500Y88302352D01*
X19070693Y88490541D01*
X19068477Y88504535D01*
X19028112Y88628765D01*
X19005220Y88699219D01*
X19005218Y88699222D01*
X19005218Y88699224D01*
X18958466Y88790979D01*
X18912287Y88881610D01*
X18889950Y88912355D01*
X18791971Y89047214D01*
X18647213Y89191972D01*
X18481613Y89312285D01*
X18481612Y89312286D01*
X18481610Y89312287D01*
X18383066Y89362498D01*
X18299223Y89405219D01*
X18104534Y89468478D01*
X17929995Y89496122D01*
X17902352Y89500500D01*
X17697648Y89500500D01*
X17673329Y89496649D01*
X17495465Y89468478D01*
X17300776Y89405219D01*
X17118386Y89312285D01*
X16952786Y89191972D01*
X16808028Y89047214D01*
X16687715Y88881614D01*
X16594781Y88699224D01*
X16531522Y88504535D01*
X16507842Y88355022D01*
X16499500Y88302352D01*
X14533270Y88302352D01*
X17396102Y91165181D01*
X17457425Y91198666D01*
X17483783Y91201500D01*
X28546542Y91201500D01*
X28565870Y91205345D01*
X28643188Y91220725D01*
X28739836Y91239949D01*
X28793165Y91262039D01*
X28921914Y91315368D01*
X29085782Y91424861D01*
X29225139Y91564218D01*
X29225139Y91564220D01*
X29235347Y91574427D01*
X29235348Y91574430D01*
X31997103Y94336182D01*
X32058426Y94369667D01*
X32084784Y94372501D01*
X40989043Y94372501D01*
X41056082Y94352816D01*
X41101837Y94300012D01*
X41111781Y94230854D01*
X41090618Y94177380D01*
X41083413Y94167089D01*
X41071895Y94150640D01*
X41027246Y94054889D01*
X40983652Y93961400D01*
X40979424Y93952334D01*
X40979420Y93952325D01*
X40922791Y93740982D01*
X40922791Y93740978D01*
X40911232Y93608851D01*
X40903721Y93523002D01*
X40917935Y93360526D01*
X40922791Y93305027D01*
X40922791Y93305023D01*
X40979420Y93093680D01*
X40979422Y93093676D01*
X40979423Y93093672D01*
X40981775Y93088629D01*
X41071895Y92895364D01*
X41071896Y92895363D01*
X41197400Y92716125D01*
X41347922Y92565603D01*
X41352122Y92561403D01*
X41456122Y92488582D01*
X41499747Y92434005D01*
X41508999Y92387007D01*
X41508999Y89708995D01*
X41489314Y89641956D01*
X41456123Y89607420D01*
X41352116Y89534594D01*
X41197400Y89379878D01*
X41071898Y89200642D01*
X41071896Y89200638D01*
X40979424Y89002331D01*
X40979420Y89002322D01*
X40922791Y88790979D01*
X40922791Y88790976D01*
X40921544Y88776727D01*
X40903721Y88573002D01*
X40903721Y88572997D01*
X40922791Y88355024D01*
X40922791Y88355020D01*
X40979420Y88143677D01*
X40979422Y88143673D01*
X40979423Y88143669D01*
X41023704Y88048709D01*
X41071895Y87945361D01*
X41071896Y87945360D01*
X41197400Y87766122D01*
X41282405Y87681117D01*
X41352122Y87611400D01*
X41456122Y87538579D01*
X41499747Y87484002D01*
X41508999Y87437004D01*
X41508999Y77658997D01*
X41489314Y77591958D01*
X41456123Y77557422D01*
X41352116Y77484596D01*
X41197400Y77329880D01*
X41071898Y77150644D01*
X41071896Y77150640D01*
X40979424Y76952333D01*
X40979420Y76952324D01*
X40922791Y76740981D01*
X40922791Y76740977D01*
X40903721Y76523004D01*
X40903721Y76522999D01*
X40922791Y76305026D01*
X40922791Y76305022D01*
X40979420Y76093679D01*
X40979422Y76093675D01*
X40979423Y76093671D01*
X41013230Y76021172D01*
X41071895Y75895363D01*
X41071896Y75895362D01*
X41197400Y75716124D01*
X41352121Y75561403D01*
X41443825Y75497191D01*
X41456122Y75488581D01*
X41499747Y75434004D01*
X41500176Y75431822D01*
X41508999Y75422999D01*
X41531533Y75422999D01*
X41583937Y75411382D01*
X41729668Y75343426D01*
X41941021Y75286794D01*
X42123924Y75270793D01*
X42158996Y75267724D01*
X42158998Y75267724D01*
X42159000Y75267724D01*
X42187252Y75270196D01*
X42376975Y75286794D01*
X42588328Y75343426D01*
X42734058Y75411382D01*
X42786463Y75422999D01*
X58309002Y75422999D01*
X58309002Y78056912D01*
X58328687Y78123951D01*
X58381491Y78169706D01*
X58392048Y78173954D01*
X58458516Y78197212D01*
X58611256Y78293185D01*
X58738810Y78420739D01*
X58834783Y78573479D01*
X58894362Y78743746D01*
X58894363Y78743752D01*
X58914559Y78922998D01*
X58914559Y78923005D01*
X58894363Y79102251D01*
X58894362Y79102256D01*
X58869518Y79173255D01*
X58834783Y79272523D01*
X58781683Y79357031D01*
X58762683Y79424267D01*
X58781683Y79488974D01*
X58834783Y79573480D01*
X58894362Y79743747D01*
X58894363Y79743753D01*
X58914559Y79922999D01*
X58914559Y79923006D01*
X58894363Y80102252D01*
X58894362Y80102257D01*
X58834783Y80272524D01*
X58738810Y80425264D01*
X58611256Y80552818D01*
X58458516Y80648791D01*
X58458514Y80648792D01*
X58392047Y80672050D01*
X58335271Y80712772D01*
X58309524Y80777725D01*
X58309002Y80789091D01*
X58309002Y81187010D01*
X58328687Y81254049D01*
X58361879Y81288585D01*
X58465872Y81361401D01*
X58620593Y81516122D01*
X58623045Y81519625D01*
X58677623Y81563248D01*
X58724619Y81572499D01*
X70984771Y81572499D01*
X71051810Y81552814D01*
X71072452Y81536180D01*
X82109886Y70498746D01*
X82143371Y70437423D01*
X82138387Y70367731D01*
X82096515Y70311798D01*
X82031051Y70287381D01*
X82008322Y70287845D01*
X81851003Y70305570D01*
X81850995Y70305570D01*
X81671749Y70285375D01*
X81671744Y70285374D01*
X81501475Y70225794D01*
X81348736Y70129821D01*
X81221183Y70002268D01*
X81125210Y69849529D01*
X81101950Y69783053D01*
X81061228Y69726277D01*
X80996276Y69700529D01*
X80984908Y69700007D01*
X71017090Y69700007D01*
X70950051Y69719692D01*
X70904296Y69772496D01*
X70900048Y69783053D01*
X70885092Y69825794D01*
X70876788Y69849527D01*
X70854264Y69885373D01*
X70780814Y70002268D01*
X70653261Y70129821D01*
X70500522Y70225794D01*
X70330253Y70285374D01*
X70330248Y70285375D01*
X70151003Y70305570D01*
X70150995Y70305570D01*
X69971749Y70285375D01*
X69971736Y70285372D01*
X69794905Y70223495D01*
X69794155Y70225639D01*
X69735838Y70216045D01*
X69707406Y70224396D01*
X69707092Y70223495D01*
X69530260Y70285372D01*
X69530247Y70285375D01*
X69351002Y70305570D01*
X69350994Y70305570D01*
X69171748Y70285375D01*
X69171743Y70285374D01*
X69001474Y70225794D01*
X68848735Y70129821D01*
X68721182Y70002268D01*
X68625209Y69849529D01*
X68601949Y69783053D01*
X68561227Y69726277D01*
X68496275Y69700529D01*
X68484907Y69700007D01*
X67117085Y69700007D01*
X67050046Y69719692D01*
X67004291Y69772496D01*
X67000043Y69783053D01*
X66985087Y69825794D01*
X66976783Y69849527D01*
X66954259Y69885373D01*
X66880809Y70002268D01*
X66753256Y70129821D01*
X66600517Y70225794D01*
X66430248Y70285374D01*
X66430243Y70285375D01*
X66250998Y70305570D01*
X66250990Y70305570D01*
X66071744Y70285375D01*
X66071739Y70285374D01*
X65901468Y70225793D01*
X65816966Y70172697D01*
X65749730Y70153697D01*
X65685024Y70172697D01*
X65600521Y70225793D01*
X65430250Y70285374D01*
X65430245Y70285375D01*
X65251000Y70305570D01*
X65250992Y70305570D01*
X65071746Y70285375D01*
X65071733Y70285372D01*
X64901475Y70225796D01*
X64816967Y70172696D01*
X64749730Y70153696D01*
X64685025Y70172696D01*
X64600516Y70225796D01*
X64430258Y70285372D01*
X64430245Y70285375D01*
X64251000Y70305570D01*
X64250992Y70305570D01*
X64071746Y70285375D01*
X64071741Y70285374D01*
X63901470Y70225793D01*
X63816968Y70172697D01*
X63749732Y70153697D01*
X63685026Y70172697D01*
X63600523Y70225793D01*
X63430252Y70285374D01*
X63430247Y70285375D01*
X63251002Y70305570D01*
X63250994Y70305570D01*
X63071748Y70285375D01*
X63071735Y70285372D01*
X62901479Y70225796D01*
X62901470Y70225792D01*
X62816968Y70172696D01*
X62749731Y70153696D01*
X62685025Y70172696D01*
X62600520Y70225794D01*
X62430251Y70285374D01*
X62430246Y70285375D01*
X62251001Y70305570D01*
X62250993Y70305570D01*
X62071747Y70285375D01*
X62071734Y70285372D01*
X61901476Y70225796D01*
X61816968Y70172696D01*
X61749731Y70153696D01*
X61685026Y70172696D01*
X61600517Y70225796D01*
X61430259Y70285372D01*
X61430246Y70285375D01*
X61251001Y70305570D01*
X61250993Y70305570D01*
X61071747Y70285375D01*
X61071742Y70285374D01*
X60901471Y70225793D01*
X60816969Y70172697D01*
X60749733Y70153697D01*
X60685027Y70172697D01*
X60600524Y70225793D01*
X60430253Y70285374D01*
X60430248Y70285375D01*
X60251003Y70305570D01*
X60250995Y70305570D01*
X60071749Y70285375D01*
X60071736Y70285372D01*
X59901480Y70225796D01*
X59901471Y70225792D01*
X59816969Y70172696D01*
X59749732Y70153696D01*
X59685026Y70172696D01*
X59600521Y70225794D01*
X59430252Y70285374D01*
X59430247Y70285375D01*
X59251002Y70305570D01*
X59250994Y70305570D01*
X59071748Y70285375D01*
X59071743Y70285374D01*
X58901474Y70225794D01*
X58748735Y70129821D01*
X58621182Y70002268D01*
X58525209Y69849529D01*
X58501949Y69783053D01*
X58461227Y69726277D01*
X58396275Y69700529D01*
X58384907Y69700007D01*
X53117093Y69700007D01*
X53050054Y69719692D01*
X53004299Y69772496D01*
X53000051Y69783053D01*
X52985095Y69825794D01*
X52976791Y69849527D01*
X52954267Y69885373D01*
X52880817Y70002268D01*
X52753264Y70129821D01*
X52600525Y70225794D01*
X52430256Y70285374D01*
X52430251Y70285375D01*
X52251006Y70305570D01*
X52250998Y70305570D01*
X52071752Y70285375D01*
X52071747Y70285374D01*
X51901478Y70225794D01*
X51748739Y70129821D01*
X51621186Y70002268D01*
X51525213Y69849529D01*
X51501953Y69783053D01*
X51461231Y69726277D01*
X51396279Y69700529D01*
X51384911Y69700007D01*
X46717092Y69700007D01*
X46650053Y69719692D01*
X46604298Y69772496D01*
X46600050Y69783053D01*
X46576789Y69849529D01*
X46515865Y69946489D01*
X46480816Y70002269D01*
X46353262Y70129823D01*
X46351002Y70131243D01*
X46200523Y70225796D01*
X46030254Y70285376D01*
X46030249Y70285377D01*
X45851004Y70305572D01*
X45850996Y70305572D01*
X45671750Y70285377D01*
X45671737Y70285374D01*
X45501481Y70225798D01*
X45501472Y70225794D01*
X45416970Y70172698D01*
X45349733Y70153698D01*
X45285027Y70172698D01*
X45200522Y70225796D01*
X45030253Y70285376D01*
X45030248Y70285377D01*
X44851003Y70305572D01*
X44850995Y70305572D01*
X44671749Y70285377D01*
X44671744Y70285376D01*
X44501475Y70225796D01*
X44348736Y70129823D01*
X44221183Y70002270D01*
X44125209Y69849529D01*
X44101949Y69783053D01*
X44061227Y69726277D01*
X43996275Y69700529D01*
X43984907Y69700007D01*
X42934033Y69700007D01*
X42866994Y69719692D01*
X42856721Y69727059D01*
X42853257Y69729822D01*
X42700519Y69825794D01*
X42530250Y69885374D01*
X42530245Y69885375D01*
X42351000Y69905570D01*
X42350992Y69905570D01*
X42171746Y69885375D01*
X42171741Y69885374D01*
X42001472Y69825794D01*
X41848733Y69729821D01*
X41721180Y69602268D01*
X41625207Y69449529D01*
X41565627Y69279260D01*
X41565626Y69279255D01*
X41545431Y69100009D01*
X41545431Y69100002D01*
X41565626Y68920756D01*
X41565627Y68920751D01*
X41625207Y68750482D01*
X41698453Y68633913D01*
X41721180Y68597743D01*
X41848734Y68470189D01*
X42001474Y68374216D01*
X42067954Y68350954D01*
X42124730Y68310232D01*
X42150477Y68245279D01*
X42150999Y68233912D01*
X42150999Y67566098D01*
X42131314Y67499059D01*
X42078510Y67453304D01*
X42067955Y67449057D01*
X42001472Y67425794D01*
X42001471Y67425793D01*
X41848733Y67329821D01*
X41721180Y67202268D01*
X41625207Y67049529D01*
X41565627Y66879260D01*
X41565626Y66879255D01*
X41545431Y66700009D01*
X41545431Y66700002D01*
X41565626Y66520756D01*
X41565627Y66520751D01*
X41625207Y66350482D01*
X41721180Y66197743D01*
X41731237Y66187686D01*
X41764722Y66126363D01*
X41759738Y66056671D01*
X41731237Y66012324D01*
X41721180Y66002268D01*
X41625207Y65849529D01*
X41565627Y65679260D01*
X41565626Y65679255D01*
X41545431Y65500009D01*
X41545431Y65500002D01*
X41565626Y65320756D01*
X41565627Y65320751D01*
X41625207Y65150482D01*
X41721180Y64997743D01*
X41731236Y64987687D01*
X41764721Y64926364D01*
X41759737Y64856672D01*
X41731236Y64812325D01*
X41721180Y64802270D01*
X41625207Y64649531D01*
X41565627Y64479262D01*
X41565626Y64479257D01*
X41545431Y64300011D01*
X41545431Y64300004D01*
X41565626Y64120758D01*
X41565627Y64120753D01*
X41625207Y63950484D01*
X41721180Y63797745D01*
X41731237Y63787688D01*
X41764722Y63726365D01*
X41759738Y63656673D01*
X41731237Y63612326D01*
X41721180Y63602270D01*
X41625207Y63449531D01*
X41565627Y63279262D01*
X41565626Y63279257D01*
X41545431Y63100011D01*
X41545431Y63100004D01*
X41565626Y62920758D01*
X41565627Y62920753D01*
X41625207Y62750484D01*
X41721180Y62597745D01*
X41731238Y62587687D01*
X41764723Y62526364D01*
X41759739Y62456672D01*
X41731244Y62412331D01*
X41721185Y62402271D01*
X41721182Y62402268D01*
X41625207Y62249526D01*
X41565627Y62079257D01*
X41565626Y62079252D01*
X41545431Y61900006D01*
X41545431Y61899999D01*
X41565626Y61720753D01*
X41565627Y61720748D01*
X41625207Y61550479D01*
X41721180Y61397740D01*
X41731237Y61387683D01*
X41764722Y61326360D01*
X41759738Y61256668D01*
X41731237Y61212321D01*
X41721180Y61202265D01*
X41625207Y61049526D01*
X41565627Y60879257D01*
X41565626Y60879252D01*
X41545431Y60700006D01*
X41545431Y60699999D01*
X41565626Y60520753D01*
X41565627Y60520748D01*
X41625207Y60350479D01*
X41721180Y60197740D01*
X41731235Y60187685D01*
X41764720Y60126362D01*
X41759736Y60056670D01*
X41731235Y60012323D01*
X41721178Y60002267D01*
X41625205Y59849528D01*
X41565625Y59679259D01*
X41565624Y59679254D01*
X41545429Y59500008D01*
X41545429Y59500001D01*
X41565624Y59320755D01*
X41565625Y59320750D01*
X41625205Y59150481D01*
X41721178Y58997742D01*
X41731236Y58987684D01*
X41764721Y58926361D01*
X41759737Y58856669D01*
X41731236Y58812322D01*
X41721180Y58802267D01*
X41625207Y58649528D01*
X41565627Y58479259D01*
X41565626Y58479254D01*
X41545431Y58300008D01*
X41545431Y58300001D01*
X41565626Y58120755D01*
X41565627Y58120750D01*
X41625207Y57950481D01*
X41721180Y57797742D01*
X41731237Y57787685D01*
X41764722Y57726362D01*
X41759738Y57656670D01*
X41731243Y57612329D01*
X41721183Y57602268D01*
X41721180Y57602265D01*
X41625205Y57449523D01*
X41565625Y57279254D01*
X41565624Y57279249D01*
X41545429Y57100003D01*
X41545429Y57099996D01*
X41565624Y56920750D01*
X41565625Y56920745D01*
X41625205Y56750476D01*
X41721178Y56597737D01*
X41731236Y56587679D01*
X41764721Y56526356D01*
X41759737Y56456664D01*
X41731242Y56412323D01*
X41721185Y56402265D01*
X41721182Y56402262D01*
X41625207Y56249520D01*
X41565627Y56079251D01*
X41565626Y56079246D01*
X41545431Y55900000D01*
X41545431Y55899993D01*
X41565626Y55720747D01*
X41565627Y55720742D01*
X41625207Y55550473D01*
X41721180Y55397734D01*
X41731233Y55387681D01*
X41764718Y55326358D01*
X41759734Y55256666D01*
X41731239Y55212325D01*
X41721185Y55202270D01*
X41721182Y55202267D01*
X41625207Y55049525D01*
X41565627Y54879256D01*
X41565626Y54879251D01*
X41545431Y54700005D01*
X41545431Y54699998D01*
X41565626Y54520752D01*
X41565627Y54520747D01*
X41625207Y54350478D01*
X41721180Y54197739D01*
X41731236Y54187683D01*
X41764721Y54126360D01*
X41759737Y54056668D01*
X41731236Y54012321D01*
X41721178Y54002264D01*
X41625205Y53849525D01*
X41565625Y53679256D01*
X41565624Y53679251D01*
X41545429Y53500005D01*
X41545429Y53499998D01*
X41565624Y53320752D01*
X41565625Y53320747D01*
X41625205Y53150478D01*
X41721178Y52997739D01*
X41731236Y52987681D01*
X41764721Y52926358D01*
X41759737Y52856666D01*
X41731242Y52812325D01*
X41721185Y52802267D01*
X41721182Y52802264D01*
X41625207Y52649522D01*
X41565627Y52479253D01*
X41565626Y52479248D01*
X41545431Y52300002D01*
X41545431Y52299995D01*
X41565626Y52120749D01*
X41565627Y52120744D01*
X41625207Y51950475D01*
X41721180Y51797736D01*
X41731236Y51787680D01*
X41764721Y51726357D01*
X41759737Y51656665D01*
X41731236Y51612318D01*
X41721178Y51602261D01*
X41625205Y51449522D01*
X41565625Y51279253D01*
X41565624Y51279248D01*
X41545429Y51100002D01*
X41545429Y51099995D01*
X41565624Y50920749D01*
X41565625Y50920744D01*
X41625205Y50750475D01*
X41721178Y50597736D01*
X41731233Y50587681D01*
X41764718Y50526358D01*
X41759734Y50456666D01*
X41731239Y50412325D01*
X41721185Y50402270D01*
X41721182Y50402267D01*
X41625207Y50249525D01*
X41565627Y50079256D01*
X41565626Y50079251D01*
X41545431Y49900005D01*
X41545431Y49899998D01*
X41565626Y49720752D01*
X41565627Y49720747D01*
X41625207Y49550478D01*
X41721180Y49397739D01*
X41731236Y49387683D01*
X41764721Y49326360D01*
X41759737Y49256668D01*
X41731242Y49212327D01*
X41721185Y49202269D01*
X41721182Y49202266D01*
X41625207Y49049524D01*
X41565627Y48879255D01*
X41565626Y48879251D01*
X41549734Y48738199D01*
X41522667Y48673785D01*
X41465072Y48634230D01*
X41395235Y48632093D01*
X41338833Y48664402D01*
X40873590Y49129645D01*
X40873588Y49129648D01*
X40754717Y49248519D01*
X40754709Y49248525D01*
X40652936Y49307283D01*
X40652934Y49307284D01*
X40617790Y49327575D01*
X40617789Y49327576D01*
X40605263Y49330933D01*
X40465057Y49368501D01*
X40349681Y49368501D01*
X40282642Y49388186D01*
X40236887Y49440990D01*
X40226943Y49510148D01*
X40244687Y49558473D01*
X40265821Y49592108D01*
X40286789Y49625478D01*
X40346368Y49795745D01*
X40350536Y49832735D01*
X40366565Y49974997D01*
X40366565Y49975004D01*
X40346369Y50154250D01*
X40346368Y50154255D01*
X40324148Y50217757D01*
X40286789Y50324522D01*
X40273807Y50345182D01*
X40237941Y50402263D01*
X40190816Y50477262D01*
X40063262Y50604816D01*
X40060358Y50606641D01*
X39910523Y50700789D01*
X39740254Y50760369D01*
X39740249Y50760370D01*
X39561004Y50780565D01*
X39560996Y50780565D01*
X39381750Y50760370D01*
X39381745Y50760369D01*
X39211476Y50700789D01*
X39058737Y50604816D01*
X38931184Y50477263D01*
X38835211Y50324524D01*
X38775631Y50154255D01*
X38775630Y50154250D01*
X38755435Y49975004D01*
X38755435Y49974997D01*
X38775630Y49795751D01*
X38775631Y49795746D01*
X38835211Y49625476D01*
X38877313Y49558473D01*
X38896314Y49491236D01*
X38875947Y49424401D01*
X38822679Y49379186D01*
X38772320Y49368500D01*
X37412412Y49368500D01*
X37345373Y49388185D01*
X37335097Y49395555D01*
X37332263Y49397815D01*
X37332262Y49397816D01*
X37218046Y49469583D01*
X37179523Y49493789D01*
X37009254Y49553369D01*
X37009249Y49553370D01*
X36830004Y49573565D01*
X36829996Y49573565D01*
X36650750Y49553370D01*
X36650745Y49553369D01*
X36480474Y49493788D01*
X36439775Y49468215D01*
X36372538Y49449215D01*
X36305703Y49469583D01*
X36260490Y49522852D01*
X36251253Y49592108D01*
X36280925Y49655364D01*
X36286107Y49660874D01*
X38118535Y51493302D01*
X38179856Y51526785D01*
X38192311Y51528837D01*
X38279255Y51538632D01*
X38449522Y51598211D01*
X38602262Y51694184D01*
X38729816Y51821738D01*
X38825789Y51974478D01*
X38885368Y52144745D01*
X38885369Y52144751D01*
X38905565Y52323997D01*
X38905565Y52324004D01*
X38885369Y52503250D01*
X38885368Y52503255D01*
X38851240Y52600787D01*
X38825789Y52673522D01*
X38729816Y52826262D01*
X38602262Y52953816D01*
X38449523Y53049789D01*
X38279254Y53109369D01*
X38279249Y53109370D01*
X38100004Y53129565D01*
X38099996Y53129565D01*
X37920750Y53109370D01*
X37920745Y53109369D01*
X37750476Y53049789D01*
X37597737Y52953816D01*
X37470184Y52826263D01*
X37374210Y52673522D01*
X37314630Y52503250D01*
X37304837Y52416332D01*
X37277770Y52351918D01*
X37269298Y52342535D01*
X35144520Y50217757D01*
X35083197Y50184272D01*
X35013505Y50189256D01*
X34957572Y50231128D01*
X34939797Y50264484D01*
X34918789Y50324522D01*
X34869941Y50402263D01*
X34822816Y50477262D01*
X34695262Y50604816D01*
X34692358Y50606641D01*
X34542524Y50700788D01*
X34542523Y50700789D01*
X34485478Y50720750D01*
X34476043Y50724052D01*
X34419269Y50764773D01*
X34393522Y50829726D01*
X34393000Y50841092D01*
X34393000Y51008906D01*
X34412685Y51075945D01*
X34465489Y51121700D01*
X34476046Y51125948D01*
X34483813Y51128666D01*
X34542522Y51149209D01*
X34695262Y51245182D01*
X34822816Y51372736D01*
X34918789Y51525476D01*
X34978368Y51695743D01*
X34978848Y51699999D01*
X34998565Y51874995D01*
X34998565Y51875002D01*
X34978369Y52054248D01*
X34978368Y52054253D01*
X34939155Y52166318D01*
X34918789Y52224520D01*
X34894390Y52263350D01*
X34856283Y52323997D01*
X34822816Y52377260D01*
X34695262Y52504814D01*
X34542523Y52600787D01*
X34372254Y52660367D01*
X34372249Y52660368D01*
X34193004Y52680563D01*
X34192996Y52680563D01*
X34013750Y52660368D01*
X34013745Y52660367D01*
X33843476Y52600787D01*
X33690736Y52504813D01*
X33687281Y52502057D01*
X33622595Y52475646D01*
X33609965Y52475001D01*
X26076035Y52475001D01*
X26008996Y52494686D01*
X25998719Y52502057D01*
X25995263Y52504813D01*
X25995262Y52504814D01*
X25938496Y52540483D01*
X25842523Y52600787D01*
X25672254Y52660367D01*
X25672249Y52660368D01*
X25493004Y52680563D01*
X25492996Y52680563D01*
X25313750Y52660368D01*
X25313745Y52660367D01*
X25143476Y52600787D01*
X24990737Y52504814D01*
X24863184Y52377261D01*
X24767211Y52224522D01*
X24707631Y52054253D01*
X24707630Y52054248D01*
X24687435Y51875002D01*
X24687435Y51874995D01*
X24707630Y51695749D01*
X24707633Y51695736D01*
X24767209Y51525479D01*
X24788893Y51490968D01*
X24807892Y51423731D01*
X24788893Y51359028D01*
X24767209Y51324518D01*
X24707633Y51154261D01*
X24707630Y51154248D01*
X24687435Y50975002D01*
X24687435Y50974995D01*
X24707630Y50795749D01*
X24707631Y50795744D01*
X24767211Y50625475D01*
X24850287Y50493261D01*
X24863184Y50472736D01*
X24990738Y50345182D01*
X25073212Y50293360D01*
X25143478Y50249209D01*
X25209954Y50225948D01*
X25266730Y50185226D01*
X25292478Y50120274D01*
X25293000Y50108906D01*
X25293000Y49492500D01*
X25273315Y49425461D01*
X25220511Y49379706D01*
X25169000Y49368500D01*
X22939057Y49368500D01*
X22780942Y49368500D01*
X22628215Y49327577D01*
X22628214Y49327577D01*
X22628212Y49327576D01*
X22628209Y49327575D01*
X22593066Y49307284D01*
X22593064Y49307283D01*
X22491290Y49248525D01*
X22491282Y49248519D01*
X22379478Y49136714D01*
X21571465Y48328702D01*
X21510142Y48295217D01*
X21497668Y48293163D01*
X21410750Y48283370D01*
X21235454Y48222032D01*
X21165675Y48218471D01*
X21105048Y48253200D01*
X21072821Y48315194D01*
X21070500Y48339074D01*
X21070500Y56930002D01*
X24737435Y56930002D01*
X24737435Y56929995D01*
X24757630Y56750749D01*
X24757633Y56750736D01*
X24817209Y56580479D01*
X24838893Y56545968D01*
X24857892Y56478731D01*
X24838893Y56414028D01*
X24817209Y56379518D01*
X24757633Y56209261D01*
X24757630Y56209248D01*
X24737435Y56030002D01*
X24737435Y56029995D01*
X24757630Y55850749D01*
X24757631Y55850744D01*
X24817211Y55680475D01*
X24884579Y55573261D01*
X24913184Y55527736D01*
X25040738Y55400182D01*
X25083425Y55373360D01*
X25193478Y55304209D01*
X25259954Y55280948D01*
X25316730Y55240226D01*
X25342478Y55175274D01*
X25343000Y55163906D01*
X25343000Y54429998D01*
X33659963Y54429998D01*
X33727002Y54410313D01*
X33737275Y54402946D01*
X33740738Y54400184D01*
X33819844Y54350478D01*
X33893478Y54304211D01*
X34019820Y54260002D01*
X34063745Y54244632D01*
X34063750Y54244631D01*
X34242996Y54224435D01*
X34243000Y54224435D01*
X34243004Y54224435D01*
X34422249Y54244631D01*
X34422252Y54244632D01*
X34422255Y54244632D01*
X34592522Y54304211D01*
X34745262Y54400184D01*
X34872816Y54527738D01*
X34968789Y54680478D01*
X35028368Y54850745D01*
X35028660Y54853334D01*
X35048565Y55029997D01*
X35048565Y55030004D01*
X35028369Y55209250D01*
X35028368Y55209255D01*
X35010595Y55260047D01*
X34968789Y55379522D01*
X34963662Y55387681D01*
X34875660Y55527736D01*
X34872816Y55532262D01*
X34745262Y55659816D01*
X34729957Y55669433D01*
X34592524Y55755788D01*
X34592523Y55755789D01*
X34526044Y55779051D01*
X34469269Y55819773D01*
X34443522Y55884726D01*
X34443000Y55896092D01*
X34443000Y56063906D01*
X34462685Y56130945D01*
X34515489Y56176700D01*
X34526046Y56180948D01*
X34533813Y56183666D01*
X34592522Y56204209D01*
X34745262Y56300182D01*
X34872816Y56427736D01*
X34968789Y56580476D01*
X34990319Y56642004D01*
X38310435Y56642004D01*
X38310435Y56641997D01*
X38330630Y56462751D01*
X38330631Y56462746D01*
X38390211Y56292477D01*
X38442505Y56209253D01*
X38486184Y56139738D01*
X38613738Y56012184D01*
X38766478Y55916211D01*
X38823975Y55896092D01*
X38936745Y55856632D01*
X38936750Y55856631D01*
X39115996Y55836435D01*
X39116000Y55836435D01*
X39116004Y55836435D01*
X39295249Y55856631D01*
X39295252Y55856632D01*
X39295255Y55856632D01*
X39465522Y55916211D01*
X39618262Y56012184D01*
X39745816Y56139738D01*
X39841789Y56292478D01*
X39901368Y56462745D01*
X39903312Y56479998D01*
X39921565Y56641997D01*
X39921565Y56642004D01*
X39901369Y56821250D01*
X39901368Y56821255D01*
X39841788Y56991524D01*
X39767817Y57109248D01*
X39745816Y57144262D01*
X39618262Y57271816D01*
X39465523Y57367789D01*
X39295254Y57427369D01*
X39295249Y57427370D01*
X39116004Y57447565D01*
X39115996Y57447565D01*
X38936750Y57427370D01*
X38936745Y57427369D01*
X38766476Y57367789D01*
X38613737Y57271816D01*
X38486184Y57144263D01*
X38390211Y56991524D01*
X38330631Y56821255D01*
X38330630Y56821250D01*
X38310435Y56642004D01*
X34990319Y56642004D01*
X35028368Y56750743D01*
X35036313Y56821255D01*
X35048565Y56929995D01*
X35048565Y56930002D01*
X35028369Y57109248D01*
X35028368Y57109253D01*
X34980347Y57246489D01*
X34968789Y57279520D01*
X34941384Y57323134D01*
X34896401Y57394725D01*
X34872816Y57432260D01*
X34745262Y57559814D01*
X34661685Y57612329D01*
X34592523Y57655787D01*
X34422254Y57715367D01*
X34422249Y57715368D01*
X34243004Y57735563D01*
X34242996Y57735563D01*
X34063750Y57715368D01*
X34063745Y57715367D01*
X33893476Y57655787D01*
X33740736Y57559813D01*
X33737281Y57557057D01*
X33672595Y57530646D01*
X33659965Y57530001D01*
X26126035Y57530001D01*
X26058996Y57549686D01*
X26048719Y57557057D01*
X26045263Y57559813D01*
X26045262Y57559814D01*
X25958685Y57614214D01*
X25892523Y57655787D01*
X25722254Y57715367D01*
X25722249Y57715368D01*
X25543004Y57735563D01*
X25542996Y57735563D01*
X25363750Y57715368D01*
X25363745Y57715367D01*
X25193476Y57655787D01*
X25040737Y57559814D01*
X24913184Y57432261D01*
X24817211Y57279522D01*
X24757631Y57109253D01*
X24757630Y57109248D01*
X24737435Y56930002D01*
X21070500Y56930002D01*
X21070500Y61214004D01*
X36024435Y61214004D01*
X36024435Y61213997D01*
X36044630Y61034751D01*
X36044631Y61034746D01*
X36104211Y60864477D01*
X36193496Y60722382D01*
X36200184Y60711738D01*
X36327738Y60584184D01*
X36480478Y60488211D01*
X36650745Y60428632D01*
X36650750Y60428631D01*
X36829996Y60408435D01*
X36830000Y60408435D01*
X36830004Y60408435D01*
X37009249Y60428631D01*
X37009252Y60428632D01*
X37009255Y60428632D01*
X37179522Y60488211D01*
X37332262Y60584184D01*
X37459816Y60711738D01*
X37555789Y60864478D01*
X37615368Y61034745D01*
X37616057Y61040861D01*
X37635565Y61213997D01*
X37635565Y61214004D01*
X37615369Y61393250D01*
X37615368Y61393255D01*
X37560353Y61550479D01*
X37555789Y61563522D01*
X37536036Y61594958D01*
X37459815Y61716263D01*
X37332262Y61843816D01*
X37179523Y61939789D01*
X37009254Y61999369D01*
X37009249Y61999370D01*
X36830004Y62019565D01*
X36829996Y62019565D01*
X36650750Y61999370D01*
X36650745Y61999369D01*
X36480476Y61939789D01*
X36327737Y61843816D01*
X36200184Y61716263D01*
X36104211Y61563524D01*
X36044631Y61393255D01*
X36044630Y61393250D01*
X36024435Y61214004D01*
X21070500Y61214004D01*
X21070500Y63100011D01*
X22816435Y63100011D01*
X22816435Y63100004D01*
X22836630Y62920758D01*
X22836631Y62920753D01*
X22896211Y62750484D01*
X22992184Y62597745D01*
X23119738Y62470191D01*
X23272478Y62374218D01*
X23359099Y62343908D01*
X23442745Y62314639D01*
X23442750Y62314638D01*
X23621996Y62294442D01*
X23622000Y62294442D01*
X23622004Y62294442D01*
X23801249Y62314638D01*
X23801252Y62314639D01*
X23801255Y62314639D01*
X23971522Y62374218D01*
X24124262Y62470191D01*
X24251816Y62597745D01*
X24347789Y62750485D01*
X24407368Y62920752D01*
X24407369Y62920758D01*
X24427565Y63100004D01*
X24427565Y63100011D01*
X24407369Y63279257D01*
X24407368Y63279262D01*
X24347788Y63449531D01*
X24265269Y63580859D01*
X24251816Y63602269D01*
X24124262Y63729823D01*
X24064669Y63767268D01*
X23971523Y63825796D01*
X23801254Y63885376D01*
X23801249Y63885377D01*
X23622004Y63905572D01*
X23621996Y63905572D01*
X23442750Y63885377D01*
X23442745Y63885376D01*
X23272476Y63825796D01*
X23119737Y63729823D01*
X22992184Y63602270D01*
X22896211Y63449531D01*
X22836631Y63279262D01*
X22836630Y63279257D01*
X22816435Y63100011D01*
X21070500Y63100011D01*
X21070500Y74930004D01*
X61678435Y74930004D01*
X61678435Y74929997D01*
X61698630Y74750751D01*
X61698631Y74750746D01*
X61758211Y74580477D01*
X61792816Y74525404D01*
X61854184Y74427738D01*
X61981738Y74300184D01*
X62134478Y74204211D01*
X62304745Y74144632D01*
X62304750Y74144631D01*
X62483996Y74124435D01*
X62484000Y74124435D01*
X62484004Y74124435D01*
X62663249Y74144631D01*
X62663252Y74144632D01*
X62663255Y74144632D01*
X62833522Y74204211D01*
X62986262Y74300184D01*
X63113816Y74427738D01*
X63209789Y74580478D01*
X63269368Y74750745D01*
X63273791Y74790000D01*
X63289565Y74929997D01*
X63289565Y74930004D01*
X63269369Y75109250D01*
X63269368Y75109255D01*
X63221036Y75247380D01*
X63209789Y75279522D01*
X63113816Y75432262D01*
X62986262Y75559816D01*
X62979753Y75563906D01*
X62833523Y75655789D01*
X62663254Y75715369D01*
X62663249Y75715370D01*
X62484004Y75735565D01*
X62483996Y75735565D01*
X62304750Y75715370D01*
X62304745Y75715369D01*
X62134476Y75655789D01*
X61981737Y75559816D01*
X61854184Y75432263D01*
X61758211Y75279524D01*
X61698631Y75109255D01*
X61698630Y75109250D01*
X61678435Y74930004D01*
X21070500Y74930004D01*
X21070500Y85489771D01*
X21090185Y85556810D01*
X21106815Y85577448D01*
X21644061Y86114695D01*
X21680134Y86137345D01*
X21679246Y86139189D01*
X21685518Y86142210D01*
X21685522Y86142211D01*
X21838262Y86238184D01*
X21965816Y86365738D01*
X22061789Y86518478D01*
X22121368Y86688745D01*
X22141565Y86868000D01*
X22134408Y86931523D01*
X22132254Y86950643D01*
X22144309Y87019465D01*
X22191658Y87070844D01*
X22259268Y87088468D01*
X22269357Y87087746D01*
X22351996Y87078435D01*
X22352000Y87078435D01*
X22352004Y87078435D01*
X22531249Y87098631D01*
X22531252Y87098632D01*
X22531255Y87098632D01*
X22701522Y87158211D01*
X22854262Y87254184D01*
X22981816Y87381738D01*
X23077789Y87534478D01*
X23137368Y87704745D01*
X23138477Y87714584D01*
X23157565Y87883997D01*
X23157565Y87884004D01*
X23137369Y88063250D01*
X23137368Y88063255D01*
X23090965Y88195866D01*
X23077789Y88233522D01*
X22981816Y88386262D01*
X22854262Y88513816D01*
X22823717Y88533009D01*
X22701523Y88609789D01*
X22531254Y88669369D01*
X22531249Y88669370D01*
X22352004Y88689565D01*
X22351996Y88689565D01*
X22172750Y88669370D01*
X22172745Y88669369D01*
X22092983Y88641458D01*
X22052028Y88634500D01*
X21217415Y88634500D01*
X21188581Y88628766D01*
X21188582Y88628765D01*
X21072431Y88605661D01*
X21072425Y88605659D01*
X21030113Y88588132D01*
X20935847Y88549086D01*
X20883062Y88513816D01*
X20812921Y88466951D01*
X20812918Y88466948D01*
X18975050Y86629081D01*
X18975044Y86629073D01*
X18925812Y86555393D01*
X18925813Y86555392D01*
X18892921Y86506165D01*
X18892914Y86506153D01*
X18836342Y86369575D01*
X18836340Y86369569D01*
X18807500Y86224582D01*
X18807500Y84562866D01*
X18787815Y84495827D01*
X18735011Y84450072D01*
X18665853Y84440128D01*
X18618081Y84458150D01*
X18618019Y84458033D01*
X18617164Y84458496D01*
X18615684Y84459054D01*
X18613519Y84460469D01*
X18394811Y84578828D01*
X18394802Y84578831D01*
X18159616Y84659571D01*
X17914335Y84700500D01*
X17665665Y84700500D01*
X17420383Y84659571D01*
X17185197Y84578831D01*
X17185188Y84578828D01*
X16966493Y84460476D01*
X16770257Y84307739D01*
X16601833Y84124783D01*
X16465826Y83916607D01*
X16365936Y83688882D01*
X16304892Y83447825D01*
X16304890Y83447813D01*
X16284357Y83200006D01*
X16284357Y83199995D01*
X16304890Y82952188D01*
X16304892Y82952176D01*
X16365936Y82711119D01*
X16465826Y82483394D01*
X16601833Y82275218D01*
X16601836Y82275215D01*
X16770256Y82092262D01*
X16966491Y81939526D01*
X17185190Y81821172D01*
X17420386Y81740429D01*
X17665665Y81699500D01*
X17914335Y81699500D01*
X18159614Y81740429D01*
X18394810Y81821172D01*
X18613509Y81939526D01*
X18613526Y81939540D01*
X18615661Y81940934D01*
X18616677Y81941241D01*
X18618019Y81941967D01*
X18618168Y81941692D01*
X18682548Y81961132D01*
X18749736Y81941963D01*
X18795895Y81889512D01*
X18807500Y81837136D01*
X18807500Y78762866D01*
X18787815Y78695827D01*
X18735011Y78650072D01*
X18665853Y78640128D01*
X18618081Y78658150D01*
X18618019Y78658033D01*
X18617164Y78658496D01*
X18615684Y78659054D01*
X18613519Y78660469D01*
X18394811Y78778828D01*
X18394802Y78778831D01*
X18159616Y78859571D01*
X17914335Y78900500D01*
X17665665Y78900500D01*
X17420383Y78859571D01*
X17185197Y78778831D01*
X17185188Y78778828D01*
X16966493Y78660476D01*
X16770257Y78507739D01*
X16601833Y78324783D01*
X16465826Y78116607D01*
X16365936Y77888882D01*
X16304892Y77647825D01*
X16304890Y77647813D01*
X16284357Y77400006D01*
X16284357Y77399995D01*
X16304890Y77152188D01*
X16304892Y77152176D01*
X16365936Y76911119D01*
X16465826Y76683394D01*
X16601833Y76475218D01*
X16601836Y76475215D01*
X16770256Y76292262D01*
X16966491Y76139526D01*
X16966493Y76139525D01*
X17184332Y76021636D01*
X17185190Y76021172D01*
X17404141Y75946006D01*
X17418964Y75940917D01*
X17420386Y75940429D01*
X17665665Y75899500D01*
X17914335Y75899500D01*
X18159614Y75940429D01*
X18394810Y76021172D01*
X18613509Y76139526D01*
X18613526Y76139540D01*
X18615661Y76140934D01*
X18616677Y76141241D01*
X18618019Y76141967D01*
X18618168Y76141692D01*
X18682548Y76161132D01*
X18749736Y76141963D01*
X18795895Y76089512D01*
X18807500Y76037136D01*
X18807500Y70613360D01*
X18787815Y70546321D01*
X18735011Y70500566D01*
X18665853Y70490622D01*
X18612378Y70511784D01*
X18493861Y70594769D01*
X18442734Y70630568D01*
X18442732Y70630569D01*
X18236497Y70726739D01*
X18236488Y70726742D01*
X18016697Y70785634D01*
X18016693Y70785635D01*
X18016692Y70785635D01*
X18016691Y70785636D01*
X18016686Y70785636D01*
X17790002Y70805468D01*
X17789998Y70805468D01*
X17563313Y70785636D01*
X17563302Y70785634D01*
X17343511Y70726742D01*
X17343502Y70726739D01*
X17137267Y70630569D01*
X17137265Y70630568D01*
X16950858Y70500046D01*
X16789954Y70339142D01*
X16659432Y70152735D01*
X16659431Y70152733D01*
X16632382Y70094725D01*
X16586209Y70042286D01*
X16519016Y70023134D01*
X16452135Y70043350D01*
X16407618Y70094725D01*
X16380568Y70152734D01*
X16267500Y70314214D01*
X16250045Y70339142D01*
X16089141Y70500046D01*
X15902734Y70630568D01*
X15902732Y70630569D01*
X15696497Y70726739D01*
X15696488Y70726742D01*
X15476697Y70785634D01*
X15476693Y70785635D01*
X15476692Y70785635D01*
X15476691Y70785636D01*
X15476686Y70785636D01*
X15250002Y70805468D01*
X15249998Y70805468D01*
X15023313Y70785636D01*
X15023302Y70785634D01*
X14803511Y70726742D01*
X14803502Y70726739D01*
X14597267Y70630569D01*
X14597265Y70630568D01*
X14410858Y70500046D01*
X14249954Y70339142D01*
X14119432Y70152735D01*
X14119431Y70152733D01*
X14023261Y69946498D01*
X14023258Y69946489D01*
X13964366Y69726698D01*
X13964364Y69726687D01*
X13944532Y69500002D01*
X13944532Y69499999D01*
X13964364Y69273314D01*
X13964366Y69273303D01*
X14023258Y69053512D01*
X14023261Y69053503D01*
X14119431Y68847268D01*
X14119432Y68847266D01*
X14249954Y68660859D01*
X14410858Y68499955D01*
X14410861Y68499953D01*
X14597266Y68369432D01*
X14655275Y68342382D01*
X14707714Y68296209D01*
X14726866Y68229016D01*
X14706650Y68162135D01*
X14655275Y68117618D01*
X14597267Y68090569D01*
X14597265Y68090568D01*
X14410858Y67960046D01*
X14249954Y67799142D01*
X14119432Y67612735D01*
X14119431Y67612733D01*
X14023261Y67406498D01*
X14023258Y67406489D01*
X13964366Y67186698D01*
X13964364Y67186687D01*
X13944532Y66960002D01*
X13944532Y66959999D01*
X13964364Y66733314D01*
X13964366Y66733303D01*
X14023258Y66513512D01*
X14023261Y66513503D01*
X14119431Y66307268D01*
X14119432Y66307266D01*
X14249954Y66120859D01*
X14410858Y65959955D01*
X14410861Y65959953D01*
X14597266Y65829432D01*
X14654681Y65802659D01*
X14655275Y65802382D01*
X14707714Y65756209D01*
X14726866Y65689016D01*
X14706650Y65622135D01*
X14655275Y65577618D01*
X14597267Y65550569D01*
X14597265Y65550568D01*
X14410858Y65420046D01*
X14249954Y65259142D01*
X14119432Y65072735D01*
X14119431Y65072733D01*
X14023261Y64866498D01*
X14023258Y64866489D01*
X13964366Y64646698D01*
X13964364Y64646687D01*
X13944532Y64420002D01*
X13944532Y64419999D01*
X13964364Y64193314D01*
X13964366Y64193303D01*
X14023258Y63973512D01*
X14023261Y63973503D01*
X14119431Y63767268D01*
X14119432Y63767266D01*
X14249954Y63580859D01*
X14410858Y63419955D01*
X14410861Y63419953D01*
X14597266Y63289432D01*
X14655275Y63262382D01*
X14707714Y63216209D01*
X14726866Y63149016D01*
X14706650Y63082135D01*
X14655275Y63037618D01*
X14597267Y63010569D01*
X14597265Y63010568D01*
X14410860Y62880047D01*
X14249954Y62719142D01*
X14119432Y62532735D01*
X14119431Y62532733D01*
X14023261Y62326498D01*
X14023258Y62326489D01*
X13964366Y62106698D01*
X13964364Y62106687D01*
X13944532Y61880002D01*
X13944532Y61879999D01*
X13964364Y61653314D01*
X13964366Y61653303D01*
X14023258Y61433512D01*
X14023261Y61433503D01*
X14119431Y61227268D01*
X14119432Y61227266D01*
X14249954Y61040859D01*
X14410858Y60879955D01*
X14410861Y60879953D01*
X14597266Y60749432D01*
X14655275Y60722382D01*
X14707714Y60676209D01*
X14726866Y60609016D01*
X14706650Y60542135D01*
X14655275Y60497618D01*
X14597267Y60470569D01*
X14597265Y60470568D01*
X14410858Y60340046D01*
X14249954Y60179142D01*
X14119432Y59992735D01*
X14119431Y59992733D01*
X14023261Y59786498D01*
X14023258Y59786489D01*
X13964366Y59566698D01*
X13964364Y59566687D01*
X13944532Y59340002D01*
X13944532Y59339999D01*
X13964364Y59113314D01*
X13964366Y59113303D01*
X14023258Y58893512D01*
X14023261Y58893503D01*
X14119431Y58687268D01*
X14119432Y58687266D01*
X14249954Y58500859D01*
X14410858Y58339955D01*
X14437242Y58321481D01*
X14597266Y58209432D01*
X14655275Y58182382D01*
X14707714Y58136209D01*
X14726866Y58069016D01*
X14706650Y58002135D01*
X14655275Y57957618D01*
X14597267Y57930569D01*
X14597265Y57930568D01*
X14410858Y57800046D01*
X14249954Y57639142D01*
X14119432Y57452735D01*
X14119431Y57452733D01*
X14023261Y57246498D01*
X14023258Y57246489D01*
X13964366Y57026698D01*
X13964364Y57026687D01*
X13944532Y56800002D01*
X13944532Y56799999D01*
X13964364Y56573314D01*
X13964366Y56573303D01*
X14023258Y56353512D01*
X14023261Y56353503D01*
X14119431Y56147268D01*
X14119432Y56147266D01*
X14249954Y55960859D01*
X14410858Y55799955D01*
X14410861Y55799953D01*
X14597266Y55669432D01*
X14655275Y55642382D01*
X14707714Y55596209D01*
X14726866Y55529016D01*
X14706650Y55462135D01*
X14655275Y55417618D01*
X14597267Y55390569D01*
X14597265Y55390568D01*
X14410858Y55260046D01*
X14249954Y55099142D01*
X14119432Y54912735D01*
X14119431Y54912733D01*
X14023261Y54706498D01*
X14023258Y54706489D01*
X13964366Y54486698D01*
X13964364Y54486687D01*
X13944532Y54260002D01*
X13944532Y54259999D01*
X13964364Y54033314D01*
X13964366Y54033303D01*
X14023258Y53813512D01*
X14023261Y53813503D01*
X14119431Y53607268D01*
X14119432Y53607266D01*
X14249954Y53420859D01*
X14410858Y53259955D01*
X14410861Y53259953D01*
X14597266Y53129432D01*
X14655275Y53102382D01*
X14707714Y53056209D01*
X14726866Y52989016D01*
X14706650Y52922135D01*
X14655275Y52877618D01*
X14597267Y52850569D01*
X14597265Y52850568D01*
X14410858Y52720046D01*
X14249954Y52559142D01*
X14119432Y52372735D01*
X14119431Y52372733D01*
X14023261Y52166498D01*
X14023258Y52166489D01*
X13964366Y51946698D01*
X13964364Y51946687D01*
X13944532Y51720002D01*
X13944532Y51719999D01*
X13964364Y51493314D01*
X13964366Y51493303D01*
X14023258Y51273512D01*
X14023261Y51273503D01*
X14119431Y51067268D01*
X14119432Y51067266D01*
X14249954Y50880859D01*
X14410858Y50719955D01*
X14410861Y50719953D01*
X14597266Y50589432D01*
X14654681Y50562659D01*
X14655275Y50562382D01*
X14707714Y50516209D01*
X14726866Y50449016D01*
X14706650Y50382135D01*
X14655275Y50337618D01*
X14597267Y50310569D01*
X14597265Y50310568D01*
X14410858Y50180046D01*
X14249954Y50019142D01*
X14119432Y49832735D01*
X14119431Y49832733D01*
X14023261Y49626498D01*
X14023258Y49626489D01*
X13964366Y49406698D01*
X13964364Y49406687D01*
X13944532Y49180002D01*
X13944532Y49179999D01*
X13964364Y48953314D01*
X13964366Y48953303D01*
X14023258Y48733512D01*
X14023261Y48733503D01*
X14119431Y48527268D01*
X14119432Y48527266D01*
X14249954Y48340859D01*
X14410858Y48179955D01*
X14410861Y48179953D01*
X14597266Y48049432D01*
X14650336Y48024685D01*
X14655275Y48022382D01*
X14707714Y47976209D01*
X14726866Y47909016D01*
X14706650Y47842135D01*
X14655275Y47797618D01*
X14597267Y47770569D01*
X14597265Y47770568D01*
X14410858Y47640046D01*
X14249954Y47479142D01*
X14119432Y47292735D01*
X14119431Y47292733D01*
X14023261Y47086498D01*
X14023258Y47086489D01*
X13964366Y46866698D01*
X13964364Y46866687D01*
X13944532Y46640002D01*
X13944532Y46639999D01*
X13964364Y46413314D01*
X13964366Y46413303D01*
X14023258Y46193512D01*
X14023261Y46193503D01*
X14119431Y45987268D01*
X14119432Y45987266D01*
X14249954Y45800859D01*
X14410858Y45639955D01*
X14410861Y45639953D01*
X14597266Y45509432D01*
X14655275Y45482382D01*
X14707714Y45436209D01*
X14726866Y45369016D01*
X14706650Y45302135D01*
X14655275Y45257618D01*
X14597267Y45230569D01*
X14597265Y45230568D01*
X14410858Y45100046D01*
X14249954Y44939142D01*
X14119432Y44752735D01*
X14119431Y44752733D01*
X14023261Y44546498D01*
X14023258Y44546489D01*
X13964366Y44326698D01*
X13964364Y44326687D01*
X13944532Y44100002D01*
X13944532Y44099999D01*
X13964364Y43873314D01*
X13964366Y43873303D01*
X14023258Y43653512D01*
X14023261Y43653503D01*
X14119431Y43447268D01*
X14119432Y43447266D01*
X14249954Y43260859D01*
X14410858Y43099955D01*
X14410861Y43099953D01*
X14597266Y42969432D01*
X14654681Y42942659D01*
X14655275Y42942382D01*
X14707714Y42896209D01*
X14726866Y42829016D01*
X14706650Y42762135D01*
X14655275Y42717618D01*
X14597267Y42690569D01*
X14597265Y42690568D01*
X14410858Y42560046D01*
X14249954Y42399142D01*
X14119432Y42212735D01*
X14119431Y42212733D01*
X14023261Y42006498D01*
X14023258Y42006489D01*
X13964366Y41786698D01*
X13964364Y41786687D01*
X13944532Y41560002D01*
X13944532Y41559999D01*
X13964364Y41333314D01*
X13964366Y41333303D01*
X14023258Y41113512D01*
X14023261Y41113503D01*
X14119431Y40907268D01*
X14119432Y40907266D01*
X14249954Y40720859D01*
X14410858Y40559955D01*
X14410861Y40559953D01*
X14597266Y40429432D01*
X14615887Y40420749D01*
X14655275Y40402382D01*
X14707714Y40356209D01*
X14726866Y40289016D01*
X14706650Y40222135D01*
X14655275Y40177618D01*
X14597267Y40150569D01*
X14597265Y40150568D01*
X14410858Y40020046D01*
X14249954Y39859142D01*
X14119432Y39672735D01*
X14119431Y39672733D01*
X14023261Y39466498D01*
X14023258Y39466489D01*
X13964366Y39246698D01*
X13964364Y39246687D01*
X13944532Y39020002D01*
X13944532Y39019999D01*
X13964364Y38793314D01*
X13964366Y38793303D01*
X14023258Y38573512D01*
X14023261Y38573503D01*
X14119431Y38367268D01*
X14119432Y38367266D01*
X14249954Y38180859D01*
X14410858Y38019955D01*
X14410861Y38019953D01*
X14597266Y37889432D01*
X14655275Y37862382D01*
X14707714Y37816209D01*
X14726866Y37749016D01*
X14706650Y37682135D01*
X14655275Y37637618D01*
X14597267Y37610569D01*
X14597265Y37610568D01*
X14410858Y37480046D01*
X14249954Y37319142D01*
X14119432Y37132735D01*
X14119431Y37132733D01*
X14023261Y36926498D01*
X14023258Y36926489D01*
X13964366Y36706698D01*
X13964364Y36706687D01*
X13944532Y36480002D01*
X13944532Y36479999D01*
X13964364Y36253314D01*
X13964366Y36253303D01*
X14023258Y36033512D01*
X14023261Y36033503D01*
X14119431Y35827268D01*
X14119432Y35827266D01*
X14249954Y35640859D01*
X14410858Y35479955D01*
X14410861Y35479953D01*
X14597266Y35349432D01*
X14655865Y35322107D01*
X14708305Y35275935D01*
X14727457Y35208742D01*
X14707242Y35141861D01*
X14655867Y35097343D01*
X14597513Y35070132D01*
X14597512Y35070132D01*
X14524526Y35019027D01*
X14524526Y35019026D01*
X15079765Y34463788D01*
X15037708Y34452518D01*
X14912292Y34380110D01*
X14809890Y34277708D01*
X14737482Y34152292D01*
X14726212Y34110236D01*
X14170974Y34665474D01*
X14170973Y34665474D01*
X14119868Y34592488D01*
X14119866Y34592484D01*
X14023734Y34386327D01*
X14023730Y34386318D01*
X13964860Y34166611D01*
X13964858Y34166600D01*
X13945034Y33940003D01*
X13945034Y33939998D01*
X13964858Y33713401D01*
X13964860Y33713390D01*
X14023730Y33493683D01*
X14023735Y33493669D01*
X14119863Y33287522D01*
X14170974Y33214528D01*
X14726212Y33769766D01*
X14737482Y33727708D01*
X14809890Y33602292D01*
X14912292Y33499890D01*
X15037708Y33427482D01*
X15079765Y33416213D01*
X14524526Y32860975D01*
X14597513Y32809868D01*
X14597521Y32809864D01*
X14655864Y32782658D01*
X14708304Y32736486D01*
X14727456Y32669293D01*
X14707241Y32602411D01*
X14655866Y32557895D01*
X14597272Y32530572D01*
X14597265Y32530568D01*
X14410858Y32400046D01*
X14249954Y32239142D01*
X14119432Y32052735D01*
X14119431Y32052733D01*
X14023261Y31846498D01*
X14023258Y31846489D01*
X13964366Y31626698D01*
X13964364Y31626687D01*
X13944532Y31400002D01*
X13944532Y31399999D01*
X13964364Y31173314D01*
X13964366Y31173303D01*
X14023258Y30953512D01*
X14023261Y30953503D01*
X14119431Y30747268D01*
X14119432Y30747266D01*
X14249954Y30560859D01*
X14410858Y30399955D01*
X14410861Y30399953D01*
X14597266Y30269432D01*
X14655275Y30242382D01*
X14707714Y30196209D01*
X14726866Y30129016D01*
X14706650Y30062135D01*
X14655275Y30017618D01*
X14597267Y29990569D01*
X14597265Y29990568D01*
X14410858Y29860046D01*
X14249954Y29699142D01*
X14119432Y29512735D01*
X14119431Y29512733D01*
X14023261Y29306498D01*
X14023258Y29306489D01*
X13964366Y29086698D01*
X13964364Y29086687D01*
X13944532Y28860002D01*
X13944532Y28859999D01*
X13964364Y28633314D01*
X13964366Y28633303D01*
X14023258Y28413512D01*
X14023261Y28413503D01*
X14119431Y28207268D01*
X14119432Y28207266D01*
X14249954Y28020859D01*
X14410858Y27859955D01*
X14410861Y27859953D01*
X14597266Y27729432D01*
X14654681Y27702659D01*
X14655275Y27702382D01*
X14707714Y27656209D01*
X14726866Y27589016D01*
X14706650Y27522135D01*
X14655275Y27477618D01*
X14597267Y27450569D01*
X14597265Y27450568D01*
X14410858Y27320046D01*
X14249954Y27159142D01*
X14119432Y26972735D01*
X14119431Y26972733D01*
X14023261Y26766498D01*
X14023258Y26766489D01*
X13964366Y26546698D01*
X13964364Y26546687D01*
X13944532Y26320002D01*
X13944532Y26319999D01*
X13964364Y26093314D01*
X13964366Y26093303D01*
X14023258Y25873512D01*
X14023261Y25873503D01*
X14119431Y25667268D01*
X14119432Y25667266D01*
X14249954Y25480859D01*
X14410858Y25319955D01*
X14410861Y25319953D01*
X14597266Y25189432D01*
X14655275Y25162382D01*
X14707714Y25116209D01*
X14726866Y25049016D01*
X14706650Y24982135D01*
X14655275Y24937618D01*
X14597267Y24910569D01*
X14597265Y24910568D01*
X14410858Y24780046D01*
X14249954Y24619142D01*
X14119432Y24432735D01*
X14119431Y24432733D01*
X14023261Y24226498D01*
X14023258Y24226489D01*
X13964366Y24006698D01*
X13964364Y24006687D01*
X13944532Y23780002D01*
X13944532Y23779999D01*
X13964364Y23553314D01*
X13964366Y23553303D01*
X14023258Y23333512D01*
X14023261Y23333503D01*
X14119431Y23127268D01*
X14119432Y23127266D01*
X14249954Y22940859D01*
X14410858Y22779955D01*
X14410861Y22779953D01*
X14597266Y22649432D01*
X14803504Y22553261D01*
X15023308Y22494365D01*
X15185230Y22480199D01*
X15249998Y22474532D01*
X15250000Y22474532D01*
X15250002Y22474532D01*
X15306673Y22479491D01*
X15476692Y22494365D01*
X15696496Y22553261D01*
X15902734Y22649432D01*
X16089139Y22779953D01*
X16250047Y22940861D01*
X16380568Y23127266D01*
X16407618Y23185276D01*
X16453790Y23237715D01*
X16520983Y23256867D01*
X16587865Y23236652D01*
X16632382Y23185275D01*
X16659429Y23127272D01*
X16659432Y23127266D01*
X16789954Y22940859D01*
X16950858Y22779955D01*
X16950861Y22779953D01*
X17137266Y22649432D01*
X17343504Y22553261D01*
X17563308Y22494365D01*
X17725230Y22480199D01*
X17789998Y22474532D01*
X17790000Y22474532D01*
X17790002Y22474532D01*
X17846673Y22479491D01*
X18016692Y22494365D01*
X18236496Y22553261D01*
X18442734Y22649432D01*
X18629139Y22779953D01*
X18790047Y22940861D01*
X18807486Y22965766D01*
X95319500Y22965766D01*
X95319500Y22814234D01*
X95339109Y22741050D01*
X95358719Y22667864D01*
X95369361Y22649432D01*
X95434485Y22536635D01*
X95541635Y22429485D01*
X95672865Y22353719D01*
X95819234Y22314500D01*
X95819236Y22314500D01*
X95970764Y22314500D01*
X95970766Y22314500D01*
X96117135Y22353719D01*
X96248365Y22429485D01*
X96355515Y22536635D01*
X96431281Y22667865D01*
X96470500Y22814234D01*
X96470500Y22965766D01*
X96431281Y23112135D01*
X96355515Y23243365D01*
X96248365Y23350515D01*
X96182750Y23388398D01*
X96117136Y23426281D01*
X96043950Y23445891D01*
X95970766Y23465500D01*
X95819234Y23465500D01*
X95672863Y23426281D01*
X95541635Y23350515D01*
X95541632Y23350513D01*
X95434487Y23243368D01*
X95434485Y23243365D01*
X95358719Y23112137D01*
X95319500Y22965766D01*
X18807486Y22965766D01*
X18920568Y23127266D01*
X19016739Y23333504D01*
X19075635Y23553308D01*
X19095468Y23780000D01*
X19075635Y24006692D01*
X19016739Y24226496D01*
X18920568Y24432734D01*
X18790047Y24619139D01*
X18790045Y24619142D01*
X18629141Y24780046D01*
X18442734Y24910568D01*
X18442728Y24910571D01*
X18384725Y24937618D01*
X18332285Y24983790D01*
X18313133Y25050983D01*
X18333348Y25117865D01*
X18384725Y25162382D01*
X18442734Y25189432D01*
X18629139Y25319953D01*
X18790047Y25480861D01*
X18920568Y25667266D01*
X19016739Y25873504D01*
X19075635Y26093308D01*
X19095468Y26320000D01*
X19075635Y26546692D01*
X19016739Y26766496D01*
X18920568Y26972734D01*
X18790047Y27159139D01*
X18790045Y27159142D01*
X18629141Y27320046D01*
X18442734Y27450568D01*
X18442728Y27450571D01*
X18384725Y27477618D01*
X18332285Y27523790D01*
X18313133Y27590983D01*
X18333348Y27657865D01*
X18384725Y27702382D01*
X18385319Y27702659D01*
X18442734Y27729432D01*
X18629139Y27859953D01*
X18790047Y28020861D01*
X18920568Y28207266D01*
X19016739Y28413504D01*
X19075635Y28633308D01*
X19095468Y28860000D01*
X19075635Y29086692D01*
X19016739Y29306496D01*
X18920568Y29512734D01*
X18790047Y29699139D01*
X18790045Y29699142D01*
X18629141Y29860046D01*
X18442734Y29990568D01*
X18442728Y29990571D01*
X18384725Y30017618D01*
X18332285Y30063790D01*
X18313133Y30130983D01*
X18333348Y30197865D01*
X18384725Y30242382D01*
X18442734Y30269432D01*
X18629139Y30399953D01*
X18790047Y30560861D01*
X18920568Y30747266D01*
X19016739Y30953504D01*
X19075635Y31173308D01*
X19095468Y31400000D01*
X19091626Y31443909D01*
X19086917Y31497741D01*
X19075635Y31626692D01*
X19016739Y31846496D01*
X18920568Y32052734D01*
X18790047Y32239139D01*
X18790045Y32239142D01*
X18629141Y32400046D01*
X18442734Y32530568D01*
X18442728Y32530571D01*
X18384725Y32557618D01*
X18332285Y32603790D01*
X18313133Y32670983D01*
X18333348Y32737865D01*
X18384725Y32782382D01*
X18385319Y32782659D01*
X18442734Y32809432D01*
X18629139Y32939953D01*
X18790047Y33100861D01*
X18875694Y33223180D01*
X18930266Y33266802D01*
X18999765Y33273996D01*
X19062120Y33242474D01*
X19064947Y33239735D01*
X21899636Y30405046D01*
X21907256Y30399955D01*
X21973320Y30355814D01*
X22022555Y30322916D01*
X22022556Y30322916D01*
X22022557Y30322915D01*
X22022559Y30322914D01*
X22151677Y30269432D01*
X22159137Y30266342D01*
X22159141Y30266342D01*
X22159142Y30266341D01*
X22304129Y30237500D01*
X22304132Y30237500D01*
X22304133Y30237500D01*
X22451967Y30237500D01*
X34461820Y30237500D01*
X34528859Y30217815D01*
X34549501Y30201181D01*
X41141630Y23609052D01*
X41141634Y23609049D01*
X41264548Y23526920D01*
X41264561Y23526913D01*
X41401132Y23470344D01*
X41401137Y23470342D01*
X41401141Y23470342D01*
X41401142Y23470341D01*
X41546129Y23441500D01*
X41546132Y23441500D01*
X64141175Y23441500D01*
X64261826Y23465500D01*
X64286168Y23470342D01*
X64422750Y23526916D01*
X64471984Y23559814D01*
X64545671Y23609048D01*
X67833946Y26897324D01*
X67867539Y26947602D01*
X67921148Y26992404D01*
X67984523Y27001929D01*
X68039186Y26995770D01*
X68050995Y26994439D01*
X68050996Y26994439D01*
X68051000Y26994439D01*
X68230245Y27014635D01*
X68230247Y27014636D01*
X68230251Y27014636D01*
X68230254Y27014638D01*
X68230258Y27014638D01*
X68407091Y27076515D01*
X68407843Y27074364D01*
X68466107Y27083972D01*
X68494581Y27075612D01*
X68494899Y27076518D01*
X68671739Y27014639D01*
X68671744Y27014638D01*
X68850990Y26994442D01*
X68850994Y26994442D01*
X68850998Y26994442D01*
X69030243Y27014638D01*
X69030245Y27014639D01*
X69030249Y27014639D01*
X69030252Y27014641D01*
X69030256Y27014641D01*
X69207089Y27076518D01*
X69207841Y27074367D01*
X69266104Y27083974D01*
X69294585Y27075615D01*
X69294901Y27076517D01*
X69471732Y27014641D01*
X69471738Y27014640D01*
X69471740Y27014639D01*
X69471741Y27014639D01*
X69471745Y27014638D01*
X69650991Y26994442D01*
X69650995Y26994442D01*
X69650999Y26994442D01*
X69830244Y27014638D01*
X69830246Y27014639D01*
X69830250Y27014639D01*
X69830253Y27014641D01*
X69830257Y27014641D01*
X70007090Y27076518D01*
X70007842Y27074367D01*
X70066105Y27083974D01*
X70094586Y27075615D01*
X70094902Y27076517D01*
X70271733Y27014641D01*
X70271739Y27014640D01*
X70271741Y27014639D01*
X70271742Y27014639D01*
X70271746Y27014638D01*
X70450992Y26994442D01*
X70450996Y26994442D01*
X70451000Y26994442D01*
X70630245Y27014638D01*
X70630248Y27014639D01*
X70630251Y27014639D01*
X70800518Y27074218D01*
X70800518Y27074219D01*
X70807091Y27076518D01*
X70807845Y27074362D01*
X70866088Y27083974D01*
X70894582Y27075609D01*
X70894900Y27076515D01*
X71071740Y27014636D01*
X71071745Y27014635D01*
X71250991Y26994439D01*
X71250995Y26994439D01*
X71250999Y26994439D01*
X71430244Y27014635D01*
X71430246Y27014636D01*
X71430250Y27014636D01*
X71430253Y27014638D01*
X71430257Y27014638D01*
X71607090Y27076515D01*
X71607842Y27074364D01*
X71666105Y27083971D01*
X71694586Y27075612D01*
X71694902Y27076514D01*
X71871733Y27014638D01*
X71871739Y27014637D01*
X71871741Y27014636D01*
X71871742Y27014636D01*
X71871746Y27014635D01*
X72050992Y26994439D01*
X72050996Y26994439D01*
X72051000Y26994439D01*
X72230245Y27014635D01*
X72230247Y27014636D01*
X72230251Y27014636D01*
X72230254Y27014638D01*
X72230258Y27014638D01*
X72407091Y27076515D01*
X72407842Y27074367D01*
X72466124Y27083969D01*
X72494584Y27075612D01*
X72494901Y27076515D01*
X72671733Y27014638D01*
X72671739Y27014637D01*
X72671741Y27014636D01*
X72671742Y27014636D01*
X72671746Y27014635D01*
X72850992Y26994439D01*
X72850996Y26994439D01*
X72851000Y26994439D01*
X73030245Y27014635D01*
X73030247Y27014636D01*
X73030251Y27014636D01*
X73030254Y27014638D01*
X73030258Y27014638D01*
X73207091Y27076515D01*
X73207843Y27074366D01*
X73266123Y27083968D01*
X73294580Y27075612D01*
X73294897Y27076515D01*
X73471729Y27014638D01*
X73471735Y27014637D01*
X73471737Y27014636D01*
X73471738Y27014636D01*
X73471742Y27014635D01*
X73650988Y26994439D01*
X73650992Y26994439D01*
X73650996Y26994439D01*
X73830241Y27014635D01*
X73830243Y27014636D01*
X73830247Y27014636D01*
X73830250Y27014638D01*
X73830254Y27014638D01*
X74007087Y27076515D01*
X74007839Y27074365D01*
X74066105Y27083974D01*
X74094584Y27075613D01*
X74094901Y27076518D01*
X74271733Y27014641D01*
X74271739Y27014640D01*
X74271741Y27014639D01*
X74271742Y27014639D01*
X74271746Y27014638D01*
X74450992Y26994442D01*
X74450996Y26994442D01*
X74451000Y26994442D01*
X74630245Y27014638D01*
X74630247Y27014639D01*
X74630251Y27014639D01*
X74630254Y27014641D01*
X74630258Y27014641D01*
X74807091Y27076518D01*
X74807843Y27074367D01*
X74866106Y27083974D01*
X74894587Y27075615D01*
X74894903Y27076517D01*
X75071734Y27014641D01*
X75071740Y27014640D01*
X75071742Y27014639D01*
X75071743Y27014639D01*
X75071747Y27014638D01*
X75250993Y26994442D01*
X75250997Y26994442D01*
X75251001Y26994442D01*
X75430246Y27014638D01*
X75430248Y27014639D01*
X75430252Y27014639D01*
X75430255Y27014641D01*
X75430259Y27014641D01*
X75607092Y27076518D01*
X75607846Y27074363D01*
X75666088Y27083973D01*
X75694583Y27075611D01*
X75694900Y27076515D01*
X75871740Y27014636D01*
X75871745Y27014635D01*
X76050991Y26994439D01*
X76050995Y26994439D01*
X76050999Y26994439D01*
X76230244Y27014635D01*
X76230246Y27014636D01*
X76230250Y27014636D01*
X76230253Y27014638D01*
X76230257Y27014638D01*
X76407090Y27076515D01*
X76407842Y27074364D01*
X76466105Y27083971D01*
X76494586Y27075612D01*
X76494902Y27076514D01*
X76671733Y27014638D01*
X76671739Y27014637D01*
X76671741Y27014636D01*
X76671742Y27014636D01*
X76671746Y27014635D01*
X76850992Y26994439D01*
X76850996Y26994439D01*
X76851000Y26994439D01*
X77030245Y27014635D01*
X77030247Y27014636D01*
X77030251Y27014636D01*
X77030254Y27014638D01*
X77030258Y27014638D01*
X77207091Y27076515D01*
X77207843Y27074364D01*
X77266106Y27083971D01*
X77294587Y27075612D01*
X77294903Y27076514D01*
X77471734Y27014638D01*
X77471740Y27014637D01*
X77471742Y27014636D01*
X77471743Y27014636D01*
X77471747Y27014635D01*
X77650993Y26994439D01*
X77650997Y26994439D01*
X77651001Y26994439D01*
X77830246Y27014635D01*
X77830249Y27014636D01*
X77830252Y27014636D01*
X78000519Y27074215D01*
X78000519Y27074216D01*
X78007092Y27076515D01*
X78007845Y27074363D01*
X78066107Y27083970D01*
X78094582Y27075609D01*
X78094900Y27076515D01*
X78271740Y27014636D01*
X78271745Y27014635D01*
X78450991Y26994439D01*
X78450995Y26994439D01*
X78450999Y26994439D01*
X78630244Y27014635D01*
X78630246Y27014636D01*
X78630250Y27014636D01*
X78630253Y27014638D01*
X78630257Y27014638D01*
X78807090Y27076515D01*
X78807842Y27074364D01*
X78866105Y27083971D01*
X78894586Y27075612D01*
X78894902Y27076514D01*
X79071733Y27014638D01*
X79071739Y27014637D01*
X79071741Y27014636D01*
X79071742Y27014636D01*
X79071746Y27014635D01*
X79250992Y26994439D01*
X79250996Y26994439D01*
X79251000Y26994439D01*
X79430245Y27014635D01*
X79430248Y27014636D01*
X79430251Y27014636D01*
X79600518Y27074215D01*
X79753258Y27170188D01*
X79880812Y27297742D01*
X79976785Y27450482D01*
X80000046Y27516960D01*
X80040768Y27573735D01*
X80105720Y27599483D01*
X80117088Y27600005D01*
X80984907Y27600005D01*
X81051946Y27580320D01*
X81097701Y27527516D01*
X81101948Y27516960D01*
X81125208Y27450486D01*
X81125210Y27450482D01*
X81221183Y27297742D01*
X81348737Y27170188D01*
X81439079Y27113422D01*
X81501470Y27074219D01*
X81501477Y27074215D01*
X81671730Y27014641D01*
X81671744Y27014636D01*
X81671749Y27014635D01*
X81850995Y26994439D01*
X81850999Y26994439D01*
X81851003Y26994439D01*
X82030248Y27014635D01*
X82030251Y27014636D01*
X82030254Y27014636D01*
X82200521Y27074215D01*
X82353261Y27170188D01*
X82480815Y27297742D01*
X82576788Y27450482D01*
X82636367Y27620749D01*
X82638877Y27643024D01*
X82656564Y27800001D01*
X82656564Y27800008D01*
X82636368Y27979254D01*
X82636365Y27979267D01*
X82574489Y28156098D01*
X82576634Y28156849D01*
X82567038Y28215147D01*
X82575392Y28243592D01*
X82574490Y28243907D01*
X82636367Y28420740D01*
X82636370Y28420753D01*
X82656566Y28599999D01*
X82656566Y28600006D01*
X82636370Y28779252D01*
X82636367Y28779265D01*
X82574491Y28956096D01*
X82576636Y28956847D01*
X82567038Y29015147D01*
X82575394Y29043592D01*
X82574490Y29043908D01*
X82636367Y29220741D01*
X82636370Y29220754D01*
X82656566Y29400000D01*
X82656566Y29400007D01*
X82636370Y29579253D01*
X82636369Y29579258D01*
X82574490Y29756098D01*
X82576636Y29756850D01*
X82567038Y29815149D01*
X82575391Y29843592D01*
X82574488Y29843907D01*
X82636365Y30020740D01*
X82636368Y30020753D01*
X82656564Y30199999D01*
X82656564Y30200006D01*
X82636368Y30379252D01*
X82636365Y30379265D01*
X82574489Y30556096D01*
X82576634Y30556847D01*
X82567036Y30615147D01*
X82575392Y30643592D01*
X82574488Y30643908D01*
X82636365Y30820741D01*
X82636368Y30820754D01*
X82656564Y31000000D01*
X82656564Y31000007D01*
X82636368Y31179253D01*
X82636365Y31179266D01*
X82574489Y31356097D01*
X82576634Y31356848D01*
X82567036Y31415148D01*
X82575392Y31443593D01*
X82574488Y31443909D01*
X82636365Y31620742D01*
X82636368Y31620755D01*
X82656564Y31800001D01*
X82656564Y31800008D01*
X82636368Y31979254D01*
X82636367Y31979259D01*
X82574488Y32156099D01*
X82576640Y32156853D01*
X82567033Y32215114D01*
X82575394Y32243590D01*
X82574488Y32243907D01*
X82629123Y32400046D01*
X82636367Y32420747D01*
X82642103Y32471657D01*
X82656564Y32599999D01*
X82656564Y32600006D01*
X82636368Y32779252D01*
X82636367Y32779257D01*
X82574488Y32956097D01*
X82576634Y32956849D01*
X82567038Y33015146D01*
X82575393Y33043592D01*
X82574490Y33043908D01*
X82629111Y33200007D01*
X82636369Y33220748D01*
X82636643Y33223176D01*
X82656566Y33400000D01*
X82656566Y33400007D01*
X82636370Y33579253D01*
X82636367Y33579266D01*
X82574491Y33756097D01*
X82576639Y33756849D01*
X82567036Y33815130D01*
X82575394Y33843589D01*
X82574488Y33843906D01*
X82608114Y33940003D01*
X82636367Y34020746D01*
X82647633Y34120736D01*
X82656564Y34199998D01*
X82656564Y34200005D01*
X82636368Y34379251D01*
X82636365Y34379264D01*
X82574489Y34556095D01*
X82576634Y34556846D01*
X82567036Y34615146D01*
X82575392Y34643591D01*
X82574488Y34643907D01*
X82636365Y34820740D01*
X82636368Y34820753D01*
X82656564Y34999999D01*
X82656564Y35000006D01*
X82636368Y35179252D01*
X82636365Y35179265D01*
X82574489Y35356096D01*
X82576634Y35356847D01*
X82567036Y35415147D01*
X82575392Y35443592D01*
X82574488Y35443908D01*
X82636365Y35620741D01*
X82636368Y35620754D01*
X82656564Y35800000D01*
X82656564Y35800007D01*
X82636368Y35979253D01*
X82636365Y35979266D01*
X82574489Y36156097D01*
X82576634Y36156848D01*
X82567036Y36215148D01*
X82575392Y36243593D01*
X82574488Y36243909D01*
X82636365Y36420742D01*
X82636368Y36420755D01*
X82656564Y36600001D01*
X82656564Y36600008D01*
X82636368Y36779254D01*
X82636365Y36779267D01*
X82574488Y36956099D01*
X82576636Y36956851D01*
X82567034Y37015132D01*
X82575392Y37043592D01*
X82574488Y37043908D01*
X82636365Y37220741D01*
X82636368Y37220754D01*
X82656564Y37400000D01*
X82656564Y37400007D01*
X82636368Y37579253D01*
X82636365Y37579266D01*
X82574489Y37756097D01*
X82576634Y37756848D01*
X82567036Y37815148D01*
X82575392Y37843593D01*
X82574488Y37843909D01*
X82636365Y38020742D01*
X82636368Y38020755D01*
X82656564Y38200001D01*
X82656564Y38200008D01*
X82636368Y38379254D01*
X82636367Y38379259D01*
X82574488Y38556099D01*
X82576634Y38556851D01*
X82567038Y38615148D01*
X82575393Y38643594D01*
X82574490Y38643910D01*
X82626765Y38793303D01*
X82636369Y38820750D01*
X82656566Y39000005D01*
X82654313Y39019999D01*
X82636370Y39179255D01*
X82636367Y39179268D01*
X82574490Y39356100D01*
X82576638Y39356852D01*
X82567036Y39415133D01*
X82575393Y39443594D01*
X82574490Y39443910D01*
X82636367Y39620743D01*
X82636370Y39620756D01*
X82656566Y39800002D01*
X82656566Y39800009D01*
X82636370Y39979255D01*
X82636369Y39979260D01*
X82574490Y40156100D01*
X82576636Y40156852D01*
X82567038Y40215151D01*
X82575391Y40243594D01*
X82574488Y40243909D01*
X82636365Y40420742D01*
X82636368Y40420755D01*
X82656564Y40600001D01*
X82656564Y40600008D01*
X82636368Y40779254D01*
X82636365Y40779267D01*
X82574489Y40956098D01*
X82576634Y40956849D01*
X82567036Y41015149D01*
X82575392Y41043594D01*
X82574488Y41043910D01*
X82636365Y41220743D01*
X82636368Y41220756D01*
X82656564Y41400002D01*
X82656564Y41400009D01*
X82636368Y41579255D01*
X82636367Y41579260D01*
X82574488Y41756100D01*
X82576640Y41756854D01*
X82567033Y41815115D01*
X82575394Y41843591D01*
X82574488Y41843908D01*
X82585303Y41874816D01*
X82636367Y42020748D01*
X82643396Y42083134D01*
X82656564Y42200000D01*
X82656564Y42200007D01*
X82636368Y42379253D01*
X82636365Y42379266D01*
X82574489Y42556097D01*
X82576634Y42556848D01*
X82567036Y42615148D01*
X82575392Y42643593D01*
X82574488Y42643909D01*
X82636365Y42820742D01*
X82636368Y42820755D01*
X82656564Y43000001D01*
X82656564Y43000008D01*
X82636368Y43179254D01*
X82636365Y43179267D01*
X82574488Y43356099D01*
X82576637Y43356852D01*
X82567035Y43415131D01*
X82575394Y43443592D01*
X82574490Y43443908D01*
X82636367Y43620741D01*
X82636370Y43620754D01*
X82656566Y43800000D01*
X82656566Y43800007D01*
X82636370Y43979253D01*
X82636367Y43979266D01*
X82574491Y44156097D01*
X82576638Y44156849D01*
X82567035Y44215131D01*
X82575391Y44243593D01*
X82574488Y44243909D01*
X82636365Y44420742D01*
X82636368Y44420755D01*
X82648113Y44524998D01*
X90550006Y44524998D01*
X90550006Y28199996D01*
X100675003Y28199996D01*
X100675004Y28199996D01*
X100700006Y28224997D01*
X100700006Y44574998D01*
X99275007Y45999996D01*
X91975006Y45999996D01*
X90550006Y44524998D01*
X82648113Y44524998D01*
X82656564Y44600001D01*
X82656564Y44600008D01*
X82636368Y44779254D01*
X82636365Y44779267D01*
X82574488Y44956099D01*
X82576636Y44956851D01*
X82567034Y45015132D01*
X82575391Y45043593D01*
X82574488Y45043909D01*
X82636365Y45220742D01*
X82636368Y45220755D01*
X82656564Y45400001D01*
X82656564Y45400008D01*
X82636368Y45579254D01*
X82636367Y45579259D01*
X82615129Y45639953D01*
X82576788Y45749526D01*
X82480815Y45902266D01*
X82353261Y46029820D01*
X82200521Y46125793D01*
X82200519Y46125794D01*
X82134043Y46149055D01*
X82077267Y46189777D01*
X82051520Y46254729D01*
X82050998Y46266096D01*
X82050998Y50033912D01*
X82070683Y50100951D01*
X82123487Y50146706D01*
X82134044Y50150954D01*
X82200521Y50174215D01*
X82353261Y50270188D01*
X82480815Y50397742D01*
X82576788Y50550482D01*
X82636367Y50720749D01*
X82637471Y50730543D01*
X82656564Y50900001D01*
X82656564Y50900008D01*
X82636368Y51079254D01*
X82636365Y51079267D01*
X82574489Y51256098D01*
X82576634Y51256849D01*
X82567036Y51315149D01*
X82575392Y51343594D01*
X82574488Y51343910D01*
X82636365Y51520743D01*
X82636368Y51520756D01*
X82649734Y51639386D01*
X82676800Y51703800D01*
X82734395Y51743355D01*
X82772954Y51749503D01*
X83053923Y51749503D01*
X83151465Y51768907D01*
X83198916Y51778345D01*
X83335498Y51834919D01*
X83401859Y51879260D01*
X83458419Y51917051D01*
X85906061Y54364695D01*
X85942134Y54387345D01*
X85941246Y54389189D01*
X85947518Y54392210D01*
X85947522Y54392211D01*
X86100262Y54488184D01*
X86227816Y54615738D01*
X86323789Y54768478D01*
X86383368Y54938745D01*
X86393650Y55030000D01*
X86403565Y55117997D01*
X86403565Y55118004D01*
X86383369Y55297250D01*
X86383368Y55297255D01*
X86356738Y55373360D01*
X86323789Y55467522D01*
X86227816Y55620262D01*
X86100262Y55747816D01*
X86035966Y55788216D01*
X85947523Y55843789D01*
X85777254Y55903369D01*
X85777250Y55903370D01*
X85708208Y55911149D01*
X85643794Y55938216D01*
X85604240Y55995812D01*
X85602103Y56065649D01*
X85634410Y56122048D01*
X87430061Y57917699D01*
X87466134Y57940349D01*
X87465246Y57942193D01*
X87471518Y57945214D01*
X87471522Y57945215D01*
X87624262Y58041188D01*
X87751816Y58168742D01*
X87847789Y58321482D01*
X87907368Y58491749D01*
X87907369Y58491755D01*
X87927565Y58671001D01*
X87927565Y58671008D01*
X87907368Y58850257D01*
X87907368Y58850259D01*
X87879458Y58930022D01*
X87872500Y58970976D01*
X87872500Y70939921D01*
X87855957Y71023083D01*
X87855957Y71023088D01*
X87843660Y71084905D01*
X87843659Y71084912D01*
X87789408Y71215883D01*
X87787765Y71220475D01*
X87787084Y71221495D01*
X87754186Y71270730D01*
X87754185Y71270732D01*
X87704956Y71344411D01*
X87704952Y71344416D01*
X85114819Y73934549D01*
X85081334Y73995872D01*
X85078500Y74022230D01*
X85078500Y74290001D01*
X86005341Y74290001D01*
X86005341Y74290000D01*
X86025936Y74054597D01*
X86025938Y74054587D01*
X86087094Y73826345D01*
X86087096Y73826341D01*
X86087097Y73826337D01*
X86167004Y73654977D01*
X86186965Y73612170D01*
X86186967Y73612166D01*
X86295281Y73457479D01*
X86322505Y73418599D01*
X86489599Y73251505D01*
X86566135Y73197914D01*
X86683165Y73115968D01*
X86683167Y73115967D01*
X86683170Y73115965D01*
X86897337Y73016097D01*
X87125592Y72954937D01*
X87296319Y72940000D01*
X87360999Y72934341D01*
X87361000Y72934341D01*
X87361001Y72934341D01*
X87425681Y72940000D01*
X87596408Y72954937D01*
X87824663Y73016097D01*
X88038830Y73115965D01*
X88232401Y73251505D01*
X88399495Y73418599D01*
X88529425Y73604158D01*
X88584002Y73647783D01*
X88653500Y73654977D01*
X88715855Y73623454D01*
X88732575Y73604158D01*
X88862500Y73418605D01*
X88862505Y73418599D01*
X89029599Y73251505D01*
X89106135Y73197914D01*
X89223165Y73115968D01*
X89223167Y73115967D01*
X89223170Y73115965D01*
X89437337Y73016097D01*
X89665592Y72954937D01*
X89836319Y72940000D01*
X89900999Y72934341D01*
X89901000Y72934341D01*
X89901001Y72934341D01*
X89965681Y72940000D01*
X90136408Y72954937D01*
X90364663Y73016097D01*
X90578830Y73115965D01*
X90772401Y73251505D01*
X90894717Y73373822D01*
X90956036Y73407304D01*
X91025728Y73402320D01*
X91081662Y73360449D01*
X91098577Y73329472D01*
X91147646Y73197912D01*
X91147649Y73197907D01*
X91233809Y73082813D01*
X91233812Y73082810D01*
X91348906Y72996650D01*
X91348913Y72996646D01*
X91483620Y72946404D01*
X91483627Y72946402D01*
X91543155Y72940001D01*
X91543172Y72940000D01*
X92191000Y72940000D01*
X92191000Y73856988D01*
X92248007Y73824075D01*
X92375174Y73790000D01*
X92506826Y73790000D01*
X92633993Y73824075D01*
X92691000Y73856988D01*
X92691000Y72940000D01*
X93338828Y72940000D01*
X93338844Y72940001D01*
X93398372Y72946402D01*
X93398379Y72946404D01*
X93533086Y72996646D01*
X93533093Y72996650D01*
X93648187Y73082810D01*
X93648190Y73082813D01*
X93734350Y73197907D01*
X93734354Y73197914D01*
X93784596Y73332621D01*
X93784598Y73332628D01*
X93790999Y73392156D01*
X93791000Y73392173D01*
X93791000Y74040000D01*
X92874012Y74040000D01*
X92906925Y74097007D01*
X92941000Y74224174D01*
X92941000Y74355826D01*
X92906925Y74482993D01*
X92874012Y74540000D01*
X93791000Y74540000D01*
X93791000Y75187828D01*
X93790999Y75187845D01*
X93784598Y75247373D01*
X93784596Y75247380D01*
X93734354Y75382087D01*
X93734350Y75382094D01*
X93648190Y75497188D01*
X93648187Y75497191D01*
X93533093Y75583351D01*
X93533086Y75583355D01*
X93398379Y75633597D01*
X93398372Y75633599D01*
X93338844Y75640000D01*
X92691000Y75640000D01*
X92691000Y74723012D01*
X92633993Y74755925D01*
X92506826Y74790000D01*
X92375174Y74790000D01*
X92248007Y74755925D01*
X92191000Y74723012D01*
X92191000Y75640000D01*
X91543155Y75640000D01*
X91483627Y75633599D01*
X91483620Y75633597D01*
X91348913Y75583355D01*
X91348906Y75583351D01*
X91233812Y75497191D01*
X91233809Y75497188D01*
X91147649Y75382094D01*
X91147645Y75382087D01*
X91098578Y75250530D01*
X91056707Y75194596D01*
X90991242Y75170179D01*
X90922969Y75185031D01*
X90894715Y75206181D01*
X90850366Y75250530D01*
X90772401Y75328495D01*
X90772397Y75328498D01*
X90772396Y75328499D01*
X90578834Y75464033D01*
X90578830Y75464035D01*
X90507727Y75497191D01*
X90364663Y75563903D01*
X90364659Y75563904D01*
X90364655Y75563906D01*
X90136413Y75625062D01*
X90136403Y75625064D01*
X89901001Y75645659D01*
X89900999Y75645659D01*
X89665596Y75625064D01*
X89665586Y75625062D01*
X89437344Y75563906D01*
X89437337Y75563904D01*
X89437337Y75563903D01*
X89423816Y75557599D01*
X89223171Y75464036D01*
X89223169Y75464035D01*
X89029597Y75328495D01*
X88862505Y75161403D01*
X88732575Y74975842D01*
X88677998Y74932217D01*
X88608500Y74925023D01*
X88546145Y74956546D01*
X88529425Y74975842D01*
X88399494Y75161403D01*
X88232402Y75328494D01*
X88232395Y75328499D01*
X88038834Y75464033D01*
X88038830Y75464035D01*
X87967727Y75497191D01*
X87824663Y75563903D01*
X87824659Y75563904D01*
X87824655Y75563906D01*
X87596413Y75625062D01*
X87596403Y75625064D01*
X87361001Y75645659D01*
X87360999Y75645659D01*
X87125596Y75625064D01*
X87125586Y75625062D01*
X86897344Y75563906D01*
X86897337Y75563904D01*
X86897337Y75563903D01*
X86883816Y75557599D01*
X86683171Y75464036D01*
X86683169Y75464035D01*
X86489597Y75328495D01*
X86322505Y75161403D01*
X86186965Y74967831D01*
X86186964Y74967829D01*
X86087098Y74753665D01*
X86087094Y74753656D01*
X86025938Y74525414D01*
X86025936Y74525404D01*
X86005341Y74290001D01*
X85078500Y74290001D01*
X85078500Y74567771D01*
X85098185Y74634810D01*
X85114819Y74655452D01*
X87142548Y76683181D01*
X87203871Y76716666D01*
X87230229Y76719500D01*
X93426028Y76719500D01*
X93466983Y76712542D01*
X93546745Y76684632D01*
X93546750Y76684631D01*
X93725996Y76664435D01*
X93726000Y76664435D01*
X93726004Y76664435D01*
X93905249Y76684631D01*
X93905252Y76684632D01*
X93905255Y76684632D01*
X94075522Y76744211D01*
X94228262Y76840184D01*
X94355816Y76967738D01*
X94451789Y77120478D01*
X94511368Y77290745D01*
X94515355Y77326131D01*
X94531565Y77469997D01*
X94531565Y77470004D01*
X94511369Y77649250D01*
X94511368Y77649255D01*
X94507959Y77658997D01*
X94451789Y77819522D01*
X94355816Y77972262D01*
X94228262Y78099816D01*
X94201920Y78116368D01*
X94075523Y78195789D01*
X93905254Y78255369D01*
X93905249Y78255370D01*
X93726004Y78275565D01*
X93725996Y78275565D01*
X93546750Y78255370D01*
X93546745Y78255369D01*
X93466983Y78227458D01*
X93426028Y78220500D01*
X86794080Y78220500D01*
X86649092Y78191660D01*
X86649082Y78191657D01*
X86512511Y78135088D01*
X86512498Y78135081D01*
X86389584Y78052952D01*
X86389580Y78052949D01*
X84019937Y75683307D01*
X83983873Y75660630D01*
X83984750Y75658809D01*
X83978475Y75655788D01*
X83825739Y75559817D01*
X83745325Y75479403D01*
X83684001Y75445919D01*
X83614310Y75450903D01*
X83569963Y75479404D01*
X80959933Y78089435D01*
X80926448Y78150758D01*
X80931432Y78220450D01*
X80973304Y78276383D01*
X80981642Y78282110D01*
X80999269Y78293186D01*
X81112262Y78364184D01*
X81239816Y78491738D01*
X81335789Y78644478D01*
X81395368Y78814745D01*
X81404974Y78900000D01*
X81415565Y78993997D01*
X81415565Y78994004D01*
X81395369Y79173250D01*
X81395368Y79173255D01*
X81367458Y79253018D01*
X81335789Y79343522D01*
X81239816Y79496262D01*
X81112262Y79623816D01*
X80959523Y79719789D01*
X80789254Y79779369D01*
X80789249Y79779370D01*
X80610004Y79799565D01*
X80609996Y79799565D01*
X80430750Y79779370D01*
X80430745Y79779369D01*
X80260476Y79719789D01*
X80107737Y79623816D01*
X79980185Y79496264D01*
X79973493Y79485613D01*
X79921158Y79439323D01*
X79852104Y79428676D01*
X79788256Y79457052D01*
X79749885Y79515442D01*
X79744500Y79551587D01*
X79744500Y96411771D01*
X79764185Y96478810D01*
X79780819Y96499452D01*
X83078548Y99797181D01*
X83139871Y99830666D01*
X83166229Y99833500D01*
X86277770Y99833500D01*
X86344809Y99813815D01*
X86365451Y99797181D01*
X86648692Y99513940D01*
X86671356Y99477871D01*
X86673188Y99478753D01*
X86676207Y99472484D01*
X86772184Y99319738D01*
X86899738Y99192184D01*
X87052478Y99096211D01*
X87222745Y99036632D01*
X87222750Y99036631D01*
X87401996Y99016435D01*
X87402000Y99016435D01*
X87402004Y99016435D01*
X87581249Y99036631D01*
X87581252Y99036632D01*
X87581255Y99036632D01*
X87751522Y99096211D01*
X87904262Y99192184D01*
X88031816Y99319738D01*
X88127789Y99472478D01*
X88187368Y99642745D01*
X88207565Y99822000D01*
X88206269Y99833500D01*
X88187369Y100001250D01*
X88187368Y100001255D01*
X88127788Y100171524D01*
X88031815Y100324263D01*
X87904262Y100451816D01*
X87751516Y100547793D01*
X87745247Y100550812D01*
X87746129Y100552644D01*
X87710060Y100575308D01*
X87118421Y101166948D01*
X87118414Y101166954D01*
X87044729Y101216188D01*
X87044729Y101216187D01*
X86995491Y101249087D01*
X86858917Y101305657D01*
X86858907Y101305660D01*
X86713920Y101334500D01*
X86713918Y101334500D01*
X82730082Y101334500D01*
X82730076Y101334500D01*
X82701242Y101328766D01*
X82701243Y101328765D01*
X82585093Y101305661D01*
X82585083Y101305658D01*
X82505081Y101272521D01*
X82505082Y101272520D01*
X82448505Y101249085D01*
X82366372Y101194205D01*
X82325585Y101166953D01*
X82325581Y101166950D01*
X78411050Y97252420D01*
X78411044Y97252412D01*
X78361812Y97178732D01*
X78361813Y97178731D01*
X78328921Y97129504D01*
X78328914Y97129492D01*
X78272342Y96992914D01*
X78272340Y96992908D01*
X78243500Y96847921D01*
X78243500Y83969940D01*
X78223815Y83902901D01*
X78171011Y83857146D01*
X78101853Y83847202D01*
X78038297Y83876227D01*
X78031819Y83882259D01*
X77972262Y83941816D01*
X77819523Y84037789D01*
X77649254Y84097369D01*
X77649249Y84097370D01*
X77470004Y84117565D01*
X77469996Y84117565D01*
X77290750Y84097370D01*
X77290745Y84097369D01*
X77120476Y84037789D01*
X76967737Y83941816D01*
X76840184Y83814263D01*
X76744211Y83661524D01*
X76684631Y83491255D01*
X76684630Y83491250D01*
X76664435Y83312004D01*
X76664435Y83311997D01*
X76684630Y83132751D01*
X76684631Y83132746D01*
X76744211Y82962477D01*
X76750682Y82952179D01*
X76840184Y82809738D01*
X76967738Y82682184D01*
X77120478Y82586211D01*
X77290745Y82526632D01*
X77290750Y82526631D01*
X77469996Y82506435D01*
X77470000Y82506435D01*
X77470004Y82506435D01*
X77649249Y82526631D01*
X77649252Y82526632D01*
X77649255Y82526632D01*
X77819522Y82586211D01*
X77972262Y82682184D01*
X78031819Y82741741D01*
X78093142Y82775226D01*
X78162834Y82770242D01*
X78218767Y82728370D01*
X78243184Y82662906D01*
X78243500Y82654060D01*
X78243500Y79293972D01*
X78236542Y79253018D01*
X78208631Y79173253D01*
X78188435Y78994004D01*
X78188435Y78993996D01*
X78201970Y78873863D01*
X78189915Y78805041D01*
X78142566Y78753662D01*
X78074955Y78736038D01*
X78008550Y78757765D01*
X77991069Y78772299D01*
X69557422Y87205947D01*
X69557415Y87205953D01*
X69464964Y87267726D01*
X69464964Y87267725D01*
X69434496Y87288083D01*
X69434493Y87288085D01*
X69434492Y87288085D01*
X69297918Y87344656D01*
X69297908Y87344659D01*
X69152921Y87373499D01*
X69152919Y87373499D01*
X58724619Y87373499D01*
X58657580Y87393184D01*
X58623043Y87426377D01*
X58620593Y87429876D01*
X58598428Y87452041D01*
X58565147Y87485322D01*
X58531664Y87546642D01*
X58536648Y87616334D01*
X58565146Y87660679D01*
X58620593Y87716125D01*
X58746097Y87895363D01*
X58838570Y88093672D01*
X58895202Y88305025D01*
X58914272Y88523002D01*
X58895202Y88740979D01*
X58838570Y88952332D01*
X58746097Y89150640D01*
X58746095Y89150643D01*
X58746094Y89150645D01*
X58620594Y89329878D01*
X58545252Y89405220D01*
X58465872Y89484600D01*
X58410842Y89523133D01*
X58361877Y89557419D01*
X58318253Y89611996D01*
X58309002Y89658993D01*
X58309002Y93787010D01*
X58328687Y93854049D01*
X58361879Y93888585D01*
X58452920Y93952332D01*
X58465872Y93961401D01*
X58620593Y94116122D01*
X58746097Y94295360D01*
X58838570Y94493669D01*
X58895202Y94705022D01*
X58914272Y94922999D01*
X58895202Y95140976D01*
X58838570Y95352329D01*
X58746097Y95550637D01*
X58746095Y95550640D01*
X58746094Y95550642D01*
X58620594Y95729875D01*
X58543655Y95806814D01*
X58465872Y95884597D01*
X58410842Y95923130D01*
X58361877Y95957416D01*
X58345964Y95977324D01*
X58345321Y95976680D01*
X58309002Y96012999D01*
X58307909Y96012999D01*
X58255504Y96024617D01*
X58238204Y96032684D01*
X58088325Y96102574D01*
X58088321Y96102575D01*
X58088317Y96102577D01*
X57876972Y96159206D01*
X57658997Y96178276D01*
X57658993Y96178276D01*
X57513677Y96165563D01*
X57441018Y96159206D01*
X57441015Y96159206D01*
X57229672Y96102577D01*
X57229665Y96102575D01*
X57229665Y96102574D01*
X57079787Y96032684D01*
X57062487Y96024617D01*
X57010082Y96012999D01*
X43301996Y96012999D01*
X43234957Y96032684D01*
X43200421Y96065876D01*
X43120597Y96179877D01*
X43107286Y96193188D01*
X42965875Y96334599D01*
X42786637Y96460103D01*
X42786638Y96460103D01*
X42786636Y96460104D01*
X42687482Y96506340D01*
X42588328Y96552576D01*
X42588324Y96552577D01*
X42588320Y96552579D01*
X42376975Y96609208D01*
X42159000Y96628278D01*
X42158996Y96628278D01*
X42013680Y96615565D01*
X41941021Y96609208D01*
X41941018Y96609208D01*
X41729675Y96552579D01*
X41729666Y96552575D01*
X41531359Y96460103D01*
X41531355Y96460101D01*
X41439705Y96395926D01*
X41373499Y96373599D01*
X41368582Y96373501D01*
X31723676Y96373501D01*
X31723656Y96373502D01*
X31717542Y96373502D01*
X31520461Y96373502D01*
X31520458Y96373502D01*
X31327173Y96335055D01*
X31327165Y96335053D01*
X31145089Y96259635D01*
X31145080Y96259630D01*
X30981220Y96150142D01*
X30981216Y96150139D01*
X28069899Y93238819D01*
X28008576Y93205334D01*
X27982218Y93202500D01*
X16919454Y93202500D01*
X16887391Y93196124D01*
X16887392Y93196123D01*
X16726170Y93164054D01*
X16726164Y93164052D01*
X16544088Y93088634D01*
X16544079Y93088629D01*
X16380219Y92979141D01*
X16380215Y92979138D01*
X12829899Y89428819D01*
X12768576Y89395334D01*
X12742218Y89392500D01*
X8945244Y89392500D01*
X8933090Y89393097D01*
X8910377Y89395334D01*
X8890000Y89397341D01*
X8869623Y89395334D01*
X8846910Y89393097D01*
X8834756Y89392500D01*
X8791453Y89392500D01*
X8748991Y89384055D01*
X8736963Y89382270D01*
X8693867Y89378024D01*
X8652427Y89365454D01*
X8640626Y89362498D01*
X8598166Y89354052D01*
X8598161Y89354051D01*
X8558159Y89337482D01*
X8546707Y89333384D01*
X8505272Y89320814D01*
X8467091Y89300406D01*
X8456093Y89295205D01*
X8416091Y89278636D01*
X8380080Y89254574D01*
X8369645Y89248320D01*
X8331465Y89227913D01*
X8331460Y89227909D01*
X8297990Y89200443D01*
X8288225Y89193201D01*
X8252225Y89169145D01*
X8252219Y89169140D01*
X8221595Y89138517D01*
X8212584Y89130350D01*
X8179117Y89102883D01*
X8151650Y89069416D01*
X8143483Y89060405D01*
X8112860Y89029781D01*
X8112855Y89029775D01*
X8088799Y88993775D01*
X8081557Y88984010D01*
X8054091Y88950540D01*
X8054087Y88950535D01*
X8033680Y88912355D01*
X8027426Y88901920D01*
X8003364Y88865909D01*
X7986795Y88825907D01*
X7981594Y88814909D01*
X7961186Y88776728D01*
X7948616Y88735293D01*
X7944518Y88723841D01*
X7927949Y88683839D01*
X7927948Y88683834D01*
X7919502Y88641374D01*
X7916546Y88629573D01*
X7903976Y88588133D01*
X7899730Y88545037D01*
X7897945Y88533009D01*
X7889500Y88490547D01*
X7889500Y88447246D01*
X7888903Y88435093D01*
X7884659Y88392001D01*
X500500Y88392001D01*
X500500Y92834398D01*
X6849500Y92834398D01*
X6849500Y92565603D01*
X6884582Y92299120D01*
X6884583Y92299115D01*
X6884584Y92299109D01*
X6884585Y92299107D01*
X6954152Y92039476D01*
X7057011Y91791150D01*
X7057019Y91791134D01*
X7137830Y91651168D01*
X7191413Y91558359D01*
X7191415Y91558356D01*
X7191416Y91558355D01*
X7355042Y91345112D01*
X7355048Y91345105D01*
X7545104Y91155049D01*
X7545110Y91155044D01*
X7758359Y90991413D01*
X7907968Y90905036D01*
X7991133Y90857020D01*
X7991149Y90857012D01*
X8146008Y90792868D01*
X8239474Y90754153D01*
X8499109Y90684584D01*
X8687319Y90659807D01*
X8765602Y90649500D01*
X8765603Y90649500D01*
X9034398Y90649500D01*
X9094905Y90657466D01*
X9300891Y90684584D01*
X9560526Y90754153D01*
X9747457Y90831583D01*
X9808850Y90857012D01*
X9808853Y90857014D01*
X9808859Y90857016D01*
X10041641Y90991413D01*
X10254890Y91155044D01*
X10444956Y91345110D01*
X10608587Y91558359D01*
X10742984Y91791141D01*
X10845847Y92039474D01*
X10915416Y92299109D01*
X10950500Y92565603D01*
X10950500Y92834397D01*
X10915416Y93100891D01*
X10845847Y93360526D01*
X10778546Y93523005D01*
X10742988Y93608851D01*
X10742980Y93608867D01*
X10666704Y93740979D01*
X10608587Y93841641D01*
X10444956Y94054890D01*
X10444951Y94054896D01*
X10254895Y94244952D01*
X10254888Y94244958D01*
X10041645Y94408584D01*
X10041644Y94408585D01*
X10041641Y94408587D01*
X9894277Y94493668D01*
X9808866Y94542981D01*
X9808850Y94542989D01*
X9560524Y94645848D01*
X9430708Y94680632D01*
X9300891Y94715416D01*
X9300885Y94715417D01*
X9300880Y94715418D01*
X9034398Y94750500D01*
X9034397Y94750500D01*
X8765603Y94750500D01*
X8765602Y94750500D01*
X8499119Y94715418D01*
X8499112Y94715417D01*
X8499109Y94715416D01*
X8460326Y94705024D01*
X8239475Y94645848D01*
X7991149Y94542989D01*
X7991133Y94542981D01*
X7758354Y94408584D01*
X7545111Y94244958D01*
X7545104Y94244952D01*
X7355048Y94054896D01*
X7355042Y94054889D01*
X7191416Y93841646D01*
X7057019Y93608867D01*
X7057011Y93608851D01*
X6954152Y93360525D01*
X6884585Y93100894D01*
X6884582Y93100881D01*
X6849500Y92834398D01*
X500500Y92834398D01*
X500500Y106375500D01*
X520185Y106442539D01*
X572989Y106488294D01*
X624500Y106499500D01*
X101375500Y106499500D01*
X101442539Y106479815D01*
G37*
G04 #@! TD.AperFunction*
G04 #@! TD*
M02*
