G04 #@! TF.GenerationSoftware,KiCad,Pcbnew,8.0.6-8.0.6-0~ubuntu22.04.1*
G04 #@! TF.CreationDate,2024-11-14T01:46:21+00:00*
G04 #@! TF.ProjectId,hellenbremen,68656c6c-656e-4627-9265-6d656e2e6b69,rev?*
G04 #@! TF.SameCoordinates,Original*
G04 #@! TF.FileFunction,Profile,NP*
%FSLAX46Y46*%
G04 Gerber Fmt 4.6, Leading zero omitted, Abs format (unit mm)*
G04 Created by KiCad (PCBNEW 8.0.6-8.0.6-0~ubuntu22.04.1) date 2024-11-14 01:46:21*
%MOMM*%
%LPD*%
G01*
G04 APERTURE LIST*
G04 #@! TA.AperFunction,Profile*
%ADD10C,0.050000*%
G04 #@! TD*
%ADD11C,0.150000*%
G04 APERTURE END LIST*
D10*
X0Y107000000D02*
X102000000Y107000000D01*
X102000000Y0D01*
X0Y0D01*
X0Y107000000D01*
D11*
X46476190Y113695181D02*
X45904762Y113695181D01*
X46190476Y113695181D02*
X46190476Y114695181D01*
X46190476Y114695181D02*
X46095238Y114552324D01*
X46095238Y114552324D02*
X46000000Y114457086D01*
X46000000Y114457086D02*
X45904762Y114409467D01*
X47095238Y114695181D02*
X47190476Y114695181D01*
X47190476Y114695181D02*
X47285714Y114647562D01*
X47285714Y114647562D02*
X47333333Y114599943D01*
X47333333Y114599943D02*
X47380952Y114504705D01*
X47380952Y114504705D02*
X47428571Y114314229D01*
X47428571Y114314229D02*
X47428571Y114076134D01*
X47428571Y114076134D02*
X47380952Y113885658D01*
X47380952Y113885658D02*
X47333333Y113790420D01*
X47333333Y113790420D02*
X47285714Y113742800D01*
X47285714Y113742800D02*
X47190476Y113695181D01*
X47190476Y113695181D02*
X47095238Y113695181D01*
X47095238Y113695181D02*
X47000000Y113742800D01*
X47000000Y113742800D02*
X46952381Y113790420D01*
X46952381Y113790420D02*
X46904762Y113885658D01*
X46904762Y113885658D02*
X46857143Y114076134D01*
X46857143Y114076134D02*
X46857143Y114314229D01*
X46857143Y114314229D02*
X46904762Y114504705D01*
X46904762Y114504705D02*
X46952381Y114599943D01*
X46952381Y114599943D02*
X47000000Y114647562D01*
X47000000Y114647562D02*
X47095238Y114695181D01*
X47809524Y114599943D02*
X47857143Y114647562D01*
X47857143Y114647562D02*
X47952381Y114695181D01*
X47952381Y114695181D02*
X48190476Y114695181D01*
X48190476Y114695181D02*
X48285714Y114647562D01*
X48285714Y114647562D02*
X48333333Y114599943D01*
X48333333Y114599943D02*
X48380952Y114504705D01*
X48380952Y114504705D02*
X48380952Y114409467D01*
X48380952Y114409467D02*
X48333333Y114266610D01*
X48333333Y114266610D02*
X47761905Y113695181D01*
X47761905Y113695181D02*
X48380952Y113695181D01*
X48809524Y113790420D02*
X48857143Y113742800D01*
X48857143Y113742800D02*
X48809524Y113695181D01*
X48809524Y113695181D02*
X48761905Y113742800D01*
X48761905Y113742800D02*
X48809524Y113790420D01*
X48809524Y113790420D02*
X48809524Y113695181D01*
X49476190Y114695181D02*
X49571428Y114695181D01*
X49571428Y114695181D02*
X49666666Y114647562D01*
X49666666Y114647562D02*
X49714285Y114599943D01*
X49714285Y114599943D02*
X49761904Y114504705D01*
X49761904Y114504705D02*
X49809523Y114314229D01*
X49809523Y114314229D02*
X49809523Y114076134D01*
X49809523Y114076134D02*
X49761904Y113885658D01*
X49761904Y113885658D02*
X49714285Y113790420D01*
X49714285Y113790420D02*
X49666666Y113742800D01*
X49666666Y113742800D02*
X49571428Y113695181D01*
X49571428Y113695181D02*
X49476190Y113695181D01*
X49476190Y113695181D02*
X49380952Y113742800D01*
X49380952Y113742800D02*
X49333333Y113790420D01*
X49333333Y113790420D02*
X49285714Y113885658D01*
X49285714Y113885658D02*
X49238095Y114076134D01*
X49238095Y114076134D02*
X49238095Y114314229D01*
X49238095Y114314229D02*
X49285714Y114504705D01*
X49285714Y114504705D02*
X49333333Y114599943D01*
X49333333Y114599943D02*
X49380952Y114647562D01*
X49380952Y114647562D02*
X49476190Y114695181D01*
X50428571Y114695181D02*
X50523809Y114695181D01*
X50523809Y114695181D02*
X50619047Y114647562D01*
X50619047Y114647562D02*
X50666666Y114599943D01*
X50666666Y114599943D02*
X50714285Y114504705D01*
X50714285Y114504705D02*
X50761904Y114314229D01*
X50761904Y114314229D02*
X50761904Y114076134D01*
X50761904Y114076134D02*
X50714285Y113885658D01*
X50714285Y113885658D02*
X50666666Y113790420D01*
X50666666Y113790420D02*
X50619047Y113742800D01*
X50619047Y113742800D02*
X50523809Y113695181D01*
X50523809Y113695181D02*
X50428571Y113695181D01*
X50428571Y113695181D02*
X50333333Y113742800D01*
X50333333Y113742800D02*
X50285714Y113790420D01*
X50285714Y113790420D02*
X50238095Y113885658D01*
X50238095Y113885658D02*
X50190476Y114076134D01*
X50190476Y114076134D02*
X50190476Y114314229D01*
X50190476Y114314229D02*
X50238095Y114504705D01*
X50238095Y114504705D02*
X50285714Y114599943D01*
X50285714Y114599943D02*
X50333333Y114647562D01*
X50333333Y114647562D02*
X50428571Y114695181D01*
X51380952Y114695181D02*
X51476190Y114695181D01*
X51476190Y114695181D02*
X51571428Y114647562D01*
X51571428Y114647562D02*
X51619047Y114599943D01*
X51619047Y114599943D02*
X51666666Y114504705D01*
X51666666Y114504705D02*
X51714285Y114314229D01*
X51714285Y114314229D02*
X51714285Y114076134D01*
X51714285Y114076134D02*
X51666666Y113885658D01*
X51666666Y113885658D02*
X51619047Y113790420D01*
X51619047Y113790420D02*
X51571428Y113742800D01*
X51571428Y113742800D02*
X51476190Y113695181D01*
X51476190Y113695181D02*
X51380952Y113695181D01*
X51380952Y113695181D02*
X51285714Y113742800D01*
X51285714Y113742800D02*
X51238095Y113790420D01*
X51238095Y113790420D02*
X51190476Y113885658D01*
X51190476Y113885658D02*
X51142857Y114076134D01*
X51142857Y114076134D02*
X51142857Y114314229D01*
X51142857Y114314229D02*
X51190476Y114504705D01*
X51190476Y114504705D02*
X51238095Y114599943D01*
X51238095Y114599943D02*
X51285714Y114647562D01*
X51285714Y114647562D02*
X51380952Y114695181D01*
X52333333Y114695181D02*
X52428571Y114695181D01*
X52428571Y114695181D02*
X52523809Y114647562D01*
X52523809Y114647562D02*
X52571428Y114599943D01*
X52571428Y114599943D02*
X52619047Y114504705D01*
X52619047Y114504705D02*
X52666666Y114314229D01*
X52666666Y114314229D02*
X52666666Y114076134D01*
X52666666Y114076134D02*
X52619047Y113885658D01*
X52619047Y113885658D02*
X52571428Y113790420D01*
X52571428Y113790420D02*
X52523809Y113742800D01*
X52523809Y113742800D02*
X52428571Y113695181D01*
X52428571Y113695181D02*
X52333333Y113695181D01*
X52333333Y113695181D02*
X52238095Y113742800D01*
X52238095Y113742800D02*
X52190476Y113790420D01*
X52190476Y113790420D02*
X52142857Y113885658D01*
X52142857Y113885658D02*
X52095238Y114076134D01*
X52095238Y114076134D02*
X52095238Y114314229D01*
X52095238Y114314229D02*
X52142857Y114504705D01*
X52142857Y114504705D02*
X52190476Y114599943D01*
X52190476Y114599943D02*
X52238095Y114647562D01*
X52238095Y114647562D02*
X52333333Y114695181D01*
X53857143Y113695181D02*
X53857143Y114361848D01*
X53857143Y114266610D02*
X53904762Y114314229D01*
X53904762Y114314229D02*
X54000000Y114361848D01*
X54000000Y114361848D02*
X54142857Y114361848D01*
X54142857Y114361848D02*
X54238095Y114314229D01*
X54238095Y114314229D02*
X54285714Y114218991D01*
X54285714Y114218991D02*
X54285714Y113695181D01*
X54285714Y114218991D02*
X54333333Y114314229D01*
X54333333Y114314229D02*
X54428571Y114361848D01*
X54428571Y114361848D02*
X54571428Y114361848D01*
X54571428Y114361848D02*
X54666667Y114314229D01*
X54666667Y114314229D02*
X54714286Y114218991D01*
X54714286Y114218991D02*
X54714286Y113695181D01*
X55190476Y113695181D02*
X55190476Y114361848D01*
X55190476Y114266610D02*
X55238095Y114314229D01*
X55238095Y114314229D02*
X55333333Y114361848D01*
X55333333Y114361848D02*
X55476190Y114361848D01*
X55476190Y114361848D02*
X55571428Y114314229D01*
X55571428Y114314229D02*
X55619047Y114218991D01*
X55619047Y114218991D02*
X55619047Y113695181D01*
X55619047Y114218991D02*
X55666666Y114314229D01*
X55666666Y114314229D02*
X55761904Y114361848D01*
X55761904Y114361848D02*
X55904761Y114361848D01*
X55904761Y114361848D02*
X56000000Y114314229D01*
X56000000Y114314229D02*
X56047619Y114218991D01*
X56047619Y114218991D02*
X56047619Y113695181D01*
D10*
X0Y107500000D02*
X0Y113586420D01*
X102000000Y107500000D02*
X102000000Y113586420D01*
X0Y113000000D02*
X102000000Y113000000D01*
X0Y113000000D02*
X102000000Y113000000D01*
X0Y113000000D02*
X1126504Y113586421D01*
X0Y113000000D02*
X1126504Y112413579D01*
X102000000Y113000000D02*
X100873496Y112413579D01*
X102000000Y113000000D02*
X100873496Y113586421D01*
D11*
X-13695181Y48976191D02*
X-13695181Y48404763D01*
X-13695181Y48690477D02*
X-14695181Y48690477D01*
X-14695181Y48690477D02*
X-14552324Y48595239D01*
X-14552324Y48595239D02*
X-14457086Y48500001D01*
X-14457086Y48500001D02*
X-14409467Y48404763D01*
X-14695181Y49595239D02*
X-14695181Y49690477D01*
X-14695181Y49690477D02*
X-14647562Y49785715D01*
X-14647562Y49785715D02*
X-14599943Y49833334D01*
X-14599943Y49833334D02*
X-14504705Y49880953D01*
X-14504705Y49880953D02*
X-14314229Y49928572D01*
X-14314229Y49928572D02*
X-14076134Y49928572D01*
X-14076134Y49928572D02*
X-13885658Y49880953D01*
X-13885658Y49880953D02*
X-13790420Y49833334D01*
X-13790420Y49833334D02*
X-13742800Y49785715D01*
X-13742800Y49785715D02*
X-13695181Y49690477D01*
X-13695181Y49690477D02*
X-13695181Y49595239D01*
X-13695181Y49595239D02*
X-13742800Y49500001D01*
X-13742800Y49500001D02*
X-13790420Y49452382D01*
X-13790420Y49452382D02*
X-13885658Y49404763D01*
X-13885658Y49404763D02*
X-14076134Y49357144D01*
X-14076134Y49357144D02*
X-14314229Y49357144D01*
X-14314229Y49357144D02*
X-14504705Y49404763D01*
X-14504705Y49404763D02*
X-14599943Y49452382D01*
X-14599943Y49452382D02*
X-14647562Y49500001D01*
X-14647562Y49500001D02*
X-14695181Y49595239D01*
X-14695181Y50261906D02*
X-14695181Y50928572D01*
X-14695181Y50928572D02*
X-13695181Y50500001D01*
X-13790420Y51309525D02*
X-13742800Y51357144D01*
X-13742800Y51357144D02*
X-13695181Y51309525D01*
X-13695181Y51309525D02*
X-13742800Y51261906D01*
X-13742800Y51261906D02*
X-13790420Y51309525D01*
X-13790420Y51309525D02*
X-13695181Y51309525D01*
X-14695181Y51976191D02*
X-14695181Y52071429D01*
X-14695181Y52071429D02*
X-14647562Y52166667D01*
X-14647562Y52166667D02*
X-14599943Y52214286D01*
X-14599943Y52214286D02*
X-14504705Y52261905D01*
X-14504705Y52261905D02*
X-14314229Y52309524D01*
X-14314229Y52309524D02*
X-14076134Y52309524D01*
X-14076134Y52309524D02*
X-13885658Y52261905D01*
X-13885658Y52261905D02*
X-13790420Y52214286D01*
X-13790420Y52214286D02*
X-13742800Y52166667D01*
X-13742800Y52166667D02*
X-13695181Y52071429D01*
X-13695181Y52071429D02*
X-13695181Y51976191D01*
X-13695181Y51976191D02*
X-13742800Y51880953D01*
X-13742800Y51880953D02*
X-13790420Y51833334D01*
X-13790420Y51833334D02*
X-13885658Y51785715D01*
X-13885658Y51785715D02*
X-14076134Y51738096D01*
X-14076134Y51738096D02*
X-14314229Y51738096D01*
X-14314229Y51738096D02*
X-14504705Y51785715D01*
X-14504705Y51785715D02*
X-14599943Y51833334D01*
X-14599943Y51833334D02*
X-14647562Y51880953D01*
X-14647562Y51880953D02*
X-14695181Y51976191D01*
X-14695181Y52928572D02*
X-14695181Y53023810D01*
X-14695181Y53023810D02*
X-14647562Y53119048D01*
X-14647562Y53119048D02*
X-14599943Y53166667D01*
X-14599943Y53166667D02*
X-14504705Y53214286D01*
X-14504705Y53214286D02*
X-14314229Y53261905D01*
X-14314229Y53261905D02*
X-14076134Y53261905D01*
X-14076134Y53261905D02*
X-13885658Y53214286D01*
X-13885658Y53214286D02*
X-13790420Y53166667D01*
X-13790420Y53166667D02*
X-13742800Y53119048D01*
X-13742800Y53119048D02*
X-13695181Y53023810D01*
X-13695181Y53023810D02*
X-13695181Y52928572D01*
X-13695181Y52928572D02*
X-13742800Y52833334D01*
X-13742800Y52833334D02*
X-13790420Y52785715D01*
X-13790420Y52785715D02*
X-13885658Y52738096D01*
X-13885658Y52738096D02*
X-14076134Y52690477D01*
X-14076134Y52690477D02*
X-14314229Y52690477D01*
X-14314229Y52690477D02*
X-14504705Y52738096D01*
X-14504705Y52738096D02*
X-14599943Y52785715D01*
X-14599943Y52785715D02*
X-14647562Y52833334D01*
X-14647562Y52833334D02*
X-14695181Y52928572D01*
X-14695181Y53880953D02*
X-14695181Y53976191D01*
X-14695181Y53976191D02*
X-14647562Y54071429D01*
X-14647562Y54071429D02*
X-14599943Y54119048D01*
X-14599943Y54119048D02*
X-14504705Y54166667D01*
X-14504705Y54166667D02*
X-14314229Y54214286D01*
X-14314229Y54214286D02*
X-14076134Y54214286D01*
X-14076134Y54214286D02*
X-13885658Y54166667D01*
X-13885658Y54166667D02*
X-13790420Y54119048D01*
X-13790420Y54119048D02*
X-13742800Y54071429D01*
X-13742800Y54071429D02*
X-13695181Y53976191D01*
X-13695181Y53976191D02*
X-13695181Y53880953D01*
X-13695181Y53880953D02*
X-13742800Y53785715D01*
X-13742800Y53785715D02*
X-13790420Y53738096D01*
X-13790420Y53738096D02*
X-13885658Y53690477D01*
X-13885658Y53690477D02*
X-14076134Y53642858D01*
X-14076134Y53642858D02*
X-14314229Y53642858D01*
X-14314229Y53642858D02*
X-14504705Y53690477D01*
X-14504705Y53690477D02*
X-14599943Y53738096D01*
X-14599943Y53738096D02*
X-14647562Y53785715D01*
X-14647562Y53785715D02*
X-14695181Y53880953D01*
X-14695181Y54833334D02*
X-14695181Y54928572D01*
X-14695181Y54928572D02*
X-14647562Y55023810D01*
X-14647562Y55023810D02*
X-14599943Y55071429D01*
X-14599943Y55071429D02*
X-14504705Y55119048D01*
X-14504705Y55119048D02*
X-14314229Y55166667D01*
X-14314229Y55166667D02*
X-14076134Y55166667D01*
X-14076134Y55166667D02*
X-13885658Y55119048D01*
X-13885658Y55119048D02*
X-13790420Y55071429D01*
X-13790420Y55071429D02*
X-13742800Y55023810D01*
X-13742800Y55023810D02*
X-13695181Y54928572D01*
X-13695181Y54928572D02*
X-13695181Y54833334D01*
X-13695181Y54833334D02*
X-13742800Y54738096D01*
X-13742800Y54738096D02*
X-13790420Y54690477D01*
X-13790420Y54690477D02*
X-13885658Y54642858D01*
X-13885658Y54642858D02*
X-14076134Y54595239D01*
X-14076134Y54595239D02*
X-14314229Y54595239D01*
X-14314229Y54595239D02*
X-14504705Y54642858D01*
X-14504705Y54642858D02*
X-14599943Y54690477D01*
X-14599943Y54690477D02*
X-14647562Y54738096D01*
X-14647562Y54738096D02*
X-14695181Y54833334D01*
X-13695181Y56357144D02*
X-14361848Y56357144D01*
X-14266610Y56357144D02*
X-14314229Y56404763D01*
X-14314229Y56404763D02*
X-14361848Y56500001D01*
X-14361848Y56500001D02*
X-14361848Y56642858D01*
X-14361848Y56642858D02*
X-14314229Y56738096D01*
X-14314229Y56738096D02*
X-14218991Y56785715D01*
X-14218991Y56785715D02*
X-13695181Y56785715D01*
X-14218991Y56785715D02*
X-14314229Y56833334D01*
X-14314229Y56833334D02*
X-14361848Y56928572D01*
X-14361848Y56928572D02*
X-14361848Y57071429D01*
X-14361848Y57071429D02*
X-14314229Y57166668D01*
X-14314229Y57166668D02*
X-14218991Y57214287D01*
X-14218991Y57214287D02*
X-13695181Y57214287D01*
X-13695181Y57690477D02*
X-14361848Y57690477D01*
X-14266610Y57690477D02*
X-14314229Y57738096D01*
X-14314229Y57738096D02*
X-14361848Y57833334D01*
X-14361848Y57833334D02*
X-14361848Y57976191D01*
X-14361848Y57976191D02*
X-14314229Y58071429D01*
X-14314229Y58071429D02*
X-14218991Y58119048D01*
X-14218991Y58119048D02*
X-13695181Y58119048D01*
X-14218991Y58119048D02*
X-14314229Y58166667D01*
X-14314229Y58166667D02*
X-14361848Y58261905D01*
X-14361848Y58261905D02*
X-14361848Y58404762D01*
X-14361848Y58404762D02*
X-14314229Y58500001D01*
X-14314229Y58500001D02*
X-14218991Y58547620D01*
X-14218991Y58547620D02*
X-13695181Y58547620D01*
D10*
X-500000Y107000000D02*
X-13586420Y107000000D01*
X-500000Y0D02*
X-13586420Y0D01*
X-13000000Y107000000D02*
X-13000000Y0D01*
X-13000000Y107000000D02*
X-13000000Y0D01*
X-13000000Y107000000D02*
X-12413579Y105873496D01*
X-13000000Y107000000D02*
X-13586421Y105873496D01*
X-13000000Y0D02*
X-13586421Y1126504D01*
X-13000000Y0D02*
X-12413579Y1126504D01*
M02*
