M48
; DRILL file {KiCad 8.0.6-8.0.6-0~ubuntu22.04.1} date 2024-11-26T20:16:22+0000
; FORMAT={2:4/ absolute / inch / suppress leading zeros}
; #@! TF.CreationDate,2024-11-26T20:16:22+00:00
; #@! TF.GenerationSoftware,Kicad,Pcbnew,8.0.6-8.0.6-0~ubuntu22.04.1
; #@! TF.FileFunction,MixedPlating,1,4
FMAT,2
INCH,TZ
; #@! TA.AperFunction,Plated,PTH,ViaDrill
T1C0.0118
; #@! TA.AperFunction,Plated,PTH,ComponentDrill
T2C0.0118
; #@! TA.AperFunction,Plated,PTH,ViaDrill
T3C0.0236
; #@! TA.AperFunction,Plated,PTH,ComponentDrill
T4C0.0394
; #@! TA.AperFunction,Plated,PTH,ComponentDrill
T5C0.0433
; #@! TA.AperFunction,Plated,PTH,ComponentDrill
T6C0.0591
; #@! TA.AperFunction,NonPlated,NPTH,ComponentDrill
T7C0.0256
; #@! TA.AperFunction,NonPlated,NPTH,ComponentDrill
T8C0.0827
; #@! TA.AperFunction,NonPlated,NPTH,ComponentDrill
T9C0.1772
%
G90
G05
T1
X2098Y7996
X4700Y19200
X6476Y13819
X8000Y15900
X8000Y13100
X8500Y17500
X9400Y21900
X9429Y12700
X9449Y21024
X9511Y17689
X9900Y13200
X10300Y17600
X10531Y21869
X10650Y11555
X10700Y12800
X11000Y12600
X11003Y21900
X11181Y19370
X11220Y17283
X11220Y15748
X11300Y12300
X11400Y21900
X11516Y20413
X11528Y11600
X11700Y19700
X12992Y11673
X13051Y12539
X13300Y21800
X13366Y11339
X13386Y6122
X13400Y18500
X13425Y5669
X13425Y5138
X13656Y19749
X13760Y22894
X14094Y11319
X14228Y10500
X14575Y7193
X14646Y19803
X15769Y7108
X15866Y5800
X16100Y25000
X16300Y8600
X16575Y21181
X16700Y25000
X16929Y9488
X17000Y5500
X17100Y18272
X17126Y34016
X17561Y32950
X17700Y12500
X18300Y17600
X18400Y13100
X18500Y9411
X19055Y32756
X19252Y23504
X19400Y25500
X19400Y25100
X19600Y21500
X19606Y16142
X19606Y11870
X19672Y11043
X19705Y13917
X19961Y23504
X20551Y7441
X22795Y7441
X23819Y6878
X26181Y28976
X26663Y6585
X27100Y31300
X27598Y6287
X28200Y28500
X30315Y24449
X32165Y24921
X33400Y30900
X33400Y29700
X33500Y30300
X35000Y39200
X35800Y30500
X35866Y4567
X36142Y23701
X36142Y22362
X36260Y20630
X36299Y18858
X36650Y13250
X38242Y24255
T2
X11505Y15038
X11505Y14644
X14937Y20723
X14937Y20369
X15037Y10623
X15037Y10269
X17184Y17581
X17184Y17109
X17184Y16637
X17184Y16164
X18362Y20723
X18362Y20349
X18362Y19975
X18462Y10623
X18462Y10249
X18462Y9875
X20274Y20222
X20274Y19278
X20274Y17860
X20274Y16915
X20274Y12663
X20274Y11246
X20274Y9396
X20274Y7978
X20274Y24002
X20274Y23057
X20274Y22585
X20274Y22112
X20274Y21640
X20274Y21167
X20274Y20695
X20274Y19750
X20274Y18805
X20274Y18333
X20274Y17388
X20274Y16443
X20274Y15970
X20274Y15498
X20274Y15026
X20274Y14553
X20274Y14081
X20274Y13608
X20274Y13136
X20274Y12191
X20274Y11718
X20274Y10774
X20274Y10301
X20274Y9868
X20274Y8923
X20274Y8451
X21140Y7742
X21258Y24159
X21455Y7742
X21652Y24159
X24093Y7742
X24171Y24159
X24407Y7742
X24722Y7742
X25037Y7742
X25352Y7742
X25667Y7742
X25877Y28566
X25877Y28172
X25982Y7742
X26297Y7742
X26612Y7742
X26927Y7742
X26927Y24159
X27242Y7742
X27321Y24159
X27557Y7742
X27715Y24159
X27872Y7742
X28108Y24159
X28187Y7742
X28502Y7742
X28502Y24159
X28817Y7742
X28896Y24159
X29132Y7742
X29289Y24159
X29447Y7742
X29683Y24159
X29762Y7742
X30077Y7742
X30392Y7742
X30707Y7742
X30904Y24159
X31022Y7742
X31219Y24159
X31337Y7742
X31652Y7742
X31967Y7742
X32281Y7742
X32596Y7742
X32911Y7742
X33226Y7742
X33541Y7742
X33856Y7742
X34171Y7742
X34486Y7742
X34801Y7742
X35825Y24159
X35825Y21797
X35825Y21482
X35825Y21167
X35825Y18096
X35825Y17781
X35825Y17467
X35825Y17152
X35825Y16837
X35825Y14671
X35825Y14356
X35825Y13726
X35825Y13411
X35825Y13096
X35825Y12781
X35825Y11837
X35825Y11522
X35825Y11207
X35825Y10892
X35825Y10577
X35825Y10262
X35825Y9632
X35825Y9317
X35825Y9002
X35825Y8687
X35825Y7742
X35825Y14041
X35825Y12467
X35825Y12152
X35825Y9947
X35825Y8372
X35825Y8057
T3
X2028Y11890
X2028Y10846
X4272Y13878
X5413Y13858
X8701Y9134
X9083Y4913
X9094Y6181
X9347Y22554
X9400Y23600
X12441Y8898
X12874Y7087
X13465Y21004
X13760Y7500
X14961Y37717
X14961Y33563
X14961Y27402
X15020Y30610
X15681Y24181
X15846Y34193
X15984Y31201
X16398Y28602
X37047Y38307
X37461Y38307
T4
X19598Y34648
X19598Y33920
X19598Y31971
X19598Y27227
X25700Y34471
X25700Y31952
X25700Y31204
X25700Y29511
X25700Y27050
X36700Y29300
X36700Y28300
X36700Y27300
T5
X2618Y27362
X2618Y26362
X2618Y25362
X2618Y24362
X2618Y23362
X2618Y22362
X2618Y21362
X2618Y20362
X2618Y19362
X2618Y18362
X2618Y17362
X2618Y16362
X2618Y15362
X2618Y14362
X2618Y13362
X2618Y12362
X2618Y11362
X2618Y10362
X2618Y9362
X3618Y27362
X3618Y26362
X3618Y25362
X3618Y24362
X3618Y23362
X3618Y22362
X3618Y21362
X3618Y20362
X3618Y19362
X3618Y18362
X3618Y17362
X3618Y16362
X3618Y15362
X3618Y14362
X3618Y13362
X3618Y12362
X3618Y11362
X3618Y10362
X3618Y9362
X6000Y27362
X6000Y26362
X6000Y25362
X6000Y24362
X6000Y23362
X6000Y22362
X6000Y21362
X6000Y20362
X6000Y19362
X6000Y18362
X6000Y17362
X6000Y16362
X6000Y15362
X6000Y14362
X6000Y13362
X6000Y12362
X6000Y11362
X6000Y10362
X6000Y9362
X7000Y27362
X7000Y26362
X7000Y25362
X7000Y24362
X7000Y23362
X7000Y22362
X7000Y21362
X7000Y20362
X7000Y19362
X7000Y18362
X7000Y17362
X7000Y16362
X7000Y15362
X7000Y14362
X7000Y13362
X7000Y12362
X7000Y11362
X7000Y10362
X7000Y9362
T6
X3799Y32756
X3799Y30472
X4717Y31614
X7000Y32756
X7000Y30472
T7
X37769Y5148
X37769Y2872
T8
X7004Y34724
X7004Y6772
T9
X3500Y36496
X3500Y5000
M30
