M48
; DRILL file {KiCad 8.0.6-8.0.6-0~ubuntu22.04.1} date 2024-11-14T01:46:22+0000
; FORMAT={2:4/ absolute / inch / suppress leading zeros}
; #@! TF.CreationDate,2024-11-14T01:46:22+00:00
; #@! TF.GenerationSoftware,Kicad,Pcbnew,8.0.6-8.0.6-0~ubuntu22.04.1
; #@! TF.FileFunction,MixedPlating,1,4
FMAT,2
INCH,TZ
; #@! TA.AperFunction,Plated,PTH,ComponentDrill
T1C0.0118
; #@! TA.AperFunction,Plated,PTH,ComponentDrill
T2C0.0394
; #@! TA.AperFunction,Plated,PTH,ComponentDrill
T3C0.0433
; #@! TA.AperFunction,Plated,PTH,ComponentDrill
T4C0.0591
; #@! TA.AperFunction,NonPlated,NPTH,ComponentDrill
T5C0.0256
%
G90
G05
T1
X11708Y23464
X11708Y23110
X11876Y19406
X11876Y19012
X15133Y23464
X15133Y23090
X15133Y22716
X17555Y21949
X17555Y21477
X17555Y21004
X17555Y20532
X17919Y11440
X17919Y11046
X18715Y23296
X18715Y22352
X18715Y20934
X18715Y19989
X18715Y15737
X18715Y14320
X18715Y12470
X18715Y11052
X18715Y27076
X18715Y26131
X18715Y25659
X18715Y25186
X18715Y24714
X18715Y24241
X18715Y23769
X18715Y22824
X18715Y21879
X18715Y21407
X18715Y20462
X18715Y19517
X18715Y19044
X18715Y18572
X18715Y18100
X18715Y17627
X18715Y17155
X18715Y16682
X18715Y16210
X18715Y15265
X18715Y14793
X18715Y13848
X18715Y13375
X18715Y12942
X18715Y11997
X18715Y11525
X19581Y10816
X19699Y27233
X19896Y10816
X20093Y27233
X22533Y10816
X22612Y27233
X22848Y10816
X23163Y10816
X23478Y10816
X23793Y10816
X24108Y10816
X24423Y10816
X24738Y10816
X25053Y10816
X25368Y10816
X25368Y27233
X25683Y10816
X25762Y27233
X25998Y10816
X26156Y27233
X26313Y10816
X26549Y27233
X26628Y10816
X26943Y10816
X26943Y27233
X27258Y10816
X27337Y27233
X27573Y10816
X27730Y27233
X27888Y10816
X28124Y27233
X28203Y10816
X28518Y10816
X28833Y10816
X29148Y10816
X29344Y27233
X29463Y10816
X29659Y27233
X29778Y10816
X30093Y10816
X30407Y10816
X30722Y10816
X31037Y10816
X31352Y10816
X31667Y10816
X31982Y10816
X32297Y10816
X32612Y10816
X32927Y10816
X33242Y10816
X34266Y27233
X34266Y24871
X34266Y24556
X34266Y24241
X34266Y21170
X34266Y20856
X34266Y20541
X34266Y20226
X34266Y19911
X34266Y17745
X34266Y17430
X34266Y16800
X34266Y16485
X34266Y16170
X34266Y15856
X34266Y14911
X34266Y14596
X34266Y14281
X34266Y13966
X34266Y13651
X34266Y13336
X34266Y12706
X34266Y12391
X34266Y12076
X34266Y11761
X34266Y10816
X34266Y17115
X34266Y15541
X34266Y15226
X34266Y13021
X34266Y11446
X34266Y11131
T2
X11639Y17522
X11639Y16794
X11639Y14845
X11639Y10101
X17741Y17345
X17741Y14826
X17741Y14078
X17741Y12385
X17741Y9924
T3
X3841Y27874
X3841Y26874
X3841Y25874
X3841Y24874
X3841Y23874
X3841Y22874
X3841Y21874
X3841Y20874
X3841Y19874
X3841Y18874
X3841Y17874
X3841Y16874
X3841Y15874
X3841Y14874
X3841Y13874
X3841Y12874
X3841Y11874
X3841Y10874
X3841Y9874
X4841Y27874
X4841Y26874
X4841Y25874
X4841Y24874
X4841Y23874
X4841Y22874
X4841Y21874
X4841Y20874
X4841Y19874
X4841Y18874
X4841Y17874
X4841Y16874
X4841Y15874
X4841Y14874
X4841Y13874
X4841Y12874
X4841Y11874
X4841Y10874
X4841Y9874
X7223Y27874
X7223Y26874
X7223Y25874
X7223Y24874
X7223Y23874
X7223Y22874
X7223Y21874
X7223Y20874
X7223Y19874
X7223Y18874
X7223Y17874
X7223Y16874
X7223Y15874
X7223Y14874
X7223Y13874
X7223Y12874
X7223Y11874
X7223Y10874
X7223Y9874
X8223Y27874
X8223Y26874
X8223Y25874
X8223Y24874
X8223Y23874
X8223Y22874
X8223Y21874
X8223Y20874
X8223Y19874
X8223Y18874
X8223Y17874
X8223Y16874
X8223Y15874
X8223Y14874
X8223Y13874
X8223Y12874
X8223Y11874
X8223Y10874
X8223Y9874
T4
X5022Y33268
X5022Y30984
X5939Y32126
X8223Y33268
X8223Y30984
T5
X37715Y10612
X37715Y8336
M30
