G04 #@! TF.GenerationSoftware,KiCad,Pcbnew,8.0.6-8.0.6-0~ubuntu22.04.1*
G04 #@! TF.CreationDate,2024-11-14T01:46:21+00:00*
G04 #@! TF.ProjectId,hellenbremen,68656c6c-656e-4627-9265-6d656e2e6b69,rev?*
G04 #@! TF.SameCoordinates,Original*
G04 #@! TF.FileFunction,Soldermask,Top*
G04 #@! TF.FilePolarity,Negative*
%FSLAX46Y46*%
G04 Gerber Fmt 4.6, Leading zero omitted, Abs format (unit mm)*
G04 Created by KiCad (PCBNEW 8.0.6-8.0.6-0~ubuntu22.04.1) date 2024-11-14 01:46:21*
%MOMM*%
%LPD*%
G01*
G04 APERTURE LIST*
%ADD10C,2.000000*%
%ADD11C,0.600000*%
%ADD12C,1.600000*%
%ADD13C,1.500000*%
%ADD14R,0.711200X1.295400*%
%ADD15R,1.295400X0.711200*%
%ADD16R,0.889000X0.889000*%
%ADD17C,0.650000*%
G04 APERTURE END LIST*
G04 #@! TO.C,R2*
G36*
G01*
X93342000Y22979000D02*
X93342000Y22609000D01*
G75*
G02*
X93207000Y22474000I-135000J0D01*
G01*
X92937000Y22474000D01*
G75*
G02*
X92802000Y22609000I0J135000D01*
G01*
X92802000Y22979000D01*
G75*
G02*
X92937000Y23114000I135000J0D01*
G01*
X93207000Y23114000D01*
G75*
G02*
X93342000Y22979000I0J-135000D01*
G01*
G37*
G36*
G01*
X92322000Y22979000D02*
X92322000Y22609000D01*
G75*
G02*
X92187000Y22474000I-135000J0D01*
G01*
X91917000Y22474000D01*
G75*
G02*
X91782000Y22609000I0J135000D01*
G01*
X91782000Y22979000D01*
G75*
G02*
X91917000Y23114000I135000J0D01*
G01*
X92187000Y23114000D01*
G75*
G02*
X92322000Y22979000I0J-135000D01*
G01*
G37*
G04 #@! TD*
G04 #@! TO.C,R1*
G36*
G01*
X93340000Y26027000D02*
X93340000Y25657000D01*
G75*
G02*
X93205000Y25522000I-135000J0D01*
G01*
X92935000Y25522000D01*
G75*
G02*
X92800000Y25657000I0J135000D01*
G01*
X92800000Y26027000D01*
G75*
G02*
X92935000Y26162000I135000J0D01*
G01*
X93205000Y26162000D01*
G75*
G02*
X93340000Y26027000I0J-135000D01*
G01*
G37*
G36*
G01*
X92320000Y26027000D02*
X92320000Y25657000D01*
G75*
G02*
X92185000Y25522000I-135000J0D01*
G01*
X91915000Y25522000D01*
G75*
G02*
X91780000Y25657000I0J135000D01*
G01*
X91780000Y26027000D01*
G75*
G02*
X91915000Y26162000I135000J0D01*
G01*
X92185000Y26162000D01*
G75*
G02*
X92320000Y26027000I0J-135000D01*
G01*
G37*
G04 #@! TD*
D10*
G04 #@! TO.C,TP1*
X98656000Y62672000D03*
G04 #@! TD*
D11*
G04 #@! TO.C,M5*
X38438995Y59598997D03*
X38438995Y58648997D03*
X38438995Y57698999D03*
X29738995Y58698997D03*
X29738995Y59598997D03*
G04 #@! TD*
D10*
G04 #@! TO.C,J1*
X12756000Y84500000D03*
X12756000Y78700000D03*
X15086000Y81600000D03*
X20886000Y84500000D03*
X20886000Y78700000D03*
D12*
X20886000Y25080000D03*
X20886000Y27620000D03*
X20886000Y30160000D03*
X20886000Y32700000D03*
X20886000Y35240000D03*
X20886000Y37780000D03*
X20886000Y40320000D03*
X20886000Y42860000D03*
X20886000Y45400000D03*
X20886000Y47940000D03*
X20886000Y50480000D03*
X20886000Y53020000D03*
X20886000Y55560000D03*
X20886000Y58100000D03*
X20886000Y60640000D03*
X20886000Y63180000D03*
X20886000Y65720000D03*
X20886000Y68260000D03*
X20886000Y70800000D03*
X18346000Y25080000D03*
X18346000Y27620000D03*
X18346000Y30160000D03*
X18346000Y32700000D03*
X18346000Y35240000D03*
X18346000Y37780000D03*
X18346000Y40320000D03*
X18346000Y42860000D03*
X18346000Y45400000D03*
X18346000Y47940000D03*
X18346000Y50480000D03*
X18346000Y53020000D03*
X18346000Y55560000D03*
X18346000Y58100000D03*
X18346000Y60640000D03*
X18346000Y63180000D03*
X18346000Y65720000D03*
X18346000Y68260000D03*
X18346000Y70800000D03*
X12296000Y25080000D03*
X12296000Y27620000D03*
X12296000Y30160000D03*
X12296000Y32700000D03*
X12296000Y35240000D03*
X12296000Y37780000D03*
X12296000Y40320000D03*
X12296000Y42860000D03*
X12296000Y45400000D03*
X12296000Y47940000D03*
X12296000Y50480000D03*
X12296000Y53020000D03*
X12296000Y55560000D03*
X12296000Y58100000D03*
X12296000Y60640000D03*
X12296000Y63180000D03*
X12296000Y65720000D03*
X12296000Y68260000D03*
X12296000Y70800000D03*
X9756000Y25080000D03*
X9756000Y27620000D03*
X9756000Y30160000D03*
X9756000Y32700000D03*
X9756000Y35240000D03*
X9756000Y37780000D03*
X9756000Y40320000D03*
X9756000Y42860000D03*
X9756000Y45400000D03*
X9756000Y47940000D03*
X9756000Y50480000D03*
X9756000Y53020000D03*
X9756000Y55560000D03*
X9756000Y58100000D03*
X9756000Y60640000D03*
X9756000Y63180000D03*
X9756000Y65720000D03*
X9756000Y68260000D03*
X9756000Y70800000D03*
G04 #@! TD*
D10*
G04 #@! TO.C,TP3*
X98656000Y56068000D03*
G04 #@! TD*
D13*
G04 #@! TO.C,M2*
X45062995Y44056999D03*
X45062995Y37657002D03*
X45062995Y35756999D03*
X45062995Y31456999D03*
D11*
X45512994Y29057002D03*
X45512994Y28057001D03*
D13*
X45062995Y25206999D03*
X29562998Y44507001D03*
X29562998Y42657002D03*
X29562998Y37706999D03*
X29562998Y25657001D03*
G04 #@! TD*
D14*
G04 #@! TO.C,U1*
X100900001Y94976000D03*
X99900000Y94976000D03*
X98900000Y94976000D03*
X97899999Y94976000D03*
X96900001Y94976000D03*
X95900001Y94976000D03*
X94900000Y94976000D03*
X93899999Y94976000D03*
X92899999Y94976000D03*
X91900001Y94976000D03*
X90900000Y94976000D03*
X89900000Y94976000D03*
X88899999Y94976000D03*
D15*
X87250000Y93576001D03*
X87250000Y92576000D03*
X87250000Y91576000D03*
X87250000Y90575999D03*
X87250000Y89576001D03*
X87250000Y88576001D03*
X87250000Y87576000D03*
X87250000Y86575999D03*
X87250000Y85575999D03*
X87250000Y84576001D03*
X87250000Y83576000D03*
X87250000Y82576000D03*
X87250000Y81575999D03*
D14*
X88899999Y80176000D03*
X89900000Y80176000D03*
X90900000Y80176000D03*
X91900001Y80176000D03*
X92899999Y80176000D03*
X93899999Y80176000D03*
X94900000Y80176000D03*
X95900001Y80176000D03*
X96900001Y80176000D03*
X97899999Y80176000D03*
X98900000Y80176000D03*
X99900000Y80176000D03*
X100900001Y80176000D03*
D16*
X95100000Y89456000D03*
X95100000Y88256000D03*
X95100000Y87056000D03*
X93900000Y89456000D03*
X93900000Y88256000D03*
X93900000Y87056000D03*
X92700000Y89456000D03*
X92700000Y88256000D03*
X92700000Y87056000D03*
G04 #@! TD*
D10*
G04 #@! TO.C,TP4*
X98656000Y52512000D03*
G04 #@! TD*
G04 #@! TO.C,TP2*
X98656000Y59370000D03*
G04 #@! TD*
D17*
G04 #@! TO.C,J3*
X95797000Y21174000D03*
X95797000Y26954000D03*
G36*
G01*
X95147000Y20564000D02*
X94297000Y20564000D01*
G75*
G02*
X94147000Y20714000I0J150000D01*
G01*
X94147000Y21014000D01*
G75*
G02*
X94297000Y21164000I150000J0D01*
G01*
X95147000Y21164000D01*
G75*
G02*
X95297000Y21014000I0J-150000D01*
G01*
X95297000Y20714000D01*
G75*
G02*
X95147000Y20564000I-150000J0D01*
G01*
G37*
G36*
G01*
X95147000Y21364000D02*
X94297000Y21364000D01*
G75*
G02*
X94147000Y21514000I0J150000D01*
G01*
X94147000Y21814000D01*
G75*
G02*
X94297000Y21964000I150000J0D01*
G01*
X95147000Y21964000D01*
G75*
G02*
X95297000Y21814000I0J-150000D01*
G01*
X95297000Y21514000D01*
G75*
G02*
X95147000Y21364000I-150000J0D01*
G01*
G37*
G36*
G01*
X95222000Y22664000D02*
X94222000Y22664000D01*
G75*
G02*
X94147000Y22739000I0J75000D01*
G01*
X94147000Y22889000D01*
G75*
G02*
X94222000Y22964000I75000J0D01*
G01*
X95222000Y22964000D01*
G75*
G02*
X95297000Y22889000I0J-75000D01*
G01*
X95297000Y22739000D01*
G75*
G02*
X95222000Y22664000I-75000J0D01*
G01*
G37*
G36*
G01*
X95222000Y23664000D02*
X94222000Y23664000D01*
G75*
G02*
X94147000Y23739000I0J75000D01*
G01*
X94147000Y23889000D01*
G75*
G02*
X94222000Y23964000I75000J0D01*
G01*
X95222000Y23964000D01*
G75*
G02*
X95297000Y23889000I0J-75000D01*
G01*
X95297000Y23739000D01*
G75*
G02*
X95222000Y23664000I-75000J0D01*
G01*
G37*
G36*
G01*
X95222000Y24164000D02*
X94222000Y24164000D01*
G75*
G02*
X94147000Y24239000I0J75000D01*
G01*
X94147000Y24389000D01*
G75*
G02*
X94222000Y24464000I75000J0D01*
G01*
X95222000Y24464000D01*
G75*
G02*
X95297000Y24389000I0J-75000D01*
G01*
X95297000Y24239000D01*
G75*
G02*
X95222000Y24164000I-75000J0D01*
G01*
G37*
G36*
G01*
X95222000Y25164000D02*
X94222000Y25164000D01*
G75*
G02*
X94147000Y25239000I0J75000D01*
G01*
X94147000Y25389000D01*
G75*
G02*
X94222000Y25464000I75000J0D01*
G01*
X95222000Y25464000D01*
G75*
G02*
X95297000Y25389000I0J-75000D01*
G01*
X95297000Y25239000D01*
G75*
G02*
X95222000Y25164000I-75000J0D01*
G01*
G37*
G36*
G01*
X95147000Y26164000D02*
X94297000Y26164000D01*
G75*
G02*
X94147000Y26314000I0J150000D01*
G01*
X94147000Y26614000D01*
G75*
G02*
X94297000Y26764000I150000J0D01*
G01*
X95147000Y26764000D01*
G75*
G02*
X95297000Y26614000I0J-150000D01*
G01*
X95297000Y26314000D01*
G75*
G02*
X95147000Y26164000I-150000J0D01*
G01*
G37*
G36*
G01*
X95147000Y26964000D02*
X94297000Y26964000D01*
G75*
G02*
X94147000Y27114000I0J150000D01*
G01*
X94147000Y27414000D01*
G75*
G02*
X94297000Y27564000I150000J0D01*
G01*
X95147000Y27564000D01*
G75*
G02*
X95297000Y27414000I0J-150000D01*
G01*
X95297000Y27114000D01*
G75*
G02*
X95147000Y26964000I-150000J0D01*
G01*
G37*
G36*
G01*
X95147000Y26964000D02*
X94297000Y26964000D01*
G75*
G02*
X94147000Y27114000I0J150000D01*
G01*
X94147000Y27414000D01*
G75*
G02*
X94297000Y27564000I150000J0D01*
G01*
X95147000Y27564000D01*
G75*
G02*
X95297000Y27414000I0J-150000D01*
G01*
X95297000Y27114000D01*
G75*
G02*
X95147000Y26964000I-150000J0D01*
G01*
G37*
G36*
G01*
X95147000Y26164000D02*
X94297000Y26164000D01*
G75*
G02*
X94147000Y26314000I0J150000D01*
G01*
X94147000Y26614000D01*
G75*
G02*
X94297000Y26764000I150000J0D01*
G01*
X95147000Y26764000D01*
G75*
G02*
X95297000Y26614000I0J-150000D01*
G01*
X95297000Y26314000D01*
G75*
G02*
X95147000Y26164000I-150000J0D01*
G01*
G37*
G36*
G01*
X95222000Y25664000D02*
X94222000Y25664000D01*
G75*
G02*
X94147000Y25739000I0J75000D01*
G01*
X94147000Y25889000D01*
G75*
G02*
X94222000Y25964000I75000J0D01*
G01*
X95222000Y25964000D01*
G75*
G02*
X95297000Y25889000I0J-75000D01*
G01*
X95297000Y25739000D01*
G75*
G02*
X95222000Y25664000I-75000J0D01*
G01*
G37*
G36*
G01*
X95222000Y24664000D02*
X94222000Y24664000D01*
G75*
G02*
X94147000Y24739000I0J75000D01*
G01*
X94147000Y24889000D01*
G75*
G02*
X94222000Y24964000I75000J0D01*
G01*
X95222000Y24964000D01*
G75*
G02*
X95297000Y24889000I0J-75000D01*
G01*
X95297000Y24739000D01*
G75*
G02*
X95222000Y24664000I-75000J0D01*
G01*
G37*
G36*
G01*
X95222000Y23164000D02*
X94222000Y23164000D01*
G75*
G02*
X94147000Y23239000I0J75000D01*
G01*
X94147000Y23389000D01*
G75*
G02*
X94222000Y23464000I75000J0D01*
G01*
X95222000Y23464000D01*
G75*
G02*
X95297000Y23389000I0J-75000D01*
G01*
X95297000Y23239000D01*
G75*
G02*
X95222000Y23164000I-75000J0D01*
G01*
G37*
G36*
G01*
X95222000Y22164000D02*
X94222000Y22164000D01*
G75*
G02*
X94147000Y22239000I0J75000D01*
G01*
X94147000Y22389000D01*
G75*
G02*
X94222000Y22464000I75000J0D01*
G01*
X95222000Y22464000D01*
G75*
G02*
X95297000Y22389000I0J-75000D01*
G01*
X95297000Y22239000D01*
G75*
G02*
X95222000Y22164000I-75000J0D01*
G01*
G37*
G36*
G01*
X95147000Y21364000D02*
X94297000Y21364000D01*
G75*
G02*
X94147000Y21514000I0J150000D01*
G01*
X94147000Y21814000D01*
G75*
G02*
X94297000Y21964000I150000J0D01*
G01*
X95147000Y21964000D01*
G75*
G02*
X95297000Y21814000I0J-150000D01*
G01*
X95297000Y21514000D01*
G75*
G02*
X95147000Y21364000I-150000J0D01*
G01*
G37*
G36*
G01*
X95147000Y20564000D02*
X94297000Y20564000D01*
G75*
G02*
X94147000Y20714000I0J150000D01*
G01*
X94147000Y21014000D01*
G75*
G02*
X94297000Y21164000I150000J0D01*
G01*
X95147000Y21164000D01*
G75*
G02*
X95297000Y21014000I0J-150000D01*
G01*
X95297000Y20714000D01*
G75*
G02*
X95147000Y20564000I-150000J0D01*
G01*
G37*
G36*
G01*
X96047000Y17864000D02*
X94547000Y17864000D01*
G75*
G02*
X94297000Y18114000I0J250000D01*
G01*
X94297000Y19794000D01*
G75*
G02*
X94547000Y20044000I250000J0D01*
G01*
X96047000Y20044000D01*
G75*
G02*
X96297000Y19794000I0J-250000D01*
G01*
X96297000Y18114000D01*
G75*
G02*
X96047000Y17864000I-250000J0D01*
G01*
G37*
G36*
G01*
X99977000Y17864000D02*
X98477000Y17864000D01*
G75*
G02*
X98227000Y18114000I0J250000D01*
G01*
X98227000Y19794000D01*
G75*
G02*
X98477000Y20044000I250000J0D01*
G01*
X99977000Y20044000D01*
G75*
G02*
X100227000Y19794000I0J-250000D01*
G01*
X100227000Y18114000D01*
G75*
G02*
X99977000Y17864000I-250000J0D01*
G01*
G37*
G36*
G01*
X96047000Y28084000D02*
X94547000Y28084000D01*
G75*
G02*
X94297000Y28334000I0J250000D01*
G01*
X94297000Y30014000D01*
G75*
G02*
X94547000Y30264000I250000J0D01*
G01*
X96047000Y30264000D01*
G75*
G02*
X96297000Y30014000I0J-250000D01*
G01*
X96297000Y28334000D01*
G75*
G02*
X96047000Y28084000I-250000J0D01*
G01*
G37*
G36*
G01*
X99977000Y28084000D02*
X98477000Y28084000D01*
G75*
G02*
X98227000Y28334000I0J250000D01*
G01*
X98227000Y30014000D01*
G75*
G02*
X98477000Y30264000I250000J0D01*
G01*
X99977000Y30264000D01*
G75*
G02*
X100227000Y30014000I0J-250000D01*
G01*
X100227000Y28334000D01*
G75*
G02*
X99977000Y28084000I-250000J0D01*
G01*
G37*
G04 #@! TD*
D11*
G04 #@! TO.C,M4*
X44588995Y53350499D03*
X44588995Y52150499D03*
X44588995Y54550499D03*
X44588995Y55750499D03*
X30163995Y49290499D03*
X30163995Y48290499D03*
G04 #@! TD*
M02*
