G04 #@! TF.GenerationSoftware,KiCad,Pcbnew,8.0.6-8.0.6-0~ubuntu22.04.1*
G04 #@! TF.CreationDate,2024-11-14T01:46:21+00:00*
G04 #@! TF.ProjectId,hellenbremen,68656c6c-656e-4627-9265-6d656e2e6b69,rev?*
G04 #@! TF.SameCoordinates,Original*
G04 #@! TF.FileFunction,Soldermask,Bot*
G04 #@! TF.FilePolarity,Negative*
%FSLAX46Y46*%
G04 Gerber Fmt 4.6, Leading zero omitted, Abs format (unit mm)*
G04 Created by KiCad (PCBNEW 8.0.6-8.0.6-0~ubuntu22.04.1) date 2024-11-14 01:46:21*
%MOMM*%
%LPD*%
G01*
G04 APERTURE LIST*
%ADD10C,0.600000*%
%ADD11C,2.000000*%
%ADD12C,1.600000*%
%ADD13C,1.500000*%
%ADD14C,0.650000*%
G04 APERTURE END LIST*
G04 #@! TO.C,M1*
G36*
G01*
X90906999Y37911006D02*
X90657001Y37911006D01*
G75*
G02*
X90532001Y38036006I0J125000D01*
G01*
X90532001Y38036006D01*
G75*
G02*
X90657001Y38161006I125000J0D01*
G01*
X90906999Y38161006D01*
G75*
G02*
X91031999Y38036006I0J-125000D01*
G01*
X91031999Y38036006D01*
G75*
G02*
X90906999Y37911006I-125000J0D01*
G01*
G37*
G36*
G01*
X90906999Y39011004D02*
X90657001Y39011004D01*
G75*
G02*
X90532001Y39136004I0J125000D01*
G01*
X90532001Y39136004D01*
G75*
G02*
X90657001Y39261004I125000J0D01*
G01*
X90906999Y39261004D01*
G75*
G02*
X91031999Y39136004I0J-125000D01*
G01*
X91031999Y39136004D01*
G75*
G02*
X90906999Y39011004I-125000J0D01*
G01*
G37*
G36*
G01*
X90906999Y40111002D02*
X90657001Y40111002D01*
G75*
G02*
X90532001Y40236002I0J125000D01*
G01*
X90532001Y40236002D01*
G75*
G02*
X90657001Y40361002I125000J0D01*
G01*
X90906999Y40361002D01*
G75*
G02*
X91031999Y40236002I0J-125000D01*
G01*
X91031999Y40236002D01*
G75*
G02*
X90906999Y40111002I-125000J0D01*
G01*
G37*
G36*
G01*
X90906999Y41211000D02*
X90657001Y41211000D01*
G75*
G02*
X90532001Y41336000I0J125000D01*
G01*
X90532001Y41336000D01*
G75*
G02*
X90657001Y41461000I125000J0D01*
G01*
X90906999Y41461000D01*
G75*
G02*
X91031999Y41336000I0J-125000D01*
G01*
X91031999Y41336000D01*
G75*
G02*
X90906999Y41211000I-125000J0D01*
G01*
G37*
G36*
G01*
X90906999Y42310998D02*
X90657001Y42310998D01*
G75*
G02*
X90532001Y42435998I0J125000D01*
G01*
X90532001Y42435998D01*
G75*
G02*
X90657001Y42560998I125000J0D01*
G01*
X90906999Y42560998D01*
G75*
G02*
X91031999Y42435998I0J-125000D01*
G01*
X91031999Y42435998D01*
G75*
G02*
X90906999Y42310998I-125000J0D01*
G01*
G37*
G36*
G01*
X90906999Y43410995D02*
X90657001Y43410995D01*
G75*
G02*
X90532001Y43535995I0J125000D01*
G01*
X90532001Y43535995D01*
G75*
G02*
X90657001Y43660995I125000J0D01*
G01*
X90906999Y43660995D01*
G75*
G02*
X91031999Y43535995I0J-125000D01*
G01*
X91031999Y43535995D01*
G75*
G02*
X90906999Y43410995I-125000J0D01*
G01*
G37*
G04 #@! TD*
D10*
G04 #@! TO.C,M5*
X38438995Y59598997D03*
X38438995Y58648997D03*
X38438995Y57698999D03*
X29738995Y58698997D03*
X29738995Y59598997D03*
G04 #@! TD*
D11*
G04 #@! TO.C,J1*
X12756000Y84500000D03*
X12756000Y78700000D03*
X15086000Y81600000D03*
X20886000Y84500000D03*
X20886000Y78700000D03*
D12*
X20886000Y25080000D03*
X20886000Y27620000D03*
X20886000Y30160000D03*
X20886000Y32700000D03*
X20886000Y35240000D03*
X20886000Y37780000D03*
X20886000Y40320000D03*
X20886000Y42860000D03*
X20886000Y45400000D03*
X20886000Y47940000D03*
X20886000Y50480000D03*
X20886000Y53020000D03*
X20886000Y55560000D03*
X20886000Y58100000D03*
X20886000Y60640000D03*
X20886000Y63180000D03*
X20886000Y65720000D03*
X20886000Y68260000D03*
X20886000Y70800000D03*
X18346000Y25080000D03*
X18346000Y27620000D03*
X18346000Y30160000D03*
X18346000Y32700000D03*
X18346000Y35240000D03*
X18346000Y37780000D03*
X18346000Y40320000D03*
X18346000Y42860000D03*
X18346000Y45400000D03*
X18346000Y47940000D03*
X18346000Y50480000D03*
X18346000Y53020000D03*
X18346000Y55560000D03*
X18346000Y58100000D03*
X18346000Y60640000D03*
X18346000Y63180000D03*
X18346000Y65720000D03*
X18346000Y68260000D03*
X18346000Y70800000D03*
X12296000Y25080000D03*
X12296000Y27620000D03*
X12296000Y30160000D03*
X12296000Y32700000D03*
X12296000Y35240000D03*
X12296000Y37780000D03*
X12296000Y40320000D03*
X12296000Y42860000D03*
X12296000Y45400000D03*
X12296000Y47940000D03*
X12296000Y50480000D03*
X12296000Y53020000D03*
X12296000Y55560000D03*
X12296000Y58100000D03*
X12296000Y60640000D03*
X12296000Y63180000D03*
X12296000Y65720000D03*
X12296000Y68260000D03*
X12296000Y70800000D03*
X9756000Y25080000D03*
X9756000Y27620000D03*
X9756000Y30160000D03*
X9756000Y32700000D03*
X9756000Y35240000D03*
X9756000Y37780000D03*
X9756000Y40320000D03*
X9756000Y42860000D03*
X9756000Y45400000D03*
X9756000Y47940000D03*
X9756000Y50480000D03*
X9756000Y53020000D03*
X9756000Y55560000D03*
X9756000Y58100000D03*
X9756000Y60640000D03*
X9756000Y63180000D03*
X9756000Y65720000D03*
X9756000Y68260000D03*
X9756000Y70800000D03*
G04 #@! TD*
D13*
G04 #@! TO.C,M2*
X45062995Y44056999D03*
X45062995Y37657002D03*
X45062995Y35756999D03*
X45062995Y31456999D03*
D10*
X45512994Y29057002D03*
X45512994Y28057001D03*
D13*
X45062995Y25206999D03*
X29562998Y44507001D03*
X29562998Y42657002D03*
X29562998Y37706999D03*
X29562998Y25657001D03*
G04 #@! TD*
D14*
G04 #@! TO.C,J3*
X95797000Y21174000D03*
X95797000Y26954000D03*
G04 #@! TD*
D10*
G04 #@! TO.C,M4*
X44588995Y53350499D03*
X44588995Y52150499D03*
X44588995Y54550499D03*
X44588995Y55750499D03*
X30163995Y49290499D03*
X30163995Y48290499D03*
G04 #@! TD*
M02*
