M48
INCH,TZ
T01C0.011800
T02C0.025600
T03C0.033450
T04C0.039200
T05C0.043300
T06C0.059100
%
T01
X9900Y13000
X9950Y18050
X10900Y22500
X10900Y21900
X10900Y20700
X11200Y19400
X11600Y18300
X11800Y20100
X12700Y24300
X13550Y24550
X17500Y27900
X18700Y40100
X19200Y25514
X25800Y5864
X26200Y6336
X33600Y30400
X35064Y15150
X35100Y12000
X35100Y11600
X35100Y11200
X35110Y10875
X35550Y15650
X35700Y40500
X36100Y40000
X37300Y30000
X37600Y23100
X38100Y21000
X11496Y14986
X11496Y14593
X13524Y19055
X13524Y18701
X16949Y19055
X16949Y18681
X16949Y18307
X17175Y17530
X17175Y17057
X17175Y16585
X17175Y16112
X18297Y20010
X18297Y19065
X18297Y17648
X18297Y16703
X18297Y12451
X18297Y11033
X18297Y9183
X18297Y7766
X18297Y23789
X18297Y22844
X18297Y22372
X18297Y21900
X18297Y21427
X18297Y20955
X18297Y20482
X18297Y19537
X18297Y18593
X18297Y18120
X18297Y17175
X18297Y16230
X18297Y15758
X18297Y15285
X18297Y14813
X18297Y14341
X18297Y13868
X18297Y13396
X18297Y12923
X18297Y11978
X18297Y11506
X18297Y10561
X18297Y10089
X18297Y9656
X18297Y8711
X18297Y8238
X19163Y7530
X19281Y23947
X19478Y7530
X19675Y23947
X22116Y7530
X22195Y23947
X22431Y7530
X22746Y7530
X23061Y7530
X23376Y7530
X23691Y7530
X24006Y7530
X24321Y7530
X24636Y7530
X24951Y7530
X24951Y23947
X25266Y7530
X25344Y23947
X25581Y7530
X25738Y23947
X25896Y7530
X26132Y23947
X26211Y7530
X26278Y27608
X26278Y27215
X26526Y7530
X26526Y23947
X26841Y7530
X26919Y23947
X27156Y7530
X27313Y23947
X27470Y7530
X27707Y23947
X27785Y7530
X28100Y7530
X28415Y7530
X28730Y7530
X28927Y23947
X29045Y7530
X29242Y23947
X29360Y7530
X29675Y7530
X29990Y7530
X30305Y7530
X30620Y7530
X30935Y7530
X31250Y7530
X31565Y7530
X31880Y7530
X32195Y7530
X32510Y7530
X32825Y7530
X33848Y23947
X33848Y21585
X33848Y21270
X33848Y20955
X33848Y17884
X33848Y17569
X33848Y17254
X33848Y16939
X33848Y16624
X33848Y14459
X33848Y14144
X33848Y13514
X33848Y13199
X33848Y12884
X33848Y12569
X33848Y11624
X33848Y11309
X33848Y10994
X33848Y10679
X33848Y10364
X33848Y10049
X33848Y9419
X33848Y9104
X33848Y8789
X33848Y8474
X33848Y7530
X33848Y13829
X33848Y12254
X33848Y11939
X33848Y9734
X33848Y8159
X33848Y7844
X36279Y13198
X36742Y12706
X36889Y11653
X36879Y10689
X36683Y9704
X36839Y8692
X37677Y8631
X38031Y8238
X38120Y9606
X39517Y8159
X39448Y12706
X20796Y25980
X20524Y26616
X20738Y27001
X20097Y27430
X20057Y27766
X20254Y28356
X20530Y28612
X20648Y29143
X20254Y29439
X20057Y28947
X20057Y30128
X20057Y31703
X20530Y31683
X21641Y31975
X22688Y31950
X23010Y31662
X24063Y31587
X25175Y31703
X25963Y31703
X25490Y30699
X24845Y30693
X24905Y29447
X25372Y29537
X25540Y29057
X25963Y29340
X25541Y28172
X26237Y28000
X26278Y27608
X26278Y27214
X25596Y27308
X25286Y26819
X25673Y26502
X25276Y26072
X24887Y26451
X24812Y27175
X24860Y27608
X23544Y26623
X23544Y25994
X22625Y25980
X21770Y25980
X21993Y26622
X22577Y27647
X22970Y29094
X22223Y29143
X22656Y29653
X23245Y30651
X24191Y32608
X25123Y32675
X25175Y33080
X25963Y32884
X25569Y32293
X23095Y33433
X23137Y33839
X22308Y33423
X22043Y33020
X20606Y33097
X21015Y32462
X20175Y32229
X18297Y23789
X18696Y23866
X19281Y23947
X19675Y23947
X19935Y23189
X19951Y22475
X19974Y22191
X19793Y21585
X19793Y21270
X19981Y20704
X19981Y20278
X19793Y19695
X19793Y19380
X19963Y18811
X19972Y18526
X19771Y17838
X19771Y17454
X19997Y16943
X19981Y16501
X19793Y15915
X19793Y15600
X19890Y15020
X19951Y14636
X19793Y14026
X19793Y13711
X19951Y13081
X19951Y12766
X19793Y12136
X19793Y11821
X19951Y11191
X19951Y10876
X19793Y10246
X20029Y10010
X20896Y9734
X20777Y9419
X20502Y9222
X20502Y8868
X21427Y8780
X21447Y9282
X21725Y9219
X22569Y9321
X22707Y8947
X22982Y8843
X22470Y8740
X23796Y9019
X24293Y9027
X24321Y9341
X24714Y9301
X25502Y9419
X25578Y10014
X25620Y10404
X25631Y10738
X25344Y10482
X25184Y10230
X26048Y10067
X26435Y10051
X26595Y10296
X26840Y9910
X27548Y10000
X27825Y9931
X28691Y10049
X29045Y10246
X29606Y10019
X29990Y9998
X29694Y9197
X29473Y8874
X29449Y8491
X30909Y8912
X31559Y8961
X31742Y8742
X32157Y9304
X32350Y10028
X32037Y10404
X32185Y10648
X32864Y10797
X32746Y11073
X32953Y9851
X32827Y9573
X33346Y9429
X33447Y9114
X32891Y8491
X32881Y12400
X32931Y12698
X32292Y12644
X32082Y12305
X31407Y11708
X31171Y11900
X30935Y12136
X30699Y12963
X30595Y13582
X30935Y13553
X30507Y13863
X30305Y14065
X29360Y13908
X29336Y13474
X29596Y12648
X29596Y12333
X29180Y12189
X29281Y11545
X29990Y11506
X30161Y11278
X29518Y10955
X28573Y10955
X28258Y11900
X28258Y12215
X27691Y12136
X26722Y12215
X26722Y11821
X27199Y11543
X27308Y10829
X26551Y10965
X26174Y10951
X26092Y12018
X25373Y11939
X25384Y11624
X25299Y12512
X24518Y12293
X24439Y11978
X24557Y11348
X24412Y11102
X24164Y10808
X23691Y11171
X23691Y11565
X23376Y12215
X23379Y12530
X23376Y12845
X23512Y13474
X23701Y13741
X24242Y13632
X24478Y13419
X24073Y13269
X24242Y14262
X24518Y14183
X24557Y15049
X24203Y15128
X23376Y15128
X23379Y14813
X23415Y14498
X22982Y14222
X22667Y14222
X22382Y14213
X21840Y13986
X21840Y13396
X22077Y13022
X22707Y13022
X22569Y13455
X22431Y11998
X22721Y12003
X22569Y11171
X22707Y10738
X22077Y10738
X21840Y11112
X21840Y11703
X21092Y12274
X20994Y12781
X20994Y13066
X20994Y14670
X20994Y14956
X21078Y15229
X22077Y15305
X21840Y15679
X21840Y16230
X22431Y16565
X22721Y16570
X23391Y16761
X23379Y17096
X23376Y17411
X22707Y17589
X22569Y18022
X21840Y17923
X22077Y17589
X21110Y17351
X20955Y16846
X20994Y16560
X21350Y18093
X20994Y18450
X20994Y18735
X21644Y18750
X22345Y18800
X23022Y18819
X23317Y18806
X23676Y18819
X24163Y18829
X24596Y18789
X24724Y19169
X24744Y19454
X24242Y19616
X23809Y19478
X23809Y20010
X24072Y20469
X24313Y20631
X24433Y21033
X24204Y21252
X24487Y21651
X24833Y21329
X24919Y20837
X25402Y20770
X25738Y20804
X26122Y20758
X26407Y20758
X26959Y20758
X27707Y20797
X28297Y20600
X28499Y20846
X28956Y20655
X29530Y20704
X30188Y21159
X30699Y21122
X31014Y21821
X30120Y21749
X29636Y21905
X29557Y22293
X29553Y22687
X30121Y23275
X30108Y23671
X29242Y23947
X28927Y23947
X28533Y23908
X27707Y23947
X27313Y23947
X26919Y23947
X26525Y23947
X26132Y23947
X25738Y23947
X25344Y23947
X24951Y23947
X24430Y23806
X24224Y23292
X23907Y22766
X24045Y22451
X23807Y22274
X23602Y21614
X23317Y21601
X23022Y21614
X22667Y21585
X22810Y22066
X22817Y22568
X22392Y22411
X22066Y22528
X22038Y22140
X21644Y22471
X21092Y22510
X20994Y22229
X21063Y21467
X21063Y20994
X20994Y20625
X20994Y20340
X21053Y19931
X21014Y19577
X21644Y19990
X22077Y19931
X22392Y19616
X22785Y19754
X22785Y19124
X21952Y19250
X22077Y20994
X21644Y21230
X22674Y20454
X22957Y20413
X23533Y20482
X24734Y20325
X25050Y19925
X26235Y19880
X26840Y19921
X27254Y19943
X27825Y19931
X28336Y19921
X29045Y19921
X30069Y19880
X30339Y19980
X30448Y19077
X30127Y19079
X31062Y19053
X31263Y18849
X31191Y18406
X30777Y18356
X30492Y18356
X29671Y18356
X29282Y18370
X29281Y18893
X28996Y18893
X28977Y18607
X28730Y18396
X28376Y18474
X27923Y18361
X27930Y17455
X28039Y17172
X28297Y17293
X28614Y17542
X27510Y17530
X26728Y17382
X26329Y17293
X25984Y17480
X25069Y17766
X25053Y18295
X25309Y18438
X24311Y18474
X24018Y18120
X23708Y18040
X24242Y17372
X24256Y16887
X24541Y16900
X25522Y16739
X25565Y16331
X25286Y16270
X25581Y15994
X25605Y15345
X25320Y15354
X25600Y14931
X25463Y14680
X25996Y14193
X26289Y15086
X26293Y15569
X26653Y15305
X27155Y14971
X27628Y14498
X27667Y15404
X28848Y15876
X28809Y16191
X28311Y16470
X27874Y16939
X26683Y16467
X26880Y18317
X26289Y18553
X26348Y18868
X26412Y19278
X28396Y19065
X29863Y17540
X30305Y17530
X30935Y17608
X31220Y17600
X31694Y17468
X31971Y17540
X32470Y17411
X33055Y17864
X33610Y17096
X33723Y16300
X33678Y15975
X33720Y15687
X33717Y15368
X33711Y15054
X32825Y15443
X32854Y16063
X32854Y16349
X32864Y16634
X31859Y16489
X31565Y16427
X31053Y16772
X30305Y16624
X29793Y16782
X29714Y15876
X29626Y15521
X29360Y15246
X30502Y15443
X30226Y15896
X30935Y14734
X31407Y15207
X32345Y15207
X32549Y14813
X32948Y14473
X32866Y13524
X31604Y14341
X28151Y14026
X28269Y13514
X28088Y13292
X28269Y13072
X28046Y12894
X26880Y13041
X26683Y13553
X27392Y13671
X24469Y15756
X24124Y15994
X23691Y16132
X23691Y15837
X22569Y15738
X22707Y15305
X18494Y15522
X18297Y15285
X18494Y15049
X18297Y14813
X18494Y14577
X18297Y14341
X18494Y14104
X18297Y13868
X18494Y13632
X18297Y13396
X18494Y13159
X18297Y12923
X18494Y12687
X18297Y12451
X18494Y12215
X18297Y11978
X18494Y11742
X18297Y11506
X18494Y11270
X18297Y11033
X18494Y10797
X18297Y10561
X18494Y10325
X18297Y10089
X18297Y9656
X18494Y9419
X18297Y9183
X18494Y8947
X18297Y8711
X18494Y8474
X19201Y8778
X19201Y9251
X21053Y10285
X20994Y10891
X20994Y11176
X23376Y10561
X23379Y10246
X23376Y9931
X23321Y9645
X26338Y8543
X30699Y10837
X30981Y10796
X31568Y18277
X31899Y18601
X32175Y18526
X32040Y18850
X32490Y19242
X32374Y19510
X32213Y19800
X32200Y20100
X31919Y20049
X31289Y19813
X31024Y19438
X32874Y19309
X32718Y19980
X32411Y20732
X32566Y21101
X32271Y21120
X31867Y20970
X31880Y21299
X32079Y21793
X31877Y22656
X31786Y23065
X32352Y23002
X32431Y23848
X32037Y23868
X33317Y23278
X33770Y23238
X33770Y22156
X32973Y21516
X33070Y20776
X33612Y19756
X33494Y18750
X30934Y22795
X30699Y22963
X28981Y21991
X27575Y22381
X27549Y21575
X26840Y21575
X26132Y21575
X25423Y21575
X25039Y22010
X25270Y22325
X24595Y22695
X23642Y23819
X23022Y23209
X22352Y23534
X22195Y23947
X21644Y23711
X21053Y23908
X20856Y23356
X20374Y23593
X21189Y22957
X21978Y23081
X18888Y23356
X18328Y23313
X18494Y23081
X18297Y22845
X18494Y22608
X18297Y22372
X18494Y22136
X18297Y21900
X18494Y21663
X18297Y21427
X18494Y21191
X18297Y20955
X18494Y20719
X18297Y20482
X18494Y20246
X18297Y20010
X18494Y19774
X18297Y19537
X18494Y19301
X18297Y19065
X18494Y18829
X18297Y18593
X18494Y18356
X18297Y18120
X18494Y17884
X18297Y17648
X18494Y17411
X18297Y17175
X18494Y16939
X18297Y16703
X18494Y16467
X18297Y16230
X18494Y15994
X18297Y15758
X28100Y23396
X28260Y8358
X29025Y8396
X29241Y8209
X29360Y7530
X29675Y7530
X29990Y7530
X30305Y7530
X30620Y7530
X30935Y7530
X31250Y7530
X31565Y7530
X31880Y7530
X32195Y7530
X32510Y7530
X32825Y7530
X33140Y7608
X32825Y7931
X31995Y7803
X30777Y7768
X29833Y7768
X30175Y8385
X29045Y7530
X28730Y7530
X28415Y7530
X28100Y7530
X27785Y7530
X27470Y7530
X27155Y7530
X26840Y7530
X26525Y7530
X26210Y7530
X25896Y7530
X25581Y7530
X25266Y7530
X24951Y7530
X24636Y7530
X24321Y7530
X24006Y7530
X23691Y7530
X23376Y7530
X23061Y7530
X22746Y7530
X22431Y7530
X22116Y7530
X21991Y8358
X21289Y8356
X21132Y8041
X21378Y7896
X20817Y7923
X20502Y7805
X20226Y7726
X19833Y7726
X19478Y7530
X19163Y7530
X19193Y7874
X19194Y8336
X18297Y8238
X18494Y8002
X18297Y7766
X18612Y7569
X22667Y8041
X22722Y8381
X25616Y7813
X27205Y8140
X27205Y8435
X33848Y8159
X33848Y7845
X33848Y7530
X33848Y8474
X33848Y8789
X33848Y9104
X33848Y9419
X33848Y9734
X33848Y10049
X33848Y10364
X33848Y10679
X33848Y10994
X33848Y11309
X33848Y11624
X33848Y11939
X33848Y12254
X33848Y12569
X33848Y12884
X33848Y13199
X33848Y13514
X33848Y13829
X33848Y14144
X33848Y14459
X33848Y16624
X33848Y16939
X33848Y17254
X33848Y17569
X33848Y17884
X33822Y20020
X33848Y20955
X33848Y21270
X33848Y21585
X33848Y23947
X11624Y16092
X11624Y14124
X11663Y17431
X12490Y16014
X12647Y14951
X12765Y14124
X13002Y17431
X13395Y16525
X13435Y15541
X13986Y14911
X14025Y14124
X14419Y17431
X14655Y16722
X14734Y14124
X14820Y16031
X15246Y14478
X15757Y15344
X15994Y14399
X16151Y17431
X16466Y14124
X16784Y16606
X17057Y15738
X17057Y14399
X11496Y14986
X11496Y14592
X17175Y17529
X17175Y17057
X17175Y16585
X17175Y16112
X13530Y18161
X13682Y18414
X13524Y18701
X13524Y19056
X14526Y18722
X14800Y18617
X15043Y18830
X14493Y18317
X15972Y19057
X16949Y19056
X16949Y18682
X16949Y18308
T02
X37675Y5902
X37675Y3626
T03
X37452Y14204
X37452Y13204
X37452Y12204
X37452Y11204
X37452Y10204
X38452Y10204
X38452Y11204
X38452Y12204
X38452Y13204
X38452Y14204
X24399Y18081
X24281Y16388
X24321Y14656
X24281Y12766
X24281Y11624
X24281Y10443
X24754Y9931
T04
X19998Y33691
X19998Y32963
X19998Y31014
X19998Y26270
X26100Y33514
X26100Y30994
X26100Y30246
X26100Y28553
X26100Y26093
X33509Y29424
X34509Y29424
X35509Y29424
X19998Y26269
X19998Y31014
X26101Y30994
X26101Y30246
X26101Y28553
X26101Y26092
X26101Y33514
X19998Y33691
X19998Y32962
X33533Y23632
X32773Y20490
X33573Y20490
X33173Y18490
T05
X3900Y27900
X3900Y26900
X3900Y25900
X3900Y24900
X3900Y23900
X3900Y22900
X3900Y21900
X3900Y20900
X3900Y19900
X3900Y18900
X3900Y17900
X3900Y16900
X3900Y15900
X3900Y14900
X3900Y13900
X3900Y12900
X3900Y11900
X3900Y10900
X3900Y9900
X4900Y27900
X4900Y26900
X4900Y25900
X4900Y24900
X4900Y23900
X4900Y22900
X4900Y21900
X4900Y20900
X4900Y19900
X4900Y18900
X4900Y17900
X4900Y16900
X4900Y15900
X4900Y14900
X4900Y13900
X4900Y12900
X4900Y11900
X4900Y10900
X4900Y9900
X7282Y27900
X7282Y26900
X7282Y25900
X7282Y24900
X7282Y23900
X7282Y22900
X7282Y21900
X7282Y20900
X7282Y19900
X7282Y18900
X7282Y17900
X7282Y16900
X7282Y15900
X7282Y14900
X7282Y13900
X7282Y12900
X7282Y11900
X7282Y10900
X7282Y9900
X8282Y27900
X8282Y26900
X8282Y25900
X8282Y24900
X8282Y23900
X8282Y22900
X8282Y21900
X8282Y20900
X8282Y19900
X8282Y18900
X8282Y17900
X8282Y16900
X8282Y15900
X8282Y14900
X8282Y13900
X8282Y12900
X8282Y11900
X8282Y10900
X8282Y9900
T06
X5081Y33294
X5081Y31010
X5998Y32152
X8282Y33294
X8282Y31010
M30
