G75*
G70*
%OFA0B0*%
%FSLAX25Y25*%
%IPPOS*%
%LPD*%
%AMOC8*
5,1,8,0,0,1.08239X$1,22.5*
%
%AMM13*
21,1,0.041340,0.026770,0.000000,0.000000,0.000000*
21,1,0.029130,0.038980,0.000000,0.000000,0.000000*
1,1,0.012210,0.014570,-0.013390*
1,1,0.012210,-0.014570,-0.013390*
1,1,0.012210,-0.014570,0.013390*
1,1,0.012210,0.014570,0.013390*
%
%AMM16*
21,1,0.038980,0.026770,0.000000,0.000000,270.000000*
21,1,0.026770,0.038980,0.000000,0.000000,270.000000*
1,1,0.012210,-0.013390,-0.013390*
1,1,0.012210,-0.013390,0.013390*
1,1,0.012210,0.013390,0.013390*
1,1,0.012210,0.013390,-0.013390*
%
%AMM164*
21,1,0.015350,0.009840,0.000000,-0.000000,90.000000*
21,1,0.000000,0.025200,0.000000,-0.000000,90.000000*
1,1,0.015350,0.004920,-0.000000*
1,1,0.015350,0.004920,-0.000000*
1,1,0.015350,-0.004920,-0.000000*
1,1,0.015350,-0.004920,-0.000000*
%
%AMM289*
21,1,0.039370,0.030320,0.000000,-0.000000,0.000000*
21,1,0.028350,0.041340,0.000000,-0.000000,0.000000*
1,1,0.011020,0.014170,-0.015160*
1,1,0.011020,-0.014170,-0.015160*
1,1,0.011020,-0.014170,0.015160*
1,1,0.011020,0.014170,0.015160*
%
%AMM295*
21,1,0.031500,0.018900,0.000000,-0.000000,90.000000*
21,1,0.022840,0.027560,0.000000,-0.000000,90.000000*
1,1,0.008660,0.009450,0.011420*
1,1,0.008660,0.009450,-0.011420*
1,1,0.008660,-0.009450,-0.011420*
1,1,0.008660,-0.009450,0.011420*
%
%AMM298*
21,1,0.029530,0.026380,0.000000,-0.000000,0.000000*
21,1,0.020470,0.035430,0.000000,-0.000000,0.000000*
1,1,0.009060,0.010240,-0.013190*
1,1,0.009060,-0.010240,-0.013190*
1,1,0.009060,-0.010240,0.013190*
1,1,0.009060,0.010240,0.013190*
%
%AMM299*
21,1,0.021650,0.027950,0.000000,-0.000000,0.000000*
21,1,0.014170,0.035430,0.000000,-0.000000,0.000000*
1,1,0.007480,0.007090,-0.013980*
1,1,0.007480,-0.007090,-0.013980*
1,1,0.007480,-0.007090,0.013980*
1,1,0.007480,0.007090,0.013980*
%
%AMM301*
21,1,0.016540,0.028980,0.000000,-0.000000,0.000000*
21,1,0.010080,0.035430,0.000000,-0.000000,0.000000*
1,1,0.006460,0.005040,-0.014490*
1,1,0.006460,-0.005040,-0.014490*
1,1,0.006460,-0.005040,0.014490*
1,1,0.006460,0.005040,0.014490*
%
%AMM304*
21,1,0.031500,0.018900,0.000000,-0.000000,0.000000*
21,1,0.022840,0.027560,0.000000,-0.000000,0.000000*
1,1,0.008660,0.011420,-0.009450*
1,1,0.008660,-0.011420,-0.009450*
1,1,0.008660,-0.011420,0.009450*
1,1,0.008660,0.011420,0.009450*
%
%AMM314*
21,1,0.037400,0.026770,0.000000,-0.000000,90.000000*
21,1,0.026770,0.037400,0.000000,-0.000000,90.000000*
1,1,0.010630,0.013390,0.013390*
1,1,0.010630,0.013390,-0.013390*
1,1,0.010630,-0.013390,-0.013390*
1,1,0.010630,-0.013390,0.013390*
%
%AMM315*
21,1,0.039370,0.030320,0.000000,-0.000000,90.000000*
21,1,0.028350,0.041340,0.000000,-0.000000,90.000000*
1,1,0.011020,0.015160,0.014170*
1,1,0.011020,0.015160,-0.014170*
1,1,0.011020,-0.015160,-0.014170*
1,1,0.011020,-0.015160,0.014170*
%
%AMM316*
21,1,0.039760,0.026770,0.000000,-0.000000,270.000000*
21,1,0.029130,0.037400,0.000000,-0.000000,270.000000*
1,1,0.010630,-0.013390,-0.014570*
1,1,0.010630,-0.013390,0.014570*
1,1,0.010630,0.013390,0.014570*
1,1,0.010630,0.013390,-0.014570*
%
%AMM317*
21,1,0.074800,0.036220,0.000000,-0.000000,270.000000*
21,1,0.061810,0.049210,0.000000,-0.000000,270.000000*
1,1,0.012990,-0.018110,-0.030910*
1,1,0.012990,-0.018110,0.030910*
1,1,0.012990,0.018110,0.030910*
1,1,0.012990,0.018110,-0.030910*
%
%AMM318*
21,1,0.062990,0.020470,0.000000,-0.000000,0.000000*
21,1,0.053940,0.029530,0.000000,-0.000000,0.000000*
1,1,0.009060,0.026970,-0.010240*
1,1,0.009060,-0.026970,-0.010240*
1,1,0.009060,-0.026970,0.010240*
1,1,0.009060,0.026970,0.010240*
%
%AMM319*
21,1,0.082680,0.045670,0.000000,-0.000000,0.000000*
21,1,0.067320,0.061020,0.000000,-0.000000,0.000000*
1,1,0.015350,0.033660,-0.022840*
1,1,0.015350,-0.033660,-0.022840*
1,1,0.015350,-0.033660,0.022840*
1,1,0.015350,0.033660,0.022840*
%
%AMM320*
21,1,0.029530,0.026380,0.000000,-0.000000,270.000000*
21,1,0.020470,0.035430,0.000000,-0.000000,270.000000*
1,1,0.009060,-0.013190,-0.010240*
1,1,0.009060,-0.013190,0.010240*
1,1,0.009060,0.013190,0.010240*
1,1,0.009060,0.013190,-0.010240*
%
%AMM321*
21,1,0.021650,0.027950,0.000000,-0.000000,270.000000*
21,1,0.014170,0.035430,0.000000,-0.000000,270.000000*
1,1,0.007480,-0.013980,-0.007090*
1,1,0.007480,-0.013980,0.007090*
1,1,0.007480,0.013980,0.007090*
1,1,0.007480,0.013980,-0.007090*
%
%AMM322*
21,1,0.031500,0.030710,0.000000,-0.000000,0.000000*
21,1,0.022050,0.040160,0.000000,-0.000000,0.000000*
1,1,0.009450,0.011020,-0.015350*
1,1,0.009450,-0.011020,-0.015350*
1,1,0.009450,-0.011020,0.015350*
1,1,0.009450,0.011020,0.015350*
%
%AMM323*
21,1,0.031500,0.049610,0.000000,-0.000000,180.000000*
21,1,0.022050,0.059060,0.000000,-0.000000,180.000000*
1,1,0.009450,-0.011020,0.024800*
1,1,0.009450,0.011020,0.024800*
1,1,0.009450,0.011020,-0.024800*
1,1,0.009450,-0.011020,-0.024800*
%
%AMM324*
21,1,0.031500,0.030710,0.000000,-0.000000,270.000000*
21,1,0.022050,0.040160,0.000000,-0.000000,270.000000*
1,1,0.009450,-0.015350,-0.011020*
1,1,0.009450,-0.015350,0.011020*
1,1,0.009450,0.015350,0.011020*
1,1,0.009450,0.015350,-0.011020*
%
%AMM325*
21,1,0.074800,0.036220,0.000000,-0.000000,0.000000*
21,1,0.061810,0.049210,0.000000,-0.000000,0.000000*
1,1,0.012990,0.030910,-0.018110*
1,1,0.012990,-0.030910,-0.018110*
1,1,0.012990,-0.030910,0.018110*
1,1,0.012990,0.030910,0.018110*
%
%AMM326*
21,1,0.037400,0.026770,0.000000,-0.000000,180.000000*
21,1,0.026770,0.037400,0.000000,-0.000000,180.000000*
1,1,0.010630,-0.013390,0.013390*
1,1,0.010630,0.013390,0.013390*
1,1,0.010630,0.013390,-0.013390*
1,1,0.010630,-0.013390,-0.013390*
%
%AMM39*
21,1,0.076380,0.036220,0.000000,0.000000,90.000000*
21,1,0.061810,0.050790,0.000000,0.000000,90.000000*
1,1,0.014570,0.018110,0.030910*
1,1,0.014570,0.018110,-0.030910*
1,1,0.014570,-0.018110,-0.030910*
1,1,0.014570,-0.018110,0.030910*
%
%AMM42*
21,1,0.029130,0.018900,0.000000,0.000000,90.000000*
21,1,0.018900,0.029130,0.000000,0.000000,90.000000*
1,1,0.010240,0.009450,0.009450*
1,1,0.010240,0.009450,-0.009450*
1,1,0.010240,-0.009450,-0.009450*
1,1,0.010240,-0.009450,0.009450*
%
%AMM43*
21,1,0.025200,0.019680,0.000000,0.000000,0.000000*
21,1,0.015750,0.029130,0.000000,0.000000,0.000000*
1,1,0.009450,0.007870,-0.009840*
1,1,0.009450,-0.007870,-0.009840*
1,1,0.009450,-0.007870,0.009840*
1,1,0.009450,0.007870,0.009840*
%
%AMM44*
21,1,0.025200,0.019680,0.000000,0.000000,270.000000*
21,1,0.015750,0.029130,0.000000,0.000000,270.000000*
1,1,0.009450,-0.009840,-0.007870*
1,1,0.009450,-0.009840,0.007870*
1,1,0.009450,0.009840,0.007870*
1,1,0.009450,0.009840,-0.007870*
%
%AMM49*
21,1,0.111810,0.050390,0.000000,0.000000,90.000000*
21,1,0.093700,0.068500,0.000000,0.000000,90.000000*
1,1,0.018110,0.025200,0.046850*
1,1,0.018110,0.025200,-0.046850*
1,1,0.018110,-0.025200,-0.046850*
1,1,0.018110,-0.025200,0.046850*
%
%AMM50*
21,1,0.029130,0.018900,0.000000,0.000000,180.000000*
21,1,0.018900,0.029130,0.000000,0.000000,180.000000*
1,1,0.010240,-0.009450,0.009450*
1,1,0.010240,0.009450,0.009450*
1,1,0.010240,0.009450,-0.009450*
1,1,0.010240,-0.009450,-0.009450*
%
%AMM51*
21,1,0.127560,0.075590,0.000000,0.000000,180.000000*
21,1,0.103150,0.100000,0.000000,0.000000,180.000000*
1,1,0.024410,-0.051580,0.037800*
1,1,0.024410,0.051580,0.037800*
1,1,0.024410,0.051580,-0.037800*
1,1,0.024410,-0.051580,-0.037800*
%
%AMM52*
21,1,0.123620,0.083460,0.000000,0.000000,0.000000*
21,1,0.097240,0.109840,0.000000,0.000000,0.000000*
1,1,0.026380,0.048620,-0.041730*
1,1,0.026380,-0.048620,-0.041730*
1,1,0.026380,-0.048620,0.041730*
1,1,0.026380,0.048620,0.041730*
%
%ADD121M39*%
%ADD124M42*%
%ADD125M43*%
%ADD126M44*%
%ADD127C,0.02913*%
%ADD13C,0.02362*%
%ADD133M49*%
%ADD134M50*%
%ADD135O,0.02520X0.09213*%
%ADD136M51*%
%ADD137M52*%
%ADD201C,0.04294*%
%ADD202C,0.04724*%
%ADD22C,0.07874*%
%ADD235R,0.01378X0.01772*%
%ADD236R,0.01772X0.01378*%
%ADD27C,0.06299*%
%ADD302M164*%
%ADD353R,0.04724X0.04331*%
%ADD357R,0.07087X0.09843*%
%ADD365O,0.01378X0.05354*%
%ADD42R,0.06693X0.06693*%
%ADD43O,0.06693X0.06693*%
%ADD436M289*%
%ADD442M295*%
%ADD445M298*%
%ADD446M299*%
%ADD448M301*%
%ADD451M304*%
%ADD461M314*%
%ADD462M315*%
%ADD463M316*%
%ADD464M317*%
%ADD465M318*%
%ADD466M319*%
%ADD467M320*%
%ADD468M321*%
%ADD469M322*%
%ADD47C,0.05906*%
%ADD470M323*%
%ADD471M324*%
%ADD472M325*%
%ADD473M326*%
%ADD60C,0.02559*%
%ADD61C,0.17717*%
%ADD62C,0.08268*%
%ADD87M13*%
%ADD90M16*%
%ADD91C,0.06457*%
%ADD92R,0.06457X0.06457*%
X0000000Y0000000D02*
%LPD*%
G01*
D13*
X0180000Y0194232D03*
X0180000Y0190492D03*
X0180000Y0186752D03*
X0145748Y0190689D03*
X0145748Y0194232D03*
X0178839Y0162366D03*
X0178839Y0157642D03*
X0178839Y0167091D03*
X0178839Y0171815D03*
X0122047Y0146382D03*
X0122047Y0142445D03*
G36*
G01*
X0360186Y0092632D02*
X0359201Y0092632D01*
G75*
G02*
X0358709Y0093124I0000000J0000492D01*
G01*
X0358709Y0093124D01*
G75*
G02*
X0359201Y0093616I0000492J0000000D01*
G01*
X0360186Y0093616D01*
G75*
G02*
X0360678Y0093124I0000000J-000492D01*
G01*
X0360678Y0093124D01*
G75*
G02*
X0360186Y0092632I-000492J0000000D01*
G01*
G37*
G36*
G01*
X0360186Y0096963D02*
X0359201Y0096963D01*
G75*
G02*
X0358709Y0097455I0000000J0000492D01*
G01*
X0358709Y0097455D01*
G75*
G02*
X0359201Y0097947I0000492J0000000D01*
G01*
X0360186Y0097947D01*
G75*
G02*
X0360678Y0097455I0000000J-000492D01*
G01*
X0360678Y0097455D01*
G75*
G02*
X0360186Y0096963I-000492J0000000D01*
G01*
G37*
G36*
G01*
X0360186Y0101294D02*
X0359201Y0101294D01*
G75*
G02*
X0358709Y0101786I0000000J0000492D01*
G01*
X0358709Y0101786D01*
G75*
G02*
X0359201Y0102278I0000492J0000000D01*
G01*
X0360186Y0102278D01*
G75*
G02*
X0360678Y0101786I0000000J-000492D01*
G01*
X0360678Y0101786D01*
G75*
G02*
X0360186Y0101294I-000492J0000000D01*
G01*
G37*
G36*
G01*
X0360186Y0105624D02*
X0359201Y0105624D01*
G75*
G02*
X0358709Y0106116I0000000J0000492D01*
G01*
X0358709Y0106116D01*
G75*
G02*
X0359201Y0106608I0000492J0000000D01*
G01*
X0360186Y0106608D01*
G75*
G02*
X0360678Y0106116I0000000J-000492D01*
G01*
X0360678Y0106116D01*
G75*
G02*
X0360186Y0105624I-000492J0000000D01*
G01*
G37*
G36*
G01*
X0360186Y0109955D02*
X0359201Y0109955D01*
G75*
G02*
X0358709Y0110447I0000000J0000492D01*
G01*
X0358709Y0110447D01*
G75*
G02*
X0359201Y0110939I0000492J0000000D01*
G01*
X0360186Y0110939D01*
G75*
G02*
X0360678Y0110447I0000000J-000492D01*
G01*
X0360678Y0110447D01*
G75*
G02*
X0360186Y0109955I-000492J0000000D01*
G01*
G37*
G36*
G01*
X0360186Y0114286D02*
X0359201Y0114286D01*
G75*
G02*
X0358709Y0114778I0000000J0000492D01*
G01*
X0358709Y0114778D01*
G75*
G02*
X0359201Y0115270I0000492J0000000D01*
G01*
X0360186Y0115270D01*
G75*
G02*
X0360678Y0114778I0000000J-000492D01*
G01*
X0360678Y0114778D01*
G75*
G02*
X0360186Y0114286I-000492J0000000D01*
G01*
G37*
D60*
X0377752Y0028244D03*
X0377752Y0051000D03*
D61*
X0035000Y0364961D03*
D62*
X0070039Y0347244D03*
X0070039Y0067717D03*
D61*
X0035000Y0050000D03*
D22*
X0037992Y0327559D03*
X0037992Y0304724D03*
X0047165Y0316142D03*
X0070000Y0327559D03*
X0070000Y0304724D03*
D27*
X0070000Y0093622D03*
X0070000Y0103622D03*
X0070000Y0113622D03*
X0070000Y0123622D03*
X0070000Y0133622D03*
X0070000Y0143622D03*
X0070000Y0153622D03*
X0070000Y0163622D03*
X0070000Y0173622D03*
X0070000Y0183622D03*
X0070000Y0193622D03*
X0070000Y0203622D03*
X0070000Y0213622D03*
X0070000Y0223622D03*
X0070000Y0233622D03*
X0070000Y0243622D03*
X0070000Y0253622D03*
X0070000Y0263622D03*
X0070000Y0273622D03*
X0060000Y0093622D03*
X0060000Y0103622D03*
X0060000Y0113622D03*
X0060000Y0123622D03*
X0060000Y0133622D03*
X0060000Y0143622D03*
X0060000Y0153622D03*
X0060000Y0163622D03*
X0060000Y0173622D03*
X0060000Y0183622D03*
X0060000Y0193622D03*
X0060000Y0203622D03*
X0060000Y0213622D03*
X0060000Y0223622D03*
X0060000Y0233622D03*
X0060000Y0243622D03*
X0060000Y0253622D03*
X0060000Y0263622D03*
X0060000Y0273622D03*
X0036181Y0093622D03*
X0036181Y0103622D03*
X0036181Y0113622D03*
X0036181Y0123622D03*
X0036181Y0133622D03*
X0036181Y0143622D03*
X0036181Y0153622D03*
X0036181Y0163622D03*
X0036181Y0173622D03*
X0036181Y0183622D03*
X0036181Y0193622D03*
X0036181Y0203622D03*
X0036181Y0213622D03*
X0036181Y0223622D03*
X0036181Y0233622D03*
X0036181Y0243622D03*
X0036181Y0253622D03*
X0036181Y0263622D03*
X0036181Y0273622D03*
X0026181Y0093622D03*
X0026181Y0103622D03*
X0026181Y0113622D03*
X0026181Y0123622D03*
X0026181Y0133622D03*
X0026181Y0143622D03*
X0026181Y0153622D03*
X0026181Y0163622D03*
X0026181Y0173622D03*
X0026181Y0183622D03*
X0026181Y0193622D03*
X0026181Y0203622D03*
X0026181Y0213622D03*
X0026181Y0223622D03*
X0026181Y0233622D03*
X0026181Y0243622D03*
X0026181Y0253622D03*
X0026181Y0263622D03*
X0026181Y0273622D03*
D42*
X0367000Y0293000D03*
D43*
X0367000Y0283000D03*
X0367000Y0273000D03*
D47*
X0259736Y0304378D03*
X0259736Y0279181D03*
X0259736Y0271701D03*
X0259736Y0254772D03*
D13*
X0261508Y0245323D03*
X0261508Y0241386D03*
D47*
X0259736Y0230165D03*
X0198713Y0306150D03*
X0198713Y0298866D03*
X0198713Y0279378D03*
X0198713Y0231937D03*
D13*
X0179618Y0126232D03*
X0179618Y0122492D03*
X0179618Y0118752D03*
X0145366Y0122689D03*
X0145366Y0126232D03*
X0358119Y0139286D02*
G01*
G75*
D91*
X0385462Y0091629D02*
D03*
X0375462Y0091629D02*
D03*
X0385462Y0101629D02*
D03*
X0375462Y0101629D02*
D03*
X0385462Y0111629D02*
D03*
X0375462Y0111629D02*
D03*
X0385462Y0121629D02*
D03*
X0375462Y0121629D02*
D03*
X0385462Y0131629D02*
D03*
D92*
X0375462Y0131629D02*
D03*
D302*
X0359694Y0093125D02*
D03*
X0359694Y0097455D02*
D03*
X0359694Y0101786D02*
D03*
X0359694Y0106117D02*
D03*
X0359694Y0110447D02*
D03*
X0359694Y0114778D02*
D03*
X0195760Y0227213D02*
G01*
G75*
D87*
X0225675Y0303591D02*
D03*
X0212683Y0303591D02*
D03*
D121*
X0245535Y0303985D02*
D03*
X0234118Y0303985D02*
D03*
X0245535Y0295953D02*
D03*
X0234118Y0295953D02*
D03*
D124*
X0208162Y0281937D02*
D03*
X0208162Y0285874D02*
D03*
X0204815Y0296504D02*
D03*
X0213477Y0296504D02*
D03*
X0204028Y0291256D02*
D03*
X0212689Y0291256D02*
D03*
D125*
X0215915Y0238630D02*
D03*
X0212371Y0238630D02*
D03*
X0225306Y0275363D02*
D03*
X0228850Y0275363D02*
D03*
X0217309Y0290468D02*
D03*
X0220852Y0290468D02*
D03*
X0224533Y0238630D02*
D03*
X0220990Y0238630D02*
D03*
X0204028Y0242567D02*
D03*
X0207571Y0242567D02*
D03*
D126*
X0229513Y0292043D02*
D03*
X0229513Y0295587D02*
D03*
X0208746Y0304445D02*
D03*
X0208746Y0300901D02*
D03*
X0257510Y0246128D02*
D03*
X0257510Y0249672D02*
D03*
D127*
X0261508Y0245323D02*
D03*
X0261508Y0241386D02*
D03*
D91*
X0198713Y0298866D02*
D03*
X0198713Y0231937D02*
D03*
X0198713Y0279378D02*
D03*
X0259736Y0279181D02*
D03*
X0259736Y0304378D02*
D03*
X0259736Y0254772D02*
D03*
X0259736Y0271701D02*
D03*
X0259736Y0230166D02*
D03*
X0198713Y0306150D02*
D03*
D133*
X0244973Y0283512D02*
D03*
X0233949Y0283512D02*
D03*
D90*
X0212295Y0279189D02*
D03*
X0212295Y0285409D02*
D03*
X0226389Y0279189D02*
D03*
X0226389Y0285409D02*
D03*
X0221698Y0279189D02*
D03*
X0221698Y0285409D02*
D03*
X0217006Y0279189D02*
D03*
X0217006Y0285409D02*
D03*
X0225208Y0291433D02*
D03*
X0225208Y0297654D02*
D03*
D134*
X0215718Y0242567D02*
D03*
X0211781Y0242567D02*
D03*
X0220399Y0242567D02*
D03*
X0224336Y0242567D02*
D03*
X0217112Y0296504D02*
D03*
X0221049Y0296504D02*
D03*
X0240045Y0274890D02*
D03*
X0243982Y0274890D02*
D03*
X0247821Y0237449D02*
D03*
X0243883Y0237449D02*
D03*
D135*
X0220832Y0249327D02*
D03*
X0215832Y0249327D02*
D03*
X0210832Y0249327D02*
D03*
X0205832Y0249327D02*
D03*
X0220832Y0271964D02*
D03*
X0215832Y0271964D02*
D03*
X0210832Y0271964D02*
D03*
X0205832Y0271964D02*
D03*
X0243899Y0244044D02*
D03*
X0238899Y0244044D02*
D03*
X0233899Y0244044D02*
D03*
X0228899Y0244044D02*
D03*
X0243899Y0267469D02*
D03*
X0238899Y0267469D02*
D03*
X0233899Y0267469D02*
D03*
X0228899Y0267469D02*
D03*
D136*
X0213332Y0260645D02*
D03*
D137*
X0236399Y0255756D02*
D03*
X0193555Y0211776D02*
G01*
G75*
D436*
X0294797Y0200161D02*
D03*
X0298537Y0190909D02*
D03*
D436*
X0302278Y0200161D02*
D03*
D442*
X0245523Y0180083D02*
D03*
X0249460Y0180083D02*
D03*
X0288437Y0059414D02*
D03*
X0284500Y0059414D02*
D03*
X0347689Y0183134D02*
D03*
X0343752Y0183134D02*
D03*
X0270327Y0149951D02*
D03*
X0266390Y0149951D02*
D03*
X0270255Y0133046D02*
D03*
X0274192Y0133046D02*
D03*
X0266783Y0155083D02*
D03*
X0270720Y0155083D02*
D03*
X0250371Y0206277D02*
D03*
X0246434Y0206277D02*
D03*
X0319539Y0188548D02*
D03*
X0315602Y0188548D02*
D03*
X0338634Y0209020D02*
D03*
X0342571Y0209020D02*
D03*
X0262846Y0077130D02*
D03*
X0258909Y0077130D02*
D03*
X0327413Y0150752D02*
D03*
X0331350Y0150752D02*
D03*
X0260976Y0120535D02*
D03*
X0264913Y0120535D02*
D03*
X0342276Y0131560D02*
D03*
X0346212Y0131560D02*
D03*
X0274657Y0078705D02*
D03*
X0270720Y0078705D02*
D03*
X0274657Y0074768D02*
D03*
X0270720Y0074768D02*
D03*
X0338634Y0204886D02*
D03*
X0342571Y0204886D02*
D03*
X0290012Y0067878D02*
D03*
X0286075Y0067878D02*
D03*
X0312453Y0068075D02*
D03*
X0308516Y0068075D02*
D03*
X0260976Y0116205D02*
D03*
X0264913Y0116205D02*
D03*
X0347492Y0112563D02*
D03*
X0343555Y0112563D02*
D03*
X0297886Y0150752D02*
D03*
X0301823Y0150752D02*
D03*
X0294342Y0150752D02*
D03*
X0290405Y0150752D02*
D03*
X0217964Y0164138D02*
D03*
X0214027Y0164138D02*
D03*
X0217964Y0159414D02*
D03*
X0214027Y0159414D02*
D03*
X0217964Y0154689D02*
D03*
X0214027Y0154689D02*
D03*
X0217964Y0149965D02*
D03*
X0214027Y0149965D02*
D03*
X0198673Y0065319D02*
D03*
X0202610Y0065319D02*
D03*
X0202610Y0060595D02*
D03*
X0198673Y0060595D02*
D03*
X0198673Y0055871D02*
D03*
X0202610Y0055871D02*
D03*
X0198673Y0051146D02*
D03*
X0202610Y0051146D02*
D03*
X0245523Y0184020D02*
D03*
X0249460Y0184020D02*
D03*
X0245523Y0156067D02*
D03*
X0249460Y0156067D02*
D03*
X0217964Y0187760D02*
D03*
X0214027Y0187760D02*
D03*
X0217964Y0192484D02*
D03*
X0214027Y0192484D02*
D03*
X0217964Y0197209D02*
D03*
X0214027Y0197209D02*
D03*
X0217964Y0201933D02*
D03*
X0214027Y0201933D02*
D03*
X0217964Y0168862D02*
D03*
X0214027Y0168862D02*
D03*
X0217964Y0173587D02*
D03*
X0214027Y0173587D02*
D03*
X0217964Y0178311D02*
D03*
X0214027Y0178311D02*
D03*
X0217964Y0183036D02*
D03*
X0214027Y0183036D02*
D03*
X0217964Y0131067D02*
D03*
X0214027Y0131067D02*
D03*
X0217964Y0135791D02*
D03*
X0214027Y0135791D02*
D03*
X0217964Y0140516D02*
D03*
X0214027Y0140516D02*
D03*
X0217964Y0145240D02*
D03*
X0214027Y0145240D02*
D03*
X0214027Y0112169D02*
D03*
X0217964Y0112169D02*
D03*
X0217964Y0116894D02*
D03*
X0214027Y0116894D02*
D03*
X0217964Y0121618D02*
D03*
X0214027Y0121618D02*
D03*
X0217964Y0126343D02*
D03*
X0214027Y0126343D02*
D03*
X0217964Y0093272D02*
D03*
X0214027Y0093272D02*
D03*
X0217964Y0097996D02*
D03*
X0214027Y0097996D02*
D03*
X0217964Y0102721D02*
D03*
X0214027Y0102721D02*
D03*
X0217964Y0107445D02*
D03*
X0214027Y0107445D02*
D03*
X0217964Y0079099D02*
D03*
X0214027Y0079099D02*
D03*
X0217964Y0083823D02*
D03*
X0214027Y0083823D02*
D03*
X0217964Y0088548D02*
D03*
X0214027Y0088548D02*
D03*
X0208712Y0207052D02*
D03*
X0212649Y0207052D02*
D03*
X0202610Y0070043D02*
D03*
X0198673Y0070043D02*
D03*
X0235287Y0156067D02*
D03*
X0239224Y0156067D02*
D03*
X0214027Y0068469D02*
D03*
X0217964Y0068469D02*
D03*
X0201035Y0207052D02*
D03*
X0204972Y0207052D02*
D03*
X0210090Y0068469D02*
D03*
X0206153Y0068469D02*
D03*
X0340405Y0063351D02*
D03*
X0336468Y0063351D02*
D03*
X0217964Y0074374D02*
D03*
X0214027Y0074374D02*
D03*
D445*
X0310386Y0174374D02*
D03*
X0310386Y0167288D02*
D03*
X0300346Y0167288D02*
D03*
X0300346Y0174374D02*
D03*
X0262157Y0159807D02*
D03*
X0262157Y0166894D02*
D03*
X0272197Y0166894D02*
D03*
X0272197Y0159807D02*
D03*
X0278299Y0159807D02*
D03*
X0278299Y0166894D02*
D03*
X0288339Y0166894D02*
D03*
X0288339Y0159807D02*
D03*
X0242472Y0064335D02*
D03*
X0242472Y0071422D02*
D03*
X0232433Y0071422D02*
D03*
X0232433Y0064335D02*
D03*
X0232433Y0082839D02*
D03*
X0232433Y0075752D02*
D03*
X0242472Y0075752D02*
D03*
X0242472Y0082839D02*
D03*
X0242472Y0132839D02*
D03*
X0242472Y0139925D02*
D03*
X0232433Y0139925D02*
D03*
X0232433Y0132839D02*
D03*
X0232433Y0151343D02*
D03*
X0232433Y0144256D02*
D03*
X0242472Y0144256D02*
D03*
X0242472Y0151343D02*
D03*
X0242472Y0110004D02*
D03*
X0242472Y0117091D02*
D03*
X0232433Y0117091D02*
D03*
X0232433Y0110004D02*
D03*
X0232433Y0128508D02*
D03*
X0232433Y0121421D02*
D03*
X0242472Y0121421D02*
D03*
X0242472Y0128508D02*
D03*
X0242472Y0087169D02*
D03*
X0242472Y0094256D02*
D03*
X0232433Y0094256D02*
D03*
X0232433Y0087169D02*
D03*
X0232433Y0105673D02*
D03*
X0232433Y0098587D02*
D03*
X0242472Y0098587D02*
D03*
X0242472Y0105673D02*
D03*
D446*
X0303791Y0167288D02*
D03*
X0306941Y0167288D02*
D03*
X0306941Y0174374D02*
D03*
X0303791Y0174374D02*
D03*
X0268752Y0166894D02*
D03*
X0265602Y0166894D02*
D03*
X0265602Y0159807D02*
D03*
X0268752Y0159807D02*
D03*
X0284894Y0166894D02*
D03*
X0281744Y0166894D02*
D03*
X0281744Y0159807D02*
D03*
X0284894Y0159807D02*
D03*
X0239027Y0064335D02*
D03*
X0235878Y0064335D02*
D03*
X0235878Y0071422D02*
D03*
X0239027Y0071422D02*
D03*
X0235878Y0082839D02*
D03*
X0239027Y0082839D02*
D03*
X0239027Y0075752D02*
D03*
X0235878Y0075752D02*
D03*
X0239027Y0132839D02*
D03*
X0235878Y0132839D02*
D03*
X0235878Y0139925D02*
D03*
X0239027Y0139925D02*
D03*
X0235878Y0151343D02*
D03*
X0239027Y0151343D02*
D03*
X0239027Y0144256D02*
D03*
X0235878Y0144256D02*
D03*
X0239027Y0110004D02*
D03*
X0235878Y0110004D02*
D03*
X0235878Y0117091D02*
D03*
X0239027Y0117091D02*
D03*
X0235878Y0128508D02*
D03*
X0239027Y0128508D02*
D03*
X0239027Y0121421D02*
D03*
X0235878Y0121421D02*
D03*
X0239027Y0087169D02*
D03*
X0235878Y0087169D02*
D03*
X0235878Y0094256D02*
D03*
X0239027Y0094256D02*
D03*
X0235878Y0105673D02*
D03*
X0239027Y0105673D02*
D03*
X0239027Y0098587D02*
D03*
X0235878Y0098587D02*
D03*
D448*
X0304382Y0186382D02*
D03*
X0306941Y0186382D02*
D03*
X0309500Y0186382D02*
D03*
X0309500Y0178902D02*
D03*
X0304382Y0178902D02*
D03*
D451*
X0344933Y0168075D02*
D03*
X0344933Y0172012D02*
D03*
X0329185Y0051933D02*
D03*
X0329185Y0055871D02*
D03*
X0324364Y0193033D02*
D03*
X0324364Y0189096D02*
D03*
X0318358Y0170437D02*
D03*
X0318358Y0174374D02*
D03*
X0314421Y0179493D02*
D03*
X0314421Y0175556D02*
D03*
X0263634Y0070437D02*
D03*
X0263634Y0066500D02*
D03*
X0345524Y0139729D02*
D03*
X0345524Y0135792D02*
D03*
X0333319Y0071028D02*
D03*
X0333319Y0067091D02*
D03*
X0344342Y0098390D02*
D03*
X0344342Y0094453D02*
D03*
X0257533Y0142866D02*
D03*
X0257533Y0146803D02*
D03*
X0280169Y0152130D02*
D03*
X0280169Y0148193D02*
D03*
X0278594Y0142091D02*
D03*
X0278594Y0138154D02*
D03*
X0306941Y0142878D02*
D03*
X0306941Y0138941D02*
D03*
X0347098Y0047603D02*
D03*
X0347098Y0051540D02*
D03*
X0346114Y0160792D02*
D03*
X0346114Y0164729D02*
D03*
X0331744Y0178705D02*
D03*
X0331744Y0174768D02*
D03*
X0269933Y0067681D02*
D03*
X0269933Y0063744D02*
D03*
X0273870Y0067681D02*
D03*
X0273870Y0063744D02*
D03*
X0337256Y0067091D02*
D03*
X0337256Y0071028D02*
D03*
X0261370Y0094158D02*
D03*
X0261370Y0098095D02*
D03*
X0306547Y0150752D02*
D03*
X0306547Y0146815D02*
D03*
X0274854Y0150752D02*
D03*
X0274854Y0146815D02*
D03*
X0330169Y0142485D02*
D03*
X0330169Y0138548D02*
D03*
X0314815Y0143272D02*
D03*
X0314815Y0139335D02*
D03*
X0260976Y0128410D02*
D03*
X0260976Y0124473D02*
D03*
X0248673Y0074177D02*
D03*
X0248673Y0078114D02*
D03*
X0248673Y0142681D02*
D03*
X0248673Y0146618D02*
D03*
X0248673Y0119847D02*
D03*
X0248673Y0123784D02*
D03*
X0248673Y0097012D02*
D03*
X0248673Y0100949D02*
D03*
X0224657Y0136185D02*
D03*
X0224657Y0140122D02*
D03*
X0228201Y0191237D02*
D03*
X0228201Y0187300D02*
D03*
X0228201Y0200426D02*
D03*
X0228201Y0204363D02*
D03*
X0228201Y0166433D02*
D03*
X0228201Y0162496D02*
D03*
X0228201Y0175622D02*
D03*
X0228201Y0179559D02*
D03*
X0310090Y0203902D02*
D03*
X0310090Y0207839D02*
D03*
X0310090Y0197996D02*
D03*
X0310090Y0194059D02*
D03*
X0221901Y0160988D02*
D03*
X0221901Y0164925D02*
D03*
X0259697Y0207839D02*
D03*
X0259697Y0203902D02*
D03*
X0272098Y0207839D02*
D03*
X0272098Y0203902D02*
D03*
X0276232Y0207839D02*
D03*
X0276232Y0203902D02*
D03*
X0284500Y0207839D02*
D03*
X0284500Y0203902D02*
D03*
X0280366Y0207839D02*
D03*
X0280366Y0203902D02*
D03*
X0288634Y0207839D02*
D03*
X0288634Y0203902D02*
D03*
X0267965Y0207839D02*
D03*
X0267965Y0203902D02*
D03*
X0263831Y0207839D02*
D03*
X0263831Y0203902D02*
D03*
D201*
X0343496Y0156028D02*
D03*
X0339496Y0176028D02*
D03*
X0347496Y0176028D02*
D03*
D202*
X0254972Y0117681D02*
D03*
X0259303Y0070437D02*
D03*
X0254579Y0075555D02*
D03*
X0254579Y0087367D02*
D03*
X0254579Y0098784D02*
D03*
X0254579Y0135004D02*
D03*
X0255760Y0151934D02*
D03*
D47*
X0347098Y0207445D02*
D03*
D461*
X0311075Y0157799D02*
D03*
X0311075Y0151579D02*
D03*
D462*
X0321426Y0055196D02*
D03*
X0312174Y0051456D02*
D03*
X0263675Y0137625D02*
D03*
X0272927Y0141365D02*
D03*
X0324539Y0201146D02*
D03*
X0333791Y0204886D02*
D03*
X0337964Y0195437D02*
D03*
X0328713Y0191697D02*
D03*
X0229579Y0058823D02*
D03*
X0220327Y0055083D02*
D03*
X0235222Y0055083D02*
D03*
X0244474Y0058823D02*
D03*
X0259369Y0058823D02*
D03*
X0250117Y0055083D02*
D03*
X0274264Y0059610D02*
D03*
X0265012Y0055870D02*
D03*
D462*
X0312174Y0058936D02*
D03*
X0263675Y0145105D02*
D03*
X0324539Y0208626D02*
D03*
X0337965Y0187957D02*
D03*
X0229579Y0051343D02*
D03*
X0244474Y0051343D02*
D03*
X0259369Y0051343D02*
D03*
X0274264Y0052130D02*
D03*
D463*
X0317177Y0207445D02*
D03*
X0317177Y0194453D02*
D03*
X0327413Y0170044D02*
D03*
X0327413Y0157051D02*
D03*
D353*
X0325838Y0174965D02*
D03*
X0325838Y0181658D02*
D03*
D464*
X0288043Y0052721D02*
D03*
X0299460Y0052721D02*
D03*
D465*
X0299079Y0114650D02*
D03*
X0299079Y0110319D02*
D03*
X0299079Y0105988D02*
D03*
X0299079Y0101658D02*
D03*
X0299079Y0097327D02*
D03*
X0299079Y0092996D02*
D03*
X0299079Y0088665D02*
D03*
X0299079Y0084335D02*
D03*
D466*
X0288843Y0074965D02*
D03*
X0321520Y0074965D02*
D03*
X0321520Y0129098D02*
D03*
X0288843Y0129098D02*
D03*
D357*
X0300051Y0139728D02*
D03*
X0285484Y0139728D02*
D03*
D467*
X0276232Y0093173D02*
D03*
X0269146Y0093173D02*
D03*
X0269146Y0083134D02*
D03*
X0276232Y0083134D02*
D03*
X0201232Y0162071D02*
D03*
X0208319Y0162071D02*
D03*
X0208319Y0152032D02*
D03*
X0201232Y0152032D02*
D03*
X0235681Y0190221D02*
D03*
X0242768Y0190221D02*
D03*
X0242768Y0200260D02*
D03*
X0235681Y0200260D02*
D03*
X0254185Y0200260D02*
D03*
X0247098Y0200260D02*
D03*
X0247098Y0190221D02*
D03*
X0254185Y0190221D02*
D03*
X0235681Y0162268D02*
D03*
X0242768Y0162268D02*
D03*
X0242768Y0172307D02*
D03*
X0235681Y0172307D02*
D03*
X0254185Y0172307D02*
D03*
X0247098Y0172307D02*
D03*
X0247098Y0162268D02*
D03*
X0254185Y0162268D02*
D03*
X0201232Y0199866D02*
D03*
X0208319Y0199866D02*
D03*
X0208319Y0189827D02*
D03*
X0201232Y0189827D02*
D03*
X0201232Y0180969D02*
D03*
X0208319Y0180969D02*
D03*
X0208319Y0170930D02*
D03*
X0201232Y0170930D02*
D03*
X0201232Y0143174D02*
D03*
X0208319Y0143174D02*
D03*
X0208319Y0133134D02*
D03*
X0201232Y0133134D02*
D03*
X0201232Y0124276D02*
D03*
X0208319Y0124276D02*
D03*
X0208319Y0114236D02*
D03*
X0201232Y0114236D02*
D03*
X0201232Y0105378D02*
D03*
X0208319Y0105378D02*
D03*
X0208319Y0095339D02*
D03*
X0201232Y0095339D02*
D03*
X0201232Y0086481D02*
D03*
X0208319Y0086481D02*
D03*
X0208319Y0076441D02*
D03*
X0201232Y0076441D02*
D03*
X0206941Y0053213D02*
D03*
X0214027Y0053213D02*
D03*
X0214027Y0063252D02*
D03*
X0206941Y0063252D02*
D03*
D468*
X0276232Y0089729D02*
D03*
X0276232Y0086579D02*
D03*
X0269146Y0086579D02*
D03*
X0269146Y0089729D02*
D03*
X0208319Y0155477D02*
D03*
X0208319Y0158626D02*
D03*
X0201232Y0158626D02*
D03*
X0201232Y0155477D02*
D03*
X0235681Y0193666D02*
D03*
X0235681Y0196815D02*
D03*
X0242768Y0196815D02*
D03*
X0242768Y0193666D02*
D03*
X0254185Y0196815D02*
D03*
X0254185Y0193666D02*
D03*
X0247098Y0193666D02*
D03*
X0247098Y0196815D02*
D03*
X0235681Y0165713D02*
D03*
X0235681Y0168863D02*
D03*
X0242768Y0168863D02*
D03*
X0242768Y0165713D02*
D03*
X0254185Y0168862D02*
D03*
X0254185Y0165713D02*
D03*
X0247098Y0165713D02*
D03*
X0247098Y0168862D02*
D03*
X0208319Y0193272D02*
D03*
X0208319Y0196421D02*
D03*
X0201232Y0196421D02*
D03*
X0201232Y0193272D02*
D03*
X0208319Y0174374D02*
D03*
X0208319Y0177524D02*
D03*
X0201232Y0177524D02*
D03*
X0201232Y0174374D02*
D03*
X0208319Y0136579D02*
D03*
X0208319Y0139729D02*
D03*
X0201232Y0139729D02*
D03*
X0201232Y0136579D02*
D03*
X0208319Y0117681D02*
D03*
X0208319Y0120831D02*
D03*
X0201232Y0120831D02*
D03*
X0201232Y0117681D02*
D03*
X0208319Y0098784D02*
D03*
X0208319Y0101933D02*
D03*
X0201232Y0101933D02*
D03*
X0201232Y0098784D02*
D03*
X0208319Y0079886D02*
D03*
X0208319Y0083036D02*
D03*
X0201232Y0083036D02*
D03*
X0201232Y0079886D02*
D03*
X0206941Y0056658D02*
D03*
X0206941Y0059807D02*
D03*
X0214027Y0059807D02*
D03*
X0214027Y0056658D02*
D03*
D469*
X0303791Y0068075D02*
D03*
X0297492Y0068075D02*
D03*
X0339520Y0121717D02*
D03*
X0345819Y0121717D02*
D03*
X0305760Y0207051D02*
D03*
X0299460Y0207051D02*
D03*
X0296311Y0062563D02*
D03*
X0302610Y0062563D02*
D03*
D470*
X0325248Y0142485D02*
D03*
X0319342Y0142485D02*
D03*
D471*
X0320327Y0151539D02*
D03*
X0320327Y0157839D02*
D03*
X0315701Y0151539D02*
D03*
X0315701Y0157839D02*
D03*
D472*
X0344933Y0199965D02*
D03*
X0344933Y0188548D02*
D03*
D473*
X0284736Y0063548D02*
D03*
X0290957Y0063548D02*
D03*
X0314382Y0135004D02*
D03*
X0308161Y0135004D02*
D03*
D365*
X0260681Y0198154D02*
D03*
X0263240Y0198154D02*
D03*
X0265799Y0198154D02*
D03*
X0268358Y0198154D02*
D03*
X0270917Y0198154D02*
D03*
X0273476Y0198154D02*
D03*
X0276035Y0198154D02*
D03*
X0278594Y0198154D02*
D03*
X0281153Y0198154D02*
D03*
X0283713Y0198154D02*
D03*
X0286271Y0198154D02*
D03*
X0288831Y0198154D02*
D03*
X0260681Y0175161D02*
D03*
X0263240Y0175161D02*
D03*
X0265799Y0175161D02*
D03*
X0268358Y0175161D02*
D03*
X0270917Y0175161D02*
D03*
X0273476Y0175161D02*
D03*
X0276035Y0175161D02*
D03*
X0278594Y0175161D02*
D03*
X0281153Y0175161D02*
D03*
X0283713Y0175161D02*
D03*
X0286271Y0175161D02*
D03*
X0288831Y0175161D02*
D03*
D236*
X0336862Y0054886D02*
D03*
X0336862Y0056854D02*
D03*
X0343161Y0056854D02*
D03*
X0343161Y0054886D02*
D03*
D235*
X0337059Y0059020D02*
D03*
X0339028Y0059020D02*
D03*
X0340996Y0059020D02*
D03*
X0342964Y0059020D02*
D03*
X0337059Y0052720D02*
D03*
X0342964Y0052720D02*
D03*
X0339028Y0052720D02*
D03*
X0340996Y0052720D02*
D03*
X0120571Y0135201D02*
%LPD*%
G01*
D13*
X0178839Y0162366D03*
X0178839Y0157642D03*
X0178839Y0167091D03*
X0178839Y0171815D03*
X0122047Y0146382D03*
X0122047Y0142445D03*
X0144567Y0183996D02*
G01*
G75*
D127*
X0180000Y0194232D02*
D03*
X0180000Y0190492D02*
D03*
X0180000Y0186752D02*
D03*
X0145748Y0190689D02*
D03*
X0145748Y0194232D02*
D03*
D134*
X0172520Y0194232D02*
D03*
X0176457Y0194232D02*
D03*
X0161397Y0194232D02*
D03*
X0157460Y0194232D02*
D03*
X0153031Y0194232D02*
D03*
X0149094Y0194232D02*
D03*
X0172520Y0186949D02*
D03*
X0176457Y0186949D02*
D03*
D126*
X0169135Y0186752D02*
D03*
X0169135Y0190295D02*
D03*
D90*
X0165250Y0193465D02*
D03*
X0165250Y0187244D02*
D03*
D125*
X0152638Y0190295D02*
D03*
X0149095Y0190295D02*
D03*
X0161004Y0186752D02*
D03*
X0157461Y0186752D02*
D03*
X0175866Y0190353D02*
D03*
X0172323Y0190353D02*
D03*
X0149095Y0186752D02*
D03*
X0152638Y0186752D02*
D03*
X0144185Y0115996D02*
G01*
G75*
D127*
X0179618Y0126232D02*
D03*
X0179618Y0122492D02*
D03*
X0179618Y0118752D02*
D03*
X0145366Y0122689D02*
D03*
X0145366Y0126232D02*
D03*
D134*
X0172138Y0126232D02*
D03*
X0176075Y0126232D02*
D03*
X0161015Y0126232D02*
D03*
X0157078Y0126232D02*
D03*
X0152649Y0126232D02*
D03*
X0148712Y0126232D02*
D03*
X0172138Y0118949D02*
D03*
X0176075Y0118949D02*
D03*
D126*
X0168753Y0118752D02*
D03*
X0168753Y0122295D02*
D03*
D90*
X0164868Y0125465D02*
D03*
X0164868Y0119244D02*
D03*
D125*
X0152256Y0122295D02*
D03*
X0148713Y0122295D02*
D03*
X0160622Y0118752D02*
D03*
X0157079Y0118752D02*
D03*
X0175484Y0122353D02*
D03*
X0171941Y0122353D02*
D03*
X0148713Y0118752D02*
D03*
X0152256Y0118752D02*
D03*
M02*
