M48
INCH,TZ
T01C0.011800
T02C0.025600
T03C0.033450
T04C0.039200
T05C0.043300
T06C0.059100
T07C0.082700
T08C0.177200
%
T01
X1851Y39774
X1851Y37411
X1851Y35049
X1851Y6703
X1851Y4341
X1851Y1978
X2098Y7996
X4213Y39774
X4213Y27963
X4213Y20876
X4213Y1978
X4700Y19200
X6496Y13858
X6496Y13031
X6575Y39774
X6575Y37411
X6575Y4341
X6575Y1978
X8000Y15900
X8000Y13100
X8500Y17500
X8937Y39774
X8937Y37411
X8937Y35049
X8937Y4341
X8937Y1978
X9088Y6052
X9300Y12700
X9400Y21900
X9508Y23533
X9510Y22551
X9511Y17689
X9700Y34500
X9900Y13200
X10100Y34700
X10300Y17600
X10531Y21869
X10700Y12800
X11000Y12600
X11003Y21900
X11181Y19370
X11220Y17283
X11220Y15748
X11299Y39774
X11299Y37411
X11299Y35049
X11299Y32687
X11299Y6703
X11299Y4341
X11299Y1978
X11300Y12300
X11300Y7400
X11400Y21900
X11528Y11600
X11700Y19700
X12900Y34600
X12900Y12500
X12900Y11500
X12900Y10000
X12900Y8428
X12900Y6700
X13000Y33400
X13000Y5500
X13300Y21800
X13400Y18500
X13400Y9500
X13400Y6500
X13600Y8600
X13622Y22598
X13656Y19749
X13661Y22992
X13662Y39774
X13662Y37411
X13662Y35049
X13662Y4341
X13662Y1978
X13700Y11400
X13800Y5500
X14100Y33400
X14100Y7600
X14228Y10500
X14646Y19803
X14900Y5800
X15100Y7200
X16024Y39774
X16024Y37411
X16024Y35049
X16024Y30325
X16024Y27963
X16024Y23238
X16024Y4341
X16024Y1978
X16052Y33948
X16100Y25000
X16300Y8600
X16575Y21181
X16700Y25000
X16929Y9488
X17000Y5500
X17100Y18272
X17561Y32950
X17700Y12500
X18300Y17600
X18386Y39774
X18386Y37411
X18386Y30325
X18386Y23238
X18386Y16152
X18386Y4341
X18386Y1978
X18400Y13100
X18500Y9411
X19055Y32756
X19252Y23504
X19400Y25500
X19400Y25100
X19424Y14176
X19424Y11222
X19500Y11800
X19600Y21500
X19606Y16142
X19961Y23504
X20551Y7441
X20748Y39774
X20748Y37411
X20748Y4341
X20748Y1978
X22795Y7441
X23110Y39774
X23110Y37411
X23110Y4341
X23110Y1978
X23819Y6878
X25473Y39774
X25473Y37411
X25473Y4341
X25473Y1978
X26181Y28976
X27100Y31300
X27835Y39774
X27835Y37411
X27835Y35049
X27835Y32687
X28200Y28500
X30315Y24449
X32165Y24921
X32559Y27963
X32559Y6703
X33400Y30900
X33400Y29700
X33500Y30300
X34922Y27963
X34922Y6703
X34922Y4341
X34922Y1978
X35000Y39200
X35800Y30500
X35866Y4567
X36142Y23701
X36142Y22362
X36260Y20630
X36299Y18858
X36650Y13250
X37284Y39774
X37284Y30325
X37284Y16152
X37284Y13789
X37284Y11427
X38242Y24255
X39646Y27963
X39646Y25600
X39646Y23238
X39646Y20876
X39646Y18514
X39646Y16152
X39646Y13789
X39646Y11427
X39646Y9065
X39646Y4341
X11505Y15038
X11505Y14644
X14937Y20723
X14937Y20369
X15037Y10623
X15037Y10269
X17184Y17581
X17184Y17109
X17184Y16637
X17184Y16164
X18362Y20723
X18362Y20349
X18362Y19975
X18462Y10623
X18462Y10249
X18462Y9875
X20274Y20222
X20274Y19278
X20274Y17860
X20274Y16915
X20274Y12663
X20274Y11246
X20274Y9396
X20274Y7978
X20274Y24002
X20274Y23057
X20274Y22585
X20274Y22112
X20274Y21640
X20274Y21167
X20274Y20695
X20274Y19750
X20274Y18805
X20274Y18333
X20274Y17388
X20274Y16443
X20274Y15970
X20274Y15498
X20274Y15026
X20274Y14553
X20274Y14081
X20274Y13608
X20274Y13136
X20274Y12191
X20274Y11718
X20274Y10774
X20274Y10301
X20274Y9868
X20274Y8923
X20274Y8451
X21140Y7742
X21258Y24159
X21455Y7742
X21652Y24159
X24093Y7742
X24171Y24159
X24407Y7742
X24722Y7742
X25037Y7742
X25352Y7742
X25667Y7742
X25877Y28566
X25877Y28172
X25982Y7742
X26297Y7742
X26612Y7742
X26927Y7742
X26927Y24159
X27242Y7742
X27321Y24159
X27557Y7742
X27715Y24159
X27872Y7742
X28108Y24159
X28187Y7742
X28502Y7742
X28502Y24159
X28817Y7742
X28896Y24159
X29132Y7742
X29289Y24159
X29447Y7742
X29683Y24159
X29762Y7742
X30077Y7742
X30392Y7742
X30707Y7742
X30904Y24159
X31022Y7742
X31219Y24159
X31337Y7742
X31652Y7742
X31967Y7742
X32281Y7742
X32596Y7742
X32911Y7742
X33226Y7742
X33541Y7742
X33856Y7742
X34171Y7742
X34486Y7742
X34801Y7742
X35825Y24159
X35825Y21797
X35825Y21482
X35825Y21167
X35825Y18096
X35825Y17781
X35825Y17467
X35825Y17152
X35825Y16837
X35825Y14671
X35825Y14356
X35825Y13726
X35825Y13411
X35825Y13096
X35825Y12781
X35825Y11837
X35825Y11522
X35825Y11207
X35825Y10892
X35825Y10577
X35825Y10262
X35825Y9632
X35825Y9317
X35825Y9002
X35825Y8687
X35825Y7742
X35825Y14041
X35825Y12467
X35825Y12152
X35825Y9947
X35825Y8372
X35825Y8057
X32794Y4036
X32302Y3573
X31249Y3426
X30285Y3436
X29300Y3632
X28288Y3476
X28227Y2638
X27834Y2284
X29202Y2195
X27755Y798
X32302Y867
X20395Y26938
X20123Y27574
X20337Y27959
X19696Y28388
X19656Y28724
X19853Y29314
X20129Y29570
X20247Y30101
X19853Y30397
X19656Y29905
X19656Y31086
X19656Y32661
X20129Y32641
X21240Y32933
X22287Y32908
X22609Y32620
X23662Y32545
X24774Y32661
X25562Y32661
X25089Y31657
X24444Y31651
X24504Y30405
X24971Y30495
X25139Y30015
X25562Y30298
X25140Y29130
X25836Y28958
X25877Y28566
X25877Y28172
X25195Y28266
X24885Y27777
X25272Y27460
X24875Y27030
X24486Y27409
X24411Y28133
X24459Y28566
X23143Y27581
X23143Y26952
X22224Y26938
X21369Y26938
X21592Y27580
X22176Y28605
X22569Y30052
X21822Y30101
X22255Y30611
X22844Y31609
X23790Y33566
X24722Y33633
X24774Y34038
X25562Y33842
X25168Y33251
X22694Y34391
X22736Y34797
X21907Y34381
X21642Y33978
X20205Y34055
X20614Y33420
X19774Y33187
X20274Y24002
X20673Y24079
X21258Y24160
X21652Y24160
X21912Y23402
X21928Y22688
X21951Y22404
X21770Y21798
X21770Y21483
X21958Y20917
X21958Y20491
X21770Y19908
X21770Y19593
X21940Y19024
X21949Y18739
X21748Y18051
X21748Y17667
X21974Y17156
X21958Y16714
X21770Y16128
X21770Y15813
X21867Y15233
X21928Y14849
X21770Y14239
X21770Y13924
X21928Y13294
X21928Y12979
X21770Y12349
X21770Y12034
X21928Y11404
X21928Y11089
X21770Y10459
X22006Y10223
X22873Y9947
X22754Y9632
X22479Y9435
X22479Y9081
X23404Y8993
X23424Y9495
X23702Y9432
X24546Y9534
X24684Y9160
X24959Y9056
X24447Y8953
X25773Y9232
X26270Y9240
X26298Y9554
X26691Y9514
X27479Y9632
X27555Y10227
X27597Y10617
X27608Y10951
X27321Y10695
X27161Y10443
X28025Y10280
X28412Y10264
X28572Y10509
X28817Y10123
X29525Y10213
X29802Y10144
X30668Y10262
X31022Y10459
X31583Y10232
X31967Y10211
X31671Y9410
X31450Y9087
X31426Y8704
X32886Y9125
X33536Y9174
X33719Y8955
X34134Y9517
X34327Y10241
X34014Y10617
X34162Y10861
X34841Y11010
X34723Y11286
X34930Y10064
X34804Y9786
X35323Y9642
X35424Y9327
X34868Y8704
X34858Y12613
X34908Y12911
X34269Y12857
X34059Y12518
X33384Y11921
X33148Y12113
X32912Y12349
X32676Y13176
X32572Y13795
X32912Y13766
X32484Y14076
X32282Y14278
X31337Y14121
X31313Y13687
X31573Y12861
X31573Y12546
X31157Y12402
X31258Y11758
X31967Y11719
X32138Y11491
X31495Y11168
X30550Y11168
X30235Y12113
X30235Y12428
X29668Y12349
X28699Y12428
X28699Y12034
X29176Y11756
X29285Y11042
X28528Y11178
X28151Y11164
X28069Y12231
X27350Y12152
X27361Y11837
X27276Y12725
X26495Y12506
X26416Y12191
X26534Y11561
X26389Y11315
X26141Y11021
X25668Y11384
X25668Y11778
X25353Y12428
X25356Y12743
X25353Y13058
X25489Y13687
X25678Y13954
X26219Y13845
X26455Y13632
X26050Y13482
X26219Y14475
X26495Y14396
X26534Y15262
X26180Y15341
X25353Y15341
X25356Y15026
X25392Y14711
X24959Y14435
X24644Y14435
X24359Y14426
X23817Y14199
X23817Y13609
X24054Y13235
X24684Y13235
X24546Y13668
X24408Y12211
X24698Y12216
X24546Y11384
X24684Y10951
X24054Y10951
X23817Y11325
X23817Y11916
X23069Y12487
X22971Y12994
X22971Y13279
X22971Y14883
X22971Y15169
X23055Y15442
X24054Y15518
X23817Y15892
X23817Y16443
X24408Y16778
X24698Y16783
X25368Y16974
X25356Y17309
X25353Y17624
X24684Y17802
X24546Y18235
X23817Y18136
X24054Y17802
X23087Y17564
X22932Y17059
X22971Y16773
X23327Y18306
X22971Y18663
X22971Y18948
X23621Y18963
X24322Y19013
X24999Y19032
X25294Y19019
X25653Y19032
X26140Y19042
X26573Y19002
X26701Y19382
X26721Y19667
X26219Y19829
X25786Y19691
X25786Y20223
X26049Y20682
X26290Y20844
X26410Y21246
X26181Y21465
X26464Y21864
X26810Y21542
X26896Y21050
X27379Y20983
X27715Y21017
X28099Y20971
X28384Y20971
X28936Y20971
X29684Y21010
X30274Y20813
X30476Y21059
X30933Y20868
X31507Y20917
X32165Y21372
X32676Y21335
X32991Y22034
X32097Y21962
X31613Y22118
X31534Y22506
X31530Y22900
X32098Y23488
X32085Y23884
X31219Y24160
X30904Y24160
X30510Y24121
X29684Y24160
X29290Y24160
X28896Y24160
X28502Y24160
X28109Y24160
X27715Y24160
X27321Y24160
X26928Y24160
X26407Y24019
X26201Y23505
X25884Y22979
X26022Y22664
X25784Y22487
X25579Y21827
X25294Y21814
X24999Y21827
X24644Y21798
X24787Y22279
X24794Y22781
X24369Y22624
X24043Y22741
X24015Y22353
X23621Y22684
X23069Y22723
X22971Y22442
X23040Y21680
X23040Y21207
X22971Y20838
X22971Y20553
X23030Y20144
X22991Y19790
X23621Y20203
X24054Y20144
X24369Y19829
X24762Y19967
X24762Y19337
X23929Y19463
X24054Y21207
X23621Y21443
X24651Y20667
X24934Y20626
X25510Y20695
X26711Y20538
X27027Y20138
X28212Y20093
X28817Y20134
X29231Y20156
X29802Y20144
X30313Y20134
X31022Y20134
X32046Y20093
X32316Y20193
X32425Y19290
X32104Y19292
X33039Y19266
X33240Y19062
X33168Y18619
X32754Y18569
X32469Y18569
X31648Y18569
X31259Y18583
X31258Y19106
X30973Y19106
X30954Y18820
X30707Y18609
X30353Y18687
X29900Y18574
X29907Y17668
X30016Y17385
X30274Y17506
X30591Y17755
X29487Y17743
X28705Y17595
X28306Y17506
X27961Y17693
X27046Y17979
X27030Y18508
X27286Y18651
X26288Y18687
X25995Y18333
X25685Y18253
X26219Y17585
X26233Y17100
X26518Y17113
X27499Y16952
X27542Y16544
X27263Y16483
X27558Y16207
X27582Y15558
X27297Y15567
X27577Y15144
X27440Y14893
X27973Y14406
X28266Y15299
X28270Y15782
X28630Y15518
X29132Y15184
X29605Y14711
X29644Y15617
X30825Y16089
X30786Y16404
X30288Y16683
X29851Y17152
X28660Y16680
X28857Y18530
X28266Y18766
X28325Y19081
X28389Y19491
X30373Y19278
X31840Y17753
X32282Y17743
X32912Y17821
X33197Y17813
X33671Y17681
X33948Y17753
X34447Y17624
X35032Y18077
X35587Y17309
X35700Y16513
X35655Y16188
X35697Y15900
X35694Y15581
X35688Y15267
X34802Y15656
X34831Y16276
X34831Y16562
X34841Y16847
X33836Y16702
X33542Y16640
X33030Y16985
X32282Y16837
X31770Y16995
X31691Y16089
X31603Y15734
X31337Y15459
X32479Y15656
X32203Y16109
X32912Y14947
X33384Y15420
X34322Y15420
X34526Y15026
X34925Y14686
X34843Y13737
X33581Y14554
X30128Y14239
X30246Y13727
X30065Y13505
X30246Y13285
X30023Y13107
X28857Y13254
X28660Y13766
X29369Y13884
X26446Y15969
X26101Y16207
X25668Y16345
X25668Y16050
X24546Y15951
X24684Y15518
X20471Y15735
X20274Y15498
X20471Y15262
X20274Y15026
X20471Y14790
X20274Y14554
X20471Y14317
X20274Y14081
X20471Y13845
X20274Y13609
X20471Y13372
X20274Y13136
X20471Y12900
X20274Y12664
X20471Y12428
X20274Y12191
X20471Y11955
X20274Y11719
X20471Y11483
X20274Y11246
X20471Y11010
X20274Y10774
X20471Y10538
X20274Y10302
X20274Y9869
X20471Y9632
X20274Y9396
X20471Y9160
X20274Y8924
X20471Y8687
X21178Y8991
X21178Y9464
X23030Y10498
X22971Y11104
X22971Y11389
X25353Y10774
X25356Y10459
X25353Y10144
X25298Y9858
X28315Y8756
X32676Y11050
X32958Y11009
X33545Y18490
X33876Y18814
X34152Y18739
X34017Y19063
X34467Y19455
X34351Y19723
X34190Y20013
X34177Y20313
X33896Y20262
X33266Y20026
X33001Y19651
X34851Y19522
X34695Y20193
X34388Y20945
X34543Y21314
X34248Y21333
X33844Y21183
X33857Y21512
X34056Y22006
X33854Y22869
X33763Y23278
X34329Y23215
X34408Y24061
X34014Y24081
X35294Y23491
X35747Y23451
X35747Y22369
X34950Y21729
X35047Y20989
X35589Y19969
X35471Y18963
X32911Y23008
X32676Y23176
X30958Y22204
X29552Y22594
X29526Y21788
X28817Y21788
X28109Y21788
X27400Y21788
X27016Y22223
X27247Y22538
X26572Y22908
X25619Y24032
X24999Y23422
X24329Y23747
X24172Y24160
X23621Y23924
X23030Y24121
X22833Y23569
X22351Y23806
X23166Y23170
X23955Y23294
X20865Y23569
X20305Y23526
X20471Y23294
X20274Y23058
X20471Y22821
X20274Y22585
X20471Y22349
X20274Y22113
X20471Y21876
X20274Y21640
X20471Y21404
X20274Y21168
X20471Y20932
X20274Y20695
X20471Y20459
X20274Y20223
X20471Y19987
X20274Y19750
X20471Y19514
X20274Y19278
X20471Y19042
X20274Y18806
X20471Y18569
X20274Y18333
X20471Y18097
X20274Y17861
X20471Y17624
X20274Y17388
X20471Y17152
X20274Y16916
X20471Y16680
X20274Y16443
X20471Y16207
X20274Y15971
X30077Y23609
X30237Y8571
X31002Y8609
X31218Y8422
X31337Y7743
X31652Y7743
X31967Y7743
X32282Y7743
X32597Y7743
X32912Y7743
X33227Y7743
X33542Y7743
X33857Y7743
X34172Y7743
X34487Y7743
X34802Y7743
X35117Y7821
X34802Y8144
X33972Y8016
X32754Y7981
X31810Y7981
X32152Y8598
X31022Y7743
X30707Y7743
X30392Y7743
X30077Y7743
X29762Y7743
X29447Y7743
X29132Y7743
X28817Y7743
X28502Y7743
X28187Y7743
X27873Y7743
X27558Y7743
X27243Y7743
X26928Y7743
X26613Y7743
X26298Y7743
X25983Y7743
X25668Y7743
X25353Y7743
X25038Y7743
X24723Y7743
X24408Y7743
X24093Y7743
X23968Y8571
X23266Y8569
X23109Y8254
X23355Y8109
X22794Y8136
X22479Y8018
X22203Y7939
X21810Y7939
X21455Y7743
X21140Y7743
X21170Y8087
X21171Y8549
X20274Y8451
X20471Y8215
X20274Y7979
X20589Y7782
X24644Y8254
X24699Y8594
X27593Y8026
X29182Y8353
X29182Y8648
X35825Y8372
X35825Y8058
X35825Y7743
X35825Y8687
X35825Y9002
X35825Y9317
X35825Y9632
X35825Y9947
X35825Y10262
X35825Y10577
X35825Y10892
X35825Y11207
X35825Y11522
X35825Y11837
X35825Y12152
X35825Y12467
X35825Y12782
X35825Y13097
X35825Y13412
X35825Y13727
X35825Y14042
X35825Y14357
X35825Y14672
X35825Y16837
X35825Y17152
X35825Y17467
X35825Y17782
X35825Y18097
X35799Y20233
X35825Y21168
X35825Y21483
X35825Y21798
X35825Y24160
X11633Y16144
X11633Y14176
X11672Y17483
X12499Y16066
X12656Y15003
X12774Y14176
X13011Y17483
X13404Y16577
X13444Y15593
X13995Y14963
X14034Y14176
X14428Y17483
X14664Y16774
X14743Y14176
X14829Y16083
X15255Y14530
X15766Y15396
X16003Y14451
X16160Y17483
X16475Y14176
X16793Y16658
X17066Y15790
X17066Y14451
X11505Y15038
X11505Y14644
X17184Y17581
X17184Y17109
X17184Y16637
X17184Y16164
X14942Y19829
X15094Y20082
X14936Y20369
X14936Y20724
X15938Y20390
X16212Y20285
X16455Y20498
X15905Y19985
X17384Y20725
X18361Y20724
X18361Y20350
X18361Y19976
X15042Y9729
X15194Y9982
X15036Y10269
X15036Y10624
X16038Y10290
X16312Y10185
X16555Y10398
X16005Y9885
X17484Y10625
X18461Y10624
X18461Y10250
X18461Y9876
T02
X37769Y5148
X37769Y2872
T03
X33800Y2863
X32800Y2863
X31800Y2863
X30800Y2863
X29800Y2863
X29800Y1863
X30800Y1863
X31800Y1863
X32800Y1863
X33800Y1863
X26376Y18294
X26258Y16601
X26298Y14869
X26258Y12979
X26258Y11837
X26258Y10656
X26731Y10144
T04
X19598Y34648
X19598Y33920
X19598Y31971
X19598Y27227
X25700Y34471
X25700Y31952
X25700Y31204
X25700Y29511
X25700Y27050
X36700Y29300
X36700Y28300
X36700Y27300
X19597Y27227
X19597Y31972
X25700Y31952
X25700Y31204
X25700Y29511
X25700Y27050
X25700Y34472
X19597Y34649
X19597Y33920
X35510Y23845
X34750Y20703
X35550Y20703
X35150Y18703
T05
X2618Y27362
X2618Y26362
X2618Y25362
X2618Y24362
X2618Y23362
X2618Y22362
X2618Y21362
X2618Y20362
X2618Y19362
X2618Y18362
X2618Y17362
X2618Y16362
X2618Y15362
X2618Y14362
X2618Y13362
X2618Y12362
X2618Y11362
X2618Y10362
X2618Y9362
X3618Y27362
X3618Y26362
X3618Y25362
X3618Y24362
X3618Y23362
X3618Y22362
X3618Y21362
X3618Y20362
X3618Y19362
X3618Y18362
X3618Y17362
X3618Y16362
X3618Y15362
X3618Y14362
X3618Y13362
X3618Y12362
X3618Y11362
X3618Y10362
X3618Y9362
X6000Y27362
X6000Y26362
X6000Y25362
X6000Y24362
X6000Y23362
X6000Y22362
X6000Y21362
X6000Y20362
X6000Y19362
X6000Y18362
X6000Y17362
X6000Y16362
X6000Y15362
X6000Y14362
X6000Y13362
X6000Y12362
X6000Y11362
X6000Y10362
X6000Y9362
X7000Y27362
X7000Y26362
X7000Y25362
X7000Y24362
X7000Y23362
X7000Y22362
X7000Y21362
X7000Y20362
X7000Y19362
X7000Y18362
X7000Y17362
X7000Y16362
X7000Y15362
X7000Y14362
X7000Y13362
X7000Y12362
X7000Y11362
X7000Y10362
X7000Y9362
T06
X3799Y32756
X3799Y30472
X4717Y31614
X7000Y32756
X7000Y30472
T07
X7004Y34724
X7004Y6772
T08
X3500Y36496
X3500Y5000
M30
