G75*
G70*
%OFA0B0*%
%FSLAX25Y25*%
%IPPOS*%
%LPD*%
%AMOC8*
5,1,8,0,0,1.08239X$1,22.5*
%
%ADD10C,0.02362*%
%ADD11R,0.09055X0.00787*%
%ADD112C,0.01181*%
%ADD12R,0.42126X0.00787*%
%ADD13R,0.08268X0.00787*%
%ADD14R,0.23622X0.00787*%
%ADD15R,0.21260X0.00787*%
%ADD158C,0.00492*%
%ADD16R,0.00787X0.05512*%
%ADD160C,0.04331*%
%ADD17R,0.00787X0.19685*%
%ADD18R,0.00787X0.26772*%
%ADD19R,0.00787X0.17717*%
%ADD20R,0.06299X0.00787*%
%ADD21R,0.22441X0.00787*%
%ADD22R,0.07874X0.00787*%
%ADD23C,0.07874*%
%ADD24O,0.00787X0.04823*%
%ADD25O,0.36614X0.00787*%
%ADD26C,0.06299*%
%ADD27C,0.05906*%
%ADD28O,0.00787X0.12992*%
%ADD29O,0.00787X0.40157*%
%ADD30O,0.00787X0.01181*%
%ADD31O,0.66929X0.00787*%
%ADD32O,0.60630X0.00787*%
%ADD33O,0.00787X0.18898*%
%ADD34O,0.00787X0.10236*%
%ADD35O,0.00787X0.03937*%
%ADD36O,0.00787X0.05906*%
%ADD40R,0.00984X0.24350*%
%ADD41R,0.00984X0.04390*%
%ADD42R,0.56201X0.00984*%
%ADD43R,0.59449X0.00984*%
%ADD44R,0.00984X0.20374*%
%ADD45C,0.00787*%
%ADD52C,0.01575*%
%ADD76C,0.01968*%
%ADD95O,0.00787X0.40158*%
X0000000Y0000000D02*
%LPD*%
G01*
D10*
X0332421Y0108161D03*
X0329272Y0108161D03*
X0326122Y0108161D03*
X0322972Y0108161D03*
X0319823Y0108161D03*
X0316673Y0108161D03*
X0313524Y0108161D03*
X0310374Y0108161D03*
X0307224Y0108161D03*
X0304075Y0108161D03*
X0300925Y0108161D03*
X0297776Y0108161D03*
X0294626Y0108161D03*
X0291476Y0108161D03*
X0288327Y0108161D03*
X0285177Y0108161D03*
X0282028Y0108161D03*
X0278878Y0108161D03*
X0275728Y0108161D03*
X0272579Y0108161D03*
X0269429Y0108161D03*
X0266280Y0108161D03*
X0263130Y0108161D03*
X0259980Y0108161D03*
X0256831Y0108161D03*
X0253681Y0108161D03*
X0250531Y0108161D03*
X0247382Y0108161D03*
X0244232Y0108161D03*
X0241083Y0108161D03*
X0237933Y0108161D03*
X0234783Y0108161D03*
X0231634Y0108161D03*
X0228484Y0108161D03*
X0225335Y0108161D03*
X0198957Y0108161D03*
X0195807Y0108161D03*
D11*
X0190492Y0273122D03*
D12*
X0319626Y0273122D03*
D13*
X0287343Y0273122D03*
D14*
X0239902Y0273122D03*
D15*
X0213524Y0273122D03*
D16*
X0186358Y0266035D03*
D17*
X0343445Y0260524D03*
D18*
X0343445Y0227059D03*
D19*
X0343445Y0188280D03*
D20*
X0337539Y0107374D03*
D21*
X0212146Y0107374D03*
D22*
X0189902Y0107374D03*
D10*
X0342657Y0108161D03*
X0342657Y0111311D03*
X0342657Y0114461D03*
X0342657Y0117610D03*
X0342657Y0120760D03*
X0342657Y0123909D03*
X0342657Y0127059D03*
X0342657Y0130209D03*
X0342657Y0133358D03*
X0342657Y0136508D03*
X0342657Y0139657D03*
X0342657Y0142807D03*
X0342657Y0145957D03*
X0342657Y0149106D03*
X0342657Y0152256D03*
X0342657Y0155406D03*
X0342657Y0158555D03*
X0342657Y0161705D03*
X0342657Y0164854D03*
X0342657Y0168004D03*
X0342657Y0171154D03*
X0342657Y0174303D03*
X0342657Y0177453D03*
X0342657Y0199106D03*
X0342657Y0202256D03*
X0342657Y0205406D03*
X0342657Y0208555D03*
X0342657Y0211705D03*
X0342657Y0242413D03*
X0342657Y0245563D03*
X0342657Y0248713D03*
X0342657Y0272335D03*
X0187146Y0110524D03*
X0187146Y0115248D03*
X0187146Y0119972D03*
X0187146Y0124697D03*
X0187146Y0129421D03*
X0187146Y0133752D03*
X0187146Y0138476D03*
X0187146Y0143201D03*
X0187146Y0147925D03*
X0187146Y0152650D03*
X0187146Y0157374D03*
X0187146Y0162098D03*
X0187146Y0166823D03*
X0187146Y0171547D03*
X0187146Y0176272D03*
X0187146Y0180996D03*
X0187146Y0185720D03*
X0187146Y0190445D03*
X0187146Y0195169D03*
X0187146Y0199894D03*
X0187146Y0204618D03*
X0187146Y0209343D03*
X0187146Y0214067D03*
X0187146Y0218791D03*
X0187146Y0223516D03*
X0187146Y0228240D03*
X0187146Y0232965D03*
X0187146Y0237689D03*
X0187146Y0242413D03*
X0187146Y0247138D03*
X0187146Y0251862D03*
X0187146Y0256587D03*
X0187146Y0261311D03*
X0187146Y0270760D03*
X0196988Y0272335D03*
X0200925Y0272335D03*
X0226122Y0272335D03*
X0253681Y0272335D03*
X0257618Y0272335D03*
X0261555Y0272335D03*
X0265492Y0272335D03*
X0269429Y0272335D03*
X0273366Y0272335D03*
X0277303Y0272335D03*
X0281240Y0272335D03*
X0293445Y0272335D03*
X0296594Y0272335D03*
X0151335Y0234642D03*
D24*
X0116295Y0226866D03*
D25*
X0134209Y0237004D03*
X0134209Y0224799D03*
D10*
X0151335Y0230902D03*
X0151335Y0227161D03*
X0117083Y0231098D03*
X0117083Y0234642D03*
D23*
X0050220Y0332677D03*
X0050220Y0309843D03*
X0059394Y0321260D03*
X0082228Y0332677D03*
X0082228Y0309843D03*
D26*
X0082228Y0098740D03*
X0082228Y0108740D03*
X0082228Y0118740D03*
X0082228Y0128740D03*
X0082228Y0138740D03*
X0082228Y0148740D03*
X0082228Y0158740D03*
X0082228Y0168740D03*
X0082228Y0178740D03*
X0082228Y0188740D03*
X0082228Y0198740D03*
X0082228Y0208740D03*
X0082228Y0218740D03*
X0082228Y0228740D03*
X0082228Y0238740D03*
X0082228Y0248740D03*
X0082228Y0258740D03*
X0082228Y0268740D03*
X0082228Y0278740D03*
X0072228Y0098740D03*
X0072228Y0108740D03*
X0072228Y0118740D03*
X0072228Y0128740D03*
X0072228Y0138740D03*
X0072228Y0148740D03*
X0072228Y0158740D03*
X0072228Y0168740D03*
X0072228Y0178740D03*
X0072228Y0188740D03*
X0072228Y0198740D03*
X0072228Y0208740D03*
X0072228Y0218740D03*
X0072228Y0228740D03*
X0072228Y0238740D03*
X0072228Y0248740D03*
X0072228Y0258740D03*
X0072228Y0268740D03*
X0072228Y0278740D03*
X0048409Y0098740D03*
X0048409Y0108740D03*
X0048409Y0118740D03*
X0048409Y0128740D03*
X0048409Y0138740D03*
X0048409Y0148740D03*
X0048409Y0158740D03*
X0048409Y0168740D03*
X0048409Y0178740D03*
X0048409Y0188740D03*
X0048409Y0198740D03*
X0048409Y0208740D03*
X0048409Y0218740D03*
X0048409Y0228740D03*
X0048409Y0238740D03*
X0048409Y0248740D03*
X0048409Y0258740D03*
X0048409Y0268740D03*
X0048409Y0278740D03*
X0038409Y0098740D03*
X0038409Y0108740D03*
X0038409Y0118740D03*
X0038409Y0128740D03*
X0038409Y0138740D03*
X0038409Y0148740D03*
X0038409Y0158740D03*
X0038409Y0168740D03*
X0038409Y0178740D03*
X0038409Y0188740D03*
X0038409Y0198740D03*
X0038409Y0208740D03*
X0038409Y0218740D03*
X0038409Y0228740D03*
X0038409Y0238740D03*
X0038409Y0248740D03*
X0038409Y0258740D03*
X0038409Y0268740D03*
X0038409Y0278740D03*
D27*
X0177413Y0173453D03*
X0177413Y0148256D03*
X0177413Y0140776D03*
X0177413Y0123846D03*
D10*
X0179185Y0114398D03*
X0179185Y0110461D03*
D28*
X0113831Y0158295D03*
D29*
X0113831Y0124831D03*
D30*
X0113831Y0096878D03*
D31*
X0146902Y0096681D03*
D32*
X0150051Y0177783D03*
D27*
X0177413Y0099240D03*
D30*
X0179972Y0177587D03*
D33*
X0179972Y0161051D03*
D34*
X0179972Y0132114D03*
D35*
X0179972Y0118335D03*
D36*
X0179972Y0105343D03*
D27*
X0116390Y0175224D03*
X0116390Y0167941D03*
X0116390Y0148453D03*
X0116390Y0101012D03*
D10*
X0175547Y0210041D03*
X0175547Y0205317D03*
X0175547Y0214766D03*
X0175547Y0219490D03*
D40*
X0117870Y0208988D03*
D41*
X0117870Y0185169D03*
D42*
X0145478Y0220671D03*
D43*
X0147102Y0183467D03*
D44*
X0176335Y0193161D03*
D10*
X0118756Y0194057D03*
X0118756Y0190120D03*
X0113437Y0096287D02*
G01*
G75*
G36*
X0175518Y0177586D02*
X0174633Y0177075D01*
X0173790Y0176232D01*
X0173194Y0175200D01*
X0173156Y0175058D01*
X0167304Y0175058D01*
X0166689Y0174936D01*
X0166168Y0174588D01*
X0166168Y0174588D01*
X0162539Y0170958D01*
X0147424Y0170958D01*
X0141839Y0176543D01*
X0141318Y0176891D01*
X0140704Y0177013D01*
X0140704Y0177013D01*
X0128593Y0177013D01*
X0128593Y0177013D01*
X0127978Y0176891D01*
X0127457Y0176543D01*
X0122168Y0171254D01*
X0122078Y0171254D01*
X0121355Y0170954D01*
X0120851Y0170450D01*
X0120534Y0170383D01*
X0120220Y0170362D01*
X0120013Y0170720D01*
X0119543Y0171191D01*
X0119187Y0171582D01*
X0119543Y0171974D01*
X0120013Y0172444D01*
X0120609Y0173476D01*
X0120917Y0174628D01*
X0120917Y0175820D01*
X0120609Y0176972D01*
X0120254Y0177586D01*
X0120595Y0178177D01*
X0175360Y0178177D01*
X0175518Y0177586D01*
D02*
G37*
G36*
X0173194Y0171705D02*
X0173790Y0170672D01*
X0174633Y0169829D01*
X0175666Y0169233D01*
X0176817Y0168925D01*
X0178009Y0168925D01*
X0179161Y0169233D01*
X0179776Y0169588D01*
X0180366Y0169247D01*
X0180366Y0152461D01*
X0179776Y0152120D01*
X0179161Y0152474D01*
X0178009Y0152783D01*
X0176817Y0152783D01*
X0175666Y0152474D01*
X0174633Y0151878D01*
X0173790Y0151035D01*
X0173194Y0150003D01*
X0173156Y0149861D01*
X0170441Y0149861D01*
X0154347Y0165955D01*
X0153826Y0166303D01*
X0153211Y0166426D01*
X0153211Y0166426D01*
X0147886Y0166426D01*
X0147155Y0167156D01*
X0147400Y0167747D01*
X0163204Y0167747D01*
X0163204Y0167747D01*
X0163819Y0167869D01*
X0164339Y0168217D01*
X0167969Y0171847D01*
X0173156Y0171847D01*
X0173194Y0171705D01*
D02*
G37*
G36*
X0136041Y0170956D02*
X0135903Y0170259D01*
X0135727Y0170187D01*
X0135173Y0169633D01*
X0134873Y0168909D01*
X0134873Y0168820D01*
X0128930Y0162877D01*
X0128582Y0162356D01*
X0128459Y0161741D01*
X0128459Y0161741D01*
X0128459Y0147745D01*
X0128459Y0147745D01*
X0128582Y0147131D01*
X0128930Y0146610D01*
X0140995Y0134544D01*
X0140995Y0134455D01*
X0141295Y0133731D01*
X0141849Y0133178D01*
X0142572Y0132878D01*
X0143355Y0132878D01*
X0144079Y0133178D01*
X0144633Y0133731D01*
X0144932Y0134455D01*
X0144932Y0135238D01*
X0144633Y0135962D01*
X0144079Y0136515D01*
X0143355Y0136815D01*
X0143266Y0136815D01*
X0141342Y0138739D01*
X0141656Y0139260D01*
X0142111Y0139169D01*
X0173156Y0139169D01*
X0173194Y0139028D01*
X0173790Y0137995D01*
X0174633Y0137152D01*
X0175666Y0136556D01*
X0176817Y0136248D01*
X0178009Y0136248D01*
X0179161Y0136556D01*
X0179776Y0136911D01*
X0180366Y0136570D01*
X0180366Y0128051D01*
X0179776Y0127710D01*
X0179161Y0128065D01*
X0178009Y0128374D01*
X0176817Y0128374D01*
X0175666Y0128065D01*
X0174633Y0127469D01*
X0173790Y0126626D01*
X0173194Y0125594D01*
X0172886Y0124442D01*
X0172886Y0123250D01*
X0173194Y0122098D01*
X0173790Y0121066D01*
X0174633Y0120223D01*
X0175666Y0119627D01*
X0176817Y0119318D01*
X0178009Y0119318D01*
X0179161Y0119627D01*
X0179776Y0119982D01*
X0180366Y0119641D01*
X0180366Y0117545D01*
X0179776Y0117092D01*
X0179548Y0117153D01*
X0178822Y0117153D01*
X0178121Y0116965D01*
X0177493Y0116602D01*
X0176980Y0116089D01*
X0176698Y0115602D01*
X0172538Y0115602D01*
X0166610Y0121530D01*
X0166610Y0131152D01*
X0167130Y0131672D01*
X0167430Y0132396D01*
X0167430Y0133179D01*
X0167130Y0133902D01*
X0166576Y0134456D01*
X0165853Y0134756D01*
X0165070Y0134756D01*
X0164346Y0134456D01*
X0163792Y0133902D01*
X0163493Y0133179D01*
X0163493Y0132396D01*
X0163792Y0131672D01*
X0164201Y0131263D01*
X0164201Y0121031D01*
X0164201Y0121031D01*
X0164293Y0120570D01*
X0164554Y0120179D01*
X0171187Y0113546D01*
X0171188Y0113546D01*
X0171578Y0113285D01*
X0172039Y0113193D01*
X0176698Y0113193D01*
X0176980Y0112705D01*
X0177256Y0112429D01*
X0176980Y0112152D01*
X0176617Y0111524D01*
X0176429Y0110823D01*
X0176429Y0110097D01*
X0176617Y0109397D01*
X0176980Y0108768D01*
X0177493Y0108255D01*
X0178121Y0107892D01*
X0178822Y0107704D01*
X0179548Y0107704D01*
X0179776Y0107765D01*
X0180366Y0107312D01*
X0180366Y0096287D01*
X0118443Y0096287D01*
X0118285Y0096878D01*
X0119170Y0097388D01*
X0120013Y0098231D01*
X0120609Y0099264D01*
X0120917Y0100415D01*
X0120917Y0101607D01*
X0120609Y0102759D01*
X0120013Y0103791D01*
X0119170Y0104634D01*
X0118137Y0105230D01*
X0116986Y0105539D01*
X0115794Y0105539D01*
X0114642Y0105230D01*
X0114028Y0104876D01*
X0113437Y0105216D01*
X0113437Y0144247D01*
X0114028Y0144588D01*
X0114642Y0144233D01*
X0115794Y0143925D01*
X0116986Y0143925D01*
X0118137Y0144233D01*
X0119170Y0144829D01*
X0120013Y0145672D01*
X0120609Y0146705D01*
X0120917Y0147856D01*
X0120917Y0149048D01*
X0120609Y0150200D01*
X0120013Y0151232D01*
X0119170Y0152075D01*
X0118137Y0152671D01*
X0116986Y0152980D01*
X0115794Y0152980D01*
X0114642Y0152671D01*
X0114028Y0152316D01*
X0113437Y0152658D01*
X0113437Y0163735D01*
X0114028Y0164076D01*
X0114642Y0163722D01*
X0115794Y0163413D01*
X0116986Y0163413D01*
X0118137Y0163722D01*
X0119170Y0164318D01*
X0120013Y0165161D01*
X0120281Y0165626D01*
X0120543Y0165754D01*
X0121031Y0165810D01*
X0121492Y0165719D01*
X0124890Y0165719D01*
X0124890Y0165719D01*
X0125351Y0165810D01*
X0125742Y0166071D01*
X0131744Y0172074D01*
X0134923Y0172074D01*
X0136041Y0170956D01*
D02*
G37*
G36*
X0144997Y0162000D02*
X0145388Y0161739D01*
X0145849Y0161647D01*
X0145849Y0161647D01*
X0151897Y0161647D01*
X0168792Y0144752D01*
X0169182Y0144491D01*
X0169546Y0144419D01*
X0169642Y0144188D01*
X0170196Y0143634D01*
X0170919Y0143334D01*
X0171703Y0143334D01*
X0172426Y0143634D01*
X0172980Y0144188D01*
X0173279Y0144911D01*
X0173279Y0145180D01*
X0173546Y0145334D01*
X0173870Y0145396D01*
X0174350Y0144916D01*
X0174569Y0144515D01*
X0174350Y0144114D01*
X0173790Y0143555D01*
X0173194Y0142523D01*
X0173156Y0142381D01*
X0142776Y0142381D01*
X0134427Y0150730D01*
X0134427Y0156886D01*
X0134490Y0156950D01*
X0134789Y0157673D01*
X0134789Y0158456D01*
X0134490Y0159180D01*
X0133936Y0159733D01*
X0133212Y0160033D01*
X0132429Y0160033D01*
X0132261Y0159963D01*
X0131671Y0160358D01*
X0131671Y0161076D01*
X0137144Y0166549D01*
X0137233Y0166549D01*
X0137957Y0166849D01*
X0138511Y0167403D01*
X0138583Y0167579D01*
X0139280Y0167717D01*
X0144997Y0162000D01*
D02*
G37*
%LPC*%
G36*
X0168033Y0167032D02*
X0167250Y0167032D01*
X0166526Y0166733D01*
X0165973Y0166179D01*
X0165673Y0165455D01*
X0165673Y0164672D01*
X0165973Y0163949D01*
X0166526Y0163395D01*
X0167250Y0163095D01*
X0168033Y0163095D01*
X0168757Y0163395D01*
X0169310Y0163949D01*
X0169610Y0164672D01*
X0169610Y0165455D01*
X0169310Y0166179D01*
X0168757Y0166733D01*
X0168033Y0167032D01*
D02*
G37*
G36*
X0122096Y0157117D02*
X0121313Y0157117D01*
X0120590Y0156817D01*
X0120036Y0156263D01*
X0119736Y0155540D01*
X0119736Y0154756D01*
X0120036Y0154033D01*
X0120590Y0153479D01*
X0121313Y0153180D01*
X0121686Y0153180D01*
X0124237Y0150629D01*
X0124237Y0128957D01*
X0121686Y0126407D01*
X0121313Y0126407D01*
X0120590Y0126107D01*
X0120036Y0125553D01*
X0119736Y0124830D01*
X0119736Y0124047D01*
X0120036Y0123323D01*
X0120590Y0122769D01*
X0121313Y0122470D01*
X0122096Y0122470D01*
X0122820Y0122769D01*
X0123374Y0123323D01*
X0123673Y0124047D01*
X0123673Y0124420D01*
X0126635Y0127382D01*
X0126940Y0127837D01*
X0127047Y0128375D01*
X0127047Y0151211D01*
X0126940Y0151749D01*
X0126635Y0152205D01*
X0123673Y0155167D01*
X0123673Y0155540D01*
X0123374Y0156263D01*
X0122820Y0156817D01*
X0122096Y0157117D01*
D02*
G37*
G36*
X0142569Y0116759D02*
X0141786Y0116759D01*
X0141062Y0116460D01*
X0140508Y0115906D01*
X0140209Y0115182D01*
X0140209Y0114399D01*
X0140508Y0113676D01*
X0141062Y0113122D01*
X0141786Y0112822D01*
X0142569Y0112822D01*
X0143292Y0113122D01*
X0143846Y0113676D01*
X0144146Y0114399D01*
X0144146Y0115182D01*
X0143846Y0115906D01*
X0143292Y0116460D01*
X0142569Y0116759D01*
D02*
G37*
G36*
X0117766Y0114587D02*
X0116982Y0114587D01*
X0116259Y0114287D01*
X0115705Y0113734D01*
X0115406Y0113010D01*
X0115406Y0112227D01*
X0115705Y0111504D01*
X0116259Y0110950D01*
X0116982Y0110650D01*
X0117766Y0110650D01*
X0118489Y0110950D01*
X0119043Y0111504D01*
X0119343Y0112227D01*
X0119343Y0113010D01*
X0119043Y0113734D01*
X0118489Y0114287D01*
X0117766Y0114587D01*
D02*
G37*
%LPD*%
D45*
X0135422Y0173278D02*
X0145849Y0162851D01*
X0152396Y0162851D01*
X0120474Y0167940D02*
X0121492Y0166923D01*
X0124890Y0166923D02*
X0131246Y0173278D01*
X0116390Y0167940D02*
X0120474Y0167940D01*
X0121492Y0166923D02*
X0124890Y0166923D01*
X0131246Y0173278D02*
X0135422Y0173278D01*
X0152396Y0162851D02*
X0169643Y0145604D01*
X0171010Y0145604D01*
X0171311Y0145303D01*
X0165405Y0121031D02*
X0165405Y0132731D01*
X0165461Y0132787D01*
X0172039Y0114397D02*
X0179185Y0114397D01*
X0165405Y0121031D02*
X0172039Y0114397D01*
D52*
X0130065Y0147745D02*
X0130065Y0161741D01*
X0136842Y0168518D01*
X0139491Y0172549D02*
X0147221Y0164820D01*
X0140704Y0175408D02*
X0146759Y0169353D01*
X0147221Y0164820D02*
X0153211Y0164820D01*
X0146759Y0169353D02*
X0163204Y0169353D01*
X0128593Y0175408D02*
X0140704Y0175408D01*
X0153211Y0164820D02*
X0169776Y0148255D01*
X0177413Y0148255D01*
X0130065Y0147745D02*
X0142964Y0134847D01*
X0132821Y0150065D02*
X0142111Y0140775D01*
X0132821Y0150065D02*
X0132821Y0158065D01*
X0142111Y0140775D02*
X0177413Y0140775D01*
X0122470Y0169285D02*
X0128593Y0175408D01*
X0163204Y0169353D02*
X0167304Y0173452D01*
X0177413Y0173452D01*
D36*
X0179972Y0105342D02*
D03*
D35*
X0179972Y0118334D02*
D03*
D95*
X0113831Y0124830D02*
D03*
D31*
X0146902Y0096681D02*
D03*
D33*
X0179972Y0161051D02*
D03*
D34*
X0179972Y0132114D02*
D03*
D28*
X0113831Y0158295D02*
D03*
D32*
X0150051Y0177783D02*
D03*
D30*
X0113831Y0096878D02*
D03*
X0179972Y0177586D02*
D03*
D10*
X0179185Y0114397D02*
D03*
X0147359Y0172649D02*
D03*
X0139491Y0172549D02*
D03*
X0136842Y0168518D02*
D03*
X0171311Y0145303D02*
D03*
X0178782Y0118316D02*
D03*
X0165461Y0132787D02*
D03*
X0165012Y0114397D02*
D03*
X0171805Y0128892D02*
D03*
X0171813Y0120041D02*
D03*
X0142964Y0134847D02*
D03*
X0148852Y0144826D02*
D03*
X0146103Y0129254D02*
D03*
X0118949Y0132704D02*
D03*
X0122886Y0129752D02*
D03*
X0143288Y0157822D02*
D03*
X0164528Y0110067D02*
D03*
X0151843Y0104549D02*
D03*
X0172370Y0111396D02*
D03*
X0121643Y0104480D02*
D03*
X0124362Y0098115D02*
D03*
X0134106Y0098115D02*
D03*
X0169163Y0099036D02*
D03*
X0173136Y0103341D02*
D03*
X0164856Y0145251D02*
D03*
X0170130Y0133689D02*
D03*
X0176035Y0131720D02*
D03*
X0176035Y0167153D02*
D03*
X0172098Y0161248D02*
D03*
X0176035Y0155342D02*
D03*
X0168161Y0169122D02*
D03*
X0126555Y0162936D02*
D03*
X0118160Y0160609D02*
D03*
X0116980Y0155342D02*
D03*
X0116980Y0139594D02*
D03*
X0116980Y0127783D02*
D03*
X0118949Y0121878D02*
D03*
X0116980Y0115972D02*
D03*
X0122470Y0169285D02*
D03*
X0132821Y0158065D02*
D03*
X0123791Y0108331D02*
D03*
X0151843Y0098256D02*
D03*
X0158319Y0164397D02*
D03*
X0146508Y0154940D02*
D03*
X0121705Y0155148D02*
D03*
X0121705Y0124438D02*
D03*
X0157039Y0154192D02*
D03*
X0168161Y0155342D02*
D03*
X0169271Y0106509D02*
D03*
X0147780Y0176712D02*
D03*
X0136332Y0104537D02*
D03*
X0138634Y0129752D02*
D03*
X0142659Y0098115D02*
D03*
X0165281Y0102825D02*
D03*
D27*
X0116390Y0167940D02*
D03*
X0177413Y0148255D02*
D03*
X0177413Y0173452D02*
D03*
X0177413Y0140775D02*
D03*
X0177413Y0099240D02*
D03*
D112*
X0125642Y0128375D02*
X0125642Y0151211D01*
X0121705Y0155148D02*
X0125642Y0151211D01*
X0121705Y0124438D02*
X0125642Y0128375D01*
X0121705Y0124438D02*
X0121705Y0124438D01*
X0185965Y0273516D02*
G01*
G75*
G36*
X0343055Y0183763D02*
X0342785Y0184414D01*
X0342287Y0184913D01*
X0341636Y0185182D01*
X0340931Y0185182D01*
X0340280Y0184913D01*
X0339781Y0184414D01*
X0339512Y0183763D01*
X0339512Y0183058D01*
X0339781Y0182407D01*
X0339786Y0182403D01*
X0339750Y0182225D01*
X0339750Y0161925D01*
X0338246Y0160421D01*
X0336996Y0161671D01*
X0336996Y0161671D01*
X0333121Y0165545D01*
X0333143Y0165818D01*
X0333371Y0166410D01*
X0333836Y0166603D01*
X0334334Y0167101D01*
X0334604Y0167752D01*
X0334604Y0167889D01*
X0337540Y0170826D01*
X0337845Y0171282D01*
X0337952Y0171819D01*
X0337952Y0199518D01*
X0340159Y0201726D01*
X0341051Y0201506D01*
X0341156Y0201253D01*
X0341213Y0201196D01*
X0341600Y0200681D01*
X0341213Y0200167D01*
X0341156Y0200110D01*
X0340886Y0199459D01*
X0340886Y0198754D01*
X0341156Y0198103D01*
X0341654Y0197605D01*
X0342306Y0197335D01*
X0343010Y0197335D01*
X0343052Y0197352D01*
X0343839Y0196826D01*
X0343839Y0190479D01*
X0343052Y0190323D01*
X0342880Y0190736D01*
X0342382Y0191235D01*
X0342331Y0191491D01*
X0342456Y0191616D01*
X0342726Y0192268D01*
X0342726Y0192972D01*
X0342456Y0193623D01*
X0341958Y0194122D01*
X0341306Y0194392D01*
X0340602Y0194392D01*
X0339951Y0194122D01*
X0339452Y0193623D01*
X0339182Y0192972D01*
X0339182Y0192268D01*
X0339452Y0191616D01*
X0339951Y0191118D01*
X0340001Y0190861D01*
X0339876Y0190736D01*
X0339607Y0190085D01*
X0339607Y0189380D01*
X0339876Y0188729D01*
X0340375Y0188231D01*
X0341026Y0187961D01*
X0341731Y0187961D01*
X0342382Y0188231D01*
X0342880Y0188729D01*
X0343052Y0189143D01*
X0343839Y0188986D01*
X0343839Y0183771D01*
X0343055Y0183763D01*
D02*
G37*
G36*
X0341213Y0112372D02*
X0341156Y0112315D01*
X0340886Y0111664D01*
X0340886Y0110959D01*
X0341156Y0110308D01*
X0341213Y0110251D01*
X0341600Y0109736D01*
X0341213Y0109222D01*
X0341156Y0109165D01*
X0340886Y0108514D01*
X0340886Y0107809D01*
X0340903Y0107768D01*
X0340377Y0106981D01*
X0334702Y0106981D01*
X0334176Y0107768D01*
X0334193Y0107809D01*
X0334193Y0108514D01*
X0333924Y0109165D01*
X0333425Y0109664D01*
X0333239Y0109741D01*
X0333239Y0110593D01*
X0333425Y0110670D01*
X0333924Y0111169D01*
X0334193Y0111820D01*
X0334193Y0112525D01*
X0333924Y0113176D01*
X0333425Y0113674D01*
X0332774Y0113944D01*
X0332069Y0113944D01*
X0331418Y0113674D01*
X0330920Y0113176D01*
X0330650Y0112525D01*
X0330650Y0112253D01*
X0329863Y0111927D01*
X0326047Y0115742D01*
X0326373Y0116530D01*
X0327463Y0116530D01*
X0327790Y0116595D01*
X0328067Y0116780D01*
X0331194Y0119907D01*
X0341094Y0119907D01*
X0341156Y0119756D01*
X0341213Y0119700D01*
X0341600Y0119185D01*
X0341213Y0118671D01*
X0341156Y0118614D01*
X0340886Y0117963D01*
X0340886Y0117258D01*
X0341156Y0116607D01*
X0341213Y0116550D01*
X0341600Y0116036D01*
X0341213Y0115521D01*
X0341156Y0115464D01*
X0340886Y0114813D01*
X0340886Y0114109D01*
X0341156Y0113457D01*
X0341213Y0113400D01*
X0341600Y0112886D01*
X0341213Y0112372D01*
D02*
G37*
G36*
X0343052Y0213459D02*
X0343010Y0213477D01*
X0342306Y0213477D01*
X0341654Y0213207D01*
X0341237Y0212790D01*
X0340856Y0212845D01*
X0340450Y0213031D01*
X0340450Y0215216D01*
X0342621Y0217387D01*
X0342806Y0217664D01*
X0342871Y0217991D01*
X0342871Y0221569D01*
X0342806Y0221895D01*
X0342621Y0222172D01*
X0332939Y0231854D01*
X0333130Y0232316D01*
X0333130Y0233021D01*
X0333550Y0233799D01*
X0333826Y0233984D01*
X0336443Y0236601D01*
X0337325Y0236370D01*
X0337558Y0235966D01*
X0338104Y0235420D01*
X0338773Y0235034D01*
X0339520Y0234834D01*
X0340292Y0234834D01*
X0341038Y0235034D01*
X0341708Y0235420D01*
X0342254Y0235966D01*
X0342640Y0236635D01*
X0342840Y0237382D01*
X0342840Y0238154D01*
X0342640Y0238901D01*
X0342254Y0239570D01*
X0342173Y0239650D01*
X0342129Y0239732D01*
X0342151Y0240541D01*
X0342306Y0240642D01*
X0343010Y0240642D01*
X0343052Y0240659D01*
X0343839Y0240133D01*
X0343839Y0213986D01*
X0343052Y0213459D01*
D02*
G37*
G36*
X0343052Y0250467D02*
X0343010Y0250485D01*
X0342306Y0250485D01*
X0341654Y0250215D01*
X0341156Y0249716D01*
X0340886Y0249065D01*
X0340886Y0248360D01*
X0341156Y0247709D01*
X0341213Y0247652D01*
X0341600Y0247138D01*
X0341213Y0246624D01*
X0341156Y0246567D01*
X0341059Y0246333D01*
X0340159Y0246119D01*
X0326245Y0260032D01*
X0325969Y0260217D01*
X0325642Y0260282D01*
X0324508Y0260282D01*
X0324446Y0260433D01*
X0323948Y0260931D01*
X0323297Y0261201D01*
X0323121Y0261201D01*
X0322964Y0261988D01*
X0323036Y0262018D01*
X0323534Y0262516D01*
X0323804Y0263167D01*
X0323804Y0263872D01*
X0323534Y0264524D01*
X0323036Y0265022D01*
X0322384Y0265292D01*
X0321680Y0265292D01*
X0321029Y0265022D01*
X0320530Y0264524D01*
X0320260Y0263872D01*
X0320260Y0263167D01*
X0320530Y0262516D01*
X0321029Y0262018D01*
X0321680Y0261748D01*
X0321855Y0261748D01*
X0322012Y0260961D01*
X0321941Y0260931D01*
X0321442Y0260433D01*
X0321172Y0259782D01*
X0321172Y0259077D01*
X0321442Y0258426D01*
X0321941Y0257927D01*
X0322592Y0257658D01*
X0323297Y0257658D01*
X0323948Y0257927D01*
X0324446Y0258426D01*
X0324508Y0258576D01*
X0325289Y0258576D01*
X0328236Y0255630D01*
X0327910Y0254842D01*
X0322799Y0254842D01*
X0322261Y0254735D01*
X0321805Y0254431D01*
X0316881Y0249506D01*
X0316344Y0249573D01*
X0315926Y0250342D01*
X0316083Y0250723D01*
X0316083Y0251427D01*
X0315813Y0252079D01*
X0315315Y0252577D01*
X0314664Y0252847D01*
X0313959Y0252847D01*
X0313308Y0252577D01*
X0312810Y0252079D01*
X0312540Y0251427D01*
X0312540Y0250723D01*
X0312810Y0250071D01*
X0312464Y0249303D01*
X0284443Y0249303D01*
X0281679Y0252068D01*
X0281223Y0252373D01*
X0280685Y0252480D01*
X0256426Y0252480D01*
X0256339Y0252611D01*
X0256339Y0253316D01*
X0256069Y0253967D01*
X0255571Y0254465D01*
X0254920Y0254735D01*
X0254215Y0254735D01*
X0253564Y0254465D01*
X0253066Y0253967D01*
X0252410Y0254340D01*
X0250430Y0256320D01*
X0250731Y0257048D01*
X0251452Y0257048D01*
X0251779Y0257113D01*
X0252055Y0257298D01*
X0252500Y0257743D01*
X0293555Y0257743D01*
X0298070Y0253228D01*
X0298347Y0253043D01*
X0298760Y0252264D01*
X0298760Y0251559D01*
X0299030Y0250908D01*
X0299528Y0250410D01*
X0300180Y0250140D01*
X0300884Y0250140D01*
X0301535Y0250410D01*
X0302034Y0250908D01*
X0302304Y0251559D01*
X0302304Y0252264D01*
X0302860Y0252978D01*
X0306525Y0252978D01*
X0306851Y0253043D01*
X0307128Y0253228D01*
X0313010Y0259110D01*
X0313160Y0259047D01*
X0313865Y0259047D01*
X0314516Y0259317D01*
X0315015Y0259816D01*
X0315285Y0260467D01*
X0315285Y0261172D01*
X0315015Y0261823D01*
X0314516Y0262321D01*
X0313865Y0262591D01*
X0313160Y0262591D01*
X0312509Y0262321D01*
X0312011Y0261823D01*
X0311741Y0261172D01*
X0311741Y0260467D01*
X0311803Y0260316D01*
X0306171Y0254684D01*
X0302052Y0254684D01*
X0301516Y0255447D01*
X0301516Y0256152D01*
X0301246Y0256803D01*
X0300748Y0257301D01*
X0300347Y0257467D01*
X0296361Y0261454D01*
X0295840Y0261802D01*
X0295226Y0261924D01*
X0295226Y0261924D01*
X0250729Y0261924D01*
X0250729Y0261924D01*
X0250115Y0261802D01*
X0249801Y0261592D01*
X0249772Y0261592D01*
X0249121Y0261322D01*
X0248623Y0260824D01*
X0248620Y0260818D01*
X0247692Y0260634D01*
X0240850Y0267475D01*
X0240573Y0267660D01*
X0240247Y0267725D01*
X0233595Y0267725D01*
X0233269Y0267660D01*
X0232992Y0267475D01*
X0225363Y0259846D01*
X0225188Y0259919D01*
X0224483Y0259919D01*
X0223832Y0259649D01*
X0223334Y0259151D01*
X0223064Y0258499D01*
X0223064Y0258335D01*
X0222277Y0258179D01*
X0222113Y0258575D01*
X0221614Y0259073D01*
X0220963Y0259343D01*
X0220258Y0259343D01*
X0219607Y0259073D01*
X0219109Y0258575D01*
X0218839Y0257923D01*
X0218839Y0257786D01*
X0217617Y0256565D01*
X0215215Y0256565D01*
X0215118Y0256662D01*
X0214467Y0256931D01*
X0213762Y0256931D01*
X0213111Y0256662D01*
X0212613Y0256163D01*
X0211714Y0256052D01*
X0208823Y0258943D01*
X0209124Y0259671D01*
X0214913Y0259671D01*
X0215173Y0259497D01*
X0215500Y0259432D01*
X0216635Y0259432D01*
X0216961Y0259497D01*
X0217238Y0259682D01*
X0218590Y0261034D01*
X0218590Y0261034D01*
X0220376Y0262821D01*
X0222393Y0262821D01*
X0222455Y0262670D01*
X0222954Y0262172D01*
X0223605Y0261902D01*
X0224309Y0261902D01*
X0224961Y0262172D01*
X0225459Y0262670D01*
X0225729Y0263321D01*
X0225729Y0264026D01*
X0225459Y0264677D01*
X0224961Y0265175D01*
X0224309Y0265445D01*
X0223605Y0265445D01*
X0222954Y0265175D01*
X0222455Y0264677D01*
X0222393Y0264526D01*
X0220023Y0264526D01*
X0219697Y0264462D01*
X0219420Y0264277D01*
X0218467Y0263324D01*
X0217569Y0263435D01*
X0217071Y0263934D01*
X0217006Y0263960D01*
X0216821Y0264889D01*
X0219132Y0267200D01*
X0224503Y0267200D01*
X0224830Y0267265D01*
X0225106Y0267450D01*
X0225200Y0267544D01*
X0226128Y0267359D01*
X0226195Y0267197D01*
X0226694Y0266699D01*
X0227345Y0266429D01*
X0228050Y0266429D01*
X0228701Y0266699D01*
X0229199Y0267197D01*
X0229469Y0267849D01*
X0229469Y0268553D01*
X0229418Y0268677D01*
X0229944Y0269464D01*
X0239370Y0269464D01*
X0239664Y0269523D01*
X0240241Y0269284D01*
X0240946Y0269284D01*
X0241597Y0269553D01*
X0242095Y0270052D01*
X0242365Y0270703D01*
X0242365Y0271408D01*
X0242095Y0272059D01*
X0241597Y0272557D01*
X0241184Y0272729D01*
X0241340Y0273516D01*
X0251401Y0273516D01*
X0251927Y0272729D01*
X0251910Y0272687D01*
X0251910Y0271982D01*
X0252180Y0271331D01*
X0252678Y0270833D01*
X0253329Y0270563D01*
X0254034Y0270563D01*
X0254685Y0270833D01*
X0255183Y0271331D01*
X0255224Y0271429D01*
X0256076Y0271429D01*
X0256117Y0271331D01*
X0256615Y0270833D01*
X0257266Y0270563D01*
X0257971Y0270563D01*
X0258622Y0270833D01*
X0259120Y0271331D01*
X0259161Y0271429D01*
X0260013Y0271429D01*
X0260054Y0271331D01*
X0260552Y0270833D01*
X0261203Y0270563D01*
X0261908Y0270563D01*
X0262559Y0270833D01*
X0263057Y0271331D01*
X0263098Y0271429D01*
X0263950Y0271429D01*
X0263991Y0271331D01*
X0264489Y0270833D01*
X0265140Y0270563D01*
X0265845Y0270563D01*
X0266496Y0270833D01*
X0266994Y0271331D01*
X0267035Y0271429D01*
X0267887Y0271429D01*
X0267928Y0271331D01*
X0268426Y0270833D01*
X0269077Y0270563D01*
X0269782Y0270563D01*
X0270433Y0270833D01*
X0270931Y0271331D01*
X0270972Y0271429D01*
X0271824Y0271429D01*
X0271865Y0271331D01*
X0272363Y0270833D01*
X0273014Y0270563D01*
X0273719Y0270563D01*
X0274370Y0270833D01*
X0274868Y0271331D01*
X0274909Y0271429D01*
X0275761Y0271429D01*
X0275802Y0271331D01*
X0276300Y0270833D01*
X0276951Y0270563D01*
X0277656Y0270563D01*
X0278307Y0270833D01*
X0278805Y0271331D01*
X0278846Y0271429D01*
X0279698Y0271429D01*
X0279739Y0271331D01*
X0280237Y0270833D01*
X0280888Y0270563D01*
X0281593Y0270563D01*
X0282244Y0270833D01*
X0282742Y0271331D01*
X0283012Y0271982D01*
X0283012Y0272687D01*
X0282995Y0272729D01*
X0283521Y0273516D01*
X0291165Y0273516D01*
X0291691Y0272729D01*
X0291674Y0272687D01*
X0291674Y0271982D01*
X0291943Y0271331D01*
X0292442Y0270833D01*
X0293093Y0270563D01*
X0293798Y0270563D01*
X0294449Y0270833D01*
X0294506Y0270890D01*
X0295020Y0271277D01*
X0295535Y0270890D01*
X0295591Y0270833D01*
X0296242Y0270563D01*
X0296947Y0270563D01*
X0297599Y0270833D01*
X0298097Y0271331D01*
X0298367Y0271982D01*
X0298367Y0272687D01*
X0298349Y0272729D01*
X0298876Y0273516D01*
X0339663Y0273516D01*
X0340203Y0272729D01*
X0340113Y0272495D01*
X0340099Y0272491D01*
X0339949Y0272532D01*
X0339068Y0272532D01*
X0338217Y0272304D01*
X0337454Y0271863D01*
X0336830Y0271240D01*
X0336390Y0270477D01*
X0336162Y0269626D01*
X0336162Y0268745D01*
X0336390Y0267894D01*
X0336518Y0267671D01*
X0336339Y0267144D01*
X0335841Y0266646D01*
X0335571Y0265994D01*
X0335571Y0265290D01*
X0335841Y0264638D01*
X0336339Y0264140D01*
X0336990Y0263870D01*
X0337695Y0263870D01*
X0338347Y0264140D01*
X0338845Y0264638D01*
X0339115Y0265290D01*
X0339115Y0265839D01*
X0339949Y0265839D01*
X0340800Y0266067D01*
X0341563Y0266507D01*
X0342186Y0267131D01*
X0342627Y0267894D01*
X0342855Y0268745D01*
X0342855Y0269626D01*
X0342815Y0269776D01*
X0342818Y0269790D01*
X0343052Y0269880D01*
X0343839Y0269340D01*
X0343839Y0250993D01*
X0343052Y0250467D01*
D02*
G37*
G36*
X0333406Y0143947D02*
X0333136Y0144598D01*
X0332638Y0145097D01*
X0331987Y0145366D01*
X0331848Y0145366D01*
X0331848Y0157873D01*
X0332107Y0158066D01*
X0332635Y0158286D01*
X0333137Y0158078D01*
X0333274Y0158078D01*
X0334193Y0157159D01*
X0334193Y0143948D01*
X0333406Y0143947D01*
D02*
G37*
G36*
X0332617Y0169876D02*
X0332480Y0169876D01*
X0331828Y0169606D01*
X0331330Y0169108D01*
X0331137Y0168643D01*
X0330546Y0168416D01*
X0330273Y0168394D01*
X0326490Y0172177D01*
X0326490Y0182638D01*
X0327276Y0183165D01*
X0327981Y0183165D01*
X0328632Y0183434D01*
X0329131Y0183933D01*
X0329400Y0184584D01*
X0329400Y0185289D01*
X0329131Y0185940D01*
X0328632Y0186438D01*
X0328256Y0186594D01*
X0328017Y0187333D01*
X0328025Y0187477D01*
X0328649Y0188100D01*
X0328834Y0188377D01*
X0328899Y0188703D01*
X0328899Y0198492D01*
X0330353Y0199947D01*
X0330952Y0199608D01*
X0331044Y0199524D01*
X0331044Y0198852D01*
X0331314Y0198200D01*
X0331687Y0197827D01*
X0331215Y0197355D01*
X0330945Y0196704D01*
X0330945Y0195999D01*
X0331215Y0195348D01*
X0331713Y0194849D01*
X0332365Y0194580D01*
X0333069Y0194580D01*
X0333721Y0194849D01*
X0334219Y0195348D01*
X0334354Y0195675D01*
X0335142Y0195518D01*
X0335142Y0172401D01*
X0332617Y0169876D01*
D02*
G37*
G36*
X0334053Y0133145D02*
X0333348Y0133145D01*
X0332697Y0132876D01*
X0332199Y0132377D01*
X0332074Y0132077D01*
X0324148Y0132077D01*
X0321132Y0135094D01*
X0320855Y0135278D01*
X0320528Y0135343D01*
X0317667Y0135343D01*
X0312698Y0140312D01*
X0312934Y0140880D01*
X0312934Y0141585D01*
X0312664Y0142236D01*
X0312165Y0142735D01*
X0311514Y0143004D01*
X0310810Y0143004D01*
X0310158Y0142735D01*
X0309660Y0142236D01*
X0309390Y0141585D01*
X0309390Y0140880D01*
X0309660Y0140229D01*
X0310158Y0139731D01*
X0310810Y0139461D01*
X0311137Y0139461D01*
X0315500Y0135097D01*
X0315199Y0134370D01*
X0305022Y0134370D01*
X0304428Y0134616D01*
X0304291Y0134616D01*
X0301996Y0136911D01*
X0301540Y0137216D01*
X0301002Y0137322D01*
X0295430Y0137322D01*
X0294892Y0137216D01*
X0294717Y0137099D01*
X0294274Y0137099D01*
X0293623Y0136829D01*
X0293124Y0136331D01*
X0292855Y0135679D01*
X0292855Y0135206D01*
X0292160Y0134827D01*
X0292127Y0134820D01*
X0292087Y0134860D01*
X0291436Y0135130D01*
X0290731Y0135130D01*
X0290080Y0134860D01*
X0289581Y0134362D01*
X0289312Y0133711D01*
X0289312Y0133006D01*
X0289440Y0132696D01*
X0288998Y0131909D01*
X0284677Y0131909D01*
X0284194Y0132392D01*
X0284194Y0132529D01*
X0283924Y0133180D01*
X0283828Y0133277D01*
X0283828Y0139495D01*
X0283721Y0140033D01*
X0283416Y0140488D01*
X0277657Y0146248D01*
X0277486Y0146440D01*
X0277642Y0147262D01*
X0277670Y0147290D01*
X0277940Y0147941D01*
X0277940Y0148646D01*
X0278496Y0149360D01*
X0285103Y0149360D01*
X0285429Y0149425D01*
X0285706Y0149610D01*
X0286250Y0150153D01*
X0286400Y0150091D01*
X0287105Y0150091D01*
X0287756Y0150361D01*
X0288254Y0150859D01*
X0288524Y0151510D01*
X0288524Y0152215D01*
X0288254Y0152866D01*
X0288198Y0152923D01*
X0287811Y0153437D01*
X0288198Y0153952D01*
X0288254Y0154008D01*
X0288524Y0154660D01*
X0288524Y0155365D01*
X0288254Y0156016D01*
X0287756Y0156514D01*
X0287105Y0156784D01*
X0286400Y0156784D01*
X0285749Y0156514D01*
X0285251Y0156016D01*
X0284981Y0155365D01*
X0284981Y0154660D01*
X0285043Y0154509D01*
X0282584Y0152050D01*
X0274874Y0152050D01*
X0274548Y0151985D01*
X0274271Y0151800D01*
X0273940Y0151469D01*
X0273791Y0151461D01*
X0273057Y0151700D01*
X0272900Y0152079D01*
X0272402Y0152577D01*
X0272304Y0152617D01*
X0272304Y0153470D01*
X0272402Y0153510D01*
X0272900Y0154008D01*
X0273170Y0154660D01*
X0273170Y0155365D01*
X0272900Y0156016D01*
X0272402Y0156514D01*
X0271751Y0156784D01*
X0271046Y0156784D01*
X0270619Y0156607D01*
X0270501Y0156686D01*
X0270175Y0156751D01*
X0253712Y0156751D01*
X0251157Y0159306D01*
X0250880Y0159491D01*
X0250554Y0159556D01*
X0250398Y0159556D01*
X0249745Y0160161D01*
X0249745Y0160887D01*
X0249557Y0161588D01*
X0249194Y0162216D01*
X0248681Y0162729D01*
X0248052Y0163092D01*
X0247352Y0163280D01*
X0246626Y0163280D01*
X0245925Y0163092D01*
X0245297Y0162729D01*
X0244783Y0162216D01*
X0244421Y0161588D01*
X0244233Y0160887D01*
X0244233Y0160161D01*
X0244421Y0159460D01*
X0244530Y0159271D01*
X0240493Y0155234D01*
X0240157Y0155290D01*
X0239648Y0155503D01*
X0239435Y0156016D01*
X0239393Y0156058D01*
X0239007Y0156602D01*
X0239393Y0157087D01*
X0239465Y0157158D01*
X0239735Y0157809D01*
X0239735Y0158514D01*
X0239465Y0159165D01*
X0239393Y0159237D01*
X0239007Y0159721D01*
X0239393Y0160266D01*
X0239435Y0160308D01*
X0239705Y0160959D01*
X0239705Y0161664D01*
X0239536Y0162073D01*
X0239848Y0162716D01*
X0239997Y0162861D01*
X0243060Y0162861D01*
X0243386Y0162925D01*
X0243663Y0163110D01*
X0244401Y0163849D01*
X0244552Y0163786D01*
X0245257Y0163786D01*
X0245908Y0164056D01*
X0246406Y0164555D01*
X0246676Y0165206D01*
X0246676Y0165910D01*
X0247403Y0166178D01*
X0247455Y0166053D01*
X0247954Y0165555D01*
X0248605Y0165285D01*
X0249310Y0165285D01*
X0249961Y0165555D01*
X0250459Y0166053D01*
X0250729Y0166704D01*
X0250729Y0167409D01*
X0250459Y0168060D01*
X0249961Y0168559D01*
X0249310Y0168828D01*
X0249094Y0168828D01*
X0248604Y0168831D01*
X0248367Y0169538D01*
X0248097Y0170189D01*
X0248459Y0170940D01*
X0283040Y0170940D01*
X0283341Y0170213D01*
X0280687Y0167558D01*
X0280502Y0167281D01*
X0280437Y0166955D01*
X0280437Y0160620D01*
X0280502Y0160294D01*
X0280687Y0160017D01*
X0282702Y0158001D01*
X0282979Y0157816D01*
X0283306Y0157752D01*
X0288402Y0157752D01*
X0288729Y0157816D01*
X0289006Y0158001D01*
X0296214Y0165210D01*
X0296399Y0165487D01*
X0297178Y0165839D01*
X0297882Y0165839D01*
X0298534Y0166109D01*
X0299032Y0166607D01*
X0299302Y0167258D01*
X0299302Y0167963D01*
X0299032Y0168614D01*
X0298534Y0169112D01*
X0297882Y0169382D01*
X0297611Y0169794D01*
X0297854Y0170169D01*
X0298128Y0170169D01*
X0298780Y0170439D01*
X0299278Y0170938D01*
X0299548Y0171589D01*
X0299548Y0172294D01*
X0299278Y0172945D01*
X0298780Y0173443D01*
X0298128Y0173713D01*
X0297424Y0173713D01*
X0297251Y0173641D01*
X0296464Y0174163D01*
X0296464Y0178281D01*
X0300005Y0181822D01*
X0300190Y0182099D01*
X0300255Y0182426D01*
X0300255Y0183889D01*
X0303547Y0187181D01*
X0305388Y0187181D01*
X0307795Y0184773D01*
X0308072Y0184588D01*
X0308398Y0184523D01*
X0309988Y0184523D01*
X0310315Y0184588D01*
X0310592Y0184773D01*
X0320426Y0194608D01*
X0320611Y0194885D01*
X0320676Y0195211D01*
X0320676Y0195574D01*
X0320827Y0195636D01*
X0321325Y0196135D01*
X0321595Y0196786D01*
X0321595Y0197490D01*
X0321325Y0198142D01*
X0320827Y0198640D01*
X0320439Y0198801D01*
X0320201Y0199518D01*
X0320208Y0199684D01*
X0326517Y0205993D01*
X0327376Y0205977D01*
X0327875Y0205479D01*
X0328093Y0205388D01*
X0328299Y0204481D01*
X0324490Y0200672D01*
X0324305Y0200395D01*
X0324240Y0200069D01*
X0324240Y0190280D01*
X0322081Y0188121D01*
X0321896Y0187844D01*
X0321831Y0187518D01*
X0321831Y0178277D01*
X0321611Y0178096D01*
X0321044Y0177847D01*
X0320569Y0178043D01*
X0319865Y0178043D01*
X0319213Y0177774D01*
X0318715Y0177275D01*
X0318445Y0176624D01*
X0318445Y0175919D01*
X0318715Y0175268D01*
X0319213Y0174770D01*
X0319865Y0174500D01*
X0320569Y0174500D01*
X0321044Y0174697D01*
X0321611Y0174448D01*
X0321831Y0174267D01*
X0321831Y0170601D01*
X0321896Y0170274D01*
X0322081Y0169998D01*
X0329157Y0162921D01*
X0329157Y0160861D01*
X0328370Y0160539D01*
X0328099Y0160810D01*
X0327448Y0161080D01*
X0326743Y0161080D01*
X0326092Y0160810D01*
X0325594Y0160312D01*
X0325324Y0159661D01*
X0325324Y0158956D01*
X0325547Y0158416D01*
X0325517Y0158307D01*
X0325355Y0158009D01*
X0325096Y0157689D01*
X0324638Y0157689D01*
X0323987Y0157419D01*
X0323489Y0156921D01*
X0323219Y0156270D01*
X0323219Y0155565D01*
X0323489Y0154914D01*
X0323987Y0154415D01*
X0324638Y0154146D01*
X0325343Y0154146D01*
X0325994Y0154415D01*
X0326492Y0154914D01*
X0326762Y0155565D01*
X0326762Y0156270D01*
X0326539Y0156809D01*
X0326569Y0156918D01*
X0326731Y0157216D01*
X0326990Y0157537D01*
X0327448Y0157537D01*
X0328099Y0157807D01*
X0328370Y0158077D01*
X0329157Y0157756D01*
X0329157Y0145038D01*
X0329112Y0144993D01*
X0328927Y0144716D01*
X0328862Y0144390D01*
X0328862Y0142800D01*
X0328927Y0142473D01*
X0329112Y0142197D01*
X0330778Y0140531D01*
X0331054Y0140346D01*
X0331106Y0140336D01*
X0331314Y0139835D01*
X0331812Y0139337D01*
X0332463Y0139067D01*
X0333168Y0139067D01*
X0333406Y0139166D01*
X0334193Y0138682D01*
X0334193Y0133239D01*
X0334053Y0133145D01*
D02*
G37*
G36*
X0334773Y0220502D02*
X0334104Y0220116D01*
X0333558Y0219570D01*
X0333172Y0218901D01*
X0332972Y0218154D01*
X0332972Y0217382D01*
X0333172Y0216635D01*
X0333407Y0216228D01*
X0333048Y0215441D01*
X0326340Y0215441D01*
X0326254Y0215572D01*
X0326259Y0215731D01*
X0326593Y0216491D01*
X0326928Y0216629D01*
X0327426Y0217127D01*
X0327696Y0217778D01*
X0327696Y0218483D01*
X0327426Y0219134D01*
X0326928Y0219633D01*
X0326277Y0219902D01*
X0325572Y0219902D01*
X0325524Y0219883D01*
X0324672Y0219883D01*
X0324173Y0220381D01*
X0323522Y0220651D01*
X0322817Y0220651D01*
X0322166Y0220381D01*
X0321997Y0220212D01*
X0321854Y0220226D01*
X0317906Y0224174D01*
X0317629Y0224359D01*
X0317303Y0224424D01*
X0316277Y0224424D01*
X0315800Y0224901D01*
X0315621Y0224975D01*
X0315541Y0225280D01*
X0315537Y0225862D01*
X0315917Y0226242D01*
X0316187Y0226893D01*
X0316187Y0227598D01*
X0316014Y0228017D01*
X0316023Y0228156D01*
X0316259Y0228683D01*
X0316313Y0228751D01*
X0317173Y0228904D01*
X0321389Y0224688D01*
X0321845Y0224383D01*
X0322382Y0224276D01*
X0323154Y0224276D01*
X0325086Y0222344D01*
X0325542Y0222040D01*
X0326079Y0221933D01*
X0326963Y0221933D01*
X0327063Y0221834D01*
X0327518Y0221529D01*
X0328056Y0221422D01*
X0335164Y0221422D01*
X0335268Y0220635D01*
X0334773Y0220502D01*
D02*
G37*
G36*
X0340886Y0242766D02*
X0340886Y0242061D01*
X0340159Y0241801D01*
X0338589Y0241801D01*
X0338262Y0241736D01*
X0337985Y0241551D01*
X0337424Y0240990D01*
X0337226Y0240986D01*
X0336541Y0241220D01*
X0336373Y0241625D01*
X0335875Y0242123D01*
X0335224Y0242393D01*
X0334519Y0242393D01*
X0333868Y0242123D01*
X0333492Y0241748D01*
X0333223Y0241801D01*
X0330595Y0241801D01*
X0329686Y0242710D01*
X0329409Y0242895D01*
X0329186Y0242939D01*
X0329005Y0243099D01*
X0328656Y0243718D01*
X0328656Y0244423D01*
X0328386Y0245074D01*
X0327888Y0245572D01*
X0327688Y0245655D01*
X0327688Y0246103D01*
X0327623Y0246429D01*
X0327438Y0246706D01*
X0325784Y0248360D01*
X0325969Y0249289D01*
X0325969Y0249289D01*
X0326467Y0249788D01*
X0326737Y0250439D01*
X0326737Y0251144D01*
X0326695Y0251245D01*
X0327161Y0251942D01*
X0327954Y0251989D01*
X0332130Y0247813D01*
X0332130Y0247676D01*
X0332400Y0247024D01*
X0332898Y0246526D01*
X0333550Y0246256D01*
X0334255Y0246256D01*
X0334906Y0246526D01*
X0335404Y0247024D01*
X0335499Y0247253D01*
X0336401Y0247464D01*
X0340949Y0242917D01*
X0340886Y0242766D01*
D02*
G37*
G36*
X0332953Y0211861D02*
X0332953Y0211440D01*
X0332439Y0210926D01*
X0328418Y0210926D01*
X0328418Y0210926D01*
X0327957Y0210834D01*
X0327566Y0210573D01*
X0325296Y0208302D01*
X0325296Y0208302D01*
X0325044Y0207926D01*
X0323228Y0206110D01*
X0322622Y0206546D01*
X0322891Y0207198D01*
X0322891Y0207902D01*
X0322622Y0208554D01*
X0322123Y0209052D01*
X0321472Y0209322D01*
X0320767Y0209322D01*
X0320116Y0209052D01*
X0319618Y0208554D01*
X0319348Y0207902D01*
X0319348Y0207198D01*
X0319411Y0207047D01*
X0316260Y0203897D01*
X0313876Y0203897D01*
X0313550Y0203832D01*
X0313273Y0203647D01*
X0306291Y0196664D01*
X0305504Y0196664D01*
X0305178Y0196599D01*
X0304901Y0196415D01*
X0301822Y0193335D01*
X0301672Y0193398D01*
X0300967Y0193398D01*
X0300453Y0193185D01*
X0299944Y0193393D01*
X0299665Y0193591D01*
X0299665Y0196469D01*
X0300807Y0197611D01*
X0302963Y0197611D01*
X0303347Y0197687D01*
X0303673Y0197905D01*
X0312167Y0206399D01*
X0312384Y0206725D01*
X0313172Y0207177D01*
X0313876Y0207177D01*
X0314528Y0207447D01*
X0314909Y0207828D01*
X0315374Y0207363D01*
X0316025Y0207094D01*
X0316730Y0207094D01*
X0317381Y0207363D01*
X0317879Y0207862D01*
X0318149Y0208513D01*
X0318149Y0209218D01*
X0317879Y0209869D01*
X0317381Y0210367D01*
X0316730Y0210637D01*
X0316025Y0210637D01*
X0315374Y0210367D01*
X0315215Y0210209D01*
X0314526Y0210605D01*
X0314430Y0211359D01*
X0314726Y0211655D01*
X0314943Y0211980D01*
X0315020Y0212364D01*
X0315020Y0220435D01*
X0314943Y0220819D01*
X0314930Y0220840D01*
X0315029Y0221197D01*
X0315232Y0221631D01*
X0315289Y0221685D01*
X0315800Y0221897D01*
X0316298Y0222395D01*
X0317159Y0222508D01*
X0320397Y0219270D01*
X0320397Y0218132D01*
X0320380Y0218063D01*
X0319849Y0217435D01*
X0319791Y0217405D01*
X0319505Y0217405D01*
X0318854Y0217135D01*
X0318355Y0216636D01*
X0318086Y0215985D01*
X0318086Y0215280D01*
X0318355Y0214629D01*
X0318854Y0214131D01*
X0319505Y0213861D01*
X0320210Y0213861D01*
X0320861Y0214131D01*
X0321359Y0214629D01*
X0321424Y0214785D01*
X0322353Y0214970D01*
X0324322Y0213000D01*
X0324599Y0212815D01*
X0324925Y0212750D01*
X0332469Y0212750D01*
X0332996Y0211963D01*
X0332953Y0211861D01*
D02*
G37*
G36*
X0318416Y0195011D02*
X0309635Y0186229D01*
X0308752Y0186229D01*
X0307550Y0187431D01*
X0307852Y0188158D01*
X0308184Y0188158D01*
X0308644Y0188250D01*
X0309035Y0188511D01*
X0309035Y0188511D01*
X0317278Y0196753D01*
X0317444Y0196760D01*
X0318161Y0196523D01*
X0318321Y0196135D01*
X0318820Y0195636D01*
X0318416Y0195011D01*
D02*
G37*
G36*
X0308996Y0191878D02*
X0308209Y0192176D01*
X0307939Y0192827D01*
X0307441Y0193325D01*
X0306790Y0193595D01*
X0306085Y0193595D01*
X0305434Y0193325D01*
X0304936Y0192827D01*
X0304666Y0192176D01*
X0304666Y0191471D01*
X0304675Y0191447D01*
X0304246Y0190794D01*
X0303673Y0190778D01*
X0303091Y0191393D01*
X0303091Y0191979D01*
X0303029Y0192129D01*
X0305858Y0194958D01*
X0306644Y0194958D01*
X0306970Y0195023D01*
X0307247Y0195208D01*
X0314229Y0202191D01*
X0316613Y0202191D01*
X0316940Y0202256D01*
X0317216Y0202440D01*
X0320617Y0205841D01*
X0320767Y0205778D01*
X0321472Y0205778D01*
X0322123Y0206048D01*
X0322560Y0205441D01*
X0308996Y0191878D01*
D02*
G37*
G36*
X0314897Y0118236D02*
X0309469Y0118236D01*
X0308462Y0119243D01*
X0308185Y0119428D01*
X0307859Y0119493D01*
X0305132Y0119493D01*
X0304805Y0119428D01*
X0304528Y0119243D01*
X0302537Y0117252D01*
X0300546Y0117252D01*
X0300434Y0117419D01*
X0300434Y0118124D01*
X0300164Y0118775D01*
X0299750Y0119189D01*
X0299739Y0119679D01*
X0299810Y0120066D01*
X0299912Y0120108D01*
X0300410Y0120607D01*
X0300680Y0121258D01*
X0300680Y0121963D01*
X0300410Y0122614D01*
X0299912Y0123112D01*
X0299261Y0123382D01*
X0298956Y0124169D01*
X0300675Y0125888D01*
X0307095Y0125888D01*
X0311598Y0121385D01*
X0311764Y0120984D01*
X0312262Y0120486D01*
X0312913Y0120216D01*
X0313618Y0120216D01*
X0314397Y0119857D01*
X0314582Y0119580D01*
X0315199Y0118963D01*
X0314897Y0118236D01*
D02*
G37*
G36*
X0310748Y0210515D02*
X0310530Y0210189D01*
X0310454Y0209805D01*
X0310454Y0207524D01*
X0302547Y0199618D01*
X0300392Y0199618D01*
X0300008Y0199541D01*
X0299682Y0199324D01*
X0299110Y0198752D01*
X0298383Y0199054D01*
X0298383Y0205790D01*
X0307249Y0214656D01*
X0308089Y0214927D01*
X0308307Y0214838D01*
X0308743Y0214658D01*
X0309447Y0214658D01*
X0310099Y0214927D01*
X0310522Y0215351D01*
X0310946Y0214927D01*
X0311597Y0214658D01*
X0312302Y0214658D01*
X0313013Y0214100D01*
X0313013Y0212780D01*
X0310748Y0210515D01*
D02*
G37*
G36*
X0295680Y0209676D02*
X0294953Y0209978D01*
X0294953Y0212107D01*
X0297597Y0214751D01*
X0297734Y0214956D01*
X0298001Y0215067D01*
X0298499Y0215565D01*
X0298769Y0216216D01*
X0298769Y0216460D01*
X0300443Y0218134D01*
X0300747Y0218590D01*
X0300854Y0219127D01*
X0300854Y0221330D01*
X0301582Y0221631D01*
X0302386Y0220828D01*
X0302386Y0216381D01*
X0295680Y0209676D01*
D02*
G37*
G36*
X0290923Y0188383D02*
X0290738Y0188106D01*
X0290673Y0187780D01*
X0290673Y0182280D01*
X0289791Y0181398D01*
X0289606Y0181121D01*
X0289541Y0180795D01*
X0289541Y0176026D01*
X0288814Y0175725D01*
X0265350Y0199189D01*
X0265676Y0199976D01*
X0277984Y0199976D01*
X0280995Y0196965D01*
X0281272Y0196780D01*
X0281598Y0196715D01*
X0285725Y0196715D01*
X0285788Y0196564D01*
X0286286Y0196066D01*
X0286937Y0195796D01*
X0287642Y0195796D01*
X0288293Y0196066D01*
X0288792Y0196564D01*
X0289061Y0197215D01*
X0289061Y0197920D01*
X0288826Y0198489D01*
X0288968Y0198876D01*
X0289200Y0199276D01*
X0290724Y0199276D01*
X0291145Y0198489D01*
X0291117Y0198447D01*
X0291010Y0197909D01*
X0291010Y0196027D01*
X0290762Y0195779D01*
X0290493Y0195128D01*
X0290493Y0194423D01*
X0290762Y0193772D01*
X0291261Y0193274D01*
X0291098Y0192489D01*
X0290886Y0191979D01*
X0290886Y0191274D01*
X0291156Y0190623D01*
X0291654Y0190124D01*
X0291766Y0189226D01*
X0290923Y0188383D01*
D02*
G37*
G36*
X0314578Y0124596D02*
X0309355Y0129820D01*
X0309078Y0130005D01*
X0308752Y0130069D01*
X0299291Y0130069D01*
X0298965Y0130005D01*
X0298688Y0129820D01*
X0287090Y0118221D01*
X0286420Y0118221D01*
X0285769Y0117952D01*
X0285271Y0117453D01*
X0285001Y0116802D01*
X0285001Y0116097D01*
X0285271Y0115446D01*
X0285769Y0114948D01*
X0286420Y0114678D01*
X0287125Y0114678D01*
X0287776Y0114948D01*
X0288275Y0115446D01*
X0288544Y0116097D01*
X0288544Y0116802D01*
X0288409Y0117129D01*
X0292096Y0120816D01*
X0292824Y0120514D01*
X0292824Y0117576D01*
X0292658Y0117175D01*
X0292658Y0116471D01*
X0292928Y0115820D01*
X0293426Y0115321D01*
X0294077Y0115051D01*
X0294167Y0115051D01*
X0294375Y0114625D01*
X0293880Y0113887D01*
X0280396Y0113887D01*
X0278993Y0115290D01*
X0278993Y0118012D01*
X0278928Y0118338D01*
X0278743Y0118615D01*
X0277619Y0119739D01*
X0277392Y0119891D01*
X0277392Y0135091D01*
X0277327Y0135417D01*
X0277142Y0135694D01*
X0271795Y0141041D01*
X0271779Y0141052D01*
X0271514Y0141256D01*
X0271406Y0142051D01*
X0271452Y0142163D01*
X0271452Y0142868D01*
X0271300Y0143236D01*
X0271662Y0143937D01*
X0271761Y0144024D01*
X0275805Y0144024D01*
X0276357Y0143423D01*
X0276254Y0142654D01*
X0275756Y0142156D01*
X0275486Y0141504D01*
X0275486Y0140800D01*
X0275756Y0140148D01*
X0276254Y0139650D01*
X0276906Y0139380D01*
X0277610Y0139380D01*
X0278262Y0139650D01*
X0278760Y0140148D01*
X0279662Y0140269D01*
X0281018Y0138913D01*
X0281018Y0133278D01*
X0280920Y0133180D01*
X0280651Y0132529D01*
X0280651Y0131824D01*
X0280920Y0131173D01*
X0281419Y0130675D01*
X0282070Y0130405D01*
X0282207Y0130405D01*
X0283101Y0129511D01*
X0283557Y0129206D01*
X0284095Y0129099D01*
X0292953Y0129099D01*
X0293491Y0129206D01*
X0293947Y0129511D01*
X0295620Y0131184D01*
X0295924Y0131640D01*
X0296031Y0132177D01*
X0296031Y0134227D01*
X0296128Y0134324D01*
X0296207Y0134513D01*
X0300420Y0134513D01*
X0302304Y0132629D01*
X0302304Y0132492D01*
X0302573Y0131841D01*
X0303072Y0131342D01*
X0303723Y0131073D01*
X0304428Y0131073D01*
X0305079Y0131342D01*
X0305296Y0131560D01*
X0315306Y0131560D01*
X0315306Y0124898D01*
X0314578Y0124596D01*
D02*
G37*
G36*
X0287274Y0240914D02*
X0286697Y0240602D01*
X0286143Y0240372D01*
X0285644Y0239874D01*
X0285375Y0239223D01*
X0285375Y0238518D01*
X0284963Y0237902D01*
X0277509Y0237902D01*
X0275470Y0239942D01*
X0275532Y0240093D01*
X0275532Y0240797D01*
X0275262Y0241449D01*
X0275101Y0241610D01*
X0275427Y0242397D01*
X0286836Y0242397D01*
X0287374Y0241708D01*
X0287274Y0240914D01*
D02*
G37*
G36*
X0296525Y0225659D02*
X0293115Y0225659D01*
X0292577Y0225552D01*
X0292122Y0225248D01*
X0291795Y0224921D01*
X0289231Y0224921D01*
X0289134Y0225018D01*
X0288483Y0225288D01*
X0287778Y0225288D01*
X0287127Y0225018D01*
X0286628Y0224520D01*
X0286359Y0223868D01*
X0286359Y0223164D01*
X0286628Y0222512D01*
X0287127Y0222014D01*
X0287778Y0221744D01*
X0288483Y0221744D01*
X0289134Y0222014D01*
X0289231Y0222111D01*
X0292363Y0222111D01*
X0292363Y0221441D01*
X0292414Y0221318D01*
X0291888Y0220530D01*
X0272596Y0220530D01*
X0269247Y0223879D01*
X0269300Y0224147D01*
X0269798Y0224645D01*
X0269861Y0224796D01*
X0272778Y0224796D01*
X0273104Y0224861D01*
X0273381Y0225046D01*
X0281578Y0233244D01*
X0282991Y0233244D01*
X0283041Y0233210D01*
X0283367Y0233145D01*
X0285212Y0233145D01*
X0285768Y0232431D01*
X0285768Y0231727D01*
X0286038Y0231075D01*
X0286536Y0230577D01*
X0287187Y0230307D01*
X0287892Y0230307D01*
X0288043Y0230370D01*
X0290382Y0228031D01*
X0290658Y0227846D01*
X0290985Y0227781D01*
X0295432Y0227781D01*
X0296827Y0226387D01*
X0296525Y0225659D01*
D02*
G37*
G36*
X0271317Y0218342D02*
X0269076Y0216101D01*
X0268210Y0216101D01*
X0268054Y0216889D01*
X0268071Y0216896D01*
X0268569Y0217394D01*
X0268839Y0218045D01*
X0268839Y0218750D01*
X0268569Y0219401D01*
X0268071Y0219900D01*
X0267420Y0220169D01*
X0266715Y0220169D01*
X0266064Y0219900D01*
X0265566Y0219401D01*
X0265296Y0218750D01*
X0265296Y0218045D01*
X0265566Y0217394D01*
X0266064Y0216896D01*
X0266081Y0216889D01*
X0265925Y0216101D01*
X0259565Y0216101D01*
X0259039Y0216889D01*
X0259039Y0216889D01*
X0259039Y0217026D01*
X0260581Y0218568D01*
X0260885Y0219024D01*
X0260992Y0219562D01*
X0260992Y0228004D01*
X0261719Y0228305D01*
X0266898Y0223127D01*
X0267175Y0222942D01*
X0267502Y0222877D01*
X0267837Y0222877D01*
X0271338Y0219375D01*
X0271491Y0218737D01*
X0271317Y0218342D01*
D02*
G37*
G36*
X0282791Y0204939D02*
X0282791Y0204699D01*
X0282004Y0204373D01*
X0281893Y0204483D01*
X0281616Y0204668D01*
X0281290Y0204733D01*
X0269789Y0204733D01*
X0269233Y0205447D01*
X0269233Y0206152D01*
X0268963Y0206803D01*
X0268465Y0207301D01*
X0267814Y0207571D01*
X0267109Y0207571D01*
X0266954Y0207507D01*
X0266148Y0207822D01*
X0266075Y0207878D01*
X0266051Y0208162D01*
X0266636Y0208846D01*
X0276786Y0208846D01*
X0277501Y0208514D01*
X0277501Y0207809D01*
X0277770Y0207158D01*
X0278269Y0206660D01*
X0278920Y0206390D01*
X0279625Y0206390D01*
X0280276Y0206660D01*
X0280774Y0207158D01*
X0280920Y0207511D01*
X0281708Y0207355D01*
X0281708Y0207064D01*
X0281978Y0206412D01*
X0282476Y0205914D01*
X0283043Y0205679D01*
X0283061Y0205590D01*
X0282791Y0204939D01*
D02*
G37*
G36*
X0284678Y0174624D02*
X0284180Y0174126D01*
X0283910Y0173475D01*
X0283910Y0172770D01*
X0283827Y0172646D01*
X0265518Y0172646D01*
X0265434Y0172792D01*
X0265277Y0173434D01*
X0265639Y0173796D01*
X0265909Y0174447D01*
X0265909Y0175152D01*
X0265639Y0175803D01*
X0265141Y0176302D01*
X0264490Y0176571D01*
X0263785Y0176571D01*
X0263134Y0176302D01*
X0262635Y0175803D01*
X0262366Y0175152D01*
X0262366Y0174447D01*
X0262428Y0174297D01*
X0261762Y0173631D01*
X0251679Y0173631D01*
X0251123Y0174345D01*
X0251123Y0175050D01*
X0250853Y0175701D01*
X0250354Y0176199D01*
X0249703Y0176469D01*
X0249355Y0176469D01*
X0249127Y0177075D01*
X0249114Y0177256D01*
X0249588Y0177729D01*
X0249950Y0178358D01*
X0250138Y0179059D01*
X0250138Y0179784D01*
X0249950Y0180485D01*
X0249769Y0180800D01*
X0250066Y0181513D01*
X0250110Y0181566D01*
X0250167Y0181616D01*
X0250748Y0181857D01*
X0251246Y0182355D01*
X0251516Y0183006D01*
X0251516Y0183711D01*
X0252073Y0184425D01*
X0255439Y0184425D01*
X0256370Y0183494D01*
X0256647Y0183309D01*
X0256973Y0183244D01*
X0257849Y0183244D01*
X0258406Y0182530D01*
X0258406Y0181825D01*
X0258676Y0181174D01*
X0259174Y0180676D01*
X0259825Y0180406D01*
X0260530Y0180406D01*
X0261181Y0180676D01*
X0261679Y0181174D01*
X0261949Y0181825D01*
X0261949Y0182530D01*
X0262506Y0183244D01*
X0265348Y0183244D01*
X0265566Y0182719D01*
X0266064Y0182221D01*
X0266715Y0181951D01*
X0267420Y0181951D01*
X0268071Y0182221D01*
X0268569Y0182719D01*
X0268839Y0183370D01*
X0268839Y0184075D01*
X0268773Y0184235D01*
X0269441Y0184681D01*
X0269706Y0184416D01*
X0270357Y0184146D01*
X0271062Y0184146D01*
X0271713Y0184416D01*
X0272211Y0184914D01*
X0272481Y0185565D01*
X0272481Y0186270D01*
X0272211Y0186921D01*
X0271713Y0187419D01*
X0271062Y0187689D01*
X0270357Y0187689D01*
X0269706Y0187419D01*
X0269393Y0187542D01*
X0268879Y0188206D01*
X0268879Y0188911D01*
X0268610Y0189562D01*
X0268111Y0190060D01*
X0267460Y0190330D01*
X0266755Y0190330D01*
X0266104Y0190060D01*
X0265606Y0189562D01*
X0265543Y0189411D01*
X0251217Y0189411D01*
X0250637Y0190069D01*
X0250637Y0190774D01*
X0250368Y0191425D01*
X0249869Y0191923D01*
X0249218Y0192193D01*
X0248513Y0192193D01*
X0247862Y0191923D01*
X0247786Y0191847D01*
X0247118Y0192293D01*
X0247186Y0192455D01*
X0247186Y0193160D01*
X0247168Y0193201D01*
X0247216Y0193405D01*
X0247660Y0194071D01*
X0248052Y0194176D01*
X0248681Y0194539D01*
X0249194Y0195052D01*
X0249557Y0195681D01*
X0249744Y0196381D01*
X0249744Y0197107D01*
X0249557Y0197808D01*
X0249271Y0198303D01*
X0249429Y0198771D01*
X0249654Y0199090D01*
X0250382Y0199090D01*
X0250709Y0199155D01*
X0250985Y0199340D01*
X0252969Y0201323D01*
X0257062Y0201323D01*
X0257618Y0200609D01*
X0257618Y0199905D01*
X0257888Y0199254D01*
X0258387Y0198755D01*
X0258876Y0198553D01*
X0258979Y0197961D01*
X0258954Y0197733D01*
X0258823Y0197679D01*
X0258325Y0197180D01*
X0257515Y0197284D01*
X0257391Y0197336D01*
X0256686Y0197336D01*
X0256035Y0197066D01*
X0255537Y0196568D01*
X0255267Y0195917D01*
X0255267Y0195212D01*
X0255537Y0194561D01*
X0256035Y0194062D01*
X0256686Y0193793D01*
X0257391Y0193793D01*
X0257666Y0193907D01*
X0258269Y0193304D01*
X0258209Y0193160D01*
X0258209Y0192455D01*
X0258479Y0191804D01*
X0258977Y0191305D01*
X0259628Y0191036D01*
X0260333Y0191036D01*
X0260984Y0191305D01*
X0261483Y0191804D01*
X0261637Y0192177D01*
X0262381Y0192416D01*
X0262520Y0192408D01*
X0262890Y0192038D01*
X0263167Y0191853D01*
X0263494Y0191788D01*
X0268524Y0191788D01*
X0284789Y0175523D01*
X0284678Y0174624D01*
D02*
G37*
G36*
X0274229Y0110149D02*
X0274056Y0109990D01*
X0273406Y0109737D01*
X0272932Y0109933D01*
X0272227Y0109933D01*
X0271576Y0109664D01*
X0271519Y0109607D01*
X0271004Y0109220D01*
X0270490Y0109607D01*
X0270433Y0109664D01*
X0269782Y0109933D01*
X0269077Y0109933D01*
X0268426Y0109664D01*
X0268369Y0109607D01*
X0267855Y0109220D01*
X0267340Y0109607D01*
X0267283Y0109664D01*
X0266632Y0109933D01*
X0265928Y0109933D01*
X0265276Y0109664D01*
X0265220Y0109607D01*
X0264705Y0109220D01*
X0264191Y0109607D01*
X0264134Y0109664D01*
X0263483Y0109933D01*
X0262778Y0109933D01*
X0262637Y0109875D01*
X0262034Y0110477D01*
X0262102Y0110642D01*
X0262102Y0111347D01*
X0261832Y0111998D01*
X0261334Y0112496D01*
X0260683Y0112766D01*
X0259978Y0112766D01*
X0259327Y0112496D01*
X0258829Y0111998D01*
X0258559Y0111347D01*
X0258559Y0110642D01*
X0258110Y0109680D01*
X0258007Y0109645D01*
X0257845Y0109653D01*
X0257835Y0109664D01*
X0257184Y0109933D01*
X0256479Y0109933D01*
X0255828Y0109664D01*
X0255771Y0109607D01*
X0255256Y0109220D01*
X0254742Y0109607D01*
X0254685Y0109664D01*
X0254034Y0109933D01*
X0253329Y0109933D01*
X0252678Y0109664D01*
X0252621Y0109607D01*
X0252107Y0109220D01*
X0251592Y0109607D01*
X0251535Y0109664D01*
X0250884Y0109933D01*
X0250179Y0109933D01*
X0249528Y0109664D01*
X0249472Y0109607D01*
X0248957Y0109220D01*
X0248443Y0109607D01*
X0248386Y0109664D01*
X0248152Y0109761D01*
X0247938Y0110661D01*
X0255839Y0118561D01*
X0260023Y0118561D01*
X0260349Y0118626D01*
X0260626Y0118811D01*
X0270988Y0129173D01*
X0271775Y0128847D01*
X0271775Y0113061D01*
X0271840Y0112735D01*
X0272025Y0112458D01*
X0274237Y0110247D01*
X0274229Y0110149D01*
D02*
G37*
G36*
X0277087Y0234062D02*
X0277065Y0234071D01*
X0276361Y0234071D01*
X0275710Y0233801D01*
X0275211Y0233302D01*
X0274941Y0232651D01*
X0274941Y0231946D01*
X0275211Y0231295D01*
X0275710Y0230797D01*
X0275821Y0229899D01*
X0272424Y0226502D01*
X0269861Y0226502D01*
X0269798Y0226653D01*
X0269300Y0227151D01*
X0268649Y0227421D01*
X0267944Y0227421D01*
X0267293Y0227151D01*
X0266795Y0226653D01*
X0265896Y0226541D01*
X0261966Y0230472D01*
X0261966Y0234931D01*
X0261901Y0235257D01*
X0261716Y0235534D01*
X0257125Y0240124D01*
X0257125Y0241043D01*
X0257061Y0241370D01*
X0256876Y0241646D01*
X0255868Y0242654D01*
X0256169Y0243382D01*
X0260842Y0243382D01*
X0260999Y0242594D01*
X0260552Y0242409D01*
X0260054Y0241911D01*
X0259784Y0241260D01*
X0259784Y0240555D01*
X0260054Y0239904D01*
X0260552Y0239405D01*
X0261203Y0239136D01*
X0261908Y0239136D01*
X0262559Y0239405D01*
X0262910Y0239756D01*
X0263553Y0239736D01*
X0263805Y0239651D01*
X0263892Y0239442D01*
X0264391Y0238943D01*
X0265042Y0238673D01*
X0265747Y0238673D01*
X0266398Y0238943D01*
X0266821Y0239367D01*
X0267245Y0238943D01*
X0267896Y0238673D01*
X0268601Y0238673D01*
X0268752Y0238736D01*
X0272025Y0235462D01*
X0272302Y0235277D01*
X0272628Y0235212D01*
X0277183Y0235212D01*
X0277492Y0234467D01*
X0277087Y0234062D01*
D02*
G37*
G36*
X0281617Y0247127D02*
X0255745Y0247127D01*
X0254562Y0248310D01*
X0254888Y0249098D01*
X0255587Y0249098D01*
X0256124Y0249205D01*
X0256580Y0249509D01*
X0256741Y0249670D01*
X0280103Y0249670D01*
X0281918Y0247855D01*
X0281617Y0247127D01*
D02*
G37*
G36*
X0254107Y0221140D02*
X0253267Y0221414D01*
X0253223Y0221696D01*
X0254137Y0222610D01*
X0254322Y0222887D01*
X0254387Y0223213D01*
X0254387Y0228201D01*
X0254322Y0228528D01*
X0254137Y0228804D01*
X0248154Y0234788D01*
X0248154Y0237609D01*
X0248305Y0237671D01*
X0248803Y0238170D01*
X0249073Y0238821D01*
X0249073Y0239526D01*
X0249440Y0240305D01*
X0249717Y0240490D01*
X0250810Y0241582D01*
X0251597Y0241256D01*
X0251597Y0240880D01*
X0251867Y0240229D01*
X0252365Y0239731D01*
X0252887Y0239515D01*
X0253362Y0239040D01*
X0253449Y0238601D01*
X0253698Y0238228D01*
X0253380Y0237520D01*
X0252690Y0237446D01*
X0252520Y0237616D01*
X0251869Y0237886D01*
X0251164Y0237886D01*
X0250513Y0237616D01*
X0250014Y0237118D01*
X0249744Y0236467D01*
X0249744Y0235762D01*
X0250014Y0235111D01*
X0250513Y0234613D01*
X0251164Y0234343D01*
X0251869Y0234343D01*
X0252390Y0234559D01*
X0253721Y0234559D01*
X0255726Y0232554D01*
X0255726Y0222760D01*
X0254107Y0221140D01*
D02*
G37*
G36*
X0259224Y0121252D02*
X0253320Y0121252D01*
X0252994Y0121187D01*
X0252717Y0121002D01*
X0248693Y0116978D01*
X0248013Y0117312D01*
X0247962Y0117360D01*
X0247962Y0121571D01*
X0248112Y0121634D01*
X0248611Y0122132D01*
X0248880Y0122783D01*
X0248880Y0123488D01*
X0248656Y0124030D01*
X0248386Y0124770D01*
X0248884Y0125268D01*
X0249154Y0125919D01*
X0249154Y0126624D01*
X0249711Y0127338D01*
X0253771Y0127338D01*
X0256573Y0124537D01*
X0256849Y0124352D01*
X0257176Y0124287D01*
X0261146Y0124287D01*
X0261472Y0123500D01*
X0259224Y0121252D01*
D02*
G37*
G36*
X0251860Y0140075D02*
X0251795Y0139748D01*
X0251795Y0139202D01*
X0250495Y0137901D01*
X0249616Y0138137D01*
X0249557Y0138359D01*
X0249194Y0138988D01*
X0248681Y0139501D01*
X0248052Y0139864D01*
X0247351Y0140051D01*
X0246626Y0140051D01*
X0245925Y0139864D01*
X0245297Y0139501D01*
X0244783Y0138988D01*
X0244420Y0138359D01*
X0243615Y0138231D01*
X0243249Y0138382D01*
X0243064Y0138659D01*
X0240643Y0141079D01*
X0240945Y0141807D01*
X0241878Y0141807D01*
X0242204Y0141872D01*
X0242419Y0142015D01*
X0246252Y0142015D01*
X0246900Y0141367D01*
X0247177Y0141183D01*
X0247503Y0141118D01*
X0251783Y0141118D01*
X0251966Y0140675D01*
X0252031Y0140330D01*
X0251860Y0140075D01*
D02*
G37*
G36*
X0240205Y0189618D02*
X0239986Y0188920D01*
X0239660Y0188985D01*
X0232109Y0188985D01*
X0231583Y0189772D01*
X0231634Y0189896D01*
X0231634Y0190601D01*
X0231365Y0191252D01*
X0230866Y0191750D01*
X0230215Y0192020D01*
X0229510Y0192020D01*
X0228859Y0191750D01*
X0228361Y0191252D01*
X0228091Y0190601D01*
X0228091Y0189896D01*
X0228142Y0189772D01*
X0227616Y0188985D01*
X0227156Y0188985D01*
X0226830Y0188920D01*
X0226553Y0188735D01*
X0225444Y0187627D01*
X0225294Y0187689D01*
X0224589Y0187689D01*
X0223938Y0187419D01*
X0223683Y0187165D01*
X0222844Y0187188D01*
X0222861Y0187324D01*
X0223153Y0187978D01*
X0223583Y0188156D01*
X0224081Y0188654D01*
X0224351Y0189305D01*
X0224351Y0190010D01*
X0224081Y0190661D01*
X0223583Y0191160D01*
X0222932Y0191429D01*
X0222227Y0191429D01*
X0221576Y0191160D01*
X0221077Y0190661D01*
X0220808Y0190010D01*
X0220808Y0189657D01*
X0220020Y0189331D01*
X0213328Y0196022D01*
X0213749Y0196674D01*
X0213769Y0196695D01*
X0214467Y0196695D01*
X0215118Y0196965D01*
X0215616Y0197463D01*
X0215886Y0198114D01*
X0215886Y0198819D01*
X0215616Y0199470D01*
X0215118Y0199969D01*
X0214467Y0200238D01*
X0213762Y0200238D01*
X0213111Y0199969D01*
X0212613Y0199470D01*
X0212343Y0198819D01*
X0212343Y0198122D01*
X0212322Y0198101D01*
X0211670Y0197681D01*
X0208460Y0200891D01*
X0208183Y0201076D01*
X0207857Y0201141D01*
X0206716Y0201141D01*
X0206264Y0201855D01*
X0206536Y0202387D01*
X0234966Y0202387D01*
X0236376Y0200977D01*
X0236314Y0200826D01*
X0236314Y0200121D01*
X0235758Y0199408D01*
X0232957Y0199408D01*
X0232890Y0199569D01*
X0232392Y0200067D01*
X0231741Y0200337D01*
X0231036Y0200337D01*
X0230385Y0200067D01*
X0229912Y0199594D01*
X0229488Y0200018D01*
X0228837Y0200288D01*
X0228132Y0200288D01*
X0227481Y0200018D01*
X0226983Y0199519D01*
X0226713Y0198868D01*
X0226713Y0198164D01*
X0226983Y0197512D01*
X0227481Y0197014D01*
X0228132Y0196744D01*
X0228837Y0196744D01*
X0228988Y0196807D01*
X0229752Y0196043D01*
X0230028Y0195858D01*
X0230355Y0195793D01*
X0239072Y0195793D01*
X0239250Y0195581D01*
X0239505Y0195006D01*
X0239312Y0194538D01*
X0239312Y0193833D01*
X0239581Y0193182D01*
X0240054Y0192709D01*
X0239581Y0192236D01*
X0239312Y0191585D01*
X0239312Y0190880D01*
X0239581Y0190229D01*
X0240080Y0189731D01*
X0240216Y0189674D01*
X0240205Y0189618D01*
D02*
G37*
G36*
X0236346Y0123973D02*
X0236161Y0123696D01*
X0236096Y0123370D01*
X0236096Y0117021D01*
X0233247Y0114172D01*
X0232349Y0114283D01*
X0232340Y0114292D01*
X0232403Y0115171D01*
X0232901Y0115669D01*
X0233171Y0116320D01*
X0233171Y0117025D01*
X0232901Y0117676D01*
X0232403Y0118175D01*
X0231752Y0118444D01*
X0231047Y0118444D01*
X0230396Y0118175D01*
X0229897Y0117676D01*
X0229628Y0117025D01*
X0229628Y0116320D01*
X0229897Y0115669D01*
X0229906Y0115660D01*
X0229843Y0114782D01*
X0229345Y0114283D01*
X0229075Y0113632D01*
X0229075Y0112927D01*
X0228643Y0112149D01*
X0228366Y0111964D01*
X0226146Y0109743D01*
X0225687Y0109933D01*
X0224983Y0109933D01*
X0224331Y0109664D01*
X0223833Y0109165D01*
X0223563Y0108514D01*
X0223563Y0107809D01*
X0223580Y0107768D01*
X0223054Y0106981D01*
X0201238Y0106981D01*
X0200712Y0107768D01*
X0200729Y0107809D01*
X0200729Y0108514D01*
X0200459Y0109165D01*
X0199961Y0109664D01*
X0199310Y0109933D01*
X0198605Y0109933D01*
X0197954Y0109664D01*
X0197947Y0109657D01*
X0197806Y0109666D01*
X0197766Y0109709D01*
X0197610Y0110598D01*
X0197880Y0111249D01*
X0197880Y0111954D01*
X0197610Y0112605D01*
X0197112Y0113103D01*
X0196461Y0113373D01*
X0196304Y0113373D01*
X0195579Y0114087D01*
X0195580Y0114305D01*
X0195766Y0114452D01*
X0196471Y0114452D01*
X0197122Y0114721D01*
X0197621Y0115220D01*
X0197890Y0115871D01*
X0197890Y0116576D01*
X0197621Y0117227D01*
X0197122Y0117725D01*
X0196471Y0117995D01*
X0196346Y0117995D01*
X0196011Y0118352D01*
X0196291Y0118878D01*
X0196534Y0118878D01*
X0197185Y0119147D01*
X0197684Y0119646D01*
X0197953Y0120297D01*
X0197953Y0121002D01*
X0197684Y0121653D01*
X0197185Y0122151D01*
X0196534Y0122421D01*
X0195830Y0122421D01*
X0195666Y0122534D01*
X0195666Y0122882D01*
X0196407Y0123602D01*
X0196534Y0123602D01*
X0197185Y0123872D01*
X0197684Y0124370D01*
X0197953Y0125021D01*
X0197953Y0125726D01*
X0197684Y0126377D01*
X0197248Y0126813D01*
X0197179Y0126932D01*
X0197134Y0127346D01*
X0197769Y0128040D01*
X0201149Y0128040D01*
X0201149Y0128040D01*
X0201764Y0128162D01*
X0202285Y0128510D01*
X0202285Y0128510D01*
X0204748Y0130973D01*
X0205525Y0130651D01*
X0205535Y0130637D01*
X0205535Y0121638D01*
X0205600Y0121312D01*
X0205785Y0121035D01*
X0207795Y0119025D01*
X0208072Y0118840D01*
X0208398Y0118775D01*
X0216044Y0118775D01*
X0216200Y0117988D01*
X0216064Y0117931D01*
X0215566Y0117433D01*
X0215296Y0116782D01*
X0215296Y0116077D01*
X0215566Y0115426D01*
X0216064Y0114927D01*
X0216715Y0114658D01*
X0217420Y0114658D01*
X0218071Y0114927D01*
X0218569Y0115426D01*
X0218839Y0116077D01*
X0218839Y0116782D01*
X0218569Y0117433D01*
X0218071Y0117931D01*
X0218092Y0118775D01*
X0218189Y0118890D01*
X0218798Y0118890D01*
X0219449Y0119160D01*
X0219544Y0119255D01*
X0220332Y0118929D01*
X0220332Y0115417D01*
X0218454Y0113539D01*
X0218304Y0113601D01*
X0217599Y0113601D01*
X0216948Y0113332D01*
X0216449Y0112833D01*
X0216180Y0112182D01*
X0216180Y0111477D01*
X0216449Y0110826D01*
X0216948Y0110328D01*
X0217599Y0110058D01*
X0218304Y0110058D01*
X0218955Y0110328D01*
X0219453Y0110826D01*
X0219723Y0111477D01*
X0219723Y0112182D01*
X0219660Y0112333D01*
X0221788Y0114460D01*
X0221973Y0114737D01*
X0222038Y0115063D01*
X0222038Y0119758D01*
X0227462Y0125183D01*
X0228361Y0125071D01*
X0228859Y0124573D01*
X0229510Y0124303D01*
X0229590Y0124303D01*
X0229916Y0123516D01*
X0229739Y0123338D01*
X0229469Y0122687D01*
X0229231Y0122040D01*
X0228526Y0122040D01*
X0227875Y0121770D01*
X0227377Y0121272D01*
X0227107Y0120620D01*
X0227107Y0119916D01*
X0227377Y0119264D01*
X0227875Y0118766D01*
X0228526Y0118496D01*
X0229231Y0118496D01*
X0229882Y0118766D01*
X0230380Y0119264D01*
X0230650Y0119916D01*
X0230888Y0120563D01*
X0231593Y0120563D01*
X0232244Y0120833D01*
X0232743Y0121331D01*
X0233012Y0121983D01*
X0233012Y0122687D01*
X0232743Y0123338D01*
X0232244Y0123837D01*
X0231593Y0124107D01*
X0231513Y0124107D01*
X0231187Y0124894D01*
X0231365Y0125071D01*
X0231634Y0125723D01*
X0231634Y0126427D01*
X0232191Y0127141D01*
X0232971Y0127141D01*
X0233317Y0126795D01*
X0233593Y0126611D01*
X0233920Y0126546D01*
X0237805Y0126546D01*
X0238131Y0125758D01*
X0236346Y0123973D01*
D02*
G37*
G36*
X0239590Y0272557D02*
X0239092Y0272059D01*
X0238822Y0271408D01*
X0238822Y0271170D01*
X0228410Y0271170D01*
X0227884Y0271958D01*
X0227894Y0271982D01*
X0227894Y0272687D01*
X0227877Y0272729D01*
X0228403Y0273516D01*
X0239847Y0273516D01*
X0240004Y0272729D01*
X0239590Y0272557D01*
D02*
G37*
G36*
X0239044Y0169373D02*
X0238947Y0169373D01*
X0238296Y0169103D01*
X0237798Y0168605D01*
X0237528Y0167954D01*
X0237528Y0167249D01*
X0237798Y0166598D01*
X0238057Y0166338D01*
X0237731Y0165551D01*
X0232856Y0165551D01*
X0232529Y0165486D01*
X0232252Y0165301D01*
X0231744Y0164792D01*
X0231593Y0164855D01*
X0230888Y0164855D01*
X0230237Y0164585D01*
X0229739Y0164086D01*
X0229469Y0163435D01*
X0229469Y0162731D01*
X0228912Y0162017D01*
X0227214Y0162017D01*
X0226651Y0162580D01*
X0226713Y0162731D01*
X0226713Y0163435D01*
X0226443Y0164086D01*
X0225945Y0164585D01*
X0225294Y0164855D01*
X0224589Y0164855D01*
X0223938Y0164585D01*
X0223440Y0164086D01*
X0223170Y0163435D01*
X0223170Y0162731D01*
X0223440Y0162079D01*
X0223938Y0161581D01*
X0224589Y0161311D01*
X0225294Y0161311D01*
X0225444Y0161374D01*
X0226258Y0160560D01*
X0226509Y0160392D01*
X0226524Y0160323D01*
X0226378Y0159605D01*
X0216443Y0159605D01*
X0215886Y0160319D01*
X0215886Y0161024D01*
X0215616Y0161675D01*
X0215118Y0162173D01*
X0214467Y0162443D01*
X0213762Y0162443D01*
X0213111Y0162173D01*
X0212613Y0161675D01*
X0212343Y0161024D01*
X0212343Y0160319D01*
X0211786Y0159605D01*
X0208956Y0159605D01*
X0205391Y0163170D01*
X0205453Y0163321D01*
X0205453Y0164026D01*
X0205183Y0164677D01*
X0204685Y0165175D01*
X0204034Y0165445D01*
X0203329Y0165445D01*
X0202615Y0166002D01*
X0202615Y0168266D01*
X0203110Y0168471D01*
X0203609Y0168969D01*
X0203878Y0169620D01*
X0203878Y0170325D01*
X0203609Y0170976D01*
X0203552Y0171033D01*
X0203165Y0171547D01*
X0203552Y0172062D01*
X0203609Y0172119D01*
X0203878Y0172770D01*
X0203878Y0173475D01*
X0203807Y0173647D01*
X0204329Y0174435D01*
X0220666Y0174435D01*
X0220896Y0174041D01*
X0221042Y0173647D01*
X0220808Y0173081D01*
X0220808Y0172376D01*
X0221077Y0171725D01*
X0221576Y0171227D01*
X0222227Y0170957D01*
X0222932Y0170957D01*
X0223583Y0171227D01*
X0224081Y0171725D01*
X0224351Y0172376D01*
X0224351Y0173081D01*
X0224116Y0173647D01*
X0224262Y0174041D01*
X0224492Y0174435D01*
X0225575Y0174435D01*
X0225902Y0174500D01*
X0226492Y0173989D01*
X0226991Y0173490D01*
X0227642Y0173221D01*
X0228347Y0173221D01*
X0228497Y0173283D01*
X0230189Y0171591D01*
X0230465Y0171407D01*
X0230792Y0171342D01*
X0232756Y0171342D01*
X0232794Y0171334D01*
X0237933Y0171334D01*
X0237970Y0171342D01*
X0238855Y0171342D01*
X0239412Y0170628D01*
X0239412Y0169923D01*
X0239044Y0169373D01*
D02*
G37*
G36*
X0224150Y0268906D02*
X0222939Y0268906D01*
X0222382Y0269620D01*
X0222382Y0270325D01*
X0222113Y0270976D01*
X0221614Y0271475D01*
X0220963Y0271744D01*
X0220258Y0271744D01*
X0219607Y0271475D01*
X0219109Y0270976D01*
X0218839Y0270325D01*
X0218839Y0269620D01*
X0218452Y0268841D01*
X0218176Y0268656D01*
X0215194Y0265675D01*
X0214582Y0266034D01*
X0214508Y0266103D01*
X0214508Y0266782D01*
X0214239Y0267433D01*
X0213740Y0267931D01*
X0213089Y0268201D01*
X0212384Y0268201D01*
X0211733Y0267931D01*
X0211542Y0267740D01*
X0210248Y0267740D01*
X0209685Y0268439D01*
X0209685Y0269144D01*
X0209416Y0269795D01*
X0208917Y0270293D01*
X0208266Y0270563D01*
X0207561Y0270563D01*
X0206910Y0270293D01*
X0206606Y0269989D01*
X0201949Y0269989D01*
X0201793Y0270776D01*
X0201929Y0270833D01*
X0202428Y0271331D01*
X0202697Y0271982D01*
X0202697Y0272687D01*
X0202680Y0272729D01*
X0203206Y0273516D01*
X0223842Y0273516D01*
X0224368Y0272729D01*
X0224351Y0272687D01*
X0224351Y0271982D01*
X0224621Y0271331D01*
X0225119Y0270833D01*
X0225193Y0269950D01*
X0224150Y0268906D01*
D02*
G37*
G36*
X0235879Y0130322D02*
X0235609Y0129670D01*
X0235609Y0128965D01*
X0235053Y0128252D01*
X0234273Y0128252D01*
X0233927Y0128597D01*
X0233650Y0128782D01*
X0233324Y0128847D01*
X0229068Y0128847D01*
X0228741Y0128782D01*
X0228465Y0128597D01*
X0223682Y0123815D01*
X0223015Y0124261D01*
X0223200Y0124708D01*
X0223200Y0125413D01*
X0222930Y0126064D01*
X0222432Y0126563D01*
X0221781Y0126832D01*
X0221076Y0126832D01*
X0220956Y0126783D01*
X0220144Y0126685D01*
X0219646Y0127183D01*
X0218995Y0127453D01*
X0218290Y0127453D01*
X0217639Y0127183D01*
X0217140Y0126685D01*
X0216871Y0126034D01*
X0216871Y0125329D01*
X0217030Y0124944D01*
X0216686Y0124264D01*
X0216569Y0124157D01*
X0211576Y0124157D01*
X0210965Y0124738D01*
X0210965Y0125443D01*
X0210695Y0126094D01*
X0210197Y0126593D01*
X0209546Y0126862D01*
X0208841Y0126862D01*
X0208190Y0126593D01*
X0208029Y0126432D01*
X0207241Y0126758D01*
X0207241Y0133032D01*
X0208029Y0133358D01*
X0209813Y0131574D01*
X0210090Y0131389D01*
X0210416Y0131324D01*
X0210823Y0131324D01*
X0211359Y0130561D01*
X0211359Y0129857D01*
X0211629Y0129205D01*
X0212127Y0128707D01*
X0212778Y0128437D01*
X0213483Y0128437D01*
X0214134Y0128707D01*
X0214632Y0129205D01*
X0214902Y0129857D01*
X0214902Y0130561D01*
X0215438Y0131324D01*
X0235768Y0131324D01*
X0236095Y0130537D01*
X0235879Y0130322D01*
D02*
G37*
G36*
X0216997Y0233075D02*
X0216217Y0233156D01*
X0216207Y0233181D01*
X0215709Y0233679D01*
X0215138Y0233916D01*
X0215058Y0234189D01*
X0215059Y0234736D01*
X0215118Y0234760D01*
X0215616Y0235258D01*
X0215886Y0235910D01*
X0215886Y0236614D01*
X0215616Y0237266D01*
X0215118Y0237764D01*
X0214467Y0238034D01*
X0213762Y0238034D01*
X0213111Y0237764D01*
X0212613Y0237266D01*
X0212343Y0236614D01*
X0212343Y0235910D01*
X0212613Y0235258D01*
X0213111Y0234760D01*
X0213682Y0234523D01*
X0213762Y0234250D01*
X0213760Y0233704D01*
X0213702Y0233679D01*
X0213203Y0233181D01*
X0212934Y0232530D01*
X0212934Y0232332D01*
X0212146Y0232006D01*
X0205988Y0238164D01*
X0205910Y0238216D01*
X0205677Y0238593D01*
X0205597Y0239174D01*
X0205755Y0239556D01*
X0205755Y0240261D01*
X0205692Y0240412D01*
X0207235Y0241954D01*
X0213239Y0241954D01*
X0213302Y0241804D01*
X0213800Y0241305D01*
X0214451Y0241036D01*
X0215156Y0241036D01*
X0215807Y0241305D01*
X0216306Y0241804D01*
X0216309Y0241806D01*
X0217192Y0242019D01*
X0217518Y0241954D01*
X0223377Y0241954D01*
X0223440Y0241804D01*
X0223938Y0241305D01*
X0224062Y0241254D01*
X0224247Y0240325D01*
X0216997Y0233075D01*
D02*
G37*
G36*
X0239312Y0148868D02*
X0239312Y0148164D01*
X0239322Y0148139D01*
X0238796Y0147351D01*
X0228477Y0147351D01*
X0228151Y0147286D01*
X0227874Y0147101D01*
X0225131Y0144359D01*
X0224937Y0144354D01*
X0224248Y0144589D01*
X0224081Y0144992D01*
X0223583Y0145490D01*
X0222932Y0145760D01*
X0222227Y0145760D01*
X0221576Y0145490D01*
X0221077Y0144992D01*
X0220808Y0144341D01*
X0220808Y0143636D01*
X0221077Y0142985D01*
X0221576Y0142487D01*
X0221979Y0142320D01*
X0222122Y0142101D01*
X0222260Y0141661D01*
X0222274Y0141429D01*
X0222234Y0141370D01*
X0222169Y0141043D01*
X0222169Y0139453D01*
X0222234Y0139127D01*
X0222329Y0138985D01*
X0222086Y0138198D01*
X0216183Y0138198D01*
X0215007Y0139374D01*
X0215118Y0140272D01*
X0215616Y0140770D01*
X0215886Y0141421D01*
X0215886Y0142126D01*
X0215616Y0142777D01*
X0215118Y0143276D01*
X0214467Y0143545D01*
X0213762Y0143545D01*
X0213111Y0143276D01*
X0212613Y0142777D01*
X0211714Y0142666D01*
X0209001Y0145379D01*
X0208725Y0145564D01*
X0208398Y0145629D01*
X0205246Y0145629D01*
X0205183Y0145779D01*
X0204685Y0146278D01*
X0204034Y0146547D01*
X0203329Y0146547D01*
X0202615Y0147104D01*
X0202615Y0149368D01*
X0203110Y0149573D01*
X0203609Y0150071D01*
X0203878Y0150723D01*
X0203878Y0151427D01*
X0203609Y0152078D01*
X0203552Y0152135D01*
X0203165Y0152650D01*
X0203552Y0153164D01*
X0203609Y0153221D01*
X0203878Y0153872D01*
X0203878Y0153901D01*
X0204666Y0154227D01*
X0206797Y0152096D01*
X0207074Y0151911D01*
X0207400Y0151846D01*
X0219549Y0151846D01*
X0219875Y0151911D01*
X0220152Y0152096D01*
X0222018Y0153962D01*
X0226177Y0153962D01*
X0226713Y0153199D01*
X0226713Y0152494D01*
X0226983Y0151843D01*
X0227481Y0151345D01*
X0228132Y0151075D01*
X0228837Y0151075D01*
X0228988Y0151137D01*
X0229752Y0150373D01*
X0230028Y0150188D01*
X0230355Y0150124D01*
X0239072Y0150124D01*
X0239250Y0149912D01*
X0239505Y0149336D01*
X0239312Y0148868D01*
D02*
G37*
G36*
X0220592Y0223470D02*
X0220147Y0223470D01*
X0219821Y0223405D01*
X0219544Y0223220D01*
X0216925Y0220601D01*
X0216740Y0220325D01*
X0216675Y0219998D01*
X0216675Y0219002D01*
X0215924Y0218330D01*
X0215616Y0218368D01*
X0215118Y0218866D01*
X0214467Y0219136D01*
X0213762Y0219136D01*
X0213111Y0218866D01*
X0212613Y0218368D01*
X0212343Y0217717D01*
X0212343Y0217012D01*
X0211786Y0216298D01*
X0205688Y0216298D01*
X0205362Y0217085D01*
X0205396Y0217120D01*
X0205666Y0217771D01*
X0205666Y0218476D01*
X0205604Y0218627D01*
X0211855Y0224878D01*
X0220886Y0224878D01*
X0221212Y0224090D01*
X0220592Y0223470D01*
D02*
G37*
G36*
X0226769Y0177663D02*
X0226695Y0177613D01*
X0225222Y0176141D01*
X0203848Y0176141D01*
X0203144Y0176885D01*
X0203171Y0177330D01*
X0203329Y0177453D01*
X0204034Y0177453D01*
X0204685Y0177723D01*
X0205183Y0178221D01*
X0205453Y0178872D01*
X0205453Y0179577D01*
X0205391Y0179728D01*
X0209967Y0184303D01*
X0213386Y0184303D01*
X0213448Y0184153D01*
X0213947Y0183654D01*
X0214598Y0183385D01*
X0215303Y0183385D01*
X0215954Y0183654D01*
X0216452Y0184153D01*
X0216722Y0184804D01*
X0216722Y0185509D01*
X0216452Y0186160D01*
X0215954Y0186658D01*
X0215303Y0186928D01*
X0214598Y0186928D01*
X0213947Y0186658D01*
X0213448Y0186160D01*
X0213386Y0186009D01*
X0209613Y0186009D01*
X0209287Y0185944D01*
X0209010Y0185759D01*
X0206669Y0183418D01*
X0206227Y0183601D01*
X0205935Y0183798D01*
X0205876Y0184091D01*
X0205691Y0184368D01*
X0203415Y0186644D01*
X0203114Y0187359D01*
X0203427Y0187685D01*
X0203609Y0187867D01*
X0203878Y0188518D01*
X0203878Y0189223D01*
X0203609Y0189874D01*
X0203552Y0189931D01*
X0203165Y0190445D01*
X0203552Y0190960D01*
X0203609Y0191016D01*
X0203878Y0191667D01*
X0203878Y0192372D01*
X0203609Y0193023D01*
X0203110Y0193522D01*
X0202459Y0193791D01*
X0201754Y0193791D01*
X0201680Y0193761D01*
X0200893Y0194287D01*
X0200893Y0199435D01*
X0201921Y0199435D01*
X0202080Y0199277D01*
X0202382Y0198647D01*
X0202209Y0198229D01*
X0202209Y0197525D01*
X0202479Y0196873D01*
X0202977Y0196375D01*
X0203628Y0196105D01*
X0204333Y0196105D01*
X0204984Y0196375D01*
X0205483Y0196873D01*
X0205545Y0197024D01*
X0208522Y0197024D01*
X0226950Y0178597D01*
X0226956Y0178374D01*
X0226769Y0177663D01*
D02*
G37*
G36*
X0195965Y0269989D02*
X0195761Y0269989D01*
X0195434Y0269924D01*
X0195158Y0269739D01*
X0193555Y0268136D01*
X0193404Y0268199D01*
X0192699Y0268199D01*
X0192048Y0267929D01*
X0191550Y0267431D01*
X0191280Y0266780D01*
X0191280Y0266075D01*
X0191283Y0266066D01*
X0190757Y0265279D01*
X0189868Y0265279D01*
X0189467Y0265445D01*
X0188762Y0265445D01*
X0188111Y0265175D01*
X0187613Y0264677D01*
X0187343Y0264026D01*
X0187343Y0263321D01*
X0187315Y0263280D01*
X0185965Y0263280D01*
X0185965Y0268479D01*
X0186753Y0269006D01*
X0186794Y0268988D01*
X0187499Y0268988D01*
X0188150Y0269258D01*
X0188648Y0269756D01*
X0188918Y0270408D01*
X0188918Y0271113D01*
X0188648Y0271764D01*
X0188150Y0272262D01*
X0187499Y0272532D01*
X0187195Y0272532D01*
X0186608Y0273207D01*
X0186593Y0273259D01*
X0186671Y0273516D01*
X0194708Y0273516D01*
X0195234Y0272729D01*
X0195217Y0272687D01*
X0195217Y0271982D01*
X0195487Y0271331D01*
X0195985Y0270833D01*
X0196121Y0270776D01*
X0195965Y0269989D01*
D02*
G37*
G36*
X0192315Y0127536D02*
X0192315Y0127536D01*
X0191967Y0127015D01*
X0191845Y0126401D01*
X0191845Y0126401D01*
X0191845Y0110500D01*
X0191845Y0110500D01*
X0191967Y0109886D01*
X0192315Y0109365D01*
X0193912Y0107768D01*
X0193620Y0107062D01*
X0193527Y0106981D01*
X0187934Y0106981D01*
X0187934Y0108932D01*
X0188150Y0109022D01*
X0188648Y0109520D01*
X0188918Y0110171D01*
X0188918Y0110876D01*
X0188648Y0111527D01*
X0188150Y0112026D01*
X0187934Y0112115D01*
X0187934Y0113657D01*
X0188150Y0113746D01*
X0188648Y0114245D01*
X0188918Y0114896D01*
X0188918Y0115601D01*
X0188648Y0116252D01*
X0188150Y0116750D01*
X0187934Y0116840D01*
X0187934Y0118381D01*
X0188150Y0118471D01*
X0188648Y0118969D01*
X0188918Y0119620D01*
X0188918Y0120325D01*
X0188648Y0120976D01*
X0188150Y0121475D01*
X0187934Y0121564D01*
X0187934Y0123106D01*
X0188150Y0123195D01*
X0188648Y0123694D01*
X0188918Y0124345D01*
X0188918Y0125049D01*
X0188648Y0125701D01*
X0188150Y0126199D01*
X0187934Y0126288D01*
X0187934Y0127830D01*
X0188150Y0127920D01*
X0188648Y0128418D01*
X0188918Y0129069D01*
X0188918Y0129774D01*
X0188648Y0130425D01*
X0188150Y0130923D01*
X0187934Y0131013D01*
X0187934Y0132161D01*
X0188150Y0132250D01*
X0188648Y0132749D01*
X0188779Y0133065D01*
X0189645Y0133313D01*
X0191278Y0131680D01*
X0191278Y0131680D01*
X0191799Y0131332D01*
X0192413Y0131210D01*
X0192860Y0131210D01*
X0194424Y0129645D01*
X0192315Y0127536D01*
D02*
G37*
%LPC*%
G36*
X0307028Y0269227D02*
X0307028Y0269931D01*
X0306758Y0270583D01*
X0306260Y0271081D01*
X0305609Y0271351D01*
X0304904Y0271351D01*
X0304253Y0271081D01*
X0303754Y0270583D01*
X0303485Y0269931D01*
X0303485Y0269227D01*
X0303754Y0268575D01*
X0304253Y0268077D01*
X0304904Y0267807D01*
X0305609Y0267807D01*
X0306260Y0268077D01*
X0306758Y0268575D01*
X0307028Y0269227D01*
D02*
G37*
G36*
X0248191Y0265431D02*
X0248191Y0266136D01*
X0247922Y0266787D01*
X0247423Y0267285D01*
X0246772Y0267555D01*
X0246067Y0267555D01*
X0245416Y0267285D01*
X0244918Y0266787D01*
X0244648Y0266136D01*
X0244648Y0265431D01*
X0244918Y0264780D01*
X0245416Y0264281D01*
X0246067Y0264012D01*
X0246772Y0264012D01*
X0247423Y0264281D01*
X0247922Y0264780D01*
X0248191Y0265431D01*
D02*
G37*
G36*
X0334193Y0186943D02*
X0334193Y0187648D01*
X0333924Y0188299D01*
X0333425Y0188797D01*
X0332774Y0189067D01*
X0332069Y0189067D01*
X0331418Y0188797D01*
X0330920Y0188299D01*
X0330650Y0187648D01*
X0330650Y0186943D01*
X0330920Y0186292D01*
X0331418Y0185794D01*
X0332069Y0185524D01*
X0332774Y0185524D01*
X0333425Y0185794D01*
X0333924Y0186292D01*
X0334193Y0186943D01*
D02*
G37*
G36*
X0331437Y0180644D02*
X0331437Y0181349D01*
X0331168Y0182000D01*
X0330669Y0182498D01*
X0330018Y0182768D01*
X0329313Y0182768D01*
X0328662Y0182498D01*
X0328164Y0182000D01*
X0327894Y0181349D01*
X0327894Y0180644D01*
X0328164Y0179993D01*
X0328662Y0179494D01*
X0329313Y0179225D01*
X0330018Y0179225D01*
X0330669Y0179494D01*
X0331168Y0179993D01*
X0331437Y0180644D01*
D02*
G37*
G36*
X0327796Y0138992D02*
X0327796Y0139697D01*
X0327526Y0140348D01*
X0327028Y0140847D01*
X0326376Y0141116D01*
X0325672Y0141116D01*
X0325021Y0140847D01*
X0324522Y0140348D01*
X0324252Y0139697D01*
X0324252Y0138992D01*
X0323629Y0138439D01*
X0323544Y0138404D01*
X0323046Y0137905D01*
X0322776Y0137254D01*
X0322776Y0136549D01*
X0323046Y0135898D01*
X0323544Y0135400D01*
X0324195Y0135130D01*
X0324900Y0135130D01*
X0325551Y0135400D01*
X0326050Y0135898D01*
X0326319Y0136549D01*
X0326319Y0137254D01*
X0326943Y0137808D01*
X0327028Y0137843D01*
X0327526Y0138341D01*
X0327796Y0138992D01*
D02*
G37*
G36*
X0320020Y0149591D02*
X0320020Y0150296D01*
X0319750Y0150947D01*
X0319252Y0151445D01*
X0318601Y0151715D01*
X0317896Y0151715D01*
X0317568Y0152431D01*
X0317388Y0152866D01*
X0316890Y0153364D01*
X0316239Y0153634D01*
X0315534Y0153634D01*
X0314883Y0153364D01*
X0314384Y0152866D01*
X0314115Y0152215D01*
X0314115Y0151510D01*
X0314384Y0150859D01*
X0314883Y0150361D01*
X0315534Y0150091D01*
X0316239Y0150091D01*
X0316567Y0149374D01*
X0316747Y0148940D01*
X0317245Y0148441D01*
X0317896Y0148171D01*
X0318601Y0148171D01*
X0319252Y0148441D01*
X0319750Y0148940D01*
X0320020Y0149591D01*
D02*
G37*
G36*
X0311900Y0168336D02*
X0311900Y0169041D01*
X0311630Y0169692D01*
X0311132Y0170190D01*
X0310776Y0170337D01*
X0310745Y0170494D01*
X0311015Y0171145D01*
X0311015Y0171850D01*
X0310745Y0172501D01*
X0310247Y0173000D01*
X0309596Y0173269D01*
X0308996Y0173269D01*
X0308996Y0173868D01*
X0308727Y0174519D01*
X0308228Y0175018D01*
X0307577Y0175288D01*
X0306872Y0175288D01*
X0306221Y0175018D01*
X0305723Y0174519D01*
X0305453Y0173868D01*
X0305453Y0173164D01*
X0305723Y0172512D01*
X0306221Y0172014D01*
X0306872Y0171744D01*
X0307472Y0171744D01*
X0307472Y0171145D01*
X0307741Y0170494D01*
X0308240Y0169996D01*
X0308595Y0169848D01*
X0308626Y0169692D01*
X0308357Y0169041D01*
X0308357Y0168336D01*
X0308626Y0167684D01*
X0309125Y0167186D01*
X0309776Y0166916D01*
X0310481Y0166916D01*
X0311132Y0167186D01*
X0311630Y0167684D01*
X0311900Y0168336D01*
D02*
G37*
G36*
X0307560Y0145290D02*
X0307560Y0145994D01*
X0307290Y0146645D01*
X0306791Y0147144D01*
X0306140Y0147414D01*
X0305954Y0147414D01*
X0305847Y0147573D01*
X0305847Y0148278D01*
X0305577Y0148929D01*
X0305079Y0149427D01*
X0304428Y0149697D01*
X0303723Y0149697D01*
X0303072Y0149427D01*
X0302573Y0148929D01*
X0302304Y0148278D01*
X0302304Y0147573D01*
X0302573Y0146922D01*
X0303072Y0146423D01*
X0303723Y0146154D01*
X0303910Y0146154D01*
X0304016Y0145994D01*
X0304016Y0145290D01*
X0304286Y0144638D01*
X0304784Y0144140D01*
X0305436Y0143870D01*
X0306140Y0143870D01*
X0306791Y0144140D01*
X0307290Y0144638D01*
X0307560Y0145290D01*
D02*
G37*
G36*
X0301910Y0155841D02*
X0301910Y0156545D01*
X0301640Y0157197D01*
X0301583Y0157254D01*
X0301197Y0157768D01*
X0301583Y0158282D01*
X0301640Y0158339D01*
X0301910Y0158990D01*
X0301910Y0159695D01*
X0301640Y0160346D01*
X0301142Y0160845D01*
X0300491Y0161114D01*
X0299786Y0161114D01*
X0299135Y0160845D01*
X0298636Y0160346D01*
X0298367Y0159695D01*
X0298367Y0158990D01*
X0298636Y0158339D01*
X0298693Y0158282D01*
X0299080Y0157768D01*
X0298693Y0157254D01*
X0298636Y0157197D01*
X0298367Y0156545D01*
X0298367Y0155841D01*
X0298636Y0155190D01*
X0299135Y0154691D01*
X0299786Y0154421D01*
X0300491Y0154421D01*
X0301142Y0154691D01*
X0301640Y0155190D01*
X0301910Y0155841D01*
D02*
G37*
G36*
X0274744Y0162927D02*
X0274744Y0163632D01*
X0274475Y0164283D01*
X0273976Y0164782D01*
X0273325Y0165051D01*
X0272620Y0165051D01*
X0271969Y0164782D01*
X0271471Y0164283D01*
X0271201Y0163632D01*
X0271201Y0162927D01*
X0271471Y0162276D01*
X0271969Y0161778D01*
X0272620Y0161508D01*
X0273325Y0161508D01*
X0273976Y0161778D01*
X0274475Y0162276D01*
X0274744Y0162927D01*
D02*
G37*
G36*
X0224351Y0194817D02*
X0224351Y0195522D01*
X0224081Y0196173D01*
X0223583Y0196671D01*
X0222932Y0196941D01*
X0222227Y0196941D01*
X0221576Y0196671D01*
X0221077Y0196173D01*
X0220808Y0195522D01*
X0220808Y0194817D01*
X0221077Y0194166D01*
X0221576Y0193668D01*
X0222227Y0193398D01*
X0222932Y0193398D01*
X0223583Y0193668D01*
X0224081Y0194166D01*
X0224351Y0194817D01*
D02*
G37*
G36*
X0214115Y0111746D02*
X0214115Y0112451D01*
X0213845Y0113102D01*
X0213347Y0113601D01*
X0212695Y0113870D01*
X0211991Y0113870D01*
X0211339Y0113601D01*
X0210841Y0113102D01*
X0210779Y0112951D01*
X0210282Y0112498D01*
X0209833Y0112570D01*
X0209546Y0112689D01*
X0208841Y0112689D01*
X0208190Y0112419D01*
X0207691Y0111921D01*
X0207584Y0111660D01*
X0207441Y0111632D01*
X0206790Y0111902D01*
X0206085Y0111902D01*
X0205434Y0111632D01*
X0204936Y0111134D01*
X0204666Y0110483D01*
X0204666Y0109778D01*
X0204936Y0109127D01*
X0205434Y0108628D01*
X0206085Y0108359D01*
X0206790Y0108359D01*
X0207441Y0108628D01*
X0207939Y0109127D01*
X0208047Y0109387D01*
X0208190Y0109416D01*
X0208841Y0109146D01*
X0209546Y0109146D01*
X0210197Y0109416D01*
X0210695Y0109914D01*
X0210758Y0110065D01*
X0211254Y0110519D01*
X0211703Y0110446D01*
X0211991Y0110327D01*
X0212695Y0110327D01*
X0213347Y0110597D01*
X0213845Y0111095D01*
X0214115Y0111746D01*
D02*
G37*
G36*
X0231634Y0167061D02*
X0231634Y0167766D01*
X0231365Y0168417D01*
X0230866Y0168915D01*
X0230215Y0169185D01*
X0229510Y0169185D01*
X0228859Y0168915D01*
X0228361Y0168417D01*
X0228091Y0167766D01*
X0228091Y0167061D01*
X0228361Y0166410D01*
X0228859Y0165912D01*
X0229510Y0165642D01*
X0230215Y0165642D01*
X0230866Y0165912D01*
X0231365Y0166410D01*
X0231634Y0167061D01*
D02*
G37*
G36*
X0224351Y0166471D02*
X0224351Y0167175D01*
X0224081Y0167827D01*
X0223583Y0168325D01*
X0222932Y0168595D01*
X0222227Y0168595D01*
X0221576Y0168325D01*
X0221077Y0167827D01*
X0220808Y0167175D01*
X0220808Y0166471D01*
X0221077Y0165820D01*
X0221576Y0165321D01*
X0222227Y0165051D01*
X0222932Y0165051D01*
X0223583Y0165321D01*
X0224081Y0165820D01*
X0224351Y0166471D01*
D02*
G37*
G36*
X0224351Y0149541D02*
X0224351Y0150246D01*
X0224081Y0150898D01*
X0223583Y0151396D01*
X0222932Y0151666D01*
X0222227Y0151666D01*
X0221576Y0151396D01*
X0221077Y0150898D01*
X0220808Y0150246D01*
X0220808Y0149541D01*
X0221077Y0148890D01*
X0221576Y0148392D01*
X0222227Y0148122D01*
X0222932Y0148122D01*
X0223583Y0148392D01*
X0224081Y0148890D01*
X0224351Y0149541D01*
D02*
G37*
G36*
X0215886Y0179217D02*
X0215886Y0179922D01*
X0215616Y0180573D01*
X0215118Y0181071D01*
X0214467Y0181341D01*
X0213762Y0181341D01*
X0213111Y0181071D01*
X0212613Y0180573D01*
X0212343Y0179922D01*
X0212343Y0179217D01*
X0212613Y0178566D01*
X0213111Y0178067D01*
X0213762Y0177797D01*
X0214467Y0177797D01*
X0215118Y0178067D01*
X0215616Y0178566D01*
X0215886Y0179217D01*
D02*
G37*
%LPD*%
D45*
X0307512Y0227699D02*
X0310722Y0224489D01*
X0310722Y0223729D02*
X0314016Y0220435D01*
X0302697Y0230910D02*
X0305907Y0227699D01*
X0307512Y0227699D01*
X0302697Y0233537D02*
X0302697Y0230910D01*
X0310722Y0224489D02*
X0310722Y0223729D01*
X0203682Y0257620D02*
X0203983Y0257319D01*
X0205016Y0257319D01*
X0303897Y0234736D02*
X0302697Y0233537D01*
X0316349Y0234736D02*
X0323731Y0227355D01*
X0303897Y0234736D02*
X0316349Y0234736D01*
X0302347Y0239953D02*
X0314876Y0239953D01*
X0300327Y0241973D02*
X0302347Y0239953D01*
X0314016Y0220435D02*
X0314016Y0212364D01*
X0315573Y0240650D02*
X0314876Y0239953D01*
X0315573Y0240650D02*
X0317116Y0240650D01*
X0319273Y0242807D02*
X0317116Y0240650D01*
X0205016Y0257319D02*
X0214804Y0247532D01*
X0323731Y0227355D02*
X0324429Y0227355D01*
X0326496Y0225288D02*
X0329075Y0225288D01*
X0324429Y0227355D02*
X0326496Y0225288D01*
X0298662Y0196885D02*
X0298662Y0189139D01*
X0300392Y0198614D02*
X0298662Y0196885D01*
X0314016Y0212364D02*
X0311457Y0209805D01*
X0311457Y0207109D01*
X0302963Y0198614D01*
X0300392Y0198614D02*
X0302963Y0198614D01*
X0298662Y0189139D02*
X0295611Y0186088D01*
X0295611Y0180235D02*
X0294479Y0179103D01*
X0295611Y0186088D02*
X0295611Y0180235D01*
X0294479Y0166282D02*
X0289705Y0161508D01*
X0294479Y0179103D02*
X0294479Y0166282D01*
X0289103Y0161508D02*
X0289705Y0161508D01*
X0289103Y0161508D02*
X0288127Y0160531D01*
X0283774Y0159737D02*
X0285487Y0159737D01*
X0282422Y0161089D02*
X0283774Y0159737D01*
X0286282Y0160531D02*
X0285487Y0159737D01*
X0286282Y0160531D02*
X0288127Y0160531D01*
X0282422Y0162689D02*
X0282422Y0161089D01*
X0282618Y0166429D02*
X0282618Y0162886D01*
X0282422Y0162689D01*
X0286006Y0170071D02*
X0286945Y0170071D01*
X0288858Y0171984D02*
X0286945Y0170071D01*
X0288858Y0174260D02*
X0288858Y0171984D01*
X0262862Y0200257D02*
X0288858Y0174260D01*
X0286006Y0170071D02*
X0284796Y0168860D01*
X0284796Y0168607D02*
X0282618Y0166429D01*
X0284796Y0168860D02*
X0284796Y0168607D01*
X0259390Y0200257D02*
X0262862Y0200257D01*
X0319273Y0242807D02*
X0322611Y0242807D01*
X0322850Y0242568D01*
X0293364Y0241973D02*
X0300327Y0241973D01*
X0289165Y0241331D02*
X0292723Y0241331D01*
X0293364Y0241973D02*
X0292723Y0241331D01*
D76*
X0196695Y0129645D02*
X0201149Y0129645D01*
X0204394Y0132889D02*
X0201149Y0129645D01*
X0198760Y0267414D02*
X0195020Y0263673D01*
X0198760Y0267414D02*
X0204630Y0267414D01*
X0189804Y0263673D02*
X0195020Y0263673D01*
X0250729Y0260318D02*
X0250231Y0259820D01*
X0295226Y0260318D02*
X0299745Y0255799D01*
X0250729Y0260318D02*
X0295226Y0260318D01*
X0250125Y0259820D02*
X0250231Y0259820D01*
X0307760Y0127494D02*
X0313266Y0121988D01*
X0300010Y0127494D02*
X0307760Y0127494D01*
X0294430Y0121914D02*
X0294430Y0116823D01*
X0300010Y0127494D02*
X0294430Y0121914D01*
X0212630Y0266429D02*
X0212335Y0266134D01*
X0205910Y0266134D02*
X0212335Y0266134D01*
X0212630Y0266429D02*
X0212737Y0266429D01*
X0204630Y0267414D02*
X0205910Y0266134D01*
X0189190Y0145670D02*
X0189296Y0145563D01*
X0189190Y0145457D01*
X0189190Y0150394D02*
X0189296Y0150288D01*
X0189190Y0150181D01*
X0189190Y0140945D02*
X0189296Y0140839D01*
X0189190Y0140732D01*
X0189190Y0159843D02*
X0189296Y0159736D01*
X0189190Y0159630D01*
X0189296Y0155012D02*
X0189190Y0154905D01*
X0189190Y0155119D02*
X0189296Y0155012D01*
X0189190Y0169292D02*
X0189296Y0169185D01*
X0189190Y0169079D01*
X0189190Y0174016D02*
X0189296Y0173910D01*
X0189190Y0173803D01*
X0189190Y0183465D02*
X0189296Y0183358D01*
X0189190Y0183252D01*
X0189190Y0164567D02*
X0189296Y0164461D01*
X0189190Y0164354D01*
X0189190Y0178741D02*
X0189296Y0178634D01*
X0189190Y0178527D01*
X0189190Y0197638D02*
X0189296Y0197532D01*
X0189190Y0197425D01*
X0189296Y0202256D02*
X0189190Y0202150D01*
X0189190Y0202363D02*
X0189296Y0202256D01*
X0189190Y0188189D02*
X0189296Y0188083D01*
X0189190Y0187976D01*
X0189190Y0192914D02*
X0189296Y0192807D01*
X0189190Y0192701D01*
X0189190Y0216536D02*
X0189296Y0216429D01*
X0189190Y0216323D01*
X0189296Y0221154D02*
X0189190Y0221047D01*
X0189190Y0221260D02*
X0189296Y0221154D01*
X0189190Y0207087D02*
X0189296Y0206980D01*
X0189190Y0206874D01*
X0189296Y0211705D02*
X0189190Y0211598D01*
X0189190Y0211812D02*
X0189296Y0211705D01*
X0189296Y0235327D02*
X0189190Y0235220D01*
X0189190Y0235433D02*
X0189296Y0235327D01*
X0189190Y0240158D02*
X0189296Y0240051D01*
X0189190Y0239945D01*
X0189190Y0225985D02*
X0189296Y0225878D01*
X0189190Y0225772D01*
X0189190Y0230709D02*
X0189296Y0230603D01*
X0189190Y0230496D01*
X0189296Y0249500D02*
X0189190Y0249394D01*
X0189190Y0249607D02*
X0189296Y0249500D01*
X0189190Y0244882D02*
X0189296Y0244776D01*
X0189190Y0244669D01*
X0189190Y0259056D02*
X0189296Y0258949D01*
X0189190Y0254331D02*
X0189296Y0254225D01*
X0189190Y0254118D01*
X0189296Y0258949D02*
X0189190Y0258843D01*
X0189190Y0244594D02*
X0189804Y0243980D01*
X0189804Y0240847D01*
X0189190Y0240233D01*
X0189190Y0240158D01*
X0189190Y0239945D02*
X0189190Y0239869D01*
X0189804Y0239256D01*
X0189804Y0236122D01*
X0189190Y0235509D01*
X0189190Y0235433D01*
X0189190Y0235220D02*
X0189190Y0235145D01*
X0189804Y0234531D01*
X0189804Y0231398D01*
X0189190Y0230785D01*
X0189190Y0230709D01*
X0189190Y0230496D02*
X0189190Y0230421D01*
X0189804Y0229807D01*
X0189804Y0226674D01*
X0189190Y0226060D01*
X0189190Y0225772D02*
X0189190Y0225696D01*
X0189804Y0225083D01*
X0189804Y0221949D01*
X0189190Y0221336D01*
X0189190Y0221260D01*
X0189190Y0221047D02*
X0189190Y0220972D01*
X0189804Y0220358D01*
X0189804Y0217225D01*
X0189190Y0216611D01*
X0189190Y0216536D01*
X0189115Y0263673D02*
X0189115Y0263567D01*
X0189804Y0262878D01*
X0189804Y0259745D01*
X0189190Y0216323D02*
X0189190Y0216247D01*
X0189804Y0259745D02*
X0189190Y0259131D01*
X0189804Y0212501D02*
X0189190Y0211887D01*
X0189190Y0211812D01*
X0189190Y0258843D02*
X0189190Y0258767D01*
X0189804Y0258154D01*
X0189804Y0255020D01*
X0189190Y0211598D02*
X0189190Y0211523D01*
X0189804Y0255020D02*
X0189190Y0254407D01*
X0189190Y0211523D02*
X0189804Y0210909D01*
X0189190Y0254407D02*
X0189190Y0254331D01*
X0189804Y0210909D02*
X0189804Y0207776D01*
X0189190Y0207162D01*
X0189190Y0207087D01*
X0189190Y0254118D02*
X0189190Y0254043D01*
X0189804Y0253429D01*
X0189190Y0178527D02*
X0189190Y0178452D01*
X0189804Y0253429D02*
X0189804Y0250296D01*
X0189190Y0178452D02*
X0189804Y0177838D01*
X0189190Y0206874D02*
X0189190Y0206799D01*
X0189804Y0250296D02*
X0189190Y0249682D01*
X0189804Y0177838D02*
X0189804Y0174705D01*
X0189190Y0206799D02*
X0189804Y0206185D01*
X0189190Y0249682D02*
X0189190Y0249607D01*
X0189804Y0174705D02*
X0189190Y0174092D01*
X0189804Y0206185D02*
X0189804Y0203052D01*
X0189190Y0174092D02*
X0189190Y0174016D01*
X0189804Y0203052D02*
X0189190Y0202438D01*
X0189190Y0202363D01*
X0189190Y0249394D02*
X0189190Y0249318D01*
X0189804Y0248705D01*
X0189190Y0173803D02*
X0189190Y0173728D01*
X0189804Y0248705D02*
X0189804Y0245571D01*
X0189190Y0173728D02*
X0189804Y0173114D01*
X0189190Y0202150D02*
X0189190Y0202074D01*
X0189804Y0245571D02*
X0189190Y0244958D01*
X0189804Y0173114D02*
X0189804Y0169981D01*
X0189190Y0202074D02*
X0189804Y0201461D01*
X0189190Y0244958D02*
X0189190Y0244882D01*
X0189804Y0169981D02*
X0189190Y0169367D01*
X0189190Y0169292D01*
X0189190Y0244669D02*
X0189190Y0244594D01*
X0189190Y0169079D02*
X0189190Y0169003D01*
X0189804Y0168390D01*
X0189804Y0165256D01*
X0189190Y0164643D01*
X0189190Y0164567D01*
X0189190Y0164354D02*
X0189190Y0164279D01*
X0189190Y0140732D02*
X0189190Y0140657D01*
X0189804Y0182563D02*
X0189804Y0179430D01*
X0189190Y0192701D02*
X0189190Y0192625D01*
X0189804Y0160532D02*
X0189190Y0159918D01*
X0189190Y0187976D02*
X0189190Y0187901D01*
X0189804Y0155807D02*
X0189190Y0155194D01*
X0189115Y0136221D02*
X0189115Y0136114D01*
X0189804Y0149492D02*
X0189804Y0146359D01*
X0189190Y0188265D02*
X0189190Y0188189D01*
X0189190Y0159630D02*
X0189190Y0159555D01*
X0189804Y0201461D02*
X0189804Y0198327D01*
X0189804Y0140043D02*
X0189804Y0136910D01*
X0189190Y0178816D02*
X0189190Y0178741D01*
X0189190Y0150181D02*
X0189190Y0150106D01*
X0189804Y0192012D02*
X0189804Y0188878D01*
X0189190Y0183252D02*
X0189190Y0183177D01*
X0189804Y0151083D02*
X0189190Y0150469D01*
X0189190Y0164279D02*
X0189804Y0163665D01*
X0193525Y0132815D02*
X0196695Y0129645D01*
X0189804Y0146359D02*
X0189190Y0145745D01*
X0189190Y0159555D02*
X0189804Y0158941D01*
X0189804Y0198327D02*
X0189190Y0197714D01*
X0189190Y0145457D02*
X0189190Y0145381D01*
X0189804Y0187287D02*
X0189804Y0184154D01*
X0189190Y0197425D02*
X0189190Y0197350D01*
X0192413Y0132815D02*
X0193525Y0132815D01*
X0189190Y0226060D02*
X0189190Y0225985D01*
X0189190Y0145381D02*
X0189804Y0144768D01*
X0189804Y0184154D02*
X0189190Y0183540D01*
X0189190Y0197350D02*
X0189804Y0196736D01*
X0189115Y0136114D02*
X0192413Y0132815D01*
X0189804Y0144768D02*
X0189804Y0141634D01*
X0189190Y0183540D02*
X0189190Y0183465D01*
X0189190Y0154905D02*
X0189190Y0154830D01*
X0189804Y0196736D02*
X0189804Y0193603D01*
X0189190Y0216247D02*
X0189804Y0215634D01*
X0189190Y0259131D02*
X0189190Y0259056D01*
X0189804Y0141634D02*
X0189190Y0141021D01*
X0189190Y0154830D02*
X0189804Y0154217D01*
X0189804Y0193603D02*
X0189190Y0192989D01*
X0189190Y0145745D02*
X0189190Y0145670D01*
X0189804Y0158941D02*
X0189804Y0155807D01*
X0189190Y0197714D02*
X0189190Y0197638D01*
X0189190Y0187901D02*
X0189804Y0187287D01*
X0189190Y0155194D02*
X0189190Y0155119D01*
X0189804Y0215634D02*
X0189804Y0212501D01*
X0189190Y0141021D02*
X0189190Y0140945D01*
X0189804Y0154217D02*
X0189804Y0151083D01*
X0189190Y0192989D02*
X0189190Y0192914D01*
X0189190Y0183177D02*
X0189804Y0182563D01*
X0189190Y0150469D02*
X0189190Y0150394D01*
X0189804Y0163665D02*
X0189804Y0160532D01*
X0189190Y0159918D02*
X0189190Y0159843D01*
X0189804Y0188878D02*
X0189190Y0188265D01*
X0189804Y0179430D02*
X0189190Y0178816D01*
X0189190Y0150106D02*
X0189804Y0149492D01*
X0189190Y0140657D02*
X0189804Y0140043D01*
X0189804Y0136910D02*
X0189115Y0136221D01*
X0189190Y0192625D02*
X0189804Y0192012D01*
X0196695Y0129645D02*
X0193451Y0126401D01*
X0193451Y0110500D02*
X0195789Y0108162D01*
X0193451Y0126401D02*
X0193451Y0110500D01*
X0195789Y0108162D02*
X0195808Y0108162D01*
D15*
X0213524Y0273122D02*
D03*
D11*
X0190493Y0273122D02*
D03*
D14*
X0239902Y0273122D02*
D03*
D22*
X0189902Y0107374D02*
D03*
D13*
X0287343Y0273122D02*
D03*
D12*
X0319626Y0273122D02*
D03*
D17*
X0343445Y0260524D02*
D03*
D18*
X0343445Y0227059D02*
D03*
D19*
X0343445Y0188280D02*
D03*
D21*
X0212146Y0107374D02*
D03*
D20*
X0337540Y0107374D02*
D03*
D16*
X0186359Y0266036D02*
D03*
D158*
X0294628Y0232079D02*
X0294986Y0231721D01*
X0294986Y0230825D01*
X0304223Y0221589D01*
X0303239Y0221181D02*
X0303239Y0216028D01*
X0304223Y0221589D02*
X0304223Y0215620D01*
X0295785Y0228634D02*
X0303239Y0221181D01*
X0282611Y0214561D02*
X0292275Y0214561D01*
X0296989Y0219274D02*
X0292275Y0214561D01*
X0296989Y0221793D02*
X0296989Y0219274D01*
X0293746Y0218941D02*
X0293941Y0218941D01*
X0305441Y0223659D02*
X0305799Y0223301D01*
X0308149Y0223633D02*
X0308655Y0223633D01*
X0305847Y0222436D02*
X0305847Y0215852D01*
X0306831Y0222335D02*
X0306831Y0215445D01*
X0308149Y0223633D02*
X0307547Y0223031D01*
X0307527Y0223031D02*
X0307547Y0223031D01*
X0305799Y0222484D02*
X0305847Y0222436D01*
X0307527Y0223031D02*
X0306831Y0222335D01*
X0305799Y0223301D02*
X0305799Y0222484D01*
X0305847Y0215852D02*
X0296546Y0206551D01*
X0306831Y0215445D02*
X0297530Y0206144D01*
X0230360Y0252734D02*
X0231485Y0251609D01*
X0201762Y0176419D02*
X0202894Y0175288D01*
X0201762Y0180020D02*
X0201762Y0176419D01*
X0202894Y0175288D02*
X0225575Y0175288D01*
X0227298Y0177010D02*
X0234792Y0177010D01*
X0235874Y0175927D01*
X0239122Y0175927D01*
X0227298Y0177010D02*
X0225575Y0175288D01*
X0240247Y0177052D02*
X0239122Y0175927D01*
X0227994Y0174992D02*
X0230792Y0172195D01*
X0232759Y0173179D02*
X0233194Y0173179D01*
X0230847Y0175091D02*
X0232759Y0173179D01*
X0233194Y0173179D02*
X0233201Y0173171D01*
X0230792Y0172195D02*
X0232786Y0172195D01*
X0233201Y0173171D02*
X0236975Y0173171D01*
X0237940Y0172195D02*
X0243586Y0172195D01*
X0236982Y0173179D02*
X0236975Y0173171D01*
X0244794Y0173179D02*
X0246180Y0171793D01*
X0234144Y0174943D02*
X0244422Y0174943D01*
X0237940Y0172195D02*
X0237933Y0172187D01*
X0236982Y0173179D02*
X0244794Y0173179D01*
X0232794Y0172187D02*
X0237933Y0172187D01*
X0243586Y0172195D02*
X0246595Y0169185D01*
X0232786Y0172195D02*
X0232794Y0172187D01*
X0233996Y0175091D02*
X0234144Y0174943D01*
X0200187Y0155020D02*
X0200187Y0139961D01*
X0206388Y0133760D01*
X0195761Y0269136D02*
X0207569Y0269136D01*
X0207914Y0268792D01*
X0195761Y0269136D02*
X0193052Y0266427D01*
X0201910Y0260524D02*
X0215261Y0260524D01*
X0202345Y0259540D02*
X0207020Y0259540D01*
X0201502Y0261508D02*
X0214844Y0261508D01*
X0201910Y0260524D02*
X0198937Y0257551D01*
X0207020Y0259540D02*
X0213320Y0253240D01*
X0201095Y0262492D02*
X0213218Y0262492D01*
X0218779Y0268053D02*
X0213218Y0262492D01*
X0218779Y0268053D02*
X0224503Y0268053D01*
X0201095Y0262492D02*
X0196969Y0258367D01*
X0201502Y0261508D02*
X0197953Y0257959D01*
X0202345Y0259540D02*
X0200187Y0257382D01*
X0215500Y0260285D02*
X0216635Y0260285D01*
X0220023Y0263673D02*
X0217986Y0261637D01*
X0215768Y0262432D02*
X0214844Y0261508D01*
X0217986Y0261637D02*
X0216635Y0260285D01*
X0217986Y0261637D02*
X0217986Y0261637D01*
X0215768Y0262432D02*
X0216067Y0262432D01*
X0215261Y0260524D02*
X0215500Y0260285D01*
X0220023Y0263673D02*
X0223957Y0263673D01*
X0202886Y0181144D02*
X0204058Y0181144D01*
X0205088Y0182174D02*
X0204058Y0181144D01*
X0202886Y0181144D02*
X0201762Y0180020D01*
X0209613Y0185156D02*
X0203682Y0179225D01*
X0209613Y0185156D02*
X0214950Y0185156D01*
X0196969Y0189170D02*
X0203075Y0183063D01*
X0205088Y0183764D02*
X0205088Y0182174D01*
X0202308Y0186545D02*
X0205088Y0183764D01*
X0197953Y0189973D02*
X0201381Y0186545D01*
X0202308Y0186545D01*
X0221215Y0209329D02*
X0223711Y0206833D01*
X0200900Y0209329D02*
X0221215Y0209329D01*
X0198937Y0257551D02*
X0198937Y0211292D01*
X0200900Y0209329D01*
X0233575Y0206981D02*
X0237933Y0206981D01*
X0233575Y0206981D02*
X0232443Y0205849D01*
X0234103Y0208900D02*
X0232036Y0206833D01*
X0234103Y0208900D02*
X0238728Y0208900D01*
X0232415Y0209884D02*
X0231295Y0208763D01*
X0231252Y0208763D02*
X0231295Y0208763D01*
X0232415Y0209884D02*
X0239136Y0209884D01*
X0227058Y0210868D02*
X0224941Y0208752D01*
X0227058Y0210868D02*
X0239544Y0210868D01*
X0232028Y0219776D02*
X0241280Y0210524D01*
X0232028Y0224107D02*
X0232028Y0219776D01*
X0263221Y0209699D02*
X0261142Y0207620D01*
X0263221Y0209699D02*
X0277735Y0209699D01*
X0262814Y0210684D02*
X0288129Y0210684D01*
X0262814Y0210684D02*
X0260735Y0208605D01*
X0272136Y0217955D02*
X0269430Y0215248D01*
X0254705Y0215815D02*
X0255211Y0215815D01*
X0255777Y0215248D01*
X0269430Y0215248D01*
X0277735Y0209699D02*
X0279272Y0208162D01*
X0263826Y0207669D02*
X0262793Y0206636D01*
X0288129Y0210684D02*
X0290311Y0208501D01*
X0249446Y0206636D02*
X0262793Y0206636D01*
X0263826Y0207669D02*
X0264016Y0207669D01*
X0272136Y0217955D02*
X0279217Y0217955D01*
X0249805Y0205603D02*
X0264944Y0205603D01*
X0266666Y0203880D01*
X0249805Y0205603D02*
X0247853Y0203651D01*
X0279217Y0217955D02*
X0282611Y0214561D01*
X0264475Y0245219D02*
X0301466Y0245219D01*
X0306046Y0244466D02*
X0306057Y0244454D01*
X0301466Y0245219D02*
X0302219Y0244466D01*
X0306046Y0244466D01*
X0283367Y0233998D02*
X0286640Y0233998D01*
X0281225Y0234097D02*
X0283269Y0234097D01*
X0279495Y0235081D02*
X0276713Y0232299D01*
X0324916Y0237837D02*
X0328220Y0234533D01*
X0285944Y0235967D02*
X0300742Y0235967D01*
X0328288Y0240188D02*
X0326921Y0238821D01*
X0303223Y0242069D02*
X0313999Y0242069D01*
X0302816Y0241085D02*
X0314407Y0241085D01*
X0300650Y0243250D02*
X0302816Y0241085D01*
X0301058Y0244235D02*
X0303223Y0242069D01*
X0320692Y0248762D02*
X0313999Y0242069D01*
X0302613Y0237837D02*
X0324916Y0237837D01*
X0302613Y0237837D02*
X0300742Y0235967D01*
X0290985Y0228634D02*
X0295785Y0228634D01*
X0266710Y0184080D02*
X0267067Y0183723D01*
X0256973Y0184097D02*
X0265844Y0184097D01*
X0265860Y0184080D02*
X0266710Y0184080D01*
X0248163Y0246154D02*
X0252500Y0246154D01*
X0240789Y0253529D02*
X0248163Y0246154D01*
X0232279Y0253529D02*
X0240789Y0253529D01*
X0240247Y0266872D02*
X0249218Y0257901D01*
X0233595Y0266872D02*
X0240247Y0266872D01*
X0252147Y0258596D02*
X0293908Y0258596D01*
X0252147Y0258596D02*
X0251452Y0257901D01*
X0293908Y0258596D02*
X0298673Y0253831D01*
X0253544Y0248122D02*
X0255392Y0246274D01*
X0250508Y0248122D02*
X0253544Y0248122D01*
X0250508Y0248122D02*
X0249842Y0247457D01*
X0254618Y0253014D02*
X0254567Y0252963D01*
X0252581Y0252963D02*
X0254567Y0252963D01*
X0247128Y0250171D02*
X0247128Y0248581D01*
X0249920Y0252963D02*
X0247128Y0250171D01*
X0249920Y0252963D02*
X0252581Y0252963D01*
X0247128Y0248581D02*
X0248252Y0247457D01*
X0249842Y0247457D01*
X0264475Y0245219D02*
X0263491Y0244235D01*
X0251531Y0244235D02*
X0263491Y0244235D01*
X0251418Y0244347D02*
X0251531Y0244235D01*
X0249654Y0244347D02*
X0251418Y0244347D01*
X0249654Y0244347D02*
X0248501Y0243194D01*
X0255392Y0246274D02*
X0303473Y0246274D01*
X0245020Y0260524D02*
X0252581Y0252963D01*
X0303572Y0246373D02*
X0303473Y0246274D01*
X0303572Y0246373D02*
X0308876Y0246373D01*
X0311162Y0244087D01*
X0264883Y0244235D02*
X0261556Y0240907D01*
X0268199Y0243250D02*
X0300650Y0243250D01*
X0264883Y0244235D02*
X0301058Y0244235D01*
X0268199Y0243250D02*
X0265394Y0240445D01*
X0302205Y0238821D02*
X0300335Y0236951D01*
X0321100Y0247778D02*
X0314407Y0241085D01*
X0303428Y0235868D02*
X0316818Y0235868D01*
X0303020Y0236853D02*
X0323186Y0236853D01*
X0321819Y0230867D02*
X0326301Y0230867D01*
X0283677Y0235081D02*
X0283775Y0234983D01*
X0286233Y0234983D01*
X0323186Y0236853D02*
X0326172Y0233867D01*
X0302205Y0238821D02*
X0326921Y0238821D01*
X0240109Y0271055D02*
X0240594Y0271055D01*
X0226767Y0270317D02*
X0239370Y0270317D01*
X0240109Y0271055D02*
X0239370Y0270317D01*
X0243249Y0260524D02*
X0245020Y0260524D01*
X0326090Y0242151D02*
X0328025Y0242151D01*
X0326065Y0242176D02*
X0326090Y0242151D01*
X0326040Y0242176D02*
X0326065Y0242176D01*
X0326835Y0246103D02*
X0326835Y0244120D01*
X0326885Y0244070D01*
X0328025Y0242151D02*
X0328069Y0242107D01*
X0286351Y0236951D02*
X0300335Y0236951D01*
X0324176Y0248762D02*
X0326835Y0246103D01*
X0329083Y0242107D02*
X0330241Y0240948D01*
X0333223Y0240948D01*
X0328069Y0242107D02*
X0329083Y0242107D01*
X0331359Y0232229D02*
X0342018Y0221569D01*
X0328220Y0234533D02*
X0328220Y0228268D01*
X0327919Y0227967D01*
X0331359Y0232668D02*
X0331359Y0232229D01*
X0283269Y0234097D02*
X0283367Y0233998D01*
X0279495Y0235081D02*
X0283677Y0235081D01*
X0281225Y0234097D02*
X0272778Y0225649D01*
X0334833Y0226748D02*
X0334833Y0226283D01*
X0332271Y0229311D02*
X0334833Y0226748D01*
X0335280Y0225837D02*
X0336359Y0225837D01*
X0329243Y0233463D02*
X0329243Y0231873D01*
X0331806Y0229311D01*
X0332271Y0229311D01*
X0334833Y0226283D02*
X0335280Y0225837D01*
X0288743Y0234983D02*
X0288743Y0234983D01*
X0286233Y0234983D02*
X0288743Y0234983D01*
X0285845Y0236065D02*
X0285944Y0235967D01*
X0277156Y0237049D02*
X0286253Y0237049D01*
X0286233Y0234983D02*
X0286233Y0234983D01*
X0286253Y0237049D02*
X0286351Y0236951D01*
X0288743Y0234983D02*
X0293426Y0234983D01*
X0293834Y0233998D02*
X0293834Y0233998D01*
X0296881Y0233998D02*
X0296881Y0233998D01*
X0303428Y0235868D02*
X0301558Y0233998D01*
X0293426Y0234983D02*
X0293426Y0234983D01*
X0286640Y0233998D02*
X0286640Y0233998D01*
X0297289Y0234983D02*
X0297289Y0234983D01*
X0288335Y0233998D02*
X0288335Y0233998D01*
X0272628Y0236065D02*
X0285845Y0236065D01*
X0296881Y0233998D02*
X0301558Y0233998D01*
X0293834Y0233998D02*
X0296881Y0233998D01*
X0316818Y0235868D02*
X0321819Y0230867D01*
X0293426Y0234983D02*
X0297289Y0234983D01*
X0286640Y0233998D02*
X0288335Y0233998D01*
X0288335Y0233998D02*
X0293834Y0233998D01*
X0303239Y0216028D02*
X0294577Y0207367D01*
X0304223Y0215620D02*
X0295562Y0206959D01*
X0303194Y0188034D02*
X0305741Y0188034D01*
X0299402Y0182426D02*
X0295611Y0178634D01*
X0299402Y0184242D02*
X0299402Y0182426D01*
X0303194Y0188034D02*
X0299402Y0184242D01*
X0295611Y0178634D02*
X0295611Y0165813D01*
X0291526Y0187780D02*
X0291526Y0181927D01*
X0294479Y0186557D02*
X0294479Y0180704D01*
X0290394Y0180795D02*
X0290394Y0171366D01*
X0292510Y0181519D02*
X0291378Y0180387D01*
X0291526Y0181927D02*
X0290394Y0180795D01*
X0293494Y0186965D02*
X0293494Y0181111D01*
X0292363Y0179979D01*
X0292510Y0187372D02*
X0292510Y0181519D01*
X0294479Y0180704D02*
X0293347Y0179572D01*
X0293347Y0167352D01*
X0292363Y0179979D02*
X0292363Y0169082D01*
X0291378Y0180387D02*
X0291378Y0169806D01*
X0295611Y0165813D02*
X0288402Y0158605D01*
X0291378Y0169806D02*
X0287363Y0165790D01*
X0290394Y0171366D02*
X0287032Y0168004D01*
X0292363Y0169082D02*
X0286863Y0163583D01*
X0293347Y0167352D02*
X0287658Y0161663D01*
X0281290Y0166955D02*
X0281290Y0160620D01*
X0283306Y0158605D01*
X0284771Y0161663D02*
X0287658Y0161663D01*
X0283306Y0158605D02*
X0288402Y0158605D01*
X0285538Y0171203D02*
X0281290Y0166955D01*
X0268877Y0192641D02*
X0287723Y0173796D01*
X0246180Y0171793D02*
X0284704Y0171793D01*
X0285682Y0172771D02*
X0284704Y0171793D01*
X0287723Y0172449D02*
X0286477Y0171203D01*
X0287723Y0173796D02*
X0287723Y0172449D01*
X0285682Y0173122D02*
X0285682Y0172771D01*
X0285538Y0171203D02*
X0286477Y0171203D01*
X0286863Y0168004D02*
X0287032Y0168004D01*
X0263494Y0192641D02*
X0268877Y0192641D01*
X0263801Y0202177D02*
X0265148Y0200829D01*
X0278337Y0200829D01*
X0259958Y0196177D02*
X0263494Y0192641D01*
X0259826Y0196177D02*
X0259958Y0196177D01*
X0252615Y0202177D02*
X0250382Y0199943D01*
X0278337Y0200829D02*
X0281598Y0197568D01*
X0247658Y0199943D02*
X0247528Y0199813D01*
X0245951Y0199813D02*
X0242784Y0196646D01*
X0247658Y0199943D02*
X0250382Y0199943D01*
X0245951Y0199813D02*
X0247528Y0199813D01*
X0252615Y0202177D02*
X0263801Y0202177D01*
X0268213Y0133061D02*
X0268213Y0132190D01*
X0268530Y0133377D02*
X0268213Y0133061D01*
X0268832Y0140438D02*
X0271192Y0140438D01*
X0268832Y0140438D02*
X0261546Y0133152D01*
X0260101Y0133152D02*
X0259958Y0133010D01*
X0260101Y0133152D02*
X0261546Y0133152D01*
X0269430Y0139264D02*
X0265014Y0134848D01*
X0269430Y0139264D02*
X0270794Y0139264D01*
X0265014Y0133897D02*
X0264656Y0133540D01*
X0265014Y0134848D02*
X0265014Y0133897D01*
X0276539Y0135091D02*
X0276539Y0119424D01*
X0271192Y0140438D02*
X0276539Y0135091D01*
X0269816Y0138231D02*
X0270435Y0138231D01*
X0270794Y0139264D02*
X0275498Y0134559D01*
X0270435Y0138231D02*
X0274514Y0134152D01*
X0275498Y0134559D02*
X0275498Y0130783D01*
X0274514Y0134152D02*
X0274514Y0131191D01*
X0270125Y0135826D02*
X0270125Y0135320D01*
X0270675Y0134770D01*
X0270675Y0132781D01*
X0266610Y0135025D02*
X0266610Y0132771D01*
X0269816Y0138231D02*
X0266610Y0135025D01*
X0266610Y0132771D02*
X0260966Y0127127D01*
X0268213Y0132190D02*
X0268161Y0132138D01*
X0268161Y0131696D01*
X0259261Y0127127D02*
X0260966Y0127127D01*
X0268161Y0131696D02*
X0261605Y0125140D01*
X0270660Y0131481D02*
X0259578Y0120399D01*
X0272579Y0131971D02*
X0260023Y0119414D01*
X0272628Y0129306D02*
X0272628Y0113061D01*
X0274514Y0131191D02*
X0272628Y0129306D01*
X0275498Y0130783D02*
X0273613Y0128898D01*
X0273613Y0113469D01*
X0255485Y0119414D02*
X0260023Y0119414D01*
X0270660Y0132766D02*
X0270660Y0131481D01*
X0270675Y0132781D02*
X0270660Y0132766D01*
X0276221Y0114264D02*
X0276221Y0113758D01*
X0276680Y0113299D01*
X0276680Y0113116D01*
X0277747Y0112049D01*
X0280043Y0113034D02*
X0298102Y0113034D01*
X0278140Y0114937D02*
X0280043Y0113034D01*
X0276539Y0119424D02*
X0276827Y0119136D01*
X0278140Y0118012D02*
X0278140Y0114937D01*
X0277016Y0119136D02*
X0278140Y0118012D01*
X0276827Y0119136D02*
X0277016Y0119136D01*
X0257176Y0125140D02*
X0261605Y0125140D01*
X0265844Y0184097D02*
X0265860Y0184080D01*
X0271061Y0155012D02*
X0271398Y0155012D01*
X0270175Y0155898D02*
X0271061Y0155012D01*
X0253359Y0155898D02*
X0270175Y0155898D01*
X0269809Y0186311D02*
X0270203Y0185918D01*
X0260227Y0186311D02*
X0269809Y0186311D01*
X0270203Y0185918D02*
X0270709Y0185918D01*
X0249326Y0188558D02*
X0267108Y0188558D01*
X0249326Y0188558D02*
X0248900Y0188132D01*
X0245262Y0188132D02*
X0248900Y0188132D01*
X0260227Y0186311D02*
X0260227Y0186311D01*
X0204026Y0223908D02*
X0201890Y0221772D01*
X0209547Y0226715D02*
X0203809Y0220977D01*
X0204026Y0227896D02*
X0204026Y0223908D01*
X0211501Y0225731D02*
X0203894Y0218124D01*
X0323795Y0131224D02*
X0333551Y0131224D01*
X0333701Y0131374D02*
X0333551Y0131224D01*
X0320528Y0134490D02*
X0323795Y0131224D01*
X0338108Y0133996D02*
X0339558Y0132546D01*
X0339558Y0126364D01*
X0337687Y0133025D02*
X0337687Y0127207D01*
X0339558Y0126364D02*
X0338787Y0125593D01*
X0338787Y0124139D01*
X0338649Y0124001D01*
X0317313Y0134490D02*
X0320528Y0134490D01*
X0337124Y0133588D02*
X0337687Y0133025D01*
X0337124Y0158945D02*
X0337124Y0133588D01*
X0338108Y0159076D02*
X0338108Y0133996D01*
X0311162Y0140726D02*
X0311732Y0140157D01*
X0311732Y0140072D02*
X0317313Y0134490D01*
X0311162Y0141233D02*
X0311162Y0140726D01*
X0311732Y0140157D02*
X0311732Y0140072D01*
X0308539Y0115414D02*
X0325169Y0115414D01*
X0308539Y0115414D02*
X0307926Y0114801D01*
X0308947Y0114430D02*
X0308334Y0113817D01*
X0308947Y0114430D02*
X0324700Y0114430D01*
X0330841Y0120760D02*
X0327463Y0117383D01*
X0309762Y0112461D02*
X0318673Y0112461D01*
X0303909Y0111848D02*
X0309149Y0111848D01*
X0304316Y0112833D02*
X0308742Y0112833D01*
X0324292Y0113446D02*
X0326043Y0111695D01*
X0309355Y0113446D02*
X0324292Y0113446D01*
X0326043Y0111695D02*
X0326043Y0108241D01*
X0303295Y0112461D02*
X0303909Y0111848D01*
X0324700Y0114430D02*
X0329272Y0109858D01*
X0318673Y0112461D02*
X0322973Y0108162D01*
X0307859Y0118640D02*
X0309116Y0117383D01*
X0301705Y0112461D02*
X0299325Y0110081D01*
X0309762Y0112461D02*
X0309149Y0111848D01*
X0309116Y0117383D02*
X0327463Y0117383D01*
X0301298Y0113446D02*
X0298917Y0111065D01*
X0309355Y0113446D02*
X0308742Y0112833D01*
X0330841Y0120760D02*
X0342658Y0120760D01*
X0330629Y0121941D02*
X0327056Y0118367D01*
X0317001Y0118367D02*
X0327056Y0118367D01*
X0330629Y0121941D02*
X0339962Y0121941D01*
X0315185Y0120183D02*
X0317001Y0118367D01*
X0340568Y0122547D02*
X0339962Y0121941D01*
X0315185Y0122783D02*
X0315185Y0120183D01*
X0340568Y0131269D02*
X0340568Y0122547D01*
X0342658Y0133359D02*
X0340568Y0131269D01*
X0329272Y0109858D02*
X0329272Y0108162D01*
X0325169Y0115414D02*
X0332422Y0108162D01*
X0326043Y0108241D02*
X0326122Y0108162D01*
X0305132Y0118640D02*
X0307859Y0118640D01*
X0308752Y0129217D02*
X0315185Y0122783D01*
X0299291Y0129217D02*
X0308752Y0129217D01*
X0299291Y0129217D02*
X0286773Y0116698D01*
X0286773Y0116450D01*
X0305132Y0114801D02*
X0307926Y0114801D01*
X0304724Y0113817D02*
X0308334Y0113817D01*
X0300075Y0116399D02*
X0298383Y0114707D01*
X0296586Y0114953D02*
X0296832Y0114707D01*
X0298383Y0114707D01*
X0304518Y0115414D02*
X0305132Y0114801D01*
X0303703Y0113446D02*
X0304316Y0112833D01*
X0300075Y0116399D02*
X0302890Y0116399D01*
X0301705Y0112461D02*
X0303295Y0112461D01*
X0305132Y0118640D02*
X0302890Y0116399D01*
X0301298Y0113446D02*
X0303703Y0113446D01*
X0300890Y0114430D02*
X0304111Y0114430D01*
X0300482Y0115414D02*
X0304518Y0115414D01*
X0304111Y0114430D02*
X0304724Y0113817D01*
X0300482Y0115414D02*
X0298102Y0113034D01*
X0300890Y0114430D02*
X0298510Y0112049D01*
X0204261Y0206379D02*
X0200040Y0202158D01*
X0204261Y0206379D02*
X0215272Y0206379D01*
X0200040Y0202158D02*
X0200040Y0200288D01*
X0240194Y0249008D02*
X0237734Y0246547D01*
X0231676Y0246547D02*
X0237734Y0246547D01*
X0231676Y0246547D02*
X0217306Y0232177D01*
X0249218Y0257901D02*
X0251452Y0257901D01*
X0231485Y0251609D02*
X0240308Y0251609D01*
X0242114Y0249803D01*
X0242114Y0243692D02*
X0241428Y0243006D01*
X0241428Y0236894D02*
X0240303Y0235770D01*
X0242412Y0237784D02*
X0242412Y0236487D01*
X0232028Y0230406D02*
X0236331Y0230406D01*
X0241428Y0243006D02*
X0241428Y0236894D01*
X0245720Y0241093D02*
X0242412Y0237784D01*
X0242412Y0236487D02*
X0236331Y0230406D01*
X0242114Y0249803D02*
X0242114Y0243692D01*
X0249446Y0206636D02*
X0247446Y0204636D01*
X0248276Y0207620D02*
X0261142Y0207620D01*
X0248683Y0208605D02*
X0260735Y0208605D01*
X0281290Y0203880D02*
X0282914Y0202256D01*
X0266666Y0203880D02*
X0281290Y0203880D01*
X0250089Y0215453D02*
X0248310Y0213674D01*
X0250089Y0217293D02*
X0250089Y0215453D01*
X0252057Y0219262D02*
X0250089Y0217293D01*
X0248170Y0213674D02*
X0248310Y0213674D01*
X0197953Y0257959D02*
X0197953Y0189973D01*
X0298673Y0253831D02*
X0306525Y0253831D01*
X0324652Y0171416D02*
X0337124Y0158945D01*
X0323668Y0171009D02*
X0330995Y0163682D01*
X0324652Y0186702D02*
X0324652Y0171416D01*
X0322684Y0187518D02*
X0322684Y0170601D01*
X0330010Y0163274D01*
X0325637Y0171824D02*
X0336393Y0161068D01*
X0325637Y0186295D02*
X0325637Y0171824D01*
X0323668Y0187110D02*
X0323668Y0171009D01*
X0336393Y0161068D02*
X0338246Y0159214D01*
X0336393Y0161068D02*
X0336393Y0161068D01*
X0340603Y0161572D02*
X0338108Y0159076D01*
X0340603Y0182225D02*
X0340603Y0161572D01*
X0249703Y0149107D02*
X0251622Y0147187D01*
X0246989Y0149107D02*
X0249703Y0149107D01*
X0248458Y0157719D02*
X0250146Y0157719D01*
X0232682Y0152109D02*
X0241752Y0152109D01*
X0248458Y0157719D02*
X0248360Y0157620D01*
X0247264Y0157620D02*
X0241752Y0152109D01*
X0250554Y0158703D02*
X0253359Y0155898D01*
X0262778Y0154913D02*
X0264648Y0153043D01*
X0252951Y0154913D02*
X0262778Y0154913D01*
X0250146Y0157719D02*
X0252951Y0154913D01*
X0305504Y0195811D02*
X0306644Y0195811D01*
X0305504Y0195811D02*
X0301319Y0191626D01*
X0319823Y0197138D02*
X0319823Y0195211D01*
X0309988Y0185376D01*
X0308398Y0185376D02*
X0309988Y0185376D01*
X0305741Y0188034D02*
X0308398Y0185376D01*
X0313876Y0203044D02*
X0316613Y0203044D01*
X0313876Y0203044D02*
X0306644Y0195811D01*
X0321120Y0207550D02*
X0316613Y0203044D01*
X0342658Y0242414D02*
X0341193Y0240948D01*
X0338589Y0240948D02*
X0336460Y0238819D01*
X0338589Y0240948D02*
X0341193Y0240948D01*
X0241890Y0167477D02*
X0239110Y0164698D01*
X0232856Y0164698D02*
X0239110Y0164698D01*
X0241890Y0167477D02*
X0245699Y0167477D01*
X0232856Y0164698D02*
X0231241Y0163083D01*
X0234586Y0163714D02*
X0243060Y0163714D01*
X0244904Y0165558D02*
X0243060Y0163714D01*
X0272628Y0113061D02*
X0275609Y0110081D01*
X0273613Y0113469D02*
X0276016Y0111065D01*
X0298917Y0111065D01*
X0275609Y0110081D02*
X0299325Y0110081D01*
X0277747Y0112049D02*
X0298510Y0112049D01*
X0218256Y0120662D02*
X0218445Y0120662D01*
X0218256Y0120662D02*
X0217222Y0119628D01*
X0208398Y0119628D02*
X0217222Y0119628D01*
X0254125Y0128191D02*
X0257176Y0125140D01*
X0244554Y0128191D02*
X0254125Y0128191D01*
X0242853Y0129274D02*
X0236949Y0123370D01*
X0242853Y0129274D02*
X0252916Y0129274D01*
X0236949Y0116668D02*
X0231642Y0111361D01*
X0236949Y0123370D02*
X0236949Y0116668D01*
X0228969Y0111361D02*
X0231642Y0111361D01*
X0228969Y0111361D02*
X0225770Y0108162D01*
X0225335Y0108162D02*
X0225770Y0108162D01*
X0325642Y0259429D02*
X0342658Y0242414D01*
X0322944Y0259429D02*
X0325642Y0259429D01*
X0336460Y0238819D02*
X0336460Y0237824D01*
X0327061Y0199253D02*
X0327061Y0189111D01*
X0226767Y0270317D02*
X0224503Y0268053D01*
X0196969Y0258367D02*
X0196969Y0189170D01*
X0224836Y0258147D02*
X0224870Y0258147D01*
X0233595Y0266872D02*
X0224870Y0258147D01*
X0224836Y0258147D02*
X0219929Y0253240D01*
X0213320Y0253240D02*
X0219929Y0253240D01*
X0200187Y0257382D02*
X0200187Y0240990D01*
X0203617Y0237561D01*
X0205385Y0237561D01*
X0214311Y0228634D01*
X0202211Y0210917D02*
X0217508Y0210917D01*
X0201880Y0207410D02*
X0202254Y0207410D01*
X0201880Y0211248D02*
X0202211Y0210917D01*
X0203143Y0208298D02*
X0202254Y0207410D01*
X0204150Y0202298D02*
X0204656Y0202298D01*
X0220854Y0208298D02*
X0223303Y0205849D01*
X0205598Y0203240D02*
X0204656Y0202298D01*
X0203143Y0208298D02*
X0220854Y0208298D01*
X0200906Y0217006D02*
X0203451Y0214461D01*
X0200906Y0225152D02*
X0200906Y0217006D01*
X0201890Y0221772D02*
X0201890Y0217414D01*
X0199922Y0216598D02*
X0203043Y0213477D01*
X0199922Y0231580D02*
X0199922Y0216598D01*
X0201890Y0217414D02*
X0203859Y0215445D01*
X0203983Y0235641D02*
X0199922Y0231580D01*
X0238728Y0208900D02*
X0242993Y0204636D01*
X0240873Y0209540D02*
X0247748Y0209540D01*
X0241280Y0210524D02*
X0254863Y0210524D01*
X0247390Y0208506D02*
X0248276Y0207620D01*
X0239136Y0209884D02*
X0240514Y0208506D01*
X0247390Y0208506D01*
X0223303Y0205849D02*
X0232443Y0205849D01*
X0247748Y0209540D02*
X0248683Y0208605D01*
X0239544Y0210868D02*
X0240873Y0209540D01*
X0223711Y0206833D02*
X0232036Y0206833D01*
X0231399Y0198555D02*
X0240711Y0198555D01*
X0242993Y0204636D02*
X0247446Y0204636D01*
X0245807Y0203651D02*
X0240711Y0198555D01*
X0245807Y0203651D02*
X0247853Y0203651D01*
X0230355Y0196646D02*
X0242784Y0196646D01*
X0341034Y0221161D02*
X0341034Y0218398D01*
X0342018Y0217991D02*
X0339597Y0215569D01*
X0342018Y0221569D02*
X0342018Y0217991D01*
X0341034Y0218398D02*
X0338613Y0215977D01*
X0338613Y0208368D01*
X0339597Y0215569D02*
X0339597Y0207960D01*
X0336359Y0225837D02*
X0341034Y0221161D01*
X0322186Y0216343D02*
X0324925Y0213603D01*
X0323170Y0216751D02*
X0325333Y0214588D01*
X0323170Y0218879D02*
X0323170Y0216751D01*
X0321250Y0218084D02*
X0322186Y0217149D01*
X0322186Y0216343D01*
X0324925Y0213603D02*
X0335344Y0213603D01*
X0325333Y0214588D02*
X0335752Y0214588D01*
X0337628Y0208776D02*
X0336086Y0207234D01*
X0336644Y0212303D02*
X0336644Y0209183D01*
X0337628Y0212711D02*
X0337628Y0208776D01*
X0339597Y0207960D02*
X0336902Y0205265D01*
X0338613Y0208368D02*
X0336494Y0206250D01*
X0336644Y0209183D02*
X0335679Y0208218D01*
X0335344Y0213603D02*
X0336644Y0212303D01*
X0335752Y0214588D02*
X0337628Y0212711D01*
X0333242Y0208218D02*
X0325093Y0200069D01*
X0334057Y0206250D02*
X0327061Y0199253D01*
X0334465Y0205265D02*
X0336902Y0205265D01*
X0334465Y0205265D02*
X0328046Y0198846D01*
X0333650Y0207234D02*
X0326077Y0199661D01*
X0336460Y0237824D02*
X0333223Y0234588D01*
X0333242Y0208218D02*
X0335679Y0208218D01*
X0328046Y0198846D02*
X0328046Y0188703D01*
X0326077Y0199661D02*
X0326077Y0189519D01*
X0334057Y0206250D02*
X0336494Y0206250D01*
X0325093Y0200069D02*
X0325093Y0189926D01*
X0333650Y0207234D02*
X0336086Y0207234D01*
X0333223Y0240948D02*
X0333346Y0240826D01*
X0334667Y0240826D01*
X0334871Y0240621D01*
X0326077Y0189519D02*
X0323668Y0187110D01*
X0328046Y0188703D02*
X0325637Y0186295D01*
X0325093Y0189926D02*
X0322684Y0187518D01*
X0313513Y0260819D02*
X0306525Y0253831D01*
X0313513Y0260819D02*
X0313513Y0260819D01*
X0327061Y0189111D02*
X0324652Y0186702D01*
X0330368Y0234588D02*
X0333223Y0234588D01*
X0330368Y0234588D02*
X0329243Y0233463D01*
X0324904Y0246642D02*
X0324904Y0243312D01*
X0326040Y0242176D01*
X0323768Y0247778D02*
X0324904Y0246642D01*
X0320692Y0248762D02*
X0324176Y0248762D01*
X0273760Y0240445D02*
X0277156Y0237049D01*
X0330010Y0163274D02*
X0330010Y0144685D01*
X0330995Y0163682D02*
X0330995Y0144740D01*
X0341283Y0182905D02*
X0340603Y0182225D01*
X0268297Y0225649D02*
X0272778Y0225649D01*
X0303020Y0236853D02*
X0301150Y0234983D01*
X0268249Y0240445D02*
X0272628Y0236065D01*
X0297289Y0234983D02*
X0301150Y0234983D01*
X0287540Y0232079D02*
X0290985Y0228634D01*
X0293009Y0219677D02*
X0293746Y0218941D01*
X0272242Y0219677D02*
X0293009Y0219677D01*
X0281598Y0197568D02*
X0287290Y0197568D01*
X0290311Y0208501D02*
X0290311Y0208286D01*
X0266918Y0149926D02*
X0270240Y0149926D01*
X0268122Y0146954D02*
X0274829Y0146954D01*
X0267714Y0147939D02*
X0264994Y0145219D01*
X0267714Y0147939D02*
X0273008Y0147939D01*
X0267325Y0148942D02*
X0272619Y0148942D01*
X0267325Y0148942D02*
X0264586Y0146203D01*
X0266918Y0149926D02*
X0264179Y0147187D01*
X0268122Y0146954D02*
X0265402Y0144235D01*
X0264648Y0153043D02*
X0265099Y0153043D01*
X0271389Y0151075D02*
X0271398Y0151075D01*
X0271389Y0151075D02*
X0270240Y0149926D01*
X0284631Y0161803D02*
X0284771Y0161663D01*
X0286752Y0155012D02*
X0282938Y0151197D01*
X0297530Y0206144D02*
X0297530Y0189608D01*
X0239758Y0188034D02*
X0245164Y0188034D01*
X0245262Y0188132D02*
X0245164Y0188034D01*
X0227156Y0188132D02*
X0239660Y0188132D01*
X0239758Y0188034D01*
X0227156Y0188132D02*
X0224941Y0185917D01*
X0252057Y0221737D02*
X0252057Y0219262D01*
X0243059Y0229569D02*
X0250138Y0222490D01*
X0253534Y0223213D02*
X0252057Y0221737D01*
X0250138Y0222490D02*
X0250138Y0220760D01*
X0247784Y0185278D02*
X0246652Y0184146D01*
X0232823Y0187050D02*
X0256229Y0187050D01*
X0246201Y0184146D02*
X0246652Y0184146D01*
X0247784Y0185278D02*
X0255792Y0185278D01*
X0256229Y0187050D02*
X0256868Y0186410D01*
X0208603Y0158752D02*
X0235374Y0158752D01*
X0224941Y0163083D02*
X0226861Y0161164D01*
X0232036Y0161164D01*
X0234586Y0163714D02*
X0232036Y0161164D01*
X0245699Y0167477D02*
X0246120Y0167057D01*
X0248957Y0167057D01*
X0243844Y0226071D02*
X0243844Y0220404D01*
X0240345Y0228445D02*
X0240345Y0225611D01*
X0242859Y0223097D01*
X0242264Y0227650D02*
X0243844Y0226071D01*
X0241469Y0229569D02*
X0243059Y0229569D01*
X0241469Y0229569D02*
X0240345Y0228445D01*
X0242859Y0223097D02*
X0242859Y0220264D01*
X0248514Y0229823D02*
X0248514Y0227462D01*
X0245372Y0232965D02*
X0248514Y0229823D01*
X0248514Y0227462D02*
X0251418Y0224559D01*
X0231077Y0250625D02*
X0232773Y0250625D01*
X0227440Y0254262D02*
X0231077Y0250625D01*
X0232773Y0250625D02*
X0234390Y0249008D01*
X0224559Y0254262D02*
X0227440Y0254262D01*
X0321100Y0247778D02*
X0323768Y0247778D01*
X0274874Y0151197D02*
X0272619Y0148942D01*
X0275282Y0150213D02*
X0273008Y0147939D01*
X0276168Y0148294D02*
X0274829Y0146954D01*
X0257711Y0146203D02*
X0264586Y0146203D01*
X0251622Y0147187D02*
X0264179Y0147187D01*
X0257711Y0146203D02*
X0253479Y0141971D01*
X0247503Y0141971D02*
X0253479Y0141971D01*
X0247453Y0160524D02*
X0249274Y0158703D01*
X0246989Y0160524D02*
X0247453Y0160524D01*
X0249274Y0158703D02*
X0250554Y0158703D01*
X0341283Y0183411D02*
X0341283Y0182905D01*
X0246989Y0160524D02*
X0239558Y0153093D01*
X0247264Y0157620D02*
X0248360Y0157620D01*
X0258119Y0145219D02*
X0264994Y0145219D01*
X0258527Y0144235D02*
X0265402Y0144235D01*
X0258119Y0145219D02*
X0252648Y0139748D01*
X0258527Y0144235D02*
X0253632Y0139340D01*
X0227353Y0142660D02*
X0224941Y0140248D01*
X0232823Y0141380D02*
X0231691Y0140248D01*
X0234103Y0140396D02*
X0232036Y0138329D01*
X0238728Y0140396D02*
X0239882Y0139242D01*
X0227353Y0142660D02*
X0241878Y0142660D01*
X0242087Y0142868D02*
X0241878Y0142660D01*
X0232823Y0141380D02*
X0239136Y0141380D01*
X0242461Y0138055D01*
X0234103Y0140396D02*
X0238728Y0140396D01*
X0254617Y0133847D02*
X0254617Y0130975D01*
X0252916Y0129274D01*
X0253632Y0134831D02*
X0254617Y0133847D01*
X0253632Y0139340D02*
X0253632Y0134831D01*
X0252648Y0139748D02*
X0252648Y0138849D01*
X0248191Y0134392D01*
X0242461Y0137717D02*
X0245786Y0134392D01*
X0314968Y0223571D02*
X0314796Y0223399D01*
X0314968Y0223571D02*
X0317303Y0223571D01*
X0274874Y0151197D02*
X0282938Y0151197D01*
X0275282Y0150213D02*
X0285103Y0150213D01*
X0286752Y0151862D02*
X0285103Y0150213D01*
X0231241Y0140248D02*
X0231691Y0140248D01*
X0242461Y0138055D02*
X0242461Y0137717D01*
X0245786Y0134392D02*
X0248191Y0134392D01*
X0246606Y0142868D02*
X0247503Y0141971D01*
X0242087Y0142868D02*
X0246606Y0142868D01*
X0256868Y0186410D02*
X0257374Y0186410D01*
X0296546Y0206551D02*
X0296546Y0190016D01*
X0295562Y0206959D02*
X0295562Y0190424D01*
X0294577Y0207367D02*
X0294577Y0190831D01*
X0296546Y0190016D02*
X0293494Y0186965D01*
X0297530Y0189608D02*
X0294479Y0186557D01*
X0294577Y0190831D02*
X0291526Y0187780D01*
X0295562Y0190424D02*
X0292510Y0187372D01*
X0229541Y0220076D02*
X0223483Y0214018D01*
X0229969Y0227010D02*
X0218677Y0215718D01*
X0229541Y0224334D02*
X0229541Y0220076D01*
X0231233Y0226026D02*
X0229541Y0224334D01*
X0220608Y0214018D02*
X0223483Y0214018D01*
X0231233Y0226026D02*
X0232823Y0226026D01*
X0229969Y0227010D02*
X0234988Y0227010D01*
X0216575Y0215718D02*
X0218677Y0215718D01*
X0330010Y0144685D02*
X0329715Y0144390D01*
X0329715Y0142800D01*
X0332520Y0141134D02*
X0332815Y0140839D01*
X0331381Y0141134D02*
X0332520Y0141134D01*
X0329715Y0142800D02*
X0331381Y0141134D01*
X0330995Y0144740D02*
X0331634Y0144101D01*
X0331634Y0143595D01*
X0285053Y0165790D02*
X0287363Y0165790D01*
X0251173Y0243152D02*
X0254164Y0243152D01*
X0256272Y0241043D01*
X0256272Y0239771D01*
X0261113Y0234931D02*
X0261113Y0230118D01*
X0267502Y0223730D01*
X0268190Y0223730D01*
X0251173Y0243152D02*
X0249114Y0241093D01*
X0245720Y0241093D02*
X0249114Y0241093D01*
X0256272Y0239771D02*
X0261113Y0234931D01*
X0268190Y0223730D02*
X0272242Y0219677D01*
X0206388Y0121638D02*
X0208398Y0119628D01*
X0221185Y0120112D02*
X0221185Y0115063D01*
X0246989Y0149107D02*
X0244380Y0146498D01*
X0239882Y0139242D02*
X0239882Y0129105D01*
X0229068Y0127994D02*
X0233324Y0127994D01*
X0201312Y0156144D02*
X0200187Y0155020D01*
X0207400Y0152699D02*
X0219549Y0152699D01*
X0232183Y0154815D02*
X0233906Y0153093D01*
X0221665Y0154815D02*
X0232183Y0154815D01*
X0221665Y0154815D02*
X0219549Y0152699D01*
X0233906Y0153093D02*
X0239558Y0153093D01*
X0207808Y0153683D02*
X0219141Y0153683D01*
X0232591Y0155799D02*
X0233378Y0155012D01*
X0221257Y0155799D02*
X0232591Y0155799D01*
X0221257Y0155799D02*
X0219141Y0153683D01*
X0233378Y0155012D02*
X0237934Y0155012D01*
X0201762Y0140831D02*
X0210416Y0132177D01*
X0201762Y0150731D02*
X0201762Y0140831D01*
X0201312Y0156144D02*
X0203955Y0156144D01*
X0231894Y0152896D02*
X0232682Y0152109D01*
X0221185Y0115063D02*
X0217951Y0111830D01*
X0206388Y0133760D02*
X0206388Y0121638D01*
X0231388Y0152896D02*
X0231894Y0152896D01*
X0223022Y0141043D02*
X0223022Y0139453D01*
X0233920Y0127399D02*
X0238176Y0127399D01*
X0228477Y0146498D02*
X0244380Y0146498D01*
X0253534Y0228201D02*
X0253534Y0223213D01*
X0247301Y0234434D02*
X0253534Y0228201D01*
X0247301Y0239173D02*
X0247301Y0234434D01*
X0203955Y0156144D02*
X0207400Y0152699D01*
X0259261Y0127127D02*
X0259193Y0127059D01*
X0317303Y0223571D02*
X0321250Y0219623D01*
X0321250Y0218084D01*
X0238302Y0121939D02*
X0238302Y0116629D01*
X0232050Y0110376D01*
X0230699Y0110376D02*
X0228485Y0108162D01*
X0242132Y0123055D02*
X0242132Y0118660D01*
X0230699Y0110376D02*
X0232050Y0110376D01*
X0247109Y0117337D02*
X0237933Y0108162D01*
X0247109Y0123136D02*
X0247109Y0117337D01*
X0244554Y0128191D02*
X0238302Y0121939D01*
X0228477Y0146498D02*
X0223022Y0141043D01*
X0246587Y0172778D02*
X0262115Y0172778D01*
X0242132Y0118660D02*
X0231634Y0108162D01*
X0264137Y0174800D02*
X0262115Y0172778D01*
X0244052Y0122941D02*
X0244052Y0117429D01*
X0234784Y0108162D01*
X0247382Y0126272D02*
X0244052Y0122941D01*
X0253320Y0120399D02*
X0241083Y0108162D01*
X0253320Y0120399D02*
X0259578Y0120399D01*
X0229068Y0127994D02*
X0221185Y0120112D01*
X0223022Y0139453D02*
X0224146Y0138329D01*
X0232036Y0138329D01*
X0237483Y0138477D02*
X0237934Y0138477D01*
X0208398Y0144776D02*
X0215829Y0137345D01*
X0203682Y0144776D02*
X0208398Y0144776D01*
X0215829Y0137345D02*
X0236351Y0137345D01*
X0239882Y0129105D02*
X0238176Y0127399D01*
X0210416Y0132177D02*
X0237934Y0132177D01*
X0233324Y0127994D02*
X0233920Y0127399D01*
X0210950Y0123304D02*
X0209193Y0121547D01*
X0210950Y0123304D02*
X0219672Y0123304D01*
X0221428Y0125061D02*
X0219672Y0123304D01*
X0221428Y0125061D02*
X0221428Y0125061D01*
X0237687Y0235770D02*
X0240303Y0235770D01*
X0230121Y0239330D02*
X0234128Y0239330D01*
X0237687Y0235770D01*
X0244352Y0219895D02*
X0244352Y0214070D01*
X0229713Y0240314D02*
X0236884Y0240314D01*
X0239508Y0237689D01*
X0242264Y0232965D02*
X0245372Y0232965D01*
X0243844Y0220404D02*
X0244352Y0219895D01*
X0240247Y0181833D02*
X0240247Y0177052D01*
X0244422Y0174943D02*
X0246587Y0172778D01*
X0230360Y0260923D02*
X0230360Y0252734D01*
X0234390Y0264953D02*
X0230360Y0260923D01*
X0211501Y0225731D02*
X0221344Y0225731D01*
X0220147Y0222617D02*
X0217528Y0219998D01*
X0223698Y0225370D02*
X0220945Y0222617D01*
X0223174Y0227560D02*
X0221344Y0225731D01*
X0217528Y0219998D02*
X0217528Y0218064D01*
X0223174Y0227560D02*
X0223909Y0227560D01*
X0233346Y0236997D02*
X0223909Y0227560D01*
X0216575Y0215718D02*
X0215317Y0214461D01*
X0232823Y0226026D02*
X0234390Y0224459D01*
X0234390Y0220629D01*
X0234988Y0227010D02*
X0240940Y0221059D01*
X0203451Y0214461D02*
X0215317Y0214461D01*
X0203043Y0213477D02*
X0217353Y0213477D01*
X0217675Y0213799D02*
X0217353Y0213477D01*
X0217528Y0218064D02*
X0214910Y0215445D01*
X0220147Y0222617D02*
X0220945Y0222617D01*
X0203859Y0215445D02*
X0214910Y0215445D01*
X0220608Y0214018D02*
X0217508Y0210917D01*
X0255485Y0119414D02*
X0244233Y0108162D01*
X0223022Y0233623D02*
X0223022Y0232465D01*
X0236437Y0219008D02*
X0241604Y0219008D01*
X0230121Y0239330D02*
X0224941Y0234150D01*
X0209547Y0226715D02*
X0217272Y0226715D01*
X0223022Y0232465D02*
X0217272Y0226715D01*
X0234816Y0220629D02*
X0236437Y0219008D01*
X0234390Y0220629D02*
X0234816Y0220629D01*
X0242859Y0220264D02*
X0241604Y0219008D01*
X0228514Y0198486D02*
X0230355Y0196646D01*
X0232823Y0187050D02*
X0231691Y0185917D01*
X0231388Y0198565D02*
X0231399Y0198555D01*
X0228514Y0198516D02*
X0228514Y0198486D01*
X0231241Y0185917D02*
X0231691Y0185917D01*
X0224146Y0183998D02*
X0232036Y0183998D01*
X0234103Y0186065D02*
X0232036Y0183998D01*
X0240739Y0186065D02*
X0247382Y0179421D01*
X0235319Y0203240D02*
X0238086Y0200474D01*
X0205598Y0203240D02*
X0235319Y0203240D01*
X0203981Y0197877D02*
X0208876Y0197877D01*
X0200040Y0200288D02*
X0200040Y0190937D01*
X0208876Y0197877D02*
X0228758Y0177994D01*
X0255792Y0185278D02*
X0256973Y0184097D01*
X0243685Y0152650D02*
X0242012Y0150977D01*
X0230355Y0150977D02*
X0242012Y0150977D01*
X0243685Y0152650D02*
X0248564Y0152650D01*
X0228485Y0152847D02*
X0230355Y0150977D01*
X0237934Y0184146D02*
X0240247Y0181833D01*
X0202107Y0226353D02*
X0200906Y0225152D01*
X0228758Y0177994D02*
X0238180Y0177994D01*
X0238327Y0177847D01*
X0224941Y0234150D02*
X0224941Y0232177D01*
X0229713Y0240314D02*
X0223022Y0233623D01*
X0206882Y0242807D02*
X0203983Y0239909D01*
X0206882Y0242807D02*
X0214804Y0242807D01*
X0200040Y0200288D02*
X0207857Y0200288D01*
X0224146Y0183998D01*
X0202107Y0226666D02*
X0202107Y0226353D01*
X0202107Y0229815D02*
X0204026Y0227896D01*
X0233346Y0236997D02*
X0233746Y0236997D01*
X0214705Y0232177D02*
X0217306Y0232177D01*
X0202107Y0245563D02*
X0214762Y0245563D01*
X0217518Y0242807D01*
X0224941Y0242807D01*
X0234103Y0186065D02*
X0240739Y0186065D01*
X0200040Y0190937D02*
X0202107Y0188870D01*
X0209587Y0135721D02*
X0214705Y0135721D01*
X0203682Y0141626D02*
X0209587Y0135721D01*
X0237934Y0161311D02*
X0235374Y0158752D01*
X0203682Y0163673D02*
X0208603Y0158752D01*
X0202107Y0169973D02*
X0201762Y0169628D01*
X0201762Y0159729D02*
X0207808Y0153683D01*
X0201762Y0169628D02*
X0201762Y0159729D01*
X0203682Y0160524D02*
X0208603Y0155603D01*
X0215099Y0155603D01*
X0202107Y0151075D02*
X0201762Y0150731D01*
X0237483Y0138477D02*
X0236351Y0137345D01*
D112*
X0301811Y0189362D02*
X0300528Y0188079D01*
X0300436Y0188079D02*
X0300528Y0188079D01*
X0326147Y0207326D02*
X0308184Y0189362D01*
X0301811Y0189362D02*
X0308184Y0189362D01*
X0328418Y0209721D02*
X0332938Y0209721D01*
X0326147Y0207451D02*
X0326147Y0207326D01*
X0328418Y0209721D02*
X0326147Y0207451D01*
X0334725Y0211508D02*
X0332938Y0209721D01*
D52*
X0296603Y0215744D02*
X0293548Y0212689D01*
X0296997Y0216569D02*
X0296997Y0216355D01*
X0296603Y0215962D01*
X0296603Y0215744D01*
X0292960Y0198454D02*
X0292415Y0197909D01*
X0292960Y0200681D02*
X0292960Y0198454D01*
X0251640Y0203702D02*
X0264687Y0203702D01*
X0299449Y0219127D02*
X0297201Y0216879D01*
X0278969Y0202354D02*
X0281528Y0199795D01*
X0276319Y0212689D02*
X0293548Y0212689D01*
X0252244Y0217291D02*
X0252244Y0214795D01*
X0292415Y0197909D02*
X0292415Y0194927D01*
X0293548Y0208495D02*
X0292960Y0207907D01*
X0292960Y0200681D01*
X0253686Y0213354D02*
X0270291Y0213354D01*
X0259587Y0219562D02*
X0257267Y0217242D01*
X0266034Y0202354D02*
X0278969Y0202354D01*
X0257131Y0222178D02*
X0252244Y0217291D01*
X0257131Y0233136D02*
X0257131Y0222178D01*
X0272973Y0216036D02*
X0270291Y0213354D01*
X0299449Y0222813D02*
X0299449Y0219127D01*
X0252244Y0214795D02*
X0253686Y0213354D01*
X0328493Y0253437D02*
X0333902Y0248028D01*
X0322799Y0253437D02*
X0328493Y0253437D01*
X0322799Y0253437D02*
X0317260Y0247899D01*
X0283861Y0247899D02*
X0317260Y0247899D01*
X0253162Y0250662D02*
X0253321Y0250503D01*
X0255587Y0250503D01*
X0249047Y0249376D02*
X0249260Y0249376D01*
X0250546Y0250662D02*
X0253162Y0250662D01*
X0250546Y0250662D02*
X0249260Y0249376D01*
X0305076Y0231667D02*
X0306534Y0230209D01*
X0316067Y0230209D01*
X0316854Y0230996D02*
X0316067Y0230209D01*
X0326079Y0223338D02*
X0327545Y0223338D01*
X0336654Y0222827D02*
X0339115Y0220366D01*
X0328056Y0222827D02*
X0336654Y0222827D01*
X0327545Y0223338D02*
X0328056Y0222827D01*
X0304863Y0231667D02*
X0305076Y0231667D01*
X0214115Y0255160D02*
X0218199Y0255160D01*
X0220611Y0257571D02*
X0218199Y0255160D01*
X0335598Y0157741D02*
X0335598Y0132956D01*
X0333489Y0159850D02*
X0335598Y0157741D01*
X0335598Y0132956D02*
X0336161Y0132393D01*
X0332448Y0128592D02*
X0332661Y0128592D01*
X0332982Y0128913D02*
X0334720Y0128913D01*
X0336161Y0132393D02*
X0336161Y0130355D01*
X0334720Y0128913D01*
X0332982Y0128913D02*
X0332661Y0128592D01*
X0323998Y0128863D02*
X0332503Y0128863D01*
X0317633Y0119893D02*
X0320988Y0119893D01*
X0321382Y0120286D02*
X0320988Y0119893D01*
X0321382Y0120286D02*
X0321595Y0120286D01*
X0316711Y0120815D02*
X0317633Y0119893D01*
X0316711Y0132965D02*
X0316711Y0120815D01*
X0303955Y0132965D02*
X0316711Y0132965D01*
X0319897Y0132965D01*
X0303955Y0132965D02*
X0304075Y0132844D01*
X0301002Y0135918D02*
X0303955Y0132965D01*
X0268753Y0145429D02*
X0265702Y0142378D01*
X0272973Y0216036D02*
X0276319Y0212689D01*
X0293115Y0224254D02*
X0292377Y0223516D01*
X0251640Y0203702D02*
X0249800Y0201862D01*
X0281528Y0199795D02*
X0286037Y0199795D01*
X0264687Y0203702D02*
X0266034Y0202354D01*
X0288130Y0223516D02*
X0292377Y0223516D01*
X0293115Y0224254D02*
X0298008Y0224254D01*
X0286923Y0200681D02*
X0292960Y0200681D01*
X0292415Y0194927D02*
X0292264Y0194776D01*
X0336547Y0200100D02*
X0336547Y0171819D01*
X0332832Y0168104D01*
X0319897Y0132965D02*
X0323998Y0128863D01*
X0294626Y0132177D02*
X0292953Y0130504D01*
X0282422Y0132177D02*
X0284095Y0130504D01*
X0292953Y0130504D01*
X0294626Y0135327D02*
X0294626Y0132177D01*
X0294626Y0135327D02*
X0294839Y0135327D01*
X0295430Y0135918D02*
X0294839Y0135327D01*
X0295430Y0135918D02*
X0301002Y0135918D01*
X0298008Y0224254D02*
X0299449Y0222813D01*
X0297201Y0216879D02*
X0297201Y0216508D01*
X0268753Y0145429D02*
X0276489Y0145429D01*
X0282423Y0139495D01*
X0322382Y0225681D02*
X0323736Y0225681D01*
X0317067Y0230996D02*
X0322382Y0225681D01*
X0316854Y0230996D02*
X0317067Y0230996D01*
X0259587Y0234299D02*
X0259587Y0219562D01*
X0280685Y0251075D02*
X0283861Y0247899D01*
X0256159Y0251075D02*
X0280685Y0251075D01*
X0256159Y0251075D02*
X0255587Y0250503D01*
X0282423Y0139495D02*
X0282423Y0132177D01*
X0259157Y0142707D02*
X0255158Y0138708D01*
X0255158Y0136233D01*
X0259157Y0142707D02*
X0265373Y0142707D01*
X0293548Y0212689D02*
X0293548Y0208495D01*
X0249587Y0201862D02*
X0249800Y0201862D01*
X0286923Y0200681D02*
X0286037Y0199795D01*
X0254747Y0239139D02*
X0259587Y0234299D01*
X0254747Y0239642D02*
X0254747Y0239139D01*
X0253369Y0241233D02*
X0253369Y0241019D01*
X0251667Y0235964D02*
X0254304Y0235964D01*
X0251516Y0236114D02*
X0251667Y0235964D01*
X0254304Y0235964D02*
X0257131Y0233136D01*
X0340277Y0203831D02*
X0336547Y0200100D01*
X0255158Y0136233D02*
X0256012Y0135379D01*
X0265373Y0142707D02*
X0265702Y0142378D01*
X0256012Y0135379D02*
X0256012Y0135166D01*
X0323736Y0225681D02*
X0326079Y0223338D01*
X0253369Y0241019D02*
X0254747Y0239642D01*
D10*
X0225335Y0108162D02*
D03*
X0228485Y0108162D02*
D03*
X0322973Y0108162D02*
D03*
X0326122Y0108162D02*
D03*
X0231634Y0108162D02*
D03*
X0329272Y0108162D02*
D03*
X0234784Y0108162D02*
D03*
X0332422Y0108162D02*
D03*
X0237933Y0108162D02*
D03*
X0241083Y0108162D02*
D03*
X0244233Y0108162D02*
D03*
X0342658Y0120760D02*
D03*
X0342658Y0133359D02*
D03*
X0195808Y0108162D02*
D03*
X0342658Y0242414D02*
D03*
X0300888Y0216429D02*
D03*
X0293941Y0218941D02*
D03*
X0296997Y0216569D02*
D03*
X0307225Y0208162D02*
D03*
X0302808Y0208269D02*
D03*
X0308655Y0223633D02*
D03*
X0305441Y0223659D02*
D03*
X0248473Y0270924D02*
D03*
X0227994Y0174992D02*
D03*
X0230847Y0175091D02*
D03*
X0233996Y0175091D02*
D03*
X0204469Y0132965D02*
D03*
X0203682Y0257620D02*
D03*
X0216067Y0262432D02*
D03*
X0203075Y0183063D02*
D03*
X0203682Y0179225D02*
D03*
X0257267Y0217242D02*
D03*
X0264016Y0207669D02*
D03*
X0272973Y0216036D02*
D03*
X0246595Y0169185D02*
D03*
X0267067Y0183723D02*
D03*
X0279922Y0256676D02*
D03*
X0254567Y0252963D02*
D03*
X0248501Y0243194D02*
D03*
X0252500Y0246154D02*
D03*
X0253369Y0241233D02*
D03*
X0249047Y0249376D02*
D03*
X0306057Y0244454D02*
D03*
X0311162Y0244087D02*
D03*
X0240594Y0271055D02*
D03*
X0243249Y0260524D02*
D03*
X0213721Y0201321D02*
D03*
X0214804Y0247532D02*
D03*
X0326885Y0244070D02*
D03*
X0328288Y0240188D02*
D03*
X0329833Y0243873D02*
D03*
X0326172Y0233867D02*
D03*
X0331359Y0232668D02*
D03*
X0327919Y0227967D02*
D03*
X0326301Y0230867D02*
D03*
X0329075Y0225288D02*
D03*
X0304863Y0231667D02*
D03*
X0316083Y0216921D02*
D03*
X0300436Y0188079D02*
D03*
X0285682Y0173122D02*
D03*
X0280453Y0177847D02*
D03*
X0275729Y0182571D02*
D03*
X0259390Y0200257D02*
D03*
X0259826Y0196177D02*
D03*
X0268530Y0133377D02*
D03*
X0270125Y0135826D02*
D03*
X0264656Y0133540D02*
D03*
X0272579Y0131971D02*
D03*
X0276221Y0114264D02*
D03*
X0281089Y0154225D02*
D03*
X0271398Y0155012D02*
D03*
X0270709Y0185918D02*
D03*
X0267108Y0188558D02*
D03*
X0203809Y0220977D02*
D03*
X0203894Y0218124D02*
D03*
X0327679Y0133143D02*
D03*
X0332990Y0156870D02*
D03*
X0337638Y0127159D02*
D03*
X0333701Y0131374D02*
D03*
X0332448Y0128592D02*
D03*
X0333084Y0117777D02*
D03*
X0321595Y0120286D02*
D03*
X0338649Y0124001D02*
D03*
X0313266Y0121988D02*
D03*
X0294430Y0116823D02*
D03*
X0313988Y0140829D02*
D03*
X0296586Y0114953D02*
D03*
X0332832Y0168104D02*
D03*
X0211949Y0127060D02*
D03*
X0299351Y0142414D02*
D03*
X0289902Y0142414D02*
D03*
X0296988Y0148319D02*
D03*
X0313524Y0154225D02*
D03*
X0311162Y0162493D02*
D03*
X0313524Y0168398D02*
D03*
X0278091Y0169579D02*
D03*
X0271004Y0168398D02*
D03*
X0313524Y0180209D02*
D03*
X0318248Y0184934D02*
D03*
X0327697Y0262886D02*
D03*
X0301111Y0124837D02*
D03*
X0314705Y0200583D02*
D03*
X0215099Y0257965D02*
D03*
X0214705Y0271941D02*
D03*
X0333902Y0248028D02*
D03*
X0250125Y0259820D02*
D03*
X0223957Y0263673D02*
D03*
X0224836Y0258147D02*
D03*
X0220611Y0257571D02*
D03*
X0212737Y0266429D02*
D03*
X0201880Y0207410D02*
D03*
X0201880Y0211248D02*
D03*
X0204150Y0202298D02*
D03*
X0215272Y0206379D02*
D03*
X0237933Y0206981D02*
D03*
X0334725Y0211508D02*
D03*
X0339115Y0220366D02*
D03*
X0340296Y0230428D02*
D03*
X0321120Y0207550D02*
D03*
X0307225Y0199106D02*
D03*
X0309193Y0187295D02*
D03*
X0334871Y0240621D02*
D03*
X0299745Y0255799D02*
D03*
X0322944Y0259429D02*
D03*
X0322850Y0242568D02*
D03*
X0342399Y0233070D02*
D03*
X0322764Y0197754D02*
D03*
X0319823Y0197138D02*
D03*
X0341871Y0265248D02*
D03*
X0313513Y0260819D02*
D03*
X0311162Y0262492D02*
D03*
X0324548Y0271547D02*
D03*
X0328485Y0271351D02*
D03*
X0266522Y0231663D02*
D03*
X0300237Y0133061D02*
D03*
X0304075Y0132844D02*
D03*
X0311162Y0141233D02*
D03*
X0294626Y0135327D02*
D03*
X0288130Y0223516D02*
D03*
X0296989Y0221793D02*
D03*
X0294628Y0232079D02*
D03*
X0287540Y0232079D02*
D03*
X0290311Y0208286D02*
D03*
X0282914Y0202256D02*
D03*
X0271004Y0197532D02*
D03*
X0287290Y0197568D02*
D03*
X0280847Y0186902D02*
D03*
X0265099Y0153043D02*
D03*
X0271398Y0151075D02*
D03*
X0284631Y0161803D02*
D03*
X0267560Y0118299D02*
D03*
X0286773Y0116450D02*
D03*
X0317067Y0230996D02*
D03*
X0286752Y0155012D02*
D03*
X0302107Y0200681D02*
D03*
X0254705Y0215815D02*
D03*
X0250138Y0220760D02*
D03*
X0246201Y0184146D02*
D03*
X0254863Y0210524D02*
D03*
X0258805Y0179662D02*
D03*
X0248957Y0167057D02*
D03*
X0257160Y0157983D02*
D03*
X0242264Y0227650D02*
D03*
X0191133Y0271524D02*
D03*
X0293984Y0252773D02*
D03*
X0305377Y0250359D02*
D03*
X0282422Y0132177D02*
D03*
X0187458Y0265998D02*
D03*
X0341343Y0186545D02*
D03*
X0341283Y0183411D02*
D03*
X0314796Y0223399D02*
D03*
X0286752Y0151862D02*
D03*
X0295972Y0154752D02*
D03*
X0323883Y0208264D02*
D03*
X0333658Y0177592D02*
D03*
X0214115Y0163526D02*
D03*
X0332717Y0193497D02*
D03*
X0282422Y0232177D02*
D03*
X0341407Y0195871D02*
D03*
X0341871Y0254422D02*
D03*
X0289508Y0271941D02*
D03*
X0190296Y0108555D02*
D03*
X0335571Y0108949D02*
D03*
X0268297Y0225649D02*
D03*
X0256872Y0256121D02*
D03*
X0289165Y0241331D02*
D03*
X0265915Y0142378D02*
D03*
X0259193Y0127059D02*
D03*
X0292264Y0194776D02*
D03*
X0301319Y0191626D02*
D03*
X0276168Y0148294D02*
D03*
X0247109Y0123136D02*
D03*
X0242132Y0123055D02*
D03*
X0245811Y0140949D02*
D03*
X0251319Y0125878D02*
D03*
X0247382Y0126272D02*
D03*
X0332815Y0140839D02*
D03*
X0331634Y0143595D02*
D03*
X0247301Y0239173D02*
D03*
X0244352Y0214070D02*
D03*
X0239508Y0237689D02*
D03*
X0242264Y0232965D02*
D03*
X0261556Y0240907D02*
D03*
X0265394Y0240445D02*
D03*
X0286863Y0163583D02*
D03*
X0285053Y0165790D02*
D03*
X0286863Y0168004D02*
D03*
X0340277Y0203831D02*
D03*
X0273760Y0240445D02*
D03*
X0268249Y0240445D02*
D03*
X0276713Y0232299D02*
D03*
X0323170Y0218879D02*
D03*
X0272579Y0248614D02*
D03*
X0271454Y0206685D02*
D03*
X0279272Y0208162D02*
D03*
X0223698Y0225370D02*
D03*
X0217675Y0213799D02*
D03*
X0217951Y0111830D02*
D03*
X0218445Y0120662D02*
D03*
X0259958Y0133010D02*
D03*
X0279651Y0132870D02*
D03*
X0221428Y0125061D02*
D03*
X0224088Y0116442D02*
D03*
X0215493Y0113280D02*
D03*
X0209193Y0121547D02*
D03*
X0233996Y0121292D02*
D03*
X0256012Y0135166D02*
D03*
X0333489Y0159850D02*
D03*
X0267658Y0221548D02*
D03*
X0234390Y0221055D02*
D03*
X0240940Y0221059D02*
D03*
X0260227Y0186311D02*
D03*
X0264137Y0174800D02*
D03*
X0251418Y0224559D02*
D03*
X0249587Y0201862D02*
D03*
X0203981Y0197877D02*
D03*
X0248564Y0152650D02*
D03*
X0257374Y0186410D02*
D03*
X0244904Y0165558D02*
D03*
X0316807Y0221352D02*
D03*
X0324572Y0221365D02*
D03*
X0232279Y0253529D02*
D03*
X0285178Y0266823D02*
D03*
X0305384Y0265620D02*
D03*
X0299707Y0259736D02*
D03*
X0251516Y0236114D02*
D03*
X0254671Y0232117D02*
D03*
X0272579Y0232079D02*
D03*
X0279666Y0248614D02*
D03*
X0265493Y0248614D02*
D03*
X0258406Y0248614D02*
D03*
X0258192Y0240566D02*
D03*
X0281241Y0240839D02*
D03*
X0207914Y0268792D02*
D03*
X0193052Y0266427D02*
D03*
X0203983Y0235641D02*
D03*
X0203983Y0239909D02*
D03*
X0224941Y0242807D02*
D03*
X0214705Y0232177D02*
D03*
X0214311Y0228634D02*
D03*
X0224941Y0232177D02*
D03*
X0224559Y0254262D02*
D03*
X0214804Y0242807D02*
D03*
X0234390Y0264953D02*
D03*
X0240194Y0249008D02*
D03*
X0234390Y0249008D02*
D03*
X0233746Y0236997D02*
D03*
X0238086Y0200474D02*
D03*
X0214705Y0135721D02*
D03*
X0231388Y0198565D02*
D03*
X0231388Y0152896D02*
D03*
X0202500Y0110130D02*
D03*
X0237934Y0184146D02*
D03*
X0238327Y0177847D02*
D03*
X0214950Y0185156D02*
D03*
X0237934Y0155012D02*
D03*
X0237934Y0161311D02*
D03*
X0215099Y0155603D02*
D03*
X0237934Y0132177D02*
D03*
X0237934Y0138477D02*
D03*
X0202107Y0151075D02*
D03*
X0189115Y0117611D02*
D03*
X0189115Y0127059D02*
D03*
X0189115Y0122335D02*
D03*
X0189115Y0112886D02*
D03*
X0232028Y0230406D02*
D03*
X0232028Y0224107D02*
D03*
X0228485Y0198516D02*
D03*
X0231241Y0208752D02*
D03*
X0224941Y0208752D02*
D03*
X0224941Y0185917D02*
D03*
X0231241Y0185917D02*
D03*
X0228485Y0152847D02*
D03*
X0231241Y0163083D02*
D03*
X0224941Y0163083D02*
D03*
X0231241Y0140248D02*
D03*
X0224941Y0140248D02*
D03*
X0189115Y0150288D02*
D03*
X0189115Y0145563D02*
D03*
X0189115Y0136114D02*
D03*
X0189115Y0140839D02*
D03*
X0203682Y0144776D02*
D03*
X0203682Y0141626D02*
D03*
X0214115Y0144628D02*
D03*
X0189115Y0169185D02*
D03*
X0189115Y0164461D02*
D03*
X0189115Y0155012D02*
D03*
X0189115Y0159736D02*
D03*
X0203682Y0163673D02*
D03*
X0203682Y0160524D02*
D03*
X0202107Y0169973D02*
D03*
X0189115Y0188083D02*
D03*
X0189115Y0183358D02*
D03*
X0189115Y0173910D02*
D03*
X0189115Y0178634D02*
D03*
X0214115Y0182423D02*
D03*
X0202107Y0188870D02*
D03*
X0189115Y0206980D02*
D03*
X0189115Y0202256D02*
D03*
X0189115Y0192807D02*
D03*
X0189115Y0197532D02*
D03*
X0189115Y0225878D02*
D03*
X0189115Y0221154D02*
D03*
X0189115Y0211705D02*
D03*
X0189115Y0216429D02*
D03*
X0214115Y0220219D02*
D03*
X0202107Y0226666D02*
D03*
X0189115Y0244776D02*
D03*
X0189115Y0240051D02*
D03*
X0189115Y0230603D02*
D03*
X0189115Y0235327D02*
D03*
X0214115Y0239116D02*
D03*
X0202107Y0229815D02*
D03*
X0202107Y0245563D02*
D03*
X0214115Y0255160D02*
D03*
X0189115Y0254225D02*
D03*
X0189115Y0249500D02*
D03*
X0189115Y0258949D02*
D03*
X0189115Y0263673D02*
D03*
D160*
X0247382Y0179421D02*
D03*
X0246989Y0149107D02*
D03*
X0246989Y0160524D02*
D03*
X0248170Y0213674D02*
D03*
X0117280Y0182876D02*
%LPD*%
G01*
D10*
X0175548Y0210041D03*
X0175548Y0205317D03*
X0175548Y0214766D03*
X0175548Y0219490D03*
D40*
X0117871Y0208988D03*
D41*
X0117871Y0185169D03*
D42*
X0145479Y0220671D03*
D43*
X0147103Y0183467D03*
D44*
X0176335Y0193161D03*
D10*
X0118756Y0194057D03*
X0118756Y0190120D03*
D10*
X0171643Y0210254D03*
X0120036Y0205120D03*
X0150351Y0211419D03*
X0174367Y0201577D03*
X0147989Y0218506D03*
X0144052Y0185435D03*
X0131453Y0185435D03*
X0133815Y0218506D03*
X0165311Y0218506D03*
X0120430Y0218506D03*
X0174367Y0188191D03*
X0137752Y0209451D03*
X0151996Y0204502D03*
X0168461Y0185435D03*
X0130272Y0193703D03*
X0151138Y0185435D03*
X0143658Y0193309D03*
X0161374Y0197640D03*
X0163737Y0188191D03*
X0128697Y0204333D03*
X0120036Y0185435D03*
X0156256Y0188978D03*
X0138146Y0199608D03*
G36*
X0173419Y0221089D02*
G01*
X0173560Y0220894D01*
X0173579Y0220774D01*
X0173579Y0203348D01*
X0173579Y0203348D01*
X0176437Y0203348D01*
X0176667Y0203274D01*
X0176808Y0203079D01*
X0176827Y0202959D01*
X0176827Y0183366D01*
X0176753Y0183137D01*
X0176558Y0182995D01*
X0176437Y0182976D01*
X0117770Y0182976D01*
X0117541Y0183051D01*
X0117399Y0183246D01*
X0117380Y0183366D01*
X0117380Y0186974D01*
X0117455Y0187204D01*
X0117650Y0187345D01*
X0117770Y0187364D01*
X0118393Y0187364D01*
X0118417Y0187363D01*
X0118422Y0187362D01*
X0119091Y0187362D01*
X0119091Y0187362D01*
X0119742Y0187522D01*
X0120335Y0187834D01*
X0120836Y0188278D01*
X0121216Y0188829D01*
X0121454Y0189455D01*
X0121535Y0190120D01*
X0121454Y0190785D01*
X0121216Y0191411D01*
X0120902Y0191867D01*
X0120833Y0192098D01*
X0120902Y0192310D01*
X0121216Y0192766D01*
X0121454Y0193392D01*
X0121535Y0194057D01*
X0121454Y0194722D01*
X0121216Y0195348D01*
X0120836Y0195899D01*
X0120335Y0196343D01*
X0119742Y0196655D01*
X0119742Y0196655D01*
X0119742Y0196655D01*
X0119091Y0196815D01*
X0119091Y0196815D01*
X0118422Y0196815D01*
X0118417Y0196814D01*
X0118393Y0196813D01*
X0117770Y0196813D01*
X0117541Y0196887D01*
X0117399Y0197082D01*
X0117380Y0197203D01*
X0117380Y0220774D01*
X0117455Y0221003D01*
X0117650Y0221144D01*
X0117770Y0221163D01*
X0173189Y0221163D01*
X0173419Y0221089D01*
G37*
X0115902Y0224406D02*
G01*
G75*
G36*
X0151122Y0236808D02*
X0150490Y0236682D01*
X0149774Y0236203D01*
X0149670Y0236047D01*
X0145172Y0236047D01*
X0144634Y0235940D01*
X0144178Y0235636D01*
X0143803Y0235261D01*
X0143158Y0235451D01*
X0142839Y0235929D01*
X0142253Y0236320D01*
X0141562Y0236458D01*
X0140871Y0236320D01*
X0140285Y0235929D01*
X0139893Y0235343D01*
X0139756Y0234652D01*
X0139893Y0233960D01*
X0140077Y0233685D01*
X0139761Y0233094D01*
X0138330Y0233094D01*
X0138047Y0233377D01*
X0137591Y0233682D01*
X0137054Y0233789D01*
X0133361Y0233789D01*
X0132966Y0234053D01*
X0132275Y0234190D01*
X0131584Y0234053D01*
X0130998Y0233661D01*
X0130606Y0233075D01*
X0130469Y0232384D01*
X0130606Y0231693D01*
X0130998Y0231107D01*
X0131584Y0230715D01*
X0132275Y0230578D01*
X0132966Y0230715D01*
X0133361Y0230979D01*
X0136472Y0230979D01*
X0136755Y0230696D01*
X0137211Y0230391D01*
X0137748Y0230284D01*
X0142219Y0230284D01*
X0142757Y0230391D01*
X0143212Y0230696D01*
X0145753Y0233237D01*
X0149670Y0233237D01*
X0149774Y0233081D01*
X0150490Y0232602D01*
X0151335Y0232434D01*
X0151335Y0229370D01*
X0150490Y0229202D01*
X0149774Y0228723D01*
X0149295Y0228007D01*
X0149127Y0227162D01*
X0149295Y0226317D01*
X0149774Y0225601D01*
X0150490Y0225122D01*
X0151122Y0224997D01*
X0151063Y0224406D01*
X0115902Y0224406D01*
X0115902Y0228628D01*
X0116395Y0228945D01*
X0116950Y0228711D01*
X0116853Y0228224D01*
X0116991Y0227533D01*
X0117382Y0226947D01*
X0117968Y0226555D01*
X0118659Y0226418D01*
X0119351Y0226555D01*
X0119937Y0226947D01*
X0120328Y0227533D01*
X0120466Y0228224D01*
X0120328Y0228915D01*
X0119937Y0229501D01*
X0119517Y0229782D01*
X0119315Y0230024D01*
X0119178Y0230530D01*
X0119291Y0231099D01*
X0119123Y0231944D01*
X0118778Y0232460D01*
X0118690Y0232871D01*
X0118778Y0233281D01*
X0119123Y0233797D01*
X0119291Y0234642D01*
X0119123Y0235487D01*
X0118644Y0236203D01*
X0117928Y0236682D01*
X0117296Y0236808D01*
X0117355Y0237398D01*
X0151064Y0237398D01*
X0151122Y0236808D01*
D02*
G37*
%LPC*%
G36*
X0126768Y0229067D02*
X0126077Y0228929D01*
X0125491Y0228538D01*
X0125099Y0227952D01*
X0124962Y0227260D01*
X0125099Y0226569D01*
X0125491Y0225983D01*
X0126077Y0225591D01*
X0126768Y0225454D01*
X0127459Y0225591D01*
X0128045Y0225983D01*
X0128437Y0226569D01*
X0128575Y0227260D01*
X0128437Y0227952D01*
X0128045Y0228538D01*
X0127459Y0228929D01*
X0126768Y0229067D01*
D02*
G37*
%LPD*%
D25*
X0134209Y0237004D02*
D03*
X0134209Y0224800D02*
D03*
D24*
X0116296Y0226867D02*
D03*
D52*
X0145172Y0234642D02*
X0151335Y0234642D01*
X0137748Y0231689D02*
X0142219Y0231689D01*
X0145172Y0234642D01*
X0132275Y0232384D02*
X0137054Y0232384D01*
X0137748Y0231689D01*
D10*
X0151335Y0234642D02*
D03*
X0151335Y0230902D02*
D03*
X0132275Y0232384D02*
D03*
X0117142Y0225691D02*
D03*
X0129844Y0230253D02*
D03*
X0127105Y0231309D02*
D03*
M02*
