M48
INCH,TZ
T01C0.011800
T02C0.025600
T03C0.033450
T04C0.039200
T05C0.043300
T06C0.059100
%
T01
X11708Y23464
X11708Y23110
X11876Y19406
X11876Y19012
X15133Y23464
X15133Y23090
X15133Y22716
X17555Y21949
X17555Y21477
X17555Y21004
X17555Y20532
X17919Y11440
X17919Y11046
X18715Y23296
X18715Y22352
X18715Y20934
X18715Y19989
X18715Y15737
X18715Y14320
X18715Y12470
X18715Y11052
X18715Y27076
X18715Y26131
X18715Y25659
X18715Y25186
X18715Y24714
X18715Y24241
X18715Y23769
X18715Y22824
X18715Y21879
X18715Y21407
X18715Y20462
X18715Y19517
X18715Y19044
X18715Y18572
X18715Y18100
X18715Y17627
X18715Y17155
X18715Y16682
X18715Y16210
X18715Y15265
X18715Y14793
X18715Y13848
X18715Y13375
X18715Y12942
X18715Y11997
X18715Y11525
X19581Y10816
X19699Y27233
X19896Y10816
X20093Y27233
X22533Y10816
X22612Y27233
X22848Y10816
X23163Y10816
X23478Y10816
X23793Y10816
X24108Y10816
X24423Y10816
X24738Y10816
X25053Y10816
X25368Y10816
X25368Y27233
X25683Y10816
X25762Y27233
X25998Y10816
X26156Y27233
X26313Y10816
X26549Y27233
X26628Y10816
X26943Y10816
X26943Y27233
X27258Y10816
X27337Y27233
X27573Y10816
X27730Y27233
X27888Y10816
X28124Y27233
X28203Y10816
X28518Y10816
X28833Y10816
X29148Y10816
X29344Y27233
X29463Y10816
X29659Y27233
X29778Y10816
X30093Y10816
X30407Y10816
X30722Y10816
X31037Y10816
X31352Y10816
X31667Y10816
X31982Y10816
X32297Y10816
X32612Y10816
X32927Y10816
X33242Y10816
X34266Y27233
X34266Y24871
X34266Y24556
X34266Y24241
X34266Y21170
X34266Y20856
X34266Y20541
X34266Y20226
X34266Y19911
X34266Y17745
X34266Y17430
X34266Y16800
X34266Y16485
X34266Y16170
X34266Y15856
X34266Y14911
X34266Y14596
X34266Y14281
X34266Y13966
X34266Y13651
X34266Y13336
X34266Y12706
X34266Y12391
X34266Y12076
X34266Y11761
X34266Y10816
X34266Y17115
X34266Y15541
X34266Y15226
X34266Y13021
X34266Y11446
X34266Y11131
X36145Y17819
X36608Y17327
X36755Y16274
X36745Y15310
X36549Y14325
X36705Y13313
X37543Y13252
X37897Y12859
X37986Y14227
X39383Y12780
X39314Y17327
X12437Y9812
X12165Y10448
X12379Y10833
X11738Y11262
X11698Y11598
X11895Y12188
X12171Y12444
X12289Y12975
X11895Y13271
X11698Y12779
X11698Y13960
X11698Y15535
X12171Y15515
X13282Y15807
X14329Y15782
X14651Y15494
X15704Y15419
X16816Y15535
X17604Y15535
X17131Y14531
X16486Y14525
X16546Y13279
X17013Y13369
X17181Y12889
X17604Y13172
X17182Y12004
X17878Y11832
X17919Y11440
X17919Y11046
X17237Y11140
X16927Y10651
X17314Y10334
X16917Y9904
X16528Y10283
X16453Y11007
X16501Y11440
X15185Y10455
X15185Y9826
X14266Y9812
X13411Y9812
X13634Y10454
X14218Y11479
X14611Y12926
X13864Y12975
X14297Y13485
X14886Y14483
X15832Y16440
X16764Y16507
X16816Y16912
X17604Y16716
X17210Y16125
X14736Y17265
X14778Y17671
X13949Y17255
X13684Y16852
X12247Y16929
X12656Y16294
X11816Y16061
X18714Y27076
X19113Y27153
X19698Y27234
X20092Y27234
X20352Y26476
X20368Y25762
X20391Y25478
X20210Y24872
X20210Y24557
X20398Y23991
X20398Y23565
X20210Y22982
X20210Y22667
X20380Y22098
X20389Y21813
X20188Y21125
X20188Y20741
X20414Y20230
X20398Y19788
X20210Y19202
X20210Y18887
X20307Y18307
X20368Y17923
X20210Y17313
X20210Y16998
X20368Y16368
X20368Y16053
X20210Y15423
X20210Y15108
X20368Y14478
X20368Y14163
X20210Y13533
X20446Y13297
X21313Y13021
X21194Y12706
X20919Y12509
X20919Y12155
X21844Y12067
X21864Y12569
X22142Y12506
X22986Y12608
X23124Y12234
X23399Y12130
X22887Y12027
X24213Y12306
X24710Y12314
X24738Y12628
X25131Y12588
X25919Y12706
X25995Y13301
X26037Y13691
X26048Y14025
X25761Y13769
X25601Y13517
X26465Y13354
X26852Y13338
X27012Y13583
X27257Y13197
X27965Y13287
X28242Y13218
X29108Y13336
X29462Y13533
X30023Y13306
X30407Y13285
X30111Y12484
X29890Y12161
X29866Y11778
X31326Y12199
X31976Y12248
X32159Y12029
X32574Y12591
X32767Y13315
X32454Y13691
X32602Y13935
X33281Y14084
X33163Y14360
X33370Y13138
X33244Y12860
X33763Y12716
X33864Y12401
X33308Y11778
X33298Y15687
X33348Y15985
X32709Y15931
X32499Y15592
X31824Y14995
X31588Y15187
X31352Y15423
X31116Y16250
X31012Y16869
X31352Y16840
X30924Y17150
X30722Y17352
X29777Y17195
X29753Y16761
X30013Y15935
X30013Y15620
X29597Y15476
X29698Y14832
X30407Y14793
X30578Y14565
X29935Y14242
X28990Y14242
X28675Y15187
X28675Y15502
X28108Y15423
X27139Y15502
X27139Y15108
X27616Y14830
X27725Y14116
X26968Y14252
X26591Y14238
X26509Y15305
X25790Y15226
X25801Y14911
X25716Y15799
X24935Y15580
X24856Y15265
X24974Y14635
X24829Y14389
X24581Y14095
X24108Y14458
X24108Y14852
X23793Y15502
X23796Y15817
X23793Y16132
X23929Y16761
X24118Y17028
X24659Y16919
X24895Y16706
X24490Y16556
X24659Y17549
X24935Y17470
X24974Y18336
X24620Y18415
X23793Y18415
X23796Y18100
X23832Y17785
X23399Y17509
X23084Y17509
X22799Y17500
X22257Y17273
X22257Y16683
X22494Y16309
X23124Y16309
X22986Y16742
X22848Y15285
X23138Y15290
X22986Y14458
X23124Y14025
X22494Y14025
X22257Y14399
X22257Y14990
X21509Y15561
X21411Y16068
X21411Y16353
X21411Y17957
X21411Y18243
X21495Y18516
X22494Y18592
X22257Y18966
X22257Y19517
X22848Y19852
X23138Y19857
X23808Y20048
X23796Y20383
X23793Y20698
X23124Y20876
X22986Y21309
X22257Y21210
X22494Y20876
X21527Y20638
X21372Y20133
X21411Y19847
X21767Y21380
X21411Y21737
X21411Y22022
X22061Y22037
X22762Y22087
X23439Y22106
X23734Y22093
X24093Y22106
X24580Y22116
X25013Y22076
X25141Y22456
X25161Y22741
X24659Y22903
X24226Y22765
X24226Y23297
X24489Y23756
X24730Y23918
X24850Y24320
X24621Y24539
X24904Y24938
X25250Y24616
X25336Y24124
X25819Y24057
X26155Y24091
X26539Y24045
X26824Y24045
X27376Y24045
X28124Y24084
X28714Y23887
X28916Y24133
X29373Y23942
X29947Y23991
X30605Y24446
X31116Y24409
X31431Y25108
X30537Y25036
X30053Y25192
X29974Y25580
X29970Y25974
X30538Y26562
X30525Y26958
X29659Y27234
X29344Y27234
X28950Y27195
X28124Y27234
X27730Y27234
X27336Y27234
X26942Y27234
X26549Y27234
X26155Y27234
X25761Y27234
X25368Y27234
X24847Y27093
X24641Y26579
X24324Y26053
X24462Y25738
X24224Y25561
X24019Y24901
X23734Y24888
X23439Y24901
X23084Y24872
X23227Y25353
X23234Y25855
X22809Y25698
X22483Y25815
X22455Y25427
X22061Y25758
X21509Y25797
X21411Y25516
X21480Y24754
X21480Y24281
X21411Y23912
X21411Y23627
X21470Y23218
X21431Y22864
X22061Y23277
X22494Y23218
X22809Y22903
X23202Y23041
X23202Y22411
X22369Y22537
X22494Y24281
X22061Y24517
X23091Y23741
X23374Y23700
X23950Y23769
X25151Y23612
X25467Y23212
X26652Y23167
X27257Y23208
X27671Y23230
X28242Y23218
X28753Y23208
X29462Y23208
X30486Y23167
X30756Y23267
X30865Y22364
X30544Y22366
X31479Y22340
X31680Y22136
X31608Y21693
X31194Y21643
X30909Y21643
X30088Y21643
X29699Y21657
X29698Y22180
X29413Y22180
X29394Y21894
X29147Y21683
X28793Y21761
X28340Y21648
X28347Y20742
X28456Y20459
X28714Y20580
X29031Y20829
X27927Y20817
X27145Y20669
X26746Y20580
X26401Y20767
X25486Y21053
X25470Y21582
X25726Y21725
X24728Y21761
X24435Y21407
X24125Y21327
X24659Y20659
X24673Y20174
X24958Y20187
X25939Y20026
X25982Y19618
X25703Y19557
X25998Y19281
X26022Y18632
X25737Y18641
X26017Y18218
X25880Y17967
X26413Y17480
X26706Y18373
X26710Y18856
X27070Y18592
X27572Y18258
X28045Y17785
X28084Y18691
X29265Y19163
X29226Y19478
X28728Y19757
X28291Y20226
X27100Y19754
X27297Y21604
X26706Y21840
X26765Y22155
X26829Y22565
X28813Y22352
X30280Y20827
X30722Y20817
X31352Y20895
X31637Y20887
X32111Y20755
X32388Y20827
X32887Y20698
X33472Y21151
X34027Y20383
X34140Y19587
X34095Y19262
X34137Y18974
X34134Y18655
X34128Y18341
X33242Y18730
X33271Y19350
X33271Y19636
X33281Y19921
X32276Y19776
X31982Y19714
X31470Y20059
X30722Y19911
X30210Y20069
X30131Y19163
X30043Y18808
X29777Y18533
X30919Y18730
X30643Y19183
X31352Y18021
X31824Y18494
X32762Y18494
X32966Y18100
X33365Y17760
X33283Y16811
X32021Y17628
X28568Y17313
X28686Y16801
X28505Y16579
X28686Y16359
X28463Y16181
X27297Y16328
X27100Y16840
X27809Y16958
X24886Y19043
X24541Y19281
X24108Y19419
X24108Y19124
X22986Y19025
X23124Y18592
X18911Y18809
X18714Y18572
X18911Y18336
X18714Y18100
X18911Y17864
X18714Y17628
X18911Y17391
X18714Y17155
X18911Y16919
X18714Y16683
X18911Y16446
X18714Y16210
X18911Y15974
X18714Y15738
X18911Y15502
X18714Y15265
X18911Y15029
X18714Y14793
X18911Y14557
X18714Y14320
X18911Y14084
X18714Y13848
X18911Y13612
X18714Y13376
X18714Y12943
X18911Y12706
X18714Y12470
X18911Y12234
X18714Y11998
X18911Y11761
X19618Y12065
X19618Y12538
X21470Y13572
X21411Y14178
X21411Y14463
X23793Y13848
X23796Y13533
X23793Y13218
X23738Y12932
X26755Y11830
X31116Y14124
X31398Y14083
X31985Y21564
X32316Y21888
X32592Y21813
X32457Y22137
X32907Y22529
X32791Y22797
X32630Y23087
X32617Y23387
X32336Y23336
X31706Y23100
X31441Y22725
X33291Y22596
X33135Y23267
X32828Y24019
X32983Y24388
X32688Y24407
X32284Y24257
X32297Y24586
X32496Y25080
X32294Y25943
X32203Y26352
X32769Y26289
X32848Y27135
X32454Y27155
X33734Y26565
X34187Y26525
X34187Y25443
X33390Y24803
X33487Y24063
X34029Y23043
X33911Y22037
X31351Y26082
X31116Y26250
X29398Y25278
X27992Y25668
X27966Y24862
X27257Y24862
X26549Y24862
X25840Y24862
X25456Y25297
X25687Y25612
X25012Y25982
X24059Y27106
X23439Y26496
X22769Y26821
X22612Y27234
X22061Y26998
X21470Y27195
X21273Y26643
X20791Y26880
X21606Y26244
X22395Y26368
X19305Y26643
X18745Y26600
X18911Y26368
X18714Y26132
X18911Y25895
X18714Y25659
X18911Y25423
X18714Y25187
X18911Y24950
X18714Y24714
X18911Y24478
X18714Y24242
X18911Y24006
X18714Y23769
X18911Y23533
X18714Y23297
X18911Y23061
X18714Y22824
X18911Y22588
X18714Y22352
X18911Y22116
X18714Y21880
X18911Y21643
X18714Y21407
X18911Y21171
X18714Y20935
X18911Y20698
X18714Y20462
X18911Y20226
X18714Y19990
X18911Y19754
X18714Y19517
X18911Y19281
X18714Y19045
X28517Y26683
X28677Y11645
X29442Y11683
X29658Y11496
X29777Y10817
X30092Y10817
X30407Y10817
X30722Y10817
X31037Y10817
X31352Y10817
X31667Y10817
X31982Y10817
X32297Y10817
X32612Y10817
X32927Y10817
X33242Y10817
X33557Y10895
X33242Y11218
X32412Y11090
X31194Y11055
X30250Y11055
X30592Y11672
X29462Y10817
X29147Y10817
X28832Y10817
X28517Y10817
X28202Y10817
X27887Y10817
X27572Y10817
X27257Y10817
X26942Y10817
X26627Y10817
X26313Y10817
X25998Y10817
X25683Y10817
X25368Y10817
X25053Y10817
X24738Y10817
X24423Y10817
X24108Y10817
X23793Y10817
X23478Y10817
X23163Y10817
X22848Y10817
X22533Y10817
X22408Y11645
X21706Y11643
X21549Y11328
X21795Y11183
X21234Y11210
X20919Y11092
X20643Y11013
X20250Y11013
X19895Y10817
X19580Y10817
X19610Y11161
X19611Y11623
X18714Y11525
X18911Y11289
X18714Y11053
X19029Y10856
X23084Y11328
X23139Y11668
X26033Y11100
X27622Y11427
X27622Y11722
X34265Y11446
X34265Y11132
X34265Y10817
X34265Y11761
X34265Y12076
X34265Y12391
X34265Y12706
X34265Y13021
X34265Y13336
X34265Y13651
X34265Y13966
X34265Y14281
X34265Y14596
X34265Y14911
X34265Y15226
X34265Y15541
X34265Y15856
X34265Y16171
X34265Y16486
X34265Y16801
X34265Y17116
X34265Y17431
X34265Y17746
X34265Y19911
X34265Y20226
X34265Y20541
X34265Y20856
X34265Y21171
X34239Y23307
X34265Y24242
X34265Y24557
X34265Y24872
X34265Y27234
X12004Y20512
X12004Y18544
X12043Y21851
X12870Y20434
X13027Y19371
X13145Y18544
X13382Y21851
X13775Y20945
X13815Y19961
X14366Y19331
X14405Y18544
X14799Y21851
X15035Y21142
X15114Y18544
X15200Y20451
X15626Y18898
X16137Y19764
X16374Y18819
X16531Y21851
X16846Y18544
X17164Y21026
X17437Y20158
X17437Y18819
X11876Y19406
X11876Y19012
X17555Y21949
X17555Y21477
X17555Y21005
X17555Y20532
X11714Y22570
X11866Y22823
X11708Y23110
X11708Y23465
X12710Y23131
X12984Y23026
X13227Y23239
X12677Y22726
X14156Y23466
X15133Y23465
X15133Y23091
X15133Y22717
T02
X37715Y10612
X37715Y8336
T03
X37318Y18825
X37318Y17825
X37318Y16825
X37318Y15825
X37318Y14825
X38318Y14825
X38318Y15825
X38318Y16825
X38318Y17825
X38318Y18825
X24816Y21368
X24698Y19675
X24738Y17943
X24698Y16053
X24698Y14911
X24698Y13730
X25171Y13218
T04
X11639Y17522
X11639Y16794
X11639Y14845
X11639Y10101
X17741Y17345
X17741Y14826
X17741Y14078
X17741Y12385
X17741Y9924
X11639Y10101
X11639Y14846
X17742Y14826
X17742Y14078
X17742Y12385
X17742Y9924
X17742Y17346
X11639Y17523
X11639Y16794
X33950Y26919
X33190Y23777
X33990Y23777
X33590Y21777
T05
X3841Y27874
X3841Y26874
X3841Y25874
X3841Y24874
X3841Y23874
X3841Y22874
X3841Y21874
X3841Y20874
X3841Y19874
X3841Y18874
X3841Y17874
X3841Y16874
X3841Y15874
X3841Y14874
X3841Y13874
X3841Y12874
X3841Y11874
X3841Y10874
X3841Y9874
X4841Y27874
X4841Y26874
X4841Y25874
X4841Y24874
X4841Y23874
X4841Y22874
X4841Y21874
X4841Y20874
X4841Y19874
X4841Y18874
X4841Y17874
X4841Y16874
X4841Y15874
X4841Y14874
X4841Y13874
X4841Y12874
X4841Y11874
X4841Y10874
X4841Y9874
X7223Y27874
X7223Y26874
X7223Y25874
X7223Y24874
X7223Y23874
X7223Y22874
X7223Y21874
X7223Y20874
X7223Y19874
X7223Y18874
X7223Y17874
X7223Y16874
X7223Y15874
X7223Y14874
X7223Y13874
X7223Y12874
X7223Y11874
X7223Y10874
X7223Y9874
X8223Y27874
X8223Y26874
X8223Y25874
X8223Y24874
X8223Y23874
X8223Y22874
X8223Y21874
X8223Y20874
X8223Y19874
X8223Y18874
X8223Y17874
X8223Y16874
X8223Y15874
X8223Y14874
X8223Y13874
X8223Y12874
X8223Y11874
X8223Y10874
X8223Y9874
T06
X5022Y33268
X5022Y30984
X5939Y32126
X8223Y33268
X8223Y30984
M30
