G75*
G70*
%OFA0B0*%
%FSLAX25Y25*%
%IPPOS*%
%LPD*%
%AMOC8*
5,1,8,0,0,1.08239X$1,22.5*
%
%ADD47C,0.00591*%
%ADD51C,0.00197*%
X0000000Y0000000D02*
%LPD*%
G01*
D51*
X0057855Y0421260D02*
X0459430Y0421260D01*
X0459430Y0000000D01*
X0057855Y0000000D01*
X0057855Y0421260D01*
D47*
X0240832Y0447619D02*
X0238582Y0447619D01*
X0239707Y0447619D02*
X0239707Y0451556D01*
X0239707Y0451556D02*
X0239332Y0450993D01*
X0239332Y0450993D02*
X0238957Y0450618D01*
X0238957Y0450618D02*
X0238582Y0450431D01*
X0243269Y0451556D02*
X0243644Y0451556D01*
X0243644Y0451556D02*
X0244019Y0451368D01*
X0244019Y0451368D02*
X0244207Y0451181D01*
X0244207Y0451181D02*
X0244394Y0450806D01*
X0244394Y0450806D02*
X0244582Y0450056D01*
X0244582Y0450056D02*
X0244582Y0449119D01*
X0244582Y0449119D02*
X0244394Y0448369D01*
X0244394Y0448369D02*
X0244207Y0447994D01*
X0244207Y0447994D02*
X0244019Y0447806D01*
X0244019Y0447806D02*
X0243644Y0447619D01*
X0243644Y0447619D02*
X0243269Y0447619D01*
X0243269Y0447619D02*
X0242894Y0447806D01*
X0242894Y0447806D02*
X0242707Y0447994D01*
X0242707Y0447994D02*
X0242519Y0448369D01*
X0242519Y0448369D02*
X0242332Y0449119D01*
X0242332Y0449119D02*
X0242332Y0450056D01*
X0242332Y0450056D02*
X0242519Y0450806D01*
X0242519Y0450806D02*
X0242707Y0451181D01*
X0242707Y0451181D02*
X0242894Y0451368D01*
X0242894Y0451368D02*
X0243269Y0451556D01*
X0246081Y0451181D02*
X0246269Y0451368D01*
X0246269Y0451368D02*
X0246644Y0451556D01*
X0246644Y0451556D02*
X0247581Y0451556D01*
X0247581Y0451556D02*
X0247956Y0451368D01*
X0247956Y0451368D02*
X0248144Y0451181D01*
X0248144Y0451181D02*
X0248331Y0450806D01*
X0248331Y0450806D02*
X0248331Y0450431D01*
X0248331Y0450431D02*
X0248144Y0449869D01*
X0248144Y0449869D02*
X0245894Y0447619D01*
X0245894Y0447619D02*
X0248331Y0447619D01*
X0250018Y0447994D02*
X0250206Y0447806D01*
X0250206Y0447806D02*
X0250018Y0447619D01*
X0250018Y0447619D02*
X0249831Y0447806D01*
X0249831Y0447806D02*
X0250018Y0447994D01*
X0250018Y0447994D02*
X0250018Y0447619D01*
X0252643Y0451556D02*
X0253018Y0451556D01*
X0253018Y0451556D02*
X0253393Y0451368D01*
X0253393Y0451368D02*
X0253581Y0451181D01*
X0253581Y0451181D02*
X0253768Y0450806D01*
X0253768Y0450806D02*
X0253955Y0450056D01*
X0253955Y0450056D02*
X0253955Y0449119D01*
X0253955Y0449119D02*
X0253768Y0448369D01*
X0253768Y0448369D02*
X0253581Y0447994D01*
X0253581Y0447994D02*
X0253393Y0447806D01*
X0253393Y0447806D02*
X0253018Y0447619D01*
X0253018Y0447619D02*
X0252643Y0447619D01*
X0252643Y0447619D02*
X0252268Y0447806D01*
X0252268Y0447806D02*
X0252081Y0447994D01*
X0252081Y0447994D02*
X0251893Y0448369D01*
X0251893Y0448369D02*
X0251706Y0449119D01*
X0251706Y0449119D02*
X0251706Y0450056D01*
X0251706Y0450056D02*
X0251893Y0450806D01*
X0251893Y0450806D02*
X0252081Y0451181D01*
X0252081Y0451181D02*
X0252268Y0451368D01*
X0252268Y0451368D02*
X0252643Y0451556D01*
X0256393Y0451556D02*
X0256768Y0451556D01*
X0256768Y0451556D02*
X0257143Y0451368D01*
X0257143Y0451368D02*
X0257330Y0451181D01*
X0257330Y0451181D02*
X0257518Y0450806D01*
X0257518Y0450806D02*
X0257705Y0450056D01*
X0257705Y0450056D02*
X0257705Y0449119D01*
X0257705Y0449119D02*
X0257518Y0448369D01*
X0257518Y0448369D02*
X0257330Y0447994D01*
X0257330Y0447994D02*
X0257143Y0447806D01*
X0257143Y0447806D02*
X0256768Y0447619D01*
X0256768Y0447619D02*
X0256393Y0447619D01*
X0256393Y0447619D02*
X0256018Y0447806D01*
X0256018Y0447806D02*
X0255830Y0447994D01*
X0255830Y0447994D02*
X0255643Y0448369D01*
X0255643Y0448369D02*
X0255455Y0449119D01*
X0255455Y0449119D02*
X0255455Y0450056D01*
X0255455Y0450056D02*
X0255643Y0450806D01*
X0255643Y0450806D02*
X0255830Y0451181D01*
X0255830Y0451181D02*
X0256018Y0451368D01*
X0256018Y0451368D02*
X0256393Y0451556D01*
X0260142Y0451556D02*
X0260517Y0451556D01*
X0260517Y0451556D02*
X0260892Y0451368D01*
X0260892Y0451368D02*
X0261080Y0451181D01*
X0261080Y0451181D02*
X0261267Y0450806D01*
X0261267Y0450806D02*
X0261455Y0450056D01*
X0261455Y0450056D02*
X0261455Y0449119D01*
X0261455Y0449119D02*
X0261267Y0448369D01*
X0261267Y0448369D02*
X0261080Y0447994D01*
X0261080Y0447994D02*
X0260892Y0447806D01*
X0260892Y0447806D02*
X0260517Y0447619D01*
X0260517Y0447619D02*
X0260142Y0447619D01*
X0260142Y0447619D02*
X0259767Y0447806D01*
X0259767Y0447806D02*
X0259580Y0447994D01*
X0259580Y0447994D02*
X0259392Y0448369D01*
X0259392Y0448369D02*
X0259205Y0449119D01*
X0259205Y0449119D02*
X0259205Y0450056D01*
X0259205Y0450056D02*
X0259392Y0450806D01*
X0259392Y0450806D02*
X0259580Y0451181D01*
X0259580Y0451181D02*
X0259767Y0451368D01*
X0259767Y0451368D02*
X0260142Y0451556D01*
X0263892Y0451556D02*
X0264267Y0451556D01*
X0264267Y0451556D02*
X0264642Y0451368D01*
X0264642Y0451368D02*
X0264829Y0451181D01*
X0264829Y0451181D02*
X0265017Y0450806D01*
X0265017Y0450806D02*
X0265204Y0450056D01*
X0265204Y0450056D02*
X0265204Y0449119D01*
X0265204Y0449119D02*
X0265017Y0448369D01*
X0265017Y0448369D02*
X0264829Y0447994D01*
X0264829Y0447994D02*
X0264642Y0447806D01*
X0264642Y0447806D02*
X0264267Y0447619D01*
X0264267Y0447619D02*
X0263892Y0447619D01*
X0263892Y0447619D02*
X0263517Y0447806D01*
X0263517Y0447806D02*
X0263329Y0447994D01*
X0263329Y0447994D02*
X0263142Y0448369D01*
X0263142Y0448369D02*
X0262954Y0449119D01*
X0262954Y0449119D02*
X0262954Y0450056D01*
X0262954Y0450056D02*
X0263142Y0450806D01*
X0263142Y0450806D02*
X0263329Y0451181D01*
X0263329Y0451181D02*
X0263517Y0451368D01*
X0263517Y0451368D02*
X0263892Y0451556D01*
X0269891Y0447619D02*
X0269891Y0450243D01*
X0269891Y0449869D02*
X0270078Y0450056D01*
X0270078Y0450056D02*
X0270453Y0450243D01*
X0270453Y0450243D02*
X0271016Y0450243D01*
X0271016Y0450243D02*
X0271391Y0450056D01*
X0271391Y0450056D02*
X0271578Y0449681D01*
X0271578Y0449681D02*
X0271578Y0447619D01*
X0271578Y0449681D02*
X0271766Y0450056D01*
X0271766Y0450056D02*
X0272141Y0450243D01*
X0272141Y0450243D02*
X0272703Y0450243D01*
X0272703Y0450243D02*
X0273078Y0450056D01*
X0273078Y0450056D02*
X0273266Y0449681D01*
X0273266Y0449681D02*
X0273266Y0447619D01*
X0275140Y0447619D02*
X0275140Y0450243D01*
X0275140Y0449869D02*
X0275328Y0450056D01*
X0275328Y0450056D02*
X0275703Y0450243D01*
X0275703Y0450243D02*
X0276265Y0450243D01*
X0276265Y0450243D02*
X0276640Y0450056D01*
X0276640Y0450056D02*
X0276828Y0449681D01*
X0276828Y0449681D02*
X0276828Y0447619D01*
X0276828Y0449681D02*
X0277015Y0450056D01*
X0277015Y0450056D02*
X0277390Y0450243D01*
X0277390Y0450243D02*
X0277952Y0450243D01*
X0277952Y0450243D02*
X0278327Y0450056D01*
X0278327Y0450056D02*
X0278515Y0449681D01*
X0278515Y0449681D02*
X0278515Y0447619D01*
D51*
X0057855Y0423228D02*
X0057855Y0447191D01*
X0459430Y0423228D02*
X0459430Y0447191D01*
X0057855Y0444882D02*
X0459430Y0444882D01*
X0057855Y0444882D02*
X0459430Y0444882D01*
X0057855Y0444882D02*
X0062290Y0447191D01*
X0057855Y0444882D02*
X0062290Y0442573D01*
X0459430Y0444882D02*
X0454995Y0442573D01*
X0459430Y0444882D02*
X0454995Y0447191D01*
D47*
X0003937Y0192820D02*
X0003937Y0190570D01*
X0003937Y0191695D02*
X0000000Y0191695D01*
X0000000Y0191695D02*
X0000562Y0191320D01*
X0000562Y0191320D02*
X0000937Y0190945D01*
X0000937Y0190945D02*
X0001125Y0190570D01*
X0000000Y0195257D02*
X0000000Y0195632D01*
X0000000Y0195632D02*
X0000187Y0196007D01*
X0000187Y0196007D02*
X0000375Y0196194D01*
X0000375Y0196194D02*
X0000750Y0196382D01*
X0000750Y0196382D02*
X0001500Y0196569D01*
X0001500Y0196569D02*
X0002437Y0196569D01*
X0002437Y0196569D02*
X0003187Y0196382D01*
X0003187Y0196382D02*
X0003562Y0196194D01*
X0003562Y0196194D02*
X0003749Y0196007D01*
X0003749Y0196007D02*
X0003937Y0195632D01*
X0003937Y0195632D02*
X0003937Y0195257D01*
X0003937Y0195257D02*
X0003749Y0194882D01*
X0003749Y0194882D02*
X0003562Y0194694D01*
X0003562Y0194694D02*
X0003187Y0194507D01*
X0003187Y0194507D02*
X0002437Y0194319D01*
X0002437Y0194319D02*
X0001500Y0194319D01*
X0001500Y0194319D02*
X0000750Y0194507D01*
X0000750Y0194507D02*
X0000375Y0194694D01*
X0000375Y0194694D02*
X0000187Y0194882D01*
X0000187Y0194882D02*
X0000000Y0195257D01*
X0000000Y0197882D02*
X0000000Y0200506D01*
X0000000Y0200506D02*
X0003937Y0198819D01*
X0003562Y0202006D02*
X0003749Y0202193D01*
X0003749Y0202193D02*
X0003937Y0202006D01*
X0003937Y0202006D02*
X0003749Y0201819D01*
X0003749Y0201819D02*
X0003562Y0202006D01*
X0003562Y0202006D02*
X0003937Y0202006D01*
X0000000Y0204631D02*
X0000000Y0205006D01*
X0000000Y0205006D02*
X0000187Y0205381D01*
X0000187Y0205381D02*
X0000375Y0205568D01*
X0000375Y0205568D02*
X0000750Y0205756D01*
X0000750Y0205756D02*
X0001500Y0205943D01*
X0001500Y0205943D02*
X0002437Y0205943D01*
X0002437Y0205943D02*
X0003187Y0205756D01*
X0003187Y0205756D02*
X0003562Y0205568D01*
X0003562Y0205568D02*
X0003749Y0205381D01*
X0003749Y0205381D02*
X0003937Y0205006D01*
X0003937Y0205006D02*
X0003937Y0204631D01*
X0003937Y0204631D02*
X0003749Y0204256D01*
X0003749Y0204256D02*
X0003562Y0204068D01*
X0003562Y0204068D02*
X0003187Y0203881D01*
X0003187Y0203881D02*
X0002437Y0203693D01*
X0002437Y0203693D02*
X0001500Y0203693D01*
X0001500Y0203693D02*
X0000750Y0203881D01*
X0000750Y0203881D02*
X0000375Y0204068D01*
X0000375Y0204068D02*
X0000187Y0204256D01*
X0000187Y0204256D02*
X0000000Y0204631D01*
X0000000Y0208380D02*
X0000000Y0208755D01*
X0000000Y0208755D02*
X0000187Y0209130D01*
X0000187Y0209130D02*
X0000375Y0209318D01*
X0000375Y0209318D02*
X0000750Y0209505D01*
X0000750Y0209505D02*
X0001500Y0209693D01*
X0001500Y0209693D02*
X0002437Y0209693D01*
X0002437Y0209693D02*
X0003187Y0209505D01*
X0003187Y0209505D02*
X0003562Y0209318D01*
X0003562Y0209318D02*
X0003749Y0209130D01*
X0003749Y0209130D02*
X0003937Y0208755D01*
X0003937Y0208755D02*
X0003937Y0208380D01*
X0003937Y0208380D02*
X0003749Y0208005D01*
X0003749Y0208005D02*
X0003562Y0207818D01*
X0003562Y0207818D02*
X0003187Y0207630D01*
X0003187Y0207630D02*
X0002437Y0207443D01*
X0002437Y0207443D02*
X0001500Y0207443D01*
X0001500Y0207443D02*
X0000750Y0207630D01*
X0000750Y0207630D02*
X0000375Y0207818D01*
X0000375Y0207818D02*
X0000187Y0208005D01*
X0000187Y0208005D02*
X0000000Y0208380D01*
X0000000Y0212130D02*
X0000000Y0212505D01*
X0000000Y0212505D02*
X0000187Y0212880D01*
X0000187Y0212880D02*
X0000375Y0213067D01*
X0000375Y0213067D02*
X0000750Y0213255D01*
X0000750Y0213255D02*
X0001500Y0213442D01*
X0001500Y0213442D02*
X0002437Y0213442D01*
X0002437Y0213442D02*
X0003187Y0213255D01*
X0003187Y0213255D02*
X0003562Y0213067D01*
X0003562Y0213067D02*
X0003749Y0212880D01*
X0003749Y0212880D02*
X0003937Y0212505D01*
X0003937Y0212505D02*
X0003937Y0212130D01*
X0003937Y0212130D02*
X0003749Y0211755D01*
X0003749Y0211755D02*
X0003562Y0211567D01*
X0003562Y0211567D02*
X0003187Y0211380D01*
X0003187Y0211380D02*
X0002437Y0211192D01*
X0002437Y0211192D02*
X0001500Y0211192D01*
X0001500Y0211192D02*
X0000750Y0211380D01*
X0000750Y0211380D02*
X0000375Y0211567D01*
X0000375Y0211567D02*
X0000187Y0211755D01*
X0000187Y0211755D02*
X0000000Y0212130D01*
X0000000Y0215879D02*
X0000000Y0216254D01*
X0000000Y0216254D02*
X0000187Y0216629D01*
X0000187Y0216629D02*
X0000375Y0216817D01*
X0000375Y0216817D02*
X0000750Y0217004D01*
X0000750Y0217004D02*
X0001500Y0217192D01*
X0001500Y0217192D02*
X0002437Y0217192D01*
X0002437Y0217192D02*
X0003187Y0217004D01*
X0003187Y0217004D02*
X0003562Y0216817D01*
X0003562Y0216817D02*
X0003749Y0216629D01*
X0003749Y0216629D02*
X0003937Y0216254D01*
X0003937Y0216254D02*
X0003937Y0215879D01*
X0003937Y0215879D02*
X0003749Y0215504D01*
X0003749Y0215504D02*
X0003562Y0215317D01*
X0003562Y0215317D02*
X0003187Y0215129D01*
X0003187Y0215129D02*
X0002437Y0214942D01*
X0002437Y0214942D02*
X0001500Y0214942D01*
X0001500Y0214942D02*
X0000750Y0215129D01*
X0000750Y0215129D02*
X0000375Y0215317D01*
X0000375Y0215317D02*
X0000187Y0215504D01*
X0000187Y0215504D02*
X0000000Y0215879D01*
X0003937Y0221879D02*
X0001312Y0221879D01*
X0001687Y0221879D02*
X0001500Y0222066D01*
X0001500Y0222066D02*
X0001312Y0222441D01*
X0001312Y0222441D02*
X0001312Y0223003D01*
X0001312Y0223003D02*
X0001500Y0223378D01*
X0001500Y0223378D02*
X0001875Y0223566D01*
X0001875Y0223566D02*
X0003937Y0223566D01*
X0001875Y0223566D02*
X0001500Y0223753D01*
X0001500Y0223753D02*
X0001312Y0224128D01*
X0001312Y0224128D02*
X0001312Y0224691D01*
X0001312Y0224691D02*
X0001500Y0225066D01*
X0001500Y0225066D02*
X0001875Y0225253D01*
X0001875Y0225253D02*
X0003937Y0225253D01*
X0003937Y0227128D02*
X0001312Y0227128D01*
X0001687Y0227128D02*
X0001500Y0227315D01*
X0001500Y0227315D02*
X0001312Y0227690D01*
X0001312Y0227690D02*
X0001312Y0228253D01*
X0001312Y0228253D02*
X0001500Y0228628D01*
X0001500Y0228628D02*
X0001875Y0228815D01*
X0001875Y0228815D02*
X0003937Y0228815D01*
X0001875Y0228815D02*
X0001500Y0229003D01*
X0001500Y0229003D02*
X0001312Y0229378D01*
X0001312Y0229378D02*
X0001312Y0229940D01*
X0001312Y0229940D02*
X0001500Y0230315D01*
X0001500Y0230315D02*
X0001875Y0230502D01*
X0001875Y0230502D02*
X0003937Y0230502D01*
D51*
X0055886Y0421260D02*
X0004365Y0421260D01*
X0055886Y0000000D02*
X0004365Y0000000D01*
X0006674Y0421260D02*
X0006674Y0000000D01*
X0006674Y0421260D02*
X0006674Y0000000D01*
X0006674Y0421260D02*
X0008983Y0416825D01*
X0006674Y0421260D02*
X0004365Y0416825D01*
X0006674Y0000000D02*
X0004365Y0004435D01*
X0006674Y0000000D02*
X0008983Y0004435D01*
X0355835Y0195909D02*
G01*
G75*
X0113437Y0096287D02*
G01*
G75*
X0185965Y0273516D02*
G01*
G75*
X0117280Y0182876D02*
G01*
G75*
X0115902Y0224406D02*
G01*
G75*
M02*
