G75*
G70*
%OFA0B0*%
%FSLAX25Y25*%
%IPPOS*%
%LPD*%
%AMOC8*
5,1,8,0,0,1.08239X$1,22.5*
%
%AMM145*
21,1,0.033470,0.026770,0.000000,-0.000000,90.000000*
21,1,0.026770,0.033470,0.000000,-0.000000,90.000000*
1,1,0.006690,0.013390,0.013390*
1,1,0.006690,0.013390,-0.013390*
1,1,0.006690,-0.013390,-0.013390*
1,1,0.006690,-0.013390,0.013390*
%
%AMM146*
21,1,0.035830,0.026770,0.000000,-0.000000,270.000000*
21,1,0.029130,0.033470,0.000000,-0.000000,270.000000*
1,1,0.006690,-0.013390,-0.014570*
1,1,0.006690,-0.013390,0.014570*
1,1,0.006690,0.013390,0.014570*
1,1,0.006690,0.013390,-0.014570*
%
%AMM147*
21,1,0.027560,0.030710,0.000000,-0.000000,270.000000*
21,1,0.022050,0.036220,0.000000,-0.000000,270.000000*
1,1,0.005510,-0.015350,-0.011020*
1,1,0.005510,-0.015350,0.011020*
1,1,0.005510,0.015350,0.011020*
1,1,0.005510,0.015350,-0.011020*
%
%AMM149*
21,1,0.033470,0.026770,0.000000,-0.000000,180.000000*
21,1,0.026770,0.033470,0.000000,-0.000000,180.000000*
1,1,0.006690,-0.013390,0.013390*
1,1,0.006690,0.013390,0.013390*
1,1,0.006690,0.013390,-0.013390*
1,1,0.006690,-0.013390,-0.013390*
%
%AMM2*
21,1,0.035830,0.026770,0.000000,0.000000,0.000000*
21,1,0.029130,0.033470,0.000000,0.000000,0.000000*
1,1,0.006690,0.014570,-0.013390*
1,1,0.006690,-0.014570,-0.013390*
1,1,0.006690,-0.014570,0.013390*
1,1,0.006690,0.014570,0.013390*
%
%AMM27*
21,1,0.070870,0.036220,0.000000,0.000000,90.000000*
21,1,0.061810,0.045280,0.000000,0.000000,90.000000*
1,1,0.009060,0.018110,0.030910*
1,1,0.009060,0.018110,-0.030910*
1,1,0.009060,-0.018110,-0.030910*
1,1,0.009060,-0.018110,0.030910*
%
%AMM273*
21,1,0.035430,0.030320,0.000000,-0.000000,0.000000*
21,1,0.028350,0.037400,0.000000,-0.000000,0.000000*
1,1,0.007090,0.014170,-0.015160*
1,1,0.007090,-0.014170,-0.015160*
1,1,0.007090,-0.014170,0.015160*
1,1,0.007090,0.014170,0.015160*
%
%AMM279*
21,1,0.027560,0.018900,0.000000,-0.000000,90.000000*
21,1,0.022840,0.023620,0.000000,-0.000000,90.000000*
1,1,0.004720,0.009450,0.011420*
1,1,0.004720,0.009450,-0.011420*
1,1,0.004720,-0.009450,-0.011420*
1,1,0.004720,-0.009450,0.011420*
%
%AMM282*
21,1,0.025590,0.026380,0.000000,-0.000000,0.000000*
21,1,0.020470,0.031500,0.000000,-0.000000,0.000000*
1,1,0.005120,0.010240,-0.013190*
1,1,0.005120,-0.010240,-0.013190*
1,1,0.005120,-0.010240,0.013190*
1,1,0.005120,0.010240,0.013190*
%
%AMM283*
21,1,0.017720,0.027950,0.000000,-0.000000,0.000000*
21,1,0.014170,0.031500,0.000000,-0.000000,0.000000*
1,1,0.003540,0.007090,-0.013980*
1,1,0.003540,-0.007090,-0.013980*
1,1,0.003540,-0.007090,0.013980*
1,1,0.003540,0.007090,0.013980*
%
%AMM285*
21,1,0.012600,0.028980,0.000000,-0.000000,0.000000*
21,1,0.010080,0.031500,0.000000,-0.000000,0.000000*
1,1,0.002520,0.005040,-0.014490*
1,1,0.002520,-0.005040,-0.014490*
1,1,0.002520,-0.005040,0.014490*
1,1,0.002520,0.005040,0.014490*
%
%AMM288*
21,1,0.027560,0.018900,0.000000,-0.000000,0.000000*
21,1,0.022840,0.023620,0.000000,-0.000000,0.000000*
1,1,0.004720,0.011420,-0.009450*
1,1,0.004720,-0.011420,-0.009450*
1,1,0.004720,-0.011420,0.009450*
1,1,0.004720,0.011420,0.009450*
%
%AMM30*
21,1,0.023620,0.018900,0.000000,0.000000,90.000000*
21,1,0.018900,0.023620,0.000000,0.000000,90.000000*
1,1,0.004720,0.009450,0.009450*
1,1,0.004720,0.009450,-0.009450*
1,1,0.004720,-0.009450,-0.009450*
1,1,0.004720,-0.009450,0.009450*
%
%AMM305*
21,1,0.035430,0.030320,0.000000,-0.000000,90.000000*
21,1,0.028350,0.037400,0.000000,-0.000000,90.000000*
1,1,0.007090,0.015160,0.014170*
1,1,0.007090,0.015160,-0.014170*
1,1,0.007090,-0.015160,-0.014170*
1,1,0.007090,-0.015160,0.014170*
%
%AMM306*
21,1,0.070870,0.036220,0.000000,-0.000000,270.000000*
21,1,0.061810,0.045280,0.000000,-0.000000,270.000000*
1,1,0.009060,-0.018110,-0.030910*
1,1,0.009060,-0.018110,0.030910*
1,1,0.009060,0.018110,0.030910*
1,1,0.009060,0.018110,-0.030910*
%
%AMM307*
21,1,0.059060,0.020470,0.000000,-0.000000,0.000000*
21,1,0.053940,0.025590,0.000000,-0.000000,0.000000*
1,1,0.005120,0.026970,-0.010240*
1,1,0.005120,-0.026970,-0.010240*
1,1,0.005120,-0.026970,0.010240*
1,1,0.005120,0.026970,0.010240*
%
%AMM308*
21,1,0.078740,0.045670,0.000000,-0.000000,0.000000*
21,1,0.067320,0.057090,0.000000,-0.000000,0.000000*
1,1,0.011420,0.033660,-0.022840*
1,1,0.011420,-0.033660,-0.022840*
1,1,0.011420,-0.033660,0.022840*
1,1,0.011420,0.033660,0.022840*
%
%AMM309*
21,1,0.025590,0.026380,0.000000,-0.000000,270.000000*
21,1,0.020470,0.031500,0.000000,-0.000000,270.000000*
1,1,0.005120,-0.013190,-0.010240*
1,1,0.005120,-0.013190,0.010240*
1,1,0.005120,0.013190,0.010240*
1,1,0.005120,0.013190,-0.010240*
%
%AMM31*
21,1,0.019680,0.019680,0.000000,0.000000,0.000000*
21,1,0.015750,0.023620,0.000000,0.000000,0.000000*
1,1,0.003940,0.007870,-0.009840*
1,1,0.003940,-0.007870,-0.009840*
1,1,0.003940,-0.007870,0.009840*
1,1,0.003940,0.007870,0.009840*
%
%AMM310*
21,1,0.017720,0.027950,0.000000,-0.000000,270.000000*
21,1,0.014170,0.031500,0.000000,-0.000000,270.000000*
1,1,0.003540,-0.013980,-0.007090*
1,1,0.003540,-0.013980,0.007090*
1,1,0.003540,0.013980,0.007090*
1,1,0.003540,0.013980,-0.007090*
%
%AMM311*
21,1,0.027560,0.030710,0.000000,-0.000000,0.000000*
21,1,0.022050,0.036220,0.000000,-0.000000,0.000000*
1,1,0.005510,0.011020,-0.015350*
1,1,0.005510,-0.011020,-0.015350*
1,1,0.005510,-0.011020,0.015350*
1,1,0.005510,0.011020,0.015350*
%
%AMM312*
21,1,0.027560,0.049610,0.000000,-0.000000,180.000000*
21,1,0.022050,0.055120,0.000000,-0.000000,180.000000*
1,1,0.005510,-0.011020,0.024800*
1,1,0.005510,0.011020,0.024800*
1,1,0.005510,0.011020,-0.024800*
1,1,0.005510,-0.011020,-0.024800*
%
%AMM313*
21,1,0.070870,0.036220,0.000000,-0.000000,0.000000*
21,1,0.061810,0.045280,0.000000,-0.000000,0.000000*
1,1,0.009060,0.030910,-0.018110*
1,1,0.009060,-0.030910,-0.018110*
1,1,0.009060,-0.030910,0.018110*
1,1,0.009060,0.030910,0.018110*
%
%AMM32*
21,1,0.019680,0.019680,0.000000,0.000000,270.000000*
21,1,0.015750,0.023620,0.000000,0.000000,270.000000*
1,1,0.003940,-0.009840,-0.007870*
1,1,0.003940,-0.009840,0.007870*
1,1,0.003940,0.009840,0.007870*
1,1,0.003940,0.009840,-0.007870*
%
%AMM45*
21,1,0.106300,0.050390,0.000000,0.000000,90.000000*
21,1,0.093700,0.062990,0.000000,0.000000,90.000000*
1,1,0.012600,0.025200,0.046850*
1,1,0.012600,0.025200,-0.046850*
1,1,0.012600,-0.025200,-0.046850*
1,1,0.012600,-0.025200,0.046850*
%
%AMM46*
21,1,0.023620,0.018900,0.000000,0.000000,180.000000*
21,1,0.018900,0.023620,0.000000,0.000000,180.000000*
1,1,0.004720,-0.009450,0.009450*
1,1,0.004720,0.009450,0.009450*
1,1,0.004720,0.009450,-0.009450*
1,1,0.004720,-0.009450,-0.009450*
%
%AMM47*
21,1,0.122050,0.075590,0.000000,0.000000,180.000000*
21,1,0.103150,0.094490,0.000000,0.000000,180.000000*
1,1,0.018900,-0.051580,0.037800*
1,1,0.018900,0.051580,0.037800*
1,1,0.018900,0.051580,-0.037800*
1,1,0.018900,-0.051580,-0.037800*
%
%AMM48*
21,1,0.118110,0.083460,0.000000,0.000000,0.000000*
21,1,0.097240,0.104330,0.000000,0.000000,0.000000*
1,1,0.020870,0.048620,-0.041730*
1,1,0.020870,-0.048620,-0.041730*
1,1,0.020870,-0.048620,0.041730*
1,1,0.020870,0.048620,0.041730*
%
%AMM5*
21,1,0.033470,0.026770,0.000000,0.000000,270.000000*
21,1,0.026770,0.033470,0.000000,0.000000,270.000000*
1,1,0.006690,-0.013390,-0.013390*
1,1,0.006690,-0.013390,0.013390*
1,1,0.006690,0.013390,0.013390*
1,1,0.006690,0.013390,-0.013390*
%
%ADD100M27*%
%ADD103M30*%
%ADD104M31*%
%ADD105M32*%
%ADD11R,0.09055X0.00787*%
%ADD12R,0.42126X0.00787*%
%ADD122M45*%
%ADD123M46*%
%ADD124O,0.01968X0.08661*%
%ADD125M47*%
%ADD126M48*%
%ADD13R,0.08268X0.00787*%
%ADD14R,0.23622X0.00787*%
%ADD15R,0.21260X0.00787*%
%ADD16R,0.00787X0.05512*%
%ADD17R,0.00787X0.19685*%
%ADD18R,0.00787X0.26772*%
%ADD19R,0.00787X0.17717*%
%ADD20R,0.06299X0.00787*%
%ADD21R,0.22441X0.00787*%
%ADD211R,0.00984X0.01378*%
%ADD212R,0.01378X0.00984*%
%ADD22R,0.07874X0.00787*%
%ADD278M145*%
%ADD279M146*%
%ADD280M147*%
%ADD282M149*%
%ADD333R,0.04331X0.03937*%
%ADD337R,0.06693X0.09449*%
%ADD343O,0.00984X0.04961*%
%ADD415M273*%
%ADD421M279*%
%ADD424M282*%
%ADD425M283*%
%ADD427M285*%
%ADD430M288*%
%ADD447M305*%
%ADD448M306*%
%ADD449M307*%
%ADD450M308*%
%ADD451M309*%
%ADD452M310*%
%ADD453M311*%
%ADD454M312*%
%ADD455M313*%
%ADD67M2*%
%ADD70M5*%
X0000000Y0000000D02*
%LPD*%
G01*
D11*
X0170083Y0274409D03*
D12*
X0299217Y0274409D03*
D13*
X0266933Y0274409D03*
D14*
X0219492Y0274409D03*
D15*
X0193114Y0274409D03*
D16*
X0165949Y0267323D03*
D17*
X0323035Y0261811D03*
D18*
X0323035Y0228346D03*
D19*
X0323035Y0189567D03*
D20*
X0317130Y0108661D03*
D21*
X0191736Y0108661D03*
D22*
X0169492Y0108661D03*
X0163028Y0296547D02*
G01*
G75*
D67*
X0192943Y0372925D02*
D03*
X0179951Y0372925D02*
D03*
D100*
X0212803Y0373319D02*
D03*
X0201386Y0373319D02*
D03*
X0212803Y0365287D02*
D03*
X0201386Y0365287D02*
D03*
D103*
X0175430Y0351271D02*
D03*
X0175430Y0355208D02*
D03*
X0172083Y0365838D02*
D03*
X0180745Y0365838D02*
D03*
X0171296Y0360590D02*
D03*
X0179957Y0360590D02*
D03*
D104*
X0183183Y0307964D02*
D03*
X0179639Y0307964D02*
D03*
X0192574Y0344697D02*
D03*
X0196118Y0344697D02*
D03*
X0184577Y0359802D02*
D03*
X0188120Y0359802D02*
D03*
X0191801Y0307964D02*
D03*
X0188258Y0307964D02*
D03*
X0171296Y0311901D02*
D03*
X0174839Y0311901D02*
D03*
D105*
X0196781Y0361377D02*
D03*
X0196781Y0364921D02*
D03*
X0176014Y0373779D02*
D03*
X0176014Y0370235D02*
D03*
X0224778Y0315462D02*
D03*
X0224778Y0319006D02*
D03*
D122*
X0212241Y0352846D02*
D03*
X0201217Y0352846D02*
D03*
D70*
X0179563Y0348523D02*
D03*
X0179563Y0354743D02*
D03*
X0193657Y0348523D02*
D03*
X0193657Y0354743D02*
D03*
X0188966Y0348523D02*
D03*
X0188966Y0354743D02*
D03*
X0184274Y0348523D02*
D03*
X0184274Y0354743D02*
D03*
X0192476Y0360767D02*
D03*
X0192476Y0366988D02*
D03*
D123*
X0182986Y0311901D02*
D03*
X0179049Y0311901D02*
D03*
X0187667Y0311901D02*
D03*
X0191604Y0311901D02*
D03*
X0184380Y0365838D02*
D03*
X0188317Y0365838D02*
D03*
X0207313Y0344224D02*
D03*
X0211250Y0344224D02*
D03*
X0215089Y0306783D02*
D03*
X0211151Y0306783D02*
D03*
D124*
X0188100Y0318661D02*
D03*
X0183100Y0318661D02*
D03*
X0178100Y0318661D02*
D03*
X0173100Y0318661D02*
D03*
X0188100Y0341298D02*
D03*
X0183100Y0341298D02*
D03*
X0178100Y0341298D02*
D03*
X0173100Y0341298D02*
D03*
X0211167Y0313378D02*
D03*
X0206167Y0313378D02*
D03*
X0201167Y0313378D02*
D03*
X0196167Y0313378D02*
D03*
X0211167Y0336803D02*
D03*
X0206167Y0336803D02*
D03*
X0201167Y0336803D02*
D03*
X0196167Y0336803D02*
D03*
D125*
X0180600Y0329979D02*
D03*
D126*
X0203667Y0325090D02*
D03*
X0165555Y0274803D02*
G01*
G75*
D15*
X0193114Y0274409D02*
D03*
D11*
X0170083Y0274409D02*
D03*
D14*
X0219492Y0274409D02*
D03*
D22*
X0169492Y0108661D02*
D03*
D13*
X0266933Y0274409D02*
D03*
D12*
X0299216Y0274409D02*
D03*
D17*
X0323035Y0261811D02*
D03*
D18*
X0323035Y0228346D02*
D03*
D19*
X0323035Y0189567D02*
D03*
D21*
X0191736Y0108661D02*
D03*
D20*
X0317130Y0108661D02*
D03*
D16*
X0165949Y0267323D02*
D03*
D415*
X0266797Y0263188D02*
D03*
X0270537Y0253936D02*
D03*
D415*
X0274278Y0263188D02*
D03*
D421*
X0217523Y0243110D02*
D03*
X0221460Y0243110D02*
D03*
X0260437Y0122441D02*
D03*
X0256500Y0122441D02*
D03*
X0319689Y0246161D02*
D03*
X0315752Y0246161D02*
D03*
X0242327Y0212978D02*
D03*
X0238390Y0212978D02*
D03*
X0242255Y0196073D02*
D03*
X0246192Y0196073D02*
D03*
X0238783Y0218110D02*
D03*
X0242720Y0218110D02*
D03*
X0222371Y0269304D02*
D03*
X0218434Y0269304D02*
D03*
X0291539Y0251575D02*
D03*
X0287602Y0251575D02*
D03*
X0310634Y0272047D02*
D03*
X0314571Y0272047D02*
D03*
X0234846Y0140157D02*
D03*
X0230909Y0140157D02*
D03*
X0299413Y0213779D02*
D03*
X0303350Y0213779D02*
D03*
X0232976Y0183562D02*
D03*
X0236913Y0183562D02*
D03*
X0314276Y0194587D02*
D03*
X0318212Y0194587D02*
D03*
X0246657Y0141732D02*
D03*
X0242720Y0141732D02*
D03*
X0246657Y0137795D02*
D03*
X0242720Y0137795D02*
D03*
X0310634Y0267913D02*
D03*
X0314571Y0267913D02*
D03*
X0262012Y0130905D02*
D03*
X0258075Y0130905D02*
D03*
X0284453Y0131102D02*
D03*
X0280516Y0131102D02*
D03*
X0232976Y0179232D02*
D03*
X0236913Y0179232D02*
D03*
X0319492Y0175590D02*
D03*
X0315555Y0175590D02*
D03*
X0269886Y0213779D02*
D03*
X0273823Y0213779D02*
D03*
X0266342Y0213779D02*
D03*
X0262405Y0213779D02*
D03*
X0189964Y0227165D02*
D03*
X0186027Y0227165D02*
D03*
X0189964Y0222441D02*
D03*
X0186027Y0222441D02*
D03*
X0189964Y0217716D02*
D03*
X0186027Y0217716D02*
D03*
X0189964Y0212992D02*
D03*
X0186027Y0212992D02*
D03*
X0170673Y0128346D02*
D03*
X0174610Y0128346D02*
D03*
X0174610Y0123622D02*
D03*
X0170673Y0123622D02*
D03*
X0170673Y0118898D02*
D03*
X0174610Y0118898D02*
D03*
X0170673Y0114173D02*
D03*
X0174610Y0114173D02*
D03*
X0217523Y0247047D02*
D03*
X0221460Y0247047D02*
D03*
X0217523Y0219094D02*
D03*
X0221460Y0219094D02*
D03*
X0189964Y0250787D02*
D03*
X0186027Y0250787D02*
D03*
X0189964Y0255511D02*
D03*
X0186027Y0255511D02*
D03*
X0189964Y0260236D02*
D03*
X0186027Y0260236D02*
D03*
X0189964Y0264960D02*
D03*
X0186027Y0264960D02*
D03*
X0189964Y0231889D02*
D03*
X0186027Y0231889D02*
D03*
X0189964Y0236614D02*
D03*
X0186027Y0236614D02*
D03*
X0189964Y0241338D02*
D03*
X0186027Y0241338D02*
D03*
X0189964Y0246063D02*
D03*
X0186027Y0246063D02*
D03*
X0189964Y0194094D02*
D03*
X0186027Y0194094D02*
D03*
X0189964Y0198818D02*
D03*
X0186027Y0198818D02*
D03*
X0189964Y0203543D02*
D03*
X0186027Y0203543D02*
D03*
X0189964Y0208267D02*
D03*
X0186027Y0208267D02*
D03*
X0186027Y0175196D02*
D03*
X0189964Y0175196D02*
D03*
X0189964Y0179921D02*
D03*
X0186027Y0179921D02*
D03*
X0189964Y0184645D02*
D03*
X0186027Y0184645D02*
D03*
X0189964Y0189370D02*
D03*
X0186027Y0189370D02*
D03*
X0189964Y0156299D02*
D03*
X0186027Y0156299D02*
D03*
X0189964Y0161023D02*
D03*
X0186027Y0161023D02*
D03*
X0189964Y0165748D02*
D03*
X0186027Y0165748D02*
D03*
X0189964Y0170472D02*
D03*
X0186027Y0170472D02*
D03*
X0189964Y0142126D02*
D03*
X0186027Y0142126D02*
D03*
X0189964Y0146850D02*
D03*
X0186027Y0146850D02*
D03*
X0189964Y0151575D02*
D03*
X0186027Y0151575D02*
D03*
X0180712Y0270079D02*
D03*
X0184649Y0270079D02*
D03*
X0174610Y0133070D02*
D03*
X0170673Y0133070D02*
D03*
X0207287Y0219094D02*
D03*
X0211224Y0219094D02*
D03*
X0186027Y0131496D02*
D03*
X0189964Y0131496D02*
D03*
X0173035Y0270079D02*
D03*
X0176972Y0270079D02*
D03*
X0182090Y0131496D02*
D03*
X0178153Y0131496D02*
D03*
X0312405Y0126378D02*
D03*
X0308468Y0126378D02*
D03*
X0189964Y0137401D02*
D03*
X0186027Y0137401D02*
D03*
D424*
X0282386Y0237401D02*
D03*
X0282386Y0230315D02*
D03*
X0272346Y0230315D02*
D03*
X0272346Y0237401D02*
D03*
X0234157Y0222834D02*
D03*
X0234157Y0229921D02*
D03*
X0244197Y0229921D02*
D03*
X0244197Y0222834D02*
D03*
X0250299Y0222834D02*
D03*
X0250299Y0229921D02*
D03*
X0260339Y0229921D02*
D03*
X0260339Y0222834D02*
D03*
X0214472Y0127362D02*
D03*
X0214472Y0134449D02*
D03*
X0204433Y0134449D02*
D03*
X0204433Y0127362D02*
D03*
X0204433Y0145866D02*
D03*
X0204433Y0138779D02*
D03*
X0214472Y0138779D02*
D03*
X0214472Y0145866D02*
D03*
X0214472Y0195866D02*
D03*
X0214472Y0202952D02*
D03*
X0204433Y0202952D02*
D03*
X0204433Y0195866D02*
D03*
X0204433Y0214370D02*
D03*
X0204433Y0207283D02*
D03*
X0214472Y0207283D02*
D03*
X0214472Y0214370D02*
D03*
X0214472Y0173031D02*
D03*
X0214472Y0180118D02*
D03*
X0204433Y0180118D02*
D03*
X0204433Y0173031D02*
D03*
X0204433Y0191535D02*
D03*
X0204433Y0184448D02*
D03*
X0214472Y0184448D02*
D03*
X0214472Y0191535D02*
D03*
X0214472Y0150196D02*
D03*
X0214472Y0157283D02*
D03*
X0204433Y0157283D02*
D03*
X0204433Y0150196D02*
D03*
X0204433Y0168700D02*
D03*
X0204433Y0161614D02*
D03*
X0214472Y0161614D02*
D03*
X0214472Y0168700D02*
D03*
D425*
X0275791Y0230315D02*
D03*
X0278941Y0230315D02*
D03*
X0278941Y0237401D02*
D03*
X0275791Y0237401D02*
D03*
X0240752Y0229921D02*
D03*
X0237602Y0229921D02*
D03*
X0237602Y0222834D02*
D03*
X0240752Y0222834D02*
D03*
X0256894Y0229921D02*
D03*
X0253744Y0229921D02*
D03*
X0253744Y0222834D02*
D03*
X0256894Y0222834D02*
D03*
X0211027Y0127362D02*
D03*
X0207878Y0127362D02*
D03*
X0207878Y0134449D02*
D03*
X0211027Y0134449D02*
D03*
X0207878Y0145866D02*
D03*
X0211027Y0145866D02*
D03*
X0211027Y0138779D02*
D03*
X0207878Y0138779D02*
D03*
X0211027Y0195866D02*
D03*
X0207878Y0195866D02*
D03*
X0207878Y0202952D02*
D03*
X0211027Y0202952D02*
D03*
X0207878Y0214370D02*
D03*
X0211027Y0214370D02*
D03*
X0211027Y0207283D02*
D03*
X0207878Y0207283D02*
D03*
X0211027Y0173031D02*
D03*
X0207878Y0173031D02*
D03*
X0207878Y0180118D02*
D03*
X0211027Y0180118D02*
D03*
X0207878Y0191535D02*
D03*
X0211027Y0191535D02*
D03*
X0211027Y0184448D02*
D03*
X0207878Y0184448D02*
D03*
X0211027Y0150196D02*
D03*
X0207878Y0150196D02*
D03*
X0207878Y0157283D02*
D03*
X0211027Y0157283D02*
D03*
X0207878Y0168700D02*
D03*
X0211027Y0168700D02*
D03*
X0211027Y0161614D02*
D03*
X0207878Y0161614D02*
D03*
D427*
X0276382Y0249409D02*
D03*
X0278941Y0249409D02*
D03*
X0281500Y0249409D02*
D03*
X0281500Y0241929D02*
D03*
X0276382Y0241929D02*
D03*
D430*
X0316933Y0231102D02*
D03*
X0316933Y0235039D02*
D03*
X0301185Y0114960D02*
D03*
X0301185Y0118898D02*
D03*
X0296364Y0256060D02*
D03*
X0296364Y0252123D02*
D03*
X0290358Y0233464D02*
D03*
X0290358Y0237401D02*
D03*
X0286421Y0242520D02*
D03*
X0286421Y0238583D02*
D03*
X0235634Y0133464D02*
D03*
X0235634Y0129527D02*
D03*
X0317524Y0202756D02*
D03*
X0317524Y0198819D02*
D03*
X0305319Y0134055D02*
D03*
X0305319Y0130118D02*
D03*
X0316342Y0161417D02*
D03*
X0316342Y0157480D02*
D03*
X0229533Y0205893D02*
D03*
X0229533Y0209830D02*
D03*
X0252169Y0215157D02*
D03*
X0252169Y0211220D02*
D03*
X0250594Y0205118D02*
D03*
X0250594Y0201181D02*
D03*
X0278941Y0205905D02*
D03*
X0278941Y0201968D02*
D03*
X0319098Y0110630D02*
D03*
X0319098Y0114567D02*
D03*
X0318114Y0223819D02*
D03*
X0318114Y0227756D02*
D03*
X0303744Y0241732D02*
D03*
X0303744Y0237795D02*
D03*
X0241933Y0130708D02*
D03*
X0241933Y0126771D02*
D03*
X0245870Y0130708D02*
D03*
X0245870Y0126771D02*
D03*
X0309256Y0130118D02*
D03*
X0309256Y0134055D02*
D03*
X0233370Y0157185D02*
D03*
X0233370Y0161122D02*
D03*
X0278547Y0213779D02*
D03*
X0278547Y0209842D02*
D03*
X0246854Y0213779D02*
D03*
X0246854Y0209842D02*
D03*
X0302169Y0205512D02*
D03*
X0302169Y0201575D02*
D03*
X0286815Y0206299D02*
D03*
X0286815Y0202362D02*
D03*
X0232976Y0191437D02*
D03*
X0232976Y0187500D02*
D03*
X0220673Y0137204D02*
D03*
X0220673Y0141141D02*
D03*
X0220673Y0205708D02*
D03*
X0220673Y0209645D02*
D03*
X0220673Y0182874D02*
D03*
X0220673Y0186811D02*
D03*
X0220673Y0160039D02*
D03*
X0220673Y0163976D02*
D03*
X0196657Y0199212D02*
D03*
X0196657Y0203149D02*
D03*
X0200201Y0254264D02*
D03*
X0200201Y0250327D02*
D03*
X0200201Y0263453D02*
D03*
X0200201Y0267390D02*
D03*
X0200201Y0229460D02*
D03*
X0200201Y0225523D02*
D03*
X0200201Y0238649D02*
D03*
X0200201Y0242586D02*
D03*
X0282090Y0266929D02*
D03*
X0282090Y0270866D02*
D03*
X0282090Y0261023D02*
D03*
X0282090Y0257086D02*
D03*
X0193901Y0224015D02*
D03*
X0193901Y0227952D02*
D03*
X0231697Y0270866D02*
D03*
X0231697Y0266929D02*
D03*
X0244098Y0270866D02*
D03*
X0244098Y0266929D02*
D03*
X0248232Y0270866D02*
D03*
X0248232Y0266929D02*
D03*
X0256500Y0270866D02*
D03*
X0256500Y0266929D02*
D03*
X0252366Y0270866D02*
D03*
X0252366Y0266929D02*
D03*
X0260634Y0270866D02*
D03*
X0260634Y0266929D02*
D03*
X0239965Y0270866D02*
D03*
X0239965Y0266929D02*
D03*
X0235831Y0270866D02*
D03*
X0235831Y0266929D02*
D03*
D278*
X0283075Y0220826D02*
D03*
X0283075Y0214606D02*
D03*
D447*
X0293426Y0118223D02*
D03*
X0284174Y0114483D02*
D03*
X0235675Y0200652D02*
D03*
X0244927Y0204392D02*
D03*
X0296539Y0264173D02*
D03*
X0305791Y0267913D02*
D03*
X0309964Y0258464D02*
D03*
X0300713Y0254724D02*
D03*
X0201579Y0121850D02*
D03*
X0192327Y0118110D02*
D03*
X0207222Y0118110D02*
D03*
X0216474Y0121850D02*
D03*
X0231369Y0121850D02*
D03*
X0222117Y0118110D02*
D03*
X0246264Y0122637D02*
D03*
X0237012Y0118897D02*
D03*
D447*
X0284174Y0121963D02*
D03*
X0235675Y0208132D02*
D03*
X0296539Y0271653D02*
D03*
X0309965Y0250984D02*
D03*
X0201579Y0114370D02*
D03*
X0216474Y0114370D02*
D03*
X0231369Y0114370D02*
D03*
X0246264Y0115157D02*
D03*
D279*
X0289177Y0270472D02*
D03*
X0289177Y0257480D02*
D03*
X0299413Y0233071D02*
D03*
X0299413Y0220078D02*
D03*
D333*
X0297838Y0237992D02*
D03*
X0297838Y0244685D02*
D03*
D448*
X0260043Y0115748D02*
D03*
X0271460Y0115748D02*
D03*
D449*
X0271079Y0177677D02*
D03*
X0271079Y0173346D02*
D03*
X0271079Y0169015D02*
D03*
X0271079Y0164685D02*
D03*
X0271079Y0160354D02*
D03*
X0271079Y0156023D02*
D03*
X0271079Y0151692D02*
D03*
X0271079Y0147362D02*
D03*
D450*
X0260843Y0137992D02*
D03*
X0293520Y0137992D02*
D03*
X0293520Y0192125D02*
D03*
X0260843Y0192125D02*
D03*
D337*
X0272051Y0202755D02*
D03*
X0257484Y0202755D02*
D03*
D451*
X0248232Y0156200D02*
D03*
X0241146Y0156200D02*
D03*
X0241146Y0146161D02*
D03*
X0248232Y0146161D02*
D03*
X0173232Y0225098D02*
D03*
X0180319Y0225098D02*
D03*
X0180319Y0215059D02*
D03*
X0173232Y0215059D02*
D03*
X0207681Y0253248D02*
D03*
X0214768Y0253248D02*
D03*
X0214768Y0263287D02*
D03*
X0207681Y0263287D02*
D03*
X0226185Y0263287D02*
D03*
X0219098Y0263287D02*
D03*
X0219098Y0253248D02*
D03*
X0226185Y0253248D02*
D03*
X0207681Y0225295D02*
D03*
X0214768Y0225295D02*
D03*
X0214768Y0235334D02*
D03*
X0207681Y0235334D02*
D03*
X0226185Y0235334D02*
D03*
X0219098Y0235334D02*
D03*
X0219098Y0225295D02*
D03*
X0226185Y0225295D02*
D03*
X0173232Y0262893D02*
D03*
X0180319Y0262893D02*
D03*
X0180319Y0252854D02*
D03*
X0173232Y0252854D02*
D03*
X0173232Y0243996D02*
D03*
X0180319Y0243996D02*
D03*
X0180319Y0233957D02*
D03*
X0173232Y0233957D02*
D03*
X0173232Y0206201D02*
D03*
X0180319Y0206201D02*
D03*
X0180319Y0196161D02*
D03*
X0173232Y0196161D02*
D03*
X0173232Y0187303D02*
D03*
X0180319Y0187303D02*
D03*
X0180319Y0177263D02*
D03*
X0173232Y0177263D02*
D03*
X0173232Y0168405D02*
D03*
X0180319Y0168405D02*
D03*
X0180319Y0158366D02*
D03*
X0173232Y0158366D02*
D03*
X0173232Y0149508D02*
D03*
X0180319Y0149508D02*
D03*
X0180319Y0139468D02*
D03*
X0173232Y0139468D02*
D03*
X0178941Y0116240D02*
D03*
X0186027Y0116240D02*
D03*
X0186027Y0126279D02*
D03*
X0178941Y0126279D02*
D03*
D452*
X0248232Y0152756D02*
D03*
X0248232Y0149606D02*
D03*
X0241146Y0149606D02*
D03*
X0241146Y0152756D02*
D03*
X0180319Y0218504D02*
D03*
X0180319Y0221653D02*
D03*
X0173232Y0221653D02*
D03*
X0173232Y0218504D02*
D03*
X0207681Y0256693D02*
D03*
X0207681Y0259842D02*
D03*
X0214768Y0259842D02*
D03*
X0214768Y0256693D02*
D03*
X0226185Y0259842D02*
D03*
X0226185Y0256693D02*
D03*
X0219098Y0256693D02*
D03*
X0219098Y0259842D02*
D03*
X0207681Y0228740D02*
D03*
X0207681Y0231890D02*
D03*
X0214768Y0231890D02*
D03*
X0214768Y0228740D02*
D03*
X0226185Y0231889D02*
D03*
X0226185Y0228740D02*
D03*
X0219098Y0228740D02*
D03*
X0219098Y0231889D02*
D03*
X0180319Y0256299D02*
D03*
X0180319Y0259448D02*
D03*
X0173232Y0259448D02*
D03*
X0173232Y0256299D02*
D03*
X0180319Y0237401D02*
D03*
X0180319Y0240551D02*
D03*
X0173232Y0240551D02*
D03*
X0173232Y0237401D02*
D03*
X0180319Y0199606D02*
D03*
X0180319Y0202756D02*
D03*
X0173232Y0202756D02*
D03*
X0173232Y0199606D02*
D03*
X0180319Y0180708D02*
D03*
X0180319Y0183858D02*
D03*
X0173232Y0183858D02*
D03*
X0173232Y0180708D02*
D03*
X0180319Y0161811D02*
D03*
X0180319Y0164960D02*
D03*
X0173232Y0164960D02*
D03*
X0173232Y0161811D02*
D03*
X0180319Y0142913D02*
D03*
X0180319Y0146063D02*
D03*
X0173232Y0146063D02*
D03*
X0173232Y0142913D02*
D03*
X0178941Y0119685D02*
D03*
X0178941Y0122834D02*
D03*
X0186027Y0122834D02*
D03*
X0186027Y0119685D02*
D03*
D453*
X0275791Y0131102D02*
D03*
X0269492Y0131102D02*
D03*
X0311520Y0184744D02*
D03*
X0317819Y0184744D02*
D03*
X0277760Y0270078D02*
D03*
X0271460Y0270078D02*
D03*
X0268311Y0125590D02*
D03*
X0274610Y0125590D02*
D03*
D454*
X0297248Y0205512D02*
D03*
X0291342Y0205512D02*
D03*
D280*
X0292327Y0214566D02*
D03*
X0292327Y0220866D02*
D03*
X0287701Y0214566D02*
D03*
X0287701Y0220866D02*
D03*
D455*
X0316933Y0262992D02*
D03*
X0316933Y0251575D02*
D03*
D282*
X0256736Y0126575D02*
D03*
X0262957Y0126575D02*
D03*
X0286382Y0198031D02*
D03*
X0280161Y0198031D02*
D03*
D343*
X0232681Y0261181D02*
D03*
X0235240Y0261181D02*
D03*
X0237799Y0261181D02*
D03*
X0240358Y0261181D02*
D03*
X0242917Y0261181D02*
D03*
X0245476Y0261181D02*
D03*
X0248035Y0261181D02*
D03*
X0250594Y0261181D02*
D03*
X0253153Y0261181D02*
D03*
X0255713Y0261181D02*
D03*
X0258271Y0261181D02*
D03*
X0260831Y0261181D02*
D03*
X0232681Y0238188D02*
D03*
X0235240Y0238188D02*
D03*
X0237799Y0238188D02*
D03*
X0240358Y0238188D02*
D03*
X0242917Y0238188D02*
D03*
X0245476Y0238188D02*
D03*
X0248035Y0238188D02*
D03*
X0250594Y0238188D02*
D03*
X0253153Y0238188D02*
D03*
X0255713Y0238188D02*
D03*
X0258271Y0238188D02*
D03*
X0260831Y0238188D02*
D03*
D212*
X0308862Y0117913D02*
D03*
X0308862Y0119881D02*
D03*
X0315161Y0119881D02*
D03*
X0315161Y0117913D02*
D03*
D211*
X0309059Y0122047D02*
D03*
X0311028Y0122047D02*
D03*
X0312996Y0122047D02*
D03*
X0314964Y0122047D02*
D03*
X0309059Y0115747D02*
D03*
X0314964Y0115747D02*
D03*
X0311028Y0115747D02*
D03*
X0312996Y0115747D02*
D03*
X0098571Y0151201D02*
%LPD*%
G01*
X0099382Y0213898D02*
G01*
G75*
D123*
X0127335Y0224134D02*
D03*
X0131272Y0224134D02*
D03*
X0116212Y0224134D02*
D03*
X0112275Y0224134D02*
D03*
X0107846Y0224134D02*
D03*
X0103909Y0224134D02*
D03*
X0127335Y0216851D02*
D03*
X0131272Y0216851D02*
D03*
D105*
X0123950Y0216654D02*
D03*
X0123950Y0220197D02*
D03*
D70*
X0120065Y0223367D02*
D03*
X0120065Y0217146D02*
D03*
D104*
X0107453Y0220197D02*
D03*
X0103910Y0220197D02*
D03*
X0115819Y0216654D02*
D03*
X0112276Y0216654D02*
D03*
X0130681Y0220255D02*
D03*
X0127138Y0220255D02*
D03*
X0103910Y0216654D02*
D03*
X0107453Y0216654D02*
D03*
X0099185Y0193996D02*
G01*
G75*
D123*
X0127138Y0204232D02*
D03*
X0131075Y0204232D02*
D03*
X0116015Y0204232D02*
D03*
X0112078Y0204232D02*
D03*
X0107649Y0204232D02*
D03*
X0103712Y0204232D02*
D03*
X0127138Y0196949D02*
D03*
X0131075Y0196949D02*
D03*
D105*
X0123753Y0196752D02*
D03*
X0123753Y0200295D02*
D03*
D70*
X0119868Y0203465D02*
D03*
X0119868Y0197244D02*
D03*
D104*
X0107256Y0200295D02*
D03*
X0103713Y0200295D02*
D03*
X0115622Y0196752D02*
D03*
X0112079Y0196752D02*
D03*
X0130484Y0200353D02*
D03*
X0126941Y0200353D02*
D03*
X0103713Y0196752D02*
D03*
X0107256Y0196752D02*
D03*
M02*
