G75*
G70*
%OFA0B0*%
%FSLAX25Y25*%
%IPPOS*%
%LPD*%
%AMOC8*
5,1,8,0,0,1.08239X$1,22.5*
%
%AMM13*
21,1,0.041340,0.026770,0.000000,0.000000,0.000000*
21,1,0.029130,0.038980,0.000000,0.000000,0.000000*
1,1,0.012210,0.014570,-0.013390*
1,1,0.012210,-0.014570,-0.013390*
1,1,0.012210,-0.014570,0.013390*
1,1,0.012210,0.014570,0.013390*
%
%AMM144*
21,1,0.015350,0.009840,-0.000000,-0.000000,0.000000*
21,1,0.000000,0.025200,-0.000000,-0.000000,0.000000*
1,1,0.015350,-0.000000,-0.004920*
1,1,0.015350,-0.000000,-0.004920*
1,1,0.015350,-0.000000,0.004920*
1,1,0.015350,-0.000000,0.004920*
%
%AMM16*
21,1,0.038980,0.026770,0.000000,0.000000,270.000000*
21,1,0.026770,0.038980,0.000000,0.000000,270.000000*
1,1,0.012210,-0.013390,-0.013390*
1,1,0.012210,-0.013390,0.013390*
1,1,0.012210,0.013390,0.013390*
1,1,0.012210,0.013390,-0.013390*
%
%AMM269*
21,1,0.039370,0.030320,0.000000,-0.000000,0.000000*
21,1,0.028350,0.041340,0.000000,-0.000000,0.000000*
1,1,0.011020,0.014170,-0.015160*
1,1,0.011020,-0.014170,-0.015160*
1,1,0.011020,-0.014170,0.015160*
1,1,0.011020,0.014170,0.015160*
%
%AMM275*
21,1,0.031500,0.018900,0.000000,-0.000000,90.000000*
21,1,0.022840,0.027560,0.000000,-0.000000,90.000000*
1,1,0.008660,0.009450,0.011420*
1,1,0.008660,0.009450,-0.011420*
1,1,0.008660,-0.009450,-0.011420*
1,1,0.008660,-0.009450,0.011420*
%
%AMM278*
21,1,0.029530,0.026380,0.000000,-0.000000,0.000000*
21,1,0.020470,0.035430,0.000000,-0.000000,0.000000*
1,1,0.009060,0.010240,-0.013190*
1,1,0.009060,-0.010240,-0.013190*
1,1,0.009060,-0.010240,0.013190*
1,1,0.009060,0.010240,0.013190*
%
%AMM279*
21,1,0.021650,0.027950,0.000000,-0.000000,0.000000*
21,1,0.014170,0.035430,0.000000,-0.000000,0.000000*
1,1,0.007480,0.007090,-0.013980*
1,1,0.007480,-0.007090,-0.013980*
1,1,0.007480,-0.007090,0.013980*
1,1,0.007480,0.007090,0.013980*
%
%AMM281*
21,1,0.016540,0.028980,0.000000,-0.000000,0.000000*
21,1,0.010080,0.035430,0.000000,-0.000000,0.000000*
1,1,0.006460,0.005040,-0.014490*
1,1,0.006460,-0.005040,-0.014490*
1,1,0.006460,-0.005040,0.014490*
1,1,0.006460,0.005040,0.014490*
%
%AMM284*
21,1,0.031500,0.018900,0.000000,-0.000000,0.000000*
21,1,0.022840,0.027560,0.000000,-0.000000,0.000000*
1,1,0.008660,0.011420,-0.009450*
1,1,0.008660,-0.011420,-0.009450*
1,1,0.008660,-0.011420,0.009450*
1,1,0.008660,0.011420,0.009450*
%
%AMM298*
21,1,0.037400,0.026770,0.000000,-0.000000,90.000000*
21,1,0.026770,0.037400,0.000000,-0.000000,90.000000*
1,1,0.010630,0.013390,0.013390*
1,1,0.010630,0.013390,-0.013390*
1,1,0.010630,-0.013390,-0.013390*
1,1,0.010630,-0.013390,0.013390*
%
%AMM299*
21,1,0.039370,0.030320,0.000000,-0.000000,90.000000*
21,1,0.028350,0.041340,0.000000,-0.000000,90.000000*
1,1,0.011020,0.015160,0.014170*
1,1,0.011020,0.015160,-0.014170*
1,1,0.011020,-0.015160,-0.014170*
1,1,0.011020,-0.015160,0.014170*
%
%AMM300*
21,1,0.039760,0.026770,0.000000,-0.000000,270.000000*
21,1,0.029130,0.037400,0.000000,-0.000000,270.000000*
1,1,0.010630,-0.013390,-0.014570*
1,1,0.010630,-0.013390,0.014570*
1,1,0.010630,0.013390,0.014570*
1,1,0.010630,0.013390,-0.014570*
%
%AMM301*
21,1,0.074800,0.036220,0.000000,-0.000000,270.000000*
21,1,0.061810,0.049210,0.000000,-0.000000,270.000000*
1,1,0.012990,-0.018110,-0.030910*
1,1,0.012990,-0.018110,0.030910*
1,1,0.012990,0.018110,0.030910*
1,1,0.012990,0.018110,-0.030910*
%
%AMM302*
21,1,0.062990,0.020470,0.000000,-0.000000,0.000000*
21,1,0.053940,0.029530,0.000000,-0.000000,0.000000*
1,1,0.009060,0.026970,-0.010240*
1,1,0.009060,-0.026970,-0.010240*
1,1,0.009060,-0.026970,0.010240*
1,1,0.009060,0.026970,0.010240*
%
%AMM303*
21,1,0.082680,0.045670,0.000000,-0.000000,0.000000*
21,1,0.067320,0.061020,0.000000,-0.000000,0.000000*
1,1,0.015350,0.033660,-0.022840*
1,1,0.015350,-0.033660,-0.022840*
1,1,0.015350,-0.033660,0.022840*
1,1,0.015350,0.033660,0.022840*
%
%AMM304*
21,1,0.029530,0.026380,0.000000,-0.000000,270.000000*
21,1,0.020470,0.035430,0.000000,-0.000000,270.000000*
1,1,0.009060,-0.013190,-0.010240*
1,1,0.009060,-0.013190,0.010240*
1,1,0.009060,0.013190,0.010240*
1,1,0.009060,0.013190,-0.010240*
%
%AMM305*
21,1,0.021650,0.027950,0.000000,-0.000000,270.000000*
21,1,0.014170,0.035430,0.000000,-0.000000,270.000000*
1,1,0.007480,-0.013980,-0.007090*
1,1,0.007480,-0.013980,0.007090*
1,1,0.007480,0.013980,0.007090*
1,1,0.007480,0.013980,-0.007090*
%
%AMM306*
21,1,0.031500,0.030710,0.000000,-0.000000,0.000000*
21,1,0.022050,0.040160,0.000000,-0.000000,0.000000*
1,1,0.009450,0.011020,-0.015350*
1,1,0.009450,-0.011020,-0.015350*
1,1,0.009450,-0.011020,0.015350*
1,1,0.009450,0.011020,0.015350*
%
%AMM307*
21,1,0.031500,0.049610,0.000000,-0.000000,180.000000*
21,1,0.022050,0.059060,0.000000,-0.000000,180.000000*
1,1,0.009450,-0.011020,0.024800*
1,1,0.009450,0.011020,0.024800*
1,1,0.009450,0.011020,-0.024800*
1,1,0.009450,-0.011020,-0.024800*
%
%AMM308*
21,1,0.031500,0.030710,0.000000,-0.000000,270.000000*
21,1,0.022050,0.040160,0.000000,-0.000000,270.000000*
1,1,0.009450,-0.015350,-0.011020*
1,1,0.009450,-0.015350,0.011020*
1,1,0.009450,0.015350,0.011020*
1,1,0.009450,0.015350,-0.011020*
%
%AMM309*
21,1,0.074800,0.036220,0.000000,-0.000000,0.000000*
21,1,0.061810,0.049210,0.000000,-0.000000,0.000000*
1,1,0.012990,0.030910,-0.018110*
1,1,0.012990,-0.030910,-0.018110*
1,1,0.012990,-0.030910,0.018110*
1,1,0.012990,0.030910,0.018110*
%
%AMM310*
21,1,0.037400,0.026770,0.000000,-0.000000,180.000000*
21,1,0.026770,0.037400,0.000000,-0.000000,180.000000*
1,1,0.010630,-0.013390,0.013390*
1,1,0.010630,0.013390,0.013390*
1,1,0.010630,0.013390,-0.013390*
1,1,0.010630,-0.013390,-0.013390*
%
%AMM39*
21,1,0.076380,0.036220,0.000000,0.000000,90.000000*
21,1,0.061810,0.050790,0.000000,0.000000,90.000000*
1,1,0.014570,0.018110,0.030910*
1,1,0.014570,0.018110,-0.030910*
1,1,0.014570,-0.018110,-0.030910*
1,1,0.014570,-0.018110,0.030910*
%
%AMM42*
21,1,0.029130,0.018900,0.000000,0.000000,90.000000*
21,1,0.018900,0.029130,0.000000,0.000000,90.000000*
1,1,0.010240,0.009450,0.009450*
1,1,0.010240,0.009450,-0.009450*
1,1,0.010240,-0.009450,-0.009450*
1,1,0.010240,-0.009450,0.009450*
%
%AMM43*
21,1,0.025200,0.019680,0.000000,0.000000,0.000000*
21,1,0.015750,0.029130,0.000000,0.000000,0.000000*
1,1,0.009450,0.007870,-0.009840*
1,1,0.009450,-0.007870,-0.009840*
1,1,0.009450,-0.007870,0.009840*
1,1,0.009450,0.007870,0.009840*
%
%AMM44*
21,1,0.025200,0.019680,0.000000,0.000000,270.000000*
21,1,0.015750,0.029130,0.000000,0.000000,270.000000*
1,1,0.009450,-0.009840,-0.007870*
1,1,0.009450,-0.009840,0.007870*
1,1,0.009450,0.009840,0.007870*
1,1,0.009450,0.009840,-0.007870*
%
%AMM49*
21,1,0.111810,0.050390,0.000000,0.000000,90.000000*
21,1,0.093700,0.068500,0.000000,0.000000,90.000000*
1,1,0.018110,0.025200,0.046850*
1,1,0.018110,0.025200,-0.046850*
1,1,0.018110,-0.025200,-0.046850*
1,1,0.018110,-0.025200,0.046850*
%
%AMM50*
21,1,0.029130,0.018900,0.000000,0.000000,180.000000*
21,1,0.018900,0.029130,0.000000,0.000000,180.000000*
1,1,0.010240,-0.009450,0.009450*
1,1,0.010240,0.009450,0.009450*
1,1,0.010240,0.009450,-0.009450*
1,1,0.010240,-0.009450,-0.009450*
%
%AMM51*
21,1,0.127560,0.075590,0.000000,0.000000,180.000000*
21,1,0.103150,0.100000,0.000000,0.000000,180.000000*
1,1,0.024410,-0.051580,0.037800*
1,1,0.024410,0.051580,0.037800*
1,1,0.024410,0.051580,-0.037800*
1,1,0.024410,-0.051580,-0.037800*
%
%AMM52*
21,1,0.123620,0.083460,0.000000,0.000000,0.000000*
21,1,0.097240,0.109840,0.000000,0.000000,0.000000*
1,1,0.026380,0.048620,-0.041730*
1,1,0.026380,-0.048620,-0.041730*
1,1,0.026380,-0.048620,0.041730*
1,1,0.026380,0.048620,0.041730*
%
%ADD12C,0.02362*%
%ADD126M39*%
%ADD129M42*%
%ADD130M43*%
%ADD131M44*%
%ADD132C,0.02913*%
%ADD138M49*%
%ADD139M50*%
%ADD140O,0.02520X0.09213*%
%ADD141M51*%
%ADD142M52*%
%ADD206C,0.04294*%
%ADD207C,0.04724*%
%ADD22C,0.07874*%
%ADD240R,0.01378X0.01772*%
%ADD241R,0.01772X0.01378*%
%ADD25C,0.05906*%
%ADD287M144*%
%ADD338R,0.04724X0.04331*%
%ADD342R,0.07087X0.09843*%
%ADD35C,0.06299*%
%ADD350O,0.01378X0.05354*%
%ADD421M269*%
%ADD427M275*%
%ADD430M278*%
%ADD431M279*%
%ADD433M281*%
%ADD436M284*%
%ADD450M298*%
%ADD451M299*%
%ADD452M300*%
%ADD453M301*%
%ADD454M302*%
%ADD455M303*%
%ADD456M304*%
%ADD457M305*%
%ADD458M306*%
%ADD459M307*%
%ADD460M308*%
%ADD461M309*%
%ADD462M310*%
%ADD48R,0.06693X0.06693*%
%ADD49O,0.06693X0.06693*%
%ADD61C,0.02559*%
%ADD62C,0.17717*%
%ADD63C,0.08268*%
%ADD72R,0.02559X0.05315*%
%ADD73R,0.20079X0.17323*%
%ADD74R,0.05315X0.07087*%
%ADD93M13*%
%ADD96M16*%
%ADD97C,0.06457*%
%ADD98R,0.06457X0.06457*%
X0000000Y0000000D02*
%LPD*%
G01*
D12*
X0183618Y0207232D03*
X0183618Y0203492D03*
X0183618Y0199752D03*
X0149366Y0203689D03*
X0149366Y0207232D03*
X0171839Y0166366D03*
X0171839Y0161642D03*
X0171839Y0171091D03*
X0171839Y0175815D03*
X0115047Y0150382D03*
X0115047Y0146445D03*
G36*
G01*
X0299010Y0043904D02*
X0299010Y0044888D01*
G75*
G02*
X0299502Y0045380I0000492J0000000D01*
G01*
X0299502Y0045380D01*
G75*
G02*
X0299994Y0044888I0000000J-000492D01*
G01*
X0299994Y0043904D01*
G75*
G02*
X0299502Y0043412I-000492J0000000D01*
G01*
X0299502Y0043412D01*
G75*
G02*
X0299010Y0043904I0000000J0000492D01*
G01*
G37*
G36*
G01*
X0303341Y0043904D02*
X0303341Y0044888D01*
G75*
G02*
X0303833Y0045380I0000492J0000000D01*
G01*
X0303833Y0045380D01*
G75*
G02*
X0304325Y0044888I0000000J-000492D01*
G01*
X0304325Y0043904D01*
G75*
G02*
X0303833Y0043412I-000492J0000000D01*
G01*
X0303833Y0043412D01*
G75*
G02*
X0303341Y0043904I0000000J0000492D01*
G01*
G37*
G36*
G01*
X0307671Y0043904D02*
X0307671Y0044888D01*
G75*
G02*
X0308164Y0045380I0000492J0000000D01*
G01*
X0308164Y0045380D01*
G75*
G02*
X0308656Y0044888I0000000J-000492D01*
G01*
X0308656Y0043904D01*
G75*
G02*
X0308164Y0043412I-000492J0000000D01*
G01*
X0308164Y0043412D01*
G75*
G02*
X0307671Y0043904I0000000J0000492D01*
G01*
G37*
G36*
G01*
X0312002Y0043904D02*
X0312002Y0044888D01*
G75*
G02*
X0312494Y0045380I0000492J0000000D01*
G01*
X0312494Y0045380D01*
G75*
G02*
X0312986Y0044888I0000000J-000492D01*
G01*
X0312986Y0043904D01*
G75*
G02*
X0312494Y0043412I-000492J0000000D01*
G01*
X0312494Y0043412D01*
G75*
G02*
X0312002Y0043904I0000000J0000492D01*
G01*
G37*
G36*
G01*
X0316333Y0043904D02*
X0316333Y0044888D01*
G75*
G02*
X0316825Y0045380I0000492J0000000D01*
G01*
X0316825Y0045380D01*
G75*
G02*
X0317317Y0044888I0000000J-000492D01*
G01*
X0317317Y0043904D01*
G75*
G02*
X0316825Y0043412I-000492J0000000D01*
G01*
X0316825Y0043412D01*
G75*
G02*
X0316333Y0043904I0000000J0000492D01*
G01*
G37*
G36*
G01*
X0320664Y0043904D02*
X0320664Y0044888D01*
G75*
G02*
X0321156Y0045380I0000492J0000000D01*
G01*
X0321156Y0045380D01*
G75*
G02*
X0321648Y0044888I0000000J-000492D01*
G01*
X0321648Y0043904D01*
G75*
G02*
X0321156Y0043412I-000492J0000000D01*
G01*
X0321156Y0043412D01*
G75*
G02*
X0320664Y0043904I0000000J0000492D01*
G01*
G37*
D25*
X0257000Y0344713D03*
X0257000Y0319516D03*
X0257000Y0312035D03*
X0257000Y0295106D03*
D12*
X0258772Y0285657D03*
X0258772Y0281720D03*
D25*
X0257000Y0270500D03*
X0195976Y0346484D03*
X0195976Y0339201D03*
X0195976Y0319713D03*
X0195976Y0272272D03*
D61*
X0377687Y0028724D03*
X0377687Y0051480D03*
D62*
X0035000Y0364961D03*
D63*
X0070039Y0347244D03*
X0070039Y0067717D03*
D62*
X0035000Y0050000D03*
D22*
X0037992Y0327559D03*
X0037992Y0304724D03*
X0047165Y0316142D03*
X0070000Y0327559D03*
X0070000Y0304724D03*
D35*
X0070000Y0093622D03*
X0070000Y0103622D03*
X0070000Y0113622D03*
X0070000Y0123622D03*
X0070000Y0133622D03*
X0070000Y0143622D03*
X0070000Y0153622D03*
X0070000Y0163622D03*
X0070000Y0173622D03*
X0070000Y0183622D03*
X0070000Y0193622D03*
X0070000Y0203622D03*
X0070000Y0213622D03*
X0070000Y0223622D03*
X0070000Y0233622D03*
X0070000Y0243622D03*
X0070000Y0253622D03*
X0070000Y0263622D03*
X0070000Y0273622D03*
X0060000Y0093622D03*
X0060000Y0103622D03*
X0060000Y0113622D03*
X0060000Y0123622D03*
X0060000Y0133622D03*
X0060000Y0143622D03*
X0060000Y0153622D03*
X0060000Y0163622D03*
X0060000Y0173622D03*
X0060000Y0183622D03*
X0060000Y0193622D03*
X0060000Y0203622D03*
X0060000Y0213622D03*
X0060000Y0223622D03*
X0060000Y0233622D03*
X0060000Y0243622D03*
X0060000Y0253622D03*
X0060000Y0263622D03*
X0060000Y0273622D03*
X0036181Y0093622D03*
X0036181Y0103622D03*
X0036181Y0113622D03*
X0036181Y0123622D03*
X0036181Y0133622D03*
X0036181Y0143622D03*
X0036181Y0153622D03*
X0036181Y0163622D03*
X0036181Y0173622D03*
X0036181Y0183622D03*
X0036181Y0193622D03*
X0036181Y0203622D03*
X0036181Y0213622D03*
X0036181Y0223622D03*
X0036181Y0233622D03*
X0036181Y0243622D03*
X0036181Y0253622D03*
X0036181Y0263622D03*
X0036181Y0273622D03*
X0026181Y0093622D03*
X0026181Y0103622D03*
X0026181Y0113622D03*
X0026181Y0123622D03*
X0026181Y0133622D03*
X0026181Y0143622D03*
X0026181Y0153622D03*
X0026181Y0163622D03*
X0026181Y0173622D03*
X0026181Y0183622D03*
X0026181Y0193622D03*
X0026181Y0203622D03*
X0026181Y0213622D03*
X0026181Y0223622D03*
X0026181Y0233622D03*
X0026181Y0243622D03*
X0026181Y0253622D03*
X0026181Y0263622D03*
X0026181Y0273622D03*
D48*
X0367000Y0293000D03*
D49*
X0367000Y0283000D03*
X0367000Y0273000D03*
D12*
X0184618Y0106232D03*
X0184618Y0102492D03*
X0184618Y0098752D03*
X0150366Y0102689D03*
X0150366Y0106232D03*
G36*
G01*
X0157264Y0277559D02*
X0153524Y0277559D01*
G75*
G02*
X0152539Y0278543I0000000J0000984D01*
G01*
X0152539Y0280512D01*
G75*
G02*
X0153524Y0281496I0000984J0000000D01*
G01*
X0157264Y0281496D01*
G75*
G02*
X0158248Y0280512I0000000J-000984D01*
G01*
X0158248Y0278543D01*
G75*
G02*
X0157264Y0277559I-000984J0000000D01*
G01*
G37*
G36*
G01*
X0157264Y0285039D02*
X0153524Y0285039D01*
G75*
G02*
X0152539Y0286024I0000000J0000984D01*
G01*
X0152539Y0287992D01*
G75*
G02*
X0153524Y0288976I0000984J0000000D01*
G01*
X0157264Y0288976D01*
G75*
G02*
X0158248Y0287992I0000000J-000984D01*
G01*
X0158248Y0286024D01*
G75*
G02*
X0157264Y0285039I-000984J0000000D01*
G01*
G37*
G36*
G01*
X0109862Y0277559D02*
X0106122Y0277559D01*
G75*
G02*
X0105138Y0278543I0000000J0000984D01*
G01*
X0105138Y0280512D01*
G75*
G02*
X0106122Y0281496I0000984J0000000D01*
G01*
X0109862Y0281496D01*
G75*
G02*
X0110846Y0280512I0000000J-000984D01*
G01*
X0110846Y0278543D01*
G75*
G02*
X0109862Y0277559I-000984J0000000D01*
G01*
G37*
G36*
G01*
X0109862Y0285039D02*
X0106122Y0285039D01*
G75*
G02*
X0105138Y0286024I0000000J0000984D01*
G01*
X0105138Y0287992D01*
G75*
G02*
X0106122Y0288976I0000984J0000000D01*
G01*
X0109862Y0288976D01*
G75*
G02*
X0110846Y0287992I0000000J-000984D01*
G01*
X0110846Y0286024D01*
G75*
G02*
X0109862Y0285039I-000984J0000000D01*
G01*
G37*
G36*
G01*
X0129783Y0302559D02*
X0133524Y0302559D01*
G75*
G02*
X0134508Y0301575I0000000J-000984D01*
G01*
X0134508Y0299606D01*
G75*
G02*
X0133524Y0298622I-000984J0000000D01*
G01*
X0129783Y0298622D01*
G75*
G02*
X0128799Y0299606I0000000J0000984D01*
G01*
X0128799Y0301575D01*
G75*
G02*
X0129783Y0302559I0000984J0000000D01*
G01*
G37*
G36*
G01*
X0129783Y0295079D02*
X0133524Y0295079D01*
G75*
G02*
X0134508Y0294094I0000000J-000984D01*
G01*
X0134508Y0292126D01*
G75*
G02*
X0133524Y0291142I-000984J0000000D01*
G01*
X0129783Y0291142D01*
G75*
G02*
X0128799Y0292126I0000000J0000984D01*
G01*
X0128799Y0294094D01*
G75*
G02*
X0129783Y0295079I0000984J0000000D01*
G01*
G37*
G36*
G01*
X0088992Y0209669D02*
X0088992Y0208331D01*
G75*
G02*
X0088441Y0207780I-000551J0000000D01*
G01*
X0087339Y0207780D01*
G75*
G02*
X0086787Y0208331I0000000J0000551D01*
G01*
X0086787Y0209669D01*
G75*
G02*
X0087339Y0210220I0000551J0000000D01*
G01*
X0088441Y0210220D01*
G75*
G02*
X0088992Y0209669I0000000J-000551D01*
G01*
G37*
G36*
G01*
X0085213Y0209669D02*
X0085213Y0208331D01*
G75*
G02*
X0084661Y0207780I-000551J0000000D01*
G01*
X0083559Y0207780D01*
G75*
G02*
X0083008Y0208331I0000000J0000551D01*
G01*
X0083008Y0209669D01*
G75*
G02*
X0083559Y0210220I0000551J0000000D01*
G01*
X0084661Y0210220D01*
G75*
G02*
X0085213Y0209669I0000000J-000551D01*
G01*
G37*
G36*
G01*
X0153484Y0302559D02*
X0157224Y0302559D01*
G75*
G02*
X0158209Y0301575I0000000J-000984D01*
G01*
X0158209Y0299606D01*
G75*
G02*
X0157224Y0298622I-000984J0000000D01*
G01*
X0153484Y0298622D01*
G75*
G02*
X0152500Y0299606I0000000J0000984D01*
G01*
X0152500Y0301575D01*
G75*
G02*
X0153484Y0302559I0000984J0000000D01*
G01*
G37*
G36*
G01*
X0153484Y0295079D02*
X0157224Y0295079D01*
G75*
G02*
X0158209Y0294094I0000000J-000984D01*
G01*
X0158209Y0292126D01*
G75*
G02*
X0157224Y0291142I-000984J0000000D01*
G01*
X0153484Y0291142D01*
G75*
G02*
X0152500Y0292126I0000000J0000984D01*
G01*
X0152500Y0294094D01*
G75*
G02*
X0153484Y0295079I0000984J0000000D01*
G01*
G37*
D72*
X0121874Y0210827D03*
X0117937Y0210827D03*
X0114000Y0210827D03*
X0110063Y0210827D03*
X0106126Y0210827D03*
X0102189Y0210827D03*
X0102189Y0250000D03*
X0106126Y0250000D03*
X0110063Y0250000D03*
X0114000Y0250000D03*
X0117937Y0250000D03*
X0121874Y0250000D03*
D73*
X0112031Y0230413D03*
D74*
X0124728Y0230413D03*
X0099335Y0230413D03*
G36*
G01*
X0098228Y0194016D02*
X0098228Y0195984D01*
G75*
G02*
X0099114Y0196870I0000886J0000000D01*
G01*
X0100886Y0196870D01*
G75*
G02*
X0101772Y0195984I0000000J-000886D01*
G01*
X0101772Y0194016D01*
G75*
G02*
X0100886Y0193130I-000886J0000000D01*
G01*
X0099114Y0193130D01*
G75*
G02*
X0098228Y0194016I0000000J0000886D01*
G01*
G37*
G36*
G01*
X0104331Y0194016D02*
X0104331Y0195984D01*
G75*
G02*
X0105217Y0196870I0000886J0000000D01*
G01*
X0106988Y0196870D01*
G75*
G02*
X0107874Y0195984I0000000J-000886D01*
G01*
X0107874Y0194016D01*
G75*
G02*
X0106988Y0193130I-000886J0000000D01*
G01*
X0105217Y0193130D01*
G75*
G02*
X0104331Y0194016I0000000J0000886D01*
G01*
G37*
G36*
G01*
X0106882Y0259669D02*
X0106882Y0258331D01*
G75*
G02*
X0106331Y0257780I-000551J0000000D01*
G01*
X0105228Y0257780D01*
G75*
G02*
X0104677Y0258331I0000000J0000551D01*
G01*
X0104677Y0259669D01*
G75*
G02*
X0105228Y0260220I0000551J0000000D01*
G01*
X0106331Y0260220D01*
G75*
G02*
X0106882Y0259669I0000000J-000551D01*
G01*
G37*
G36*
G01*
X0103102Y0259669D02*
X0103102Y0258331D01*
G75*
G02*
X0102551Y0257780I-000551J0000000D01*
G01*
X0101449Y0257780D01*
G75*
G02*
X0100898Y0258331I0000000J0000551D01*
G01*
X0100898Y0259669D01*
G75*
G02*
X0101449Y0260220I0000551J0000000D01*
G01*
X0102551Y0260220D01*
G75*
G02*
X0103102Y0259669I0000000J-000551D01*
G01*
G37*
G36*
G01*
X0117933Y0302559D02*
X0121673Y0302559D01*
G75*
G02*
X0122657Y0301575I0000000J-000984D01*
G01*
X0122657Y0299606D01*
G75*
G02*
X0121673Y0298622I-000984J0000000D01*
G01*
X0117933Y0298622D01*
G75*
G02*
X0116949Y0299606I0000000J0000984D01*
G01*
X0116949Y0301575D01*
G75*
G02*
X0117933Y0302559I0000984J0000000D01*
G01*
G37*
G36*
G01*
X0117933Y0295079D02*
X0121673Y0295079D01*
G75*
G02*
X0122657Y0294094I0000000J-000984D01*
G01*
X0122657Y0292126D01*
G75*
G02*
X0121673Y0291142I-000984J0000000D01*
G01*
X0117933Y0291142D01*
G75*
G02*
X0116949Y0292126I0000000J0000984D01*
G01*
X0116949Y0294094D01*
G75*
G02*
X0117933Y0295079I0000984J0000000D01*
G01*
G37*
G36*
G01*
X0141634Y0302559D02*
X0145374Y0302559D01*
G75*
G02*
X0146358Y0301575I0000000J-000984D01*
G01*
X0146358Y0299606D01*
G75*
G02*
X0145374Y0298622I-000984J0000000D01*
G01*
X0141634Y0298622D01*
G75*
G02*
X0140650Y0299606I0000000J0000984D01*
G01*
X0140650Y0301575D01*
G75*
G02*
X0141634Y0302559I0000984J0000000D01*
G01*
G37*
G36*
G01*
X0141634Y0295079D02*
X0145374Y0295079D01*
G75*
G02*
X0146358Y0294094I0000000J-000984D01*
G01*
X0146358Y0292126D01*
G75*
G02*
X0145374Y0291142I-000984J0000000D01*
G01*
X0141634Y0291142D01*
G75*
G02*
X0140650Y0292126I0000000J0000984D01*
G01*
X0140650Y0294094D01*
G75*
G02*
X0141634Y0295079I0000984J0000000D01*
G01*
G37*
G36*
G01*
X0121713Y0277559D02*
X0117972Y0277559D01*
G75*
G02*
X0116988Y0278543I0000000J0000984D01*
G01*
X0116988Y0280512D01*
G75*
G02*
X0117972Y0281496I0000984J0000000D01*
G01*
X0121713Y0281496D01*
G75*
G02*
X0122697Y0280512I0000000J-000984D01*
G01*
X0122697Y0278543D01*
G75*
G02*
X0121713Y0277559I-000984J0000000D01*
G01*
G37*
G36*
G01*
X0121713Y0285039D02*
X0117972Y0285039D01*
G75*
G02*
X0116988Y0286024I0000000J0000984D01*
G01*
X0116988Y0287992D01*
G75*
G02*
X0117972Y0288976I0000984J0000000D01*
G01*
X0121713Y0288976D01*
G75*
G02*
X0122697Y0287992I0000000J-000984D01*
G01*
X0122697Y0286024D01*
G75*
G02*
X0121713Y0285039I-000984J0000000D01*
G01*
G37*
G36*
G01*
X0106083Y0302559D02*
X0109823Y0302559D01*
G75*
G02*
X0110807Y0301575I0000000J-000984D01*
G01*
X0110807Y0299606D01*
G75*
G02*
X0109823Y0298622I-000984J0000000D01*
G01*
X0106083Y0298622D01*
G75*
G02*
X0105098Y0299606I0000000J0000984D01*
G01*
X0105098Y0301575D01*
G75*
G02*
X0106083Y0302559I0000984J0000000D01*
G01*
G37*
G36*
G01*
X0106083Y0295079D02*
X0109823Y0295079D01*
G75*
G02*
X0110807Y0294094I0000000J-000984D01*
G01*
X0110807Y0292126D01*
G75*
G02*
X0109823Y0291142I-000984J0000000D01*
G01*
X0106083Y0291142D01*
G75*
G02*
X0105098Y0292126I0000000J0000984D01*
G01*
X0105098Y0294094D01*
G75*
G02*
X0106083Y0295079I0000984J0000000D01*
G01*
G37*
G36*
G01*
X0133563Y0277559D02*
X0129823Y0277559D01*
G75*
G02*
X0128839Y0278543I0000000J0000984D01*
G01*
X0128839Y0280512D01*
G75*
G02*
X0129823Y0281496I0000984J0000000D01*
G01*
X0133563Y0281496D01*
G75*
G02*
X0134547Y0280512I0000000J-000984D01*
G01*
X0134547Y0278543D01*
G75*
G02*
X0133563Y0277559I-000984J0000000D01*
G01*
G37*
G36*
G01*
X0133563Y0285039D02*
X0129823Y0285039D01*
G75*
G02*
X0128839Y0286024I0000000J0000984D01*
G01*
X0128839Y0287992D01*
G75*
G02*
X0129823Y0288976I0000984J0000000D01*
G01*
X0133563Y0288976D01*
G75*
G02*
X0134547Y0287992I0000000J-000984D01*
G01*
X0134547Y0286024D01*
G75*
G02*
X0133563Y0285039I-000984J0000000D01*
G01*
G37*
G36*
G01*
X0145413Y0277559D02*
X0141673Y0277559D01*
G75*
G02*
X0140689Y0278543I0000000J0000984D01*
G01*
X0140689Y0280512D01*
G75*
G02*
X0141673Y0281496I0000984J0000000D01*
G01*
X0145413Y0281496D01*
G75*
G02*
X0146398Y0280512I0000000J-000984D01*
G01*
X0146398Y0278543D01*
G75*
G02*
X0145413Y0277559I-000984J0000000D01*
G01*
G37*
G36*
G01*
X0145413Y0285039D02*
X0141673Y0285039D01*
G75*
G02*
X0140689Y0286024I0000000J0000984D01*
G01*
X0140689Y0287992D01*
G75*
G02*
X0141673Y0288976I0000984J0000000D01*
G01*
X0145413Y0288976D01*
G75*
G02*
X0146398Y0287992I0000000J-000984D01*
G01*
X0146398Y0286024D01*
G75*
G02*
X0145413Y0285039I-000984J0000000D01*
G01*
G37*
G36*
G01*
X0148878Y0263858D02*
X0150335Y0263858D01*
G75*
G02*
X0150866Y0263327I0000000J-000531D01*
G01*
X0150866Y0262264D01*
G75*
G02*
X0150335Y0261732I-000531J0000000D01*
G01*
X0148878Y0261732D01*
G75*
G02*
X0148346Y0262264I0000000J0000531D01*
G01*
X0148346Y0263327D01*
G75*
G02*
X0148878Y0263858I0000531J0000000D01*
G01*
G37*
G36*
G01*
X0148878Y0259843D02*
X0150335Y0259843D01*
G75*
G02*
X0150866Y0259311I0000000J-000531D01*
G01*
X0150866Y0258248D01*
G75*
G02*
X0150335Y0257717I-000531J0000000D01*
G01*
X0148878Y0257717D01*
G75*
G02*
X0148346Y0258248I0000000J0000531D01*
G01*
X0148346Y0259311D01*
G75*
G02*
X0148878Y0259843I0000531J0000000D01*
G01*
G37*
X0345664Y0045971D02*
G01*
G75*
D97*
X0298007Y0018628D02*
D03*
X0298007Y0028628D02*
D03*
X0308007Y0018628D02*
D03*
X0308007Y0028628D02*
D03*
X0318007Y0018628D02*
D03*
X0318007Y0028628D02*
D03*
X0328007Y0018628D02*
D03*
X0328007Y0028628D02*
D03*
X0338007Y0018628D02*
D03*
D98*
X0338007Y0028628D02*
D03*
D287*
X0299503Y0044396D02*
D03*
X0303833Y0044396D02*
D03*
X0308164Y0044396D02*
D03*
X0312495Y0044396D02*
D03*
X0316825Y0044396D02*
D03*
X0321156Y0044396D02*
D03*
X0193024Y0267547D02*
G01*
G75*
D93*
X0222939Y0343925D02*
D03*
X0209947Y0343925D02*
D03*
D126*
X0242799Y0344319D02*
D03*
X0231382Y0344319D02*
D03*
X0242799Y0336287D02*
D03*
X0231382Y0336287D02*
D03*
D129*
X0205426Y0322271D02*
D03*
X0205426Y0326208D02*
D03*
X0202079Y0336838D02*
D03*
X0210741Y0336838D02*
D03*
X0201292Y0331590D02*
D03*
X0209953Y0331590D02*
D03*
D130*
X0213179Y0278964D02*
D03*
X0209635Y0278964D02*
D03*
X0222570Y0315697D02*
D03*
X0226114Y0315697D02*
D03*
X0214573Y0330802D02*
D03*
X0218116Y0330802D02*
D03*
X0221797Y0278964D02*
D03*
X0218254Y0278964D02*
D03*
X0201292Y0282901D02*
D03*
X0204835Y0282901D02*
D03*
D131*
X0226777Y0332377D02*
D03*
X0226777Y0335921D02*
D03*
X0206010Y0344779D02*
D03*
X0206010Y0341235D02*
D03*
X0254774Y0286462D02*
D03*
X0254774Y0290006D02*
D03*
D132*
X0258772Y0285657D02*
D03*
X0258772Y0281720D02*
D03*
D97*
X0195977Y0339200D02*
D03*
X0195977Y0272271D02*
D03*
X0195977Y0319712D02*
D03*
X0257000Y0319515D02*
D03*
X0257000Y0344712D02*
D03*
X0257000Y0295106D02*
D03*
X0257000Y0312035D02*
D03*
X0257000Y0270500D02*
D03*
X0195977Y0346484D02*
D03*
D138*
X0242237Y0323846D02*
D03*
X0231213Y0323846D02*
D03*
D96*
X0209559Y0319523D02*
D03*
X0209559Y0325743D02*
D03*
X0223653Y0319523D02*
D03*
X0223653Y0325743D02*
D03*
X0218962Y0319523D02*
D03*
X0218962Y0325743D02*
D03*
X0214270Y0319523D02*
D03*
X0214270Y0325743D02*
D03*
X0222472Y0331767D02*
D03*
X0222472Y0337988D02*
D03*
D139*
X0212982Y0282901D02*
D03*
X0209045Y0282901D02*
D03*
X0217663Y0282901D02*
D03*
X0221600Y0282901D02*
D03*
X0214376Y0336838D02*
D03*
X0218313Y0336838D02*
D03*
X0237309Y0315224D02*
D03*
X0241246Y0315224D02*
D03*
X0245085Y0277783D02*
D03*
X0241147Y0277783D02*
D03*
D140*
X0218096Y0289661D02*
D03*
X0213096Y0289661D02*
D03*
X0208096Y0289661D02*
D03*
X0203096Y0289661D02*
D03*
X0218096Y0312298D02*
D03*
X0213096Y0312298D02*
D03*
X0208096Y0312298D02*
D03*
X0203096Y0312298D02*
D03*
X0241163Y0284378D02*
D03*
X0236163Y0284378D02*
D03*
X0231163Y0284378D02*
D03*
X0226163Y0284378D02*
D03*
X0241163Y0307803D02*
D03*
X0236163Y0307803D02*
D03*
X0231163Y0307803D02*
D03*
X0226163Y0307803D02*
D03*
D141*
X0210596Y0300979D02*
D03*
D142*
X0233663Y0296090D02*
D03*
X0201555Y0242776D02*
G01*
G75*
D421*
X0302797Y0231161D02*
D03*
X0306537Y0221909D02*
D03*
D421*
X0310278Y0231161D02*
D03*
D427*
X0253523Y0211083D02*
D03*
X0257460Y0211083D02*
D03*
X0296437Y0090414D02*
D03*
X0292500Y0090414D02*
D03*
X0355689Y0214134D02*
D03*
X0351752Y0214134D02*
D03*
X0278327Y0180951D02*
D03*
X0274390Y0180951D02*
D03*
X0278255Y0164046D02*
D03*
X0282192Y0164046D02*
D03*
X0274783Y0186083D02*
D03*
X0278720Y0186083D02*
D03*
X0258371Y0237277D02*
D03*
X0254434Y0237277D02*
D03*
X0327539Y0219548D02*
D03*
X0323602Y0219548D02*
D03*
X0346634Y0240020D02*
D03*
X0350571Y0240020D02*
D03*
X0270846Y0108130D02*
D03*
X0266909Y0108130D02*
D03*
X0335413Y0181752D02*
D03*
X0339350Y0181752D02*
D03*
X0268976Y0151535D02*
D03*
X0272913Y0151535D02*
D03*
X0350276Y0162560D02*
D03*
X0354212Y0162560D02*
D03*
X0282657Y0109705D02*
D03*
X0278720Y0109705D02*
D03*
X0282657Y0105768D02*
D03*
X0278720Y0105768D02*
D03*
X0346634Y0235886D02*
D03*
X0350571Y0235886D02*
D03*
X0298012Y0098878D02*
D03*
X0294075Y0098878D02*
D03*
X0320453Y0099075D02*
D03*
X0316516Y0099075D02*
D03*
X0268976Y0147205D02*
D03*
X0272913Y0147205D02*
D03*
X0355492Y0143563D02*
D03*
X0351555Y0143563D02*
D03*
X0305886Y0181752D02*
D03*
X0309823Y0181752D02*
D03*
X0302342Y0181752D02*
D03*
X0298405Y0181752D02*
D03*
X0225964Y0195138D02*
D03*
X0222027Y0195138D02*
D03*
X0225964Y0190414D02*
D03*
X0222027Y0190414D02*
D03*
X0225964Y0185689D02*
D03*
X0222027Y0185689D02*
D03*
X0225964Y0180965D02*
D03*
X0222027Y0180965D02*
D03*
X0206673Y0096319D02*
D03*
X0210610Y0096319D02*
D03*
X0210610Y0091595D02*
D03*
X0206673Y0091595D02*
D03*
X0206673Y0086871D02*
D03*
X0210610Y0086871D02*
D03*
X0206673Y0082146D02*
D03*
X0210610Y0082146D02*
D03*
X0253523Y0215020D02*
D03*
X0257460Y0215020D02*
D03*
X0253523Y0187067D02*
D03*
X0257460Y0187067D02*
D03*
X0225964Y0218760D02*
D03*
X0222027Y0218760D02*
D03*
X0225964Y0223484D02*
D03*
X0222027Y0223484D02*
D03*
X0225964Y0228209D02*
D03*
X0222027Y0228209D02*
D03*
X0225964Y0232933D02*
D03*
X0222027Y0232933D02*
D03*
X0225964Y0199862D02*
D03*
X0222027Y0199862D02*
D03*
X0225964Y0204587D02*
D03*
X0222027Y0204587D02*
D03*
X0225964Y0209311D02*
D03*
X0222027Y0209311D02*
D03*
X0225964Y0214036D02*
D03*
X0222027Y0214036D02*
D03*
X0225964Y0162067D02*
D03*
X0222027Y0162067D02*
D03*
X0225964Y0166791D02*
D03*
X0222027Y0166791D02*
D03*
X0225964Y0171516D02*
D03*
X0222027Y0171516D02*
D03*
X0225964Y0176240D02*
D03*
X0222027Y0176240D02*
D03*
X0222027Y0143169D02*
D03*
X0225964Y0143169D02*
D03*
X0225964Y0147894D02*
D03*
X0222027Y0147894D02*
D03*
X0225964Y0152618D02*
D03*
X0222027Y0152618D02*
D03*
X0225964Y0157343D02*
D03*
X0222027Y0157343D02*
D03*
X0225964Y0124272D02*
D03*
X0222027Y0124272D02*
D03*
X0225964Y0128996D02*
D03*
X0222027Y0128996D02*
D03*
X0225964Y0133721D02*
D03*
X0222027Y0133721D02*
D03*
X0225964Y0138445D02*
D03*
X0222027Y0138445D02*
D03*
X0225964Y0110099D02*
D03*
X0222027Y0110099D02*
D03*
X0225964Y0114823D02*
D03*
X0222027Y0114823D02*
D03*
X0225964Y0119548D02*
D03*
X0222027Y0119548D02*
D03*
X0216712Y0238052D02*
D03*
X0220649Y0238052D02*
D03*
X0210610Y0101043D02*
D03*
X0206673Y0101043D02*
D03*
X0243287Y0187067D02*
D03*
X0247224Y0187067D02*
D03*
X0222027Y0099469D02*
D03*
X0225964Y0099469D02*
D03*
X0209035Y0238052D02*
D03*
X0212972Y0238052D02*
D03*
X0218090Y0099469D02*
D03*
X0214153Y0099469D02*
D03*
X0348405Y0094351D02*
D03*
X0344468Y0094351D02*
D03*
X0225964Y0105374D02*
D03*
X0222027Y0105374D02*
D03*
D430*
X0318386Y0205374D02*
D03*
X0318386Y0198288D02*
D03*
X0308346Y0198288D02*
D03*
X0308346Y0205374D02*
D03*
X0270157Y0190807D02*
D03*
X0270157Y0197894D02*
D03*
X0280197Y0197894D02*
D03*
X0280197Y0190807D02*
D03*
X0286299Y0190807D02*
D03*
X0286299Y0197894D02*
D03*
X0296339Y0197894D02*
D03*
X0296339Y0190807D02*
D03*
X0250472Y0095335D02*
D03*
X0250472Y0102422D02*
D03*
X0240433Y0102422D02*
D03*
X0240433Y0095335D02*
D03*
X0240433Y0113839D02*
D03*
X0240433Y0106752D02*
D03*
X0250472Y0106752D02*
D03*
X0250472Y0113839D02*
D03*
X0250472Y0163839D02*
D03*
X0250472Y0170925D02*
D03*
X0240433Y0170925D02*
D03*
X0240433Y0163839D02*
D03*
X0240433Y0182343D02*
D03*
X0240433Y0175256D02*
D03*
X0250472Y0175256D02*
D03*
X0250472Y0182343D02*
D03*
X0250472Y0141004D02*
D03*
X0250472Y0148091D02*
D03*
X0240433Y0148091D02*
D03*
X0240433Y0141004D02*
D03*
X0240433Y0159508D02*
D03*
X0240433Y0152421D02*
D03*
X0250472Y0152421D02*
D03*
X0250472Y0159508D02*
D03*
X0250472Y0118169D02*
D03*
X0250472Y0125256D02*
D03*
X0240433Y0125256D02*
D03*
X0240433Y0118169D02*
D03*
X0240433Y0136673D02*
D03*
X0240433Y0129587D02*
D03*
X0250472Y0129587D02*
D03*
X0250472Y0136673D02*
D03*
D431*
X0311791Y0198288D02*
D03*
X0314941Y0198288D02*
D03*
X0314941Y0205374D02*
D03*
X0311791Y0205374D02*
D03*
X0276752Y0197894D02*
D03*
X0273602Y0197894D02*
D03*
X0273602Y0190807D02*
D03*
X0276752Y0190807D02*
D03*
X0292894Y0197894D02*
D03*
X0289744Y0197894D02*
D03*
X0289744Y0190807D02*
D03*
X0292894Y0190807D02*
D03*
X0247027Y0095335D02*
D03*
X0243878Y0095335D02*
D03*
X0243878Y0102422D02*
D03*
X0247027Y0102422D02*
D03*
X0243878Y0113839D02*
D03*
X0247027Y0113839D02*
D03*
X0247027Y0106752D02*
D03*
X0243878Y0106752D02*
D03*
X0247027Y0163839D02*
D03*
X0243878Y0163839D02*
D03*
X0243878Y0170925D02*
D03*
X0247027Y0170925D02*
D03*
X0243878Y0182343D02*
D03*
X0247027Y0182343D02*
D03*
X0247027Y0175256D02*
D03*
X0243878Y0175256D02*
D03*
X0247027Y0141004D02*
D03*
X0243878Y0141004D02*
D03*
X0243878Y0148091D02*
D03*
X0247027Y0148091D02*
D03*
X0243878Y0159508D02*
D03*
X0247027Y0159508D02*
D03*
X0247027Y0152421D02*
D03*
X0243878Y0152421D02*
D03*
X0247027Y0118169D02*
D03*
X0243878Y0118169D02*
D03*
X0243878Y0125256D02*
D03*
X0247027Y0125256D02*
D03*
X0243878Y0136673D02*
D03*
X0247027Y0136673D02*
D03*
X0247027Y0129587D02*
D03*
X0243878Y0129587D02*
D03*
D433*
X0312382Y0217382D02*
D03*
X0314941Y0217382D02*
D03*
X0317500Y0217382D02*
D03*
X0317500Y0209902D02*
D03*
X0312382Y0209902D02*
D03*
D436*
X0352933Y0199075D02*
D03*
X0352933Y0203012D02*
D03*
X0337185Y0082933D02*
D03*
X0337185Y0086871D02*
D03*
X0332364Y0224033D02*
D03*
X0332364Y0220096D02*
D03*
X0326358Y0201437D02*
D03*
X0326358Y0205374D02*
D03*
X0322421Y0210493D02*
D03*
X0322421Y0206556D02*
D03*
X0271634Y0101437D02*
D03*
X0271634Y0097500D02*
D03*
X0353524Y0170729D02*
D03*
X0353524Y0166792D02*
D03*
X0341319Y0102028D02*
D03*
X0341319Y0098091D02*
D03*
X0352342Y0129390D02*
D03*
X0352342Y0125453D02*
D03*
X0265533Y0173866D02*
D03*
X0265533Y0177803D02*
D03*
X0288169Y0183130D02*
D03*
X0288169Y0179193D02*
D03*
X0286594Y0173091D02*
D03*
X0286594Y0169154D02*
D03*
X0314941Y0173878D02*
D03*
X0314941Y0169941D02*
D03*
X0355098Y0078603D02*
D03*
X0355098Y0082540D02*
D03*
X0354114Y0191792D02*
D03*
X0354114Y0195729D02*
D03*
X0339744Y0209705D02*
D03*
X0339744Y0205768D02*
D03*
X0277933Y0098681D02*
D03*
X0277933Y0094744D02*
D03*
X0281870Y0098681D02*
D03*
X0281870Y0094744D02*
D03*
X0345256Y0098091D02*
D03*
X0345256Y0102028D02*
D03*
X0269370Y0125158D02*
D03*
X0269370Y0129095D02*
D03*
X0314547Y0181752D02*
D03*
X0314547Y0177815D02*
D03*
X0282854Y0181752D02*
D03*
X0282854Y0177815D02*
D03*
X0338169Y0173485D02*
D03*
X0338169Y0169548D02*
D03*
X0322815Y0174272D02*
D03*
X0322815Y0170335D02*
D03*
X0268976Y0159410D02*
D03*
X0268976Y0155473D02*
D03*
X0256673Y0105177D02*
D03*
X0256673Y0109114D02*
D03*
X0256673Y0173681D02*
D03*
X0256673Y0177618D02*
D03*
X0256673Y0150847D02*
D03*
X0256673Y0154784D02*
D03*
X0256673Y0128012D02*
D03*
X0256673Y0131949D02*
D03*
X0232657Y0167185D02*
D03*
X0232657Y0171122D02*
D03*
X0236201Y0222237D02*
D03*
X0236201Y0218300D02*
D03*
X0236201Y0231426D02*
D03*
X0236201Y0235363D02*
D03*
X0236201Y0197433D02*
D03*
X0236201Y0193496D02*
D03*
X0236201Y0206622D02*
D03*
X0236201Y0210559D02*
D03*
X0318090Y0234902D02*
D03*
X0318090Y0238839D02*
D03*
X0318090Y0228996D02*
D03*
X0318090Y0225059D02*
D03*
X0229901Y0191988D02*
D03*
X0229901Y0195925D02*
D03*
X0267697Y0238839D02*
D03*
X0267697Y0234902D02*
D03*
X0280098Y0238839D02*
D03*
X0280098Y0234902D02*
D03*
X0284232Y0238839D02*
D03*
X0284232Y0234902D02*
D03*
X0292500Y0238839D02*
D03*
X0292500Y0234902D02*
D03*
X0288366Y0238839D02*
D03*
X0288366Y0234902D02*
D03*
X0296634Y0238839D02*
D03*
X0296634Y0234902D02*
D03*
X0275965Y0238839D02*
D03*
X0275965Y0234902D02*
D03*
X0271831Y0238839D02*
D03*
X0271831Y0234902D02*
D03*
D206*
X0351496Y0187028D02*
D03*
X0347496Y0207028D02*
D03*
X0355496Y0207028D02*
D03*
D207*
X0262972Y0148681D02*
D03*
X0267303Y0101437D02*
D03*
X0262579Y0106555D02*
D03*
X0262579Y0118367D02*
D03*
X0262579Y0129784D02*
D03*
X0262579Y0166004D02*
D03*
X0263760Y0182934D02*
D03*
D25*
X0355098Y0238445D02*
D03*
D450*
X0319075Y0188799D02*
D03*
X0319075Y0182579D02*
D03*
D451*
X0329426Y0086196D02*
D03*
X0320174Y0082456D02*
D03*
X0271675Y0168625D02*
D03*
X0280927Y0172365D02*
D03*
X0332539Y0232146D02*
D03*
X0341791Y0235886D02*
D03*
X0345964Y0226437D02*
D03*
X0336713Y0222697D02*
D03*
X0237579Y0089823D02*
D03*
X0228327Y0086083D02*
D03*
X0243222Y0086083D02*
D03*
X0252474Y0089823D02*
D03*
X0267369Y0089823D02*
D03*
X0258117Y0086083D02*
D03*
X0282264Y0090610D02*
D03*
X0273012Y0086870D02*
D03*
D451*
X0320174Y0089936D02*
D03*
X0271675Y0176105D02*
D03*
X0332539Y0239626D02*
D03*
X0345965Y0218957D02*
D03*
X0237579Y0082343D02*
D03*
X0252474Y0082343D02*
D03*
X0267369Y0082343D02*
D03*
X0282264Y0083130D02*
D03*
D452*
X0325177Y0238445D02*
D03*
X0325177Y0225453D02*
D03*
X0335413Y0201044D02*
D03*
X0335413Y0188051D02*
D03*
D338*
X0333838Y0205965D02*
D03*
X0333838Y0212658D02*
D03*
D453*
X0296043Y0083721D02*
D03*
X0307460Y0083721D02*
D03*
D454*
X0307079Y0145650D02*
D03*
X0307079Y0141319D02*
D03*
X0307079Y0136988D02*
D03*
X0307079Y0132658D02*
D03*
X0307079Y0128327D02*
D03*
X0307079Y0123996D02*
D03*
X0307079Y0119665D02*
D03*
X0307079Y0115335D02*
D03*
D455*
X0296843Y0105965D02*
D03*
X0329520Y0105965D02*
D03*
X0329520Y0160098D02*
D03*
X0296843Y0160098D02*
D03*
D342*
X0308051Y0170728D02*
D03*
X0293484Y0170728D02*
D03*
D456*
X0284232Y0124173D02*
D03*
X0277146Y0124173D02*
D03*
X0277146Y0114134D02*
D03*
X0284232Y0114134D02*
D03*
X0209232Y0193071D02*
D03*
X0216319Y0193071D02*
D03*
X0216319Y0183032D02*
D03*
X0209232Y0183032D02*
D03*
X0243681Y0221221D02*
D03*
X0250768Y0221221D02*
D03*
X0250768Y0231260D02*
D03*
X0243681Y0231260D02*
D03*
X0262185Y0231260D02*
D03*
X0255098Y0231260D02*
D03*
X0255098Y0221221D02*
D03*
X0262185Y0221221D02*
D03*
X0243681Y0193268D02*
D03*
X0250768Y0193268D02*
D03*
X0250768Y0203307D02*
D03*
X0243681Y0203307D02*
D03*
X0262185Y0203307D02*
D03*
X0255098Y0203307D02*
D03*
X0255098Y0193268D02*
D03*
X0262185Y0193268D02*
D03*
X0209232Y0230866D02*
D03*
X0216319Y0230866D02*
D03*
X0216319Y0220827D02*
D03*
X0209232Y0220827D02*
D03*
X0209232Y0211969D02*
D03*
X0216319Y0211969D02*
D03*
X0216319Y0201930D02*
D03*
X0209232Y0201930D02*
D03*
X0209232Y0174174D02*
D03*
X0216319Y0174174D02*
D03*
X0216319Y0164134D02*
D03*
X0209232Y0164134D02*
D03*
X0209232Y0155276D02*
D03*
X0216319Y0155276D02*
D03*
X0216319Y0145236D02*
D03*
X0209232Y0145236D02*
D03*
X0209232Y0136378D02*
D03*
X0216319Y0136378D02*
D03*
X0216319Y0126339D02*
D03*
X0209232Y0126339D02*
D03*
X0209232Y0117481D02*
D03*
X0216319Y0117481D02*
D03*
X0216319Y0107441D02*
D03*
X0209232Y0107441D02*
D03*
X0214941Y0084213D02*
D03*
X0222027Y0084213D02*
D03*
X0222027Y0094252D02*
D03*
X0214941Y0094252D02*
D03*
D457*
X0284232Y0120729D02*
D03*
X0284232Y0117579D02*
D03*
X0277146Y0117579D02*
D03*
X0277146Y0120729D02*
D03*
X0216319Y0186477D02*
D03*
X0216319Y0189626D02*
D03*
X0209232Y0189626D02*
D03*
X0209232Y0186477D02*
D03*
X0243681Y0224666D02*
D03*
X0243681Y0227815D02*
D03*
X0250768Y0227815D02*
D03*
X0250768Y0224666D02*
D03*
X0262185Y0227815D02*
D03*
X0262185Y0224666D02*
D03*
X0255098Y0224666D02*
D03*
X0255098Y0227815D02*
D03*
X0243681Y0196713D02*
D03*
X0243681Y0199863D02*
D03*
X0250768Y0199863D02*
D03*
X0250768Y0196713D02*
D03*
X0262185Y0199862D02*
D03*
X0262185Y0196713D02*
D03*
X0255098Y0196713D02*
D03*
X0255098Y0199862D02*
D03*
X0216319Y0224272D02*
D03*
X0216319Y0227421D02*
D03*
X0209232Y0227421D02*
D03*
X0209232Y0224272D02*
D03*
X0216319Y0205374D02*
D03*
X0216319Y0208524D02*
D03*
X0209232Y0208524D02*
D03*
X0209232Y0205374D02*
D03*
X0216319Y0167579D02*
D03*
X0216319Y0170729D02*
D03*
X0209232Y0170729D02*
D03*
X0209232Y0167579D02*
D03*
X0216319Y0148681D02*
D03*
X0216319Y0151831D02*
D03*
X0209232Y0151831D02*
D03*
X0209232Y0148681D02*
D03*
X0216319Y0129784D02*
D03*
X0216319Y0132933D02*
D03*
X0209232Y0132933D02*
D03*
X0209232Y0129784D02*
D03*
X0216319Y0110886D02*
D03*
X0216319Y0114036D02*
D03*
X0209232Y0114036D02*
D03*
X0209232Y0110886D02*
D03*
X0214941Y0087658D02*
D03*
X0214941Y0090807D02*
D03*
X0222027Y0090807D02*
D03*
X0222027Y0087658D02*
D03*
D458*
X0311791Y0099075D02*
D03*
X0305492Y0099075D02*
D03*
X0347520Y0152717D02*
D03*
X0353819Y0152717D02*
D03*
X0313760Y0238051D02*
D03*
X0307460Y0238051D02*
D03*
X0304311Y0093563D02*
D03*
X0310610Y0093563D02*
D03*
D459*
X0333248Y0173485D02*
D03*
X0327342Y0173485D02*
D03*
D460*
X0328327Y0182539D02*
D03*
X0328327Y0188839D02*
D03*
X0323701Y0182539D02*
D03*
X0323701Y0188839D02*
D03*
D461*
X0352933Y0230965D02*
D03*
X0352933Y0219548D02*
D03*
D462*
X0292736Y0094548D02*
D03*
X0298957Y0094548D02*
D03*
X0322382Y0166004D02*
D03*
X0316161Y0166004D02*
D03*
D350*
X0268681Y0229154D02*
D03*
X0271240Y0229154D02*
D03*
X0273799Y0229154D02*
D03*
X0276358Y0229154D02*
D03*
X0278917Y0229154D02*
D03*
X0281476Y0229154D02*
D03*
X0284035Y0229154D02*
D03*
X0286594Y0229154D02*
D03*
X0289153Y0229154D02*
D03*
X0291713Y0229154D02*
D03*
X0294271Y0229154D02*
D03*
X0296831Y0229154D02*
D03*
X0268681Y0206161D02*
D03*
X0271240Y0206161D02*
D03*
X0273799Y0206161D02*
D03*
X0276358Y0206161D02*
D03*
X0278917Y0206161D02*
D03*
X0281476Y0206161D02*
D03*
X0284035Y0206161D02*
D03*
X0286594Y0206161D02*
D03*
X0289153Y0206161D02*
D03*
X0291713Y0206161D02*
D03*
X0294271Y0206161D02*
D03*
X0296831Y0206161D02*
D03*
D241*
X0344862Y0085886D02*
D03*
X0344862Y0087854D02*
D03*
X0351161Y0087854D02*
D03*
X0351161Y0085886D02*
D03*
D240*
X0345059Y0090020D02*
D03*
X0347028Y0090020D02*
D03*
X0348996Y0090020D02*
D03*
X0350964Y0090020D02*
D03*
X0345059Y0083720D02*
D03*
X0350964Y0083720D02*
D03*
X0347028Y0083720D02*
D03*
X0348996Y0083720D02*
D03*
X0113571Y0139201D02*
%LPD*%
G01*
D12*
X0171839Y0166366D03*
X0171839Y0161642D03*
X0171839Y0171091D03*
X0171839Y0175815D03*
X0115047Y0150382D03*
X0115047Y0146445D03*
X0148185Y0196996D02*
G01*
G75*
D132*
X0183618Y0207232D02*
D03*
X0183618Y0203492D02*
D03*
X0183618Y0199752D02*
D03*
X0149366Y0203689D02*
D03*
X0149366Y0207232D02*
D03*
D139*
X0176138Y0207232D02*
D03*
X0180075Y0207232D02*
D03*
X0165015Y0207232D02*
D03*
X0161078Y0207232D02*
D03*
X0156649Y0207232D02*
D03*
X0152712Y0207232D02*
D03*
X0176138Y0199949D02*
D03*
X0180075Y0199949D02*
D03*
D131*
X0172753Y0199752D02*
D03*
X0172753Y0203295D02*
D03*
D96*
X0168868Y0206465D02*
D03*
X0168868Y0200244D02*
D03*
D130*
X0156256Y0203295D02*
D03*
X0152713Y0203295D02*
D03*
X0164622Y0199752D02*
D03*
X0161079Y0199752D02*
D03*
X0179484Y0203353D02*
D03*
X0175941Y0203353D02*
D03*
X0152713Y0199752D02*
D03*
X0156256Y0199752D02*
D03*
X0149185Y0095996D02*
G01*
G75*
D132*
X0184618Y0106232D02*
D03*
X0184618Y0102492D02*
D03*
X0184618Y0098752D02*
D03*
X0150366Y0102689D02*
D03*
X0150366Y0106232D02*
D03*
D139*
X0177138Y0106232D02*
D03*
X0181075Y0106232D02*
D03*
X0166015Y0106232D02*
D03*
X0162078Y0106232D02*
D03*
X0157649Y0106232D02*
D03*
X0153712Y0106232D02*
D03*
X0177138Y0098949D02*
D03*
X0181075Y0098949D02*
D03*
D131*
X0173753Y0098752D02*
D03*
X0173753Y0102295D02*
D03*
D96*
X0169868Y0105465D02*
D03*
X0169868Y0099244D02*
D03*
D130*
X0157256Y0102295D02*
D03*
X0153713Y0102295D02*
D03*
X0165622Y0098752D02*
D03*
X0162079Y0098752D02*
D03*
X0180484Y0102353D02*
D03*
X0176941Y0102353D02*
D03*
X0153713Y0098752D02*
D03*
X0157256Y0098752D02*
D03*
M02*
