G75*
G70*
%OFA0B0*%
%FSLAX25Y25*%
%IPPOS*%
%LPD*%
%AMOC8*
5,1,8,0,0,1.08239X$1,22.5*
%
%AMM13*
21,1,0.041340,0.026770,0.000000,0.000000,0.000000*
21,1,0.029130,0.038980,0.000000,0.000000,0.000000*
1,1,0.012210,0.014570,-0.013390*
1,1,0.012210,-0.014570,-0.013390*
1,1,0.012210,-0.014570,0.013390*
1,1,0.012210,0.014570,0.013390*
%
%AMM156*
21,1,0.038980,0.026770,0.000000,-0.000000,90.000000*
21,1,0.026770,0.038980,0.000000,-0.000000,90.000000*
1,1,0.012210,0.013390,0.013390*
1,1,0.012210,0.013390,-0.013390*
1,1,0.012210,-0.013390,-0.013390*
1,1,0.012210,-0.013390,0.013390*
%
%AMM157*
21,1,0.041340,0.026770,0.000000,-0.000000,270.000000*
21,1,0.029130,0.038980,0.000000,-0.000000,270.000000*
1,1,0.012210,-0.013390,-0.014570*
1,1,0.012210,-0.013390,0.014570*
1,1,0.012210,0.013390,0.014570*
1,1,0.012210,0.013390,-0.014570*
%
%AMM158*
21,1,0.033070,0.030710,0.000000,-0.000000,270.000000*
21,1,0.022050,0.041730,0.000000,-0.000000,270.000000*
1,1,0.011020,-0.015350,-0.011020*
1,1,0.011020,-0.015350,0.011020*
1,1,0.011020,0.015350,0.011020*
1,1,0.011020,0.015350,-0.011020*
%
%AMM159*
21,1,0.040950,0.030320,0.000000,-0.000000,270.000000*
21,1,0.028350,0.042910,0.000000,-0.000000,270.000000*
1,1,0.012600,-0.015160,-0.014170*
1,1,0.012600,-0.015160,0.014170*
1,1,0.012600,0.015160,0.014170*
1,1,0.012600,0.015160,-0.014170*
%
%AMM160*
21,1,0.038980,0.026770,0.000000,-0.000000,180.000000*
21,1,0.026770,0.038980,0.000000,-0.000000,180.000000*
1,1,0.012210,-0.013390,0.013390*
1,1,0.012210,0.013390,0.013390*
1,1,0.012210,0.013390,-0.013390*
1,1,0.012210,-0.013390,-0.013390*
%
%AMM289*
21,1,0.039370,0.030320,0.000000,-0.000000,0.000000*
21,1,0.028350,0.041340,0.000000,-0.000000,0.000000*
1,1,0.011020,0.014170,-0.015160*
1,1,0.011020,-0.014170,-0.015160*
1,1,0.011020,-0.014170,0.015160*
1,1,0.011020,0.014170,0.015160*
%
%AMM290*
21,1,0.047240,0.075980,0.000000,-0.000000,270.000000*
21,1,0.034650,0.088580,0.000000,-0.000000,270.000000*
1,1,0.012600,-0.037990,-0.017320*
1,1,0.012600,-0.037990,0.017320*
1,1,0.012600,0.037990,0.017320*
1,1,0.012600,0.037990,-0.017320*
%
%AMM291*
21,1,0.047240,0.075990,0.000000,-0.000000,270.000000*
21,1,0.034650,0.088580,0.000000,-0.000000,270.000000*
1,1,0.012600,-0.037990,-0.017320*
1,1,0.012600,-0.037990,0.017320*
1,1,0.012600,0.037990,0.017320*
1,1,0.012600,0.037990,-0.017320*
%
%AMM292*
21,1,0.141730,0.067720,0.000000,-0.000000,270.000000*
21,1,0.120870,0.088580,0.000000,-0.000000,270.000000*
1,1,0.020870,-0.033860,-0.060430*
1,1,0.020870,-0.033860,0.060430*
1,1,0.020870,0.033860,0.060430*
1,1,0.020870,0.033860,-0.060430*
%
%AMM293*
21,1,0.043310,0.035430,0.000000,-0.000000,270.000000*
21,1,0.031500,0.047240,0.000000,-0.000000,270.000000*
1,1,0.011810,-0.017720,-0.015750*
1,1,0.011810,-0.017720,0.015750*
1,1,0.011810,0.017720,0.015750*
1,1,0.011810,0.017720,-0.015750*
%
%AMM294*
21,1,0.027560,0.030710,0.000000,-0.000000,90.000000*
21,1,0.018900,0.039370,0.000000,-0.000000,90.000000*
1,1,0.008660,0.015350,0.009450*
1,1,0.008660,0.015350,-0.009450*
1,1,0.008660,-0.015350,-0.009450*
1,1,0.008660,-0.015350,0.009450*
%
%AMM295*
21,1,0.031500,0.018900,0.000000,-0.000000,90.000000*
21,1,0.022840,0.027560,0.000000,-0.000000,90.000000*
1,1,0.008660,0.009450,0.011420*
1,1,0.008660,0.009450,-0.011420*
1,1,0.008660,-0.009450,-0.011420*
1,1,0.008660,-0.009450,0.011420*
%
%AMM296*
21,1,0.027560,0.030710,0.000000,-0.000000,180.000000*
21,1,0.018900,0.039370,0.000000,-0.000000,180.000000*
1,1,0.008660,-0.009450,0.015350*
1,1,0.008660,0.009450,0.015350*
1,1,0.008660,0.009450,-0.015350*
1,1,0.008660,-0.009450,-0.015350*
%
%AMM297*
21,1,0.090550,0.073230,0.000000,-0.000000,0.000000*
21,1,0.069290,0.094490,0.000000,-0.000000,0.000000*
1,1,0.021260,0.034650,-0.036610*
1,1,0.021260,-0.034650,-0.036610*
1,1,0.021260,-0.034650,0.036610*
1,1,0.021260,0.034650,0.036610*
%
%AMM298*
21,1,0.029530,0.026380,0.000000,-0.000000,0.000000*
21,1,0.020470,0.035430,0.000000,-0.000000,0.000000*
1,1,0.009060,0.010240,-0.013190*
1,1,0.009060,-0.010240,-0.013190*
1,1,0.009060,-0.010240,0.013190*
1,1,0.009060,0.010240,0.013190*
%
%AMM299*
21,1,0.021650,0.027950,0.000000,-0.000000,0.000000*
21,1,0.014170,0.035430,0.000000,-0.000000,0.000000*
1,1,0.007480,0.007090,-0.013980*
1,1,0.007480,-0.007090,-0.013980*
1,1,0.007480,-0.007090,0.013980*
1,1,0.007480,0.007090,0.013980*
%
%AMM300*
21,1,0.035430,0.072440,0.000000,-0.000000,0.000000*
21,1,0.025200,0.082680,0.000000,-0.000000,0.000000*
1,1,0.010240,0.012600,-0.036220*
1,1,0.010240,-0.012600,-0.036220*
1,1,0.010240,-0.012600,0.036220*
1,1,0.010240,0.012600,0.036220*
%
%AMM301*
21,1,0.016540,0.028980,0.000000,-0.000000,0.000000*
21,1,0.010080,0.035430,0.000000,-0.000000,0.000000*
1,1,0.006460,0.005040,-0.014490*
1,1,0.006460,-0.005040,-0.014490*
1,1,0.006460,-0.005040,0.014490*
1,1,0.006460,0.005040,0.014490*
%
%AMM302*
21,1,0.016540,0.028980,0.000000,-0.000000,90.000000*
21,1,0.010080,0.035430,0.000000,-0.000000,90.000000*
1,1,0.006460,0.014490,0.005040*
1,1,0.006460,0.014490,-0.005040*
1,1,0.006460,-0.014490,-0.005040*
1,1,0.006460,-0.014490,0.005040*
%
%AMM303*
21,1,0.043310,0.035430,0.000000,-0.000000,180.000000*
21,1,0.031500,0.047240,0.000000,-0.000000,180.000000*
1,1,0.011810,-0.015750,0.017720*
1,1,0.011810,0.015750,0.017720*
1,1,0.011810,0.015750,-0.017720*
1,1,0.011810,-0.015750,-0.017720*
%
%AMM304*
21,1,0.031500,0.018900,0.000000,-0.000000,0.000000*
21,1,0.022840,0.027560,0.000000,-0.000000,0.000000*
1,1,0.008660,0.011420,-0.009450*
1,1,0.008660,-0.011420,-0.009450*
1,1,0.008660,-0.011420,0.009450*
1,1,0.008660,0.011420,0.009450*
%
%AMM33*
21,1,0.092130,0.073230,0.000000,0.000000,270.000000*
21,1,0.069290,0.096060,0.000000,0.000000,270.000000*
1,1,0.022840,-0.036610,-0.034650*
1,1,0.022840,-0.036610,0.034650*
1,1,0.022840,0.036610,0.034650*
1,1,0.022840,0.036610,-0.034650*
%
%AMM34*
21,1,0.100000,0.111020,0.000000,0.000000,0.000000*
21,1,0.075590,0.135430,0.000000,0.000000,0.000000*
1,1,0.024410,0.037800,-0.055510*
1,1,0.024410,-0.037800,-0.055510*
1,1,0.024410,-0.037800,0.055510*
1,1,0.024410,0.037800,0.055510*
%
%AMM35*
21,1,0.080320,0.083460,0.000000,0.000000,0.000000*
21,1,0.059840,0.103940,0.000000,0.000000,0.000000*
1,1,0.020470,0.029920,-0.041730*
1,1,0.020470,-0.029920,-0.041730*
1,1,0.020470,-0.029920,0.041730*
1,1,0.020470,0.029920,0.041730*
%
%AMM36*
21,1,0.084250,0.053540,0.000000,0.000000,180.000000*
21,1,0.065350,0.072440,0.000000,0.000000,180.000000*
1,1,0.018900,-0.032680,0.026770*
1,1,0.018900,0.032680,0.026770*
1,1,0.018900,0.032680,-0.026770*
1,1,0.018900,-0.032680,-0.026770*
%
%AMM37*
21,1,0.040950,0.030320,0.000000,0.000000,90.000000*
21,1,0.028350,0.042910,0.000000,0.000000,90.000000*
1,1,0.012600,0.015160,0.014170*
1,1,0.012600,0.015160,-0.014170*
1,1,0.012600,-0.015160,-0.014170*
1,1,0.012600,-0.015160,0.014170*
%
%AMM38*
21,1,0.027170,0.052760,0.000000,0.000000,270.000000*
21,1,0.017320,0.062600,0.000000,0.000000,270.000000*
1,1,0.009840,-0.026380,-0.008660*
1,1,0.009840,-0.026380,0.008660*
1,1,0.009840,0.026380,0.008660*
1,1,0.009840,0.026380,-0.008660*
%
%AMM39*
21,1,0.076380,0.036220,0.000000,0.000000,90.000000*
21,1,0.061810,0.050790,0.000000,0.000000,90.000000*
1,1,0.014570,0.018110,0.030910*
1,1,0.014570,0.018110,-0.030910*
1,1,0.014570,-0.018110,-0.030910*
1,1,0.014570,-0.018110,0.030910*
%
%AMM40*
21,1,0.038980,0.026770,0.000000,0.000000,0.000000*
21,1,0.026770,0.038980,0.000000,0.000000,0.000000*
1,1,0.012210,0.013390,-0.013390*
1,1,0.012210,-0.013390,-0.013390*
1,1,0.012210,-0.013390,0.013390*
1,1,0.012210,0.013390,0.013390*
%
%AMM41*
21,1,0.021260,0.016540,0.000000,0.000000,270.000000*
21,1,0.012600,0.025200,0.000000,0.000000,270.000000*
1,1,0.008660,-0.008270,-0.006300*
1,1,0.008660,-0.008270,0.006300*
1,1,0.008660,0.008270,0.006300*
1,1,0.008660,0.008270,-0.006300*
%
%AMM42*
21,1,0.029130,0.018900,0.000000,0.000000,90.000000*
21,1,0.018900,0.029130,0.000000,0.000000,90.000000*
1,1,0.010240,0.009450,0.009450*
1,1,0.010240,0.009450,-0.009450*
1,1,0.010240,-0.009450,-0.009450*
1,1,0.010240,-0.009450,0.009450*
%
%AMM43*
21,1,0.025200,0.019680,0.000000,0.000000,0.000000*
21,1,0.015750,0.029130,0.000000,0.000000,0.000000*
1,1,0.009450,0.007870,-0.009840*
1,1,0.009450,-0.007870,-0.009840*
1,1,0.009450,-0.007870,0.009840*
1,1,0.009450,0.007870,0.009840*
%
%AMM44*
21,1,0.025200,0.019680,0.000000,0.000000,270.000000*
21,1,0.015750,0.029130,0.000000,0.000000,270.000000*
1,1,0.009450,-0.009840,-0.007870*
1,1,0.009450,-0.009840,0.007870*
1,1,0.009450,0.009840,0.007870*
1,1,0.009450,0.009840,-0.007870*
%
%ADD110M33*%
%ADD111M34*%
%ADD112M35*%
%ADD113M36*%
%ADD114M37*%
%ADD115M38*%
%ADD116M39*%
%ADD117M40*%
%ADD118M41*%
%ADD119M42*%
%ADD12C,0.02362*%
%ADD120M43*%
%ADD121M44*%
%ADD122C,0.02913*%
%ADD172O,0.01260X0.05512*%
%ADD173O,0.05512X0.01260*%
%ADD180C,0.03494*%
%ADD184C,0.03543*%
%ADD188O,0.01575X0.04724*%
%ADD189O,0.04724X0.01575*%
%ADD193R,0.01870X0.01772*%
%ADD194R,0.01772X0.01870*%
%ADD197C,0.04294*%
%ADD198C,0.04724*%
%ADD234R,0.05512X0.01181*%
%ADD249O,0.11772X0.04567*%
%ADD25R,0.12000X0.05500*%
%ADD26R,0.23300X0.21700*%
%ADD290M156*%
%ADD291M157*%
%ADD292M158*%
%ADD293M159*%
%ADD294M160*%
%ADD32C,0.05906*%
%ADD329O,0.02756X0.09055*%
%ADD42C,0.07874*%
%ADD43R,0.02800X0.05100*%
%ADD432M289*%
%ADD433M290*%
%ADD434M291*%
%ADD435M292*%
%ADD436M293*%
%ADD437M294*%
%ADD438M295*%
%ADD439M296*%
%ADD44R,0.05100X0.02800*%
%ADD440M297*%
%ADD441M298*%
%ADD442M299*%
%ADD443M300*%
%ADD444M301*%
%ADD445M302*%
%ADD446M303*%
%ADD447M304*%
%ADD45R,0.03500X0.03500*%
%ADD46R,0.06693X0.06693*%
%ADD47O,0.06693X0.06693*%
%ADD48R,0.05750X0.02100*%
%ADD51C,0.06299*%
%ADD55C,0.02559*%
%ADD56C,0.14173*%
%ADD57C,0.08268*%
%ADD81M13*%
%ADD85C,0.06457*%
%ADD86R,0.06457X0.06457*%
X0000000Y0000000D02*
%LPD*%
G01*
G36*
G01*
X0368071Y0074728D02*
X0368071Y0073272D01*
G75*
G02*
X0367539Y0072740I-000531J0000000D01*
G01*
X0366476Y0072740D01*
G75*
G02*
X0365945Y0073272I0000000J0000531D01*
G01*
X0365945Y0074728D01*
G75*
G02*
X0366476Y0075260I0000531J0000000D01*
G01*
X0367539Y0075260D01*
G75*
G02*
X0368071Y0074728I0000000J-000531D01*
G01*
G37*
G36*
G01*
X0364055Y0074728D02*
X0364055Y0073272D01*
G75*
G02*
X0363524Y0072740I-000531J0000000D01*
G01*
X0362461Y0072740D01*
G75*
G02*
X0361929Y0073272I0000000J0000531D01*
G01*
X0361929Y0074728D01*
G75*
G02*
X0362461Y0075260I0000531J0000000D01*
G01*
X0363524Y0075260D01*
G75*
G02*
X0364055Y0074728I0000000J-000531D01*
G01*
G37*
G36*
G01*
X0341228Y0387016D02*
X0341228Y0388984D01*
G75*
G02*
X0342114Y0389870I0000886J0000000D01*
G01*
X0343886Y0389870D01*
G75*
G02*
X0344772Y0388984I0000000J-000886D01*
G01*
X0344772Y0387016D01*
G75*
G02*
X0343886Y0386130I-000886J0000000D01*
G01*
X0342114Y0386130D01*
G75*
G02*
X0341228Y0387016I0000000J0000886D01*
G01*
G37*
G36*
G01*
X0347331Y0387016D02*
X0347331Y0388984D01*
G75*
G02*
X0348217Y0389870I0000886J0000000D01*
G01*
X0349988Y0389870D01*
G75*
G02*
X0350874Y0388984I0000000J-000886D01*
G01*
X0350874Y0387016D01*
G75*
G02*
X0349988Y0386130I-000886J0000000D01*
G01*
X0348217Y0386130D01*
G75*
G02*
X0347331Y0387016I0000000J0000886D01*
G01*
G37*
G36*
G01*
X0136272Y0072071D02*
X0137728Y0072071D01*
G75*
G02*
X0138260Y0071539I0000000J-000531D01*
G01*
X0138260Y0070476D01*
G75*
G02*
X0137728Y0069945I-000531J0000000D01*
G01*
X0136272Y0069945D01*
G75*
G02*
X0135740Y0070476I0000000J0000531D01*
G01*
X0135740Y0071539D01*
G75*
G02*
X0136272Y0072071I0000531J0000000D01*
G01*
G37*
G36*
G01*
X0136272Y0068055D02*
X0137728Y0068055D01*
G75*
G02*
X0138260Y0067524I0000000J-000531D01*
G01*
X0138260Y0066461D01*
G75*
G02*
X0137728Y0065929I-000531J0000000D01*
G01*
X0136272Y0065929D01*
G75*
G02*
X0135740Y0066461I0000000J0000531D01*
G01*
X0135740Y0067524D01*
G75*
G02*
X0136272Y0068055I0000531J0000000D01*
G01*
G37*
G36*
G01*
X0304272Y0314154D02*
X0305728Y0314154D01*
G75*
G02*
X0306260Y0313622I0000000J-000531D01*
G01*
X0306260Y0312559D01*
G75*
G02*
X0305728Y0312028I-000531J0000000D01*
G01*
X0304272Y0312028D01*
G75*
G02*
X0303740Y0312559I0000000J0000531D01*
G01*
X0303740Y0313622D01*
G75*
G02*
X0304272Y0314154I0000531J0000000D01*
G01*
G37*
G36*
G01*
X0304272Y0310138D02*
X0305728Y0310138D01*
G75*
G02*
X0306260Y0309606I0000000J-000531D01*
G01*
X0306260Y0308543D01*
G75*
G02*
X0305728Y0308012I-000531J0000000D01*
G01*
X0304272Y0308012D01*
G75*
G02*
X0303740Y0308543I0000000J0000531D01*
G01*
X0303740Y0309606D01*
G75*
G02*
X0304272Y0310138I0000531J0000000D01*
G01*
G37*
G36*
G01*
X0368063Y0086728D02*
X0368063Y0085272D01*
G75*
G02*
X0367531Y0084740I-000531J0000000D01*
G01*
X0366469Y0084740D01*
G75*
G02*
X0365937Y0085272I0000000J0000531D01*
G01*
X0365937Y0086728D01*
G75*
G02*
X0366469Y0087260I0000531J0000000D01*
G01*
X0367531Y0087260D01*
G75*
G02*
X0368063Y0086728I0000000J-000531D01*
G01*
G37*
G36*
G01*
X0364047Y0086728D02*
X0364047Y0085272D01*
G75*
G02*
X0363516Y0084740I-000531J0000000D01*
G01*
X0362453Y0084740D01*
G75*
G02*
X0361921Y0085272I0000000J0000531D01*
G01*
X0361921Y0086728D01*
G75*
G02*
X0362453Y0087260I0000531J0000000D01*
G01*
X0363516Y0087260D01*
G75*
G02*
X0364047Y0086728I0000000J-000531D01*
G01*
G37*
D25*
X0135410Y0294921D03*
D26*
X0106460Y0303937D03*
D25*
X0135410Y0312953D03*
G36*
G01*
X0361303Y0310321D02*
X0361303Y0311679D01*
G75*
G02*
X0361884Y0312260I0000581J0000000D01*
G01*
X0363045Y0312260D01*
G75*
G02*
X0363626Y0311679I0000000J-000581D01*
G01*
X0363626Y0310321D01*
G75*
G02*
X0363045Y0309740I-000581J0000000D01*
G01*
X0361884Y0309740D01*
G75*
G02*
X0361303Y0310321I0000000J0000581D01*
G01*
G37*
G36*
G01*
X0365122Y0310321D02*
X0365122Y0311679D01*
G75*
G02*
X0365703Y0312260I0000581J0000000D01*
G01*
X0366864Y0312260D01*
G75*
G02*
X0367445Y0311679I0000000J-000581D01*
G01*
X0367445Y0310321D01*
G75*
G02*
X0366864Y0309740I-000581J0000000D01*
G01*
X0365703Y0309740D01*
G75*
G02*
X0365122Y0310321I0000000J0000581D01*
G01*
G37*
D12*
X0156839Y0178366D03*
X0156839Y0173642D03*
X0156839Y0183091D03*
X0156839Y0187815D03*
X0100047Y0162382D03*
X0100047Y0158445D03*
G36*
G01*
X0325118Y0310331D02*
X0325118Y0311669D01*
G75*
G02*
X0325669Y0312220I0000551J0000000D01*
G01*
X0326772Y0312220D01*
G75*
G02*
X0327323Y0311669I0000000J-000551D01*
G01*
X0327323Y0310331D01*
G75*
G02*
X0326772Y0309780I-000551J0000000D01*
G01*
X0325669Y0309780D01*
G75*
G02*
X0325118Y0310331I0000000J0000551D01*
G01*
G37*
G36*
G01*
X0328898Y0310331D02*
X0328898Y0311669D01*
G75*
G02*
X0329449Y0312220I0000551J0000000D01*
G01*
X0330551Y0312220D01*
G75*
G02*
X0331102Y0311669I0000000J-000551D01*
G01*
X0331102Y0310331D01*
G75*
G02*
X0330551Y0309780I-000551J0000000D01*
G01*
X0329449Y0309780D01*
G75*
G02*
X0328898Y0310331I0000000J0000551D01*
G01*
G37*
G36*
G01*
X0154823Y0265083D02*
X0154823Y0262917D01*
G75*
G02*
X0154035Y0262130I-000787J0000000D01*
G01*
X0152461Y0262130D01*
G75*
G02*
X0151673Y0262917I0000000J0000787D01*
G01*
X0151673Y0265083D01*
G75*
G02*
X0152461Y0265870I0000787J0000000D01*
G01*
X0154035Y0265870D01*
G75*
G02*
X0154823Y0265083I0000000J-000787D01*
G01*
G37*
G36*
G01*
X0148327Y0265083D02*
X0148327Y0262917D01*
G75*
G02*
X0147539Y0262130I-000787J0000000D01*
G01*
X0145965Y0262130D01*
G75*
G02*
X0145177Y0262917I0000000J0000787D01*
G01*
X0145177Y0265083D01*
G75*
G02*
X0145965Y0265870I0000787J0000000D01*
G01*
X0147539Y0265870D01*
G75*
G02*
X0148327Y0265083I0000000J-000787D01*
G01*
G37*
G36*
G01*
X0304321Y0322161D02*
X0305679Y0322161D01*
G75*
G02*
X0306260Y0321581I0000000J-000581D01*
G01*
X0306260Y0320419D01*
G75*
G02*
X0305679Y0319839I-000581J0000000D01*
G01*
X0304321Y0319839D01*
G75*
G02*
X0303740Y0320419I0000000J0000581D01*
G01*
X0303740Y0321581D01*
G75*
G02*
X0304321Y0322161I0000581J0000000D01*
G01*
G37*
G36*
G01*
X0304321Y0318343D02*
X0305679Y0318343D01*
G75*
G02*
X0306260Y0317762I0000000J-000581D01*
G01*
X0306260Y0316600D01*
G75*
G02*
X0305679Y0316020I-000581J0000000D01*
G01*
X0304321Y0316020D01*
G75*
G02*
X0303740Y0316600I0000000J0000581D01*
G01*
X0303740Y0317762D01*
G75*
G02*
X0304321Y0318343I0000581J0000000D01*
G01*
G37*
G36*
G01*
X0354679Y0381929D02*
X0353321Y0381929D01*
G75*
G02*
X0352740Y0382510I0000000J0000581D01*
G01*
X0352740Y0383671D01*
G75*
G02*
X0353321Y0384252I0000581J0000000D01*
G01*
X0354679Y0384252D01*
G75*
G02*
X0355260Y0383671I0000000J-000581D01*
G01*
X0355260Y0382510D01*
G75*
G02*
X0354679Y0381929I-000581J0000000D01*
G01*
G37*
G36*
G01*
X0354679Y0385748D02*
X0353321Y0385748D01*
G75*
G02*
X0352740Y0386329I0000000J0000581D01*
G01*
X0352740Y0387490D01*
G75*
G02*
X0353321Y0388071I0000581J0000000D01*
G01*
X0354679Y0388071D01*
G75*
G02*
X0355260Y0387490I0000000J-000581D01*
G01*
X0355260Y0386329D01*
G75*
G02*
X0354679Y0385748I-000581J0000000D01*
G01*
G37*
D25*
X0135410Y0264606D03*
D26*
X0106460Y0273622D03*
D25*
X0135410Y0282638D03*
D32*
X0227004Y0373713D03*
X0227004Y0348516D03*
X0227004Y0341035D03*
X0227004Y0324106D03*
D12*
X0228776Y0314657D03*
X0228776Y0310720D03*
D32*
X0227004Y0299500D03*
X0165980Y0375484D03*
X0165980Y0368201D03*
X0165980Y0348713D03*
X0165980Y0301272D03*
G36*
G01*
X0154823Y0296083D02*
X0154823Y0293917D01*
G75*
G02*
X0154035Y0293130I-000787J0000000D01*
G01*
X0152461Y0293130D01*
G75*
G02*
X0151673Y0293917I0000000J0000787D01*
G01*
X0151673Y0296083D01*
G75*
G02*
X0152461Y0296870I0000787J0000000D01*
G01*
X0154035Y0296870D01*
G75*
G02*
X0154823Y0296083I0000000J-000787D01*
G01*
G37*
G36*
G01*
X0148327Y0296083D02*
X0148327Y0293917D01*
G75*
G02*
X0147539Y0293130I-000787J0000000D01*
G01*
X0145965Y0293130D01*
G75*
G02*
X0145177Y0293917I0000000J0000787D01*
G01*
X0145177Y0296083D01*
G75*
G02*
X0145965Y0296870I0000787J0000000D01*
G01*
X0147539Y0296870D01*
G75*
G02*
X0148327Y0296083I0000000J-000787D01*
G01*
G37*
D42*
X0353000Y0241000D03*
D43*
X0373937Y0376000D03*
X0370000Y0376000D03*
X0366063Y0376000D03*
X0362126Y0376000D03*
X0358189Y0376000D03*
X0354252Y0376000D03*
X0350315Y0376000D03*
X0346378Y0376000D03*
X0342441Y0376000D03*
X0338504Y0376000D03*
X0334567Y0376000D03*
X0330630Y0376000D03*
X0326693Y0376000D03*
D44*
X0320197Y0370488D03*
X0320197Y0366551D03*
X0320197Y0362614D03*
X0320197Y0358677D03*
X0320197Y0354740D03*
X0320197Y0350803D03*
X0320197Y0346866D03*
X0320197Y0342929D03*
X0320197Y0338992D03*
X0320197Y0335055D03*
X0320197Y0331118D03*
X0320197Y0327181D03*
X0320197Y0323244D03*
D43*
X0326693Y0317732D03*
X0330630Y0317732D03*
X0334567Y0317732D03*
X0338504Y0317732D03*
X0342441Y0317732D03*
X0346378Y0317732D03*
X0350315Y0317732D03*
X0354252Y0317732D03*
X0358189Y0317732D03*
X0362126Y0317732D03*
X0366063Y0317732D03*
X0370000Y0317732D03*
X0373937Y0317732D03*
D45*
X0351102Y0354268D03*
X0351102Y0349543D03*
X0351102Y0344819D03*
X0346378Y0354268D03*
X0346378Y0349543D03*
X0346378Y0344819D03*
X0341654Y0354268D03*
X0341654Y0349543D03*
X0341654Y0344819D03*
D42*
X0246000Y0349000D03*
D46*
X0363941Y0292480D03*
D47*
X0353941Y0292480D03*
X0343941Y0292480D03*
D48*
X0130804Y0095236D03*
X0130804Y0100236D03*
X0130804Y0105236D03*
X0130804Y0110236D03*
X0109354Y0110236D03*
X0109354Y0105236D03*
X0109354Y0100236D03*
X0109354Y0095236D03*
G36*
G01*
X0345008Y0382331D02*
X0345008Y0383669D01*
G75*
G02*
X0345559Y0384220I0000551J0000000D01*
G01*
X0346661Y0384220D01*
G75*
G02*
X0347213Y0383669I0000000J-000551D01*
G01*
X0347213Y0382331D01*
G75*
G02*
X0346661Y0381780I-000551J0000000D01*
G01*
X0345559Y0381780D01*
G75*
G02*
X0345008Y0382331I0000000J0000551D01*
G01*
G37*
G36*
G01*
X0348787Y0382331D02*
X0348787Y0383669D01*
G75*
G02*
X0349339Y0384220I0000551J0000000D01*
G01*
X0350441Y0384220D01*
G75*
G02*
X0350992Y0383669I0000000J-000551D01*
G01*
X0350992Y0382331D01*
G75*
G02*
X0350441Y0381780I-000551J0000000D01*
G01*
X0349339Y0381780D01*
G75*
G02*
X0348787Y0382331I0000000J0000551D01*
G01*
G37*
D42*
X0245947Y0331947D03*
G36*
G01*
X0087272Y0379071D02*
X0088728Y0379071D01*
G75*
G02*
X0089260Y0378539I0000000J-000531D01*
G01*
X0089260Y0377476D01*
G75*
G02*
X0088728Y0376945I-000531J0000000D01*
G01*
X0087272Y0376945D01*
G75*
G02*
X0086740Y0377476I0000000J0000531D01*
G01*
X0086740Y0378539D01*
G75*
G02*
X0087272Y0379071I0000531J0000000D01*
G01*
G37*
G36*
G01*
X0087272Y0375055D02*
X0088728Y0375055D01*
G75*
G02*
X0089260Y0374524I0000000J-000531D01*
G01*
X0089260Y0373461D01*
G75*
G02*
X0088728Y0372929I-000531J0000000D01*
G01*
X0087272Y0372929D01*
G75*
G02*
X0086740Y0373461I0000000J0000531D01*
G01*
X0086740Y0374524D01*
G75*
G02*
X0087272Y0375055I0000531J0000000D01*
G01*
G37*
D12*
X0134618Y0204232D03*
X0134618Y0200492D03*
X0134618Y0196752D03*
X0100366Y0200689D03*
X0100366Y0204232D03*
D55*
X0377539Y0067362D03*
X0377539Y0090118D03*
G36*
G01*
X0374980Y0064961D02*
X0371634Y0064961D01*
G75*
G02*
X0371043Y0065551I0000000J0000591D01*
G01*
X0371043Y0066732D01*
G75*
G02*
X0371634Y0067323I0000591J0000000D01*
G01*
X0374980Y0067323D01*
G75*
G02*
X0375571Y0066732I0000000J-000591D01*
G01*
X0375571Y0065551D01*
G75*
G02*
X0374980Y0064961I-000591J0000000D01*
G01*
G37*
G36*
G01*
X0374980Y0068110D02*
X0371634Y0068110D01*
G75*
G02*
X0371043Y0068701I0000000J0000591D01*
G01*
X0371043Y0069882D01*
G75*
G02*
X0371634Y0070472I0000591J0000000D01*
G01*
X0374980Y0070472D01*
G75*
G02*
X0375571Y0069882I0000000J-000591D01*
G01*
X0375571Y0068701D01*
G75*
G02*
X0374980Y0068110I-000591J0000000D01*
G01*
G37*
G36*
G01*
X0375276Y0073228D02*
X0371339Y0073228D01*
G75*
G02*
X0371043Y0073524I0000000J0000295D01*
G01*
X0371043Y0074114D01*
G75*
G02*
X0371339Y0074409I0000295J0000000D01*
G01*
X0375276Y0074409D01*
G75*
G02*
X0375571Y0074114I0000000J-000295D01*
G01*
X0375571Y0073524D01*
G75*
G02*
X0375276Y0073228I-000295J0000000D01*
G01*
G37*
G36*
G01*
X0375276Y0077165D02*
X0371339Y0077165D01*
G75*
G02*
X0371043Y0077461I0000000J0000295D01*
G01*
X0371043Y0078051D01*
G75*
G02*
X0371339Y0078346I0000295J0000000D01*
G01*
X0375276Y0078346D01*
G75*
G02*
X0375571Y0078051I0000000J-000295D01*
G01*
X0375571Y0077461D01*
G75*
G02*
X0375276Y0077165I-000295J0000000D01*
G01*
G37*
G36*
G01*
X0375276Y0079134D02*
X0371339Y0079134D01*
G75*
G02*
X0371043Y0079429I0000000J0000295D01*
G01*
X0371043Y0080020D01*
G75*
G02*
X0371339Y0080315I0000295J0000000D01*
G01*
X0375276Y0080315D01*
G75*
G02*
X0375571Y0080020I0000000J-000295D01*
G01*
X0375571Y0079429D01*
G75*
G02*
X0375276Y0079134I-000295J0000000D01*
G01*
G37*
G36*
G01*
X0375276Y0083071D02*
X0371339Y0083071D01*
G75*
G02*
X0371043Y0083366I0000000J0000295D01*
G01*
X0371043Y0083957D01*
G75*
G02*
X0371339Y0084252I0000295J0000000D01*
G01*
X0375276Y0084252D01*
G75*
G02*
X0375571Y0083957I0000000J-000295D01*
G01*
X0375571Y0083366D01*
G75*
G02*
X0375276Y0083071I-000295J0000000D01*
G01*
G37*
G36*
G01*
X0374980Y0087008D02*
X0371634Y0087008D01*
G75*
G02*
X0371043Y0087598I0000000J0000591D01*
G01*
X0371043Y0088780D01*
G75*
G02*
X0371634Y0089370I0000591J0000000D01*
G01*
X0374980Y0089370D01*
G75*
G02*
X0375571Y0088780I0000000J-000591D01*
G01*
X0375571Y0087598D01*
G75*
G02*
X0374980Y0087008I-000591J0000000D01*
G01*
G37*
G36*
G01*
X0374980Y0090157D02*
X0371634Y0090157D01*
G75*
G02*
X0371043Y0090748I0000000J0000591D01*
G01*
X0371043Y0091929D01*
G75*
G02*
X0371634Y0092520I0000591J0000000D01*
G01*
X0374980Y0092520D01*
G75*
G02*
X0375571Y0091929I0000000J-000591D01*
G01*
X0375571Y0090748D01*
G75*
G02*
X0374980Y0090157I-000591J0000000D01*
G01*
G37*
G36*
G01*
X0374980Y0090157D02*
X0371634Y0090157D01*
G75*
G02*
X0371043Y0090748I0000000J0000591D01*
G01*
X0371043Y0091929D01*
G75*
G02*
X0371634Y0092520I0000591J0000000D01*
G01*
X0374980Y0092520D01*
G75*
G02*
X0375571Y0091929I0000000J-000591D01*
G01*
X0375571Y0090748D01*
G75*
G02*
X0374980Y0090157I-000591J0000000D01*
G01*
G37*
G36*
G01*
X0374980Y0087008D02*
X0371634Y0087008D01*
G75*
G02*
X0371043Y0087598I0000000J0000591D01*
G01*
X0371043Y0088780D01*
G75*
G02*
X0371634Y0089370I0000591J0000000D01*
G01*
X0374980Y0089370D01*
G75*
G02*
X0375571Y0088780I0000000J-000591D01*
G01*
X0375571Y0087598D01*
G75*
G02*
X0374980Y0087008I-000591J0000000D01*
G01*
G37*
G36*
G01*
X0375276Y0085039D02*
X0371339Y0085039D01*
G75*
G02*
X0371043Y0085335I0000000J0000295D01*
G01*
X0371043Y0085925D01*
G75*
G02*
X0371339Y0086220I0000295J0000000D01*
G01*
X0375276Y0086220D01*
G75*
G02*
X0375571Y0085925I0000000J-000295D01*
G01*
X0375571Y0085335D01*
G75*
G02*
X0375276Y0085039I-000295J0000000D01*
G01*
G37*
G36*
G01*
X0375276Y0081102D02*
X0371339Y0081102D01*
G75*
G02*
X0371043Y0081398I0000000J0000295D01*
G01*
X0371043Y0081988D01*
G75*
G02*
X0371339Y0082283I0000295J0000000D01*
G01*
X0375276Y0082283D01*
G75*
G02*
X0375571Y0081988I0000000J-000295D01*
G01*
X0375571Y0081398D01*
G75*
G02*
X0375276Y0081102I-000295J0000000D01*
G01*
G37*
G36*
G01*
X0375276Y0075197D02*
X0371339Y0075197D01*
G75*
G02*
X0371043Y0075492I0000000J0000295D01*
G01*
X0371043Y0076083D01*
G75*
G02*
X0371339Y0076378I0000295J0000000D01*
G01*
X0375276Y0076378D01*
G75*
G02*
X0375571Y0076083I0000000J-000295D01*
G01*
X0375571Y0075492D01*
G75*
G02*
X0375276Y0075197I-000295J0000000D01*
G01*
G37*
G36*
G01*
X0375276Y0071260D02*
X0371339Y0071260D01*
G75*
G02*
X0371043Y0071555I0000000J0000295D01*
G01*
X0371043Y0072146D01*
G75*
G02*
X0371339Y0072441I0000295J0000000D01*
G01*
X0375276Y0072441D01*
G75*
G02*
X0375571Y0072146I0000000J-000295D01*
G01*
X0375571Y0071555D01*
G75*
G02*
X0375276Y0071260I-000295J0000000D01*
G01*
G37*
G36*
G01*
X0374980Y0068110D02*
X0371634Y0068110D01*
G75*
G02*
X0371043Y0068701I0000000J0000591D01*
G01*
X0371043Y0069882D01*
G75*
G02*
X0371634Y0070472I0000591J0000000D01*
G01*
X0374980Y0070472D01*
G75*
G02*
X0375571Y0069882I0000000J-000591D01*
G01*
X0375571Y0068701D01*
G75*
G02*
X0374980Y0068110I-000591J0000000D01*
G01*
G37*
G36*
G01*
X0374980Y0064961D02*
X0371634Y0064961D01*
G75*
G02*
X0371043Y0065551I0000000J0000591D01*
G01*
X0371043Y0066732D01*
G75*
G02*
X0371634Y0067323I0000591J0000000D01*
G01*
X0374980Y0067323D01*
G75*
G02*
X0375571Y0066732I0000000J-000591D01*
G01*
X0375571Y0065551D01*
G75*
G02*
X0374980Y0064961I-000591J0000000D01*
G01*
G37*
G36*
G01*
X0378524Y0054331D02*
X0372618Y0054331D01*
G75*
G02*
X0371634Y0055315I0000000J0000984D01*
G01*
X0371634Y0061929D01*
G75*
G02*
X0372618Y0062913I0000984J0000000D01*
G01*
X0378524Y0062913D01*
G75*
G02*
X0379508Y0061929I0000000J-000984D01*
G01*
X0379508Y0055315D01*
G75*
G02*
X0378524Y0054331I-000984J0000000D01*
G01*
G37*
G36*
G01*
X0393996Y0054331D02*
X0388091Y0054331D01*
G75*
G02*
X0387106Y0055315I0000000J0000984D01*
G01*
X0387106Y0061929D01*
G75*
G02*
X0388091Y0062913I0000984J0000000D01*
G01*
X0393996Y0062913D01*
G75*
G02*
X0394980Y0061929I0000000J-000984D01*
G01*
X0394980Y0055315D01*
G75*
G02*
X0393996Y0054331I-000984J0000000D01*
G01*
G37*
G36*
G01*
X0378524Y0094567D02*
X0372618Y0094567D01*
G75*
G02*
X0371634Y0095551I0000000J0000984D01*
G01*
X0371634Y0102165D01*
G75*
G02*
X0372618Y0103150I0000984J0000000D01*
G01*
X0378524Y0103150D01*
G75*
G02*
X0379508Y0102165I0000000J-000984D01*
G01*
X0379508Y0095551D01*
G75*
G02*
X0378524Y0094567I-000984J0000000D01*
G01*
G37*
G36*
G01*
X0393996Y0094567D02*
X0388091Y0094567D01*
G75*
G02*
X0387106Y0095551I0000000J0000984D01*
G01*
X0387106Y0102165D01*
G75*
G02*
X0388091Y0103150I0000984J0000000D01*
G01*
X0393996Y0103150D01*
G75*
G02*
X0394980Y0102165I0000000J-000984D01*
G01*
X0394980Y0095551D01*
G75*
G02*
X0393996Y0094567I-000984J0000000D01*
G01*
G37*
D48*
X0130804Y0071240D03*
X0130804Y0076240D03*
X0130804Y0081240D03*
X0130804Y0086240D03*
X0109354Y0086240D03*
X0109354Y0081240D03*
X0109354Y0076240D03*
X0109354Y0071240D03*
G36*
G01*
X0321126Y0305016D02*
X0321126Y0306984D01*
G75*
G02*
X0322012Y0307870I0000886J0000000D01*
G01*
X0323783Y0307870D01*
G75*
G02*
X0324669Y0306984I0000000J-000886D01*
G01*
X0324669Y0305016D01*
G75*
G02*
X0323783Y0304130I-000886J0000000D01*
G01*
X0322012Y0304130D01*
G75*
G02*
X0321126Y0305016I0000000J0000886D01*
G01*
G37*
G36*
G01*
X0327228Y0305016D02*
X0327228Y0306984D01*
G75*
G02*
X0328114Y0307870I0000886J0000000D01*
G01*
X0329886Y0307870D01*
G75*
G02*
X0330772Y0306984I0000000J-000886D01*
G01*
X0330772Y0305016D01*
G75*
G02*
X0329886Y0304130I-000886J0000000D01*
G01*
X0328114Y0304130D01*
G75*
G02*
X0327228Y0305016I0000000J0000886D01*
G01*
G37*
G36*
G01*
X0375079Y0311728D02*
X0375079Y0310272D01*
G75*
G02*
X0374547Y0309740I-000531J0000000D01*
G01*
X0373484Y0309740D01*
G75*
G02*
X0372953Y0310272I0000000J0000531D01*
G01*
X0372953Y0311728D01*
G75*
G02*
X0373484Y0312260I0000531J0000000D01*
G01*
X0374547Y0312260D01*
G75*
G02*
X0375079Y0311728I0000000J-000531D01*
G01*
G37*
G36*
G01*
X0371063Y0311728D02*
X0371063Y0310272D01*
G75*
G02*
X0370531Y0309740I-000531J0000000D01*
G01*
X0369469Y0309740D01*
G75*
G02*
X0368937Y0310272I0000000J0000531D01*
G01*
X0368937Y0311728D01*
G75*
G02*
X0369469Y0312260I0000531J0000000D01*
G01*
X0370531Y0312260D01*
G75*
G02*
X0371063Y0311728I0000000J-000531D01*
G01*
G37*
D12*
X0134815Y0224134D03*
X0134815Y0220394D03*
X0134815Y0216654D03*
X0100563Y0220591D03*
X0100563Y0224134D03*
G36*
G01*
X0088728Y0387929D02*
X0087272Y0387929D01*
G75*
G02*
X0086740Y0388461I0000000J0000531D01*
G01*
X0086740Y0389524D01*
G75*
G02*
X0087272Y0390055I0000531J0000000D01*
G01*
X0088728Y0390055D01*
G75*
G02*
X0089260Y0389524I0000000J-000531D01*
G01*
X0089260Y0388461D01*
G75*
G02*
X0088728Y0387929I-000531J0000000D01*
G01*
G37*
G36*
G01*
X0088728Y0391945D02*
X0087272Y0391945D01*
G75*
G02*
X0086740Y0392476I0000000J0000531D01*
G01*
X0086740Y0393539D01*
G75*
G02*
X0087272Y0394071I0000531J0000000D01*
G01*
X0088728Y0394071D01*
G75*
G02*
X0089260Y0393539I0000000J-000531D01*
G01*
X0089260Y0392476D01*
G75*
G02*
X0088728Y0391945I-000531J0000000D01*
G01*
G37*
G36*
G01*
X0136272Y0096071D02*
X0137728Y0096071D01*
G75*
G02*
X0138260Y0095539I0000000J-000531D01*
G01*
X0138260Y0094476D01*
G75*
G02*
X0137728Y0093945I-000531J0000000D01*
G01*
X0136272Y0093945D01*
G75*
G02*
X0135740Y0094476I0000000J0000531D01*
G01*
X0135740Y0095539D01*
G75*
G02*
X0136272Y0096071I0000531J0000000D01*
G01*
G37*
G36*
G01*
X0136272Y0092055D02*
X0137728Y0092055D01*
G75*
G02*
X0138260Y0091524I0000000J-000531D01*
G01*
X0138260Y0090461D01*
G75*
G02*
X0137728Y0089929I-000531J0000000D01*
G01*
X0136272Y0089929D01*
G75*
G02*
X0135740Y0090461I0000000J0000531D01*
G01*
X0135740Y0091524D01*
G75*
G02*
X0136272Y0092055I0000531J0000000D01*
G01*
G37*
G36*
G01*
X0137754Y0080459D02*
X0136297Y0080459D01*
G75*
G02*
X0135765Y0080990I0000000J0000531D01*
G01*
X0135765Y0082053D01*
G75*
G02*
X0136297Y0082585I0000531J0000000D01*
G01*
X0137754Y0082585D01*
G75*
G02*
X0138285Y0082053I0000000J-000531D01*
G01*
X0138285Y0080990D01*
G75*
G02*
X0137754Y0080459I-000531J0000000D01*
G01*
G37*
G36*
G01*
X0137754Y0084475D02*
X0136297Y0084475D01*
G75*
G02*
X0135765Y0085006I0000000J0000531D01*
G01*
X0135765Y0086069D01*
G75*
G02*
X0136297Y0086601I0000531J0000000D01*
G01*
X0137754Y0086601D01*
G75*
G02*
X0138285Y0086069I0000000J-000531D01*
G01*
X0138285Y0085006D01*
G75*
G02*
X0137754Y0084475I-000531J0000000D01*
G01*
G37*
G36*
G01*
X0137728Y0103929D02*
X0136272Y0103929D01*
G75*
G02*
X0135740Y0104461I0000000J0000531D01*
G01*
X0135740Y0105524D01*
G75*
G02*
X0136272Y0106055I0000531J0000000D01*
G01*
X0137728Y0106055D01*
G75*
G02*
X0138260Y0105524I0000000J-000531D01*
G01*
X0138260Y0104461D01*
G75*
G02*
X0137728Y0103929I-000531J0000000D01*
G01*
G37*
G36*
G01*
X0137728Y0107945D02*
X0136272Y0107945D01*
G75*
G02*
X0135740Y0108476I0000000J0000531D01*
G01*
X0135740Y0109539D01*
G75*
G02*
X0136272Y0110071I0000531J0000000D01*
G01*
X0137728Y0110071D01*
G75*
G02*
X0138260Y0109539I0000000J-000531D01*
G01*
X0138260Y0108476D01*
G75*
G02*
X0137728Y0107945I-000531J0000000D01*
G01*
G37*
G36*
G01*
X0353272Y0397071D02*
X0354728Y0397071D01*
G75*
G02*
X0355260Y0396539I0000000J-000531D01*
G01*
X0355260Y0395476D01*
G75*
G02*
X0354728Y0394945I-000531J0000000D01*
G01*
X0353272Y0394945D01*
G75*
G02*
X0352740Y0395476I0000000J0000531D01*
G01*
X0352740Y0396539D01*
G75*
G02*
X0353272Y0397071I0000531J0000000D01*
G01*
G37*
G36*
G01*
X0353272Y0393055D02*
X0354728Y0393055D01*
G75*
G02*
X0355260Y0392524I0000000J-000531D01*
G01*
X0355260Y0391461D01*
G75*
G02*
X0354728Y0390929I-000531J0000000D01*
G01*
X0353272Y0390929D01*
G75*
G02*
X0352740Y0391461I0000000J0000531D01*
G01*
X0352740Y0392524D01*
G75*
G02*
X0353272Y0393055I0000531J0000000D01*
G01*
G37*
D42*
X0309000Y0282000D03*
D48*
X0081725Y0378327D03*
X0081725Y0383327D03*
X0081725Y0388327D03*
X0081725Y0393327D03*
X0060275Y0393327D03*
X0060275Y0388327D03*
X0060275Y0383327D03*
X0060275Y0378327D03*
D42*
X0246000Y0368000D03*
D56*
X0035079Y0364961D03*
D57*
X0070118Y0347244D03*
X0070118Y0067717D03*
D56*
X0036260Y0050000D03*
D42*
X0038071Y0327559D03*
X0038071Y0304724D03*
X0047244Y0316142D03*
X0070079Y0327559D03*
X0070079Y0304724D03*
D51*
X0070079Y0093622D03*
X0070079Y0103622D03*
X0070079Y0113622D03*
X0070079Y0123622D03*
X0070079Y0133622D03*
X0070079Y0143622D03*
X0070079Y0153622D03*
X0070079Y0163622D03*
X0070079Y0173622D03*
X0070079Y0183622D03*
X0070079Y0193622D03*
X0070079Y0203622D03*
X0070079Y0213622D03*
X0070079Y0223622D03*
X0070079Y0233622D03*
X0070079Y0243622D03*
X0070079Y0253622D03*
X0070079Y0263622D03*
X0070079Y0273622D03*
X0060079Y0093622D03*
X0060079Y0103622D03*
X0060079Y0113622D03*
X0060079Y0123622D03*
X0060079Y0133622D03*
X0060079Y0143622D03*
X0060079Y0153622D03*
X0060079Y0163622D03*
X0060079Y0173622D03*
X0060079Y0183622D03*
X0060079Y0193622D03*
X0060079Y0203622D03*
X0060079Y0213622D03*
X0060079Y0223622D03*
X0060079Y0233622D03*
X0060079Y0243622D03*
X0060079Y0253622D03*
X0060079Y0263622D03*
X0060079Y0273622D03*
X0036260Y0093622D03*
X0036260Y0103622D03*
X0036260Y0113622D03*
X0036260Y0123622D03*
X0036260Y0133622D03*
X0036260Y0143622D03*
X0036260Y0153622D03*
X0036260Y0163622D03*
X0036260Y0173622D03*
X0036260Y0183622D03*
X0036260Y0193622D03*
X0036260Y0203622D03*
X0036260Y0213622D03*
X0036260Y0223622D03*
X0036260Y0233622D03*
X0036260Y0243622D03*
X0036260Y0253622D03*
X0036260Y0263622D03*
X0036260Y0273622D03*
X0026260Y0093622D03*
X0026260Y0103622D03*
X0026260Y0113622D03*
X0026260Y0123622D03*
X0026260Y0133622D03*
X0026260Y0143622D03*
X0026260Y0153622D03*
X0026260Y0163622D03*
X0026260Y0173622D03*
X0026260Y0183622D03*
X0026260Y0193622D03*
X0026260Y0203622D03*
X0026260Y0213622D03*
X0026260Y0223622D03*
X0026260Y0233622D03*
X0026260Y0243622D03*
X0026260Y0253622D03*
X0026260Y0263622D03*
X0026260Y0273622D03*
X0355512Y0181988D02*
G01*
G75*
D249*
X0366142Y0134331D02*
D03*
X0389567Y0134331D02*
D03*
X0366142Y0144331D02*
D03*
X0389567Y0144331D02*
D03*
X0366142Y0154331D02*
D03*
X0389567Y0154331D02*
D03*
X0366142Y0164331D02*
D03*
X0389567Y0164331D02*
D03*
X0366142Y0174331D02*
D03*
X0389567Y0174331D02*
D03*
D290*
X0379232Y0124272D02*
D03*
X0379232Y0118051D02*
D03*
X0367225Y0121713D02*
D03*
X0367225Y0115492D02*
D03*
D291*
X0373229Y0114075D02*
D03*
X0373229Y0127067D02*
D03*
D292*
X0362599Y0115551D02*
D03*
X0362599Y0121850D02*
D03*
D293*
X0393091Y0121555D02*
D03*
X0383839Y0125295D02*
D03*
D293*
X0383839Y0117815D02*
D03*
D294*
X0362048Y0126181D02*
D03*
X0368268Y0126181D02*
D03*
D85*
X0382855Y0134331D02*
D03*
X0372855Y0134331D02*
D03*
X0382855Y0144331D02*
D03*
X0372855Y0144331D02*
D03*
X0382855Y0154331D02*
D03*
X0372855Y0154331D02*
D03*
X0382855Y0164331D02*
D03*
X0372855Y0164331D02*
D03*
X0382855Y0174331D02*
D03*
D86*
X0372855Y0174331D02*
D03*
X0163028Y0296547D02*
G01*
G75*
D110*
X0208107Y0320914D02*
D03*
X0208107Y0303197D02*
D03*
D111*
X0204780Y0345366D02*
D03*
X0177418Y0345366D02*
D03*
D112*
X0193540Y0322138D02*
D03*
X0177398Y0322138D02*
D03*
D113*
X0195311Y0304027D02*
D03*
X0179563Y0304027D02*
D03*
D114*
X0172372Y0365805D02*
D03*
X0181624Y0362065D02*
D03*
D114*
X0181624Y0369545D02*
D03*
D115*
X0204459Y0375484D02*
D03*
D115*
X0204459Y0371744D02*
D03*
X0204459Y0368004D02*
D03*
X0212923Y0368004D02*
D03*
X0212923Y0375484D02*
D03*
D81*
X0216775Y0361483D02*
D03*
X0203783Y0361483D02*
D03*
D116*
X0198489Y0361771D02*
D03*
X0187071Y0361771D02*
D03*
D117*
X0217674Y0329224D02*
D03*
X0211453Y0329224D02*
D03*
X0207083Y0329224D02*
D03*
X0200863Y0329224D02*
D03*
D118*
X0166997Y0306335D02*
D03*
X0166997Y0310469D02*
D03*
X0217552Y0348209D02*
D03*
X0217552Y0352343D02*
D03*
X0217552Y0343496D02*
D03*
X0217552Y0339362D02*
D03*
X0218444Y0323847D02*
D03*
X0218444Y0319713D02*
D03*
D119*
X0199341Y0368054D02*
D03*
X0199341Y0371991D02*
D03*
X0185666Y0368956D02*
D03*
X0194327Y0368956D02*
D03*
X0185666Y0375353D02*
D03*
X0194327Y0375353D02*
D03*
D120*
X0177293Y0375484D02*
D03*
X0180837Y0375484D02*
D03*
D121*
X0213294Y0352146D02*
D03*
X0213294Y0348602D02*
D03*
X0213294Y0343102D02*
D03*
X0213294Y0339559D02*
D03*
X0218444Y0311546D02*
D03*
X0218444Y0315090D02*
D03*
D122*
X0228776Y0314657D02*
D03*
X0228776Y0310720D02*
D03*
D85*
X0165981Y0368200D02*
D03*
X0165981Y0301271D02*
D03*
X0165981Y0348712D02*
D03*
X0227004Y0348515D02*
D03*
X0227004Y0373712D02*
D03*
X0227004Y0324106D02*
D03*
X0227004Y0341035D02*
D03*
X0227004Y0299500D02*
D03*
X0165981Y0375484D02*
D03*
X0165555Y0274803D02*
G01*
G75*
D173*
X0316638Y0206398D02*
D03*
X0316638Y0204429D02*
D03*
X0316638Y0202461D02*
D03*
X0316638Y0200492D02*
D03*
X0316638Y0198524D02*
D03*
X0316638Y0196555D02*
D03*
X0316638Y0194587D02*
D03*
X0316638Y0192618D02*
D03*
X0316638Y0190650D02*
D03*
X0316638Y0188681D02*
D03*
X0316638Y0186713D02*
D03*
X0316638Y0184744D02*
D03*
X0316638Y0182775D02*
D03*
X0316638Y0180807D02*
D03*
X0316638Y0178838D02*
D03*
X0316638Y0176870D02*
D03*
X0316638Y0174901D02*
D03*
X0316638Y0172933D02*
D03*
X0316638Y0170964D02*
D03*
X0316638Y0168996D02*
D03*
X0316638Y0167027D02*
D03*
X0316638Y0165059D02*
D03*
X0316638Y0163090D02*
D03*
X0316638Y0161122D02*
D03*
X0316638Y0159153D02*
D03*
X0316638Y0157185D02*
D03*
X0316638Y0155216D02*
D03*
X0316638Y0153248D02*
D03*
X0316638Y0151279D02*
D03*
X0316638Y0149311D02*
D03*
X0316638Y0147342D02*
D03*
X0316638Y0145374D02*
D03*
X0316638Y0143405D02*
D03*
X0316638Y0141437D02*
D03*
X0316638Y0139468D02*
D03*
X0316638Y0137500D02*
D03*
X0232976Y0137500D02*
D03*
X0232976Y0139468D02*
D03*
X0232976Y0141437D02*
D03*
X0232976Y0143405D02*
D03*
X0232976Y0145374D02*
D03*
X0232976Y0147342D02*
D03*
X0232976Y0149311D02*
D03*
X0232976Y0151279D02*
D03*
X0232976Y0153248D02*
D03*
X0232976Y0155216D02*
D03*
X0232976Y0157185D02*
D03*
X0232976Y0159153D02*
D03*
X0232976Y0161122D02*
D03*
X0232976Y0163090D02*
D03*
X0232976Y0165059D02*
D03*
X0232976Y0167027D02*
D03*
X0232976Y0168996D02*
D03*
X0232976Y0170964D02*
D03*
X0232976Y0172933D02*
D03*
X0232976Y0174901D02*
D03*
X0232976Y0176870D02*
D03*
X0232976Y0178838D02*
D03*
X0232976Y0180807D02*
D03*
X0232976Y0182775D02*
D03*
X0232976Y0184744D02*
D03*
X0232976Y0186713D02*
D03*
X0232976Y0188681D02*
D03*
X0232976Y0190650D02*
D03*
X0232976Y0192618D02*
D03*
X0232976Y0194587D02*
D03*
X0232976Y0196555D02*
D03*
X0232976Y0198524D02*
D03*
X0232976Y0200492D02*
D03*
X0232976Y0202461D02*
D03*
X0232976Y0204429D02*
D03*
X0232976Y0206398D02*
D03*
D172*
X0309256Y0130118D02*
D03*
X0307287Y0130118D02*
D03*
X0305319Y0130118D02*
D03*
X0303350Y0130118D02*
D03*
X0301382Y0130118D02*
D03*
X0299413Y0130118D02*
D03*
X0297445Y0130118D02*
D03*
X0295476Y0130118D02*
D03*
X0293508Y0130118D02*
D03*
X0291539Y0130118D02*
D03*
X0289571Y0130118D02*
D03*
X0287602Y0130118D02*
D03*
X0285634Y0130118D02*
D03*
X0283665Y0130118D02*
D03*
X0281697Y0130118D02*
D03*
X0279728Y0130118D02*
D03*
X0277760Y0130118D02*
D03*
X0275791Y0130118D02*
D03*
X0273823Y0130118D02*
D03*
X0271854Y0130118D02*
D03*
X0269886Y0130118D02*
D03*
X0267917Y0130118D02*
D03*
X0265949Y0130118D02*
D03*
X0263980Y0130118D02*
D03*
X0262012Y0130118D02*
D03*
X0260043Y0130118D02*
D03*
X0258075Y0130118D02*
D03*
X0256106Y0130118D02*
D03*
X0254138Y0130118D02*
D03*
X0252169Y0130118D02*
D03*
X0250201Y0130118D02*
D03*
X0248232Y0130118D02*
D03*
X0246264Y0130118D02*
D03*
X0244295Y0130118D02*
D03*
X0242327Y0130118D02*
D03*
X0240358Y0130118D02*
D03*
X0240358Y0213779D02*
D03*
X0242327Y0213779D02*
D03*
X0244295Y0213779D02*
D03*
X0246264Y0213779D02*
D03*
X0248232Y0213779D02*
D03*
X0250201Y0213779D02*
D03*
X0252169Y0213779D02*
D03*
X0254138Y0213779D02*
D03*
X0256106Y0213779D02*
D03*
X0258075Y0213779D02*
D03*
X0260043Y0213779D02*
D03*
X0262012Y0213779D02*
D03*
X0263980Y0213779D02*
D03*
X0265949Y0213779D02*
D03*
X0267917Y0213779D02*
D03*
X0269886Y0213779D02*
D03*
X0271854Y0213779D02*
D03*
X0273823Y0213779D02*
D03*
X0275791Y0213779D02*
D03*
X0277760Y0213779D02*
D03*
X0279728Y0213779D02*
D03*
X0281697Y0213779D02*
D03*
X0283665Y0213779D02*
D03*
X0285634Y0213779D02*
D03*
X0287602Y0213779D02*
D03*
X0289571Y0213779D02*
D03*
X0291539Y0213779D02*
D03*
X0293508Y0213779D02*
D03*
X0295476Y0213779D02*
D03*
X0297445Y0213779D02*
D03*
X0299413Y0213779D02*
D03*
X0301382Y0213779D02*
D03*
X0303350Y0213779D02*
D03*
X0305319Y0213779D02*
D03*
X0307287Y0213779D02*
D03*
X0309256Y0213779D02*
D03*
D432*
X0293067Y0113773D02*
D03*
X0296807Y0123025D02*
D03*
D432*
X0300547Y0113773D02*
D03*
D433*
X0290752Y0267323D02*
D03*
X0290752Y0249212D02*
D03*
D434*
X0290752Y0258268D02*
D03*
D435*
X0315161Y0258268D02*
D03*
D436*
X0266736Y0237008D02*
D03*
X0266736Y0230315D02*
D03*
X0273823Y0230315D02*
D03*
X0273823Y0237008D02*
D03*
X0280909Y0237008D02*
D03*
X0280909Y0230315D02*
D03*
X0287996Y0230315D02*
D03*
X0287996Y0237008D02*
D03*
X0259256Y0246850D02*
D03*
X0259256Y0253543D02*
D03*
X0259256Y0230315D02*
D03*
X0259256Y0237008D02*
D03*
X0252169Y0246850D02*
D03*
X0252169Y0253543D02*
D03*
X0252169Y0230315D02*
D03*
X0252169Y0237008D02*
D03*
X0245083Y0246850D02*
D03*
X0245083Y0253543D02*
D03*
X0245083Y0230315D02*
D03*
X0245083Y0237008D02*
D03*
X0237996Y0253543D02*
D03*
X0237996Y0246850D02*
D03*
X0237996Y0230315D02*
D03*
X0237996Y0237008D02*
D03*
D437*
X0317694Y0114372D02*
D03*
X0317694Y0118112D02*
D03*
X0317694Y0121853D02*
D03*
X0308245Y0121853D02*
D03*
X0308245Y0118112D02*
D03*
X0308245Y0114372D02*
D03*
D180*
X0317996Y0224055D02*
D03*
X0312996Y0224055D02*
D03*
X0317996Y0229055D02*
D03*
X0312996Y0229055D02*
D03*
X0317996Y0234055D02*
D03*
X0312996Y0234055D02*
D03*
D438*
X0173035Y0270079D02*
D03*
X0176972Y0270079D02*
D03*
X0186027Y0123622D02*
D03*
X0182090Y0123622D02*
D03*
X0174610Y0227165D02*
D03*
X0170673Y0227165D02*
D03*
X0174610Y0212992D02*
D03*
X0170673Y0212992D02*
D03*
X0178547Y0194094D02*
D03*
X0174610Y0194094D02*
D03*
X0170673Y0194094D02*
D03*
X0174610Y0194094D02*
D03*
X0174610Y0184645D02*
D03*
X0178547Y0184645D02*
D03*
X0174610Y0184645D02*
D03*
X0170673Y0184645D02*
D03*
X0178547Y0161023D02*
D03*
X0174610Y0161023D02*
D03*
X0174610Y0137401D02*
D03*
X0178547Y0137401D02*
D03*
X0174610Y0137401D02*
D03*
X0170673Y0137401D02*
D03*
X0288390Y0220767D02*
D03*
X0292327Y0220767D02*
D03*
X0178153Y0132677D02*
D03*
X0182090Y0132677D02*
D03*
X0193705Y0270079D02*
D03*
X0189768Y0270079D02*
D03*
X0229728Y0258661D02*
D03*
X0233665Y0258661D02*
D03*
X0182090Y0114173D02*
D03*
X0186027Y0114173D02*
D03*
X0182090Y0118898D02*
D03*
X0186027Y0118898D02*
D03*
X0182090Y0128346D02*
D03*
X0186027Y0128346D02*
D03*
X0174610Y0264960D02*
D03*
X0178547Y0264960D02*
D03*
X0174610Y0260236D02*
D03*
X0178547Y0260236D02*
D03*
X0174610Y0255512D02*
D03*
X0178547Y0255512D02*
D03*
X0174610Y0250787D02*
D03*
X0178547Y0250787D02*
D03*
X0174610Y0264960D02*
D03*
X0170673Y0264960D02*
D03*
X0174610Y0260236D02*
D03*
X0170673Y0260236D02*
D03*
X0174610Y0255512D02*
D03*
X0170673Y0255512D02*
D03*
X0174610Y0250787D02*
D03*
X0170673Y0250787D02*
D03*
X0174610Y0246063D02*
D03*
X0178547Y0246063D02*
D03*
X0174610Y0241338D02*
D03*
X0178547Y0241338D02*
D03*
X0174610Y0236614D02*
D03*
X0178547Y0236614D02*
D03*
X0174610Y0231772D02*
D03*
X0178547Y0231772D02*
D03*
X0174610Y0246063D02*
D03*
X0170673Y0246063D02*
D03*
X0174610Y0241338D02*
D03*
X0170673Y0241338D02*
D03*
X0174610Y0236614D02*
D03*
X0170673Y0236614D02*
D03*
X0174610Y0231890D02*
D03*
X0170673Y0231890D02*
D03*
X0174610Y0227165D02*
D03*
X0178547Y0227165D02*
D03*
X0174610Y0222441D02*
D03*
X0178547Y0222441D02*
D03*
X0174610Y0217716D02*
D03*
X0178547Y0217716D02*
D03*
X0174610Y0212992D02*
D03*
X0178547Y0212992D02*
D03*
X0174610Y0222441D02*
D03*
X0170673Y0222441D02*
D03*
X0174610Y0217716D02*
D03*
X0170673Y0217716D02*
D03*
X0178547Y0208267D02*
D03*
X0174610Y0208267D02*
D03*
X0178547Y0203543D02*
D03*
X0174610Y0203543D02*
D03*
X0178547Y0198819D02*
D03*
X0174610Y0198819D02*
D03*
X0170673Y0208267D02*
D03*
X0174610Y0208267D02*
D03*
X0170673Y0203543D02*
D03*
X0174610Y0203543D02*
D03*
X0170673Y0198819D02*
D03*
X0174610Y0198819D02*
D03*
X0174610Y0189370D02*
D03*
X0178547Y0189370D02*
D03*
X0174610Y0179921D02*
D03*
X0178547Y0179921D02*
D03*
X0174610Y0175197D02*
D03*
X0178547Y0175197D02*
D03*
X0174610Y0189370D02*
D03*
X0170673Y0189370D02*
D03*
X0174610Y0179921D02*
D03*
X0170673Y0179921D02*
D03*
X0174610Y0175197D02*
D03*
X0170673Y0175197D02*
D03*
X0178547Y0170472D02*
D03*
X0174610Y0170472D02*
D03*
X0178547Y0165748D02*
D03*
X0174610Y0165748D02*
D03*
X0178547Y0156299D02*
D03*
X0174610Y0156299D02*
D03*
X0170673Y0170472D02*
D03*
X0174610Y0170472D02*
D03*
X0170673Y0165748D02*
D03*
X0174610Y0165748D02*
D03*
X0170673Y0161023D02*
D03*
X0174610Y0161023D02*
D03*
X0170673Y0156299D02*
D03*
X0174610Y0156299D02*
D03*
X0174610Y0151575D02*
D03*
X0178547Y0151575D02*
D03*
X0174610Y0146850D02*
D03*
X0178547Y0146850D02*
D03*
X0174610Y0142126D02*
D03*
X0178547Y0142126D02*
D03*
X0174610Y0151575D02*
D03*
X0170673Y0151575D02*
D03*
X0174610Y0146850D02*
D03*
X0170673Y0146850D02*
D03*
X0174610Y0142126D02*
D03*
X0170673Y0142126D02*
D03*
X0178547Y0128346D02*
D03*
X0174610Y0128346D02*
D03*
X0178547Y0123622D02*
D03*
X0174610Y0123622D02*
D03*
X0178547Y0118898D02*
D03*
X0174610Y0118898D02*
D03*
X0178547Y0114173D02*
D03*
X0174610Y0114173D02*
D03*
X0170673Y0128346D02*
D03*
X0174610Y0128346D02*
D03*
X0170673Y0123622D02*
D03*
X0174610Y0123622D02*
D03*
X0170673Y0118898D02*
D03*
X0174610Y0118898D02*
D03*
X0170673Y0114173D02*
D03*
X0174610Y0114173D02*
D03*
X0184649Y0270079D02*
D03*
X0180712Y0270079D02*
D03*
X0297445Y0234646D02*
D03*
X0301382Y0234646D02*
D03*
D439*
X0191342Y0215354D02*
D03*
X0187602Y0215354D02*
D03*
X0183862Y0215354D02*
D03*
X0183862Y0224803D02*
D03*
X0187602Y0224803D02*
D03*
X0191342Y0224803D02*
D03*
X0191342Y0253149D02*
D03*
X0187602Y0253149D02*
D03*
X0183862Y0253149D02*
D03*
X0183862Y0262598D02*
D03*
X0187602Y0262598D02*
D03*
X0191342Y0262598D02*
D03*
X0191342Y0234252D02*
D03*
X0187602Y0234252D02*
D03*
X0183862Y0234252D02*
D03*
X0183862Y0243701D02*
D03*
X0187602Y0243701D02*
D03*
X0191342Y0243701D02*
D03*
X0191342Y0196456D02*
D03*
X0187602Y0196456D02*
D03*
X0183862Y0196456D02*
D03*
X0183862Y0205905D02*
D03*
X0187602Y0205905D02*
D03*
X0191342Y0205905D02*
D03*
X0191342Y0177559D02*
D03*
X0187602Y0177559D02*
D03*
X0183862Y0177559D02*
D03*
X0183862Y0187008D02*
D03*
X0187602Y0187008D02*
D03*
X0191342Y0187008D02*
D03*
X0191342Y0158661D02*
D03*
X0187602Y0158661D02*
D03*
X0183862Y0158661D02*
D03*
X0183862Y0168110D02*
D03*
X0187602Y0168110D02*
D03*
X0191342Y0168110D02*
D03*
X0191342Y0139764D02*
D03*
X0187602Y0139764D02*
D03*
X0183862Y0139764D02*
D03*
X0183862Y0149212D02*
D03*
X0187602Y0149212D02*
D03*
X0191342Y0149212D02*
D03*
D440*
X0221460Y0118110D02*
D03*
X0239177Y0118110D02*
D03*
D184*
X0170673Y0132401D02*
D03*
X0168705Y0270079D02*
D03*
D441*
X0244197Y0263779D02*
D03*
X0244197Y0270866D02*
D03*
X0234157Y0270866D02*
D03*
X0234157Y0263779D02*
D03*
X0250299Y0263779D02*
D03*
X0250299Y0270866D02*
D03*
X0260339Y0270866D02*
D03*
X0260339Y0263779D02*
D03*
D442*
X0237602Y0270866D02*
D03*
X0240752Y0270866D02*
D03*
X0240752Y0263779D02*
D03*
X0237602Y0263779D02*
D03*
X0253744Y0263779D02*
D03*
X0256894Y0263779D02*
D03*
X0256894Y0270866D02*
D03*
X0253744Y0270866D02*
D03*
D443*
X0287208Y0116142D02*
D03*
X0270673Y0116142D02*
D03*
X0247839Y0116142D02*
D03*
X0264374Y0116142D02*
D03*
D189*
X0220673Y0128937D02*
D03*
X0220673Y0131496D02*
D03*
X0220673Y0134055D02*
D03*
X0220673Y0136614D02*
D03*
X0220673Y0139173D02*
D03*
X0220673Y0141732D02*
D03*
X0220673Y0144291D02*
D03*
X0198232Y0128937D02*
D03*
X0198232Y0131496D02*
D03*
X0198232Y0134055D02*
D03*
X0198232Y0136614D02*
D03*
X0198232Y0139173D02*
D03*
X0198232Y0141732D02*
D03*
X0198232Y0144291D02*
D03*
X0220673Y0197441D02*
D03*
X0220673Y0200000D02*
D03*
X0220673Y0202559D02*
D03*
X0220673Y0205118D02*
D03*
X0220673Y0207677D02*
D03*
X0220673Y0210236D02*
D03*
X0220673Y0212795D02*
D03*
X0198232Y0197441D02*
D03*
X0198232Y0200000D02*
D03*
X0198232Y0202559D02*
D03*
X0198232Y0205118D02*
D03*
X0198232Y0207677D02*
D03*
X0198232Y0210236D02*
D03*
X0198232Y0212795D02*
D03*
X0220673Y0174606D02*
D03*
X0220673Y0177165D02*
D03*
X0220673Y0179724D02*
D03*
X0220673Y0182283D02*
D03*
X0220673Y0184842D02*
D03*
X0220673Y0187401D02*
D03*
X0220673Y0189960D02*
D03*
X0198232Y0174606D02*
D03*
X0198232Y0177165D02*
D03*
X0198232Y0179724D02*
D03*
X0198232Y0182283D02*
D03*
X0198232Y0184842D02*
D03*
X0198232Y0187401D02*
D03*
X0198232Y0189960D02*
D03*
X0220673Y0151772D02*
D03*
X0220673Y0154331D02*
D03*
X0220673Y0156890D02*
D03*
X0220673Y0159449D02*
D03*
X0220673Y0162008D02*
D03*
X0220673Y0164567D02*
D03*
X0220673Y0167126D02*
D03*
X0198232Y0151772D02*
D03*
X0198232Y0154331D02*
D03*
X0198232Y0156890D02*
D03*
X0198232Y0159449D02*
D03*
X0198232Y0162008D02*
D03*
X0198232Y0164567D02*
D03*
X0198232Y0167126D02*
D03*
D188*
X0209256Y0219094D02*
D03*
X0211815Y0219094D02*
D03*
X0214374Y0219094D02*
D03*
X0216933Y0219094D02*
D03*
X0219492Y0219094D02*
D03*
X0222051Y0219094D02*
D03*
X0224610Y0219094D02*
D03*
X0209256Y0241535D02*
D03*
X0211815Y0241535D02*
D03*
X0214374Y0241535D02*
D03*
X0216933Y0241535D02*
D03*
X0219492Y0241535D02*
D03*
X0222051Y0241535D02*
D03*
X0224610Y0241535D02*
D03*
X0209256Y0247047D02*
D03*
X0211815Y0247047D02*
D03*
X0214374Y0247047D02*
D03*
X0216933Y0247047D02*
D03*
X0219492Y0247047D02*
D03*
X0222051Y0247047D02*
D03*
X0224610Y0247047D02*
D03*
X0209256Y0269488D02*
D03*
X0211815Y0269488D02*
D03*
X0214374Y0269488D02*
D03*
X0216933Y0269488D02*
D03*
X0219492Y0269488D02*
D03*
X0222051Y0269488D02*
D03*
X0224610Y0269488D02*
D03*
D444*
X0197642Y0236417D02*
D03*
X0200201Y0236417D02*
D03*
X0202760Y0236417D02*
D03*
X0197642Y0243897D02*
D03*
X0200201Y0243897D02*
D03*
X0202760Y0243897D02*
D03*
X0202760Y0256496D02*
D03*
X0200201Y0256496D02*
D03*
X0197642Y0256496D02*
D03*
X0202760Y0249016D02*
D03*
X0200201Y0249016D02*
D03*
X0197642Y0249016D02*
D03*
X0197642Y0261220D02*
D03*
X0200201Y0261220D02*
D03*
X0202760Y0261220D02*
D03*
X0197642Y0268701D02*
D03*
X0200201Y0268701D02*
D03*
X0202760Y0268701D02*
D03*
X0202760Y0231693D02*
D03*
X0200201Y0231693D02*
D03*
X0197642Y0231693D02*
D03*
X0202760Y0224212D02*
D03*
X0200201Y0224212D02*
D03*
X0197642Y0224212D02*
D03*
D329*
X0282112Y0268110D02*
D03*
X0277112Y0268110D02*
D03*
X0272112Y0268110D02*
D03*
X0267112Y0268110D02*
D03*
X0282112Y0249212D02*
D03*
X0277112Y0249212D02*
D03*
X0272112Y0249212D02*
D03*
X0267112Y0249212D02*
D03*
D445*
X0214571Y0115157D02*
D03*
X0214571Y0117716D02*
D03*
X0214571Y0120275D02*
D03*
X0207090Y0115157D02*
D03*
X0207090Y0117716D02*
D03*
X0207090Y0120275D02*
D03*
X0199216Y0115157D02*
D03*
X0199216Y0117716D02*
D03*
X0199216Y0120275D02*
D03*
X0191736Y0115157D02*
D03*
X0191736Y0117716D02*
D03*
X0191736Y0120275D02*
D03*
D194*
X0298232Y0228986D02*
D03*
X0300201Y0228986D02*
D03*
X0302169Y0228986D02*
D03*
X0302169Y0222982D02*
D03*
X0300201Y0222982D02*
D03*
X0298232Y0222982D02*
D03*
D193*
X0303203Y0226968D02*
D03*
X0303203Y0225000D02*
D03*
X0297199Y0225000D02*
D03*
X0297199Y0226968D02*
D03*
D446*
X0296264Y0239862D02*
D03*
X0302957Y0239862D02*
D03*
D447*
X0231303Y0231102D02*
D03*
X0231303Y0235039D02*
D03*
D197*
X0315496Y0219055D02*
D03*
X0311496Y0239055D02*
D03*
X0319496Y0239055D02*
D03*
D198*
X0226972Y0180708D02*
D03*
X0231303Y0133464D02*
D03*
X0226579Y0138582D02*
D03*
X0226579Y0150394D02*
D03*
X0226579Y0161811D02*
D03*
X0226579Y0198031D02*
D03*
X0227760Y0214961D02*
D03*
D32*
X0319098Y0270472D02*
D03*
X0098571Y0151201D02*
%LPD*%
G01*
D12*
X0156839Y0178366D03*
X0156839Y0173642D03*
X0156839Y0183091D03*
X0156839Y0187815D03*
X0100047Y0162382D03*
X0100047Y0158445D03*
D234*
X0132429Y0164193D03*
X0132429Y0162225D03*
X0132429Y0160256D03*
X0132429Y0158288D03*
X0132429Y0156319D03*
X0149752Y0156319D03*
X0149752Y0158288D03*
X0149752Y0160256D03*
X0149752Y0162225D03*
X0149752Y0164193D03*
G36*
G01*
X0139949Y0177382D02*
X0143020Y0177382D01*
G75*
G02*
X0143295Y0177107I0000000J-000276D01*
G01*
X0143295Y0174902D01*
G75*
G02*
X0143020Y0174626I-000276J0000000D01*
G01*
X0139949Y0174626D01*
G75*
G02*
X0139673Y0174902I0000000J0000276D01*
G01*
X0139673Y0177107D01*
G75*
G02*
X0139949Y0177382I0000276J0000000D01*
G01*
G37*
G36*
G01*
X0139949Y0171083D02*
X0143020Y0171083D01*
G75*
G02*
X0143295Y0170807I0000000J-000276D01*
G01*
X0143295Y0168603D01*
G75*
G02*
X0143020Y0168327I-000276J0000000D01*
G01*
X0139949Y0168327D01*
G75*
G02*
X0139673Y0168603I0000000J0000276D01*
G01*
X0139673Y0170807D01*
G75*
G02*
X0139949Y0171083I0000276J0000000D01*
G01*
G37*
G36*
G01*
X0154280Y0184036D02*
X0154280Y0180965D01*
G75*
G02*
X0154004Y0180689I-000276J0000000D01*
G01*
X0151799Y0180689D01*
G75*
G02*
X0151524Y0180965I0000000J0000276D01*
G01*
X0151524Y0184036D01*
G75*
G02*
X0151799Y0184311I0000276J0000000D01*
G01*
X0154004Y0184311D01*
G75*
G02*
X0154280Y0184036I0000000J-000276D01*
G01*
G37*
G36*
G01*
X0147980Y0184036D02*
X0147980Y0180965D01*
G75*
G02*
X0147705Y0180689I-000276J0000000D01*
G01*
X0145500Y0180689D01*
G75*
G02*
X0145225Y0180965I0000000J0000276D01*
G01*
X0145225Y0184036D01*
G75*
G02*
X0145500Y0184311I0000276J0000000D01*
G01*
X0147705Y0184311D01*
G75*
G02*
X0147980Y0184036I0000000J-000276D01*
G01*
G37*
G36*
G01*
X0134043Y0177382D02*
X0137114Y0177382D01*
G75*
G02*
X0137390Y0177107I0000000J-000276D01*
G01*
X0137390Y0174902D01*
G75*
G02*
X0137114Y0174626I-000276J0000000D01*
G01*
X0134043Y0174626D01*
G75*
G02*
X0133768Y0174902I0000000J0000276D01*
G01*
X0133768Y0177107D01*
G75*
G02*
X0134043Y0177382I0000276J0000000D01*
G01*
G37*
G36*
G01*
X0134043Y0171083D02*
X0137114Y0171083D01*
G75*
G02*
X0137390Y0170807I0000000J-000276D01*
G01*
X0137390Y0168603D01*
G75*
G02*
X0137114Y0168327I-000276J0000000D01*
G01*
X0134043Y0168327D01*
G75*
G02*
X0133768Y0168603I0000000J0000276D01*
G01*
X0133768Y0170807D01*
G75*
G02*
X0134043Y0171083I0000276J0000000D01*
G01*
G37*
G36*
G01*
X0123394Y0181122D02*
X0126110Y0181122D01*
G75*
G02*
X0127016Y0180217I0000000J-000906D01*
G01*
X0127016Y0174941D01*
G75*
G02*
X0126110Y0174036I-000906J0000000D01*
G01*
X0123394Y0174036D01*
G75*
G02*
X0122488Y0174941I0000000J0000906D01*
G01*
X0122488Y0180217D01*
G75*
G02*
X0123394Y0181122I0000906J0000000D01*
G01*
G37*
G36*
G01*
X0111976Y0181122D02*
X0114693Y0181122D01*
G75*
G02*
X0115599Y0180217I0000000J-000906D01*
G01*
X0115599Y0174941D01*
G75*
G02*
X0114693Y0174036I-000906J0000000D01*
G01*
X0111976Y0174036D01*
G75*
G02*
X0111071Y0174941I0000000J0000906D01*
G01*
X0111071Y0180217D01*
G75*
G02*
X0111976Y0181122I0000906J0000000D01*
G01*
G37*
G36*
G01*
X0123394Y0171280D02*
X0126110Y0171280D01*
G75*
G02*
X0127016Y0170374I0000000J-000906D01*
G01*
X0127016Y0165099D01*
G75*
G02*
X0126110Y0164193I-000906J0000000D01*
G01*
X0123394Y0164193D01*
G75*
G02*
X0122488Y0165099I0000000J0000906D01*
G01*
X0122488Y0170374D01*
G75*
G02*
X0123394Y0171280I0000906J0000000D01*
G01*
G37*
G36*
G01*
X0111976Y0171280D02*
X0114693Y0171280D01*
G75*
G02*
X0115599Y0170374I0000000J-000906D01*
G01*
X0115599Y0165099D01*
G75*
G02*
X0114693Y0164193I-000906J0000000D01*
G01*
X0111976Y0164193D01*
G75*
G02*
X0111071Y0165099I0000000J0000906D01*
G01*
X0111071Y0170374D01*
G75*
G02*
X0111976Y0171280I0000906J0000000D01*
G01*
G37*
G36*
G01*
X0101327Y0177599D02*
X0101327Y0180315D01*
G75*
G02*
X0102232Y0181221I0000906J0000000D01*
G01*
X0107508Y0181221D01*
G75*
G02*
X0108414Y0180315I0000000J-000906D01*
G01*
X0108414Y0177599D01*
G75*
G02*
X0107508Y0176693I-000906J0000000D01*
G01*
X0102232Y0176693D01*
G75*
G02*
X0101327Y0177599I0000000J0000906D01*
G01*
G37*
G36*
G01*
X0101327Y0166181D02*
X0101327Y0168898D01*
G75*
G02*
X0102232Y0169803I0000906J0000000D01*
G01*
X0107508Y0169803D01*
G75*
G02*
X0108414Y0168898I0000000J-000906D01*
G01*
X0108414Y0166181D01*
G75*
G02*
X0107508Y0165276I-000906J0000000D01*
G01*
X0102232Y0165276D01*
G75*
G02*
X0101327Y0166181I0000000J0000906D01*
G01*
G37*
G36*
G01*
X0116701Y0161831D02*
X0119417Y0161831D01*
G75*
G02*
X0120323Y0160925I0000000J-000906D01*
G01*
X0120323Y0155650D01*
G75*
G02*
X0119417Y0154744I-000906J0000000D01*
G01*
X0116701Y0154744D01*
G75*
G02*
X0115795Y0155650I0000000J0000906D01*
G01*
X0115795Y0160925D01*
G75*
G02*
X0116701Y0161831I0000906J0000000D01*
G01*
G37*
G36*
G01*
X0105284Y0161831D02*
X0108000Y0161831D01*
G75*
G02*
X0108906Y0160925I0000000J-000906D01*
G01*
X0108906Y0155650D01*
G75*
G02*
X0108000Y0154744I-000906J0000000D01*
G01*
X0105284Y0154744D01*
G75*
G02*
X0104378Y0155650I0000000J0000906D01*
G01*
X0104378Y0160925D01*
G75*
G02*
X0105284Y0161831I0000906J0000000D01*
G01*
G37*
G36*
G01*
X0142370Y0183706D02*
X0142370Y0181688D01*
G75*
G02*
X0141509Y0180827I-000861J0000000D01*
G01*
X0139787Y0180827D01*
G75*
G02*
X0138925Y0181688I0000000J0000861D01*
G01*
X0138925Y0183706D01*
G75*
G02*
X0139787Y0184567I0000861J0000000D01*
G01*
X0141509Y0184567D01*
G75*
G02*
X0142370Y0183706I0000000J-000861D01*
G01*
G37*
G36*
G01*
X0136169Y0183706D02*
X0136169Y0181688D01*
G75*
G02*
X0135308Y0180827I-000861J0000000D01*
G01*
X0133586Y0180827D01*
G75*
G02*
X0132725Y0181688I0000000J0000861D01*
G01*
X0132725Y0183706D01*
G75*
G02*
X0133586Y0184567I0000861J0000000D01*
G01*
X0135308Y0184567D01*
G75*
G02*
X0136169Y0183706I0000000J-000861D01*
G01*
G37*
G36*
G01*
X0148315Y0176744D02*
X0148315Y0174067D01*
G75*
G02*
X0147980Y0173732I-000335J0000000D01*
G01*
X0145303Y0173732D01*
G75*
G02*
X0144969Y0174067I0000000J0000335D01*
G01*
X0144969Y0176744D01*
G75*
G02*
X0145303Y0177079I0000335J0000000D01*
G01*
X0147980Y0177079D01*
G75*
G02*
X0148315Y0176744I0000000J-000335D01*
G01*
G37*
G36*
G01*
X0154536Y0176744D02*
X0154536Y0174067D01*
G75*
G02*
X0154201Y0173732I-000335J0000000D01*
G01*
X0151524Y0173732D01*
G75*
G02*
X0151189Y0174067I0000000J0000335D01*
G01*
X0151189Y0176744D01*
G75*
G02*
X0151524Y0177079I0000335J0000000D01*
G01*
X0154201Y0177079D01*
G75*
G02*
X0154536Y0176744I0000000J-000335D01*
G01*
G37*
G36*
G01*
X0154536Y0171437D02*
X0154536Y0168760D01*
G75*
G02*
X0154201Y0168425I-000335J0000000D01*
G01*
X0151524Y0168425D01*
G75*
G02*
X0151189Y0168760I0000000J0000335D01*
G01*
X0151189Y0171437D01*
G75*
G02*
X0151524Y0171772I0000335J0000000D01*
G01*
X0154201Y0171772D01*
G75*
G02*
X0154536Y0171437I0000000J-000335D01*
G01*
G37*
G36*
G01*
X0148315Y0171437D02*
X0148315Y0168760D01*
G75*
G02*
X0147980Y0168425I-000335J0000000D01*
G01*
X0145303Y0168425D01*
G75*
G02*
X0144969Y0168760I0000000J0000335D01*
G01*
X0144969Y0171437D01*
G75*
G02*
X0145303Y0171772I0000335J0000000D01*
G01*
X0147980Y0171772D01*
G75*
G02*
X0148315Y0171437I0000000J-000335D01*
G01*
G37*
G36*
G01*
X0129122Y0177638D02*
X0131799Y0177638D01*
G75*
G02*
X0132134Y0177303I0000000J-000335D01*
G01*
X0132134Y0174626D01*
G75*
G02*
X0131799Y0174292I-000335J0000000D01*
G01*
X0129122Y0174292D01*
G75*
G02*
X0128788Y0174626I0000000J0000335D01*
G01*
X0128788Y0177303D01*
G75*
G02*
X0129122Y0177638I0000335J0000000D01*
G01*
G37*
G36*
G01*
X0129122Y0171418D02*
X0131799Y0171418D01*
G75*
G02*
X0132134Y0171083I0000000J-000335D01*
G01*
X0132134Y0168406D01*
G75*
G02*
X0131799Y0168071I-000335J0000000D01*
G01*
X0129122Y0168071D01*
G75*
G02*
X0128788Y0168406I0000000J0000335D01*
G01*
X0128788Y0171083D01*
G75*
G02*
X0129122Y0171418I0000335J0000000D01*
G01*
G37*
X0099382Y0213898D02*
G01*
G75*
D115*
X0114087Y0224122D02*
D03*
X0114087Y0216642D02*
D03*
X0105622Y0216642D02*
D03*
X0105622Y0220382D02*
D03*
X0129736Y0224122D02*
D03*
X0129736Y0216642D02*
D03*
X0121272Y0216642D02*
D03*
X0121272Y0220382D02*
D03*
D115*
X0105622Y0224122D02*
D03*
X0121272Y0224122D02*
D03*
D122*
X0134815Y0224134D02*
D03*
X0134815Y0220394D02*
D03*
X0134815Y0216654D02*
D03*
X0100563Y0220591D02*
D03*
X0100563Y0224134D02*
D03*
X0099185Y0193996D02*
G01*
G75*
D115*
X0113890Y0204220D02*
D03*
X0113890Y0196740D02*
D03*
X0105425Y0196740D02*
D03*
X0105425Y0200480D02*
D03*
X0129539Y0204220D02*
D03*
X0129539Y0196740D02*
D03*
X0121075Y0196740D02*
D03*
X0121075Y0200480D02*
D03*
D115*
X0105425Y0204220D02*
D03*
X0121075Y0204220D02*
D03*
D122*
X0134618Y0204232D02*
D03*
X0134618Y0200492D02*
D03*
X0134618Y0196752D02*
D03*
X0100366Y0200689D02*
D03*
X0100366Y0204232D02*
D03*
M02*
