G75*
G70*
%OFA0B0*%
%FSLAX25Y25*%
%IPPOS*%
%LPD*%
%AMOC8*
5,1,8,0,0,1.08239X$1,22.5*
%
%AMM145*
21,1,0.033470,0.026770,0.000000,-0.000000,90.000000*
21,1,0.026770,0.033470,0.000000,-0.000000,90.000000*
1,1,0.006690,0.013390,0.013390*
1,1,0.006690,0.013390,-0.013390*
1,1,0.006690,-0.013390,-0.013390*
1,1,0.006690,-0.013390,0.013390*
%
%AMM146*
21,1,0.035830,0.026770,0.000000,-0.000000,270.000000*
21,1,0.029130,0.033470,0.000000,-0.000000,270.000000*
1,1,0.006690,-0.013390,-0.014570*
1,1,0.006690,-0.013390,0.014570*
1,1,0.006690,0.013390,0.014570*
1,1,0.006690,0.013390,-0.014570*
%
%AMM147*
21,1,0.027560,0.030710,0.000000,-0.000000,270.000000*
21,1,0.022050,0.036220,0.000000,-0.000000,270.000000*
1,1,0.005510,-0.015350,-0.011020*
1,1,0.005510,-0.015350,0.011020*
1,1,0.005510,0.015350,0.011020*
1,1,0.005510,0.015350,-0.011020*
%
%AMM149*
21,1,0.033470,0.026770,0.000000,-0.000000,180.000000*
21,1,0.026770,0.033470,0.000000,-0.000000,180.000000*
1,1,0.006690,-0.013390,0.013390*
1,1,0.006690,0.013390,0.013390*
1,1,0.006690,0.013390,-0.013390*
1,1,0.006690,-0.013390,-0.013390*
%
%AMM2*
21,1,0.035830,0.026770,0.000000,0.000000,0.000000*
21,1,0.029130,0.033470,0.000000,0.000000,0.000000*
1,1,0.006690,0.014570,-0.013390*
1,1,0.006690,-0.014570,-0.013390*
1,1,0.006690,-0.014570,0.013390*
1,1,0.006690,0.014570,0.013390*
%
%AMM27*
21,1,0.070870,0.036220,0.000000,0.000000,90.000000*
21,1,0.061810,0.045280,0.000000,0.000000,90.000000*
1,1,0.009060,0.018110,0.030910*
1,1,0.009060,0.018110,-0.030910*
1,1,0.009060,-0.018110,-0.030910*
1,1,0.009060,-0.018110,0.030910*
%
%AMM273*
21,1,0.035430,0.030320,0.000000,-0.000000,0.000000*
21,1,0.028350,0.037400,0.000000,-0.000000,0.000000*
1,1,0.007090,0.014170,-0.015160*
1,1,0.007090,-0.014170,-0.015160*
1,1,0.007090,-0.014170,0.015160*
1,1,0.007090,0.014170,0.015160*
%
%AMM279*
21,1,0.027560,0.018900,0.000000,-0.000000,90.000000*
21,1,0.022840,0.023620,0.000000,-0.000000,90.000000*
1,1,0.004720,0.009450,0.011420*
1,1,0.004720,0.009450,-0.011420*
1,1,0.004720,-0.009450,-0.011420*
1,1,0.004720,-0.009450,0.011420*
%
%AMM282*
21,1,0.025590,0.026380,0.000000,-0.000000,0.000000*
21,1,0.020470,0.031500,0.000000,-0.000000,0.000000*
1,1,0.005120,0.010240,-0.013190*
1,1,0.005120,-0.010240,-0.013190*
1,1,0.005120,-0.010240,0.013190*
1,1,0.005120,0.010240,0.013190*
%
%AMM283*
21,1,0.017720,0.027950,0.000000,-0.000000,0.000000*
21,1,0.014170,0.031500,0.000000,-0.000000,0.000000*
1,1,0.003540,0.007090,-0.013980*
1,1,0.003540,-0.007090,-0.013980*
1,1,0.003540,-0.007090,0.013980*
1,1,0.003540,0.007090,0.013980*
%
%AMM285*
21,1,0.012600,0.028980,0.000000,-0.000000,0.000000*
21,1,0.010080,0.031500,0.000000,-0.000000,0.000000*
1,1,0.002520,0.005040,-0.014490*
1,1,0.002520,-0.005040,-0.014490*
1,1,0.002520,-0.005040,0.014490*
1,1,0.002520,0.005040,0.014490*
%
%AMM288*
21,1,0.027560,0.018900,0.000000,-0.000000,0.000000*
21,1,0.022840,0.023620,0.000000,-0.000000,0.000000*
1,1,0.004720,0.011420,-0.009450*
1,1,0.004720,-0.011420,-0.009450*
1,1,0.004720,-0.011420,0.009450*
1,1,0.004720,0.011420,0.009450*
%
%AMM30*
21,1,0.023620,0.018900,0.000000,0.000000,90.000000*
21,1,0.018900,0.023620,0.000000,0.000000,90.000000*
1,1,0.004720,0.009450,0.009450*
1,1,0.004720,0.009450,-0.009450*
1,1,0.004720,-0.009450,-0.009450*
1,1,0.004720,-0.009450,0.009450*
%
%AMM305*
21,1,0.035430,0.030320,0.000000,-0.000000,90.000000*
21,1,0.028350,0.037400,0.000000,-0.000000,90.000000*
1,1,0.007090,0.015160,0.014170*
1,1,0.007090,0.015160,-0.014170*
1,1,0.007090,-0.015160,-0.014170*
1,1,0.007090,-0.015160,0.014170*
%
%AMM306*
21,1,0.070870,0.036220,0.000000,-0.000000,270.000000*
21,1,0.061810,0.045280,0.000000,-0.000000,270.000000*
1,1,0.009060,-0.018110,-0.030910*
1,1,0.009060,-0.018110,0.030910*
1,1,0.009060,0.018110,0.030910*
1,1,0.009060,0.018110,-0.030910*
%
%AMM307*
21,1,0.059060,0.020470,0.000000,-0.000000,0.000000*
21,1,0.053940,0.025590,0.000000,-0.000000,0.000000*
1,1,0.005120,0.026970,-0.010240*
1,1,0.005120,-0.026970,-0.010240*
1,1,0.005120,-0.026970,0.010240*
1,1,0.005120,0.026970,0.010240*
%
%AMM308*
21,1,0.078740,0.045670,0.000000,-0.000000,0.000000*
21,1,0.067320,0.057090,0.000000,-0.000000,0.000000*
1,1,0.011420,0.033660,-0.022840*
1,1,0.011420,-0.033660,-0.022840*
1,1,0.011420,-0.033660,0.022840*
1,1,0.011420,0.033660,0.022840*
%
%AMM309*
21,1,0.025590,0.026380,0.000000,-0.000000,270.000000*
21,1,0.020470,0.031500,0.000000,-0.000000,270.000000*
1,1,0.005120,-0.013190,-0.010240*
1,1,0.005120,-0.013190,0.010240*
1,1,0.005120,0.013190,0.010240*
1,1,0.005120,0.013190,-0.010240*
%
%AMM31*
21,1,0.019680,0.019680,0.000000,0.000000,0.000000*
21,1,0.015750,0.023620,0.000000,0.000000,0.000000*
1,1,0.003940,0.007870,-0.009840*
1,1,0.003940,-0.007870,-0.009840*
1,1,0.003940,-0.007870,0.009840*
1,1,0.003940,0.007870,0.009840*
%
%AMM310*
21,1,0.017720,0.027950,0.000000,-0.000000,270.000000*
21,1,0.014170,0.031500,0.000000,-0.000000,270.000000*
1,1,0.003540,-0.013980,-0.007090*
1,1,0.003540,-0.013980,0.007090*
1,1,0.003540,0.013980,0.007090*
1,1,0.003540,0.013980,-0.007090*
%
%AMM311*
21,1,0.027560,0.030710,0.000000,-0.000000,0.000000*
21,1,0.022050,0.036220,0.000000,-0.000000,0.000000*
1,1,0.005510,0.011020,-0.015350*
1,1,0.005510,-0.011020,-0.015350*
1,1,0.005510,-0.011020,0.015350*
1,1,0.005510,0.011020,0.015350*
%
%AMM312*
21,1,0.027560,0.049610,0.000000,-0.000000,180.000000*
21,1,0.022050,0.055120,0.000000,-0.000000,180.000000*
1,1,0.005510,-0.011020,0.024800*
1,1,0.005510,0.011020,0.024800*
1,1,0.005510,0.011020,-0.024800*
1,1,0.005510,-0.011020,-0.024800*
%
%AMM313*
21,1,0.070870,0.036220,0.000000,-0.000000,0.000000*
21,1,0.061810,0.045280,0.000000,-0.000000,0.000000*
1,1,0.009060,0.030910,-0.018110*
1,1,0.009060,-0.030910,-0.018110*
1,1,0.009060,-0.030910,0.018110*
1,1,0.009060,0.030910,0.018110*
%
%AMM32*
21,1,0.019680,0.019680,0.000000,0.000000,270.000000*
21,1,0.015750,0.023620,0.000000,0.000000,270.000000*
1,1,0.003940,-0.009840,-0.007870*
1,1,0.003940,-0.009840,0.007870*
1,1,0.003940,0.009840,0.007870*
1,1,0.003940,0.009840,-0.007870*
%
%AMM45*
21,1,0.106300,0.050390,0.000000,0.000000,90.000000*
21,1,0.093700,0.062990,0.000000,0.000000,90.000000*
1,1,0.012600,0.025200,0.046850*
1,1,0.012600,0.025200,-0.046850*
1,1,0.012600,-0.025200,-0.046850*
1,1,0.012600,-0.025200,0.046850*
%
%AMM46*
21,1,0.023620,0.018900,0.000000,0.000000,180.000000*
21,1,0.018900,0.023620,0.000000,0.000000,180.000000*
1,1,0.004720,-0.009450,0.009450*
1,1,0.004720,0.009450,0.009450*
1,1,0.004720,0.009450,-0.009450*
1,1,0.004720,-0.009450,-0.009450*
%
%AMM47*
21,1,0.122050,0.075590,0.000000,0.000000,180.000000*
21,1,0.103150,0.094490,0.000000,0.000000,180.000000*
1,1,0.018900,-0.051580,0.037800*
1,1,0.018900,0.051580,0.037800*
1,1,0.018900,0.051580,-0.037800*
1,1,0.018900,-0.051580,-0.037800*
%
%AMM48*
21,1,0.118110,0.083460,0.000000,0.000000,0.000000*
21,1,0.097240,0.104330,0.000000,0.000000,0.000000*
1,1,0.020870,0.048620,-0.041730*
1,1,0.020870,-0.048620,-0.041730*
1,1,0.020870,-0.048620,0.041730*
1,1,0.020870,0.048620,0.041730*
%
%AMM5*
21,1,0.033470,0.026770,0.000000,0.000000,270.000000*
21,1,0.026770,0.033470,0.000000,0.000000,270.000000*
1,1,0.006690,-0.013390,-0.013390*
1,1,0.006690,-0.013390,0.013390*
1,1,0.006690,0.013390,0.013390*
1,1,0.006690,0.013390,-0.013390*
%
%ADD11R,0.09055X0.00787*%
%ADD113M45*%
%ADD114M46*%
%ADD115O,0.01968X0.08661*%
%ADD116M47*%
%ADD117M48*%
%ADD12R,0.42126X0.00787*%
%ADD13R,0.08268X0.00787*%
%ADD14R,0.23622X0.00787*%
%ADD15R,0.21260X0.00787*%
%ADD16R,0.00787X0.05512*%
%ADD17R,0.00787X0.19685*%
%ADD18R,0.00787X0.26772*%
%ADD19R,0.00787X0.17717*%
%ADD20R,0.06299X0.00787*%
%ADD202R,0.00984X0.01378*%
%ADD203R,0.01378X0.00984*%
%ADD21R,0.22441X0.00787*%
%ADD22R,0.07874X0.00787*%
%ADD269M145*%
%ADD270M146*%
%ADD271M147*%
%ADD273M149*%
%ADD324R,0.04331X0.03937*%
%ADD328R,0.06693X0.09449*%
%ADD334O,0.00984X0.04961*%
%ADD406M273*%
%ADD412M279*%
%ADD415M282*%
%ADD416M283*%
%ADD418M285*%
%ADD421M288*%
%ADD438M305*%
%ADD439M306*%
%ADD440M307*%
%ADD441M308*%
%ADD442M309*%
%ADD443M310*%
%ADD444M311*%
%ADD445M312*%
%ADD446M313*%
%ADD56M2*%
%ADD59M5*%
%ADD89M27*%
%ADD92M30*%
%ADD93M31*%
%ADD94M32*%
X0000000Y0000000D02*
%LPD*%
G01*
D11*
X0248347Y0273122D03*
D12*
X0377481Y0273122D03*
D13*
X0345198Y0273122D03*
D14*
X0297757Y0273122D03*
D15*
X0271379Y0273122D03*
D16*
X0244213Y0266035D03*
D17*
X0401300Y0260524D03*
D18*
X0401300Y0227059D03*
D19*
X0401300Y0188280D03*
D20*
X0395394Y0107374D03*
D21*
X0270001Y0107374D03*
D22*
X0247757Y0107374D03*
X0113437Y0096287D02*
G01*
G75*
D56*
X0143352Y0172665D02*
D03*
X0130360Y0172665D02*
D03*
D89*
X0163212Y0173059D02*
D03*
X0151795Y0173059D02*
D03*
X0163212Y0165027D02*
D03*
X0151795Y0165027D02*
D03*
D92*
X0125839Y0151011D02*
D03*
X0125839Y0154948D02*
D03*
X0122492Y0165578D02*
D03*
X0131154Y0165578D02*
D03*
X0121705Y0160330D02*
D03*
X0130366Y0160330D02*
D03*
D93*
X0133592Y0107704D02*
D03*
X0130048Y0107704D02*
D03*
X0142983Y0144437D02*
D03*
X0146527Y0144437D02*
D03*
X0134986Y0159542D02*
D03*
X0138529Y0159542D02*
D03*
X0142210Y0107704D02*
D03*
X0138667Y0107704D02*
D03*
X0121705Y0111641D02*
D03*
X0125248Y0111641D02*
D03*
D94*
X0147190Y0161117D02*
D03*
X0147190Y0164661D02*
D03*
X0126423Y0173519D02*
D03*
X0126423Y0169975D02*
D03*
X0175187Y0115202D02*
D03*
X0175187Y0118746D02*
D03*
D113*
X0162650Y0152586D02*
D03*
X0151626Y0152586D02*
D03*
D59*
X0129972Y0148263D02*
D03*
X0129972Y0154483D02*
D03*
X0144066Y0148263D02*
D03*
X0144066Y0154483D02*
D03*
X0139375Y0148263D02*
D03*
X0139375Y0154483D02*
D03*
X0134683Y0148263D02*
D03*
X0134683Y0154483D02*
D03*
X0142885Y0160507D02*
D03*
X0142885Y0166728D02*
D03*
D114*
X0133395Y0111641D02*
D03*
X0129458Y0111641D02*
D03*
X0138076Y0111641D02*
D03*
X0142013Y0111641D02*
D03*
X0134789Y0165578D02*
D03*
X0138726Y0165578D02*
D03*
X0157722Y0143964D02*
D03*
X0161659Y0143964D02*
D03*
X0165498Y0106523D02*
D03*
X0161560Y0106523D02*
D03*
D115*
X0138509Y0118401D02*
D03*
X0133509Y0118401D02*
D03*
X0128509Y0118401D02*
D03*
X0123509Y0118401D02*
D03*
X0138509Y0141038D02*
D03*
X0133509Y0141038D02*
D03*
X0128509Y0141038D02*
D03*
X0123509Y0141038D02*
D03*
X0161576Y0113118D02*
D03*
X0156576Y0113118D02*
D03*
X0151576Y0113118D02*
D03*
X0146576Y0113118D02*
D03*
X0161576Y0136543D02*
D03*
X0156576Y0136543D02*
D03*
X0151576Y0136543D02*
D03*
X0146576Y0136543D02*
D03*
D116*
X0131009Y0129719D02*
D03*
D117*
X0154076Y0124830D02*
D03*
X0185965Y0273516D02*
G01*
G75*
D15*
X0213524Y0273122D02*
D03*
D11*
X0190493Y0273122D02*
D03*
D14*
X0239902Y0273122D02*
D03*
D22*
X0189902Y0107374D02*
D03*
D13*
X0287343Y0273122D02*
D03*
D12*
X0319626Y0273122D02*
D03*
D17*
X0343445Y0260524D02*
D03*
D18*
X0343445Y0227059D02*
D03*
D19*
X0343445Y0188280D02*
D03*
D21*
X0212146Y0107374D02*
D03*
D20*
X0337540Y0107374D02*
D03*
D16*
X0186359Y0266036D02*
D03*
D406*
X0287207Y0261901D02*
D03*
X0290947Y0252649D02*
D03*
D406*
X0294688Y0261901D02*
D03*
D412*
X0237933Y0241823D02*
D03*
X0241870Y0241823D02*
D03*
X0280847Y0121154D02*
D03*
X0276910Y0121154D02*
D03*
X0340099Y0244874D02*
D03*
X0336162Y0244874D02*
D03*
X0262737Y0211691D02*
D03*
X0258800Y0211691D02*
D03*
X0262665Y0194786D02*
D03*
X0266602Y0194786D02*
D03*
X0259193Y0216823D02*
D03*
X0263130Y0216823D02*
D03*
X0242781Y0268017D02*
D03*
X0238844Y0268017D02*
D03*
X0311949Y0250288D02*
D03*
X0308012Y0250288D02*
D03*
X0331044Y0270760D02*
D03*
X0334981Y0270760D02*
D03*
X0255256Y0138870D02*
D03*
X0251319Y0138870D02*
D03*
X0319823Y0212492D02*
D03*
X0323760Y0212492D02*
D03*
X0253386Y0182275D02*
D03*
X0257323Y0182275D02*
D03*
X0334686Y0193300D02*
D03*
X0338622Y0193300D02*
D03*
X0267067Y0140445D02*
D03*
X0263130Y0140445D02*
D03*
X0267067Y0136508D02*
D03*
X0263130Y0136508D02*
D03*
X0331044Y0266626D02*
D03*
X0334981Y0266626D02*
D03*
X0282422Y0129618D02*
D03*
X0278485Y0129618D02*
D03*
X0304863Y0129815D02*
D03*
X0300926Y0129815D02*
D03*
X0253386Y0177945D02*
D03*
X0257323Y0177945D02*
D03*
X0339902Y0174303D02*
D03*
X0335965Y0174303D02*
D03*
X0290296Y0212492D02*
D03*
X0294233Y0212492D02*
D03*
X0286752Y0212492D02*
D03*
X0282815Y0212492D02*
D03*
X0210374Y0225878D02*
D03*
X0206437Y0225878D02*
D03*
X0210374Y0221154D02*
D03*
X0206437Y0221154D02*
D03*
X0210374Y0216429D02*
D03*
X0206437Y0216429D02*
D03*
X0210374Y0211705D02*
D03*
X0206437Y0211705D02*
D03*
X0191083Y0127059D02*
D03*
X0195020Y0127059D02*
D03*
X0195020Y0122335D02*
D03*
X0191083Y0122335D02*
D03*
X0191083Y0117611D02*
D03*
X0195020Y0117611D02*
D03*
X0191083Y0112886D02*
D03*
X0195020Y0112886D02*
D03*
X0237933Y0245760D02*
D03*
X0241870Y0245760D02*
D03*
X0237933Y0217807D02*
D03*
X0241870Y0217807D02*
D03*
X0210374Y0249500D02*
D03*
X0206437Y0249500D02*
D03*
X0210374Y0254224D02*
D03*
X0206437Y0254224D02*
D03*
X0210374Y0258949D02*
D03*
X0206437Y0258949D02*
D03*
X0210374Y0263673D02*
D03*
X0206437Y0263673D02*
D03*
X0210374Y0230602D02*
D03*
X0206437Y0230602D02*
D03*
X0210374Y0235327D02*
D03*
X0206437Y0235327D02*
D03*
X0210374Y0240051D02*
D03*
X0206437Y0240051D02*
D03*
X0210374Y0244776D02*
D03*
X0206437Y0244776D02*
D03*
X0210374Y0192807D02*
D03*
X0206437Y0192807D02*
D03*
X0210374Y0197531D02*
D03*
X0206437Y0197531D02*
D03*
X0210374Y0202256D02*
D03*
X0206437Y0202256D02*
D03*
X0210374Y0206980D02*
D03*
X0206437Y0206980D02*
D03*
X0206437Y0173909D02*
D03*
X0210374Y0173909D02*
D03*
X0210374Y0178634D02*
D03*
X0206437Y0178634D02*
D03*
X0210374Y0183358D02*
D03*
X0206437Y0183358D02*
D03*
X0210374Y0188083D02*
D03*
X0206437Y0188083D02*
D03*
X0210374Y0155012D02*
D03*
X0206437Y0155012D02*
D03*
X0210374Y0159736D02*
D03*
X0206437Y0159736D02*
D03*
X0210374Y0164461D02*
D03*
X0206437Y0164461D02*
D03*
X0210374Y0169185D02*
D03*
X0206437Y0169185D02*
D03*
X0210374Y0140839D02*
D03*
X0206437Y0140839D02*
D03*
X0210374Y0145563D02*
D03*
X0206437Y0145563D02*
D03*
X0210374Y0150288D02*
D03*
X0206437Y0150288D02*
D03*
X0201122Y0268792D02*
D03*
X0205059Y0268792D02*
D03*
X0195020Y0131783D02*
D03*
X0191083Y0131783D02*
D03*
X0227697Y0217807D02*
D03*
X0231634Y0217807D02*
D03*
X0206437Y0130209D02*
D03*
X0210374Y0130209D02*
D03*
X0193445Y0268792D02*
D03*
X0197382Y0268792D02*
D03*
X0202500Y0130209D02*
D03*
X0198563Y0130209D02*
D03*
X0332815Y0125091D02*
D03*
X0328878Y0125091D02*
D03*
X0210374Y0136114D02*
D03*
X0206437Y0136114D02*
D03*
D415*
X0302796Y0236114D02*
D03*
X0302796Y0229028D02*
D03*
X0292756Y0229028D02*
D03*
X0292756Y0236114D02*
D03*
X0254567Y0221547D02*
D03*
X0254567Y0228634D02*
D03*
X0264607Y0228634D02*
D03*
X0264607Y0221547D02*
D03*
X0270709Y0221547D02*
D03*
X0270709Y0228634D02*
D03*
X0280749Y0228634D02*
D03*
X0280749Y0221547D02*
D03*
X0234882Y0126075D02*
D03*
X0234882Y0133162D02*
D03*
X0224843Y0133162D02*
D03*
X0224843Y0126075D02*
D03*
X0224843Y0144579D02*
D03*
X0224843Y0137492D02*
D03*
X0234882Y0137492D02*
D03*
X0234882Y0144579D02*
D03*
X0234882Y0194579D02*
D03*
X0234882Y0201665D02*
D03*
X0224843Y0201665D02*
D03*
X0224843Y0194579D02*
D03*
X0224843Y0213083D02*
D03*
X0224843Y0205996D02*
D03*
X0234882Y0205996D02*
D03*
X0234882Y0213083D02*
D03*
X0234882Y0171744D02*
D03*
X0234882Y0178831D02*
D03*
X0224843Y0178831D02*
D03*
X0224843Y0171744D02*
D03*
X0224843Y0190248D02*
D03*
X0224843Y0183161D02*
D03*
X0234882Y0183161D02*
D03*
X0234882Y0190248D02*
D03*
X0234882Y0148909D02*
D03*
X0234882Y0155996D02*
D03*
X0224843Y0155996D02*
D03*
X0224843Y0148909D02*
D03*
X0224843Y0167413D02*
D03*
X0224843Y0160327D02*
D03*
X0234882Y0160327D02*
D03*
X0234882Y0167413D02*
D03*
D416*
X0296201Y0229028D02*
D03*
X0299351Y0229028D02*
D03*
X0299351Y0236114D02*
D03*
X0296201Y0236114D02*
D03*
X0261162Y0228634D02*
D03*
X0258012Y0228634D02*
D03*
X0258012Y0221547D02*
D03*
X0261162Y0221547D02*
D03*
X0277304Y0228634D02*
D03*
X0274154Y0228634D02*
D03*
X0274154Y0221547D02*
D03*
X0277304Y0221547D02*
D03*
X0231437Y0126075D02*
D03*
X0228288Y0126075D02*
D03*
X0228288Y0133162D02*
D03*
X0231437Y0133162D02*
D03*
X0228288Y0144579D02*
D03*
X0231437Y0144579D02*
D03*
X0231437Y0137492D02*
D03*
X0228288Y0137492D02*
D03*
X0231437Y0194579D02*
D03*
X0228288Y0194579D02*
D03*
X0228288Y0201665D02*
D03*
X0231437Y0201665D02*
D03*
X0228288Y0213083D02*
D03*
X0231437Y0213083D02*
D03*
X0231437Y0205996D02*
D03*
X0228288Y0205996D02*
D03*
X0231437Y0171744D02*
D03*
X0228288Y0171744D02*
D03*
X0228288Y0178831D02*
D03*
X0231437Y0178831D02*
D03*
X0228288Y0190248D02*
D03*
X0231437Y0190248D02*
D03*
X0231437Y0183161D02*
D03*
X0228288Y0183161D02*
D03*
X0231437Y0148909D02*
D03*
X0228288Y0148909D02*
D03*
X0228288Y0155996D02*
D03*
X0231437Y0155996D02*
D03*
X0228288Y0167413D02*
D03*
X0231437Y0167413D02*
D03*
X0231437Y0160327D02*
D03*
X0228288Y0160327D02*
D03*
D418*
X0296792Y0248122D02*
D03*
X0299351Y0248122D02*
D03*
X0301910Y0248122D02*
D03*
X0301910Y0240642D02*
D03*
X0296792Y0240642D02*
D03*
D421*
X0337343Y0229815D02*
D03*
X0337343Y0233752D02*
D03*
X0321595Y0113673D02*
D03*
X0321595Y0117611D02*
D03*
X0316774Y0254773D02*
D03*
X0316774Y0250836D02*
D03*
X0310768Y0232177D02*
D03*
X0310768Y0236114D02*
D03*
X0306831Y0241233D02*
D03*
X0306831Y0237296D02*
D03*
X0256044Y0132177D02*
D03*
X0256044Y0128240D02*
D03*
X0337934Y0201469D02*
D03*
X0337934Y0197532D02*
D03*
X0325729Y0132768D02*
D03*
X0325729Y0128831D02*
D03*
X0336752Y0160130D02*
D03*
X0336752Y0156193D02*
D03*
X0249943Y0204606D02*
D03*
X0249943Y0208543D02*
D03*
X0272579Y0213870D02*
D03*
X0272579Y0209933D02*
D03*
X0271004Y0203831D02*
D03*
X0271004Y0199894D02*
D03*
X0299351Y0204618D02*
D03*
X0299351Y0200681D02*
D03*
X0339508Y0109343D02*
D03*
X0339508Y0113280D02*
D03*
X0338524Y0222532D02*
D03*
X0338524Y0226469D02*
D03*
X0324154Y0240445D02*
D03*
X0324154Y0236508D02*
D03*
X0262343Y0129421D02*
D03*
X0262343Y0125484D02*
D03*
X0266280Y0129421D02*
D03*
X0266280Y0125484D02*
D03*
X0329666Y0128831D02*
D03*
X0329666Y0132768D02*
D03*
X0253780Y0155898D02*
D03*
X0253780Y0159835D02*
D03*
X0298957Y0212492D02*
D03*
X0298957Y0208555D02*
D03*
X0267264Y0212492D02*
D03*
X0267264Y0208555D02*
D03*
X0322579Y0204225D02*
D03*
X0322579Y0200288D02*
D03*
X0307225Y0205012D02*
D03*
X0307225Y0201075D02*
D03*
X0253386Y0190150D02*
D03*
X0253386Y0186213D02*
D03*
X0241083Y0135917D02*
D03*
X0241083Y0139854D02*
D03*
X0241083Y0204421D02*
D03*
X0241083Y0208358D02*
D03*
X0241083Y0181587D02*
D03*
X0241083Y0185524D02*
D03*
X0241083Y0158752D02*
D03*
X0241083Y0162689D02*
D03*
X0217067Y0197925D02*
D03*
X0217067Y0201862D02*
D03*
X0220611Y0252977D02*
D03*
X0220611Y0249040D02*
D03*
X0220611Y0262166D02*
D03*
X0220611Y0266103D02*
D03*
X0220611Y0228173D02*
D03*
X0220611Y0224236D02*
D03*
X0220611Y0237362D02*
D03*
X0220611Y0241299D02*
D03*
X0302500Y0265642D02*
D03*
X0302500Y0269579D02*
D03*
X0302500Y0259736D02*
D03*
X0302500Y0255799D02*
D03*
X0214311Y0222728D02*
D03*
X0214311Y0226665D02*
D03*
X0252107Y0269579D02*
D03*
X0252107Y0265642D02*
D03*
X0264508Y0269579D02*
D03*
X0264508Y0265642D02*
D03*
X0268642Y0269579D02*
D03*
X0268642Y0265642D02*
D03*
X0276910Y0269579D02*
D03*
X0276910Y0265642D02*
D03*
X0272776Y0269579D02*
D03*
X0272776Y0265642D02*
D03*
X0281044Y0269579D02*
D03*
X0281044Y0265642D02*
D03*
X0260375Y0269579D02*
D03*
X0260375Y0265642D02*
D03*
X0256241Y0269579D02*
D03*
X0256241Y0265642D02*
D03*
D269*
X0303485Y0219539D02*
D03*
X0303485Y0213319D02*
D03*
D438*
X0313836Y0116936D02*
D03*
X0304584Y0113196D02*
D03*
X0256085Y0199365D02*
D03*
X0265337Y0203105D02*
D03*
X0316949Y0262886D02*
D03*
X0326201Y0266626D02*
D03*
X0330374Y0257177D02*
D03*
X0321123Y0253437D02*
D03*
X0221989Y0120563D02*
D03*
X0212737Y0116823D02*
D03*
X0227632Y0116823D02*
D03*
X0236884Y0120563D02*
D03*
X0251779Y0120563D02*
D03*
X0242527Y0116823D02*
D03*
X0266674Y0121350D02*
D03*
X0257422Y0117610D02*
D03*
D438*
X0304584Y0120676D02*
D03*
X0256085Y0206845D02*
D03*
X0316949Y0270366D02*
D03*
X0330375Y0249697D02*
D03*
X0221989Y0113083D02*
D03*
X0236884Y0113083D02*
D03*
X0251779Y0113083D02*
D03*
X0266674Y0113870D02*
D03*
D270*
X0309587Y0269185D02*
D03*
X0309587Y0256193D02*
D03*
X0319823Y0231784D02*
D03*
X0319823Y0218791D02*
D03*
D324*
X0318248Y0236705D02*
D03*
X0318248Y0243398D02*
D03*
D439*
X0280453Y0114461D02*
D03*
X0291870Y0114461D02*
D03*
D440*
X0291489Y0176390D02*
D03*
X0291489Y0172059D02*
D03*
X0291489Y0167728D02*
D03*
X0291489Y0163398D02*
D03*
X0291489Y0159067D02*
D03*
X0291489Y0154736D02*
D03*
X0291489Y0150405D02*
D03*
X0291489Y0146075D02*
D03*
D441*
X0281253Y0136705D02*
D03*
X0313930Y0136705D02*
D03*
X0313930Y0190838D02*
D03*
X0281253Y0190838D02*
D03*
D328*
X0292461Y0201468D02*
D03*
X0277894Y0201468D02*
D03*
D442*
X0268642Y0154913D02*
D03*
X0261556Y0154913D02*
D03*
X0261556Y0144874D02*
D03*
X0268642Y0144874D02*
D03*
X0193642Y0223811D02*
D03*
X0200729Y0223811D02*
D03*
X0200729Y0213772D02*
D03*
X0193642Y0213772D02*
D03*
X0228091Y0251961D02*
D03*
X0235178Y0251961D02*
D03*
X0235178Y0262000D02*
D03*
X0228091Y0262000D02*
D03*
X0246595Y0262000D02*
D03*
X0239508Y0262000D02*
D03*
X0239508Y0251961D02*
D03*
X0246595Y0251961D02*
D03*
X0228091Y0224008D02*
D03*
X0235178Y0224008D02*
D03*
X0235178Y0234047D02*
D03*
X0228091Y0234047D02*
D03*
X0246595Y0234047D02*
D03*
X0239508Y0234047D02*
D03*
X0239508Y0224008D02*
D03*
X0246595Y0224008D02*
D03*
X0193642Y0261606D02*
D03*
X0200729Y0261606D02*
D03*
X0200729Y0251567D02*
D03*
X0193642Y0251567D02*
D03*
X0193642Y0242709D02*
D03*
X0200729Y0242709D02*
D03*
X0200729Y0232670D02*
D03*
X0193642Y0232670D02*
D03*
X0193642Y0204914D02*
D03*
X0200729Y0204914D02*
D03*
X0200729Y0194874D02*
D03*
X0193642Y0194874D02*
D03*
X0193642Y0186016D02*
D03*
X0200729Y0186016D02*
D03*
X0200729Y0175976D02*
D03*
X0193642Y0175976D02*
D03*
X0193642Y0167118D02*
D03*
X0200729Y0167118D02*
D03*
X0200729Y0157079D02*
D03*
X0193642Y0157079D02*
D03*
X0193642Y0148221D02*
D03*
X0200729Y0148221D02*
D03*
X0200729Y0138181D02*
D03*
X0193642Y0138181D02*
D03*
X0199351Y0114953D02*
D03*
X0206437Y0114953D02*
D03*
X0206437Y0124992D02*
D03*
X0199351Y0124992D02*
D03*
D443*
X0268642Y0151469D02*
D03*
X0268642Y0148319D02*
D03*
X0261556Y0148319D02*
D03*
X0261556Y0151469D02*
D03*
X0200729Y0217217D02*
D03*
X0200729Y0220366D02*
D03*
X0193642Y0220366D02*
D03*
X0193642Y0217217D02*
D03*
X0228091Y0255406D02*
D03*
X0228091Y0258555D02*
D03*
X0235178Y0258555D02*
D03*
X0235178Y0255406D02*
D03*
X0246595Y0258555D02*
D03*
X0246595Y0255406D02*
D03*
X0239508Y0255406D02*
D03*
X0239508Y0258555D02*
D03*
X0228091Y0227453D02*
D03*
X0228091Y0230603D02*
D03*
X0235178Y0230603D02*
D03*
X0235178Y0227453D02*
D03*
X0246595Y0230602D02*
D03*
X0246595Y0227453D02*
D03*
X0239508Y0227453D02*
D03*
X0239508Y0230602D02*
D03*
X0200729Y0255012D02*
D03*
X0200729Y0258161D02*
D03*
X0193642Y0258161D02*
D03*
X0193642Y0255012D02*
D03*
X0200729Y0236114D02*
D03*
X0200729Y0239264D02*
D03*
X0193642Y0239264D02*
D03*
X0193642Y0236114D02*
D03*
X0200729Y0198319D02*
D03*
X0200729Y0201469D02*
D03*
X0193642Y0201469D02*
D03*
X0193642Y0198319D02*
D03*
X0200729Y0179421D02*
D03*
X0200729Y0182571D02*
D03*
X0193642Y0182571D02*
D03*
X0193642Y0179421D02*
D03*
X0200729Y0160524D02*
D03*
X0200729Y0163673D02*
D03*
X0193642Y0163673D02*
D03*
X0193642Y0160524D02*
D03*
X0200729Y0141626D02*
D03*
X0200729Y0144776D02*
D03*
X0193642Y0144776D02*
D03*
X0193642Y0141626D02*
D03*
X0199351Y0118398D02*
D03*
X0199351Y0121547D02*
D03*
X0206437Y0121547D02*
D03*
X0206437Y0118398D02*
D03*
D444*
X0296201Y0129815D02*
D03*
X0289902Y0129815D02*
D03*
X0331930Y0183457D02*
D03*
X0338229Y0183457D02*
D03*
X0298170Y0268791D02*
D03*
X0291870Y0268791D02*
D03*
X0288721Y0124303D02*
D03*
X0295020Y0124303D02*
D03*
D445*
X0317658Y0204225D02*
D03*
X0311752Y0204225D02*
D03*
D271*
X0312737Y0213279D02*
D03*
X0312737Y0219579D02*
D03*
X0308111Y0213279D02*
D03*
X0308111Y0219579D02*
D03*
D446*
X0337343Y0261705D02*
D03*
X0337343Y0250288D02*
D03*
D273*
X0277146Y0125288D02*
D03*
X0283367Y0125288D02*
D03*
X0306792Y0196744D02*
D03*
X0300571Y0196744D02*
D03*
D334*
X0253091Y0259894D02*
D03*
X0255650Y0259894D02*
D03*
X0258209Y0259894D02*
D03*
X0260768Y0259894D02*
D03*
X0263327Y0259894D02*
D03*
X0265886Y0259894D02*
D03*
X0268445Y0259894D02*
D03*
X0271004Y0259894D02*
D03*
X0273563Y0259894D02*
D03*
X0276123Y0259894D02*
D03*
X0278681Y0259894D02*
D03*
X0281241Y0259894D02*
D03*
X0253091Y0236901D02*
D03*
X0255650Y0236901D02*
D03*
X0258209Y0236901D02*
D03*
X0260768Y0236901D02*
D03*
X0263327Y0236901D02*
D03*
X0265886Y0236901D02*
D03*
X0268445Y0236901D02*
D03*
X0271004Y0236901D02*
D03*
X0273563Y0236901D02*
D03*
X0276123Y0236901D02*
D03*
X0278681Y0236901D02*
D03*
X0281241Y0236901D02*
D03*
D203*
X0329272Y0116626D02*
D03*
X0329272Y0118594D02*
D03*
X0335571Y0118594D02*
D03*
X0335571Y0116626D02*
D03*
D202*
X0329469Y0120760D02*
D03*
X0331438Y0120760D02*
D03*
X0333406Y0120760D02*
D03*
X0335374Y0120760D02*
D03*
X0329469Y0114460D02*
D03*
X0335374Y0114460D02*
D03*
X0331438Y0114460D02*
D03*
X0333406Y0114460D02*
D03*
X0117280Y0182876D02*
%LPD*%
G01*
X0115902Y0224406D02*
G01*
G75*
D114*
X0143855Y0234642D02*
D03*
X0147792Y0234642D02*
D03*
X0132732Y0234642D02*
D03*
X0128795Y0234642D02*
D03*
X0124366Y0234642D02*
D03*
X0120429Y0234642D02*
D03*
X0143855Y0227359D02*
D03*
X0147792Y0227359D02*
D03*
D94*
X0140470Y0227162D02*
D03*
X0140470Y0230705D02*
D03*
D59*
X0136585Y0233875D02*
D03*
X0136585Y0227654D02*
D03*
D93*
X0123973Y0230705D02*
D03*
X0120430Y0230705D02*
D03*
X0132339Y0227162D02*
D03*
X0128796Y0227162D02*
D03*
X0147201Y0230763D02*
D03*
X0143658Y0230763D02*
D03*
X0120430Y0227162D02*
D03*
X0123973Y0227162D02*
D03*
M02*
