M48
INCH,TZ
T01C0.011800
T02C0.024600
T03C0.033450
T04C0.039200
T05C0.043300
T06C0.059100
T07C0.082700
T08C0.141700
%
T01
X8400Y34200
X8500Y18700
X8500Y14200
X8800Y34600
X9300Y24843
X14500Y24100
X14500Y19200
X15000Y20600
X15200Y14700
X15400Y22300
X15575Y19675
X16299Y17874
X24600Y29500
X30500Y32800
X31100Y31100
X31736Y31100
X33200Y29500
X33700Y23200
X33700Y21700
X34300Y23099
X34410Y39300
X36900Y30500
X10005Y16238
X10005Y15844
X10037Y20423
X10037Y20069
X10056Y22413
X10056Y22059
X13462Y20423
X13462Y20049
X13462Y19675
X13481Y22413
X13481Y22039
X13481Y21665
X15684Y18781
X15684Y18309
X15684Y17837
X15684Y17364
X16674Y23425
X16674Y22480
X16674Y21063
X16674Y20118
X16674Y15866
X16674Y14449
X16674Y12598
X16674Y11181
X16674Y27205
X16674Y26260
X16674Y25787
X16674Y25315
X16674Y24843
X16674Y24370
X16674Y23898
X16674Y22953
X16674Y22008
X16674Y21535
X16674Y20591
X16674Y19646
X16674Y19173
X16674Y18701
X16674Y18228
X16674Y17756
X16674Y17283
X16674Y16811
X16674Y16339
X16674Y15394
X16674Y14921
X16674Y13976
X16674Y13504
X16674Y13071
X16674Y12126
X16674Y11654
X17540Y10945
X17658Y27362
X17855Y10945
X18052Y27362
X20493Y10945
X20571Y27362
X20807Y10945
X21122Y10945
X21437Y10945
X21752Y10945
X22067Y10945
X22382Y10945
X22697Y10945
X22878Y31466
X22878Y31072
X23012Y10945
X23327Y10945
X23327Y27362
X23642Y10945
X23721Y27362
X23957Y10945
X24115Y27362
X24272Y10945
X24508Y27362
X24587Y10945
X24902Y10945
X24902Y27362
X25217Y10945
X25296Y27362
X25532Y10945
X25689Y27362
X25847Y10945
X26083Y27362
X26162Y10945
X26477Y10945
X26792Y10945
X27107Y10945
X27304Y27362
X27422Y10945
X27619Y27362
X27737Y10945
X28052Y10945
X28367Y10945
X28681Y10945
X28996Y10945
X29311Y10945
X29626Y10945
X29941Y10945
X30256Y10945
X30571Y10945
X30886Y10945
X31201Y10945
X32225Y27362
X32225Y25000
X32225Y24685
X32225Y24370
X32225Y21299
X32225Y20984
X32225Y20669
X32225Y20354
X32225Y20039
X32225Y17874
X32225Y17559
X32225Y16929
X32225Y16614
X32225Y16299
X32225Y15984
X32225Y15039
X32225Y14724
X32225Y14409
X32225Y14094
X32225Y13780
X32225Y13465
X32225Y12835
X32225Y12520
X32225Y12205
X32225Y11890
X32225Y10945
X32225Y17244
X32225Y15669
X32225Y15354
X32225Y13150
X32225Y11575
X32225Y11260
X36112Y16427
X36575Y15935
X36722Y14882
X36712Y13918
X36516Y12933
X36672Y11921
X37510Y11860
X37864Y11467
X37953Y12835
X39350Y11388
X39281Y15935
X17396Y29838
X17124Y30474
X17338Y30859
X16697Y31288
X16657Y31624
X16854Y32214
X17130Y32470
X17248Y33001
X16854Y33297
X16657Y32805
X16657Y33986
X16657Y35561
X17130Y35541
X18241Y35833
X19288Y35808
X19610Y35520
X20663Y35445
X21775Y35561
X22563Y35561
X22090Y34557
X21445Y34551
X21505Y33305
X21972Y33395
X22140Y32915
X22563Y33198
X22141Y32030
X22837Y31858
X22878Y31466
X22878Y31072
X22196Y31166
X21886Y30677
X22273Y30360
X21876Y29930
X21487Y30309
X21412Y31033
X21460Y31466
X20144Y30481
X20144Y29852
X19225Y29838
X18370Y29838
X18593Y30480
X19177Y31505
X19570Y32952
X18823Y33001
X19256Y33511
X19845Y34509
X20791Y36466
X21723Y36533
X21775Y36938
X22563Y36742
X22169Y36151
X19695Y37291
X19737Y37697
X18908Y37281
X18643Y36878
X17206Y36955
X17615Y36320
X16775Y36087
X16674Y27204
X17073Y27281
X17658Y27362
X18052Y27362
X18312Y26604
X18328Y25890
X18351Y25606
X18170Y25000
X18170Y24685
X18358Y24119
X18358Y23693
X18170Y23110
X18170Y22795
X18340Y22226
X18349Y21941
X18148Y21253
X18148Y20869
X18374Y20358
X18358Y19916
X18170Y19330
X18170Y19015
X18267Y18435
X18328Y18051
X18170Y17441
X18170Y17126
X18328Y16496
X18328Y16181
X18170Y15551
X18170Y15236
X18328Y14606
X18328Y14291
X18170Y13661
X18406Y13425
X19273Y13149
X19154Y12834
X18879Y12637
X18879Y12283
X19804Y12195
X19824Y12697
X20102Y12634
X20946Y12736
X21084Y12362
X21359Y12258
X20847Y12155
X22173Y12434
X22670Y12442
X22698Y12756
X23091Y12716
X23879Y12834
X23955Y13429
X23997Y13819
X24008Y14153
X23721Y13897
X23561Y13645
X24425Y13482
X24812Y13466
X24972Y13711
X25217Y13325
X25925Y13415
X26202Y13346
X27068Y13464
X27422Y13661
X27983Y13434
X28367Y13413
X28071Y12612
X27850Y12289
X27826Y11906
X29286Y12327
X29936Y12376
X30119Y12157
X30534Y12719
X30727Y13443
X30414Y13819
X30562Y14063
X31241Y14212
X31123Y14488
X31330Y13266
X31204Y12988
X31723Y12844
X31824Y12529
X31268Y11906
X31258Y15815
X31308Y16113
X30669Y16059
X30459Y15720
X29784Y15123
X29548Y15315
X29312Y15551
X29076Y16378
X28972Y16997
X29312Y16968
X28884Y17278
X28682Y17480
X27737Y17323
X27713Y16889
X27973Y16063
X27973Y15748
X27557Y15604
X27658Y14960
X28367Y14921
X28538Y14693
X27895Y14370
X26950Y14370
X26635Y15315
X26635Y15630
X26068Y15551
X25099Y15630
X25099Y15236
X25576Y14958
X25685Y14244
X24928Y14380
X24551Y14366
X24469Y15433
X23750Y15354
X23761Y15039
X23676Y15927
X22895Y15708
X22816Y15393
X22934Y14763
X22789Y14517
X22541Y14223
X22068Y14586
X22068Y14980
X21753Y15630
X21756Y15945
X21753Y16260
X21889Y16889
X22078Y17156
X22619Y17047
X22855Y16834
X22450Y16684
X22619Y17677
X22895Y17598
X22934Y18464
X22580Y18543
X21753Y18543
X21756Y18228
X21792Y17913
X21359Y17637
X21044Y17637
X20759Y17628
X20217Y17401
X20217Y16811
X20454Y16437
X21084Y16437
X20946Y16870
X20808Y15413
X21098Y15418
X20946Y14586
X21084Y14153
X20454Y14153
X20217Y14527
X20217Y15118
X19469Y15689
X19371Y16196
X19371Y16481
X19371Y18085
X19371Y18371
X19455Y18644
X20454Y18720
X20217Y19094
X20217Y19645
X20808Y19980
X21098Y19985
X21768Y20176
X21756Y20511
X21753Y20826
X21084Y21004
X20946Y21437
X20217Y21338
X20454Y21004
X19487Y20766
X19332Y20261
X19371Y19975
X19727Y21508
X19371Y21865
X19371Y22150
X20021Y22165
X20722Y22215
X21399Y22234
X21694Y22221
X22053Y22234
X22540Y22244
X22973Y22204
X23101Y22584
X23121Y22869
X22619Y23031
X22186Y22893
X22186Y23425
X22449Y23884
X22690Y24046
X22810Y24448
X22581Y24667
X22864Y25066
X23210Y24744
X23296Y24252
X23779Y24185
X24115Y24219
X24499Y24173
X24784Y24173
X25336Y24173
X26084Y24212
X26674Y24015
X26876Y24261
X27333Y24070
X27907Y24119
X28565Y24574
X29076Y24537
X29391Y25236
X28497Y25164
X28013Y25320
X27934Y25708
X27930Y26102
X28498Y26690
X28485Y27086
X27619Y27362
X27304Y27362
X26910Y27323
X26084Y27362
X25690Y27362
X25296Y27362
X24902Y27362
X24509Y27362
X24115Y27362
X23721Y27362
X23328Y27362
X22807Y27221
X22601Y26707
X22284Y26181
X22422Y25866
X22184Y25689
X21979Y25029
X21694Y25016
X21399Y25029
X21044Y25000
X21187Y25481
X21194Y25983
X20769Y25826
X20443Y25943
X20415Y25555
X20021Y25886
X19469Y25925
X19371Y25644
X19440Y24882
X19440Y24409
X19371Y24040
X19371Y23755
X19430Y23346
X19391Y22992
X20021Y23405
X20454Y23346
X20769Y23031
X21162Y23169
X21162Y22539
X20329Y22665
X20454Y24409
X20021Y24645
X21051Y23869
X21334Y23828
X21910Y23897
X23111Y23740
X23427Y23340
X24612Y23295
X25217Y23336
X25631Y23358
X26202Y23346
X26713Y23336
X27422Y23336
X28446Y23295
X28716Y23395
X28825Y22492
X28504Y22494
X29439Y22468
X29640Y22264
X29568Y21821
X29154Y21771
X28869Y21771
X28048Y21771
X27659Y21785
X27658Y22308
X27373Y22308
X27354Y22022
X27107Y21811
X26753Y21889
X26300Y21776
X26307Y20870
X26416Y20587
X26674Y20708
X26991Y20957
X25887Y20945
X25105Y20797
X24706Y20708
X24361Y20895
X23446Y21181
X23430Y21710
X23686Y21853
X22688Y21889
X22395Y21535
X22085Y21455
X22619Y20787
X22633Y20302
X22918Y20315
X23899Y20154
X23942Y19746
X23663Y19685
X23958Y19409
X23982Y18760
X23697Y18769
X23977Y18346
X23840Y18095
X24373Y17608
X24666Y18501
X24670Y18984
X25030Y18720
X25532Y18386
X26005Y17913
X26044Y18819
X27225Y19291
X27186Y19606
X26688Y19885
X26251Y20354
X25060Y19882
X25257Y21732
X24666Y21968
X24725Y22283
X24789Y22693
X26773Y22480
X28240Y20955
X28682Y20945
X29312Y21023
X29597Y21015
X30071Y20883
X30348Y20955
X30847Y20826
X31432Y21279
X31987Y20511
X32100Y19715
X32055Y19390
X32097Y19102
X32094Y18783
X32088Y18469
X31202Y18858
X31231Y19478
X31231Y19764
X31241Y20049
X30236Y19904
X29942Y19842
X29430Y20187
X28682Y20039
X28170Y20197
X28091Y19291
X28003Y18936
X27737Y18661
X28879Y18858
X28603Y19311
X29312Y18149
X29784Y18622
X30722Y18622
X30926Y18228
X31325Y17888
X31243Y16939
X29981Y17756
X26528Y17441
X26646Y16929
X26465Y16707
X26646Y16487
X26423Y16309
X25257Y16456
X25060Y16968
X25769Y17086
X22846Y19171
X22501Y19409
X22068Y19547
X22068Y19252
X20946Y19153
X21084Y18720
X16871Y18937
X16674Y18700
X16871Y18464
X16674Y18228
X16871Y17992
X16674Y17756
X16871Y17519
X16674Y17283
X16871Y17047
X16674Y16811
X16871Y16574
X16674Y16338
X16871Y16102
X16674Y15866
X16871Y15630
X16674Y15393
X16871Y15157
X16674Y14921
X16871Y14685
X16674Y14448
X16871Y14212
X16674Y13976
X16871Y13740
X16674Y13504
X16674Y13071
X16871Y12834
X16674Y12598
X16871Y12362
X16674Y12126
X16871Y11889
X17578Y12193
X17578Y12666
X19430Y13700
X19371Y14306
X19371Y14591
X21753Y13976
X21756Y13661
X21753Y13346
X21698Y13060
X24715Y11958
X29076Y14252
X29358Y14211
X29945Y21692
X30276Y22016
X30552Y21941
X30417Y22265
X30867Y22657
X30751Y22925
X30590Y23215
X30577Y23515
X30296Y23464
X29666Y23228
X29401Y22853
X31251Y22724
X31095Y23395
X30788Y24147
X30943Y24516
X30648Y24535
X30244Y24385
X30257Y24714
X30456Y25208
X30254Y26071
X30163Y26480
X30729Y26417
X30808Y27263
X30414Y27283
X31694Y26693
X32147Y26653
X32147Y25571
X31350Y24931
X31447Y24191
X31989Y23171
X31871Y22165
X29311Y26210
X29076Y26378
X27358Y25406
X25952Y25796
X25926Y24990
X25217Y24990
X24509Y24990
X23800Y24990
X23416Y25425
X23647Y25740
X22972Y26110
X22019Y27234
X21399Y26624
X20729Y26949
X20572Y27362
X20021Y27126
X19430Y27323
X19233Y26771
X18751Y27008
X19566Y26372
X20355Y26496
X17265Y26771
X16705Y26728
X16871Y26496
X16674Y26260
X16871Y26023
X16674Y25787
X16871Y25551
X16674Y25315
X16871Y25078
X16674Y24842
X16871Y24606
X16674Y24370
X16871Y24134
X16674Y23897
X16871Y23661
X16674Y23425
X16871Y23189
X16674Y22952
X16871Y22716
X16674Y22480
X16871Y22244
X16674Y22008
X16871Y21771
X16674Y21535
X16871Y21299
X16674Y21063
X16871Y20826
X16674Y20590
X16871Y20354
X16674Y20118
X16871Y19882
X16674Y19645
X16871Y19409
X16674Y19173
X26477Y26811
X26637Y11773
X27402Y11811
X27618Y11624
X27737Y10945
X28052Y10945
X28367Y10945
X28682Y10945
X28997Y10945
X29312Y10945
X29627Y10945
X29942Y10945
X30257Y10945
X30572Y10945
X30887Y10945
X31202Y10945
X31517Y11023
X31202Y11346
X30372Y11218
X29154Y11183
X28210Y11183
X28552Y11800
X27422Y10945
X27107Y10945
X26792Y10945
X26477Y10945
X26162Y10945
X25847Y10945
X25532Y10945
X25217Y10945
X24902Y10945
X24587Y10945
X24273Y10945
X23958Y10945
X23643Y10945
X23328Y10945
X23013Y10945
X22698Y10945
X22383Y10945
X22068Y10945
X21753Y10945
X21438Y10945
X21123Y10945
X20808Y10945
X20493Y10945
X20368Y11773
X19666Y11771
X19509Y11456
X19755Y11311
X19194Y11338
X18879Y11220
X18603Y11141
X18210Y11141
X17855Y10945
X17540Y10945
X17570Y11289
X17571Y11751
X16674Y11653
X16871Y11417
X16674Y11181
X16989Y10984
X21044Y11456
X21099Y11796
X23993Y11228
X25582Y11555
X25582Y11850
X32225Y11574
X32225Y11260
X32225Y10945
X32225Y11889
X32225Y12204
X32225Y12519
X32225Y12834
X32225Y13149
X32225Y13464
X32225Y13779
X32225Y14094
X32225Y14409
X32225Y14724
X32225Y15039
X32225Y15354
X32225Y15669
X32225Y15984
X32225Y16299
X32225Y16614
X32225Y16929
X32225Y17244
X32225Y17559
X32225Y17874
X32225Y20039
X32225Y20354
X32225Y20669
X32225Y20984
X32225Y21299
X32199Y23435
X32225Y24370
X32225Y24685
X32225Y25000
X32225Y27362
X10133Y17344
X10133Y15376
X10172Y18683
X10999Y17266
X11156Y16203
X11274Y15376
X11511Y18683
X11904Y17777
X11944Y16793
X12495Y16163
X12534Y15376
X12928Y18683
X13164Y17974
X13243Y15376
X13329Y17283
X13755Y15730
X14266Y16596
X14503Y15651
X14660Y18683
X14975Y15376
X15293Y17858
X15566Y16990
X15566Y15651
X10005Y16238
X10005Y15844
X15684Y18781
X15684Y18309
X15684Y17837
X15684Y17364
X10062Y21519
X10214Y21772
X10056Y22059
X10056Y22414
X11058Y22080
X11332Y21975
X11575Y22188
X11025Y21675
X12504Y22415
X13481Y22414
X13481Y22040
X13481Y21666
X10042Y19529
X10194Y19782
X10036Y20069
X10036Y20424
X11038Y20090
X11312Y19985
X11555Y20198
X11005Y19685
X12484Y20425
X13461Y20424
X13461Y20050
X13461Y19676
T02
X1300Y33400
X37754Y9012
X37754Y6736
T03
X37285Y17433
X37285Y16433
X37285Y15433
X37285Y14433
X37285Y13433
X38285Y13433
X38285Y14433
X38285Y15433
X38285Y16433
X38285Y17433
X22776Y21496
X22658Y19803
X22698Y18071
X22658Y16181
X22658Y15039
X22658Y13858
X23131Y13346
T04
X16598Y37548
X16598Y36820
X16598Y34871
X16598Y30127
X22700Y37371
X22700Y34852
X22700Y34104
X22700Y32411
X22700Y29950
X34394Y29248
X35394Y29248
X36394Y29248
X16598Y30127
X16598Y34872
X22701Y34852
X22701Y34104
X22701Y32411
X22701Y29950
X22701Y37372
X16598Y37549
X16598Y36820
X31910Y27047
X31150Y23905
X31950Y23905
X31550Y21905
T05
X2626Y27362
X2626Y26362
X2626Y25362
X2626Y24362
X2626Y23362
X2626Y22362
X2626Y21362
X2626Y20362
X2626Y19362
X2626Y18362
X2626Y17362
X2626Y16362
X2626Y15362
X2626Y14362
X2626Y13362
X2626Y12362
X2626Y11362
X2626Y10362
X2626Y9362
X3626Y27362
X3626Y26362
X3626Y25362
X3626Y24362
X3626Y23362
X3626Y22362
X3626Y21362
X3626Y20362
X3626Y19362
X3626Y18362
X3626Y17362
X3626Y16362
X3626Y15362
X3626Y14362
X3626Y13362
X3626Y12362
X3626Y11362
X3626Y10362
X3626Y9362
X6008Y27362
X6008Y26362
X6008Y25362
X6008Y24362
X6008Y23362
X6008Y22362
X6008Y21362
X6008Y20362
X6008Y19362
X6008Y18362
X6008Y17362
X6008Y16362
X6008Y15362
X6008Y14362
X6008Y13362
X6008Y12362
X6008Y11362
X6008Y10362
X6008Y9362
X7008Y27362
X7008Y26362
X7008Y25362
X7008Y24362
X7008Y23362
X7008Y22362
X7008Y21362
X7008Y20362
X7008Y19362
X7008Y18362
X7008Y17362
X7008Y16362
X7008Y15362
X7008Y14362
X7008Y13362
X7008Y12362
X7008Y11362
X7008Y10362
X7008Y9362
T06
X3807Y32756
X3807Y30472
X4724Y31614
X7008Y32756
X7008Y30472
T07
X7012Y34724
X7012Y6772
T08
X3508Y36496
X3626Y5000
M30
