G75*
G70*
%OFA0B0*%
%FSLAX25Y25*%
%IPPOS*%
%LPD*%
%AMOC8*
5,1,8,0,0,1.08239X$1,22.5*
%
%AMM13*
21,1,0.041340,0.026770,0.000000,0.000000,0.000000*
21,1,0.029130,0.038980,0.000000,0.000000,0.000000*
1,1,0.012210,0.014570,-0.013390*
1,1,0.012210,-0.014570,-0.013390*
1,1,0.012210,-0.014570,0.013390*
1,1,0.012210,0.014570,0.013390*
%
%AMM156*
21,1,0.038980,0.026770,0.000000,-0.000000,90.000000*
21,1,0.026770,0.038980,0.000000,-0.000000,90.000000*
1,1,0.012210,0.013390,0.013390*
1,1,0.012210,0.013390,-0.013390*
1,1,0.012210,-0.013390,-0.013390*
1,1,0.012210,-0.013390,0.013390*
%
%AMM157*
21,1,0.041340,0.026770,0.000000,-0.000000,270.000000*
21,1,0.029130,0.038980,0.000000,-0.000000,270.000000*
1,1,0.012210,-0.013390,-0.014570*
1,1,0.012210,-0.013390,0.014570*
1,1,0.012210,0.013390,0.014570*
1,1,0.012210,0.013390,-0.014570*
%
%AMM158*
21,1,0.033070,0.030710,0.000000,-0.000000,270.000000*
21,1,0.022050,0.041730,0.000000,-0.000000,270.000000*
1,1,0.011020,-0.015350,-0.011020*
1,1,0.011020,-0.015350,0.011020*
1,1,0.011020,0.015350,0.011020*
1,1,0.011020,0.015350,-0.011020*
%
%AMM159*
21,1,0.040950,0.030320,0.000000,-0.000000,270.000000*
21,1,0.028350,0.042910,0.000000,-0.000000,270.000000*
1,1,0.012600,-0.015160,-0.014170*
1,1,0.012600,-0.015160,0.014170*
1,1,0.012600,0.015160,0.014170*
1,1,0.012600,0.015160,-0.014170*
%
%AMM160*
21,1,0.038980,0.026770,0.000000,-0.000000,180.000000*
21,1,0.026770,0.038980,0.000000,-0.000000,180.000000*
1,1,0.012210,-0.013390,0.013390*
1,1,0.012210,0.013390,0.013390*
1,1,0.012210,0.013390,-0.013390*
1,1,0.012210,-0.013390,-0.013390*
%
%AMM289*
21,1,0.039370,0.030320,0.000000,-0.000000,0.000000*
21,1,0.028350,0.041340,0.000000,-0.000000,0.000000*
1,1,0.011020,0.014170,-0.015160*
1,1,0.011020,-0.014170,-0.015160*
1,1,0.011020,-0.014170,0.015160*
1,1,0.011020,0.014170,0.015160*
%
%AMM290*
21,1,0.047240,0.075980,0.000000,-0.000000,270.000000*
21,1,0.034650,0.088580,0.000000,-0.000000,270.000000*
1,1,0.012600,-0.037990,-0.017320*
1,1,0.012600,-0.037990,0.017320*
1,1,0.012600,0.037990,0.017320*
1,1,0.012600,0.037990,-0.017320*
%
%AMM291*
21,1,0.047240,0.075990,0.000000,-0.000000,270.000000*
21,1,0.034650,0.088580,0.000000,-0.000000,270.000000*
1,1,0.012600,-0.037990,-0.017320*
1,1,0.012600,-0.037990,0.017320*
1,1,0.012600,0.037990,0.017320*
1,1,0.012600,0.037990,-0.017320*
%
%AMM292*
21,1,0.141730,0.067720,0.000000,-0.000000,270.000000*
21,1,0.120870,0.088580,0.000000,-0.000000,270.000000*
1,1,0.020870,-0.033860,-0.060430*
1,1,0.020870,-0.033860,0.060430*
1,1,0.020870,0.033860,0.060430*
1,1,0.020870,0.033860,-0.060430*
%
%AMM293*
21,1,0.043310,0.035430,0.000000,-0.000000,270.000000*
21,1,0.031500,0.047240,0.000000,-0.000000,270.000000*
1,1,0.011810,-0.017720,-0.015750*
1,1,0.011810,-0.017720,0.015750*
1,1,0.011810,0.017720,0.015750*
1,1,0.011810,0.017720,-0.015750*
%
%AMM294*
21,1,0.027560,0.030710,0.000000,-0.000000,90.000000*
21,1,0.018900,0.039370,0.000000,-0.000000,90.000000*
1,1,0.008660,0.015350,0.009450*
1,1,0.008660,0.015350,-0.009450*
1,1,0.008660,-0.015350,-0.009450*
1,1,0.008660,-0.015350,0.009450*
%
%AMM295*
21,1,0.031500,0.018900,0.000000,-0.000000,90.000000*
21,1,0.022840,0.027560,0.000000,-0.000000,90.000000*
1,1,0.008660,0.009450,0.011420*
1,1,0.008660,0.009450,-0.011420*
1,1,0.008660,-0.009450,-0.011420*
1,1,0.008660,-0.009450,0.011420*
%
%AMM296*
21,1,0.027560,0.030710,0.000000,-0.000000,180.000000*
21,1,0.018900,0.039370,0.000000,-0.000000,180.000000*
1,1,0.008660,-0.009450,0.015350*
1,1,0.008660,0.009450,0.015350*
1,1,0.008660,0.009450,-0.015350*
1,1,0.008660,-0.009450,-0.015350*
%
%AMM297*
21,1,0.090550,0.073230,0.000000,-0.000000,0.000000*
21,1,0.069290,0.094490,0.000000,-0.000000,0.000000*
1,1,0.021260,0.034650,-0.036610*
1,1,0.021260,-0.034650,-0.036610*
1,1,0.021260,-0.034650,0.036610*
1,1,0.021260,0.034650,0.036610*
%
%AMM298*
21,1,0.029530,0.026380,0.000000,-0.000000,0.000000*
21,1,0.020470,0.035430,0.000000,-0.000000,0.000000*
1,1,0.009060,0.010240,-0.013190*
1,1,0.009060,-0.010240,-0.013190*
1,1,0.009060,-0.010240,0.013190*
1,1,0.009060,0.010240,0.013190*
%
%AMM299*
21,1,0.021650,0.027950,0.000000,-0.000000,0.000000*
21,1,0.014170,0.035430,0.000000,-0.000000,0.000000*
1,1,0.007480,0.007090,-0.013980*
1,1,0.007480,-0.007090,-0.013980*
1,1,0.007480,-0.007090,0.013980*
1,1,0.007480,0.007090,0.013980*
%
%AMM300*
21,1,0.035430,0.072440,0.000000,-0.000000,0.000000*
21,1,0.025200,0.082680,0.000000,-0.000000,0.000000*
1,1,0.010240,0.012600,-0.036220*
1,1,0.010240,-0.012600,-0.036220*
1,1,0.010240,-0.012600,0.036220*
1,1,0.010240,0.012600,0.036220*
%
%AMM301*
21,1,0.016540,0.028980,0.000000,-0.000000,0.000000*
21,1,0.010080,0.035430,0.000000,-0.000000,0.000000*
1,1,0.006460,0.005040,-0.014490*
1,1,0.006460,-0.005040,-0.014490*
1,1,0.006460,-0.005040,0.014490*
1,1,0.006460,0.005040,0.014490*
%
%AMM302*
21,1,0.016540,0.028980,0.000000,-0.000000,90.000000*
21,1,0.010080,0.035430,0.000000,-0.000000,90.000000*
1,1,0.006460,0.014490,0.005040*
1,1,0.006460,0.014490,-0.005040*
1,1,0.006460,-0.014490,-0.005040*
1,1,0.006460,-0.014490,0.005040*
%
%AMM303*
21,1,0.043310,0.035430,0.000000,-0.000000,180.000000*
21,1,0.031500,0.047240,0.000000,-0.000000,180.000000*
1,1,0.011810,-0.015750,0.017720*
1,1,0.011810,0.015750,0.017720*
1,1,0.011810,0.015750,-0.017720*
1,1,0.011810,-0.015750,-0.017720*
%
%AMM304*
21,1,0.031500,0.018900,0.000000,-0.000000,0.000000*
21,1,0.022840,0.027560,0.000000,-0.000000,0.000000*
1,1,0.008660,0.011420,-0.009450*
1,1,0.008660,-0.011420,-0.009450*
1,1,0.008660,-0.011420,0.009450*
1,1,0.008660,0.011420,0.009450*
%
%AMM33*
21,1,0.092130,0.073230,0.000000,0.000000,270.000000*
21,1,0.069290,0.096060,0.000000,0.000000,270.000000*
1,1,0.022840,-0.036610,-0.034650*
1,1,0.022840,-0.036610,0.034650*
1,1,0.022840,0.036610,0.034650*
1,1,0.022840,0.036610,-0.034650*
%
%AMM34*
21,1,0.100000,0.111020,0.000000,0.000000,0.000000*
21,1,0.075590,0.135430,0.000000,0.000000,0.000000*
1,1,0.024410,0.037800,-0.055510*
1,1,0.024410,-0.037800,-0.055510*
1,1,0.024410,-0.037800,0.055510*
1,1,0.024410,0.037800,0.055510*
%
%AMM35*
21,1,0.080320,0.083460,0.000000,0.000000,0.000000*
21,1,0.059840,0.103940,0.000000,0.000000,0.000000*
1,1,0.020470,0.029920,-0.041730*
1,1,0.020470,-0.029920,-0.041730*
1,1,0.020470,-0.029920,0.041730*
1,1,0.020470,0.029920,0.041730*
%
%AMM36*
21,1,0.084250,0.053540,0.000000,0.000000,180.000000*
21,1,0.065350,0.072440,0.000000,0.000000,180.000000*
1,1,0.018900,-0.032680,0.026770*
1,1,0.018900,0.032680,0.026770*
1,1,0.018900,0.032680,-0.026770*
1,1,0.018900,-0.032680,-0.026770*
%
%AMM37*
21,1,0.040950,0.030320,0.000000,0.000000,90.000000*
21,1,0.028350,0.042910,0.000000,0.000000,90.000000*
1,1,0.012600,0.015160,0.014170*
1,1,0.012600,0.015160,-0.014170*
1,1,0.012600,-0.015160,-0.014170*
1,1,0.012600,-0.015160,0.014170*
%
%AMM38*
21,1,0.027170,0.052760,0.000000,0.000000,270.000000*
21,1,0.017320,0.062600,0.000000,0.000000,270.000000*
1,1,0.009840,-0.026380,-0.008660*
1,1,0.009840,-0.026380,0.008660*
1,1,0.009840,0.026380,0.008660*
1,1,0.009840,0.026380,-0.008660*
%
%AMM39*
21,1,0.076380,0.036220,0.000000,0.000000,90.000000*
21,1,0.061810,0.050790,0.000000,0.000000,90.000000*
1,1,0.014570,0.018110,0.030910*
1,1,0.014570,0.018110,-0.030910*
1,1,0.014570,-0.018110,-0.030910*
1,1,0.014570,-0.018110,0.030910*
%
%AMM40*
21,1,0.038980,0.026770,0.000000,0.000000,0.000000*
21,1,0.026770,0.038980,0.000000,0.000000,0.000000*
1,1,0.012210,0.013390,-0.013390*
1,1,0.012210,-0.013390,-0.013390*
1,1,0.012210,-0.013390,0.013390*
1,1,0.012210,0.013390,0.013390*
%
%AMM41*
21,1,0.021260,0.016540,0.000000,0.000000,270.000000*
21,1,0.012600,0.025200,0.000000,0.000000,270.000000*
1,1,0.008660,-0.008270,-0.006300*
1,1,0.008660,-0.008270,0.006300*
1,1,0.008660,0.008270,0.006300*
1,1,0.008660,0.008270,-0.006300*
%
%AMM42*
21,1,0.029130,0.018900,0.000000,0.000000,90.000000*
21,1,0.018900,0.029130,0.000000,0.000000,90.000000*
1,1,0.010240,0.009450,0.009450*
1,1,0.010240,0.009450,-0.009450*
1,1,0.010240,-0.009450,-0.009450*
1,1,0.010240,-0.009450,0.009450*
%
%AMM43*
21,1,0.025200,0.019680,0.000000,0.000000,0.000000*
21,1,0.015750,0.029130,0.000000,0.000000,0.000000*
1,1,0.009450,0.007870,-0.009840*
1,1,0.009450,-0.007870,-0.009840*
1,1,0.009450,-0.007870,0.009840*
1,1,0.009450,0.007870,0.009840*
%
%AMM44*
21,1,0.025200,0.019680,0.000000,0.000000,270.000000*
21,1,0.015750,0.029130,0.000000,0.000000,270.000000*
1,1,0.009450,-0.009840,-0.007870*
1,1,0.009450,-0.009840,0.007870*
1,1,0.009450,0.009840,0.007870*
1,1,0.009450,0.009840,-0.007870*
%
%ADD115M33*%
%ADD116M34*%
%ADD117M35*%
%ADD118M36*%
%ADD119M37*%
%ADD12C,0.00000*%
%ADD120M38*%
%ADD121M39*%
%ADD122M40*%
%ADD123M41*%
%ADD124M42*%
%ADD125M43*%
%ADD126M44*%
%ADD127C,0.02913*%
%ADD13C,0.02362*%
%ADD176O,0.01260X0.05512*%
%ADD177O,0.05512X0.01260*%
%ADD184C,0.03494*%
%ADD188C,0.03543*%
%ADD192O,0.01575X0.04724*%
%ADD193O,0.04724X0.01575*%
%ADD197R,0.01870X0.01772*%
%ADD198R,0.01772X0.01870*%
%ADD201C,0.04294*%
%ADD202C,0.04724*%
%ADD22C,0.07874*%
%ADD23R,0.12000X0.05500*%
%ADD238R,0.05512X0.01181*%
%ADD24R,0.23300X0.21700*%
%ADD25R,0.05750X0.02100*%
%ADD253O,0.11772X0.04567*%
%ADD26R,0.02100X0.05750*%
%ADD27C,0.06299*%
%ADD294M156*%
%ADD295M157*%
%ADD296M158*%
%ADD297M159*%
%ADD298M160*%
%ADD333O,0.02756X0.09055*%
%ADD40R,0.01800X0.05600*%
%ADD41R,0.30709X0.06299*%
%ADD42R,0.06693X0.06693*%
%ADD43O,0.06693X0.06693*%
%ADD436M289*%
%ADD437M290*%
%ADD438M291*%
%ADD439M292*%
%ADD44R,0.02800X0.05100*%
%ADD440M293*%
%ADD441M294*%
%ADD442M295*%
%ADD443M296*%
%ADD444M297*%
%ADD445M298*%
%ADD446M299*%
%ADD447M300*%
%ADD448M301*%
%ADD449M302*%
%ADD45R,0.05100X0.02800*%
%ADD450M303*%
%ADD451M304*%
%ADD46R,0.03500X0.03500*%
%ADD47C,0.05906*%
%ADD60C,0.02559*%
%ADD61C,0.17717*%
%ADD62C,0.08268*%
%ADD87M13*%
%ADD91C,0.06457*%
%ADD92R,0.06457X0.06457*%
X0000000Y0000000D02*
%LPD*%
G01*
D12*
G36*
X0132207Y0218626D02*
G01*
X0112107Y0218626D01*
X0112107Y0235126D01*
X0132207Y0235126D01*
X0132207Y0218626D01*
G37*
D13*
X0180000Y0194232D03*
X0180000Y0190492D03*
X0180000Y0186752D03*
X0145748Y0190689D03*
X0145748Y0194232D03*
G36*
G01*
X0168575Y0295083D02*
X0168575Y0292917D01*
G75*
G02*
X0167787Y0292130I-000787J0000000D01*
G01*
X0166213Y0292130D01*
G75*
G02*
X0165425Y0292917I0000000J0000787D01*
G01*
X0165425Y0295083D01*
G75*
G02*
X0166213Y0295870I0000787J0000000D01*
G01*
X0167787Y0295870D01*
G75*
G02*
X0168575Y0295083I0000000J-000787D01*
G01*
G37*
G36*
G01*
X0162079Y0295083D02*
X0162079Y0292917D01*
G75*
G02*
X0161291Y0292130I-000787J0000000D01*
G01*
X0159717Y0292130D01*
G75*
G02*
X0158929Y0292917I0000000J0000787D01*
G01*
X0158929Y0295083D01*
G75*
G02*
X0159717Y0295870I0000787J0000000D01*
G01*
X0161291Y0295870D01*
G75*
G02*
X0162079Y0295083I0000000J-000787D01*
G01*
G37*
D22*
X0394000Y0007000D03*
G36*
G01*
X0141680Y0080402D02*
X0140223Y0080402D01*
G75*
G02*
X0139692Y0080934I0000000J0000531D01*
G01*
X0139692Y0081997D01*
G75*
G02*
X0140223Y0082528I0000531J0000000D01*
G01*
X0141680Y0082528D01*
G75*
G02*
X0142211Y0081997I0000000J-000531D01*
G01*
X0142211Y0080934D01*
G75*
G02*
X0141680Y0080402I-000531J0000000D01*
G01*
G37*
G36*
G01*
X0141680Y0084418D02*
X0140223Y0084418D01*
G75*
G02*
X0139692Y0084949I0000000J0000531D01*
G01*
X0139692Y0086012D01*
G75*
G02*
X0140223Y0086544I0000531J0000000D01*
G01*
X0141680Y0086544D01*
G75*
G02*
X0142211Y0086012I0000000J-000531D01*
G01*
X0142211Y0084949D01*
G75*
G02*
X0141680Y0084418I-000531J0000000D01*
G01*
G37*
D13*
X0178839Y0162366D03*
X0178839Y0157642D03*
X0178839Y0167091D03*
X0178839Y0171815D03*
X0122047Y0146382D03*
X0122047Y0142445D03*
G36*
G01*
X0326118Y0303331D02*
X0326118Y0304669D01*
G75*
G02*
X0326669Y0305220I0000551J0000000D01*
G01*
X0327772Y0305220D01*
G75*
G02*
X0328323Y0304669I0000000J-000551D01*
G01*
X0328323Y0303331D01*
G75*
G02*
X0327772Y0302780I-000551J0000000D01*
G01*
X0326669Y0302780D01*
G75*
G02*
X0326118Y0303331I0000000J0000551D01*
G01*
G37*
G36*
G01*
X0329898Y0303331D02*
X0329898Y0304669D01*
G75*
G02*
X0330449Y0305220I0000551J0000000D01*
G01*
X0331551Y0305220D01*
G75*
G02*
X0332102Y0304669I0000000J-000551D01*
G01*
X0332102Y0303331D01*
G75*
G02*
X0331551Y0302780I-000551J0000000D01*
G01*
X0330449Y0302780D01*
G75*
G02*
X0329898Y0303331I0000000J0000551D01*
G01*
G37*
G36*
G01*
X0306526Y0281165D02*
X0306526Y0276835D01*
G75*
G02*
X0305541Y0275850I-000984J0000000D01*
G01*
X0294419Y0275850D01*
G75*
G02*
X0293435Y0276835I0000000J0000984D01*
G01*
X0293435Y0281165D01*
G75*
G02*
X0294419Y0282150I0000984J0000000D01*
G01*
X0305541Y0282150D01*
G75*
G02*
X0306526Y0281165I0000000J-000984D01*
G01*
G37*
G36*
G01*
X0286545Y0281165D02*
X0286545Y0276835D01*
G75*
G02*
X0285561Y0275850I-000984J0000000D01*
G01*
X0274439Y0275850D01*
G75*
G02*
X0273455Y0276835I0000000J0000984D01*
G01*
X0273455Y0281165D01*
G75*
G02*
X0274439Y0282150I0000984J0000000D01*
G01*
X0285561Y0282150D01*
G75*
G02*
X0286545Y0281165I0000000J-000984D01*
G01*
G37*
G36*
G01*
X0331988Y0293679D02*
X0331988Y0292321D01*
G75*
G02*
X0331407Y0291740I-000581J0000000D01*
G01*
X0330246Y0291740D01*
G75*
G02*
X0329665Y0292321I0000000J0000581D01*
G01*
X0329665Y0293679D01*
G75*
G02*
X0330246Y0294260I0000581J0000000D01*
G01*
X0331407Y0294260D01*
G75*
G02*
X0331988Y0293679I0000000J-000581D01*
G01*
G37*
G36*
G01*
X0328169Y0293679D02*
X0328169Y0292321D01*
G75*
G02*
X0327589Y0291740I-000581J0000000D01*
G01*
X0326427Y0291740D01*
G75*
G02*
X0325846Y0292321I0000000J0000581D01*
G01*
X0325846Y0293679D01*
G75*
G02*
X0326427Y0294260I0000581J0000000D01*
G01*
X0327589Y0294260D01*
G75*
G02*
X0328169Y0293679I0000000J-000581D01*
G01*
G37*
G36*
G01*
X0091929Y0155272D02*
X0091929Y0156728D01*
G75*
G02*
X0092461Y0157260I0000531J0000000D01*
G01*
X0093524Y0157260D01*
G75*
G02*
X0094055Y0156728I0000000J-000531D01*
G01*
X0094055Y0155272D01*
G75*
G02*
X0093524Y0154740I-000531J0000000D01*
G01*
X0092461Y0154740D01*
G75*
G02*
X0091929Y0155272I0000000J0000531D01*
G01*
G37*
G36*
G01*
X0095945Y0155272D02*
X0095945Y0156728D01*
G75*
G02*
X0096476Y0157260I0000531J0000000D01*
G01*
X0097539Y0157260D01*
G75*
G02*
X0098071Y0156728I0000000J-000531D01*
G01*
X0098071Y0155272D01*
G75*
G02*
X0097539Y0154740I-000531J0000000D01*
G01*
X0096476Y0154740D01*
G75*
G02*
X0095945Y0155272I0000000J0000531D01*
G01*
G37*
D22*
X0389000Y0176165D03*
D23*
X0150300Y0264984D03*
D24*
X0121350Y0274000D03*
D23*
X0150300Y0283016D03*
D22*
X0394000Y0414000D03*
D23*
X0150300Y0293984D03*
D24*
X0121350Y0303000D03*
D23*
X0150300Y0312016D03*
G36*
G01*
X0346118Y0382331D02*
X0346118Y0383669D01*
G75*
G02*
X0346669Y0384220I0000551J0000000D01*
G01*
X0347772Y0384220D01*
G75*
G02*
X0348323Y0383669I0000000J-000551D01*
G01*
X0348323Y0382331D01*
G75*
G02*
X0347772Y0381780I-000551J0000000D01*
G01*
X0346669Y0381780D01*
G75*
G02*
X0346118Y0382331I0000000J0000551D01*
G01*
G37*
G36*
G01*
X0349898Y0382331D02*
X0349898Y0383669D01*
G75*
G02*
X0350449Y0384220I0000551J0000000D01*
G01*
X0351551Y0384220D01*
G75*
G02*
X0352102Y0383669I0000000J-000551D01*
G01*
X0352102Y0382331D01*
G75*
G02*
X0351551Y0381780I-000551J0000000D01*
G01*
X0350449Y0381780D01*
G75*
G02*
X0349898Y0382331I0000000J0000551D01*
G01*
G37*
G36*
G01*
X0141728Y0092937D02*
X0140272Y0092937D01*
G75*
G02*
X0139740Y0093469I0000000J0000531D01*
G01*
X0139740Y0094531D01*
G75*
G02*
X0140272Y0095063I0000531J0000000D01*
G01*
X0141728Y0095063D01*
G75*
G02*
X0142260Y0094531I0000000J-000531D01*
G01*
X0142260Y0093469D01*
G75*
G02*
X0141728Y0092937I-000531J0000000D01*
G01*
G37*
G36*
G01*
X0141728Y0096953D02*
X0140272Y0096953D01*
G75*
G02*
X0139740Y0097484I0000000J0000531D01*
G01*
X0139740Y0098547D01*
G75*
G02*
X0140272Y0099079I0000531J0000000D01*
G01*
X0141728Y0099079D01*
G75*
G02*
X0142260Y0098547I0000000J-000531D01*
G01*
X0142260Y0097484D01*
G75*
G02*
X0141728Y0096953I-000531J0000000D01*
G01*
G37*
G36*
G01*
X0127008Y0251331D02*
X0127008Y0252669D01*
G75*
G02*
X0127559Y0253220I0000551J0000000D01*
G01*
X0128661Y0253220D01*
G75*
G02*
X0129213Y0252669I0000000J-000551D01*
G01*
X0129213Y0251331D01*
G75*
G02*
X0128661Y0250780I-000551J0000000D01*
G01*
X0127559Y0250780D01*
G75*
G02*
X0127008Y0251331I0000000J0000551D01*
G01*
G37*
G36*
G01*
X0130787Y0251331D02*
X0130787Y0252669D01*
G75*
G02*
X0131339Y0253220I0000551J0000000D01*
G01*
X0132441Y0253220D01*
G75*
G02*
X0132992Y0252669I0000000J-000551D01*
G01*
X0132992Y0251331D01*
G75*
G02*
X0132441Y0250780I-000551J0000000D01*
G01*
X0131339Y0250780D01*
G75*
G02*
X0130787Y0251331I0000000J0000551D01*
G01*
G37*
D22*
X0389000Y0192110D03*
D60*
X0377752Y0028244D03*
X0377752Y0051000D03*
G36*
G01*
X0375193Y0025843D02*
X0371846Y0025843D01*
G75*
G02*
X0371256Y0026433I0000000J0000591D01*
G01*
X0371256Y0027614D01*
G75*
G02*
X0371846Y0028205I0000591J0000000D01*
G01*
X0375193Y0028205D01*
G75*
G02*
X0375783Y0027614I0000000J-000591D01*
G01*
X0375783Y0026433D01*
G75*
G02*
X0375193Y0025843I-000591J0000000D01*
G01*
G37*
G36*
G01*
X0375193Y0028992D02*
X0371846Y0028992D01*
G75*
G02*
X0371256Y0029583I0000000J0000591D01*
G01*
X0371256Y0030764D01*
G75*
G02*
X0371846Y0031354I0000591J0000000D01*
G01*
X0375193Y0031354D01*
G75*
G02*
X0375783Y0030764I0000000J-000591D01*
G01*
X0375783Y0029583D01*
G75*
G02*
X0375193Y0028992I-000591J0000000D01*
G01*
G37*
G36*
G01*
X0375488Y0034110D02*
X0371551Y0034110D01*
G75*
G02*
X0371256Y0034406I0000000J0000295D01*
G01*
X0371256Y0034996D01*
G75*
G02*
X0371551Y0035291I0000295J0000000D01*
G01*
X0375488Y0035291D01*
G75*
G02*
X0375783Y0034996I0000000J-000295D01*
G01*
X0375783Y0034406D01*
G75*
G02*
X0375488Y0034110I-000295J0000000D01*
G01*
G37*
G36*
G01*
X0375488Y0038047D02*
X0371551Y0038047D01*
G75*
G02*
X0371256Y0038343I0000000J0000295D01*
G01*
X0371256Y0038933D01*
G75*
G02*
X0371551Y0039228I0000295J0000000D01*
G01*
X0375488Y0039228D01*
G75*
G02*
X0375783Y0038933I0000000J-000295D01*
G01*
X0375783Y0038343D01*
G75*
G02*
X0375488Y0038047I-000295J0000000D01*
G01*
G37*
G36*
G01*
X0375488Y0040016D02*
X0371551Y0040016D01*
G75*
G02*
X0371256Y0040311I0000000J0000295D01*
G01*
X0371256Y0040902D01*
G75*
G02*
X0371551Y0041197I0000295J0000000D01*
G01*
X0375488Y0041197D01*
G75*
G02*
X0375783Y0040902I0000000J-000295D01*
G01*
X0375783Y0040311D01*
G75*
G02*
X0375488Y0040016I-000295J0000000D01*
G01*
G37*
G36*
G01*
X0375488Y0043953D02*
X0371551Y0043953D01*
G75*
G02*
X0371256Y0044248I0000000J0000295D01*
G01*
X0371256Y0044839D01*
G75*
G02*
X0371551Y0045134I0000295J0000000D01*
G01*
X0375488Y0045134D01*
G75*
G02*
X0375783Y0044839I0000000J-000295D01*
G01*
X0375783Y0044248D01*
G75*
G02*
X0375488Y0043953I-000295J0000000D01*
G01*
G37*
G36*
G01*
X0375193Y0047890D02*
X0371846Y0047890D01*
G75*
G02*
X0371256Y0048480I0000000J0000591D01*
G01*
X0371256Y0049661D01*
G75*
G02*
X0371846Y0050252I0000591J0000000D01*
G01*
X0375193Y0050252D01*
G75*
G02*
X0375783Y0049661I0000000J-000591D01*
G01*
X0375783Y0048480D01*
G75*
G02*
X0375193Y0047890I-000591J0000000D01*
G01*
G37*
G36*
G01*
X0375193Y0051039D02*
X0371846Y0051039D01*
G75*
G02*
X0371256Y0051630I0000000J0000591D01*
G01*
X0371256Y0052811D01*
G75*
G02*
X0371846Y0053402I0000591J0000000D01*
G01*
X0375193Y0053402D01*
G75*
G02*
X0375783Y0052811I0000000J-000591D01*
G01*
X0375783Y0051630D01*
G75*
G02*
X0375193Y0051039I-000591J0000000D01*
G01*
G37*
G36*
G01*
X0375193Y0051039D02*
X0371846Y0051039D01*
G75*
G02*
X0371256Y0051630I0000000J0000591D01*
G01*
X0371256Y0052811D01*
G75*
G02*
X0371846Y0053402I0000591J0000000D01*
G01*
X0375193Y0053402D01*
G75*
G02*
X0375783Y0052811I0000000J-000591D01*
G01*
X0375783Y0051630D01*
G75*
G02*
X0375193Y0051039I-000591J0000000D01*
G01*
G37*
G36*
G01*
X0375193Y0047890D02*
X0371846Y0047890D01*
G75*
G02*
X0371256Y0048480I0000000J0000591D01*
G01*
X0371256Y0049661D01*
G75*
G02*
X0371846Y0050252I0000591J0000000D01*
G01*
X0375193Y0050252D01*
G75*
G02*
X0375783Y0049661I0000000J-000591D01*
G01*
X0375783Y0048480D01*
G75*
G02*
X0375193Y0047890I-000591J0000000D01*
G01*
G37*
G36*
G01*
X0375488Y0045921D02*
X0371551Y0045921D01*
G75*
G02*
X0371256Y0046217I0000000J0000295D01*
G01*
X0371256Y0046807D01*
G75*
G02*
X0371551Y0047102I0000295J0000000D01*
G01*
X0375488Y0047102D01*
G75*
G02*
X0375783Y0046807I0000000J-000295D01*
G01*
X0375783Y0046217D01*
G75*
G02*
X0375488Y0045921I-000295J0000000D01*
G01*
G37*
G36*
G01*
X0375488Y0041984D02*
X0371551Y0041984D01*
G75*
G02*
X0371256Y0042280I0000000J0000295D01*
G01*
X0371256Y0042870D01*
G75*
G02*
X0371551Y0043165I0000295J0000000D01*
G01*
X0375488Y0043165D01*
G75*
G02*
X0375783Y0042870I0000000J-000295D01*
G01*
X0375783Y0042280D01*
G75*
G02*
X0375488Y0041984I-000295J0000000D01*
G01*
G37*
G36*
G01*
X0375488Y0036079D02*
X0371551Y0036079D01*
G75*
G02*
X0371256Y0036374I0000000J0000295D01*
G01*
X0371256Y0036965D01*
G75*
G02*
X0371551Y0037260I0000295J0000000D01*
G01*
X0375488Y0037260D01*
G75*
G02*
X0375783Y0036965I0000000J-000295D01*
G01*
X0375783Y0036374D01*
G75*
G02*
X0375488Y0036079I-000295J0000000D01*
G01*
G37*
G36*
G01*
X0375488Y0032142D02*
X0371551Y0032142D01*
G75*
G02*
X0371256Y0032437I0000000J0000295D01*
G01*
X0371256Y0033028D01*
G75*
G02*
X0371551Y0033323I0000295J0000000D01*
G01*
X0375488Y0033323D01*
G75*
G02*
X0375783Y0033028I0000000J-000295D01*
G01*
X0375783Y0032437D01*
G75*
G02*
X0375488Y0032142I-000295J0000000D01*
G01*
G37*
G36*
G01*
X0375193Y0028992D02*
X0371846Y0028992D01*
G75*
G02*
X0371256Y0029583I0000000J0000591D01*
G01*
X0371256Y0030764D01*
G75*
G02*
X0371846Y0031354I0000591J0000000D01*
G01*
X0375193Y0031354D01*
G75*
G02*
X0375783Y0030764I0000000J-000591D01*
G01*
X0375783Y0029583D01*
G75*
G02*
X0375193Y0028992I-000591J0000000D01*
G01*
G37*
G36*
G01*
X0375193Y0025843D02*
X0371846Y0025843D01*
G75*
G02*
X0371256Y0026433I0000000J0000591D01*
G01*
X0371256Y0027614D01*
G75*
G02*
X0371846Y0028205I0000591J0000000D01*
G01*
X0375193Y0028205D01*
G75*
G02*
X0375783Y0027614I0000000J-000591D01*
G01*
X0375783Y0026433D01*
G75*
G02*
X0375193Y0025843I-000591J0000000D01*
G01*
G37*
G36*
G01*
X0378736Y0015213D02*
X0372831Y0015213D01*
G75*
G02*
X0371846Y0016197I0000000J0000984D01*
G01*
X0371846Y0022811D01*
G75*
G02*
X0372831Y0023795I0000984J0000000D01*
G01*
X0378736Y0023795D01*
G75*
G02*
X0379720Y0022811I0000000J-000984D01*
G01*
X0379720Y0016197D01*
G75*
G02*
X0378736Y0015213I-000984J0000000D01*
G01*
G37*
G36*
G01*
X0394209Y0015213D02*
X0388303Y0015213D01*
G75*
G02*
X0387319Y0016197I0000000J0000984D01*
G01*
X0387319Y0022811D01*
G75*
G02*
X0388303Y0023795I0000984J0000000D01*
G01*
X0394209Y0023795D01*
G75*
G02*
X0395193Y0022811I0000000J-000984D01*
G01*
X0395193Y0016197D01*
G75*
G02*
X0394209Y0015213I-000984J0000000D01*
G01*
G37*
G36*
G01*
X0378736Y0055449D02*
X0372831Y0055449D01*
G75*
G02*
X0371846Y0056433I0000000J0000984D01*
G01*
X0371846Y0063047D01*
G75*
G02*
X0372831Y0064031I0000984J0000000D01*
G01*
X0378736Y0064031D01*
G75*
G02*
X0379720Y0063047I0000000J-000984D01*
G01*
X0379720Y0056433D01*
G75*
G02*
X0378736Y0055449I-000984J0000000D01*
G01*
G37*
G36*
G01*
X0394209Y0055449D02*
X0388303Y0055449D01*
G75*
G02*
X0387319Y0056433I0000000J0000984D01*
G01*
X0387319Y0063047D01*
G75*
G02*
X0388303Y0064031I0000984J0000000D01*
G01*
X0394209Y0064031D01*
G75*
G02*
X0395193Y0063047I0000000J-000984D01*
G01*
X0395193Y0056433D01*
G75*
G02*
X0394209Y0055449I-000984J0000000D01*
G01*
G37*
G36*
G01*
X0325937Y0296272D02*
X0325937Y0297728D01*
G75*
G02*
X0326469Y0298260I0000531J0000000D01*
G01*
X0327531Y0298260D01*
G75*
G02*
X0328063Y0297728I0000000J-000531D01*
G01*
X0328063Y0296272D01*
G75*
G02*
X0327531Y0295740I-000531J0000000D01*
G01*
X0326469Y0295740D01*
G75*
G02*
X0325937Y0296272I0000000J0000531D01*
G01*
G37*
G36*
G01*
X0329953Y0296272D02*
X0329953Y0297728D01*
G75*
G02*
X0330484Y0298260I0000531J0000000D01*
G01*
X0331547Y0298260D01*
G75*
G02*
X0332079Y0297728I0000000J-000531D01*
G01*
X0332079Y0296272D01*
G75*
G02*
X0331547Y0295740I-000531J0000000D01*
G01*
X0330484Y0295740D01*
G75*
G02*
X0329953Y0296272I0000000J0000531D01*
G01*
G37*
D25*
X0135450Y0322000D03*
X0135450Y0327000D03*
X0135450Y0332000D03*
X0135450Y0337000D03*
X0114000Y0337000D03*
X0114000Y0332000D03*
X0114000Y0327000D03*
X0114000Y0322000D03*
G36*
G01*
X0361929Y0304272D02*
X0361929Y0305728D01*
G75*
G02*
X0362461Y0306260I0000531J0000000D01*
G01*
X0363524Y0306260D01*
G75*
G02*
X0364055Y0305728I0000000J-000531D01*
G01*
X0364055Y0304272D01*
G75*
G02*
X0363524Y0303740I-000531J0000000D01*
G01*
X0362461Y0303740D01*
G75*
G02*
X0361929Y0304272I0000000J0000531D01*
G01*
G37*
G36*
G01*
X0365945Y0304272D02*
X0365945Y0305728D01*
G75*
G02*
X0366476Y0306260I0000531J0000000D01*
G01*
X0367539Y0306260D01*
G75*
G02*
X0368071Y0305728I0000000J-000531D01*
G01*
X0368071Y0304272D01*
G75*
G02*
X0367539Y0303740I-000531J0000000D01*
G01*
X0366476Y0303740D01*
G75*
G02*
X0365945Y0304272I0000000J0000531D01*
G01*
G37*
D22*
X0007000Y0007000D03*
X0007000Y0414000D03*
D25*
X0134725Y0071500D03*
X0134725Y0076500D03*
X0134725Y0081500D03*
X0134725Y0086500D03*
X0113275Y0086500D03*
X0113275Y0081500D03*
X0113275Y0076500D03*
X0113275Y0071500D03*
G36*
G01*
X0354020Y0386272D02*
X0354020Y0387728D01*
G75*
G02*
X0354551Y0388260I0000531J0000000D01*
G01*
X0355614Y0388260D01*
G75*
G02*
X0356146Y0387728I0000000J-000531D01*
G01*
X0356146Y0386272D01*
G75*
G02*
X0355614Y0385740I-000531J0000000D01*
G01*
X0354551Y0385740D01*
G75*
G02*
X0354020Y0386272I0000000J0000531D01*
G01*
G37*
G36*
G01*
X0358035Y0386272D02*
X0358035Y0387728D01*
G75*
G02*
X0358567Y0388260I0000531J0000000D01*
G01*
X0359630Y0388260D01*
G75*
G02*
X0360161Y0387728I0000000J-000531D01*
G01*
X0360161Y0386272D01*
G75*
G02*
X0359630Y0385740I-000531J0000000D01*
G01*
X0358567Y0385740D01*
G75*
G02*
X0358035Y0386272I0000000J0000531D01*
G01*
G37*
D22*
X0389000Y0208055D03*
G36*
G01*
X0323126Y0308016D02*
X0323126Y0309984D01*
G75*
G02*
X0324012Y0310870I0000886J0000000D01*
G01*
X0325783Y0310870D01*
G75*
G02*
X0326669Y0309984I0000000J-000886D01*
G01*
X0326669Y0308016D01*
G75*
G02*
X0325783Y0307130I-000886J0000000D01*
G01*
X0324012Y0307130D01*
G75*
G02*
X0323126Y0308016I0000000J0000886D01*
G01*
G37*
G36*
G01*
X0329228Y0308016D02*
X0329228Y0309984D01*
G75*
G02*
X0330114Y0310870I0000886J0000000D01*
G01*
X0331886Y0310870D01*
G75*
G02*
X0332772Y0309984I0000000J-000886D01*
G01*
X0332772Y0308016D01*
G75*
G02*
X0331886Y0307130I-000886J0000000D01*
G01*
X0330114Y0307130D01*
G75*
G02*
X0329228Y0308016I0000000J0000886D01*
G01*
G37*
G36*
G01*
X0342126Y0387016D02*
X0342126Y0388984D01*
G75*
G02*
X0343012Y0389870I0000886J0000000D01*
G01*
X0344783Y0389870D01*
G75*
G02*
X0345669Y0388984I0000000J-000886D01*
G01*
X0345669Y0387016D01*
G75*
G02*
X0344783Y0386130I-000886J0000000D01*
G01*
X0343012Y0386130D01*
G75*
G02*
X0342126Y0387016I0000000J0000886D01*
G01*
G37*
G36*
G01*
X0348228Y0387016D02*
X0348228Y0388984D01*
G75*
G02*
X0349114Y0389870I0000886J0000000D01*
G01*
X0350886Y0389870D01*
G75*
G02*
X0351772Y0388984I0000000J-000886D01*
G01*
X0351772Y0387016D01*
G75*
G02*
X0350886Y0386130I-000886J0000000D01*
G01*
X0349114Y0386130D01*
G75*
G02*
X0348228Y0387016I0000000J0000886D01*
G01*
G37*
G36*
G01*
X0354020Y0382321D02*
X0354020Y0383679D01*
G75*
G02*
X0354600Y0384260I0000581J0000000D01*
G01*
X0355762Y0384260D01*
G75*
G02*
X0356343Y0383679I0000000J-000581D01*
G01*
X0356343Y0382321D01*
G75*
G02*
X0355762Y0381740I-000581J0000000D01*
G01*
X0354600Y0381740D01*
G75*
G02*
X0354020Y0382321I0000000J0000581D01*
G01*
G37*
G36*
G01*
X0357839Y0382321D02*
X0357839Y0383679D01*
G75*
G02*
X0358419Y0384260I0000581J0000000D01*
G01*
X0359581Y0384260D01*
G75*
G02*
X0360161Y0383679I0000000J-000581D01*
G01*
X0360161Y0382321D01*
G75*
G02*
X0359581Y0381740I-000581J0000000D01*
G01*
X0358419Y0381740D01*
G75*
G02*
X0357839Y0382321I0000000J0000581D01*
G01*
G37*
G36*
G01*
X0142728Y0330921D02*
X0141272Y0330921D01*
G75*
G02*
X0140740Y0331453I0000000J0000531D01*
G01*
X0140740Y0332516D01*
G75*
G02*
X0141272Y0333047I0000531J0000000D01*
G01*
X0142728Y0333047D01*
G75*
G02*
X0143260Y0332516I0000000J-000531D01*
G01*
X0143260Y0331453D01*
G75*
G02*
X0142728Y0330921I-000531J0000000D01*
G01*
G37*
G36*
G01*
X0142728Y0334937D02*
X0141272Y0334937D01*
G75*
G02*
X0140740Y0335469I0000000J0000531D01*
G01*
X0140740Y0336531D01*
G75*
G02*
X0141272Y0337063I0000531J0000000D01*
G01*
X0142728Y0337063D01*
G75*
G02*
X0143260Y0336531I0000000J-000531D01*
G01*
X0143260Y0335469D01*
G75*
G02*
X0142728Y0334937I-000531J0000000D01*
G01*
G37*
D26*
X0093000Y0162275D03*
X0098000Y0162275D03*
X0103000Y0162275D03*
X0108000Y0162275D03*
X0108000Y0183725D03*
X0103000Y0183725D03*
X0098000Y0183725D03*
X0093000Y0183725D03*
D25*
X0134725Y0094000D03*
X0134725Y0099000D03*
X0134725Y0104000D03*
X0134725Y0109000D03*
X0113275Y0109000D03*
X0113275Y0104000D03*
X0113275Y0099000D03*
X0113275Y0094000D03*
D61*
X0035000Y0364961D03*
D62*
X0070039Y0347244D03*
X0070039Y0067717D03*
D61*
X0035000Y0050000D03*
D22*
X0037992Y0327559D03*
X0037992Y0304724D03*
X0047165Y0316142D03*
X0070000Y0327559D03*
X0070000Y0304724D03*
D27*
X0070000Y0093622D03*
X0070000Y0103622D03*
X0070000Y0113622D03*
X0070000Y0123622D03*
X0070000Y0133622D03*
X0070000Y0143622D03*
X0070000Y0153622D03*
X0070000Y0163622D03*
X0070000Y0173622D03*
X0070000Y0183622D03*
X0070000Y0193622D03*
X0070000Y0203622D03*
X0070000Y0213622D03*
X0070000Y0223622D03*
X0070000Y0233622D03*
X0070000Y0243622D03*
X0070000Y0253622D03*
X0070000Y0263622D03*
X0070000Y0273622D03*
X0060000Y0093622D03*
X0060000Y0103622D03*
X0060000Y0113622D03*
X0060000Y0123622D03*
X0060000Y0133622D03*
X0060000Y0143622D03*
X0060000Y0153622D03*
X0060000Y0163622D03*
X0060000Y0173622D03*
X0060000Y0183622D03*
X0060000Y0193622D03*
X0060000Y0203622D03*
X0060000Y0213622D03*
X0060000Y0223622D03*
X0060000Y0233622D03*
X0060000Y0243622D03*
X0060000Y0253622D03*
X0060000Y0263622D03*
X0060000Y0273622D03*
X0036181Y0093622D03*
X0036181Y0103622D03*
X0036181Y0113622D03*
X0036181Y0123622D03*
X0036181Y0133622D03*
X0036181Y0143622D03*
X0036181Y0153622D03*
X0036181Y0163622D03*
X0036181Y0173622D03*
X0036181Y0183622D03*
X0036181Y0193622D03*
X0036181Y0203622D03*
X0036181Y0213622D03*
X0036181Y0223622D03*
X0036181Y0233622D03*
X0036181Y0243622D03*
X0036181Y0253622D03*
X0036181Y0263622D03*
X0036181Y0273622D03*
X0026181Y0093622D03*
X0026181Y0103622D03*
X0026181Y0113622D03*
X0026181Y0123622D03*
X0026181Y0133622D03*
X0026181Y0143622D03*
X0026181Y0153622D03*
X0026181Y0163622D03*
X0026181Y0173622D03*
X0026181Y0183622D03*
X0026181Y0193622D03*
X0026181Y0203622D03*
X0026181Y0213622D03*
X0026181Y0223622D03*
X0026181Y0233622D03*
X0026181Y0243622D03*
X0026181Y0253622D03*
X0026181Y0263622D03*
X0026181Y0273622D03*
G36*
G01*
X0368071Y0035350D02*
X0368071Y0033894D01*
G75*
G02*
X0367539Y0033362I-000531J0000000D01*
G01*
X0366476Y0033362D01*
G75*
G02*
X0365945Y0033894I0000000J0000531D01*
G01*
X0365945Y0035350D01*
G75*
G02*
X0366476Y0035882I0000531J0000000D01*
G01*
X0367539Y0035882D01*
G75*
G02*
X0368071Y0035350I0000000J-000531D01*
G01*
G37*
G36*
G01*
X0364055Y0035350D02*
X0364055Y0033894D01*
G75*
G02*
X0363524Y0033362I-000531J0000000D01*
G01*
X0362461Y0033362D01*
G75*
G02*
X0361929Y0033894I0000000J0000531D01*
G01*
X0361929Y0035350D01*
G75*
G02*
X0362461Y0035882I0000531J0000000D01*
G01*
X0363524Y0035882D01*
G75*
G02*
X0364055Y0035350I0000000J-000531D01*
G01*
G37*
G36*
G01*
X0361921Y0308321D02*
X0361921Y0309679D01*
G75*
G02*
X0362502Y0310260I0000581J0000000D01*
G01*
X0363663Y0310260D01*
G75*
G02*
X0364244Y0309679I0000000J-000581D01*
G01*
X0364244Y0308321D01*
G75*
G02*
X0363663Y0307740I-000581J0000000D01*
G01*
X0362502Y0307740D01*
G75*
G02*
X0361921Y0308321I0000000J0000581D01*
G01*
G37*
G36*
G01*
X0365740Y0308321D02*
X0365740Y0309679D01*
G75*
G02*
X0366321Y0310260I0000581J0000000D01*
G01*
X0367482Y0310260D01*
G75*
G02*
X0368063Y0309679I0000000J-000581D01*
G01*
X0368063Y0308321D01*
G75*
G02*
X0367482Y0307740I-000581J0000000D01*
G01*
X0366321Y0307740D01*
G75*
G02*
X0365740Y0308321I0000000J0000581D01*
G01*
G37*
D22*
X0389000Y0160220D03*
X0389000Y0224000D03*
G36*
G01*
X0168575Y0266083D02*
X0168575Y0263917D01*
G75*
G02*
X0167787Y0263130I-000787J0000000D01*
G01*
X0166213Y0263130D01*
G75*
G02*
X0165425Y0263917I0000000J0000787D01*
G01*
X0165425Y0266083D01*
G75*
G02*
X0166213Y0266870I0000787J0000000D01*
G01*
X0167787Y0266870D01*
G75*
G02*
X0168575Y0266083I0000000J-000787D01*
G01*
G37*
G36*
G01*
X0162079Y0266083D02*
X0162079Y0263917D01*
G75*
G02*
X0161291Y0263130I-000787J0000000D01*
G01*
X0159717Y0263130D01*
G75*
G02*
X0158929Y0263917I0000000J0000787D01*
G01*
X0158929Y0266083D01*
G75*
G02*
X0159717Y0266870I0000787J0000000D01*
G01*
X0161291Y0266870D01*
G75*
G02*
X0162079Y0266083I0000000J-000787D01*
G01*
G37*
G36*
G01*
X0142728Y0320937D02*
X0141272Y0320937D01*
G75*
G02*
X0140740Y0321469I0000000J0000531D01*
G01*
X0140740Y0322531D01*
G75*
G02*
X0141272Y0323063I0000531J0000000D01*
G01*
X0142728Y0323063D01*
G75*
G02*
X0143260Y0322531I0000000J-000531D01*
G01*
X0143260Y0321469D01*
G75*
G02*
X0142728Y0320937I-000531J0000000D01*
G01*
G37*
G36*
G01*
X0142728Y0324953D02*
X0141272Y0324953D01*
G75*
G02*
X0140740Y0325484I0000000J0000531D01*
G01*
X0140740Y0326547D01*
G75*
G02*
X0141272Y0327079I0000531J0000000D01*
G01*
X0142728Y0327079D01*
G75*
G02*
X0143260Y0326547I0000000J-000531D01*
G01*
X0143260Y0325484D01*
G75*
G02*
X0142728Y0324953I-000531J0000000D01*
G01*
G37*
D40*
X0112315Y0208000D03*
X0116252Y0208000D03*
X0120189Y0208000D03*
X0124126Y0208000D03*
X0128063Y0208000D03*
X0132000Y0208000D03*
X0132000Y0245751D03*
X0128063Y0245751D03*
X0124126Y0245751D03*
X0120189Y0245751D03*
X0116252Y0245751D03*
X0112315Y0245751D03*
D41*
X0122157Y0226876D03*
G36*
G01*
X0141728Y0102929D02*
X0140272Y0102929D01*
G75*
G02*
X0139740Y0103461I0000000J0000531D01*
G01*
X0139740Y0104524D01*
G75*
G02*
X0140272Y0105055I0000531J0000000D01*
G01*
X0141728Y0105055D01*
G75*
G02*
X0142260Y0104524I0000000J-000531D01*
G01*
X0142260Y0103461D01*
G75*
G02*
X0141728Y0102929I-000531J0000000D01*
G01*
G37*
G36*
G01*
X0141728Y0106945D02*
X0140272Y0106945D01*
G75*
G02*
X0139740Y0107476I0000000J0000531D01*
G01*
X0139740Y0108539D01*
G75*
G02*
X0140272Y0109071I0000531J0000000D01*
G01*
X0141728Y0109071D01*
G75*
G02*
X0142260Y0108539I0000000J-000531D01*
G01*
X0142260Y0107476D01*
G75*
G02*
X0141728Y0106945I-000531J0000000D01*
G01*
G37*
G36*
G01*
X0124489Y0193169D02*
X0122521Y0193169D01*
G75*
G02*
X0121635Y0194055I0000000J0000886D01*
G01*
X0121635Y0195827D01*
G75*
G02*
X0122521Y0196713I0000886J0000000D01*
G01*
X0124489Y0196713D01*
G75*
G02*
X0125375Y0195827I0000000J-000886D01*
G01*
X0125375Y0194055D01*
G75*
G02*
X0124489Y0193169I-000886J0000000D01*
G01*
G37*
G36*
G01*
X0124489Y0199272D02*
X0122521Y0199272D01*
G75*
G02*
X0121635Y0200158I0000000J0000886D01*
G01*
X0121635Y0201929D01*
G75*
G02*
X0122521Y0202815I0000886J0000000D01*
G01*
X0124489Y0202815D01*
G75*
G02*
X0125375Y0201929I0000000J-000886D01*
G01*
X0125375Y0200158D01*
G75*
G02*
X0124489Y0199272I-000886J0000000D01*
G01*
G37*
G36*
G01*
X0368079Y0047350D02*
X0368079Y0045894D01*
G75*
G02*
X0367547Y0045362I-000531J0000000D01*
G01*
X0366484Y0045362D01*
G75*
G02*
X0365953Y0045894I0000000J0000531D01*
G01*
X0365953Y0047350D01*
G75*
G02*
X0366484Y0047882I0000531J0000000D01*
G01*
X0367547Y0047882D01*
G75*
G02*
X0368079Y0047350I0000000J-000531D01*
G01*
G37*
G36*
G01*
X0364063Y0047350D02*
X0364063Y0045894D01*
G75*
G02*
X0363531Y0045362I-000531J0000000D01*
G01*
X0362469Y0045362D01*
G75*
G02*
X0361937Y0045894I0000000J0000531D01*
G01*
X0361937Y0047350D01*
G75*
G02*
X0362469Y0047882I0000531J0000000D01*
G01*
X0363531Y0047882D01*
G75*
G02*
X0364063Y0047350I0000000J-000531D01*
G01*
G37*
D42*
X0367000Y0293000D03*
D43*
X0367000Y0283000D03*
X0367000Y0273000D03*
D44*
X0374606Y0375591D03*
X0370669Y0375591D03*
X0366732Y0375591D03*
X0362795Y0375591D03*
X0358858Y0375591D03*
X0354921Y0375591D03*
X0350984Y0375591D03*
X0347047Y0375591D03*
X0343110Y0375591D03*
X0339173Y0375591D03*
X0335236Y0375591D03*
X0331299Y0375591D03*
X0327362Y0375591D03*
D45*
X0320866Y0370079D03*
X0320866Y0366142D03*
X0320866Y0362205D03*
X0320866Y0358268D03*
X0320866Y0354331D03*
X0320866Y0350394D03*
X0320866Y0346457D03*
X0320866Y0342520D03*
X0320866Y0338583D03*
X0320866Y0334646D03*
X0320866Y0330709D03*
X0320866Y0326772D03*
X0320866Y0322835D03*
D44*
X0327362Y0317323D03*
X0331299Y0317323D03*
X0335236Y0317323D03*
X0339173Y0317323D03*
X0343110Y0317323D03*
X0347047Y0317323D03*
X0350984Y0317323D03*
X0354921Y0317323D03*
X0358858Y0317323D03*
X0362795Y0317323D03*
X0366732Y0317323D03*
X0370669Y0317323D03*
X0374606Y0317323D03*
D46*
X0351772Y0353858D03*
X0351772Y0349134D03*
X0351772Y0344409D03*
X0347047Y0353858D03*
X0347047Y0349134D03*
X0347047Y0344409D03*
X0342323Y0353858D03*
X0342323Y0349134D03*
X0342323Y0344409D03*
D47*
X0259736Y0304378D03*
X0259736Y0279181D03*
X0259736Y0271701D03*
X0259736Y0254772D03*
D13*
X0261508Y0245323D03*
X0261508Y0241386D03*
D47*
X0259736Y0230165D03*
X0198713Y0306150D03*
X0198713Y0298866D03*
X0198713Y0279378D03*
X0198713Y0231937D03*
G36*
G01*
X0127118Y0201331D02*
X0127118Y0202669D01*
G75*
G02*
X0127669Y0203220I0000551J0000000D01*
G01*
X0128772Y0203220D01*
G75*
G02*
X0129323Y0202669I0000000J-000551D01*
G01*
X0129323Y0201331D01*
G75*
G02*
X0128772Y0200780I-000551J0000000D01*
G01*
X0127669Y0200780D01*
G75*
G02*
X0127118Y0201331I0000000J0000551D01*
G01*
G37*
G36*
G01*
X0130898Y0201331D02*
X0130898Y0202669D01*
G75*
G02*
X0131449Y0203220I0000551J0000000D01*
G01*
X0132551Y0203220D01*
G75*
G02*
X0133102Y0202669I0000000J-000551D01*
G01*
X0133102Y0201331D01*
G75*
G02*
X0132551Y0200780I-000551J0000000D01*
G01*
X0131449Y0200780D01*
G75*
G02*
X0130898Y0201331I0000000J0000551D01*
G01*
G37*
G36*
G01*
X0101921Y0155272D02*
X0101921Y0156728D01*
G75*
G02*
X0102453Y0157260I0000531J0000000D01*
G01*
X0103516Y0157260D01*
G75*
G02*
X0104047Y0156728I0000000J-000531D01*
G01*
X0104047Y0155272D01*
G75*
G02*
X0103516Y0154740I-000531J0000000D01*
G01*
X0102453Y0154740D01*
G75*
G02*
X0101921Y0155272I0000000J0000531D01*
G01*
G37*
G36*
G01*
X0105937Y0155272D02*
X0105937Y0156728D01*
G75*
G02*
X0106469Y0157260I0000531J0000000D01*
G01*
X0107531Y0157260D01*
G75*
G02*
X0108063Y0156728I0000000J-000531D01*
G01*
X0108063Y0155272D01*
G75*
G02*
X0107531Y0154740I-000531J0000000D01*
G01*
X0106469Y0154740D01*
G75*
G02*
X0105937Y0155272I0000000J0000531D01*
G01*
G37*
G36*
G01*
X0141728Y0069929D02*
X0140272Y0069929D01*
G75*
G02*
X0139740Y0070461I0000000J0000531D01*
G01*
X0139740Y0071524D01*
G75*
G02*
X0140272Y0072055I0000531J0000000D01*
G01*
X0141728Y0072055D01*
G75*
G02*
X0142260Y0071524I0000000J-000531D01*
G01*
X0142260Y0070461D01*
G75*
G02*
X0141728Y0069929I-000531J0000000D01*
G01*
G37*
G36*
G01*
X0141728Y0073945D02*
X0140272Y0073945D01*
G75*
G02*
X0139740Y0074476I0000000J0000531D01*
G01*
X0139740Y0075539D01*
G75*
G02*
X0140272Y0076071I0000531J0000000D01*
G01*
X0141728Y0076071D01*
G75*
G02*
X0142260Y0075539I0000000J-000531D01*
G01*
X0142260Y0074476D01*
G75*
G02*
X0141728Y0073945I-000531J0000000D01*
G01*
G37*
D13*
X0179618Y0126232D03*
X0179618Y0122492D03*
X0179618Y0118752D03*
X0145366Y0122689D03*
X0145366Y0126232D03*
X0358119Y0139286D02*
G01*
G75*
D253*
X0368749Y0091629D02*
D03*
X0392174Y0091629D02*
D03*
X0368749Y0101629D02*
D03*
X0392174Y0101629D02*
D03*
X0368749Y0111629D02*
D03*
X0392174Y0111629D02*
D03*
X0368749Y0121629D02*
D03*
X0392174Y0121629D02*
D03*
X0368749Y0131629D02*
D03*
X0392174Y0131629D02*
D03*
D294*
X0381839Y0081570D02*
D03*
X0381839Y0075349D02*
D03*
X0369832Y0079011D02*
D03*
X0369832Y0072790D02*
D03*
D295*
X0375836Y0071373D02*
D03*
X0375836Y0084365D02*
D03*
D296*
X0365206Y0072849D02*
D03*
X0365206Y0079148D02*
D03*
D297*
X0395698Y0078853D02*
D03*
X0386446Y0082593D02*
D03*
D297*
X0386446Y0075113D02*
D03*
D298*
X0364655Y0083479D02*
D03*
X0370875Y0083479D02*
D03*
D91*
X0385462Y0091629D02*
D03*
X0375462Y0091629D02*
D03*
X0385462Y0101629D02*
D03*
X0375462Y0101629D02*
D03*
X0385462Y0111629D02*
D03*
X0375462Y0111629D02*
D03*
X0385462Y0121629D02*
D03*
X0375462Y0121629D02*
D03*
X0385462Y0131629D02*
D03*
D92*
X0375462Y0131629D02*
D03*
X0195760Y0227213D02*
G01*
G75*
D115*
X0240839Y0251580D02*
D03*
X0240839Y0233863D02*
D03*
D116*
X0237512Y0276032D02*
D03*
X0210150Y0276032D02*
D03*
D117*
X0226272Y0252804D02*
D03*
X0210130Y0252804D02*
D03*
D118*
X0228043Y0234693D02*
D03*
X0212295Y0234693D02*
D03*
D119*
X0205104Y0296471D02*
D03*
X0214356Y0292731D02*
D03*
D119*
X0214356Y0300211D02*
D03*
D120*
X0237191Y0306150D02*
D03*
D120*
X0237191Y0302410D02*
D03*
X0237191Y0298670D02*
D03*
X0245655Y0298670D02*
D03*
X0245655Y0306150D02*
D03*
D87*
X0249507Y0292149D02*
D03*
X0236515Y0292149D02*
D03*
D121*
X0231221Y0292437D02*
D03*
X0219803Y0292437D02*
D03*
D122*
X0250406Y0259890D02*
D03*
X0244185Y0259890D02*
D03*
X0239815Y0259890D02*
D03*
X0233595Y0259890D02*
D03*
D123*
X0199729Y0237001D02*
D03*
X0199729Y0241135D02*
D03*
X0250284Y0278875D02*
D03*
X0250284Y0283009D02*
D03*
X0250284Y0274162D02*
D03*
X0250284Y0270028D02*
D03*
X0251176Y0254513D02*
D03*
X0251176Y0250379D02*
D03*
D124*
X0232073Y0298720D02*
D03*
X0232073Y0302657D02*
D03*
X0218398Y0299622D02*
D03*
X0227059Y0299622D02*
D03*
X0218398Y0306019D02*
D03*
X0227059Y0306019D02*
D03*
D125*
X0210025Y0306150D02*
D03*
X0213569Y0306150D02*
D03*
D126*
X0246026Y0282812D02*
D03*
X0246026Y0279268D02*
D03*
X0246026Y0273768D02*
D03*
X0246026Y0270225D02*
D03*
X0251176Y0242212D02*
D03*
X0251176Y0245756D02*
D03*
D127*
X0261508Y0245323D02*
D03*
X0261508Y0241386D02*
D03*
D91*
X0198713Y0298866D02*
D03*
X0198713Y0231937D02*
D03*
X0198713Y0279378D02*
D03*
X0259736Y0279181D02*
D03*
X0259736Y0304378D02*
D03*
X0259736Y0254772D02*
D03*
X0259736Y0271701D02*
D03*
X0259736Y0230166D02*
D03*
X0198713Y0306150D02*
D03*
X0193555Y0211776D02*
G01*
G75*
D177*
X0344638Y0143371D02*
D03*
X0344638Y0141402D02*
D03*
X0344638Y0139434D02*
D03*
X0344638Y0137465D02*
D03*
X0344638Y0135497D02*
D03*
X0344638Y0133528D02*
D03*
X0344638Y0131560D02*
D03*
X0344638Y0129591D02*
D03*
X0344638Y0127623D02*
D03*
X0344638Y0125654D02*
D03*
X0344638Y0123686D02*
D03*
X0344638Y0121717D02*
D03*
X0344638Y0119748D02*
D03*
X0344638Y0117780D02*
D03*
X0344638Y0115811D02*
D03*
X0344638Y0113843D02*
D03*
X0344638Y0111874D02*
D03*
X0344638Y0109906D02*
D03*
X0344638Y0107937D02*
D03*
X0344638Y0105969D02*
D03*
X0344638Y0104000D02*
D03*
X0344638Y0102032D02*
D03*
X0344638Y0100063D02*
D03*
X0344638Y0098095D02*
D03*
X0344638Y0096126D02*
D03*
X0344638Y0094158D02*
D03*
X0344638Y0092189D02*
D03*
X0344638Y0090221D02*
D03*
X0344638Y0088252D02*
D03*
X0344638Y0086284D02*
D03*
X0344638Y0084315D02*
D03*
X0344638Y0082347D02*
D03*
X0344638Y0080378D02*
D03*
X0344638Y0078410D02*
D03*
X0344638Y0076441D02*
D03*
X0344638Y0074473D02*
D03*
X0260976Y0074473D02*
D03*
X0260976Y0076441D02*
D03*
X0260976Y0078410D02*
D03*
X0260976Y0080378D02*
D03*
X0260976Y0082347D02*
D03*
X0260976Y0084315D02*
D03*
X0260976Y0086284D02*
D03*
X0260976Y0088252D02*
D03*
X0260976Y0090221D02*
D03*
X0260976Y0092189D02*
D03*
X0260976Y0094158D02*
D03*
X0260976Y0096126D02*
D03*
X0260976Y0098095D02*
D03*
X0260976Y0100063D02*
D03*
X0260976Y0102032D02*
D03*
X0260976Y0104000D02*
D03*
X0260976Y0105969D02*
D03*
X0260976Y0107937D02*
D03*
X0260976Y0109906D02*
D03*
X0260976Y0111874D02*
D03*
X0260976Y0113843D02*
D03*
X0260976Y0115811D02*
D03*
X0260976Y0117780D02*
D03*
X0260976Y0119748D02*
D03*
X0260976Y0121717D02*
D03*
X0260976Y0123686D02*
D03*
X0260976Y0125654D02*
D03*
X0260976Y0127623D02*
D03*
X0260976Y0129591D02*
D03*
X0260976Y0131560D02*
D03*
X0260976Y0133528D02*
D03*
X0260976Y0135497D02*
D03*
X0260976Y0137465D02*
D03*
X0260976Y0139434D02*
D03*
X0260976Y0141402D02*
D03*
X0260976Y0143371D02*
D03*
D176*
X0337256Y0067091D02*
D03*
X0335287Y0067091D02*
D03*
X0333319Y0067091D02*
D03*
X0331350Y0067091D02*
D03*
X0329382Y0067091D02*
D03*
X0327413Y0067091D02*
D03*
X0325445Y0067091D02*
D03*
X0323476Y0067091D02*
D03*
X0321508Y0067091D02*
D03*
X0319539Y0067091D02*
D03*
X0317571Y0067091D02*
D03*
X0315602Y0067091D02*
D03*
X0313634Y0067091D02*
D03*
X0311665Y0067091D02*
D03*
X0309697Y0067091D02*
D03*
X0307728Y0067091D02*
D03*
X0305760Y0067091D02*
D03*
X0303791Y0067091D02*
D03*
X0301823Y0067091D02*
D03*
X0299854Y0067091D02*
D03*
X0297886Y0067091D02*
D03*
X0295917Y0067091D02*
D03*
X0293949Y0067091D02*
D03*
X0291980Y0067091D02*
D03*
X0290012Y0067091D02*
D03*
X0288043Y0067091D02*
D03*
X0286075Y0067091D02*
D03*
X0284106Y0067091D02*
D03*
X0282138Y0067091D02*
D03*
X0280169Y0067091D02*
D03*
X0278201Y0067091D02*
D03*
X0276232Y0067091D02*
D03*
X0274264Y0067091D02*
D03*
X0272295Y0067091D02*
D03*
X0270327Y0067091D02*
D03*
X0268358Y0067091D02*
D03*
X0268358Y0150752D02*
D03*
X0270327Y0150752D02*
D03*
X0272295Y0150752D02*
D03*
X0274264Y0150752D02*
D03*
X0276232Y0150752D02*
D03*
X0278201Y0150752D02*
D03*
X0280169Y0150752D02*
D03*
X0282138Y0150752D02*
D03*
X0284106Y0150752D02*
D03*
X0286075Y0150752D02*
D03*
X0288043Y0150752D02*
D03*
X0290012Y0150752D02*
D03*
X0291980Y0150752D02*
D03*
X0293949Y0150752D02*
D03*
X0295917Y0150752D02*
D03*
X0297886Y0150752D02*
D03*
X0299854Y0150752D02*
D03*
X0301823Y0150752D02*
D03*
X0303791Y0150752D02*
D03*
X0305760Y0150752D02*
D03*
X0307728Y0150752D02*
D03*
X0309697Y0150752D02*
D03*
X0311665Y0150752D02*
D03*
X0313634Y0150752D02*
D03*
X0315602Y0150752D02*
D03*
X0317571Y0150752D02*
D03*
X0319539Y0150752D02*
D03*
X0321508Y0150752D02*
D03*
X0323476Y0150752D02*
D03*
X0325445Y0150752D02*
D03*
X0327413Y0150752D02*
D03*
X0329382Y0150752D02*
D03*
X0331350Y0150752D02*
D03*
X0333319Y0150752D02*
D03*
X0335287Y0150752D02*
D03*
X0337256Y0150752D02*
D03*
D436*
X0321067Y0050746D02*
D03*
X0324807Y0059998D02*
D03*
D436*
X0328547Y0050746D02*
D03*
D437*
X0318752Y0204296D02*
D03*
X0318752Y0186185D02*
D03*
D438*
X0318752Y0195241D02*
D03*
D439*
X0343161Y0195241D02*
D03*
D440*
X0294736Y0173981D02*
D03*
X0294736Y0167288D02*
D03*
X0301823Y0167288D02*
D03*
X0301823Y0173981D02*
D03*
X0308909Y0173981D02*
D03*
X0308909Y0167288D02*
D03*
X0315996Y0167288D02*
D03*
X0315996Y0173981D02*
D03*
X0287256Y0183823D02*
D03*
X0287256Y0190516D02*
D03*
X0287256Y0167288D02*
D03*
X0287256Y0173981D02*
D03*
X0280169Y0183823D02*
D03*
X0280169Y0190516D02*
D03*
X0280169Y0167288D02*
D03*
X0280169Y0173981D02*
D03*
X0273083Y0183823D02*
D03*
X0273083Y0190516D02*
D03*
X0273083Y0167288D02*
D03*
X0273083Y0173981D02*
D03*
X0265996Y0190516D02*
D03*
X0265996Y0183823D02*
D03*
X0265996Y0167288D02*
D03*
X0265996Y0173981D02*
D03*
D441*
X0345694Y0051345D02*
D03*
X0345694Y0055085D02*
D03*
X0345694Y0058826D02*
D03*
X0336245Y0058826D02*
D03*
X0336245Y0055085D02*
D03*
X0336245Y0051345D02*
D03*
D184*
X0345996Y0161028D02*
D03*
X0340996Y0161028D02*
D03*
X0345996Y0166028D02*
D03*
X0340996Y0166028D02*
D03*
X0345996Y0171028D02*
D03*
X0340996Y0171028D02*
D03*
D442*
X0201035Y0207052D02*
D03*
X0204972Y0207052D02*
D03*
X0214027Y0060595D02*
D03*
X0210090Y0060595D02*
D03*
X0202610Y0164138D02*
D03*
X0198673Y0164138D02*
D03*
X0202610Y0149965D02*
D03*
X0198673Y0149965D02*
D03*
X0206547Y0131067D02*
D03*
X0202610Y0131067D02*
D03*
X0198673Y0131067D02*
D03*
X0202610Y0131067D02*
D03*
X0202610Y0121618D02*
D03*
X0206547Y0121618D02*
D03*
X0202610Y0121618D02*
D03*
X0198673Y0121618D02*
D03*
X0206547Y0097996D02*
D03*
X0202610Y0097996D02*
D03*
X0202610Y0074374D02*
D03*
X0206547Y0074374D02*
D03*
X0202610Y0074374D02*
D03*
X0198673Y0074374D02*
D03*
X0316390Y0157740D02*
D03*
X0320327Y0157740D02*
D03*
X0206153Y0069650D02*
D03*
X0210090Y0069650D02*
D03*
X0221705Y0207052D02*
D03*
X0217768Y0207052D02*
D03*
X0257728Y0195634D02*
D03*
X0261665Y0195634D02*
D03*
X0210090Y0051146D02*
D03*
X0214027Y0051146D02*
D03*
X0210090Y0055871D02*
D03*
X0214027Y0055871D02*
D03*
X0210090Y0065319D02*
D03*
X0214027Y0065319D02*
D03*
X0202610Y0201933D02*
D03*
X0206547Y0201933D02*
D03*
X0202610Y0197209D02*
D03*
X0206547Y0197209D02*
D03*
X0202610Y0192485D02*
D03*
X0206547Y0192485D02*
D03*
X0202610Y0187760D02*
D03*
X0206547Y0187760D02*
D03*
X0202610Y0201933D02*
D03*
X0198673Y0201933D02*
D03*
X0202610Y0197209D02*
D03*
X0198673Y0197209D02*
D03*
X0202610Y0192485D02*
D03*
X0198673Y0192485D02*
D03*
X0202610Y0187760D02*
D03*
X0198673Y0187760D02*
D03*
X0202610Y0183036D02*
D03*
X0206547Y0183036D02*
D03*
X0202610Y0178311D02*
D03*
X0206547Y0178311D02*
D03*
X0202610Y0173587D02*
D03*
X0206547Y0173587D02*
D03*
X0202610Y0168745D02*
D03*
X0206547Y0168745D02*
D03*
X0202610Y0183036D02*
D03*
X0198673Y0183036D02*
D03*
X0202610Y0178311D02*
D03*
X0198673Y0178311D02*
D03*
X0202610Y0173587D02*
D03*
X0198673Y0173587D02*
D03*
X0202610Y0168863D02*
D03*
X0198673Y0168863D02*
D03*
X0202610Y0164138D02*
D03*
X0206547Y0164138D02*
D03*
X0202610Y0159414D02*
D03*
X0206547Y0159414D02*
D03*
X0202610Y0154689D02*
D03*
X0206547Y0154689D02*
D03*
X0202610Y0149965D02*
D03*
X0206547Y0149965D02*
D03*
X0202610Y0159414D02*
D03*
X0198673Y0159414D02*
D03*
X0202610Y0154689D02*
D03*
X0198673Y0154689D02*
D03*
X0206547Y0145240D02*
D03*
X0202610Y0145240D02*
D03*
X0206547Y0140516D02*
D03*
X0202610Y0140516D02*
D03*
X0206547Y0135792D02*
D03*
X0202610Y0135792D02*
D03*
X0198673Y0145240D02*
D03*
X0202610Y0145240D02*
D03*
X0198673Y0140516D02*
D03*
X0202610Y0140516D02*
D03*
X0198673Y0135792D02*
D03*
X0202610Y0135792D02*
D03*
X0202610Y0126343D02*
D03*
X0206547Y0126343D02*
D03*
X0202610Y0116894D02*
D03*
X0206547Y0116894D02*
D03*
X0202610Y0112170D02*
D03*
X0206547Y0112170D02*
D03*
X0202610Y0126343D02*
D03*
X0198673Y0126343D02*
D03*
X0202610Y0116894D02*
D03*
X0198673Y0116894D02*
D03*
X0202610Y0112170D02*
D03*
X0198673Y0112170D02*
D03*
X0206547Y0107445D02*
D03*
X0202610Y0107445D02*
D03*
X0206547Y0102721D02*
D03*
X0202610Y0102721D02*
D03*
X0206547Y0093272D02*
D03*
X0202610Y0093272D02*
D03*
X0198673Y0107445D02*
D03*
X0202610Y0107445D02*
D03*
X0198673Y0102721D02*
D03*
X0202610Y0102721D02*
D03*
X0198673Y0097996D02*
D03*
X0202610Y0097996D02*
D03*
X0198673Y0093272D02*
D03*
X0202610Y0093272D02*
D03*
X0202610Y0088548D02*
D03*
X0206547Y0088548D02*
D03*
X0202610Y0083823D02*
D03*
X0206547Y0083823D02*
D03*
X0202610Y0079099D02*
D03*
X0206547Y0079099D02*
D03*
X0202610Y0088548D02*
D03*
X0198673Y0088548D02*
D03*
X0202610Y0083823D02*
D03*
X0198673Y0083823D02*
D03*
X0202610Y0079099D02*
D03*
X0198673Y0079099D02*
D03*
X0206547Y0065319D02*
D03*
X0202610Y0065319D02*
D03*
X0206547Y0060595D02*
D03*
X0202610Y0060595D02*
D03*
X0206547Y0055871D02*
D03*
X0202610Y0055871D02*
D03*
X0206547Y0051146D02*
D03*
X0202610Y0051146D02*
D03*
X0198673Y0065319D02*
D03*
X0202610Y0065319D02*
D03*
X0198673Y0060595D02*
D03*
X0202610Y0060595D02*
D03*
X0198673Y0055871D02*
D03*
X0202610Y0055871D02*
D03*
X0198673Y0051146D02*
D03*
X0202610Y0051146D02*
D03*
X0212649Y0207052D02*
D03*
X0208712Y0207052D02*
D03*
X0325445Y0171619D02*
D03*
X0329382Y0171619D02*
D03*
D443*
X0219342Y0152327D02*
D03*
X0215602Y0152327D02*
D03*
X0211862Y0152327D02*
D03*
X0211862Y0161776D02*
D03*
X0215602Y0161776D02*
D03*
X0219342Y0161776D02*
D03*
X0219342Y0190122D02*
D03*
X0215602Y0190122D02*
D03*
X0211862Y0190122D02*
D03*
X0211862Y0199571D02*
D03*
X0215602Y0199571D02*
D03*
X0219342Y0199571D02*
D03*
X0219342Y0171225D02*
D03*
X0215602Y0171225D02*
D03*
X0211862Y0171225D02*
D03*
X0211862Y0180674D02*
D03*
X0215602Y0180674D02*
D03*
X0219342Y0180674D02*
D03*
X0219342Y0133429D02*
D03*
X0215602Y0133429D02*
D03*
X0211862Y0133429D02*
D03*
X0211862Y0142878D02*
D03*
X0215602Y0142878D02*
D03*
X0219342Y0142878D02*
D03*
X0219342Y0114532D02*
D03*
X0215602Y0114532D02*
D03*
X0211862Y0114532D02*
D03*
X0211862Y0123981D02*
D03*
X0215602Y0123981D02*
D03*
X0219342Y0123981D02*
D03*
X0219342Y0095634D02*
D03*
X0215602Y0095634D02*
D03*
X0211862Y0095634D02*
D03*
X0211862Y0105083D02*
D03*
X0215602Y0105083D02*
D03*
X0219342Y0105083D02*
D03*
X0219342Y0076737D02*
D03*
X0215602Y0076737D02*
D03*
X0211862Y0076737D02*
D03*
X0211862Y0086185D02*
D03*
X0215602Y0086185D02*
D03*
X0219342Y0086185D02*
D03*
D444*
X0249460Y0055083D02*
D03*
X0267177Y0055083D02*
D03*
D188*
X0198673Y0069374D02*
D03*
X0196705Y0207052D02*
D03*
D445*
X0272197Y0200752D02*
D03*
X0272197Y0207839D02*
D03*
X0262157Y0207839D02*
D03*
X0262157Y0200752D02*
D03*
X0278299Y0200752D02*
D03*
X0278299Y0207839D02*
D03*
X0288339Y0207839D02*
D03*
X0288339Y0200752D02*
D03*
D446*
X0265602Y0207839D02*
D03*
X0268752Y0207839D02*
D03*
X0268752Y0200752D02*
D03*
X0265602Y0200752D02*
D03*
X0281744Y0200752D02*
D03*
X0284894Y0200752D02*
D03*
X0284894Y0207839D02*
D03*
X0281744Y0207839D02*
D03*
D447*
X0315208Y0053115D02*
D03*
X0298673Y0053115D02*
D03*
X0275839Y0053115D02*
D03*
X0292374Y0053115D02*
D03*
D193*
X0248673Y0065910D02*
D03*
X0248673Y0068469D02*
D03*
X0248673Y0071028D02*
D03*
X0248673Y0073587D02*
D03*
X0248673Y0076146D02*
D03*
X0248673Y0078705D02*
D03*
X0248673Y0081264D02*
D03*
X0226232Y0065910D02*
D03*
X0226232Y0068469D02*
D03*
X0226232Y0071028D02*
D03*
X0226232Y0073587D02*
D03*
X0226232Y0076146D02*
D03*
X0226232Y0078705D02*
D03*
X0226232Y0081264D02*
D03*
X0248673Y0134414D02*
D03*
X0248673Y0136973D02*
D03*
X0248673Y0139532D02*
D03*
X0248673Y0142091D02*
D03*
X0248673Y0144650D02*
D03*
X0248673Y0147209D02*
D03*
X0248673Y0149768D02*
D03*
X0226232Y0134414D02*
D03*
X0226232Y0136973D02*
D03*
X0226232Y0139532D02*
D03*
X0226232Y0142091D02*
D03*
X0226232Y0144650D02*
D03*
X0226232Y0147209D02*
D03*
X0226232Y0149768D02*
D03*
X0248673Y0111579D02*
D03*
X0248673Y0114138D02*
D03*
X0248673Y0116697D02*
D03*
X0248673Y0119256D02*
D03*
X0248673Y0121815D02*
D03*
X0248673Y0124374D02*
D03*
X0248673Y0126933D02*
D03*
X0226232Y0111579D02*
D03*
X0226232Y0114138D02*
D03*
X0226232Y0116697D02*
D03*
X0226232Y0119256D02*
D03*
X0226232Y0121815D02*
D03*
X0226232Y0124374D02*
D03*
X0226232Y0126933D02*
D03*
X0248673Y0088745D02*
D03*
X0248673Y0091304D02*
D03*
X0248673Y0093863D02*
D03*
X0248673Y0096422D02*
D03*
X0248673Y0098981D02*
D03*
X0248673Y0101540D02*
D03*
X0248673Y0104099D02*
D03*
X0226232Y0088745D02*
D03*
X0226232Y0091304D02*
D03*
X0226232Y0093863D02*
D03*
X0226232Y0096422D02*
D03*
X0226232Y0098981D02*
D03*
X0226232Y0101540D02*
D03*
X0226232Y0104099D02*
D03*
D192*
X0237256Y0156067D02*
D03*
X0239815Y0156067D02*
D03*
X0242374Y0156067D02*
D03*
X0244933Y0156067D02*
D03*
X0247492Y0156067D02*
D03*
X0250051Y0156067D02*
D03*
X0252610Y0156067D02*
D03*
X0237256Y0178508D02*
D03*
X0239815Y0178508D02*
D03*
X0242374Y0178508D02*
D03*
X0244933Y0178508D02*
D03*
X0247492Y0178508D02*
D03*
X0250051Y0178508D02*
D03*
X0252610Y0178508D02*
D03*
X0237256Y0184020D02*
D03*
X0239815Y0184020D02*
D03*
X0242374Y0184020D02*
D03*
X0244933Y0184020D02*
D03*
X0247492Y0184020D02*
D03*
X0250051Y0184020D02*
D03*
X0252610Y0184020D02*
D03*
X0237256Y0206461D02*
D03*
X0239815Y0206461D02*
D03*
X0242374Y0206461D02*
D03*
X0244933Y0206461D02*
D03*
X0247492Y0206461D02*
D03*
X0250051Y0206461D02*
D03*
X0252610Y0206461D02*
D03*
D448*
X0225642Y0173390D02*
D03*
X0228201Y0173390D02*
D03*
X0230760Y0173390D02*
D03*
X0225642Y0180870D02*
D03*
X0228201Y0180870D02*
D03*
X0230760Y0180870D02*
D03*
X0230760Y0193469D02*
D03*
X0228201Y0193469D02*
D03*
X0225642Y0193469D02*
D03*
X0230760Y0185989D02*
D03*
X0228201Y0185989D02*
D03*
X0225642Y0185989D02*
D03*
X0225642Y0198193D02*
D03*
X0228201Y0198193D02*
D03*
X0230760Y0198193D02*
D03*
X0225642Y0205674D02*
D03*
X0228201Y0205674D02*
D03*
X0230760Y0205674D02*
D03*
X0230760Y0168666D02*
D03*
X0228201Y0168666D02*
D03*
X0225642Y0168666D02*
D03*
X0230760Y0161185D02*
D03*
X0228201Y0161185D02*
D03*
X0225642Y0161185D02*
D03*
D333*
X0310112Y0205083D02*
D03*
X0305112Y0205083D02*
D03*
X0300112Y0205083D02*
D03*
X0295112Y0205083D02*
D03*
X0310112Y0186185D02*
D03*
X0305112Y0186185D02*
D03*
X0300112Y0186185D02*
D03*
X0295112Y0186185D02*
D03*
D449*
X0242571Y0052130D02*
D03*
X0242571Y0054689D02*
D03*
X0242571Y0057248D02*
D03*
X0235090Y0052130D02*
D03*
X0235090Y0054689D02*
D03*
X0235090Y0057248D02*
D03*
X0227216Y0052130D02*
D03*
X0227216Y0054689D02*
D03*
X0227216Y0057248D02*
D03*
X0219736Y0052130D02*
D03*
X0219736Y0054689D02*
D03*
X0219736Y0057248D02*
D03*
D198*
X0326232Y0165959D02*
D03*
X0328201Y0165959D02*
D03*
X0330169Y0165959D02*
D03*
X0330169Y0159955D02*
D03*
X0328201Y0159955D02*
D03*
X0326232Y0159955D02*
D03*
D197*
X0331203Y0163941D02*
D03*
X0331203Y0161973D02*
D03*
X0325199Y0161973D02*
D03*
X0325199Y0163941D02*
D03*
D450*
X0324264Y0176835D02*
D03*
X0330957Y0176835D02*
D03*
D451*
X0259303Y0168075D02*
D03*
X0259303Y0172012D02*
D03*
D201*
X0343496Y0156028D02*
D03*
X0339496Y0176028D02*
D03*
X0347496Y0176028D02*
D03*
D202*
X0254972Y0117681D02*
D03*
X0259303Y0070437D02*
D03*
X0254579Y0075555D02*
D03*
X0254579Y0087367D02*
D03*
X0254579Y0098784D02*
D03*
X0254579Y0135004D02*
D03*
X0255760Y0151934D02*
D03*
D47*
X0347098Y0207445D02*
D03*
X0120571Y0135201D02*
%LPD*%
G01*
D13*
X0178839Y0162366D03*
X0178839Y0157642D03*
X0178839Y0167091D03*
X0178839Y0171815D03*
X0122047Y0146382D03*
X0122047Y0142445D03*
D238*
X0154429Y0148193D03*
X0154429Y0146225D03*
X0154429Y0144256D03*
X0154429Y0142288D03*
X0154429Y0140319D03*
X0171752Y0140319D03*
X0171752Y0142288D03*
X0171752Y0144256D03*
X0171752Y0146225D03*
X0171752Y0148193D03*
G36*
G01*
X0161949Y0161382D02*
X0165020Y0161382D01*
G75*
G02*
X0165295Y0161107I0000000J-000276D01*
G01*
X0165295Y0158902D01*
G75*
G02*
X0165020Y0158626I-000276J0000000D01*
G01*
X0161949Y0158626D01*
G75*
G02*
X0161673Y0158902I0000000J0000276D01*
G01*
X0161673Y0161107D01*
G75*
G02*
X0161949Y0161382I0000276J0000000D01*
G01*
G37*
G36*
G01*
X0161949Y0155083D02*
X0165020Y0155083D01*
G75*
G02*
X0165295Y0154807I0000000J-000276D01*
G01*
X0165295Y0152603D01*
G75*
G02*
X0165020Y0152327I-000276J0000000D01*
G01*
X0161949Y0152327D01*
G75*
G02*
X0161673Y0152603I0000000J0000276D01*
G01*
X0161673Y0154807D01*
G75*
G02*
X0161949Y0155083I0000276J0000000D01*
G01*
G37*
G36*
G01*
X0176280Y0168036D02*
X0176280Y0164965D01*
G75*
G02*
X0176004Y0164689I-000276J0000000D01*
G01*
X0173799Y0164689D01*
G75*
G02*
X0173524Y0164965I0000000J0000276D01*
G01*
X0173524Y0168036D01*
G75*
G02*
X0173799Y0168311I0000276J0000000D01*
G01*
X0176004Y0168311D01*
G75*
G02*
X0176280Y0168036I0000000J-000276D01*
G01*
G37*
G36*
G01*
X0169980Y0168036D02*
X0169980Y0164965D01*
G75*
G02*
X0169705Y0164689I-000276J0000000D01*
G01*
X0167500Y0164689D01*
G75*
G02*
X0167225Y0164965I0000000J0000276D01*
G01*
X0167225Y0168036D01*
G75*
G02*
X0167500Y0168311I0000276J0000000D01*
G01*
X0169705Y0168311D01*
G75*
G02*
X0169980Y0168036I0000000J-000276D01*
G01*
G37*
G36*
G01*
X0156043Y0161382D02*
X0159114Y0161382D01*
G75*
G02*
X0159390Y0161107I0000000J-000276D01*
G01*
X0159390Y0158902D01*
G75*
G02*
X0159114Y0158626I-000276J0000000D01*
G01*
X0156043Y0158626D01*
G75*
G02*
X0155768Y0158902I0000000J0000276D01*
G01*
X0155768Y0161107D01*
G75*
G02*
X0156043Y0161382I0000276J0000000D01*
G01*
G37*
G36*
G01*
X0156043Y0155083D02*
X0159114Y0155083D01*
G75*
G02*
X0159390Y0154807I0000000J-000276D01*
G01*
X0159390Y0152603D01*
G75*
G02*
X0159114Y0152327I-000276J0000000D01*
G01*
X0156043Y0152327D01*
G75*
G02*
X0155768Y0152603I0000000J0000276D01*
G01*
X0155768Y0154807D01*
G75*
G02*
X0156043Y0155083I0000276J0000000D01*
G01*
G37*
G36*
G01*
X0145394Y0165122D02*
X0148110Y0165122D01*
G75*
G02*
X0149016Y0164217I0000000J-000906D01*
G01*
X0149016Y0158941D01*
G75*
G02*
X0148110Y0158036I-000906J0000000D01*
G01*
X0145394Y0158036D01*
G75*
G02*
X0144488Y0158941I0000000J0000906D01*
G01*
X0144488Y0164217D01*
G75*
G02*
X0145394Y0165122I0000906J0000000D01*
G01*
G37*
G36*
G01*
X0133976Y0165122D02*
X0136693Y0165122D01*
G75*
G02*
X0137599Y0164217I0000000J-000906D01*
G01*
X0137599Y0158941D01*
G75*
G02*
X0136693Y0158036I-000906J0000000D01*
G01*
X0133976Y0158036D01*
G75*
G02*
X0133071Y0158941I0000000J0000906D01*
G01*
X0133071Y0164217D01*
G75*
G02*
X0133976Y0165122I0000906J0000000D01*
G01*
G37*
G36*
G01*
X0145394Y0155280D02*
X0148110Y0155280D01*
G75*
G02*
X0149016Y0154374I0000000J-000906D01*
G01*
X0149016Y0149099D01*
G75*
G02*
X0148110Y0148193I-000906J0000000D01*
G01*
X0145394Y0148193D01*
G75*
G02*
X0144488Y0149099I0000000J0000906D01*
G01*
X0144488Y0154374D01*
G75*
G02*
X0145394Y0155280I0000906J0000000D01*
G01*
G37*
G36*
G01*
X0133976Y0155280D02*
X0136693Y0155280D01*
G75*
G02*
X0137599Y0154374I0000000J-000906D01*
G01*
X0137599Y0149099D01*
G75*
G02*
X0136693Y0148193I-000906J0000000D01*
G01*
X0133976Y0148193D01*
G75*
G02*
X0133071Y0149099I0000000J0000906D01*
G01*
X0133071Y0154374D01*
G75*
G02*
X0133976Y0155280I0000906J0000000D01*
G01*
G37*
G36*
G01*
X0123327Y0161599D02*
X0123327Y0164315D01*
G75*
G02*
X0124232Y0165221I0000906J0000000D01*
G01*
X0129508Y0165221D01*
G75*
G02*
X0130414Y0164315I0000000J-000906D01*
G01*
X0130414Y0161599D01*
G75*
G02*
X0129508Y0160693I-000906J0000000D01*
G01*
X0124232Y0160693D01*
G75*
G02*
X0123327Y0161599I0000000J0000906D01*
G01*
G37*
G36*
G01*
X0123327Y0150181D02*
X0123327Y0152898D01*
G75*
G02*
X0124232Y0153803I0000906J0000000D01*
G01*
X0129508Y0153803D01*
G75*
G02*
X0130414Y0152898I0000000J-000906D01*
G01*
X0130414Y0150181D01*
G75*
G02*
X0129508Y0149276I-000906J0000000D01*
G01*
X0124232Y0149276D01*
G75*
G02*
X0123327Y0150181I0000000J0000906D01*
G01*
G37*
G36*
G01*
X0138701Y0145831D02*
X0141417Y0145831D01*
G75*
G02*
X0142323Y0144925I0000000J-000906D01*
G01*
X0142323Y0139650D01*
G75*
G02*
X0141417Y0138744I-000906J0000000D01*
G01*
X0138701Y0138744D01*
G75*
G02*
X0137795Y0139650I0000000J0000906D01*
G01*
X0137795Y0144925D01*
G75*
G02*
X0138701Y0145831I0000906J0000000D01*
G01*
G37*
G36*
G01*
X0127284Y0145831D02*
X0130000Y0145831D01*
G75*
G02*
X0130906Y0144925I0000000J-000906D01*
G01*
X0130906Y0139650D01*
G75*
G02*
X0130000Y0138744I-000906J0000000D01*
G01*
X0127284Y0138744D01*
G75*
G02*
X0126378Y0139650I0000000J0000906D01*
G01*
X0126378Y0144925D01*
G75*
G02*
X0127284Y0145831I0000906J0000000D01*
G01*
G37*
G36*
G01*
X0164370Y0167706D02*
X0164370Y0165688D01*
G75*
G02*
X0163509Y0164827I-000861J0000000D01*
G01*
X0161787Y0164827D01*
G75*
G02*
X0160925Y0165688I0000000J0000861D01*
G01*
X0160925Y0167706D01*
G75*
G02*
X0161787Y0168567I0000861J0000000D01*
G01*
X0163509Y0168567D01*
G75*
G02*
X0164370Y0167706I0000000J-000861D01*
G01*
G37*
G36*
G01*
X0158169Y0167706D02*
X0158169Y0165688D01*
G75*
G02*
X0157308Y0164827I-000861J0000000D01*
G01*
X0155586Y0164827D01*
G75*
G02*
X0154725Y0165688I0000000J0000861D01*
G01*
X0154725Y0167706D01*
G75*
G02*
X0155586Y0168567I0000861J0000000D01*
G01*
X0157308Y0168567D01*
G75*
G02*
X0158169Y0167706I0000000J-000861D01*
G01*
G37*
G36*
G01*
X0170315Y0160744D02*
X0170315Y0158067D01*
G75*
G02*
X0169980Y0157732I-000335J0000000D01*
G01*
X0167303Y0157732D01*
G75*
G02*
X0166969Y0158067I0000000J0000335D01*
G01*
X0166969Y0160744D01*
G75*
G02*
X0167303Y0161079I0000335J0000000D01*
G01*
X0169980Y0161079D01*
G75*
G02*
X0170315Y0160744I0000000J-000335D01*
G01*
G37*
G36*
G01*
X0176536Y0160744D02*
X0176536Y0158067D01*
G75*
G02*
X0176201Y0157732I-000335J0000000D01*
G01*
X0173524Y0157732D01*
G75*
G02*
X0173189Y0158067I0000000J0000335D01*
G01*
X0173189Y0160744D01*
G75*
G02*
X0173524Y0161079I0000335J0000000D01*
G01*
X0176201Y0161079D01*
G75*
G02*
X0176536Y0160744I0000000J-000335D01*
G01*
G37*
G36*
G01*
X0176536Y0155437D02*
X0176536Y0152760D01*
G75*
G02*
X0176201Y0152425I-000335J0000000D01*
G01*
X0173524Y0152425D01*
G75*
G02*
X0173189Y0152760I0000000J0000335D01*
G01*
X0173189Y0155437D01*
G75*
G02*
X0173524Y0155772I0000335J0000000D01*
G01*
X0176201Y0155772D01*
G75*
G02*
X0176536Y0155437I0000000J-000335D01*
G01*
G37*
G36*
G01*
X0170315Y0155437D02*
X0170315Y0152760D01*
G75*
G02*
X0169980Y0152425I-000335J0000000D01*
G01*
X0167303Y0152425D01*
G75*
G02*
X0166969Y0152760I0000000J0000335D01*
G01*
X0166969Y0155437D01*
G75*
G02*
X0167303Y0155772I0000335J0000000D01*
G01*
X0169980Y0155772D01*
G75*
G02*
X0170315Y0155437I0000000J-000335D01*
G01*
G37*
G36*
G01*
X0151122Y0161638D02*
X0153799Y0161638D01*
G75*
G02*
X0154134Y0161303I0000000J-000335D01*
G01*
X0154134Y0158626D01*
G75*
G02*
X0153799Y0158292I-000335J0000000D01*
G01*
X0151122Y0158292D01*
G75*
G02*
X0150788Y0158626I0000000J0000335D01*
G01*
X0150788Y0161303D01*
G75*
G02*
X0151122Y0161638I0000335J0000000D01*
G01*
G37*
G36*
G01*
X0151122Y0155418D02*
X0153799Y0155418D01*
G75*
G02*
X0154134Y0155083I0000000J-000335D01*
G01*
X0154134Y0152406D01*
G75*
G02*
X0153799Y0152071I-000335J0000000D01*
G01*
X0151122Y0152071D01*
G75*
G02*
X0150788Y0152406I0000000J0000335D01*
G01*
X0150788Y0155083D01*
G75*
G02*
X0151122Y0155418I0000335J0000000D01*
G01*
G37*
X0144567Y0183996D02*
G01*
G75*
D120*
X0159272Y0194220D02*
D03*
X0159272Y0186740D02*
D03*
X0150807Y0186740D02*
D03*
X0150807Y0190480D02*
D03*
X0174921Y0194220D02*
D03*
X0174921Y0186740D02*
D03*
X0166457Y0186740D02*
D03*
X0166457Y0190480D02*
D03*
D120*
X0150807Y0194220D02*
D03*
X0166457Y0194220D02*
D03*
D127*
X0180000Y0194232D02*
D03*
X0180000Y0190492D02*
D03*
X0180000Y0186752D02*
D03*
X0145748Y0190689D02*
D03*
X0145748Y0194232D02*
D03*
X0144185Y0115996D02*
G01*
G75*
D120*
X0158890Y0126220D02*
D03*
X0158890Y0118740D02*
D03*
X0150425Y0118740D02*
D03*
X0150425Y0122480D02*
D03*
X0174539Y0126220D02*
D03*
X0174539Y0118740D02*
D03*
X0166075Y0118740D02*
D03*
X0166075Y0122480D02*
D03*
D120*
X0150425Y0126220D02*
D03*
X0166075Y0126220D02*
D03*
D127*
X0179618Y0126232D02*
D03*
X0179618Y0122492D02*
D03*
X0179618Y0118752D02*
D03*
X0145366Y0122689D02*
D03*
X0145366Y0126232D02*
D03*
M02*
