G75*
G70*
%OFA0B0*%
%FSLAX25Y25*%
%IPPOS*%
%LPD*%
%AMOC8*
5,1,8,0,0,1.08239X$1,22.5*
%
%AMM145*
21,1,0.033470,0.026770,0.000000,-0.000000,90.000000*
21,1,0.026770,0.033470,0.000000,-0.000000,90.000000*
1,1,0.006690,0.013390,0.013390*
1,1,0.006690,0.013390,-0.013390*
1,1,0.006690,-0.013390,-0.013390*
1,1,0.006690,-0.013390,0.013390*
%
%AMM146*
21,1,0.035830,0.026770,0.000000,-0.000000,270.000000*
21,1,0.029130,0.033470,0.000000,-0.000000,270.000000*
1,1,0.006690,-0.013390,-0.014570*
1,1,0.006690,-0.013390,0.014570*
1,1,0.006690,0.013390,0.014570*
1,1,0.006690,0.013390,-0.014570*
%
%AMM147*
21,1,0.027560,0.030710,0.000000,-0.000000,270.000000*
21,1,0.022050,0.036220,0.000000,-0.000000,270.000000*
1,1,0.005510,-0.015350,-0.011020*
1,1,0.005510,-0.015350,0.011020*
1,1,0.005510,0.015350,0.011020*
1,1,0.005510,0.015350,-0.011020*
%
%AMM149*
21,1,0.033470,0.026770,0.000000,-0.000000,180.000000*
21,1,0.026770,0.033470,0.000000,-0.000000,180.000000*
1,1,0.006690,-0.013390,0.013390*
1,1,0.006690,0.013390,0.013390*
1,1,0.006690,0.013390,-0.013390*
1,1,0.006690,-0.013390,-0.013390*
%
%AMM2*
21,1,0.035830,0.026770,0.000000,0.000000,0.000000*
21,1,0.029130,0.033470,0.000000,0.000000,0.000000*
1,1,0.006690,0.014570,-0.013390*
1,1,0.006690,-0.014570,-0.013390*
1,1,0.006690,-0.014570,0.013390*
1,1,0.006690,0.014570,0.013390*
%
%AMM27*
21,1,0.070870,0.036220,0.000000,0.000000,90.000000*
21,1,0.061810,0.045280,0.000000,0.000000,90.000000*
1,1,0.009060,0.018110,0.030910*
1,1,0.009060,0.018110,-0.030910*
1,1,0.009060,-0.018110,-0.030910*
1,1,0.009060,-0.018110,0.030910*
%
%AMM273*
21,1,0.035430,0.030320,0.000000,-0.000000,0.000000*
21,1,0.028350,0.037400,0.000000,-0.000000,0.000000*
1,1,0.007090,0.014170,-0.015160*
1,1,0.007090,-0.014170,-0.015160*
1,1,0.007090,-0.014170,0.015160*
1,1,0.007090,0.014170,0.015160*
%
%AMM279*
21,1,0.027560,0.018900,0.000000,-0.000000,90.000000*
21,1,0.022840,0.023620,0.000000,-0.000000,90.000000*
1,1,0.004720,0.009450,0.011420*
1,1,0.004720,0.009450,-0.011420*
1,1,0.004720,-0.009450,-0.011420*
1,1,0.004720,-0.009450,0.011420*
%
%AMM282*
21,1,0.025590,0.026380,0.000000,-0.000000,0.000000*
21,1,0.020470,0.031500,0.000000,-0.000000,0.000000*
1,1,0.005120,0.010240,-0.013190*
1,1,0.005120,-0.010240,-0.013190*
1,1,0.005120,-0.010240,0.013190*
1,1,0.005120,0.010240,0.013190*
%
%AMM283*
21,1,0.017720,0.027950,0.000000,-0.000000,0.000000*
21,1,0.014170,0.031500,0.000000,-0.000000,0.000000*
1,1,0.003540,0.007090,-0.013980*
1,1,0.003540,-0.007090,-0.013980*
1,1,0.003540,-0.007090,0.013980*
1,1,0.003540,0.007090,0.013980*
%
%AMM285*
21,1,0.012600,0.028980,0.000000,-0.000000,0.000000*
21,1,0.010080,0.031500,0.000000,-0.000000,0.000000*
1,1,0.002520,0.005040,-0.014490*
1,1,0.002520,-0.005040,-0.014490*
1,1,0.002520,-0.005040,0.014490*
1,1,0.002520,0.005040,0.014490*
%
%AMM288*
21,1,0.027560,0.018900,0.000000,-0.000000,0.000000*
21,1,0.022840,0.023620,0.000000,-0.000000,0.000000*
1,1,0.004720,0.011420,-0.009450*
1,1,0.004720,-0.011420,-0.009450*
1,1,0.004720,-0.011420,0.009450*
1,1,0.004720,0.011420,0.009450*
%
%AMM30*
21,1,0.023620,0.018900,0.000000,0.000000,90.000000*
21,1,0.018900,0.023620,0.000000,0.000000,90.000000*
1,1,0.004720,0.009450,0.009450*
1,1,0.004720,0.009450,-0.009450*
1,1,0.004720,-0.009450,-0.009450*
1,1,0.004720,-0.009450,0.009450*
%
%AMM305*
21,1,0.035430,0.030320,0.000000,-0.000000,90.000000*
21,1,0.028350,0.037400,0.000000,-0.000000,90.000000*
1,1,0.007090,0.015160,0.014170*
1,1,0.007090,0.015160,-0.014170*
1,1,0.007090,-0.015160,-0.014170*
1,1,0.007090,-0.015160,0.014170*
%
%AMM306*
21,1,0.070870,0.036220,0.000000,-0.000000,270.000000*
21,1,0.061810,0.045280,0.000000,-0.000000,270.000000*
1,1,0.009060,-0.018110,-0.030910*
1,1,0.009060,-0.018110,0.030910*
1,1,0.009060,0.018110,0.030910*
1,1,0.009060,0.018110,-0.030910*
%
%AMM307*
21,1,0.059060,0.020470,0.000000,-0.000000,0.000000*
21,1,0.053940,0.025590,0.000000,-0.000000,0.000000*
1,1,0.005120,0.026970,-0.010240*
1,1,0.005120,-0.026970,-0.010240*
1,1,0.005120,-0.026970,0.010240*
1,1,0.005120,0.026970,0.010240*
%
%AMM308*
21,1,0.078740,0.045670,0.000000,-0.000000,0.000000*
21,1,0.067320,0.057090,0.000000,-0.000000,0.000000*
1,1,0.011420,0.033660,-0.022840*
1,1,0.011420,-0.033660,-0.022840*
1,1,0.011420,-0.033660,0.022840*
1,1,0.011420,0.033660,0.022840*
%
%AMM309*
21,1,0.025590,0.026380,0.000000,-0.000000,270.000000*
21,1,0.020470,0.031500,0.000000,-0.000000,270.000000*
1,1,0.005120,-0.013190,-0.010240*
1,1,0.005120,-0.013190,0.010240*
1,1,0.005120,0.013190,0.010240*
1,1,0.005120,0.013190,-0.010240*
%
%AMM31*
21,1,0.019680,0.019680,0.000000,0.000000,0.000000*
21,1,0.015750,0.023620,0.000000,0.000000,0.000000*
1,1,0.003940,0.007870,-0.009840*
1,1,0.003940,-0.007870,-0.009840*
1,1,0.003940,-0.007870,0.009840*
1,1,0.003940,0.007870,0.009840*
%
%AMM310*
21,1,0.017720,0.027950,0.000000,-0.000000,270.000000*
21,1,0.014170,0.031500,0.000000,-0.000000,270.000000*
1,1,0.003540,-0.013980,-0.007090*
1,1,0.003540,-0.013980,0.007090*
1,1,0.003540,0.013980,0.007090*
1,1,0.003540,0.013980,-0.007090*
%
%AMM311*
21,1,0.027560,0.030710,0.000000,-0.000000,0.000000*
21,1,0.022050,0.036220,0.000000,-0.000000,0.000000*
1,1,0.005510,0.011020,-0.015350*
1,1,0.005510,-0.011020,-0.015350*
1,1,0.005510,-0.011020,0.015350*
1,1,0.005510,0.011020,0.015350*
%
%AMM312*
21,1,0.027560,0.049610,0.000000,-0.000000,180.000000*
21,1,0.022050,0.055120,0.000000,-0.000000,180.000000*
1,1,0.005510,-0.011020,0.024800*
1,1,0.005510,0.011020,0.024800*
1,1,0.005510,0.011020,-0.024800*
1,1,0.005510,-0.011020,-0.024800*
%
%AMM313*
21,1,0.070870,0.036220,0.000000,-0.000000,0.000000*
21,1,0.061810,0.045280,0.000000,-0.000000,0.000000*
1,1,0.009060,0.030910,-0.018110*
1,1,0.009060,-0.030910,-0.018110*
1,1,0.009060,-0.030910,0.018110*
1,1,0.009060,0.030910,0.018110*
%
%AMM32*
21,1,0.019680,0.019680,0.000000,0.000000,270.000000*
21,1,0.015750,0.023620,0.000000,0.000000,270.000000*
1,1,0.003940,-0.009840,-0.007870*
1,1,0.003940,-0.009840,0.007870*
1,1,0.003940,0.009840,0.007870*
1,1,0.003940,0.009840,-0.007870*
%
%AMM45*
21,1,0.106300,0.050390,0.000000,0.000000,90.000000*
21,1,0.093700,0.062990,0.000000,0.000000,90.000000*
1,1,0.012600,0.025200,0.046850*
1,1,0.012600,0.025200,-0.046850*
1,1,0.012600,-0.025200,-0.046850*
1,1,0.012600,-0.025200,0.046850*
%
%AMM46*
21,1,0.023620,0.018900,0.000000,0.000000,180.000000*
21,1,0.018900,0.023620,0.000000,0.000000,180.000000*
1,1,0.004720,-0.009450,0.009450*
1,1,0.004720,0.009450,0.009450*
1,1,0.004720,0.009450,-0.009450*
1,1,0.004720,-0.009450,-0.009450*
%
%AMM47*
21,1,0.122050,0.075590,0.000000,0.000000,180.000000*
21,1,0.103150,0.094490,0.000000,0.000000,180.000000*
1,1,0.018900,-0.051580,0.037800*
1,1,0.018900,0.051580,0.037800*
1,1,0.018900,0.051580,-0.037800*
1,1,0.018900,-0.051580,-0.037800*
%
%AMM48*
21,1,0.118110,0.083460,0.000000,0.000000,0.000000*
21,1,0.097240,0.104330,0.000000,0.000000,0.000000*
1,1,0.020870,0.048620,-0.041730*
1,1,0.020870,-0.048620,-0.041730*
1,1,0.020870,-0.048620,0.041730*
1,1,0.020870,0.048620,0.041730*
%
%AMM5*
21,1,0.033470,0.026770,0.000000,0.000000,270.000000*
21,1,0.026770,0.033470,0.000000,0.000000,270.000000*
1,1,0.006690,-0.013390,-0.013390*
1,1,0.006690,-0.013390,0.013390*
1,1,0.006690,0.013390,0.013390*
1,1,0.006690,0.013390,-0.013390*
%
%ADD115M45*%
%ADD116M46*%
%ADD117O,0.01968X0.08661*%
%ADD118M47*%
%ADD119M48*%
%ADD12R,0.09055X0.00787*%
%ADD13R,0.42126X0.00787*%
%ADD14R,0.08268X0.00787*%
%ADD15R,0.23622X0.00787*%
%ADD16R,0.21260X0.00787*%
%ADD17R,0.00787X0.05512*%
%ADD18R,0.00787X0.19685*%
%ADD19R,0.00787X0.26772*%
%ADD20R,0.00787X0.17717*%
%ADD204R,0.00984X0.01378*%
%ADD205R,0.01378X0.00984*%
%ADD21R,0.06299X0.00787*%
%ADD22R,0.22441X0.00787*%
%ADD23R,0.07874X0.00787*%
%ADD271M145*%
%ADD272M146*%
%ADD273M147*%
%ADD275M149*%
%ADD326R,0.04331X0.03937*%
%ADD330R,0.06693X0.09449*%
%ADD336O,0.00984X0.04961*%
%ADD408M273*%
%ADD414M279*%
%ADD417M282*%
%ADD418M283*%
%ADD420M285*%
%ADD423M288*%
%ADD440M305*%
%ADD441M306*%
%ADD442M307*%
%ADD443M308*%
%ADD444M309*%
%ADD445M310*%
%ADD446M311*%
%ADD447M312*%
%ADD448M313*%
%ADD58M2*%
%ADD61M5*%
%ADD91M27*%
%ADD94M30*%
%ADD95M31*%
%ADD96M32*%
X0000000Y0000000D02*
%LPD*%
G01*
D12*
X0186319Y0240256D03*
D13*
X0315453Y0240256D03*
D14*
X0283169Y0240256D03*
D15*
X0235728Y0240256D03*
D16*
X0209350Y0240256D03*
D17*
X0182185Y0233169D03*
D18*
X0339272Y0227657D03*
D19*
X0339272Y0194193D03*
D20*
X0339272Y0155413D03*
D21*
X0333366Y0074508D03*
D22*
X0207972Y0074508D03*
D23*
X0185728Y0074508D03*
X0114272Y0257972D02*
G01*
G75*
D58*
X0144187Y0334350D02*
D03*
X0131195Y0334350D02*
D03*
D91*
X0164047Y0334744D02*
D03*
X0152630Y0334744D02*
D03*
X0164047Y0326712D02*
D03*
X0152630Y0326712D02*
D03*
D94*
X0126674Y0312696D02*
D03*
X0126674Y0316633D02*
D03*
X0123327Y0327263D02*
D03*
X0131989Y0327263D02*
D03*
X0122540Y0322015D02*
D03*
X0131201Y0322015D02*
D03*
D95*
X0134427Y0269389D02*
D03*
X0130883Y0269389D02*
D03*
X0143818Y0306122D02*
D03*
X0147362Y0306122D02*
D03*
X0135821Y0321227D02*
D03*
X0139364Y0321227D02*
D03*
X0143045Y0269389D02*
D03*
X0139502Y0269389D02*
D03*
X0122540Y0273326D02*
D03*
X0126083Y0273326D02*
D03*
D96*
X0148025Y0322802D02*
D03*
X0148025Y0326346D02*
D03*
X0127258Y0335204D02*
D03*
X0127258Y0331660D02*
D03*
X0176022Y0276887D02*
D03*
X0176022Y0280431D02*
D03*
D115*
X0163485Y0314271D02*
D03*
X0152461Y0314271D02*
D03*
D61*
X0130807Y0309948D02*
D03*
X0130807Y0316168D02*
D03*
X0144901Y0309948D02*
D03*
X0144901Y0316168D02*
D03*
X0140210Y0309948D02*
D03*
X0140210Y0316168D02*
D03*
X0135518Y0309948D02*
D03*
X0135518Y0316168D02*
D03*
X0143720Y0322192D02*
D03*
X0143720Y0328413D02*
D03*
D116*
X0134230Y0273326D02*
D03*
X0130293Y0273326D02*
D03*
X0138911Y0273326D02*
D03*
X0142848Y0273326D02*
D03*
X0135624Y0327263D02*
D03*
X0139561Y0327263D02*
D03*
X0158557Y0305649D02*
D03*
X0162494Y0305649D02*
D03*
X0166333Y0268208D02*
D03*
X0162395Y0268208D02*
D03*
D117*
X0139344Y0280086D02*
D03*
X0134344Y0280086D02*
D03*
X0129344Y0280086D02*
D03*
X0124344Y0280086D02*
D03*
X0139344Y0302723D02*
D03*
X0134344Y0302723D02*
D03*
X0129344Y0302723D02*
D03*
X0124344Y0302723D02*
D03*
X0162411Y0274803D02*
D03*
X0157411Y0274803D02*
D03*
X0152411Y0274803D02*
D03*
X0147411Y0274803D02*
D03*
X0162411Y0298228D02*
D03*
X0157411Y0298228D02*
D03*
X0152411Y0298228D02*
D03*
X0147411Y0298228D02*
D03*
D118*
X0131844Y0291404D02*
D03*
D119*
X0154911Y0286515D02*
D03*
X0181791Y0240650D02*
G01*
G75*
D16*
X0209350Y0240256D02*
D03*
D12*
X0186319Y0240256D02*
D03*
D15*
X0235728Y0240256D02*
D03*
D23*
X0185728Y0074508D02*
D03*
D14*
X0283169Y0240256D02*
D03*
D13*
X0315452Y0240256D02*
D03*
D18*
X0339271Y0227658D02*
D03*
D19*
X0339271Y0194193D02*
D03*
D20*
X0339271Y0155414D02*
D03*
D22*
X0207972Y0074508D02*
D03*
D21*
X0333366Y0074508D02*
D03*
D17*
X0182185Y0233170D02*
D03*
D408*
X0283033Y0229035D02*
D03*
X0286773Y0219783D02*
D03*
D408*
X0290514Y0229035D02*
D03*
D414*
X0233759Y0208957D02*
D03*
X0237696Y0208957D02*
D03*
X0276673Y0088288D02*
D03*
X0272736Y0088288D02*
D03*
X0335925Y0212008D02*
D03*
X0331988Y0212008D02*
D03*
X0258563Y0178825D02*
D03*
X0254626Y0178825D02*
D03*
X0258491Y0161920D02*
D03*
X0262428Y0161920D02*
D03*
X0255019Y0183957D02*
D03*
X0258956Y0183957D02*
D03*
X0238607Y0235151D02*
D03*
X0234670Y0235151D02*
D03*
X0307775Y0217422D02*
D03*
X0303838Y0217422D02*
D03*
X0326870Y0237894D02*
D03*
X0330807Y0237894D02*
D03*
X0251082Y0106004D02*
D03*
X0247145Y0106004D02*
D03*
X0315649Y0179626D02*
D03*
X0319586Y0179626D02*
D03*
X0249212Y0149409D02*
D03*
X0253149Y0149409D02*
D03*
X0330512Y0160434D02*
D03*
X0334448Y0160434D02*
D03*
X0262893Y0107579D02*
D03*
X0258956Y0107579D02*
D03*
X0262893Y0103642D02*
D03*
X0258956Y0103642D02*
D03*
X0326870Y0233760D02*
D03*
X0330807Y0233760D02*
D03*
X0278248Y0096752D02*
D03*
X0274311Y0096752D02*
D03*
X0300689Y0096949D02*
D03*
X0296752Y0096949D02*
D03*
X0249212Y0145079D02*
D03*
X0253149Y0145079D02*
D03*
X0335728Y0141437D02*
D03*
X0331791Y0141437D02*
D03*
X0286122Y0179626D02*
D03*
X0290059Y0179626D02*
D03*
X0282578Y0179626D02*
D03*
X0278641Y0179626D02*
D03*
X0206200Y0193012D02*
D03*
X0202263Y0193012D02*
D03*
X0206200Y0188288D02*
D03*
X0202263Y0188288D02*
D03*
X0206200Y0183563D02*
D03*
X0202263Y0183563D02*
D03*
X0206200Y0178839D02*
D03*
X0202263Y0178839D02*
D03*
X0186909Y0094193D02*
D03*
X0190846Y0094193D02*
D03*
X0190846Y0089469D02*
D03*
X0186909Y0089469D02*
D03*
X0186909Y0084745D02*
D03*
X0190846Y0084745D02*
D03*
X0186909Y0080020D02*
D03*
X0190846Y0080020D02*
D03*
X0233759Y0212894D02*
D03*
X0237696Y0212894D02*
D03*
X0233759Y0184941D02*
D03*
X0237696Y0184941D02*
D03*
X0206200Y0216634D02*
D03*
X0202263Y0216634D02*
D03*
X0206200Y0221358D02*
D03*
X0202263Y0221358D02*
D03*
X0206200Y0226083D02*
D03*
X0202263Y0226083D02*
D03*
X0206200Y0230807D02*
D03*
X0202263Y0230807D02*
D03*
X0206200Y0197736D02*
D03*
X0202263Y0197736D02*
D03*
X0206200Y0202461D02*
D03*
X0202263Y0202461D02*
D03*
X0206200Y0207185D02*
D03*
X0202263Y0207185D02*
D03*
X0206200Y0211910D02*
D03*
X0202263Y0211910D02*
D03*
X0206200Y0159941D02*
D03*
X0202263Y0159941D02*
D03*
X0206200Y0164665D02*
D03*
X0202263Y0164665D02*
D03*
X0206200Y0169390D02*
D03*
X0202263Y0169390D02*
D03*
X0206200Y0174114D02*
D03*
X0202263Y0174114D02*
D03*
X0202263Y0141043D02*
D03*
X0206200Y0141043D02*
D03*
X0206200Y0145768D02*
D03*
X0202263Y0145768D02*
D03*
X0206200Y0150492D02*
D03*
X0202263Y0150492D02*
D03*
X0206200Y0155217D02*
D03*
X0202263Y0155217D02*
D03*
X0206200Y0122146D02*
D03*
X0202263Y0122146D02*
D03*
X0206200Y0126870D02*
D03*
X0202263Y0126870D02*
D03*
X0206200Y0131595D02*
D03*
X0202263Y0131595D02*
D03*
X0206200Y0136319D02*
D03*
X0202263Y0136319D02*
D03*
X0206200Y0107973D02*
D03*
X0202263Y0107973D02*
D03*
X0206200Y0112697D02*
D03*
X0202263Y0112697D02*
D03*
X0206200Y0117422D02*
D03*
X0202263Y0117422D02*
D03*
X0196948Y0235926D02*
D03*
X0200885Y0235926D02*
D03*
X0190846Y0098917D02*
D03*
X0186909Y0098917D02*
D03*
X0223523Y0184941D02*
D03*
X0227460Y0184941D02*
D03*
X0202263Y0097343D02*
D03*
X0206200Y0097343D02*
D03*
X0189271Y0235926D02*
D03*
X0193208Y0235926D02*
D03*
X0198326Y0097343D02*
D03*
X0194389Y0097343D02*
D03*
X0328641Y0092225D02*
D03*
X0324704Y0092225D02*
D03*
X0206200Y0103248D02*
D03*
X0202263Y0103248D02*
D03*
D417*
X0298622Y0203248D02*
D03*
X0298622Y0196162D02*
D03*
X0288582Y0196162D02*
D03*
X0288582Y0203248D02*
D03*
X0250393Y0188681D02*
D03*
X0250393Y0195768D02*
D03*
X0260433Y0195768D02*
D03*
X0260433Y0188681D02*
D03*
X0266535Y0188681D02*
D03*
X0266535Y0195768D02*
D03*
X0276575Y0195768D02*
D03*
X0276575Y0188681D02*
D03*
X0230708Y0093209D02*
D03*
X0230708Y0100296D02*
D03*
X0220669Y0100296D02*
D03*
X0220669Y0093209D02*
D03*
X0220669Y0111713D02*
D03*
X0220669Y0104626D02*
D03*
X0230708Y0104626D02*
D03*
X0230708Y0111713D02*
D03*
X0230708Y0161713D02*
D03*
X0230708Y0168799D02*
D03*
X0220669Y0168799D02*
D03*
X0220669Y0161713D02*
D03*
X0220669Y0180217D02*
D03*
X0220669Y0173130D02*
D03*
X0230708Y0173130D02*
D03*
X0230708Y0180217D02*
D03*
X0230708Y0138878D02*
D03*
X0230708Y0145965D02*
D03*
X0220669Y0145965D02*
D03*
X0220669Y0138878D02*
D03*
X0220669Y0157382D02*
D03*
X0220669Y0150295D02*
D03*
X0230708Y0150295D02*
D03*
X0230708Y0157382D02*
D03*
X0230708Y0116043D02*
D03*
X0230708Y0123130D02*
D03*
X0220669Y0123130D02*
D03*
X0220669Y0116043D02*
D03*
X0220669Y0134547D02*
D03*
X0220669Y0127461D02*
D03*
X0230708Y0127461D02*
D03*
X0230708Y0134547D02*
D03*
D418*
X0292027Y0196162D02*
D03*
X0295177Y0196162D02*
D03*
X0295177Y0203248D02*
D03*
X0292027Y0203248D02*
D03*
X0256988Y0195768D02*
D03*
X0253838Y0195768D02*
D03*
X0253838Y0188681D02*
D03*
X0256988Y0188681D02*
D03*
X0273130Y0195768D02*
D03*
X0269980Y0195768D02*
D03*
X0269980Y0188681D02*
D03*
X0273130Y0188681D02*
D03*
X0227263Y0093209D02*
D03*
X0224114Y0093209D02*
D03*
X0224114Y0100296D02*
D03*
X0227263Y0100296D02*
D03*
X0224114Y0111713D02*
D03*
X0227263Y0111713D02*
D03*
X0227263Y0104626D02*
D03*
X0224114Y0104626D02*
D03*
X0227263Y0161713D02*
D03*
X0224114Y0161713D02*
D03*
X0224114Y0168799D02*
D03*
X0227263Y0168799D02*
D03*
X0224114Y0180217D02*
D03*
X0227263Y0180217D02*
D03*
X0227263Y0173130D02*
D03*
X0224114Y0173130D02*
D03*
X0227263Y0138878D02*
D03*
X0224114Y0138878D02*
D03*
X0224114Y0145965D02*
D03*
X0227263Y0145965D02*
D03*
X0224114Y0157382D02*
D03*
X0227263Y0157382D02*
D03*
X0227263Y0150295D02*
D03*
X0224114Y0150295D02*
D03*
X0227263Y0116043D02*
D03*
X0224114Y0116043D02*
D03*
X0224114Y0123130D02*
D03*
X0227263Y0123130D02*
D03*
X0224114Y0134547D02*
D03*
X0227263Y0134547D02*
D03*
X0227263Y0127461D02*
D03*
X0224114Y0127461D02*
D03*
D420*
X0292618Y0215256D02*
D03*
X0295177Y0215256D02*
D03*
X0297736Y0215256D02*
D03*
X0297736Y0207776D02*
D03*
X0292618Y0207776D02*
D03*
D423*
X0333169Y0196949D02*
D03*
X0333169Y0200886D02*
D03*
X0317421Y0080807D02*
D03*
X0317421Y0084745D02*
D03*
X0312600Y0221907D02*
D03*
X0312600Y0217970D02*
D03*
X0306594Y0199311D02*
D03*
X0306594Y0203248D02*
D03*
X0302657Y0208367D02*
D03*
X0302657Y0204430D02*
D03*
X0251870Y0099311D02*
D03*
X0251870Y0095374D02*
D03*
X0333760Y0168603D02*
D03*
X0333760Y0164666D02*
D03*
X0321555Y0099902D02*
D03*
X0321555Y0095965D02*
D03*
X0332578Y0127264D02*
D03*
X0332578Y0123327D02*
D03*
X0245769Y0171740D02*
D03*
X0245769Y0175677D02*
D03*
X0268405Y0181004D02*
D03*
X0268405Y0177067D02*
D03*
X0266830Y0170965D02*
D03*
X0266830Y0167028D02*
D03*
X0295177Y0171752D02*
D03*
X0295177Y0167815D02*
D03*
X0335334Y0076477D02*
D03*
X0335334Y0080414D02*
D03*
X0334350Y0189666D02*
D03*
X0334350Y0193603D02*
D03*
X0319980Y0207579D02*
D03*
X0319980Y0203642D02*
D03*
X0258169Y0096555D02*
D03*
X0258169Y0092618D02*
D03*
X0262106Y0096555D02*
D03*
X0262106Y0092618D02*
D03*
X0325492Y0095965D02*
D03*
X0325492Y0099902D02*
D03*
X0249606Y0123032D02*
D03*
X0249606Y0126969D02*
D03*
X0294783Y0179626D02*
D03*
X0294783Y0175689D02*
D03*
X0263090Y0179626D02*
D03*
X0263090Y0175689D02*
D03*
X0318405Y0171359D02*
D03*
X0318405Y0167422D02*
D03*
X0303051Y0172146D02*
D03*
X0303051Y0168209D02*
D03*
X0249212Y0157284D02*
D03*
X0249212Y0153347D02*
D03*
X0236909Y0103051D02*
D03*
X0236909Y0106988D02*
D03*
X0236909Y0171555D02*
D03*
X0236909Y0175492D02*
D03*
X0236909Y0148721D02*
D03*
X0236909Y0152658D02*
D03*
X0236909Y0125886D02*
D03*
X0236909Y0129823D02*
D03*
X0212893Y0165059D02*
D03*
X0212893Y0168996D02*
D03*
X0216437Y0220111D02*
D03*
X0216437Y0216174D02*
D03*
X0216437Y0229300D02*
D03*
X0216437Y0233237D02*
D03*
X0216437Y0195307D02*
D03*
X0216437Y0191370D02*
D03*
X0216437Y0204496D02*
D03*
X0216437Y0208433D02*
D03*
X0298326Y0232776D02*
D03*
X0298326Y0236713D02*
D03*
X0298326Y0226870D02*
D03*
X0298326Y0222933D02*
D03*
X0210137Y0189862D02*
D03*
X0210137Y0193799D02*
D03*
X0247933Y0236713D02*
D03*
X0247933Y0232776D02*
D03*
X0260334Y0236713D02*
D03*
X0260334Y0232776D02*
D03*
X0264468Y0236713D02*
D03*
X0264468Y0232776D02*
D03*
X0272736Y0236713D02*
D03*
X0272736Y0232776D02*
D03*
X0268602Y0236713D02*
D03*
X0268602Y0232776D02*
D03*
X0276870Y0236713D02*
D03*
X0276870Y0232776D02*
D03*
X0256201Y0236713D02*
D03*
X0256201Y0232776D02*
D03*
X0252067Y0236713D02*
D03*
X0252067Y0232776D02*
D03*
D271*
X0299311Y0186673D02*
D03*
X0299311Y0180453D02*
D03*
D440*
X0309662Y0084070D02*
D03*
X0300410Y0080330D02*
D03*
X0251911Y0166499D02*
D03*
X0261163Y0170239D02*
D03*
X0312775Y0230020D02*
D03*
X0322027Y0233760D02*
D03*
X0326200Y0224311D02*
D03*
X0316949Y0220571D02*
D03*
X0217815Y0087697D02*
D03*
X0208563Y0083957D02*
D03*
X0223458Y0083957D02*
D03*
X0232710Y0087697D02*
D03*
X0247605Y0087697D02*
D03*
X0238353Y0083957D02*
D03*
X0262500Y0088484D02*
D03*
X0253248Y0084744D02*
D03*
D440*
X0300410Y0087810D02*
D03*
X0251911Y0173979D02*
D03*
X0312775Y0237500D02*
D03*
X0326201Y0216831D02*
D03*
X0217815Y0080217D02*
D03*
X0232710Y0080217D02*
D03*
X0247605Y0080217D02*
D03*
X0262500Y0081004D02*
D03*
D272*
X0305413Y0236319D02*
D03*
X0305413Y0223327D02*
D03*
X0315649Y0198918D02*
D03*
X0315649Y0185925D02*
D03*
D326*
X0314074Y0203839D02*
D03*
X0314074Y0210532D02*
D03*
D441*
X0276279Y0081595D02*
D03*
X0287696Y0081595D02*
D03*
D442*
X0287315Y0143524D02*
D03*
X0287315Y0139193D02*
D03*
X0287315Y0134862D02*
D03*
X0287315Y0130532D02*
D03*
X0287315Y0126201D02*
D03*
X0287315Y0121870D02*
D03*
X0287315Y0117539D02*
D03*
X0287315Y0113209D02*
D03*
D443*
X0277079Y0103839D02*
D03*
X0309756Y0103839D02*
D03*
X0309756Y0157972D02*
D03*
X0277079Y0157972D02*
D03*
D330*
X0288287Y0168602D02*
D03*
X0273720Y0168602D02*
D03*
D444*
X0264468Y0122047D02*
D03*
X0257382Y0122047D02*
D03*
X0257382Y0112008D02*
D03*
X0264468Y0112008D02*
D03*
X0189468Y0190945D02*
D03*
X0196555Y0190945D02*
D03*
X0196555Y0180906D02*
D03*
X0189468Y0180906D02*
D03*
X0223917Y0219095D02*
D03*
X0231004Y0219095D02*
D03*
X0231004Y0229134D02*
D03*
X0223917Y0229134D02*
D03*
X0242421Y0229134D02*
D03*
X0235334Y0229134D02*
D03*
X0235334Y0219095D02*
D03*
X0242421Y0219095D02*
D03*
X0223917Y0191142D02*
D03*
X0231004Y0191142D02*
D03*
X0231004Y0201181D02*
D03*
X0223917Y0201181D02*
D03*
X0242421Y0201181D02*
D03*
X0235334Y0201181D02*
D03*
X0235334Y0191142D02*
D03*
X0242421Y0191142D02*
D03*
X0189468Y0228740D02*
D03*
X0196555Y0228740D02*
D03*
X0196555Y0218701D02*
D03*
X0189468Y0218701D02*
D03*
X0189468Y0209843D02*
D03*
X0196555Y0209843D02*
D03*
X0196555Y0199804D02*
D03*
X0189468Y0199804D02*
D03*
X0189468Y0172048D02*
D03*
X0196555Y0172048D02*
D03*
X0196555Y0162008D02*
D03*
X0189468Y0162008D02*
D03*
X0189468Y0153150D02*
D03*
X0196555Y0153150D02*
D03*
X0196555Y0143110D02*
D03*
X0189468Y0143110D02*
D03*
X0189468Y0134252D02*
D03*
X0196555Y0134252D02*
D03*
X0196555Y0124213D02*
D03*
X0189468Y0124213D02*
D03*
X0189468Y0115355D02*
D03*
X0196555Y0115355D02*
D03*
X0196555Y0105315D02*
D03*
X0189468Y0105315D02*
D03*
X0195177Y0082087D02*
D03*
X0202263Y0082087D02*
D03*
X0202263Y0092126D02*
D03*
X0195177Y0092126D02*
D03*
D445*
X0264468Y0118603D02*
D03*
X0264468Y0115453D02*
D03*
X0257382Y0115453D02*
D03*
X0257382Y0118603D02*
D03*
X0196555Y0184351D02*
D03*
X0196555Y0187500D02*
D03*
X0189468Y0187500D02*
D03*
X0189468Y0184351D02*
D03*
X0223917Y0222540D02*
D03*
X0223917Y0225689D02*
D03*
X0231004Y0225689D02*
D03*
X0231004Y0222540D02*
D03*
X0242421Y0225689D02*
D03*
X0242421Y0222540D02*
D03*
X0235334Y0222540D02*
D03*
X0235334Y0225689D02*
D03*
X0223917Y0194587D02*
D03*
X0223917Y0197737D02*
D03*
X0231004Y0197737D02*
D03*
X0231004Y0194587D02*
D03*
X0242421Y0197736D02*
D03*
X0242421Y0194587D02*
D03*
X0235334Y0194587D02*
D03*
X0235334Y0197736D02*
D03*
X0196555Y0222146D02*
D03*
X0196555Y0225295D02*
D03*
X0189468Y0225295D02*
D03*
X0189468Y0222146D02*
D03*
X0196555Y0203248D02*
D03*
X0196555Y0206398D02*
D03*
X0189468Y0206398D02*
D03*
X0189468Y0203248D02*
D03*
X0196555Y0165453D02*
D03*
X0196555Y0168603D02*
D03*
X0189468Y0168603D02*
D03*
X0189468Y0165453D02*
D03*
X0196555Y0146555D02*
D03*
X0196555Y0149705D02*
D03*
X0189468Y0149705D02*
D03*
X0189468Y0146555D02*
D03*
X0196555Y0127658D02*
D03*
X0196555Y0130807D02*
D03*
X0189468Y0130807D02*
D03*
X0189468Y0127658D02*
D03*
X0196555Y0108760D02*
D03*
X0196555Y0111910D02*
D03*
X0189468Y0111910D02*
D03*
X0189468Y0108760D02*
D03*
X0195177Y0085532D02*
D03*
X0195177Y0088681D02*
D03*
X0202263Y0088681D02*
D03*
X0202263Y0085532D02*
D03*
D446*
X0292027Y0096949D02*
D03*
X0285728Y0096949D02*
D03*
X0327756Y0150591D02*
D03*
X0334055Y0150591D02*
D03*
X0293996Y0235925D02*
D03*
X0287696Y0235925D02*
D03*
X0284547Y0091437D02*
D03*
X0290846Y0091437D02*
D03*
D447*
X0313484Y0171359D02*
D03*
X0307578Y0171359D02*
D03*
D273*
X0308563Y0180413D02*
D03*
X0308563Y0186713D02*
D03*
X0303937Y0180413D02*
D03*
X0303937Y0186713D02*
D03*
D448*
X0333169Y0228839D02*
D03*
X0333169Y0217422D02*
D03*
D275*
X0272972Y0092422D02*
D03*
X0279193Y0092422D02*
D03*
X0302618Y0163878D02*
D03*
X0296397Y0163878D02*
D03*
D336*
X0248917Y0227028D02*
D03*
X0251476Y0227028D02*
D03*
X0254035Y0227028D02*
D03*
X0256594Y0227028D02*
D03*
X0259153Y0227028D02*
D03*
X0261712Y0227028D02*
D03*
X0264271Y0227028D02*
D03*
X0266830Y0227028D02*
D03*
X0269389Y0227028D02*
D03*
X0271949Y0227028D02*
D03*
X0274507Y0227028D02*
D03*
X0277067Y0227028D02*
D03*
X0248917Y0204035D02*
D03*
X0251476Y0204035D02*
D03*
X0254035Y0204035D02*
D03*
X0256594Y0204035D02*
D03*
X0259153Y0204035D02*
D03*
X0261712Y0204035D02*
D03*
X0264271Y0204035D02*
D03*
X0266830Y0204035D02*
D03*
X0269389Y0204035D02*
D03*
X0271949Y0204035D02*
D03*
X0274507Y0204035D02*
D03*
X0277067Y0204035D02*
D03*
D205*
X0325098Y0083760D02*
D03*
X0325098Y0085728D02*
D03*
X0331397Y0085728D02*
D03*
X0331397Y0083760D02*
D03*
D204*
X0325295Y0087894D02*
D03*
X0327264Y0087894D02*
D03*
X0329232Y0087894D02*
D03*
X0331200Y0087894D02*
D03*
X0325295Y0081594D02*
D03*
X0331200Y0081594D02*
D03*
X0327264Y0081594D02*
D03*
X0329232Y0081594D02*
D03*
X0113484Y0138681D02*
%LPD*%
G01*
X0134055Y0180315D02*
G01*
G75*
D116*
X0162008Y0190551D02*
D03*
X0165945Y0190551D02*
D03*
X0150885Y0190551D02*
D03*
X0146948Y0190551D02*
D03*
X0142519Y0190551D02*
D03*
X0138582Y0190551D02*
D03*
X0162008Y0183268D02*
D03*
X0165945Y0183268D02*
D03*
D96*
X0158623Y0183071D02*
D03*
X0158623Y0186614D02*
D03*
D61*
X0154738Y0189784D02*
D03*
X0154738Y0183563D02*
D03*
D95*
X0142126Y0186614D02*
D03*
X0138583Y0186614D02*
D03*
X0150492Y0183071D02*
D03*
X0146949Y0183071D02*
D03*
X0165354Y0186672D02*
D03*
X0161811Y0186672D02*
D03*
X0138583Y0183071D02*
D03*
X0142126Y0183071D02*
D03*
M02*
