G75*
G70*
%OFA0B0*%
%FSLAX25Y25*%
%IPPOS*%
%LPD*%
%AMOC8*
5,1,8,0,0,1.08239X$1,22.5*
%
%AMM13*
21,1,0.041340,0.026770,0.000000,0.000000,0.000000*
21,1,0.029130,0.038980,0.000000,0.000000,0.000000*
1,1,0.012210,0.014570,-0.013390*
1,1,0.012210,-0.014570,-0.013390*
1,1,0.012210,-0.014570,0.013390*
1,1,0.012210,0.014570,0.013390*
%
%AMM156*
21,1,0.038980,0.026770,0.000000,-0.000000,90.000000*
21,1,0.026770,0.038980,0.000000,-0.000000,90.000000*
1,1,0.012210,0.013390,0.013390*
1,1,0.012210,0.013390,-0.013390*
1,1,0.012210,-0.013390,-0.013390*
1,1,0.012210,-0.013390,0.013390*
%
%AMM157*
21,1,0.041340,0.026770,0.000000,-0.000000,270.000000*
21,1,0.029130,0.038980,0.000000,-0.000000,270.000000*
1,1,0.012210,-0.013390,-0.014570*
1,1,0.012210,-0.013390,0.014570*
1,1,0.012210,0.013390,0.014570*
1,1,0.012210,0.013390,-0.014570*
%
%AMM158*
21,1,0.033070,0.030710,0.000000,-0.000000,270.000000*
21,1,0.022050,0.041730,0.000000,-0.000000,270.000000*
1,1,0.011020,-0.015350,-0.011020*
1,1,0.011020,-0.015350,0.011020*
1,1,0.011020,0.015350,0.011020*
1,1,0.011020,0.015350,-0.011020*
%
%AMM159*
21,1,0.040950,0.030320,0.000000,-0.000000,270.000000*
21,1,0.028350,0.042910,0.000000,-0.000000,270.000000*
1,1,0.012600,-0.015160,-0.014170*
1,1,0.012600,-0.015160,0.014170*
1,1,0.012600,0.015160,0.014170*
1,1,0.012600,0.015160,-0.014170*
%
%AMM160*
21,1,0.038980,0.026770,0.000000,-0.000000,180.000000*
21,1,0.026770,0.038980,0.000000,-0.000000,180.000000*
1,1,0.012210,-0.013390,0.013390*
1,1,0.012210,0.013390,0.013390*
1,1,0.012210,0.013390,-0.013390*
1,1,0.012210,-0.013390,-0.013390*
%
%AMM289*
21,1,0.039370,0.030320,0.000000,-0.000000,0.000000*
21,1,0.028350,0.041340,0.000000,-0.000000,0.000000*
1,1,0.011020,0.014170,-0.015160*
1,1,0.011020,-0.014170,-0.015160*
1,1,0.011020,-0.014170,0.015160*
1,1,0.011020,0.014170,0.015160*
%
%AMM290*
21,1,0.047240,0.075980,0.000000,-0.000000,270.000000*
21,1,0.034650,0.088580,0.000000,-0.000000,270.000000*
1,1,0.012600,-0.037990,-0.017320*
1,1,0.012600,-0.037990,0.017320*
1,1,0.012600,0.037990,0.017320*
1,1,0.012600,0.037990,-0.017320*
%
%AMM291*
21,1,0.047240,0.075990,0.000000,-0.000000,270.000000*
21,1,0.034650,0.088580,0.000000,-0.000000,270.000000*
1,1,0.012600,-0.037990,-0.017320*
1,1,0.012600,-0.037990,0.017320*
1,1,0.012600,0.037990,0.017320*
1,1,0.012600,0.037990,-0.017320*
%
%AMM292*
21,1,0.141730,0.067720,0.000000,-0.000000,270.000000*
21,1,0.120870,0.088580,0.000000,-0.000000,270.000000*
1,1,0.020870,-0.033860,-0.060430*
1,1,0.020870,-0.033860,0.060430*
1,1,0.020870,0.033860,0.060430*
1,1,0.020870,0.033860,-0.060430*
%
%AMM293*
21,1,0.043310,0.035430,0.000000,-0.000000,270.000000*
21,1,0.031500,0.047240,0.000000,-0.000000,270.000000*
1,1,0.011810,-0.017720,-0.015750*
1,1,0.011810,-0.017720,0.015750*
1,1,0.011810,0.017720,0.015750*
1,1,0.011810,0.017720,-0.015750*
%
%AMM294*
21,1,0.027560,0.030710,0.000000,-0.000000,90.000000*
21,1,0.018900,0.039370,0.000000,-0.000000,90.000000*
1,1,0.008660,0.015350,0.009450*
1,1,0.008660,0.015350,-0.009450*
1,1,0.008660,-0.015350,-0.009450*
1,1,0.008660,-0.015350,0.009450*
%
%AMM295*
21,1,0.031500,0.018900,0.000000,-0.000000,90.000000*
21,1,0.022840,0.027560,0.000000,-0.000000,90.000000*
1,1,0.008660,0.009450,0.011420*
1,1,0.008660,0.009450,-0.011420*
1,1,0.008660,-0.009450,-0.011420*
1,1,0.008660,-0.009450,0.011420*
%
%AMM296*
21,1,0.027560,0.030710,0.000000,-0.000000,180.000000*
21,1,0.018900,0.039370,0.000000,-0.000000,180.000000*
1,1,0.008660,-0.009450,0.015350*
1,1,0.008660,0.009450,0.015350*
1,1,0.008660,0.009450,-0.015350*
1,1,0.008660,-0.009450,-0.015350*
%
%AMM297*
21,1,0.090550,0.073230,0.000000,-0.000000,0.000000*
21,1,0.069290,0.094490,0.000000,-0.000000,0.000000*
1,1,0.021260,0.034650,-0.036610*
1,1,0.021260,-0.034650,-0.036610*
1,1,0.021260,-0.034650,0.036610*
1,1,0.021260,0.034650,0.036610*
%
%AMM298*
21,1,0.029530,0.026380,0.000000,-0.000000,0.000000*
21,1,0.020470,0.035430,0.000000,-0.000000,0.000000*
1,1,0.009060,0.010240,-0.013190*
1,1,0.009060,-0.010240,-0.013190*
1,1,0.009060,-0.010240,0.013190*
1,1,0.009060,0.010240,0.013190*
%
%AMM299*
21,1,0.021650,0.027950,0.000000,-0.000000,0.000000*
21,1,0.014170,0.035430,0.000000,-0.000000,0.000000*
1,1,0.007480,0.007090,-0.013980*
1,1,0.007480,-0.007090,-0.013980*
1,1,0.007480,-0.007090,0.013980*
1,1,0.007480,0.007090,0.013980*
%
%AMM300*
21,1,0.035430,0.072440,0.000000,-0.000000,0.000000*
21,1,0.025200,0.082680,0.000000,-0.000000,0.000000*
1,1,0.010240,0.012600,-0.036220*
1,1,0.010240,-0.012600,-0.036220*
1,1,0.010240,-0.012600,0.036220*
1,1,0.010240,0.012600,0.036220*
%
%AMM301*
21,1,0.016540,0.028980,0.000000,-0.000000,0.000000*
21,1,0.010080,0.035430,0.000000,-0.000000,0.000000*
1,1,0.006460,0.005040,-0.014490*
1,1,0.006460,-0.005040,-0.014490*
1,1,0.006460,-0.005040,0.014490*
1,1,0.006460,0.005040,0.014490*
%
%AMM302*
21,1,0.016540,0.028980,0.000000,-0.000000,90.000000*
21,1,0.010080,0.035430,0.000000,-0.000000,90.000000*
1,1,0.006460,0.014490,0.005040*
1,1,0.006460,0.014490,-0.005040*
1,1,0.006460,-0.014490,-0.005040*
1,1,0.006460,-0.014490,0.005040*
%
%AMM303*
21,1,0.043310,0.035430,0.000000,-0.000000,180.000000*
21,1,0.031500,0.047240,0.000000,-0.000000,180.000000*
1,1,0.011810,-0.015750,0.017720*
1,1,0.011810,0.015750,0.017720*
1,1,0.011810,0.015750,-0.017720*
1,1,0.011810,-0.015750,-0.017720*
%
%AMM304*
21,1,0.031500,0.018900,0.000000,-0.000000,0.000000*
21,1,0.022840,0.027560,0.000000,-0.000000,0.000000*
1,1,0.008660,0.011420,-0.009450*
1,1,0.008660,-0.011420,-0.009450*
1,1,0.008660,-0.011420,0.009450*
1,1,0.008660,0.011420,0.009450*
%
%AMM33*
21,1,0.092130,0.073230,0.000000,0.000000,270.000000*
21,1,0.069290,0.096060,0.000000,0.000000,270.000000*
1,1,0.022840,-0.036610,-0.034650*
1,1,0.022840,-0.036610,0.034650*
1,1,0.022840,0.036610,0.034650*
1,1,0.022840,0.036610,-0.034650*
%
%AMM34*
21,1,0.100000,0.111020,0.000000,0.000000,0.000000*
21,1,0.075590,0.135430,0.000000,0.000000,0.000000*
1,1,0.024410,0.037800,-0.055510*
1,1,0.024410,-0.037800,-0.055510*
1,1,0.024410,-0.037800,0.055510*
1,1,0.024410,0.037800,0.055510*
%
%AMM35*
21,1,0.080320,0.083460,0.000000,0.000000,0.000000*
21,1,0.059840,0.103940,0.000000,0.000000,0.000000*
1,1,0.020470,0.029920,-0.041730*
1,1,0.020470,-0.029920,-0.041730*
1,1,0.020470,-0.029920,0.041730*
1,1,0.020470,0.029920,0.041730*
%
%AMM36*
21,1,0.084250,0.053540,0.000000,0.000000,180.000000*
21,1,0.065350,0.072440,0.000000,0.000000,180.000000*
1,1,0.018900,-0.032680,0.026770*
1,1,0.018900,0.032680,0.026770*
1,1,0.018900,0.032680,-0.026770*
1,1,0.018900,-0.032680,-0.026770*
%
%AMM37*
21,1,0.040950,0.030320,0.000000,0.000000,90.000000*
21,1,0.028350,0.042910,0.000000,0.000000,90.000000*
1,1,0.012600,0.015160,0.014170*
1,1,0.012600,0.015160,-0.014170*
1,1,0.012600,-0.015160,-0.014170*
1,1,0.012600,-0.015160,0.014170*
%
%AMM38*
21,1,0.027170,0.052760,0.000000,0.000000,270.000000*
21,1,0.017320,0.062600,0.000000,0.000000,270.000000*
1,1,0.009840,-0.026380,-0.008660*
1,1,0.009840,-0.026380,0.008660*
1,1,0.009840,0.026380,0.008660*
1,1,0.009840,0.026380,-0.008660*
%
%AMM39*
21,1,0.076380,0.036220,0.000000,0.000000,90.000000*
21,1,0.061810,0.050790,0.000000,0.000000,90.000000*
1,1,0.014570,0.018110,0.030910*
1,1,0.014570,0.018110,-0.030910*
1,1,0.014570,-0.018110,-0.030910*
1,1,0.014570,-0.018110,0.030910*
%
%AMM40*
21,1,0.038980,0.026770,0.000000,0.000000,0.000000*
21,1,0.026770,0.038980,0.000000,0.000000,0.000000*
1,1,0.012210,0.013390,-0.013390*
1,1,0.012210,-0.013390,-0.013390*
1,1,0.012210,-0.013390,0.013390*
1,1,0.012210,0.013390,0.013390*
%
%AMM41*
21,1,0.021260,0.016540,0.000000,0.000000,270.000000*
21,1,0.012600,0.025200,0.000000,0.000000,270.000000*
1,1,0.008660,-0.008270,-0.006300*
1,1,0.008660,-0.008270,0.006300*
1,1,0.008660,0.008270,0.006300*
1,1,0.008660,0.008270,-0.006300*
%
%AMM42*
21,1,0.029130,0.018900,0.000000,0.000000,90.000000*
21,1,0.018900,0.029130,0.000000,0.000000,90.000000*
1,1,0.010240,0.009450,0.009450*
1,1,0.010240,0.009450,-0.009450*
1,1,0.010240,-0.009450,-0.009450*
1,1,0.010240,-0.009450,0.009450*
%
%AMM43*
21,1,0.025200,0.019680,0.000000,0.000000,0.000000*
21,1,0.015750,0.029130,0.000000,0.000000,0.000000*
1,1,0.009450,0.007870,-0.009840*
1,1,0.009450,-0.007870,-0.009840*
1,1,0.009450,-0.007870,0.009840*
1,1,0.009450,0.007870,0.009840*
%
%AMM44*
21,1,0.025200,0.019680,0.000000,0.000000,270.000000*
21,1,0.015750,0.029130,0.000000,0.000000,270.000000*
1,1,0.009450,-0.009840,-0.007870*
1,1,0.009450,-0.009840,0.007870*
1,1,0.009450,0.009840,0.007870*
1,1,0.009450,0.009840,-0.007870*
%
%ADD10R,0.05750X0.02100*%
%ADD101M33*%
%ADD102M34*%
%ADD103M35*%
%ADD104M36*%
%ADD105M37*%
%ADD106M38*%
%ADD107M39*%
%ADD108M40*%
%ADD109M41*%
%ADD11C,0.02362*%
%ADD110M42*%
%ADD111M43*%
%ADD112M44*%
%ADD113C,0.02913*%
%ADD164O,0.01260X0.05512*%
%ADD165O,0.05512X0.01260*%
%ADD172C,0.03494*%
%ADD176C,0.03543*%
%ADD180O,0.01575X0.04724*%
%ADD181O,0.04724X0.01575*%
%ADD185R,0.01870X0.01772*%
%ADD186R,0.01772X0.01870*%
%ADD189C,0.04294*%
%ADD190C,0.04724*%
%ADD226R,0.05512X0.01181*%
%ADD24C,0.07874*%
%ADD241O,0.11772X0.04567*%
%ADD27C,0.05906*%
%ADD282M156*%
%ADD283M157*%
%ADD284M158*%
%ADD285M159*%
%ADD286M160*%
%ADD321O,0.02756X0.09055*%
%ADD37C,0.06299*%
%ADD38R,0.02800X0.05100*%
%ADD39R,0.05100X0.02800*%
%ADD40R,0.03500X0.03500*%
%ADD424M289*%
%ADD425M290*%
%ADD426M291*%
%ADD427M292*%
%ADD428M293*%
%ADD429M294*%
%ADD430M295*%
%ADD431M296*%
%ADD432M297*%
%ADD433M298*%
%ADD434M299*%
%ADD435M300*%
%ADD436M301*%
%ADD437M302*%
%ADD438M303*%
%ADD439M304*%
%ADD48C,0.02559*%
%ADD71M13*%
%ADD75C,0.06457*%
%ADD76R,0.06457X0.06457*%
X0000000Y0000000D02*
%LPD*%
G01*
G36*
G01*
X0367087Y0043366D02*
X0367087Y0041909D01*
G75*
G02*
X0366555Y0041378I-000531J0000000D01*
G01*
X0365492Y0041378D01*
G75*
G02*
X0364961Y0041909I0000000J0000531D01*
G01*
X0364961Y0043366D01*
G75*
G02*
X0365492Y0043898I0000531J0000000D01*
G01*
X0366555Y0043898D01*
G75*
G02*
X0367087Y0043366I0000000J-000531D01*
G01*
G37*
G36*
G01*
X0363071Y0043366D02*
X0363071Y0041909D01*
G75*
G02*
X0362539Y0041378I-000531J0000000D01*
G01*
X0361476Y0041378D01*
G75*
G02*
X0360945Y0041909I0000000J0000531D01*
G01*
X0360945Y0043366D01*
G75*
G02*
X0361476Y0043898I0000531J0000000D01*
G01*
X0362539Y0043898D01*
G75*
G02*
X0363071Y0043366I0000000J-000531D01*
G01*
G37*
D10*
X0123725Y0107500D03*
X0123725Y0112500D03*
X0123725Y0117500D03*
X0123725Y0122500D03*
X0102275Y0122500D03*
X0102275Y0117500D03*
X0102275Y0112500D03*
X0102275Y0107500D03*
G36*
G01*
X0367079Y0055366D02*
X0367079Y0053909D01*
G75*
G02*
X0366547Y0053378I-000531J0000000D01*
G01*
X0365484Y0053378D01*
G75*
G02*
X0364953Y0053909I0000000J0000531D01*
G01*
X0364953Y0055366D01*
G75*
G02*
X0365484Y0055898I0000531J0000000D01*
G01*
X0366547Y0055898D01*
G75*
G02*
X0367079Y0055366I0000000J-000531D01*
G01*
G37*
G36*
G01*
X0363063Y0055366D02*
X0363063Y0053909D01*
G75*
G02*
X0362531Y0053378I-000531J0000000D01*
G01*
X0361469Y0053378D01*
G75*
G02*
X0360937Y0053909I0000000J0000531D01*
G01*
X0360937Y0055366D01*
G75*
G02*
X0361469Y0055898I0000531J0000000D01*
G01*
X0362531Y0055898D01*
G75*
G02*
X0363063Y0055366I0000000J-000531D01*
G01*
G37*
D24*
X0386614Y0161417D03*
D11*
X0169488Y0190551D03*
X0169488Y0186811D03*
X0169488Y0183071D03*
X0135236Y0187008D03*
X0135236Y0190551D03*
D24*
X0386614Y0188315D03*
D27*
X0178248Y0335138D03*
X0178248Y0309941D03*
X0178248Y0302461D03*
X0178248Y0285531D03*
D11*
X0180020Y0276083D03*
X0180020Y0272146D03*
D27*
X0178248Y0260925D03*
X0117224Y0336909D03*
X0117224Y0329626D03*
X0117224Y0310138D03*
X0117224Y0262697D03*
D24*
X0050811Y0332937D03*
X0050811Y0310102D03*
X0059984Y0321520D03*
X0082819Y0332937D03*
X0082819Y0310102D03*
D37*
X0082819Y0099000D03*
X0082819Y0109000D03*
X0082819Y0119000D03*
X0082819Y0129000D03*
X0082819Y0139000D03*
X0082819Y0149000D03*
X0082819Y0159000D03*
X0082819Y0169000D03*
X0082819Y0179000D03*
X0082819Y0189000D03*
X0082819Y0199000D03*
X0082819Y0209000D03*
X0082819Y0219000D03*
X0082819Y0229000D03*
X0082819Y0239000D03*
X0082819Y0249000D03*
X0082819Y0259000D03*
X0082819Y0269000D03*
X0082819Y0279000D03*
X0072819Y0099000D03*
X0072819Y0109000D03*
X0072819Y0119000D03*
X0072819Y0129000D03*
X0072819Y0139000D03*
X0072819Y0149000D03*
X0072819Y0159000D03*
X0072819Y0169000D03*
X0072819Y0179000D03*
X0072819Y0189000D03*
X0072819Y0199000D03*
X0072819Y0209000D03*
X0072819Y0219000D03*
X0072819Y0229000D03*
X0072819Y0239000D03*
X0072819Y0249000D03*
X0072819Y0259000D03*
X0072819Y0269000D03*
X0072819Y0279000D03*
X0049000Y0099000D03*
X0049000Y0109000D03*
X0049000Y0119000D03*
X0049000Y0129000D03*
X0049000Y0139000D03*
X0049000Y0149000D03*
X0049000Y0159000D03*
X0049000Y0169000D03*
X0049000Y0179000D03*
X0049000Y0189000D03*
X0049000Y0199000D03*
X0049000Y0209000D03*
X0049000Y0219000D03*
X0049000Y0229000D03*
X0049000Y0239000D03*
X0049000Y0249000D03*
X0049000Y0259000D03*
X0049000Y0269000D03*
X0049000Y0279000D03*
X0039000Y0099000D03*
X0039000Y0109000D03*
X0039000Y0119000D03*
X0039000Y0129000D03*
X0039000Y0139000D03*
X0039000Y0149000D03*
X0039000Y0159000D03*
X0039000Y0169000D03*
X0039000Y0179000D03*
X0039000Y0189000D03*
X0039000Y0199000D03*
X0039000Y0209000D03*
X0039000Y0219000D03*
X0039000Y0229000D03*
X0039000Y0239000D03*
X0039000Y0249000D03*
X0039000Y0259000D03*
X0039000Y0269000D03*
X0039000Y0279000D03*
D38*
X0374090Y0375441D03*
X0370153Y0375441D03*
X0366216Y0375441D03*
X0362279Y0375441D03*
X0358342Y0375441D03*
X0354405Y0375441D03*
X0350468Y0375441D03*
X0346530Y0375441D03*
X0342593Y0375441D03*
X0338656Y0375441D03*
X0334719Y0375441D03*
X0330782Y0375441D03*
X0326845Y0375441D03*
D39*
X0320349Y0369930D03*
X0320349Y0365993D03*
X0320349Y0362056D03*
X0320349Y0358119D03*
X0320349Y0354182D03*
X0320349Y0350245D03*
X0320349Y0346308D03*
X0320349Y0342371D03*
X0320349Y0338434D03*
X0320349Y0334497D03*
X0320349Y0330560D03*
X0320349Y0326623D03*
X0320349Y0322686D03*
D38*
X0326845Y0317174D03*
X0330782Y0317174D03*
X0334719Y0317174D03*
X0338656Y0317174D03*
X0342593Y0317174D03*
X0346530Y0317174D03*
X0350468Y0317174D03*
X0354405Y0317174D03*
X0358342Y0317174D03*
X0362279Y0317174D03*
X0366216Y0317174D03*
X0370153Y0317174D03*
X0374090Y0317174D03*
D40*
X0351255Y0353709D03*
X0351255Y0348985D03*
X0351255Y0344260D03*
X0346530Y0353709D03*
X0346530Y0348985D03*
X0346530Y0344260D03*
X0341806Y0353709D03*
X0341806Y0348985D03*
X0341806Y0344260D03*
D24*
X0386614Y0201969D03*
X0386614Y0174803D03*
D10*
X0123725Y0083500D03*
X0123725Y0088500D03*
X0123725Y0093500D03*
X0123725Y0098500D03*
X0102275Y0098500D03*
X0102275Y0093500D03*
X0102275Y0088500D03*
X0102275Y0083500D03*
D48*
X0376752Y0036260D03*
X0376752Y0059016D03*
G36*
G01*
X0374193Y0033858D02*
X0370846Y0033858D01*
G75*
G02*
X0370256Y0034449I0000000J0000591D01*
G01*
X0370256Y0035630D01*
G75*
G02*
X0370846Y0036220I0000591J0000000D01*
G01*
X0374193Y0036220D01*
G75*
G02*
X0374783Y0035630I0000000J-000591D01*
G01*
X0374783Y0034449D01*
G75*
G02*
X0374193Y0033858I-000591J0000000D01*
G01*
G37*
G36*
G01*
X0374193Y0037008D02*
X0370846Y0037008D01*
G75*
G02*
X0370256Y0037598I0000000J0000591D01*
G01*
X0370256Y0038780D01*
G75*
G02*
X0370846Y0039370I0000591J0000000D01*
G01*
X0374193Y0039370D01*
G75*
G02*
X0374783Y0038780I0000000J-000591D01*
G01*
X0374783Y0037598D01*
G75*
G02*
X0374193Y0037008I-000591J0000000D01*
G01*
G37*
G36*
G01*
X0374488Y0042126D02*
X0370551Y0042126D01*
G75*
G02*
X0370256Y0042421I0000000J0000295D01*
G01*
X0370256Y0043012D01*
G75*
G02*
X0370551Y0043307I0000295J0000000D01*
G01*
X0374488Y0043307D01*
G75*
G02*
X0374783Y0043012I0000000J-000295D01*
G01*
X0374783Y0042421D01*
G75*
G02*
X0374488Y0042126I-000295J0000000D01*
G01*
G37*
G36*
G01*
X0374488Y0046063D02*
X0370551Y0046063D01*
G75*
G02*
X0370256Y0046358I0000000J0000295D01*
G01*
X0370256Y0046949D01*
G75*
G02*
X0370551Y0047244I0000295J0000000D01*
G01*
X0374488Y0047244D01*
G75*
G02*
X0374783Y0046949I0000000J-000295D01*
G01*
X0374783Y0046358D01*
G75*
G02*
X0374488Y0046063I-000295J0000000D01*
G01*
G37*
G36*
G01*
X0374488Y0048031D02*
X0370551Y0048031D01*
G75*
G02*
X0370256Y0048327I0000000J0000295D01*
G01*
X0370256Y0048917D01*
G75*
G02*
X0370551Y0049213I0000295J0000000D01*
G01*
X0374488Y0049213D01*
G75*
G02*
X0374783Y0048917I0000000J-000295D01*
G01*
X0374783Y0048327D01*
G75*
G02*
X0374488Y0048031I-000295J0000000D01*
G01*
G37*
G36*
G01*
X0374488Y0051969D02*
X0370551Y0051969D01*
G75*
G02*
X0370256Y0052264I0000000J0000295D01*
G01*
X0370256Y0052854D01*
G75*
G02*
X0370551Y0053150I0000295J0000000D01*
G01*
X0374488Y0053150D01*
G75*
G02*
X0374783Y0052854I0000000J-000295D01*
G01*
X0374783Y0052264D01*
G75*
G02*
X0374488Y0051969I-000295J0000000D01*
G01*
G37*
G36*
G01*
X0374193Y0055906D02*
X0370846Y0055906D01*
G75*
G02*
X0370256Y0056496I0000000J0000591D01*
G01*
X0370256Y0057677D01*
G75*
G02*
X0370846Y0058268I0000591J0000000D01*
G01*
X0374193Y0058268D01*
G75*
G02*
X0374783Y0057677I0000000J-000591D01*
G01*
X0374783Y0056496D01*
G75*
G02*
X0374193Y0055906I-000591J0000000D01*
G01*
G37*
G36*
G01*
X0374193Y0059055D02*
X0370846Y0059055D01*
G75*
G02*
X0370256Y0059646I0000000J0000591D01*
G01*
X0370256Y0060827D01*
G75*
G02*
X0370846Y0061417I0000591J0000000D01*
G01*
X0374193Y0061417D01*
G75*
G02*
X0374783Y0060827I0000000J-000591D01*
G01*
X0374783Y0059646D01*
G75*
G02*
X0374193Y0059055I-000591J0000000D01*
G01*
G37*
G36*
G01*
X0374193Y0059055D02*
X0370846Y0059055D01*
G75*
G02*
X0370256Y0059646I0000000J0000591D01*
G01*
X0370256Y0060827D01*
G75*
G02*
X0370846Y0061417I0000591J0000000D01*
G01*
X0374193Y0061417D01*
G75*
G02*
X0374783Y0060827I0000000J-000591D01*
G01*
X0374783Y0059646D01*
G75*
G02*
X0374193Y0059055I-000591J0000000D01*
G01*
G37*
G36*
G01*
X0374193Y0055906D02*
X0370846Y0055906D01*
G75*
G02*
X0370256Y0056496I0000000J0000591D01*
G01*
X0370256Y0057677D01*
G75*
G02*
X0370846Y0058268I0000591J0000000D01*
G01*
X0374193Y0058268D01*
G75*
G02*
X0374783Y0057677I0000000J-000591D01*
G01*
X0374783Y0056496D01*
G75*
G02*
X0374193Y0055906I-000591J0000000D01*
G01*
G37*
G36*
G01*
X0374488Y0053937D02*
X0370551Y0053937D01*
G75*
G02*
X0370256Y0054232I0000000J0000295D01*
G01*
X0370256Y0054823D01*
G75*
G02*
X0370551Y0055118I0000295J0000000D01*
G01*
X0374488Y0055118D01*
G75*
G02*
X0374783Y0054823I0000000J-000295D01*
G01*
X0374783Y0054232D01*
G75*
G02*
X0374488Y0053937I-000295J0000000D01*
G01*
G37*
G36*
G01*
X0374488Y0050000D02*
X0370551Y0050000D01*
G75*
G02*
X0370256Y0050295I0000000J0000295D01*
G01*
X0370256Y0050886D01*
G75*
G02*
X0370551Y0051181I0000295J0000000D01*
G01*
X0374488Y0051181D01*
G75*
G02*
X0374783Y0050886I0000000J-000295D01*
G01*
X0374783Y0050295D01*
G75*
G02*
X0374488Y0050000I-000295J0000000D01*
G01*
G37*
G36*
G01*
X0374488Y0044094D02*
X0370551Y0044094D01*
G75*
G02*
X0370256Y0044390I0000000J0000295D01*
G01*
X0370256Y0044980D01*
G75*
G02*
X0370551Y0045276I0000295J0000000D01*
G01*
X0374488Y0045276D01*
G75*
G02*
X0374783Y0044980I0000000J-000295D01*
G01*
X0374783Y0044390D01*
G75*
G02*
X0374488Y0044094I-000295J0000000D01*
G01*
G37*
G36*
G01*
X0374488Y0040157D02*
X0370551Y0040157D01*
G75*
G02*
X0370256Y0040453I0000000J0000295D01*
G01*
X0370256Y0041043D01*
G75*
G02*
X0370551Y0041339I0000295J0000000D01*
G01*
X0374488Y0041339D01*
G75*
G02*
X0374783Y0041043I0000000J-000295D01*
G01*
X0374783Y0040453D01*
G75*
G02*
X0374488Y0040157I-000295J0000000D01*
G01*
G37*
G36*
G01*
X0374193Y0037008D02*
X0370846Y0037008D01*
G75*
G02*
X0370256Y0037598I0000000J0000591D01*
G01*
X0370256Y0038780D01*
G75*
G02*
X0370846Y0039370I0000591J0000000D01*
G01*
X0374193Y0039370D01*
G75*
G02*
X0374783Y0038780I0000000J-000591D01*
G01*
X0374783Y0037598D01*
G75*
G02*
X0374193Y0037008I-000591J0000000D01*
G01*
G37*
G36*
G01*
X0374193Y0033858D02*
X0370846Y0033858D01*
G75*
G02*
X0370256Y0034449I0000000J0000591D01*
G01*
X0370256Y0035630D01*
G75*
G02*
X0370846Y0036220I0000591J0000000D01*
G01*
X0374193Y0036220D01*
G75*
G02*
X0374783Y0035630I0000000J-000591D01*
G01*
X0374783Y0034449D01*
G75*
G02*
X0374193Y0033858I-000591J0000000D01*
G01*
G37*
G36*
G01*
X0377736Y0023228D02*
X0371831Y0023228D01*
G75*
G02*
X0370846Y0024213I0000000J0000984D01*
G01*
X0370846Y0030827D01*
G75*
G02*
X0371831Y0031811I0000984J0000000D01*
G01*
X0377736Y0031811D01*
G75*
G02*
X0378720Y0030827I0000000J-000984D01*
G01*
X0378720Y0024213D01*
G75*
G02*
X0377736Y0023228I-000984J0000000D01*
G01*
G37*
G36*
G01*
X0393209Y0023228D02*
X0387303Y0023228D01*
G75*
G02*
X0386319Y0024213I0000000J0000984D01*
G01*
X0386319Y0030827D01*
G75*
G02*
X0387303Y0031811I0000984J0000000D01*
G01*
X0393209Y0031811D01*
G75*
G02*
X0394193Y0030827I0000000J-000984D01*
G01*
X0394193Y0024213D01*
G75*
G02*
X0393209Y0023228I-000984J0000000D01*
G01*
G37*
G36*
G01*
X0377736Y0063465D02*
X0371831Y0063465D01*
G75*
G02*
X0370846Y0064449I0000000J0000984D01*
G01*
X0370846Y0071063D01*
G75*
G02*
X0371831Y0072047I0000984J0000000D01*
G01*
X0377736Y0072047D01*
G75*
G02*
X0378720Y0071063I0000000J-000984D01*
G01*
X0378720Y0064449D01*
G75*
G02*
X0377736Y0063465I-000984J0000000D01*
G01*
G37*
G36*
G01*
X0393209Y0063465D02*
X0387303Y0063465D01*
G75*
G02*
X0386319Y0064449I0000000J0000984D01*
G01*
X0386319Y0071063D01*
G75*
G02*
X0387303Y0072047I0000984J0000000D01*
G01*
X0393209Y0072047D01*
G75*
G02*
X0394193Y0071063I0000000J-000984D01*
G01*
X0394193Y0064449D01*
G75*
G02*
X0393209Y0063465I-000984J0000000D01*
G01*
G37*
D11*
X0171752Y0165846D03*
X0171752Y0161122D03*
X0171752Y0170571D03*
X0171752Y0175295D03*
X0114961Y0149862D03*
X0114961Y0145925D03*
X0357185Y0149705D02*
G01*
G75*
D241*
X0367815Y0102048D02*
D03*
X0391240Y0102048D02*
D03*
X0367815Y0112048D02*
D03*
X0391240Y0112048D02*
D03*
X0367815Y0122048D02*
D03*
X0391240Y0122048D02*
D03*
X0367815Y0132048D02*
D03*
X0391240Y0132048D02*
D03*
X0367815Y0142048D02*
D03*
X0391240Y0142048D02*
D03*
D282*
X0380905Y0091989D02*
D03*
X0380905Y0085768D02*
D03*
X0368898Y0089430D02*
D03*
X0368898Y0083209D02*
D03*
D283*
X0374902Y0081792D02*
D03*
X0374902Y0094784D02*
D03*
D284*
X0364272Y0083268D02*
D03*
X0364272Y0089567D02*
D03*
D285*
X0394764Y0089272D02*
D03*
X0385512Y0093012D02*
D03*
D285*
X0385512Y0085532D02*
D03*
D286*
X0363721Y0093898D02*
D03*
X0369941Y0093898D02*
D03*
D75*
X0384528Y0102048D02*
D03*
X0374528Y0102048D02*
D03*
X0384528Y0112048D02*
D03*
X0374528Y0112048D02*
D03*
X0384528Y0122048D02*
D03*
X0374528Y0122048D02*
D03*
X0384528Y0132048D02*
D03*
X0374528Y0132048D02*
D03*
X0384528Y0142048D02*
D03*
D76*
X0374528Y0142048D02*
D03*
X0114272Y0257972D02*
G01*
G75*
D101*
X0159351Y0282339D02*
D03*
X0159351Y0264622D02*
D03*
D102*
X0156024Y0306791D02*
D03*
X0128662Y0306791D02*
D03*
D103*
X0144784Y0283563D02*
D03*
X0128642Y0283563D02*
D03*
D104*
X0146555Y0265452D02*
D03*
X0130807Y0265452D02*
D03*
D105*
X0123616Y0327230D02*
D03*
X0132868Y0323490D02*
D03*
D105*
X0132868Y0330970D02*
D03*
D106*
X0155703Y0336909D02*
D03*
D106*
X0155703Y0333169D02*
D03*
X0155703Y0329429D02*
D03*
X0164167Y0329429D02*
D03*
X0164167Y0336909D02*
D03*
D71*
X0168019Y0322908D02*
D03*
X0155027Y0322908D02*
D03*
D107*
X0149733Y0323196D02*
D03*
X0138315Y0323196D02*
D03*
D108*
X0168918Y0290649D02*
D03*
X0162697Y0290649D02*
D03*
X0158327Y0290649D02*
D03*
X0152107Y0290649D02*
D03*
D109*
X0118241Y0267760D02*
D03*
X0118241Y0271894D02*
D03*
X0168796Y0309634D02*
D03*
X0168796Y0313768D02*
D03*
X0168796Y0304921D02*
D03*
X0168796Y0300787D02*
D03*
X0169688Y0285272D02*
D03*
X0169688Y0281138D02*
D03*
D110*
X0150585Y0329479D02*
D03*
X0150585Y0333416D02*
D03*
X0136910Y0330381D02*
D03*
X0145571Y0330381D02*
D03*
X0136910Y0336778D02*
D03*
X0145571Y0336778D02*
D03*
D111*
X0128537Y0336909D02*
D03*
X0132081Y0336909D02*
D03*
D112*
X0164538Y0313571D02*
D03*
X0164538Y0310027D02*
D03*
X0164538Y0304527D02*
D03*
X0164538Y0300984D02*
D03*
X0169688Y0272971D02*
D03*
X0169688Y0276515D02*
D03*
D113*
X0180020Y0276082D02*
D03*
X0180020Y0272145D02*
D03*
D75*
X0117225Y0329625D02*
D03*
X0117225Y0262696D02*
D03*
X0117225Y0310137D02*
D03*
X0178248Y0309940D02*
D03*
X0178248Y0335137D02*
D03*
X0178248Y0285531D02*
D03*
X0178248Y0302460D02*
D03*
X0178248Y0260925D02*
D03*
X0117225Y0336909D02*
D03*
X0181791Y0240650D02*
G01*
G75*
D165*
X0332874Y0172245D02*
D03*
X0332874Y0170276D02*
D03*
X0332874Y0168308D02*
D03*
X0332874Y0166339D02*
D03*
X0332874Y0164371D02*
D03*
X0332874Y0162402D02*
D03*
X0332874Y0160434D02*
D03*
X0332874Y0158465D02*
D03*
X0332874Y0156497D02*
D03*
X0332874Y0154528D02*
D03*
X0332874Y0152560D02*
D03*
X0332874Y0150591D02*
D03*
X0332874Y0148622D02*
D03*
X0332874Y0146654D02*
D03*
X0332874Y0144685D02*
D03*
X0332874Y0142717D02*
D03*
X0332874Y0140748D02*
D03*
X0332874Y0138780D02*
D03*
X0332874Y0136811D02*
D03*
X0332874Y0134843D02*
D03*
X0332874Y0132874D02*
D03*
X0332874Y0130906D02*
D03*
X0332874Y0128937D02*
D03*
X0332874Y0126969D02*
D03*
X0332874Y0125000D02*
D03*
X0332874Y0123032D02*
D03*
X0332874Y0121063D02*
D03*
X0332874Y0119095D02*
D03*
X0332874Y0117126D02*
D03*
X0332874Y0115158D02*
D03*
X0332874Y0113189D02*
D03*
X0332874Y0111221D02*
D03*
X0332874Y0109252D02*
D03*
X0332874Y0107284D02*
D03*
X0332874Y0105315D02*
D03*
X0332874Y0103347D02*
D03*
X0249212Y0103347D02*
D03*
X0249212Y0105315D02*
D03*
X0249212Y0107284D02*
D03*
X0249212Y0109252D02*
D03*
X0249212Y0111221D02*
D03*
X0249212Y0113189D02*
D03*
X0249212Y0115158D02*
D03*
X0249212Y0117126D02*
D03*
X0249212Y0119095D02*
D03*
X0249212Y0121063D02*
D03*
X0249212Y0123032D02*
D03*
X0249212Y0125000D02*
D03*
X0249212Y0126969D02*
D03*
X0249212Y0128937D02*
D03*
X0249212Y0130906D02*
D03*
X0249212Y0132874D02*
D03*
X0249212Y0134843D02*
D03*
X0249212Y0136811D02*
D03*
X0249212Y0138780D02*
D03*
X0249212Y0140748D02*
D03*
X0249212Y0142717D02*
D03*
X0249212Y0144685D02*
D03*
X0249212Y0146654D02*
D03*
X0249212Y0148622D02*
D03*
X0249212Y0150591D02*
D03*
X0249212Y0152560D02*
D03*
X0249212Y0154528D02*
D03*
X0249212Y0156497D02*
D03*
X0249212Y0158465D02*
D03*
X0249212Y0160434D02*
D03*
X0249212Y0162402D02*
D03*
X0249212Y0164371D02*
D03*
X0249212Y0166339D02*
D03*
X0249212Y0168308D02*
D03*
X0249212Y0170276D02*
D03*
X0249212Y0172245D02*
D03*
D164*
X0325492Y0095965D02*
D03*
X0323523Y0095965D02*
D03*
X0321555Y0095965D02*
D03*
X0319586Y0095965D02*
D03*
X0317618Y0095965D02*
D03*
X0315649Y0095965D02*
D03*
X0313681Y0095965D02*
D03*
X0311712Y0095965D02*
D03*
X0309744Y0095965D02*
D03*
X0307775Y0095965D02*
D03*
X0305807Y0095965D02*
D03*
X0303838Y0095965D02*
D03*
X0301870Y0095965D02*
D03*
X0299901Y0095965D02*
D03*
X0297933Y0095965D02*
D03*
X0295964Y0095965D02*
D03*
X0293996Y0095965D02*
D03*
X0292027Y0095965D02*
D03*
X0290059Y0095965D02*
D03*
X0288090Y0095965D02*
D03*
X0286122Y0095965D02*
D03*
X0284153Y0095965D02*
D03*
X0282185Y0095965D02*
D03*
X0280216Y0095965D02*
D03*
X0278248Y0095965D02*
D03*
X0276279Y0095965D02*
D03*
X0274311Y0095965D02*
D03*
X0272342Y0095965D02*
D03*
X0270374Y0095965D02*
D03*
X0268405Y0095965D02*
D03*
X0266437Y0095965D02*
D03*
X0264468Y0095965D02*
D03*
X0262500Y0095965D02*
D03*
X0260531Y0095965D02*
D03*
X0258563Y0095965D02*
D03*
X0256594Y0095965D02*
D03*
X0256594Y0179626D02*
D03*
X0258563Y0179626D02*
D03*
X0260531Y0179626D02*
D03*
X0262500Y0179626D02*
D03*
X0264468Y0179626D02*
D03*
X0266437Y0179626D02*
D03*
X0268405Y0179626D02*
D03*
X0270374Y0179626D02*
D03*
X0272342Y0179626D02*
D03*
X0274311Y0179626D02*
D03*
X0276279Y0179626D02*
D03*
X0278248Y0179626D02*
D03*
X0280216Y0179626D02*
D03*
X0282185Y0179626D02*
D03*
X0284153Y0179626D02*
D03*
X0286122Y0179626D02*
D03*
X0288090Y0179626D02*
D03*
X0290059Y0179626D02*
D03*
X0292027Y0179626D02*
D03*
X0293996Y0179626D02*
D03*
X0295964Y0179626D02*
D03*
X0297933Y0179626D02*
D03*
X0299901Y0179626D02*
D03*
X0301870Y0179626D02*
D03*
X0303838Y0179626D02*
D03*
X0305807Y0179626D02*
D03*
X0307775Y0179626D02*
D03*
X0309744Y0179626D02*
D03*
X0311712Y0179626D02*
D03*
X0313681Y0179626D02*
D03*
X0315649Y0179626D02*
D03*
X0317618Y0179626D02*
D03*
X0319586Y0179626D02*
D03*
X0321555Y0179626D02*
D03*
X0323523Y0179626D02*
D03*
X0325492Y0179626D02*
D03*
D424*
X0309303Y0079620D02*
D03*
X0313043Y0088872D02*
D03*
D424*
X0316783Y0079620D02*
D03*
D425*
X0306988Y0233170D02*
D03*
X0306988Y0215059D02*
D03*
D426*
X0306988Y0224115D02*
D03*
D427*
X0331397Y0224115D02*
D03*
D428*
X0282972Y0202855D02*
D03*
X0282972Y0196162D02*
D03*
X0290059Y0196162D02*
D03*
X0290059Y0202855D02*
D03*
X0297145Y0202855D02*
D03*
X0297145Y0196162D02*
D03*
X0304232Y0196162D02*
D03*
X0304232Y0202855D02*
D03*
X0275492Y0212697D02*
D03*
X0275492Y0219390D02*
D03*
X0275492Y0196162D02*
D03*
X0275492Y0202855D02*
D03*
X0268405Y0212697D02*
D03*
X0268405Y0219390D02*
D03*
X0268405Y0196162D02*
D03*
X0268405Y0202855D02*
D03*
X0261319Y0212697D02*
D03*
X0261319Y0219390D02*
D03*
X0261319Y0196162D02*
D03*
X0261319Y0202855D02*
D03*
X0254232Y0219390D02*
D03*
X0254232Y0212697D02*
D03*
X0254232Y0196162D02*
D03*
X0254232Y0202855D02*
D03*
D429*
X0333930Y0080219D02*
D03*
X0333930Y0083959D02*
D03*
X0333930Y0087700D02*
D03*
X0324481Y0087700D02*
D03*
X0324481Y0083959D02*
D03*
X0324481Y0080219D02*
D03*
D172*
X0334232Y0189902D02*
D03*
X0329232Y0189902D02*
D03*
X0334232Y0194902D02*
D03*
X0329232Y0194902D02*
D03*
X0334232Y0199902D02*
D03*
X0329232Y0199902D02*
D03*
D430*
X0189271Y0235926D02*
D03*
X0193208Y0235926D02*
D03*
X0202263Y0089469D02*
D03*
X0198326Y0089469D02*
D03*
X0190846Y0193012D02*
D03*
X0186909Y0193012D02*
D03*
X0190846Y0178839D02*
D03*
X0186909Y0178839D02*
D03*
X0194783Y0159941D02*
D03*
X0190846Y0159941D02*
D03*
X0186909Y0159941D02*
D03*
X0190846Y0159941D02*
D03*
X0190846Y0150492D02*
D03*
X0194783Y0150492D02*
D03*
X0190846Y0150492D02*
D03*
X0186909Y0150492D02*
D03*
X0194783Y0126870D02*
D03*
X0190846Y0126870D02*
D03*
X0190846Y0103248D02*
D03*
X0194783Y0103248D02*
D03*
X0190846Y0103248D02*
D03*
X0186909Y0103248D02*
D03*
X0304626Y0186614D02*
D03*
X0308563Y0186614D02*
D03*
X0194389Y0098524D02*
D03*
X0198326Y0098524D02*
D03*
X0209941Y0235926D02*
D03*
X0206004Y0235926D02*
D03*
X0245964Y0224508D02*
D03*
X0249901Y0224508D02*
D03*
X0198326Y0080020D02*
D03*
X0202263Y0080020D02*
D03*
X0198326Y0084745D02*
D03*
X0202263Y0084745D02*
D03*
X0198326Y0094193D02*
D03*
X0202263Y0094193D02*
D03*
X0190846Y0230807D02*
D03*
X0194783Y0230807D02*
D03*
X0190846Y0226083D02*
D03*
X0194783Y0226083D02*
D03*
X0190846Y0221359D02*
D03*
X0194783Y0221359D02*
D03*
X0190846Y0216634D02*
D03*
X0194783Y0216634D02*
D03*
X0190846Y0230807D02*
D03*
X0186909Y0230807D02*
D03*
X0190846Y0226083D02*
D03*
X0186909Y0226083D02*
D03*
X0190846Y0221359D02*
D03*
X0186909Y0221359D02*
D03*
X0190846Y0216634D02*
D03*
X0186909Y0216634D02*
D03*
X0190846Y0211910D02*
D03*
X0194783Y0211910D02*
D03*
X0190846Y0207185D02*
D03*
X0194783Y0207185D02*
D03*
X0190846Y0202461D02*
D03*
X0194783Y0202461D02*
D03*
X0190846Y0197619D02*
D03*
X0194783Y0197619D02*
D03*
X0190846Y0211910D02*
D03*
X0186909Y0211910D02*
D03*
X0190846Y0207185D02*
D03*
X0186909Y0207185D02*
D03*
X0190846Y0202461D02*
D03*
X0186909Y0202461D02*
D03*
X0190846Y0197737D02*
D03*
X0186909Y0197737D02*
D03*
X0190846Y0193012D02*
D03*
X0194783Y0193012D02*
D03*
X0190846Y0188288D02*
D03*
X0194783Y0188288D02*
D03*
X0190846Y0183563D02*
D03*
X0194783Y0183563D02*
D03*
X0190846Y0178839D02*
D03*
X0194783Y0178839D02*
D03*
X0190846Y0188288D02*
D03*
X0186909Y0188288D02*
D03*
X0190846Y0183563D02*
D03*
X0186909Y0183563D02*
D03*
X0194783Y0174114D02*
D03*
X0190846Y0174114D02*
D03*
X0194783Y0169390D02*
D03*
X0190846Y0169390D02*
D03*
X0194783Y0164666D02*
D03*
X0190846Y0164666D02*
D03*
X0186909Y0174114D02*
D03*
X0190846Y0174114D02*
D03*
X0186909Y0169390D02*
D03*
X0190846Y0169390D02*
D03*
X0186909Y0164666D02*
D03*
X0190846Y0164666D02*
D03*
X0190846Y0155217D02*
D03*
X0194783Y0155217D02*
D03*
X0190846Y0145768D02*
D03*
X0194783Y0145768D02*
D03*
X0190846Y0141044D02*
D03*
X0194783Y0141044D02*
D03*
X0190846Y0155217D02*
D03*
X0186909Y0155217D02*
D03*
X0190846Y0145768D02*
D03*
X0186909Y0145768D02*
D03*
X0190846Y0141044D02*
D03*
X0186909Y0141044D02*
D03*
X0194783Y0136319D02*
D03*
X0190846Y0136319D02*
D03*
X0194783Y0131595D02*
D03*
X0190846Y0131595D02*
D03*
X0194783Y0122146D02*
D03*
X0190846Y0122146D02*
D03*
X0186909Y0136319D02*
D03*
X0190846Y0136319D02*
D03*
X0186909Y0131595D02*
D03*
X0190846Y0131595D02*
D03*
X0186909Y0126870D02*
D03*
X0190846Y0126870D02*
D03*
X0186909Y0122146D02*
D03*
X0190846Y0122146D02*
D03*
X0190846Y0117422D02*
D03*
X0194783Y0117422D02*
D03*
X0190846Y0112697D02*
D03*
X0194783Y0112697D02*
D03*
X0190846Y0107973D02*
D03*
X0194783Y0107973D02*
D03*
X0190846Y0117422D02*
D03*
X0186909Y0117422D02*
D03*
X0190846Y0112697D02*
D03*
X0186909Y0112697D02*
D03*
X0190846Y0107973D02*
D03*
X0186909Y0107973D02*
D03*
X0194783Y0094193D02*
D03*
X0190846Y0094193D02*
D03*
X0194783Y0089469D02*
D03*
X0190846Y0089469D02*
D03*
X0194783Y0084745D02*
D03*
X0190846Y0084745D02*
D03*
X0194783Y0080020D02*
D03*
X0190846Y0080020D02*
D03*
X0186909Y0094193D02*
D03*
X0190846Y0094193D02*
D03*
X0186909Y0089469D02*
D03*
X0190846Y0089469D02*
D03*
X0186909Y0084745D02*
D03*
X0190846Y0084745D02*
D03*
X0186909Y0080020D02*
D03*
X0190846Y0080020D02*
D03*
X0200885Y0235926D02*
D03*
X0196948Y0235926D02*
D03*
X0313681Y0200493D02*
D03*
X0317618Y0200493D02*
D03*
D431*
X0207578Y0181201D02*
D03*
X0203838Y0181201D02*
D03*
X0200098Y0181201D02*
D03*
X0200098Y0190650D02*
D03*
X0203838Y0190650D02*
D03*
X0207578Y0190650D02*
D03*
X0207578Y0218996D02*
D03*
X0203838Y0218996D02*
D03*
X0200098Y0218996D02*
D03*
X0200098Y0228445D02*
D03*
X0203838Y0228445D02*
D03*
X0207578Y0228445D02*
D03*
X0207578Y0200099D02*
D03*
X0203838Y0200099D02*
D03*
X0200098Y0200099D02*
D03*
X0200098Y0209548D02*
D03*
X0203838Y0209548D02*
D03*
X0207578Y0209548D02*
D03*
X0207578Y0162303D02*
D03*
X0203838Y0162303D02*
D03*
X0200098Y0162303D02*
D03*
X0200098Y0171752D02*
D03*
X0203838Y0171752D02*
D03*
X0207578Y0171752D02*
D03*
X0207578Y0143406D02*
D03*
X0203838Y0143406D02*
D03*
X0200098Y0143406D02*
D03*
X0200098Y0152855D02*
D03*
X0203838Y0152855D02*
D03*
X0207578Y0152855D02*
D03*
X0207578Y0124508D02*
D03*
X0203838Y0124508D02*
D03*
X0200098Y0124508D02*
D03*
X0200098Y0133957D02*
D03*
X0203838Y0133957D02*
D03*
X0207578Y0133957D02*
D03*
X0207578Y0105611D02*
D03*
X0203838Y0105611D02*
D03*
X0200098Y0105611D02*
D03*
X0200098Y0115059D02*
D03*
X0203838Y0115059D02*
D03*
X0207578Y0115059D02*
D03*
D432*
X0237696Y0083957D02*
D03*
X0255413Y0083957D02*
D03*
D176*
X0186909Y0098248D02*
D03*
X0184941Y0235926D02*
D03*
D433*
X0260433Y0229626D02*
D03*
X0260433Y0236713D02*
D03*
X0250393Y0236713D02*
D03*
X0250393Y0229626D02*
D03*
X0266535Y0229626D02*
D03*
X0266535Y0236713D02*
D03*
X0276575Y0236713D02*
D03*
X0276575Y0229626D02*
D03*
D434*
X0253838Y0236713D02*
D03*
X0256988Y0236713D02*
D03*
X0256988Y0229626D02*
D03*
X0253838Y0229626D02*
D03*
X0269980Y0229626D02*
D03*
X0273130Y0229626D02*
D03*
X0273130Y0236713D02*
D03*
X0269980Y0236713D02*
D03*
D435*
X0303444Y0081989D02*
D03*
X0286909Y0081989D02*
D03*
X0264075Y0081989D02*
D03*
X0280610Y0081989D02*
D03*
D181*
X0236909Y0094784D02*
D03*
X0236909Y0097343D02*
D03*
X0236909Y0099902D02*
D03*
X0236909Y0102461D02*
D03*
X0236909Y0105020D02*
D03*
X0236909Y0107579D02*
D03*
X0236909Y0110138D02*
D03*
X0214468Y0094784D02*
D03*
X0214468Y0097343D02*
D03*
X0214468Y0099902D02*
D03*
X0214468Y0102461D02*
D03*
X0214468Y0105020D02*
D03*
X0214468Y0107579D02*
D03*
X0214468Y0110138D02*
D03*
X0236909Y0163288D02*
D03*
X0236909Y0165847D02*
D03*
X0236909Y0168406D02*
D03*
X0236909Y0170965D02*
D03*
X0236909Y0173524D02*
D03*
X0236909Y0176083D02*
D03*
X0236909Y0178642D02*
D03*
X0214468Y0163288D02*
D03*
X0214468Y0165847D02*
D03*
X0214468Y0168406D02*
D03*
X0214468Y0170965D02*
D03*
X0214468Y0173524D02*
D03*
X0214468Y0176083D02*
D03*
X0214468Y0178642D02*
D03*
X0236909Y0140453D02*
D03*
X0236909Y0143012D02*
D03*
X0236909Y0145571D02*
D03*
X0236909Y0148130D02*
D03*
X0236909Y0150689D02*
D03*
X0236909Y0153248D02*
D03*
X0236909Y0155807D02*
D03*
X0214468Y0140453D02*
D03*
X0214468Y0143012D02*
D03*
X0214468Y0145571D02*
D03*
X0214468Y0148130D02*
D03*
X0214468Y0150689D02*
D03*
X0214468Y0153248D02*
D03*
X0214468Y0155807D02*
D03*
X0236909Y0117619D02*
D03*
X0236909Y0120178D02*
D03*
X0236909Y0122737D02*
D03*
X0236909Y0125296D02*
D03*
X0236909Y0127855D02*
D03*
X0236909Y0130414D02*
D03*
X0236909Y0132973D02*
D03*
X0214468Y0117619D02*
D03*
X0214468Y0120178D02*
D03*
X0214468Y0122737D02*
D03*
X0214468Y0125296D02*
D03*
X0214468Y0127855D02*
D03*
X0214468Y0130414D02*
D03*
X0214468Y0132973D02*
D03*
D180*
X0225492Y0184941D02*
D03*
X0228051Y0184941D02*
D03*
X0230610Y0184941D02*
D03*
X0233169Y0184941D02*
D03*
X0235728Y0184941D02*
D03*
X0238287Y0184941D02*
D03*
X0240846Y0184941D02*
D03*
X0225492Y0207382D02*
D03*
X0228051Y0207382D02*
D03*
X0230610Y0207382D02*
D03*
X0233169Y0207382D02*
D03*
X0235728Y0207382D02*
D03*
X0238287Y0207382D02*
D03*
X0240846Y0207382D02*
D03*
X0225492Y0212894D02*
D03*
X0228051Y0212894D02*
D03*
X0230610Y0212894D02*
D03*
X0233169Y0212894D02*
D03*
X0235728Y0212894D02*
D03*
X0238287Y0212894D02*
D03*
X0240846Y0212894D02*
D03*
X0225492Y0235335D02*
D03*
X0228051Y0235335D02*
D03*
X0230610Y0235335D02*
D03*
X0233169Y0235335D02*
D03*
X0235728Y0235335D02*
D03*
X0238287Y0235335D02*
D03*
X0240846Y0235335D02*
D03*
D436*
X0213878Y0202264D02*
D03*
X0216437Y0202264D02*
D03*
X0218996Y0202264D02*
D03*
X0213878Y0209744D02*
D03*
X0216437Y0209744D02*
D03*
X0218996Y0209744D02*
D03*
X0218996Y0222343D02*
D03*
X0216437Y0222343D02*
D03*
X0213878Y0222343D02*
D03*
X0218996Y0214863D02*
D03*
X0216437Y0214863D02*
D03*
X0213878Y0214863D02*
D03*
X0213878Y0227067D02*
D03*
X0216437Y0227067D02*
D03*
X0218996Y0227067D02*
D03*
X0213878Y0234548D02*
D03*
X0216437Y0234548D02*
D03*
X0218996Y0234548D02*
D03*
X0218996Y0197540D02*
D03*
X0216437Y0197540D02*
D03*
X0213878Y0197540D02*
D03*
X0218996Y0190059D02*
D03*
X0216437Y0190059D02*
D03*
X0213878Y0190059D02*
D03*
D321*
X0298348Y0233957D02*
D03*
X0293348Y0233957D02*
D03*
X0288348Y0233957D02*
D03*
X0283348Y0233957D02*
D03*
X0298348Y0215059D02*
D03*
X0293348Y0215059D02*
D03*
X0288348Y0215059D02*
D03*
X0283348Y0215059D02*
D03*
D437*
X0230807Y0081004D02*
D03*
X0230807Y0083563D02*
D03*
X0230807Y0086122D02*
D03*
X0223326Y0081004D02*
D03*
X0223326Y0083563D02*
D03*
X0223326Y0086122D02*
D03*
X0215452Y0081004D02*
D03*
X0215452Y0083563D02*
D03*
X0215452Y0086122D02*
D03*
X0207972Y0081004D02*
D03*
X0207972Y0083563D02*
D03*
X0207972Y0086122D02*
D03*
D186*
X0314468Y0194833D02*
D03*
X0316437Y0194833D02*
D03*
X0318405Y0194833D02*
D03*
X0318405Y0188829D02*
D03*
X0316437Y0188829D02*
D03*
X0314468Y0188829D02*
D03*
D185*
X0319439Y0192815D02*
D03*
X0319439Y0190847D02*
D03*
X0313435Y0190847D02*
D03*
X0313435Y0192815D02*
D03*
D438*
X0312500Y0205709D02*
D03*
X0319193Y0205709D02*
D03*
D439*
X0247539Y0196949D02*
D03*
X0247539Y0200886D02*
D03*
D189*
X0331732Y0184902D02*
D03*
X0327732Y0204902D02*
D03*
X0335732Y0204902D02*
D03*
D190*
X0243208Y0146555D02*
D03*
X0247539Y0099311D02*
D03*
X0242815Y0104429D02*
D03*
X0242815Y0116241D02*
D03*
X0242815Y0127658D02*
D03*
X0242815Y0163878D02*
D03*
X0243996Y0180808D02*
D03*
D27*
X0335334Y0236319D02*
D03*
X0113484Y0138681D02*
%LPD*%
G01*
D11*
X0171752Y0165846D03*
X0171752Y0161122D03*
X0171752Y0170571D03*
X0171752Y0175295D03*
X0114960Y0149862D03*
X0114960Y0145925D03*
D226*
X0147342Y0151673D03*
X0147342Y0149705D03*
X0147342Y0147736D03*
X0147342Y0145768D03*
X0147342Y0143799D03*
X0164665Y0143799D03*
X0164665Y0145768D03*
X0164665Y0147736D03*
X0164665Y0149705D03*
X0164665Y0151673D03*
G36*
G01*
X0154862Y0164862D02*
X0157933Y0164862D01*
G75*
G02*
X0158208Y0164587I0000000J-000276D01*
G01*
X0158208Y0162382D01*
G75*
G02*
X0157933Y0162106I-000276J0000000D01*
G01*
X0154862Y0162106D01*
G75*
G02*
X0154586Y0162382I0000000J0000276D01*
G01*
X0154586Y0164587D01*
G75*
G02*
X0154862Y0164862I0000276J0000000D01*
G01*
G37*
G36*
G01*
X0154862Y0158563D02*
X0157933Y0158563D01*
G75*
G02*
X0158208Y0158287I0000000J-000276D01*
G01*
X0158208Y0156083D01*
G75*
G02*
X0157933Y0155807I-000276J0000000D01*
G01*
X0154862Y0155807D01*
G75*
G02*
X0154586Y0156083I0000000J0000276D01*
G01*
X0154586Y0158287D01*
G75*
G02*
X0154862Y0158563I0000276J0000000D01*
G01*
G37*
G36*
G01*
X0169193Y0171516D02*
X0169193Y0168445D01*
G75*
G02*
X0168917Y0168169I-000276J0000000D01*
G01*
X0166712Y0168169D01*
G75*
G02*
X0166437Y0168445I0000000J0000276D01*
G01*
X0166437Y0171516D01*
G75*
G02*
X0166712Y0171791I0000276J0000000D01*
G01*
X0168917Y0171791D01*
G75*
G02*
X0169193Y0171516I0000000J-000276D01*
G01*
G37*
G36*
G01*
X0162893Y0171516D02*
X0162893Y0168445D01*
G75*
G02*
X0162618Y0168169I-000276J0000000D01*
G01*
X0160413Y0168169D01*
G75*
G02*
X0160138Y0168445I0000000J0000276D01*
G01*
X0160138Y0171516D01*
G75*
G02*
X0160413Y0171791I0000276J0000000D01*
G01*
X0162618Y0171791D01*
G75*
G02*
X0162893Y0171516I0000000J-000276D01*
G01*
G37*
G36*
G01*
X0148956Y0164862D02*
X0152027Y0164862D01*
G75*
G02*
X0152303Y0164587I0000000J-000276D01*
G01*
X0152303Y0162382D01*
G75*
G02*
X0152027Y0162106I-000276J0000000D01*
G01*
X0148956Y0162106D01*
G75*
G02*
X0148681Y0162382I0000000J0000276D01*
G01*
X0148681Y0164587D01*
G75*
G02*
X0148956Y0164862I0000276J0000000D01*
G01*
G37*
G36*
G01*
X0148956Y0158563D02*
X0152027Y0158563D01*
G75*
G02*
X0152303Y0158287I0000000J-000276D01*
G01*
X0152303Y0156083D01*
G75*
G02*
X0152027Y0155807I-000276J0000000D01*
G01*
X0148956Y0155807D01*
G75*
G02*
X0148681Y0156083I0000000J0000276D01*
G01*
X0148681Y0158287D01*
G75*
G02*
X0148956Y0158563I0000276J0000000D01*
G01*
G37*
G36*
G01*
X0138307Y0168602D02*
X0141023Y0168602D01*
G75*
G02*
X0141929Y0167697I0000000J-000906D01*
G01*
X0141929Y0162421D01*
G75*
G02*
X0141023Y0161516I-000906J0000000D01*
G01*
X0138307Y0161516D01*
G75*
G02*
X0137401Y0162421I0000000J0000906D01*
G01*
X0137401Y0167697D01*
G75*
G02*
X0138307Y0168602I0000906J0000000D01*
G01*
G37*
G36*
G01*
X0126889Y0168602D02*
X0129606Y0168602D01*
G75*
G02*
X0130512Y0167697I0000000J-000906D01*
G01*
X0130512Y0162421D01*
G75*
G02*
X0129606Y0161516I-000906J0000000D01*
G01*
X0126889Y0161516D01*
G75*
G02*
X0125984Y0162421I0000000J0000906D01*
G01*
X0125984Y0167697D01*
G75*
G02*
X0126889Y0168602I0000906J0000000D01*
G01*
G37*
G36*
G01*
X0138307Y0158760D02*
X0141023Y0158760D01*
G75*
G02*
X0141929Y0157854I0000000J-000906D01*
G01*
X0141929Y0152579D01*
G75*
G02*
X0141023Y0151673I-000906J0000000D01*
G01*
X0138307Y0151673D01*
G75*
G02*
X0137401Y0152579I0000000J0000906D01*
G01*
X0137401Y0157854D01*
G75*
G02*
X0138307Y0158760I0000906J0000000D01*
G01*
G37*
G36*
G01*
X0126889Y0158760D02*
X0129606Y0158760D01*
G75*
G02*
X0130512Y0157854I0000000J-000906D01*
G01*
X0130512Y0152579D01*
G75*
G02*
X0129606Y0151673I-000906J0000000D01*
G01*
X0126889Y0151673D01*
G75*
G02*
X0125984Y0152579I0000000J0000906D01*
G01*
X0125984Y0157854D01*
G75*
G02*
X0126889Y0158760I0000906J0000000D01*
G01*
G37*
G36*
G01*
X0116240Y0165079D02*
X0116240Y0167795D01*
G75*
G02*
X0117145Y0168701I0000906J0000000D01*
G01*
X0122421Y0168701D01*
G75*
G02*
X0123327Y0167795I0000000J-000906D01*
G01*
X0123327Y0165079D01*
G75*
G02*
X0122421Y0164173I-000906J0000000D01*
G01*
X0117145Y0164173D01*
G75*
G02*
X0116240Y0165079I0000000J0000906D01*
G01*
G37*
G36*
G01*
X0116240Y0153661D02*
X0116240Y0156378D01*
G75*
G02*
X0117145Y0157283I0000906J0000000D01*
G01*
X0122421Y0157283D01*
G75*
G02*
X0123327Y0156378I0000000J-000906D01*
G01*
X0123327Y0153661D01*
G75*
G02*
X0122421Y0152756I-000906J0000000D01*
G01*
X0117145Y0152756D01*
G75*
G02*
X0116240Y0153661I0000000J0000906D01*
G01*
G37*
G36*
G01*
X0131614Y0149311D02*
X0134330Y0149311D01*
G75*
G02*
X0135236Y0148405I0000000J-000906D01*
G01*
X0135236Y0143130D01*
G75*
G02*
X0134330Y0142224I-000906J0000000D01*
G01*
X0131614Y0142224D01*
G75*
G02*
X0130708Y0143130I0000000J0000906D01*
G01*
X0130708Y0148405D01*
G75*
G02*
X0131614Y0149311I0000906J0000000D01*
G01*
G37*
G36*
G01*
X0120197Y0149311D02*
X0122913Y0149311D01*
G75*
G02*
X0123819Y0148405I0000000J-000906D01*
G01*
X0123819Y0143130D01*
G75*
G02*
X0122913Y0142224I-000906J0000000D01*
G01*
X0120197Y0142224D01*
G75*
G02*
X0119291Y0143130I0000000J0000906D01*
G01*
X0119291Y0148405D01*
G75*
G02*
X0120197Y0149311I0000906J0000000D01*
G01*
G37*
G36*
G01*
X0157283Y0171186D02*
X0157283Y0169168D01*
G75*
G02*
X0156422Y0168307I-000861J0000000D01*
G01*
X0154700Y0168307D01*
G75*
G02*
X0153838Y0169168I0000000J0000861D01*
G01*
X0153838Y0171186D01*
G75*
G02*
X0154700Y0172047I0000861J0000000D01*
G01*
X0156422Y0172047D01*
G75*
G02*
X0157283Y0171186I0000000J-000861D01*
G01*
G37*
G36*
G01*
X0151082Y0171186D02*
X0151082Y0169168D01*
G75*
G02*
X0150221Y0168307I-000861J0000000D01*
G01*
X0148499Y0168307D01*
G75*
G02*
X0147638Y0169168I0000000J0000861D01*
G01*
X0147638Y0171186D01*
G75*
G02*
X0148499Y0172047I0000861J0000000D01*
G01*
X0150221Y0172047D01*
G75*
G02*
X0151082Y0171186I0000000J-000861D01*
G01*
G37*
G36*
G01*
X0163228Y0164224D02*
X0163228Y0161547D01*
G75*
G02*
X0162893Y0161212I-000335J0000000D01*
G01*
X0160216Y0161212D01*
G75*
G02*
X0159882Y0161547I0000000J0000335D01*
G01*
X0159882Y0164224D01*
G75*
G02*
X0160216Y0164559I0000335J0000000D01*
G01*
X0162893Y0164559D01*
G75*
G02*
X0163228Y0164224I0000000J-000335D01*
G01*
G37*
G36*
G01*
X0169449Y0164224D02*
X0169449Y0161547D01*
G75*
G02*
X0169114Y0161212I-000335J0000000D01*
G01*
X0166437Y0161212D01*
G75*
G02*
X0166102Y0161547I0000000J0000335D01*
G01*
X0166102Y0164224D01*
G75*
G02*
X0166437Y0164559I0000335J0000000D01*
G01*
X0169114Y0164559D01*
G75*
G02*
X0169449Y0164224I0000000J-000335D01*
G01*
G37*
G36*
G01*
X0169449Y0158917D02*
X0169449Y0156240D01*
G75*
G02*
X0169114Y0155905I-000335J0000000D01*
G01*
X0166437Y0155905D01*
G75*
G02*
X0166102Y0156240I0000000J0000335D01*
G01*
X0166102Y0158917D01*
G75*
G02*
X0166437Y0159252I0000335J0000000D01*
G01*
X0169114Y0159252D01*
G75*
G02*
X0169449Y0158917I0000000J-000335D01*
G01*
G37*
G36*
G01*
X0163228Y0158917D02*
X0163228Y0156240D01*
G75*
G02*
X0162893Y0155905I-000335J0000000D01*
G01*
X0160216Y0155905D01*
G75*
G02*
X0159882Y0156240I0000000J0000335D01*
G01*
X0159882Y0158917D01*
G75*
G02*
X0160216Y0159252I0000335J0000000D01*
G01*
X0162893Y0159252D01*
G75*
G02*
X0163228Y0158917I0000000J-000335D01*
G01*
G37*
G36*
G01*
X0144035Y0165118D02*
X0146712Y0165118D01*
G75*
G02*
X0147047Y0164783I0000000J-000335D01*
G01*
X0147047Y0162106D01*
G75*
G02*
X0146712Y0161772I-000335J0000000D01*
G01*
X0144035Y0161772D01*
G75*
G02*
X0143701Y0162106I0000000J0000335D01*
G01*
X0143701Y0164783D01*
G75*
G02*
X0144035Y0165118I0000335J0000000D01*
G01*
G37*
G36*
G01*
X0144035Y0158898D02*
X0146712Y0158898D01*
G75*
G02*
X0147047Y0158563I0000000J-000335D01*
G01*
X0147047Y0155886D01*
G75*
G02*
X0146712Y0155551I-000335J0000000D01*
G01*
X0144035Y0155551D01*
G75*
G02*
X0143701Y0155886I0000000J0000335D01*
G01*
X0143701Y0158563D01*
G75*
G02*
X0144035Y0158898I0000335J0000000D01*
G01*
G37*
X0134055Y0180315D02*
G01*
G75*
D106*
X0148760Y0190539D02*
D03*
X0148760Y0183059D02*
D03*
X0140295Y0183059D02*
D03*
X0140295Y0186799D02*
D03*
X0164409Y0190539D02*
D03*
X0164409Y0183059D02*
D03*
X0155945Y0183059D02*
D03*
X0155945Y0186799D02*
D03*
D106*
X0140295Y0190539D02*
D03*
X0155945Y0190539D02*
D03*
D113*
X0169488Y0190551D02*
D03*
X0169488Y0186811D02*
D03*
X0169488Y0183071D02*
D03*
X0135236Y0187008D02*
D03*
X0135236Y0190551D02*
D03*
M02*
