M48
INCH,TZ
T01C0.011800
T02C0.024600
T03C0.033450
T04C0.039200
T05C0.043300
T06C0.059100
T07C0.082700
T08C0.177200
%
T01
X12205Y14638
X12205Y14244
X14537Y12623
X14537Y12269
X14575Y19423
X14575Y19069
X17884Y17181
X17884Y16709
X17884Y16237
X17884Y15764
X17962Y12623
X17962Y12249
X17962Y11875
X18000Y19423
X18000Y19049
X18000Y18675
X19474Y17122
X19474Y16178
X19474Y14760
X19474Y13815
X19474Y9563
X19474Y8146
X19474Y6296
X19474Y4878
X19474Y20902
X19474Y19957
X19474Y19485
X19474Y19012
X19474Y18540
X19474Y18067
X19474Y17595
X19474Y16650
X19474Y15705
X19474Y15233
X19474Y14288
X19474Y13343
X19474Y12870
X19474Y12398
X19474Y11926
X19474Y11453
X19474Y10981
X19474Y10508
X19474Y10036
X19474Y9091
X19474Y8618
X19474Y7674
X19474Y7201
X19474Y6768
X19474Y5823
X19474Y5351
X20340Y4642
X20458Y21059
X20655Y4642
X20852Y21059
X23293Y4642
X23371Y21059
X23607Y4642
X23922Y4642
X24237Y4642
X24552Y4642
X24867Y4642
X25182Y4642
X25497Y4642
X25812Y4642
X26127Y4642
X26127Y21059
X26151Y24532
X26151Y24139
X26442Y4642
X26521Y21059
X26757Y4642
X26915Y21059
X27072Y4642
X27308Y21059
X27387Y4642
X27702Y4642
X27702Y21059
X28017Y4642
X28096Y21059
X28332Y4642
X28489Y21059
X28647Y4642
X28883Y21059
X28962Y4642
X29277Y4642
X29592Y4642
X29907Y4642
X30104Y21059
X30222Y4642
X30419Y21059
X30537Y4642
X30852Y4642
X31167Y4642
X31481Y4642
X31796Y4642
X32111Y4642
X32426Y4642
X32741Y4642
X33056Y4642
X33371Y4642
X33686Y4642
X34001Y4642
X35025Y21059
X35025Y18697
X35025Y18382
X35025Y18067
X35025Y14996
X35025Y14681
X35025Y14367
X35025Y14052
X35025Y13737
X35025Y11571
X35025Y11256
X35025Y10626
X35025Y10311
X35025Y9996
X35025Y9681
X35025Y8737
X35025Y8422
X35025Y8107
X35025Y7792
X35025Y7477
X35025Y7162
X35025Y6532
X35025Y6217
X35025Y5902
X35025Y5587
X35025Y4642
X35025Y10941
X35025Y9367
X35025Y9052
X35025Y6847
X35025Y5272
X35025Y4957
X36373Y12157
X36836Y11665
X36983Y10612
X36973Y9648
X36777Y8663
X36933Y7651
X37771Y7590
X38125Y7197
X38214Y8565
X39611Y7118
X39542Y11665
X20669Y22904
X20397Y23540
X20611Y23925
X19970Y24354
X19930Y24690
X20127Y25280
X20403Y25536
X20521Y26067
X20127Y26363
X19930Y25871
X19930Y27052
X19930Y28627
X20403Y28607
X21514Y28899
X22561Y28874
X22883Y28586
X23936Y28511
X25048Y28627
X25836Y28627
X25363Y27623
X24718Y27617
X24778Y26371
X25245Y26461
X25413Y25981
X25836Y26264
X25414Y25096
X26110Y24924
X26151Y24532
X26151Y24138
X25469Y24232
X25159Y23743
X25546Y23426
X25149Y22996
X24760Y23375
X24685Y24099
X24733Y24532
X23417Y23547
X23417Y22918
X22498Y22904
X21643Y22904
X21866Y23546
X22450Y24571
X22843Y26018
X22096Y26067
X22529Y26577
X23118Y27575
X24064Y29532
X24996Y29599
X25048Y30004
X25836Y29808
X25442Y29217
X22968Y30357
X23010Y30763
X22181Y30347
X21916Y29944
X20479Y30021
X20888Y29386
X20048Y29153
X19474Y20902
X19873Y20979
X20458Y21060
X20852Y21060
X21112Y20302
X21128Y19588
X21151Y19304
X20970Y18698
X20970Y18383
X21158Y17817
X21158Y17391
X20970Y16808
X20970Y16493
X21140Y15924
X21149Y15639
X20948Y14951
X20948Y14567
X21174Y14056
X21158Y13614
X20970Y13028
X20970Y12713
X21067Y12133
X21128Y11749
X20970Y11139
X20970Y10824
X21128Y10194
X21128Y9879
X20970Y9249
X20970Y8934
X21128Y8304
X21128Y7989
X20970Y7359
X21206Y7123
X22073Y6847
X21954Y6532
X21679Y6335
X21679Y5981
X22604Y5893
X22624Y6395
X22902Y6332
X23746Y6434
X23884Y6060
X24159Y5956
X23647Y5853
X24973Y6132
X25470Y6140
X25498Y6454
X25891Y6414
X26679Y6532
X26755Y7127
X26797Y7517
X26808Y7851
X26521Y7595
X26361Y7343
X27225Y7180
X27612Y7164
X27772Y7409
X28017Y7023
X28725Y7113
X29002Y7044
X29868Y7162
X30222Y7359
X30783Y7132
X31167Y7111
X30871Y6310
X30650Y5987
X30626Y5604
X32086Y6025
X32736Y6074
X32919Y5855
X33334Y6417
X33527Y7141
X33214Y7517
X33362Y7761
X34041Y7910
X33923Y8186
X34130Y6964
X34004Y6686
X34523Y6542
X34624Y6227
X34068Y5604
X34058Y9513
X34108Y9811
X33469Y9757
X33259Y9418
X32584Y8821
X32348Y9013
X32112Y9249
X31876Y10076
X31772Y10695
X32112Y10666
X31684Y10976
X31482Y11178
X30537Y11021
X30513Y10587
X30773Y9761
X30773Y9446
X30357Y9302
X30458Y8658
X31167Y8619
X31338Y8391
X30695Y8068
X29750Y8068
X29435Y9013
X29435Y9328
X28868Y9249
X27899Y9328
X27899Y8934
X28376Y8656
X28485Y7942
X27728Y8078
X27351Y8064
X27269Y9131
X26550Y9052
X26561Y8737
X26476Y9625
X25695Y9406
X25616Y9091
X25734Y8461
X25589Y8215
X25341Y7921
X24868Y8284
X24868Y8678
X24553Y9328
X24556Y9643
X24553Y9958
X24689Y10587
X24878Y10854
X25419Y10745
X25655Y10532
X25250Y10382
X25419Y11375
X25695Y11296
X25734Y12162
X25380Y12241
X24553Y12241
X24556Y11926
X24592Y11611
X24159Y11335
X23844Y11335
X23559Y11326
X23017Y11099
X23017Y10509
X23254Y10135
X23884Y10135
X23746Y10568
X23608Y9111
X23898Y9116
X23746Y8284
X23884Y7851
X23254Y7851
X23017Y8225
X23017Y8816
X22269Y9387
X22171Y9894
X22171Y10179
X22171Y11783
X22171Y12069
X22255Y12342
X23254Y12418
X23017Y12792
X23017Y13343
X23608Y13678
X23898Y13683
X24568Y13874
X24556Y14209
X24553Y14524
X23884Y14702
X23746Y15135
X23017Y15036
X23254Y14702
X22287Y14464
X22132Y13959
X22171Y13673
X22527Y15206
X22171Y15563
X22171Y15848
X22821Y15863
X23522Y15913
X24199Y15932
X24494Y15919
X24853Y15932
X25340Y15942
X25773Y15902
X25901Y16282
X25921Y16567
X25419Y16729
X24986Y16591
X24986Y17123
X25249Y17582
X25490Y17744
X25610Y18146
X25381Y18365
X25664Y18764
X26010Y18442
X26096Y17950
X26579Y17883
X26915Y17917
X27299Y17871
X27584Y17871
X28136Y17871
X28884Y17910
X29474Y17713
X29676Y17959
X30133Y17768
X30707Y17817
X31365Y18272
X31876Y18235
X32191Y18934
X31297Y18862
X30813Y19018
X30734Y19406
X30730Y19800
X31298Y20388
X31285Y20784
X30419Y21060
X30104Y21060
X29710Y21021
X28884Y21060
X28490Y21060
X28096Y21060
X27702Y21060
X27309Y21060
X26915Y21060
X26521Y21060
X26128Y21060
X25607Y20919
X25401Y20405
X25084Y19879
X25222Y19564
X24984Y19387
X24779Y18727
X24494Y18714
X24199Y18727
X23844Y18698
X23987Y19179
X23994Y19681
X23569Y19524
X23243Y19641
X23215Y19253
X22821Y19584
X22269Y19623
X22171Y19342
X22240Y18580
X22240Y18107
X22171Y17738
X22171Y17453
X22230Y17044
X22191Y16690
X22821Y17103
X23254Y17044
X23569Y16729
X23962Y16867
X23962Y16237
X23129Y16363
X23254Y18107
X22821Y18343
X23851Y17567
X24134Y17526
X24710Y17595
X25911Y17438
X26227Y17038
X27412Y16993
X28017Y17034
X28431Y17056
X29002Y17044
X29513Y17034
X30222Y17034
X31246Y16993
X31516Y17093
X31625Y16190
X31304Y16192
X32239Y16166
X32440Y15962
X32368Y15519
X31954Y15469
X31669Y15469
X30848Y15469
X30459Y15483
X30458Y16006
X30173Y16006
X30154Y15720
X29907Y15509
X29553Y15587
X29100Y15474
X29107Y14568
X29216Y14285
X29474Y14406
X29791Y14655
X28687Y14643
X27905Y14495
X27506Y14406
X27161Y14593
X26246Y14879
X26230Y15408
X26486Y15551
X25488Y15587
X25195Y15233
X24885Y15153
X25419Y14485
X25433Y14000
X25718Y14013
X26699Y13852
X26742Y13444
X26463Y13383
X26758Y13107
X26782Y12458
X26497Y12467
X26777Y12044
X26640Y11793
X27173Y11306
X27466Y12199
X27470Y12682
X27830Y12418
X28332Y12084
X28805Y11611
X28844Y12517
X30025Y12989
X29986Y13304
X29488Y13583
X29051Y14052
X27860Y13580
X28057Y15430
X27466Y15666
X27525Y15981
X27589Y16391
X29573Y16178
X31040Y14653
X31482Y14643
X32112Y14721
X32397Y14713
X32871Y14581
X33148Y14653
X33647Y14524
X34232Y14977
X34787Y14209
X34900Y13413
X34855Y13088
X34897Y12800
X34894Y12481
X34888Y12167
X34002Y12556
X34031Y13176
X34031Y13462
X34041Y13747
X33036Y13602
X32742Y13540
X32230Y13885
X31482Y13737
X30970Y13895
X30891Y12989
X30803Y12634
X30537Y12359
X31679Y12556
X31403Y13009
X32112Y11847
X32584Y12320
X33522Y12320
X33726Y11926
X34125Y11586
X34043Y10637
X32781Y11454
X29328Y11139
X29446Y10627
X29265Y10405
X29446Y10185
X29223Y10007
X28057Y10154
X27860Y10666
X28569Y10784
X25646Y12869
X25301Y13107
X24868Y13245
X24868Y12950
X23746Y12851
X23884Y12418
X19671Y12635
X19474Y12398
X19671Y12162
X19474Y11926
X19671Y11690
X19474Y11454
X19671Y11217
X19474Y10981
X19671Y10745
X19474Y10509
X19671Y10272
X19474Y10036
X19671Y9800
X19474Y9564
X19671Y9328
X19474Y9091
X19671Y8855
X19474Y8619
X19671Y8383
X19474Y8146
X19671Y7910
X19474Y7674
X19671Y7438
X19474Y7202
X19474Y6769
X19671Y6532
X19474Y6296
X19671Y6060
X19474Y5824
X19671Y5587
X20378Y5891
X20378Y6364
X22230Y7398
X22171Y8004
X22171Y8289
X24553Y7674
X24556Y7359
X24553Y7044
X24498Y6758
X27515Y5656
X31876Y7950
X32158Y7909
X32745Y15390
X33076Y15714
X33352Y15639
X33217Y15963
X33667Y16355
X33551Y16623
X33390Y16913
X33377Y17213
X33096Y17162
X32466Y16926
X32201Y16551
X34051Y16422
X33895Y17093
X33588Y17845
X33743Y18214
X33448Y18233
X33044Y18083
X33057Y18412
X33256Y18906
X33054Y19769
X32963Y20178
X33529Y20115
X33608Y20961
X33214Y20981
X34494Y20391
X34947Y20351
X34947Y19269
X34150Y18629
X34247Y17889
X34789Y16869
X34671Y15863
X32111Y19908
X31876Y20076
X30158Y19104
X28752Y19494
X28726Y18688
X28017Y18688
X27309Y18688
X26600Y18688
X26216Y19123
X26447Y19438
X25772Y19808
X24819Y20932
X24199Y20322
X23529Y20647
X23372Y21060
X22821Y20824
X22230Y21021
X22033Y20469
X21551Y20706
X22366Y20070
X23155Y20194
X20065Y20469
X19505Y20426
X19671Y20194
X19474Y19958
X19671Y19721
X19474Y19485
X19671Y19249
X19474Y19013
X19671Y18776
X19474Y18540
X19671Y18304
X19474Y18068
X19671Y17832
X19474Y17595
X19671Y17359
X19474Y17123
X19671Y16887
X19474Y16650
X19671Y16414
X19474Y16178
X19671Y15942
X19474Y15706
X19671Y15469
X19474Y15233
X19671Y14997
X19474Y14761
X19671Y14524
X19474Y14288
X19671Y14052
X19474Y13816
X19671Y13580
X19474Y13343
X19671Y13107
X19474Y12871
X29277Y20509
X29437Y5471
X30202Y5509
X30418Y5322
X30537Y4643
X30852Y4643
X31167Y4643
X31482Y4643
X31797Y4643
X32112Y4643
X32427Y4643
X32742Y4643
X33057Y4643
X33372Y4643
X33687Y4643
X34002Y4643
X34317Y4721
X34002Y5044
X33172Y4916
X31954Y4881
X31010Y4881
X31352Y5498
X30222Y4643
X29907Y4643
X29592Y4643
X29277Y4643
X28962Y4643
X28647Y4643
X28332Y4643
X28017Y4643
X27702Y4643
X27387Y4643
X27073Y4643
X26758Y4643
X26443Y4643
X26128Y4643
X25813Y4643
X25498Y4643
X25183Y4643
X24868Y4643
X24553Y4643
X24238Y4643
X23923Y4643
X23608Y4643
X23293Y4643
X23168Y5471
X22466Y5469
X22309Y5154
X22555Y5009
X21994Y5036
X21679Y4918
X21403Y4839
X21010Y4839
X20655Y4643
X20340Y4643
X20370Y4987
X20371Y5449
X19474Y5351
X19671Y5115
X19474Y4879
X19789Y4682
X23844Y5154
X23899Y5494
X26793Y4926
X28382Y5253
X28382Y5548
X35025Y5272
X35025Y4958
X35025Y4643
X35025Y5587
X35025Y5902
X35025Y6217
X35025Y6532
X35025Y6847
X35025Y7162
X35025Y7477
X35025Y7792
X35025Y8107
X35025Y8422
X35025Y8737
X35025Y9052
X35025Y9367
X35025Y9682
X35025Y9997
X35025Y10312
X35025Y10627
X35025Y10942
X35025Y11257
X35025Y11572
X35025Y13737
X35025Y14052
X35025Y14367
X35025Y14682
X35025Y14997
X34999Y17133
X35025Y18068
X35025Y18383
X35025Y18698
X35025Y21060
X12333Y15744
X12333Y13776
X12372Y17083
X13199Y15666
X13356Y14603
X13474Y13776
X13711Y17083
X14104Y16177
X14144Y15193
X14695Y14563
X14734Y13776
X15128Y17083
X15364Y16374
X15443Y13776
X15529Y15683
X15955Y14130
X16466Y14996
X16703Y14051
X16860Y17083
X17175Y13776
X17493Y16258
X17766Y15390
X17766Y14051
X12205Y14638
X12205Y14244
X17884Y17181
X17884Y16709
X17884Y16237
X17884Y15764
X14581Y18529
X14733Y18782
X14575Y19069
X14575Y19424
X15577Y19090
X15851Y18985
X16094Y19198
X15544Y18685
X17023Y19425
X18000Y19424
X18000Y19050
X18000Y18676
X14542Y11729
X14694Y11982
X14536Y12269
X14536Y12624
X15538Y12290
X15812Y12185
X16055Y12398
X15505Y11885
X16984Y12625
X17961Y12624
X17961Y12250
X17961Y11876
T02
X10300Y19100
X10500Y8200
X10500Y7200
X37775Y5100
X37775Y2824
T03
X37546Y13163
X37546Y12163
X37546Y11163
X37546Y10163
X37546Y9163
X38546Y9163
X38546Y10163
X38546Y11163
X38546Y12163
X38546Y13163
X25576Y15194
X25458Y13501
X25498Y11769
X25458Y9879
X25458Y8737
X25458Y7556
X25931Y7044
T04
X19871Y30615
X19871Y29887
X19871Y27938
X19871Y23194
X25974Y30438
X25974Y27918
X25974Y27170
X25974Y25477
X25974Y23017
X36700Y29300
X36700Y28300
X36700Y27300
X19871Y23193
X19871Y27938
X25974Y27918
X25974Y27170
X25974Y25477
X25974Y23016
X25974Y30438
X19871Y30615
X19871Y29886
X34710Y20745
X33950Y17603
X34750Y17603
X34350Y15603
T05
X2618Y27362
X2618Y26362
X2618Y25362
X2618Y24362
X2618Y23362
X2618Y22362
X2618Y21362
X2618Y20362
X2618Y19362
X2618Y18362
X2618Y17362
X2618Y16362
X2618Y15362
X2618Y14362
X2618Y13362
X2618Y12362
X2618Y11362
X2618Y10362
X2618Y9362
X3618Y27362
X3618Y26362
X3618Y25362
X3618Y24362
X3618Y23362
X3618Y22362
X3618Y21362
X3618Y20362
X3618Y19362
X3618Y18362
X3618Y17362
X3618Y16362
X3618Y15362
X3618Y14362
X3618Y13362
X3618Y12362
X3618Y11362
X3618Y10362
X3618Y9362
X6000Y27362
X6000Y26362
X6000Y25362
X6000Y24362
X6000Y23362
X6000Y22362
X6000Y21362
X6000Y20362
X6000Y19362
X6000Y18362
X6000Y17362
X6000Y16362
X6000Y15362
X6000Y14362
X6000Y13362
X6000Y12362
X6000Y11362
X6000Y10362
X6000Y9362
X7000Y27362
X7000Y26362
X7000Y25362
X7000Y24362
X7000Y23362
X7000Y22362
X7000Y21362
X7000Y20362
X7000Y19362
X7000Y18362
X7000Y17362
X7000Y16362
X7000Y15362
X7000Y14362
X7000Y13362
X7000Y12362
X7000Y11362
X7000Y10362
X7000Y9362
T06
X3799Y32756
X3799Y30472
X4717Y31614
X7000Y32756
X7000Y30472
T07
X7004Y34724
X7004Y6772
T08
X3500Y36496
X3500Y5000
M30
