G04 #@! TF.GenerationSoftware,KiCad,Pcbnew,8.0.6-8.0.6-0~ubuntu22.04.1*
G04 #@! TF.CreationDate,2024-11-26T11:33:08+00:00*
G04 #@! TF.ProjectId,hellenbremen,68656c6c-656e-4627-9265-6d656e2e6b69,rev?*
G04 #@! TF.SameCoordinates,Original*
G04 #@! TF.FileFunction,Paste,Bot*
G04 #@! TF.FilePolarity,Positive*
%FSLAX46Y46*%
G04 Gerber Fmt 4.6, Leading zero omitted, Abs format (unit mm)*
G04 Created by KiCad (PCBNEW 8.0.6-8.0.6-0~ubuntu22.04.1) date 2024-11-26 11:33:08*
%MOMM*%
%LPD*%
G01*
G04 APERTURE LIST*
%ADD10R,2.300000X0.200000*%
%ADD11R,10.700000X0.200000*%
%ADD12R,2.100000X0.200000*%
%ADD13R,6.000000X0.200000*%
%ADD14R,5.400000X0.200000*%
%ADD15R,0.200000X1.400000*%
%ADD16R,0.200000X5.000000*%
%ADD17R,0.200000X6.800000*%
%ADD18R,0.200000X4.500000*%
%ADD19R,1.600000X0.200000*%
%ADD20R,5.700000X0.200000*%
%ADD21R,2.000000X0.200000*%
%ADD22R,0.650000X1.350000*%
%ADD23R,5.100000X4.400000*%
%ADD24R,1.350000X1.800000*%
G04 APERTURE END LIST*
D10*
G04 #@! TO.C,M3*
X52345000Y61565004D03*
D11*
X85144998Y61565002D03*
D12*
X76944999Y61565002D03*
D13*
X64895000Y61565002D03*
D14*
X58195003Y61565002D03*
D15*
X51294997Y59764995D03*
D16*
X91194998Y58365000D03*
D17*
X91194998Y49864997D03*
D18*
X91194998Y40014994D03*
D19*
X89694999Y19464999D03*
D20*
X57844996Y19464999D03*
D21*
X52195003Y19464999D03*
G04 #@! TD*
G04 #@! TO.C,C11*
G36*
G01*
X32975000Y70600000D02*
X32025000Y70600000D01*
G75*
G02*
X31775000Y70850000I0J250000D01*
G01*
X31775000Y71350000D01*
G75*
G02*
X32025000Y71600000I250000J0D01*
G01*
X32975000Y71600000D01*
G75*
G02*
X33225000Y71350000I0J-250000D01*
G01*
X33225000Y70850000D01*
G75*
G02*
X32975000Y70600000I-250000J0D01*
G01*
G37*
G36*
G01*
X32975000Y72500000D02*
X32025000Y72500000D01*
G75*
G02*
X31775000Y72750000I0J250000D01*
G01*
X31775000Y73250000D01*
G75*
G02*
X32025000Y73500000I250000J0D01*
G01*
X32975000Y73500000D01*
G75*
G02*
X33225000Y73250000I0J-250000D01*
G01*
X33225000Y72750000D01*
G75*
G02*
X32975000Y72500000I-250000J0D01*
G01*
G37*
G04 #@! TD*
G04 #@! TO.C,C17*
G36*
G01*
X36975000Y70550000D02*
X36025000Y70550000D01*
G75*
G02*
X35775000Y70800000I0J250000D01*
G01*
X35775000Y71300000D01*
G75*
G02*
X36025000Y71550000I250000J0D01*
G01*
X36975000Y71550000D01*
G75*
G02*
X37225000Y71300000I0J-250000D01*
G01*
X37225000Y70800000D01*
G75*
G02*
X36975000Y70550000I-250000J0D01*
G01*
G37*
G36*
G01*
X36975000Y72450000D02*
X36025000Y72450000D01*
G75*
G02*
X35775000Y72700000I0J250000D01*
G01*
X35775000Y73200000D01*
G75*
G02*
X36025000Y73450000I250000J0D01*
G01*
X36975000Y73450000D01*
G75*
G02*
X37225000Y73200000I0J-250000D01*
G01*
X37225000Y72700000D01*
G75*
G02*
X36975000Y72450000I-250000J0D01*
G01*
G37*
G04 #@! TD*
G04 #@! TO.C,*
G36*
G01*
X36025000Y75000000D02*
X36975000Y75000000D01*
G75*
G02*
X37225000Y74750000I0J-250000D01*
G01*
X37225000Y74250000D01*
G75*
G02*
X36975000Y74000000I-250000J0D01*
G01*
X36025000Y74000000D01*
G75*
G02*
X35775000Y74250000I0J250000D01*
G01*
X35775000Y74750000D01*
G75*
G02*
X36025000Y75000000I250000J0D01*
G01*
G37*
G04 #@! TD*
G04 #@! TO.C,C7*
G36*
G01*
X34025000Y76900000D02*
X34975000Y76900000D01*
G75*
G02*
X35225000Y76650000I0J-250000D01*
G01*
X35225000Y76150000D01*
G75*
G02*
X34975000Y75900000I-250000J0D01*
G01*
X34025000Y75900000D01*
G75*
G02*
X33775000Y76150000I0J250000D01*
G01*
X33775000Y76650000D01*
G75*
G02*
X34025000Y76900000I250000J0D01*
G01*
G37*
G36*
G01*
X34025000Y75000000D02*
X34975000Y75000000D01*
G75*
G02*
X35225000Y74750000I0J-250000D01*
G01*
X35225000Y74250000D01*
G75*
G02*
X34975000Y74000000I-250000J0D01*
G01*
X34025000Y74000000D01*
G75*
G02*
X33775000Y74250000I0J250000D01*
G01*
X33775000Y74750000D01*
G75*
G02*
X34025000Y75000000I250000J0D01*
G01*
G37*
G04 #@! TD*
G04 #@! TO.C,C6*
G36*
G01*
X22604000Y53256000D02*
X22604000Y52916000D01*
G75*
G02*
X22464000Y52776000I-140000J0D01*
G01*
X22184000Y52776000D01*
G75*
G02*
X22044000Y52916000I0J140000D01*
G01*
X22044000Y53256000D01*
G75*
G02*
X22184000Y53396000I140000J0D01*
G01*
X22464000Y53396000D01*
G75*
G02*
X22604000Y53256000I0J-140000D01*
G01*
G37*
G36*
G01*
X21644000Y53256000D02*
X21644000Y52916000D01*
G75*
G02*
X21504000Y52776000I-140000J0D01*
G01*
X21224000Y52776000D01*
G75*
G02*
X21084000Y52916000I0J140000D01*
G01*
X21084000Y53256000D01*
G75*
G02*
X21224000Y53396000I140000J0D01*
G01*
X21504000Y53396000D01*
G75*
G02*
X21644000Y53256000I0J-140000D01*
G01*
G37*
G04 #@! TD*
G04 #@! TO.C,C9*
G36*
G01*
X28025000Y76900000D02*
X28975000Y76900000D01*
G75*
G02*
X29225000Y76650000I0J-250000D01*
G01*
X29225000Y76150000D01*
G75*
G02*
X28975000Y75900000I-250000J0D01*
G01*
X28025000Y75900000D01*
G75*
G02*
X27775000Y76150000I0J250000D01*
G01*
X27775000Y76650000D01*
G75*
G02*
X28025000Y76900000I250000J0D01*
G01*
G37*
G36*
G01*
X28025000Y75000000D02*
X28975000Y75000000D01*
G75*
G02*
X29225000Y74750000I0J-250000D01*
G01*
X29225000Y74250000D01*
G75*
G02*
X28975000Y74000000I-250000J0D01*
G01*
X28025000Y74000000D01*
G75*
G02*
X27775000Y74250000I0J250000D01*
G01*
X27775000Y74750000D01*
G75*
G02*
X28025000Y75000000I250000J0D01*
G01*
G37*
G04 #@! TD*
D22*
G04 #@! TO.C,IC1*
X30956000Y53550000D03*
X29956000Y53550000D03*
X28956000Y53550000D03*
X27956000Y53550000D03*
X26956000Y53550000D03*
X25956000Y53550000D03*
X25956000Y63500000D03*
X26956000Y63500000D03*
X27956000Y63500000D03*
X28956000Y63500000D03*
X29956000Y63500000D03*
X30956000Y63500000D03*
D23*
X28456000Y58525000D03*
D24*
X31681000Y58525000D03*
X25231000Y58525000D03*
G04 #@! TD*
G04 #@! TO.C,C8*
G36*
G01*
X24950000Y49280000D02*
X24950000Y49780000D01*
G75*
G02*
X25175000Y50005000I225000J0D01*
G01*
X25625000Y50005000D01*
G75*
G02*
X25850000Y49780000I0J-225000D01*
G01*
X25850000Y49280000D01*
G75*
G02*
X25625000Y49055000I-225000J0D01*
G01*
X25175000Y49055000D01*
G75*
G02*
X24950000Y49280000I0J225000D01*
G01*
G37*
G36*
G01*
X26500000Y49280000D02*
X26500000Y49780000D01*
G75*
G02*
X26725000Y50005000I225000J0D01*
G01*
X27175000Y50005000D01*
G75*
G02*
X27400000Y49780000I0J-225000D01*
G01*
X27400000Y49280000D01*
G75*
G02*
X27175000Y49055000I-225000J0D01*
G01*
X26725000Y49055000D01*
G75*
G02*
X26500000Y49280000I0J225000D01*
G01*
G37*
G04 #@! TD*
G04 #@! TO.C,C5*
G36*
G01*
X27148000Y65956000D02*
X27148000Y65616000D01*
G75*
G02*
X27008000Y65476000I-140000J0D01*
G01*
X26728000Y65476000D01*
G75*
G02*
X26588000Y65616000I0J140000D01*
G01*
X26588000Y65956000D01*
G75*
G02*
X26728000Y66096000I140000J0D01*
G01*
X27008000Y66096000D01*
G75*
G02*
X27148000Y65956000I0J-140000D01*
G01*
G37*
G36*
G01*
X26188000Y65956000D02*
X26188000Y65616000D01*
G75*
G02*
X26048000Y65476000I-140000J0D01*
G01*
X25768000Y65476000D01*
G75*
G02*
X25628000Y65616000I0J140000D01*
G01*
X25628000Y65956000D01*
G75*
G02*
X25768000Y66096000I140000J0D01*
G01*
X26048000Y66096000D01*
G75*
G02*
X26188000Y65956000I0J-140000D01*
G01*
G37*
G04 #@! TD*
G04 #@! TO.C,C10*
G36*
G01*
X34975000Y70600000D02*
X34025000Y70600000D01*
G75*
G02*
X33775000Y70850000I0J250000D01*
G01*
X33775000Y71350000D01*
G75*
G02*
X34025000Y71600000I250000J0D01*
G01*
X34975000Y71600000D01*
G75*
G02*
X35225000Y71350000I0J-250000D01*
G01*
X35225000Y70850000D01*
G75*
G02*
X34975000Y70600000I-250000J0D01*
G01*
G37*
G36*
G01*
X34975000Y72500000D02*
X34025000Y72500000D01*
G75*
G02*
X33775000Y72750000I0J250000D01*
G01*
X33775000Y73250000D01*
G75*
G02*
X34025000Y73500000I250000J0D01*
G01*
X34975000Y73500000D01*
G75*
G02*
X35225000Y73250000I0J-250000D01*
G01*
X35225000Y72750000D01*
G75*
G02*
X34975000Y72500000I-250000J0D01*
G01*
G37*
G04 #@! TD*
G04 #@! TO.C,C15*
G36*
G01*
X32025000Y76900000D02*
X32975000Y76900000D01*
G75*
G02*
X33225000Y76650000I0J-250000D01*
G01*
X33225000Y76150000D01*
G75*
G02*
X32975000Y75900000I-250000J0D01*
G01*
X32025000Y75900000D01*
G75*
G02*
X31775000Y76150000I0J250000D01*
G01*
X31775000Y76650000D01*
G75*
G02*
X32025000Y76900000I250000J0D01*
G01*
G37*
G36*
G01*
X32025000Y75000000D02*
X32975000Y75000000D01*
G75*
G02*
X33225000Y74750000I0J-250000D01*
G01*
X33225000Y74250000D01*
G75*
G02*
X32975000Y74000000I-250000J0D01*
G01*
X32025000Y74000000D01*
G75*
G02*
X31775000Y74250000I0J250000D01*
G01*
X31775000Y74750000D01*
G75*
G02*
X32025000Y75000000I250000J0D01*
G01*
G37*
G04 #@! TD*
G04 #@! TO.C,C16*
G36*
G01*
X36025000Y76900000D02*
X36975000Y76900000D01*
G75*
G02*
X37225000Y76650000I0J-250000D01*
G01*
X37225000Y76150000D01*
G75*
G02*
X36975000Y75900000I-250000J0D01*
G01*
X36025000Y75900000D01*
G75*
G02*
X35775000Y76150000I0J250000D01*
G01*
X35775000Y76650000D01*
G75*
G02*
X36025000Y76900000I250000J0D01*
G01*
G37*
G36*
G01*
X36025000Y75000000D02*
X36975000Y75000000D01*
G75*
G02*
X37225000Y74750000I0J-250000D01*
G01*
X37225000Y74250000D01*
G75*
G02*
X36975000Y74000000I-250000J0D01*
G01*
X36025000Y74000000D01*
G75*
G02*
X35775000Y74250000I0J250000D01*
G01*
X35775000Y74750000D01*
G75*
G02*
X36025000Y75000000I250000J0D01*
G01*
G37*
G04 #@! TD*
G04 #@! TO.C,C12*
G36*
G01*
X30975000Y70600000D02*
X30025000Y70600000D01*
G75*
G02*
X29775000Y70850000I0J250000D01*
G01*
X29775000Y71350000D01*
G75*
G02*
X30025000Y71600000I250000J0D01*
G01*
X30975000Y71600000D01*
G75*
G02*
X31225000Y71350000I0J-250000D01*
G01*
X31225000Y70850000D01*
G75*
G02*
X30975000Y70600000I-250000J0D01*
G01*
G37*
G36*
G01*
X30975000Y72500000D02*
X30025000Y72500000D01*
G75*
G02*
X29775000Y72750000I0J250000D01*
G01*
X29775000Y73250000D01*
G75*
G02*
X30025000Y73500000I250000J0D01*
G01*
X30975000Y73500000D01*
G75*
G02*
X31225000Y73250000I0J-250000D01*
G01*
X31225000Y72750000D01*
G75*
G02*
X30975000Y72500000I-250000J0D01*
G01*
G37*
G04 #@! TD*
G04 #@! TO.C,R14*
G36*
G01*
X30135000Y65420000D02*
X29765000Y65420000D01*
G75*
G02*
X29630000Y65555000I0J135000D01*
G01*
X29630000Y65825000D01*
G75*
G02*
X29765000Y65960000I135000J0D01*
G01*
X30135000Y65960000D01*
G75*
G02*
X30270000Y65825000I0J-135000D01*
G01*
X30270000Y65555000D01*
G75*
G02*
X30135000Y65420000I-135000J0D01*
G01*
G37*
G36*
G01*
X30135000Y66440000D02*
X29765000Y66440000D01*
G75*
G02*
X29630000Y66575000I0J135000D01*
G01*
X29630000Y66845000D01*
G75*
G02*
X29765000Y66980000I135000J0D01*
G01*
X30135000Y66980000D01*
G75*
G02*
X30270000Y66845000I0J-135000D01*
G01*
X30270000Y66575000D01*
G75*
G02*
X30135000Y66440000I-135000J0D01*
G01*
G37*
G04 #@! TD*
G04 #@! TO.C,C13*
G36*
G01*
X28975000Y70600000D02*
X28025000Y70600000D01*
G75*
G02*
X27775000Y70850000I0J250000D01*
G01*
X27775000Y71350000D01*
G75*
G02*
X28025000Y71600000I250000J0D01*
G01*
X28975000Y71600000D01*
G75*
G02*
X29225000Y71350000I0J-250000D01*
G01*
X29225000Y70850000D01*
G75*
G02*
X28975000Y70600000I-250000J0D01*
G01*
G37*
G36*
G01*
X28975000Y72500000D02*
X28025000Y72500000D01*
G75*
G02*
X27775000Y72750000I0J250000D01*
G01*
X27775000Y73250000D01*
G75*
G02*
X28025000Y73500000I250000J0D01*
G01*
X28975000Y73500000D01*
G75*
G02*
X29225000Y73250000I0J-250000D01*
G01*
X29225000Y72750000D01*
G75*
G02*
X28975000Y72500000I-250000J0D01*
G01*
G37*
G04 #@! TD*
G04 #@! TO.C,C14*
G36*
G01*
X30025000Y76900000D02*
X30975000Y76900000D01*
G75*
G02*
X31225000Y76650000I0J-250000D01*
G01*
X31225000Y76150000D01*
G75*
G02*
X30975000Y75900000I-250000J0D01*
G01*
X30025000Y75900000D01*
G75*
G02*
X29775000Y76150000I0J250000D01*
G01*
X29775000Y76650000D01*
G75*
G02*
X30025000Y76900000I250000J0D01*
G01*
G37*
G36*
G01*
X30025000Y75000000D02*
X30975000Y75000000D01*
G75*
G02*
X31225000Y74750000I0J-250000D01*
G01*
X31225000Y74250000D01*
G75*
G02*
X30975000Y74000000I-250000J0D01*
G01*
X30025000Y74000000D01*
G75*
G02*
X29775000Y74250000I0J250000D01*
G01*
X29775000Y74750000D01*
G75*
G02*
X30025000Y75000000I250000J0D01*
G01*
G37*
G04 #@! TD*
M02*
