M48
; DRILL file {KiCad 8.0.6-8.0.6-0~ubuntu22.04.1} date 2024-11-20T01:44:57+0000
; FORMAT={2:4/ absolute / inch / suppress leading zeros}
; #@! TF.CreationDate,2024-11-20T01:44:57+00:00
; #@! TF.GenerationSoftware,Kicad,Pcbnew,8.0.6-8.0.6-0~ubuntu22.04.1
; #@! TF.FileFunction,MixedPlating,1,4
FMAT,2
INCH,TZ
; #@! TA.AperFunction,Plated,PTH,ViaDrill
T1C0.0118
; #@! TA.AperFunction,Plated,PTH,ComponentDrill
T2C0.0118
; #@! TA.AperFunction,Plated,PTH,ViaDrill
T3C0.0197
; #@! TA.AperFunction,Plated,PTH,ComponentDrill
T4C0.0394
; #@! TA.AperFunction,Plated,PTH,ComponentDrill
T5C0.0433
; #@! TA.AperFunction,Plated,PTH,ComponentDrill
T6C0.0591
; #@! TA.AperFunction,NonPlated,NPTH,ComponentDrill
T7C0.0256
; #@! TA.AperFunction,NonPlated,NPTH,ComponentDrill
T8C0.0827
; #@! TA.AperFunction,NonPlated,NPTH,ComponentDrill
T9C0.1417
%
G90
G05
T1
X3803Y38199
X3803Y34262
X3803Y6703
X3803Y2766
X7740Y2766
X8500Y14200
X8543Y18484
X8876Y34687
X9275Y35075
X9300Y24843
X11677Y38199
X11677Y2766
X14500Y24100
X14500Y19200
X14823Y4764
X14843Y6772
X14882Y8622
X15000Y20600
X15200Y14700
X15400Y22300
X15575Y19675
X15614Y38199
X15614Y34262
X15614Y30325
X15614Y6703
X15614Y2766
X16299Y17874
X19232Y8642
X19232Y6752
X19252Y4705
X19551Y38199
X19551Y2766
X19961Y10276
X21417Y7815
X22756Y8898
X23488Y38199
X23488Y30325
X23488Y2766
X23878Y7028
X24600Y29500
X27425Y38199
X27425Y6703
X27425Y2766
X30500Y34902
X31100Y31100
X31362Y6703
X31362Y2766
X31634Y9272
X31736Y31100
X33200Y29500
X33622Y9646
X33700Y23200
X33700Y21700
X34055Y10669
X34300Y23099
X34410Y39300
X34469Y12874
X34685Y7028
X34724Y9016
X35299Y26388
X35299Y22451
X35299Y18514
X35299Y6703
X35299Y2766
X35335Y9528
X36693Y10669
X36900Y30500
X39236Y26388
X39236Y22451
X39236Y18514
X39236Y10640
X39236Y6703
X39236Y2766
T2
X10005Y16238
X10005Y15844
X10037Y20423
X10037Y20069
X10056Y22413
X10056Y22059
X13462Y20423
X13462Y20049
X13462Y19675
X13481Y22413
X13481Y22039
X13481Y21665
X15684Y18781
X15684Y18309
X15684Y17837
X15684Y17364
X16674Y23425
X16674Y22480
X16674Y21063
X16674Y20118
X16674Y15866
X16674Y14449
X16674Y12598
X16674Y11181
X16674Y27205
X16674Y26260
X16674Y25787
X16674Y25315
X16674Y24843
X16674Y24370
X16674Y23898
X16674Y22953
X16674Y22008
X16674Y21535
X16674Y20591
X16674Y19646
X16674Y19173
X16674Y18701
X16674Y18228
X16674Y17756
X16674Y17283
X16674Y16811
X16674Y16339
X16674Y15394
X16674Y14921
X16674Y13976
X16674Y13504
X16674Y13071
X16674Y12126
X16674Y11654
X17540Y10945
X17658Y27362
X17855Y10945
X18052Y27362
X20493Y10945
X20571Y27362
X20807Y10945
X21122Y10945
X21437Y10945
X21752Y10945
X22067Y10945
X22382Y10945
X22697Y10945
X22878Y31466
X22878Y31072
X23012Y10945
X23327Y10945
X23327Y27362
X23642Y10945
X23721Y27362
X23957Y10945
X24115Y27362
X24272Y10945
X24508Y27362
X24587Y10945
X24902Y10945
X24902Y27362
X25217Y10945
X25296Y27362
X25532Y10945
X25689Y27362
X25847Y10945
X26083Y27362
X26162Y10945
X26477Y10945
X26792Y10945
X27107Y10945
X27304Y27362
X27422Y10945
X27619Y27362
X27737Y10945
X28052Y10945
X28367Y10945
X28681Y10945
X28996Y10945
X29311Y10945
X29626Y10945
X29941Y10945
X30256Y10945
X30571Y10945
X30886Y10945
X31201Y10945
X32225Y27362
X32225Y25000
X32225Y24685
X32225Y24370
X32225Y21299
X32225Y20984
X32225Y20669
X32225Y20354
X32225Y20039
X32225Y17874
X32225Y17559
X32225Y16929
X32225Y16614
X32225Y16299
X32225Y15984
X32225Y15039
X32225Y14724
X32225Y14409
X32225Y14094
X32225Y13780
X32225Y13465
X32225Y12835
X32225Y12520
X32225Y12205
X32225Y11890
X32225Y10945
X32225Y17244
X32225Y15669
X32225Y15354
X32225Y13150
X32225Y11575
X32225Y11260
T3
X1300Y33400
X12461Y28268
X13541Y32008
X13541Y30610
X14469Y31295
X14606Y28287
T4
X16598Y37548
X16598Y36820
X16598Y34871
X16598Y30127
X22700Y37371
X22700Y34852
X22700Y34104
X22700Y32411
X22700Y29950
X34394Y29248
X35394Y29248
X36394Y29248
T5
X2626Y27362
X2626Y26362
X2626Y25362
X2626Y24362
X2626Y23362
X2626Y22362
X2626Y21362
X2626Y20362
X2626Y19362
X2626Y18362
X2626Y17362
X2626Y16362
X2626Y15362
X2626Y14362
X2626Y13362
X2626Y12362
X2626Y11362
X2626Y10362
X2626Y9362
X3626Y27362
X3626Y26362
X3626Y25362
X3626Y24362
X3626Y23362
X3626Y22362
X3626Y21362
X3626Y20362
X3626Y19362
X3626Y18362
X3626Y17362
X3626Y16362
X3626Y15362
X3626Y14362
X3626Y13362
X3626Y12362
X3626Y11362
X3626Y10362
X3626Y9362
X6008Y27362
X6008Y26362
X6008Y25362
X6008Y24362
X6008Y23362
X6008Y22362
X6008Y21362
X6008Y20362
X6008Y19362
X6008Y18362
X6008Y17362
X6008Y16362
X6008Y15362
X6008Y14362
X6008Y13362
X6008Y12362
X6008Y11362
X6008Y10362
X6008Y9362
X7008Y27362
X7008Y26362
X7008Y25362
X7008Y24362
X7008Y23362
X7008Y22362
X7008Y21362
X7008Y20362
X7008Y19362
X7008Y18362
X7008Y17362
X7008Y16362
X7008Y15362
X7008Y14362
X7008Y13362
X7008Y12362
X7008Y11362
X7008Y10362
X7008Y9362
T6
X3807Y32756
X3807Y30472
X4724Y31614
X7008Y32756
X7008Y30472
T7
X37754Y9012
X37754Y6736
T8
X7012Y34724
X7012Y6772
T9
X3508Y36496
X3626Y5000
M30
