G04 #@! TF.GenerationSoftware,KiCad,Pcbnew,8.0.6-8.0.6-0~ubuntu22.04.1*
G04 #@! TF.CreationDate,2024-11-20T22:58:34+00:00*
G04 #@! TF.ProjectId,hellenbremen,68656c6c-656e-4627-9265-6d656e2e6b69,rev?*
G04 #@! TF.SameCoordinates,Original*
G04 #@! TF.FileFunction,Copper,L4,Bot*
G04 #@! TF.FilePolarity,Positive*
%FSLAX46Y46*%
G04 Gerber Fmt 4.6, Leading zero omitted, Abs format (unit mm)*
G04 Created by KiCad (PCBNEW 8.0.6-8.0.6-0~ubuntu22.04.1) date 2024-11-20 22:58:34*
%MOMM*%
%LPD*%
G01*
G04 APERTURE LIST*
G04 #@! TA.AperFunction,ComponentPad*
%ADD10C,0.600000*%
G04 #@! TD*
G04 #@! TA.AperFunction,SMDPad,CuDef*
%ADD11R,2.300000X0.200000*%
G04 #@! TD*
G04 #@! TA.AperFunction,SMDPad,CuDef*
%ADD12R,10.700000X0.200000*%
G04 #@! TD*
G04 #@! TA.AperFunction,SMDPad,CuDef*
%ADD13R,2.100000X0.200000*%
G04 #@! TD*
G04 #@! TA.AperFunction,SMDPad,CuDef*
%ADD14R,6.000000X0.200000*%
G04 #@! TD*
G04 #@! TA.AperFunction,SMDPad,CuDef*
%ADD15R,5.400000X0.200000*%
G04 #@! TD*
G04 #@! TA.AperFunction,SMDPad,CuDef*
%ADD16R,0.200000X1.400000*%
G04 #@! TD*
G04 #@! TA.AperFunction,SMDPad,CuDef*
%ADD17R,0.200000X5.000000*%
G04 #@! TD*
G04 #@! TA.AperFunction,SMDPad,CuDef*
%ADD18R,0.200000X6.800000*%
G04 #@! TD*
G04 #@! TA.AperFunction,SMDPad,CuDef*
%ADD19R,0.200000X4.500000*%
G04 #@! TD*
G04 #@! TA.AperFunction,SMDPad,CuDef*
%ADD20R,1.600000X0.200000*%
G04 #@! TD*
G04 #@! TA.AperFunction,SMDPad,CuDef*
%ADD21R,5.700000X0.200000*%
G04 #@! TD*
G04 #@! TA.AperFunction,SMDPad,CuDef*
%ADD22R,2.000000X0.200000*%
G04 #@! TD*
G04 #@! TA.AperFunction,SMDPad,CuDef*
%ADD23R,0.250000X6.185000*%
G04 #@! TD*
G04 #@! TA.AperFunction,SMDPad,CuDef*
%ADD24R,0.250000X1.115000*%
G04 #@! TD*
G04 #@! TA.AperFunction,SMDPad,CuDef*
%ADD25R,14.275000X0.250000*%
G04 #@! TD*
G04 #@! TA.AperFunction,SMDPad,CuDef*
%ADD26R,15.100000X0.250000*%
G04 #@! TD*
G04 #@! TA.AperFunction,SMDPad,CuDef*
%ADD27R,0.250000X5.175000*%
G04 #@! TD*
G04 #@! TA.AperFunction,ComponentPad*
%ADD28C,1.500000*%
G04 #@! TD*
G04 #@! TA.AperFunction,SMDPad,CuDef*
%ADD29O,0.200000X3.300000*%
G04 #@! TD*
G04 #@! TA.AperFunction,SMDPad,CuDef*
%ADD30O,0.200000X10.200000*%
G04 #@! TD*
G04 #@! TA.AperFunction,SMDPad,CuDef*
%ADD31O,0.200000X0.300000*%
G04 #@! TD*
G04 #@! TA.AperFunction,SMDPad,CuDef*
%ADD32O,17.000000X0.200000*%
G04 #@! TD*
G04 #@! TA.AperFunction,SMDPad,CuDef*
%ADD33O,15.400000X0.200000*%
G04 #@! TD*
G04 #@! TA.AperFunction,SMDPad,CuDef*
%ADD34O,0.200000X4.800000*%
G04 #@! TD*
G04 #@! TA.AperFunction,SMDPad,CuDef*
%ADD35O,0.200000X2.600000*%
G04 #@! TD*
G04 #@! TA.AperFunction,SMDPad,CuDef*
%ADD36O,0.200000X1.000000*%
G04 #@! TD*
G04 #@! TA.AperFunction,SMDPad,CuDef*
%ADD37O,0.200000X1.500000*%
G04 #@! TD*
G04 #@! TA.AperFunction,ComponentPad*
%ADD38R,1.700000X1.700000*%
G04 #@! TD*
G04 #@! TA.AperFunction,ComponentPad*
%ADD39O,1.700000X1.700000*%
G04 #@! TD*
G04 #@! TA.AperFunction,SMDPad,CuDef*
%ADD40O,0.200000X1.225000*%
G04 #@! TD*
G04 #@! TA.AperFunction,SMDPad,CuDef*
%ADD41O,9.300000X0.200000*%
G04 #@! TD*
G04 #@! TA.AperFunction,ComponentPad*
%ADD42C,2.000000*%
G04 #@! TD*
G04 #@! TA.AperFunction,ComponentPad*
%ADD43C,1.600000*%
G04 #@! TD*
G04 #@! TA.AperFunction,ViaPad*
%ADD44C,0.600000*%
G04 #@! TD*
G04 #@! TA.AperFunction,ViaPad*
%ADD45C,1.000000*%
G04 #@! TD*
G04 #@! TA.AperFunction,Conductor*
%ADD46C,0.200000*%
G04 #@! TD*
G04 APERTURE END LIST*
G04 #@! TO.P,M1,G,GND*
G04 #@! TO.N,GND*
G04 #@! TA.AperFunction,SMDPad,CuDef*
G36*
G01*
X99267500Y45900006D02*
X91977500Y45900006D01*
G75*
G02*
X91877500Y46000006I0J100000D01*
G01*
X91877500Y46000006D01*
G75*
G02*
X91977500Y46100006I100000J0D01*
G01*
X99267500Y46100006D01*
G75*
G02*
X99367500Y46000006I0J-100000D01*
G01*
X99367500Y46000006D01*
G75*
G02*
X99267500Y45900006I-100000J0D01*
G01*
G37*
G04 #@! TD.AperFunction*
G04 #@! TA.AperFunction,SMDPad,CuDef*
G36*
G01*
X92034876Y45918461D02*
X91610612Y45494197D01*
G75*
G02*
X91469190Y45494197I-70711J70711D01*
G01*
X91469190Y45494197D01*
G75*
G02*
X91469190Y45635619I70711J70711D01*
G01*
X91893454Y46059883D01*
G75*
G02*
X92034876Y46059883I70711J-70711D01*
G01*
X92034876Y46059883D01*
G75*
G02*
X92034876Y45918461I-70711J-70711D01*
G01*
G37*
G04 #@! TD.AperFunction*
G04 #@! TA.AperFunction,SMDPad,CuDef*
G36*
G01*
X100633809Y44515291D02*
X99226667Y45922433D01*
G75*
G02*
X99226667Y46063855I70711J70711D01*
G01*
X99226667Y46063855D01*
G75*
G02*
X99368089Y46063855I70711J-70711D01*
G01*
X100775231Y44656713D01*
G75*
G02*
X100775231Y44515291I-70711J-70711D01*
G01*
X100775231Y44515291D01*
G75*
G02*
X100633809Y44515291I-70711J70711D01*
G01*
G37*
G04 #@! TD.AperFunction*
G04 #@! TA.AperFunction,SMDPad,CuDef*
G36*
G01*
X100806643Y44579443D02*
X100806643Y28229443D01*
G75*
G02*
X100706643Y28129443I-100000J0D01*
G01*
X100706643Y28129443D01*
G75*
G02*
X100606643Y28229443I0J100000D01*
G01*
X100606643Y44579443D01*
G75*
G02*
X100706643Y44679443I100000J0D01*
G01*
X100706643Y44679443D01*
G75*
G02*
X100806643Y44579443I0J-100000D01*
G01*
G37*
G04 #@! TD.AperFunction*
G04 #@! TA.AperFunction,SMDPad,CuDef*
G36*
G01*
X91526832Y28307522D02*
X100696830Y28307522D01*
G75*
G02*
X100796830Y28207522I0J-100000D01*
G01*
X100796830Y28207522D01*
G75*
G02*
X100696830Y28107522I-100000J0D01*
G01*
X91526832Y28107522D01*
G75*
G02*
X91426832Y28207522I0J100000D01*
G01*
X91426832Y28207522D01*
G75*
G02*
X91526832Y28307522I100000J0D01*
G01*
G37*
G04 #@! TD.AperFunction*
G04 #@! TO.P,M1,N1,V5*
G04 #@! TO.N,unconnected-(M1-V5-PadN1)*
G04 #@! TA.AperFunction,SMDPad,CuDef*
G36*
G01*
X90824999Y34375006D02*
X90575001Y34375006D01*
G75*
G02*
X90450001Y34500006I0J125000D01*
G01*
X90450001Y34500006D01*
G75*
G02*
X90575001Y34625006I125000J0D01*
G01*
X90824999Y34625006D01*
G75*
G02*
X90949999Y34500006I0J-125000D01*
G01*
X90949999Y34500006D01*
G75*
G02*
X90824999Y34375006I-125000J0D01*
G01*
G37*
G04 #@! TD.AperFunction*
G04 #@! TO.P,M1,N2,V33*
G04 #@! TO.N,unconnected-(M1-V33-PadN2)*
G04 #@! TA.AperFunction,SMDPad,CuDef*
G36*
G01*
X90824999Y35475004D02*
X90575001Y35475004D01*
G75*
G02*
X90450001Y35600004I0J125000D01*
G01*
X90450001Y35600004D01*
G75*
G02*
X90575001Y35725004I125000J0D01*
G01*
X90824999Y35725004D01*
G75*
G02*
X90949999Y35600004I0J-125000D01*
G01*
X90949999Y35600004D01*
G75*
G02*
X90824999Y35475004I-125000J0D01*
G01*
G37*
G04 #@! TD.AperFunction*
G04 #@! TO.P,M1,N3,SWO*
G04 #@! TO.N,Net-(M1-SWO)*
G04 #@! TA.AperFunction,SMDPad,CuDef*
G36*
G01*
X90824999Y36575002D02*
X90575001Y36575002D01*
G75*
G02*
X90450001Y36700002I0J125000D01*
G01*
X90450001Y36700002D01*
G75*
G02*
X90575001Y36825002I125000J0D01*
G01*
X90824999Y36825002D01*
G75*
G02*
X90949999Y36700002I0J-125000D01*
G01*
X90949999Y36700002D01*
G75*
G02*
X90824999Y36575002I-125000J0D01*
G01*
G37*
G04 #@! TD.AperFunction*
G04 #@! TO.P,M1,N4,SWDIO*
G04 #@! TO.N,Net-(M1-SWDIO)*
G04 #@! TA.AperFunction,SMDPad,CuDef*
G36*
G01*
X90824999Y37675000D02*
X90575001Y37675000D01*
G75*
G02*
X90450001Y37800000I0J125000D01*
G01*
X90450001Y37800000D01*
G75*
G02*
X90575001Y37925000I125000J0D01*
G01*
X90824999Y37925000D01*
G75*
G02*
X90949999Y37800000I0J-125000D01*
G01*
X90949999Y37800000D01*
G75*
G02*
X90824999Y37675000I-125000J0D01*
G01*
G37*
G04 #@! TD.AperFunction*
G04 #@! TO.P,M1,N5,SWCLK*
G04 #@! TO.N,Net-(M1-SWCLK)*
G04 #@! TA.AperFunction,SMDPad,CuDef*
G36*
G01*
X90824999Y38774998D02*
X90575001Y38774998D01*
G75*
G02*
X90450001Y38899998I0J125000D01*
G01*
X90450001Y38899998D01*
G75*
G02*
X90575001Y39024998I125000J0D01*
G01*
X90824999Y39024998D01*
G75*
G02*
X90949999Y38899998I0J-125000D01*
G01*
X90949999Y38899998D01*
G75*
G02*
X90824999Y38774998I-125000J0D01*
G01*
G37*
G04 #@! TD.AperFunction*
G04 #@! TO.P,M1,N6,nReset*
G04 #@! TO.N,Net-(M1-nReset)*
G04 #@! TA.AperFunction,SMDPad,CuDef*
G36*
G01*
X90824999Y39874995D02*
X90575001Y39874995D01*
G75*
G02*
X90450001Y39999995I0J125000D01*
G01*
X90450001Y39999995D01*
G75*
G02*
X90575001Y40124995I125000J0D01*
G01*
X90824999Y40124995D01*
G75*
G02*
X90949999Y39999995I0J-125000D01*
G01*
X90949999Y39999995D01*
G75*
G02*
X90824999Y39874995I-125000J0D01*
G01*
G37*
G04 #@! TD.AperFunction*
G04 #@! TD*
D10*
G04 #@! TO.P,M3,E1,SPI2_SCK/CAN2_TX*
G04 #@! TO.N,unconnected-(M3-SPI2_SCK{slash}CAN2_TX-PadE1)*
X79250996Y27800004D03*
G04 #@! TO.P,M3,E2,SPI2_MISO*
G04 #@! TO.N,unconnected-(M3-SPI2_MISO-PadE2)*
X78450995Y27800004D03*
G04 #@! TO.P,M3,E3,SPI2_MOSI*
G04 #@! TO.N,unconnected-(M3-SPI2_MOSI-PadE3)*
X77650997Y27800004D03*
G04 #@! TO.P,M3,E4,SPI2_CS/CAN2_RX*
G04 #@! TO.N,unconnected-(M3-SPI2_CS{slash}CAN2_RX-PadE4)*
X76850996Y27800004D03*
G04 #@! TO.P,M3,E6,OUT_IO3*
G04 #@! TO.N,unconnected-(M3-OUT_IO3-PadE6)*
X76050995Y27800004D03*
G04 #@! TO.P,M3,E7,OUT_IO5*
G04 #@! TO.N,unconnected-(M3-OUT_IO5-PadE7)*
X75250997Y27800007D03*
G04 #@! TO.P,M3,E8,OUT_IO1*
G04 #@! TO.N,unconnected-(M3-OUT_IO1-PadE8)*
X74450996Y27800007D03*
G04 #@! TO.P,M3,E9,OUT_IO6*
G04 #@! TO.N,unconnected-(M3-OUT_IO6-PadE9)*
X73650992Y27800004D03*
G04 #@! TO.P,M3,E10,OUT_IO10*
G04 #@! TO.N,unconnected-(M3-OUT_IO10-PadE10)*
X72850996Y27800004D03*
G04 #@! TO.P,M3,E11,OUT_IO9*
G04 #@! TO.N,unconnected-(M3-OUT_IO9-PadE11)*
X72050996Y27800004D03*
G04 #@! TO.P,M3,E12,OUT_IO2*
G04 #@! TO.N,unconnected-(M3-OUT_IO2-PadE12)*
X71250995Y27800004D03*
G04 #@! TO.P,M3,E13,OUT_IO12*
G04 #@! TO.N,unconnected-(M3-OUT_IO12-PadE13)*
X70450996Y27800007D03*
G04 #@! TO.P,M3,E14,OUT_PWM5*
G04 #@! TO.N,unconnected-(M3-OUT_PWM5-PadE14)*
X69650995Y27800007D03*
G04 #@! TO.P,M3,E15,OUT_PWM4*
G04 #@! TO.N,ETC_DIR*
X68850994Y27800007D03*
G04 #@! TO.P,M3,E16,OUT_PWM3*
G04 #@! TO.N,ETC_PWM*
X68050996Y27800004D03*
G04 #@! TO.P,M3,E17,OUT_PWM2*
G04 #@! TO.N,MCU_CFC*
X67250995Y27800004D03*
G04 #@! TO.P,M3,E18,OUT_INJ2*
G04 #@! TO.N,MCU_INJ2*
X66450997Y27800004D03*
G04 #@! TO.P,M3,E19,OUT_INJ1*
G04 #@! TO.N,MCU_INJ1*
X65650996Y27800007D03*
G04 #@! TO.P,M3,E20,OUT_IO13*
G04 #@! TO.N,unconnected-(M3-OUT_IO13-PadE20)*
X64850995Y27800007D03*
G04 #@! TO.P,M3,E21,OUT_IO4*
G04 #@! TO.N,unconnected-(M3-OUT_IO4-PadE21)*
X64050996Y27800004D03*
G04 #@! TO.P,M3,E22,OUT_IO8*
G04 #@! TO.N,unconnected-(M3-OUT_IO8-PadE22)*
X63250995Y27800004D03*
G04 #@! TO.P,M3,E23,OUT_IO7*
G04 #@! TO.N,unconnected-(M3-OUT_IO7-PadE23)*
X62450994Y27800004D03*
G04 #@! TO.P,M3,E24,OUT_IO11*
G04 #@! TO.N,unconnected-(M3-OUT_IO11-PadE24)*
X61650996Y27800004D03*
G04 #@! TO.P,M3,E25,OUT_PWM7*
G04 #@! TO.N,unconnected-(M3-OUT_PWM7-PadE25)*
X60850995Y27800004D03*
G04 #@! TO.P,M3,E26,OUT_PWM6*
G04 #@! TO.N,unconnected-(M3-OUT_PWM6-PadE26)*
X60050997Y27800004D03*
G04 #@! TO.P,M3,E27,OUT_PWM1*
G04 #@! TO.N,MCU_CPC*
X59250996Y27800004D03*
G04 #@! TO.P,M3,E28,OUT_PWM8*
G04 #@! TO.N,unconnected-(M3-OUT_PWM8-PadE28)*
X58450995Y27800004D03*
G04 #@! TO.P,M3,E29,OUT_INJ3*
G04 #@! TO.N,unconnected-(M3-OUT_INJ3-PadE29)*
X57650996Y27800004D03*
G04 #@! TO.P,M3,E30,OUT_INJ4*
G04 #@! TO.N,unconnected-(M3-OUT_INJ4-PadE30)*
X56850995Y27800004D03*
G04 #@! TO.P,M3,E31,OUT_INJ5*
G04 #@! TO.N,unconnected-(M3-OUT_INJ5-PadE31)*
X56050997Y27800007D03*
G04 #@! TO.P,M3,E32,OUT_INJ6*
G04 #@! TO.N,unconnected-(M3-OUT_INJ6-PadE32)*
X55250994Y27800004D03*
G04 #@! TO.P,M3,E33,OUT_INJ7*
G04 #@! TO.N,MCU_ACR1*
X54450995Y27800004D03*
G04 #@! TO.P,M3,E34,OUT_INJ8*
G04 #@! TO.N,MCU_ACR2*
X53650997Y27800004D03*
G04 #@! TO.P,M3,E35,IO6*
G04 #@! TO.N,unconnected-(M3-IO6-PadE35)*
X52850996Y27800004D03*
G04 #@! TO.P,M3,E36,IO7*
G04 #@! TO.N,unconnected-(M3-IO7-PadE36)*
X52050995Y27800004D03*
G04 #@! TO.P,M3,E38,V5A_SWITCHABLE*
G04 #@! TO.N,+5VA*
X45351001Y27800007D03*
G04 #@! TO.P,M3,E39,GNDA*
G04 #@! TO.N,unconnected-(M3-GNDA-PadE39)*
X44551000Y27800004D03*
D11*
G04 #@! TO.P,M3,G,GND*
G04 #@! TO.N,GND*
X43201000Y69700009D03*
D12*
X76000998Y69700007D03*
D13*
X67800999Y69700007D03*
D14*
X55751000Y69700007D03*
D15*
X49051003Y69700007D03*
D16*
X42150997Y67900000D03*
D17*
X82050998Y66500005D03*
D18*
X82050998Y58000002D03*
D19*
X82050998Y48149999D03*
D20*
X80550999Y27600004D03*
D21*
X48700996Y27600004D03*
D22*
X43051003Y27600004D03*
D10*
G04 #@! TO.P,M3,N1,USBID*
G04 #@! TO.N,unconnected-(M3-USBID-PadN1)*
X81850999Y27800004D03*
G04 #@! TO.P,M3,N2,USBM*
G04 #@! TO.N,Net-(M3-USBM)*
X81851001Y28600002D03*
G04 #@! TO.P,M3,N3,USBP*
G04 #@! TO.N,Net-(M3-USBP)*
X81851001Y29400003D03*
G04 #@! TO.P,M3,N4,VBUS*
G04 #@! TO.N,Net-(M3-VBUS)*
X81850999Y30200002D03*
G04 #@! TO.P,M3,N5,BOOT0*
G04 #@! TO.N,unconnected-(M3-BOOT0-PadN5)*
X81850999Y31000003D03*
G04 #@! TO.P,M3,N6,SWO*
G04 #@! TO.N,Net-(M1-SWO)*
X81850999Y31800004D03*
G04 #@! TO.P,M3,N7,SWDIO*
G04 #@! TO.N,Net-(M1-SWDIO)*
X81850999Y32600002D03*
G04 #@! TO.P,M3,N8,SWCLK*
G04 #@! TO.N,Net-(M1-SWCLK)*
X81851001Y33400003D03*
G04 #@! TO.P,M3,N9,nReset*
G04 #@! TO.N,Net-(M1-nReset)*
X81850999Y34200001D03*
G04 #@! TO.P,M3,N10,SPI3_CS*
G04 #@! TO.N,unconnected-(M3-SPI3_CS-PadN10)*
X81850999Y35000002D03*
G04 #@! TO.P,M3,N11,SPI3_SCK*
G04 #@! TO.N,unconnected-(M3-SPI3_SCK-PadN11)*
X81850999Y35800003D03*
G04 #@! TO.P,M3,N12,SPI3_MISO*
G04 #@! TO.N,unconnected-(M3-SPI3_MISO-PadN12)*
X81850999Y36600004D03*
G04 #@! TO.P,M3,N13,SPI3_MOSI*
G04 #@! TO.N,unconnected-(M3-SPI3_MOSI-PadN13)*
X81850999Y37400003D03*
G04 #@! TO.P,M3,N14,I2C_SCL*
G04 #@! TO.N,unconnected-(M3-I2C_SCL-PadN14)*
X81850999Y38200004D03*
G04 #@! TO.P,M3,N15,I2C_SDA*
G04 #@! TO.N,unconnected-(M3-I2C_SDA-PadN15)*
X81851001Y39000005D03*
G04 #@! TO.P,M3,N16,IO1*
G04 #@! TO.N,unconnected-(M3-IO1-PadN16)*
X81851001Y39800005D03*
G04 #@! TO.P,M3,N17,UART2_TX*
G04 #@! TO.N,UART_BT_TX*
X81850999Y40600004D03*
G04 #@! TO.P,M3,N18,UART2_RX*
G04 #@! TO.N,UART_BT_RX*
X81850999Y41400005D03*
G04 #@! TO.P,M3,N19,IO2*
G04 #@! TO.N,unconnected-(M3-IO2-PadN19)*
X81850999Y42200003D03*
G04 #@! TO.P,M3,N20,IO4*
G04 #@! TO.N,unconnected-(M3-IO4-PadN20)*
X81850999Y43000004D03*
G04 #@! TO.P,M3,N21,IO3*
G04 #@! TO.N,unconnected-(M3-IO3-PadN21)*
X81851001Y43800003D03*
G04 #@! TO.P,M3,N22,V33*
G04 #@! TO.N,+3V3*
X81850999Y44600004D03*
G04 #@! TO.P,M3,N23,IO5*
G04 #@! TO.N,unconnected-(M3-IO5-PadN23)*
X81850999Y45400004D03*
G04 #@! TO.P,M3,N24,UART8_RX*
G04 #@! TO.N,unconnected-(M3-UART8_RX-PadN24)*
X81850999Y50900004D03*
G04 #@! TO.P,M3,N25,UART8_TX*
G04 #@! TO.N,unconnected-(M3-UART8_TX-PadN25)*
X81850999Y51700005D03*
G04 #@! TO.P,M3,N26,IN_VIGN*
G04 #@! TO.N,VIGN*
X81850999Y52500003D03*
G04 #@! TO.P,M3,N27,VBAT*
G04 #@! TO.N,unconnected-(M3-VBAT-PadN27)*
X81850999Y53300001D03*
G04 #@! TO.P,M3,N28,V33_SWITCHABLE*
G04 #@! TO.N,+3V3SW*
X81850999Y54100000D03*
G04 #@! TO.P,M3,N29,OUT_PWR_EN*
G04 #@! TO.N,PWR_EN*
X81850999Y61900004D03*
G04 #@! TO.P,M3,N30,V5A_SWITCHABLE*
G04 #@! TO.N,unconnected-(M3-V5A_SWITCHABLE-PadN30)*
X81850999Y62700003D03*
G04 #@! TO.P,M3,N31,VCC*
G04 #@! TO.N,+5V*
X81850999Y63500001D03*
G04 #@! TO.P,M3,N32,V33*
G04 #@! TO.N,+3V3*
X81850999Y69500005D03*
G04 #@! TO.P,M3,S1,IN_D4*
G04 #@! TO.N,unconnected-(M3-IN_D4-PadS1)*
X42350994Y28400005D03*
G04 #@! TO.P,M3,S2,IN_D3*
G04 #@! TO.N,unconnected-(M3-IN_D3-PadS2)*
X42350996Y29600006D03*
G04 #@! TO.P,M3,S3,IN_D2*
G04 #@! TO.N,unconnected-(M3-IN_D2-PadS3)*
X42350996Y30800003D03*
G04 #@! TO.P,M3,S4,IN_D1*
G04 #@! TO.N,unconnected-(M3-IN_D1-PadS4)*
X42350994Y32000003D03*
G04 #@! TO.P,M3,S5,VREF2*
G04 #@! TO.N,unconnected-(M3-VREF2-PadS5)*
X42350996Y33200003D03*
G04 #@! TO.P,M3,S6,IN_SENS4*
G04 #@! TO.N,unconnected-(M3-IN_SENS4-PadS6)*
X42350996Y34299991D03*
G04 #@! TO.P,M3,S7,IN_SENS3*
G04 #@! TO.N,unconnected-(M3-IN_SENS3-PadS7)*
X42350996Y35499991D03*
G04 #@! TO.P,M3,S8,IN_SENS2*
G04 #@! TO.N,unconnected-(M3-IN_SENS2-PadS8)*
X42350994Y36699989D03*
G04 #@! TO.P,M3,S9,IN_SENS1*
G04 #@! TO.N,MCU_KNOCK_R*
X42350996Y37899989D03*
G04 #@! TO.P,M3,S10,IN_AUX4*
G04 #@! TO.N,unconnected-(M3-IN_AUX4-PadS10)*
X42350996Y39099992D03*
G04 #@! TO.P,M3,S11,IN_AUX3*
G04 #@! TO.N,H2OSPC*
X42350994Y40299994D03*
G04 #@! TO.P,M3,S12,IN_AUX2*
G04 #@! TO.N,unconnected-(M3-IN_AUX2-PadS12)*
X42350996Y41499992D03*
G04 #@! TO.P,M3,S13,IN_AUX1*
G04 #@! TO.N,ETS*
X42350996Y42699990D03*
G04 #@! TO.P,M3,S14,IN_RES2*
G04 #@! TO.N,unconnected-(M3-IN_RES2-PadS14)*
X42350996Y43899997D03*
G04 #@! TO.P,M3,S15,IN_O2S2*
G04 #@! TO.N,H2OS2*
X42350996Y45099997D03*
G04 #@! TO.P,M3,S16,IN_O2S*
G04 #@! TO.N,H2OS1*
X42350996Y46299995D03*
G04 #@! TO.P,M3,S17,IN_RES1*
G04 #@! TO.N,IN_JSS*
X42350996Y47499995D03*
G04 #@! TO.P,M3,S18,IN_RES3*
G04 #@! TO.N,unconnected-(M3-IN_RES3-PadS18)*
X42350996Y48700000D03*
G04 #@! TO.P,M3,S19,IN_MAP3*
G04 #@! TO.N,unconnected-(M3-IN_MAP3-PadS19)*
X42350996Y49900001D03*
G04 #@! TO.P,M3,S20,IN_MAP2*
G04 #@! TO.N,unconnected-(M3-IN_MAP2-PadS20)*
X42350994Y51099998D03*
G04 #@! TO.P,M3,S21,IN_MAP1*
G04 #@! TO.N,IN_MAP*
X42350996Y52299998D03*
G04 #@! TO.P,M3,S22,IN_CRANK*
G04 #@! TO.N,IN_CRANK*
X42350994Y53500001D03*
G04 #@! TO.P,M3,S23,IN_KNOCK*
G04 #@! TO.N,MCU_KNOCK_F*
X42350996Y54700001D03*
G04 #@! TO.P,M3,S24,IN_CAM*
G04 #@! TO.N,unconnected-(M3-IN_CAM-PadS24)*
X42350996Y55899996D03*
G04 #@! TO.P,M3,S25,IN_VSS*
G04 #@! TO.N,unconnected-(M3-IN_VSS-PadS25)*
X42350994Y57099999D03*
G04 #@! TO.P,M3,S26,IN_IAT*
G04 #@! TO.N,IN_IAT*
X42350996Y58300004D03*
G04 #@! TO.P,M3,S27,IN_AT1*
G04 #@! TO.N,IN_AAT*
X42350994Y59500004D03*
G04 #@! TO.P,M3,S28,IN_CLT*
G04 #@! TO.N,IN_CLT*
X42350996Y60700002D03*
G04 #@! TO.P,M3,S29,IN_AT2*
G04 #@! TO.N,unconnected-(M3-IN_AT2-PadS29)*
X42350996Y61900002D03*
G04 #@! TO.P,M3,S30,IN_TPS*
G04 #@! TO.N,IN_TPS*
X42350996Y63100007D03*
G04 #@! TO.P,M3,S31,IN_PPS*
G04 #@! TO.N,IN_PPS*
X42350996Y64300007D03*
G04 #@! TO.P,M3,S32,IN_TPS2*
G04 #@! TO.N,IN_TPS2*
X42350996Y65500005D03*
G04 #@! TO.P,M3,S33,IN_PPS2*
G04 #@! TO.N,IN_PPS2*
X42350996Y66700005D03*
G04 #@! TO.P,M3,S35,VREF1*
G04 #@! TO.N,unconnected-(M3-VREF1-PadS35)*
X42350996Y69100005D03*
G04 #@! TO.P,M3,W1,GNDA*
G04 #@! TO.N,GNDA*
X44850999Y69500007D03*
G04 #@! TO.P,M3,W2,V5A_SWITCHABLE*
G04 #@! TO.N,+5VA*
X45851000Y69500007D03*
G04 #@! TO.P,M3,W3,V33_REF*
G04 #@! TO.N,unconnected-(M3-V33_REF-PadW3)*
X52251002Y69500005D03*
G04 #@! TO.P,M3,W4,IGN8*
G04 #@! TO.N,unconnected-(M3-IGN8-PadW4)*
X59250998Y69500005D03*
G04 #@! TO.P,M3,W5,IGN7*
G04 #@! TO.N,unconnected-(M3-IGN7-PadW5)*
X60250999Y69500005D03*
G04 #@! TO.P,M3,W6,IGN6*
G04 #@! TO.N,unconnected-(M3-IGN6-PadW6)*
X61250997Y69500005D03*
G04 #@! TO.P,M3,W7,IGN5*
G04 #@! TO.N,unconnected-(M3-IGN5-PadW7)*
X62250997Y69500005D03*
G04 #@! TO.P,M3,W8,IGN4*
G04 #@! TO.N,unconnected-(M3-IGN4-PadW8)*
X63250998Y69500005D03*
G04 #@! TO.P,M3,W9,IGN3*
G04 #@! TO.N,unconnected-(M3-IGN3-PadW9)*
X64250996Y69500005D03*
G04 #@! TO.P,M3,W10,IGN2*
G04 #@! TO.N,MCUIGN_2*
X65250996Y69500005D03*
G04 #@! TO.P,M3,W11,IGN1*
G04 #@! TO.N,MCUIGN_1*
X66250994Y69500005D03*
G04 #@! TO.P,M3,W12,CANH*
G04 #@! TO.N,CAN_H*
X69350998Y69500005D03*
G04 #@! TO.P,M3,W13,CANL*
G04 #@! TO.N,CAN_L*
X70150999Y69500005D03*
G04 #@! TD*
G04 #@! TO.P,M4,E1,HALL_EN*
G04 #@! TO.N,unconnected-(M4-HALL_EN-PadE1)*
X39075000Y40479000D03*
G04 #@! TO.P,M4,E2,NC*
G04 #@! TO.N,unconnected-(M4-NC-PadE2)*
X39075000Y39279000D03*
G04 #@! TO.P,M4,E3,OUT*
G04 #@! TO.N,IN_CRANK*
X39075000Y41679000D03*
G04 #@! TO.P,M4,E4,V5_IN*
G04 #@! TO.N,unconnected-(M4-V5_IN-PadE4)*
X39075000Y42879000D03*
D23*
G04 #@! TO.P,M4,G,GND*
G04 #@! TO.N,GND*
X24425000Y40211500D03*
D24*
X24425000Y34161500D03*
D25*
X31437500Y43179000D03*
D26*
X31850000Y33729000D03*
D27*
X39275000Y36191500D03*
D10*
G04 #@! TO.P,M4,W1,VR-/HALL*
G04 #@! TO.N,CRANK_LOW*
X24650000Y36419000D03*
G04 #@! TO.P,M4,W2,VR+*
G04 #@! TO.N,CRANK_HIGH*
X24650000Y35419000D03*
G04 #@! TD*
D28*
G04 #@! TO.P,M2,E1,VBAT*
G04 #@! TO.N,unconnected-(M2-VBAT-PadE1)*
X57658995Y94922999D03*
G04 #@! TO.P,M2,E2,V12*
G04 #@! TO.N,+12V*
X57658995Y88523002D03*
G04 #@! TO.P,M2,E3,VIGN*
G04 #@! TO.N,VIGN*
X57658995Y86622999D03*
G04 #@! TO.P,M2,E4,V5*
G04 #@! TO.N,+5V*
X57658995Y82322999D03*
D10*
G04 #@! TO.P,M2,E5,EN_5VP*
G04 #@! TO.N,PWR_EN*
X58108994Y79923002D03*
G04 #@! TO.P,M2,E6,PG_5VP*
G04 #@! TO.N,unconnected-(M2-PG_5VP-PadE6)*
X58108994Y78923001D03*
D29*
G04 #@! TO.P,M2,S1,GND*
G04 #@! TO.N,GND*
X41508999Y91072999D03*
D30*
X41508999Y82573001D03*
D31*
X41508999Y75472999D03*
D32*
X49908997Y75422999D03*
D33*
X50708998Y96022999D03*
D28*
X57658995Y76072999D03*
D31*
X58308996Y95972999D03*
D34*
X58308996Y91773001D03*
D35*
X58308996Y84422999D03*
D36*
X58308996Y80923002D03*
D37*
X58308996Y77623001D03*
D28*
G04 #@! TO.P,M2,V1,V12_PERM*
G04 #@! TO.N,+12V_BAT*
X42158998Y95373001D03*
G04 #@! TO.P,M2,V2,IN_VIGN*
G04 #@! TO.N,+12V_PSP*
X42158998Y93523002D03*
G04 #@! TO.P,M2,V3,V12_RAW*
G04 #@! TO.N,+12V_BAT*
X42158998Y88572999D03*
G04 #@! TO.P,M2,V4,5VP*
G04 #@! TO.N,+5VP*
X42158998Y76523001D03*
G04 #@! TD*
D38*
G04 #@! TO.P,J2,1,Pin_1*
G04 #@! TO.N,GND*
X92441000Y74290000D03*
D39*
G04 #@! TO.P,J2,2,Pin_2*
G04 #@! TO.N,DEBUG_RX*
X89901000Y74290000D03*
G04 #@! TO.P,J2,3,Pin_3*
G04 #@! TO.N,DEBUG_TX*
X87361000Y74290000D03*
G04 #@! TD*
D10*
G04 #@! TO.P,M6,E1,V5A*
G04 #@! TO.N,unconnected-(M6-V5A-PadE1)*
X34193000Y47810998D03*
D40*
G04 #@! TO.P,M6,E2,GND*
G04 #@! TO.N,GND*
X25293000Y45835998D03*
D41*
X29843000Y48410998D03*
X29843000Y45310998D03*
D10*
X34193000Y46860998D03*
G04 #@! TO.P,M6,E3,OUT_KNOCK*
G04 #@! TO.N,MCU_KNOCK_R*
X34193000Y45911000D03*
G04 #@! TO.P,M6,W1,IN_KNOCK*
G04 #@! TO.N,RAW_KNOCK_R*
X25493000Y46910998D03*
G04 #@! TO.P,M6,W2,VREF*
G04 #@! TO.N,unconnected-(M6-VREF-PadW2)*
X25493000Y47810998D03*
G04 #@! TD*
D42*
G04 #@! TO.P,J1,1,CFC*
G04 #@! TO.N,CFC*
X9650000Y83200000D03*
G04 #@! TO.P,J1,2,GND*
G04 #@! TO.N,GND*
X9650000Y77400000D03*
G04 #@! TO.P,J1,3,GND*
X11980000Y80300000D03*
G04 #@! TO.P,J1,4,CPC*
G04 #@! TO.N,CPC*
X17780000Y83200000D03*
G04 #@! TO.P,J1,5,PSP1*
G04 #@! TO.N,+12V_PSP*
X17780000Y77400000D03*
D43*
G04 #@! TO.P,J1,6,FFI*
G04 #@! TO.N,INJ_1*
X17780000Y23780000D03*
G04 #@! TO.P,J1,7,RFI*
G04 #@! TO.N,INJ_2*
X17780000Y26320000D03*
G04 #@! TO.P,J1,8,RACRE*
G04 #@! TO.N,ACR_2*
X17780000Y28860000D03*
G04 #@! TO.P,J1,9,9*
G04 #@! TO.N,unconnected-(J1-Pad9)*
X17780000Y31400000D03*
G04 #@! TO.P,J1,10,10*
G04 #@! TO.N,unconnected-(J1-Pad10)*
X17780000Y33940000D03*
G04 #@! TO.P,J1,11,CKPSL*
G04 #@! TO.N,CRANK_LOW*
X17780000Y36480000D03*
G04 #@! TO.P,J1,12,12*
G04 #@! TO.N,unconnected-(J1-Pad12)*
X17780000Y39020000D03*
G04 #@! TO.P,J1,13,13*
G04 #@! TO.N,unconnected-(J1-Pad13)*
X17780000Y41560000D03*
G04 #@! TO.P,J1,14,FHO2HG*
G04 #@! TO.N,GND*
X17780000Y44100000D03*
G04 #@! TO.P,J1,15,15*
G04 #@! TO.N,unconnected-(J1-Pad15)*
X17780000Y46640000D03*
G04 #@! TO.P,J1,16,PRGSEL*
G04 #@! TO.N,unconnected-(J1-PRGSEL-Pad16)*
X17780000Y49180000D03*
G04 #@! TO.P,J1,17,FIVVTC*
G04 #@! TO.N,unconnected-(J1-FIVVTC-Pad17)*
X17780000Y51720000D03*
G04 #@! TO.P,J1,18,18*
G04 #@! TO.N,unconnected-(J1-Pad18)*
X17780000Y54260000D03*
G04 #@! TO.P,J1,19,19*
G04 #@! TO.N,unconnected-(J1-Pad19)*
X17780000Y56800000D03*
G04 #@! TO.P,J1,20,ETCL*
G04 #@! TO.N,ETC_OUT_M*
X17780000Y59340000D03*
G04 #@! TO.P,J1,21,ETCH*
G04 #@! TO.N,ETC_OUT_P*
X17780000Y61880000D03*
G04 #@! TO.P,J1,22,22*
G04 #@! TO.N,unconnected-(J1-Pad22)*
X17780000Y64420000D03*
G04 #@! TO.P,J1,23,RHO2HG*
G04 #@! TO.N,GND*
X17780000Y66960000D03*
G04 #@! TO.P,J1,24,FIC*
G04 #@! TO.N,IGN_1*
X17780000Y69500000D03*
G04 #@! TO.P,J1,25,FACRE*
G04 #@! TO.N,ACR_1*
X15240000Y23780000D03*
G04 #@! TO.P,J1,26,PCHO2SB1*
G04 #@! TO.N,H2OSPC*
X15240000Y26320000D03*
G04 #@! TO.P,J1,27,TPS2*
G04 #@! TO.N,IN_TPS2*
X15240000Y28860000D03*
G04 #@! TO.P,J1,28,PSP2*
G04 #@! TO.N,unconnected-(J1-PSP2-Pad28)*
X15240000Y31400000D03*
G04 #@! TO.P,J1,29,5VSNSGND1*
G04 #@! TO.N,GND*
X15240000Y33940000D03*
G04 #@! TO.P,J1,30,CKPSH*
G04 #@! TO.N,CRANK_HIGH*
X15240000Y36480000D03*
G04 #@! TO.P,J1,31,FLS*
G04 #@! TO.N,unconnected-(J1-FLS-Pad31)*
X15240000Y39020000D03*
G04 #@! TO.P,J1,32,OPS*
G04 #@! TO.N,unconnected-(J1-OPS-Pad32)*
X15240000Y41560000D03*
G04 #@! TO.P,J1,33,33*
G04 #@! TO.N,unconnected-(J1-Pad33)*
X15240000Y44100000D03*
G04 #@! TO.P,J1,34,JSS*
G04 #@! TO.N,IN_JSS*
X15240000Y46640000D03*
G04 #@! TO.P,J1,35,35*
G04 #@! TO.N,unconnected-(J1-Pad35)*
X15240000Y49180000D03*
G04 #@! TO.P,J1,36,FKSH*
G04 #@! TO.N,RAW_KNOCK_F*
X15240000Y51720000D03*
G04 #@! TO.P,J1,37,FKSL*
G04 #@! TO.N,unconnected-(J1-FKSL-Pad37)*
X15240000Y54260000D03*
G04 #@! TO.P,J1,38,CANL1*
G04 #@! TO.N,CAN_L*
X15240000Y56800000D03*
G04 #@! TO.P,J1,39,CANH1*
G04 #@! TO.N,CAN_H*
X15240000Y59340000D03*
G04 #@! TO.P,J1,40,40*
G04 #@! TO.N,unconnected-(J1-Pad40)*
X15240000Y61880000D03*
G04 #@! TO.P,J1,41,TGS1*
G04 #@! TO.N,IN_PPS*
X15240000Y64420000D03*
G04 #@! TO.P,J1,42,TGS2*
G04 #@! TO.N,IN_PPS2*
X15240000Y66960000D03*
G04 #@! TO.P,J1,43,RIC*
G04 #@! TO.N,IGN_2*
X15240000Y69500000D03*
G04 #@! TO.P,J1,44,CFFC*
G04 #@! TO.N,unconnected-(J1-CFFC-Pad44)*
X9190000Y23780000D03*
G04 #@! TO.P,J1,45,RKSH*
G04 #@! TO.N,RAW_KNOCK_R*
X9190000Y26320000D03*
G04 #@! TO.P,J1,46,RKSL*
G04 #@! TO.N,unconnected-(J1-RKSL-Pad46)*
X9190000Y28860000D03*
G04 #@! TO.P,J1,47,FHO2SB1*
G04 #@! TO.N,H2OS1*
X9190000Y31400000D03*
G04 #@! TO.P,J1,48,RHO2SB2*
G04 #@! TO.N,H2OS2*
X9190000Y33940000D03*
G04 #@! TO.P,J1,49,CLT*
G04 #@! TO.N,IN_CLT*
X9190000Y36480000D03*
G04 #@! TO.P,J1,50,50*
G04 #@! TO.N,unconnected-(J1-Pad50)*
X9190000Y39020000D03*
G04 #@! TO.P,J1,51,51*
G04 #@! TO.N,unconnected-(J1-Pad51)*
X9190000Y41560000D03*
G04 #@! TO.P,J1,52,TPS1*
G04 #@! TO.N,IN_TPS*
X9190000Y44100000D03*
G04 #@! TO.P,J1,53,MAP*
G04 #@! TO.N,IN_MAP*
X9190000Y46640000D03*
G04 #@! TO.P,J1,54,54*
G04 #@! TO.N,unconnected-(J1-Pad54)*
X9190000Y49180000D03*
G04 #@! TO.P,J1,55,ETS*
G04 #@! TO.N,ETS*
X9190000Y51720000D03*
G04 #@! TO.P,J1,56,56*
G04 #@! TO.N,unconnected-(J1-Pad56)*
X9190000Y54260000D03*
G04 #@! TO.P,J1,57,57*
G04 #@! TO.N,unconnected-(J1-Pad57)*
X9190000Y56800000D03*
G04 #@! TO.P,J1,58,58*
G04 #@! TO.N,unconnected-(J1-Pad58)*
X9190000Y59340000D03*
G04 #@! TO.P,J1,59,59*
G04 #@! TO.N,unconnected-(J1-Pad59)*
X9190000Y61880000D03*
G04 #@! TO.P,J1,60,60*
G04 #@! TO.N,unconnected-(J1-Pad60)*
X9190000Y64420000D03*
G04 #@! TO.P,J1,61,61*
G04 #@! TO.N,unconnected-(J1-Pad61)*
X9190000Y66960000D03*
G04 #@! TO.P,J1,62,62*
G04 #@! TO.N,unconnected-(J1-Pad62)*
X9190000Y69500000D03*
G04 #@! TO.P,J1,63,63*
G04 #@! TO.N,unconnected-(J1-Pad63)*
X6650000Y23780000D03*
G04 #@! TO.P,J1,64,64*
G04 #@! TO.N,unconnected-(J1-Pad64)*
X6650000Y26320000D03*
G04 #@! TO.P,J1,65,PCH2OSG*
G04 #@! TO.N,GND*
X6650000Y28860000D03*
G04 #@! TO.P,J1,66,66*
G04 #@! TO.N,unconnected-(J1-Pad66)*
X6650000Y31400000D03*
G04 #@! TO.P,J1,67,BATFU*
G04 #@! TO.N,+12V_BAT*
X6650000Y33940000D03*
G04 #@! TO.P,J1,68,68*
G04 #@! TO.N,unconnected-(J1-Pad68)*
X6650000Y36480000D03*
G04 #@! TO.P,J1,69,69*
G04 #@! TO.N,unconnected-(J1-Pad69)*
X6650000Y39020000D03*
G04 #@! TO.P,J1,70,5VPS1*
G04 #@! TO.N,unconnected-(J1-5VPS1-Pad70)*
X6650000Y41560000D03*
G04 #@! TO.P,J1,71,AAT*
G04 #@! TO.N,IN_AAT*
X6650000Y44100000D03*
G04 #@! TO.P,J1,72,IAT*
G04 #@! TO.N,IN_IAT*
X6650000Y46640000D03*
G04 #@! TO.P,J1,73,73*
G04 #@! TO.N,unconnected-(J1-Pad73)*
X6650000Y49180000D03*
G04 #@! TO.P,J1,74,5VSNSGND2*
G04 #@! TO.N,GND*
X6650000Y51720000D03*
G04 #@! TO.P,J1,75,75*
G04 #@! TO.N,unconnected-(J1-Pad75)*
X6650000Y54260000D03*
G04 #@! TO.P,J1,76,76*
G04 #@! TO.N,unconnected-(J1-Pad76)*
X6650000Y56800000D03*
G04 #@! TO.P,J1,77,FICMPSNS*
G04 #@! TO.N,unconnected-(J1-FICMPSNS-Pad77)*
X6650000Y59340000D03*
G04 #@! TO.P,J1,78,GEARSENS*
G04 #@! TO.N,unconnected-(J1-GEARSENS-Pad78)*
X6650000Y61880000D03*
G04 #@! TO.P,J1,79,79*
G04 #@! TO.N,unconnected-(J1-Pad79)*
X6650000Y64420000D03*
G04 #@! TO.P,J1,80,PCHO2SHTR*
G04 #@! TO.N,unconnected-(J1-PCHO2SHTR-Pad80)*
X6650000Y66960000D03*
G04 #@! TO.P,J1,81,81*
G04 #@! TO.N,unconnected-(J1-Pad81)*
X6650000Y69500000D03*
G04 #@! TD*
D10*
G04 #@! TO.P,M5,E1,V5A*
G04 #@! TO.N,unconnected-(M5-V5A-PadE1)*
X34243000Y51268000D03*
D40*
G04 #@! TO.P,M5,E2,GND*
G04 #@! TO.N,GND*
X25343000Y49293000D03*
D41*
X29893000Y51868000D03*
X29893000Y48768000D03*
D10*
X34243000Y50318000D03*
G04 #@! TO.P,M5,E3,OUT_KNOCK*
G04 #@! TO.N,MCU_KNOCK_F*
X34243000Y49368002D03*
G04 #@! TO.P,M5,W1,IN_KNOCK*
G04 #@! TO.N,RAW_KNOCK_F*
X25543000Y50368000D03*
G04 #@! TO.P,M5,W2,VREF*
G04 #@! TO.N,unconnected-(M5-VREF-PadW2)*
X25543000Y51268000D03*
G04 #@! TD*
D44*
G04 #@! TO.N,IN_TPS2*
X40132000Y56642000D03*
G04 #@! TO.N,IN_CLT*
X29718000Y61468000D03*
G04 #@! TO.N,IN_MAP*
X21590000Y43688000D03*
X39878000Y50800000D03*
G04 #@! TO.N,ETS*
X21590000Y34544000D03*
X33020000Y32512000D03*
G04 #@! TO.N,IN_TPS*
X21050000Y63100007D03*
G04 #@! TO.N,GND*
X18852231Y45324847D03*
X80350000Y23550000D03*
X48900000Y11950000D03*
X16516326Y45377623D03*
X16510000Y68072000D03*
D45*
X63500000Y97790000D03*
D44*
X85400000Y24500000D03*
X37800000Y21900000D03*
D45*
X36576000Y79490000D03*
D44*
X45466000Y17272000D03*
X16510000Y42926000D03*
X88200000Y22900000D03*
D45*
X66802000Y97790000D03*
D44*
X92456000Y14986000D03*
X37650000Y12100000D03*
X18899251Y42898649D03*
D45*
X32273800Y71790000D03*
D44*
X82804000Y56134000D03*
X82804000Y60198000D03*
X86500000Y27100000D03*
X48850000Y21950000D03*
X50700000Y26100000D03*
X93200000Y27100000D03*
D45*
X36576000Y71790000D03*
D44*
X21590000Y41402000D03*
X57800000Y22600000D03*
X21590000Y52324000D03*
X37700000Y17200000D03*
D45*
X34394200Y78232000D03*
D44*
X60650000Y17850000D03*
D45*
X34394200Y80772000D03*
X65024000Y99822000D03*
D44*
X89750000Y24200000D03*
X54400000Y19850000D03*
X87550000Y32700000D03*
D45*
G04 #@! TO.N,ETC_OUT_P*
X36957000Y53467000D03*
D44*
G04 #@! TO.N,+3V3SW*
X78994000Y78994000D03*
X84328000Y74930000D03*
X93726000Y77470000D03*
X87122000Y58671004D03*
X87402000Y99822000D03*
D45*
G04 #@! TO.N,ETC_OUT_M*
X20950544Y56169456D03*
D44*
G04 #@! TO.N,VIGN*
X85598000Y55118000D03*
X85598000Y58928000D03*
D45*
G04 #@! TO.N,+12V_BAT*
X3302000Y84836000D03*
D44*
G04 #@! TO.N,UART_BT_TX*
X77470000Y88650000D03*
X80610000Y78994000D03*
G04 #@! TO.N,MCU_KNOCK_R*
X41400000Y45400000D03*
G04 #@! TO.N,MCUIGN_2*
X62484000Y74930000D03*
G04 #@! TO.N,MCU_CFC*
X23559000Y89091000D03*
G04 #@! TO.N,MCU_CPC*
X22544859Y88105143D03*
G04 #@! TO.N,IN_JSS*
X39370000Y46736000D03*
G04 #@! TO.N,ETC_DIR*
X38862000Y24566000D03*
X19812000Y53848000D03*
G04 #@! TO.N,ETC_PWM*
X40640000Y67564000D03*
X86614000Y52832000D03*
G04 #@! TD*
D46*
G04 #@! TO.N,IN_IAT*
X6223000Y58166000D02*
X42216992Y58166000D01*
X42216992Y58166000D02*
X42350996Y58300004D01*
X5334000Y57277000D02*
X6223000Y58166000D01*
X5334000Y47966000D02*
X5334000Y57277000D01*
X6660000Y46640000D02*
X5334000Y47966000D01*
G04 #@! TO.N,IN_TPS2*
X23368000Y35052000D02*
X18276000Y29960000D01*
X16350000Y29960000D02*
X15250000Y28860000D01*
X23368000Y51054000D02*
X23368000Y35052000D01*
X40132000Y56642000D02*
X40132000Y53848000D01*
X18276000Y29960000D02*
X16350000Y29960000D01*
X24892000Y52578000D02*
X23368000Y51054000D01*
X38862000Y52578000D02*
X24892000Y52578000D01*
X40132000Y53848000D02*
X38862000Y52578000D01*
G04 #@! TO.N,IN_CLT*
X41582998Y61468000D02*
X42350996Y60700002D01*
X29718000Y61468000D02*
X41582998Y61468000D01*
G04 #@! TO.N,IN_PPS2*
X41436991Y65786000D02*
X16510000Y65786000D01*
X16424000Y65786000D02*
X15250000Y66960000D01*
X16510000Y65786000D02*
X16424000Y65786000D01*
X42350996Y66700005D02*
X41436991Y65786000D01*
G04 #@! TO.N,IN_MAP*
X14224000Y40386000D02*
X12700000Y41910000D01*
X12700000Y41910000D02*
X12700000Y45466000D01*
X11526000Y46640000D02*
X9200000Y46640000D01*
X18288000Y40386000D02*
X14224000Y40386000D01*
X12700000Y45466000D02*
X11526000Y46640000D01*
X41377998Y52299998D02*
X42350996Y52299998D01*
X21590000Y43688000D02*
X18288000Y40386000D01*
X39878000Y50800000D02*
X41377998Y52299998D01*
G04 #@! TO.N,ETS*
X20998315Y50375685D02*
X12616315Y50375685D01*
X11272000Y51720000D02*
X9200000Y51720000D01*
X21590000Y34544000D02*
X22606000Y35560000D01*
X12616315Y50375685D02*
X11272000Y51720000D01*
X22606000Y48768000D02*
X20998315Y50375685D01*
X22606000Y35560000D02*
X22606000Y48768000D01*
G04 #@! TO.N,IN_PPS*
X16350000Y63320000D02*
X18870000Y63320000D01*
X19850007Y64300007D02*
X42350996Y64300007D01*
X15250000Y64420000D02*
X16350000Y63320000D01*
X18870000Y63320000D02*
X19850007Y64300007D01*
G04 #@! TO.N,IN_TPS*
X21050000Y63100007D02*
X42350996Y63100007D01*
G04 #@! TO.N,Net-(M1-SWCLK)*
X90700000Y38899998D02*
X87921998Y38899998D01*
X82422003Y33400003D02*
X81851001Y33400003D01*
X87921998Y38899998D02*
X82422003Y33400003D01*
G04 #@! TO.N,Net-(M1-SWDIO)*
X81850999Y32600002D02*
X82638002Y32600002D01*
X87838000Y37800000D02*
X90700000Y37800000D01*
X82638002Y32600002D02*
X87838000Y37800000D01*
G04 #@! TO.N,Net-(M1-nReset)*
X88075257Y39999995D02*
X90700000Y39999995D01*
X81850999Y34200001D02*
X82275263Y34200001D01*
X82275263Y34200001D02*
X88075257Y39999995D01*
G04 #@! TO.N,Net-(M1-SWO)*
X81850999Y31800004D02*
X82854004Y31800004D01*
X87754002Y36700002D02*
X90700000Y36700002D01*
X82854004Y31800004D02*
X87754002Y36700002D01*
G04 #@! TO.N,UART_BT_TX*
X77470000Y88650000D02*
X77470000Y82804000D01*
X77470000Y82804000D02*
X80610000Y79664000D01*
X80610000Y79664000D02*
X80610000Y78994000D01*
G04 #@! TO.N,MCU_KNOCK_R*
X35497000Y45911000D02*
X34193000Y45911000D01*
X36008000Y45400000D02*
X35497000Y45911000D01*
X41400000Y45400000D02*
X36008000Y45400000D01*
G04 #@! TO.N,unconnected-(M6-V5A-PadE1)*
X34384000Y47752000D02*
X34193000Y47943000D01*
G04 #@! TO.N,H2OS2*
X14085999Y27570001D02*
X36460001Y27570001D01*
X12446000Y30694000D02*
X12446000Y29210000D01*
X41002000Y43751001D02*
X42350996Y45099997D01*
X9200000Y33940000D02*
X12446000Y30694000D01*
X41002000Y32112000D02*
X41002000Y43751001D01*
X12446000Y29210000D02*
X14085999Y27570001D01*
X36460001Y27570001D02*
X41002000Y32112000D01*
G04 #@! TO.N,IN_AAT*
X19457817Y60440000D02*
X20097817Y59800000D01*
X6660000Y44100000D02*
X4826000Y45934000D01*
X5576000Y60440000D02*
X19457817Y60440000D01*
X4826000Y59690000D02*
X5576000Y60440000D01*
X20097817Y59800000D02*
X42050998Y59800000D01*
X42050998Y59800000D02*
X42350994Y59500004D01*
X4826000Y45934000D02*
X4826000Y59690000D01*
G04 #@! TO.N,H2OSPC*
X42350994Y40299994D02*
X41402000Y39351000D01*
X16488157Y25091843D02*
X15260000Y26320000D01*
X35251843Y25091843D02*
X16488157Y25091843D01*
X41402000Y39351000D02*
X41402000Y31242000D01*
X41402000Y31242000D02*
X35251843Y25091843D01*
G04 #@! TO.N,ETC_DIR*
X68850994Y27800007D02*
X68850994Y27638336D01*
X68850994Y27638336D02*
X65850658Y24638000D01*
X65850658Y24638000D02*
X38862000Y24638000D01*
G04 #@! TO.N,ETC_PWM*
X43572991Y71882000D02*
X40640000Y68949009D01*
X40640000Y68949009D02*
X40640000Y67564000D01*
X86614000Y52832000D02*
X86542000Y52904000D01*
X86542000Y67890000D02*
X82550000Y71882000D01*
X82550000Y71882000D02*
X67310000Y71882000D01*
X67310000Y71882000D02*
X43572991Y71882000D01*
X86542000Y52904000D02*
X86542000Y67890000D01*
G04 #@! TD*
G04 #@! TA.AperFunction,Conductor*
G04 #@! TO.N,GND*
G36*
X7729024Y28134529D02*
G01*
X7780133Y28207518D01*
X7807341Y28265865D01*
X7853513Y28318304D01*
X7920707Y28337457D01*
X7987588Y28317242D01*
X8032105Y28265868D01*
X8059432Y28207266D01*
X8083191Y28173335D01*
X8189954Y28020859D01*
X8350858Y27859955D01*
X8350861Y27859953D01*
X8537266Y27729432D01*
X8594681Y27702659D01*
X8595275Y27702382D01*
X8647714Y27656209D01*
X8666866Y27589016D01*
X8646650Y27522135D01*
X8595275Y27477618D01*
X8537267Y27450569D01*
X8537265Y27450568D01*
X8350858Y27320046D01*
X8189954Y27159142D01*
X8059432Y26972735D01*
X8059431Y26972733D01*
X8032382Y26914725D01*
X7986209Y26862286D01*
X7919016Y26843134D01*
X7852135Y26863350D01*
X7807618Y26914725D01*
X7801526Y26927789D01*
X7780568Y26972734D01*
X7650047Y27159139D01*
X7650045Y27159142D01*
X7489141Y27320046D01*
X7382546Y27394683D01*
X7302734Y27450568D01*
X7244132Y27477895D01*
X7191694Y27524067D01*
X7172543Y27591261D01*
X7192759Y27658142D01*
X7244135Y27702659D01*
X7302482Y27729867D01*
X7375471Y27780976D01*
X6820234Y28336213D01*
X6862292Y28347482D01*
X6987708Y28419890D01*
X7090110Y28522292D01*
X7162518Y28647708D01*
X7173787Y28689766D01*
X7729024Y28134529D01*
G37*
G04 #@! TD.AperFunction*
G04 #@! TA.AperFunction,Conductor*
G36*
X24656769Y51391021D02*
G01*
X24712702Y51349149D01*
X24737119Y51283685D01*
X24737435Y51274839D01*
X24737435Y51267997D01*
X24757630Y51088751D01*
X24757633Y51088738D01*
X24817209Y50918481D01*
X24838893Y50883970D01*
X24857892Y50816733D01*
X24838893Y50752030D01*
X24817209Y50717520D01*
X24757633Y50547263D01*
X24757630Y50547250D01*
X24737435Y50368004D01*
X24737435Y50367997D01*
X24757630Y50188751D01*
X24757631Y50188746D01*
X24817211Y50018477D01*
X24894694Y49895165D01*
X24913184Y49865738D01*
X25040738Y49738184D01*
X25096520Y49703134D01*
X25193478Y49642211D01*
X25259954Y49618950D01*
X25316730Y49578228D01*
X25342478Y49513276D01*
X25343000Y49501908D01*
X25343000Y48751387D01*
X25356501Y48726661D01*
X25351517Y48656969D01*
X25309645Y48601036D01*
X25276290Y48583262D01*
X25143480Y48536790D01*
X24990737Y48440814D01*
X24863184Y48313261D01*
X24767211Y48160522D01*
X24707631Y47990253D01*
X24707630Y47990248D01*
X24687435Y47811002D01*
X24687435Y47810995D01*
X24707630Y47631749D01*
X24707633Y47631736D01*
X24767209Y47461479D01*
X24788893Y47426968D01*
X24807892Y47359731D01*
X24788893Y47295028D01*
X24767209Y47260518D01*
X24707633Y47090261D01*
X24707630Y47090248D01*
X24687435Y46911002D01*
X24687435Y46910995D01*
X24707630Y46731749D01*
X24707631Y46731744D01*
X24767211Y46561475D01*
X24842508Y46441642D01*
X24863184Y46408736D01*
X24990738Y46281182D01*
X25110862Y46205703D01*
X25143478Y46185209D01*
X25209954Y46161948D01*
X25266730Y46121226D01*
X25292478Y46056274D01*
X25293000Y46044906D01*
X25293000Y45310998D01*
X33609963Y45310998D01*
X33677002Y45291313D01*
X33687275Y45283946D01*
X33690738Y45281184D01*
X33786919Y45220749D01*
X33843478Y45185211D01*
X34013745Y45125632D01*
X34013750Y45125631D01*
X34192996Y45105435D01*
X34193000Y45105435D01*
X34193004Y45105435D01*
X34372249Y45125631D01*
X34372252Y45125632D01*
X34372255Y45125632D01*
X34542522Y45185211D01*
X34695262Y45281184D01*
X34695267Y45281190D01*
X34698097Y45283445D01*
X34700275Y45284335D01*
X34701158Y45284889D01*
X34701255Y45284735D01*
X34762783Y45309855D01*
X34775412Y45310500D01*
X35196903Y45310500D01*
X35263942Y45290815D01*
X35284584Y45274181D01*
X35523139Y45035626D01*
X35523149Y45035615D01*
X35527479Y45031285D01*
X35527480Y45031284D01*
X35639284Y44919480D01*
X35726095Y44869361D01*
X35726097Y44869359D01*
X35764151Y44847389D01*
X35776215Y44840423D01*
X35928943Y44799500D01*
X40817588Y44799500D01*
X40884627Y44779815D01*
X40894903Y44772445D01*
X40897734Y44770188D01*
X40897738Y44770184D01*
X40915057Y44759302D01*
X40934478Y44747098D01*
X40980769Y44694763D01*
X40991416Y44625709D01*
X40963040Y44561861D01*
X40956186Y44554424D01*
X40633286Y44231523D01*
X40521481Y44119719D01*
X40521477Y44119714D01*
X40507054Y44094730D01*
X40507053Y44094728D01*
X40442423Y43982786D01*
X40401499Y43830058D01*
X40401499Y43830056D01*
X40401499Y43661955D01*
X40401500Y43661942D01*
X40401500Y32412098D01*
X40381815Y32345059D01*
X40365181Y32324417D01*
X36247585Y28206820D01*
X36186262Y28173335D01*
X36159904Y28170501D01*
X19088066Y28170501D01*
X19021027Y28190186D01*
X18975272Y28242990D01*
X18965328Y28312148D01*
X18975684Y28346905D01*
X19006736Y28413498D01*
X19006739Y28413504D01*
X19065635Y28633308D01*
X19082634Y28827616D01*
X19085468Y28859999D01*
X19085468Y28860002D01*
X19075126Y28978211D01*
X19065635Y29086692D01*
X19006739Y29306496D01*
X18910568Y29512734D01*
X18910567Y29512736D01*
X18874454Y29564311D01*
X18852127Y29630517D01*
X18869137Y29698284D01*
X18888344Y29723111D01*
X21677238Y32512004D01*
X32214435Y32512004D01*
X32214435Y32511997D01*
X32234630Y32332751D01*
X32234631Y32332746D01*
X32294211Y32162477D01*
X32363167Y32052735D01*
X32390184Y32009738D01*
X32517738Y31882184D01*
X32670478Y31786211D01*
X32836498Y31728118D01*
X32840745Y31726632D01*
X32840750Y31726631D01*
X33019996Y31706435D01*
X33020000Y31706435D01*
X33020004Y31706435D01*
X33199249Y31726631D01*
X33199252Y31726632D01*
X33199255Y31726632D01*
X33369522Y31786211D01*
X33522262Y31882184D01*
X33649816Y32009738D01*
X33745789Y32162478D01*
X33805368Y32332745D01*
X33805369Y32332751D01*
X33825565Y32511997D01*
X33825565Y32512004D01*
X33805369Y32691250D01*
X33805368Y32691255D01*
X33789058Y32737865D01*
X33745789Y32861522D01*
X33649816Y33014262D01*
X33522262Y33141816D01*
X33406542Y33214528D01*
X33369523Y33237789D01*
X33199254Y33297369D01*
X33199249Y33297370D01*
X33020004Y33317565D01*
X33019996Y33317565D01*
X32840750Y33297370D01*
X32840745Y33297369D01*
X32670476Y33237789D01*
X32517737Y33141816D01*
X32390184Y33014263D01*
X32294211Y32861524D01*
X32234631Y32691255D01*
X32234630Y32691250D01*
X32214435Y32512004D01*
X21677238Y32512004D01*
X23726506Y34561272D01*
X23726511Y34561276D01*
X23736714Y34571480D01*
X23736716Y34571480D01*
X23848520Y34683284D01*
X23916004Y34800172D01*
X23966569Y34848385D01*
X24035176Y34861609D01*
X24100041Y34835641D01*
X24111071Y34825851D01*
X24147738Y34789184D01*
X24163720Y34779142D01*
X24300478Y34693211D01*
X24304795Y34691132D01*
X24356658Y34644313D01*
X24375000Y34579409D01*
X24375000Y33779000D01*
X39275000Y33779000D01*
X39275000Y38412908D01*
X39294685Y38479947D01*
X39347489Y38525702D01*
X39358046Y38529950D01*
X39365813Y38532668D01*
X39424522Y38553211D01*
X39577262Y38649184D01*
X39704816Y38776738D01*
X39800789Y38929478D01*
X39860368Y39099745D01*
X39869328Y39179268D01*
X39880565Y39278997D01*
X39880565Y39279004D01*
X39860369Y39458250D01*
X39860368Y39458255D01*
X39857484Y39466498D01*
X39800789Y39628522D01*
X39704816Y39781262D01*
X39694759Y39791319D01*
X39661274Y39852642D01*
X39666258Y39922334D01*
X39694759Y39966681D01*
X39704816Y39976738D01*
X39800789Y40129478D01*
X39860368Y40299745D01*
X39860369Y40299751D01*
X39880565Y40478997D01*
X39880565Y40479004D01*
X39860369Y40658250D01*
X39860368Y40658255D01*
X39837190Y40724495D01*
X39800789Y40828522D01*
X39704816Y40981262D01*
X39694759Y40991319D01*
X39661274Y41052642D01*
X39666258Y41122334D01*
X39694759Y41166681D01*
X39704816Y41176738D01*
X39800789Y41329478D01*
X39860368Y41499745D01*
X39865048Y41541283D01*
X39880565Y41678997D01*
X39880565Y41679004D01*
X39860369Y41858250D01*
X39860368Y41858255D01*
X39811934Y41996670D01*
X39800789Y42028522D01*
X39704816Y42181262D01*
X39694759Y42191319D01*
X39661274Y42252642D01*
X39666258Y42322334D01*
X39694759Y42366681D01*
X39704816Y42376738D01*
X39800789Y42529478D01*
X39860368Y42699745D01*
X39867584Y42763790D01*
X39880565Y42878997D01*
X39880565Y42879004D01*
X39860369Y43058250D01*
X39860368Y43058255D01*
X39845777Y43099953D01*
X39800789Y43228522D01*
X39795444Y43237028D01*
X39709047Y43374528D01*
X39704816Y43381262D01*
X39577262Y43508816D01*
X39424523Y43604789D01*
X39254254Y43664369D01*
X39254249Y43664370D01*
X39075004Y43684565D01*
X39074996Y43684565D01*
X38895750Y43664370D01*
X38895745Y43664369D01*
X38725476Y43604789D01*
X38572737Y43508816D01*
X38445184Y43381263D01*
X38354556Y43237028D01*
X38302221Y43190737D01*
X38249562Y43179000D01*
X24375000Y43179000D01*
X24375000Y37258592D01*
X24355315Y37191553D01*
X24304804Y37146873D01*
X24300480Y37144791D01*
X24158472Y37055561D01*
X24091235Y37036561D01*
X24024400Y37056929D01*
X23979186Y37110197D01*
X23968500Y37160555D01*
X23968500Y50753904D01*
X23988185Y50820943D01*
X24004815Y50841581D01*
X24525754Y51362521D01*
X24587077Y51396005D01*
X24656769Y51391021D01*
G37*
G04 #@! TD.AperFunction*
G04 #@! TA.AperFunction,Conductor*
G36*
X11292942Y46019815D02*
G01*
X11313584Y46003181D01*
X12063181Y45253584D01*
X12096666Y45192261D01*
X12099500Y45165903D01*
X12099500Y41996670D01*
X12099499Y41996652D01*
X12099499Y41830946D01*
X12099498Y41830946D01*
X12111911Y41784622D01*
X12140423Y41678215D01*
X12148939Y41663465D01*
X12219477Y41541288D01*
X12219481Y41541283D01*
X12338349Y41422415D01*
X12338355Y41422410D01*
X13739139Y40021626D01*
X13739149Y40021615D01*
X13743479Y40017285D01*
X13743480Y40017284D01*
X13855284Y39905480D01*
X13855286Y39905479D01*
X13855290Y39905476D01*
X13946803Y39852642D01*
X13992216Y39826423D01*
X14017377Y39819682D01*
X14077037Y39783318D01*
X14107567Y39720472D01*
X14099273Y39651096D01*
X14097666Y39647502D01*
X14013262Y39466498D01*
X14013258Y39466489D01*
X13954366Y39246698D01*
X13954364Y39246687D01*
X13934532Y39020002D01*
X13934532Y39019999D01*
X13954364Y38793314D01*
X13954366Y38793303D01*
X14013258Y38573512D01*
X14013261Y38573503D01*
X14109431Y38367268D01*
X14109432Y38367266D01*
X14239954Y38180859D01*
X14400858Y38019955D01*
X14400861Y38019953D01*
X14587266Y37889432D01*
X14645275Y37862382D01*
X14697714Y37816209D01*
X14716866Y37749016D01*
X14696650Y37682135D01*
X14645275Y37637618D01*
X14587267Y37610569D01*
X14587265Y37610568D01*
X14400858Y37480046D01*
X14239954Y37319142D01*
X14109432Y37132735D01*
X14109431Y37132733D01*
X14013261Y36926498D01*
X14013258Y36926489D01*
X13954366Y36706698D01*
X13954364Y36706687D01*
X13934532Y36480002D01*
X13934532Y36479999D01*
X13954364Y36253314D01*
X13954366Y36253303D01*
X14013258Y36033512D01*
X14013261Y36033503D01*
X14109431Y35827268D01*
X14109432Y35827266D01*
X14239954Y35640859D01*
X14400858Y35479955D01*
X14400861Y35479953D01*
X14587266Y35349432D01*
X14645865Y35322107D01*
X14698305Y35275935D01*
X14717457Y35208742D01*
X14697242Y35141861D01*
X14645867Y35097343D01*
X14587513Y35070132D01*
X14587512Y35070132D01*
X14514526Y35019027D01*
X14514526Y35019026D01*
X15069765Y34463788D01*
X15027708Y34452518D01*
X14902292Y34380110D01*
X14799890Y34277708D01*
X14727482Y34152292D01*
X14716212Y34110236D01*
X14160974Y34665474D01*
X14160973Y34665474D01*
X14109868Y34592488D01*
X14109866Y34592484D01*
X14013734Y34386327D01*
X14013730Y34386318D01*
X13954860Y34166611D01*
X13954858Y34166600D01*
X13935034Y33940003D01*
X13935034Y33939998D01*
X13954858Y33713401D01*
X13954860Y33713390D01*
X14013730Y33493683D01*
X14013735Y33493669D01*
X14109863Y33287522D01*
X14160974Y33214528D01*
X14716212Y33769766D01*
X14727482Y33727708D01*
X14799890Y33602292D01*
X14902292Y33499890D01*
X15027708Y33427482D01*
X15069765Y33416213D01*
X14514526Y32860975D01*
X14587513Y32809868D01*
X14587521Y32809864D01*
X14645864Y32782658D01*
X14698304Y32736486D01*
X14717456Y32669293D01*
X14697241Y32602411D01*
X14645866Y32557895D01*
X14587272Y32530572D01*
X14587265Y32530568D01*
X14400858Y32400046D01*
X14239954Y32239142D01*
X14109432Y32052735D01*
X14109431Y32052733D01*
X14013261Y31846498D01*
X14013258Y31846489D01*
X13954366Y31626698D01*
X13954364Y31626687D01*
X13934532Y31400002D01*
X13934532Y31399999D01*
X13954364Y31173314D01*
X13954366Y31173303D01*
X14013258Y30953512D01*
X14013261Y30953503D01*
X14109431Y30747268D01*
X14109432Y30747266D01*
X14239954Y30560859D01*
X14400858Y30399955D01*
X14400861Y30399953D01*
X14587266Y30269432D01*
X14645275Y30242382D01*
X14697714Y30196209D01*
X14716866Y30129016D01*
X14696650Y30062135D01*
X14645275Y30017618D01*
X14587267Y29990569D01*
X14587265Y29990568D01*
X14400858Y29860046D01*
X14239954Y29699142D01*
X14109432Y29512735D01*
X14109431Y29512733D01*
X14013261Y29306498D01*
X14013258Y29306489D01*
X13954366Y29086698D01*
X13954364Y29086688D01*
X13934434Y28858883D01*
X13908981Y28793815D01*
X13852391Y28752836D01*
X13782629Y28748958D01*
X13723225Y28782010D01*
X13082819Y29422416D01*
X13049334Y29483739D01*
X13046500Y29510097D01*
X13046500Y30773056D01*
X13045590Y30776455D01*
X13045587Y30776467D01*
X13005577Y30925785D01*
X12962727Y31000003D01*
X12926520Y31062716D01*
X12814716Y31174520D01*
X12810385Y31178851D01*
X12810374Y31178861D01*
X10484054Y33505181D01*
X10450569Y33566504D01*
X10451961Y33624957D01*
X10475633Y33713301D01*
X10475632Y33713301D01*
X10475635Y33713308D01*
X10495468Y33940000D01*
X10475635Y34166692D01*
X10416739Y34386496D01*
X10320568Y34592734D01*
X10190047Y34779139D01*
X10190045Y34779142D01*
X10029141Y34940046D01*
X9842734Y35070568D01*
X9842728Y35070571D01*
X9784725Y35097618D01*
X9732285Y35143790D01*
X9713133Y35210983D01*
X9733348Y35277865D01*
X9784725Y35322382D01*
X9842734Y35349432D01*
X10029139Y35479953D01*
X10190047Y35640861D01*
X10320568Y35827266D01*
X10416739Y36033504D01*
X10475635Y36253308D01*
X10495468Y36480000D01*
X10475635Y36706692D01*
X10430916Y36873585D01*
X10416741Y36926489D01*
X10416738Y36926498D01*
X10371575Y37023350D01*
X10320568Y37132734D01*
X10190047Y37319139D01*
X10190045Y37319142D01*
X10029141Y37480046D01*
X9842734Y37610568D01*
X9842728Y37610571D01*
X9784725Y37637618D01*
X9732285Y37683790D01*
X9713133Y37750983D01*
X9733348Y37817865D01*
X9784725Y37862382D01*
X9842734Y37889432D01*
X10029139Y38019953D01*
X10190047Y38180861D01*
X10320568Y38367266D01*
X10416739Y38573504D01*
X10475635Y38793308D01*
X10495468Y39020000D01*
X10475635Y39246692D01*
X10421030Y39450483D01*
X10416741Y39466489D01*
X10416738Y39466498D01*
X10344812Y39620743D01*
X10320568Y39672734D01*
X10190047Y39859139D01*
X10190045Y39859142D01*
X10029141Y40020046D01*
X9842734Y40150568D01*
X9842728Y40150571D01*
X9784725Y40177618D01*
X9732285Y40223790D01*
X9713133Y40290983D01*
X9733348Y40357865D01*
X9784725Y40402382D01*
X9842734Y40429432D01*
X10029139Y40559953D01*
X10190047Y40720861D01*
X10320568Y40907266D01*
X10416739Y41113504D01*
X10475635Y41333308D01*
X10492634Y41527616D01*
X10495468Y41559999D01*
X10495468Y41560002D01*
X10486416Y41663468D01*
X10475635Y41786692D01*
X10416739Y42006496D01*
X10320568Y42212734D01*
X10190047Y42399139D01*
X10190045Y42399142D01*
X10029141Y42560046D01*
X9842734Y42690568D01*
X9842728Y42690571D01*
X9784725Y42717618D01*
X9732285Y42763790D01*
X9713133Y42830983D01*
X9733348Y42897865D01*
X9784725Y42942382D01*
X9785319Y42942659D01*
X9842734Y42969432D01*
X10029139Y43099953D01*
X10190047Y43260861D01*
X10320568Y43447266D01*
X10416739Y43653504D01*
X10475635Y43873308D01*
X10495468Y44100000D01*
X10475635Y44326692D01*
X10416739Y44546496D01*
X10320568Y44752734D01*
X10190047Y44939139D01*
X10190045Y44939142D01*
X10029141Y45100046D01*
X9842734Y45230568D01*
X9842728Y45230571D01*
X9784725Y45257618D01*
X9732285Y45303790D01*
X9713133Y45370983D01*
X9733348Y45437865D01*
X9784725Y45482382D01*
X9842734Y45509432D01*
X10029139Y45639953D01*
X10190047Y45800861D01*
X10320118Y45986625D01*
X10374693Y46030248D01*
X10421692Y46039500D01*
X11225903Y46039500D01*
X11292942Y46019815D01*
G37*
G04 #@! TD.AperFunction*
G04 #@! TA.AperFunction,Conductor*
G36*
X7987865Y30856652D02*
G01*
X8032382Y30805275D01*
X8059429Y30747272D01*
X8059432Y30747266D01*
X8189954Y30560859D01*
X8350858Y30399955D01*
X8350861Y30399953D01*
X8537266Y30269432D01*
X8595275Y30242382D01*
X8647714Y30196209D01*
X8666866Y30129016D01*
X8646650Y30062135D01*
X8595275Y30017618D01*
X8537267Y29990569D01*
X8537265Y29990568D01*
X8350858Y29860046D01*
X8189954Y29699142D01*
X8059432Y29512735D01*
X8059428Y29512728D01*
X8032105Y29454134D01*
X7985932Y29401695D01*
X7918738Y29382544D01*
X7851858Y29402761D01*
X7807342Y29454136D01*
X7780136Y29512479D01*
X7780132Y29512487D01*
X7729025Y29585474D01*
X7173787Y29030236D01*
X7162518Y29072292D01*
X7090110Y29197708D01*
X6987708Y29300110D01*
X6862292Y29372518D01*
X6820234Y29383788D01*
X7375472Y29939026D01*
X7302480Y29990136D01*
X7244134Y30017343D01*
X7191695Y30063516D01*
X7172543Y30130709D01*
X7192759Y30197590D01*
X7244134Y30242107D01*
X7302734Y30269432D01*
X7489139Y30399953D01*
X7650047Y30560861D01*
X7780568Y30747266D01*
X7807618Y30805276D01*
X7853790Y30857715D01*
X7920983Y30876867D01*
X7987865Y30856652D01*
G37*
G04 #@! TD.AperFunction*
G04 #@! TA.AperFunction,Conductor*
G36*
X21970951Y42896411D02*
G01*
X22003179Y42834417D01*
X22005500Y42810536D01*
X22005500Y35860098D01*
X21985815Y35793059D01*
X21969181Y35772417D01*
X21571465Y35374702D01*
X21510142Y35341217D01*
X21497668Y35339163D01*
X21410750Y35329370D01*
X21240478Y35269790D01*
X21087737Y35173816D01*
X20960184Y35046263D01*
X20864211Y34893524D01*
X20804631Y34723255D01*
X20804630Y34723250D01*
X20784435Y34544004D01*
X20784435Y34543997D01*
X20804630Y34364751D01*
X20804631Y34364746D01*
X20864211Y34194477D01*
X20960184Y34041738D01*
X21087739Y33914183D01*
X21136147Y33883766D01*
X21182437Y33831431D01*
X21193085Y33762378D01*
X21164710Y33698530D01*
X21157855Y33691092D01*
X19223382Y31756619D01*
X19162059Y31723134D01*
X19092367Y31728118D01*
X19036434Y31769990D01*
X19015926Y31812207D01*
X19006739Y31846496D01*
X18910568Y32052734D01*
X18780047Y32239139D01*
X18780045Y32239142D01*
X18619141Y32400046D01*
X18432734Y32530568D01*
X18432728Y32530571D01*
X18374725Y32557618D01*
X18322285Y32603790D01*
X18303133Y32670983D01*
X18323348Y32737865D01*
X18374725Y32782382D01*
X18375319Y32782659D01*
X18432734Y32809432D01*
X18619139Y32939953D01*
X18780047Y33100861D01*
X18910568Y33287266D01*
X19006739Y33493504D01*
X19065635Y33713308D01*
X19085468Y33940000D01*
X19065635Y34166692D01*
X19006739Y34386496D01*
X18910568Y34592734D01*
X18780047Y34779139D01*
X18780045Y34779142D01*
X18619141Y34940046D01*
X18432734Y35070568D01*
X18432728Y35070571D01*
X18374725Y35097618D01*
X18322285Y35143790D01*
X18303133Y35210983D01*
X18323348Y35277865D01*
X18374725Y35322382D01*
X18432734Y35349432D01*
X18619139Y35479953D01*
X18780047Y35640861D01*
X18910568Y35827266D01*
X19006739Y36033504D01*
X19065635Y36253308D01*
X19085468Y36480000D01*
X19065635Y36706692D01*
X19020916Y36873585D01*
X19006741Y36926489D01*
X19006738Y36926498D01*
X18961575Y37023350D01*
X18910568Y37132734D01*
X18780047Y37319139D01*
X18780045Y37319142D01*
X18619141Y37480046D01*
X18432734Y37610568D01*
X18432728Y37610571D01*
X18374725Y37637618D01*
X18322285Y37683790D01*
X18303133Y37750983D01*
X18323348Y37817865D01*
X18374725Y37862382D01*
X18432734Y37889432D01*
X18619139Y38019953D01*
X18780047Y38180861D01*
X18910568Y38367266D01*
X19006739Y38573504D01*
X19065635Y38793308D01*
X19085468Y39020000D01*
X19065635Y39246692D01*
X19011030Y39450483D01*
X19006741Y39466489D01*
X19006738Y39466498D01*
X18934812Y39620743D01*
X18910568Y39672734D01*
X18780047Y39859139D01*
X18780043Y39859145D01*
X18776566Y39863289D01*
X18778284Y39864732D01*
X18749406Y39917619D01*
X18754390Y39987311D01*
X18782889Y40031656D01*
X21608535Y42857302D01*
X21669856Y42890785D01*
X21682311Y42892837D01*
X21769255Y42902632D01*
X21769258Y42902633D01*
X21840545Y42927577D01*
X21910324Y42931139D01*
X21970951Y42896411D01*
G37*
G04 #@! TD.AperFunction*
G04 #@! TA.AperFunction,Conductor*
G36*
X16319024Y33214529D02*
G01*
X16370133Y33287518D01*
X16397341Y33345865D01*
X16443513Y33398304D01*
X16510707Y33417457D01*
X16577588Y33397242D01*
X16622105Y33345868D01*
X16649432Y33287266D01*
X16649433Y33287265D01*
X16779954Y33100859D01*
X16940858Y32939955D01*
X16940861Y32939953D01*
X17127266Y32809432D01*
X17184681Y32782659D01*
X17185275Y32782382D01*
X17237714Y32736209D01*
X17256866Y32669016D01*
X17236650Y32602135D01*
X17185275Y32557618D01*
X17127267Y32530569D01*
X17127265Y32530568D01*
X16940858Y32400046D01*
X16779954Y32239142D01*
X16649432Y32052735D01*
X16649431Y32052733D01*
X16622382Y31994725D01*
X16576209Y31942286D01*
X16509016Y31923134D01*
X16442135Y31943350D01*
X16397618Y31994725D01*
X16370568Y32052733D01*
X16370567Y32052735D01*
X16240045Y32239142D01*
X16079141Y32400046D01*
X15892735Y32530567D01*
X15892736Y32530567D01*
X15892734Y32530568D01*
X15834132Y32557895D01*
X15781694Y32604067D01*
X15762543Y32671261D01*
X15782759Y32738142D01*
X15834135Y32782659D01*
X15892482Y32809867D01*
X15965471Y32860976D01*
X15410234Y33416213D01*
X15452292Y33427482D01*
X15577708Y33499890D01*
X15680110Y33602292D01*
X15752518Y33727708D01*
X15763787Y33769766D01*
X16319024Y33214529D01*
G37*
G04 #@! TD.AperFunction*
G04 #@! TA.AperFunction,Conductor*
G36*
X16577865Y35936652D02*
G01*
X16622382Y35885275D01*
X16649429Y35827272D01*
X16649432Y35827266D01*
X16779954Y35640859D01*
X16940858Y35479955D01*
X16940861Y35479953D01*
X17127266Y35349432D01*
X17185275Y35322382D01*
X17237714Y35276209D01*
X17256866Y35209016D01*
X17236650Y35142135D01*
X17185275Y35097618D01*
X17127267Y35070569D01*
X17127265Y35070568D01*
X16940858Y34940046D01*
X16779954Y34779142D01*
X16649432Y34592735D01*
X16649428Y34592728D01*
X16622105Y34534134D01*
X16575932Y34481695D01*
X16508738Y34462544D01*
X16441858Y34482761D01*
X16397342Y34534136D01*
X16370136Y34592479D01*
X16370132Y34592487D01*
X16319025Y34665474D01*
X15763787Y34110236D01*
X15752518Y34152292D01*
X15680110Y34277708D01*
X15577708Y34380110D01*
X15452292Y34452518D01*
X15410234Y34463788D01*
X15965472Y35019026D01*
X15892480Y35070136D01*
X15834134Y35097343D01*
X15781695Y35143516D01*
X15762543Y35210709D01*
X15782759Y35277590D01*
X15834134Y35322107D01*
X15892734Y35349432D01*
X16079139Y35479953D01*
X16240047Y35640861D01*
X16370568Y35827266D01*
X16397618Y35885276D01*
X16443790Y35937715D01*
X16510983Y35956867D01*
X16577865Y35936652D01*
G37*
G04 #@! TD.AperFunction*
G04 #@! TA.AperFunction,Conductor*
G36*
X20765257Y49755500D02*
G01*
X20785899Y49738866D01*
X21969181Y48555584D01*
X22002666Y48494261D01*
X22005500Y48467903D01*
X22005500Y44565465D01*
X21985815Y44498426D01*
X21933011Y44452671D01*
X21863853Y44442727D01*
X21840546Y44448423D01*
X21769257Y44473368D01*
X21769249Y44473370D01*
X21590004Y44493565D01*
X21589996Y44493565D01*
X21410750Y44473370D01*
X21410745Y44473369D01*
X21240476Y44413789D01*
X21087737Y44317816D01*
X20960184Y44190263D01*
X20864210Y44037522D01*
X20804630Y43867250D01*
X20794837Y43780332D01*
X20767770Y43715918D01*
X20759298Y43706535D01*
X19148662Y42095899D01*
X19087339Y42062414D01*
X19017647Y42067398D01*
X18961714Y42109270D01*
X18948599Y42131176D01*
X18925243Y42181262D01*
X18910568Y42212734D01*
X18780047Y42399139D01*
X18780045Y42399142D01*
X18619141Y42560046D01*
X18499822Y42643593D01*
X18432734Y42690568D01*
X18374132Y42717895D01*
X18321694Y42764067D01*
X18302543Y42831261D01*
X18322759Y42898142D01*
X18374135Y42942659D01*
X18432482Y42969867D01*
X18505471Y43020976D01*
X17950234Y43576213D01*
X17992292Y43587482D01*
X18117708Y43659890D01*
X18220110Y43762292D01*
X18292518Y43887708D01*
X18303787Y43929766D01*
X18859024Y43374529D01*
X18910136Y43447522D01*
X19006264Y43653669D01*
X19006269Y43653683D01*
X19065139Y43873390D01*
X19065141Y43873401D01*
X19084966Y44099998D01*
X19084966Y44100003D01*
X19065141Y44326600D01*
X19065139Y44326611D01*
X19006269Y44546318D01*
X19006264Y44546332D01*
X18910136Y44752479D01*
X18910132Y44752487D01*
X18859025Y44825474D01*
X18303787Y44270236D01*
X18292518Y44312292D01*
X18220110Y44437708D01*
X18117708Y44540110D01*
X17992292Y44612518D01*
X17950234Y44623788D01*
X18505472Y45179026D01*
X18432480Y45230136D01*
X18374134Y45257343D01*
X18321695Y45303516D01*
X18302543Y45370709D01*
X18322759Y45437590D01*
X18374134Y45482107D01*
X18432734Y45509432D01*
X18619139Y45639953D01*
X18780047Y45800861D01*
X18910568Y45987266D01*
X19006739Y46193504D01*
X19065635Y46413308D01*
X19085468Y46640000D01*
X19084635Y46649517D01*
X19079801Y46704770D01*
X19065635Y46866692D01*
X19007000Y47085522D01*
X19006741Y47086489D01*
X19006738Y47086498D01*
X18934925Y47240500D01*
X18910568Y47292734D01*
X18792413Y47461479D01*
X18780045Y47479142D01*
X18619141Y47640046D01*
X18432734Y47770568D01*
X18432728Y47770571D01*
X18374725Y47797618D01*
X18322285Y47843790D01*
X18303133Y47910983D01*
X18323348Y47977865D01*
X18374725Y48022382D01*
X18432734Y48049432D01*
X18619139Y48179953D01*
X18780047Y48340861D01*
X18910568Y48527266D01*
X19006739Y48733504D01*
X19065635Y48953308D01*
X19085468Y49180000D01*
X19065635Y49406692D01*
X19008723Y49619092D01*
X19010386Y49688942D01*
X19049549Y49746804D01*
X19113777Y49774308D01*
X19128498Y49775185D01*
X20698218Y49775185D01*
X20765257Y49755500D01*
G37*
G04 #@! TD.AperFunction*
G04 #@! TA.AperFunction,Conductor*
G36*
X17267482Y43887708D02*
G01*
X17339890Y43762292D01*
X17442292Y43659890D01*
X17567708Y43587482D01*
X17609765Y43576213D01*
X17054526Y43020975D01*
X17127513Y42969868D01*
X17127521Y42969864D01*
X17185864Y42942658D01*
X17238304Y42896486D01*
X17257456Y42829293D01*
X17237241Y42762411D01*
X17185866Y42717895D01*
X17127272Y42690572D01*
X17127265Y42690568D01*
X16940858Y42560046D01*
X16779954Y42399142D01*
X16649432Y42212735D01*
X16649431Y42212733D01*
X16622382Y42154725D01*
X16576209Y42102286D01*
X16509016Y42083134D01*
X16442135Y42103350D01*
X16397618Y42154725D01*
X16395748Y42158735D01*
X16370568Y42212734D01*
X16240047Y42399139D01*
X16240045Y42399142D01*
X16079141Y42560046D01*
X15892734Y42690568D01*
X15892728Y42690571D01*
X15834725Y42717618D01*
X15782285Y42763790D01*
X15763133Y42830983D01*
X15783348Y42897865D01*
X15834725Y42942382D01*
X15835319Y42942659D01*
X15892734Y42969432D01*
X16079139Y43099953D01*
X16240047Y43260861D01*
X16370568Y43447266D01*
X16397893Y43505866D01*
X16444065Y43558305D01*
X16511258Y43577457D01*
X16578139Y43557242D01*
X16622657Y43505866D01*
X16649864Y43447520D01*
X16700974Y43374528D01*
X17256212Y43929766D01*
X17267482Y43887708D01*
G37*
G04 #@! TD.AperFunction*
G04 #@! TA.AperFunction,Conductor*
G36*
X16577865Y46096652D02*
G01*
X16622381Y46045276D01*
X16629591Y46029815D01*
X16649429Y45987272D01*
X16649432Y45987266D01*
X16779954Y45800859D01*
X16940858Y45639955D01*
X16940861Y45639953D01*
X17127266Y45509432D01*
X17185865Y45482107D01*
X17238305Y45435935D01*
X17257457Y45368742D01*
X17237242Y45301861D01*
X17185867Y45257343D01*
X17127513Y45230132D01*
X17127512Y45230132D01*
X17054526Y45179027D01*
X17054526Y45179026D01*
X17609765Y44623788D01*
X17567708Y44612518D01*
X17442292Y44540110D01*
X17339890Y44437708D01*
X17267482Y44312292D01*
X17256212Y44270236D01*
X16700974Y44825474D01*
X16700973Y44825474D01*
X16649868Y44752488D01*
X16649868Y44752487D01*
X16622657Y44694133D01*
X16576484Y44641694D01*
X16509290Y44622543D01*
X16442409Y44642759D01*
X16397893Y44694135D01*
X16397600Y44694763D01*
X16370568Y44752734D01*
X16240047Y44939139D01*
X16240045Y44939142D01*
X16079141Y45100046D01*
X15892734Y45230568D01*
X15892728Y45230571D01*
X15834725Y45257618D01*
X15782285Y45303790D01*
X15763133Y45370983D01*
X15783348Y45437865D01*
X15834725Y45482382D01*
X15892734Y45509432D01*
X16079139Y45639953D01*
X16240047Y45800861D01*
X16370568Y45987266D01*
X16397618Y46045276D01*
X16443790Y46097715D01*
X16510983Y46116867D01*
X16577865Y46096652D01*
G37*
G04 #@! TD.AperFunction*
G04 #@! TA.AperFunction,Conductor*
G36*
X41558065Y57545815D02*
G01*
X41603820Y57493011D01*
X41613764Y57423853D01*
X41608067Y57400545D01*
X41565627Y57279262D01*
X41565624Y57279249D01*
X41545429Y57100003D01*
X41545429Y57099996D01*
X41565624Y56920750D01*
X41565625Y56920745D01*
X41625205Y56750476D01*
X41721178Y56597737D01*
X41731236Y56587679D01*
X41764721Y56526356D01*
X41759737Y56456664D01*
X41731242Y56412323D01*
X41721185Y56402265D01*
X41721182Y56402262D01*
X41625207Y56249520D01*
X41565627Y56079251D01*
X41565626Y56079246D01*
X41545431Y55900000D01*
X41545431Y55899993D01*
X41565626Y55720747D01*
X41565627Y55720742D01*
X41625207Y55550473D01*
X41721180Y55397734D01*
X41731233Y55387681D01*
X41764718Y55326358D01*
X41759734Y55256666D01*
X41731239Y55212325D01*
X41721185Y55202270D01*
X41721182Y55202267D01*
X41625207Y55049525D01*
X41565627Y54879256D01*
X41565626Y54879251D01*
X41545431Y54700005D01*
X41545431Y54699998D01*
X41565626Y54520752D01*
X41565627Y54520747D01*
X41625207Y54350478D01*
X41721180Y54197739D01*
X41731236Y54187683D01*
X41764721Y54126360D01*
X41759737Y54056668D01*
X41731236Y54012321D01*
X41721178Y54002264D01*
X41625205Y53849525D01*
X41565625Y53679256D01*
X41565624Y53679251D01*
X41545429Y53500005D01*
X41545429Y53499998D01*
X41565624Y53320752D01*
X41565625Y53320747D01*
X41625205Y53150478D01*
X41662911Y53090470D01*
X41681911Y53023233D01*
X41661543Y52956398D01*
X41608275Y52911184D01*
X41557917Y52900498D01*
X41464668Y52900498D01*
X41464652Y52900499D01*
X41457056Y52900499D01*
X41298941Y52900499D01*
X41222577Y52880037D01*
X41146212Y52859575D01*
X41146207Y52859572D01*
X41009288Y52780523D01*
X41009280Y52780517D01*
X39859465Y51630702D01*
X39798142Y51597217D01*
X39785668Y51595163D01*
X39698750Y51585370D01*
X39528478Y51525790D01*
X39375737Y51429816D01*
X39248184Y51302263D01*
X39152211Y51149524D01*
X39092631Y50979255D01*
X39092630Y50979250D01*
X39072435Y50800004D01*
X39072435Y50799997D01*
X39092630Y50620751D01*
X39092631Y50620746D01*
X39152211Y50450477D01*
X39204033Y50368004D01*
X39248184Y50297738D01*
X39375738Y50170184D01*
X39460295Y50117053D01*
X39497316Y50093791D01*
X39528478Y50074211D01*
X39643646Y50033912D01*
X39698745Y50014632D01*
X39698750Y50014631D01*
X39877996Y49994435D01*
X39878000Y49994435D01*
X39878004Y49994435D01*
X40057249Y50014631D01*
X40057252Y50014632D01*
X40057255Y50014632D01*
X40227522Y50074211D01*
X40380262Y50170184D01*
X40507816Y50297738D01*
X40603789Y50450478D01*
X40663368Y50620745D01*
X40673161Y50707671D01*
X40700226Y50772082D01*
X40708690Y50781457D01*
X41374781Y51447546D01*
X41436101Y51481029D01*
X41505793Y51476045D01*
X41561726Y51434173D01*
X41586143Y51368709D01*
X41579501Y51318910D01*
X41565627Y51279260D01*
X41565624Y51279248D01*
X41545429Y51100002D01*
X41545429Y51099995D01*
X41565624Y50920749D01*
X41565625Y50920744D01*
X41625205Y50750475D01*
X41721178Y50597736D01*
X41731233Y50587681D01*
X41764718Y50526358D01*
X41759734Y50456666D01*
X41731239Y50412325D01*
X41721185Y50402270D01*
X41721182Y50402267D01*
X41625207Y50249525D01*
X41565627Y50079256D01*
X41565626Y50079251D01*
X41545431Y49900005D01*
X41545431Y49899998D01*
X41565626Y49720752D01*
X41565627Y49720747D01*
X41625207Y49550478D01*
X41721180Y49397739D01*
X41731236Y49387683D01*
X41764721Y49326360D01*
X41759737Y49256668D01*
X41731242Y49212327D01*
X41721185Y49202269D01*
X41721182Y49202266D01*
X41625207Y49049524D01*
X41565627Y48879255D01*
X41565626Y48879250D01*
X41545431Y48700004D01*
X41545431Y48699997D01*
X41565626Y48520751D01*
X41565627Y48520746D01*
X41625207Y48350477D01*
X41721180Y48197738D01*
X41731238Y48187680D01*
X41764723Y48126357D01*
X41759739Y48056665D01*
X41731244Y48012324D01*
X41721185Y48002264D01*
X41721182Y48002261D01*
X41625207Y47849519D01*
X41565627Y47679250D01*
X41565626Y47679245D01*
X41545431Y47499999D01*
X41545431Y47499992D01*
X41565626Y47320746D01*
X41565627Y47320741D01*
X41625207Y47150472D01*
X41721180Y46997733D01*
X41731237Y46987676D01*
X41764722Y46926353D01*
X41759738Y46856661D01*
X41731237Y46812314D01*
X41721180Y46802258D01*
X41625207Y46649519D01*
X41565627Y46479250D01*
X41565626Y46479246D01*
X41546984Y46313788D01*
X41519917Y46249374D01*
X41462322Y46209819D01*
X41409881Y46204452D01*
X41400003Y46205565D01*
X41399996Y46205565D01*
X41220750Y46185370D01*
X41220745Y46185369D01*
X41050476Y46125789D01*
X40897736Y46029815D01*
X40894903Y46027555D01*
X40892724Y46026666D01*
X40891842Y46026111D01*
X40891744Y46026266D01*
X40830217Y46001145D01*
X40817588Y46000500D01*
X40065940Y46000500D01*
X39998901Y46020185D01*
X39953146Y46072989D01*
X39943202Y46142147D01*
X39972227Y46205703D01*
X39978259Y46212181D01*
X39999816Y46233738D01*
X40095789Y46386478D01*
X40155368Y46556745D01*
X40164387Y46636789D01*
X40175565Y46735997D01*
X40175565Y46736004D01*
X40155369Y46915250D01*
X40155368Y46915255D01*
X40122665Y47008714D01*
X40095789Y47085522D01*
X40095181Y47086489D01*
X40042305Y47170641D01*
X39999816Y47238262D01*
X39872262Y47365816D01*
X39719523Y47461789D01*
X39549254Y47521369D01*
X39549249Y47521370D01*
X39370004Y47541565D01*
X39369996Y47541565D01*
X39190750Y47521370D01*
X39190745Y47521369D01*
X39020476Y47461789D01*
X38867737Y47365816D01*
X38740184Y47238263D01*
X38644211Y47085524D01*
X38584631Y46915255D01*
X38584630Y46915250D01*
X38564435Y46736004D01*
X38564435Y46735997D01*
X38584630Y46556751D01*
X38584631Y46556746D01*
X38644211Y46386477D01*
X38740184Y46233738D01*
X38761741Y46212181D01*
X38795226Y46150858D01*
X38790242Y46081166D01*
X38748370Y46025233D01*
X38682906Y46000816D01*
X38674060Y46000500D01*
X36308097Y46000500D01*
X36241058Y46020185D01*
X36220416Y46036819D01*
X35984590Y46272645D01*
X35984588Y46272648D01*
X35865717Y46391519D01*
X35865716Y46391520D01*
X35778904Y46441640D01*
X35778904Y46441641D01*
X35778900Y46441642D01*
X35728785Y46470577D01*
X35576057Y46511501D01*
X35417943Y46511501D01*
X35410347Y46511501D01*
X35410331Y46511500D01*
X34775412Y46511500D01*
X34708373Y46531185D01*
X34698097Y46538555D01*
X34695263Y46540815D01*
X34695262Y46540816D01*
X34542524Y46636788D01*
X34542523Y46636789D01*
X34476044Y46660051D01*
X34419269Y46700773D01*
X34393522Y46765726D01*
X34393000Y46777092D01*
X34393000Y46944906D01*
X34412685Y47011945D01*
X34465489Y47057700D01*
X34476046Y47061948D01*
X34483813Y47064666D01*
X34542522Y47085209D01*
X34695262Y47181182D01*
X34822816Y47308736D01*
X34918789Y47461476D01*
X34928987Y47490626D01*
X34938641Y47511668D01*
X34943577Y47520215D01*
X34956219Y47567399D01*
X34958953Y47576261D01*
X34978368Y47631743D01*
X34980888Y47654115D01*
X34984332Y47672315D01*
X34984501Y47672942D01*
X34984501Y47679215D01*
X34985281Y47693099D01*
X34998565Y47810996D01*
X34998565Y47811002D01*
X34978369Y47990248D01*
X34978368Y47990253D01*
X34955129Y48056665D01*
X34918789Y48160520D01*
X34906578Y48179953D01*
X34822815Y48313261D01*
X34695260Y48440816D01*
X34650725Y48468799D01*
X34604435Y48521133D01*
X34593787Y48590187D01*
X34622162Y48654035D01*
X34650721Y48678783D01*
X34745262Y48738186D01*
X34872816Y48865740D01*
X34968789Y49018480D01*
X35028368Y49188747D01*
X35029891Y49202262D01*
X35048565Y49367999D01*
X35048565Y49368006D01*
X35028369Y49547252D01*
X35028368Y49547257D01*
X35013450Y49589891D01*
X34968789Y49717524D01*
X34966764Y49720746D01*
X34929582Y49779922D01*
X34872816Y49870264D01*
X34745262Y49997818D01*
X34718503Y50014632D01*
X34592524Y50093790D01*
X34592523Y50093791D01*
X34526044Y50117053D01*
X34469269Y50157775D01*
X34443522Y50222728D01*
X34443000Y50234094D01*
X34443000Y50401908D01*
X34462685Y50468947D01*
X34515489Y50514702D01*
X34526046Y50518950D01*
X34533813Y50521668D01*
X34592522Y50542211D01*
X34745262Y50638184D01*
X34872816Y50765738D01*
X34968789Y50918478D01*
X35028368Y51088745D01*
X35028369Y51088751D01*
X35048565Y51267997D01*
X35048565Y51268004D01*
X35028369Y51447250D01*
X35028368Y51447255D01*
X35012251Y51493314D01*
X34968789Y51617522D01*
X34960507Y51630702D01*
X34872815Y51770263D01*
X34868475Y51775705D01*
X34870833Y51777587D01*
X34843774Y51827142D01*
X34848758Y51896834D01*
X34890630Y51952767D01*
X34956094Y51977184D01*
X34964940Y51977500D01*
X38775331Y51977500D01*
X38775347Y51977499D01*
X38782943Y51977499D01*
X38941054Y51977499D01*
X38941057Y51977499D01*
X39093785Y52018423D01*
X39180025Y52068214D01*
X39230716Y52097480D01*
X39342520Y52209284D01*
X39342520Y52209286D01*
X39352724Y52219489D01*
X39352728Y52219494D01*
X40490506Y53357272D01*
X40490511Y53357276D01*
X40500714Y53367480D01*
X40500716Y53367480D01*
X40612520Y53479284D01*
X40686410Y53607266D01*
X40686412Y53607268D01*
X40691576Y53616214D01*
X40691577Y53616215D01*
X40732500Y53768942D01*
X40732500Y53927057D01*
X40732500Y56059588D01*
X40752185Y56126627D01*
X40759555Y56136903D01*
X40761810Y56139733D01*
X40761816Y56139738D01*
X40857789Y56292478D01*
X40917368Y56462745D01*
X40917369Y56462751D01*
X40937565Y56641997D01*
X40937565Y56642004D01*
X40917369Y56821250D01*
X40917368Y56821255D01*
X40857788Y56991524D01*
X40761815Y57144263D01*
X40634262Y57271816D01*
X40531309Y57336506D01*
X40485018Y57388841D01*
X40474370Y57457895D01*
X40502745Y57521743D01*
X40561135Y57560115D01*
X40597281Y57565500D01*
X41491026Y57565500D01*
X41558065Y57545815D01*
G37*
G04 #@! TD.AperFunction*
G04 #@! TA.AperFunction,Conductor*
G36*
X33727002Y48748315D02*
G01*
X33737275Y48740948D01*
X33740738Y48738186D01*
X33785273Y48710203D01*
X33831564Y48657868D01*
X33842212Y48588815D01*
X33813837Y48524966D01*
X33785274Y48500216D01*
X33690738Y48440815D01*
X33687281Y48438057D01*
X33622595Y48411646D01*
X33609965Y48411001D01*
X26076035Y48411001D01*
X26008996Y48430686D01*
X25998719Y48438057D01*
X25995263Y48440813D01*
X25995262Y48440814D01*
X25857675Y48527266D01*
X25838991Y48539006D01*
X25792700Y48591341D01*
X25782052Y48660395D01*
X25810427Y48724243D01*
X25868817Y48762615D01*
X25904963Y48768000D01*
X33659963Y48768000D01*
X33727002Y48748315D01*
G37*
G04 #@! TD.AperFunction*
G04 #@! TA.AperFunction,Conductor*
G36*
X39733758Y57545815D02*
G01*
X39779513Y57493011D01*
X39789457Y57423853D01*
X39760432Y57360297D01*
X39732691Y57336506D01*
X39629737Y57271816D01*
X39502184Y57144263D01*
X39406211Y56991524D01*
X39346631Y56821255D01*
X39346630Y56821250D01*
X39326435Y56642004D01*
X39326435Y56641997D01*
X39346630Y56462751D01*
X39346631Y56462746D01*
X39406211Y56292477D01*
X39502185Y56139737D01*
X39504445Y56136903D01*
X39505334Y56134725D01*
X39505889Y56133842D01*
X39505734Y56133745D01*
X39530855Y56072217D01*
X39531500Y56059588D01*
X39531500Y54148097D01*
X39511815Y54081058D01*
X39495181Y54060416D01*
X38649584Y53214819D01*
X38588261Y53181334D01*
X38561903Y53178500D01*
X38070740Y53178500D01*
X38003701Y53198185D01*
X37957946Y53250989D01*
X37947337Y53314653D01*
X37962341Y53467000D01*
X37950132Y53590965D01*
X37943024Y53663132D01*
X37885814Y53851727D01*
X37885811Y53851731D01*
X37885811Y53851734D01*
X37792913Y54025533D01*
X37792909Y54025540D01*
X37667883Y54177884D01*
X37515539Y54302910D01*
X37515532Y54302914D01*
X37341733Y54395812D01*
X37341727Y54395814D01*
X37199228Y54439041D01*
X37153129Y54453025D01*
X36957000Y54472341D01*
X36760870Y54453025D01*
X36572266Y54395812D01*
X36398467Y54302914D01*
X36398460Y54302910D01*
X36246116Y54177884D01*
X36121090Y54025540D01*
X36121086Y54025533D01*
X36028188Y53851734D01*
X35970975Y53663130D01*
X35951659Y53467000D01*
X35966663Y53314653D01*
X35953644Y53246007D01*
X35905579Y53195297D01*
X35843260Y53178500D01*
X24812940Y53178500D01*
X24772019Y53167536D01*
X24772019Y53167535D01*
X24734751Y53157549D01*
X24660214Y53137577D01*
X24660209Y53137574D01*
X24523290Y53058525D01*
X24523282Y53058519D01*
X22887481Y51422718D01*
X22887477Y51422713D01*
X22869677Y51391880D01*
X22869676Y51391878D01*
X22808423Y51285785D01*
X22767499Y51133057D01*
X22767499Y51133055D01*
X22767499Y50964954D01*
X22767500Y50964941D01*
X22767500Y49755097D01*
X22747815Y49688058D01*
X22695011Y49642303D01*
X22625853Y49632359D01*
X22562297Y49661384D01*
X22555819Y49667416D01*
X21485905Y50737330D01*
X21485903Y50737333D01*
X21367032Y50856204D01*
X21367031Y50856205D01*
X21255248Y50920743D01*
X21255246Y50920744D01*
X21230100Y50935262D01*
X21230099Y50935263D01*
X21230098Y50935263D01*
X21174196Y50950242D01*
X21077372Y50976186D01*
X20919258Y50976186D01*
X20911662Y50976186D01*
X20911646Y50976185D01*
X19062737Y50976185D01*
X18995698Y50995870D01*
X18949943Y51048674D01*
X18939999Y51117832D01*
X18950355Y51152590D01*
X19006739Y51273504D01*
X19065635Y51493308D01*
X19085468Y51720000D01*
X19065635Y51946692D01*
X19006739Y52166496D01*
X18910568Y52372734D01*
X18780047Y52559139D01*
X18780045Y52559142D01*
X18619141Y52720046D01*
X18432734Y52850568D01*
X18432728Y52850571D01*
X18374725Y52877618D01*
X18322285Y52923790D01*
X18303133Y52990983D01*
X18323348Y53057865D01*
X18374725Y53102382D01*
X18432734Y53129432D01*
X18619139Y53259953D01*
X18780047Y53420861D01*
X18863572Y53540149D01*
X18918146Y53583771D01*
X18987644Y53590965D01*
X19049999Y53559443D01*
X19082187Y53509978D01*
X19086211Y53498477D01*
X19168523Y53367479D01*
X19182184Y53345738D01*
X19309738Y53218184D01*
X19462478Y53122211D01*
X19519932Y53102107D01*
X19632745Y53062632D01*
X19632750Y53062631D01*
X19811996Y53042435D01*
X19812000Y53042435D01*
X19812004Y53042435D01*
X19991249Y53062631D01*
X19991252Y53062632D01*
X19991255Y53062632D01*
X20161522Y53122211D01*
X20314262Y53218184D01*
X20441816Y53345738D01*
X20537789Y53498478D01*
X20597368Y53668745D01*
X20598552Y53679251D01*
X20617565Y53847997D01*
X20617565Y53848004D01*
X20597369Y54027250D01*
X20597368Y54027255D01*
X20585764Y54060416D01*
X20537789Y54197522D01*
X20441816Y54350262D01*
X20314262Y54477816D01*
X20300126Y54486698D01*
X20161523Y54573789D01*
X19991254Y54633369D01*
X19991249Y54633370D01*
X19812004Y54653565D01*
X19811996Y54653565D01*
X19632750Y54633370D01*
X19632745Y54633369D01*
X19462476Y54573789D01*
X19309737Y54477816D01*
X19270962Y54439041D01*
X19209639Y54405556D01*
X19139947Y54410542D01*
X19084014Y54452414D01*
X19063509Y54494626D01*
X19006739Y54706496D01*
X18910568Y54912734D01*
X18780047Y55099139D01*
X18780045Y55099142D01*
X18619141Y55260046D01*
X18432734Y55390568D01*
X18432728Y55390571D01*
X18374725Y55417618D01*
X18322285Y55463790D01*
X18303133Y55530983D01*
X18323348Y55597865D01*
X18374725Y55642382D01*
X18432734Y55669432D01*
X18619139Y55799953D01*
X18780047Y55960861D01*
X18910568Y56147266D01*
X18920915Y56169456D01*
X19945203Y56169456D01*
X19964519Y55973327D01*
X20021732Y55784723D01*
X20114630Y55610924D01*
X20114634Y55610917D01*
X20239660Y55458573D01*
X20392004Y55333547D01*
X20392011Y55333543D01*
X20565810Y55240645D01*
X20565813Y55240645D01*
X20565817Y55240642D01*
X20754412Y55183432D01*
X20950544Y55164115D01*
X21146676Y55183432D01*
X21335271Y55240642D01*
X21371574Y55260046D01*
X21509076Y55333543D01*
X21509082Y55333546D01*
X21661427Y55458573D01*
X21786454Y55610918D01*
X21879358Y55784729D01*
X21936568Y55973324D01*
X21955885Y56169456D01*
X21936568Y56365588D01*
X21879358Y56554183D01*
X21879355Y56554187D01*
X21879355Y56554190D01*
X21786457Y56727989D01*
X21786453Y56727996D01*
X21661427Y56880340D01*
X21509083Y57005366D01*
X21509076Y57005370D01*
X21335277Y57098268D01*
X21335271Y57098270D01*
X21146676Y57155480D01*
X21146673Y57155481D01*
X20950544Y57174797D01*
X20754414Y57155481D01*
X20565810Y57098268D01*
X20392011Y57005370D01*
X20392004Y57005366D01*
X20239660Y56880340D01*
X20114634Y56727996D01*
X20114630Y56727989D01*
X20021732Y56554190D01*
X19964519Y56365586D01*
X19945203Y56169456D01*
X18920915Y56169456D01*
X19006739Y56353504D01*
X19065635Y56573308D01*
X19085468Y56800000D01*
X19083608Y56821255D01*
X19068712Y56991522D01*
X19065635Y57026692D01*
X19006739Y57246496D01*
X18940242Y57389097D01*
X18929751Y57458172D01*
X18958270Y57521956D01*
X19016747Y57560196D01*
X19052625Y57565500D01*
X39666719Y57565500D01*
X39733758Y57545815D01*
G37*
G04 #@! TD.AperFunction*
G04 #@! TA.AperFunction,Conductor*
G36*
X7729024Y50994529D02*
G01*
X7780133Y51067518D01*
X7807341Y51125865D01*
X7853513Y51178304D01*
X7920707Y51197457D01*
X7987588Y51177242D01*
X8032105Y51125868D01*
X8059432Y51067266D01*
X8109424Y50995870D01*
X8189954Y50880859D01*
X8350858Y50719955D01*
X8350861Y50719953D01*
X8537266Y50589432D01*
X8594681Y50562659D01*
X8595275Y50562382D01*
X8647714Y50516209D01*
X8666866Y50449016D01*
X8646650Y50382135D01*
X8595275Y50337618D01*
X8537267Y50310569D01*
X8537265Y50310568D01*
X8350858Y50180046D01*
X8189954Y50019142D01*
X8059432Y49832735D01*
X8059431Y49832733D01*
X8032382Y49774725D01*
X7986209Y49722286D01*
X7919016Y49703134D01*
X7852135Y49723350D01*
X7807618Y49774725D01*
X7807404Y49775184D01*
X7780568Y49832734D01*
X7650047Y50019139D01*
X7650045Y50019142D01*
X7489141Y50180046D01*
X7302735Y50310567D01*
X7302736Y50310567D01*
X7302734Y50310568D01*
X7244132Y50337895D01*
X7191694Y50384067D01*
X7172543Y50451261D01*
X7192759Y50518142D01*
X7244135Y50562659D01*
X7302482Y50589867D01*
X7375471Y50640976D01*
X6820234Y51196213D01*
X6862292Y51207482D01*
X6987708Y51279890D01*
X7090110Y51382292D01*
X7162518Y51507708D01*
X7173787Y51549766D01*
X7729024Y50994529D01*
G37*
G04 #@! TD.AperFunction*
G04 #@! TA.AperFunction,Conductor*
G36*
X7987865Y53716652D02*
G01*
X8032381Y53665276D01*
X8036662Y53656096D01*
X8059429Y53607272D01*
X8059432Y53607266D01*
X8189954Y53420859D01*
X8350858Y53259955D01*
X8350861Y53259953D01*
X8537266Y53129432D01*
X8595275Y53102382D01*
X8647714Y53056209D01*
X8666866Y52989016D01*
X8646650Y52922135D01*
X8595275Y52877618D01*
X8537267Y52850569D01*
X8537265Y52850568D01*
X8350858Y52720046D01*
X8189954Y52559142D01*
X8059432Y52372735D01*
X8059428Y52372728D01*
X8032105Y52314134D01*
X7985932Y52261695D01*
X7918738Y52242544D01*
X7851858Y52262761D01*
X7807342Y52314136D01*
X7780136Y52372479D01*
X7780132Y52372487D01*
X7729025Y52445474D01*
X7173787Y51890236D01*
X7162518Y51932292D01*
X7090110Y52057708D01*
X6987708Y52160110D01*
X6862292Y52232518D01*
X6820234Y52243788D01*
X7375472Y52799026D01*
X7302480Y52850136D01*
X7244134Y52877343D01*
X7191695Y52923516D01*
X7172543Y52990709D01*
X7192759Y53057590D01*
X7244134Y53102107D01*
X7302734Y53129432D01*
X7489139Y53259953D01*
X7650047Y53420861D01*
X7780568Y53607266D01*
X7807618Y53665276D01*
X7853790Y53717715D01*
X7920983Y53736867D01*
X7987865Y53716652D01*
G37*
G04 #@! TD.AperFunction*
G04 #@! TA.AperFunction,Conductor*
G36*
X16577865Y68956652D02*
G01*
X16622382Y68905275D01*
X16649429Y68847272D01*
X16649432Y68847266D01*
X16779954Y68660859D01*
X16940858Y68499955D01*
X16940861Y68499953D01*
X17127266Y68369432D01*
X17185865Y68342107D01*
X17238305Y68295935D01*
X17257457Y68228742D01*
X17237242Y68161861D01*
X17185867Y68117343D01*
X17127513Y68090132D01*
X17127512Y68090132D01*
X17054526Y68039027D01*
X17054526Y68039026D01*
X17609765Y67483788D01*
X17567708Y67472518D01*
X17442292Y67400110D01*
X17339890Y67297708D01*
X17267482Y67172292D01*
X17256212Y67130235D01*
X16700974Y67685474D01*
X16700973Y67685474D01*
X16649868Y67612488D01*
X16649868Y67612487D01*
X16622657Y67554133D01*
X16576484Y67501694D01*
X16509290Y67482543D01*
X16442409Y67502759D01*
X16397893Y67554135D01*
X16393294Y67563997D01*
X16370568Y67612734D01*
X16240047Y67799139D01*
X16240045Y67799142D01*
X16079141Y67960046D01*
X15892734Y68090568D01*
X15892728Y68090571D01*
X15834725Y68117618D01*
X15782285Y68163790D01*
X15763133Y68230983D01*
X15783348Y68297865D01*
X15834725Y68342382D01*
X15892734Y68369432D01*
X16079139Y68499953D01*
X16240047Y68660861D01*
X16370568Y68847266D01*
X16397618Y68905276D01*
X16443790Y68957715D01*
X16510983Y68976867D01*
X16577865Y68956652D01*
G37*
G04 #@! TD.AperFunction*
G04 #@! TA.AperFunction,Conductor*
G36*
X101442539Y106479815D02*
G01*
X101488294Y106427011D01*
X101499500Y106375500D01*
X101499500Y102124000D01*
X101479815Y102056961D01*
X101427011Y102011206D01*
X101375500Y102000000D01*
X96000000Y102000000D01*
X96000000Y96613304D01*
X95980315Y96546265D01*
X95927511Y96500510D01*
X95908097Y96493531D01*
X95866853Y96482480D01*
X95806812Y96466392D01*
X95692686Y96400500D01*
X95692683Y96400498D01*
X95599502Y96307317D01*
X95599500Y96307314D01*
X95533608Y96193188D01*
X95499500Y96065892D01*
X95499500Y79934109D01*
X95533608Y79806813D01*
X95537793Y79799565D01*
X95599500Y79692686D01*
X95692686Y79599500D01*
X95806814Y79533608D01*
X95908095Y79506471D01*
X95967753Y79470108D01*
X95998283Y79407261D01*
X96000000Y79386697D01*
X96000000Y74000000D01*
X101375500Y74000000D01*
X101442539Y73980315D01*
X101488294Y73927511D01*
X101499500Y73876000D01*
X101499500Y624500D01*
X101479815Y557461D01*
X101427011Y511706D01*
X101375500Y500500D01*
X624500Y500500D01*
X557461Y520185D01*
X511706Y572989D01*
X500500Y624500D01*
X500500Y12837061D01*
X6449500Y12837061D01*
X6449500Y12562940D01*
X6480189Y12290570D01*
X6480191Y12290558D01*
X6541186Y12023320D01*
X6541190Y12023308D01*
X6631721Y11764587D01*
X6631724Y11764579D01*
X6750648Y11517630D01*
X6896489Y11285526D01*
X6896490Y11285524D01*
X7067386Y11071226D01*
X7261225Y10877387D01*
X7475523Y10706491D01*
X7475525Y10706490D01*
X7707629Y10560649D01*
X7954578Y10441725D01*
X7954585Y10441723D01*
X7954590Y10441720D01*
X8148903Y10373727D01*
X8213307Y10351191D01*
X8213319Y10351187D01*
X8480557Y10290191D01*
X8752940Y10259501D01*
X8752941Y10259500D01*
X8752944Y10259500D01*
X9027059Y10259500D01*
X9027059Y10259501D01*
X9299443Y10290191D01*
X9566681Y10351187D01*
X9825410Y10441720D01*
X9825418Y10441724D01*
X9825421Y10441725D01*
X10072370Y10560649D01*
X10072370Y10560650D01*
X10072376Y10560652D01*
X10304472Y10706488D01*
X10304476Y10706491D01*
X10518774Y10877387D01*
X10518776Y10877390D01*
X10518781Y10877393D01*
X10712607Y11071219D01*
X10883512Y11285528D01*
X11029348Y11517624D01*
X11148280Y11764590D01*
X11238813Y12023319D01*
X11299809Y12290557D01*
X11330500Y12562944D01*
X11330500Y12837056D01*
X11299809Y13109443D01*
X11238813Y13376681D01*
X11148280Y13635410D01*
X11148277Y13635415D01*
X11148275Y13635422D01*
X11029351Y13882371D01*
X10883510Y14114475D01*
X10883509Y14114477D01*
X10712613Y14328775D01*
X10518774Y14522614D01*
X10304476Y14693510D01*
X10304474Y14693511D01*
X10072370Y14839352D01*
X9825421Y14958276D01*
X9825413Y14958279D01*
X9566692Y15048810D01*
X9566680Y15048814D01*
X9360438Y15095888D01*
X9299443Y15109809D01*
X9299439Y15109810D01*
X9299430Y15109811D01*
X9027060Y15140500D01*
X9027056Y15140500D01*
X8752944Y15140500D01*
X8752939Y15140500D01*
X8480569Y15109811D01*
X8480557Y15109809D01*
X8213319Y15048814D01*
X8213307Y15048810D01*
X7954586Y14958279D01*
X7954578Y14958276D01*
X7707629Y14839352D01*
X7475525Y14693511D01*
X7475523Y14693510D01*
X7261225Y14522614D01*
X7067386Y14328775D01*
X6896490Y14114477D01*
X6896489Y14114475D01*
X6750648Y13882371D01*
X6631724Y13635422D01*
X6631721Y13635414D01*
X6541190Y13376693D01*
X6541186Y13376681D01*
X6480191Y13109443D01*
X6480189Y13109431D01*
X6449500Y12837061D01*
X500500Y12837061D01*
X500500Y17297635D01*
X16549500Y17297635D01*
X16549500Y17102366D01*
X16580045Y16909515D01*
X16640381Y16723816D01*
X16640382Y16723813D01*
X16688370Y16629633D01*
X16706271Y16594500D01*
X16729031Y16549833D01*
X16843793Y16391875D01*
X16843797Y16391870D01*
X16981869Y16253798D01*
X16981874Y16253794D01*
X17119653Y16153693D01*
X17139836Y16139029D01*
X17253565Y16081081D01*
X17313812Y16050383D01*
X17313815Y16050382D01*
X17406664Y16020214D01*
X17499516Y15990045D01*
X17588835Y15975899D01*
X17692366Y15959500D01*
X17692371Y15959500D01*
X17887634Y15959500D01*
X17981125Y15974309D01*
X18080484Y15990045D01*
X18266187Y16050383D01*
X18440164Y16139029D01*
X18598132Y16253799D01*
X18736201Y16391868D01*
X18850971Y16549836D01*
X18939617Y16723813D01*
X18999955Y16909516D01*
X19015691Y17008875D01*
X19030500Y17102366D01*
X19030500Y17177867D01*
X95379500Y17177867D01*
X95379500Y17042133D01*
X95414631Y16911025D01*
X95414632Y16911022D01*
X95482495Y16793480D01*
X95482497Y16793478D01*
X95482498Y16793476D01*
X95578476Y16697498D01*
X95578477Y16697497D01*
X95578479Y16697496D01*
X95696021Y16629633D01*
X95696022Y16629633D01*
X95696025Y16629631D01*
X95827133Y16594500D01*
X95827135Y16594500D01*
X95962865Y16594500D01*
X95962867Y16594500D01*
X96093975Y16629631D01*
X96211524Y16697498D01*
X96307502Y16793476D01*
X96375369Y16911025D01*
X96410500Y17042133D01*
X96410500Y17177867D01*
X96375369Y17308975D01*
X96307502Y17426524D01*
X96211524Y17522502D01*
X96211522Y17522503D01*
X96211520Y17522505D01*
X96093978Y17590368D01*
X96093979Y17590368D01*
X96078484Y17594520D01*
X95962867Y17625500D01*
X95827133Y17625500D01*
X95711515Y17594520D01*
X95696021Y17590368D01*
X95578479Y17522505D01*
X95578473Y17522500D01*
X95482500Y17426527D01*
X95482495Y17426521D01*
X95414632Y17308979D01*
X95414631Y17308975D01*
X95379500Y17177867D01*
X19030500Y17177867D01*
X19030500Y17297635D01*
X19010085Y17426527D01*
X18999955Y17490484D01*
X18939617Y17676187D01*
X18939617Y17676188D01*
X18908919Y17736435D01*
X18850971Y17850164D01*
X18836307Y17870347D01*
X18736206Y18008126D01*
X18736202Y18008131D01*
X18598130Y18146203D01*
X18598125Y18146207D01*
X18440167Y18260969D01*
X18440166Y18260970D01*
X18440164Y18260971D01*
X18384426Y18289371D01*
X18266187Y18349618D01*
X18266184Y18349619D01*
X18080485Y18409955D01*
X17887634Y18440500D01*
X17887629Y18440500D01*
X17692371Y18440500D01*
X17692366Y18440500D01*
X17499514Y18409955D01*
X17313815Y18349619D01*
X17313812Y18349618D01*
X17139832Y18260969D01*
X16981874Y18146207D01*
X16981869Y18146203D01*
X16843797Y18008131D01*
X16843793Y18008126D01*
X16729031Y17850168D01*
X16640382Y17676188D01*
X16640381Y17676185D01*
X16580045Y17490486D01*
X16549500Y17297635D01*
X500500Y17297635D01*
X500500Y45854946D01*
X4225498Y45854946D01*
X4237656Y45809573D01*
X4266423Y45702215D01*
X4266424Y45702213D01*
X4266423Y45702213D01*
X4281292Y45676461D01*
X4281293Y45676459D01*
X4345475Y45565291D01*
X4345481Y45565283D01*
X4464349Y45446415D01*
X4464355Y45446410D01*
X5360171Y44550593D01*
X5393656Y44489270D01*
X5392265Y44430819D01*
X5364366Y44326698D01*
X5364364Y44326687D01*
X5344532Y44100002D01*
X5344532Y44099999D01*
X5364364Y43873314D01*
X5364366Y43873303D01*
X5423258Y43653512D01*
X5423261Y43653503D01*
X5519431Y43447268D01*
X5519432Y43447266D01*
X5649954Y43260859D01*
X5810858Y43099955D01*
X5810861Y43099953D01*
X5997266Y42969432D01*
X6054681Y42942659D01*
X6055275Y42942382D01*
X6107714Y42896209D01*
X6126866Y42829016D01*
X6106650Y42762135D01*
X6055275Y42717618D01*
X5997267Y42690569D01*
X5997265Y42690568D01*
X5810858Y42560046D01*
X5649954Y42399142D01*
X5519432Y42212735D01*
X5519431Y42212733D01*
X5423261Y42006498D01*
X5423258Y42006489D01*
X5364366Y41786698D01*
X5364364Y41786687D01*
X5344532Y41560002D01*
X5344532Y41559999D01*
X5364364Y41333314D01*
X5364366Y41333303D01*
X5423258Y41113512D01*
X5423261Y41113503D01*
X5519431Y40907268D01*
X5519432Y40907266D01*
X5649954Y40720859D01*
X5810858Y40559955D01*
X5810861Y40559953D01*
X5997266Y40429432D01*
X6015887Y40420749D01*
X6055275Y40402382D01*
X6107714Y40356209D01*
X6126866Y40289016D01*
X6106650Y40222135D01*
X6055275Y40177618D01*
X5997267Y40150569D01*
X5997265Y40150568D01*
X5810858Y40020046D01*
X5649954Y39859142D01*
X5519432Y39672735D01*
X5519431Y39672733D01*
X5423261Y39466498D01*
X5423258Y39466489D01*
X5364366Y39246698D01*
X5364364Y39246687D01*
X5344532Y39020002D01*
X5344532Y39019999D01*
X5364364Y38793314D01*
X5364366Y38793303D01*
X5423258Y38573512D01*
X5423261Y38573503D01*
X5519431Y38367268D01*
X5519432Y38367266D01*
X5649954Y38180859D01*
X5810858Y38019955D01*
X5810861Y38019953D01*
X5997266Y37889432D01*
X6055275Y37862382D01*
X6107714Y37816209D01*
X6126866Y37749016D01*
X6106650Y37682135D01*
X6055275Y37637618D01*
X5997267Y37610569D01*
X5997265Y37610568D01*
X5810858Y37480046D01*
X5649954Y37319142D01*
X5519432Y37132735D01*
X5519431Y37132733D01*
X5423261Y36926498D01*
X5423258Y36926489D01*
X5364366Y36706698D01*
X5364364Y36706687D01*
X5344532Y36480002D01*
X5344532Y36479999D01*
X5364364Y36253314D01*
X5364366Y36253303D01*
X5423258Y36033512D01*
X5423261Y36033503D01*
X5519431Y35827268D01*
X5519432Y35827266D01*
X5649954Y35640859D01*
X5810858Y35479955D01*
X5810861Y35479953D01*
X5997266Y35349432D01*
X6055275Y35322382D01*
X6107714Y35276209D01*
X6126866Y35209016D01*
X6106650Y35142135D01*
X6055275Y35097618D01*
X5997267Y35070569D01*
X5997265Y35070568D01*
X5810858Y34940046D01*
X5649954Y34779142D01*
X5519432Y34592735D01*
X5519431Y34592733D01*
X5423261Y34386498D01*
X5423258Y34386489D01*
X5364366Y34166698D01*
X5364364Y34166687D01*
X5344532Y33940002D01*
X5344532Y33939999D01*
X5364364Y33713314D01*
X5364366Y33713303D01*
X5423258Y33493512D01*
X5423261Y33493503D01*
X5519431Y33287268D01*
X5519432Y33287266D01*
X5649954Y33100859D01*
X5810858Y32939955D01*
X5810861Y32939953D01*
X5997266Y32809432D01*
X6054681Y32782659D01*
X6055275Y32782382D01*
X6107714Y32736209D01*
X6126866Y32669016D01*
X6106650Y32602135D01*
X6055275Y32557618D01*
X5997267Y32530569D01*
X5997265Y32530568D01*
X5810858Y32400046D01*
X5649954Y32239142D01*
X5519432Y32052735D01*
X5519431Y32052733D01*
X5423261Y31846498D01*
X5423258Y31846489D01*
X5364366Y31626698D01*
X5364364Y31626687D01*
X5344532Y31400002D01*
X5344532Y31399999D01*
X5364364Y31173314D01*
X5364366Y31173303D01*
X5423258Y30953512D01*
X5423261Y30953503D01*
X5519431Y30747268D01*
X5519432Y30747266D01*
X5649954Y30560859D01*
X5810858Y30399955D01*
X5810861Y30399953D01*
X5997266Y30269432D01*
X6055865Y30242107D01*
X6108305Y30195935D01*
X6127457Y30128742D01*
X6107242Y30061861D01*
X6055867Y30017343D01*
X5997513Y29990132D01*
X5997512Y29990132D01*
X5924526Y29939027D01*
X5924526Y29939026D01*
X6479765Y29383788D01*
X6437708Y29372518D01*
X6312292Y29300110D01*
X6209890Y29197708D01*
X6137482Y29072292D01*
X6126212Y29030236D01*
X5570974Y29585474D01*
X5570973Y29585474D01*
X5519868Y29512488D01*
X5519866Y29512484D01*
X5423734Y29306327D01*
X5423730Y29306318D01*
X5364860Y29086611D01*
X5364858Y29086600D01*
X5345034Y28860003D01*
X5345034Y28859998D01*
X5364858Y28633401D01*
X5364860Y28633390D01*
X5423730Y28413683D01*
X5423735Y28413669D01*
X5519863Y28207522D01*
X5570974Y28134528D01*
X6126212Y28689766D01*
X6137482Y28647708D01*
X6209890Y28522292D01*
X6312292Y28419890D01*
X6437708Y28347482D01*
X6479765Y28336213D01*
X5924526Y27780975D01*
X5997513Y27729868D01*
X5997521Y27729864D01*
X6055864Y27702658D01*
X6108304Y27656486D01*
X6127456Y27589293D01*
X6107241Y27522411D01*
X6055866Y27477895D01*
X5997272Y27450572D01*
X5997265Y27450568D01*
X5810858Y27320046D01*
X5649954Y27159142D01*
X5519432Y26972735D01*
X5519431Y26972733D01*
X5423261Y26766498D01*
X5423258Y26766489D01*
X5364366Y26546698D01*
X5364364Y26546687D01*
X5344532Y26320002D01*
X5344532Y26319999D01*
X5364364Y26093314D01*
X5364366Y26093303D01*
X5423258Y25873512D01*
X5423261Y25873503D01*
X5519431Y25667268D01*
X5519432Y25667266D01*
X5649954Y25480859D01*
X5810858Y25319955D01*
X5810861Y25319953D01*
X5997266Y25189432D01*
X6055275Y25162382D01*
X6107714Y25116209D01*
X6126866Y25049016D01*
X6106650Y24982135D01*
X6055275Y24937618D01*
X5997267Y24910569D01*
X5997265Y24910568D01*
X5810858Y24780046D01*
X5649954Y24619142D01*
X5519432Y24432735D01*
X5519431Y24432733D01*
X5423261Y24226498D01*
X5423258Y24226489D01*
X5364366Y24006698D01*
X5364364Y24006687D01*
X5344532Y23780002D01*
X5344532Y23779999D01*
X5364364Y23553314D01*
X5364366Y23553303D01*
X5423258Y23333512D01*
X5423261Y23333503D01*
X5519431Y23127268D01*
X5519432Y23127266D01*
X5649954Y22940859D01*
X5810858Y22779955D01*
X5810861Y22779953D01*
X5997266Y22649432D01*
X6203504Y22553261D01*
X6423308Y22494365D01*
X6585230Y22480199D01*
X6649998Y22474532D01*
X6650000Y22474532D01*
X6650002Y22474532D01*
X6706673Y22479491D01*
X6876692Y22494365D01*
X7096496Y22553261D01*
X7302734Y22649432D01*
X7489139Y22779953D01*
X7650047Y22940861D01*
X7780568Y23127266D01*
X7807618Y23185276D01*
X7853790Y23237715D01*
X7920983Y23256867D01*
X7987865Y23236652D01*
X8032382Y23185275D01*
X8059429Y23127272D01*
X8059432Y23127266D01*
X8189954Y22940859D01*
X8350858Y22779955D01*
X8350861Y22779953D01*
X8537266Y22649432D01*
X8743504Y22553261D01*
X8963308Y22494365D01*
X9125230Y22480199D01*
X9189998Y22474532D01*
X9190000Y22474532D01*
X9190002Y22474532D01*
X9246673Y22479491D01*
X9416692Y22494365D01*
X9636496Y22553261D01*
X9842734Y22649432D01*
X10029139Y22779953D01*
X10190047Y22940861D01*
X10320568Y23127266D01*
X10416739Y23333504D01*
X10475635Y23553308D01*
X10495468Y23780000D01*
X10475635Y24006692D01*
X10416739Y24226496D01*
X10320568Y24432734D01*
X10190047Y24619139D01*
X10190045Y24619142D01*
X10029141Y24780046D01*
X9842734Y24910568D01*
X9842728Y24910571D01*
X9784725Y24937618D01*
X9732285Y24983790D01*
X9713133Y25050983D01*
X9733348Y25117865D01*
X9784725Y25162382D01*
X9842734Y25189432D01*
X10029139Y25319953D01*
X10190047Y25480861D01*
X10320568Y25667266D01*
X10416739Y25873504D01*
X10475635Y26093308D01*
X10495468Y26320000D01*
X10475635Y26546692D01*
X10416739Y26766496D01*
X10320568Y26972734D01*
X10190047Y27159139D01*
X10190045Y27159142D01*
X10029141Y27320046D01*
X9842734Y27450568D01*
X9842728Y27450571D01*
X9784725Y27477618D01*
X9732285Y27523790D01*
X9713133Y27590983D01*
X9733348Y27657865D01*
X9784725Y27702382D01*
X9785319Y27702659D01*
X9842734Y27729432D01*
X10029139Y27859953D01*
X10190047Y28020861D01*
X10320568Y28207266D01*
X10416739Y28413504D01*
X10475635Y28633308D01*
X10492634Y28827616D01*
X10495468Y28859999D01*
X10495468Y28860002D01*
X10485126Y28978211D01*
X10475635Y29086692D01*
X10416739Y29306496D01*
X10320568Y29512734D01*
X10190047Y29699139D01*
X10190045Y29699142D01*
X10029141Y29860046D01*
X9842734Y29990568D01*
X9842728Y29990571D01*
X9784725Y30017618D01*
X9732285Y30063790D01*
X9713133Y30130983D01*
X9733348Y30197865D01*
X9784725Y30242382D01*
X9842734Y30269432D01*
X10029139Y30399953D01*
X10190047Y30560861D01*
X10320568Y30747266D01*
X10416739Y30953504D01*
X10475635Y31173308D01*
X10495468Y31400000D01*
X10492730Y31431291D01*
X10487261Y31493807D01*
X10501028Y31562307D01*
X10549643Y31612490D01*
X10617671Y31628423D01*
X10683515Y31605048D01*
X10698470Y31592295D01*
X11809181Y30481584D01*
X11842666Y30420261D01*
X11845500Y30393903D01*
X11845500Y29296670D01*
X11845499Y29296652D01*
X11845499Y29130946D01*
X11845498Y29130946D01*
X11886424Y28978211D01*
X11886425Y28978210D01*
X11909030Y28939058D01*
X11909031Y28939056D01*
X11965475Y28841291D01*
X11965481Y28841283D01*
X12084349Y28722415D01*
X12084355Y28722410D01*
X13601138Y27205627D01*
X13601148Y27205616D01*
X13605478Y27201286D01*
X13605479Y27201285D01*
X13717283Y27089481D01*
X13787573Y27048900D01*
X13804094Y27039362D01*
X13804096Y27039360D01*
X13850708Y27012448D01*
X13854214Y27010424D01*
X13953966Y26983695D01*
X14013626Y26947331D01*
X14044155Y26884484D01*
X14035860Y26815109D01*
X14034254Y26811517D01*
X14013263Y26766503D01*
X14013258Y26766489D01*
X13954366Y26546698D01*
X13954364Y26546687D01*
X13934532Y26320002D01*
X13934532Y26319999D01*
X13954364Y26093314D01*
X13954366Y26093303D01*
X14013258Y25873512D01*
X14013261Y25873503D01*
X14109431Y25667268D01*
X14109432Y25667266D01*
X14239954Y25480859D01*
X14400858Y25319955D01*
X14400861Y25319953D01*
X14587266Y25189432D01*
X14645275Y25162382D01*
X14697714Y25116209D01*
X14716866Y25049016D01*
X14696650Y24982135D01*
X14645275Y24937618D01*
X14587267Y24910569D01*
X14587265Y24910568D01*
X14400858Y24780046D01*
X14239954Y24619142D01*
X14109432Y24432735D01*
X14109431Y24432733D01*
X14013261Y24226498D01*
X14013258Y24226489D01*
X13954366Y24006698D01*
X13954364Y24006687D01*
X13934532Y23780002D01*
X13934532Y23779999D01*
X13954364Y23553314D01*
X13954366Y23553303D01*
X14013258Y23333512D01*
X14013261Y23333503D01*
X14109431Y23127268D01*
X14109432Y23127266D01*
X14239954Y22940859D01*
X14400858Y22779955D01*
X14400861Y22779953D01*
X14587266Y22649432D01*
X14793504Y22553261D01*
X15013308Y22494365D01*
X15175230Y22480199D01*
X15239998Y22474532D01*
X15240000Y22474532D01*
X15240002Y22474532D01*
X15296673Y22479491D01*
X15466692Y22494365D01*
X15686496Y22553261D01*
X15892734Y22649432D01*
X16079139Y22779953D01*
X16240047Y22940861D01*
X16370568Y23127266D01*
X16397618Y23185276D01*
X16443790Y23237715D01*
X16510983Y23256867D01*
X16577865Y23236652D01*
X16622382Y23185275D01*
X16649429Y23127272D01*
X16649432Y23127266D01*
X16779954Y22940859D01*
X16940858Y22779955D01*
X16940861Y22779953D01*
X17127266Y22649432D01*
X17333504Y22553261D01*
X17553308Y22494365D01*
X17715230Y22480199D01*
X17779998Y22474532D01*
X17780000Y22474532D01*
X17780002Y22474532D01*
X17836673Y22479491D01*
X18006692Y22494365D01*
X18226496Y22553261D01*
X18432734Y22649432D01*
X18619139Y22779953D01*
X18780047Y22940861D01*
X18791955Y22957867D01*
X95379500Y22957867D01*
X95379500Y22822133D01*
X95414631Y22691025D01*
X95414632Y22691022D01*
X95482495Y22573480D01*
X95482497Y22573478D01*
X95482498Y22573476D01*
X95578476Y22477498D01*
X95578477Y22477497D01*
X95578479Y22477496D01*
X95696021Y22409633D01*
X95696022Y22409633D01*
X95696025Y22409631D01*
X95827133Y22374500D01*
X95827135Y22374500D01*
X95962865Y22374500D01*
X95962867Y22374500D01*
X96093975Y22409631D01*
X96211524Y22477498D01*
X96307502Y22573476D01*
X96375369Y22691025D01*
X96410500Y22822133D01*
X96410500Y22957867D01*
X96375369Y23088975D01*
X96307502Y23206524D01*
X96211524Y23302502D01*
X96211522Y23302503D01*
X96211520Y23302505D01*
X96093978Y23370368D01*
X96093979Y23370368D01*
X96078484Y23374520D01*
X95962867Y23405500D01*
X95827133Y23405500D01*
X95711515Y23374520D01*
X95696021Y23370368D01*
X95578479Y23302505D01*
X95578473Y23302500D01*
X95482500Y23206527D01*
X95482495Y23206521D01*
X95414632Y23088979D01*
X95414631Y23088975D01*
X95379500Y22957867D01*
X18791955Y22957867D01*
X18910568Y23127266D01*
X19006739Y23333504D01*
X19065635Y23553308D01*
X19085468Y23780000D01*
X19065635Y24006692D01*
X19006739Y24226496D01*
X18965496Y24314940D01*
X18955005Y24384015D01*
X18983524Y24447799D01*
X19042001Y24486039D01*
X19077879Y24491343D01*
X35165174Y24491343D01*
X35165190Y24491342D01*
X35172786Y24491342D01*
X35330897Y24491342D01*
X35330900Y24491342D01*
X35483628Y24532266D01*
X35533747Y24561204D01*
X35620559Y24611323D01*
X35732363Y24723127D01*
X35732363Y24723129D01*
X35742571Y24733336D01*
X35742573Y24733339D01*
X41451400Y30442167D01*
X41512721Y30475650D01*
X41582413Y30470666D01*
X41638346Y30428794D01*
X41644073Y30420456D01*
X41721180Y30297741D01*
X41731234Y30287687D01*
X41764719Y30226364D01*
X41759735Y30156672D01*
X41731240Y30112331D01*
X41721185Y30102275D01*
X41721182Y30102272D01*
X41625207Y29949530D01*
X41565627Y29779261D01*
X41565626Y29779256D01*
X41545431Y29600010D01*
X41545431Y29600003D01*
X41565626Y29420757D01*
X41565627Y29420752D01*
X41625207Y29250483D01*
X41721180Y29097744D01*
X41731235Y29087689D01*
X41764720Y29026366D01*
X41759736Y28956674D01*
X41731241Y28912333D01*
X41721183Y28902274D01*
X41721180Y28902271D01*
X41625205Y28749529D01*
X41565625Y28579260D01*
X41565624Y28579255D01*
X41545429Y28400009D01*
X41545429Y28400002D01*
X41565624Y28220756D01*
X41565625Y28220751D01*
X41625205Y28050482D01*
X41721178Y27897743D01*
X41848732Y27770189D01*
X42001472Y27674216D01*
X42090617Y27643024D01*
X42137343Y27613663D01*
X42150999Y27600007D01*
X42294624Y27600007D01*
X42308508Y27599227D01*
X42350992Y27594440D01*
X42350994Y27594440D01*
X42350996Y27594440D01*
X42393480Y27599227D01*
X42407364Y27600007D01*
X43684907Y27600007D01*
X43751946Y27580322D01*
X43797701Y27527518D01*
X43801948Y27516963D01*
X43825211Y27450481D01*
X43825212Y27450480D01*
X43921184Y27297742D01*
X44048738Y27170188D01*
X44139080Y27113422D01*
X44201471Y27074219D01*
X44201478Y27074215D01*
X44301088Y27039360D01*
X44371745Y27014636D01*
X44371750Y27014635D01*
X44550996Y26994439D01*
X44551000Y26994439D01*
X44551004Y26994439D01*
X44730249Y27014635D01*
X44730251Y27014636D01*
X44730255Y27014636D01*
X44730258Y27014638D01*
X44730262Y27014638D01*
X44907095Y27076515D01*
X44907846Y27074367D01*
X44966128Y27083970D01*
X44994590Y27075616D01*
X44994906Y27076518D01*
X45171746Y27014639D01*
X45171751Y27014638D01*
X45350997Y26994442D01*
X45351001Y26994442D01*
X45351005Y26994442D01*
X45530250Y27014638D01*
X45530253Y27014639D01*
X45530256Y27014639D01*
X45700523Y27074218D01*
X45853263Y27170191D01*
X45980817Y27297745D01*
X46076790Y27450485D01*
X46100051Y27516962D01*
X46140771Y27573737D01*
X46205723Y27599485D01*
X46217092Y27600007D01*
X51184902Y27600007D01*
X51251941Y27580322D01*
X51297696Y27527518D01*
X51301941Y27516969D01*
X51325206Y27450482D01*
X51421179Y27297742D01*
X51548733Y27170188D01*
X51639075Y27113422D01*
X51701466Y27074219D01*
X51701473Y27074215D01*
X51801083Y27039360D01*
X51871740Y27014636D01*
X51871745Y27014635D01*
X52050991Y26994439D01*
X52050995Y26994439D01*
X52050999Y26994439D01*
X52230244Y27014635D01*
X52230246Y27014636D01*
X52230250Y27014636D01*
X52230253Y27014638D01*
X52230257Y27014638D01*
X52407090Y27076515D01*
X52407842Y27074364D01*
X52466105Y27083971D01*
X52494586Y27075612D01*
X52494902Y27076514D01*
X52671733Y27014638D01*
X52671739Y27014637D01*
X52671741Y27014636D01*
X52671742Y27014636D01*
X52671746Y27014635D01*
X52850992Y26994439D01*
X52850996Y26994439D01*
X52851000Y26994439D01*
X53030245Y27014635D01*
X53030247Y27014636D01*
X53030251Y27014636D01*
X53030254Y27014638D01*
X53030258Y27014638D01*
X53207091Y27076515D01*
X53207843Y27074364D01*
X53266106Y27083971D01*
X53294587Y27075612D01*
X53294903Y27076514D01*
X53471734Y27014638D01*
X53471740Y27014637D01*
X53471742Y27014636D01*
X53471743Y27014636D01*
X53471747Y27014635D01*
X53650993Y26994439D01*
X53650997Y26994439D01*
X53651001Y26994439D01*
X53830246Y27014635D01*
X53830249Y27014636D01*
X53830252Y27014636D01*
X54000519Y27074215D01*
X54000519Y27074216D01*
X54007092Y27076515D01*
X54007845Y27074363D01*
X54066107Y27083970D01*
X54094582Y27075609D01*
X54094900Y27076515D01*
X54271740Y27014636D01*
X54271745Y27014635D01*
X54450991Y26994439D01*
X54450995Y26994439D01*
X54450999Y26994439D01*
X54630244Y27014635D01*
X54630246Y27014636D01*
X54630250Y27014636D01*
X54630253Y27014638D01*
X54630257Y27014638D01*
X54807090Y27076515D01*
X54807842Y27074364D01*
X54866105Y27083971D01*
X54894582Y27075612D01*
X54894899Y27076515D01*
X55071731Y27014638D01*
X55071737Y27014637D01*
X55071739Y27014636D01*
X55071740Y27014636D01*
X55071744Y27014635D01*
X55250990Y26994439D01*
X55250994Y26994439D01*
X55250998Y26994439D01*
X55430243Y27014635D01*
X55430245Y27014636D01*
X55430249Y27014636D01*
X55430252Y27014638D01*
X55430256Y27014638D01*
X55607089Y27076515D01*
X55607840Y27074368D01*
X55666123Y27083971D01*
X55694586Y27075614D01*
X55694903Y27076517D01*
X55871734Y27014641D01*
X55871740Y27014640D01*
X55871742Y27014639D01*
X55871743Y27014639D01*
X55871747Y27014638D01*
X56050993Y26994442D01*
X56050997Y26994442D01*
X56051001Y26994442D01*
X56230246Y27014638D01*
X56230248Y27014639D01*
X56230252Y27014639D01*
X56230255Y27014641D01*
X56230259Y27014641D01*
X56407092Y27076518D01*
X56407846Y27074363D01*
X56466088Y27083973D01*
X56494583Y27075611D01*
X56494900Y27076515D01*
X56671740Y27014636D01*
X56671745Y27014635D01*
X56850991Y26994439D01*
X56850995Y26994439D01*
X56850999Y26994439D01*
X57030244Y27014635D01*
X57030246Y27014636D01*
X57030250Y27014636D01*
X57030253Y27014638D01*
X57030257Y27014638D01*
X57207090Y27076515D01*
X57207842Y27074364D01*
X57266105Y27083971D01*
X57294586Y27075612D01*
X57294902Y27076514D01*
X57471733Y27014638D01*
X57471739Y27014637D01*
X57471741Y27014636D01*
X57471742Y27014636D01*
X57471746Y27014635D01*
X57650992Y26994439D01*
X57650996Y26994439D01*
X57651000Y26994439D01*
X57830245Y27014635D01*
X57830247Y27014636D01*
X57830251Y27014636D01*
X57830254Y27014638D01*
X57830258Y27014638D01*
X58007091Y27076515D01*
X58007843Y27074364D01*
X58066106Y27083971D01*
X58094583Y27075612D01*
X58094900Y27076515D01*
X58271732Y27014638D01*
X58271738Y27014637D01*
X58271740Y27014636D01*
X58271741Y27014636D01*
X58271745Y27014635D01*
X58450991Y26994439D01*
X58450995Y26994439D01*
X58450999Y26994439D01*
X58630244Y27014635D01*
X58630246Y27014636D01*
X58630250Y27014636D01*
X58630253Y27014638D01*
X58630257Y27014638D01*
X58807090Y27076515D01*
X58807842Y27074364D01*
X58866105Y27083971D01*
X58894586Y27075612D01*
X58894902Y27076514D01*
X59071733Y27014638D01*
X59071739Y27014637D01*
X59071741Y27014636D01*
X59071742Y27014636D01*
X59071746Y27014635D01*
X59250992Y26994439D01*
X59250996Y26994439D01*
X59251000Y26994439D01*
X59430245Y27014635D01*
X59430247Y27014636D01*
X59430251Y27014636D01*
X59430254Y27014638D01*
X59430258Y27014638D01*
X59607091Y27076515D01*
X59607843Y27074364D01*
X59666106Y27083971D01*
X59694587Y27075612D01*
X59694903Y27076514D01*
X59871734Y27014638D01*
X59871740Y27014637D01*
X59871742Y27014636D01*
X59871743Y27014636D01*
X59871747Y27014635D01*
X60050993Y26994439D01*
X60050997Y26994439D01*
X60051001Y26994439D01*
X60230246Y27014635D01*
X60230249Y27014636D01*
X60230252Y27014636D01*
X60400519Y27074215D01*
X60400519Y27074216D01*
X60407092Y27076515D01*
X60407845Y27074363D01*
X60466107Y27083970D01*
X60494582Y27075609D01*
X60494900Y27076515D01*
X60671740Y27014636D01*
X60671745Y27014635D01*
X60850991Y26994439D01*
X60850995Y26994439D01*
X60850999Y26994439D01*
X61030244Y27014635D01*
X61030246Y27014636D01*
X61030250Y27014636D01*
X61030253Y27014638D01*
X61030257Y27014638D01*
X61207090Y27076515D01*
X61207842Y27074364D01*
X61266105Y27083971D01*
X61294586Y27075612D01*
X61294902Y27076514D01*
X61471733Y27014638D01*
X61471739Y27014637D01*
X61471741Y27014636D01*
X61471742Y27014636D01*
X61471746Y27014635D01*
X61650992Y26994439D01*
X61650996Y26994439D01*
X61651000Y26994439D01*
X61830245Y27014635D01*
X61830248Y27014636D01*
X61830251Y27014636D01*
X62000518Y27074215D01*
X62000518Y27074216D01*
X62007091Y27076515D01*
X62007844Y27074363D01*
X62066106Y27083970D01*
X62094581Y27075609D01*
X62094899Y27076515D01*
X62271739Y27014636D01*
X62271744Y27014635D01*
X62450990Y26994439D01*
X62450994Y26994439D01*
X62450998Y26994439D01*
X62630243Y27014635D01*
X62630245Y27014636D01*
X62630249Y27014636D01*
X62630252Y27014638D01*
X62630256Y27014638D01*
X62807089Y27076515D01*
X62807841Y27074364D01*
X62866104Y27083971D01*
X62894585Y27075612D01*
X62894901Y27076514D01*
X63071732Y27014638D01*
X63071738Y27014637D01*
X63071740Y27014636D01*
X63071741Y27014636D01*
X63071745Y27014635D01*
X63250991Y26994439D01*
X63250995Y26994439D01*
X63250999Y26994439D01*
X63430244Y27014635D01*
X63430246Y27014636D01*
X63430250Y27014636D01*
X63430253Y27014638D01*
X63430257Y27014638D01*
X63607090Y27076515D01*
X63607842Y27074364D01*
X63666105Y27083971D01*
X63694586Y27075612D01*
X63694902Y27076514D01*
X63871733Y27014638D01*
X63871739Y27014637D01*
X63871741Y27014636D01*
X63871742Y27014636D01*
X63871746Y27014635D01*
X64050992Y26994439D01*
X64050996Y26994439D01*
X64051000Y26994439D01*
X64230245Y27014635D01*
X64230247Y27014636D01*
X64230251Y27014636D01*
X64230254Y27014638D01*
X64230258Y27014638D01*
X64407091Y27076515D01*
X64407842Y27074367D01*
X64466124Y27083970D01*
X64494584Y27075614D01*
X64494901Y27076517D01*
X64671732Y27014641D01*
X64671738Y27014640D01*
X64671740Y27014639D01*
X64671741Y27014639D01*
X64671745Y27014638D01*
X64850991Y26994442D01*
X64850995Y26994442D01*
X64850999Y26994442D01*
X65030244Y27014638D01*
X65030246Y27014639D01*
X65030250Y27014639D01*
X65030253Y27014641D01*
X65030257Y27014641D01*
X65207090Y27076518D01*
X65207842Y27074367D01*
X65266105Y27083974D01*
X65294586Y27075615D01*
X65294902Y27076517D01*
X65471733Y27014641D01*
X65471739Y27014640D01*
X65471741Y27014639D01*
X65471742Y27014639D01*
X65471746Y27014638D01*
X65650992Y26994442D01*
X65650996Y26994442D01*
X65651000Y26994442D01*
X65830245Y27014638D01*
X65830247Y27014639D01*
X65830251Y27014639D01*
X65830254Y27014641D01*
X65830258Y27014641D01*
X66007091Y27076518D01*
X66007844Y27074366D01*
X66066106Y27083973D01*
X66094586Y27075612D01*
X66094902Y27076515D01*
X66271734Y27014638D01*
X66271740Y27014637D01*
X66271742Y27014636D01*
X66271743Y27014636D01*
X66271747Y27014635D01*
X66450993Y26994439D01*
X66450997Y26994439D01*
X66451001Y26994439D01*
X66630246Y27014635D01*
X66630249Y27014636D01*
X66630252Y27014636D01*
X66800519Y27074215D01*
X66800519Y27074216D01*
X66807092Y27076515D01*
X66807845Y27074363D01*
X66866107Y27083970D01*
X66894582Y27075609D01*
X66894900Y27076515D01*
X66901472Y27074216D01*
X66901473Y27074215D01*
X67071740Y27014636D01*
X67091168Y27012447D01*
X67155581Y26985383D01*
X67195137Y26927789D01*
X67197277Y26857952D01*
X67164967Y26801546D01*
X65638242Y25274819D01*
X65576919Y25241334D01*
X65550561Y25238500D01*
X39332055Y25238500D01*
X39266083Y25257506D01*
X39211522Y25291789D01*
X39041254Y25351369D01*
X39041249Y25351370D01*
X38862004Y25371565D01*
X38861996Y25371565D01*
X38682750Y25351370D01*
X38682745Y25351369D01*
X38512476Y25291789D01*
X38359737Y25195816D01*
X38232184Y25068263D01*
X38136211Y24915524D01*
X38076631Y24745255D01*
X38076630Y24745250D01*
X38056435Y24566004D01*
X38056435Y24565997D01*
X38076630Y24386751D01*
X38076631Y24386746D01*
X38136211Y24216477D01*
X38173281Y24157481D01*
X38232184Y24063738D01*
X38359738Y23936184D01*
X38512478Y23840211D01*
X38682745Y23780632D01*
X38682750Y23780631D01*
X38861996Y23760435D01*
X38862000Y23760435D01*
X38862004Y23760435D01*
X39041249Y23780631D01*
X39041252Y23780632D01*
X39041255Y23780632D01*
X39211522Y23840211D01*
X39364262Y23936184D01*
X39429259Y24001181D01*
X39490582Y24034666D01*
X39516940Y24037500D01*
X65763989Y24037500D01*
X65764005Y24037499D01*
X65771601Y24037499D01*
X65929712Y24037499D01*
X65929715Y24037499D01*
X66082443Y24078423D01*
X66132562Y24107361D01*
X66219374Y24157480D01*
X66331178Y24269284D01*
X66331178Y24269286D01*
X66341386Y24279493D01*
X66341388Y24279496D01*
X69081432Y27019541D01*
X69128155Y27048899D01*
X69180829Y27067330D01*
X69207090Y27076518D01*
X69207843Y27074366D01*
X69266104Y27083974D01*
X69294584Y27075614D01*
X69294901Y27076517D01*
X69471732Y27014641D01*
X69471738Y27014640D01*
X69471740Y27014639D01*
X69471741Y27014639D01*
X69471745Y27014638D01*
X69650991Y26994442D01*
X69650995Y26994442D01*
X69650999Y26994442D01*
X69830244Y27014638D01*
X69830246Y27014639D01*
X69830250Y27014639D01*
X69830253Y27014641D01*
X69830257Y27014641D01*
X70007090Y27076518D01*
X70007842Y27074367D01*
X70066105Y27083974D01*
X70094586Y27075615D01*
X70094902Y27076517D01*
X70271733Y27014641D01*
X70271739Y27014640D01*
X70271741Y27014639D01*
X70271742Y27014639D01*
X70271746Y27014638D01*
X70450992Y26994442D01*
X70450996Y26994442D01*
X70451000Y26994442D01*
X70630245Y27014638D01*
X70630248Y27014639D01*
X70630251Y27014639D01*
X70800518Y27074218D01*
X70800518Y27074219D01*
X70807091Y27076518D01*
X70807845Y27074362D01*
X70866088Y27083974D01*
X70894582Y27075609D01*
X70894900Y27076515D01*
X71071740Y27014636D01*
X71071745Y27014635D01*
X71250991Y26994439D01*
X71250995Y26994439D01*
X71250999Y26994439D01*
X71430244Y27014635D01*
X71430246Y27014636D01*
X71430250Y27014636D01*
X71430253Y27014638D01*
X71430257Y27014638D01*
X71607090Y27076515D01*
X71607842Y27074364D01*
X71666105Y27083971D01*
X71694586Y27075612D01*
X71694902Y27076514D01*
X71871733Y27014638D01*
X71871739Y27014637D01*
X71871741Y27014636D01*
X71871742Y27014636D01*
X71871746Y27014635D01*
X72050992Y26994439D01*
X72050996Y26994439D01*
X72051000Y26994439D01*
X72230245Y27014635D01*
X72230247Y27014636D01*
X72230251Y27014636D01*
X72230254Y27014638D01*
X72230258Y27014638D01*
X72407091Y27076515D01*
X72407842Y27074367D01*
X72466124Y27083969D01*
X72494584Y27075612D01*
X72494901Y27076515D01*
X72671733Y27014638D01*
X72671739Y27014637D01*
X72671741Y27014636D01*
X72671742Y27014636D01*
X72671746Y27014635D01*
X72850992Y26994439D01*
X72850996Y26994439D01*
X72851000Y26994439D01*
X73030245Y27014635D01*
X73030247Y27014636D01*
X73030251Y27014636D01*
X73030254Y27014638D01*
X73030258Y27014638D01*
X73207091Y27076515D01*
X73207843Y27074366D01*
X73266123Y27083968D01*
X73294580Y27075612D01*
X73294897Y27076515D01*
X73471729Y27014638D01*
X73471735Y27014637D01*
X73471737Y27014636D01*
X73471738Y27014636D01*
X73471742Y27014635D01*
X73650988Y26994439D01*
X73650992Y26994439D01*
X73650996Y26994439D01*
X73830241Y27014635D01*
X73830243Y27014636D01*
X73830247Y27014636D01*
X73830250Y27014638D01*
X73830254Y27014638D01*
X74007087Y27076515D01*
X74007839Y27074365D01*
X74066105Y27083974D01*
X74094584Y27075613D01*
X74094901Y27076518D01*
X74271733Y27014641D01*
X74271739Y27014640D01*
X74271741Y27014639D01*
X74271742Y27014639D01*
X74271746Y27014638D01*
X74450992Y26994442D01*
X74450996Y26994442D01*
X74451000Y26994442D01*
X74630245Y27014638D01*
X74630247Y27014639D01*
X74630251Y27014639D01*
X74630254Y27014641D01*
X74630258Y27014641D01*
X74807091Y27076518D01*
X74807843Y27074367D01*
X74866106Y27083974D01*
X74894587Y27075615D01*
X74894903Y27076517D01*
X75071734Y27014641D01*
X75071740Y27014640D01*
X75071742Y27014639D01*
X75071743Y27014639D01*
X75071747Y27014638D01*
X75250993Y26994442D01*
X75250997Y26994442D01*
X75251001Y26994442D01*
X75430246Y27014638D01*
X75430248Y27014639D01*
X75430252Y27014639D01*
X75430255Y27014641D01*
X75430259Y27014641D01*
X75607092Y27076518D01*
X75607846Y27074363D01*
X75666088Y27083973D01*
X75694583Y27075611D01*
X75694900Y27076515D01*
X75871740Y27014636D01*
X75871745Y27014635D01*
X76050991Y26994439D01*
X76050995Y26994439D01*
X76050999Y26994439D01*
X76230244Y27014635D01*
X76230246Y27014636D01*
X76230250Y27014636D01*
X76230253Y27014638D01*
X76230257Y27014638D01*
X76407090Y27076515D01*
X76407842Y27074364D01*
X76466105Y27083971D01*
X76494586Y27075612D01*
X76494902Y27076514D01*
X76671733Y27014638D01*
X76671739Y27014637D01*
X76671741Y27014636D01*
X76671742Y27014636D01*
X76671746Y27014635D01*
X76850992Y26994439D01*
X76850996Y26994439D01*
X76851000Y26994439D01*
X77030245Y27014635D01*
X77030247Y27014636D01*
X77030251Y27014636D01*
X77030254Y27014638D01*
X77030258Y27014638D01*
X77207091Y27076515D01*
X77207843Y27074364D01*
X77266106Y27083971D01*
X77294587Y27075612D01*
X77294903Y27076514D01*
X77471734Y27014638D01*
X77471740Y27014637D01*
X77471742Y27014636D01*
X77471743Y27014636D01*
X77471747Y27014635D01*
X77650993Y26994439D01*
X77650997Y26994439D01*
X77651001Y26994439D01*
X77830246Y27014635D01*
X77830249Y27014636D01*
X77830252Y27014636D01*
X78000519Y27074215D01*
X78000519Y27074216D01*
X78007092Y27076515D01*
X78007845Y27074363D01*
X78066107Y27083970D01*
X78094582Y27075609D01*
X78094900Y27076515D01*
X78271740Y27014636D01*
X78271745Y27014635D01*
X78450991Y26994439D01*
X78450995Y26994439D01*
X78450999Y26994439D01*
X78630244Y27014635D01*
X78630246Y27014636D01*
X78630250Y27014636D01*
X78630253Y27014638D01*
X78630257Y27014638D01*
X78807090Y27076515D01*
X78807842Y27074364D01*
X78866105Y27083971D01*
X78894586Y27075612D01*
X78894902Y27076514D01*
X79071733Y27014638D01*
X79071739Y27014637D01*
X79071741Y27014636D01*
X79071742Y27014636D01*
X79071746Y27014635D01*
X79250992Y26994439D01*
X79250996Y26994439D01*
X79251000Y26994439D01*
X79430245Y27014635D01*
X79430248Y27014636D01*
X79430251Y27014636D01*
X79600518Y27074215D01*
X79753258Y27170188D01*
X79880812Y27297742D01*
X79976785Y27450482D01*
X80000046Y27516960D01*
X80040768Y27573735D01*
X80105720Y27599483D01*
X80117088Y27600005D01*
X80984907Y27600005D01*
X81051946Y27580320D01*
X81097701Y27527516D01*
X81101948Y27516960D01*
X81125208Y27450486D01*
X81125210Y27450482D01*
X81221183Y27297742D01*
X81348737Y27170188D01*
X81439079Y27113422D01*
X81501470Y27074219D01*
X81501477Y27074215D01*
X81601087Y27039360D01*
X81671744Y27014636D01*
X81671749Y27014635D01*
X81850995Y26994439D01*
X81850999Y26994439D01*
X81851003Y26994439D01*
X82030248Y27014635D01*
X82030251Y27014636D01*
X82030254Y27014636D01*
X82200521Y27074215D01*
X82353261Y27170188D01*
X82480815Y27297742D01*
X82576788Y27450482D01*
X82636367Y27620749D01*
X82638877Y27643024D01*
X82656564Y27800001D01*
X82656564Y27800008D01*
X82636368Y27979254D01*
X82636365Y27979267D01*
X82574489Y28156098D01*
X82576634Y28156849D01*
X82567038Y28215147D01*
X82575392Y28243592D01*
X82574490Y28243907D01*
X82636367Y28420740D01*
X82636370Y28420753D01*
X82656566Y28599999D01*
X82656566Y28600006D01*
X82636370Y28779252D01*
X82636367Y28779265D01*
X82574491Y28956096D01*
X82576636Y28956847D01*
X82567038Y29015147D01*
X82575394Y29043592D01*
X82574490Y29043908D01*
X82636367Y29220741D01*
X82636370Y29220754D01*
X82656566Y29400000D01*
X82656566Y29400007D01*
X82636370Y29579253D01*
X82636369Y29579258D01*
X82574490Y29756098D01*
X82576636Y29756850D01*
X82567038Y29815149D01*
X82575391Y29843592D01*
X82574488Y29843907D01*
X82636365Y30020740D01*
X82636368Y30020753D01*
X82656564Y30199999D01*
X82656564Y30200006D01*
X82636368Y30379252D01*
X82636365Y30379265D01*
X82574489Y30556096D01*
X82576634Y30556847D01*
X82567036Y30615147D01*
X82575392Y30643592D01*
X82574488Y30643908D01*
X82636365Y30820741D01*
X82636368Y30820754D01*
X82656564Y31000002D01*
X82656564Y31000007D01*
X82649622Y31061620D01*
X82661677Y31130442D01*
X82709026Y31181821D01*
X82772842Y31199503D01*
X82933058Y31199503D01*
X82933061Y31199503D01*
X83085789Y31240427D01*
X83144309Y31274214D01*
X83222720Y31319484D01*
X83334524Y31431288D01*
X83334524Y31431290D01*
X83344728Y31441493D01*
X83344731Y31441498D01*
X87966419Y36063183D01*
X88027742Y36096668D01*
X88054100Y36099502D01*
X89926309Y36099502D01*
X89993348Y36079817D01*
X90039103Y36027013D01*
X90049047Y35957855D01*
X90033041Y35912381D01*
X89996382Y35850395D01*
X89996380Y35850390D01*
X89952292Y35698638D01*
X89952290Y35698625D01*
X89949500Y35663175D01*
X89949500Y35536854D01*
X89949501Y35536828D01*
X89952291Y35501377D01*
X89996380Y35349619D01*
X89996382Y35349614D01*
X90076827Y35213588D01*
X90076829Y35213585D01*
X90076830Y35213584D01*
X90152728Y35137686D01*
X90186212Y35076365D01*
X90181228Y35006673D01*
X90152728Y34962325D01*
X90076831Y34886428D01*
X90076827Y34886423D01*
X89996382Y34750397D01*
X89996380Y34750392D01*
X89952292Y34598640D01*
X89952290Y34598627D01*
X89949500Y34563177D01*
X89949500Y34436856D01*
X89949501Y34436830D01*
X89952291Y34401379D01*
X89996380Y34249621D01*
X89996382Y34249616D01*
X90076827Y34113590D01*
X90076829Y34113587D01*
X90076830Y34113586D01*
X90188580Y34001836D01*
X90188582Y34001835D01*
X90188693Y34001724D01*
X90222178Y33940401D01*
X90225012Y33914042D01*
X90225012Y27925006D01*
X91558883Y27925006D01*
X91558883Y28123929D01*
X91578568Y28190968D01*
X91631372Y28236723D01*
X91682883Y28247929D01*
X100679698Y28247929D01*
X100705715Y28273946D01*
X100705715Y44582978D01*
X100369213Y44919480D01*
X99282910Y46005785D01*
X99245044Y46005785D01*
X99229921Y46004159D01*
X91977949Y46004159D01*
X91590549Y45616759D01*
X91529226Y45583274D01*
X91459534Y45588258D01*
X91437437Y45599108D01*
X91275010Y45700007D01*
X91275009Y45700007D01*
X91256986Y45689986D01*
X91255325Y45684327D01*
X91238691Y45663685D01*
X90225012Y44650007D01*
X90225012Y40724495D01*
X90205327Y40657456D01*
X90152523Y40611701D01*
X90101012Y40600495D01*
X87996200Y40600495D01*
X87843470Y40559572D01*
X87802532Y40535935D01*
X87802531Y40535935D01*
X87706544Y40480518D01*
X87706539Y40480514D01*
X87594735Y40368709D01*
X82860227Y35634202D01*
X82798904Y35600717D01*
X82729212Y35605701D01*
X82673279Y35647573D01*
X82648862Y35713037D01*
X82649325Y35735763D01*
X82656564Y35800003D01*
X82655580Y35808735D01*
X82636368Y35979253D01*
X82636365Y35979266D01*
X82574489Y36156097D01*
X82576634Y36156848D01*
X82567036Y36215148D01*
X82575392Y36243593D01*
X82574488Y36243909D01*
X82636365Y36420742D01*
X82636368Y36420755D01*
X82656564Y36600001D01*
X82656564Y36600008D01*
X82636368Y36779254D01*
X82636365Y36779267D01*
X82574488Y36956099D01*
X82576636Y36956851D01*
X82567034Y37015132D01*
X82575392Y37043592D01*
X82574488Y37043908D01*
X82636365Y37220741D01*
X82636368Y37220754D01*
X82656564Y37400000D01*
X82656564Y37400007D01*
X82636368Y37579253D01*
X82636365Y37579266D01*
X82574489Y37756097D01*
X82576634Y37756848D01*
X82567036Y37815148D01*
X82575392Y37843593D01*
X82574488Y37843909D01*
X82636365Y38020742D01*
X82636368Y38020755D01*
X82656564Y38200001D01*
X82656564Y38200008D01*
X82636368Y38379254D01*
X82636367Y38379259D01*
X82574488Y38556099D01*
X82576634Y38556851D01*
X82567038Y38615148D01*
X82575393Y38643594D01*
X82574490Y38643910D01*
X82606349Y38734958D01*
X82636369Y38820750D01*
X82636370Y38820756D01*
X82656566Y39000002D01*
X82656566Y39000009D01*
X82636370Y39179255D01*
X82636367Y39179268D01*
X82574490Y39356100D01*
X82576638Y39356852D01*
X82567036Y39415133D01*
X82575393Y39443594D01*
X82574490Y39443910D01*
X82636367Y39620743D01*
X82636370Y39620756D01*
X82656566Y39800002D01*
X82656566Y39800009D01*
X82636370Y39979255D01*
X82636369Y39979260D01*
X82574490Y40156100D01*
X82576636Y40156852D01*
X82567038Y40215151D01*
X82575391Y40243594D01*
X82574488Y40243909D01*
X82636365Y40420742D01*
X82636368Y40420755D01*
X82656564Y40600001D01*
X82656564Y40600008D01*
X82636368Y40779254D01*
X82636365Y40779267D01*
X82574489Y40956098D01*
X82576634Y40956849D01*
X82567036Y41015149D01*
X82575392Y41043594D01*
X82574488Y41043910D01*
X82636365Y41220743D01*
X82636368Y41220756D01*
X82656564Y41400002D01*
X82656564Y41400009D01*
X82636368Y41579255D01*
X82636367Y41579260D01*
X82574488Y41756100D01*
X82576640Y41756854D01*
X82567033Y41815115D01*
X82575394Y41843591D01*
X82574488Y41843908D01*
X82627935Y41996652D01*
X82636367Y42020748D01*
X82643396Y42083134D01*
X82656564Y42200000D01*
X82656564Y42200007D01*
X82636368Y42379253D01*
X82636365Y42379266D01*
X82574489Y42556097D01*
X82576634Y42556848D01*
X82567036Y42615148D01*
X82575392Y42643593D01*
X82574488Y42643909D01*
X82636365Y42820742D01*
X82636368Y42820755D01*
X82656564Y43000001D01*
X82656564Y43000008D01*
X82636368Y43179254D01*
X82636365Y43179267D01*
X82574488Y43356099D01*
X82576637Y43356852D01*
X82567035Y43415131D01*
X82575394Y43443592D01*
X82574490Y43443908D01*
X82636367Y43620741D01*
X82636370Y43620754D01*
X82656566Y43800000D01*
X82656566Y43800007D01*
X82636370Y43979253D01*
X82636367Y43979266D01*
X82574491Y44156097D01*
X82576638Y44156849D01*
X82567035Y44215131D01*
X82575391Y44243593D01*
X82574488Y44243909D01*
X82636365Y44420742D01*
X82636368Y44420755D01*
X82656564Y44600001D01*
X82656564Y44600008D01*
X82636368Y44779254D01*
X82636365Y44779267D01*
X82574488Y44956099D01*
X82576636Y44956851D01*
X82567034Y45015132D01*
X82575391Y45043593D01*
X82574488Y45043909D01*
X82636365Y45220742D01*
X82636368Y45220755D01*
X82656564Y45400001D01*
X82656564Y45400008D01*
X82636368Y45579254D01*
X82636367Y45579259D01*
X82633218Y45588258D01*
X82576788Y45749526D01*
X82480815Y45902266D01*
X82353261Y46029820D01*
X82284558Y46072989D01*
X82200523Y46125792D01*
X82200519Y46125794D01*
X82134043Y46149055D01*
X82077267Y46189777D01*
X82051520Y46254729D01*
X82050998Y46266096D01*
X82050998Y50033912D01*
X82070683Y50100951D01*
X82123487Y50146706D01*
X82134044Y50150954D01*
X82200521Y50174215D01*
X82353261Y50270188D01*
X82480815Y50397742D01*
X82576788Y50550482D01*
X82636367Y50720749D01*
X82636368Y50720755D01*
X82656564Y50900001D01*
X82656564Y50900008D01*
X82636368Y51079254D01*
X82636365Y51079267D01*
X82574489Y51256098D01*
X82576634Y51256849D01*
X82567036Y51315149D01*
X82575392Y51343594D01*
X82574488Y51343910D01*
X82636365Y51520743D01*
X82636368Y51520756D01*
X82656564Y51700002D01*
X82656564Y51700009D01*
X82636368Y51879255D01*
X82636367Y51879260D01*
X82574488Y52056100D01*
X82576640Y52056854D01*
X82567033Y52115115D01*
X82575394Y52143591D01*
X82574488Y52143908D01*
X82609002Y52242544D01*
X82636367Y52320748D01*
X82642224Y52372728D01*
X82656564Y52500000D01*
X82656564Y52500007D01*
X82636368Y52679253D01*
X82636367Y52679258D01*
X82574488Y52856098D01*
X82576640Y52856852D01*
X82567033Y52915113D01*
X82575394Y52943589D01*
X82574488Y52943906D01*
X82602246Y53023233D01*
X82636367Y53120746D01*
X82636532Y53122211D01*
X82656564Y53299998D01*
X82656564Y53300005D01*
X82636368Y53479251D01*
X82636365Y53479264D01*
X82574488Y53656096D01*
X82576636Y53656848D01*
X82567034Y53715129D01*
X82575392Y53743589D01*
X82574488Y53743905D01*
X82636365Y53920738D01*
X82636368Y53920751D01*
X82656564Y54099997D01*
X82656564Y54100004D01*
X82636368Y54279250D01*
X82636367Y54279255D01*
X82617690Y54332631D01*
X82576788Y54449522D01*
X82552494Y54488185D01*
X82480814Y54602263D01*
X82353261Y54729816D01*
X82200523Y54825788D01*
X82200519Y54825790D01*
X82134043Y54849051D01*
X82077267Y54889773D01*
X82051520Y54954725D01*
X82050998Y54966092D01*
X82050998Y61033912D01*
X82070683Y61100951D01*
X82123487Y61146706D01*
X82134044Y61150954D01*
X82142569Y61153937D01*
X82200521Y61174215D01*
X82353261Y61270188D01*
X82480815Y61397742D01*
X82576788Y61550482D01*
X82636367Y61720749D01*
X82654310Y61880000D01*
X82656564Y61900001D01*
X82656564Y61900008D01*
X82636368Y62079254D01*
X82636365Y62079267D01*
X82574488Y62256099D01*
X82576636Y62256851D01*
X82567034Y62315132D01*
X82575392Y62343592D01*
X82574488Y62343908D01*
X82636365Y62520741D01*
X82636368Y62520754D01*
X82656564Y62700000D01*
X82656564Y62700007D01*
X82636368Y62879253D01*
X82636367Y62879258D01*
X82574488Y63056098D01*
X82576640Y63056852D01*
X82567033Y63115113D01*
X82575394Y63143589D01*
X82574488Y63143906D01*
X82600367Y63217865D01*
X82636367Y63320746D01*
X82647545Y63419955D01*
X82656564Y63499998D01*
X82656564Y63500005D01*
X82636368Y63679251D01*
X82636367Y63679256D01*
X82636169Y63679822D01*
X82576788Y63849523D01*
X82480815Y64002263D01*
X82353261Y64129817D01*
X82200521Y64225790D01*
X82200519Y64225791D01*
X82134043Y64249052D01*
X82077267Y64289774D01*
X82051520Y64354726D01*
X82050998Y64366093D01*
X82050998Y68633913D01*
X82070683Y68700952D01*
X82123487Y68746707D01*
X82134044Y68750955D01*
X82200521Y68774216D01*
X82353261Y68870189D01*
X82480815Y68997743D01*
X82576788Y69150483D01*
X82636367Y69320750D01*
X82636368Y69320756D01*
X82656564Y69500002D01*
X82656564Y69500009D01*
X82636368Y69679255D01*
X82636367Y69679260D01*
X82619915Y69726277D01*
X82576788Y69849527D01*
X82554264Y69885373D01*
X82480814Y70002268D01*
X82353261Y70129821D01*
X82200522Y70225794D01*
X82030253Y70285374D01*
X82030248Y70285375D01*
X81851003Y70305570D01*
X81850995Y70305570D01*
X81671749Y70285375D01*
X81671744Y70285374D01*
X81501475Y70225794D01*
X81348736Y70129821D01*
X81221183Y70002268D01*
X81125210Y69849529D01*
X81101950Y69783053D01*
X81061228Y69726277D01*
X80996276Y69700529D01*
X80984908Y69700007D01*
X71017090Y69700007D01*
X70950051Y69719692D01*
X70904296Y69772496D01*
X70900048Y69783053D01*
X70876787Y69849529D01*
X70780814Y70002268D01*
X70653261Y70129821D01*
X70500522Y70225794D01*
X70330253Y70285374D01*
X70330248Y70285375D01*
X70151003Y70305570D01*
X70150995Y70305570D01*
X69971749Y70285375D01*
X69971736Y70285372D01*
X69794905Y70223495D01*
X69794155Y70225639D01*
X69735838Y70216045D01*
X69707406Y70224396D01*
X69707092Y70223495D01*
X69530260Y70285372D01*
X69530247Y70285375D01*
X69351002Y70305570D01*
X69350994Y70305570D01*
X69171748Y70285375D01*
X69171743Y70285374D01*
X69001474Y70225794D01*
X68848735Y70129821D01*
X68721182Y70002268D01*
X68625209Y69849529D01*
X68601949Y69783053D01*
X68561227Y69726277D01*
X68496275Y69700529D01*
X68484907Y69700007D01*
X67117085Y69700007D01*
X67050046Y69719692D01*
X67004291Y69772496D01*
X67000043Y69783053D01*
X66976782Y69849529D01*
X66880809Y70002268D01*
X66753256Y70129821D01*
X66600517Y70225794D01*
X66430248Y70285374D01*
X66430243Y70285375D01*
X66250998Y70305570D01*
X66250990Y70305570D01*
X66071744Y70285375D01*
X66071739Y70285374D01*
X65901468Y70225793D01*
X65816966Y70172697D01*
X65749730Y70153697D01*
X65685024Y70172697D01*
X65600521Y70225793D01*
X65430250Y70285374D01*
X65430245Y70285375D01*
X65251000Y70305570D01*
X65250992Y70305570D01*
X65071746Y70285375D01*
X65071733Y70285372D01*
X64901475Y70225796D01*
X64816967Y70172696D01*
X64749730Y70153696D01*
X64685025Y70172696D01*
X64600516Y70225796D01*
X64430258Y70285372D01*
X64430245Y70285375D01*
X64251000Y70305570D01*
X64250992Y70305570D01*
X64071746Y70285375D01*
X64071741Y70285374D01*
X63901470Y70225793D01*
X63816968Y70172697D01*
X63749732Y70153697D01*
X63685026Y70172697D01*
X63600523Y70225793D01*
X63430252Y70285374D01*
X63430247Y70285375D01*
X63251002Y70305570D01*
X63250994Y70305570D01*
X63071748Y70285375D01*
X63071735Y70285372D01*
X62901479Y70225796D01*
X62901470Y70225792D01*
X62816968Y70172696D01*
X62749731Y70153696D01*
X62685025Y70172696D01*
X62600520Y70225794D01*
X62430251Y70285374D01*
X62430246Y70285375D01*
X62251001Y70305570D01*
X62250993Y70305570D01*
X62071747Y70285375D01*
X62071734Y70285372D01*
X61901476Y70225796D01*
X61816968Y70172696D01*
X61749731Y70153696D01*
X61685026Y70172696D01*
X61600517Y70225796D01*
X61430259Y70285372D01*
X61430246Y70285375D01*
X61251001Y70305570D01*
X61250993Y70305570D01*
X61071747Y70285375D01*
X61071742Y70285374D01*
X60901471Y70225793D01*
X60816969Y70172697D01*
X60749733Y70153697D01*
X60685027Y70172697D01*
X60600524Y70225793D01*
X60430253Y70285374D01*
X60430248Y70285375D01*
X60251003Y70305570D01*
X60250995Y70305570D01*
X60071749Y70285375D01*
X60071736Y70285372D01*
X59901480Y70225796D01*
X59901471Y70225792D01*
X59816969Y70172696D01*
X59749732Y70153696D01*
X59685026Y70172696D01*
X59600521Y70225794D01*
X59430252Y70285374D01*
X59430247Y70285375D01*
X59251002Y70305570D01*
X59250994Y70305570D01*
X59071748Y70285375D01*
X59071743Y70285374D01*
X58901474Y70225794D01*
X58748735Y70129821D01*
X58621182Y70002268D01*
X58525209Y69849529D01*
X58501949Y69783053D01*
X58461227Y69726277D01*
X58396275Y69700529D01*
X58384907Y69700007D01*
X53117093Y69700007D01*
X53050054Y69719692D01*
X53004299Y69772496D01*
X53000051Y69783053D01*
X52976790Y69849529D01*
X52880817Y70002268D01*
X52753264Y70129821D01*
X52600525Y70225794D01*
X52430256Y70285374D01*
X52430251Y70285375D01*
X52251006Y70305570D01*
X52250998Y70305570D01*
X52071752Y70285375D01*
X52071747Y70285374D01*
X51901478Y70225794D01*
X51748739Y70129821D01*
X51621186Y70002268D01*
X51525213Y69849529D01*
X51501953Y69783053D01*
X51461231Y69726277D01*
X51396279Y69700529D01*
X51384911Y69700007D01*
X46717092Y69700007D01*
X46650053Y69719692D01*
X46604298Y69772496D01*
X46600050Y69783053D01*
X46576789Y69849529D01*
X46552588Y69888044D01*
X46480816Y70002269D01*
X46353262Y70129823D01*
X46351002Y70131243D01*
X46200523Y70225796D01*
X46030254Y70285376D01*
X46030249Y70285377D01*
X45851004Y70305572D01*
X45850996Y70305572D01*
X45671750Y70285377D01*
X45671737Y70285374D01*
X45501481Y70225798D01*
X45501472Y70225794D01*
X45416970Y70172698D01*
X45349733Y70153698D01*
X45285027Y70172698D01*
X45200522Y70225796D01*
X45030253Y70285376D01*
X45030248Y70285377D01*
X44851003Y70305572D01*
X44850995Y70305572D01*
X44671749Y70285377D01*
X44671744Y70285376D01*
X44501475Y70225796D01*
X44348736Y70129823D01*
X44221183Y70002270D01*
X44125209Y69849529D01*
X44101949Y69783053D01*
X44061227Y69726277D01*
X43996275Y69700529D01*
X43984907Y69700007D01*
X42934033Y69700007D01*
X42866994Y69719692D01*
X42856721Y69727059D01*
X42853257Y69729822D01*
X42700515Y69825796D01*
X42638995Y69847323D01*
X42582219Y69888044D01*
X42556472Y69952997D01*
X42569928Y70021559D01*
X42592265Y70052041D01*
X43785408Y71245181D01*
X43846731Y71278666D01*
X43873089Y71281500D01*
X67230943Y71281500D01*
X82249903Y71281500D01*
X82316942Y71261815D01*
X82337584Y71245181D01*
X85905181Y67677584D01*
X85938666Y67616261D01*
X85941500Y67589903D01*
X85941500Y59830659D01*
X85921815Y59763620D01*
X85869011Y59717865D01*
X85799853Y59707921D01*
X85781848Y59712321D01*
X85777253Y59713369D01*
X85598004Y59733565D01*
X85597996Y59733565D01*
X85418750Y59713370D01*
X85418745Y59713369D01*
X85248476Y59653789D01*
X85095737Y59557816D01*
X84968184Y59430263D01*
X84872211Y59277524D01*
X84812631Y59107255D01*
X84812630Y59107250D01*
X84792435Y58928004D01*
X84792435Y58927997D01*
X84812630Y58748751D01*
X84812631Y58748746D01*
X84872211Y58578477D01*
X84926706Y58491750D01*
X84968184Y58425738D01*
X85095738Y58298184D01*
X85248478Y58202211D01*
X85344127Y58168742D01*
X85418745Y58142632D01*
X85418750Y58142631D01*
X85597996Y58122435D01*
X85598000Y58122435D01*
X85598004Y58122435D01*
X85777246Y58142631D01*
X85777245Y58142631D01*
X85777255Y58142632D01*
X85777263Y58142636D01*
X85784039Y58144181D01*
X85784358Y58142782D01*
X85846316Y58145948D01*
X85906946Y58111224D01*
X85939177Y58049232D01*
X85941500Y58025343D01*
X85941500Y56020659D01*
X85921815Y55953620D01*
X85869011Y55907865D01*
X85799853Y55897921D01*
X85781848Y55902321D01*
X85777253Y55903369D01*
X85598004Y55923565D01*
X85597996Y55923565D01*
X85418750Y55903370D01*
X85418745Y55903369D01*
X85248476Y55843789D01*
X85095737Y55747816D01*
X84968184Y55620263D01*
X84872211Y55467524D01*
X84812631Y55297255D01*
X84812630Y55297250D01*
X84792435Y55118004D01*
X84792435Y55117997D01*
X84812630Y54938751D01*
X84812631Y54938746D01*
X84872211Y54768477D01*
X84911157Y54706496D01*
X84968184Y54615738D01*
X85095738Y54488184D01*
X85112239Y54477816D01*
X85242743Y54395814D01*
X85248478Y54392211D01*
X85409268Y54335948D01*
X85418745Y54332632D01*
X85418750Y54332631D01*
X85597996Y54312435D01*
X85598000Y54312435D01*
X85598004Y54312435D01*
X85777246Y54332631D01*
X85777245Y54332631D01*
X85777255Y54332632D01*
X85777263Y54332636D01*
X85784039Y54334181D01*
X85784358Y54332782D01*
X85846316Y54335948D01*
X85906946Y54301224D01*
X85939177Y54239232D01*
X85941500Y54215343D01*
X85941500Y53302056D01*
X85922494Y53236084D01*
X85888211Y53181524D01*
X85828631Y53011255D01*
X85828630Y53011250D01*
X85808435Y52832004D01*
X85808435Y52831997D01*
X85828630Y52652751D01*
X85828631Y52652746D01*
X85888211Y52482477D01*
X85957323Y52372487D01*
X85984184Y52329738D01*
X86111738Y52202184D01*
X86264478Y52106211D01*
X86373067Y52068214D01*
X86434745Y52046632D01*
X86434750Y52046631D01*
X86613996Y52026435D01*
X86614000Y52026435D01*
X86614004Y52026435D01*
X86793249Y52046631D01*
X86793252Y52046632D01*
X86793255Y52046632D01*
X86963522Y52106211D01*
X87116262Y52202184D01*
X87243816Y52329738D01*
X87339789Y52482478D01*
X87399368Y52652745D01*
X87402355Y52679253D01*
X87419565Y52831997D01*
X87419565Y52832004D01*
X87399369Y53011250D01*
X87399368Y53011255D01*
X87382829Y53058520D01*
X87339789Y53181522D01*
X87243816Y53334262D01*
X87178819Y53399259D01*
X87145334Y53460582D01*
X87142500Y53486940D01*
X87142500Y57756936D01*
X87162185Y57823975D01*
X87214989Y57869730D01*
X87252612Y57880156D01*
X87301255Y57885636D01*
X87471522Y57945215D01*
X87624262Y58041188D01*
X87751816Y58168742D01*
X87847789Y58321482D01*
X87907368Y58491749D01*
X87927565Y58671004D01*
X87918805Y58748751D01*
X87907369Y58850254D01*
X87907368Y58850259D01*
X87847788Y59020528D01*
X87793297Y59107250D01*
X87751816Y59173266D01*
X87624262Y59300820D01*
X87561909Y59339999D01*
X87471521Y59396794D01*
X87301249Y59456374D01*
X87252616Y59461853D01*
X87188202Y59488920D01*
X87148647Y59546514D01*
X87142500Y59585073D01*
X87142500Y67800940D01*
X87142501Y67800953D01*
X87142501Y67969056D01*
X87116453Y68066266D01*
X87101577Y68121784D01*
X87064076Y68186739D01*
X87022524Y68258710D01*
X87022518Y68258718D01*
X83037590Y72243645D01*
X83037588Y72243648D01*
X82918717Y72362519D01*
X82918716Y72362520D01*
X82831904Y72412640D01*
X82831904Y72412641D01*
X82831900Y72412642D01*
X82781785Y72441577D01*
X82629057Y72482501D01*
X82470943Y72482501D01*
X82463347Y72482501D01*
X82463331Y72482500D01*
X43659661Y72482500D01*
X43659645Y72482501D01*
X43652049Y72482501D01*
X43493934Y72482501D01*
X43417570Y72462039D01*
X43341205Y72441577D01*
X43341200Y72441574D01*
X43204281Y72362525D01*
X43204273Y72362519D01*
X40159481Y69317727D01*
X40159479Y69317724D01*
X40109361Y69230915D01*
X40109359Y69230913D01*
X40080425Y69180800D01*
X40080424Y69180799D01*
X40080423Y69180794D01*
X40039499Y69028066D01*
X40039499Y69028064D01*
X40039499Y68859963D01*
X40039500Y68859950D01*
X40039500Y68146413D01*
X40019815Y68079374D01*
X40012450Y68069104D01*
X40010186Y68066266D01*
X39914211Y67913524D01*
X39854631Y67743255D01*
X39854630Y67743250D01*
X39834435Y67564004D01*
X39834435Y67563997D01*
X39854630Y67384751D01*
X39854631Y67384746D01*
X39914211Y67214477D01*
X39940718Y67172292D01*
X40010184Y67061738D01*
X40137738Y66934184D01*
X40290478Y66838211D01*
X40460745Y66778632D01*
X40460750Y66778631D01*
X40639996Y66758435D01*
X40640000Y66758435D01*
X40640004Y66758435D01*
X40819249Y66778631D01*
X40819252Y66778632D01*
X40819255Y66778632D01*
X40989522Y66838211D01*
X41142262Y66934184D01*
X41269816Y67061738D01*
X41365789Y67214478D01*
X41425368Y67384745D01*
X41425369Y67384751D01*
X41445565Y67563997D01*
X41445565Y67564004D01*
X41425369Y67743250D01*
X41425368Y67743255D01*
X41405183Y67800940D01*
X41365789Y67913522D01*
X41269816Y68066262D01*
X41269814Y68066264D01*
X41269813Y68066266D01*
X41267550Y68069104D01*
X41266659Y68071285D01*
X41266111Y68072158D01*
X41266264Y68072255D01*
X41241144Y68133791D01*
X41240500Y68146413D01*
X41240500Y68648913D01*
X41260185Y68715952D01*
X41276810Y68736585D01*
X41398960Y68858736D01*
X41460278Y68892217D01*
X41529970Y68887233D01*
X41585904Y68845362D01*
X41603678Y68812006D01*
X41625205Y68750486D01*
X41625207Y68750483D01*
X41721180Y68597743D01*
X41848734Y68470189D01*
X42001474Y68374216D01*
X42067954Y68350954D01*
X42124730Y68310232D01*
X42150477Y68245279D01*
X42150999Y68233912D01*
X42150999Y67566098D01*
X42131314Y67499059D01*
X42078510Y67453304D01*
X42067955Y67449057D01*
X42001472Y67425794D01*
X42001471Y67425793D01*
X41848733Y67329821D01*
X41721180Y67202268D01*
X41625206Y67049527D01*
X41565626Y66879255D01*
X41555833Y66792337D01*
X41528766Y66727923D01*
X41520294Y66718540D01*
X41224573Y66422818D01*
X41163253Y66389334D01*
X41136894Y66386500D01*
X19133791Y66386500D01*
X19066752Y66406185D01*
X19020997Y66458989D01*
X19011053Y66528147D01*
X19014016Y66542593D01*
X19065139Y66733390D01*
X19065141Y66733401D01*
X19084966Y66959998D01*
X19084966Y66960003D01*
X19065141Y67186600D01*
X19065139Y67186611D01*
X19006269Y67406318D01*
X19006264Y67406332D01*
X18910136Y67612479D01*
X18910132Y67612487D01*
X18859025Y67685474D01*
X18303787Y67130237D01*
X18292518Y67172292D01*
X18220110Y67297708D01*
X18117708Y67400110D01*
X17992292Y67472518D01*
X17950234Y67483788D01*
X18505472Y68039026D01*
X18432480Y68090136D01*
X18374134Y68117343D01*
X18321695Y68163516D01*
X18302543Y68230709D01*
X18322759Y68297590D01*
X18374134Y68342107D01*
X18432734Y68369432D01*
X18619139Y68499953D01*
X18780047Y68660861D01*
X18910568Y68847266D01*
X19006739Y69053504D01*
X19065635Y69273308D01*
X19085468Y69500000D01*
X19065635Y69726692D01*
X19006739Y69946496D01*
X18910568Y70152734D01*
X18780047Y70339139D01*
X18780045Y70339142D01*
X18619141Y70500046D01*
X18432734Y70630568D01*
X18432732Y70630569D01*
X18226497Y70726739D01*
X18226488Y70726742D01*
X18006697Y70785634D01*
X18006693Y70785635D01*
X18006692Y70785635D01*
X18006691Y70785636D01*
X18006686Y70785636D01*
X17780002Y70805468D01*
X17779998Y70805468D01*
X17553313Y70785636D01*
X17553302Y70785634D01*
X17333511Y70726742D01*
X17333502Y70726739D01*
X17127267Y70630569D01*
X17127265Y70630568D01*
X16940858Y70500046D01*
X16779954Y70339142D01*
X16649432Y70152735D01*
X16649431Y70152733D01*
X16622382Y70094725D01*
X16576209Y70042286D01*
X16509016Y70023134D01*
X16442135Y70043350D01*
X16397618Y70094725D01*
X16370568Y70152734D01*
X16240047Y70339139D01*
X16240045Y70339142D01*
X16079141Y70500046D01*
X15892734Y70630568D01*
X15892732Y70630569D01*
X15686497Y70726739D01*
X15686488Y70726742D01*
X15466697Y70785634D01*
X15466693Y70785635D01*
X15466692Y70785635D01*
X15466691Y70785636D01*
X15466686Y70785636D01*
X15240002Y70805468D01*
X15239998Y70805468D01*
X15013313Y70785636D01*
X15013302Y70785634D01*
X14793511Y70726742D01*
X14793502Y70726739D01*
X14587267Y70630569D01*
X14587265Y70630568D01*
X14400858Y70500046D01*
X14239954Y70339142D01*
X14109432Y70152735D01*
X14109431Y70152733D01*
X14013261Y69946498D01*
X14013258Y69946489D01*
X13954366Y69726698D01*
X13954364Y69726687D01*
X13934532Y69500002D01*
X13934532Y69499999D01*
X13954364Y69273314D01*
X13954366Y69273303D01*
X14013258Y69053512D01*
X14013261Y69053503D01*
X14109431Y68847268D01*
X14109432Y68847266D01*
X14239954Y68660859D01*
X14400858Y68499955D01*
X14400861Y68499953D01*
X14587266Y68369432D01*
X14645275Y68342382D01*
X14697714Y68296209D01*
X14716866Y68229016D01*
X14696650Y68162135D01*
X14645275Y68117618D01*
X14587267Y68090569D01*
X14587265Y68090568D01*
X14400858Y67960046D01*
X14239954Y67799142D01*
X14109432Y67612735D01*
X14109431Y67612733D01*
X14013261Y67406498D01*
X14013258Y67406489D01*
X13954366Y67186698D01*
X13954364Y67186687D01*
X13934532Y66960002D01*
X13934532Y66959999D01*
X13954364Y66733314D01*
X13954366Y66733303D01*
X14013258Y66513512D01*
X14013261Y66513503D01*
X14109431Y66307268D01*
X14109432Y66307266D01*
X14239954Y66120859D01*
X14400858Y65959955D01*
X14400861Y65959953D01*
X14587266Y65829432D01*
X14645275Y65802382D01*
X14697714Y65756209D01*
X14716866Y65689016D01*
X14696650Y65622135D01*
X14645275Y65577618D01*
X14587267Y65550569D01*
X14587265Y65550568D01*
X14400858Y65420046D01*
X14239954Y65259142D01*
X14109432Y65072735D01*
X14109431Y65072733D01*
X14013261Y64866498D01*
X14013258Y64866489D01*
X13954366Y64646698D01*
X13954364Y64646687D01*
X13934532Y64420002D01*
X13934532Y64419999D01*
X13954364Y64193314D01*
X13954366Y64193303D01*
X14013258Y63973512D01*
X14013261Y63973503D01*
X14109431Y63767268D01*
X14109432Y63767266D01*
X14239954Y63580859D01*
X14400858Y63419955D01*
X14400861Y63419953D01*
X14587266Y63289432D01*
X14645275Y63262382D01*
X14697714Y63216209D01*
X14716866Y63149016D01*
X14696650Y63082135D01*
X14645275Y63037618D01*
X14587267Y63010569D01*
X14587265Y63010568D01*
X14400858Y62880046D01*
X14239954Y62719142D01*
X14109432Y62532735D01*
X14109431Y62532733D01*
X14013261Y62326498D01*
X14013258Y62326489D01*
X13954366Y62106698D01*
X13954364Y62106687D01*
X13934532Y61880002D01*
X13934532Y61879999D01*
X13954364Y61653314D01*
X13954366Y61653303D01*
X14013258Y61433512D01*
X14013261Y61433504D01*
X14109432Y61227266D01*
X14109435Y61227262D01*
X14109870Y61226508D01*
X14109961Y61226132D01*
X14111720Y61222360D01*
X14110962Y61222007D01*
X14126348Y61158609D01*
X14103501Y61092581D01*
X14048583Y61049386D01*
X14002488Y61040500D01*
X10427512Y61040500D01*
X10360473Y61060185D01*
X10314718Y61112989D01*
X10304774Y61182147D01*
X10318636Y61222194D01*
X10318280Y61222360D01*
X10319887Y61225807D01*
X10320130Y61226508D01*
X10320559Y61227254D01*
X10320568Y61227266D01*
X10416739Y61433504D01*
X10475635Y61653308D01*
X10495468Y61880000D01*
X10475635Y62106692D01*
X10425328Y62294442D01*
X10416741Y62326489D01*
X10416738Y62326498D01*
X10408767Y62343592D01*
X10320568Y62532734D01*
X10190047Y62719139D01*
X10190045Y62719142D01*
X10029141Y62880046D01*
X9842734Y63010568D01*
X9842728Y63010571D01*
X9784725Y63037618D01*
X9732285Y63083790D01*
X9713133Y63150983D01*
X9733348Y63217865D01*
X9784725Y63262382D01*
X9842734Y63289432D01*
X10029139Y63419953D01*
X10190047Y63580861D01*
X10320568Y63767266D01*
X10416739Y63973504D01*
X10475635Y64193308D01*
X10495468Y64420000D01*
X10475635Y64646692D01*
X10416739Y64866496D01*
X10320568Y65072734D01*
X10190047Y65259139D01*
X10190045Y65259142D01*
X10029141Y65420046D01*
X9842734Y65550568D01*
X9842728Y65550571D01*
X9784725Y65577618D01*
X9732285Y65623790D01*
X9713133Y65690983D01*
X9733348Y65757865D01*
X9784725Y65802382D01*
X9842734Y65829432D01*
X10029139Y65959953D01*
X10190047Y66120861D01*
X10320568Y66307266D01*
X10416739Y66513504D01*
X10475635Y66733308D01*
X10495468Y66960000D01*
X10475635Y67186692D01*
X10416739Y67406496D01*
X10320568Y67612734D01*
X10190047Y67799139D01*
X10190045Y67799142D01*
X10029141Y67960046D01*
X9842734Y68090568D01*
X9842728Y68090571D01*
X9784725Y68117618D01*
X9732285Y68163790D01*
X9713133Y68230983D01*
X9733348Y68297865D01*
X9784725Y68342382D01*
X9842734Y68369432D01*
X10029139Y68499953D01*
X10190047Y68660861D01*
X10320568Y68847266D01*
X10416739Y69053504D01*
X10475635Y69273308D01*
X10495468Y69500000D01*
X10475635Y69726692D01*
X10416739Y69946496D01*
X10320568Y70152734D01*
X10190047Y70339139D01*
X10190045Y70339142D01*
X10029141Y70500046D01*
X9842734Y70630568D01*
X9842732Y70630569D01*
X9636497Y70726739D01*
X9636488Y70726742D01*
X9416697Y70785634D01*
X9416693Y70785635D01*
X9416692Y70785635D01*
X9416691Y70785636D01*
X9416686Y70785636D01*
X9190002Y70805468D01*
X9189998Y70805468D01*
X8963313Y70785636D01*
X8963302Y70785634D01*
X8743511Y70726742D01*
X8743502Y70726739D01*
X8537267Y70630569D01*
X8537265Y70630568D01*
X8350858Y70500046D01*
X8189954Y70339142D01*
X8059432Y70152735D01*
X8059431Y70152733D01*
X8032382Y70094725D01*
X7986209Y70042286D01*
X7919016Y70023134D01*
X7852135Y70043350D01*
X7807618Y70094725D01*
X7780568Y70152734D01*
X7650047Y70339139D01*
X7650045Y70339142D01*
X7489141Y70500046D01*
X7302734Y70630568D01*
X7302732Y70630569D01*
X7096497Y70726739D01*
X7096488Y70726742D01*
X6876697Y70785634D01*
X6876693Y70785635D01*
X6876692Y70785635D01*
X6876691Y70785636D01*
X6876686Y70785636D01*
X6650002Y70805468D01*
X6649998Y70805468D01*
X6423313Y70785636D01*
X6423302Y70785634D01*
X6203511Y70726742D01*
X6203502Y70726739D01*
X5997267Y70630569D01*
X5997265Y70630568D01*
X5810858Y70500046D01*
X5649954Y70339142D01*
X5519432Y70152735D01*
X5519431Y70152733D01*
X5423261Y69946498D01*
X5423258Y69946489D01*
X5364366Y69726698D01*
X5364364Y69726687D01*
X5344532Y69500002D01*
X5344532Y69499999D01*
X5364364Y69273314D01*
X5364366Y69273303D01*
X5423258Y69053512D01*
X5423261Y69053503D01*
X5519431Y68847268D01*
X5519432Y68847266D01*
X5649954Y68660859D01*
X5810858Y68499955D01*
X5810861Y68499953D01*
X5997266Y68369432D01*
X6055275Y68342382D01*
X6107714Y68296209D01*
X6126866Y68229016D01*
X6106650Y68162135D01*
X6055275Y68117618D01*
X5997267Y68090569D01*
X5997265Y68090568D01*
X5810858Y67960046D01*
X5649954Y67799142D01*
X5519432Y67612735D01*
X5519431Y67612733D01*
X5423261Y67406498D01*
X5423258Y67406489D01*
X5364366Y67186698D01*
X5364364Y67186687D01*
X5344532Y66960002D01*
X5344532Y66959999D01*
X5364364Y66733314D01*
X5364366Y66733303D01*
X5423258Y66513512D01*
X5423261Y66513503D01*
X5519431Y66307268D01*
X5519432Y66307266D01*
X5649954Y66120859D01*
X5810858Y65959955D01*
X5810861Y65959953D01*
X5997266Y65829432D01*
X6055275Y65802382D01*
X6107714Y65756209D01*
X6126866Y65689016D01*
X6106650Y65622135D01*
X6055275Y65577618D01*
X5997267Y65550569D01*
X5997265Y65550568D01*
X5810858Y65420046D01*
X5649954Y65259142D01*
X5519432Y65072735D01*
X5519431Y65072733D01*
X5423261Y64866498D01*
X5423258Y64866489D01*
X5364366Y64646698D01*
X5364364Y64646687D01*
X5344532Y64420002D01*
X5344532Y64419999D01*
X5364364Y64193314D01*
X5364366Y64193303D01*
X5423258Y63973512D01*
X5423261Y63973503D01*
X5519431Y63767268D01*
X5519432Y63767266D01*
X5649954Y63580859D01*
X5810858Y63419955D01*
X5810861Y63419953D01*
X5997266Y63289432D01*
X6055275Y63262382D01*
X6107714Y63216209D01*
X6126866Y63149016D01*
X6106650Y63082135D01*
X6055275Y63037618D01*
X5997267Y63010569D01*
X5997265Y63010568D01*
X5810858Y62880046D01*
X5649954Y62719142D01*
X5519432Y62532735D01*
X5519431Y62532733D01*
X5423261Y62326498D01*
X5423258Y62326489D01*
X5364366Y62106698D01*
X5364364Y62106687D01*
X5344532Y61880002D01*
X5344532Y61879999D01*
X5364364Y61653314D01*
X5364366Y61653303D01*
X5423258Y61433512D01*
X5423261Y61433503D01*
X5499417Y61270188D01*
X5519432Y61227266D01*
X5523114Y61222007D01*
X5524420Y61220143D01*
X5546747Y61153937D01*
X5529737Y61086170D01*
X5478789Y61038357D01*
X5454940Y61029246D01*
X5414063Y61018293D01*
X5344214Y60999577D01*
X5323263Y60987480D01*
X5323262Y60987480D01*
X5207290Y60920525D01*
X5207282Y60920519D01*
X4345479Y60058716D01*
X4325570Y60024232D01*
X4317155Y60009655D01*
X4266423Y59921785D01*
X4225499Y59769057D01*
X4225499Y59769055D01*
X4225499Y59600954D01*
X4225500Y59600941D01*
X4225500Y46020670D01*
X4225499Y46020652D01*
X4225499Y45854946D01*
X4225498Y45854946D01*
X500500Y45854946D01*
X500500Y74930004D01*
X61678435Y74930004D01*
X61678435Y74929997D01*
X61698630Y74750751D01*
X61698631Y74750746D01*
X61758211Y74580477D01*
X61792816Y74525404D01*
X61854184Y74427738D01*
X61981738Y74300184D01*
X62134478Y74204211D01*
X62304745Y74144632D01*
X62304750Y74144631D01*
X62483996Y74124435D01*
X62484000Y74124435D01*
X62484004Y74124435D01*
X62663249Y74144631D01*
X62663252Y74144632D01*
X62663255Y74144632D01*
X62833522Y74204211D01*
X62986262Y74300184D01*
X63113816Y74427738D01*
X63209789Y74580478D01*
X63269368Y74750745D01*
X63273791Y74790000D01*
X63289565Y74929997D01*
X63289565Y74930004D01*
X83522435Y74930004D01*
X83522435Y74929997D01*
X83542630Y74750751D01*
X83542631Y74750746D01*
X83602211Y74580477D01*
X83636816Y74525404D01*
X83698184Y74427738D01*
X83825738Y74300184D01*
X83978478Y74204211D01*
X84148745Y74144632D01*
X84148750Y74144631D01*
X84327996Y74124435D01*
X84328000Y74124435D01*
X84328004Y74124435D01*
X84507249Y74144631D01*
X84507252Y74144632D01*
X84507255Y74144632D01*
X84677522Y74204211D01*
X84814056Y74290001D01*
X86005341Y74290001D01*
X86005341Y74290000D01*
X86025936Y74054597D01*
X86025938Y74054587D01*
X86087094Y73826345D01*
X86087096Y73826341D01*
X86087097Y73826337D01*
X86167004Y73654977D01*
X86186965Y73612170D01*
X86186967Y73612166D01*
X86295281Y73457479D01*
X86322505Y73418599D01*
X86489599Y73251505D01*
X86566135Y73197914D01*
X86683165Y73115968D01*
X86683167Y73115967D01*
X86683170Y73115965D01*
X86897337Y73016097D01*
X87125592Y72954937D01*
X87296319Y72940000D01*
X87360999Y72934341D01*
X87361000Y72934341D01*
X87361001Y72934341D01*
X87425681Y72940000D01*
X87596408Y72954937D01*
X87824663Y73016097D01*
X88038830Y73115965D01*
X88232401Y73251505D01*
X88399495Y73418599D01*
X88529425Y73604158D01*
X88584002Y73647783D01*
X88653500Y73654977D01*
X88715855Y73623454D01*
X88732575Y73604158D01*
X88862500Y73418605D01*
X88862505Y73418599D01*
X89029599Y73251505D01*
X89106135Y73197914D01*
X89223165Y73115968D01*
X89223167Y73115967D01*
X89223170Y73115965D01*
X89437337Y73016097D01*
X89665592Y72954937D01*
X89836319Y72940000D01*
X89900999Y72934341D01*
X89901000Y72934341D01*
X89901001Y72934341D01*
X89965681Y72940000D01*
X90136408Y72954937D01*
X90364663Y73016097D01*
X90578830Y73115965D01*
X90772401Y73251505D01*
X90894717Y73373822D01*
X90956036Y73407304D01*
X91025728Y73402320D01*
X91081662Y73360449D01*
X91098577Y73329472D01*
X91147646Y73197912D01*
X91147649Y73197907D01*
X91233809Y73082813D01*
X91233812Y73082810D01*
X91348906Y72996650D01*
X91348913Y72996646D01*
X91483620Y72946404D01*
X91483627Y72946402D01*
X91543155Y72940001D01*
X91543172Y72940000D01*
X92191000Y72940000D01*
X92191000Y73856988D01*
X92248007Y73824075D01*
X92375174Y73790000D01*
X92506826Y73790000D01*
X92633993Y73824075D01*
X92691000Y73856988D01*
X92691000Y72940000D01*
X93338828Y72940000D01*
X93338844Y72940001D01*
X93398372Y72946402D01*
X93398379Y72946404D01*
X93533086Y72996646D01*
X93533093Y72996650D01*
X93648187Y73082810D01*
X93648190Y73082813D01*
X93734350Y73197907D01*
X93734354Y73197914D01*
X93784596Y73332621D01*
X93784598Y73332628D01*
X93790999Y73392156D01*
X93791000Y73392173D01*
X93791000Y74040000D01*
X92874012Y74040000D01*
X92906925Y74097007D01*
X92941000Y74224174D01*
X92941000Y74355826D01*
X92906925Y74482993D01*
X92874012Y74540000D01*
X93791000Y74540000D01*
X93791000Y75187828D01*
X93790999Y75187845D01*
X93784598Y75247373D01*
X93784596Y75247380D01*
X93734354Y75382087D01*
X93734350Y75382094D01*
X93648190Y75497188D01*
X93648187Y75497191D01*
X93533093Y75583351D01*
X93533086Y75583355D01*
X93398379Y75633597D01*
X93398372Y75633599D01*
X93338844Y75640000D01*
X92691000Y75640000D01*
X92691000Y74723012D01*
X92633993Y74755925D01*
X92506826Y74790000D01*
X92375174Y74790000D01*
X92248007Y74755925D01*
X92191000Y74723012D01*
X92191000Y75640000D01*
X91543155Y75640000D01*
X91483627Y75633599D01*
X91483620Y75633597D01*
X91348913Y75583355D01*
X91348906Y75583351D01*
X91233812Y75497191D01*
X91233809Y75497188D01*
X91147649Y75382094D01*
X91147645Y75382087D01*
X91098578Y75250530D01*
X91056707Y75194596D01*
X90991242Y75170179D01*
X90922969Y75185031D01*
X90894715Y75206181D01*
X90850366Y75250530D01*
X90772401Y75328495D01*
X90772397Y75328498D01*
X90772396Y75328499D01*
X90578834Y75464033D01*
X90578830Y75464035D01*
X90507727Y75497191D01*
X90364663Y75563903D01*
X90364659Y75563904D01*
X90364655Y75563906D01*
X90136413Y75625062D01*
X90136403Y75625064D01*
X89901001Y75645659D01*
X89900999Y75645659D01*
X89665596Y75625064D01*
X89665586Y75625062D01*
X89437344Y75563906D01*
X89437337Y75563904D01*
X89437337Y75563903D01*
X89423816Y75557599D01*
X89223171Y75464036D01*
X89223169Y75464035D01*
X89029597Y75328495D01*
X88862505Y75161403D01*
X88732575Y74975842D01*
X88677998Y74932217D01*
X88608500Y74925023D01*
X88546145Y74956546D01*
X88529425Y74975842D01*
X88399494Y75161403D01*
X88232402Y75328494D01*
X88232395Y75328499D01*
X88038834Y75464033D01*
X88038830Y75464035D01*
X87967727Y75497191D01*
X87824663Y75563903D01*
X87824659Y75563904D01*
X87824655Y75563906D01*
X87596413Y75625062D01*
X87596403Y75625064D01*
X87361001Y75645659D01*
X87360999Y75645659D01*
X87125596Y75625064D01*
X87125586Y75625062D01*
X86897344Y75563906D01*
X86897337Y75563904D01*
X86897337Y75563903D01*
X86883816Y75557599D01*
X86683171Y75464036D01*
X86683169Y75464035D01*
X86489597Y75328495D01*
X86322505Y75161403D01*
X86186965Y74967831D01*
X86186964Y74967829D01*
X86087098Y74753665D01*
X86087094Y74753656D01*
X86025938Y74525414D01*
X86025936Y74525404D01*
X86005341Y74290001D01*
X84814056Y74290001D01*
X84830262Y74300184D01*
X84957816Y74427738D01*
X85053789Y74580478D01*
X85113368Y74750745D01*
X85117791Y74790000D01*
X85133565Y74929997D01*
X85133565Y74930004D01*
X85113369Y75109250D01*
X85113368Y75109255D01*
X85065036Y75247380D01*
X85053789Y75279522D01*
X84957816Y75432262D01*
X84830262Y75559816D01*
X84823753Y75563906D01*
X84677523Y75655789D01*
X84507254Y75715369D01*
X84507249Y75715370D01*
X84328004Y75735565D01*
X84327996Y75735565D01*
X84148750Y75715370D01*
X84148745Y75715369D01*
X83978476Y75655789D01*
X83825737Y75559816D01*
X83698184Y75432263D01*
X83602211Y75279524D01*
X83542631Y75109255D01*
X83542630Y75109250D01*
X83522435Y74930004D01*
X63289565Y74930004D01*
X63269369Y75109250D01*
X63269368Y75109255D01*
X63221036Y75247380D01*
X63209789Y75279522D01*
X63113816Y75432262D01*
X62986262Y75559816D01*
X62979753Y75563906D01*
X62833523Y75655789D01*
X62663254Y75715369D01*
X62663249Y75715370D01*
X62484004Y75735565D01*
X62483996Y75735565D01*
X62304750Y75715370D01*
X62304745Y75715369D01*
X62134476Y75655789D01*
X61981737Y75559816D01*
X61854184Y75432263D01*
X61758211Y75279524D01*
X61698631Y75109255D01*
X61698630Y75109250D01*
X61678435Y74930004D01*
X500500Y74930004D01*
X500500Y77400006D01*
X8144859Y77400006D01*
X8144859Y77399995D01*
X8165385Y77152271D01*
X8165387Y77152262D01*
X8226412Y76911283D01*
X8326266Y76683636D01*
X8426564Y76530118D01*
X8972421Y77075976D01*
X8985359Y77044742D01*
X9067437Y76921903D01*
X9171903Y76817437D01*
X9294742Y76735359D01*
X9325974Y76722423D01*
X8779942Y76176391D01*
X8826768Y76139945D01*
X8826770Y76139944D01*
X9045385Y76021636D01*
X9045396Y76021631D01*
X9280506Y75940917D01*
X9525707Y75900000D01*
X9774293Y75900000D01*
X10019493Y75940917D01*
X10254603Y76021631D01*
X10254614Y76021636D01*
X10473228Y76139943D01*
X10473231Y76139945D01*
X10520056Y76176391D01*
X9974025Y76722422D01*
X10005258Y76735359D01*
X10128097Y76817437D01*
X10232563Y76921903D01*
X10314641Y77044742D01*
X10327578Y77075975D01*
X10873434Y76530118D01*
X10973731Y76683631D01*
X11073587Y76911283D01*
X11134612Y77152262D01*
X11134614Y77152271D01*
X11155141Y77399995D01*
X11155141Y77400006D01*
X16274357Y77400006D01*
X16274357Y77399995D01*
X16294890Y77152188D01*
X16294892Y77152176D01*
X16355936Y76911119D01*
X16455826Y76683394D01*
X16591833Y76475218D01*
X16591836Y76475215D01*
X16760256Y76292262D01*
X16956491Y76139526D01*
X16956493Y76139525D01*
X17174332Y76021636D01*
X17175190Y76021172D01*
X17394141Y75946006D01*
X17408964Y75940917D01*
X17410386Y75940429D01*
X17655665Y75899500D01*
X17904335Y75899500D01*
X18149614Y75940429D01*
X18384810Y76021172D01*
X18603509Y76139526D01*
X18799744Y76292262D01*
X18968164Y76475215D01*
X19104173Y76683393D01*
X19204063Y76911119D01*
X19265108Y77152179D01*
X19265116Y77152271D01*
X19285643Y77399995D01*
X19285643Y77400006D01*
X19265109Y77647813D01*
X19265107Y77647825D01*
X19204063Y77888882D01*
X19104173Y78116607D01*
X18968166Y78324783D01*
X18879832Y78420739D01*
X18799744Y78507738D01*
X18603509Y78660474D01*
X18603507Y78660475D01*
X18603506Y78660476D01*
X18384811Y78778828D01*
X18384802Y78778831D01*
X18149616Y78859571D01*
X17904335Y78900500D01*
X17655665Y78900500D01*
X17410383Y78859571D01*
X17175197Y78778831D01*
X17175188Y78778828D01*
X16956493Y78660476D01*
X16760257Y78507739D01*
X16591833Y78324783D01*
X16455826Y78116607D01*
X16355936Y77888882D01*
X16294892Y77647825D01*
X16294890Y77647813D01*
X16274357Y77400006D01*
X11155141Y77400006D01*
X11134614Y77647730D01*
X11134612Y77647739D01*
X11073587Y77888718D01*
X10973731Y78116370D01*
X10873434Y78269884D01*
X10327577Y77724027D01*
X10314641Y77755258D01*
X10232563Y77878097D01*
X10128097Y77982563D01*
X10005258Y78064641D01*
X9974025Y78077579D01*
X10520057Y78623610D01*
X10520056Y78623611D01*
X10473229Y78660057D01*
X10254614Y78778365D01*
X10254603Y78778370D01*
X10019493Y78859084D01*
X9774293Y78900000D01*
X9525707Y78900000D01*
X9280506Y78859084D01*
X9045396Y78778370D01*
X9045390Y78778368D01*
X8826761Y78660051D01*
X8779942Y78623612D01*
X8779942Y78623610D01*
X9325974Y78077579D01*
X9294742Y78064641D01*
X9171903Y77982563D01*
X9067437Y77878097D01*
X8985359Y77755258D01*
X8972422Y77724026D01*
X8426564Y78269884D01*
X8326267Y78116368D01*
X8226412Y77888718D01*
X8165387Y77647739D01*
X8165385Y77647730D01*
X8144859Y77400006D01*
X500500Y77400006D01*
X500500Y80300006D01*
X10474859Y80300006D01*
X10474859Y80299995D01*
X10495385Y80052271D01*
X10495387Y80052262D01*
X10556412Y79811283D01*
X10656266Y79583636D01*
X10756564Y79430118D01*
X11302421Y79975976D01*
X11315359Y79944742D01*
X11397437Y79821903D01*
X11501903Y79717437D01*
X11624742Y79635359D01*
X11655974Y79622423D01*
X11109942Y79076391D01*
X11156768Y79039945D01*
X11156770Y79039944D01*
X11375385Y78921636D01*
X11375396Y78921631D01*
X11610506Y78840917D01*
X11855707Y78800000D01*
X12104293Y78800000D01*
X12349493Y78840917D01*
X12584603Y78921631D01*
X12584614Y78921636D01*
X12803228Y79039943D01*
X12803231Y79039945D01*
X12850056Y79076391D01*
X12304025Y79622422D01*
X12335258Y79635359D01*
X12458097Y79717437D01*
X12562563Y79821903D01*
X12644641Y79944742D01*
X12657577Y79975975D01*
X13203434Y79430118D01*
X13303731Y79583631D01*
X13403587Y79811283D01*
X13464612Y80052262D01*
X13464614Y80052271D01*
X13485141Y80299995D01*
X13485141Y80300006D01*
X13464614Y80547730D01*
X13464612Y80547739D01*
X13403587Y80788718D01*
X13303731Y81016370D01*
X13203434Y81169884D01*
X12657577Y80624027D01*
X12644641Y80655258D01*
X12562563Y80778097D01*
X12458097Y80882563D01*
X12335258Y80964641D01*
X12304025Y80977579D01*
X12850057Y81523610D01*
X12850056Y81523611D01*
X12803229Y81560057D01*
X12584614Y81678365D01*
X12584603Y81678370D01*
X12349493Y81759084D01*
X12104293Y81800000D01*
X11855707Y81800000D01*
X11610506Y81759084D01*
X11375396Y81678370D01*
X11375390Y81678368D01*
X11156761Y81560051D01*
X11109942Y81523612D01*
X11109942Y81523610D01*
X11655974Y80977579D01*
X11624742Y80964641D01*
X11501903Y80882563D01*
X11397437Y80778097D01*
X11315359Y80655258D01*
X11302422Y80624026D01*
X10756564Y81169884D01*
X10656267Y81016368D01*
X10556412Y80788718D01*
X10495387Y80547739D01*
X10495385Y80547730D01*
X10474859Y80300006D01*
X500500Y80300006D01*
X500500Y83200006D01*
X8144357Y83200006D01*
X8144357Y83199995D01*
X8164890Y82952188D01*
X8164892Y82952176D01*
X8225936Y82711119D01*
X8325826Y82483394D01*
X8461833Y82275218D01*
X8461836Y82275215D01*
X8630256Y82092262D01*
X8826491Y81939526D01*
X9045190Y81821172D01*
X9280386Y81740429D01*
X9525665Y81699500D01*
X9774335Y81699500D01*
X10019614Y81740429D01*
X10254810Y81821172D01*
X10473509Y81939526D01*
X10669744Y82092262D01*
X10838164Y82275215D01*
X10974173Y82483393D01*
X11074063Y82711119D01*
X11135108Y82952179D01*
X11140431Y83016417D01*
X11155643Y83199995D01*
X11155643Y83200006D01*
X16274357Y83200006D01*
X16274357Y83199995D01*
X16294890Y82952188D01*
X16294892Y82952176D01*
X16355936Y82711119D01*
X16455826Y82483394D01*
X16591833Y82275218D01*
X16591836Y82275215D01*
X16760256Y82092262D01*
X16956491Y81939526D01*
X17175190Y81821172D01*
X17410386Y81740429D01*
X17655665Y81699500D01*
X17904335Y81699500D01*
X18149614Y81740429D01*
X18384810Y81821172D01*
X18603509Y81939526D01*
X18799744Y82092262D01*
X18968164Y82275215D01*
X19104173Y82483393D01*
X19204063Y82711119D01*
X19265108Y82952179D01*
X19270431Y83016417D01*
X19285643Y83199995D01*
X19285643Y83200006D01*
X19265109Y83447813D01*
X19265107Y83447825D01*
X19204063Y83688882D01*
X19104173Y83916607D01*
X18968166Y84124783D01*
X18946557Y84148256D01*
X18799744Y84307738D01*
X18603509Y84460474D01*
X18603507Y84460475D01*
X18603506Y84460476D01*
X18384811Y84578828D01*
X18384802Y84578831D01*
X18149616Y84659571D01*
X17904335Y84700500D01*
X17655665Y84700500D01*
X17410383Y84659571D01*
X17175197Y84578831D01*
X17175188Y84578828D01*
X16956493Y84460476D01*
X16760257Y84307739D01*
X16591833Y84124783D01*
X16455826Y83916607D01*
X16355936Y83688882D01*
X16294892Y83447825D01*
X16294890Y83447813D01*
X16274357Y83200006D01*
X11155643Y83200006D01*
X11135109Y83447813D01*
X11135107Y83447825D01*
X11074063Y83688882D01*
X10974173Y83916607D01*
X10838166Y84124783D01*
X10816557Y84148256D01*
X10669744Y84307738D01*
X10473509Y84460474D01*
X10473507Y84460475D01*
X10473506Y84460476D01*
X10254811Y84578828D01*
X10254802Y84578831D01*
X10019616Y84659571D01*
X9774335Y84700500D01*
X9525665Y84700500D01*
X9280383Y84659571D01*
X9045197Y84578831D01*
X9045188Y84578828D01*
X8826493Y84460476D01*
X8630257Y84307739D01*
X8461833Y84124783D01*
X8325826Y83916607D01*
X8225936Y83688882D01*
X8164892Y83447825D01*
X8164890Y83447813D01*
X8144357Y83200006D01*
X500500Y83200006D01*
X500500Y84836000D01*
X2296659Y84836000D01*
X2315975Y84639871D01*
X2373188Y84451267D01*
X2466086Y84277468D01*
X2466090Y84277461D01*
X2591116Y84125117D01*
X2743460Y84000091D01*
X2743467Y84000087D01*
X2917266Y83907189D01*
X2917269Y83907189D01*
X2917273Y83907186D01*
X3105868Y83849976D01*
X3302000Y83830659D01*
X3498132Y83849976D01*
X3686727Y83907186D01*
X3704353Y83916607D01*
X3860532Y84000087D01*
X3860538Y84000090D01*
X4012883Y84125117D01*
X4137910Y84277462D01*
X4230814Y84451273D01*
X4288024Y84639868D01*
X4307341Y84836000D01*
X4288024Y85032132D01*
X4230814Y85220727D01*
X4230811Y85220731D01*
X4230811Y85220734D01*
X4137913Y85394533D01*
X4137909Y85394540D01*
X4012883Y85546884D01*
X3860539Y85671910D01*
X3860532Y85671914D01*
X3686733Y85764812D01*
X3686727Y85764814D01*
X3498132Y85822024D01*
X3498129Y85822025D01*
X3302000Y85841341D01*
X3105870Y85822025D01*
X2917266Y85764812D01*
X2743467Y85671914D01*
X2743460Y85671910D01*
X2591116Y85546884D01*
X2466090Y85394540D01*
X2466086Y85394533D01*
X2373188Y85220734D01*
X2315975Y85032130D01*
X2296659Y84836000D01*
X500500Y84836000D01*
X500500Y88297635D01*
X16549500Y88297635D01*
X16549500Y88102366D01*
X16580045Y87909515D01*
X16640381Y87723816D01*
X16640382Y87723813D01*
X16729031Y87549833D01*
X16843793Y87391875D01*
X16843797Y87391870D01*
X16981869Y87253798D01*
X16981874Y87253794D01*
X17119653Y87153693D01*
X17139836Y87139029D01*
X17253565Y87081081D01*
X17313812Y87050383D01*
X17313815Y87050382D01*
X17406664Y87020214D01*
X17499516Y86990045D01*
X17588835Y86975899D01*
X17692366Y86959500D01*
X17692371Y86959500D01*
X17887634Y86959500D01*
X17981125Y86974309D01*
X18080484Y86990045D01*
X18266187Y87050383D01*
X18440164Y87139029D01*
X18598132Y87253799D01*
X18736201Y87391868D01*
X18850971Y87549836D01*
X18939617Y87723813D01*
X18999955Y87909516D01*
X19024991Y88067588D01*
X19030500Y88102366D01*
X19030500Y88105147D01*
X21739294Y88105147D01*
X21739294Y88105140D01*
X21759489Y87925894D01*
X21759490Y87925889D01*
X21819070Y87755620D01*
X21909690Y87611400D01*
X21915043Y87602881D01*
X22042597Y87475327D01*
X22195337Y87379354D01*
X22365604Y87319775D01*
X22365609Y87319774D01*
X22544855Y87299578D01*
X22544859Y87299578D01*
X22544863Y87299578D01*
X22724108Y87319774D01*
X22724111Y87319775D01*
X22724114Y87319775D01*
X22894381Y87379354D01*
X23047121Y87475327D01*
X23174675Y87602881D01*
X23270648Y87755621D01*
X23330227Y87925888D01*
X23347616Y88080217D01*
X23350424Y88105140D01*
X23350424Y88105145D01*
X23346289Y88141842D01*
X23344576Y88157044D01*
X23356630Y88225864D01*
X23403978Y88277244D01*
X23471589Y88294869D01*
X23481674Y88294148D01*
X23518912Y88289952D01*
X23558998Y88285435D01*
X23559000Y88285435D01*
X23559004Y88285435D01*
X23738249Y88305631D01*
X23738252Y88305632D01*
X23738255Y88305632D01*
X23908522Y88365211D01*
X24061262Y88461184D01*
X24188816Y88588738D01*
X24284789Y88741478D01*
X24344368Y88911745D01*
X24345174Y88918899D01*
X24364565Y89090997D01*
X24364565Y89091004D01*
X24344369Y89270250D01*
X24344368Y89270255D01*
X24286592Y89435369D01*
X24284789Y89440522D01*
X24188816Y89593262D01*
X24061262Y89720816D01*
X23908523Y89816789D01*
X23738254Y89876369D01*
X23738249Y89876370D01*
X23559004Y89896565D01*
X23558996Y89896565D01*
X23379750Y89876370D01*
X23379745Y89876369D01*
X23209476Y89816789D01*
X23056737Y89720816D01*
X22929184Y89593263D01*
X22833211Y89440524D01*
X22773631Y89270255D01*
X22773630Y89270250D01*
X22753435Y89091004D01*
X22753435Y89090996D01*
X22759282Y89039100D01*
X22747227Y88970278D01*
X22699878Y88918899D01*
X22632268Y88901275D01*
X22622179Y88901997D01*
X22544863Y88910708D01*
X22544855Y88910708D01*
X22365609Y88890513D01*
X22365604Y88890512D01*
X22195335Y88830932D01*
X22042596Y88734959D01*
X21915043Y88607406D01*
X21819070Y88454667D01*
X21759490Y88284398D01*
X21759489Y88284393D01*
X21739294Y88105147D01*
X19030500Y88105147D01*
X19030500Y88297635D01*
X19005628Y88454665D01*
X18999955Y88490484D01*
X18968031Y88588738D01*
X18939618Y88676185D01*
X18939617Y88676188D01*
X18881129Y88790975D01*
X18850971Y88850164D01*
X18813312Y88901997D01*
X18736206Y89008126D01*
X18736202Y89008131D01*
X18598130Y89146203D01*
X18598125Y89146207D01*
X18440167Y89260969D01*
X18440166Y89260970D01*
X18440164Y89260971D01*
X18384426Y89289371D01*
X18266187Y89349618D01*
X18266184Y89349619D01*
X18080485Y89409955D01*
X17887634Y89440500D01*
X17887629Y89440500D01*
X17692371Y89440500D01*
X17692366Y89440500D01*
X17499514Y89409955D01*
X17313815Y89349619D01*
X17313812Y89349618D01*
X17139832Y89260969D01*
X16981874Y89146207D01*
X16981869Y89146203D01*
X16843797Y89008131D01*
X16843793Y89008126D01*
X16729031Y88850168D01*
X16640382Y88676188D01*
X16640381Y88676185D01*
X16580045Y88490486D01*
X16549500Y88297635D01*
X500500Y88297635D01*
X500500Y92837061D01*
X6449500Y92837061D01*
X6449500Y92562940D01*
X6480189Y92290570D01*
X6480191Y92290558D01*
X6541186Y92023320D01*
X6541190Y92023308D01*
X6631721Y91764587D01*
X6631724Y91764579D01*
X6750648Y91517630D01*
X6896489Y91285526D01*
X6896490Y91285524D01*
X7067386Y91071226D01*
X7261225Y90877387D01*
X7475523Y90706491D01*
X7475525Y90706490D01*
X7707629Y90560649D01*
X7954578Y90441725D01*
X7954585Y90441723D01*
X7954590Y90441720D01*
X8148903Y90373727D01*
X8213307Y90351191D01*
X8213319Y90351187D01*
X8480557Y90290191D01*
X8752940Y90259501D01*
X8752941Y90259500D01*
X8752944Y90259500D01*
X9027059Y90259500D01*
X9027059Y90259501D01*
X9299443Y90290191D01*
X9566681Y90351187D01*
X9825410Y90441720D01*
X9825418Y90441724D01*
X9825421Y90441725D01*
X10072370Y90560649D01*
X10072370Y90560650D01*
X10072376Y90560652D01*
X10304472Y90706488D01*
X10304476Y90706491D01*
X10518774Y90877387D01*
X10518776Y90877390D01*
X10518781Y90877393D01*
X10712607Y91071219D01*
X10883512Y91285528D01*
X11029348Y91517624D01*
X11148280Y91764590D01*
X11238813Y92023319D01*
X11299809Y92290557D01*
X11330500Y92562944D01*
X11330500Y92837056D01*
X11299809Y93109443D01*
X11238813Y93376681D01*
X11148280Y93635410D01*
X11148277Y93635415D01*
X11148275Y93635422D01*
X11029351Y93882371D01*
X11025446Y93888585D01*
X10883512Y94114472D01*
X10883510Y94114475D01*
X10883509Y94114477D01*
X10712613Y94328775D01*
X10518774Y94522614D01*
X10304476Y94693510D01*
X10304474Y94693511D01*
X10072370Y94839352D01*
X9825421Y94958276D01*
X9825413Y94958279D01*
X9566692Y95048810D01*
X9566680Y95048814D01*
X9360438Y95095888D01*
X9299443Y95109809D01*
X9299439Y95109810D01*
X9299430Y95109811D01*
X9027060Y95140500D01*
X9027056Y95140500D01*
X8752944Y95140500D01*
X8752939Y95140500D01*
X8480569Y95109811D01*
X8480557Y95109809D01*
X8213319Y95048814D01*
X8213307Y95048810D01*
X7954586Y94958279D01*
X7954578Y94958276D01*
X7707629Y94839352D01*
X7475525Y94693511D01*
X7475523Y94693510D01*
X7261225Y94522614D01*
X7067386Y94328775D01*
X6896490Y94114477D01*
X6896489Y94114475D01*
X6750648Y93882371D01*
X6631724Y93635422D01*
X6631721Y93635414D01*
X6541190Y93376693D01*
X6541186Y93376681D01*
X6480191Y93109443D01*
X6480189Y93109431D01*
X6449500Y92837061D01*
X500500Y92837061D01*
X500500Y95373004D01*
X40903721Y95373004D01*
X40903721Y95372999D01*
X40922791Y95155026D01*
X40922791Y95155022D01*
X40979420Y94943679D01*
X40979422Y94943675D01*
X40979423Y94943671D01*
X41025659Y94844517D01*
X41071895Y94745363D01*
X41071896Y94745362D01*
X41197400Y94566124D01*
X41197404Y94566120D01*
X41227840Y94535684D01*
X41261325Y94474361D01*
X41256341Y94404669D01*
X41227843Y94360324D01*
X41197399Y94329879D01*
X41071898Y94150645D01*
X41071896Y94150641D01*
X40991098Y93977371D01*
X40983652Y93961400D01*
X40979424Y93952334D01*
X40979420Y93952325D01*
X40922791Y93740982D01*
X40922791Y93740978D01*
X40903721Y93523005D01*
X40903721Y93523000D01*
X40922791Y93305027D01*
X40922791Y93305023D01*
X40979420Y93093680D01*
X40979422Y93093676D01*
X40979423Y93093672D01*
X41025659Y92994518D01*
X41071895Y92895364D01*
X41071896Y92895363D01*
X41197400Y92716125D01*
X41350581Y92562944D01*
X41352122Y92561403D01*
X41456122Y92488582D01*
X41499747Y92434005D01*
X41508999Y92387007D01*
X41508999Y89708995D01*
X41489314Y89641956D01*
X41456123Y89607420D01*
X41352116Y89534594D01*
X41197400Y89379878D01*
X41071898Y89200642D01*
X41071896Y89200638D01*
X40979424Y89002331D01*
X40979420Y89002322D01*
X40922791Y88790979D01*
X40922791Y88790975D01*
X40903721Y88573002D01*
X40903721Y88572997D01*
X40922791Y88355024D01*
X40922791Y88355020D01*
X40979420Y88143677D01*
X40979422Y88143673D01*
X40979423Y88143669D01*
X41009011Y88080217D01*
X41071895Y87945361D01*
X41071896Y87945360D01*
X41197400Y87766122D01*
X41302839Y87660683D01*
X41352122Y87611400D01*
X41456122Y87538579D01*
X41499747Y87484002D01*
X41508999Y87437004D01*
X41508999Y77658997D01*
X41489314Y77591958D01*
X41456123Y77557422D01*
X41352116Y77484596D01*
X41197400Y77329880D01*
X41071898Y77150644D01*
X41071896Y77150640D01*
X40979424Y76952333D01*
X40979420Y76952324D01*
X40922791Y76740981D01*
X40922791Y76740977D01*
X40903721Y76523004D01*
X40903721Y76522999D01*
X40922791Y76305026D01*
X40922791Y76305022D01*
X40979420Y76093679D01*
X40979422Y76093675D01*
X40979423Y76093671D01*
X41013230Y76021172D01*
X41071895Y75895363D01*
X41071896Y75895362D01*
X41197400Y75716124D01*
X41352121Y75561403D01*
X41443825Y75497191D01*
X41456122Y75488581D01*
X41499747Y75434004D01*
X41500176Y75431822D01*
X41508999Y75422999D01*
X41531533Y75422999D01*
X41583937Y75411382D01*
X41729668Y75343426D01*
X41941021Y75286794D01*
X42123924Y75270793D01*
X42158996Y75267724D01*
X42158998Y75267724D01*
X42159000Y75267724D01*
X42187252Y75270196D01*
X42376975Y75286794D01*
X42588328Y75343426D01*
X42734058Y75411382D01*
X42786463Y75422999D01*
X58309002Y75422999D01*
X58309002Y77470004D01*
X92920435Y77470004D01*
X92920435Y77469997D01*
X92940630Y77290751D01*
X92940631Y77290746D01*
X93000211Y77120477D01*
X93047799Y77044742D01*
X93096184Y76967738D01*
X93223738Y76840184D01*
X93376478Y76744211D01*
X93401776Y76735359D01*
X93546745Y76684632D01*
X93546750Y76684631D01*
X93725996Y76664435D01*
X93726000Y76664435D01*
X93726004Y76664435D01*
X93905249Y76684631D01*
X93905252Y76684632D01*
X93905255Y76684632D01*
X94075522Y76744211D01*
X94228262Y76840184D01*
X94355816Y76967738D01*
X94451789Y77120478D01*
X94511368Y77290745D01*
X94515355Y77326131D01*
X94531565Y77469997D01*
X94531565Y77470004D01*
X94511369Y77649250D01*
X94511368Y77649255D01*
X94507959Y77658997D01*
X94451789Y77819522D01*
X94355816Y77972262D01*
X94228262Y78099816D01*
X94201920Y78116368D01*
X94075523Y78195789D01*
X93905254Y78255369D01*
X93905249Y78255370D01*
X93726004Y78275565D01*
X93725996Y78275565D01*
X93546750Y78255370D01*
X93546745Y78255369D01*
X93376476Y78195789D01*
X93223737Y78099816D01*
X93096184Y77972263D01*
X93000211Y77819524D01*
X92940631Y77649255D01*
X92940630Y77649250D01*
X92920435Y77470004D01*
X58309002Y77470004D01*
X58309002Y78056912D01*
X58328687Y78123951D01*
X58381491Y78169706D01*
X58392048Y78173954D01*
X58458516Y78197212D01*
X58611256Y78293185D01*
X58738810Y78420739D01*
X58834783Y78573479D01*
X58894362Y78743746D01*
X58898315Y78778831D01*
X58914559Y78922998D01*
X58914559Y78923005D01*
X58894363Y79102251D01*
X58894362Y79102256D01*
X58834782Y79272525D01*
X58781683Y79357031D01*
X58762683Y79424267D01*
X58781683Y79488974D01*
X58834783Y79573480D01*
X58894362Y79743747D01*
X58895729Y79755877D01*
X58914559Y79922999D01*
X58914559Y79923006D01*
X58894363Y80102252D01*
X58894362Y80102257D01*
X58834783Y80272524D01*
X58738810Y80425264D01*
X58611256Y80552818D01*
X58458516Y80648791D01*
X58458514Y80648792D01*
X58392047Y80672050D01*
X58335271Y80712772D01*
X58309524Y80777725D01*
X58309002Y80789091D01*
X58309002Y81187010D01*
X58328687Y81254049D01*
X58361879Y81288585D01*
X58465872Y81361401D01*
X58620593Y81516122D01*
X58746097Y81695360D01*
X58838570Y81893669D01*
X58895202Y82105022D01*
X58914272Y82322999D01*
X58895202Y82540976D01*
X58838570Y82752329D01*
X58746097Y82950637D01*
X58746095Y82950640D01*
X58746094Y82950642D01*
X58620594Y83129875D01*
X58550463Y83200006D01*
X58465872Y83284597D01*
X58410842Y83323130D01*
X58361877Y83357416D01*
X58318253Y83411993D01*
X58309002Y83458990D01*
X58309002Y85487010D01*
X58328687Y85554049D01*
X58361879Y85588585D01*
X58465872Y85661401D01*
X58620593Y85816122D01*
X58746097Y85995360D01*
X58838570Y86193669D01*
X58895202Y86405022D01*
X58914272Y86622999D01*
X58895202Y86840976D01*
X58839092Y87050382D01*
X58838572Y87052322D01*
X58838571Y87052323D01*
X58838570Y87052329D01*
X58746097Y87250637D01*
X58746095Y87250640D01*
X58746094Y87250642D01*
X58620594Y87429875D01*
X58613465Y87437004D01*
X58565147Y87485322D01*
X58531664Y87546642D01*
X58536648Y87616334D01*
X58565146Y87660679D01*
X58620593Y87716125D01*
X58746097Y87895363D01*
X58838570Y88093672D01*
X58895202Y88305025D01*
X58914272Y88523002D01*
X58903161Y88650004D01*
X76664435Y88650004D01*
X76664435Y88649997D01*
X76684630Y88470751D01*
X76684631Y88470746D01*
X76744211Y88300477D01*
X76840185Y88147737D01*
X76842445Y88144903D01*
X76843334Y88142725D01*
X76843889Y88141842D01*
X76843734Y88141745D01*
X76868855Y88080217D01*
X76869500Y88067588D01*
X76869500Y82890670D01*
X76869499Y82890652D01*
X76869499Y82724946D01*
X76869498Y82724946D01*
X76869499Y82724943D01*
X76910423Y82572215D01*
X76910424Y82572213D01*
X76910423Y82572213D01*
X76926367Y82544599D01*
X76926369Y82544597D01*
X76926370Y82544595D01*
X76961704Y82483394D01*
X76989479Y82435285D01*
X77108349Y82316415D01*
X77108355Y82316410D01*
X79537873Y79886892D01*
X79571358Y79825569D01*
X79566374Y79755877D01*
X79524502Y79699944D01*
X79459038Y79675527D01*
X79390765Y79690379D01*
X79384220Y79694217D01*
X79343523Y79719789D01*
X79173254Y79779369D01*
X79173249Y79779370D01*
X78994004Y79799565D01*
X78993996Y79799565D01*
X78814750Y79779370D01*
X78814745Y79779369D01*
X78644476Y79719789D01*
X78491737Y79623816D01*
X78364184Y79496263D01*
X78268211Y79343524D01*
X78208631Y79173255D01*
X78208630Y79173250D01*
X78188435Y78994004D01*
X78188435Y78993997D01*
X78208630Y78814751D01*
X78208631Y78814746D01*
X78268211Y78644477D01*
X78364184Y78491738D01*
X78491738Y78364184D01*
X78554441Y78324785D01*
X78604730Y78293186D01*
X78644478Y78268211D01*
X78814745Y78208632D01*
X78814750Y78208631D01*
X78993996Y78188435D01*
X78994000Y78188435D01*
X78994004Y78188435D01*
X79173249Y78208631D01*
X79173252Y78208632D01*
X79173255Y78208632D01*
X79343522Y78268211D01*
X79496262Y78364184D01*
X79623816Y78491738D01*
X79697006Y78608219D01*
X79749341Y78654510D01*
X79818395Y78665158D01*
X79882243Y78636783D01*
X79906994Y78608219D01*
X79980184Y78491738D01*
X80107738Y78364184D01*
X80170441Y78324785D01*
X80220730Y78293186D01*
X80260478Y78268211D01*
X80430745Y78208632D01*
X80430750Y78208631D01*
X80609996Y78188435D01*
X80610000Y78188435D01*
X80610004Y78188435D01*
X80789249Y78208631D01*
X80789252Y78208632D01*
X80789255Y78208632D01*
X80959522Y78268211D01*
X81112262Y78364184D01*
X81239816Y78491738D01*
X81335789Y78644478D01*
X81395368Y78814745D01*
X81404974Y78900000D01*
X81415565Y78993997D01*
X81415565Y78994004D01*
X81395369Y79173250D01*
X81395368Y79173255D01*
X81335789Y79343522D01*
X81239816Y79496262D01*
X81239815Y79496263D01*
X81237555Y79499097D01*
X81236665Y79501276D01*
X81236111Y79502158D01*
X81236265Y79502256D01*
X81211146Y79563784D01*
X81210501Y79576411D01*
X81210501Y79743056D01*
X81210316Y79743748D01*
X81169577Y79895784D01*
X81147450Y79934109D01*
X81090524Y80032710D01*
X81090518Y80032718D01*
X78106819Y83016417D01*
X78073334Y83077740D01*
X78070500Y83104098D01*
X78070500Y88067588D01*
X78090185Y88134627D01*
X78097555Y88144903D01*
X78099810Y88147733D01*
X78099816Y88147738D01*
X78195789Y88300478D01*
X78255368Y88470745D01*
X78257592Y88490484D01*
X78275565Y88649997D01*
X78275565Y88650004D01*
X78255369Y88829250D01*
X78255368Y88829255D01*
X78241879Y88867804D01*
X78195789Y88999522D01*
X78170920Y89039100D01*
X78138311Y89090997D01*
X78099816Y89152262D01*
X77972262Y89279816D01*
X77892589Y89329878D01*
X77819523Y89375789D01*
X77649254Y89435369D01*
X77649249Y89435370D01*
X77470004Y89455565D01*
X77469996Y89455565D01*
X77290750Y89435370D01*
X77290745Y89435369D01*
X77120476Y89375789D01*
X76967737Y89279816D01*
X76840184Y89152263D01*
X76744211Y88999524D01*
X76684631Y88829255D01*
X76684630Y88829250D01*
X76664435Y88650004D01*
X58903161Y88650004D01*
X58895202Y88740979D01*
X58838570Y88952332D01*
X58746097Y89150640D01*
X58746095Y89150643D01*
X58746094Y89150645D01*
X58620594Y89329878D01*
X58570594Y89379878D01*
X58465872Y89484600D01*
X58410842Y89523133D01*
X58361877Y89557419D01*
X58318253Y89611996D01*
X58309002Y89658993D01*
X58309002Y93787010D01*
X58328687Y93854049D01*
X58361879Y93888585D01*
X58452920Y93952332D01*
X58465872Y93961401D01*
X58620593Y94116122D01*
X58746097Y94295360D01*
X58838570Y94493669D01*
X58895202Y94705022D01*
X58914272Y94922999D01*
X58912463Y94943671D01*
X58903265Y95048810D01*
X58895202Y95140976D01*
X58838570Y95352329D01*
X58746097Y95550637D01*
X58746095Y95550640D01*
X58746094Y95550642D01*
X58620594Y95729875D01*
X58543655Y95806814D01*
X58465872Y95884597D01*
X58410842Y95923130D01*
X58361877Y95957416D01*
X58345964Y95977324D01*
X58345321Y95976680D01*
X58309002Y96012999D01*
X58307909Y96012999D01*
X58255504Y96024617D01*
X58238204Y96032684D01*
X58088325Y96102574D01*
X58088321Y96102575D01*
X58088317Y96102577D01*
X57876972Y96159206D01*
X57658997Y96178276D01*
X57658993Y96178276D01*
X57513677Y96165563D01*
X57441018Y96159206D01*
X57441015Y96159206D01*
X57229672Y96102577D01*
X57229665Y96102575D01*
X57229665Y96102574D01*
X57079787Y96032684D01*
X57062487Y96024617D01*
X57010082Y96012999D01*
X43301996Y96012999D01*
X43234957Y96032684D01*
X43200421Y96065876D01*
X43120597Y96179877D01*
X43107286Y96193188D01*
X42965875Y96334599D01*
X42786637Y96460103D01*
X42786638Y96460103D01*
X42786636Y96460104D01*
X42687482Y96506340D01*
X42588328Y96552576D01*
X42588324Y96552577D01*
X42588320Y96552579D01*
X42376975Y96609208D01*
X42159000Y96628278D01*
X42158996Y96628278D01*
X42013680Y96615565D01*
X41941021Y96609208D01*
X41941018Y96609208D01*
X41729675Y96552579D01*
X41729666Y96552575D01*
X41531359Y96460103D01*
X41531355Y96460101D01*
X41352119Y96334599D01*
X41197400Y96179880D01*
X41071898Y96000644D01*
X41071896Y96000640D01*
X41040872Y95934108D01*
X40981514Y95806814D01*
X40979424Y95802333D01*
X40979420Y95802324D01*
X40922791Y95590981D01*
X40922791Y95590977D01*
X40903721Y95373004D01*
X500500Y95373004D01*
X500500Y99822004D01*
X86596435Y99822004D01*
X86596435Y99821997D01*
X86616630Y99642751D01*
X86616631Y99642746D01*
X86676211Y99472477D01*
X86772184Y99319738D01*
X86899738Y99192184D01*
X87052478Y99096211D01*
X87222745Y99036632D01*
X87222750Y99036631D01*
X87401996Y99016435D01*
X87402000Y99016435D01*
X87402004Y99016435D01*
X87581249Y99036631D01*
X87581252Y99036632D01*
X87581255Y99036632D01*
X87751522Y99096211D01*
X87904262Y99192184D01*
X88031816Y99319738D01*
X88127789Y99472478D01*
X88187368Y99642745D01*
X88207565Y99822000D01*
X88187368Y100001255D01*
X88127789Y100171522D01*
X88031816Y100324262D01*
X87904262Y100451816D01*
X87751523Y100547789D01*
X87581254Y100607369D01*
X87581249Y100607370D01*
X87402004Y100627565D01*
X87401996Y100627565D01*
X87222750Y100607370D01*
X87222745Y100607369D01*
X87052476Y100547789D01*
X86899737Y100451816D01*
X86772184Y100324263D01*
X86676211Y100171524D01*
X86616631Y100001255D01*
X86616630Y100001250D01*
X86596435Y99822004D01*
X500500Y99822004D01*
X500500Y106375500D01*
X520185Y106442539D01*
X572989Y106488294D01*
X624500Y106499500D01*
X101375500Y106499500D01*
X101442539Y106479815D01*
G37*
G04 #@! TD.AperFunction*
G04 #@! TD*
M02*
