M48
; DRILL file {KiCad 8.0.7-8.0.7-0~ubuntu24.04.1} date 2025-01-02T20:04:47+0000
; FORMAT={2:4/ absolute / inch / suppress leading zeros}
; #@! TF.CreationDate,2025-01-02T20:04:47+00:00
; #@! TF.GenerationSoftware,Kicad,Pcbnew,8.0.7-8.0.7-0~ubuntu24.04.1
; #@! TF.FileFunction,MixedPlating,1,4
FMAT,2
INCH,TZ
; #@! TA.AperFunction,Plated,PTH,ViaDrill
T1C0.0118
; #@! TA.AperFunction,Plated,PTH,ComponentDrill
T2C0.0118
; #@! TA.AperFunction,Plated,PTH,ViaDrill
T3C0.0236
; #@! TA.AperFunction,Plated,PTH,ComponentDrill
T4C0.0394
; #@! TA.AperFunction,Plated,PTH,ComponentDrill
T5C0.0591
; #@! TA.AperFunction,NonPlated,NPTH,ComponentDrill
T6C0.0256
; #@! TA.AperFunction,NonPlated,NPTH,ComponentDrill
T7C0.0984
; #@! TA.AperFunction,NonPlated,NPTH,ComponentDrill
T8C0.1673
%
G90
G05
T1
X1851Y39774
X1851Y37411
X1851Y35049
X1851Y32687
X1851Y30325
X1851Y16152
X1851Y13789
X1851Y9065
X1851Y6703
X1851Y4341
X1851Y1978
X2098Y7996
X4213Y39774
X4213Y27963
X4213Y6703
X4213Y1978
X4700Y19200
X6476Y13819
X6575Y39774
X6575Y37411
X6575Y4341
X6575Y1978
X7776Y19862
X8000Y15900
X8500Y17500
X8937Y39774
X8937Y37411
X8937Y35049
X8937Y1978
X9134Y19862
X9429Y12700
X9511Y17689
X9587Y22028
X9626Y21220
X9900Y13200
X10118Y24429
X10571Y21909
X10650Y11555
X10700Y12800
X11000Y12600
X11003Y21900
X11004Y25906
X11004Y24469
X11181Y19370
X11220Y17283
X11220Y15748
X11299Y39774
X11299Y6703
X11299Y1978
X11300Y12300
X11417Y24469
X11437Y21900
X11516Y20413
X11528Y11600
X11644Y4187
X11693Y7343
X11700Y19700
X12018Y5644
X12087Y7972
X12106Y8969
X12392Y4305
X12805Y6096
X12844Y5112
X12894Y24390
X12923Y5644
X12992Y11673
X13051Y12539
X13300Y21800
X13366Y11339
X13386Y23976
X13400Y18500
X13656Y19749
X13662Y39774
X13662Y37411
X13662Y35049
X13662Y32687
X13662Y4341
X13662Y1978
X13738Y23132
X13740Y22539
X14094Y11319
X14228Y10500
X14575Y7193
X14646Y19803
X15630Y9390
X15769Y7108
X15866Y5800
X16024Y39774
X16024Y30325
X16024Y27963
X16024Y23238
X16024Y4341
X16024Y1978
X16100Y25000
X16299Y8366
X16575Y21181
X16634Y12441
X16700Y25000
X17000Y5500
X17126Y34016
X17461Y9390
X17697Y18268
X18169Y24002
X18300Y17600
X18366Y30945
X18386Y39774
X18386Y37411
X18386Y35049
X18386Y23238
X18386Y16152
X18386Y4341
X18386Y1978
X18400Y13100
X18425Y9311
X19075Y32933
X19400Y25500
X19400Y25100
X19600Y21500
X19606Y11870
X19672Y11043
X19705Y13917
X19744Y16181
X19961Y23504
X20551Y7441
X20689Y24449
X20748Y39774
X20748Y37411
X20748Y4341
X20748Y1978
X22795Y7441
X23110Y39774
X23110Y37411
X23110Y4341
X23110Y1978
X23819Y6878
X25473Y39774
X25473Y37411
X25473Y4341
X25473Y1978
X26181Y28976
X26654Y6634
X27100Y31300
X27677Y6398
X27835Y39774
X27835Y37411
X27835Y35049
X27835Y32687
X28200Y28500
X30157Y24488
X30197Y39774
X32165Y24921
X32559Y27963
X33400Y30900
X33400Y29700
X33500Y30300
X34922Y27963
X34922Y6703
X34922Y4341
X34922Y1978
X35000Y39200
X35800Y30500
X35866Y4567
X36142Y23701
X36142Y22362
X36260Y20630
X36299Y18858
X37284Y39774
X37284Y30325
X37284Y27963
X37284Y11427
X37345Y2520
X37467Y14068
X37553Y5478
X38242Y24255
X39646Y27963
X39646Y25600
X39646Y23238
X39646Y20876
X39646Y18514
X39646Y16152
X39646Y13789
X39646Y11427
X39646Y9065
X39646Y6703
X39646Y4341
T2
X11505Y15038
X11505Y14644
X14937Y20723
X14937Y20369
X15037Y10623
X15037Y10269
X17184Y17581
X17184Y17109
X17184Y16637
X17184Y16164
X18362Y20723
X18362Y20349
X18362Y19975
X18462Y10623
X18462Y10249
X18462Y9875
X20274Y20222
X20274Y19278
X20274Y17860
X20274Y16915
X20274Y12663
X20274Y11246
X20274Y9396
X20274Y7978
X20274Y24002
X20274Y23057
X20274Y22585
X20274Y22112
X20274Y21640
X20274Y21167
X20274Y20695
X20274Y19750
X20274Y18805
X20274Y18333
X20274Y17388
X20274Y16443
X20274Y15970
X20274Y15498
X20274Y15026
X20274Y14553
X20274Y14081
X20274Y13608
X20274Y13136
X20274Y12191
X20274Y11718
X20274Y10774
X20274Y10301
X20274Y9868
X20274Y8923
X20274Y8451
X21140Y7742
X21258Y24159
X21455Y7742
X21652Y24159
X24093Y7742
X24171Y24159
X24407Y7742
X24722Y7742
X25037Y7742
X25352Y7742
X25667Y7742
X25877Y28566
X25877Y28172
X25982Y7742
X26297Y7742
X26612Y7742
X26927Y7742
X26927Y24159
X27242Y7742
X27321Y24159
X27557Y7742
X27715Y24159
X27872Y7742
X28108Y24159
X28187Y7742
X28502Y7742
X28502Y24159
X28817Y7742
X28896Y24159
X29132Y7742
X29289Y24159
X29447Y7742
X29683Y24159
X29762Y7742
X30077Y7742
X30392Y7742
X30707Y7742
X30904Y24159
X31022Y7742
X31219Y24159
X31337Y7742
X31652Y7742
X31967Y7742
X32281Y7742
X32596Y7742
X32911Y7742
X33226Y7742
X33541Y7742
X33856Y7742
X34171Y7742
X34486Y7742
X34801Y7742
X35825Y24159
X35825Y21797
X35825Y21482
X35825Y21167
X35825Y18096
X35825Y17781
X35825Y17467
X35825Y17152
X35825Y16837
X35825Y14671
X35825Y14356
X35825Y13726
X35825Y13411
X35825Y13096
X35825Y12781
X35825Y11837
X35825Y11522
X35825Y11207
X35825Y10892
X35825Y10577
X35825Y10262
X35825Y9632
X35825Y9317
X35825Y9002
X35825Y8687
X35825Y7742
X35825Y14041
X35825Y12467
X35825Y12152
X35825Y9947
X35825Y8372
X35825Y8057
T3
X2165Y11929
X2165Y10906
X4528Y13839
X5413Y13858
X8502Y4887
X8514Y6156
X8701Y9134
X9347Y22554
X9447Y23547
X13465Y21004
X13819Y30610
X13819Y27402
X14961Y37717
X14961Y33563
X15020Y30610
X15020Y27559
X15681Y23929
X15846Y37126
X15846Y34193
X15984Y31201
X16398Y28602
X37047Y38307
X37461Y38307
T4
X2988Y27366
X2988Y26366
X2988Y25366
X2988Y24366
X2988Y23366
X2988Y22366
X2988Y21366
X2988Y20366
X2988Y19366
X2988Y18366
X2988Y17366
X2988Y16366
X2988Y15366
X2988Y14366
X2988Y13366
X2988Y12366
X2988Y11366
X2988Y10366
X2988Y9366
X3988Y27366
X3988Y26366
X3988Y25366
X3988Y24366
X3988Y23366
X3988Y22366
X3988Y21366
X3988Y20366
X3988Y19366
X3988Y18366
X3988Y17366
X3988Y16366
X3988Y15366
X3988Y14366
X3988Y13366
X3988Y12366
X3988Y11366
X3988Y10366
X3988Y9366
X5988Y27366
X5988Y26366
X5988Y25366
X5988Y24366
X5988Y23366
X5988Y22366
X5988Y21366
X5988Y20366
X5988Y19366
X5988Y18366
X5988Y17366
X5988Y16366
X5988Y15366
X5988Y14366
X5988Y13366
X5988Y12366
X5988Y11366
X5988Y10366
X5988Y9366
X6988Y27366
X6988Y26366
X6988Y25366
X6988Y24366
X6988Y23366
X6988Y22366
X6988Y21366
X6988Y20366
X6988Y19366
X6988Y18366
X6988Y17366
X6988Y16366
X6988Y15366
X6988Y14366
X6988Y13366
X6988Y12366
X6988Y11366
X6988Y10366
X6988Y9366
X19598Y34648
X19598Y33920
X19598Y31971
X19598Y27227
X25700Y34471
X25700Y31952
X25700Y31204
X25700Y29511
X25700Y27050
X36700Y29300
X36700Y28300
X36700Y27300
T5
X3917Y32764
X3917Y30476
X4980Y31583
X6988Y32764
X6988Y30476
T6
X37769Y5148
X37769Y2872
T7
X6988Y34803
X6988Y6650
T8
X3602Y36220
X3602Y5315
M30
