G04 #@! TF.GenerationSoftware,KiCad,Pcbnew,8.0.6-8.0.6-0~ubuntu22.04.1*
G04 #@! TF.CreationDate,2024-11-14T01:08:34+00:00*
G04 #@! TF.ProjectId,hellenbremen,68656c6c-656e-4627-9265-6d656e2e6b69,rev?*
G04 #@! TF.SameCoordinates,Original*
G04 #@! TF.FileFunction,Copper,L3,Inr*
G04 #@! TF.FilePolarity,Positive*
%FSLAX46Y46*%
G04 Gerber Fmt 4.6, Leading zero omitted, Abs format (unit mm)*
G04 Created by KiCad (PCBNEW 8.0.6-8.0.6-0~ubuntu22.04.1) date 2024-11-14 01:08:34*
%MOMM*%
%LPD*%
G01*
G04 APERTURE LIST*
G04 #@! TA.AperFunction,ComponentPad*
%ADD10C,0.600000*%
G04 #@! TD*
G04 #@! TA.AperFunction,Conductor*
%ADD11R,2.300000X0.200000*%
G04 #@! TD*
G04 #@! TA.AperFunction,Conductor*
%ADD12R,10.700000X0.200000*%
G04 #@! TD*
G04 #@! TA.AperFunction,Conductor*
%ADD13R,2.100000X0.200000*%
G04 #@! TD*
G04 #@! TA.AperFunction,Conductor*
%ADD14R,6.000000X0.200000*%
G04 #@! TD*
G04 #@! TA.AperFunction,Conductor*
%ADD15R,5.400000X0.200000*%
G04 #@! TD*
G04 #@! TA.AperFunction,Conductor*
%ADD16R,0.200000X1.400000*%
G04 #@! TD*
G04 #@! TA.AperFunction,Conductor*
%ADD17R,0.200000X5.000000*%
G04 #@! TD*
G04 #@! TA.AperFunction,Conductor*
%ADD18R,0.200000X6.800000*%
G04 #@! TD*
G04 #@! TA.AperFunction,Conductor*
%ADD19R,0.200000X4.500000*%
G04 #@! TD*
G04 #@! TA.AperFunction,Conductor*
%ADD20R,1.600000X0.200000*%
G04 #@! TD*
G04 #@! TA.AperFunction,Conductor*
%ADD21R,5.700000X0.200000*%
G04 #@! TD*
G04 #@! TA.AperFunction,Conductor*
%ADD22R,2.000000X0.200000*%
G04 #@! TD*
G04 #@! TA.AperFunction,Conductor*
%ADD23O,0.200000X1.225000*%
G04 #@! TD*
G04 #@! TA.AperFunction,Conductor*
%ADD24O,9.300000X0.200000*%
G04 #@! TD*
G04 #@! TA.AperFunction,ComponentPad*
%ADD25C,2.000000*%
G04 #@! TD*
G04 #@! TA.AperFunction,ComponentPad*
%ADD26C,1.600000*%
G04 #@! TD*
G04 #@! TA.AperFunction,ComponentPad*
%ADD27C,1.500000*%
G04 #@! TD*
G04 #@! TA.AperFunction,Conductor*
%ADD28O,0.200000X3.300000*%
G04 #@! TD*
G04 #@! TA.AperFunction,Conductor*
%ADD29O,0.200000X10.200000*%
G04 #@! TD*
G04 #@! TA.AperFunction,Conductor*
%ADD30O,0.200000X0.300000*%
G04 #@! TD*
G04 #@! TA.AperFunction,Conductor*
%ADD31O,17.000000X0.200000*%
G04 #@! TD*
G04 #@! TA.AperFunction,Conductor*
%ADD32O,15.400000X0.200000*%
G04 #@! TD*
G04 #@! TA.AperFunction,Conductor*
%ADD33O,0.200000X4.800000*%
G04 #@! TD*
G04 #@! TA.AperFunction,Conductor*
%ADD34O,0.200000X2.600000*%
G04 #@! TD*
G04 #@! TA.AperFunction,Conductor*
%ADD35O,0.200000X1.000000*%
G04 #@! TD*
G04 #@! TA.AperFunction,Conductor*
%ADD36O,0.200000X1.500000*%
G04 #@! TD*
G04 #@! TA.AperFunction,Conductor*
%ADD37R,0.250000X6.185000*%
G04 #@! TD*
G04 #@! TA.AperFunction,Conductor*
%ADD38R,0.250000X1.115000*%
G04 #@! TD*
G04 #@! TA.AperFunction,Conductor*
%ADD39R,14.275000X0.250000*%
G04 #@! TD*
G04 #@! TA.AperFunction,Conductor*
%ADD40R,15.100000X0.250000*%
G04 #@! TD*
G04 #@! TA.AperFunction,Conductor*
%ADD41R,0.250000X5.175000*%
G04 #@! TD*
G04 APERTURE END LIST*
D10*
G04 #@! TO.N,unconnected-(M3-SPI2_SCK{slash}CAN2_TX-PadE1)*
G04 #@! TO.C,M3*
X84434996Y-79527001D03*
G04 #@! TO.N,unconnected-(M3-SPI2_MISO-PadE2)*
X83634995Y-79527001D03*
G04 #@! TO.N,unconnected-(M3-SPI2_MOSI-PadE3)*
X82834997Y-79527001D03*
G04 #@! TO.N,unconnected-(M3-SPI2_CS{slash}CAN2_RX-PadE4)*
X82034996Y-79527001D03*
G04 #@! TO.N,unconnected-(M3-OUT_IO3-PadE6)*
X81234995Y-79527001D03*
G04 #@! TO.N,unconnected-(M3-OUT_IO5-PadE7)*
X80434997Y-79526998D03*
G04 #@! TO.N,unconnected-(M3-OUT_IO1-PadE8)*
X79634996Y-79526998D03*
G04 #@! TO.N,unconnected-(M3-OUT_IO6-PadE9)*
X78834992Y-79527001D03*
G04 #@! TO.N,unconnected-(M3-OUT_IO10-PadE10)*
X78034996Y-79527001D03*
G04 #@! TO.N,unconnected-(M3-OUT_IO9-PadE11)*
X77234996Y-79527001D03*
G04 #@! TO.N,unconnected-(M3-OUT_IO2-PadE12)*
X76434995Y-79527001D03*
G04 #@! TO.N,unconnected-(M3-OUT_IO12-PadE13)*
X75634996Y-79526998D03*
G04 #@! TO.N,unconnected-(M3-OUT_PWM5-PadE14)*
X74834995Y-79526998D03*
G04 #@! TO.N,unconnected-(M3-OUT_PWM4-PadE15)*
X74034994Y-79526998D03*
G04 #@! TO.N,unconnected-(M3-OUT_PWM3-PadE16)*
X73234996Y-79527001D03*
G04 #@! TO.N,unconnected-(M3-OUT_PWM2-PadE17)*
X72434995Y-79527001D03*
G04 #@! TO.N,unconnected-(M3-OUT_INJ2-PadE18)*
X71634997Y-79527001D03*
G04 #@! TO.N,unconnected-(M3-OUT_INJ1-PadE19)*
X70834996Y-79526998D03*
G04 #@! TO.N,unconnected-(M3-OUT_IO13-PadE20)*
X70034995Y-79526998D03*
G04 #@! TO.N,unconnected-(M3-OUT_IO4-PadE21)*
X69234996Y-79527001D03*
G04 #@! TO.N,unconnected-(M3-OUT_IO8-PadE22)*
X68434995Y-79527001D03*
G04 #@! TO.N,unconnected-(M3-OUT_IO7-PadE23)*
X67634994Y-79527001D03*
G04 #@! TO.N,unconnected-(M3-OUT_IO11-PadE24)*
X66834996Y-79527001D03*
G04 #@! TO.N,unconnected-(M3-OUT_PWM7-PadE25)*
X66034995Y-79527001D03*
G04 #@! TO.N,unconnected-(M3-OUT_PWM6-PadE26)*
X65234997Y-79527001D03*
G04 #@! TO.N,unconnected-(M3-OUT_PWM1-PadE27)*
X64434996Y-79527001D03*
G04 #@! TO.N,unconnected-(M3-OUT_PWM8-PadE28)*
X63634995Y-79527001D03*
G04 #@! TO.N,unconnected-(M3-OUT_INJ3-PadE29)*
X62834996Y-79527001D03*
G04 #@! TO.N,unconnected-(M3-OUT_INJ4-PadE30)*
X62034995Y-79527001D03*
G04 #@! TO.N,unconnected-(M3-OUT_INJ5-PadE31)*
X61234997Y-79526998D03*
G04 #@! TO.N,unconnected-(M3-OUT_INJ6-PadE32)*
X60434994Y-79527001D03*
G04 #@! TO.N,unconnected-(M3-OUT_INJ7-PadE33)*
X59634995Y-79527001D03*
G04 #@! TO.N,unconnected-(M3-OUT_INJ8-PadE34)*
X58834997Y-79527001D03*
G04 #@! TO.N,unconnected-(M3-IO6-PadE35)*
X58034996Y-79527001D03*
G04 #@! TO.N,unconnected-(M3-IO7-PadE36)*
X57234995Y-79527001D03*
G04 #@! TO.N,unconnected-(M3-V5A_SWITCHABLE-PadE38)*
X50535001Y-79526998D03*
G04 #@! TO.N,unconnected-(M3-GNDA-PadE39)*
X49735000Y-79527001D03*
D11*
G04 #@! TO.N,GND*
X48385000Y-37626996D03*
D12*
X81184998Y-37626998D03*
D13*
X72984999Y-37626998D03*
D14*
X60935000Y-37626998D03*
D15*
X54235003Y-37626998D03*
D16*
X47334997Y-39427005D03*
D17*
X87234998Y-40827000D03*
D18*
X87234998Y-49327003D03*
D19*
X87234998Y-59177006D03*
D20*
X85734999Y-79727001D03*
D21*
X53884996Y-79727001D03*
D22*
X48235003Y-79727001D03*
D10*
G04 #@! TO.N,unconnected-(M3-USBID-PadN1)*
X87034999Y-79527001D03*
G04 #@! TO.N,Net-(M3-USBM)*
X87035001Y-78727003D03*
G04 #@! TO.N,Net-(M3-USBP)*
X87035001Y-77927002D03*
G04 #@! TO.N,Net-(M3-VBUS)*
X87034999Y-77127003D03*
G04 #@! TO.N,unconnected-(M3-BOOT0-PadN5)*
X87034999Y-76327002D03*
G04 #@! TO.N,Net-(M1-SWO)*
X87034999Y-75527001D03*
G04 #@! TO.N,Net-(M1-SWDIO)*
X87034999Y-74727003D03*
G04 #@! TO.N,Net-(M1-SWCLK)*
X87035001Y-73927002D03*
G04 #@! TO.N,Net-(M1-nReset)*
X87034999Y-73127004D03*
G04 #@! TO.N,unconnected-(M3-SPI3_CS-PadN10)*
X87034999Y-72327003D03*
G04 #@! TO.N,unconnected-(M3-SPI3_SCK-PadN11)*
X87034999Y-71527002D03*
G04 #@! TO.N,unconnected-(M3-SPI3_MISO-PadN12)*
X87034999Y-70727001D03*
G04 #@! TO.N,unconnected-(M3-SPI3_MOSI-PadN13)*
X87034999Y-69927002D03*
G04 #@! TO.N,unconnected-(M3-I2C_SCL-PadN14)*
X87034999Y-69127001D03*
G04 #@! TO.N,unconnected-(M3-I2C_SDA-PadN15)*
X87035001Y-68327000D03*
G04 #@! TO.N,unconnected-(M3-IO1-PadN16)*
X87035001Y-67527000D03*
G04 #@! TO.N,UART_BT_TX*
X87034999Y-66727001D03*
G04 #@! TO.N,UART_BT_RX*
X87034999Y-65927000D03*
G04 #@! TO.N,unconnected-(M3-IO2-PadN19)*
X87034999Y-65127002D03*
G04 #@! TO.N,unconnected-(M3-IO4-PadN20)*
X87034999Y-64327001D03*
G04 #@! TO.N,unconnected-(M3-IO3-PadN21)*
X87035001Y-63527002D03*
G04 #@! TO.N,unconnected-(M3-V33-PadN22)*
X87034999Y-62727001D03*
G04 #@! TO.N,unconnected-(M3-IO5-PadN23)*
X87034999Y-61927001D03*
G04 #@! TO.N,unconnected-(M3-UART8_RX-PadN24)*
X87034999Y-56427001D03*
G04 #@! TO.N,unconnected-(M3-UART8_TX-PadN25)*
X87034999Y-55627000D03*
G04 #@! TO.N,unconnected-(M3-IN_VIGN-PadN26)*
X87034999Y-54827002D03*
G04 #@! TO.N,unconnected-(M3-VBAT-PadN27)*
X87034999Y-54027004D03*
G04 #@! TO.N,unconnected-(M3-V33_SWITCHABLE-PadN28)*
X87034999Y-53227005D03*
G04 #@! TO.N,unconnected-(M3-OUT_PWR_EN-PadN29)*
X87034999Y-45427001D03*
G04 #@! TO.N,unconnected-(M3-V5A_SWITCHABLE-PadN30)*
X87034999Y-44627002D03*
G04 #@! TO.N,+5V*
X87034999Y-43827004D03*
G04 #@! TO.N,unconnected-(M3-V33-PadN32)*
X87034999Y-37827000D03*
G04 #@! TO.N,unconnected-(M3-IN_D4-PadS1)*
X47534994Y-78927000D03*
G04 #@! TO.N,unconnected-(M3-IN_D3-PadS2)*
X47534996Y-77726999D03*
G04 #@! TO.N,unconnected-(M3-IN_D2-PadS3)*
X47534996Y-76527002D03*
G04 #@! TO.N,unconnected-(M3-IN_D1-PadS4)*
X47534994Y-75327002D03*
G04 #@! TO.N,unconnected-(M3-VREF2-PadS5)*
X47534996Y-74127002D03*
G04 #@! TO.N,unconnected-(M3-IN_SENS4-PadS6)*
X47534996Y-73027014D03*
G04 #@! TO.N,unconnected-(M3-IN_SENS3-PadS7)*
X47534996Y-71827014D03*
G04 #@! TO.N,unconnected-(M3-IN_SENS2-PadS8)*
X47534994Y-70627016D03*
G04 #@! TO.N,unconnected-(M3-IN_SENS1-PadS9)*
X47534996Y-69427016D03*
G04 #@! TO.N,unconnected-(M3-IN_AUX4-PadS10)*
X47534996Y-68227013D03*
G04 #@! TO.N,unconnected-(M3-IN_AUX3-PadS11)*
X47534994Y-67027011D03*
G04 #@! TO.N,unconnected-(M3-IN_AUX2-PadS12)*
X47534996Y-65827013D03*
G04 #@! TO.N,unconnected-(M3-IN_AUX1-PadS13)*
X47534996Y-64627015D03*
G04 #@! TO.N,unconnected-(M3-IN_RES2-PadS14)*
X47534996Y-63427008D03*
G04 #@! TO.N,unconnected-(M3-IN_O2S2-PadS15)*
X47534996Y-62227008D03*
G04 #@! TO.N,unconnected-(M3-IN_O2S-PadS16)*
X47534996Y-61027010D03*
G04 #@! TO.N,unconnected-(M3-IN_RES1-PadS17)*
X47534996Y-59827010D03*
G04 #@! TO.N,unconnected-(M3-IN_RES3-PadS18)*
X47534996Y-58627005D03*
G04 #@! TO.N,unconnected-(M3-IN_MAP3-PadS19)*
X47534996Y-57427004D03*
G04 #@! TO.N,unconnected-(M3-IN_MAP2-PadS20)*
X47534994Y-56227007D03*
G04 #@! TO.N,IN_MAP*
X47534996Y-55027007D03*
G04 #@! TO.N,IN_CRANK*
X47534994Y-53827004D03*
G04 #@! TO.N,MCU_KNOCK*
X47534996Y-52627004D03*
G04 #@! TO.N,unconnected-(M3-IN_CAM-PadS24)*
X47534996Y-51427009D03*
G04 #@! TO.N,unconnected-(M3-IN_VSS-PadS25)*
X47534994Y-50227006D03*
G04 #@! TO.N,IN_IAT*
X47534996Y-49027001D03*
G04 #@! TO.N,unconnected-(M3-IN_AT1-PadS27)*
X47534994Y-47827001D03*
G04 #@! TO.N,IN_CLT*
X47534996Y-46627003D03*
G04 #@! TO.N,unconnected-(M3-IN_AT2-PadS29)*
X47534996Y-45427003D03*
G04 #@! TO.N,IN_TPS*
X47534996Y-44226998D03*
G04 #@! TO.N,IN_PPS*
X47534996Y-43026998D03*
G04 #@! TO.N,unconnected-(M3-IN_TPS2-PadS32)*
X47534996Y-41827000D03*
G04 #@! TO.N,unconnected-(M3-IN_PPS2-PadS33)*
X47534996Y-40627000D03*
G04 #@! TO.N,unconnected-(M3-VREF1-PadS35)*
X47534996Y-38227000D03*
G04 #@! TO.N,unconnected-(M3-GNDA-PadW1)*
X50034999Y-37826998D03*
G04 #@! TO.N,unconnected-(M3-V5A_SWITCHABLE-PadW2)*
X51035000Y-37826998D03*
G04 #@! TO.N,unconnected-(M3-V33_REF-PadW3)*
X57435002Y-37827000D03*
G04 #@! TO.N,unconnected-(M3-IGN8-PadW4)*
X64434998Y-37827000D03*
G04 #@! TO.N,unconnected-(M3-IGN7-PadW5)*
X65434999Y-37827000D03*
G04 #@! TO.N,unconnected-(M3-IGN6-PadW6)*
X66434997Y-37827000D03*
G04 #@! TO.N,unconnected-(M3-IGN5-PadW7)*
X67434997Y-37827000D03*
G04 #@! TO.N,unconnected-(M3-IGN4-PadW8)*
X68434998Y-37827000D03*
G04 #@! TO.N,unconnected-(M3-IGN3-PadW9)*
X69434996Y-37827000D03*
G04 #@! TO.N,IGN_2*
X70434996Y-37827000D03*
G04 #@! TO.N,IGN_1*
X71434994Y-37827000D03*
G04 #@! TO.N,CAN_H*
X74534998Y-37827000D03*
G04 #@! TO.N,CAN_L*
X75334999Y-37827000D03*
G04 #@! TD*
G04 #@! TO.N,unconnected-(M5-V5A-PadE1)*
G04 #@! TO.C,M5*
X38438995Y-47401003D03*
D23*
G04 #@! TO.N,GND*
X29538995Y-49376003D03*
D24*
X34088995Y-46801003D03*
X34088995Y-49901003D03*
D10*
X38438995Y-48351003D03*
G04 #@! TO.N,MCU_KNOCK*
X38438995Y-49301001D03*
G04 #@! TO.N,RAW_KNOCK*
X29738995Y-48301003D03*
G04 #@! TO.N,unconnected-(M5-VREF-PadW2)*
X29738995Y-47401003D03*
G04 #@! TD*
D25*
G04 #@! TO.N,unconnected-(J1-CFC-Pad1)*
G04 #@! TO.C,J1*
X12756000Y-22500000D03*
G04 #@! TO.N,GND*
X12756000Y-28300000D03*
X15086000Y-25400000D03*
G04 #@! TO.N,unconnected-(J1-CPC-Pad4)*
X20886000Y-22500000D03*
G04 #@! TO.N,unconnected-(J1-PSP1-Pad5)*
X20886000Y-28300000D03*
D26*
G04 #@! TO.N,unconnected-(J1-FFI-Pad6)*
X20886000Y-81920000D03*
G04 #@! TO.N,unconnected-(J1-RFI-Pad7)*
X20886000Y-79380000D03*
G04 #@! TO.N,unconnected-(J1-RACRE-Pad8)*
X20886000Y-76840000D03*
G04 #@! TO.N,unconnected-(J1-Pad9)*
X20886000Y-74300000D03*
G04 #@! TO.N,unconnected-(J1-Pad10)*
X20886000Y-71760000D03*
G04 #@! TO.N,unconnected-(J1-CKPSL-Pad11)*
X20886000Y-69220000D03*
G04 #@! TO.N,unconnected-(J1-Pad12)*
X20886000Y-66680000D03*
G04 #@! TO.N,unconnected-(J1-Pad13)*
X20886000Y-64140000D03*
G04 #@! TO.N,unconnected-(J1-FHO2HG-Pad14)*
X20886000Y-61600000D03*
G04 #@! TO.N,unconnected-(J1-Pad15)*
X20886000Y-59060000D03*
G04 #@! TO.N,unconnected-(J1-PRG_SELE-Pad16)*
X20886000Y-56520000D03*
G04 #@! TO.N,unconnected-(J1-FIVVTC-Pad17)*
X20886000Y-53980000D03*
G04 #@! TO.N,unconnected-(J1-Pad18)*
X20886000Y-51440000D03*
G04 #@! TO.N,unconnected-(J1-Pad19)*
X20886000Y-48900000D03*
G04 #@! TO.N,unconnected-(J1-ETCL-Pad20)*
X20886000Y-46360000D03*
G04 #@! TO.N,unconnected-(J1-ETCH-Pad21)*
X20886000Y-43820000D03*
G04 #@! TO.N,unconnected-(J1-Pad22)*
X20886000Y-41280000D03*
G04 #@! TO.N,unconnected-(J1-RHO2HG-Pad23)*
X20886000Y-38740000D03*
G04 #@! TO.N,IGN_1*
X20886000Y-36200000D03*
G04 #@! TO.N,unconnected-(J1-FACRE-Pad25)*
X18346000Y-81920000D03*
G04 #@! TO.N,unconnected-(J1-PCHO2SB1-Pad26)*
X18346000Y-79380000D03*
G04 #@! TO.N,IN_TPS2*
X18346000Y-76840000D03*
G04 #@! TO.N,unconnected-(J1-PSP2-Pad28)*
X18346000Y-74300000D03*
G04 #@! TO.N,unconnected-(J1-5V_SNS_GND_2-Pad29)*
X18346000Y-71760000D03*
G04 #@! TO.N,unconnected-(J1-CKPSH-Pad30)*
X18346000Y-69220000D03*
G04 #@! TO.N,unconnected-(J1-FLS-Pad31)*
X18346000Y-66680000D03*
G04 #@! TO.N,unconnected-(J1-OPS-Pad32)*
X18346000Y-64140000D03*
G04 #@! TO.N,unconnected-(J1-Pad33)*
X18346000Y-61600000D03*
G04 #@! TO.N,unconnected-(J1-JSS-Pad34)*
X18346000Y-59060000D03*
G04 #@! TO.N,unconnected-(J1-Pad35)*
X18346000Y-56520000D03*
G04 #@! TO.N,unconnected-(J1-FKSH-Pad36)*
X18346000Y-53980000D03*
G04 #@! TO.N,unconnected-(J1-FKSL-Pad37)*
X18346000Y-51440000D03*
G04 #@! TO.N,CAN_L*
X18346000Y-48900000D03*
G04 #@! TO.N,CAN_H*
X18346000Y-46360000D03*
G04 #@! TO.N,unconnected-(J1-Pad40)*
X18346000Y-43820000D03*
G04 #@! TO.N,IN_PPS*
X18346000Y-41280000D03*
G04 #@! TO.N,IN_PPS2*
X18346000Y-38740000D03*
G04 #@! TO.N,IGN_2*
X18346000Y-36200000D03*
G04 #@! TO.N,unconnected-(J1-CFFC-Pad44)*
X12296000Y-81920000D03*
G04 #@! TO.N,unconnected-(J1-RKSH-Pad45)*
X12296000Y-79380000D03*
G04 #@! TO.N,unconnected-(J1-RKSL-Pad46)*
X12296000Y-76840000D03*
G04 #@! TO.N,unconnected-(J1-FHO2SB1-Pad47)*
X12296000Y-74300000D03*
G04 #@! TO.N,unconnected-(J1-RHO2SB2-Pad48)*
X12296000Y-71760000D03*
G04 #@! TO.N,IN_CLT*
X12296000Y-69220000D03*
G04 #@! TO.N,unconnected-(J1-Pad50)*
X12296000Y-66680000D03*
G04 #@! TO.N,unconnected-(J1-Pad51)*
X12296000Y-64140000D03*
G04 #@! TO.N,IN_TPS*
X12296000Y-61600000D03*
G04 #@! TO.N,IN_MAP*
X12296000Y-59060000D03*
G04 #@! TO.N,unconnected-(J1-Pad54)*
X12296000Y-56520000D03*
G04 #@! TO.N,unconnected-(J1-ETS-Pad55)*
X12296000Y-53980000D03*
G04 #@! TO.N,unconnected-(J1-Pad56)*
X12296000Y-51440000D03*
G04 #@! TO.N,unconnected-(J1-Pad57)*
X12296000Y-48900000D03*
G04 #@! TO.N,unconnected-(J1-Pad58)*
X12296000Y-46360000D03*
G04 #@! TO.N,unconnected-(J1-Pad59)*
X12296000Y-43820000D03*
G04 #@! TO.N,unconnected-(J1-Pad60)*
X12296000Y-41280000D03*
G04 #@! TO.N,unconnected-(J1-Pad61)*
X12296000Y-38740000D03*
G04 #@! TO.N,unconnected-(J1-Pad62)*
X12296000Y-36200000D03*
G04 #@! TO.N,unconnected-(J1-Pad63)*
X9756000Y-81920000D03*
G04 #@! TO.N,unconnected-(J1-Pad64)*
X9756000Y-79380000D03*
G04 #@! TO.N,unconnected-(J1-PCH2OSG-Pad65)*
X9756000Y-76840000D03*
G04 #@! TO.N,unconnected-(J1-Pad66)*
X9756000Y-74300000D03*
G04 #@! TO.N,unconnected-(J1-BATFU-Pad67)*
X9756000Y-71760000D03*
G04 #@! TO.N,unconnected-(J1-Pad68)*
X9756000Y-69220000D03*
G04 #@! TO.N,unconnected-(J1-Pad69)*
X9756000Y-66680000D03*
G04 #@! TO.N,unconnected-(J1-5VPS1-Pad70)*
X9756000Y-64140000D03*
G04 #@! TO.N,unconnected-(J1-AAT-Pad71)*
X9756000Y-61600000D03*
G04 #@! TO.N,IN_IAT*
X9756000Y-59060000D03*
G04 #@! TO.N,unconnected-(J1-Pad73)*
X9756000Y-56520000D03*
G04 #@! TO.N,unconnected-(J1-5V_Sens_GND_2-Pad74)*
X9756000Y-53980000D03*
G04 #@! TO.N,unconnected-(J1-Pad75)*
X9756000Y-51440000D03*
G04 #@! TO.N,unconnected-(J1-Pad76)*
X9756000Y-48900000D03*
G04 #@! TO.N,unconnected-(J1-FI_CMP_Sens-Pad77)*
X9756000Y-46360000D03*
G04 #@! TO.N,unconnected-(J1-Gear_Pos_Sens-Pad78)*
X9756000Y-43820000D03*
G04 #@! TO.N,unconnected-(J1-Pad79)*
X9756000Y-41280000D03*
G04 #@! TO.N,unconnected-(J1-PCHO2SHTR-Pad80)*
X9756000Y-38740000D03*
G04 #@! TO.N,unconnected-(J1-Pad81)*
X9756000Y-36200000D03*
G04 #@! TD*
D27*
G04 #@! TO.N,unconnected-(M2-VBAT-PadE1)*
G04 #@! TO.C,M2*
X45062995Y-62943001D03*
G04 #@! TO.N,unconnected-(M2-V12-PadE2)*
X45062995Y-69342998D03*
G04 #@! TO.N,unconnected-(M2-VIGN-PadE3)*
X45062995Y-71243001D03*
G04 #@! TO.N,+5V*
X45062995Y-75543001D03*
D10*
G04 #@! TO.N,unconnected-(M2-EN_5VP-PadE5)*
X45512994Y-77942998D03*
G04 #@! TO.N,unconnected-(M2-PG_5VP-PadE6)*
X45512994Y-78942999D03*
D28*
G04 #@! TO.N,GND*
X28912999Y-66793001D03*
D29*
X28912999Y-75292999D03*
D30*
X28912999Y-82393001D03*
D31*
X37312997Y-82443001D03*
D32*
X38112998Y-61843001D03*
D27*
X45062995Y-81793001D03*
D30*
X45712996Y-61893001D03*
D33*
X45712996Y-66092999D03*
D34*
X45712996Y-73443001D03*
D35*
X45712996Y-76942998D03*
D36*
X45712996Y-80242999D03*
D27*
G04 #@! TO.N,+12V_RAW*
X29562998Y-62492999D03*
G04 #@! TO.N,unconnected-(M2-IN_VIGN-PadV2)*
X29562998Y-64342998D03*
G04 #@! TO.N,+12V_RAW*
X29562998Y-69293001D03*
G04 #@! TO.N,unconnected-(M2-5VP-PadV4)*
X29562998Y-81342999D03*
G04 #@! TD*
D10*
G04 #@! TO.N,unconnected-(M4-HALL_EN-PadE1)*
G04 #@! TO.C,M4*
X44588995Y-53649501D03*
G04 #@! TO.N,unconnected-(M4-NC-PadE2)*
X44588995Y-54849501D03*
G04 #@! TO.N,IN_CRANK*
X44588995Y-52449501D03*
G04 #@! TO.N,unconnected-(M4-V5_IN-PadE4)*
X44588995Y-51249501D03*
D37*
G04 #@! TO.N,unconnected-(M4-GND-PadG)*
X29938995Y-53917001D03*
D38*
X29938995Y-59967001D03*
D39*
X36951495Y-50949501D03*
D40*
X37363995Y-60399501D03*
D41*
X44788995Y-57937001D03*
D10*
G04 #@! TO.N,unconnected-(M4-VR-{slash}HALL-PadW1)*
X30163995Y-57709501D03*
G04 #@! TO.N,unconnected-(M4-VR+-PadW2)*
X30163995Y-58709501D03*
G04 #@! TD*
G04 #@! TA.AperFunction,Conductor*
G04 #@! TO.N,GND*
G36*
X101442539Y-520185D02*
G01*
X101488294Y-572989D01*
X101499500Y-624500D01*
X101499500Y-106375500D01*
X101479815Y-106442539D01*
X101427011Y-106488294D01*
X101375500Y-106499500D01*
X624500Y-106499500D01*
X557461Y-106479815D01*
X511706Y-106427011D01*
X500500Y-106375500D01*
X500500Y-85750234D01*
X95221500Y-85750234D01*
X95221500Y-85901765D01*
X95260719Y-86048136D01*
X95298602Y-86113750D01*
X95336485Y-86179365D01*
X95443635Y-86286515D01*
X95574865Y-86362281D01*
X95721234Y-86401500D01*
X95721236Y-86401500D01*
X95872764Y-86401500D01*
X95872766Y-86401500D01*
X96019135Y-86362281D01*
X96150365Y-86286515D01*
X96257515Y-86179365D01*
X96333281Y-86048135D01*
X96372500Y-85901766D01*
X96372500Y-85750234D01*
X96333281Y-85603865D01*
X96257515Y-85472635D01*
X96150365Y-85365485D01*
X96084750Y-85327602D01*
X96019136Y-85289719D01*
X95945950Y-85270109D01*
X95872766Y-85250500D01*
X95721234Y-85250500D01*
X95574863Y-85289719D01*
X95443635Y-85365485D01*
X95443632Y-85365487D01*
X95336487Y-85472632D01*
X95336485Y-85472635D01*
X95260719Y-85603863D01*
X95221500Y-85750234D01*
X500500Y-85750234D01*
X500500Y-36199998D01*
X8450532Y-36199998D01*
X8450532Y-36200001D01*
X8470364Y-36426686D01*
X8470366Y-36426697D01*
X8529258Y-36646488D01*
X8529261Y-36646497D01*
X8625431Y-36852732D01*
X8625432Y-36852734D01*
X8755954Y-37039141D01*
X8916858Y-37200045D01*
X8916861Y-37200047D01*
X9103266Y-37330568D01*
X9161275Y-37357618D01*
X9213714Y-37403791D01*
X9232866Y-37470984D01*
X9212650Y-37537865D01*
X9161275Y-37582382D01*
X9103267Y-37609431D01*
X9103265Y-37609432D01*
X8916858Y-37739954D01*
X8755954Y-37900858D01*
X8625432Y-38087265D01*
X8625431Y-38087267D01*
X8529261Y-38293502D01*
X8529258Y-38293511D01*
X8470366Y-38513302D01*
X8470364Y-38513313D01*
X8450532Y-38739998D01*
X8450532Y-38740001D01*
X8470364Y-38966686D01*
X8470366Y-38966697D01*
X8529258Y-39186488D01*
X8529261Y-39186497D01*
X8625431Y-39392732D01*
X8625432Y-39392734D01*
X8755954Y-39579141D01*
X8916858Y-39740045D01*
X8916861Y-39740047D01*
X9103266Y-39870568D01*
X9161275Y-39897618D01*
X9213714Y-39943791D01*
X9232866Y-40010984D01*
X9212650Y-40077865D01*
X9161275Y-40122381D01*
X9156222Y-40124738D01*
X9103267Y-40149431D01*
X9103265Y-40149432D01*
X8916858Y-40279954D01*
X8755954Y-40440858D01*
X8625432Y-40627265D01*
X8625431Y-40627267D01*
X8529261Y-40833502D01*
X8529258Y-40833511D01*
X8470366Y-41053302D01*
X8470364Y-41053313D01*
X8450532Y-41279998D01*
X8450532Y-41280001D01*
X8470364Y-41506686D01*
X8470366Y-41506697D01*
X8529258Y-41726488D01*
X8529261Y-41726497D01*
X8625431Y-41932732D01*
X8625432Y-41932734D01*
X8755954Y-42119141D01*
X8916858Y-42280045D01*
X8916861Y-42280047D01*
X9103266Y-42410568D01*
X9161275Y-42437618D01*
X9213714Y-42483791D01*
X9232866Y-42550984D01*
X9212650Y-42617865D01*
X9161275Y-42662382D01*
X9103267Y-42689431D01*
X9103265Y-42689432D01*
X8916858Y-42819954D01*
X8755954Y-42980858D01*
X8625432Y-43167265D01*
X8625431Y-43167267D01*
X8529261Y-43373502D01*
X8529258Y-43373511D01*
X8470366Y-43593302D01*
X8470364Y-43593313D01*
X8450532Y-43819998D01*
X8450532Y-43820001D01*
X8470364Y-44046686D01*
X8470366Y-44046697D01*
X8529258Y-44266488D01*
X8529261Y-44266497D01*
X8625431Y-44472732D01*
X8625432Y-44472734D01*
X8755954Y-44659141D01*
X8916858Y-44820045D01*
X8916861Y-44820047D01*
X9103266Y-44950568D01*
X9161275Y-44977618D01*
X9213714Y-45023791D01*
X9232866Y-45090984D01*
X9212650Y-45157865D01*
X9161275Y-45202382D01*
X9103267Y-45229431D01*
X9103265Y-45229432D01*
X8916858Y-45359954D01*
X8755954Y-45520858D01*
X8625432Y-45707265D01*
X8625431Y-45707267D01*
X8529261Y-45913502D01*
X8529258Y-45913511D01*
X8470366Y-46133302D01*
X8470364Y-46133313D01*
X8450532Y-46359998D01*
X8450532Y-46360001D01*
X8470364Y-46586686D01*
X8470366Y-46586697D01*
X8529258Y-46806488D01*
X8529261Y-46806497D01*
X8625431Y-47012732D01*
X8625432Y-47012734D01*
X8755954Y-47199141D01*
X8916858Y-47360045D01*
X8916861Y-47360047D01*
X9103266Y-47490568D01*
X9161275Y-47517618D01*
X9213714Y-47563791D01*
X9232866Y-47630984D01*
X9212650Y-47697865D01*
X9161275Y-47742382D01*
X9103267Y-47769431D01*
X9103265Y-47769432D01*
X8916858Y-47899954D01*
X8755954Y-48060858D01*
X8625432Y-48247265D01*
X8625431Y-48247267D01*
X8529261Y-48453502D01*
X8529258Y-48453511D01*
X8470366Y-48673302D01*
X8470364Y-48673313D01*
X8450532Y-48899998D01*
X8450532Y-48900001D01*
X8470364Y-49126686D01*
X8470366Y-49126697D01*
X8529258Y-49346488D01*
X8529261Y-49346497D01*
X8625431Y-49552732D01*
X8625432Y-49552734D01*
X8755954Y-49739141D01*
X8916858Y-49900045D01*
X8916861Y-49900047D01*
X9103266Y-50030568D01*
X9140115Y-50047751D01*
X9161275Y-50057618D01*
X9213714Y-50103791D01*
X9232866Y-50170984D01*
X9212650Y-50237865D01*
X9161275Y-50282382D01*
X9103267Y-50309431D01*
X9103265Y-50309432D01*
X8916858Y-50439954D01*
X8755954Y-50600858D01*
X8625432Y-50787265D01*
X8625431Y-50787267D01*
X8529261Y-50993502D01*
X8529258Y-50993511D01*
X8470366Y-51213302D01*
X8470364Y-51213313D01*
X8450532Y-51439998D01*
X8450532Y-51440001D01*
X8470364Y-51666686D01*
X8470366Y-51666697D01*
X8529258Y-51886488D01*
X8529261Y-51886497D01*
X8625431Y-52092732D01*
X8625432Y-52092734D01*
X8755954Y-52279141D01*
X8916858Y-52440045D01*
X8916861Y-52440047D01*
X9103266Y-52570568D01*
X9160355Y-52597189D01*
X9161275Y-52597618D01*
X9213714Y-52643791D01*
X9232866Y-52710984D01*
X9212650Y-52777865D01*
X9161275Y-52822382D01*
X9103267Y-52849431D01*
X9103265Y-52849432D01*
X8916858Y-52979954D01*
X8755954Y-53140858D01*
X8625432Y-53327265D01*
X8625431Y-53327267D01*
X8529261Y-53533502D01*
X8529258Y-53533511D01*
X8470366Y-53753302D01*
X8470364Y-53753313D01*
X8450532Y-53979998D01*
X8450532Y-53980001D01*
X8470364Y-54206686D01*
X8470366Y-54206697D01*
X8529258Y-54426488D01*
X8529261Y-54426497D01*
X8625431Y-54632732D01*
X8625432Y-54632734D01*
X8755954Y-54819141D01*
X8916858Y-54980045D01*
X8916861Y-54980047D01*
X9103266Y-55110568D01*
X9153784Y-55134125D01*
X9161275Y-55137618D01*
X9213714Y-55183791D01*
X9232866Y-55250984D01*
X9212650Y-55317865D01*
X9161275Y-55362382D01*
X9103267Y-55389431D01*
X9103265Y-55389432D01*
X8916858Y-55519954D01*
X8755954Y-55680858D01*
X8625432Y-55867265D01*
X8625431Y-55867267D01*
X8529261Y-56073502D01*
X8529258Y-56073511D01*
X8470366Y-56293302D01*
X8470364Y-56293313D01*
X8450532Y-56519998D01*
X8450532Y-56520001D01*
X8470364Y-56746686D01*
X8470366Y-56746697D01*
X8529258Y-56966488D01*
X8529261Y-56966497D01*
X8625431Y-57172732D01*
X8625432Y-57172734D01*
X8755954Y-57359141D01*
X8916858Y-57520045D01*
X8916861Y-57520047D01*
X9103266Y-57650568D01*
X9161275Y-57677618D01*
X9213714Y-57723791D01*
X9232866Y-57790984D01*
X9212650Y-57857865D01*
X9161275Y-57902382D01*
X9103267Y-57929431D01*
X9103265Y-57929432D01*
X8916858Y-58059954D01*
X8755954Y-58220858D01*
X8625432Y-58407265D01*
X8625431Y-58407267D01*
X8529261Y-58613502D01*
X8529258Y-58613511D01*
X8470366Y-58833302D01*
X8470364Y-58833313D01*
X8450532Y-59059998D01*
X8450532Y-59060001D01*
X8470364Y-59286686D01*
X8470366Y-59286697D01*
X8529258Y-59506488D01*
X8529261Y-59506497D01*
X8625431Y-59712732D01*
X8625432Y-59712734D01*
X8755954Y-59899141D01*
X8916858Y-60060045D01*
X8916861Y-60060047D01*
X9103266Y-60190568D01*
X9161275Y-60217618D01*
X9213714Y-60263791D01*
X9232866Y-60330984D01*
X9212650Y-60397865D01*
X9161275Y-60442382D01*
X9103267Y-60469431D01*
X9103265Y-60469432D01*
X8916858Y-60599954D01*
X8755954Y-60760858D01*
X8625432Y-60947265D01*
X8625431Y-60947267D01*
X8529261Y-61153502D01*
X8529258Y-61153511D01*
X8470366Y-61373302D01*
X8470364Y-61373313D01*
X8450532Y-61599998D01*
X8450532Y-61600001D01*
X8470364Y-61826686D01*
X8470366Y-61826697D01*
X8529258Y-62046488D01*
X8529261Y-62046497D01*
X8625431Y-62252732D01*
X8625432Y-62252734D01*
X8755954Y-62439141D01*
X8916858Y-62600045D01*
X8916861Y-62600047D01*
X9103266Y-62730568D01*
X9122050Y-62739327D01*
X9161275Y-62757618D01*
X9213714Y-62803791D01*
X9232866Y-62870984D01*
X9212650Y-62937865D01*
X9161275Y-62982382D01*
X9103267Y-63009431D01*
X9103265Y-63009432D01*
X8916858Y-63139954D01*
X8755954Y-63300858D01*
X8625432Y-63487265D01*
X8625431Y-63487267D01*
X8529261Y-63693502D01*
X8529258Y-63693511D01*
X8470366Y-63913302D01*
X8470364Y-63913313D01*
X8450532Y-64139998D01*
X8450532Y-64140001D01*
X8470364Y-64366686D01*
X8470366Y-64366697D01*
X8529258Y-64586488D01*
X8529261Y-64586497D01*
X8625431Y-64792732D01*
X8625432Y-64792734D01*
X8755954Y-64979141D01*
X8916858Y-65140045D01*
X8916861Y-65140047D01*
X9103266Y-65270568D01*
X9161275Y-65297618D01*
X9213714Y-65343791D01*
X9232866Y-65410984D01*
X9212650Y-65477865D01*
X9161275Y-65522382D01*
X9103267Y-65549431D01*
X9103265Y-65549432D01*
X8916858Y-65679954D01*
X8755954Y-65840858D01*
X8625432Y-66027265D01*
X8625431Y-66027267D01*
X8529261Y-66233502D01*
X8529258Y-66233511D01*
X8470366Y-66453302D01*
X8470364Y-66453313D01*
X8450532Y-66679998D01*
X8450532Y-66680001D01*
X8470364Y-66906686D01*
X8470366Y-66906697D01*
X8529258Y-67126488D01*
X8529261Y-67126497D01*
X8625431Y-67332732D01*
X8625432Y-67332734D01*
X8755954Y-67519141D01*
X8916858Y-67680045D01*
X8916861Y-67680047D01*
X9103266Y-67810568D01*
X9161275Y-67837618D01*
X9213714Y-67883791D01*
X9232866Y-67950984D01*
X9212650Y-68017865D01*
X9161275Y-68062382D01*
X9103267Y-68089431D01*
X9103265Y-68089432D01*
X8916858Y-68219954D01*
X8755954Y-68380858D01*
X8625432Y-68567265D01*
X8625431Y-68567267D01*
X8529261Y-68773502D01*
X8529258Y-68773511D01*
X8470366Y-68993302D01*
X8470364Y-68993313D01*
X8450532Y-69219998D01*
X8450532Y-69220001D01*
X8470364Y-69446686D01*
X8470366Y-69446697D01*
X8529258Y-69666488D01*
X8529261Y-69666497D01*
X8625431Y-69872732D01*
X8625432Y-69872734D01*
X8755954Y-70059141D01*
X8916858Y-70220045D01*
X8916861Y-70220047D01*
X9103266Y-70350568D01*
X9161275Y-70377618D01*
X9213714Y-70423791D01*
X9232866Y-70490984D01*
X9212650Y-70557865D01*
X9161275Y-70602382D01*
X9103267Y-70629431D01*
X9103265Y-70629432D01*
X8916858Y-70759954D01*
X8755954Y-70920858D01*
X8625432Y-71107265D01*
X8625431Y-71107267D01*
X8529261Y-71313502D01*
X8529258Y-71313511D01*
X8470366Y-71533302D01*
X8470364Y-71533313D01*
X8450532Y-71759998D01*
X8450532Y-71760001D01*
X8470364Y-71986686D01*
X8470366Y-71986697D01*
X8529258Y-72206488D01*
X8529261Y-72206497D01*
X8625431Y-72412732D01*
X8625432Y-72412734D01*
X8755954Y-72599141D01*
X8916858Y-72760045D01*
X8932375Y-72770910D01*
X9103266Y-72890568D01*
X9161275Y-72917618D01*
X9213714Y-72963791D01*
X9232866Y-73030984D01*
X9212650Y-73097865D01*
X9161275Y-73142382D01*
X9103267Y-73169431D01*
X9103265Y-73169432D01*
X8916858Y-73299954D01*
X8755954Y-73460858D01*
X8625432Y-73647265D01*
X8625431Y-73647267D01*
X8529261Y-73853502D01*
X8529258Y-73853511D01*
X8470366Y-74073302D01*
X8470364Y-74073313D01*
X8450532Y-74299998D01*
X8450532Y-74300001D01*
X8470364Y-74526686D01*
X8470366Y-74526697D01*
X8529258Y-74746488D01*
X8529261Y-74746497D01*
X8625431Y-74952732D01*
X8625432Y-74952734D01*
X8755954Y-75139141D01*
X8916858Y-75300045D01*
X8916861Y-75300047D01*
X9103266Y-75430568D01*
X9161275Y-75457618D01*
X9213714Y-75503791D01*
X9232866Y-75570984D01*
X9212650Y-75637865D01*
X9161275Y-75682382D01*
X9103267Y-75709431D01*
X9103265Y-75709432D01*
X8916858Y-75839954D01*
X8755954Y-76000858D01*
X8625432Y-76187265D01*
X8625431Y-76187267D01*
X8529261Y-76393502D01*
X8529258Y-76393511D01*
X8470366Y-76613302D01*
X8470364Y-76613313D01*
X8450532Y-76839998D01*
X8450532Y-76840001D01*
X8470364Y-77066686D01*
X8470366Y-77066697D01*
X8529258Y-77286488D01*
X8529261Y-77286497D01*
X8625431Y-77492732D01*
X8625432Y-77492734D01*
X8755954Y-77679141D01*
X8916858Y-77840045D01*
X8916861Y-77840047D01*
X9103266Y-77970568D01*
X9161275Y-77997618D01*
X9213714Y-78043791D01*
X9232866Y-78110984D01*
X9212650Y-78177865D01*
X9161275Y-78222382D01*
X9103267Y-78249431D01*
X9103265Y-78249432D01*
X8916858Y-78379954D01*
X8755954Y-78540858D01*
X8625432Y-78727265D01*
X8625431Y-78727267D01*
X8529261Y-78933502D01*
X8529258Y-78933511D01*
X8470366Y-79153302D01*
X8470364Y-79153313D01*
X8450532Y-79379998D01*
X8450532Y-79380001D01*
X8470364Y-79606686D01*
X8470366Y-79606697D01*
X8529258Y-79826488D01*
X8529261Y-79826497D01*
X8625431Y-80032732D01*
X8625432Y-80032734D01*
X8755954Y-80219141D01*
X8916858Y-80380045D01*
X8916861Y-80380047D01*
X9103266Y-80510568D01*
X9161275Y-80537618D01*
X9213714Y-80583791D01*
X9232866Y-80650984D01*
X9212650Y-80717865D01*
X9161275Y-80762382D01*
X9103267Y-80789431D01*
X9103265Y-80789432D01*
X8916858Y-80919954D01*
X8755954Y-81080858D01*
X8625432Y-81267265D01*
X8625431Y-81267267D01*
X8529261Y-81473502D01*
X8529258Y-81473511D01*
X8470366Y-81693302D01*
X8470364Y-81693313D01*
X8450532Y-81919998D01*
X8450532Y-81920001D01*
X8470364Y-82146686D01*
X8470366Y-82146697D01*
X8529258Y-82366488D01*
X8529261Y-82366497D01*
X8625431Y-82572732D01*
X8625432Y-82572734D01*
X8755954Y-82759141D01*
X8916858Y-82920045D01*
X8916861Y-82920047D01*
X9103266Y-83050568D01*
X9309504Y-83146739D01*
X9529308Y-83205635D01*
X9691230Y-83219801D01*
X9755998Y-83225468D01*
X9756000Y-83225468D01*
X9756002Y-83225468D01*
X9812673Y-83220509D01*
X9982692Y-83205635D01*
X10202496Y-83146739D01*
X10408734Y-83050568D01*
X10595139Y-82920047D01*
X10756047Y-82759139D01*
X10886568Y-82572734D01*
X10913618Y-82514724D01*
X10959790Y-82462285D01*
X11026983Y-82443133D01*
X11093865Y-82463348D01*
X11138382Y-82514725D01*
X11165429Y-82572728D01*
X11165432Y-82572734D01*
X11295954Y-82759141D01*
X11456858Y-82920045D01*
X11456861Y-82920047D01*
X11643266Y-83050568D01*
X11849504Y-83146739D01*
X12069308Y-83205635D01*
X12231230Y-83219801D01*
X12295998Y-83225468D01*
X12296000Y-83225468D01*
X12296002Y-83225468D01*
X12352673Y-83220509D01*
X12522692Y-83205635D01*
X12742496Y-83146739D01*
X12948734Y-83050568D01*
X13135139Y-82920047D01*
X13296047Y-82759139D01*
X13426568Y-82572734D01*
X13522739Y-82366496D01*
X13581635Y-82146692D01*
X13601468Y-81920000D01*
X13581635Y-81693308D01*
X13522739Y-81473504D01*
X13426568Y-81267266D01*
X13296047Y-81080861D01*
X13296045Y-81080858D01*
X13135141Y-80919954D01*
X12948734Y-80789432D01*
X12948728Y-80789429D01*
X12890725Y-80762382D01*
X12838285Y-80716210D01*
X12819133Y-80649017D01*
X12839348Y-80582135D01*
X12890725Y-80537618D01*
X12948734Y-80510568D01*
X13135139Y-80380047D01*
X13296047Y-80219139D01*
X13426568Y-80032734D01*
X13522739Y-79826496D01*
X13581635Y-79606692D01*
X13601468Y-79380000D01*
X13598645Y-79347738D01*
X13592415Y-79276522D01*
X13581635Y-79153308D01*
X13522739Y-78933504D01*
X13426568Y-78727266D01*
X13296047Y-78540861D01*
X13296045Y-78540858D01*
X13135141Y-78379954D01*
X12948734Y-78249432D01*
X12948728Y-78249429D01*
X12890725Y-78222382D01*
X12838285Y-78176210D01*
X12819133Y-78109017D01*
X12839348Y-78042135D01*
X12890725Y-77997618D01*
X12948734Y-77970568D01*
X13135139Y-77840047D01*
X13296047Y-77679139D01*
X13426568Y-77492734D01*
X13522739Y-77286496D01*
X13581635Y-77066692D01*
X13601468Y-76840000D01*
X13581635Y-76613308D01*
X13522739Y-76393504D01*
X13426568Y-76187266D01*
X13296047Y-76000861D01*
X13296045Y-76000858D01*
X13135141Y-75839954D01*
X12948734Y-75709432D01*
X12948728Y-75709429D01*
X12890725Y-75682382D01*
X12838285Y-75636210D01*
X12819133Y-75569017D01*
X12839348Y-75502135D01*
X12890725Y-75457618D01*
X12948734Y-75430568D01*
X13135139Y-75300047D01*
X13296047Y-75139139D01*
X13426568Y-74952734D01*
X13522739Y-74746496D01*
X13581635Y-74526692D01*
X13599105Y-74327004D01*
X13601468Y-74300001D01*
X13601468Y-74299998D01*
X13586333Y-74127005D01*
X13581635Y-74073308D01*
X13522739Y-73853504D01*
X13426568Y-73647266D01*
X13296047Y-73460861D01*
X13296045Y-73460858D01*
X13135141Y-73299954D01*
X12948734Y-73169432D01*
X12948728Y-73169429D01*
X12890725Y-73142382D01*
X12838285Y-73096210D01*
X12819133Y-73029017D01*
X12839348Y-72962135D01*
X12890725Y-72917618D01*
X12948734Y-72890568D01*
X13135139Y-72760047D01*
X13296047Y-72599139D01*
X13426568Y-72412734D01*
X13522739Y-72206496D01*
X13581635Y-71986692D01*
X13601468Y-71760000D01*
X13581635Y-71533308D01*
X13522739Y-71313504D01*
X13426568Y-71107266D01*
X13296047Y-70920861D01*
X13296045Y-70920858D01*
X13135141Y-70759954D01*
X12948734Y-70629432D01*
X12948728Y-70629429D01*
X12890725Y-70602382D01*
X12838285Y-70556210D01*
X12819133Y-70489017D01*
X12839348Y-70422135D01*
X12890725Y-70377618D01*
X12948734Y-70350568D01*
X13135139Y-70220047D01*
X13296047Y-70059139D01*
X13426568Y-69872734D01*
X13522739Y-69666496D01*
X13581635Y-69446692D01*
X13601468Y-69220000D01*
X13581635Y-68993308D01*
X13522739Y-68773504D01*
X13426568Y-68567266D01*
X13313833Y-68406262D01*
X13296045Y-68380858D01*
X13135141Y-68219954D01*
X12948734Y-68089432D01*
X12948728Y-68089429D01*
X12890725Y-68062382D01*
X12838285Y-68016210D01*
X12819133Y-67949017D01*
X12839348Y-67882135D01*
X12890725Y-67837618D01*
X12948734Y-67810568D01*
X13135139Y-67680047D01*
X13296047Y-67519139D01*
X13426568Y-67332734D01*
X13522739Y-67126496D01*
X13581635Y-66906692D01*
X13601468Y-66680000D01*
X13581635Y-66453308D01*
X13522739Y-66233504D01*
X13426568Y-66027266D01*
X13296047Y-65840861D01*
X13296045Y-65840858D01*
X13135141Y-65679954D01*
X12948734Y-65549432D01*
X12948728Y-65549429D01*
X12890725Y-65522382D01*
X12838285Y-65476210D01*
X12819133Y-65409017D01*
X12839348Y-65342135D01*
X12890725Y-65297618D01*
X12948734Y-65270568D01*
X13135139Y-65140047D01*
X13296047Y-64979139D01*
X13426568Y-64792734D01*
X13522739Y-64586496D01*
X13581635Y-64366692D01*
X13601468Y-64140000D01*
X13600133Y-64124746D01*
X13590265Y-64011951D01*
X13581635Y-63913308D01*
X13522739Y-63693504D01*
X13426568Y-63487266D01*
X13296047Y-63300861D01*
X13296045Y-63300858D01*
X13135141Y-63139954D01*
X12948734Y-63009432D01*
X12948728Y-63009429D01*
X12890725Y-62982382D01*
X12838285Y-62936210D01*
X12819133Y-62869017D01*
X12839348Y-62802135D01*
X12890725Y-62757618D01*
X12948734Y-62730568D01*
X13135139Y-62600047D01*
X13296047Y-62439139D01*
X13426568Y-62252734D01*
X13522739Y-62046496D01*
X13581635Y-61826692D01*
X13601468Y-61600000D01*
X13599497Y-61577477D01*
X13595280Y-61529272D01*
X13581635Y-61373308D01*
X13522739Y-61153504D01*
X13426568Y-60947266D01*
X13296047Y-60760861D01*
X13296045Y-60760858D01*
X13135141Y-60599954D01*
X12948734Y-60469432D01*
X12948728Y-60469429D01*
X12890725Y-60442382D01*
X12838285Y-60396210D01*
X12819133Y-60329017D01*
X12839348Y-60262135D01*
X12890725Y-60217618D01*
X12948734Y-60190568D01*
X13135139Y-60060047D01*
X13296047Y-59899139D01*
X13426568Y-59712734D01*
X13522739Y-59506496D01*
X13581635Y-59286692D01*
X13601468Y-59060000D01*
X13581635Y-58833308D01*
X13526357Y-58627005D01*
X13522741Y-58613511D01*
X13522738Y-58613502D01*
X13426568Y-58407267D01*
X13426567Y-58407265D01*
X13393457Y-58359979D01*
X13296047Y-58220861D01*
X13296045Y-58220858D01*
X13135141Y-58059954D01*
X12948734Y-57929432D01*
X12948728Y-57929429D01*
X12890725Y-57902382D01*
X12838285Y-57856210D01*
X12819133Y-57789017D01*
X12839348Y-57722135D01*
X12890725Y-57677618D01*
X12948734Y-57650568D01*
X13135139Y-57520047D01*
X13296047Y-57359139D01*
X13426568Y-57172734D01*
X13522739Y-56966496D01*
X13581635Y-56746692D01*
X13601468Y-56520000D01*
X13581635Y-56293308D01*
X13522739Y-56073504D01*
X13426568Y-55867266D01*
X13296047Y-55680861D01*
X13296045Y-55680858D01*
X13135141Y-55519954D01*
X12948734Y-55389432D01*
X12948728Y-55389429D01*
X12890725Y-55362382D01*
X12838285Y-55316210D01*
X12819133Y-55249017D01*
X12839348Y-55182135D01*
X12890725Y-55137618D01*
X12898216Y-55134125D01*
X12948734Y-55110568D01*
X13135139Y-54980047D01*
X13296047Y-54819139D01*
X13426568Y-54632734D01*
X13522739Y-54426496D01*
X13581635Y-54206692D01*
X13601468Y-53980000D01*
X13581635Y-53753308D01*
X13522739Y-53533504D01*
X13426568Y-53327266D01*
X13296047Y-53140861D01*
X13296045Y-53140858D01*
X13135141Y-52979954D01*
X12948734Y-52849432D01*
X12948728Y-52849429D01*
X12890725Y-52822382D01*
X12838285Y-52776210D01*
X12819133Y-52709017D01*
X12839348Y-52642135D01*
X12890725Y-52597618D01*
X12891645Y-52597189D01*
X12948734Y-52570568D01*
X13135139Y-52440047D01*
X13296047Y-52279139D01*
X13426568Y-52092734D01*
X13522739Y-51886496D01*
X13581635Y-51666692D01*
X13601468Y-51440000D01*
X13600331Y-51427009D01*
X13595801Y-51375230D01*
X13581635Y-51213308D01*
X13522739Y-50993504D01*
X13426568Y-50787266D01*
X13296047Y-50600861D01*
X13296045Y-50600858D01*
X13135141Y-50439954D01*
X12948734Y-50309432D01*
X12948728Y-50309429D01*
X12890725Y-50282382D01*
X12838285Y-50236210D01*
X12819133Y-50169017D01*
X12839348Y-50102135D01*
X12890725Y-50057618D01*
X12911874Y-50047756D01*
X12948734Y-50030568D01*
X13135139Y-49900047D01*
X13296047Y-49739139D01*
X13426568Y-49552734D01*
X13522739Y-49346496D01*
X13581635Y-49126692D01*
X13601468Y-48900000D01*
X13581635Y-48673308D01*
X13522739Y-48453504D01*
X13426568Y-48247266D01*
X13296047Y-48060861D01*
X13296045Y-48060858D01*
X13135141Y-47899954D01*
X12948734Y-47769432D01*
X12948728Y-47769429D01*
X12908188Y-47750525D01*
X12890724Y-47742381D01*
X12838285Y-47696210D01*
X12819133Y-47629017D01*
X12839348Y-47562135D01*
X12890725Y-47517618D01*
X12948734Y-47490568D01*
X13135139Y-47360047D01*
X13296047Y-47199139D01*
X13426568Y-47012734D01*
X13522739Y-46806496D01*
X13581635Y-46586692D01*
X13601468Y-46360000D01*
X13581635Y-46133308D01*
X13522739Y-45913504D01*
X13426568Y-45707266D01*
X13296047Y-45520861D01*
X13296045Y-45520858D01*
X13135141Y-45359954D01*
X12948734Y-45229432D01*
X12948728Y-45229429D01*
X12890725Y-45202382D01*
X12838285Y-45156210D01*
X12819133Y-45089017D01*
X12839348Y-45022135D01*
X12890725Y-44977618D01*
X12948734Y-44950568D01*
X13135139Y-44820047D01*
X13296047Y-44659139D01*
X13426568Y-44472734D01*
X13522739Y-44266496D01*
X13581635Y-44046692D01*
X13601468Y-43820000D01*
X13581635Y-43593308D01*
X13536916Y-43426415D01*
X13522741Y-43373511D01*
X13522738Y-43373502D01*
X13444748Y-43206253D01*
X13426568Y-43167266D01*
X13296047Y-42980861D01*
X13296045Y-42980858D01*
X13135141Y-42819954D01*
X12948734Y-42689432D01*
X12948728Y-42689429D01*
X12890725Y-42662382D01*
X12838285Y-42616210D01*
X12819133Y-42549017D01*
X12839348Y-42482135D01*
X12890725Y-42437618D01*
X12948734Y-42410568D01*
X13135139Y-42280047D01*
X13296047Y-42119139D01*
X13426568Y-41932734D01*
X13522739Y-41726496D01*
X13581635Y-41506692D01*
X13601468Y-41280000D01*
X13581635Y-41053308D01*
X13522739Y-40833504D01*
X13426568Y-40627266D01*
X13296047Y-40440861D01*
X13296045Y-40440858D01*
X13135141Y-40279954D01*
X12948734Y-40149432D01*
X12948728Y-40149429D01*
X12895778Y-40124738D01*
X12890724Y-40122381D01*
X12838285Y-40076210D01*
X12819133Y-40009017D01*
X12839348Y-39942135D01*
X12890725Y-39897618D01*
X12948734Y-39870568D01*
X13135139Y-39740047D01*
X13296047Y-39579139D01*
X13426568Y-39392734D01*
X13522739Y-39186496D01*
X13581635Y-38966692D01*
X13601468Y-38740000D01*
X13581635Y-38513308D01*
X13522739Y-38293504D01*
X13426568Y-38087266D01*
X13296047Y-37900861D01*
X13296045Y-37900858D01*
X13135141Y-37739954D01*
X12948734Y-37609432D01*
X12948728Y-37609429D01*
X12890725Y-37582382D01*
X12838285Y-37536210D01*
X12819133Y-37469017D01*
X12839348Y-37402135D01*
X12890725Y-37357618D01*
X12948734Y-37330568D01*
X13135139Y-37200047D01*
X13296047Y-37039139D01*
X13426568Y-36852734D01*
X13522739Y-36646496D01*
X13581635Y-36426692D01*
X13601468Y-36200000D01*
X13601468Y-36199998D01*
X17040532Y-36199998D01*
X17040532Y-36200001D01*
X17060364Y-36426686D01*
X17060366Y-36426697D01*
X17119258Y-36646488D01*
X17119261Y-36646497D01*
X17215431Y-36852732D01*
X17215432Y-36852734D01*
X17345954Y-37039141D01*
X17506858Y-37200045D01*
X17506861Y-37200047D01*
X17693266Y-37330568D01*
X17751275Y-37357618D01*
X17803714Y-37403791D01*
X17822866Y-37470984D01*
X17802650Y-37537865D01*
X17751275Y-37582382D01*
X17693267Y-37609431D01*
X17693265Y-37609432D01*
X17506858Y-37739954D01*
X17345954Y-37900858D01*
X17215432Y-38087265D01*
X17215431Y-38087267D01*
X17119261Y-38293502D01*
X17119258Y-38293511D01*
X17060366Y-38513302D01*
X17060364Y-38513313D01*
X17040532Y-38739998D01*
X17040532Y-38740001D01*
X17060364Y-38966686D01*
X17060366Y-38966697D01*
X17119258Y-39186488D01*
X17119261Y-39186497D01*
X17215431Y-39392732D01*
X17215432Y-39392734D01*
X17345954Y-39579141D01*
X17506858Y-39740045D01*
X17506861Y-39740047D01*
X17693266Y-39870568D01*
X17751275Y-39897618D01*
X17803714Y-39943791D01*
X17822866Y-40010984D01*
X17802650Y-40077865D01*
X17751275Y-40122381D01*
X17746222Y-40124738D01*
X17693267Y-40149431D01*
X17693265Y-40149432D01*
X17506858Y-40279954D01*
X17345954Y-40440858D01*
X17215432Y-40627265D01*
X17215431Y-40627267D01*
X17119261Y-40833502D01*
X17119258Y-40833511D01*
X17060366Y-41053302D01*
X17060364Y-41053313D01*
X17040532Y-41279998D01*
X17040532Y-41280001D01*
X17060364Y-41506686D01*
X17060366Y-41506697D01*
X17119258Y-41726488D01*
X17119261Y-41726497D01*
X17215431Y-41932732D01*
X17215432Y-41932734D01*
X17345954Y-42119141D01*
X17506858Y-42280045D01*
X17506861Y-42280047D01*
X17693266Y-42410568D01*
X17751275Y-42437618D01*
X17803714Y-42483791D01*
X17822866Y-42550984D01*
X17802650Y-42617865D01*
X17751275Y-42662382D01*
X17693267Y-42689431D01*
X17693265Y-42689432D01*
X17506858Y-42819954D01*
X17345954Y-42980858D01*
X17215432Y-43167265D01*
X17215431Y-43167267D01*
X17119261Y-43373502D01*
X17119258Y-43373511D01*
X17060366Y-43593302D01*
X17060364Y-43593313D01*
X17040532Y-43819998D01*
X17040532Y-43820001D01*
X17060364Y-44046686D01*
X17060366Y-44046697D01*
X17119258Y-44266488D01*
X17119261Y-44266497D01*
X17215431Y-44472732D01*
X17215432Y-44472734D01*
X17345954Y-44659141D01*
X17506858Y-44820045D01*
X17506861Y-44820047D01*
X17693266Y-44950568D01*
X17751275Y-44977618D01*
X17803714Y-45023791D01*
X17822866Y-45090984D01*
X17802650Y-45157865D01*
X17751275Y-45202382D01*
X17693267Y-45229431D01*
X17693265Y-45229432D01*
X17506858Y-45359954D01*
X17345954Y-45520858D01*
X17215432Y-45707265D01*
X17215431Y-45707267D01*
X17119261Y-45913502D01*
X17119258Y-45913511D01*
X17060366Y-46133302D01*
X17060364Y-46133313D01*
X17040532Y-46359998D01*
X17040532Y-46360001D01*
X17060364Y-46586686D01*
X17060366Y-46586697D01*
X17119258Y-46806488D01*
X17119261Y-46806497D01*
X17215431Y-47012732D01*
X17215432Y-47012734D01*
X17345954Y-47199141D01*
X17506858Y-47360045D01*
X17506861Y-47360047D01*
X17693266Y-47490568D01*
X17751275Y-47517618D01*
X17803714Y-47563791D01*
X17822866Y-47630984D01*
X17802650Y-47697865D01*
X17751275Y-47742382D01*
X17693267Y-47769431D01*
X17693265Y-47769432D01*
X17506858Y-47899954D01*
X17345954Y-48060858D01*
X17215432Y-48247265D01*
X17215431Y-48247267D01*
X17119261Y-48453502D01*
X17119258Y-48453511D01*
X17060366Y-48673302D01*
X17060364Y-48673313D01*
X17040532Y-48899998D01*
X17040532Y-48900001D01*
X17060364Y-49126686D01*
X17060366Y-49126697D01*
X17119258Y-49346488D01*
X17119261Y-49346497D01*
X17215431Y-49552732D01*
X17215432Y-49552734D01*
X17345954Y-49739141D01*
X17506858Y-49900045D01*
X17506861Y-49900047D01*
X17693266Y-50030568D01*
X17730115Y-50047751D01*
X17751275Y-50057618D01*
X17803714Y-50103791D01*
X17822866Y-50170984D01*
X17802650Y-50237865D01*
X17751275Y-50282382D01*
X17693267Y-50309431D01*
X17693265Y-50309432D01*
X17506858Y-50439954D01*
X17345954Y-50600858D01*
X17215432Y-50787265D01*
X17215431Y-50787267D01*
X17119261Y-50993502D01*
X17119258Y-50993511D01*
X17060366Y-51213302D01*
X17060364Y-51213313D01*
X17040532Y-51439998D01*
X17040532Y-51440001D01*
X17060364Y-51666686D01*
X17060366Y-51666697D01*
X17119258Y-51886488D01*
X17119261Y-51886497D01*
X17215431Y-52092732D01*
X17215432Y-52092734D01*
X17345954Y-52279141D01*
X17506858Y-52440045D01*
X17506861Y-52440047D01*
X17693266Y-52570568D01*
X17750355Y-52597189D01*
X17751275Y-52597618D01*
X17803714Y-52643791D01*
X17822866Y-52710984D01*
X17802650Y-52777865D01*
X17751275Y-52822382D01*
X17693267Y-52849431D01*
X17693265Y-52849432D01*
X17506858Y-52979954D01*
X17345954Y-53140858D01*
X17215432Y-53327265D01*
X17215431Y-53327267D01*
X17119261Y-53533502D01*
X17119258Y-53533511D01*
X17060366Y-53753302D01*
X17060364Y-53753313D01*
X17040532Y-53979998D01*
X17040532Y-53980001D01*
X17060364Y-54206686D01*
X17060366Y-54206697D01*
X17119258Y-54426488D01*
X17119261Y-54426497D01*
X17215431Y-54632732D01*
X17215432Y-54632734D01*
X17345954Y-54819141D01*
X17506858Y-54980045D01*
X17506861Y-54980047D01*
X17693266Y-55110568D01*
X17743784Y-55134125D01*
X17751275Y-55137618D01*
X17803714Y-55183791D01*
X17822866Y-55250984D01*
X17802650Y-55317865D01*
X17751275Y-55362382D01*
X17693267Y-55389431D01*
X17693265Y-55389432D01*
X17506858Y-55519954D01*
X17345954Y-55680858D01*
X17215432Y-55867265D01*
X17215431Y-55867267D01*
X17119261Y-56073502D01*
X17119258Y-56073511D01*
X17060366Y-56293302D01*
X17060364Y-56293313D01*
X17040532Y-56519998D01*
X17040532Y-56520001D01*
X17060364Y-56746686D01*
X17060366Y-56746697D01*
X17119258Y-56966488D01*
X17119261Y-56966497D01*
X17215431Y-57172732D01*
X17215432Y-57172734D01*
X17345954Y-57359141D01*
X17506858Y-57520045D01*
X17506861Y-57520047D01*
X17693266Y-57650568D01*
X17751275Y-57677618D01*
X17803714Y-57723791D01*
X17822866Y-57790984D01*
X17802650Y-57857865D01*
X17751275Y-57902382D01*
X17693267Y-57929431D01*
X17693265Y-57929432D01*
X17506858Y-58059954D01*
X17345954Y-58220858D01*
X17215432Y-58407265D01*
X17215431Y-58407267D01*
X17119261Y-58613502D01*
X17119258Y-58613511D01*
X17060366Y-58833302D01*
X17060364Y-58833313D01*
X17040532Y-59059998D01*
X17040532Y-59060001D01*
X17060364Y-59286686D01*
X17060366Y-59286697D01*
X17119258Y-59506488D01*
X17119261Y-59506497D01*
X17215431Y-59712732D01*
X17215432Y-59712734D01*
X17345954Y-59899141D01*
X17506858Y-60060045D01*
X17506861Y-60060047D01*
X17693266Y-60190568D01*
X17751275Y-60217618D01*
X17803714Y-60263791D01*
X17822866Y-60330984D01*
X17802650Y-60397865D01*
X17751275Y-60442382D01*
X17693267Y-60469431D01*
X17693265Y-60469432D01*
X17506858Y-60599954D01*
X17345954Y-60760858D01*
X17215432Y-60947265D01*
X17215431Y-60947267D01*
X17119261Y-61153502D01*
X17119258Y-61153511D01*
X17060366Y-61373302D01*
X17060364Y-61373313D01*
X17040532Y-61599998D01*
X17040532Y-61600001D01*
X17060364Y-61826686D01*
X17060366Y-61826697D01*
X17119258Y-62046488D01*
X17119261Y-62046497D01*
X17215431Y-62252732D01*
X17215432Y-62252734D01*
X17345954Y-62439141D01*
X17506858Y-62600045D01*
X17506861Y-62600047D01*
X17693266Y-62730568D01*
X17712050Y-62739327D01*
X17751275Y-62757618D01*
X17803714Y-62803791D01*
X17822866Y-62870984D01*
X17802650Y-62937865D01*
X17751275Y-62982382D01*
X17693267Y-63009431D01*
X17693265Y-63009432D01*
X17506858Y-63139954D01*
X17345954Y-63300858D01*
X17215432Y-63487265D01*
X17215431Y-63487267D01*
X17119261Y-63693502D01*
X17119258Y-63693511D01*
X17060366Y-63913302D01*
X17060364Y-63913313D01*
X17040532Y-64139998D01*
X17040532Y-64140001D01*
X17060364Y-64366686D01*
X17060366Y-64366697D01*
X17119258Y-64586488D01*
X17119261Y-64586497D01*
X17215431Y-64792732D01*
X17215432Y-64792734D01*
X17345954Y-64979141D01*
X17506858Y-65140045D01*
X17506861Y-65140047D01*
X17693266Y-65270568D01*
X17751275Y-65297618D01*
X17803714Y-65343791D01*
X17822866Y-65410984D01*
X17802650Y-65477865D01*
X17751275Y-65522382D01*
X17693267Y-65549431D01*
X17693265Y-65549432D01*
X17506858Y-65679954D01*
X17345954Y-65840858D01*
X17215432Y-66027265D01*
X17215431Y-66027267D01*
X17119261Y-66233502D01*
X17119258Y-66233511D01*
X17060366Y-66453302D01*
X17060364Y-66453313D01*
X17040532Y-66679998D01*
X17040532Y-66680001D01*
X17060364Y-66906686D01*
X17060366Y-66906697D01*
X17119258Y-67126488D01*
X17119261Y-67126497D01*
X17215431Y-67332732D01*
X17215432Y-67332734D01*
X17345954Y-67519141D01*
X17506858Y-67680045D01*
X17506861Y-67680047D01*
X17693266Y-67810568D01*
X17751275Y-67837618D01*
X17803714Y-67883791D01*
X17822866Y-67950984D01*
X17802650Y-68017865D01*
X17751275Y-68062382D01*
X17693267Y-68089431D01*
X17693265Y-68089432D01*
X17506858Y-68219954D01*
X17345954Y-68380858D01*
X17215432Y-68567265D01*
X17215431Y-68567267D01*
X17119261Y-68773502D01*
X17119258Y-68773511D01*
X17060366Y-68993302D01*
X17060364Y-68993313D01*
X17040532Y-69219998D01*
X17040532Y-69220001D01*
X17060364Y-69446686D01*
X17060366Y-69446697D01*
X17119258Y-69666488D01*
X17119261Y-69666497D01*
X17215431Y-69872732D01*
X17215432Y-69872734D01*
X17345954Y-70059141D01*
X17506858Y-70220045D01*
X17506861Y-70220047D01*
X17693266Y-70350568D01*
X17751275Y-70377618D01*
X17803714Y-70423791D01*
X17822866Y-70490984D01*
X17802650Y-70557865D01*
X17751275Y-70602382D01*
X17693267Y-70629431D01*
X17693265Y-70629432D01*
X17506858Y-70759954D01*
X17345954Y-70920858D01*
X17215432Y-71107265D01*
X17215431Y-71107267D01*
X17119261Y-71313502D01*
X17119258Y-71313511D01*
X17060366Y-71533302D01*
X17060364Y-71533313D01*
X17040532Y-71759998D01*
X17040532Y-71760001D01*
X17060364Y-71986686D01*
X17060366Y-71986697D01*
X17119258Y-72206488D01*
X17119261Y-72206497D01*
X17215431Y-72412732D01*
X17215432Y-72412734D01*
X17345954Y-72599141D01*
X17506858Y-72760045D01*
X17522375Y-72770910D01*
X17693266Y-72890568D01*
X17751275Y-72917618D01*
X17803714Y-72963791D01*
X17822866Y-73030984D01*
X17802650Y-73097865D01*
X17751275Y-73142382D01*
X17693267Y-73169431D01*
X17693265Y-73169432D01*
X17506858Y-73299954D01*
X17345954Y-73460858D01*
X17215432Y-73647265D01*
X17215431Y-73647267D01*
X17119261Y-73853502D01*
X17119258Y-73853511D01*
X17060366Y-74073302D01*
X17060364Y-74073313D01*
X17040532Y-74299998D01*
X17040532Y-74300001D01*
X17060364Y-74526686D01*
X17060366Y-74526697D01*
X17119258Y-74746488D01*
X17119261Y-74746497D01*
X17215431Y-74952732D01*
X17215432Y-74952734D01*
X17345954Y-75139141D01*
X17506858Y-75300045D01*
X17506861Y-75300047D01*
X17693266Y-75430568D01*
X17751275Y-75457618D01*
X17803714Y-75503791D01*
X17822866Y-75570984D01*
X17802650Y-75637865D01*
X17751275Y-75682382D01*
X17693267Y-75709431D01*
X17693265Y-75709432D01*
X17506858Y-75839954D01*
X17345954Y-76000858D01*
X17215432Y-76187265D01*
X17215431Y-76187267D01*
X17119261Y-76393502D01*
X17119258Y-76393511D01*
X17060366Y-76613302D01*
X17060364Y-76613313D01*
X17040532Y-76839998D01*
X17040532Y-76840001D01*
X17060364Y-77066686D01*
X17060366Y-77066697D01*
X17119258Y-77286488D01*
X17119261Y-77286497D01*
X17215431Y-77492732D01*
X17215432Y-77492734D01*
X17345954Y-77679141D01*
X17506858Y-77840045D01*
X17506861Y-77840047D01*
X17693266Y-77970568D01*
X17751275Y-77997618D01*
X17803714Y-78043791D01*
X17822866Y-78110984D01*
X17802650Y-78177865D01*
X17751275Y-78222382D01*
X17693267Y-78249431D01*
X17693265Y-78249432D01*
X17506858Y-78379954D01*
X17345954Y-78540858D01*
X17215432Y-78727265D01*
X17215431Y-78727267D01*
X17119261Y-78933502D01*
X17119258Y-78933511D01*
X17060366Y-79153302D01*
X17060364Y-79153313D01*
X17040532Y-79379998D01*
X17040532Y-79380001D01*
X17060364Y-79606686D01*
X17060366Y-79606697D01*
X17119258Y-79826488D01*
X17119261Y-79826497D01*
X17215431Y-80032732D01*
X17215432Y-80032734D01*
X17345954Y-80219141D01*
X17506858Y-80380045D01*
X17506861Y-80380047D01*
X17693266Y-80510568D01*
X17751275Y-80537618D01*
X17803714Y-80583791D01*
X17822866Y-80650984D01*
X17802650Y-80717865D01*
X17751275Y-80762382D01*
X17693267Y-80789431D01*
X17693265Y-80789432D01*
X17506858Y-80919954D01*
X17345954Y-81080858D01*
X17215432Y-81267265D01*
X17215431Y-81267267D01*
X17119261Y-81473502D01*
X17119258Y-81473511D01*
X17060366Y-81693302D01*
X17060364Y-81693313D01*
X17040532Y-81919998D01*
X17040532Y-81920001D01*
X17060364Y-82146686D01*
X17060366Y-82146697D01*
X17119258Y-82366488D01*
X17119261Y-82366497D01*
X17215431Y-82572732D01*
X17215432Y-82572734D01*
X17345954Y-82759141D01*
X17506858Y-82920045D01*
X17506861Y-82920047D01*
X17693266Y-83050568D01*
X17899504Y-83146739D01*
X18119308Y-83205635D01*
X18281230Y-83219801D01*
X18345998Y-83225468D01*
X18346000Y-83225468D01*
X18346002Y-83225468D01*
X18402673Y-83220509D01*
X18572692Y-83205635D01*
X18792496Y-83146739D01*
X18998734Y-83050568D01*
X19185139Y-82920047D01*
X19346047Y-82759139D01*
X19476568Y-82572734D01*
X19503618Y-82514724D01*
X19549790Y-82462285D01*
X19616983Y-82443133D01*
X19683865Y-82463348D01*
X19728382Y-82514725D01*
X19755429Y-82572728D01*
X19755432Y-82572734D01*
X19885954Y-82759141D01*
X20046858Y-82920045D01*
X20046861Y-82920047D01*
X20233266Y-83050568D01*
X20439504Y-83146739D01*
X20659308Y-83205635D01*
X20821230Y-83219801D01*
X20885998Y-83225468D01*
X20886000Y-83225468D01*
X20886002Y-83225468D01*
X20942673Y-83220509D01*
X21112692Y-83205635D01*
X21332496Y-83146739D01*
X21538734Y-83050568D01*
X21725139Y-82920047D01*
X21886047Y-82759139D01*
X22016568Y-82572734D01*
X22112739Y-82366496D01*
X22171635Y-82146692D01*
X22191468Y-81920000D01*
X22171635Y-81693308D01*
X22112739Y-81473504D01*
X22016568Y-81267266D01*
X21886047Y-81080861D01*
X21886045Y-81080858D01*
X21725141Y-80919954D01*
X21538734Y-80789432D01*
X21538728Y-80789429D01*
X21480725Y-80762382D01*
X21428285Y-80716210D01*
X21409133Y-80649017D01*
X21429348Y-80582135D01*
X21480725Y-80537618D01*
X21538734Y-80510568D01*
X21725139Y-80380047D01*
X21886047Y-80219139D01*
X22016568Y-80032734D01*
X22112739Y-79826496D01*
X22171635Y-79606692D01*
X22191468Y-79380000D01*
X22188645Y-79347738D01*
X22182415Y-79276522D01*
X22171635Y-79153308D01*
X22112739Y-78933504D01*
X22016568Y-78727266D01*
X21886047Y-78540861D01*
X21886045Y-78540858D01*
X21725141Y-78379954D01*
X21538734Y-78249432D01*
X21538728Y-78249429D01*
X21480725Y-78222382D01*
X21428285Y-78176210D01*
X21409133Y-78109017D01*
X21429348Y-78042135D01*
X21480725Y-77997618D01*
X21538734Y-77970568D01*
X21725139Y-77840047D01*
X21886047Y-77679139D01*
X22016568Y-77492734D01*
X22112739Y-77286496D01*
X22171635Y-77066692D01*
X22191468Y-76840000D01*
X22171635Y-76613308D01*
X22112739Y-76393504D01*
X22016568Y-76187266D01*
X21886047Y-76000861D01*
X21886045Y-76000858D01*
X21725141Y-75839954D01*
X21538734Y-75709432D01*
X21538728Y-75709429D01*
X21480725Y-75682382D01*
X21428285Y-75636210D01*
X21409133Y-75569017D01*
X21429348Y-75502135D01*
X21480725Y-75457618D01*
X21538734Y-75430568D01*
X21725139Y-75300047D01*
X21886047Y-75139139D01*
X22016568Y-74952734D01*
X22112739Y-74746496D01*
X22171635Y-74526692D01*
X22189105Y-74327004D01*
X22191468Y-74300001D01*
X22191468Y-74299998D01*
X22176333Y-74127005D01*
X22171635Y-74073308D01*
X22112739Y-73853504D01*
X22016568Y-73647266D01*
X21886047Y-73460861D01*
X21886045Y-73460858D01*
X21725141Y-73299954D01*
X21538734Y-73169432D01*
X21538728Y-73169429D01*
X21480725Y-73142382D01*
X21428285Y-73096210D01*
X21409133Y-73029017D01*
X21429348Y-72962135D01*
X21480725Y-72917618D01*
X21538734Y-72890568D01*
X21725139Y-72760047D01*
X21886047Y-72599139D01*
X22016568Y-72412734D01*
X22112739Y-72206496D01*
X22171635Y-71986692D01*
X22191468Y-71760000D01*
X22171635Y-71533308D01*
X22112739Y-71313504D01*
X22016568Y-71107266D01*
X21886047Y-70920861D01*
X21886045Y-70920858D01*
X21725141Y-70759954D01*
X21538734Y-70629432D01*
X21538728Y-70629429D01*
X21480725Y-70602382D01*
X21428285Y-70556210D01*
X21409133Y-70489017D01*
X21429348Y-70422135D01*
X21480725Y-70377618D01*
X21538734Y-70350568D01*
X21725139Y-70220047D01*
X21886047Y-70059139D01*
X22016568Y-69872734D01*
X22112739Y-69666496D01*
X22171635Y-69446692D01*
X22191468Y-69220000D01*
X22171635Y-68993308D01*
X22112739Y-68773504D01*
X22016568Y-68567266D01*
X21903833Y-68406262D01*
X21886045Y-68380858D01*
X21725141Y-68219954D01*
X21538734Y-68089432D01*
X21538728Y-68089429D01*
X21480725Y-68062382D01*
X21428285Y-68016210D01*
X21409133Y-67949017D01*
X21429348Y-67882135D01*
X21480725Y-67837618D01*
X21538734Y-67810568D01*
X21725139Y-67680047D01*
X21886047Y-67519139D01*
X22016568Y-67332734D01*
X22112739Y-67126496D01*
X22171635Y-66906692D01*
X22191468Y-66680000D01*
X22171635Y-66453308D01*
X22112739Y-66233504D01*
X22016568Y-66027266D01*
X21886047Y-65840861D01*
X21886045Y-65840858D01*
X21725141Y-65679954D01*
X21538734Y-65549432D01*
X21538728Y-65549429D01*
X21480725Y-65522382D01*
X21428285Y-65476210D01*
X21409133Y-65409017D01*
X21429348Y-65342135D01*
X21480725Y-65297618D01*
X21538734Y-65270568D01*
X21725139Y-65140047D01*
X21886047Y-64979139D01*
X22016568Y-64792734D01*
X22112739Y-64586496D01*
X22171635Y-64366692D01*
X22191468Y-64140000D01*
X22190133Y-64124746D01*
X22180265Y-64011951D01*
X22171635Y-63913308D01*
X22112739Y-63693504D01*
X22016568Y-63487266D01*
X21886047Y-63300861D01*
X21886045Y-63300858D01*
X21725141Y-63139954D01*
X21538734Y-63009432D01*
X21538728Y-63009429D01*
X21480725Y-62982382D01*
X21428285Y-62936210D01*
X21409133Y-62869017D01*
X21429348Y-62802135D01*
X21480725Y-62757618D01*
X21538734Y-62730568D01*
X21725139Y-62600047D01*
X21832190Y-62492996D01*
X28307721Y-62492996D01*
X28307721Y-62493001D01*
X28326791Y-62710974D01*
X28326791Y-62710978D01*
X28383420Y-62922321D01*
X28383422Y-62922325D01*
X28383423Y-62922329D01*
X28411426Y-62982382D01*
X28475895Y-63120637D01*
X28489421Y-63139954D01*
X28601400Y-63299876D01*
X28601404Y-63299880D01*
X28631840Y-63330316D01*
X28665325Y-63391639D01*
X28660341Y-63461331D01*
X28631843Y-63505676D01*
X28601399Y-63536121D01*
X28475898Y-63715355D01*
X28475896Y-63715359D01*
X28400744Y-63876524D01*
X28387652Y-63904600D01*
X28383424Y-63913666D01*
X28383420Y-63913675D01*
X28326791Y-64125018D01*
X28326791Y-64125021D01*
X28324804Y-64147738D01*
X28309121Y-64327001D01*
X28307721Y-64342998D01*
X28322004Y-64506263D01*
X28326791Y-64560973D01*
X28326791Y-64560977D01*
X28383420Y-64772320D01*
X28383422Y-64772324D01*
X28383423Y-64772328D01*
X28429659Y-64871482D01*
X28475895Y-64970636D01*
X28504842Y-65011976D01*
X28601400Y-65149875D01*
X28721873Y-65270348D01*
X28756122Y-65304597D01*
X28860122Y-65377418D01*
X28903747Y-65431995D01*
X28912999Y-65478993D01*
X28912999Y-68157005D01*
X28893314Y-68224044D01*
X28860123Y-68258580D01*
X28756116Y-68331406D01*
X28601400Y-68486122D01*
X28475898Y-68665358D01*
X28475896Y-68665362D01*
X28383424Y-68863669D01*
X28383420Y-68863678D01*
X28326791Y-69075021D01*
X28326791Y-69075025D01*
X28307721Y-69292998D01*
X28307721Y-69293003D01*
X28308881Y-69306263D01*
X28319445Y-69427016D01*
X28326791Y-69510976D01*
X28326791Y-69510980D01*
X28383420Y-69722323D01*
X28383422Y-69722327D01*
X28383423Y-69722331D01*
X28408700Y-69776538D01*
X28475895Y-69920639D01*
X28480353Y-69927005D01*
X28601400Y-70099878D01*
X28706839Y-70205317D01*
X28756122Y-70254600D01*
X28860122Y-70327421D01*
X28903747Y-70381998D01*
X28912999Y-70428996D01*
X28912999Y-80207003D01*
X28893314Y-80274042D01*
X28860123Y-80308578D01*
X28756116Y-80381404D01*
X28601400Y-80536120D01*
X28475898Y-80715356D01*
X28475896Y-80715360D01*
X28383424Y-80913667D01*
X28383420Y-80913676D01*
X28326791Y-81125019D01*
X28326791Y-81125023D01*
X28307721Y-81342996D01*
X28307721Y-81343001D01*
X28326791Y-81560974D01*
X28326791Y-81560978D01*
X28383420Y-81772321D01*
X28383422Y-81772325D01*
X28383423Y-81772329D01*
X28429659Y-81871483D01*
X28475895Y-81970637D01*
X28475896Y-81970638D01*
X28601400Y-82149876D01*
X28756121Y-82304597D01*
X28844523Y-82366497D01*
X28860122Y-82377419D01*
X28903747Y-82431996D01*
X28904176Y-82434178D01*
X28912999Y-82443001D01*
X28935533Y-82443001D01*
X28987937Y-82454618D01*
X29133668Y-82522574D01*
X29345021Y-82579206D01*
X29527924Y-82595207D01*
X29562996Y-82598276D01*
X29562998Y-82598276D01*
X29563000Y-82598276D01*
X29591252Y-82595804D01*
X29780975Y-82579206D01*
X29992328Y-82522574D01*
X30138058Y-82454618D01*
X30190463Y-82443001D01*
X45713002Y-82443001D01*
X45713002Y-79809088D01*
X45732687Y-79742049D01*
X45785491Y-79696294D01*
X45796048Y-79692046D01*
X45862516Y-79668788D01*
X46015256Y-79572815D01*
X46142810Y-79445261D01*
X46238783Y-79292521D01*
X46298362Y-79122254D01*
X46298363Y-79122248D01*
X46318559Y-78943002D01*
X46318559Y-78942995D01*
X46298363Y-78763749D01*
X46298362Y-78763744D01*
X46238782Y-78593475D01*
X46185683Y-78508969D01*
X46166683Y-78441733D01*
X46185683Y-78377026D01*
X46238783Y-78292520D01*
X46298362Y-78122253D01*
X46299743Y-78110000D01*
X46318559Y-77943001D01*
X46318559Y-77942994D01*
X46298363Y-77763748D01*
X46298362Y-77763743D01*
X46238783Y-77593476D01*
X46224129Y-77570155D01*
X46187498Y-77511856D01*
X46142810Y-77440736D01*
X46015256Y-77313182D01*
X45874497Y-77224737D01*
X45862518Y-77217210D01*
X45862514Y-77217208D01*
X45796047Y-77193950D01*
X45739271Y-77153228D01*
X45713524Y-77088275D01*
X45713002Y-77076909D01*
X45713002Y-76678990D01*
X45732687Y-76611951D01*
X45765879Y-76577415D01*
X45869872Y-76504599D01*
X46024593Y-76349878D01*
X46150097Y-76170640D01*
X46242570Y-75972331D01*
X46299202Y-75760978D01*
X46318272Y-75543001D01*
X46316872Y-75527004D01*
X46310802Y-75457618D01*
X46299202Y-75325024D01*
X46242570Y-75113671D01*
X46150097Y-74915363D01*
X46150095Y-74915360D01*
X46150094Y-74915358D01*
X46024594Y-74736125D01*
X45989112Y-74700643D01*
X45869872Y-74581403D01*
X45791737Y-74526692D01*
X45765877Y-74508584D01*
X45722253Y-74454007D01*
X45713002Y-74407010D01*
X45713002Y-72378990D01*
X45732687Y-72311951D01*
X45765879Y-72277415D01*
X45867161Y-72206497D01*
X45869872Y-72204599D01*
X46024593Y-72049878D01*
X46150097Y-71870640D01*
X46242570Y-71672331D01*
X46299202Y-71460978D01*
X46318272Y-71243001D01*
X46299202Y-71025024D01*
X46242570Y-70813671D01*
X46150097Y-70615363D01*
X46150095Y-70615360D01*
X46150094Y-70615358D01*
X46024594Y-70436125D01*
X46010604Y-70422135D01*
X45969147Y-70380678D01*
X45935664Y-70319358D01*
X45940648Y-70249666D01*
X45969146Y-70205321D01*
X46024593Y-70149875D01*
X46150097Y-69970637D01*
X46242570Y-69772328D01*
X46299202Y-69560975D01*
X46318272Y-69342998D01*
X46299202Y-69125021D01*
X46248274Y-68934957D01*
X46242572Y-68913675D01*
X46242571Y-68913674D01*
X46242570Y-68913668D01*
X46150097Y-68715360D01*
X46150095Y-68715357D01*
X46150094Y-68715355D01*
X46024594Y-68536122D01*
X45974594Y-68486122D01*
X45869872Y-68381400D01*
X45814842Y-68342867D01*
X45765877Y-68308581D01*
X45722253Y-68254004D01*
X45713002Y-68207007D01*
X45713002Y-64078990D01*
X45732687Y-64011951D01*
X45765879Y-63977415D01*
X45775175Y-63970906D01*
X45869872Y-63904599D01*
X46024593Y-63749878D01*
X46150097Y-63570640D01*
X46242570Y-63372331D01*
X46299202Y-63160978D01*
X46318272Y-62943001D01*
X46316463Y-62922329D01*
X46308124Y-62827008D01*
X46299202Y-62725024D01*
X46242570Y-62513671D01*
X46150097Y-62315363D01*
X46150095Y-62315360D01*
X46150094Y-62315358D01*
X46024594Y-62136125D01*
X45952136Y-62063667D01*
X45869872Y-61981403D01*
X45814842Y-61942870D01*
X45765877Y-61908584D01*
X45749964Y-61888676D01*
X45749321Y-61889320D01*
X45713002Y-61853001D01*
X45711909Y-61853001D01*
X45659504Y-61841383D01*
X45627986Y-61826686D01*
X45492325Y-61763426D01*
X45492321Y-61763425D01*
X45492317Y-61763423D01*
X45280972Y-61706794D01*
X45062997Y-61687724D01*
X45062993Y-61687724D01*
X44917677Y-61700437D01*
X44845018Y-61706794D01*
X44845015Y-61706794D01*
X44633672Y-61763423D01*
X44633665Y-61763425D01*
X44633665Y-61763426D01*
X44483787Y-61833316D01*
X44466487Y-61841383D01*
X44414082Y-61853001D01*
X30705996Y-61853001D01*
X30638957Y-61833316D01*
X30604421Y-61800124D01*
X30524597Y-61686123D01*
X30465483Y-61627009D01*
X30369875Y-61531401D01*
X30190637Y-61405897D01*
X30190638Y-61405897D01*
X30190636Y-61405896D01*
X30091482Y-61359660D01*
X29992328Y-61313424D01*
X29992324Y-61313423D01*
X29992322Y-61313422D01*
X29825698Y-61268775D01*
X29766038Y-61232410D01*
X29735509Y-61169563D01*
X29743804Y-61100187D01*
X29788289Y-61046309D01*
X29854841Y-61025035D01*
X29857708Y-61025000D01*
X44616112Y-61025000D01*
X44616122Y-61025001D01*
X44961867Y-61025000D01*
X45021478Y-61018592D01*
X45156326Y-60968297D01*
X45271541Y-60882047D01*
X45357791Y-60766832D01*
X45408086Y-60631984D01*
X45414495Y-60572374D01*
X45414494Y-55301629D01*
X45408086Y-55242018D01*
X45386369Y-55183791D01*
X45367845Y-55134125D01*
X45362861Y-55064433D01*
X45366982Y-55049847D01*
X45374363Y-55028756D01*
X45394560Y-54849501D01*
X45392025Y-54827005D01*
X45374364Y-54670251D01*
X45374363Y-54670246D01*
X45323450Y-54524745D01*
X45314784Y-54499979D01*
X45218811Y-54347239D01*
X45208754Y-54337182D01*
X45175269Y-54275859D01*
X45180253Y-54206167D01*
X45208754Y-54161820D01*
X45218811Y-54151763D01*
X45314784Y-53999023D01*
X45374363Y-53828756D01*
X45374560Y-53827007D01*
X45394560Y-53649504D01*
X45394560Y-53649497D01*
X45374364Y-53470251D01*
X45374363Y-53470246D01*
X45323449Y-53324742D01*
X45314784Y-53299979D01*
X45218811Y-53147239D01*
X45208754Y-53137182D01*
X45175269Y-53075859D01*
X45180253Y-53006167D01*
X45208754Y-52961820D01*
X45218811Y-52951763D01*
X45314784Y-52799023D01*
X45374363Y-52628756D01*
X45374560Y-52627007D01*
X45394560Y-52449504D01*
X45394560Y-52449497D01*
X45374364Y-52270251D01*
X45374363Y-52270246D01*
X45323449Y-52124742D01*
X45314784Y-52099979D01*
X45310230Y-52092732D01*
X45268932Y-52027006D01*
X45218811Y-51947239D01*
X45208754Y-51937182D01*
X45175269Y-51875859D01*
X45180253Y-51806167D01*
X45208754Y-51761820D01*
X45218811Y-51751763D01*
X45314784Y-51599023D01*
X45374363Y-51428756D01*
X45374364Y-51428750D01*
X45394560Y-51249504D01*
X45394560Y-51249497D01*
X45374364Y-51070251D01*
X45374363Y-51070246D01*
X45347509Y-50993502D01*
X45314784Y-50899979D01*
X45218811Y-50747239D01*
X45091257Y-50619685D01*
X45061294Y-50600858D01*
X44938518Y-50523712D01*
X44768249Y-50464132D01*
X44768244Y-50464131D01*
X44588999Y-50443936D01*
X44588991Y-50443936D01*
X44487295Y-50455394D01*
X44418473Y-50443339D01*
X44399101Y-50431441D01*
X44331326Y-50380705D01*
X44331323Y-50380703D01*
X44196477Y-50330409D01*
X44196478Y-50330409D01*
X44136878Y-50324002D01*
X44136876Y-50324001D01*
X44136868Y-50324001D01*
X38668950Y-50324001D01*
X38601911Y-50304316D01*
X38556156Y-50251512D01*
X38546212Y-50182354D01*
X38575237Y-50118798D01*
X38627995Y-50082959D01*
X38788517Y-50026790D01*
X38941257Y-49930817D01*
X39068811Y-49803263D01*
X39164784Y-49650523D01*
X39224363Y-49480256D01*
X39224364Y-49480250D01*
X39244560Y-49301004D01*
X39244560Y-49300997D01*
X39224364Y-49121751D01*
X39224363Y-49121746D01*
X39209445Y-49079112D01*
X39164784Y-48951479D01*
X39151802Y-48930819D01*
X39068810Y-48798738D01*
X38941257Y-48671185D01*
X38788519Y-48575213D01*
X38788518Y-48575212D01*
X38722039Y-48551950D01*
X38665264Y-48511228D01*
X38639517Y-48446275D01*
X38638995Y-48434909D01*
X38638995Y-48267095D01*
X38658680Y-48200056D01*
X38711484Y-48154301D01*
X38722041Y-48150053D01*
X38729808Y-48147335D01*
X38788517Y-48126792D01*
X38941257Y-48030819D01*
X39068811Y-47903265D01*
X39116733Y-47826997D01*
X46729429Y-47826997D01*
X46729429Y-47827004D01*
X46749624Y-48006250D01*
X46749625Y-48006255D01*
X46809205Y-48176524D01*
X46905178Y-48329263D01*
X46915236Y-48339321D01*
X46948721Y-48400644D01*
X46943737Y-48470336D01*
X46915236Y-48514683D01*
X46905180Y-48524738D01*
X46809207Y-48677477D01*
X46749627Y-48847746D01*
X46749626Y-48847751D01*
X46729431Y-49026997D01*
X46729431Y-49027004D01*
X46749626Y-49206250D01*
X46749627Y-49206255D01*
X46809207Y-49376524D01*
X46905180Y-49529263D01*
X46915237Y-49539320D01*
X46948722Y-49600643D01*
X46943738Y-49670335D01*
X46915243Y-49714676D01*
X46905183Y-49724737D01*
X46905180Y-49724740D01*
X46809205Y-49877482D01*
X46749625Y-50047751D01*
X46749624Y-50047756D01*
X46729429Y-50227002D01*
X46729429Y-50227009D01*
X46749624Y-50406255D01*
X46749625Y-50406260D01*
X46809205Y-50576529D01*
X46905178Y-50729268D01*
X46915236Y-50739326D01*
X46948721Y-50800649D01*
X46943737Y-50870341D01*
X46915242Y-50914682D01*
X46905185Y-50924740D01*
X46905182Y-50924743D01*
X46809207Y-51077485D01*
X46749627Y-51247754D01*
X46749626Y-51247759D01*
X46729431Y-51427005D01*
X46729431Y-51427012D01*
X46749626Y-51606258D01*
X46749627Y-51606263D01*
X46809207Y-51776532D01*
X46905180Y-51929271D01*
X46915233Y-51939324D01*
X46948718Y-52000647D01*
X46943734Y-52070339D01*
X46915239Y-52114680D01*
X46905185Y-52124735D01*
X46905182Y-52124738D01*
X46809207Y-52277480D01*
X46749627Y-52447749D01*
X46749626Y-52447754D01*
X46729431Y-52627000D01*
X46729431Y-52627007D01*
X46749626Y-52806253D01*
X46749627Y-52806258D01*
X46809207Y-52976527D01*
X46905180Y-53129266D01*
X46915236Y-53139322D01*
X46948721Y-53200645D01*
X46943737Y-53270337D01*
X46915236Y-53314684D01*
X46905178Y-53324741D01*
X46809205Y-53477480D01*
X46749625Y-53647749D01*
X46749624Y-53647754D01*
X46729429Y-53827000D01*
X46729429Y-53827007D01*
X46749624Y-54006253D01*
X46749625Y-54006258D01*
X46809205Y-54176527D01*
X46905178Y-54329266D01*
X46915236Y-54339324D01*
X46948721Y-54400647D01*
X46943737Y-54470339D01*
X46915242Y-54514680D01*
X46905185Y-54524738D01*
X46905182Y-54524741D01*
X46809207Y-54677483D01*
X46749627Y-54847752D01*
X46749626Y-54847757D01*
X46729431Y-55027003D01*
X46729431Y-55027010D01*
X46749626Y-55206256D01*
X46749627Y-55206261D01*
X46809207Y-55376530D01*
X46905180Y-55529269D01*
X46915236Y-55539325D01*
X46948721Y-55600648D01*
X46943737Y-55670340D01*
X46915236Y-55714687D01*
X46905178Y-55724744D01*
X46809205Y-55877483D01*
X46749625Y-56047752D01*
X46749624Y-56047757D01*
X46729429Y-56227003D01*
X46729429Y-56227010D01*
X46749624Y-56406256D01*
X46749625Y-56406261D01*
X46809205Y-56576530D01*
X46905178Y-56729269D01*
X46915233Y-56739324D01*
X46948718Y-56800647D01*
X46943734Y-56870339D01*
X46915239Y-56914680D01*
X46905185Y-56924735D01*
X46905182Y-56924738D01*
X46809207Y-57077480D01*
X46749627Y-57247749D01*
X46749626Y-57247754D01*
X46729431Y-57427000D01*
X46729431Y-57427007D01*
X46749626Y-57606253D01*
X46749627Y-57606258D01*
X46809207Y-57776527D01*
X46905180Y-57929266D01*
X46915236Y-57939322D01*
X46948721Y-58000645D01*
X46943737Y-58070337D01*
X46915242Y-58114678D01*
X46905185Y-58124736D01*
X46905182Y-58124739D01*
X46809207Y-58277481D01*
X46749627Y-58447750D01*
X46749626Y-58447755D01*
X46729431Y-58627001D01*
X46729431Y-58627008D01*
X46749626Y-58806254D01*
X46749627Y-58806259D01*
X46809207Y-58976528D01*
X46905180Y-59129267D01*
X46915238Y-59139325D01*
X46948723Y-59200648D01*
X46943739Y-59270340D01*
X46915244Y-59314681D01*
X46905185Y-59324741D01*
X46905182Y-59324744D01*
X46809207Y-59477486D01*
X46749627Y-59647755D01*
X46749626Y-59647760D01*
X46729431Y-59827006D01*
X46729431Y-59827013D01*
X46749626Y-60006259D01*
X46749627Y-60006264D01*
X46809207Y-60176533D01*
X46905180Y-60329272D01*
X46915237Y-60339329D01*
X46948722Y-60400652D01*
X46943738Y-60470344D01*
X46915237Y-60514691D01*
X46905180Y-60524747D01*
X46809207Y-60677486D01*
X46749627Y-60847755D01*
X46749626Y-60847760D01*
X46729431Y-61027006D01*
X46729431Y-61027013D01*
X46749626Y-61206259D01*
X46749627Y-61206264D01*
X46809207Y-61376533D01*
X46905180Y-61529272D01*
X46915236Y-61539328D01*
X46948721Y-61600651D01*
X46943737Y-61670343D01*
X46915236Y-61714690D01*
X46905180Y-61724745D01*
X46809207Y-61877484D01*
X46749627Y-62047753D01*
X46749626Y-62047758D01*
X46729431Y-62227004D01*
X46729431Y-62227011D01*
X46749626Y-62406257D01*
X46749627Y-62406262D01*
X46809207Y-62576531D01*
X46905180Y-62729270D01*
X46915237Y-62739327D01*
X46948722Y-62800650D01*
X46943738Y-62870342D01*
X46915237Y-62914689D01*
X46905180Y-62924745D01*
X46809207Y-63077484D01*
X46749627Y-63247753D01*
X46749626Y-63247758D01*
X46729431Y-63427004D01*
X46729431Y-63427011D01*
X46749626Y-63606257D01*
X46749627Y-63606262D01*
X46809207Y-63776531D01*
X46905180Y-63929270D01*
X46915239Y-63939329D01*
X46948724Y-64000652D01*
X46943740Y-64070344D01*
X46915245Y-64114685D01*
X46905185Y-64124746D01*
X46905182Y-64124749D01*
X46809207Y-64277491D01*
X46749627Y-64447760D01*
X46749626Y-64447765D01*
X46729431Y-64627011D01*
X46729431Y-64627018D01*
X46749626Y-64806264D01*
X46749627Y-64806269D01*
X46809207Y-64976538D01*
X46905180Y-65129277D01*
X46915236Y-65139333D01*
X46948721Y-65200656D01*
X46943737Y-65270348D01*
X46915236Y-65314695D01*
X46905180Y-65324750D01*
X46809207Y-65477489D01*
X46749627Y-65647758D01*
X46749626Y-65647763D01*
X46729431Y-65827009D01*
X46729431Y-65827016D01*
X46749626Y-66006262D01*
X46749627Y-66006267D01*
X46809207Y-66176536D01*
X46905180Y-66329275D01*
X46915235Y-66339330D01*
X46948720Y-66400653D01*
X46943736Y-66470345D01*
X46915235Y-66514692D01*
X46905178Y-66524748D01*
X46809205Y-66677487D01*
X46749625Y-66847756D01*
X46749624Y-66847761D01*
X46729429Y-67027007D01*
X46729429Y-67027014D01*
X46749624Y-67206260D01*
X46749625Y-67206265D01*
X46809205Y-67376534D01*
X46905178Y-67529273D01*
X46915237Y-67539332D01*
X46948722Y-67600655D01*
X46943738Y-67670347D01*
X46915237Y-67714694D01*
X46905180Y-67724750D01*
X46809207Y-67877489D01*
X46749627Y-68047758D01*
X46749626Y-68047763D01*
X46729431Y-68227009D01*
X46729431Y-68227016D01*
X46749626Y-68406262D01*
X46749627Y-68406267D01*
X46809207Y-68576536D01*
X46905180Y-68729275D01*
X46915237Y-68739332D01*
X46948722Y-68800655D01*
X46943738Y-68870347D01*
X46915243Y-68914688D01*
X46905185Y-68924747D01*
X46905182Y-68924750D01*
X46809207Y-69077492D01*
X46749627Y-69247761D01*
X46749626Y-69247766D01*
X46729431Y-69427012D01*
X46729431Y-69427019D01*
X46749626Y-69606265D01*
X46749627Y-69606270D01*
X46809207Y-69776539D01*
X46905180Y-69929278D01*
X46915236Y-69939334D01*
X46948721Y-70000657D01*
X46943737Y-70070349D01*
X46915236Y-70114696D01*
X46905178Y-70124753D01*
X46809205Y-70277492D01*
X46749625Y-70447761D01*
X46749624Y-70447766D01*
X46729429Y-70627012D01*
X46729429Y-70627019D01*
X46749624Y-70806265D01*
X46749625Y-70806270D01*
X46809205Y-70976539D01*
X46905178Y-71129278D01*
X46915235Y-71139335D01*
X46948720Y-71200658D01*
X46943736Y-71270350D01*
X46915235Y-71314697D01*
X46905180Y-71324751D01*
X46809207Y-71477490D01*
X46749627Y-71647759D01*
X46749626Y-71647764D01*
X46729431Y-71827010D01*
X46729431Y-71827017D01*
X46749626Y-72006263D01*
X46749627Y-72006268D01*
X46809207Y-72176537D01*
X46905180Y-72329276D01*
X46915237Y-72339333D01*
X46948722Y-72400656D01*
X46943738Y-72470348D01*
X46915237Y-72514695D01*
X46905180Y-72524751D01*
X46809207Y-72677490D01*
X46749627Y-72847759D01*
X46749626Y-72847764D01*
X46729431Y-73027010D01*
X46729431Y-73027017D01*
X46749626Y-73206263D01*
X46749627Y-73206268D01*
X46809207Y-73376537D01*
X46893719Y-73511036D01*
X46912719Y-73578273D01*
X46893719Y-73642980D01*
X46809207Y-73777478D01*
X46749627Y-73947747D01*
X46749626Y-73947752D01*
X46729431Y-74126998D01*
X46729431Y-74127005D01*
X46749626Y-74306251D01*
X46749627Y-74306256D01*
X46809207Y-74476525D01*
X46905180Y-74629264D01*
X46915236Y-74639320D01*
X46948721Y-74700643D01*
X46943737Y-74770335D01*
X46915236Y-74814682D01*
X46905178Y-74824739D01*
X46809205Y-74977478D01*
X46749625Y-75147747D01*
X46749624Y-75147752D01*
X46729429Y-75326998D01*
X46729429Y-75327005D01*
X46749624Y-75506251D01*
X46749625Y-75506256D01*
X46809205Y-75676525D01*
X46905178Y-75829264D01*
X46915236Y-75839322D01*
X46948721Y-75900645D01*
X46943737Y-75970337D01*
X46915236Y-76014684D01*
X46905180Y-76024739D01*
X46809207Y-76177478D01*
X46749627Y-76347747D01*
X46749626Y-76347752D01*
X46729431Y-76526998D01*
X46729431Y-76527005D01*
X46749626Y-76706251D01*
X46749627Y-76706256D01*
X46809207Y-76876525D01*
X46905180Y-77029264D01*
X46915234Y-77039318D01*
X46948719Y-77100641D01*
X46943735Y-77170333D01*
X46915240Y-77214674D01*
X46905185Y-77224730D01*
X46905182Y-77224733D01*
X46809207Y-77377475D01*
X46749627Y-77547744D01*
X46749626Y-77547749D01*
X46729431Y-77726995D01*
X46729431Y-77727002D01*
X46749626Y-77906248D01*
X46749627Y-77906253D01*
X46809207Y-78076522D01*
X46905180Y-78229261D01*
X46915235Y-78239316D01*
X46948720Y-78300639D01*
X46943736Y-78370331D01*
X46915241Y-78414672D01*
X46905183Y-78424731D01*
X46905180Y-78424734D01*
X46809205Y-78577476D01*
X46749625Y-78747745D01*
X46749624Y-78747750D01*
X46729429Y-78926996D01*
X46729429Y-78927003D01*
X46749624Y-79106249D01*
X46749625Y-79106254D01*
X46809205Y-79276523D01*
X46874225Y-79380001D01*
X46905178Y-79429262D01*
X47032732Y-79556816D01*
X47185472Y-79652789D01*
X47274617Y-79683981D01*
X47321343Y-79713342D01*
X47334999Y-79726998D01*
X47478624Y-79726998D01*
X47492508Y-79727778D01*
X47534992Y-79732565D01*
X47534994Y-79732565D01*
X47534996Y-79732565D01*
X47577480Y-79727778D01*
X47591364Y-79726998D01*
X48868907Y-79726998D01*
X48935946Y-79746683D01*
X48981701Y-79799487D01*
X48985948Y-79810042D01*
X49009211Y-79876524D01*
X49009212Y-79876525D01*
X49068095Y-79970236D01*
X49105184Y-80029263D01*
X49232738Y-80156817D01*
X49323080Y-80213583D01*
X49385471Y-80252786D01*
X49385478Y-80252790D01*
X49446213Y-80274042D01*
X49555745Y-80312369D01*
X49555750Y-80312370D01*
X49734996Y-80332566D01*
X49735000Y-80332566D01*
X49735004Y-80332566D01*
X49914249Y-80312370D01*
X49914251Y-80312369D01*
X49914255Y-80312369D01*
X49914258Y-80312367D01*
X49914262Y-80312367D01*
X50091095Y-80250490D01*
X50091846Y-80252638D01*
X50150128Y-80243035D01*
X50178590Y-80251389D01*
X50178906Y-80250487D01*
X50355746Y-80312366D01*
X50355751Y-80312367D01*
X50534997Y-80332563D01*
X50535001Y-80332563D01*
X50535005Y-80332563D01*
X50714250Y-80312367D01*
X50714253Y-80312366D01*
X50714256Y-80312366D01*
X50884523Y-80252787D01*
X51037263Y-80156814D01*
X51164817Y-80029260D01*
X51260790Y-79876520D01*
X51284051Y-79810043D01*
X51324771Y-79753268D01*
X51389723Y-79727520D01*
X51401092Y-79726998D01*
X56368902Y-79726998D01*
X56435941Y-79746683D01*
X56481696Y-79799487D01*
X56485941Y-79810036D01*
X56509206Y-79876523D01*
X56509207Y-79876525D01*
X56568090Y-79970236D01*
X56605179Y-80029263D01*
X56732733Y-80156817D01*
X56823075Y-80213583D01*
X56885466Y-80252786D01*
X56885473Y-80252790D01*
X56946208Y-80274042D01*
X57055740Y-80312369D01*
X57055745Y-80312370D01*
X57234991Y-80332566D01*
X57234995Y-80332566D01*
X57234999Y-80332566D01*
X57414244Y-80312370D01*
X57414246Y-80312369D01*
X57414250Y-80312369D01*
X57414253Y-80312367D01*
X57414257Y-80312367D01*
X57591090Y-80250490D01*
X57591842Y-80252641D01*
X57650105Y-80243034D01*
X57678586Y-80251393D01*
X57678902Y-80250491D01*
X57855733Y-80312367D01*
X57855739Y-80312368D01*
X57855741Y-80312369D01*
X57855742Y-80312369D01*
X57855746Y-80312370D01*
X58034992Y-80332566D01*
X58034996Y-80332566D01*
X58035000Y-80332566D01*
X58214245Y-80312370D01*
X58214247Y-80312369D01*
X58214251Y-80312369D01*
X58214254Y-80312367D01*
X58214258Y-80312367D01*
X58391091Y-80250490D01*
X58391843Y-80252641D01*
X58450106Y-80243034D01*
X58478587Y-80251393D01*
X58478903Y-80250491D01*
X58655734Y-80312367D01*
X58655740Y-80312368D01*
X58655742Y-80312369D01*
X58655743Y-80312369D01*
X58655747Y-80312370D01*
X58834993Y-80332566D01*
X58834997Y-80332566D01*
X58835001Y-80332566D01*
X59014246Y-80312370D01*
X59014249Y-80312369D01*
X59014252Y-80312369D01*
X59184519Y-80252790D01*
X59184519Y-80252789D01*
X59191092Y-80250490D01*
X59191845Y-80252642D01*
X59250107Y-80243035D01*
X59278582Y-80251396D01*
X59278900Y-80250490D01*
X59285472Y-80252789D01*
X59285473Y-80252790D01*
X59329329Y-80268136D01*
X59455740Y-80312369D01*
X59455745Y-80312370D01*
X59634991Y-80332566D01*
X59634995Y-80332566D01*
X59634999Y-80332566D01*
X59814244Y-80312370D01*
X59814246Y-80312369D01*
X59814250Y-80312369D01*
X59814253Y-80312367D01*
X59814257Y-80312367D01*
X59991090Y-80250490D01*
X59991842Y-80252641D01*
X60050105Y-80243034D01*
X60078582Y-80251393D01*
X60078899Y-80250490D01*
X60255731Y-80312367D01*
X60255737Y-80312368D01*
X60255739Y-80312369D01*
X60255740Y-80312369D01*
X60255744Y-80312370D01*
X60434990Y-80332566D01*
X60434994Y-80332566D01*
X60434998Y-80332566D01*
X60614243Y-80312370D01*
X60614245Y-80312369D01*
X60614249Y-80312369D01*
X60614252Y-80312367D01*
X60614256Y-80312367D01*
X60791089Y-80250490D01*
X60791840Y-80252637D01*
X60850123Y-80243034D01*
X60878586Y-80251391D01*
X60878903Y-80250488D01*
X61055734Y-80312364D01*
X61055740Y-80312365D01*
X61055742Y-80312366D01*
X61055743Y-80312366D01*
X61055747Y-80312367D01*
X61234993Y-80332563D01*
X61234997Y-80332563D01*
X61235001Y-80332563D01*
X61414246Y-80312367D01*
X61414248Y-80312366D01*
X61414252Y-80312366D01*
X61414255Y-80312364D01*
X61414259Y-80312364D01*
X61591092Y-80250487D01*
X61591846Y-80252642D01*
X61650088Y-80243032D01*
X61678583Y-80251394D01*
X61678900Y-80250490D01*
X61685472Y-80252789D01*
X61685473Y-80252790D01*
X61729329Y-80268136D01*
X61855740Y-80312369D01*
X61855745Y-80312370D01*
X62034991Y-80332566D01*
X62034995Y-80332566D01*
X62034999Y-80332566D01*
X62214244Y-80312370D01*
X62214246Y-80312369D01*
X62214250Y-80312369D01*
X62214253Y-80312367D01*
X62214257Y-80312367D01*
X62391090Y-80250490D01*
X62391842Y-80252641D01*
X62450105Y-80243034D01*
X62478586Y-80251393D01*
X62478902Y-80250491D01*
X62655733Y-80312367D01*
X62655739Y-80312368D01*
X62655741Y-80312369D01*
X62655742Y-80312369D01*
X62655746Y-80312370D01*
X62834992Y-80332566D01*
X62834996Y-80332566D01*
X62835000Y-80332566D01*
X63014245Y-80312370D01*
X63014247Y-80312369D01*
X63014251Y-80312369D01*
X63014254Y-80312367D01*
X63014258Y-80312367D01*
X63191091Y-80250490D01*
X63191843Y-80252641D01*
X63250106Y-80243034D01*
X63278583Y-80251393D01*
X63278900Y-80250490D01*
X63455732Y-80312367D01*
X63455738Y-80312368D01*
X63455740Y-80312369D01*
X63455741Y-80312369D01*
X63455745Y-80312370D01*
X63634991Y-80332566D01*
X63634995Y-80332566D01*
X63634999Y-80332566D01*
X63814244Y-80312370D01*
X63814246Y-80312369D01*
X63814250Y-80312369D01*
X63814253Y-80312367D01*
X63814257Y-80312367D01*
X63991090Y-80250490D01*
X63991842Y-80252641D01*
X64050105Y-80243034D01*
X64078586Y-80251393D01*
X64078902Y-80250491D01*
X64255733Y-80312367D01*
X64255739Y-80312368D01*
X64255741Y-80312369D01*
X64255742Y-80312369D01*
X64255746Y-80312370D01*
X64434992Y-80332566D01*
X64434996Y-80332566D01*
X64435000Y-80332566D01*
X64614245Y-80312370D01*
X64614247Y-80312369D01*
X64614251Y-80312369D01*
X64614254Y-80312367D01*
X64614258Y-80312367D01*
X64791091Y-80250490D01*
X64791843Y-80252641D01*
X64850106Y-80243034D01*
X64878587Y-80251393D01*
X64878903Y-80250491D01*
X65055734Y-80312367D01*
X65055740Y-80312368D01*
X65055742Y-80312369D01*
X65055743Y-80312369D01*
X65055747Y-80312370D01*
X65234993Y-80332566D01*
X65234997Y-80332566D01*
X65235001Y-80332566D01*
X65414246Y-80312370D01*
X65414249Y-80312369D01*
X65414252Y-80312369D01*
X65584519Y-80252790D01*
X65584519Y-80252789D01*
X65591092Y-80250490D01*
X65591845Y-80252642D01*
X65650107Y-80243035D01*
X65678582Y-80251396D01*
X65678900Y-80250490D01*
X65685472Y-80252789D01*
X65685473Y-80252790D01*
X65729329Y-80268136D01*
X65855740Y-80312369D01*
X65855745Y-80312370D01*
X66034991Y-80332566D01*
X66034995Y-80332566D01*
X66034999Y-80332566D01*
X66214244Y-80312370D01*
X66214246Y-80312369D01*
X66214250Y-80312369D01*
X66214253Y-80312367D01*
X66214257Y-80312367D01*
X66391090Y-80250490D01*
X66391842Y-80252641D01*
X66450105Y-80243034D01*
X66478586Y-80251393D01*
X66478902Y-80250491D01*
X66655733Y-80312367D01*
X66655739Y-80312368D01*
X66655741Y-80312369D01*
X66655742Y-80312369D01*
X66655746Y-80312370D01*
X66834992Y-80332566D01*
X66834996Y-80332566D01*
X66835000Y-80332566D01*
X67014245Y-80312370D01*
X67014248Y-80312369D01*
X67014251Y-80312369D01*
X67184518Y-80252790D01*
X67184518Y-80252789D01*
X67191091Y-80250490D01*
X67191844Y-80252642D01*
X67250106Y-80243035D01*
X67278581Y-80251396D01*
X67278899Y-80250490D01*
X67285471Y-80252789D01*
X67285472Y-80252790D01*
X67329328Y-80268136D01*
X67455739Y-80312369D01*
X67455744Y-80312370D01*
X67634990Y-80332566D01*
X67634994Y-80332566D01*
X67634998Y-80332566D01*
X67814243Y-80312370D01*
X67814245Y-80312369D01*
X67814249Y-80312369D01*
X67814252Y-80312367D01*
X67814256Y-80312367D01*
X67991089Y-80250490D01*
X67991841Y-80252641D01*
X68050104Y-80243034D01*
X68078585Y-80251393D01*
X68078901Y-80250491D01*
X68255732Y-80312367D01*
X68255738Y-80312368D01*
X68255740Y-80312369D01*
X68255741Y-80312369D01*
X68255745Y-80312370D01*
X68434991Y-80332566D01*
X68434995Y-80332566D01*
X68434999Y-80332566D01*
X68614244Y-80312370D01*
X68614246Y-80312369D01*
X68614250Y-80312369D01*
X68614253Y-80312367D01*
X68614257Y-80312367D01*
X68791090Y-80250490D01*
X68791842Y-80252641D01*
X68850105Y-80243034D01*
X68878586Y-80251393D01*
X68878902Y-80250491D01*
X69055733Y-80312367D01*
X69055739Y-80312368D01*
X69055741Y-80312369D01*
X69055742Y-80312369D01*
X69055746Y-80312370D01*
X69234992Y-80332566D01*
X69234996Y-80332566D01*
X69235000Y-80332566D01*
X69414245Y-80312370D01*
X69414247Y-80312369D01*
X69414251Y-80312369D01*
X69414254Y-80312367D01*
X69414258Y-80312367D01*
X69591091Y-80250490D01*
X69591842Y-80252638D01*
X69650124Y-80243035D01*
X69678584Y-80251391D01*
X69678901Y-80250488D01*
X69855732Y-80312364D01*
X69855738Y-80312365D01*
X69855740Y-80312366D01*
X69855741Y-80312366D01*
X69855745Y-80312367D01*
X70034991Y-80332563D01*
X70034995Y-80332563D01*
X70034999Y-80332563D01*
X70214244Y-80312367D01*
X70214246Y-80312366D01*
X70214250Y-80312366D01*
X70214253Y-80312364D01*
X70214257Y-80312364D01*
X70391090Y-80250487D01*
X70391842Y-80252638D01*
X70450105Y-80243031D01*
X70478586Y-80251390D01*
X70478902Y-80250488D01*
X70655733Y-80312364D01*
X70655739Y-80312365D01*
X70655741Y-80312366D01*
X70655742Y-80312366D01*
X70655746Y-80312367D01*
X70834992Y-80332563D01*
X70834996Y-80332563D01*
X70835000Y-80332563D01*
X71014245Y-80312367D01*
X71014247Y-80312366D01*
X71014251Y-80312366D01*
X71014254Y-80312364D01*
X71014258Y-80312364D01*
X71191091Y-80250487D01*
X71191844Y-80252639D01*
X71250106Y-80243032D01*
X71278586Y-80251393D01*
X71278902Y-80250490D01*
X71455734Y-80312367D01*
X71455740Y-80312368D01*
X71455742Y-80312369D01*
X71455743Y-80312369D01*
X71455747Y-80312370D01*
X71634993Y-80332566D01*
X71634997Y-80332566D01*
X71635001Y-80332566D01*
X71814246Y-80312370D01*
X71814249Y-80312369D01*
X71814252Y-80312369D01*
X71984519Y-80252790D01*
X71984519Y-80252789D01*
X71991092Y-80250490D01*
X71991845Y-80252642D01*
X72050107Y-80243035D01*
X72078582Y-80251396D01*
X72078900Y-80250490D01*
X72085472Y-80252789D01*
X72085473Y-80252790D01*
X72129329Y-80268136D01*
X72255740Y-80312369D01*
X72255745Y-80312370D01*
X72434991Y-80332566D01*
X72434995Y-80332566D01*
X72434999Y-80332566D01*
X72614244Y-80312370D01*
X72614246Y-80312369D01*
X72614250Y-80312369D01*
X72614253Y-80312367D01*
X72614257Y-80312367D01*
X72791090Y-80250490D01*
X72791842Y-80252641D01*
X72850105Y-80243034D01*
X72878586Y-80251393D01*
X72878902Y-80250491D01*
X73055733Y-80312367D01*
X73055739Y-80312368D01*
X73055741Y-80312369D01*
X73055742Y-80312369D01*
X73055746Y-80312370D01*
X73234992Y-80332566D01*
X73234996Y-80332566D01*
X73235000Y-80332566D01*
X73414245Y-80312370D01*
X73414247Y-80312369D01*
X73414251Y-80312369D01*
X73414254Y-80312367D01*
X73414258Y-80312367D01*
X73591091Y-80250490D01*
X73591843Y-80252641D01*
X73650107Y-80243033D01*
X73678581Y-80251393D01*
X73678899Y-80250487D01*
X73855739Y-80312366D01*
X73855744Y-80312367D01*
X74034990Y-80332563D01*
X74034994Y-80332563D01*
X74034998Y-80332563D01*
X74214243Y-80312367D01*
X74214245Y-80312366D01*
X74214249Y-80312366D01*
X74214252Y-80312364D01*
X74214256Y-80312364D01*
X74391089Y-80250487D01*
X74391841Y-80252638D01*
X74450104Y-80243031D01*
X74478585Y-80251390D01*
X74478901Y-80250488D01*
X74655732Y-80312364D01*
X74655738Y-80312365D01*
X74655740Y-80312366D01*
X74655741Y-80312366D01*
X74655745Y-80312367D01*
X74834991Y-80332563D01*
X74834995Y-80332563D01*
X74834999Y-80332563D01*
X75014244Y-80312367D01*
X75014246Y-80312366D01*
X75014250Y-80312366D01*
X75014253Y-80312364D01*
X75014257Y-80312364D01*
X75191090Y-80250487D01*
X75191842Y-80252638D01*
X75250105Y-80243031D01*
X75278586Y-80251390D01*
X75278902Y-80250488D01*
X75455733Y-80312364D01*
X75455739Y-80312365D01*
X75455741Y-80312366D01*
X75455742Y-80312366D01*
X75455746Y-80312367D01*
X75634992Y-80332563D01*
X75634996Y-80332563D01*
X75635000Y-80332563D01*
X75814245Y-80312367D01*
X75814248Y-80312366D01*
X75814251Y-80312366D01*
X75984518Y-80252787D01*
X75984518Y-80252786D01*
X75991091Y-80250487D01*
X75991845Y-80252643D01*
X76050088Y-80243031D01*
X76078582Y-80251396D01*
X76078900Y-80250490D01*
X76085472Y-80252789D01*
X76085473Y-80252790D01*
X76129329Y-80268136D01*
X76255740Y-80312369D01*
X76255745Y-80312370D01*
X76434991Y-80332566D01*
X76434995Y-80332566D01*
X76434999Y-80332566D01*
X76614244Y-80312370D01*
X76614246Y-80312369D01*
X76614250Y-80312369D01*
X76614253Y-80312367D01*
X76614257Y-80312367D01*
X76791090Y-80250490D01*
X76791842Y-80252641D01*
X76850105Y-80243034D01*
X76878586Y-80251393D01*
X76878902Y-80250491D01*
X77055733Y-80312367D01*
X77055739Y-80312368D01*
X77055741Y-80312369D01*
X77055742Y-80312369D01*
X77055746Y-80312370D01*
X77234992Y-80332566D01*
X77234996Y-80332566D01*
X77235000Y-80332566D01*
X77414245Y-80312370D01*
X77414247Y-80312369D01*
X77414251Y-80312369D01*
X77414254Y-80312367D01*
X77414258Y-80312367D01*
X77591091Y-80250490D01*
X77591842Y-80252638D01*
X77650124Y-80243036D01*
X77678584Y-80251393D01*
X77678901Y-80250490D01*
X77855733Y-80312367D01*
X77855739Y-80312368D01*
X77855741Y-80312369D01*
X77855742Y-80312369D01*
X77855746Y-80312370D01*
X78034992Y-80332566D01*
X78034996Y-80332566D01*
X78035000Y-80332566D01*
X78214245Y-80312370D01*
X78214247Y-80312369D01*
X78214251Y-80312369D01*
X78214254Y-80312367D01*
X78214258Y-80312367D01*
X78391091Y-80250490D01*
X78391843Y-80252639D01*
X78450123Y-80243037D01*
X78478580Y-80251393D01*
X78478897Y-80250490D01*
X78655729Y-80312367D01*
X78655735Y-80312368D01*
X78655737Y-80312369D01*
X78655738Y-80312369D01*
X78655742Y-80312370D01*
X78834988Y-80332566D01*
X78834992Y-80332566D01*
X78834996Y-80332566D01*
X79014241Y-80312370D01*
X79014243Y-80312369D01*
X79014247Y-80312369D01*
X79014250Y-80312367D01*
X79014254Y-80312367D01*
X79191087Y-80250490D01*
X79191839Y-80252640D01*
X79250105Y-80243031D01*
X79278584Y-80251392D01*
X79278901Y-80250487D01*
X79455733Y-80312364D01*
X79455739Y-80312365D01*
X79455741Y-80312366D01*
X79455742Y-80312366D01*
X79455746Y-80312367D01*
X79634992Y-80332563D01*
X79634996Y-80332563D01*
X79635000Y-80332563D01*
X79814245Y-80312367D01*
X79814247Y-80312366D01*
X79814251Y-80312366D01*
X79814254Y-80312364D01*
X79814258Y-80312364D01*
X79991091Y-80250487D01*
X79991843Y-80252638D01*
X80050106Y-80243031D01*
X80078587Y-80251390D01*
X80078903Y-80250488D01*
X80255734Y-80312364D01*
X80255740Y-80312365D01*
X80255742Y-80312366D01*
X80255743Y-80312366D01*
X80255747Y-80312367D01*
X80434993Y-80332563D01*
X80434997Y-80332563D01*
X80435001Y-80332563D01*
X80614246Y-80312367D01*
X80614248Y-80312366D01*
X80614252Y-80312366D01*
X80614255Y-80312364D01*
X80614259Y-80312364D01*
X80791092Y-80250487D01*
X80791846Y-80252642D01*
X80850088Y-80243032D01*
X80878583Y-80251394D01*
X80878900Y-80250490D01*
X80885472Y-80252789D01*
X80885473Y-80252790D01*
X80929329Y-80268136D01*
X81055740Y-80312369D01*
X81055745Y-80312370D01*
X81234991Y-80332566D01*
X81234995Y-80332566D01*
X81234999Y-80332566D01*
X81414244Y-80312370D01*
X81414246Y-80312369D01*
X81414250Y-80312369D01*
X81414253Y-80312367D01*
X81414257Y-80312367D01*
X81591090Y-80250490D01*
X81591842Y-80252641D01*
X81650105Y-80243034D01*
X81678586Y-80251393D01*
X81678902Y-80250491D01*
X81855733Y-80312367D01*
X81855739Y-80312368D01*
X81855741Y-80312369D01*
X81855742Y-80312369D01*
X81855746Y-80312370D01*
X82034992Y-80332566D01*
X82034996Y-80332566D01*
X82035000Y-80332566D01*
X82214245Y-80312370D01*
X82214247Y-80312369D01*
X82214251Y-80312369D01*
X82214254Y-80312367D01*
X82214258Y-80312367D01*
X82391091Y-80250490D01*
X82391843Y-80252641D01*
X82450106Y-80243034D01*
X82478587Y-80251393D01*
X82478903Y-80250491D01*
X82655734Y-80312367D01*
X82655740Y-80312368D01*
X82655742Y-80312369D01*
X82655743Y-80312369D01*
X82655747Y-80312370D01*
X82834993Y-80332566D01*
X82834997Y-80332566D01*
X82835001Y-80332566D01*
X83014246Y-80312370D01*
X83014249Y-80312369D01*
X83014252Y-80312369D01*
X83184519Y-80252790D01*
X83184519Y-80252789D01*
X83191092Y-80250490D01*
X83191845Y-80252642D01*
X83250107Y-80243035D01*
X83278582Y-80251396D01*
X83278900Y-80250490D01*
X83285472Y-80252789D01*
X83285473Y-80252790D01*
X83329329Y-80268136D01*
X83455740Y-80312369D01*
X83455745Y-80312370D01*
X83634991Y-80332566D01*
X83634995Y-80332566D01*
X83634999Y-80332566D01*
X83814244Y-80312370D01*
X83814246Y-80312369D01*
X83814250Y-80312369D01*
X83814253Y-80312367D01*
X83814257Y-80312367D01*
X83991090Y-80250490D01*
X83991842Y-80252641D01*
X84050105Y-80243034D01*
X84078586Y-80251393D01*
X84078902Y-80250491D01*
X84255733Y-80312367D01*
X84255739Y-80312368D01*
X84255741Y-80312369D01*
X84255742Y-80312369D01*
X84255746Y-80312370D01*
X84434992Y-80332566D01*
X84434996Y-80332566D01*
X84435000Y-80332566D01*
X84614245Y-80312370D01*
X84614248Y-80312369D01*
X84614251Y-80312369D01*
X84784518Y-80252790D01*
X84937258Y-80156817D01*
X85064812Y-80029263D01*
X85160785Y-79876523D01*
X85184046Y-79810045D01*
X85224768Y-79753270D01*
X85289720Y-79727522D01*
X85301088Y-79727000D01*
X86168907Y-79727000D01*
X86235946Y-79746685D01*
X86281701Y-79799489D01*
X86285948Y-79810045D01*
X86309209Y-79876521D01*
X86309211Y-79876525D01*
X86368094Y-79970236D01*
X86405183Y-80029263D01*
X86532737Y-80156817D01*
X86623079Y-80213583D01*
X86685470Y-80252786D01*
X86685477Y-80252790D01*
X86746212Y-80274042D01*
X86855744Y-80312369D01*
X86855749Y-80312370D01*
X87034995Y-80332566D01*
X87034999Y-80332566D01*
X87035003Y-80332566D01*
X87214248Y-80312370D01*
X87214251Y-80312369D01*
X87214254Y-80312369D01*
X87384521Y-80252790D01*
X87537261Y-80156817D01*
X87664815Y-80029263D01*
X87701905Y-79970234D01*
X95221500Y-79970234D01*
X95221500Y-80121765D01*
X95260719Y-80268136D01*
X95286258Y-80312370D01*
X95336485Y-80399365D01*
X95443635Y-80506515D01*
X95574865Y-80582281D01*
X95721234Y-80621500D01*
X95721236Y-80621500D01*
X95872764Y-80621500D01*
X95872766Y-80621500D01*
X96019135Y-80582281D01*
X96150365Y-80506515D01*
X96257515Y-80399365D01*
X96333281Y-80268135D01*
X96372500Y-80121766D01*
X96372500Y-79970234D01*
X96333281Y-79823865D01*
X96257515Y-79692635D01*
X96150365Y-79585485D01*
X96084750Y-79547602D01*
X96019136Y-79509719D01*
X95945950Y-79490109D01*
X95872766Y-79470500D01*
X95721234Y-79470500D01*
X95574863Y-79509719D01*
X95443635Y-79585485D01*
X95443632Y-79585487D01*
X95336487Y-79692632D01*
X95336485Y-79692635D01*
X95260719Y-79823863D01*
X95221500Y-79970234D01*
X87701905Y-79970234D01*
X87760788Y-79876523D01*
X87820367Y-79706256D01*
X87820496Y-79705110D01*
X87840564Y-79527004D01*
X87840564Y-79526997D01*
X87820368Y-79347751D01*
X87820365Y-79347738D01*
X87758489Y-79170907D01*
X87760634Y-79170156D01*
X87751038Y-79111858D01*
X87759392Y-79083413D01*
X87758490Y-79083098D01*
X87820367Y-78906265D01*
X87820370Y-78906252D01*
X87840566Y-78727006D01*
X87840566Y-78726999D01*
X87820370Y-78547753D01*
X87820367Y-78547740D01*
X87758491Y-78370909D01*
X87760636Y-78370158D01*
X87751038Y-78311858D01*
X87759394Y-78283413D01*
X87758490Y-78283097D01*
X87820367Y-78106264D01*
X87820370Y-78106251D01*
X87840566Y-77927005D01*
X87840566Y-77926998D01*
X87820370Y-77747752D01*
X87820369Y-77747747D01*
X87758490Y-77570907D01*
X87760636Y-77570155D01*
X87751038Y-77511856D01*
X87759391Y-77483413D01*
X87758488Y-77483098D01*
X87820365Y-77306265D01*
X87820368Y-77306252D01*
X87840564Y-77127006D01*
X87840564Y-77126999D01*
X87820368Y-76947753D01*
X87820365Y-76947740D01*
X87758489Y-76770909D01*
X87760634Y-76770158D01*
X87751036Y-76711858D01*
X87759392Y-76683413D01*
X87758488Y-76683097D01*
X87820365Y-76506264D01*
X87820368Y-76506251D01*
X87840564Y-76327005D01*
X87840564Y-76326998D01*
X87820368Y-76147752D01*
X87820365Y-76147739D01*
X87758489Y-75970908D01*
X87760634Y-75970157D01*
X87751036Y-75911857D01*
X87759392Y-75883412D01*
X87758488Y-75883096D01*
X87820365Y-75706263D01*
X87820368Y-75706250D01*
X87840564Y-75527004D01*
X87840564Y-75526997D01*
X87820368Y-75347751D01*
X87820367Y-75347746D01*
X87758488Y-75170906D01*
X87760640Y-75170152D01*
X87751033Y-75111891D01*
X87759394Y-75083415D01*
X87758488Y-75083098D01*
X87817181Y-74915362D01*
X87820367Y-74906258D01*
X87820368Y-74906252D01*
X87840564Y-74727006D01*
X87840564Y-74726999D01*
X87820368Y-74547753D01*
X87820367Y-74547748D01*
X87758488Y-74370908D01*
X87760634Y-74370156D01*
X87751038Y-74311859D01*
X87759393Y-74283413D01*
X87758490Y-74283097D01*
X87820369Y-74106256D01*
X87820370Y-74106251D01*
X87840566Y-73927005D01*
X87840566Y-73926998D01*
X87820370Y-73747752D01*
X87820367Y-73747739D01*
X87758491Y-73570908D01*
X87760639Y-73570156D01*
X87751036Y-73511875D01*
X87759394Y-73483416D01*
X87758488Y-73483099D01*
X87766270Y-73460858D01*
X87820367Y-73306259D01*
X87820368Y-73306253D01*
X87840564Y-73127007D01*
X87840564Y-73127000D01*
X87820368Y-72947754D01*
X87820365Y-72947741D01*
X87758489Y-72770910D01*
X87760634Y-72770159D01*
X87751036Y-72711859D01*
X87759392Y-72683414D01*
X87758488Y-72683098D01*
X87820365Y-72506265D01*
X87820368Y-72506252D01*
X87840564Y-72327006D01*
X87840564Y-72326999D01*
X87820368Y-72147753D01*
X87820365Y-72147740D01*
X87758489Y-71970909D01*
X87760634Y-71970158D01*
X87751036Y-71911858D01*
X87759392Y-71883413D01*
X87758488Y-71883097D01*
X87820365Y-71706264D01*
X87820368Y-71706251D01*
X87840564Y-71527005D01*
X87840564Y-71526998D01*
X87820368Y-71347752D01*
X87820365Y-71347739D01*
X87758489Y-71170908D01*
X87760634Y-71170157D01*
X87751036Y-71111857D01*
X87759392Y-71083412D01*
X87758488Y-71083096D01*
X87820365Y-70906263D01*
X87820368Y-70906250D01*
X87840564Y-70727004D01*
X87840564Y-70726997D01*
X87820368Y-70547751D01*
X87820365Y-70547738D01*
X87758488Y-70370906D01*
X87760636Y-70370154D01*
X87751034Y-70311873D01*
X87759392Y-70283413D01*
X87758488Y-70283097D01*
X87820365Y-70106264D01*
X87820368Y-70106251D01*
X87840564Y-69927005D01*
X87840564Y-69926998D01*
X87820368Y-69747752D01*
X87820365Y-69747739D01*
X87758489Y-69570908D01*
X87760634Y-69570157D01*
X87751036Y-69511857D01*
X87759392Y-69483412D01*
X87758488Y-69483096D01*
X87820365Y-69306263D01*
X87820368Y-69306250D01*
X87840564Y-69127004D01*
X87840564Y-69126997D01*
X87820368Y-68947751D01*
X87820367Y-68947746D01*
X87758488Y-68770906D01*
X87760634Y-68770154D01*
X87751038Y-68711857D01*
X87759393Y-68683411D01*
X87758490Y-68683095D01*
X87778722Y-68625275D01*
X87820369Y-68506255D01*
X87820370Y-68506249D01*
X87840566Y-68327003D01*
X87840566Y-68326996D01*
X87820370Y-68147750D01*
X87820367Y-68147737D01*
X87758490Y-67970905D01*
X87760638Y-67970153D01*
X87751036Y-67911872D01*
X87759393Y-67883411D01*
X87758490Y-67883095D01*
X87820367Y-67706262D01*
X87820370Y-67706249D01*
X87840566Y-67527003D01*
X87840566Y-67526996D01*
X87820370Y-67347750D01*
X87820369Y-67347745D01*
X87758490Y-67170905D01*
X87760636Y-67170153D01*
X87751038Y-67111854D01*
X87759391Y-67083411D01*
X87758488Y-67083096D01*
X87820365Y-66906263D01*
X87820368Y-66906250D01*
X87840564Y-66727004D01*
X87840564Y-66726997D01*
X87820368Y-66547751D01*
X87820365Y-66547738D01*
X87758489Y-66370907D01*
X87760634Y-66370156D01*
X87751036Y-66311856D01*
X87759392Y-66283411D01*
X87758488Y-66283095D01*
X87820365Y-66106262D01*
X87820368Y-66106249D01*
X87840564Y-65927003D01*
X87840564Y-65926996D01*
X87820368Y-65747750D01*
X87820367Y-65747745D01*
X87758488Y-65570905D01*
X87760640Y-65570151D01*
X87751033Y-65511890D01*
X87759394Y-65483414D01*
X87758488Y-65483097D01*
X87784410Y-65409017D01*
X87820367Y-65306257D01*
X87820554Y-65304596D01*
X87840564Y-65127005D01*
X87840564Y-65126998D01*
X87820368Y-64947752D01*
X87820365Y-64947739D01*
X87758489Y-64770908D01*
X87760634Y-64770157D01*
X87751036Y-64711857D01*
X87759392Y-64683412D01*
X87758488Y-64683096D01*
X87820365Y-64506263D01*
X87820368Y-64506250D01*
X87840564Y-64327004D01*
X87840564Y-64326997D01*
X87820368Y-64147751D01*
X87820365Y-64147738D01*
X87758488Y-63970906D01*
X87760637Y-63970153D01*
X87751035Y-63911874D01*
X87759394Y-63883413D01*
X87758490Y-63883097D01*
X87820367Y-63706264D01*
X87820370Y-63706251D01*
X87840566Y-63527005D01*
X87840566Y-63526998D01*
X87820370Y-63347752D01*
X87820367Y-63347739D01*
X87758491Y-63170908D01*
X87760638Y-63170156D01*
X87751035Y-63111874D01*
X87759391Y-63083412D01*
X87758488Y-63083096D01*
X87820365Y-62906263D01*
X87820368Y-62906250D01*
X87840564Y-62727004D01*
X87840564Y-62726997D01*
X87820368Y-62547751D01*
X87820365Y-62547738D01*
X87758488Y-62370906D01*
X87760636Y-62370154D01*
X87751034Y-62311873D01*
X87759391Y-62283412D01*
X87758488Y-62283096D01*
X87820365Y-62106263D01*
X87820368Y-62106250D01*
X87840564Y-61927004D01*
X87840564Y-61926997D01*
X87820368Y-61747751D01*
X87820367Y-61747746D01*
X87798803Y-61686120D01*
X87760788Y-61577479D01*
X87664815Y-61424739D01*
X87537261Y-61297185D01*
X87448846Y-61241630D01*
X87384523Y-61201213D01*
X87384519Y-61201211D01*
X87318043Y-61177950D01*
X87261267Y-61137228D01*
X87235520Y-61072276D01*
X87234998Y-61060909D01*
X87234998Y-58939002D01*
X90632006Y-58939002D01*
X90632006Y-75264004D01*
X100757003Y-75264004D01*
X100757004Y-75264004D01*
X100782006Y-75239003D01*
X100782006Y-58889002D01*
X99357007Y-57464004D01*
X92057006Y-57464004D01*
X90632006Y-58939002D01*
X87234998Y-58939002D01*
X87234998Y-57293093D01*
X87254683Y-57226054D01*
X87307487Y-57180299D01*
X87318044Y-57176051D01*
X87384521Y-57152790D01*
X87537261Y-57056817D01*
X87664815Y-56929263D01*
X87760788Y-56776523D01*
X87820367Y-56606256D01*
X87820368Y-56606250D01*
X87840564Y-56427004D01*
X87840564Y-56426997D01*
X87820368Y-56247751D01*
X87820365Y-56247738D01*
X87758489Y-56070907D01*
X87760634Y-56070156D01*
X87751036Y-56011856D01*
X87759392Y-55983411D01*
X87758488Y-55983095D01*
X87820365Y-55806262D01*
X87820368Y-55806249D01*
X87840564Y-55627003D01*
X87840564Y-55626996D01*
X87820368Y-55447750D01*
X87820367Y-55447745D01*
X87758488Y-55270905D01*
X87760640Y-55270151D01*
X87751033Y-55211890D01*
X87759394Y-55183414D01*
X87758488Y-55183097D01*
X87813106Y-55027007D01*
X87820367Y-55006257D01*
X87823320Y-54980047D01*
X87840564Y-54827005D01*
X87840564Y-54826998D01*
X87820368Y-54647752D01*
X87820367Y-54647747D01*
X87758488Y-54470907D01*
X87760640Y-54470153D01*
X87751033Y-54411892D01*
X87759394Y-54383416D01*
X87758488Y-54383099D01*
X87771036Y-54347238D01*
X87820367Y-54206259D01*
X87820368Y-54206253D01*
X87840564Y-54027007D01*
X87840564Y-54027000D01*
X87820368Y-53847754D01*
X87820365Y-53847741D01*
X87758488Y-53670909D01*
X87760636Y-53670157D01*
X87751034Y-53611876D01*
X87759392Y-53583416D01*
X87758488Y-53583100D01*
X87820365Y-53406267D01*
X87820368Y-53406254D01*
X87840564Y-53227008D01*
X87840564Y-53227001D01*
X87820368Y-53047755D01*
X87820367Y-53047750D01*
X87760787Y-52877481D01*
X87664814Y-52724742D01*
X87537261Y-52597189D01*
X87384523Y-52501217D01*
X87384519Y-52501215D01*
X87318043Y-52477954D01*
X87261267Y-52437232D01*
X87235520Y-52372280D01*
X87234998Y-52360913D01*
X87234998Y-46293093D01*
X87254683Y-46226054D01*
X87307487Y-46180299D01*
X87318044Y-46176051D01*
X87384521Y-46152790D01*
X87537261Y-46056817D01*
X87664815Y-45929263D01*
X87760788Y-45776523D01*
X87820367Y-45606256D01*
X87820367Y-45606253D01*
X87820368Y-45606250D01*
X87840564Y-45427004D01*
X87840564Y-45426997D01*
X87820368Y-45247751D01*
X87820365Y-45247738D01*
X87758488Y-45070906D01*
X87760636Y-45070154D01*
X87751034Y-45011873D01*
X87759392Y-44983413D01*
X87758488Y-44983097D01*
X87820365Y-44806264D01*
X87820368Y-44806251D01*
X87840564Y-44627005D01*
X87840564Y-44626998D01*
X87820368Y-44447752D01*
X87820367Y-44447747D01*
X87758488Y-44270907D01*
X87760640Y-44270153D01*
X87751033Y-44211892D01*
X87759394Y-44183416D01*
X87758488Y-44183099D01*
X87820367Y-44006258D01*
X87820368Y-44006253D01*
X87840564Y-43827007D01*
X87840564Y-43827000D01*
X87820368Y-43647754D01*
X87820367Y-43647749D01*
X87760787Y-43477480D01*
X87697349Y-43376520D01*
X87664815Y-43324742D01*
X87537261Y-43197188D01*
X87489642Y-43167267D01*
X87384523Y-43101216D01*
X87384519Y-43101214D01*
X87318043Y-43077953D01*
X87261267Y-43037231D01*
X87235520Y-42972279D01*
X87234998Y-42960912D01*
X87234998Y-38693092D01*
X87254683Y-38626053D01*
X87307487Y-38580298D01*
X87318044Y-38576050D01*
X87384521Y-38552789D01*
X87537261Y-38456816D01*
X87664815Y-38329262D01*
X87760788Y-38176522D01*
X87820367Y-38006255D01*
X87832242Y-37900861D01*
X87840564Y-37827003D01*
X87840564Y-37826996D01*
X87820368Y-37647750D01*
X87820367Y-37647745D01*
X87773309Y-37513261D01*
X87760788Y-37477478D01*
X87738264Y-37441632D01*
X87668478Y-37330568D01*
X87664815Y-37324738D01*
X87537261Y-37197184D01*
X87537258Y-37197182D01*
X87384522Y-37101211D01*
X87214253Y-37041631D01*
X87214248Y-37041630D01*
X87035003Y-37021435D01*
X87034995Y-37021435D01*
X86855749Y-37041630D01*
X86855744Y-37041631D01*
X86685475Y-37101211D01*
X86532736Y-37197184D01*
X86405183Y-37324737D01*
X86309210Y-37477476D01*
X86285950Y-37543952D01*
X86245228Y-37600728D01*
X86180276Y-37626476D01*
X86168908Y-37626998D01*
X76201090Y-37626998D01*
X76134051Y-37607313D01*
X76088296Y-37554509D01*
X76084048Y-37543952D01*
X76060787Y-37477476D01*
X75968478Y-37330568D01*
X75964815Y-37324738D01*
X75837261Y-37197184D01*
X75837258Y-37197182D01*
X75684522Y-37101211D01*
X75514253Y-37041631D01*
X75514248Y-37041630D01*
X75335003Y-37021435D01*
X75334995Y-37021435D01*
X75155749Y-37041630D01*
X75155736Y-37041633D01*
X74978905Y-37103510D01*
X74978155Y-37101366D01*
X74919838Y-37110960D01*
X74891406Y-37102609D01*
X74891092Y-37103510D01*
X74714260Y-37041633D01*
X74714247Y-37041630D01*
X74535002Y-37021435D01*
X74534994Y-37021435D01*
X74355748Y-37041630D01*
X74355743Y-37041631D01*
X74185474Y-37101211D01*
X74032735Y-37197184D01*
X73905182Y-37324737D01*
X73809209Y-37477476D01*
X73785949Y-37543952D01*
X73745227Y-37600728D01*
X73680275Y-37626476D01*
X73668907Y-37626998D01*
X72301085Y-37626998D01*
X72234046Y-37607313D01*
X72188291Y-37554509D01*
X72184043Y-37543952D01*
X72160782Y-37477476D01*
X72068473Y-37330568D01*
X72064810Y-37324738D01*
X71937256Y-37197184D01*
X71937253Y-37197182D01*
X71784517Y-37101211D01*
X71614248Y-37041631D01*
X71614243Y-37041630D01*
X71434998Y-37021435D01*
X71434990Y-37021435D01*
X71255744Y-37041630D01*
X71255739Y-37041631D01*
X71085468Y-37101212D01*
X71000966Y-37154308D01*
X70933730Y-37173308D01*
X70869024Y-37154308D01*
X70784521Y-37101212D01*
X70614250Y-37041631D01*
X70614245Y-37041630D01*
X70435000Y-37021435D01*
X70434992Y-37021435D01*
X70255746Y-37041630D01*
X70255733Y-37041633D01*
X70085475Y-37101209D01*
X70000967Y-37154309D01*
X69933730Y-37173309D01*
X69869025Y-37154309D01*
X69784516Y-37101209D01*
X69614258Y-37041633D01*
X69614245Y-37041630D01*
X69435000Y-37021435D01*
X69434992Y-37021435D01*
X69255746Y-37041630D01*
X69255741Y-37041631D01*
X69085470Y-37101212D01*
X69000968Y-37154308D01*
X68933732Y-37173308D01*
X68869026Y-37154308D01*
X68784523Y-37101212D01*
X68614252Y-37041631D01*
X68614247Y-37041630D01*
X68435002Y-37021435D01*
X68434994Y-37021435D01*
X68255748Y-37041630D01*
X68255735Y-37041633D01*
X68085479Y-37101209D01*
X68085470Y-37101213D01*
X68000968Y-37154309D01*
X67933731Y-37173309D01*
X67869025Y-37154309D01*
X67784520Y-37101211D01*
X67614251Y-37041631D01*
X67614246Y-37041630D01*
X67435001Y-37021435D01*
X67434993Y-37021435D01*
X67255747Y-37041630D01*
X67255734Y-37041633D01*
X67085476Y-37101209D01*
X67000968Y-37154309D01*
X66933731Y-37173309D01*
X66869026Y-37154309D01*
X66784517Y-37101209D01*
X66614259Y-37041633D01*
X66614246Y-37041630D01*
X66435001Y-37021435D01*
X66434993Y-37021435D01*
X66255747Y-37041630D01*
X66255742Y-37041631D01*
X66085471Y-37101212D01*
X66000969Y-37154308D01*
X65933733Y-37173308D01*
X65869027Y-37154308D01*
X65784524Y-37101212D01*
X65614253Y-37041631D01*
X65614248Y-37041630D01*
X65435003Y-37021435D01*
X65434995Y-37021435D01*
X65255749Y-37041630D01*
X65255736Y-37041633D01*
X65085480Y-37101209D01*
X65085471Y-37101213D01*
X65000969Y-37154309D01*
X64933732Y-37173309D01*
X64869026Y-37154309D01*
X64784521Y-37101211D01*
X64614252Y-37041631D01*
X64614247Y-37041630D01*
X64435002Y-37021435D01*
X64434994Y-37021435D01*
X64255748Y-37041630D01*
X64255743Y-37041631D01*
X64085474Y-37101211D01*
X63932735Y-37197184D01*
X63805182Y-37324737D01*
X63709209Y-37477476D01*
X63685949Y-37543952D01*
X63645227Y-37600728D01*
X63580275Y-37626476D01*
X63568907Y-37626998D01*
X58301093Y-37626998D01*
X58234054Y-37607313D01*
X58188299Y-37554509D01*
X58184051Y-37543952D01*
X58160790Y-37477476D01*
X58068481Y-37330568D01*
X58064818Y-37324738D01*
X57937264Y-37197184D01*
X57937261Y-37197182D01*
X57784525Y-37101211D01*
X57614256Y-37041631D01*
X57614251Y-37041630D01*
X57435006Y-37021435D01*
X57434998Y-37021435D01*
X57255752Y-37041630D01*
X57255747Y-37041631D01*
X57085478Y-37101211D01*
X56932739Y-37197184D01*
X56805186Y-37324737D01*
X56709213Y-37477476D01*
X56685953Y-37543952D01*
X56645231Y-37600728D01*
X56580279Y-37626476D01*
X56568911Y-37626998D01*
X51901092Y-37626998D01*
X51834053Y-37607313D01*
X51788298Y-37554509D01*
X51784050Y-37543952D01*
X51760789Y-37477476D01*
X51756710Y-37470984D01*
X51664816Y-37324736D01*
X51537262Y-37197182D01*
X51535002Y-37195762D01*
X51384523Y-37101209D01*
X51214254Y-37041629D01*
X51214249Y-37041628D01*
X51035004Y-37021433D01*
X51034996Y-37021433D01*
X50855750Y-37041628D01*
X50855737Y-37041631D01*
X50685481Y-37101207D01*
X50685472Y-37101211D01*
X50600970Y-37154307D01*
X50533733Y-37173307D01*
X50469027Y-37154307D01*
X50384522Y-37101209D01*
X50214253Y-37041629D01*
X50214248Y-37041628D01*
X50035003Y-37021433D01*
X50034995Y-37021433D01*
X49855749Y-37041628D01*
X49855744Y-37041629D01*
X49685475Y-37101209D01*
X49532736Y-37197182D01*
X49405183Y-37324735D01*
X49309209Y-37477476D01*
X49285949Y-37543952D01*
X49245227Y-37600728D01*
X49180275Y-37626476D01*
X49168907Y-37626998D01*
X48118033Y-37626998D01*
X48050994Y-37607313D01*
X48040721Y-37599946D01*
X48037257Y-37597183D01*
X47884519Y-37501211D01*
X47714250Y-37441631D01*
X47714245Y-37441630D01*
X47535000Y-37421435D01*
X47534992Y-37421435D01*
X47355746Y-37441630D01*
X47355741Y-37441631D01*
X47185472Y-37501211D01*
X47032733Y-37597184D01*
X46905180Y-37724737D01*
X46809207Y-37877476D01*
X46749627Y-38047745D01*
X46749626Y-38047750D01*
X46729431Y-38226996D01*
X46729431Y-38227003D01*
X46749626Y-38406249D01*
X46749627Y-38406254D01*
X46809207Y-38576523D01*
X46827169Y-38605109D01*
X46905180Y-38729262D01*
X47032734Y-38856816D01*
X47185474Y-38952789D01*
X47251954Y-38976051D01*
X47308730Y-39016773D01*
X47334477Y-39081726D01*
X47334999Y-39093093D01*
X47334999Y-39760907D01*
X47315314Y-39827946D01*
X47262510Y-39873701D01*
X47251955Y-39877948D01*
X47185472Y-39901211D01*
X47185471Y-39901212D01*
X47032733Y-39997184D01*
X46905180Y-40124737D01*
X46809207Y-40277476D01*
X46749627Y-40447745D01*
X46749626Y-40447750D01*
X46729431Y-40626996D01*
X46729431Y-40627003D01*
X46749626Y-40806249D01*
X46749627Y-40806254D01*
X46809207Y-40976523D01*
X46905180Y-41129262D01*
X46915237Y-41139319D01*
X46948722Y-41200642D01*
X46943738Y-41270334D01*
X46915237Y-41314681D01*
X46905180Y-41324737D01*
X46809207Y-41477476D01*
X46749627Y-41647745D01*
X46749626Y-41647750D01*
X46729431Y-41826996D01*
X46729431Y-41827003D01*
X46749626Y-42006249D01*
X46749627Y-42006254D01*
X46809207Y-42176523D01*
X46905180Y-42329262D01*
X46915236Y-42339318D01*
X46948721Y-42400641D01*
X46943737Y-42470333D01*
X46915236Y-42514680D01*
X46905180Y-42524735D01*
X46809207Y-42677474D01*
X46749627Y-42847743D01*
X46749626Y-42847748D01*
X46729431Y-43026994D01*
X46729431Y-43027001D01*
X46749626Y-43206247D01*
X46749627Y-43206252D01*
X46809207Y-43376521D01*
X46905180Y-43529260D01*
X46915237Y-43539317D01*
X46948722Y-43600640D01*
X46943738Y-43670332D01*
X46915237Y-43714679D01*
X46905180Y-43724735D01*
X46809207Y-43877474D01*
X46749627Y-44047743D01*
X46749626Y-44047748D01*
X46729431Y-44226994D01*
X46729431Y-44227001D01*
X46749626Y-44406247D01*
X46749627Y-44406252D01*
X46809207Y-44576521D01*
X46905180Y-44729260D01*
X46915238Y-44739318D01*
X46948723Y-44800641D01*
X46943739Y-44870333D01*
X46915244Y-44914674D01*
X46905185Y-44924734D01*
X46905182Y-44924737D01*
X46809207Y-45077479D01*
X46749627Y-45247748D01*
X46749626Y-45247753D01*
X46729431Y-45426999D01*
X46729431Y-45427006D01*
X46749626Y-45606252D01*
X46749627Y-45606257D01*
X46809207Y-45776526D01*
X46905180Y-45929265D01*
X46915237Y-45939322D01*
X46948722Y-46000645D01*
X46943738Y-46070337D01*
X46915237Y-46114684D01*
X46905180Y-46124740D01*
X46809207Y-46277479D01*
X46749627Y-46447748D01*
X46749626Y-46447753D01*
X46729431Y-46626999D01*
X46729431Y-46627006D01*
X46749626Y-46806252D01*
X46749627Y-46806257D01*
X46809207Y-46976526D01*
X46905180Y-47129265D01*
X46915235Y-47139320D01*
X46948720Y-47200643D01*
X46943736Y-47270335D01*
X46915235Y-47314682D01*
X46905178Y-47324738D01*
X46809205Y-47477477D01*
X46749625Y-47647746D01*
X46749624Y-47647751D01*
X46729429Y-47826997D01*
X39116733Y-47826997D01*
X39164784Y-47750525D01*
X39224363Y-47580258D01*
X39224364Y-47580252D01*
X39244560Y-47401006D01*
X39244560Y-47400999D01*
X39224364Y-47221753D01*
X39224363Y-47221748D01*
X39164783Y-47051479D01*
X39103988Y-46954725D01*
X39068811Y-46898741D01*
X38941257Y-46771187D01*
X38788518Y-46675214D01*
X38618249Y-46615634D01*
X38618244Y-46615633D01*
X38438999Y-46595438D01*
X38438991Y-46595438D01*
X38259745Y-46615633D01*
X38259740Y-46615634D01*
X38089471Y-46675214D01*
X37936731Y-46771188D01*
X37933276Y-46773944D01*
X37868590Y-46800355D01*
X37855960Y-46801000D01*
X30322030Y-46801000D01*
X30254991Y-46781315D01*
X30244714Y-46773944D01*
X30241258Y-46771188D01*
X30241257Y-46771187D01*
X30184491Y-46735518D01*
X30088518Y-46675214D01*
X29918249Y-46615634D01*
X29918244Y-46615633D01*
X29738999Y-46595438D01*
X29738991Y-46595438D01*
X29559745Y-46615633D01*
X29559740Y-46615634D01*
X29389471Y-46675214D01*
X29236732Y-46771187D01*
X29109179Y-46898740D01*
X29013206Y-47051479D01*
X28953626Y-47221748D01*
X28953625Y-47221753D01*
X28933430Y-47400999D01*
X28933430Y-47401006D01*
X28953625Y-47580252D01*
X28953628Y-47580265D01*
X29013204Y-47750522D01*
X29034888Y-47785033D01*
X29053887Y-47852270D01*
X29034888Y-47916973D01*
X29013204Y-47951483D01*
X28953628Y-48121740D01*
X28953625Y-48121753D01*
X28933430Y-48300999D01*
X28933430Y-48301006D01*
X28953625Y-48480252D01*
X28953626Y-48480257D01*
X29013206Y-48650526D01*
X29030141Y-48677477D01*
X29109179Y-48803265D01*
X29236733Y-48930819D01*
X29389473Y-49026792D01*
X29455949Y-49050053D01*
X29512725Y-49090775D01*
X29538473Y-49155727D01*
X29538995Y-49167095D01*
X29538995Y-49901003D01*
X37855958Y-49901003D01*
X37922997Y-49920688D01*
X37933270Y-49928055D01*
X37936732Y-49930816D01*
X37936733Y-49930817D01*
X38089473Y-50026790D01*
X38249995Y-50082959D01*
X38306771Y-50123681D01*
X38332518Y-50188634D01*
X38319062Y-50257195D01*
X38270675Y-50307598D01*
X38209040Y-50324001D01*
X29766125Y-50324001D01*
X29766118Y-50324002D01*
X29706511Y-50330409D01*
X29571666Y-50380703D01*
X29571659Y-50380707D01*
X29456450Y-50466953D01*
X29456447Y-50466956D01*
X29370201Y-50582165D01*
X29370197Y-50582172D01*
X29319903Y-50717018D01*
X29313496Y-50776617D01*
X29313495Y-50776636D01*
X29313495Y-57057371D01*
X29313496Y-57057377D01*
X29319903Y-57116984D01*
X29370197Y-57251829D01*
X29370199Y-57251832D01*
X29402732Y-57295290D01*
X29427150Y-57360754D01*
X29420508Y-57410557D01*
X29378626Y-57530246D01*
X29378625Y-57530251D01*
X29358430Y-57709497D01*
X29358430Y-57709504D01*
X29378625Y-57888750D01*
X29378628Y-57888763D01*
X29438204Y-58059021D01*
X29491304Y-58143530D01*
X29510304Y-58210767D01*
X29491304Y-58275472D01*
X29438204Y-58359980D01*
X29378628Y-58530238D01*
X29378625Y-58530251D01*
X29358430Y-58709497D01*
X29358430Y-58709504D01*
X29378625Y-58888750D01*
X29378627Y-58888758D01*
X29420507Y-59008445D01*
X29424068Y-59078224D01*
X29402733Y-59123708D01*
X29370200Y-59167166D01*
X29370197Y-59167172D01*
X29319903Y-59302018D01*
X29313496Y-59361617D01*
X29313495Y-59361636D01*
X29313495Y-60572370D01*
X29313496Y-60572377D01*
X29319903Y-60631984D01*
X29370197Y-60766829D01*
X29370201Y-60766836D01*
X29456447Y-60882045D01*
X29456450Y-60882048D01*
X29571659Y-60968294D01*
X29571666Y-60968298D01*
X29661811Y-61001920D01*
X29717745Y-61043791D01*
X29742162Y-61109255D01*
X29727310Y-61177528D01*
X29677905Y-61226934D01*
X29609633Y-61241786D01*
X29607671Y-61241630D01*
X29563000Y-61237722D01*
X29562996Y-61237722D01*
X29417680Y-61250435D01*
X29345021Y-61256792D01*
X29345018Y-61256792D01*
X29133675Y-61313421D01*
X29133668Y-61313423D01*
X29133668Y-61313424D01*
X29108629Y-61325099D01*
X28935359Y-61405897D01*
X28935355Y-61405899D01*
X28756119Y-61531401D01*
X28601400Y-61686120D01*
X28475898Y-61865356D01*
X28475896Y-61865360D01*
X28383424Y-62063667D01*
X28383420Y-62063676D01*
X28326791Y-62275019D01*
X28326791Y-62275023D01*
X28307721Y-62492996D01*
X21832190Y-62492996D01*
X21886047Y-62439139D01*
X22016568Y-62252734D01*
X22112739Y-62046496D01*
X22171635Y-61826692D01*
X22191468Y-61600000D01*
X22189497Y-61577477D01*
X22185280Y-61529272D01*
X22171635Y-61373308D01*
X22112739Y-61153504D01*
X22016568Y-60947266D01*
X21886047Y-60760861D01*
X21886045Y-60760858D01*
X21725141Y-60599954D01*
X21538734Y-60469432D01*
X21538728Y-60469429D01*
X21480725Y-60442382D01*
X21428285Y-60396210D01*
X21409133Y-60329017D01*
X21429348Y-60262135D01*
X21480725Y-60217618D01*
X21538734Y-60190568D01*
X21725139Y-60060047D01*
X21886047Y-59899139D01*
X22016568Y-59712734D01*
X22112739Y-59506496D01*
X22171635Y-59286692D01*
X22191468Y-59060000D01*
X22171635Y-58833308D01*
X22116357Y-58627005D01*
X22112741Y-58613511D01*
X22112738Y-58613502D01*
X22016568Y-58407267D01*
X22016567Y-58407265D01*
X21983457Y-58359979D01*
X21886047Y-58220861D01*
X21886045Y-58220858D01*
X21725141Y-58059954D01*
X21538734Y-57929432D01*
X21538728Y-57929429D01*
X21480725Y-57902382D01*
X21428285Y-57856210D01*
X21409133Y-57789017D01*
X21429348Y-57722135D01*
X21480725Y-57677618D01*
X21538734Y-57650568D01*
X21725139Y-57520047D01*
X21886047Y-57359139D01*
X22016568Y-57172734D01*
X22112739Y-56966496D01*
X22171635Y-56746692D01*
X22191468Y-56520000D01*
X22171635Y-56293308D01*
X22112739Y-56073504D01*
X22016568Y-55867266D01*
X21886047Y-55680861D01*
X21886045Y-55680858D01*
X21725141Y-55519954D01*
X21538734Y-55389432D01*
X21538728Y-55389429D01*
X21480725Y-55362382D01*
X21428285Y-55316210D01*
X21409133Y-55249017D01*
X21429348Y-55182135D01*
X21480725Y-55137618D01*
X21488216Y-55134125D01*
X21538734Y-55110568D01*
X21725139Y-54980047D01*
X21886047Y-54819139D01*
X22016568Y-54632734D01*
X22112739Y-54426496D01*
X22171635Y-54206692D01*
X22191468Y-53980000D01*
X22171635Y-53753308D01*
X22112739Y-53533504D01*
X22016568Y-53327266D01*
X21886047Y-53140861D01*
X21886045Y-53140858D01*
X21725141Y-52979954D01*
X21538734Y-52849432D01*
X21538728Y-52849429D01*
X21480725Y-52822382D01*
X21428285Y-52776210D01*
X21409133Y-52709017D01*
X21429348Y-52642135D01*
X21480725Y-52597618D01*
X21481645Y-52597189D01*
X21538734Y-52570568D01*
X21725139Y-52440047D01*
X21886047Y-52279139D01*
X22016568Y-52092734D01*
X22112739Y-51886496D01*
X22171635Y-51666692D01*
X22191468Y-51440000D01*
X22190331Y-51427009D01*
X22185801Y-51375230D01*
X22171635Y-51213308D01*
X22112739Y-50993504D01*
X22016568Y-50787266D01*
X21886047Y-50600861D01*
X21886045Y-50600858D01*
X21725141Y-50439954D01*
X21538734Y-50309432D01*
X21538728Y-50309429D01*
X21480725Y-50282382D01*
X21428285Y-50236210D01*
X21409133Y-50169017D01*
X21429348Y-50102135D01*
X21480725Y-50057618D01*
X21501874Y-50047756D01*
X21538734Y-50030568D01*
X21725139Y-49900047D01*
X21886047Y-49739139D01*
X22016568Y-49552734D01*
X22112739Y-49346496D01*
X22171635Y-49126692D01*
X22191468Y-48900000D01*
X22171635Y-48673308D01*
X22112739Y-48453504D01*
X22016568Y-48247266D01*
X21886047Y-48060861D01*
X21886045Y-48060858D01*
X21725141Y-47899954D01*
X21538734Y-47769432D01*
X21538728Y-47769429D01*
X21498188Y-47750525D01*
X21480724Y-47742381D01*
X21428285Y-47696210D01*
X21409133Y-47629017D01*
X21429348Y-47562135D01*
X21480725Y-47517618D01*
X21538734Y-47490568D01*
X21725139Y-47360047D01*
X21886047Y-47199139D01*
X22016568Y-47012734D01*
X22112739Y-46806496D01*
X22171635Y-46586692D01*
X22191468Y-46360000D01*
X22171635Y-46133308D01*
X22112739Y-45913504D01*
X22016568Y-45707266D01*
X21886047Y-45520861D01*
X21886045Y-45520858D01*
X21725141Y-45359954D01*
X21538734Y-45229432D01*
X21538728Y-45229429D01*
X21480725Y-45202382D01*
X21428285Y-45156210D01*
X21409133Y-45089017D01*
X21429348Y-45022135D01*
X21480725Y-44977618D01*
X21538734Y-44950568D01*
X21725139Y-44820047D01*
X21886047Y-44659139D01*
X22016568Y-44472734D01*
X22112739Y-44266496D01*
X22171635Y-44046692D01*
X22191468Y-43820000D01*
X22171635Y-43593308D01*
X22126916Y-43426415D01*
X22112741Y-43373511D01*
X22112738Y-43373502D01*
X22034748Y-43206253D01*
X22016568Y-43167266D01*
X21886047Y-42980861D01*
X21886045Y-42980858D01*
X21725141Y-42819954D01*
X21538734Y-42689432D01*
X21538728Y-42689429D01*
X21480725Y-42662382D01*
X21428285Y-42616210D01*
X21409133Y-42549017D01*
X21429348Y-42482135D01*
X21480725Y-42437618D01*
X21538734Y-42410568D01*
X21725139Y-42280047D01*
X21886047Y-42119139D01*
X22016568Y-41932734D01*
X22112739Y-41726496D01*
X22171635Y-41506692D01*
X22191468Y-41280000D01*
X22171635Y-41053308D01*
X22112739Y-40833504D01*
X22016568Y-40627266D01*
X21886047Y-40440861D01*
X21886045Y-40440858D01*
X21725141Y-40279954D01*
X21538734Y-40149432D01*
X21538728Y-40149429D01*
X21485778Y-40124738D01*
X21480724Y-40122381D01*
X21428285Y-40076210D01*
X21409133Y-40009017D01*
X21429348Y-39942135D01*
X21480725Y-39897618D01*
X21538734Y-39870568D01*
X21725139Y-39740047D01*
X21886047Y-39579139D01*
X22016568Y-39392734D01*
X22112739Y-39186496D01*
X22171635Y-38966692D01*
X22191468Y-38740000D01*
X22171635Y-38513308D01*
X22112739Y-38293504D01*
X22016568Y-38087266D01*
X21886047Y-37900861D01*
X21886045Y-37900858D01*
X21725141Y-37739954D01*
X21538734Y-37609432D01*
X21538728Y-37609429D01*
X21480725Y-37582382D01*
X21428285Y-37536210D01*
X21409133Y-37469017D01*
X21429348Y-37402135D01*
X21480725Y-37357618D01*
X21538734Y-37330568D01*
X21725139Y-37200047D01*
X21886047Y-37039139D01*
X22016568Y-36852734D01*
X22112739Y-36646496D01*
X22171635Y-36426692D01*
X22191468Y-36200000D01*
X22171635Y-35973308D01*
X22112739Y-35753504D01*
X22016568Y-35547266D01*
X21886047Y-35360861D01*
X21886045Y-35360858D01*
X21725141Y-35199954D01*
X21538734Y-35069432D01*
X21538732Y-35069431D01*
X21332497Y-34973261D01*
X21332488Y-34973258D01*
X21112697Y-34914366D01*
X21112693Y-34914365D01*
X21112692Y-34914365D01*
X21112691Y-34914364D01*
X21112686Y-34914364D01*
X20886002Y-34894532D01*
X20885998Y-34894532D01*
X20659313Y-34914364D01*
X20659302Y-34914366D01*
X20439511Y-34973258D01*
X20439502Y-34973261D01*
X20233267Y-35069431D01*
X20233265Y-35069432D01*
X20046858Y-35199954D01*
X19885954Y-35360858D01*
X19755432Y-35547265D01*
X19755431Y-35547267D01*
X19728382Y-35605275D01*
X19682209Y-35657714D01*
X19615016Y-35676866D01*
X19548135Y-35656650D01*
X19503618Y-35605275D01*
X19476568Y-35547267D01*
X19476567Y-35547265D01*
X19346045Y-35360858D01*
X19185141Y-35199954D01*
X18998734Y-35069432D01*
X18998732Y-35069431D01*
X18792497Y-34973261D01*
X18792488Y-34973258D01*
X18572697Y-34914366D01*
X18572693Y-34914365D01*
X18572692Y-34914365D01*
X18572691Y-34914364D01*
X18572686Y-34914364D01*
X18346002Y-34894532D01*
X18345998Y-34894532D01*
X18119313Y-34914364D01*
X18119302Y-34914366D01*
X17899511Y-34973258D01*
X17899502Y-34973261D01*
X17693267Y-35069431D01*
X17693265Y-35069432D01*
X17506858Y-35199954D01*
X17345954Y-35360858D01*
X17215432Y-35547265D01*
X17215431Y-35547267D01*
X17119261Y-35753502D01*
X17119258Y-35753511D01*
X17060366Y-35973302D01*
X17060364Y-35973313D01*
X17040532Y-36199998D01*
X13601468Y-36199998D01*
X13581635Y-35973308D01*
X13522739Y-35753504D01*
X13426568Y-35547266D01*
X13296047Y-35360861D01*
X13296045Y-35360858D01*
X13135141Y-35199954D01*
X12948734Y-35069432D01*
X12948732Y-35069431D01*
X12742497Y-34973261D01*
X12742488Y-34973258D01*
X12522697Y-34914366D01*
X12522693Y-34914365D01*
X12522692Y-34914365D01*
X12522691Y-34914364D01*
X12522686Y-34914364D01*
X12296002Y-34894532D01*
X12295998Y-34894532D01*
X12069313Y-34914364D01*
X12069302Y-34914366D01*
X11849511Y-34973258D01*
X11849502Y-34973261D01*
X11643267Y-35069431D01*
X11643265Y-35069432D01*
X11456858Y-35199954D01*
X11295954Y-35360858D01*
X11165432Y-35547265D01*
X11165431Y-35547267D01*
X11138382Y-35605275D01*
X11092209Y-35657714D01*
X11025016Y-35676866D01*
X10958135Y-35656650D01*
X10913618Y-35605275D01*
X10886568Y-35547267D01*
X10886567Y-35547265D01*
X10756045Y-35360858D01*
X10595141Y-35199954D01*
X10408734Y-35069432D01*
X10408732Y-35069431D01*
X10202497Y-34973261D01*
X10202488Y-34973258D01*
X9982697Y-34914366D01*
X9982693Y-34914365D01*
X9982692Y-34914365D01*
X9982691Y-34914364D01*
X9982686Y-34914364D01*
X9756002Y-34894532D01*
X9755998Y-34894532D01*
X9529313Y-34914364D01*
X9529302Y-34914366D01*
X9309511Y-34973258D01*
X9309502Y-34973261D01*
X9103267Y-35069431D01*
X9103265Y-35069432D01*
X8916858Y-35199954D01*
X8755954Y-35360858D01*
X8625432Y-35547265D01*
X8625431Y-35547267D01*
X8529261Y-35753502D01*
X8529258Y-35753511D01*
X8470366Y-35973302D01*
X8470364Y-35973313D01*
X8450532Y-36199998D01*
X500500Y-36199998D01*
X500500Y-28299994D01*
X11250859Y-28299994D01*
X11250859Y-28300005D01*
X11271385Y-28547729D01*
X11271387Y-28547738D01*
X11332412Y-28788717D01*
X11432266Y-29016364D01*
X11532564Y-29169882D01*
X12078421Y-28624024D01*
X12091359Y-28655258D01*
X12173437Y-28778097D01*
X12277903Y-28882563D01*
X12400742Y-28964641D01*
X12431974Y-28977577D01*
X11885942Y-29523609D01*
X11932768Y-29560055D01*
X11932770Y-29560056D01*
X12151385Y-29678364D01*
X12151396Y-29678369D01*
X12386506Y-29759083D01*
X12631707Y-29800000D01*
X12880293Y-29800000D01*
X13125493Y-29759083D01*
X13360603Y-29678369D01*
X13360614Y-29678364D01*
X13579228Y-29560057D01*
X13579231Y-29560055D01*
X13626056Y-29523609D01*
X13080025Y-28977578D01*
X13111258Y-28964641D01*
X13234097Y-28882563D01*
X13338563Y-28778097D01*
X13420641Y-28655258D01*
X13433578Y-28624025D01*
X13979434Y-29169882D01*
X14079731Y-29016369D01*
X14179587Y-28788717D01*
X14240612Y-28547738D01*
X14240614Y-28547729D01*
X14261141Y-28300005D01*
X14261141Y-28299994D01*
X19380357Y-28299994D01*
X19380357Y-28300005D01*
X19400890Y-28547812D01*
X19400892Y-28547824D01*
X19461936Y-28788881D01*
X19561826Y-29016606D01*
X19697833Y-29224782D01*
X19697836Y-29224785D01*
X19866256Y-29407738D01*
X20062491Y-29560474D01*
X20062493Y-29560475D01*
X20280332Y-29678364D01*
X20281190Y-29678828D01*
X20500141Y-29753994D01*
X20514964Y-29759083D01*
X20516386Y-29759571D01*
X20761665Y-29800500D01*
X21010335Y-29800500D01*
X21255614Y-29759571D01*
X21490810Y-29678828D01*
X21709509Y-29560474D01*
X21905744Y-29407738D01*
X22074164Y-29224785D01*
X22210173Y-29016607D01*
X22310063Y-28788881D01*
X22371108Y-28547821D01*
X22371116Y-28547729D01*
X22391643Y-28300005D01*
X22391643Y-28299994D01*
X22371109Y-28052187D01*
X22371107Y-28052175D01*
X22310063Y-27811118D01*
X22210173Y-27583393D01*
X22074166Y-27375217D01*
X22052557Y-27351744D01*
X21905744Y-27192262D01*
X21709509Y-27039526D01*
X21709507Y-27039525D01*
X21709506Y-27039524D01*
X21490811Y-26921172D01*
X21490802Y-26921169D01*
X21255616Y-26840429D01*
X21010335Y-26799500D01*
X20761665Y-26799500D01*
X20516383Y-26840429D01*
X20281197Y-26921169D01*
X20281188Y-26921172D01*
X20062493Y-27039524D01*
X19866257Y-27192261D01*
X19697833Y-27375217D01*
X19561826Y-27583393D01*
X19461936Y-27811118D01*
X19400892Y-28052175D01*
X19400890Y-28052187D01*
X19380357Y-28299994D01*
X14261141Y-28299994D01*
X14240614Y-28052270D01*
X14240612Y-28052261D01*
X14179587Y-27811282D01*
X14079731Y-27583630D01*
X13979434Y-27430116D01*
X13433577Y-27975973D01*
X13420641Y-27944742D01*
X13338563Y-27821903D01*
X13234097Y-27717437D01*
X13111258Y-27635359D01*
X13080025Y-27622421D01*
X13626057Y-27076390D01*
X13626056Y-27076389D01*
X13579229Y-27039943D01*
X13360614Y-26921635D01*
X13360603Y-26921630D01*
X13125493Y-26840916D01*
X12880293Y-26800000D01*
X12631707Y-26800000D01*
X12386506Y-26840916D01*
X12151396Y-26921630D01*
X12151390Y-26921632D01*
X11932761Y-27039949D01*
X11885942Y-27076388D01*
X11885942Y-27076390D01*
X12431974Y-27622421D01*
X12400742Y-27635359D01*
X12277903Y-27717437D01*
X12173437Y-27821903D01*
X12091359Y-27944742D01*
X12078422Y-27975974D01*
X11532564Y-27430116D01*
X11432267Y-27583632D01*
X11332412Y-27811282D01*
X11271387Y-28052261D01*
X11271385Y-28052270D01*
X11250859Y-28299994D01*
X500500Y-28299994D01*
X500500Y-25399994D01*
X13580859Y-25399994D01*
X13580859Y-25400005D01*
X13601385Y-25647729D01*
X13601387Y-25647738D01*
X13662412Y-25888717D01*
X13762266Y-26116364D01*
X13862564Y-26269882D01*
X14408421Y-25724024D01*
X14421359Y-25755258D01*
X14503437Y-25878097D01*
X14607903Y-25982563D01*
X14730742Y-26064641D01*
X14761974Y-26077577D01*
X14215942Y-26623609D01*
X14262768Y-26660055D01*
X14262770Y-26660056D01*
X14481385Y-26778364D01*
X14481396Y-26778369D01*
X14716506Y-26859083D01*
X14961707Y-26900000D01*
X15210293Y-26900000D01*
X15455493Y-26859083D01*
X15690603Y-26778369D01*
X15690614Y-26778364D01*
X15909228Y-26660057D01*
X15909231Y-26660055D01*
X15956056Y-26623609D01*
X15410025Y-26077578D01*
X15441258Y-26064641D01*
X15564097Y-25982563D01*
X15668563Y-25878097D01*
X15750641Y-25755258D01*
X15763577Y-25724025D01*
X16309434Y-26269882D01*
X16409731Y-26116369D01*
X16509587Y-25888717D01*
X16570612Y-25647738D01*
X16570614Y-25647729D01*
X16591141Y-25400005D01*
X16591141Y-25399994D01*
X16570614Y-25152270D01*
X16570612Y-25152261D01*
X16509587Y-24911282D01*
X16409731Y-24683630D01*
X16309434Y-24530116D01*
X15763577Y-25075973D01*
X15750641Y-25044742D01*
X15668563Y-24921903D01*
X15564097Y-24817437D01*
X15441258Y-24735359D01*
X15410025Y-24722421D01*
X15956057Y-24176390D01*
X15956056Y-24176389D01*
X15909229Y-24139943D01*
X15690614Y-24021635D01*
X15690603Y-24021630D01*
X15455493Y-23940916D01*
X15210293Y-23900000D01*
X14961707Y-23900000D01*
X14716506Y-23940916D01*
X14481396Y-24021630D01*
X14481390Y-24021632D01*
X14262761Y-24139949D01*
X14215942Y-24176388D01*
X14215942Y-24176390D01*
X14761974Y-24722421D01*
X14730742Y-24735359D01*
X14607903Y-24817437D01*
X14503437Y-24921903D01*
X14421359Y-25044742D01*
X14408422Y-25075974D01*
X13862564Y-24530116D01*
X13762267Y-24683632D01*
X13662412Y-24911282D01*
X13601387Y-25152261D01*
X13601385Y-25152270D01*
X13580859Y-25399994D01*
X500500Y-25399994D01*
X500500Y-22499994D01*
X11250357Y-22499994D01*
X11250357Y-22500005D01*
X11270890Y-22747812D01*
X11270892Y-22747824D01*
X11331936Y-22988881D01*
X11431826Y-23216606D01*
X11567833Y-23424782D01*
X11567836Y-23424785D01*
X11736256Y-23607738D01*
X11932491Y-23760474D01*
X12151190Y-23878828D01*
X12386386Y-23959571D01*
X12631665Y-24000500D01*
X12880335Y-24000500D01*
X13125614Y-23959571D01*
X13360810Y-23878828D01*
X13579509Y-23760474D01*
X13775744Y-23607738D01*
X13944164Y-23424785D01*
X14080173Y-23216607D01*
X14180063Y-22988881D01*
X14241108Y-22747821D01*
X14261643Y-22500000D01*
X14261643Y-22499994D01*
X19380357Y-22499994D01*
X19380357Y-22500005D01*
X19400890Y-22747812D01*
X19400892Y-22747824D01*
X19461936Y-22988881D01*
X19561826Y-23216606D01*
X19697833Y-23424782D01*
X19697836Y-23424785D01*
X19866256Y-23607738D01*
X20062491Y-23760474D01*
X20281190Y-23878828D01*
X20516386Y-23959571D01*
X20761665Y-24000500D01*
X21010335Y-24000500D01*
X21255614Y-23959571D01*
X21490810Y-23878828D01*
X21709509Y-23760474D01*
X21905744Y-23607738D01*
X22074164Y-23424785D01*
X22210173Y-23216607D01*
X22310063Y-22988881D01*
X22371108Y-22747821D01*
X22391643Y-22500000D01*
X22371108Y-22252179D01*
X22310063Y-22011119D01*
X22210173Y-21783393D01*
X22074166Y-21575217D01*
X22052557Y-21551744D01*
X21905744Y-21392262D01*
X21709509Y-21239526D01*
X21709507Y-21239525D01*
X21709506Y-21239524D01*
X21490811Y-21121172D01*
X21490802Y-21121169D01*
X21255616Y-21040429D01*
X21010335Y-20999500D01*
X20761665Y-20999500D01*
X20516383Y-21040429D01*
X20281197Y-21121169D01*
X20281188Y-21121172D01*
X20062493Y-21239524D01*
X19866257Y-21392261D01*
X19697833Y-21575217D01*
X19561826Y-21783393D01*
X19461936Y-22011118D01*
X19400892Y-22252175D01*
X19400890Y-22252187D01*
X19380357Y-22499994D01*
X14261643Y-22499994D01*
X14241108Y-22252179D01*
X14180063Y-22011119D01*
X14080173Y-21783393D01*
X13944166Y-21575217D01*
X13922557Y-21551744D01*
X13775744Y-21392262D01*
X13579509Y-21239526D01*
X13579507Y-21239525D01*
X13579506Y-21239524D01*
X13360811Y-21121172D01*
X13360802Y-21121169D01*
X13125616Y-21040429D01*
X12880335Y-20999500D01*
X12631665Y-20999500D01*
X12386383Y-21040429D01*
X12151197Y-21121169D01*
X12151188Y-21121172D01*
X11932493Y-21239524D01*
X11736257Y-21392261D01*
X11567833Y-21575217D01*
X11431826Y-21783393D01*
X11331936Y-22011118D01*
X11270892Y-22252175D01*
X11270890Y-22252187D01*
X11250357Y-22499994D01*
X500500Y-22499994D01*
X500500Y-624500D01*
X520185Y-557461D01*
X572989Y-511706D01*
X624500Y-500500D01*
X101375500Y-500500D01*
X101442539Y-520185D01*
G37*
G04 #@! TD.AperFunction*
G04 #@! TD*
G04 #@! TA.AperFunction,NonConductor*
G36*
X19683865Y-36743348D02*
G01*
X19728382Y-36794725D01*
X19755429Y-36852728D01*
X19755432Y-36852734D01*
X19885954Y-37039141D01*
X20046858Y-37200045D01*
X20046861Y-37200047D01*
X20233266Y-37330568D01*
X20291275Y-37357618D01*
X20343714Y-37403791D01*
X20362866Y-37470984D01*
X20342650Y-37537865D01*
X20291275Y-37582382D01*
X20233267Y-37609431D01*
X20233265Y-37609432D01*
X20046858Y-37739954D01*
X19885954Y-37900858D01*
X19755432Y-38087265D01*
X19755431Y-38087267D01*
X19728382Y-38145275D01*
X19682209Y-38197714D01*
X19615016Y-38216866D01*
X19548135Y-38196650D01*
X19503618Y-38145275D01*
X19476568Y-38087267D01*
X19476567Y-38087265D01*
X19346045Y-37900858D01*
X19185141Y-37739954D01*
X18998734Y-37609432D01*
X18998728Y-37609429D01*
X18940725Y-37582382D01*
X18888285Y-37536210D01*
X18869133Y-37469017D01*
X18889348Y-37402135D01*
X18940725Y-37357618D01*
X18998734Y-37330568D01*
X19185139Y-37200047D01*
X19346047Y-37039139D01*
X19476568Y-36852734D01*
X19503618Y-36794724D01*
X19549790Y-36742285D01*
X19616983Y-36723133D01*
X19683865Y-36743348D01*
G37*
G04 #@! TD.AperFunction*
G04 #@! TA.AperFunction,NonConductor*
G36*
X19683865Y-39283348D02*
G01*
X19728382Y-39334725D01*
X19755429Y-39392728D01*
X19755432Y-39392734D01*
X19885954Y-39579141D01*
X20046858Y-39740045D01*
X20046861Y-39740047D01*
X20233266Y-39870568D01*
X20291275Y-39897618D01*
X20343714Y-39943791D01*
X20362866Y-40010984D01*
X20342650Y-40077865D01*
X20291275Y-40122381D01*
X20286222Y-40124738D01*
X20233267Y-40149431D01*
X20233265Y-40149432D01*
X20046858Y-40279954D01*
X19885954Y-40440858D01*
X19755432Y-40627265D01*
X19755431Y-40627267D01*
X19728382Y-40685275D01*
X19682209Y-40737714D01*
X19615016Y-40756866D01*
X19548135Y-40736650D01*
X19503618Y-40685275D01*
X19476568Y-40627267D01*
X19476567Y-40627265D01*
X19476381Y-40627000D01*
X19346047Y-40440861D01*
X19346045Y-40440858D01*
X19185141Y-40279954D01*
X18998734Y-40149432D01*
X18998728Y-40149429D01*
X18945778Y-40124738D01*
X18940724Y-40122381D01*
X18888285Y-40076210D01*
X18869133Y-40009017D01*
X18889348Y-39942135D01*
X18940725Y-39897618D01*
X18998734Y-39870568D01*
X19185139Y-39740047D01*
X19346047Y-39579139D01*
X19476568Y-39392734D01*
X19503618Y-39334724D01*
X19549790Y-39282285D01*
X19616983Y-39263133D01*
X19683865Y-39283348D01*
G37*
G04 #@! TD.AperFunction*
G04 #@! TA.AperFunction,NonConductor*
G36*
X19683865Y-41823348D02*
G01*
X19728382Y-41874725D01*
X19755429Y-41932728D01*
X19755432Y-41932734D01*
X19885954Y-42119141D01*
X20046858Y-42280045D01*
X20046861Y-42280047D01*
X20233266Y-42410568D01*
X20291275Y-42437618D01*
X20343714Y-42483791D01*
X20362866Y-42550984D01*
X20342650Y-42617865D01*
X20291275Y-42662382D01*
X20233267Y-42689431D01*
X20233265Y-42689432D01*
X20046858Y-42819954D01*
X19885954Y-42980858D01*
X19755432Y-43167265D01*
X19755431Y-43167267D01*
X19728382Y-43225275D01*
X19682209Y-43277714D01*
X19615016Y-43296866D01*
X19548135Y-43276650D01*
X19503618Y-43225275D01*
X19494748Y-43206253D01*
X19476568Y-43167266D01*
X19346047Y-42980861D01*
X19346045Y-42980858D01*
X19185141Y-42819954D01*
X18998734Y-42689432D01*
X18998728Y-42689429D01*
X18940725Y-42662382D01*
X18888285Y-42616210D01*
X18869133Y-42549017D01*
X18889348Y-42482135D01*
X18940725Y-42437618D01*
X18998734Y-42410568D01*
X19185139Y-42280047D01*
X19346047Y-42119139D01*
X19476568Y-41932734D01*
X19503618Y-41874724D01*
X19549790Y-41822285D01*
X19616983Y-41803133D01*
X19683865Y-41823348D01*
G37*
G04 #@! TD.AperFunction*
G04 #@! TA.AperFunction,NonConductor*
G36*
X19683865Y-44363348D02*
G01*
X19728382Y-44414725D01*
X19755429Y-44472728D01*
X19755432Y-44472734D01*
X19885954Y-44659141D01*
X20046858Y-44820045D01*
X20046861Y-44820047D01*
X20233266Y-44950568D01*
X20291275Y-44977618D01*
X20343714Y-45023791D01*
X20362866Y-45090984D01*
X20342650Y-45157865D01*
X20291275Y-45202382D01*
X20233267Y-45229431D01*
X20233265Y-45229432D01*
X20046858Y-45359954D01*
X19885954Y-45520858D01*
X19755432Y-45707265D01*
X19755431Y-45707267D01*
X19728382Y-45765275D01*
X19682209Y-45817714D01*
X19615016Y-45836866D01*
X19548135Y-45816650D01*
X19503618Y-45765275D01*
X19476568Y-45707267D01*
X19476567Y-45707265D01*
X19346045Y-45520858D01*
X19185141Y-45359954D01*
X18998734Y-45229432D01*
X18998728Y-45229429D01*
X18940725Y-45202382D01*
X18888285Y-45156210D01*
X18869133Y-45089017D01*
X18889348Y-45022135D01*
X18940725Y-44977618D01*
X18998734Y-44950568D01*
X19185139Y-44820047D01*
X19346047Y-44659139D01*
X19476568Y-44472734D01*
X19503618Y-44414724D01*
X19549790Y-44362285D01*
X19616983Y-44343133D01*
X19683865Y-44363348D01*
G37*
G04 #@! TD.AperFunction*
G04 #@! TA.AperFunction,NonConductor*
G36*
X19683865Y-46903348D02*
G01*
X19728382Y-46954725D01*
X19755429Y-47012728D01*
X19755432Y-47012734D01*
X19885954Y-47199141D01*
X20046858Y-47360045D01*
X20046861Y-47360047D01*
X20233266Y-47490568D01*
X20291275Y-47517618D01*
X20343714Y-47563791D01*
X20362866Y-47630984D01*
X20342650Y-47697865D01*
X20291275Y-47742382D01*
X20233267Y-47769431D01*
X20233265Y-47769432D01*
X20046858Y-47899954D01*
X19885954Y-48060858D01*
X19755432Y-48247265D01*
X19755431Y-48247267D01*
X19736310Y-48288272D01*
X19730373Y-48301006D01*
X19728382Y-48305275D01*
X19682209Y-48357714D01*
X19615016Y-48376866D01*
X19548135Y-48356650D01*
X19503618Y-48305275D01*
X19476568Y-48247266D01*
X19346047Y-48060861D01*
X19346045Y-48060858D01*
X19185141Y-47899954D01*
X18998734Y-47769432D01*
X18998728Y-47769429D01*
X18958188Y-47750525D01*
X18940724Y-47742381D01*
X18888285Y-47696210D01*
X18869133Y-47629017D01*
X18889348Y-47562135D01*
X18940725Y-47517618D01*
X18998734Y-47490568D01*
X19185139Y-47360047D01*
X19346047Y-47199139D01*
X19476568Y-47012734D01*
X19503618Y-46954724D01*
X19549790Y-46902285D01*
X19616983Y-46883133D01*
X19683865Y-46903348D01*
G37*
G04 #@! TD.AperFunction*
G04 #@! TA.AperFunction,NonConductor*
G36*
X19683865Y-49443348D02*
G01*
X19728382Y-49494725D01*
X19755429Y-49552728D01*
X19755432Y-49552734D01*
X19885954Y-49739141D01*
X20046858Y-49900045D01*
X20046861Y-49900047D01*
X20233266Y-50030568D01*
X20270115Y-50047751D01*
X20291275Y-50057618D01*
X20343714Y-50103791D01*
X20362866Y-50170984D01*
X20342650Y-50237865D01*
X20291275Y-50282382D01*
X20233267Y-50309431D01*
X20233265Y-50309432D01*
X20046858Y-50439954D01*
X19885954Y-50600858D01*
X19755432Y-50787265D01*
X19755431Y-50787267D01*
X19728382Y-50845275D01*
X19682209Y-50897714D01*
X19615016Y-50916866D01*
X19548135Y-50896650D01*
X19503618Y-50845275D01*
X19495100Y-50827008D01*
X19476568Y-50787266D01*
X19346047Y-50600861D01*
X19346045Y-50600858D01*
X19185141Y-50439954D01*
X18998734Y-50309432D01*
X18998728Y-50309429D01*
X18940725Y-50282382D01*
X18888285Y-50236210D01*
X18869133Y-50169017D01*
X18889348Y-50102135D01*
X18940725Y-50057618D01*
X18961874Y-50047756D01*
X18998734Y-50030568D01*
X19185139Y-49900047D01*
X19346047Y-49739139D01*
X19476568Y-49552734D01*
X19503618Y-49494724D01*
X19549790Y-49442285D01*
X19616983Y-49423133D01*
X19683865Y-49443348D01*
G37*
G04 #@! TD.AperFunction*
G04 #@! TA.AperFunction,NonConductor*
G36*
X19683865Y-51983348D02*
G01*
X19728382Y-52034725D01*
X19755429Y-52092728D01*
X19755432Y-52092734D01*
X19885954Y-52279141D01*
X20046858Y-52440045D01*
X20046861Y-52440047D01*
X20233266Y-52570568D01*
X20290355Y-52597189D01*
X20291275Y-52597618D01*
X20343714Y-52643791D01*
X20362866Y-52710984D01*
X20342650Y-52777865D01*
X20291275Y-52822382D01*
X20233267Y-52849431D01*
X20233265Y-52849432D01*
X20046858Y-52979954D01*
X19885954Y-53140858D01*
X19755432Y-53327265D01*
X19755431Y-53327267D01*
X19728382Y-53385275D01*
X19682209Y-53437714D01*
X19615016Y-53456866D01*
X19548135Y-53436650D01*
X19503618Y-53385275D01*
X19476568Y-53327267D01*
X19476567Y-53327265D01*
X19474800Y-53324742D01*
X19346047Y-53140861D01*
X19346045Y-53140858D01*
X19185141Y-52979954D01*
X18998734Y-52849432D01*
X18998728Y-52849429D01*
X18940725Y-52822382D01*
X18888285Y-52776210D01*
X18869133Y-52709017D01*
X18889348Y-52642135D01*
X18940725Y-52597618D01*
X18941645Y-52597189D01*
X18998734Y-52570568D01*
X19185139Y-52440047D01*
X19346047Y-52279139D01*
X19476568Y-52092734D01*
X19503618Y-52034724D01*
X19549790Y-51982285D01*
X19616983Y-51963133D01*
X19683865Y-51983348D01*
G37*
G04 #@! TD.AperFunction*
G04 #@! TA.AperFunction,NonConductor*
G36*
X19683865Y-54523348D02*
G01*
X19728382Y-54574725D01*
X19755429Y-54632728D01*
X19755432Y-54632734D01*
X19885954Y-54819141D01*
X20046858Y-54980045D01*
X20046861Y-54980047D01*
X20233266Y-55110568D01*
X20283784Y-55134125D01*
X20291275Y-55137618D01*
X20343714Y-55183791D01*
X20362866Y-55250984D01*
X20342650Y-55317865D01*
X20291275Y-55362382D01*
X20233267Y-55389431D01*
X20233265Y-55389432D01*
X20046858Y-55519954D01*
X19885954Y-55680858D01*
X19755432Y-55867265D01*
X19755431Y-55867267D01*
X19728382Y-55925275D01*
X19682209Y-55977714D01*
X19615016Y-55996866D01*
X19548135Y-55976650D01*
X19503618Y-55925275D01*
X19476568Y-55867267D01*
X19476567Y-55867265D01*
X19346045Y-55680858D01*
X19185141Y-55519954D01*
X18998734Y-55389432D01*
X18998728Y-55389429D01*
X18940725Y-55362382D01*
X18888285Y-55316210D01*
X18869133Y-55249017D01*
X18889348Y-55182135D01*
X18940725Y-55137618D01*
X18948216Y-55134125D01*
X18998734Y-55110568D01*
X19185139Y-54980047D01*
X19346047Y-54819139D01*
X19476568Y-54632734D01*
X19503618Y-54574724D01*
X19549790Y-54522285D01*
X19616983Y-54503133D01*
X19683865Y-54523348D01*
G37*
G04 #@! TD.AperFunction*
G04 #@! TA.AperFunction,NonConductor*
G36*
X19683865Y-57063348D02*
G01*
X19728382Y-57114725D01*
X19755429Y-57172728D01*
X19755432Y-57172734D01*
X19885954Y-57359141D01*
X20046858Y-57520045D01*
X20046861Y-57520047D01*
X20233266Y-57650568D01*
X20291275Y-57677618D01*
X20343714Y-57723791D01*
X20362866Y-57790984D01*
X20342650Y-57857865D01*
X20291275Y-57902382D01*
X20233267Y-57929431D01*
X20233265Y-57929432D01*
X20046858Y-58059954D01*
X19885954Y-58220858D01*
X19755432Y-58407265D01*
X19755431Y-58407267D01*
X19728382Y-58465275D01*
X19682209Y-58517714D01*
X19615016Y-58536866D01*
X19548135Y-58516650D01*
X19503618Y-58465275D01*
X19476568Y-58407267D01*
X19476567Y-58407265D01*
X19443457Y-58359979D01*
X19346047Y-58220861D01*
X19346045Y-58220858D01*
X19185141Y-58059954D01*
X18998734Y-57929432D01*
X18998728Y-57929429D01*
X18940725Y-57902382D01*
X18888285Y-57856210D01*
X18869133Y-57789017D01*
X18889348Y-57722135D01*
X18940725Y-57677618D01*
X18998734Y-57650568D01*
X19185139Y-57520047D01*
X19346047Y-57359139D01*
X19476568Y-57172734D01*
X19503618Y-57114724D01*
X19549790Y-57062285D01*
X19616983Y-57043133D01*
X19683865Y-57063348D01*
G37*
G04 #@! TD.AperFunction*
G04 #@! TA.AperFunction,NonConductor*
G36*
X19683865Y-59603348D02*
G01*
X19728382Y-59654725D01*
X19755429Y-59712728D01*
X19755432Y-59712734D01*
X19885954Y-59899141D01*
X20046858Y-60060045D01*
X20046861Y-60060047D01*
X20233266Y-60190568D01*
X20291275Y-60217618D01*
X20343714Y-60263791D01*
X20362866Y-60330984D01*
X20342650Y-60397865D01*
X20291275Y-60442382D01*
X20233267Y-60469431D01*
X20233265Y-60469432D01*
X20046858Y-60599954D01*
X19885954Y-60760858D01*
X19755432Y-60947265D01*
X19755431Y-60947267D01*
X19728382Y-61005275D01*
X19682209Y-61057714D01*
X19615016Y-61076866D01*
X19548135Y-61056650D01*
X19503618Y-61005275D01*
X19486375Y-60968297D01*
X19476568Y-60947266D01*
X19346047Y-60760861D01*
X19346045Y-60760858D01*
X19185141Y-60599954D01*
X18998734Y-60469432D01*
X18998728Y-60469429D01*
X18940725Y-60442382D01*
X18888285Y-60396210D01*
X18869133Y-60329017D01*
X18889348Y-60262135D01*
X18940725Y-60217618D01*
X18998734Y-60190568D01*
X19185139Y-60060047D01*
X19346047Y-59899139D01*
X19476568Y-59712734D01*
X19503618Y-59654724D01*
X19549790Y-59602285D01*
X19616983Y-59583133D01*
X19683865Y-59603348D01*
G37*
G04 #@! TD.AperFunction*
G04 #@! TA.AperFunction,NonConductor*
G36*
X19683865Y-62143348D02*
G01*
X19728382Y-62194725D01*
X19755429Y-62252728D01*
X19755432Y-62252734D01*
X19885954Y-62439141D01*
X20046858Y-62600045D01*
X20046861Y-62600047D01*
X20233266Y-62730568D01*
X20252050Y-62739327D01*
X20291275Y-62757618D01*
X20343714Y-62803791D01*
X20362866Y-62870984D01*
X20342650Y-62937865D01*
X20291275Y-62982382D01*
X20233267Y-63009431D01*
X20233265Y-63009432D01*
X20046858Y-63139954D01*
X19885954Y-63300858D01*
X19755432Y-63487265D01*
X19755431Y-63487267D01*
X19728382Y-63545275D01*
X19682209Y-63597714D01*
X19615016Y-63616866D01*
X19548135Y-63596650D01*
X19503618Y-63545275D01*
X19476568Y-63487266D01*
X19346047Y-63300861D01*
X19346045Y-63300858D01*
X19185141Y-63139954D01*
X18998734Y-63009432D01*
X18998728Y-63009429D01*
X18940725Y-62982382D01*
X18888285Y-62936210D01*
X18869133Y-62869017D01*
X18889348Y-62802135D01*
X18940725Y-62757618D01*
X18998734Y-62730568D01*
X19185139Y-62600047D01*
X19346047Y-62439139D01*
X19476568Y-62252734D01*
X19503618Y-62194724D01*
X19549790Y-62142285D01*
X19616983Y-62123133D01*
X19683865Y-62143348D01*
G37*
G04 #@! TD.AperFunction*
G04 #@! TA.AperFunction,NonConductor*
G36*
X19683865Y-64683348D02*
G01*
X19728382Y-64734725D01*
X19755429Y-64792728D01*
X19755432Y-64792734D01*
X19885954Y-64979141D01*
X20046858Y-65140045D01*
X20046861Y-65140047D01*
X20233266Y-65270568D01*
X20291275Y-65297618D01*
X20343714Y-65343791D01*
X20362866Y-65410984D01*
X20342650Y-65477865D01*
X20291275Y-65522382D01*
X20233267Y-65549431D01*
X20233265Y-65549432D01*
X20046858Y-65679954D01*
X19885954Y-65840858D01*
X19755432Y-66027265D01*
X19755431Y-66027267D01*
X19728382Y-66085275D01*
X19682209Y-66137714D01*
X19615016Y-66156866D01*
X19548135Y-66136650D01*
X19503618Y-66085275D01*
X19476568Y-66027267D01*
X19476567Y-66027265D01*
X19346045Y-65840858D01*
X19185141Y-65679954D01*
X18998734Y-65549432D01*
X18998728Y-65549429D01*
X18940725Y-65522382D01*
X18888285Y-65476210D01*
X18869133Y-65409017D01*
X18889348Y-65342135D01*
X18940725Y-65297618D01*
X18998734Y-65270568D01*
X19185139Y-65140047D01*
X19346047Y-64979139D01*
X19476568Y-64792734D01*
X19503618Y-64734724D01*
X19549790Y-64682285D01*
X19616983Y-64663133D01*
X19683865Y-64683348D01*
G37*
G04 #@! TD.AperFunction*
G04 #@! TA.AperFunction,NonConductor*
G36*
X19683865Y-67223348D02*
G01*
X19728382Y-67274725D01*
X19755429Y-67332728D01*
X19755432Y-67332734D01*
X19885954Y-67519141D01*
X20046858Y-67680045D01*
X20046861Y-67680047D01*
X20233266Y-67810568D01*
X20291275Y-67837618D01*
X20343714Y-67883791D01*
X20362866Y-67950984D01*
X20342650Y-68017865D01*
X20291275Y-68062382D01*
X20233267Y-68089431D01*
X20233265Y-68089432D01*
X20046858Y-68219954D01*
X19885954Y-68380858D01*
X19755432Y-68567265D01*
X19755431Y-68567267D01*
X19728382Y-68625275D01*
X19682209Y-68677714D01*
X19615016Y-68696866D01*
X19548135Y-68676650D01*
X19503618Y-68625275D01*
X19476568Y-68567266D01*
X19363833Y-68406262D01*
X19346045Y-68380858D01*
X19185141Y-68219954D01*
X18998734Y-68089432D01*
X18998728Y-68089429D01*
X18940725Y-68062382D01*
X18888285Y-68016210D01*
X18869133Y-67949017D01*
X18889348Y-67882135D01*
X18940725Y-67837618D01*
X18998734Y-67810568D01*
X19185139Y-67680047D01*
X19346047Y-67519139D01*
X19476568Y-67332734D01*
X19503618Y-67274724D01*
X19549790Y-67222285D01*
X19616983Y-67203133D01*
X19683865Y-67223348D01*
G37*
G04 #@! TD.AperFunction*
G04 #@! TA.AperFunction,NonConductor*
G36*
X19683865Y-69763348D02*
G01*
X19728382Y-69814725D01*
X19755429Y-69872728D01*
X19755432Y-69872734D01*
X19885954Y-70059141D01*
X20046858Y-70220045D01*
X20046861Y-70220047D01*
X20233266Y-70350568D01*
X20291275Y-70377618D01*
X20343714Y-70423791D01*
X20362866Y-70490984D01*
X20342650Y-70557865D01*
X20291275Y-70602382D01*
X20233267Y-70629431D01*
X20233265Y-70629432D01*
X20046858Y-70759954D01*
X19885954Y-70920858D01*
X19755432Y-71107265D01*
X19755431Y-71107267D01*
X19728382Y-71165275D01*
X19682209Y-71217714D01*
X19615016Y-71236866D01*
X19548135Y-71216650D01*
X19503618Y-71165275D01*
X19486832Y-71129278D01*
X19476568Y-71107266D01*
X19346047Y-70920861D01*
X19346045Y-70920858D01*
X19185141Y-70759954D01*
X18998734Y-70629432D01*
X18998728Y-70629429D01*
X18940725Y-70602382D01*
X18888285Y-70556210D01*
X18869133Y-70489017D01*
X18889348Y-70422135D01*
X18940725Y-70377618D01*
X18998734Y-70350568D01*
X19185139Y-70220047D01*
X19346047Y-70059139D01*
X19476568Y-69872734D01*
X19503618Y-69814724D01*
X19549790Y-69762285D01*
X19616983Y-69743133D01*
X19683865Y-69763348D01*
G37*
G04 #@! TD.AperFunction*
G04 #@! TA.AperFunction,NonConductor*
G36*
X19683865Y-72303348D02*
G01*
X19728382Y-72354725D01*
X19755429Y-72412728D01*
X19755432Y-72412734D01*
X19885954Y-72599141D01*
X20046858Y-72760045D01*
X20062375Y-72770910D01*
X20233266Y-72890568D01*
X20291275Y-72917618D01*
X20343714Y-72963791D01*
X20362866Y-73030984D01*
X20342650Y-73097865D01*
X20291275Y-73142382D01*
X20233267Y-73169431D01*
X20233265Y-73169432D01*
X20046858Y-73299954D01*
X19885954Y-73460858D01*
X19755432Y-73647265D01*
X19755431Y-73647267D01*
X19728382Y-73705275D01*
X19682209Y-73757714D01*
X19615016Y-73776866D01*
X19548135Y-73756650D01*
X19503618Y-73705275D01*
X19476568Y-73647267D01*
X19476567Y-73647265D01*
X19346045Y-73460858D01*
X19185141Y-73299954D01*
X18998734Y-73169432D01*
X18998728Y-73169429D01*
X18940725Y-73142382D01*
X18888285Y-73096210D01*
X18869133Y-73029017D01*
X18889348Y-72962135D01*
X18940725Y-72917618D01*
X18998734Y-72890568D01*
X19185139Y-72760047D01*
X19346047Y-72599139D01*
X19476568Y-72412734D01*
X19503618Y-72354724D01*
X19549790Y-72302285D01*
X19616983Y-72283133D01*
X19683865Y-72303348D01*
G37*
G04 #@! TD.AperFunction*
G04 #@! TA.AperFunction,NonConductor*
G36*
X19683865Y-74843348D02*
G01*
X19728382Y-74894725D01*
X19755429Y-74952728D01*
X19755432Y-74952734D01*
X19885954Y-75139141D01*
X20046858Y-75300045D01*
X20046861Y-75300047D01*
X20233266Y-75430568D01*
X20291275Y-75457618D01*
X20343714Y-75503791D01*
X20362866Y-75570984D01*
X20342650Y-75637865D01*
X20291275Y-75682382D01*
X20233267Y-75709431D01*
X20233265Y-75709432D01*
X20046858Y-75839954D01*
X19885954Y-76000858D01*
X19755432Y-76187265D01*
X19755431Y-76187267D01*
X19728382Y-76245275D01*
X19682209Y-76297714D01*
X19615016Y-76316866D01*
X19548135Y-76296650D01*
X19503618Y-76245275D01*
X19476568Y-76187267D01*
X19476567Y-76187265D01*
X19464925Y-76170639D01*
X19346047Y-76000861D01*
X19346045Y-76000858D01*
X19185141Y-75839954D01*
X18998734Y-75709432D01*
X18998728Y-75709429D01*
X18940725Y-75682382D01*
X18888285Y-75636210D01*
X18869133Y-75569017D01*
X18889348Y-75502135D01*
X18940725Y-75457618D01*
X18998734Y-75430568D01*
X19185139Y-75300047D01*
X19346047Y-75139139D01*
X19476568Y-74952734D01*
X19503618Y-74894724D01*
X19549790Y-74842285D01*
X19616983Y-74823133D01*
X19683865Y-74843348D01*
G37*
G04 #@! TD.AperFunction*
G04 #@! TA.AperFunction,NonConductor*
G36*
X19683865Y-77383348D02*
G01*
X19728382Y-77434725D01*
X19755429Y-77492728D01*
X19755432Y-77492734D01*
X19885954Y-77679141D01*
X20046858Y-77840045D01*
X20046861Y-77840047D01*
X20233266Y-77970568D01*
X20291275Y-77997618D01*
X20343714Y-78043791D01*
X20362866Y-78110984D01*
X20342650Y-78177865D01*
X20291275Y-78222382D01*
X20233267Y-78249431D01*
X20233265Y-78249432D01*
X20046858Y-78379954D01*
X19885954Y-78540858D01*
X19755432Y-78727265D01*
X19755431Y-78727267D01*
X19728382Y-78785275D01*
X19682209Y-78837714D01*
X19615016Y-78856866D01*
X19548135Y-78836650D01*
X19503618Y-78785275D01*
X19486120Y-78747750D01*
X19476568Y-78727266D01*
X19346047Y-78540861D01*
X19346045Y-78540858D01*
X19185141Y-78379954D01*
X18998734Y-78249432D01*
X18998728Y-78249429D01*
X18940725Y-78222382D01*
X18888285Y-78176210D01*
X18869133Y-78109017D01*
X18889348Y-78042135D01*
X18940725Y-77997618D01*
X18998734Y-77970568D01*
X19185139Y-77840047D01*
X19346047Y-77679139D01*
X19476568Y-77492734D01*
X19503618Y-77434724D01*
X19549790Y-77382285D01*
X19616983Y-77363133D01*
X19683865Y-77383348D01*
G37*
G04 #@! TD.AperFunction*
G04 #@! TA.AperFunction,NonConductor*
G36*
X19683865Y-79923348D02*
G01*
X19728382Y-79974725D01*
X19755429Y-80032728D01*
X19755432Y-80032734D01*
X19885954Y-80219141D01*
X20046858Y-80380045D01*
X20046861Y-80380047D01*
X20233266Y-80510568D01*
X20291275Y-80537618D01*
X20343714Y-80583791D01*
X20362866Y-80650984D01*
X20342650Y-80717865D01*
X20291275Y-80762382D01*
X20233267Y-80789431D01*
X20233265Y-80789432D01*
X20046858Y-80919954D01*
X19885954Y-81080858D01*
X19755432Y-81267265D01*
X19755431Y-81267267D01*
X19728382Y-81325275D01*
X19682209Y-81377714D01*
X19615016Y-81396866D01*
X19548135Y-81376650D01*
X19503618Y-81325275D01*
X19476568Y-81267267D01*
X19476567Y-81267265D01*
X19346045Y-81080858D01*
X19185141Y-80919954D01*
X18998734Y-80789432D01*
X18998728Y-80789429D01*
X18940725Y-80762382D01*
X18888285Y-80716210D01*
X18869133Y-80649017D01*
X18889348Y-80582135D01*
X18940725Y-80537618D01*
X18998734Y-80510568D01*
X19185139Y-80380047D01*
X19346047Y-80219139D01*
X19476568Y-80032734D01*
X19503618Y-79974724D01*
X19549790Y-79922285D01*
X19616983Y-79903133D01*
X19683865Y-79923348D01*
G37*
G04 #@! TD.AperFunction*
G04 #@! TA.AperFunction,NonConductor*
G36*
X11093865Y-36743348D02*
G01*
X11138382Y-36794725D01*
X11165429Y-36852728D01*
X11165432Y-36852734D01*
X11295954Y-37039141D01*
X11456858Y-37200045D01*
X11456861Y-37200047D01*
X11643266Y-37330568D01*
X11701275Y-37357618D01*
X11753714Y-37403791D01*
X11772866Y-37470984D01*
X11752650Y-37537865D01*
X11701275Y-37582382D01*
X11643267Y-37609431D01*
X11643265Y-37609432D01*
X11456858Y-37739954D01*
X11295954Y-37900858D01*
X11165432Y-38087265D01*
X11165431Y-38087267D01*
X11138382Y-38145275D01*
X11092209Y-38197714D01*
X11025016Y-38216866D01*
X10958135Y-38196650D01*
X10913618Y-38145275D01*
X10886568Y-38087267D01*
X10886567Y-38087265D01*
X10756045Y-37900858D01*
X10595141Y-37739954D01*
X10408734Y-37609432D01*
X10408728Y-37609429D01*
X10350725Y-37582382D01*
X10298285Y-37536210D01*
X10279133Y-37469017D01*
X10299348Y-37402135D01*
X10350725Y-37357618D01*
X10408734Y-37330568D01*
X10595139Y-37200047D01*
X10756047Y-37039139D01*
X10886568Y-36852734D01*
X10913618Y-36794724D01*
X10959790Y-36742285D01*
X11026983Y-36723133D01*
X11093865Y-36743348D01*
G37*
G04 #@! TD.AperFunction*
G04 #@! TA.AperFunction,NonConductor*
G36*
X11093865Y-39283348D02*
G01*
X11138382Y-39334725D01*
X11165429Y-39392728D01*
X11165432Y-39392734D01*
X11295954Y-39579141D01*
X11456858Y-39740045D01*
X11456861Y-39740047D01*
X11643266Y-39870568D01*
X11701275Y-39897618D01*
X11753714Y-39943791D01*
X11772866Y-40010984D01*
X11752650Y-40077865D01*
X11701275Y-40122381D01*
X11696222Y-40124738D01*
X11643267Y-40149431D01*
X11643265Y-40149432D01*
X11456858Y-40279954D01*
X11295954Y-40440858D01*
X11165432Y-40627265D01*
X11165431Y-40627267D01*
X11138382Y-40685275D01*
X11092209Y-40737714D01*
X11025016Y-40756866D01*
X10958135Y-40736650D01*
X10913618Y-40685275D01*
X10886568Y-40627267D01*
X10886567Y-40627265D01*
X10886381Y-40627000D01*
X10756047Y-40440861D01*
X10756045Y-40440858D01*
X10595141Y-40279954D01*
X10408734Y-40149432D01*
X10408728Y-40149429D01*
X10355778Y-40124738D01*
X10350724Y-40122381D01*
X10298285Y-40076210D01*
X10279133Y-40009017D01*
X10299348Y-39942135D01*
X10350725Y-39897618D01*
X10408734Y-39870568D01*
X10595139Y-39740047D01*
X10756047Y-39579139D01*
X10886568Y-39392734D01*
X10913618Y-39334724D01*
X10959790Y-39282285D01*
X11026983Y-39263133D01*
X11093865Y-39283348D01*
G37*
G04 #@! TD.AperFunction*
G04 #@! TA.AperFunction,NonConductor*
G36*
X11093865Y-41823348D02*
G01*
X11138382Y-41874725D01*
X11165429Y-41932728D01*
X11165432Y-41932734D01*
X11295954Y-42119141D01*
X11456858Y-42280045D01*
X11456861Y-42280047D01*
X11643266Y-42410568D01*
X11701275Y-42437618D01*
X11753714Y-42483791D01*
X11772866Y-42550984D01*
X11752650Y-42617865D01*
X11701275Y-42662382D01*
X11643267Y-42689431D01*
X11643265Y-42689432D01*
X11456858Y-42819954D01*
X11295954Y-42980858D01*
X11165432Y-43167265D01*
X11165431Y-43167267D01*
X11138382Y-43225275D01*
X11092209Y-43277714D01*
X11025016Y-43296866D01*
X10958135Y-43276650D01*
X10913618Y-43225275D01*
X10904748Y-43206253D01*
X10886568Y-43167266D01*
X10756047Y-42980861D01*
X10756045Y-42980858D01*
X10595141Y-42819954D01*
X10408734Y-42689432D01*
X10408728Y-42689429D01*
X10350725Y-42662382D01*
X10298285Y-42616210D01*
X10279133Y-42549017D01*
X10299348Y-42482135D01*
X10350725Y-42437618D01*
X10408734Y-42410568D01*
X10595139Y-42280047D01*
X10756047Y-42119139D01*
X10886568Y-41932734D01*
X10913618Y-41874724D01*
X10959790Y-41822285D01*
X11026983Y-41803133D01*
X11093865Y-41823348D01*
G37*
G04 #@! TD.AperFunction*
G04 #@! TA.AperFunction,NonConductor*
G36*
X11093865Y-44363348D02*
G01*
X11138382Y-44414725D01*
X11165429Y-44472728D01*
X11165432Y-44472734D01*
X11295954Y-44659141D01*
X11456858Y-44820045D01*
X11456861Y-44820047D01*
X11643266Y-44950568D01*
X11701275Y-44977618D01*
X11753714Y-45023791D01*
X11772866Y-45090984D01*
X11752650Y-45157865D01*
X11701275Y-45202382D01*
X11643267Y-45229431D01*
X11643265Y-45229432D01*
X11456858Y-45359954D01*
X11295954Y-45520858D01*
X11165432Y-45707265D01*
X11165431Y-45707267D01*
X11138382Y-45765275D01*
X11092209Y-45817714D01*
X11025016Y-45836866D01*
X10958135Y-45816650D01*
X10913618Y-45765275D01*
X10886568Y-45707267D01*
X10886567Y-45707265D01*
X10756045Y-45520858D01*
X10595141Y-45359954D01*
X10408734Y-45229432D01*
X10408728Y-45229429D01*
X10350725Y-45202382D01*
X10298285Y-45156210D01*
X10279133Y-45089017D01*
X10299348Y-45022135D01*
X10350725Y-44977618D01*
X10408734Y-44950568D01*
X10595139Y-44820047D01*
X10756047Y-44659139D01*
X10886568Y-44472734D01*
X10913618Y-44414724D01*
X10959790Y-44362285D01*
X11026983Y-44343133D01*
X11093865Y-44363348D01*
G37*
G04 #@! TD.AperFunction*
G04 #@! TA.AperFunction,NonConductor*
G36*
X11093865Y-46903348D02*
G01*
X11138382Y-46954725D01*
X11165429Y-47012728D01*
X11165432Y-47012734D01*
X11295954Y-47199141D01*
X11456858Y-47360045D01*
X11456861Y-47360047D01*
X11643266Y-47490568D01*
X11701275Y-47517618D01*
X11753714Y-47563791D01*
X11772866Y-47630984D01*
X11752650Y-47697865D01*
X11701275Y-47742382D01*
X11643267Y-47769431D01*
X11643265Y-47769432D01*
X11456858Y-47899954D01*
X11295954Y-48060858D01*
X11165432Y-48247265D01*
X11165431Y-48247267D01*
X11146310Y-48288272D01*
X11140373Y-48301006D01*
X11138382Y-48305275D01*
X11092209Y-48357714D01*
X11025016Y-48376866D01*
X10958135Y-48356650D01*
X10913618Y-48305275D01*
X10886568Y-48247266D01*
X10756047Y-48060861D01*
X10756045Y-48060858D01*
X10595141Y-47899954D01*
X10408734Y-47769432D01*
X10408728Y-47769429D01*
X10368188Y-47750525D01*
X10350724Y-47742381D01*
X10298285Y-47696210D01*
X10279133Y-47629017D01*
X10299348Y-47562135D01*
X10350725Y-47517618D01*
X10408734Y-47490568D01*
X10595139Y-47360047D01*
X10756047Y-47199139D01*
X10886568Y-47012734D01*
X10913618Y-46954724D01*
X10959790Y-46902285D01*
X11026983Y-46883133D01*
X11093865Y-46903348D01*
G37*
G04 #@! TD.AperFunction*
G04 #@! TA.AperFunction,NonConductor*
G36*
X11093865Y-49443348D02*
G01*
X11138382Y-49494725D01*
X11165429Y-49552728D01*
X11165432Y-49552734D01*
X11295954Y-49739141D01*
X11456858Y-49900045D01*
X11456861Y-49900047D01*
X11643266Y-50030568D01*
X11680115Y-50047751D01*
X11701275Y-50057618D01*
X11753714Y-50103791D01*
X11772866Y-50170984D01*
X11752650Y-50237865D01*
X11701275Y-50282382D01*
X11643267Y-50309431D01*
X11643265Y-50309432D01*
X11456858Y-50439954D01*
X11295954Y-50600858D01*
X11165432Y-50787265D01*
X11165431Y-50787267D01*
X11138382Y-50845275D01*
X11092209Y-50897714D01*
X11025016Y-50916866D01*
X10958135Y-50896650D01*
X10913618Y-50845275D01*
X10905100Y-50827008D01*
X10886568Y-50787266D01*
X10756047Y-50600861D01*
X10756045Y-50600858D01*
X10595141Y-50439954D01*
X10408734Y-50309432D01*
X10408728Y-50309429D01*
X10350725Y-50282382D01*
X10298285Y-50236210D01*
X10279133Y-50169017D01*
X10299348Y-50102135D01*
X10350725Y-50057618D01*
X10371874Y-50047756D01*
X10408734Y-50030568D01*
X10595139Y-49900047D01*
X10756047Y-49739139D01*
X10886568Y-49552734D01*
X10913618Y-49494724D01*
X10959790Y-49442285D01*
X11026983Y-49423133D01*
X11093865Y-49443348D01*
G37*
G04 #@! TD.AperFunction*
G04 #@! TA.AperFunction,NonConductor*
G36*
X11093865Y-51983348D02*
G01*
X11138382Y-52034725D01*
X11165429Y-52092728D01*
X11165432Y-52092734D01*
X11295954Y-52279141D01*
X11456858Y-52440045D01*
X11456861Y-52440047D01*
X11643266Y-52570568D01*
X11700355Y-52597189D01*
X11701275Y-52597618D01*
X11753714Y-52643791D01*
X11772866Y-52710984D01*
X11752650Y-52777865D01*
X11701275Y-52822382D01*
X11643267Y-52849431D01*
X11643265Y-52849432D01*
X11456858Y-52979954D01*
X11295954Y-53140858D01*
X11165432Y-53327265D01*
X11165431Y-53327267D01*
X11138382Y-53385275D01*
X11092209Y-53437714D01*
X11025016Y-53456866D01*
X10958135Y-53436650D01*
X10913618Y-53385275D01*
X10886568Y-53327267D01*
X10886567Y-53327265D01*
X10884800Y-53324742D01*
X10756047Y-53140861D01*
X10756045Y-53140858D01*
X10595141Y-52979954D01*
X10408734Y-52849432D01*
X10408728Y-52849429D01*
X10350725Y-52822382D01*
X10298285Y-52776210D01*
X10279133Y-52709017D01*
X10299348Y-52642135D01*
X10350725Y-52597618D01*
X10351645Y-52597189D01*
X10408734Y-52570568D01*
X10595139Y-52440047D01*
X10756047Y-52279139D01*
X10886568Y-52092734D01*
X10913618Y-52034724D01*
X10959790Y-51982285D01*
X11026983Y-51963133D01*
X11093865Y-51983348D01*
G37*
G04 #@! TD.AperFunction*
G04 #@! TA.AperFunction,NonConductor*
G36*
X11093865Y-54523348D02*
G01*
X11138382Y-54574725D01*
X11165429Y-54632728D01*
X11165432Y-54632734D01*
X11295954Y-54819141D01*
X11456858Y-54980045D01*
X11456861Y-54980047D01*
X11643266Y-55110568D01*
X11693784Y-55134125D01*
X11701275Y-55137618D01*
X11753714Y-55183791D01*
X11772866Y-55250984D01*
X11752650Y-55317865D01*
X11701275Y-55362382D01*
X11643267Y-55389431D01*
X11643265Y-55389432D01*
X11456858Y-55519954D01*
X11295954Y-55680858D01*
X11165432Y-55867265D01*
X11165431Y-55867267D01*
X11138382Y-55925275D01*
X11092209Y-55977714D01*
X11025016Y-55996866D01*
X10958135Y-55976650D01*
X10913618Y-55925275D01*
X10886568Y-55867267D01*
X10886567Y-55867265D01*
X10756045Y-55680858D01*
X10595141Y-55519954D01*
X10408734Y-55389432D01*
X10408728Y-55389429D01*
X10350725Y-55362382D01*
X10298285Y-55316210D01*
X10279133Y-55249017D01*
X10299348Y-55182135D01*
X10350725Y-55137618D01*
X10358216Y-55134125D01*
X10408734Y-55110568D01*
X10595139Y-54980047D01*
X10756047Y-54819139D01*
X10886568Y-54632734D01*
X10913618Y-54574724D01*
X10959790Y-54522285D01*
X11026983Y-54503133D01*
X11093865Y-54523348D01*
G37*
G04 #@! TD.AperFunction*
G04 #@! TA.AperFunction,NonConductor*
G36*
X11093865Y-57063348D02*
G01*
X11138382Y-57114725D01*
X11165429Y-57172728D01*
X11165432Y-57172734D01*
X11295954Y-57359141D01*
X11456858Y-57520045D01*
X11456861Y-57520047D01*
X11643266Y-57650568D01*
X11701275Y-57677618D01*
X11753714Y-57723791D01*
X11772866Y-57790984D01*
X11752650Y-57857865D01*
X11701275Y-57902382D01*
X11643267Y-57929431D01*
X11643265Y-57929432D01*
X11456858Y-58059954D01*
X11295954Y-58220858D01*
X11165432Y-58407265D01*
X11165431Y-58407267D01*
X11138382Y-58465275D01*
X11092209Y-58517714D01*
X11025016Y-58536866D01*
X10958135Y-58516650D01*
X10913618Y-58465275D01*
X10886568Y-58407267D01*
X10886567Y-58407265D01*
X10853457Y-58359979D01*
X10756047Y-58220861D01*
X10756045Y-58220858D01*
X10595141Y-58059954D01*
X10408734Y-57929432D01*
X10408728Y-57929429D01*
X10350725Y-57902382D01*
X10298285Y-57856210D01*
X10279133Y-57789017D01*
X10299348Y-57722135D01*
X10350725Y-57677618D01*
X10408734Y-57650568D01*
X10595139Y-57520047D01*
X10756047Y-57359139D01*
X10886568Y-57172734D01*
X10913618Y-57114724D01*
X10959790Y-57062285D01*
X11026983Y-57043133D01*
X11093865Y-57063348D01*
G37*
G04 #@! TD.AperFunction*
G04 #@! TA.AperFunction,NonConductor*
G36*
X11093865Y-59603348D02*
G01*
X11138382Y-59654725D01*
X11165429Y-59712728D01*
X11165432Y-59712734D01*
X11295954Y-59899141D01*
X11456858Y-60060045D01*
X11456861Y-60060047D01*
X11643266Y-60190568D01*
X11701275Y-60217618D01*
X11753714Y-60263791D01*
X11772866Y-60330984D01*
X11752650Y-60397865D01*
X11701275Y-60442382D01*
X11643267Y-60469431D01*
X11643265Y-60469432D01*
X11456858Y-60599954D01*
X11295954Y-60760858D01*
X11165432Y-60947265D01*
X11165431Y-60947267D01*
X11138382Y-61005275D01*
X11092209Y-61057714D01*
X11025016Y-61076866D01*
X10958135Y-61056650D01*
X10913618Y-61005275D01*
X10896375Y-60968297D01*
X10886568Y-60947266D01*
X10756047Y-60760861D01*
X10756045Y-60760858D01*
X10595141Y-60599954D01*
X10408734Y-60469432D01*
X10408728Y-60469429D01*
X10350725Y-60442382D01*
X10298285Y-60396210D01*
X10279133Y-60329017D01*
X10299348Y-60262135D01*
X10350725Y-60217618D01*
X10408734Y-60190568D01*
X10595139Y-60060047D01*
X10756047Y-59899139D01*
X10886568Y-59712734D01*
X10913618Y-59654724D01*
X10959790Y-59602285D01*
X11026983Y-59583133D01*
X11093865Y-59603348D01*
G37*
G04 #@! TD.AperFunction*
G04 #@! TA.AperFunction,NonConductor*
G36*
X11093865Y-62143348D02*
G01*
X11138382Y-62194725D01*
X11165429Y-62252728D01*
X11165432Y-62252734D01*
X11295954Y-62439141D01*
X11456858Y-62600045D01*
X11456861Y-62600047D01*
X11643266Y-62730568D01*
X11662050Y-62739327D01*
X11701275Y-62757618D01*
X11753714Y-62803791D01*
X11772866Y-62870984D01*
X11752650Y-62937865D01*
X11701275Y-62982382D01*
X11643267Y-63009431D01*
X11643265Y-63009432D01*
X11456858Y-63139954D01*
X11295954Y-63300858D01*
X11165432Y-63487265D01*
X11165431Y-63487267D01*
X11138382Y-63545275D01*
X11092209Y-63597714D01*
X11025016Y-63616866D01*
X10958135Y-63596650D01*
X10913618Y-63545275D01*
X10886568Y-63487266D01*
X10756047Y-63300861D01*
X10756045Y-63300858D01*
X10595141Y-63139954D01*
X10408734Y-63009432D01*
X10408728Y-63009429D01*
X10350725Y-62982382D01*
X10298285Y-62936210D01*
X10279133Y-62869017D01*
X10299348Y-62802135D01*
X10350725Y-62757618D01*
X10408734Y-62730568D01*
X10595139Y-62600047D01*
X10756047Y-62439139D01*
X10886568Y-62252734D01*
X10913618Y-62194724D01*
X10959790Y-62142285D01*
X11026983Y-62123133D01*
X11093865Y-62143348D01*
G37*
G04 #@! TD.AperFunction*
G04 #@! TA.AperFunction,NonConductor*
G36*
X11093865Y-64683348D02*
G01*
X11138382Y-64734725D01*
X11165429Y-64792728D01*
X11165432Y-64792734D01*
X11295954Y-64979141D01*
X11456858Y-65140045D01*
X11456861Y-65140047D01*
X11643266Y-65270568D01*
X11701275Y-65297618D01*
X11753714Y-65343791D01*
X11772866Y-65410984D01*
X11752650Y-65477865D01*
X11701275Y-65522382D01*
X11643267Y-65549431D01*
X11643265Y-65549432D01*
X11456858Y-65679954D01*
X11295954Y-65840858D01*
X11165432Y-66027265D01*
X11165431Y-66027267D01*
X11138382Y-66085275D01*
X11092209Y-66137714D01*
X11025016Y-66156866D01*
X10958135Y-66136650D01*
X10913618Y-66085275D01*
X10886568Y-66027267D01*
X10886567Y-66027265D01*
X10756045Y-65840858D01*
X10595141Y-65679954D01*
X10408734Y-65549432D01*
X10408728Y-65549429D01*
X10350725Y-65522382D01*
X10298285Y-65476210D01*
X10279133Y-65409017D01*
X10299348Y-65342135D01*
X10350725Y-65297618D01*
X10408734Y-65270568D01*
X10595139Y-65140047D01*
X10756047Y-64979139D01*
X10886568Y-64792734D01*
X10913618Y-64734724D01*
X10959790Y-64682285D01*
X11026983Y-64663133D01*
X11093865Y-64683348D01*
G37*
G04 #@! TD.AperFunction*
G04 #@! TA.AperFunction,NonConductor*
G36*
X11093865Y-67223348D02*
G01*
X11138382Y-67274725D01*
X11165429Y-67332728D01*
X11165432Y-67332734D01*
X11295954Y-67519141D01*
X11456858Y-67680045D01*
X11456861Y-67680047D01*
X11643266Y-67810568D01*
X11701275Y-67837618D01*
X11753714Y-67883791D01*
X11772866Y-67950984D01*
X11752650Y-68017865D01*
X11701275Y-68062382D01*
X11643267Y-68089431D01*
X11643265Y-68089432D01*
X11456858Y-68219954D01*
X11295954Y-68380858D01*
X11165432Y-68567265D01*
X11165431Y-68567267D01*
X11138382Y-68625275D01*
X11092209Y-68677714D01*
X11025016Y-68696866D01*
X10958135Y-68676650D01*
X10913618Y-68625275D01*
X10886568Y-68567266D01*
X10773833Y-68406262D01*
X10756045Y-68380858D01*
X10595141Y-68219954D01*
X10408734Y-68089432D01*
X10408728Y-68089429D01*
X10350725Y-68062382D01*
X10298285Y-68016210D01*
X10279133Y-67949017D01*
X10299348Y-67882135D01*
X10350725Y-67837618D01*
X10408734Y-67810568D01*
X10595139Y-67680047D01*
X10756047Y-67519139D01*
X10886568Y-67332734D01*
X10913618Y-67274724D01*
X10959790Y-67222285D01*
X11026983Y-67203133D01*
X11093865Y-67223348D01*
G37*
G04 #@! TD.AperFunction*
G04 #@! TA.AperFunction,NonConductor*
G36*
X11093865Y-69763348D02*
G01*
X11138382Y-69814725D01*
X11165429Y-69872728D01*
X11165432Y-69872734D01*
X11295954Y-70059141D01*
X11456858Y-70220045D01*
X11456861Y-70220047D01*
X11643266Y-70350568D01*
X11701275Y-70377618D01*
X11753714Y-70423791D01*
X11772866Y-70490984D01*
X11752650Y-70557865D01*
X11701275Y-70602382D01*
X11643267Y-70629431D01*
X11643265Y-70629432D01*
X11456858Y-70759954D01*
X11295954Y-70920858D01*
X11165432Y-71107265D01*
X11165431Y-71107267D01*
X11138382Y-71165275D01*
X11092209Y-71217714D01*
X11025016Y-71236866D01*
X10958135Y-71216650D01*
X10913618Y-71165275D01*
X10896832Y-71129278D01*
X10886568Y-71107266D01*
X10756047Y-70920861D01*
X10756045Y-70920858D01*
X10595141Y-70759954D01*
X10408734Y-70629432D01*
X10408728Y-70629429D01*
X10350725Y-70602382D01*
X10298285Y-70556210D01*
X10279133Y-70489017D01*
X10299348Y-70422135D01*
X10350725Y-70377618D01*
X10408734Y-70350568D01*
X10595139Y-70220047D01*
X10756047Y-70059139D01*
X10886568Y-69872734D01*
X10913618Y-69814724D01*
X10959790Y-69762285D01*
X11026983Y-69743133D01*
X11093865Y-69763348D01*
G37*
G04 #@! TD.AperFunction*
G04 #@! TA.AperFunction,NonConductor*
G36*
X11093865Y-72303348D02*
G01*
X11138382Y-72354725D01*
X11165429Y-72412728D01*
X11165432Y-72412734D01*
X11295954Y-72599141D01*
X11456858Y-72760045D01*
X11472375Y-72770910D01*
X11643266Y-72890568D01*
X11701275Y-72917618D01*
X11753714Y-72963791D01*
X11772866Y-73030984D01*
X11752650Y-73097865D01*
X11701275Y-73142382D01*
X11643267Y-73169431D01*
X11643265Y-73169432D01*
X11456858Y-73299954D01*
X11295954Y-73460858D01*
X11165432Y-73647265D01*
X11165431Y-73647267D01*
X11138382Y-73705275D01*
X11092209Y-73757714D01*
X11025016Y-73776866D01*
X10958135Y-73756650D01*
X10913618Y-73705275D01*
X10886568Y-73647267D01*
X10886567Y-73647265D01*
X10756045Y-73460858D01*
X10595141Y-73299954D01*
X10408734Y-73169432D01*
X10408728Y-73169429D01*
X10350725Y-73142382D01*
X10298285Y-73096210D01*
X10279133Y-73029017D01*
X10299348Y-72962135D01*
X10350725Y-72917618D01*
X10408734Y-72890568D01*
X10595139Y-72760047D01*
X10756047Y-72599139D01*
X10886568Y-72412734D01*
X10913618Y-72354724D01*
X10959790Y-72302285D01*
X11026983Y-72283133D01*
X11093865Y-72303348D01*
G37*
G04 #@! TD.AperFunction*
G04 #@! TA.AperFunction,NonConductor*
G36*
X11093865Y-74843348D02*
G01*
X11138382Y-74894725D01*
X11165429Y-74952728D01*
X11165432Y-74952734D01*
X11295954Y-75139141D01*
X11456858Y-75300045D01*
X11456861Y-75300047D01*
X11643266Y-75430568D01*
X11701275Y-75457618D01*
X11753714Y-75503791D01*
X11772866Y-75570984D01*
X11752650Y-75637865D01*
X11701275Y-75682382D01*
X11643267Y-75709431D01*
X11643265Y-75709432D01*
X11456858Y-75839954D01*
X11295954Y-76000858D01*
X11165432Y-76187265D01*
X11165431Y-76187267D01*
X11138382Y-76245275D01*
X11092209Y-76297714D01*
X11025016Y-76316866D01*
X10958135Y-76296650D01*
X10913618Y-76245275D01*
X10886568Y-76187267D01*
X10886567Y-76187265D01*
X10874925Y-76170639D01*
X10756047Y-76000861D01*
X10756045Y-76000858D01*
X10595141Y-75839954D01*
X10408734Y-75709432D01*
X10408728Y-75709429D01*
X10350725Y-75682382D01*
X10298285Y-75636210D01*
X10279133Y-75569017D01*
X10299348Y-75502135D01*
X10350725Y-75457618D01*
X10408734Y-75430568D01*
X10595139Y-75300047D01*
X10756047Y-75139139D01*
X10886568Y-74952734D01*
X10913618Y-74894724D01*
X10959790Y-74842285D01*
X11026983Y-74823133D01*
X11093865Y-74843348D01*
G37*
G04 #@! TD.AperFunction*
G04 #@! TA.AperFunction,NonConductor*
G36*
X11093865Y-77383348D02*
G01*
X11138382Y-77434725D01*
X11165429Y-77492728D01*
X11165432Y-77492734D01*
X11295954Y-77679141D01*
X11456858Y-77840045D01*
X11456861Y-77840047D01*
X11643266Y-77970568D01*
X11701275Y-77997618D01*
X11753714Y-78043791D01*
X11772866Y-78110984D01*
X11752650Y-78177865D01*
X11701275Y-78222382D01*
X11643267Y-78249431D01*
X11643265Y-78249432D01*
X11456858Y-78379954D01*
X11295954Y-78540858D01*
X11165432Y-78727265D01*
X11165431Y-78727267D01*
X11138382Y-78785275D01*
X11092209Y-78837714D01*
X11025016Y-78856866D01*
X10958135Y-78836650D01*
X10913618Y-78785275D01*
X10896120Y-78747750D01*
X10886568Y-78727266D01*
X10756047Y-78540861D01*
X10756045Y-78540858D01*
X10595141Y-78379954D01*
X10408734Y-78249432D01*
X10408728Y-78249429D01*
X10350725Y-78222382D01*
X10298285Y-78176210D01*
X10279133Y-78109017D01*
X10299348Y-78042135D01*
X10350725Y-77997618D01*
X10408734Y-77970568D01*
X10595139Y-77840047D01*
X10756047Y-77679139D01*
X10886568Y-77492734D01*
X10913618Y-77434724D01*
X10959790Y-77382285D01*
X11026983Y-77363133D01*
X11093865Y-77383348D01*
G37*
G04 #@! TD.AperFunction*
G04 #@! TA.AperFunction,NonConductor*
G36*
X11093865Y-79923348D02*
G01*
X11138382Y-79974725D01*
X11165429Y-80032728D01*
X11165432Y-80032734D01*
X11295954Y-80219141D01*
X11456858Y-80380045D01*
X11456861Y-80380047D01*
X11643266Y-80510568D01*
X11701275Y-80537618D01*
X11753714Y-80583791D01*
X11772866Y-80650984D01*
X11752650Y-80717865D01*
X11701275Y-80762382D01*
X11643267Y-80789431D01*
X11643265Y-80789432D01*
X11456858Y-80919954D01*
X11295954Y-81080858D01*
X11165432Y-81267265D01*
X11165431Y-81267267D01*
X11138382Y-81325275D01*
X11092209Y-81377714D01*
X11025016Y-81396866D01*
X10958135Y-81376650D01*
X10913618Y-81325275D01*
X10886568Y-81267267D01*
X10886567Y-81267265D01*
X10756045Y-81080858D01*
X10595141Y-80919954D01*
X10408734Y-80789432D01*
X10408728Y-80789429D01*
X10350725Y-80762382D01*
X10298285Y-80716210D01*
X10279133Y-80649017D01*
X10299348Y-80582135D01*
X10350725Y-80537618D01*
X10408734Y-80510568D01*
X10595139Y-80380047D01*
X10756047Y-80219139D01*
X10886568Y-80032734D01*
X10913618Y-79974724D01*
X10959790Y-79922285D01*
X11026983Y-79903133D01*
X11093865Y-79923348D01*
G37*
G04 #@! TD.AperFunction*
M02*
