G04 #@! TF.GenerationSoftware,KiCad,Pcbnew,8.0.6-8.0.6-0~ubuntu22.04.1*
G04 #@! TF.CreationDate,2024-11-19T00:49:20+00:00*
G04 #@! TF.ProjectId,hellenbremen,68656c6c-656e-4627-9265-6d656e2e6b69,rev?*
G04 #@! TF.SameCoordinates,Original*
G04 #@! TF.FileFunction,Soldermask,Top*
G04 #@! TF.FilePolarity,Negative*
%FSLAX46Y46*%
G04 Gerber Fmt 4.6, Leading zero omitted, Abs format (unit mm)*
G04 Created by KiCad (PCBNEW 8.0.6-8.0.6-0~ubuntu22.04.1) date 2024-11-19 00:49:20*
%MOMM*%
%LPD*%
G01*
G04 APERTURE LIST*
%ADD10R,3.048000X1.397000*%
%ADD11R,5.918200X5.511800*%
%ADD12C,0.600000*%
%ADD13C,1.500000*%
%ADD14C,2.000000*%
%ADD15R,0.711200X1.295400*%
%ADD16R,1.295400X0.711200*%
%ADD17R,0.889000X0.889000*%
%ADD18R,1.700000X1.700000*%
%ADD19O,1.700000X1.700000*%
%ADD20R,1.460500X0.533400*%
%ADD21C,0.650000*%
%ADD22C,3.600000*%
%ADD23C,2.100000*%
%ADD24C,1.600000*%
G04 APERTURE END LIST*
G04 #@! TO.C,R2*
G36*
G01*
X93490000Y18981000D02*
X93490000Y18611000D01*
G75*
G02*
X93355000Y18476000I-135000J0D01*
G01*
X93085000Y18476000D01*
G75*
G02*
X92950000Y18611000I0J135000D01*
G01*
X92950000Y18981000D01*
G75*
G02*
X93085000Y19116000I135000J0D01*
G01*
X93355000Y19116000D01*
G75*
G02*
X93490000Y18981000I0J-135000D01*
G01*
G37*
G36*
G01*
X92470000Y18981000D02*
X92470000Y18611000D01*
G75*
G02*
X92335000Y18476000I-135000J0D01*
G01*
X92065000Y18476000D01*
G75*
G02*
X91930000Y18611000I0J135000D01*
G01*
X91930000Y18981000D01*
G75*
G02*
X92065000Y19116000I135000J0D01*
G01*
X92335000Y19116000D01*
G75*
G02*
X92470000Y18981000I0J-135000D01*
G01*
G37*
G04 #@! TD*
G04 #@! TO.C,C1*
G36*
G01*
X86672000Y98302000D02*
X86672000Y98802000D01*
G75*
G02*
X86897000Y99027000I225000J0D01*
G01*
X87347000Y99027000D01*
G75*
G02*
X87572000Y98802000I0J-225000D01*
G01*
X87572000Y98302000D01*
G75*
G02*
X87347000Y98077000I-225000J0D01*
G01*
X86897000Y98077000D01*
G75*
G02*
X86672000Y98302000I0J225000D01*
G01*
G37*
G36*
G01*
X88222000Y98302000D02*
X88222000Y98802000D01*
G75*
G02*
X88447000Y99027000I225000J0D01*
G01*
X88897000Y99027000D01*
G75*
G02*
X89122000Y98802000I0J-225000D01*
G01*
X89122000Y98302000D01*
G75*
G02*
X88897000Y98077000I-225000J0D01*
G01*
X88447000Y98077000D01*
G75*
G02*
X88222000Y98302000I0J225000D01*
G01*
G37*
G04 #@! TD*
G04 #@! TO.C,R5*
G36*
G01*
X34613000Y18306000D02*
X34983000Y18306000D01*
G75*
G02*
X35118000Y18171000I0J-135000D01*
G01*
X35118000Y17901000D01*
G75*
G02*
X34983000Y17766000I-135000J0D01*
G01*
X34613000Y17766000D01*
G75*
G02*
X34478000Y17901000I0J135000D01*
G01*
X34478000Y18171000D01*
G75*
G02*
X34613000Y18306000I135000J0D01*
G01*
G37*
G36*
G01*
X34613000Y17286000D02*
X34983000Y17286000D01*
G75*
G02*
X35118000Y17151000I0J-135000D01*
G01*
X35118000Y16881000D01*
G75*
G02*
X34983000Y16746000I-135000J0D01*
G01*
X34613000Y16746000D01*
G75*
G02*
X34478000Y16881000I0J135000D01*
G01*
X34478000Y17151000D01*
G75*
G02*
X34613000Y17286000I135000J0D01*
G01*
G37*
G04 #@! TD*
G04 #@! TO.C,R7*
G36*
G01*
X77285000Y79795000D02*
X77655000Y79795000D01*
G75*
G02*
X77790000Y79660000I0J-135000D01*
G01*
X77790000Y79390000D01*
G75*
G02*
X77655000Y79255000I-135000J0D01*
G01*
X77285000Y79255000D01*
G75*
G02*
X77150000Y79390000I0J135000D01*
G01*
X77150000Y79660000D01*
G75*
G02*
X77285000Y79795000I135000J0D01*
G01*
G37*
G36*
G01*
X77285000Y78775000D02*
X77655000Y78775000D01*
G75*
G02*
X77790000Y78640000I0J-135000D01*
G01*
X77790000Y78370000D01*
G75*
G02*
X77655000Y78235000I-135000J0D01*
G01*
X77285000Y78235000D01*
G75*
G02*
X77150000Y78370000I0J135000D01*
G01*
X77150000Y78640000D01*
G75*
G02*
X77285000Y78775000I135000J0D01*
G01*
G37*
G04 #@! TD*
G04 #@! TO.C,R1*
G36*
G01*
X93488000Y22029000D02*
X93488000Y21659000D01*
G75*
G02*
X93353000Y21524000I-135000J0D01*
G01*
X93083000Y21524000D01*
G75*
G02*
X92948000Y21659000I0J135000D01*
G01*
X92948000Y22029000D01*
G75*
G02*
X93083000Y22164000I135000J0D01*
G01*
X93353000Y22164000D01*
G75*
G02*
X93488000Y22029000I0J-135000D01*
G01*
G37*
G36*
G01*
X92468000Y22029000D02*
X92468000Y21659000D01*
G75*
G02*
X92333000Y21524000I-135000J0D01*
G01*
X92063000Y21524000D01*
G75*
G02*
X91928000Y21659000I0J135000D01*
G01*
X91928000Y22029000D01*
G75*
G02*
X92063000Y22164000I135000J0D01*
G01*
X92333000Y22164000D01*
G75*
G02*
X92468000Y22029000I0J-135000D01*
G01*
G37*
G04 #@! TD*
D10*
G04 #@! TO.C,Q2*
X34394200Y74910000D03*
D11*
X27040900Y77200000D03*
D10*
X34394200Y79490000D03*
G04 #@! TD*
G04 #@! TO.C,D3*
G36*
G01*
X91771000Y78821500D02*
X91771000Y79166500D01*
G75*
G02*
X91918500Y79314000I147500J0D01*
G01*
X92213500Y79314000D01*
G75*
G02*
X92361000Y79166500I0J-147500D01*
G01*
X92361000Y78821500D01*
G75*
G02*
X92213500Y78674000I-147500J0D01*
G01*
X91918500Y78674000D01*
G75*
G02*
X91771000Y78821500I0J147500D01*
G01*
G37*
G36*
G01*
X92741000Y78821500D02*
X92741000Y79166500D01*
G75*
G02*
X92888500Y79314000I147500J0D01*
G01*
X93183500Y79314000D01*
G75*
G02*
X93331000Y79166500I0J-147500D01*
G01*
X93331000Y78821500D01*
G75*
G02*
X93183500Y78674000I-147500J0D01*
G01*
X92888500Y78674000D01*
G75*
G02*
X92741000Y78821500I0J147500D01*
G01*
G37*
G04 #@! TD*
D12*
G04 #@! TO.C,M4*
X39837000Y45305000D03*
X39837000Y44105000D03*
X39837000Y46505000D03*
X39837000Y47705000D03*
X25412000Y41245000D03*
X25412000Y40245000D03*
G04 #@! TD*
G04 #@! TO.C,C4*
G36*
G01*
X82580000Y78824000D02*
X82580000Y79164000D01*
G75*
G02*
X82720000Y79304000I140000J0D01*
G01*
X83000000Y79304000D01*
G75*
G02*
X83140000Y79164000I0J-140000D01*
G01*
X83140000Y78824000D01*
G75*
G02*
X83000000Y78684000I-140000J0D01*
G01*
X82720000Y78684000D01*
G75*
G02*
X82580000Y78824000I0J140000D01*
G01*
G37*
G36*
G01*
X83540000Y78824000D02*
X83540000Y79164000D01*
G75*
G02*
X83680000Y79304000I140000J0D01*
G01*
X83960000Y79304000D01*
G75*
G02*
X84100000Y79164000I0J-140000D01*
G01*
X84100000Y78824000D01*
G75*
G02*
X83960000Y78684000I-140000J0D01*
G01*
X83680000Y78684000D01*
G75*
G02*
X83540000Y78824000I0J140000D01*
G01*
G37*
G04 #@! TD*
G04 #@! TO.C,R8*
G36*
G01*
X39325000Y67331000D02*
X39325000Y66781000D01*
G75*
G02*
X39125000Y66581000I-200000J0D01*
G01*
X38725000Y66581000D01*
G75*
G02*
X38525000Y66781000I0J200000D01*
G01*
X38525000Y67331000D01*
G75*
G02*
X38725000Y67531000I200000J0D01*
G01*
X39125000Y67531000D01*
G75*
G02*
X39325000Y67331000I0J-200000D01*
G01*
G37*
G36*
G01*
X37675000Y67331000D02*
X37675000Y66781000D01*
G75*
G02*
X37475000Y66581000I-200000J0D01*
G01*
X37075000Y66581000D01*
G75*
G02*
X36875000Y66781000I0J200000D01*
G01*
X36875000Y67331000D01*
G75*
G02*
X37075000Y67531000I200000J0D01*
G01*
X37475000Y67531000D01*
G75*
G02*
X37675000Y67331000I0J-200000D01*
G01*
G37*
G04 #@! TD*
G04 #@! TO.C,D1*
G36*
G01*
X77297500Y81829000D02*
X77642500Y81829000D01*
G75*
G02*
X77790000Y81681500I0J-147500D01*
G01*
X77790000Y81386500D01*
G75*
G02*
X77642500Y81239000I-147500J0D01*
G01*
X77297500Y81239000D01*
G75*
G02*
X77150000Y81386500I0J147500D01*
G01*
X77150000Y81681500D01*
G75*
G02*
X77297500Y81829000I147500J0D01*
G01*
G37*
G36*
G01*
X77297500Y80859000D02*
X77642500Y80859000D01*
G75*
G02*
X77790000Y80711500I0J-147500D01*
G01*
X77790000Y80416500D01*
G75*
G02*
X77642500Y80269000I-147500J0D01*
G01*
X77297500Y80269000D01*
G75*
G02*
X77150000Y80416500I0J147500D01*
G01*
X77150000Y80711500D01*
G75*
G02*
X77297500Y80859000I147500J0D01*
G01*
G37*
G04 #@! TD*
G04 #@! TO.C,D2*
G36*
G01*
X90088500Y97010000D02*
X89743500Y97010000D01*
G75*
G02*
X89596000Y97157500I0J147500D01*
G01*
X89596000Y97452500D01*
G75*
G02*
X89743500Y97600000I147500J0D01*
G01*
X90088500Y97600000D01*
G75*
G02*
X90236000Y97452500I0J-147500D01*
G01*
X90236000Y97157500D01*
G75*
G02*
X90088500Y97010000I-147500J0D01*
G01*
G37*
G36*
G01*
X90088500Y97980000D02*
X89743500Y97980000D01*
G75*
G02*
X89596000Y98127500I0J147500D01*
G01*
X89596000Y98422500D01*
G75*
G02*
X89743500Y98570000I147500J0D01*
G01*
X90088500Y98570000D01*
G75*
G02*
X90236000Y98422500I0J-147500D01*
G01*
X90236000Y98127500D01*
G75*
G02*
X90088500Y97980000I-147500J0D01*
G01*
G37*
G04 #@! TD*
D10*
G04 #@! TO.C,Q1*
X34394200Y67210000D03*
D11*
X27040900Y69500000D03*
D10*
X34394200Y71790000D03*
G04 #@! TD*
D13*
G04 #@! TO.C,M2*
X57658995Y94922999D03*
X57658995Y88523002D03*
X57658995Y86622999D03*
X57658995Y82322999D03*
D12*
X58108994Y79923002D03*
X58108994Y78923001D03*
D13*
X57658995Y76072999D03*
X42158998Y95373001D03*
X42158998Y93523002D03*
X42158998Y88572999D03*
X42158998Y76523001D03*
G04 #@! TD*
G04 #@! TO.C,R11*
G36*
G01*
X39325000Y75205000D02*
X39325000Y74655000D01*
G75*
G02*
X39125000Y74455000I-200000J0D01*
G01*
X38725000Y74455000D01*
G75*
G02*
X38525000Y74655000I0J200000D01*
G01*
X38525000Y75205000D01*
G75*
G02*
X38725000Y75405000I200000J0D01*
G01*
X39125000Y75405000D01*
G75*
G02*
X39325000Y75205000I0J-200000D01*
G01*
G37*
G36*
G01*
X37675000Y75205000D02*
X37675000Y74655000D01*
G75*
G02*
X37475000Y74455000I-200000J0D01*
G01*
X37075000Y74455000D01*
G75*
G02*
X36875000Y74655000I0J200000D01*
G01*
X36875000Y75205000D01*
G75*
G02*
X37075000Y75405000I200000J0D01*
G01*
X37475000Y75405000D01*
G75*
G02*
X37675000Y75205000I0J-200000D01*
G01*
G37*
G04 #@! TD*
D14*
G04 #@! TO.C,TP5*
X89662000Y56388000D03*
G04 #@! TD*
D15*
G04 #@! TO.C,U1*
X94980001Y95504000D03*
X93980000Y95504000D03*
X92980000Y95504000D03*
X91979999Y95504000D03*
X90980001Y95504000D03*
X89980001Y95504000D03*
X88980000Y95504000D03*
X87979999Y95504000D03*
X86979999Y95504000D03*
X85980001Y95504000D03*
X84980000Y95504000D03*
X83980000Y95504000D03*
X82979999Y95504000D03*
D16*
X81330000Y94104001D03*
X81330000Y93104000D03*
X81330000Y92104000D03*
X81330000Y91103999D03*
X81330000Y90104001D03*
X81330000Y89104001D03*
X81330000Y88104000D03*
X81330000Y87103999D03*
X81330000Y86103999D03*
X81330000Y85104001D03*
X81330000Y84104000D03*
X81330000Y83104000D03*
X81330000Y82103999D03*
D15*
X82979999Y80704000D03*
X83980000Y80704000D03*
X84980000Y80704000D03*
X85980001Y80704000D03*
X86979999Y80704000D03*
X87979999Y80704000D03*
X88980000Y80704000D03*
X89980001Y80704000D03*
X90980001Y80704000D03*
X91979999Y80704000D03*
X92980000Y80704000D03*
X93980000Y80704000D03*
X94980001Y80704000D03*
D17*
X89180000Y89984000D03*
X89180000Y88784000D03*
X89180000Y87584000D03*
X87980000Y89984000D03*
X87980000Y88784000D03*
X87980000Y87584000D03*
X86780000Y89984000D03*
X86780000Y88784000D03*
X86780000Y87584000D03*
G04 #@! TD*
D14*
G04 #@! TO.C,TP4*
X62230000Y88646000D03*
G04 #@! TD*
D18*
G04 #@! TO.C,J2*
X92441000Y74290000D03*
D19*
X89901000Y74290000D03*
X87361000Y74290000D03*
G04 #@! TD*
D20*
G04 #@! TO.C,U2*
X33224150Y24190000D03*
X33224150Y25460000D03*
X33224150Y26730000D03*
X33224150Y28000000D03*
X27775850Y28000000D03*
X27775850Y26730000D03*
X27775850Y25460000D03*
X27775850Y24190000D03*
G04 #@! TD*
G04 #@! TO.C,C2*
G36*
G01*
X87632000Y97112000D02*
X87632000Y97452000D01*
G75*
G02*
X87772000Y97592000I140000J0D01*
G01*
X88052000Y97592000D01*
G75*
G02*
X88192000Y97452000I0J-140000D01*
G01*
X88192000Y97112000D01*
G75*
G02*
X88052000Y96972000I-140000J0D01*
G01*
X87772000Y96972000D01*
G75*
G02*
X87632000Y97112000I0J140000D01*
G01*
G37*
G36*
G01*
X88592000Y97112000D02*
X88592000Y97452000D01*
G75*
G02*
X88732000Y97592000I140000J0D01*
G01*
X89012000Y97592000D01*
G75*
G02*
X89152000Y97452000I0J-140000D01*
G01*
X89152000Y97112000D01*
G75*
G02*
X89012000Y96972000I-140000J0D01*
G01*
X88732000Y96972000D01*
G75*
G02*
X88592000Y97112000I0J140000D01*
G01*
G37*
G04 #@! TD*
D14*
G04 #@! TO.C,TP3*
X62470500Y84314501D03*
G04 #@! TD*
G04 #@! TO.C,R12*
G36*
G01*
X22167000Y96284000D02*
X22537000Y96284000D01*
G75*
G02*
X22672000Y96149000I0J-135000D01*
G01*
X22672000Y95879000D01*
G75*
G02*
X22537000Y95744000I-135000J0D01*
G01*
X22167000Y95744000D01*
G75*
G02*
X22032000Y95879000I0J135000D01*
G01*
X22032000Y96149000D01*
G75*
G02*
X22167000Y96284000I135000J0D01*
G01*
G37*
G36*
G01*
X22167000Y95264000D02*
X22537000Y95264000D01*
G75*
G02*
X22672000Y95129000I0J-135000D01*
G01*
X22672000Y94859000D01*
G75*
G02*
X22537000Y94724000I-135000J0D01*
G01*
X22167000Y94724000D01*
G75*
G02*
X22032000Y94859000I0J135000D01*
G01*
X22032000Y95129000D01*
G75*
G02*
X22167000Y95264000I135000J0D01*
G01*
G37*
G04 #@! TD*
D12*
G04 #@! TO.C,M6*
X34193000Y51874998D03*
X34193000Y50924998D03*
X34193000Y49975000D03*
X25493000Y50974998D03*
X25493000Y51874998D03*
G04 #@! TD*
D21*
G04 #@! TO.C,J3*
X95895000Y17110000D03*
X95895000Y22890000D03*
G36*
G01*
X95245000Y16500000D02*
X94395000Y16500000D01*
G75*
G02*
X94245000Y16650000I0J150000D01*
G01*
X94245000Y16950000D01*
G75*
G02*
X94395000Y17100000I150000J0D01*
G01*
X95245000Y17100000D01*
G75*
G02*
X95395000Y16950000I0J-150000D01*
G01*
X95395000Y16650000D01*
G75*
G02*
X95245000Y16500000I-150000J0D01*
G01*
G37*
G36*
G01*
X95245000Y17300000D02*
X94395000Y17300000D01*
G75*
G02*
X94245000Y17450000I0J150000D01*
G01*
X94245000Y17750000D01*
G75*
G02*
X94395000Y17900000I150000J0D01*
G01*
X95245000Y17900000D01*
G75*
G02*
X95395000Y17750000I0J-150000D01*
G01*
X95395000Y17450000D01*
G75*
G02*
X95245000Y17300000I-150000J0D01*
G01*
G37*
G36*
G01*
X95320000Y18600000D02*
X94320000Y18600000D01*
G75*
G02*
X94245000Y18675000I0J75000D01*
G01*
X94245000Y18825000D01*
G75*
G02*
X94320000Y18900000I75000J0D01*
G01*
X95320000Y18900000D01*
G75*
G02*
X95395000Y18825000I0J-75000D01*
G01*
X95395000Y18675000D01*
G75*
G02*
X95320000Y18600000I-75000J0D01*
G01*
G37*
G36*
G01*
X95320000Y19600000D02*
X94320000Y19600000D01*
G75*
G02*
X94245000Y19675000I0J75000D01*
G01*
X94245000Y19825000D01*
G75*
G02*
X94320000Y19900000I75000J0D01*
G01*
X95320000Y19900000D01*
G75*
G02*
X95395000Y19825000I0J-75000D01*
G01*
X95395000Y19675000D01*
G75*
G02*
X95320000Y19600000I-75000J0D01*
G01*
G37*
G36*
G01*
X95320000Y20100000D02*
X94320000Y20100000D01*
G75*
G02*
X94245000Y20175000I0J75000D01*
G01*
X94245000Y20325000D01*
G75*
G02*
X94320000Y20400000I75000J0D01*
G01*
X95320000Y20400000D01*
G75*
G02*
X95395000Y20325000I0J-75000D01*
G01*
X95395000Y20175000D01*
G75*
G02*
X95320000Y20100000I-75000J0D01*
G01*
G37*
G36*
G01*
X95320000Y21100000D02*
X94320000Y21100000D01*
G75*
G02*
X94245000Y21175000I0J75000D01*
G01*
X94245000Y21325000D01*
G75*
G02*
X94320000Y21400000I75000J0D01*
G01*
X95320000Y21400000D01*
G75*
G02*
X95395000Y21325000I0J-75000D01*
G01*
X95395000Y21175000D01*
G75*
G02*
X95320000Y21100000I-75000J0D01*
G01*
G37*
G36*
G01*
X95245000Y22100000D02*
X94395000Y22100000D01*
G75*
G02*
X94245000Y22250000I0J150000D01*
G01*
X94245000Y22550000D01*
G75*
G02*
X94395000Y22700000I150000J0D01*
G01*
X95245000Y22700000D01*
G75*
G02*
X95395000Y22550000I0J-150000D01*
G01*
X95395000Y22250000D01*
G75*
G02*
X95245000Y22100000I-150000J0D01*
G01*
G37*
G36*
G01*
X95245000Y22900000D02*
X94395000Y22900000D01*
G75*
G02*
X94245000Y23050000I0J150000D01*
G01*
X94245000Y23350000D01*
G75*
G02*
X94395000Y23500000I150000J0D01*
G01*
X95245000Y23500000D01*
G75*
G02*
X95395000Y23350000I0J-150000D01*
G01*
X95395000Y23050000D01*
G75*
G02*
X95245000Y22900000I-150000J0D01*
G01*
G37*
G36*
G01*
X95245000Y22900000D02*
X94395000Y22900000D01*
G75*
G02*
X94245000Y23050000I0J150000D01*
G01*
X94245000Y23350000D01*
G75*
G02*
X94395000Y23500000I150000J0D01*
G01*
X95245000Y23500000D01*
G75*
G02*
X95395000Y23350000I0J-150000D01*
G01*
X95395000Y23050000D01*
G75*
G02*
X95245000Y22900000I-150000J0D01*
G01*
G37*
G36*
G01*
X95245000Y22100000D02*
X94395000Y22100000D01*
G75*
G02*
X94245000Y22250000I0J150000D01*
G01*
X94245000Y22550000D01*
G75*
G02*
X94395000Y22700000I150000J0D01*
G01*
X95245000Y22700000D01*
G75*
G02*
X95395000Y22550000I0J-150000D01*
G01*
X95395000Y22250000D01*
G75*
G02*
X95245000Y22100000I-150000J0D01*
G01*
G37*
G36*
G01*
X95320000Y21600000D02*
X94320000Y21600000D01*
G75*
G02*
X94245000Y21675000I0J75000D01*
G01*
X94245000Y21825000D01*
G75*
G02*
X94320000Y21900000I75000J0D01*
G01*
X95320000Y21900000D01*
G75*
G02*
X95395000Y21825000I0J-75000D01*
G01*
X95395000Y21675000D01*
G75*
G02*
X95320000Y21600000I-75000J0D01*
G01*
G37*
G36*
G01*
X95320000Y20600000D02*
X94320000Y20600000D01*
G75*
G02*
X94245000Y20675000I0J75000D01*
G01*
X94245000Y20825000D01*
G75*
G02*
X94320000Y20900000I75000J0D01*
G01*
X95320000Y20900000D01*
G75*
G02*
X95395000Y20825000I0J-75000D01*
G01*
X95395000Y20675000D01*
G75*
G02*
X95320000Y20600000I-75000J0D01*
G01*
G37*
G36*
G01*
X95320000Y19100000D02*
X94320000Y19100000D01*
G75*
G02*
X94245000Y19175000I0J75000D01*
G01*
X94245000Y19325000D01*
G75*
G02*
X94320000Y19400000I75000J0D01*
G01*
X95320000Y19400000D01*
G75*
G02*
X95395000Y19325000I0J-75000D01*
G01*
X95395000Y19175000D01*
G75*
G02*
X95320000Y19100000I-75000J0D01*
G01*
G37*
G36*
G01*
X95320000Y18100000D02*
X94320000Y18100000D01*
G75*
G02*
X94245000Y18175000I0J75000D01*
G01*
X94245000Y18325000D01*
G75*
G02*
X94320000Y18400000I75000J0D01*
G01*
X95320000Y18400000D01*
G75*
G02*
X95395000Y18325000I0J-75000D01*
G01*
X95395000Y18175000D01*
G75*
G02*
X95320000Y18100000I-75000J0D01*
G01*
G37*
G36*
G01*
X95245000Y17300000D02*
X94395000Y17300000D01*
G75*
G02*
X94245000Y17450000I0J150000D01*
G01*
X94245000Y17750000D01*
G75*
G02*
X94395000Y17900000I150000J0D01*
G01*
X95245000Y17900000D01*
G75*
G02*
X95395000Y17750000I0J-150000D01*
G01*
X95395000Y17450000D01*
G75*
G02*
X95245000Y17300000I-150000J0D01*
G01*
G37*
G36*
G01*
X95245000Y16500000D02*
X94395000Y16500000D01*
G75*
G02*
X94245000Y16650000I0J150000D01*
G01*
X94245000Y16950000D01*
G75*
G02*
X94395000Y17100000I150000J0D01*
G01*
X95245000Y17100000D01*
G75*
G02*
X95395000Y16950000I0J-150000D01*
G01*
X95395000Y16650000D01*
G75*
G02*
X95245000Y16500000I-150000J0D01*
G01*
G37*
G36*
G01*
X96145000Y13800000D02*
X94645000Y13800000D01*
G75*
G02*
X94395000Y14050000I0J250000D01*
G01*
X94395000Y15730000D01*
G75*
G02*
X94645000Y15980000I250000J0D01*
G01*
X96145000Y15980000D01*
G75*
G02*
X96395000Y15730000I0J-250000D01*
G01*
X96395000Y14050000D01*
G75*
G02*
X96145000Y13800000I-250000J0D01*
G01*
G37*
G36*
G01*
X100075000Y13800000D02*
X98575000Y13800000D01*
G75*
G02*
X98325000Y14050000I0J250000D01*
G01*
X98325000Y15730000D01*
G75*
G02*
X98575000Y15980000I250000J0D01*
G01*
X100075000Y15980000D01*
G75*
G02*
X100325000Y15730000I0J-250000D01*
G01*
X100325000Y14050000D01*
G75*
G02*
X100075000Y13800000I-250000J0D01*
G01*
G37*
G36*
G01*
X96145000Y24020000D02*
X94645000Y24020000D01*
G75*
G02*
X94395000Y24270000I0J250000D01*
G01*
X94395000Y25950000D01*
G75*
G02*
X94645000Y26200000I250000J0D01*
G01*
X96145000Y26200000D01*
G75*
G02*
X96395000Y25950000I0J-250000D01*
G01*
X96395000Y24270000D01*
G75*
G02*
X96145000Y24020000I-250000J0D01*
G01*
G37*
G36*
G01*
X100075000Y24020000D02*
X98575000Y24020000D01*
G75*
G02*
X98325000Y24270000I0J250000D01*
G01*
X98325000Y25950000D01*
G75*
G02*
X98575000Y26200000I250000J0D01*
G01*
X100075000Y26200000D01*
G75*
G02*
X100325000Y25950000I0J-250000D01*
G01*
X100325000Y24270000D01*
G75*
G02*
X100075000Y24020000I-250000J0D01*
G01*
G37*
G04 #@! TD*
D20*
G04 #@! TO.C,U3*
X33224150Y18095000D03*
X33224150Y19365000D03*
X33224150Y20635000D03*
X33224150Y21905000D03*
X27775850Y21905000D03*
X27775850Y20635000D03*
X27775850Y19365000D03*
X27775850Y18095000D03*
G04 #@! TD*
G04 #@! TO.C,C3*
G36*
G01*
X81566000Y77474000D02*
X81566000Y77974000D01*
G75*
G02*
X81791000Y78199000I225000J0D01*
G01*
X82241000Y78199000D01*
G75*
G02*
X82466000Y77974000I0J-225000D01*
G01*
X82466000Y77474000D01*
G75*
G02*
X82241000Y77249000I-225000J0D01*
G01*
X81791000Y77249000D01*
G75*
G02*
X81566000Y77474000I0J225000D01*
G01*
G37*
G36*
G01*
X83116000Y77474000D02*
X83116000Y77974000D01*
G75*
G02*
X83341000Y78199000I225000J0D01*
G01*
X83791000Y78199000D01*
G75*
G02*
X84016000Y77974000I0J-225000D01*
G01*
X84016000Y77474000D01*
G75*
G02*
X83791000Y77249000I-225000J0D01*
G01*
X83341000Y77249000D01*
G75*
G02*
X83116000Y77474000I0J225000D01*
G01*
G37*
G04 #@! TD*
G04 #@! TO.C,R10*
G36*
G01*
X95270000Y79179000D02*
X95270000Y78809000D01*
G75*
G02*
X95135000Y78674000I-135000J0D01*
G01*
X94865000Y78674000D01*
G75*
G02*
X94730000Y78809000I0J135000D01*
G01*
X94730000Y79179000D01*
G75*
G02*
X94865000Y79314000I135000J0D01*
G01*
X95135000Y79314000D01*
G75*
G02*
X95270000Y79179000I0J-135000D01*
G01*
G37*
G36*
G01*
X94250000Y79179000D02*
X94250000Y78809000D01*
G75*
G02*
X94115000Y78674000I-135000J0D01*
G01*
X93845000Y78674000D01*
G75*
G02*
X93710000Y78809000I0J135000D01*
G01*
X93710000Y79179000D01*
G75*
G02*
X93845000Y79314000I135000J0D01*
G01*
X94115000Y79314000D01*
G75*
G02*
X94250000Y79179000I0J-135000D01*
G01*
G37*
G04 #@! TD*
D12*
G04 #@! TO.C,M5*
X34243000Y56929998D03*
X34243000Y55979998D03*
X34243000Y55030000D03*
X25543000Y56029998D03*
X25543000Y56929998D03*
G04 #@! TD*
D22*
G04 #@! TO.C,J1*
X8900000Y92700000D03*
D23*
X17800000Y88200000D03*
X17800000Y17200000D03*
D22*
X9200000Y12700000D03*
D14*
X9660000Y83200000D03*
X9660000Y77400000D03*
X11990000Y80300000D03*
X17790000Y83200000D03*
X17790000Y77400000D03*
D24*
X17790000Y23780000D03*
X17790000Y26320000D03*
X17790000Y28860000D03*
X17790000Y31400000D03*
X17790000Y33940000D03*
X17790000Y36480000D03*
X17790000Y39020000D03*
X17790000Y41560000D03*
X17790000Y44100000D03*
X17790000Y46640000D03*
X17790000Y49180000D03*
X17790000Y51720000D03*
X17790000Y54260000D03*
X17790000Y56800000D03*
X17790000Y59340000D03*
X17790000Y61880000D03*
X17790000Y64420000D03*
X17790000Y66960000D03*
X17790000Y69500000D03*
X15250000Y23780000D03*
X15250000Y26320000D03*
X15250000Y28860000D03*
X15250000Y31400000D03*
X15250000Y33940000D03*
X15250000Y36480000D03*
X15250000Y39020000D03*
X15250000Y41560000D03*
X15250000Y44100000D03*
X15250000Y46640000D03*
X15250000Y49180000D03*
X15250000Y51720000D03*
X15250000Y54260000D03*
X15250000Y56800000D03*
X15250000Y59340000D03*
X15250000Y61880000D03*
X15250000Y64420000D03*
X15250000Y66960000D03*
X15250000Y69500000D03*
X9200000Y23780000D03*
X9200000Y26320000D03*
X9200000Y28860000D03*
X9200000Y31400000D03*
X9200000Y33940000D03*
X9200000Y36480000D03*
X9200000Y39020000D03*
X9200000Y41560000D03*
X9200000Y44100000D03*
X9200000Y46640000D03*
X9200000Y49180000D03*
X9200000Y51720000D03*
X9200000Y54260000D03*
X9200000Y56800000D03*
X9200000Y59340000D03*
X9200000Y61880000D03*
X9200000Y64420000D03*
X9200000Y66960000D03*
X9200000Y69500000D03*
X6660000Y23780000D03*
X6660000Y26320000D03*
X6660000Y28860000D03*
X6660000Y31400000D03*
X6660000Y33940000D03*
X6660000Y36480000D03*
X6660000Y39020000D03*
X6660000Y41560000D03*
X6660000Y44100000D03*
X6660000Y46640000D03*
X6660000Y49180000D03*
X6660000Y51720000D03*
X6660000Y54260000D03*
X6660000Y56800000D03*
X6660000Y59340000D03*
X6660000Y61880000D03*
X6660000Y64420000D03*
X6660000Y66960000D03*
X6660000Y69500000D03*
G04 #@! TD*
G04 #@! TO.C,R13*
G36*
G01*
X22537000Y98534000D02*
X22167000Y98534000D01*
G75*
G02*
X22032000Y98669000I0J135000D01*
G01*
X22032000Y98939000D01*
G75*
G02*
X22167000Y99074000I135000J0D01*
G01*
X22537000Y99074000D01*
G75*
G02*
X22672000Y98939000I0J-135000D01*
G01*
X22672000Y98669000D01*
G75*
G02*
X22537000Y98534000I-135000J0D01*
G01*
G37*
G36*
G01*
X22537000Y99554000D02*
X22167000Y99554000D01*
G75*
G02*
X22032000Y99689000I0J135000D01*
G01*
X22032000Y99959000D01*
G75*
G02*
X22167000Y100094000I135000J0D01*
G01*
X22537000Y100094000D01*
G75*
G02*
X22672000Y99959000I0J-135000D01*
G01*
X22672000Y99689000D01*
G75*
G02*
X22537000Y99554000I-135000J0D01*
G01*
G37*
G04 #@! TD*
G04 #@! TO.C,R3*
G36*
G01*
X34613000Y24402000D02*
X34983000Y24402000D01*
G75*
G02*
X35118000Y24267000I0J-135000D01*
G01*
X35118000Y23997000D01*
G75*
G02*
X34983000Y23862000I-135000J0D01*
G01*
X34613000Y23862000D01*
G75*
G02*
X34478000Y23997000I0J135000D01*
G01*
X34478000Y24267000D01*
G75*
G02*
X34613000Y24402000I135000J0D01*
G01*
G37*
G36*
G01*
X34613000Y23382000D02*
X34983000Y23382000D01*
G75*
G02*
X35118000Y23247000I0J-135000D01*
G01*
X35118000Y22977000D01*
G75*
G02*
X34983000Y22842000I-135000J0D01*
G01*
X34613000Y22842000D01*
G75*
G02*
X34478000Y22977000I0J135000D01*
G01*
X34478000Y23247000D01*
G75*
G02*
X34613000Y23382000I135000J0D01*
G01*
G37*
G04 #@! TD*
G04 #@! TO.C,R6*
G36*
G01*
X34983000Y20556000D02*
X34613000Y20556000D01*
G75*
G02*
X34478000Y20691000I0J135000D01*
G01*
X34478000Y20961000D01*
G75*
G02*
X34613000Y21096000I135000J0D01*
G01*
X34983000Y21096000D01*
G75*
G02*
X35118000Y20961000I0J-135000D01*
G01*
X35118000Y20691000D01*
G75*
G02*
X34983000Y20556000I-135000J0D01*
G01*
G37*
G36*
G01*
X34983000Y21576000D02*
X34613000Y21576000D01*
G75*
G02*
X34478000Y21711000I0J135000D01*
G01*
X34478000Y21981000D01*
G75*
G02*
X34613000Y22116000I135000J0D01*
G01*
X34983000Y22116000D01*
G75*
G02*
X35118000Y21981000I0J-135000D01*
G01*
X35118000Y21711000D01*
G75*
G02*
X34983000Y21576000I-135000J0D01*
G01*
G37*
G04 #@! TD*
G04 #@! TO.C,R4*
G36*
G01*
X34983000Y26398000D02*
X34613000Y26398000D01*
G75*
G02*
X34478000Y26533000I0J135000D01*
G01*
X34478000Y26803000D01*
G75*
G02*
X34613000Y26938000I135000J0D01*
G01*
X34983000Y26938000D01*
G75*
G02*
X35118000Y26803000I0J-135000D01*
G01*
X35118000Y26533000D01*
G75*
G02*
X34983000Y26398000I-135000J0D01*
G01*
G37*
G36*
G01*
X34983000Y27418000D02*
X34613000Y27418000D01*
G75*
G02*
X34478000Y27553000I0J135000D01*
G01*
X34478000Y27823000D01*
G75*
G02*
X34613000Y27958000I135000J0D01*
G01*
X34983000Y27958000D01*
G75*
G02*
X35118000Y27823000I0J-135000D01*
G01*
X35118000Y27553000D01*
G75*
G02*
X34983000Y27418000I-135000J0D01*
G01*
G37*
G04 #@! TD*
G04 #@! TO.C,R9*
G36*
G01*
X89731000Y100856000D02*
X90101000Y100856000D01*
G75*
G02*
X90236000Y100721000I0J-135000D01*
G01*
X90236000Y100451000D01*
G75*
G02*
X90101000Y100316000I-135000J0D01*
G01*
X89731000Y100316000D01*
G75*
G02*
X89596000Y100451000I0J135000D01*
G01*
X89596000Y100721000D01*
G75*
G02*
X89731000Y100856000I135000J0D01*
G01*
G37*
G36*
G01*
X89731000Y99836000D02*
X90101000Y99836000D01*
G75*
G02*
X90236000Y99701000I0J-135000D01*
G01*
X90236000Y99431000D01*
G75*
G02*
X90101000Y99296000I-135000J0D01*
G01*
X89731000Y99296000D01*
G75*
G02*
X89596000Y99431000I0J135000D01*
G01*
X89596000Y99701000D01*
G75*
G02*
X89731000Y99836000I135000J0D01*
G01*
G37*
G04 #@! TD*
D14*
G04 #@! TO.C,TP2*
X78486000Y71628000D03*
G04 #@! TD*
D20*
G04 #@! TO.C,U4*
X20758150Y96095000D03*
X20758150Y97365000D03*
X20758150Y98635000D03*
X20758150Y99905000D03*
X15309850Y99905000D03*
X15309850Y98635000D03*
X15309850Y97365000D03*
X15309850Y96095000D03*
G04 #@! TD*
D14*
G04 #@! TO.C,TP1*
X99060000Y66294000D03*
G04 #@! TD*
M02*
