M48
; DRILL file {KiCad 8.0.6-8.0.6-0~ubuntu22.04.1} date 2024-11-14T01:32:21+0000
; FORMAT={2:4/ absolute / inch / suppress leading zeros}
; #@! TF.CreationDate,2024-11-14T01:32:21+00:00
; #@! TF.GenerationSoftware,Kicad,Pcbnew,8.0.6-8.0.6-0~ubuntu22.04.1
; #@! TF.FileFunction,MixedPlating,1,4
FMAT,2
INCH,TZ
; #@! TA.AperFunction,Plated,PTH,ComponentDrill
T1C0.0118
; #@! TA.AperFunction,Plated,PTH,ComponentDrill
T2C0.0394
; #@! TA.AperFunction,Plated,PTH,ComponentDrill
T3C0.0433
; #@! TA.AperFunction,Plated,PTH,ComponentDrill
T4C0.0591
; #@! TA.AperFunction,NonPlated,NPTH,ComponentDrill
T5C0.0256
%
G90
G05
T1
X11708Y-18662
X11708Y-19016
X11876Y-22720
X11876Y-23114
X15133Y-18662
X15133Y-19036
X15133Y-19410
X17555Y-20177
X17555Y-20649
X17555Y-21122
X17555Y-21594
X17919Y-30686
X17919Y-31080
X18715Y-18830
X18715Y-19774
X18715Y-21192
X18715Y-22137
X18715Y-26389
X18715Y-27806
X18715Y-29656
X18715Y-31074
X18715Y-15050
X18715Y-15995
X18715Y-16467
X18715Y-16940
X18715Y-17412
X18715Y-17885
X18715Y-18357
X18715Y-19302
X18715Y-20247
X18715Y-20719
X18715Y-21664
X18715Y-22609
X18715Y-23081
X18715Y-23554
X18715Y-24026
X18715Y-24499
X18715Y-24971
X18715Y-25444
X18715Y-25916
X18715Y-26861
X18715Y-27333
X18715Y-28278
X18715Y-28751
X18715Y-29184
X18715Y-30129
X18715Y-30601
X19581Y-31310
X19699Y-14893
X19896Y-31310
X20093Y-14893
X22533Y-31310
X22612Y-14893
X22848Y-31310
X23163Y-31310
X23478Y-31310
X23793Y-31310
X24108Y-31310
X24423Y-31310
X24738Y-31310
X25053Y-31310
X25368Y-31310
X25368Y-14893
X25683Y-31310
X25762Y-14893
X25998Y-31310
X26156Y-14893
X26313Y-31310
X26549Y-14893
X26628Y-31310
X26943Y-31310
X26943Y-14893
X27258Y-31310
X27337Y-14893
X27573Y-31310
X27730Y-14893
X27888Y-31310
X28124Y-14893
X28203Y-31310
X28518Y-31310
X28833Y-31310
X29148Y-31310
X29344Y-14893
X29463Y-31310
X29659Y-14893
X29778Y-31310
X30093Y-31310
X30407Y-31310
X30722Y-31310
X31037Y-31310
X31352Y-31310
X31667Y-31310
X31982Y-31310
X32297Y-31310
X32612Y-31310
X32927Y-31310
X33242Y-31310
X34266Y-14893
X34266Y-17255
X34266Y-17570
X34266Y-17885
X34266Y-20956
X34266Y-21270
X34266Y-21585
X34266Y-21900
X34266Y-22215
X34266Y-24381
X34266Y-24696
X34266Y-25326
X34266Y-25641
X34266Y-25956
X34266Y-26270
X34266Y-27215
X34266Y-27530
X34266Y-27845
X34266Y-28160
X34266Y-28475
X34266Y-28790
X34266Y-29420
X34266Y-29735
X34266Y-30050
X34266Y-30365
X34266Y-31310
X34266Y-25011
X34266Y-26585
X34266Y-26900
X34266Y-29105
X34266Y-30680
X34266Y-30995
T2
X11639Y-24604
X11639Y-25332
X11639Y-27281
X11639Y-32025
X17741Y-24781
X17741Y-27300
X17741Y-28048
X17741Y-29741
X17741Y-32202
T3
X3841Y-14252
X3841Y-15252
X3841Y-16252
X3841Y-17252
X3841Y-18252
X3841Y-19252
X3841Y-20252
X3841Y-21252
X3841Y-22252
X3841Y-23252
X3841Y-24252
X3841Y-25252
X3841Y-26252
X3841Y-27252
X3841Y-28252
X3841Y-29252
X3841Y-30252
X3841Y-31252
X3841Y-32252
X4841Y-14252
X4841Y-15252
X4841Y-16252
X4841Y-17252
X4841Y-18252
X4841Y-19252
X4841Y-20252
X4841Y-21252
X4841Y-22252
X4841Y-23252
X4841Y-24252
X4841Y-25252
X4841Y-26252
X4841Y-27252
X4841Y-28252
X4841Y-29252
X4841Y-30252
X4841Y-31252
X4841Y-32252
X7223Y-14252
X7223Y-15252
X7223Y-16252
X7223Y-17252
X7223Y-18252
X7223Y-19252
X7223Y-20252
X7223Y-21252
X7223Y-22252
X7223Y-23252
X7223Y-24252
X7223Y-25252
X7223Y-26252
X7223Y-27252
X7223Y-28252
X7223Y-29252
X7223Y-30252
X7223Y-31252
X7223Y-32252
X8223Y-14252
X8223Y-15252
X8223Y-16252
X8223Y-17252
X8223Y-18252
X8223Y-19252
X8223Y-20252
X8223Y-21252
X8223Y-22252
X8223Y-23252
X8223Y-24252
X8223Y-25252
X8223Y-26252
X8223Y-27252
X8223Y-28252
X8223Y-29252
X8223Y-30252
X8223Y-31252
X8223Y-32252
T4
X5022Y-8858
X5022Y-11142
X5939Y-10000
X8223Y-8858
X8223Y-11142
T5
X37715Y-31514
X37715Y-33790
M30
