G04 #@! TF.GenerationSoftware,KiCad,Pcbnew,8.0.6-8.0.6-0~ubuntu22.04.1*
G04 #@! TF.CreationDate,2024-11-14T01:32:20+00:00*
G04 #@! TF.ProjectId,hellenbremen,68656c6c-656e-4627-9265-6d656e2e6b69,rev?*
G04 #@! TF.SameCoordinates,Original*
G04 #@! TF.FileFunction,Legend,Top*
G04 #@! TF.FilePolarity,Positive*
%FSLAX46Y46*%
G04 Gerber Fmt 4.6, Leading zero omitted, Abs format (unit mm)*
G04 Created by KiCad (PCBNEW 8.0.6-8.0.6-0~ubuntu22.04.1) date 2024-11-14 01:32:20*
%MOMM*%
%LPD*%
G01*
G04 APERTURE LIST*
%ADD10C,0.150000*%
%ADD11C,0.100000*%
%ADD12C,0.120000*%
%ADD13C,0.200000*%
%ADD14C,0.152400*%
G04 APERTURE END LIST*
D10*
X90615333Y-84660819D02*
X90282000Y-84184628D01*
X90043905Y-84660819D02*
X90043905Y-83660819D01*
X90043905Y-83660819D02*
X90424857Y-83660819D01*
X90424857Y-83660819D02*
X90520095Y-83708438D01*
X90520095Y-83708438D02*
X90567714Y-83756057D01*
X90567714Y-83756057D02*
X90615333Y-83851295D01*
X90615333Y-83851295D02*
X90615333Y-83994152D01*
X90615333Y-83994152D02*
X90567714Y-84089390D01*
X90567714Y-84089390D02*
X90520095Y-84137009D01*
X90520095Y-84137009D02*
X90424857Y-84184628D01*
X90424857Y-84184628D02*
X90043905Y-84184628D01*
X90996286Y-83756057D02*
X91043905Y-83708438D01*
X91043905Y-83708438D02*
X91139143Y-83660819D01*
X91139143Y-83660819D02*
X91377238Y-83660819D01*
X91377238Y-83660819D02*
X91472476Y-83708438D01*
X91472476Y-83708438D02*
X91520095Y-83756057D01*
X91520095Y-83756057D02*
X91567714Y-83851295D01*
X91567714Y-83851295D02*
X91567714Y-83946533D01*
X91567714Y-83946533D02*
X91520095Y-84089390D01*
X91520095Y-84089390D02*
X90948667Y-84660819D01*
X90948667Y-84660819D02*
X91567714Y-84660819D01*
X90615333Y-81612819D02*
X90282000Y-81136628D01*
X90043905Y-81612819D02*
X90043905Y-80612819D01*
X90043905Y-80612819D02*
X90424857Y-80612819D01*
X90424857Y-80612819D02*
X90520095Y-80660438D01*
X90520095Y-80660438D02*
X90567714Y-80708057D01*
X90567714Y-80708057D02*
X90615333Y-80803295D01*
X90615333Y-80803295D02*
X90615333Y-80946152D01*
X90615333Y-80946152D02*
X90567714Y-81041390D01*
X90567714Y-81041390D02*
X90520095Y-81089009D01*
X90520095Y-81089009D02*
X90424857Y-81136628D01*
X90424857Y-81136628D02*
X90043905Y-81136628D01*
X91567714Y-81612819D02*
X90996286Y-81612819D01*
X91282000Y-81612819D02*
X91282000Y-80612819D01*
X91282000Y-80612819D02*
X91186762Y-80755676D01*
X91186762Y-80755676D02*
X91091524Y-80850914D01*
X91091524Y-80850914D02*
X90996286Y-80898533D01*
X96112819Y-45589904D02*
X96112819Y-45018476D01*
X97112819Y-45304190D02*
X96112819Y-45304190D01*
X97112819Y-44685142D02*
X96112819Y-44685142D01*
X96112819Y-44685142D02*
X96112819Y-44304190D01*
X96112819Y-44304190D02*
X96160438Y-44208952D01*
X96160438Y-44208952D02*
X96208057Y-44161333D01*
X96208057Y-44161333D02*
X96303295Y-44113714D01*
X96303295Y-44113714D02*
X96446152Y-44113714D01*
X96446152Y-44113714D02*
X96541390Y-44161333D01*
X96541390Y-44161333D02*
X96589009Y-44208952D01*
X96589009Y-44208952D02*
X96636628Y-44304190D01*
X96636628Y-44304190D02*
X96636628Y-44685142D01*
X97112819Y-43161333D02*
X97112819Y-43732761D01*
X97112819Y-43447047D02*
X96112819Y-43447047D01*
X96112819Y-43447047D02*
X96255676Y-43542285D01*
X96255676Y-43542285D02*
X96350914Y-43637523D01*
X96350914Y-43637523D02*
X96398533Y-43732761D01*
X29580736Y-45881574D02*
X29580736Y-45281574D01*
X29580736Y-45281574D02*
X29780736Y-45710145D01*
X29780736Y-45710145D02*
X29980736Y-45281574D01*
X29980736Y-45281574D02*
X29980736Y-45881574D01*
X30552164Y-45281574D02*
X30266450Y-45281574D01*
X30266450Y-45281574D02*
X30237878Y-45567288D01*
X30237878Y-45567288D02*
X30266450Y-45538717D01*
X30266450Y-45538717D02*
X30323593Y-45510145D01*
X30323593Y-45510145D02*
X30466450Y-45510145D01*
X30466450Y-45510145D02*
X30523593Y-45538717D01*
X30523593Y-45538717D02*
X30552164Y-45567288D01*
X30552164Y-45567288D02*
X30580735Y-45624431D01*
X30580735Y-45624431D02*
X30580735Y-45767288D01*
X30580735Y-45767288D02*
X30552164Y-45824431D01*
X30552164Y-45824431D02*
X30523593Y-45853003D01*
X30523593Y-45853003D02*
X30466450Y-45881574D01*
X30466450Y-45881574D02*
X30323593Y-45881574D01*
X30323593Y-45881574D02*
X30266450Y-45853003D01*
X30266450Y-45853003D02*
X30237878Y-45824431D01*
D11*
X18490411Y-31810647D02*
X17776126Y-31810647D01*
X17776126Y-31810647D02*
X17633269Y-31763028D01*
X17633269Y-31763028D02*
X17538031Y-31667790D01*
X17538031Y-31667790D02*
X17490411Y-31524933D01*
X17490411Y-31524933D02*
X17490411Y-31429695D01*
X17490411Y-32810647D02*
X17490411Y-32239219D01*
X17490411Y-32524933D02*
X18490411Y-32524933D01*
X18490411Y-32524933D02*
X18347554Y-32429695D01*
X18347554Y-32429695D02*
X18252316Y-32334457D01*
X18252316Y-32334457D02*
X18204697Y-32239219D01*
D10*
X96112819Y-52193904D02*
X96112819Y-51622476D01*
X97112819Y-51908190D02*
X96112819Y-51908190D01*
X97112819Y-51289142D02*
X96112819Y-51289142D01*
X96112819Y-51289142D02*
X96112819Y-50908190D01*
X96112819Y-50908190D02*
X96160438Y-50812952D01*
X96160438Y-50812952D02*
X96208057Y-50765333D01*
X96208057Y-50765333D02*
X96303295Y-50717714D01*
X96303295Y-50717714D02*
X96446152Y-50717714D01*
X96446152Y-50717714D02*
X96541390Y-50765333D01*
X96541390Y-50765333D02*
X96589009Y-50812952D01*
X96589009Y-50812952D02*
X96636628Y-50908190D01*
X96636628Y-50908190D02*
X96636628Y-51289142D01*
X96112819Y-50384380D02*
X96112819Y-49765333D01*
X96112819Y-49765333D02*
X96493771Y-50098666D01*
X96493771Y-50098666D02*
X96493771Y-49955809D01*
X96493771Y-49955809D02*
X96541390Y-49860571D01*
X96541390Y-49860571D02*
X96589009Y-49812952D01*
X96589009Y-49812952D02*
X96684247Y-49765333D01*
X96684247Y-49765333D02*
X96922342Y-49765333D01*
X96922342Y-49765333D02*
X97017580Y-49812952D01*
X97017580Y-49812952D02*
X97065200Y-49860571D01*
X97065200Y-49860571D02*
X97112819Y-49955809D01*
X97112819Y-49955809D02*
X97112819Y-50241523D01*
X97112819Y-50241523D02*
X97065200Y-50336761D01*
X97065200Y-50336761D02*
X97017580Y-50384380D01*
X97795180Y-18662095D02*
X96985657Y-18662095D01*
X96985657Y-18662095D02*
X96890419Y-18709714D01*
X96890419Y-18709714D02*
X96842800Y-18757333D01*
X96842800Y-18757333D02*
X96795180Y-18852571D01*
X96795180Y-18852571D02*
X96795180Y-19043047D01*
X96795180Y-19043047D02*
X96842800Y-19138285D01*
X96842800Y-19138285D02*
X96890419Y-19185904D01*
X96890419Y-19185904D02*
X96985657Y-19233523D01*
X96985657Y-19233523D02*
X97795180Y-19233523D01*
X96795180Y-20233523D02*
X96795180Y-19662095D01*
X96795180Y-19947809D02*
X97795180Y-19947809D01*
X97795180Y-19947809D02*
X97652323Y-19852571D01*
X97652323Y-19852571D02*
X97557085Y-19757333D01*
X97557085Y-19757333D02*
X97509466Y-19662095D01*
X101445180Y-10741300D02*
X101207085Y-10741300D01*
X101302323Y-10503205D02*
X101207085Y-10741300D01*
X101207085Y-10741300D02*
X101302323Y-10979395D01*
X101016609Y-10598443D02*
X101207085Y-10741300D01*
X101207085Y-10741300D02*
X101016609Y-10884157D01*
X100354819Y-10741299D02*
X100592914Y-10741299D01*
X100497676Y-10979394D02*
X100592914Y-10741299D01*
X100592914Y-10741299D02*
X100497676Y-10503204D01*
X100783390Y-10884156D02*
X100592914Y-10741299D01*
X100592914Y-10741299D02*
X100783390Y-10598442D01*
X96112819Y-55749904D02*
X96112819Y-55178476D01*
X97112819Y-55464190D02*
X96112819Y-55464190D01*
X97112819Y-54845142D02*
X96112819Y-54845142D01*
X96112819Y-54845142D02*
X96112819Y-54464190D01*
X96112819Y-54464190D02*
X96160438Y-54368952D01*
X96160438Y-54368952D02*
X96208057Y-54321333D01*
X96208057Y-54321333D02*
X96303295Y-54273714D01*
X96303295Y-54273714D02*
X96446152Y-54273714D01*
X96446152Y-54273714D02*
X96541390Y-54321333D01*
X96541390Y-54321333D02*
X96589009Y-54368952D01*
X96589009Y-54368952D02*
X96636628Y-54464190D01*
X96636628Y-54464190D02*
X96636628Y-54845142D01*
X96446152Y-53416571D02*
X97112819Y-53416571D01*
X96065200Y-53654666D02*
X96779485Y-53892761D01*
X96779485Y-53892761D02*
X96779485Y-53273714D01*
X96112819Y-48891904D02*
X96112819Y-48320476D01*
X97112819Y-48606190D02*
X96112819Y-48606190D01*
X97112819Y-47987142D02*
X96112819Y-47987142D01*
X96112819Y-47987142D02*
X96112819Y-47606190D01*
X96112819Y-47606190D02*
X96160438Y-47510952D01*
X96160438Y-47510952D02*
X96208057Y-47463333D01*
X96208057Y-47463333D02*
X96303295Y-47415714D01*
X96303295Y-47415714D02*
X96446152Y-47415714D01*
X96446152Y-47415714D02*
X96541390Y-47463333D01*
X96541390Y-47463333D02*
X96589009Y-47510952D01*
X96589009Y-47510952D02*
X96636628Y-47606190D01*
X96636628Y-47606190D02*
X96636628Y-47987142D01*
X96208057Y-47034761D02*
X96160438Y-46987142D01*
X96160438Y-46987142D02*
X96112819Y-46891904D01*
X96112819Y-46891904D02*
X96112819Y-46653809D01*
X96112819Y-46653809D02*
X96160438Y-46558571D01*
X96160438Y-46558571D02*
X96208057Y-46510952D01*
X96208057Y-46510952D02*
X96303295Y-46463333D01*
X96303295Y-46463333D02*
X96398533Y-46463333D01*
X96398533Y-46463333D02*
X96541390Y-46510952D01*
X96541390Y-46510952D02*
X97112819Y-47082380D01*
X97112819Y-47082380D02*
X97112819Y-46463333D01*
X92522819Y-83269333D02*
X93237104Y-83269333D01*
X93237104Y-83269333D02*
X93379961Y-83316952D01*
X93379961Y-83316952D02*
X93475200Y-83412190D01*
X93475200Y-83412190D02*
X93522819Y-83555047D01*
X93522819Y-83555047D02*
X93522819Y-83650285D01*
X92522819Y-82888380D02*
X92522819Y-82269333D01*
X92522819Y-82269333D02*
X92903771Y-82602666D01*
X92903771Y-82602666D02*
X92903771Y-82459809D01*
X92903771Y-82459809D02*
X92951390Y-82364571D01*
X92951390Y-82364571D02*
X92999009Y-82316952D01*
X92999009Y-82316952D02*
X93094247Y-82269333D01*
X93094247Y-82269333D02*
X93332342Y-82269333D01*
X93332342Y-82269333D02*
X93427580Y-82316952D01*
X93427580Y-82316952D02*
X93475200Y-82364571D01*
X93475200Y-82364571D02*
X93522819Y-82459809D01*
X93522819Y-82459809D02*
X93522819Y-82745523D01*
X93522819Y-82745523D02*
X93475200Y-82840761D01*
X93475200Y-82840761D02*
X93427580Y-82888380D01*
D12*
G04 #@! TO.C,R2*
X92715641Y-83826000D02*
X92408359Y-83826000D01*
X92715641Y-84586000D02*
X92408359Y-84586000D01*
G04 #@! TO.C,R1*
X92713641Y-80778000D02*
X92406359Y-80778000D01*
X92713641Y-81538000D02*
X92406359Y-81538000D01*
D13*
G04 #@! TO.C,M3*
X47334999Y-37626998D02*
X47334999Y-79726998D01*
X47334999Y-37626998D02*
X87234998Y-37626998D01*
X47334999Y-79726998D02*
X87234998Y-79727001D01*
X87234998Y-37626998D02*
X87234998Y-78427001D01*
X87234998Y-78427001D02*
X87234998Y-79727001D01*
G04 #@! TO.C,M1*
X90480949Y-58865042D02*
X90480949Y-75212942D01*
X90480949Y-75212942D02*
X90615010Y-75347003D01*
X90615010Y-75347003D02*
X100855594Y-75372406D01*
X92006999Y-57338993D02*
X90480949Y-58865042D01*
X92006999Y-57338993D02*
X99431998Y-57338993D01*
X99431998Y-57338993D02*
X100881998Y-58788992D01*
X100881998Y-58788992D02*
X100882000Y-75346000D01*
X100882000Y-75346000D02*
X100855594Y-75372406D01*
D12*
G04 #@! TO.C,TP1*
X99856000Y-44328000D02*
G75*
G02*
X97456000Y-44328000I-1200000J0D01*
G01*
X97456000Y-44328000D02*
G75*
G02*
X99856000Y-44328000I1200000J0D01*
G01*
D13*
G04 #@! TO.C,M5*
X29538995Y-46801000D02*
X38638995Y-46801000D01*
X29538995Y-49901003D02*
X29538995Y-48901001D01*
X29538995Y-49901003D02*
X38638995Y-49901003D01*
D12*
G04 #@! TO.C,TP3*
X99856000Y-50932000D02*
G75*
G02*
X97456000Y-50932000I-1200000J0D01*
G01*
X97456000Y-50932000D02*
G75*
G02*
X99856000Y-50932000I1200000J0D01*
G01*
D13*
G04 #@! TO.C,M2*
X28912999Y-68443001D02*
X28912999Y-65242998D01*
X28912999Y-80543001D02*
X28912999Y-70142999D01*
X28912999Y-82443001D02*
X28912999Y-82143001D01*
X28912999Y-82443001D02*
X44312999Y-82443001D01*
X30412999Y-61843003D02*
X45712998Y-61843001D01*
X45712996Y-68542999D02*
X45712996Y-63742999D01*
X45712996Y-74743001D02*
X45712996Y-72043001D01*
X45712996Y-77442999D02*
X45712996Y-76342996D01*
X45712996Y-80993001D02*
X45713001Y-79443001D01*
X45712998Y-62142999D02*
X45712998Y-61843001D01*
D14*
G04 #@! TO.C,U1*
X86772500Y-11550000D02*
X88211659Y-11550000D01*
X86772500Y-12735659D02*
X86772500Y-11550000D01*
X86772500Y-27298000D02*
X86772500Y-26112341D01*
X88211659Y-27298000D02*
X86772500Y-27298000D01*
X101588341Y-11550000D02*
X107727500Y-11550000D01*
X107727500Y-11550000D02*
X107727500Y-27298000D01*
X107727500Y-27298000D02*
X101588341Y-27298000D01*
D12*
G04 #@! TO.C,TP4*
X99856000Y-54488000D02*
G75*
G02*
X97456000Y-54488000I-1200000J0D01*
G01*
X97456000Y-54488000D02*
G75*
G02*
X99856000Y-54488000I1200000J0D01*
G01*
G04 #@! TO.C,TP2*
X99856000Y-47630000D02*
G75*
G02*
X97456000Y-47630000I-1200000J0D01*
G01*
X97456000Y-47630000D02*
G75*
G02*
X99856000Y-47630000I1200000J0D01*
G01*
G04 #@! TO.C,J3*
X93887000Y-85896000D02*
X93887000Y-86696000D01*
X93887000Y-86696000D02*
X94037000Y-86696000D01*
X97967000Y-78356000D02*
X96557000Y-78356000D01*
X97967000Y-87516000D02*
X96557000Y-87516000D01*
D13*
G04 #@! TO.C,M4*
X29888995Y-50849501D02*
X29888995Y-57249501D01*
X29888995Y-60449501D02*
X29888995Y-59149501D01*
X29888995Y-60449501D02*
X44888995Y-60449501D01*
X44288995Y-50849501D02*
X29888995Y-50849501D01*
X44888995Y-60449501D02*
X44888995Y-55349501D01*
G04 #@! TD*
M02*
