M48
; DRILL file {KiCad 8.0.6-8.0.6-0~ubuntu22.04.1} date 2024-11-20T22:58:34+0000
; FORMAT={2:4/ absolute / inch / suppress leading zeros}
; #@! TF.CreationDate,2024-11-20T22:58:34+00:00
; #@! TF.GenerationSoftware,Kicad,Pcbnew,8.0.6-8.0.6-0~ubuntu22.04.1
; #@! TF.FileFunction,MixedPlating,1,4
FMAT,2
INCH,TZ
; #@! TA.AperFunction,Plated,PTH,ViaDrill
T1C0.0118
; #@! TA.AperFunction,Plated,PTH,ComponentDrill
T2C0.0118
; #@! TA.AperFunction,Plated,PTH,ViaDrill
T3C0.0197
; #@! TA.AperFunction,Plated,PTH,ComponentDrill
T4C0.0394
; #@! TA.AperFunction,Plated,PTH,ComponentDrill
T5C0.0433
; #@! TA.AperFunction,Plated,PTH,ComponentDrill
T6C0.0591
; #@! TA.AperFunction,NonPlated,NPTH,ComponentDrill
T7C0.0256
; #@! TA.AperFunction,NonPlated,NPTH,ComponentDrill
T8C0.0827
; #@! TA.AperFunction,NonPlated,NPTH,ComponentDrill
T9C0.1772
%
G90
G05
T1
X6500Y26800
X6500Y16900
X6502Y17865
X7422Y17844
X7441Y16889
X7800Y21200
X8287Y24843
X8500Y20600
X8500Y17200
X8500Y16300
X8500Y13600
X8876Y34687
X9275Y35075
X11700Y24200
X13000Y12800
X14823Y4764
X14843Y6772
X14882Y8622
X15300Y9672
X15500Y18400
X15700Y20000
X15800Y22300
X16000Y26600
X16299Y17874
X17900Y6800
X19232Y8642
X19252Y4705
X19961Y10276
X21417Y7815
X22756Y8898
X23878Y7028
X24600Y29500
X30500Y34902
X31100Y31100
X31634Y9272
X31736Y31100
X32600Y23700
X32600Y22100
X33200Y29500
X33622Y9646
X33700Y23200
X33700Y21700
X34055Y10669
X34100Y20800
X34300Y23099
X34410Y39300
X34469Y12874
X34724Y9016
X35335Y9528
X36400Y5900
X36693Y10669
X36900Y30500
T2
X9705Y14338
X9705Y13944
X10037Y18823
X10037Y18469
X10056Y20184
X10056Y19830
X13462Y18823
X13462Y18449
X13462Y18075
X13481Y20184
X13481Y19810
X13481Y19436
X15384Y16881
X15384Y16409
X15384Y15937
X15384Y15464
X16674Y23425
X16674Y22480
X16674Y21063
X16674Y20118
X16674Y15866
X16674Y14449
X16674Y12598
X16674Y11181
X16674Y27205
X16674Y26260
X16674Y25787
X16674Y25315
X16674Y24843
X16674Y24370
X16674Y23898
X16674Y22953
X16674Y22008
X16674Y21535
X16674Y20591
X16674Y19646
X16674Y19173
X16674Y18701
X16674Y18228
X16674Y17756
X16674Y17283
X16674Y16811
X16674Y16339
X16674Y15394
X16674Y14921
X16674Y13976
X16674Y13504
X16674Y13071
X16674Y12126
X16674Y11654
X17540Y10945
X17658Y27362
X17855Y10945
X18052Y27362
X20493Y10945
X20571Y27362
X20807Y10945
X21122Y10945
X21437Y10945
X21752Y10945
X22067Y10945
X22382Y10945
X22697Y10945
X22878Y31466
X22878Y31072
X23012Y10945
X23327Y10945
X23327Y27362
X23642Y10945
X23721Y27362
X23957Y10945
X24115Y27362
X24272Y10945
X24508Y27362
X24587Y10945
X24902Y10945
X24902Y27362
X25217Y10945
X25296Y27362
X25532Y10945
X25689Y27362
X25847Y10945
X26083Y27362
X26162Y10945
X26477Y10945
X26792Y10945
X27107Y10945
X27304Y27362
X27422Y10945
X27619Y27362
X27737Y10945
X28052Y10945
X28367Y10945
X28681Y10945
X28996Y10945
X29311Y10945
X29626Y10945
X29941Y10945
X30256Y10945
X30571Y10945
X30886Y10945
X31201Y10945
X32225Y27362
X32225Y25000
X32225Y24685
X32225Y24370
X32225Y21299
X32225Y20984
X32225Y20669
X32225Y20354
X32225Y20039
X32225Y17874
X32225Y17559
X32225Y16929
X32225Y16614
X32225Y16299
X32225Y15984
X32225Y15039
X32225Y14724
X32225Y14409
X32225Y14094
X32225Y13780
X32225Y13465
X32225Y12835
X32225Y12520
X32225Y12205
X32225Y11890
X32225Y10945
X32225Y17244
X32225Y15669
X32225Y15354
X32225Y13150
X32225Y11575
X32225Y11260
T3
X1300Y33400
X8248Y22114
X12706Y28264
X13541Y31800
X13541Y30800
X14400Y31295
X14400Y28264
X14550Y21050
X25000Y38500
X25600Y39300
X26300Y38500
T4
X16598Y37548
X16598Y36820
X16598Y34871
X16598Y30127
X22700Y37371
X22700Y34852
X22700Y34104
X22700Y32411
X22700Y29950
X34394Y29248
X35394Y29248
X36394Y29248
T5
X2618Y27362
X2618Y26362
X2618Y25362
X2618Y24362
X2618Y23362
X2618Y22362
X2618Y21362
X2618Y20362
X2618Y19362
X2618Y18362
X2618Y17362
X2618Y16362
X2618Y15362
X2618Y14362
X2618Y13362
X2618Y12362
X2618Y11362
X2618Y10362
X2618Y9362
X3618Y27362
X3618Y26362
X3618Y25362
X3618Y24362
X3618Y23362
X3618Y22362
X3618Y21362
X3618Y20362
X3618Y19362
X3618Y18362
X3618Y17362
X3618Y16362
X3618Y15362
X3618Y14362
X3618Y13362
X3618Y12362
X3618Y11362
X3618Y10362
X3618Y9362
X6000Y27362
X6000Y26362
X6000Y25362
X6000Y24362
X6000Y23362
X6000Y22362
X6000Y21362
X6000Y20362
X6000Y19362
X6000Y18362
X6000Y17362
X6000Y16362
X6000Y15362
X6000Y14362
X6000Y13362
X6000Y12362
X6000Y11362
X6000Y10362
X6000Y9362
X7000Y27362
X7000Y26362
X7000Y25362
X7000Y24362
X7000Y23362
X7000Y22362
X7000Y21362
X7000Y20362
X7000Y19362
X7000Y18362
X7000Y17362
X7000Y16362
X7000Y15362
X7000Y14362
X7000Y13362
X7000Y12362
X7000Y11362
X7000Y10362
X7000Y9362
T6
X3799Y32756
X3799Y30472
X4717Y31614
X7000Y32756
X7000Y30472
T7
X37754Y9012
X37754Y6736
T8
X7004Y34724
X7004Y6772
T9
X3500Y36496
X3500Y5000
M30
