M48
; DRILL file {KiCad 8.0.6-8.0.6-0~ubuntu22.04.1} date 2024-11-16T01:04:19+0000
; FORMAT={2:4/ absolute / inch / suppress leading zeros}
; #@! TF.CreationDate,2024-11-16T01:04:19+00:00
; #@! TF.GenerationSoftware,Kicad,Pcbnew,8.0.6-8.0.6-0~ubuntu22.04.1
; #@! TF.FileFunction,MixedPlating,1,4
FMAT,2
INCH,TZ
; #@! TA.AperFunction,Plated,PTH,ViaDrill
T1C0.0118
; #@! TA.AperFunction,Plated,PTH,ComponentDrill
T2C0.0118
; #@! TA.AperFunction,Plated,PTH,ComponentDrill
T3C0.0394
; #@! TA.AperFunction,Plated,PTH,ComponentDrill
T4C0.0433
; #@! TA.AperFunction,Plated,PTH,ComponentDrill
T5C0.0591
; #@! TA.AperFunction,NonPlated,NPTH,ComponentDrill
T6C0.0256
%
G90
G05
T1
X35064Y15150
X35100Y12000
X35100Y11600
X35100Y11200
X35110Y10875
X35550Y15650
T2
X11496Y14986
X11496Y14593
X13524Y19055
X13524Y18701
X16949Y19055
X16949Y18681
X16949Y18307
X17175Y17530
X17175Y17057
X17175Y16585
X17175Y16112
X18002Y27608
X18002Y27215
X18297Y20010
X18297Y19065
X18297Y17648
X18297Y16703
X18297Y12451
X18297Y11033
X18297Y9183
X18297Y7766
X18297Y23789
X18297Y22844
X18297Y22372
X18297Y21900
X18297Y21427
X18297Y20955
X18297Y20482
X18297Y19537
X18297Y18593
X18297Y18120
X18297Y17175
X18297Y16230
X18297Y15758
X18297Y15285
X18297Y14813
X18297Y14341
X18297Y13868
X18297Y13396
X18297Y12923
X18297Y11978
X18297Y11506
X18297Y10561
X18297Y10089
X18297Y9656
X18297Y8711
X18297Y8238
X19163Y7530
X19281Y23947
X19478Y7530
X19675Y23947
X22116Y7530
X22195Y23947
X22431Y7530
X22746Y7530
X23061Y7530
X23376Y7530
X23691Y7530
X24006Y7530
X24321Y7530
X24636Y7530
X24951Y7530
X24951Y23947
X25266Y7530
X25344Y23947
X25581Y7530
X25738Y23947
X25896Y7530
X26132Y23947
X26211Y7530
X26526Y7530
X26526Y23947
X26841Y7530
X26919Y23947
X27156Y7530
X27313Y23947
X27470Y7530
X27707Y23947
X27785Y7530
X28100Y7530
X28415Y7530
X28730Y7530
X28927Y23947
X29045Y7530
X29242Y23947
X29360Y7530
X29675Y7530
X29990Y7530
X30305Y7530
X30620Y7530
X30935Y7530
X31250Y7530
X31565Y7530
X31880Y7530
X32195Y7530
X32510Y7530
X32825Y7530
X33848Y23947
X33848Y21585
X33848Y21270
X33848Y20955
X33848Y17884
X33848Y17569
X33848Y17254
X33848Y16939
X33848Y16624
X33848Y14459
X33848Y14144
X33848Y13514
X33848Y13199
X33848Y12884
X33848Y12569
X33848Y11624
X33848Y11309
X33848Y10994
X33848Y10679
X33848Y10364
X33848Y10049
X33848Y9419
X33848Y9104
X33848Y8789
X33848Y8474
X33848Y7530
X33848Y13829
X33848Y12254
X33848Y11939
X33848Y9734
X33848Y8159
X33848Y7844
T3
X11722Y33691
X11722Y32963
X11722Y31014
X11722Y26270
X17825Y33514
X17825Y30994
X17825Y30246
X17825Y28553
X17825Y26093
T4
X3900Y27900
X3900Y26900
X3900Y25900
X3900Y24900
X3900Y23900
X3900Y22900
X3900Y21900
X3900Y20900
X3900Y19900
X3900Y18900
X3900Y17900
X3900Y16900
X3900Y15900
X3900Y14900
X3900Y13900
X3900Y12900
X3900Y11900
X3900Y10900
X3900Y9900
X4900Y27900
X4900Y26900
X4900Y25900
X4900Y24900
X4900Y23900
X4900Y22900
X4900Y21900
X4900Y20900
X4900Y19900
X4900Y18900
X4900Y17900
X4900Y16900
X4900Y15900
X4900Y14900
X4900Y13900
X4900Y12900
X4900Y11900
X4900Y10900
X4900Y9900
X7282Y27900
X7282Y26900
X7282Y25900
X7282Y24900
X7282Y23900
X7282Y22900
X7282Y21900
X7282Y20900
X7282Y19900
X7282Y18900
X7282Y17900
X7282Y16900
X7282Y15900
X7282Y14900
X7282Y13900
X7282Y12900
X7282Y11900
X7282Y10900
X7282Y9900
X8282Y27900
X8282Y26900
X8282Y25900
X8282Y24900
X8282Y23900
X8282Y22900
X8282Y21900
X8282Y20900
X8282Y19900
X8282Y18900
X8282Y17900
X8282Y16900
X8282Y15900
X8282Y14900
X8282Y13900
X8282Y12900
X8282Y11900
X8282Y10900
X8282Y9900
T5
X5081Y33294
X5081Y31010
X5998Y32152
X8282Y33294
X8282Y31010
T6
X37675Y5902
X37675Y3626
M30
