G04 #@! TF.GenerationSoftware,KiCad,Pcbnew,8.0.6-8.0.6-0~ubuntu22.04.1*
G04 #@! TF.CreationDate,2024-11-17T23:12:27+00:00*
G04 #@! TF.ProjectId,hellenbremen,68656c6c-656e-4627-9265-6d656e2e6b69,rev?*
G04 #@! TF.SameCoordinates,Original*
G04 #@! TF.FileFunction,Legend,Top*
G04 #@! TF.FilePolarity,Positive*
%FSLAX46Y46*%
G04 Gerber Fmt 4.6, Leading zero omitted, Abs format (unit mm)*
G04 Created by KiCad (PCBNEW 8.0.6-8.0.6-0~ubuntu22.04.1) date 2024-11-17 23:12:27*
%MOMM*%
%LPD*%
G01*
G04 APERTURE LIST*
%ADD10C,0.100000*%
%ADD11C,0.150000*%
%ADD12C,0.000000*%
%ADD13C,0.120000*%
%ADD14C,0.152400*%
%ADD15C,0.200000*%
G04 APERTURE END LIST*
D10*
X83782500Y73406000D02*
X91985500Y73406000D01*
X91985500Y70418000D01*
X83782500Y70418000D01*
X83782500Y73406000D01*
X84324894Y72877778D02*
X84667752Y72877778D01*
X84496323Y72277778D02*
X84496323Y72877778D01*
X84810609Y72877778D02*
X85210609Y72277778D01*
X85210609Y72877778D02*
X84810609Y72277778D01*
X85439181Y72277778D02*
X85439181Y72877778D01*
X85439181Y72877778D02*
X85582038Y72877778D01*
X85582038Y72877778D02*
X85667752Y72849207D01*
X85667752Y72849207D02*
X85724895Y72792064D01*
X85724895Y72792064D02*
X85753466Y72734921D01*
X85753466Y72734921D02*
X85782038Y72620635D01*
X85782038Y72620635D02*
X85782038Y72534921D01*
X85782038Y72534921D02*
X85753466Y72420635D01*
X85753466Y72420635D02*
X85724895Y72363492D01*
X85724895Y72363492D02*
X85667752Y72306349D01*
X85667752Y72306349D02*
X85582038Y72277778D01*
X85582038Y72277778D02*
X85439181Y72277778D01*
X87296324Y72277778D02*
X87096324Y72563492D01*
X86953467Y72277778D02*
X86953467Y72877778D01*
X86953467Y72877778D02*
X87182038Y72877778D01*
X87182038Y72877778D02*
X87239181Y72849207D01*
X87239181Y72849207D02*
X87267752Y72820635D01*
X87267752Y72820635D02*
X87296324Y72763492D01*
X87296324Y72763492D02*
X87296324Y72677778D01*
X87296324Y72677778D02*
X87267752Y72620635D01*
X87267752Y72620635D02*
X87239181Y72592064D01*
X87239181Y72592064D02*
X87182038Y72563492D01*
X87182038Y72563492D02*
X86953467Y72563492D01*
X87496324Y72877778D02*
X87896324Y72277778D01*
X87896324Y72877778D02*
X87496324Y72277778D01*
X88124896Y72277778D02*
X88124896Y72877778D01*
X88124896Y72877778D02*
X88267753Y72877778D01*
X88267753Y72877778D02*
X88353467Y72849207D01*
X88353467Y72849207D02*
X88410610Y72792064D01*
X88410610Y72792064D02*
X88439181Y72734921D01*
X88439181Y72734921D02*
X88467753Y72620635D01*
X88467753Y72620635D02*
X88467753Y72534921D01*
X88467753Y72534921D02*
X88439181Y72420635D01*
X88439181Y72420635D02*
X88410610Y72363492D01*
X88410610Y72363492D02*
X88353467Y72306349D01*
X88353467Y72306349D02*
X88267753Y72277778D01*
X88267753Y72277778D02*
X88124896Y72277778D01*
X89953467Y72849207D02*
X89896325Y72877778D01*
X89896325Y72877778D02*
X89810610Y72877778D01*
X89810610Y72877778D02*
X89724896Y72849207D01*
X89724896Y72849207D02*
X89667753Y72792064D01*
X89667753Y72792064D02*
X89639182Y72734921D01*
X89639182Y72734921D02*
X89610610Y72620635D01*
X89610610Y72620635D02*
X89610610Y72534921D01*
X89610610Y72534921D02*
X89639182Y72420635D01*
X89639182Y72420635D02*
X89667753Y72363492D01*
X89667753Y72363492D02*
X89724896Y72306349D01*
X89724896Y72306349D02*
X89810610Y72277778D01*
X89810610Y72277778D02*
X89867753Y72277778D01*
X89867753Y72277778D02*
X89953467Y72306349D01*
X89953467Y72306349D02*
X89982039Y72334921D01*
X89982039Y72334921D02*
X89982039Y72534921D01*
X89982039Y72534921D02*
X89867753Y72534921D01*
X90239182Y72277778D02*
X90239182Y72877778D01*
X90239182Y72877778D02*
X90582039Y72277778D01*
X90582039Y72277778D02*
X90582039Y72877778D01*
X90867753Y72277778D02*
X90867753Y72877778D01*
X90867753Y72877778D02*
X91010610Y72877778D01*
X91010610Y72877778D02*
X91096324Y72849207D01*
X91096324Y72849207D02*
X91153467Y72792064D01*
X91153467Y72792064D02*
X91182038Y72734921D01*
X91182038Y72734921D02*
X91210610Y72620635D01*
X91210610Y72620635D02*
X91210610Y72534921D01*
X91210610Y72534921D02*
X91182038Y72420635D01*
X91182038Y72420635D02*
X91153467Y72363492D01*
X91153467Y72363492D02*
X91096324Y72306349D01*
X91096324Y72306349D02*
X91010610Y72277778D01*
X91010610Y72277778D02*
X90867753Y72277778D01*
X13239180Y89267313D02*
X13286800Y89219694D01*
X13286800Y89219694D02*
X13334419Y89076837D01*
X13334419Y89076837D02*
X13334419Y88981599D01*
X13334419Y88981599D02*
X13286800Y88838742D01*
X13286800Y88838742D02*
X13191561Y88743504D01*
X13191561Y88743504D02*
X13096323Y88695885D01*
X13096323Y88695885D02*
X12905847Y88648266D01*
X12905847Y88648266D02*
X12762990Y88648266D01*
X12762990Y88648266D02*
X12572514Y88695885D01*
X12572514Y88695885D02*
X12477276Y88743504D01*
X12477276Y88743504D02*
X12382038Y88838742D01*
X12382038Y88838742D02*
X12334419Y88981599D01*
X12334419Y88981599D02*
X12334419Y89076837D01*
X12334419Y89076837D02*
X12382038Y89219694D01*
X12382038Y89219694D02*
X12429657Y89267313D01*
X12810609Y90029218D02*
X12810609Y89695885D01*
X13334419Y89695885D02*
X12334419Y89695885D01*
X12334419Y89695885D02*
X12334419Y90172075D01*
X13239180Y91124456D02*
X13286800Y91076837D01*
X13286800Y91076837D02*
X13334419Y90933980D01*
X13334419Y90933980D02*
X13334419Y90838742D01*
X13334419Y90838742D02*
X13286800Y90695885D01*
X13286800Y90695885D02*
X13191561Y90600647D01*
X13191561Y90600647D02*
X13096323Y90553028D01*
X13096323Y90553028D02*
X12905847Y90505409D01*
X12905847Y90505409D02*
X12762990Y90505409D01*
X12762990Y90505409D02*
X12572514Y90553028D01*
X12572514Y90553028D02*
X12477276Y90600647D01*
X12477276Y90600647D02*
X12382038Y90695885D01*
X12382038Y90695885D02*
X12334419Y90838742D01*
X12334419Y90838742D02*
X12334419Y90933980D01*
X12334419Y90933980D02*
X12382038Y91076837D01*
X12382038Y91076837D02*
X12429657Y91124456D01*
X84520146Y71064915D02*
X84605860Y71036343D01*
X84605860Y71036343D02*
X84634431Y71007772D01*
X84634431Y71007772D02*
X84663003Y70950629D01*
X84663003Y70950629D02*
X84663003Y70864915D01*
X84663003Y70864915D02*
X84634431Y70807772D01*
X84634431Y70807772D02*
X84605860Y70779200D01*
X84605860Y70779200D02*
X84548717Y70750629D01*
X84548717Y70750629D02*
X84320146Y70750629D01*
X84320146Y70750629D02*
X84320146Y71350629D01*
X84320146Y71350629D02*
X84520146Y71350629D01*
X84520146Y71350629D02*
X84577289Y71322058D01*
X84577289Y71322058D02*
X84605860Y71293486D01*
X84605860Y71293486D02*
X84634431Y71236343D01*
X84634431Y71236343D02*
X84634431Y71179200D01*
X84634431Y71179200D02*
X84605860Y71122058D01*
X84605860Y71122058D02*
X84577289Y71093486D01*
X84577289Y71093486D02*
X84520146Y71064915D01*
X84520146Y71064915D02*
X84320146Y71064915D01*
X84834431Y71350629D02*
X85177289Y71350629D01*
X85005860Y70750629D02*
X85005860Y71350629D01*
X85834432Y70750629D02*
X85834432Y71350629D01*
X85834432Y71350629D02*
X85977289Y71350629D01*
X85977289Y71350629D02*
X86063003Y71322058D01*
X86063003Y71322058D02*
X86120146Y71264915D01*
X86120146Y71264915D02*
X86148717Y71207772D01*
X86148717Y71207772D02*
X86177289Y71093486D01*
X86177289Y71093486D02*
X86177289Y71007772D01*
X86177289Y71007772D02*
X86148717Y70893486D01*
X86148717Y70893486D02*
X86120146Y70836343D01*
X86120146Y70836343D02*
X86063003Y70779200D01*
X86063003Y70779200D02*
X85977289Y70750629D01*
X85977289Y70750629D02*
X85834432Y70750629D01*
X86434432Y71064915D02*
X86634432Y71064915D01*
X86720146Y70750629D02*
X86434432Y70750629D01*
X86434432Y70750629D02*
X86434432Y71350629D01*
X86434432Y71350629D02*
X86720146Y71350629D01*
X87177289Y71064915D02*
X87263003Y71036343D01*
X87263003Y71036343D02*
X87291574Y71007772D01*
X87291574Y71007772D02*
X87320146Y70950629D01*
X87320146Y70950629D02*
X87320146Y70864915D01*
X87320146Y70864915D02*
X87291574Y70807772D01*
X87291574Y70807772D02*
X87263003Y70779200D01*
X87263003Y70779200D02*
X87205860Y70750629D01*
X87205860Y70750629D02*
X86977289Y70750629D01*
X86977289Y70750629D02*
X86977289Y71350629D01*
X86977289Y71350629D02*
X87177289Y71350629D01*
X87177289Y71350629D02*
X87234432Y71322058D01*
X87234432Y71322058D02*
X87263003Y71293486D01*
X87263003Y71293486D02*
X87291574Y71236343D01*
X87291574Y71236343D02*
X87291574Y71179200D01*
X87291574Y71179200D02*
X87263003Y71122058D01*
X87263003Y71122058D02*
X87234432Y71093486D01*
X87234432Y71093486D02*
X87177289Y71064915D01*
X87177289Y71064915D02*
X86977289Y71064915D01*
X87577289Y71350629D02*
X87577289Y70864915D01*
X87577289Y70864915D02*
X87605860Y70807772D01*
X87605860Y70807772D02*
X87634432Y70779200D01*
X87634432Y70779200D02*
X87691574Y70750629D01*
X87691574Y70750629D02*
X87805860Y70750629D01*
X87805860Y70750629D02*
X87863003Y70779200D01*
X87863003Y70779200D02*
X87891574Y70807772D01*
X87891574Y70807772D02*
X87920146Y70864915D01*
X87920146Y70864915D02*
X87920146Y71350629D01*
X88520145Y71322058D02*
X88463003Y71350629D01*
X88463003Y71350629D02*
X88377288Y71350629D01*
X88377288Y71350629D02*
X88291574Y71322058D01*
X88291574Y71322058D02*
X88234431Y71264915D01*
X88234431Y71264915D02*
X88205860Y71207772D01*
X88205860Y71207772D02*
X88177288Y71093486D01*
X88177288Y71093486D02*
X88177288Y71007772D01*
X88177288Y71007772D02*
X88205860Y70893486D01*
X88205860Y70893486D02*
X88234431Y70836343D01*
X88234431Y70836343D02*
X88291574Y70779200D01*
X88291574Y70779200D02*
X88377288Y70750629D01*
X88377288Y70750629D02*
X88434431Y70750629D01*
X88434431Y70750629D02*
X88520145Y70779200D01*
X88520145Y70779200D02*
X88548717Y70807772D01*
X88548717Y70807772D02*
X88548717Y71007772D01*
X88548717Y71007772D02*
X88434431Y71007772D01*
X89263003Y71350629D02*
X89263003Y70864915D01*
X89263003Y70864915D02*
X89291574Y70807772D01*
X89291574Y70807772D02*
X89320146Y70779200D01*
X89320146Y70779200D02*
X89377288Y70750629D01*
X89377288Y70750629D02*
X89491574Y70750629D01*
X89491574Y70750629D02*
X89548717Y70779200D01*
X89548717Y70779200D02*
X89577288Y70807772D01*
X89577288Y70807772D02*
X89605860Y70864915D01*
X89605860Y70864915D02*
X89605860Y71350629D01*
X89863002Y70922058D02*
X90148717Y70922058D01*
X89805859Y70750629D02*
X90005859Y71350629D01*
X90005859Y71350629D02*
X90205859Y70750629D01*
X90748717Y70750629D02*
X90548717Y71036343D01*
X90405860Y70750629D02*
X90405860Y71350629D01*
X90405860Y71350629D02*
X90634431Y71350629D01*
X90634431Y71350629D02*
X90691574Y71322058D01*
X90691574Y71322058D02*
X90720145Y71293486D01*
X90720145Y71293486D02*
X90748717Y71236343D01*
X90748717Y71236343D02*
X90748717Y71150629D01*
X90748717Y71150629D02*
X90720145Y71093486D01*
X90720145Y71093486D02*
X90691574Y71064915D01*
X90691574Y71064915D02*
X90634431Y71036343D01*
X90634431Y71036343D02*
X90405860Y71036343D01*
X90920145Y71350629D02*
X91263003Y71350629D01*
X91091574Y70750629D02*
X91091574Y71350629D01*
X27526704Y27942266D02*
X27526704Y28418456D01*
X27812419Y27847028D02*
X26812419Y28180361D01*
X26812419Y28180361D02*
X27812419Y28513694D01*
X27717180Y29418456D02*
X27764800Y29370837D01*
X27764800Y29370837D02*
X27812419Y29227980D01*
X27812419Y29227980D02*
X27812419Y29132742D01*
X27812419Y29132742D02*
X27764800Y28989885D01*
X27764800Y28989885D02*
X27669561Y28894647D01*
X27669561Y28894647D02*
X27574323Y28847028D01*
X27574323Y28847028D02*
X27383847Y28799409D01*
X27383847Y28799409D02*
X27240990Y28799409D01*
X27240990Y28799409D02*
X27050514Y28847028D01*
X27050514Y28847028D02*
X26955276Y28894647D01*
X26955276Y28894647D02*
X26860038Y28989885D01*
X26860038Y28989885D02*
X26812419Y29132742D01*
X26812419Y29132742D02*
X26812419Y29227980D01*
X26812419Y29227980D02*
X26860038Y29370837D01*
X26860038Y29370837D02*
X26907657Y29418456D01*
X27812419Y30418456D02*
X27336228Y30085123D01*
X27812419Y29847028D02*
X26812419Y29847028D01*
X26812419Y29847028D02*
X26812419Y30227980D01*
X26812419Y30227980D02*
X26860038Y30323218D01*
X26860038Y30323218D02*
X26907657Y30370837D01*
X26907657Y30370837D02*
X27002895Y30418456D01*
X27002895Y30418456D02*
X27145752Y30418456D01*
X27145752Y30418456D02*
X27240990Y30370837D01*
X27240990Y30370837D02*
X27288609Y30323218D01*
X27288609Y30323218D02*
X27336228Y30227980D01*
X27336228Y30227980D02*
X27336228Y29847028D01*
X20605180Y89267313D02*
X20652800Y89219694D01*
X20652800Y89219694D02*
X20700419Y89076837D01*
X20700419Y89076837D02*
X20700419Y88981599D01*
X20700419Y88981599D02*
X20652800Y88838742D01*
X20652800Y88838742D02*
X20557561Y88743504D01*
X20557561Y88743504D02*
X20462323Y88695885D01*
X20462323Y88695885D02*
X20271847Y88648266D01*
X20271847Y88648266D02*
X20128990Y88648266D01*
X20128990Y88648266D02*
X19938514Y88695885D01*
X19938514Y88695885D02*
X19843276Y88743504D01*
X19843276Y88743504D02*
X19748038Y88838742D01*
X19748038Y88838742D02*
X19700419Y88981599D01*
X19700419Y88981599D02*
X19700419Y89076837D01*
X19700419Y89076837D02*
X19748038Y89219694D01*
X19748038Y89219694D02*
X19795657Y89267313D01*
X20700419Y89695885D02*
X19700419Y89695885D01*
X19700419Y89695885D02*
X19700419Y90076837D01*
X19700419Y90076837D02*
X19748038Y90172075D01*
X19748038Y90172075D02*
X19795657Y90219694D01*
X19795657Y90219694D02*
X19890895Y90267313D01*
X19890895Y90267313D02*
X20033752Y90267313D01*
X20033752Y90267313D02*
X20128990Y90219694D01*
X20128990Y90219694D02*
X20176609Y90172075D01*
X20176609Y90172075D02*
X20224228Y90076837D01*
X20224228Y90076837D02*
X20224228Y89695885D01*
X20605180Y91267313D02*
X20652800Y91219694D01*
X20652800Y91219694D02*
X20700419Y91076837D01*
X20700419Y91076837D02*
X20700419Y90981599D01*
X20700419Y90981599D02*
X20652800Y90838742D01*
X20652800Y90838742D02*
X20557561Y90743504D01*
X20557561Y90743504D02*
X20462323Y90695885D01*
X20462323Y90695885D02*
X20271847Y90648266D01*
X20271847Y90648266D02*
X20128990Y90648266D01*
X20128990Y90648266D02*
X19938514Y90695885D01*
X19938514Y90695885D02*
X19843276Y90743504D01*
X19843276Y90743504D02*
X19748038Y90838742D01*
X19748038Y90838742D02*
X19700419Y90981599D01*
X19700419Y90981599D02*
X19700419Y91076837D01*
X19700419Y91076837D02*
X19748038Y91219694D01*
X19748038Y91219694D02*
X19795657Y91267313D01*
X27812419Y22401885D02*
X26812419Y22401885D01*
X27812419Y22878075D02*
X26812419Y22878075D01*
X26812419Y22878075D02*
X27812419Y23449503D01*
X27812419Y23449503D02*
X26812419Y23449503D01*
X26812419Y24211408D02*
X27526704Y24211408D01*
X27526704Y24211408D02*
X27669561Y24163789D01*
X27669561Y24163789D02*
X27764800Y24068551D01*
X27764800Y24068551D02*
X27812419Y23925694D01*
X27812419Y23925694D02*
X27812419Y23830456D01*
X83212646Y101088115D02*
X83298360Y101059543D01*
X83298360Y101059543D02*
X83326931Y101030972D01*
X83326931Y101030972D02*
X83355503Y100973829D01*
X83355503Y100973829D02*
X83355503Y100888115D01*
X83355503Y100888115D02*
X83326931Y100830972D01*
X83326931Y100830972D02*
X83298360Y100802400D01*
X83298360Y100802400D02*
X83241217Y100773829D01*
X83241217Y100773829D02*
X83012646Y100773829D01*
X83012646Y100773829D02*
X83012646Y101373829D01*
X83012646Y101373829D02*
X83212646Y101373829D01*
X83212646Y101373829D02*
X83269789Y101345258D01*
X83269789Y101345258D02*
X83298360Y101316686D01*
X83298360Y101316686D02*
X83326931Y101259543D01*
X83326931Y101259543D02*
X83326931Y101202400D01*
X83326931Y101202400D02*
X83298360Y101145258D01*
X83298360Y101145258D02*
X83269789Y101116686D01*
X83269789Y101116686D02*
X83212646Y101088115D01*
X83212646Y101088115D02*
X83012646Y101088115D01*
X83526931Y101373829D02*
X83869789Y101373829D01*
X83698360Y100773829D02*
X83698360Y101373829D01*
X83926932Y100716686D02*
X84384074Y100716686D01*
X84526932Y100773829D02*
X84526932Y101373829D01*
X84526932Y101373829D02*
X84755503Y101373829D01*
X84755503Y101373829D02*
X84812646Y101345258D01*
X84812646Y101345258D02*
X84841217Y101316686D01*
X84841217Y101316686D02*
X84869789Y101259543D01*
X84869789Y101259543D02*
X84869789Y101173829D01*
X84869789Y101173829D02*
X84841217Y101116686D01*
X84841217Y101116686D02*
X84812646Y101088115D01*
X84812646Y101088115D02*
X84755503Y101059543D01*
X84755503Y101059543D02*
X84526932Y101059543D01*
X85241217Y101373829D02*
X85355503Y101373829D01*
X85355503Y101373829D02*
X85412646Y101345258D01*
X85412646Y101345258D02*
X85469789Y101288115D01*
X85469789Y101288115D02*
X85498360Y101173829D01*
X85498360Y101173829D02*
X85498360Y100973829D01*
X85498360Y100973829D02*
X85469789Y100859543D01*
X85469789Y100859543D02*
X85412646Y100802400D01*
X85412646Y100802400D02*
X85355503Y100773829D01*
X85355503Y100773829D02*
X85241217Y100773829D01*
X85241217Y100773829D02*
X85184075Y100802400D01*
X85184075Y100802400D02*
X85126932Y100859543D01*
X85126932Y100859543D02*
X85098360Y100973829D01*
X85098360Y100973829D02*
X85098360Y101173829D01*
X85098360Y101173829D02*
X85126932Y101288115D01*
X85126932Y101288115D02*
X85184075Y101345258D01*
X85184075Y101345258D02*
X85241217Y101373829D01*
X85698360Y101373829D02*
X85841217Y100773829D01*
X85841217Y100773829D02*
X85955503Y101202400D01*
X85955503Y101202400D02*
X86069788Y100773829D01*
X86069788Y100773829D02*
X86212646Y101373829D01*
X86441217Y101088115D02*
X86641217Y101088115D01*
X86726931Y100773829D02*
X86441217Y100773829D01*
X86441217Y100773829D02*
X86441217Y101373829D01*
X86441217Y101373829D02*
X86726931Y101373829D01*
X87326931Y100773829D02*
X87126931Y101059543D01*
X86984074Y100773829D02*
X86984074Y101373829D01*
X86984074Y101373829D02*
X87212645Y101373829D01*
X87212645Y101373829D02*
X87269788Y101345258D01*
X87269788Y101345258D02*
X87298359Y101316686D01*
X87298359Y101316686D02*
X87326931Y101259543D01*
X87326931Y101259543D02*
X87326931Y101173829D01*
X87326931Y101173829D02*
X87298359Y101116686D01*
X87298359Y101116686D02*
X87269788Y101088115D01*
X87269788Y101088115D02*
X87212645Y101059543D01*
X87212645Y101059543D02*
X86984074Y101059543D01*
X91620074Y96923795D02*
X91905789Y96923795D01*
X91562931Y96752366D02*
X91762931Y97352366D01*
X91762931Y97352366D02*
X91962931Y96752366D01*
X92505789Y96809509D02*
X92477217Y96780937D01*
X92477217Y96780937D02*
X92391503Y96752366D01*
X92391503Y96752366D02*
X92334360Y96752366D01*
X92334360Y96752366D02*
X92248646Y96780937D01*
X92248646Y96780937D02*
X92191503Y96838080D01*
X92191503Y96838080D02*
X92162932Y96895223D01*
X92162932Y96895223D02*
X92134360Y97009509D01*
X92134360Y97009509D02*
X92134360Y97095223D01*
X92134360Y97095223D02*
X92162932Y97209509D01*
X92162932Y97209509D02*
X92191503Y97266652D01*
X92191503Y97266652D02*
X92248646Y97323795D01*
X92248646Y97323795D02*
X92334360Y97352366D01*
X92334360Y97352366D02*
X92391503Y97352366D01*
X92391503Y97352366D02*
X92477217Y97323795D01*
X92477217Y97323795D02*
X92505789Y97295223D01*
X92677217Y97352366D02*
X93020075Y97352366D01*
X92848646Y96752366D02*
X92848646Y97352366D01*
X93220075Y96752366D02*
X93220075Y97352366D01*
X93420074Y97352366D02*
X93620074Y96752366D01*
X93620074Y96752366D02*
X93820074Y97352366D01*
X94020075Y97066652D02*
X94220075Y97066652D01*
X94305789Y96752366D02*
X94020075Y96752366D01*
X94020075Y96752366D02*
X94020075Y97352366D01*
X94020075Y97352366D02*
X94305789Y97352366D01*
D11*
X85261219Y77278193D02*
X85213600Y77230573D01*
X85213600Y77230573D02*
X85070743Y77182954D01*
X85070743Y77182954D02*
X84975505Y77182954D01*
X84975505Y77182954D02*
X84832648Y77230573D01*
X84832648Y77230573D02*
X84737410Y77325812D01*
X84737410Y77325812D02*
X84689791Y77421050D01*
X84689791Y77421050D02*
X84642172Y77611526D01*
X84642172Y77611526D02*
X84642172Y77754383D01*
X84642172Y77754383D02*
X84689791Y77944859D01*
X84689791Y77944859D02*
X84737410Y78040097D01*
X84737410Y78040097D02*
X84832648Y78135335D01*
X84832648Y78135335D02*
X84975505Y78182954D01*
X84975505Y78182954D02*
X85070743Y78182954D01*
X85070743Y78182954D02*
X85213600Y78135335D01*
X85213600Y78135335D02*
X85261219Y78087716D01*
X85594553Y78182954D02*
X86213600Y78182954D01*
X86213600Y78182954D02*
X85880267Y77802002D01*
X85880267Y77802002D02*
X86023124Y77802002D01*
X86023124Y77802002D02*
X86118362Y77754383D01*
X86118362Y77754383D02*
X86165981Y77706764D01*
X86165981Y77706764D02*
X86213600Y77611526D01*
X86213600Y77611526D02*
X86213600Y77373431D01*
X86213600Y77373431D02*
X86165981Y77278193D01*
X86165981Y77278193D02*
X86118362Y77230573D01*
X86118362Y77230573D02*
X86023124Y77182954D01*
X86023124Y77182954D02*
X85737410Y77182954D01*
X85737410Y77182954D02*
X85642172Y77230573D01*
X85642172Y77230573D02*
X85594553Y77278193D01*
X100258819Y57412096D02*
X100258819Y57983524D01*
X101258819Y57697810D02*
X100258819Y57697810D01*
X101258819Y58316858D02*
X100258819Y58316858D01*
X100258819Y58316858D02*
X100258819Y58697810D01*
X100258819Y58697810D02*
X100306438Y58793048D01*
X100306438Y58793048D02*
X100354057Y58840667D01*
X100354057Y58840667D02*
X100449295Y58888286D01*
X100449295Y58888286D02*
X100592152Y58888286D01*
X100592152Y58888286D02*
X100687390Y58840667D01*
X100687390Y58840667D02*
X100735009Y58793048D01*
X100735009Y58793048D02*
X100782628Y58697810D01*
X100782628Y58697810D02*
X100782628Y58316858D01*
X100258819Y59793048D02*
X100258819Y59316858D01*
X100258819Y59316858D02*
X100735009Y59269239D01*
X100735009Y59269239D02*
X100687390Y59316858D01*
X100687390Y59316858D02*
X100639771Y59412096D01*
X100639771Y59412096D02*
X100639771Y59650191D01*
X100639771Y59650191D02*
X100687390Y59745429D01*
X100687390Y59745429D02*
X100735009Y59793048D01*
X100735009Y59793048D02*
X100830247Y59840667D01*
X100830247Y59840667D02*
X101068342Y59840667D01*
X101068342Y59840667D02*
X101163580Y59793048D01*
X101163580Y59793048D02*
X101211200Y59745429D01*
X101211200Y59745429D02*
X101258819Y59650191D01*
X101258819Y59650191D02*
X101258819Y59412096D01*
X101258819Y59412096D02*
X101211200Y59316858D01*
X101211200Y59316858D02*
X101163580Y59269239D01*
X38978669Y21677334D02*
X38502478Y21344001D01*
X38978669Y21105906D02*
X37978669Y21105906D01*
X37978669Y21105906D02*
X37978669Y21486858D01*
X37978669Y21486858D02*
X38026288Y21582096D01*
X38026288Y21582096D02*
X38073907Y21629715D01*
X38073907Y21629715D02*
X38169145Y21677334D01*
X38169145Y21677334D02*
X38312002Y21677334D01*
X38312002Y21677334D02*
X38407240Y21629715D01*
X38407240Y21629715D02*
X38454859Y21582096D01*
X38454859Y21582096D02*
X38502478Y21486858D01*
X38502478Y21486858D02*
X38502478Y21105906D01*
X37978669Y22010668D02*
X37978669Y22629715D01*
X37978669Y22629715D02*
X38359621Y22296382D01*
X38359621Y22296382D02*
X38359621Y22439239D01*
X38359621Y22439239D02*
X38407240Y22534477D01*
X38407240Y22534477D02*
X38454859Y22582096D01*
X38454859Y22582096D02*
X38550097Y22629715D01*
X38550097Y22629715D02*
X38788192Y22629715D01*
X38788192Y22629715D02*
X38883430Y22582096D01*
X38883430Y22582096D02*
X38931050Y22534477D01*
X38931050Y22534477D02*
X38978669Y22439239D01*
X38978669Y22439239D02*
X38978669Y22153525D01*
X38978669Y22153525D02*
X38931050Y22058287D01*
X38931050Y22058287D02*
X38883430Y22010668D01*
X85261219Y78588069D02*
X85213600Y78540449D01*
X85213600Y78540449D02*
X85070743Y78492830D01*
X85070743Y78492830D02*
X84975505Y78492830D01*
X84975505Y78492830D02*
X84832648Y78540449D01*
X84832648Y78540449D02*
X84737410Y78635688D01*
X84737410Y78635688D02*
X84689791Y78730926D01*
X84689791Y78730926D02*
X84642172Y78921402D01*
X84642172Y78921402D02*
X84642172Y79064259D01*
X84642172Y79064259D02*
X84689791Y79254735D01*
X84689791Y79254735D02*
X84737410Y79349973D01*
X84737410Y79349973D02*
X84832648Y79445211D01*
X84832648Y79445211D02*
X84975505Y79492830D01*
X84975505Y79492830D02*
X85070743Y79492830D01*
X85070743Y79492830D02*
X85213600Y79445211D01*
X85213600Y79445211D02*
X85261219Y79397592D01*
X86118362Y79159497D02*
X86118362Y78492830D01*
X85880267Y79540449D02*
X85642172Y78826164D01*
X85642172Y78826164D02*
X86261219Y78826164D01*
X95836037Y77451064D02*
X95359846Y77117731D01*
X95836037Y76879636D02*
X94836037Y76879636D01*
X94836037Y76879636D02*
X94836037Y77260588D01*
X94836037Y77260588D02*
X94883656Y77355826D01*
X94883656Y77355826D02*
X94931275Y77403445D01*
X94931275Y77403445D02*
X95026513Y77451064D01*
X95026513Y77451064D02*
X95169370Y77451064D01*
X95169370Y77451064D02*
X95264608Y77403445D01*
X95264608Y77403445D02*
X95312227Y77355826D01*
X95312227Y77355826D02*
X95359846Y77260588D01*
X95359846Y77260588D02*
X95359846Y76879636D01*
X95836037Y78403445D02*
X95836037Y77832017D01*
X95836037Y78117731D02*
X94836037Y78117731D01*
X94836037Y78117731D02*
X94978894Y78022493D01*
X94978894Y78022493D02*
X95074132Y77927255D01*
X95074132Y77927255D02*
X95121751Y77832017D01*
X94836037Y79022493D02*
X94836037Y79117731D01*
X94836037Y79117731D02*
X94883656Y79212969D01*
X94883656Y79212969D02*
X94931275Y79260588D01*
X94931275Y79260588D02*
X95026513Y79308207D01*
X95026513Y79308207D02*
X95216989Y79355826D01*
X95216989Y79355826D02*
X95455084Y79355826D01*
X95455084Y79355826D02*
X95645560Y79308207D01*
X95645560Y79308207D02*
X95740798Y79260588D01*
X95740798Y79260588D02*
X95788418Y79212969D01*
X95788418Y79212969D02*
X95836037Y79117731D01*
X95836037Y79117731D02*
X95836037Y79022493D01*
X95836037Y79022493D02*
X95788418Y78927255D01*
X95788418Y78927255D02*
X95740798Y78879636D01*
X95740798Y78879636D02*
X95645560Y78832017D01*
X95645560Y78832017D02*
X95455084Y78784398D01*
X95455084Y78784398D02*
X95216989Y78784398D01*
X95216989Y78784398D02*
X95026513Y78832017D01*
X95026513Y78832017D02*
X94931275Y78879636D01*
X94931275Y78879636D02*
X94883656Y78927255D01*
X94883656Y78927255D02*
X94836037Y79022493D01*
X38978669Y27521334D02*
X38502478Y27188001D01*
X38978669Y26949906D02*
X37978669Y26949906D01*
X37978669Y26949906D02*
X37978669Y27330858D01*
X37978669Y27330858D02*
X38026288Y27426096D01*
X38026288Y27426096D02*
X38073907Y27473715D01*
X38073907Y27473715D02*
X38169145Y27521334D01*
X38169145Y27521334D02*
X38312002Y27521334D01*
X38312002Y27521334D02*
X38407240Y27473715D01*
X38407240Y27473715D02*
X38454859Y27426096D01*
X38454859Y27426096D02*
X38502478Y27330858D01*
X38502478Y27330858D02*
X38502478Y26949906D01*
X37978669Y28426096D02*
X37978669Y27949906D01*
X37978669Y27949906D02*
X38454859Y27902287D01*
X38454859Y27902287D02*
X38407240Y27949906D01*
X38407240Y27949906D02*
X38359621Y28045144D01*
X38359621Y28045144D02*
X38359621Y28283239D01*
X38359621Y28283239D02*
X38407240Y28378477D01*
X38407240Y28378477D02*
X38454859Y28426096D01*
X38454859Y28426096D02*
X38550097Y28473715D01*
X38550097Y28473715D02*
X38788192Y28473715D01*
X38788192Y28473715D02*
X38883430Y28426096D01*
X38883430Y28426096D02*
X38931050Y28378477D01*
X38931050Y28378477D02*
X38978669Y28283239D01*
X38978669Y28283239D02*
X38978669Y28045144D01*
X38978669Y28045144D02*
X38931050Y27949906D01*
X38931050Y27949906D02*
X38883430Y27902287D01*
X84605905Y102823181D02*
X84605905Y103823181D01*
X84605905Y103823181D02*
X84844000Y103823181D01*
X84844000Y103823181D02*
X84986857Y103775562D01*
X84986857Y103775562D02*
X85082095Y103680324D01*
X85082095Y103680324D02*
X85129714Y103585086D01*
X85129714Y103585086D02*
X85177333Y103394610D01*
X85177333Y103394610D02*
X85177333Y103251753D01*
X85177333Y103251753D02*
X85129714Y103061277D01*
X85129714Y103061277D02*
X85082095Y102966039D01*
X85082095Y102966039D02*
X84986857Y102870800D01*
X84986857Y102870800D02*
X84844000Y102823181D01*
X84844000Y102823181D02*
X84605905Y102823181D01*
X86129714Y102823181D02*
X85558286Y102823181D01*
X85844000Y102823181D02*
X85844000Y103823181D01*
X85844000Y103823181D02*
X85748762Y103680324D01*
X85748762Y103680324D02*
X85653524Y103585086D01*
X85653524Y103585086D02*
X85558286Y103537467D01*
X91977319Y74402667D02*
X92691604Y74402667D01*
X92691604Y74402667D02*
X92834461Y74355048D01*
X92834461Y74355048D02*
X92929700Y74259810D01*
X92929700Y74259810D02*
X92977319Y74116953D01*
X92977319Y74116953D02*
X92977319Y74021715D01*
X92072557Y74831239D02*
X92024938Y74878858D01*
X92024938Y74878858D02*
X91977319Y74974096D01*
X91977319Y74974096D02*
X91977319Y75212191D01*
X91977319Y75212191D02*
X92024938Y75307429D01*
X92024938Y75307429D02*
X92072557Y75355048D01*
X92072557Y75355048D02*
X92167795Y75402667D01*
X92167795Y75402667D02*
X92263033Y75402667D01*
X92263033Y75402667D02*
X92405890Y75355048D01*
X92405890Y75355048D02*
X92977319Y74783620D01*
X92977319Y74783620D02*
X92977319Y75402667D01*
X90513333Y10375181D02*
X90180000Y10851372D01*
X89941905Y10375181D02*
X89941905Y11375181D01*
X89941905Y11375181D02*
X90322857Y11375181D01*
X90322857Y11375181D02*
X90418095Y11327562D01*
X90418095Y11327562D02*
X90465714Y11279943D01*
X90465714Y11279943D02*
X90513333Y11184705D01*
X90513333Y11184705D02*
X90513333Y11041848D01*
X90513333Y11041848D02*
X90465714Y10946610D01*
X90465714Y10946610D02*
X90418095Y10898991D01*
X90418095Y10898991D02*
X90322857Y10851372D01*
X90322857Y10851372D02*
X89941905Y10851372D01*
X90894286Y11279943D02*
X90941905Y11327562D01*
X90941905Y11327562D02*
X91037143Y11375181D01*
X91037143Y11375181D02*
X91275238Y11375181D01*
X91275238Y11375181D02*
X91370476Y11327562D01*
X91370476Y11327562D02*
X91418095Y11279943D01*
X91418095Y11279943D02*
X91465714Y11184705D01*
X91465714Y11184705D02*
X91465714Y11089467D01*
X91465714Y11089467D02*
X91418095Y10946610D01*
X91418095Y10946610D02*
X90846667Y10375181D01*
X90846667Y10375181D02*
X91465714Y10375181D01*
X81530819Y62238096D02*
X81530819Y62809524D01*
X82530819Y62523810D02*
X81530819Y62523810D01*
X82530819Y63142858D02*
X81530819Y63142858D01*
X81530819Y63142858D02*
X81530819Y63523810D01*
X81530819Y63523810D02*
X81578438Y63619048D01*
X81578438Y63619048D02*
X81626057Y63666667D01*
X81626057Y63666667D02*
X81721295Y63714286D01*
X81721295Y63714286D02*
X81864152Y63714286D01*
X81864152Y63714286D02*
X81959390Y63666667D01*
X81959390Y63666667D02*
X82007009Y63619048D01*
X82007009Y63619048D02*
X82054628Y63523810D01*
X82054628Y63523810D02*
X82054628Y63142858D01*
X81626057Y64095239D02*
X81578438Y64142858D01*
X81578438Y64142858D02*
X81530819Y64238096D01*
X81530819Y64238096D02*
X81530819Y64476191D01*
X81530819Y64476191D02*
X81578438Y64571429D01*
X81578438Y64571429D02*
X81626057Y64619048D01*
X81626057Y64619048D02*
X81721295Y64666667D01*
X81721295Y64666667D02*
X81816533Y64666667D01*
X81816533Y64666667D02*
X81959390Y64619048D01*
X81959390Y64619048D02*
X82530819Y64047620D01*
X82530819Y64047620D02*
X82530819Y64666667D01*
X32835754Y28664820D02*
X32835754Y29474343D01*
X32835754Y29474343D02*
X32788135Y29569581D01*
X32788135Y29569581D02*
X32740516Y29617200D01*
X32740516Y29617200D02*
X32645278Y29664820D01*
X32645278Y29664820D02*
X32454802Y29664820D01*
X32454802Y29664820D02*
X32359564Y29617200D01*
X32359564Y29617200D02*
X32311945Y29569581D01*
X32311945Y29569581D02*
X32264326Y29474343D01*
X32264326Y29474343D02*
X32264326Y28664820D01*
X31883373Y28664820D02*
X31264326Y28664820D01*
X31264326Y28664820D02*
X31597659Y29045772D01*
X31597659Y29045772D02*
X31454802Y29045772D01*
X31454802Y29045772D02*
X31359564Y29093391D01*
X31359564Y29093391D02*
X31311945Y29141010D01*
X31311945Y29141010D02*
X31264326Y29236248D01*
X31264326Y29236248D02*
X31264326Y29474343D01*
X31264326Y29474343D02*
X31311945Y29569581D01*
X31311945Y29569581D02*
X31359564Y29617200D01*
X31359564Y29617200D02*
X31454802Y29664820D01*
X31454802Y29664820D02*
X31740516Y29664820D01*
X31740516Y29664820D02*
X31835754Y29617200D01*
X31835754Y29617200D02*
X31883373Y29569581D01*
X35052000Y26173781D02*
X35052000Y25935686D01*
X34813905Y26030924D02*
X35052000Y25935686D01*
X35052000Y25935686D02*
X35290095Y26030924D01*
X34909143Y25745210D02*
X35052000Y25935686D01*
X35052000Y25935686D02*
X35194857Y25745210D01*
X35051999Y25083420D02*
X35051999Y25321515D01*
X35290094Y25226277D02*
X35051999Y25321515D01*
X35051999Y25321515D02*
X34813904Y25226277D01*
X35194856Y25511991D02*
X35051999Y25321515D01*
X35051999Y25321515D02*
X34909142Y25511991D01*
X32566757Y66960762D02*
X32519138Y66865524D01*
X32519138Y66865524D02*
X32423900Y66770286D01*
X32423900Y66770286D02*
X32281042Y66627429D01*
X32281042Y66627429D02*
X32233423Y66532191D01*
X32233423Y66532191D02*
X32233423Y66436953D01*
X32471519Y66484572D02*
X32423900Y66389334D01*
X32423900Y66389334D02*
X32328661Y66294096D01*
X32328661Y66294096D02*
X32138185Y66246477D01*
X32138185Y66246477D02*
X31804852Y66246477D01*
X31804852Y66246477D02*
X31614376Y66294096D01*
X31614376Y66294096D02*
X31519138Y66389334D01*
X31519138Y66389334D02*
X31471519Y66484572D01*
X31471519Y66484572D02*
X31471519Y66675048D01*
X31471519Y66675048D02*
X31519138Y66770286D01*
X31519138Y66770286D02*
X31614376Y66865524D01*
X31614376Y66865524D02*
X31804852Y66913143D01*
X31804852Y66913143D02*
X32138185Y66913143D01*
X32138185Y66913143D02*
X32328661Y66865524D01*
X32328661Y66865524D02*
X32423900Y66770286D01*
X32423900Y66770286D02*
X32471519Y66675048D01*
X32471519Y66675048D02*
X32471519Y66484572D01*
X32471519Y67865524D02*
X32471519Y67294096D01*
X32471519Y67579810D02*
X31471519Y67579810D01*
X31471519Y67579810D02*
X31614376Y67484572D01*
X31614376Y67484572D02*
X31709614Y67389334D01*
X31709614Y67389334D02*
X31757233Y67294096D01*
X36869019Y63496000D02*
X37107114Y63496000D01*
X37011876Y63257905D02*
X37107114Y63496000D01*
X37107114Y63496000D02*
X37011876Y63734095D01*
X37297590Y63353143D02*
X37107114Y63496000D01*
X37107114Y63496000D02*
X37297590Y63638857D01*
X36869019Y63496000D02*
X37107114Y63496000D01*
X37011876Y63257905D02*
X37107114Y63496000D01*
X37107114Y63496000D02*
X37011876Y63734095D01*
X37297590Y63353143D02*
X37107114Y63496000D01*
X37107114Y63496000D02*
X37297590Y63638857D01*
X90513333Y13423181D02*
X90180000Y13899372D01*
X89941905Y13423181D02*
X89941905Y14423181D01*
X89941905Y14423181D02*
X90322857Y14423181D01*
X90322857Y14423181D02*
X90418095Y14375562D01*
X90418095Y14375562D02*
X90465714Y14327943D01*
X90465714Y14327943D02*
X90513333Y14232705D01*
X90513333Y14232705D02*
X90513333Y14089848D01*
X90513333Y14089848D02*
X90465714Y13994610D01*
X90465714Y13994610D02*
X90418095Y13946991D01*
X90418095Y13946991D02*
X90322857Y13899372D01*
X90322857Y13899372D02*
X89941905Y13899372D01*
X91465714Y13423181D02*
X90894286Y13423181D01*
X91180000Y13423181D02*
X91180000Y14423181D01*
X91180000Y14423181D02*
X91084762Y14280324D01*
X91084762Y14280324D02*
X90989524Y14185086D01*
X90989524Y14185086D02*
X90894286Y14137467D01*
X15794819Y94609143D02*
X15318628Y94275810D01*
X15794819Y94037715D02*
X14794819Y94037715D01*
X14794819Y94037715D02*
X14794819Y94418667D01*
X14794819Y94418667D02*
X14842438Y94513905D01*
X14842438Y94513905D02*
X14890057Y94561524D01*
X14890057Y94561524D02*
X14985295Y94609143D01*
X14985295Y94609143D02*
X15128152Y94609143D01*
X15128152Y94609143D02*
X15223390Y94561524D01*
X15223390Y94561524D02*
X15271009Y94513905D01*
X15271009Y94513905D02*
X15318628Y94418667D01*
X15318628Y94418667D02*
X15318628Y94037715D01*
X15794819Y95561524D02*
X15794819Y94990096D01*
X15794819Y95275810D02*
X14794819Y95275810D01*
X14794819Y95275810D02*
X14937676Y95180572D01*
X14937676Y95180572D02*
X15032914Y95085334D01*
X15032914Y95085334D02*
X15080533Y94990096D01*
X14794819Y95894858D02*
X14794819Y96513905D01*
X14794819Y96513905D02*
X15175771Y96180572D01*
X15175771Y96180572D02*
X15175771Y96323429D01*
X15175771Y96323429D02*
X15223390Y96418667D01*
X15223390Y96418667D02*
X15271009Y96466286D01*
X15271009Y96466286D02*
X15366247Y96513905D01*
X15366247Y96513905D02*
X15604342Y96513905D01*
X15604342Y96513905D02*
X15699580Y96466286D01*
X15699580Y96466286D02*
X15747200Y96418667D01*
X15747200Y96418667D02*
X15794819Y96323429D01*
X15794819Y96323429D02*
X15794819Y96037715D01*
X15794819Y96037715D02*
X15747200Y95942477D01*
X15747200Y95942477D02*
X15699580Y95894858D01*
X100252819Y49438096D02*
X100252819Y50009524D01*
X101252819Y49723810D02*
X100252819Y49723810D01*
X101252819Y50342858D02*
X100252819Y50342858D01*
X100252819Y50342858D02*
X100252819Y50723810D01*
X100252819Y50723810D02*
X100300438Y50819048D01*
X100300438Y50819048D02*
X100348057Y50866667D01*
X100348057Y50866667D02*
X100443295Y50914286D01*
X100443295Y50914286D02*
X100586152Y50914286D01*
X100586152Y50914286D02*
X100681390Y50866667D01*
X100681390Y50866667D02*
X100729009Y50819048D01*
X100729009Y50819048D02*
X100776628Y50723810D01*
X100776628Y50723810D02*
X100776628Y50342858D01*
X101252819Y51866667D02*
X101252819Y51295239D01*
X101252819Y51580953D02*
X100252819Y51580953D01*
X100252819Y51580953D02*
X100395676Y51485715D01*
X100395676Y51485715D02*
X100490914Y51390477D01*
X100490914Y51390477D02*
X100538533Y51295239D01*
X34191741Y49919429D02*
X34191741Y50519429D01*
X34191741Y50519429D02*
X34391741Y50090858D01*
X34391741Y50090858D02*
X34591741Y50519429D01*
X34591741Y50519429D02*
X34591741Y49919429D01*
X35163169Y50519429D02*
X34877455Y50519429D01*
X34877455Y50519429D02*
X34848883Y50233715D01*
X34848883Y50233715D02*
X34877455Y50262286D01*
X34877455Y50262286D02*
X34934598Y50290858D01*
X34934598Y50290858D02*
X35077455Y50290858D01*
X35077455Y50290858D02*
X35134598Y50262286D01*
X35134598Y50262286D02*
X35163169Y50233715D01*
X35163169Y50233715D02*
X35191740Y50176572D01*
X35191740Y50176572D02*
X35191740Y50033715D01*
X35191740Y50033715D02*
X35163169Y49976572D01*
X35163169Y49976572D02*
X35134598Y49948000D01*
X35134598Y49948000D02*
X35077455Y49919429D01*
X35077455Y49919429D02*
X34934598Y49919429D01*
X34934598Y49919429D02*
X34877455Y49948000D01*
X34877455Y49948000D02*
X34848883Y49976572D01*
X38978669Y24215334D02*
X38502478Y23882001D01*
X38978669Y23643906D02*
X37978669Y23643906D01*
X37978669Y23643906D02*
X37978669Y24024858D01*
X37978669Y24024858D02*
X38026288Y24120096D01*
X38026288Y24120096D02*
X38073907Y24167715D01*
X38073907Y24167715D02*
X38169145Y24215334D01*
X38169145Y24215334D02*
X38312002Y24215334D01*
X38312002Y24215334D02*
X38407240Y24167715D01*
X38407240Y24167715D02*
X38454859Y24120096D01*
X38454859Y24120096D02*
X38502478Y24024858D01*
X38502478Y24024858D02*
X38502478Y23643906D01*
X38312002Y25072477D02*
X38978669Y25072477D01*
X37931050Y24834382D02*
X38645335Y24596287D01*
X38645335Y24596287D02*
X38645335Y25215334D01*
X89708905Y97743181D02*
X89708905Y98743181D01*
X89708905Y98743181D02*
X89947000Y98743181D01*
X89947000Y98743181D02*
X90089857Y98695562D01*
X90089857Y98695562D02*
X90185095Y98600324D01*
X90185095Y98600324D02*
X90232714Y98505086D01*
X90232714Y98505086D02*
X90280333Y98314610D01*
X90280333Y98314610D02*
X90280333Y98171753D01*
X90280333Y98171753D02*
X90232714Y97981277D01*
X90232714Y97981277D02*
X90185095Y97886039D01*
X90185095Y97886039D02*
X90089857Y97790800D01*
X90089857Y97790800D02*
X89947000Y97743181D01*
X89947000Y97743181D02*
X89708905Y97743181D01*
X90661286Y98647943D02*
X90708905Y98695562D01*
X90708905Y98695562D02*
X90804143Y98743181D01*
X90804143Y98743181D02*
X91042238Y98743181D01*
X91042238Y98743181D02*
X91137476Y98695562D01*
X91137476Y98695562D02*
X91185095Y98647943D01*
X91185095Y98647943D02*
X91232714Y98552705D01*
X91232714Y98552705D02*
X91232714Y98457467D01*
X91232714Y98457467D02*
X91185095Y98314610D01*
X91185095Y98314610D02*
X90613667Y97743181D01*
X90613667Y97743181D02*
X91232714Y97743181D01*
X100252819Y53238096D02*
X100252819Y53809524D01*
X101252819Y53523810D02*
X100252819Y53523810D01*
X101252819Y54142858D02*
X100252819Y54142858D01*
X100252819Y54142858D02*
X100252819Y54523810D01*
X100252819Y54523810D02*
X100300438Y54619048D01*
X100300438Y54619048D02*
X100348057Y54666667D01*
X100348057Y54666667D02*
X100443295Y54714286D01*
X100443295Y54714286D02*
X100586152Y54714286D01*
X100586152Y54714286D02*
X100681390Y54666667D01*
X100681390Y54666667D02*
X100729009Y54619048D01*
X100729009Y54619048D02*
X100776628Y54523810D01*
X100776628Y54523810D02*
X100776628Y54142858D01*
X100252819Y55047620D02*
X100252819Y55666667D01*
X100252819Y55666667D02*
X100633771Y55333334D01*
X100633771Y55333334D02*
X100633771Y55476191D01*
X100633771Y55476191D02*
X100681390Y55571429D01*
X100681390Y55571429D02*
X100729009Y55619048D01*
X100729009Y55619048D02*
X100824247Y55666667D01*
X100824247Y55666667D02*
X101062342Y55666667D01*
X101062342Y55666667D02*
X101157580Y55619048D01*
X101157580Y55619048D02*
X101205200Y55571429D01*
X101205200Y55571429D02*
X101252819Y55476191D01*
X101252819Y55476191D02*
X101252819Y55190477D01*
X101252819Y55190477D02*
X101205200Y55095239D01*
X101205200Y55095239D02*
X101157580Y55047620D01*
X87207333Y102823181D02*
X86874000Y103299372D01*
X86635905Y102823181D02*
X86635905Y103823181D01*
X86635905Y103823181D02*
X87016857Y103823181D01*
X87016857Y103823181D02*
X87112095Y103775562D01*
X87112095Y103775562D02*
X87159714Y103727943D01*
X87159714Y103727943D02*
X87207333Y103632705D01*
X87207333Y103632705D02*
X87207333Y103489848D01*
X87207333Y103489848D02*
X87159714Y103394610D01*
X87159714Y103394610D02*
X87112095Y103346991D01*
X87112095Y103346991D02*
X87016857Y103299372D01*
X87016857Y103299372D02*
X86635905Y103299372D01*
X87540667Y103823181D02*
X88207333Y103823181D01*
X88207333Y103823181D02*
X87778762Y102823181D01*
X91717905Y77269181D02*
X91717905Y78269181D01*
X91717905Y78269181D02*
X91956000Y78269181D01*
X91956000Y78269181D02*
X92098857Y78221562D01*
X92098857Y78221562D02*
X92194095Y78126324D01*
X92194095Y78126324D02*
X92241714Y78031086D01*
X92241714Y78031086D02*
X92289333Y77840610D01*
X92289333Y77840610D02*
X92289333Y77697753D01*
X92289333Y77697753D02*
X92241714Y77507277D01*
X92241714Y77507277D02*
X92194095Y77412039D01*
X92194095Y77412039D02*
X92098857Y77316800D01*
X92098857Y77316800D02*
X91956000Y77269181D01*
X91956000Y77269181D02*
X91717905Y77269181D01*
X92622667Y78269181D02*
X93241714Y78269181D01*
X93241714Y78269181D02*
X92908381Y77888229D01*
X92908381Y77888229D02*
X93051238Y77888229D01*
X93051238Y77888229D02*
X93146476Y77840610D01*
X93146476Y77840610D02*
X93194095Y77792991D01*
X93194095Y77792991D02*
X93241714Y77697753D01*
X93241714Y77697753D02*
X93241714Y77459658D01*
X93241714Y77459658D02*
X93194095Y77364420D01*
X93194095Y77364420D02*
X93146476Y77316800D01*
X93146476Y77316800D02*
X93051238Y77269181D01*
X93051238Y77269181D02*
X92765524Y77269181D01*
X92765524Y77269181D02*
X92670286Y77316800D01*
X92670286Y77316800D02*
X92622667Y77364420D01*
D10*
X18640411Y75255353D02*
X17926126Y75255353D01*
X17926126Y75255353D02*
X17783269Y75302972D01*
X17783269Y75302972D02*
X17688031Y75398210D01*
X17688031Y75398210D02*
X17640411Y75541067D01*
X17640411Y75541067D02*
X17640411Y75636305D01*
X17640411Y74255353D02*
X17640411Y74826781D01*
X17640411Y74541067D02*
X18640411Y74541067D01*
X18640411Y74541067D02*
X18497554Y74636305D01*
X18497554Y74636305D02*
X18402316Y74731543D01*
X18402316Y74731543D02*
X18354697Y74826781D01*
D11*
X38978669Y30153999D02*
X38502478Y29820666D01*
X38978669Y29582571D02*
X37978669Y29582571D01*
X37978669Y29582571D02*
X37978669Y29963523D01*
X37978669Y29963523D02*
X38026288Y30058761D01*
X38026288Y30058761D02*
X38073907Y30106380D01*
X38073907Y30106380D02*
X38169145Y30153999D01*
X38169145Y30153999D02*
X38312002Y30153999D01*
X38312002Y30153999D02*
X38407240Y30106380D01*
X38407240Y30106380D02*
X38454859Y30058761D01*
X38454859Y30058761D02*
X38502478Y29963523D01*
X38502478Y29963523D02*
X38502478Y29582571D01*
X37978669Y31011142D02*
X37978669Y30820666D01*
X37978669Y30820666D02*
X38026288Y30725428D01*
X38026288Y30725428D02*
X38073907Y30677809D01*
X38073907Y30677809D02*
X38216764Y30582571D01*
X38216764Y30582571D02*
X38407240Y30534952D01*
X38407240Y30534952D02*
X38788192Y30534952D01*
X38788192Y30534952D02*
X38883430Y30582571D01*
X38883430Y30582571D02*
X38931050Y30630190D01*
X38931050Y30630190D02*
X38978669Y30725428D01*
X38978669Y30725428D02*
X38978669Y30915904D01*
X38978669Y30915904D02*
X38931050Y31011142D01*
X38931050Y31011142D02*
X38883430Y31058761D01*
X38883430Y31058761D02*
X38788192Y31106380D01*
X38788192Y31106380D02*
X38550097Y31106380D01*
X38550097Y31106380D02*
X38454859Y31058761D01*
X38454859Y31058761D02*
X38407240Y31011142D01*
X38407240Y31011142D02*
X38359621Y30915904D01*
X38359621Y30915904D02*
X38359621Y30725428D01*
X38359621Y30725428D02*
X38407240Y30630190D01*
X38407240Y30630190D02*
X38454859Y30582571D01*
X38454859Y30582571D02*
X38550097Y30534952D01*
X32566757Y74326762D02*
X32519138Y74231524D01*
X32519138Y74231524D02*
X32423900Y74136286D01*
X32423900Y74136286D02*
X32281042Y73993429D01*
X32281042Y73993429D02*
X32233423Y73898191D01*
X32233423Y73898191D02*
X32233423Y73802953D01*
X32471519Y73850572D02*
X32423900Y73755334D01*
X32423900Y73755334D02*
X32328661Y73660096D01*
X32328661Y73660096D02*
X32138185Y73612477D01*
X32138185Y73612477D02*
X31804852Y73612477D01*
X31804852Y73612477D02*
X31614376Y73660096D01*
X31614376Y73660096D02*
X31519138Y73755334D01*
X31519138Y73755334D02*
X31471519Y73850572D01*
X31471519Y73850572D02*
X31471519Y74041048D01*
X31471519Y74041048D02*
X31519138Y74136286D01*
X31519138Y74136286D02*
X31614376Y74231524D01*
X31614376Y74231524D02*
X31804852Y74279143D01*
X31804852Y74279143D02*
X32138185Y74279143D01*
X32138185Y74279143D02*
X32328661Y74231524D01*
X32328661Y74231524D02*
X32423900Y74136286D01*
X32423900Y74136286D02*
X32471519Y74041048D01*
X32471519Y74041048D02*
X32471519Y73850572D01*
X31566757Y74660096D02*
X31519138Y74707715D01*
X31519138Y74707715D02*
X31471519Y74802953D01*
X31471519Y74802953D02*
X31471519Y75041048D01*
X31471519Y75041048D02*
X31519138Y75136286D01*
X31519138Y75136286D02*
X31566757Y75183905D01*
X31566757Y75183905D02*
X31661995Y75231524D01*
X31661995Y75231524D02*
X31757233Y75231524D01*
X31757233Y75231524D02*
X31900090Y75183905D01*
X31900090Y75183905D02*
X32471519Y74612477D01*
X32471519Y74612477D02*
X32471519Y75231524D01*
X36869019Y70862000D02*
X37107114Y70862000D01*
X37011876Y70623905D02*
X37107114Y70862000D01*
X37107114Y70862000D02*
X37011876Y71100095D01*
X37297590Y70719143D02*
X37107114Y70862000D01*
X37107114Y70862000D02*
X37297590Y71004857D01*
X36869019Y70862000D02*
X37107114Y70862000D01*
X37011876Y70623905D02*
X37107114Y70862000D01*
X37107114Y70862000D02*
X37011876Y71100095D01*
X37297590Y70719143D02*
X37107114Y70862000D01*
X37107114Y70862000D02*
X37297590Y71004857D01*
X91913926Y88724024D02*
X91104403Y88724024D01*
X91104403Y88724024D02*
X91009165Y88676405D01*
X91009165Y88676405D02*
X90961546Y88628786D01*
X90961546Y88628786D02*
X90913926Y88533548D01*
X90913926Y88533548D02*
X90913926Y88343072D01*
X90913926Y88343072D02*
X90961546Y88247834D01*
X90961546Y88247834D02*
X91009165Y88200215D01*
X91009165Y88200215D02*
X91104403Y88152596D01*
X91104403Y88152596D02*
X91913926Y88152596D01*
X90913926Y87152596D02*
X90913926Y87724024D01*
X90913926Y87438310D02*
X91913926Y87438310D01*
X91913926Y87438310D02*
X91771069Y87533548D01*
X91771069Y87533548D02*
X91675831Y87628786D01*
X91675831Y87628786D02*
X91628212Y87724024D01*
X95563926Y96644819D02*
X95325831Y96644819D01*
X95421069Y96882914D02*
X95325831Y96644819D01*
X95325831Y96644819D02*
X95421069Y96406724D01*
X95135355Y96787676D02*
X95325831Y96644819D01*
X95325831Y96644819D02*
X95135355Y96501962D01*
X94473565Y96644820D02*
X94711660Y96644820D01*
X94616422Y96406725D02*
X94711660Y96644820D01*
X94711660Y96644820D02*
X94616422Y96882915D01*
X94902136Y96501963D02*
X94711660Y96644820D01*
X94711660Y96644820D02*
X94902136Y96787677D01*
X88358436Y97828420D02*
X88310817Y97780800D01*
X88310817Y97780800D02*
X88167960Y97733181D01*
X88167960Y97733181D02*
X88072722Y97733181D01*
X88072722Y97733181D02*
X87929865Y97780800D01*
X87929865Y97780800D02*
X87834627Y97876039D01*
X87834627Y97876039D02*
X87787008Y97971277D01*
X87787008Y97971277D02*
X87739389Y98161753D01*
X87739389Y98161753D02*
X87739389Y98304610D01*
X87739389Y98304610D02*
X87787008Y98495086D01*
X87787008Y98495086D02*
X87834627Y98590324D01*
X87834627Y98590324D02*
X87929865Y98685562D01*
X87929865Y98685562D02*
X88072722Y98733181D01*
X88072722Y98733181D02*
X88167960Y98733181D01*
X88167960Y98733181D02*
X88310817Y98685562D01*
X88310817Y98685562D02*
X88358436Y98637943D01*
X88739389Y98637943D02*
X88787008Y98685562D01*
X88787008Y98685562D02*
X88882246Y98733181D01*
X88882246Y98733181D02*
X89120341Y98733181D01*
X89120341Y98733181D02*
X89215579Y98685562D01*
X89215579Y98685562D02*
X89263198Y98637943D01*
X89263198Y98637943D02*
X89310817Y98542705D01*
X89310817Y98542705D02*
X89310817Y98447467D01*
X89310817Y98447467D02*
X89263198Y98304610D01*
X89263198Y98304610D02*
X88691770Y97733181D01*
X88691770Y97733181D02*
X89310817Y97733181D01*
X47552819Y103038096D02*
X47552819Y103609524D01*
X48552819Y103323810D02*
X47552819Y103323810D01*
X48552819Y103942858D02*
X47552819Y103942858D01*
X47552819Y103942858D02*
X47552819Y104323810D01*
X47552819Y104323810D02*
X47600438Y104419048D01*
X47600438Y104419048D02*
X47648057Y104466667D01*
X47648057Y104466667D02*
X47743295Y104514286D01*
X47743295Y104514286D02*
X47886152Y104514286D01*
X47886152Y104514286D02*
X47981390Y104466667D01*
X47981390Y104466667D02*
X48029009Y104419048D01*
X48029009Y104419048D02*
X48076628Y104323810D01*
X48076628Y104323810D02*
X48076628Y103942858D01*
X47886152Y105371429D02*
X48552819Y105371429D01*
X47505200Y105133334D02*
X48219485Y104895239D01*
X48219485Y104895239D02*
X48219485Y105514286D01*
X92153417Y99647993D02*
X91677226Y99314660D01*
X92153417Y99076565D02*
X91153417Y99076565D01*
X91153417Y99076565D02*
X91153417Y99457517D01*
X91153417Y99457517D02*
X91201036Y99552755D01*
X91201036Y99552755D02*
X91248655Y99600374D01*
X91248655Y99600374D02*
X91343893Y99647993D01*
X91343893Y99647993D02*
X91486750Y99647993D01*
X91486750Y99647993D02*
X91581988Y99600374D01*
X91581988Y99600374D02*
X91629607Y99552755D01*
X91629607Y99552755D02*
X91677226Y99457517D01*
X91677226Y99457517D02*
X91677226Y99076565D01*
X92153417Y100124184D02*
X92153417Y100314660D01*
X92153417Y100314660D02*
X92105798Y100409898D01*
X92105798Y100409898D02*
X92058178Y100457517D01*
X92058178Y100457517D02*
X91915321Y100552755D01*
X91915321Y100552755D02*
X91724845Y100600374D01*
X91724845Y100600374D02*
X91343893Y100600374D01*
X91343893Y100600374D02*
X91248655Y100552755D01*
X91248655Y100552755D02*
X91201036Y100505136D01*
X91201036Y100505136D02*
X91153417Y100409898D01*
X91153417Y100409898D02*
X91153417Y100219422D01*
X91153417Y100219422D02*
X91201036Y100124184D01*
X91201036Y100124184D02*
X91248655Y100076565D01*
X91248655Y100076565D02*
X91343893Y100028946D01*
X91343893Y100028946D02*
X91581988Y100028946D01*
X91581988Y100028946D02*
X91677226Y100076565D01*
X91677226Y100076565D02*
X91724845Y100124184D01*
X91724845Y100124184D02*
X91772464Y100219422D01*
X91772464Y100219422D02*
X91772464Y100409898D01*
X91772464Y100409898D02*
X91724845Y100505136D01*
X91724845Y100505136D02*
X91677226Y100552755D01*
X91677226Y100552755D02*
X91581988Y100600374D01*
X88330436Y100583889D02*
X88282817Y100536269D01*
X88282817Y100536269D02*
X88139960Y100488650D01*
X88139960Y100488650D02*
X88044722Y100488650D01*
X88044722Y100488650D02*
X87901865Y100536269D01*
X87901865Y100536269D02*
X87806627Y100631508D01*
X87806627Y100631508D02*
X87759008Y100726746D01*
X87759008Y100726746D02*
X87711389Y100917222D01*
X87711389Y100917222D02*
X87711389Y101060079D01*
X87711389Y101060079D02*
X87759008Y101250555D01*
X87759008Y101250555D02*
X87806627Y101345793D01*
X87806627Y101345793D02*
X87901865Y101441031D01*
X87901865Y101441031D02*
X88044722Y101488650D01*
X88044722Y101488650D02*
X88139960Y101488650D01*
X88139960Y101488650D02*
X88282817Y101441031D01*
X88282817Y101441031D02*
X88330436Y101393412D01*
X89282817Y100488650D02*
X88711389Y100488650D01*
X88997103Y100488650D02*
X88997103Y101488650D01*
X88997103Y101488650D02*
X88901865Y101345793D01*
X88901865Y101345793D02*
X88806627Y101250555D01*
X88806627Y101250555D02*
X88711389Y101202936D01*
X40727333Y62885181D02*
X40394000Y63361372D01*
X40155905Y62885181D02*
X40155905Y63885181D01*
X40155905Y63885181D02*
X40536857Y63885181D01*
X40536857Y63885181D02*
X40632095Y63837562D01*
X40632095Y63837562D02*
X40679714Y63789943D01*
X40679714Y63789943D02*
X40727333Y63694705D01*
X40727333Y63694705D02*
X40727333Y63551848D01*
X40727333Y63551848D02*
X40679714Y63456610D01*
X40679714Y63456610D02*
X40632095Y63408991D01*
X40632095Y63408991D02*
X40536857Y63361372D01*
X40536857Y63361372D02*
X40155905Y63361372D01*
X41298762Y63456610D02*
X41203524Y63504229D01*
X41203524Y63504229D02*
X41155905Y63551848D01*
X41155905Y63551848D02*
X41108286Y63647086D01*
X41108286Y63647086D02*
X41108286Y63694705D01*
X41108286Y63694705D02*
X41155905Y63789943D01*
X41155905Y63789943D02*
X41203524Y63837562D01*
X41203524Y63837562D02*
X41298762Y63885181D01*
X41298762Y63885181D02*
X41489238Y63885181D01*
X41489238Y63885181D02*
X41584476Y63837562D01*
X41584476Y63837562D02*
X41632095Y63789943D01*
X41632095Y63789943D02*
X41679714Y63694705D01*
X41679714Y63694705D02*
X41679714Y63647086D01*
X41679714Y63647086D02*
X41632095Y63551848D01*
X41632095Y63551848D02*
X41584476Y63504229D01*
X41584476Y63504229D02*
X41489238Y63456610D01*
X41489238Y63456610D02*
X41298762Y63456610D01*
X41298762Y63456610D02*
X41203524Y63408991D01*
X41203524Y63408991D02*
X41155905Y63361372D01*
X41155905Y63361372D02*
X41108286Y63266134D01*
X41108286Y63266134D02*
X41108286Y63075658D01*
X41108286Y63075658D02*
X41155905Y62980420D01*
X41155905Y62980420D02*
X41203524Y62932800D01*
X41203524Y62932800D02*
X41298762Y62885181D01*
X41298762Y62885181D02*
X41489238Y62885181D01*
X41489238Y62885181D02*
X41584476Y62932800D01*
X41584476Y62932800D02*
X41632095Y62980420D01*
X41632095Y62980420D02*
X41679714Y63075658D01*
X41679714Y63075658D02*
X41679714Y63266134D01*
X41679714Y63266134D02*
X41632095Y63361372D01*
X41632095Y63361372D02*
X41584476Y63408991D01*
X41584476Y63408991D02*
X41489238Y63456610D01*
X18334819Y94609143D02*
X17858628Y94275810D01*
X18334819Y94037715D02*
X17334819Y94037715D01*
X17334819Y94037715D02*
X17334819Y94418667D01*
X17334819Y94418667D02*
X17382438Y94513905D01*
X17382438Y94513905D02*
X17430057Y94561524D01*
X17430057Y94561524D02*
X17525295Y94609143D01*
X17525295Y94609143D02*
X17668152Y94609143D01*
X17668152Y94609143D02*
X17763390Y94561524D01*
X17763390Y94561524D02*
X17811009Y94513905D01*
X17811009Y94513905D02*
X17858628Y94418667D01*
X17858628Y94418667D02*
X17858628Y94037715D01*
X18334819Y95561524D02*
X18334819Y94990096D01*
X18334819Y95275810D02*
X17334819Y95275810D01*
X17334819Y95275810D02*
X17477676Y95180572D01*
X17477676Y95180572D02*
X17572914Y95085334D01*
X17572914Y95085334D02*
X17620533Y94990096D01*
X17430057Y95942477D02*
X17382438Y95990096D01*
X17382438Y95990096D02*
X17334819Y96085334D01*
X17334819Y96085334D02*
X17334819Y96323429D01*
X17334819Y96323429D02*
X17382438Y96418667D01*
X17382438Y96418667D02*
X17430057Y96466286D01*
X17430057Y96466286D02*
X17525295Y96513905D01*
X17525295Y96513905D02*
X17620533Y96513905D01*
X17620533Y96513905D02*
X17763390Y96466286D01*
X17763390Y96466286D02*
X18334819Y95894858D01*
X18334819Y95894858D02*
X18334819Y96513905D01*
X17182180Y90862055D02*
X16372657Y90862055D01*
X16372657Y90862055D02*
X16277419Y90814436D01*
X16277419Y90814436D02*
X16229800Y90766817D01*
X16229800Y90766817D02*
X16182180Y90671579D01*
X16182180Y90671579D02*
X16182180Y90481103D01*
X16182180Y90481103D02*
X16229800Y90385865D01*
X16229800Y90385865D02*
X16277419Y90338246D01*
X16277419Y90338246D02*
X16372657Y90290627D01*
X16372657Y90290627D02*
X17182180Y90290627D01*
X16848847Y89385865D02*
X16182180Y89385865D01*
X17229800Y89623960D02*
X16515514Y89862055D01*
X16515514Y89862055D02*
X16515514Y89243008D01*
X19673219Y93078301D02*
X19911314Y93078301D01*
X19816076Y92840206D02*
X19911314Y93078301D01*
X19911314Y93078301D02*
X19816076Y93316396D01*
X20101790Y92935444D02*
X19911314Y93078301D01*
X19911314Y93078301D02*
X20101790Y93221158D01*
X20763580Y93078300D02*
X20525485Y93078300D01*
X20620723Y93316395D02*
X20525485Y93078300D01*
X20525485Y93078300D02*
X20620723Y92840205D01*
X20335009Y93221157D02*
X20525485Y93078300D01*
X20525485Y93078300D02*
X20335009Y92935443D01*
X32835754Y22568820D02*
X32835754Y23378343D01*
X32835754Y23378343D02*
X32788135Y23473581D01*
X32788135Y23473581D02*
X32740516Y23521200D01*
X32740516Y23521200D02*
X32645278Y23568820D01*
X32645278Y23568820D02*
X32454802Y23568820D01*
X32454802Y23568820D02*
X32359564Y23521200D01*
X32359564Y23521200D02*
X32311945Y23473581D01*
X32311945Y23473581D02*
X32264326Y23378343D01*
X32264326Y23378343D02*
X32264326Y22568820D01*
X31835754Y22664058D02*
X31788135Y22616439D01*
X31788135Y22616439D02*
X31692897Y22568820D01*
X31692897Y22568820D02*
X31454802Y22568820D01*
X31454802Y22568820D02*
X31359564Y22616439D01*
X31359564Y22616439D02*
X31311945Y22664058D01*
X31311945Y22664058D02*
X31264326Y22759296D01*
X31264326Y22759296D02*
X31264326Y22854534D01*
X31264326Y22854534D02*
X31311945Y22997391D01*
X31311945Y22997391D02*
X31883373Y23568820D01*
X31883373Y23568820D02*
X31264326Y23568820D01*
X35051999Y18987420D02*
X35051999Y19225515D01*
X35290094Y19130277D02*
X35051999Y19225515D01*
X35051999Y19225515D02*
X34813904Y19130277D01*
X35194856Y19415991D02*
X35051999Y19225515D01*
X35051999Y19225515D02*
X34909142Y19415991D01*
X35052000Y20077781D02*
X35052000Y19839686D01*
X34813905Y19934924D02*
X35052000Y19839686D01*
X35052000Y19839686D02*
X35290095Y19934924D01*
X34909143Y19649210D02*
X35052000Y19839686D01*
X35052000Y19839686D02*
X35194857Y19649210D01*
X92252819Y12002667D02*
X92967104Y12002667D01*
X92967104Y12002667D02*
X93109961Y11955048D01*
X93109961Y11955048D02*
X93205200Y11859810D01*
X93205200Y11859810D02*
X93252819Y11716953D01*
X93252819Y11716953D02*
X93252819Y11621715D01*
X92252819Y12383620D02*
X92252819Y13002667D01*
X92252819Y13002667D02*
X92633771Y12669334D01*
X92633771Y12669334D02*
X92633771Y12812191D01*
X92633771Y12812191D02*
X92681390Y12907429D01*
X92681390Y12907429D02*
X92729009Y12955048D01*
X92729009Y12955048D02*
X92824247Y13002667D01*
X92824247Y13002667D02*
X93062342Y13002667D01*
X93062342Y13002667D02*
X93157580Y12955048D01*
X93157580Y12955048D02*
X93205200Y12907429D01*
X93205200Y12907429D02*
X93252819Y12812191D01*
X93252819Y12812191D02*
X93252819Y12526477D01*
X93252819Y12526477D02*
X93205200Y12431239D01*
X93205200Y12431239D02*
X93157580Y12383620D01*
X40251142Y70251181D02*
X39917809Y70727372D01*
X39679714Y70251181D02*
X39679714Y71251181D01*
X39679714Y71251181D02*
X40060666Y71251181D01*
X40060666Y71251181D02*
X40155904Y71203562D01*
X40155904Y71203562D02*
X40203523Y71155943D01*
X40203523Y71155943D02*
X40251142Y71060705D01*
X40251142Y71060705D02*
X40251142Y70917848D01*
X40251142Y70917848D02*
X40203523Y70822610D01*
X40203523Y70822610D02*
X40155904Y70774991D01*
X40155904Y70774991D02*
X40060666Y70727372D01*
X40060666Y70727372D02*
X39679714Y70727372D01*
X41203523Y70251181D02*
X40632095Y70251181D01*
X40917809Y70251181D02*
X40917809Y71251181D01*
X40917809Y71251181D02*
X40822571Y71108324D01*
X40822571Y71108324D02*
X40727333Y71013086D01*
X40727333Y71013086D02*
X40632095Y70965467D01*
X42155904Y70251181D02*
X41584476Y70251181D01*
X41870190Y70251181D02*
X41870190Y71251181D01*
X41870190Y71251181D02*
X41774952Y71108324D01*
X41774952Y71108324D02*
X41679714Y71013086D01*
X41679714Y71013086D02*
X41584476Y70965467D01*
D12*
G04 #@! TO.C,G\u002A\u002A\u002A*
G36*
X21986442Y94013419D02*
G01*
X22034090Y93986244D01*
X22067392Y93942665D01*
X22082936Y93889650D01*
X22077310Y93834169D01*
X22047102Y93783192D01*
X22044003Y93779997D01*
X21990756Y93746301D01*
X21931568Y93740137D01*
X21874431Y93761050D01*
X21839931Y93791566D01*
X21809197Y93848339D01*
X21806093Y93906173D01*
X21827981Y93958302D01*
X21872227Y93997961D01*
X21927861Y94017220D01*
X21986442Y94013419D01*
G37*
G36*
X25217113Y90793578D02*
G01*
X25240987Y90772987D01*
X25278005Y90720919D01*
X25286677Y90678000D01*
X25272728Y90624111D01*
X25240987Y90583013D01*
X25188920Y90545995D01*
X25146000Y90537323D01*
X25092112Y90551272D01*
X25051013Y90583013D01*
X25013996Y90635080D01*
X25005324Y90678000D01*
X25019273Y90731888D01*
X25051013Y90772987D01*
X25105732Y90810979D01*
X25161656Y90817842D01*
X25217113Y90793578D01*
G37*
G36*
X28426303Y93996019D02*
G01*
X28465962Y93951773D01*
X28485221Y93896139D01*
X28481420Y93837558D01*
X28454245Y93789910D01*
X28410666Y93756608D01*
X28357651Y93741064D01*
X28302170Y93746690D01*
X28251193Y93776898D01*
X28247998Y93779997D01*
X28214302Y93833244D01*
X28208138Y93892432D01*
X28229051Y93949569D01*
X28259566Y93984069D01*
X28316340Y94014803D01*
X28374174Y94017907D01*
X28426303Y93996019D01*
G37*
G36*
X22005677Y87601592D02*
G01*
X22051566Y87567930D01*
X22078829Y87520384D01*
X22084837Y87465956D01*
X22066960Y87411647D01*
X22034278Y87373481D01*
X21979744Y87340322D01*
X21925706Y87336482D01*
X21879478Y87353092D01*
X21830649Y87392918D01*
X21806723Y87445993D01*
X21808988Y87505077D01*
X21838736Y87562932D01*
X21841482Y87566277D01*
X21877462Y87600105D01*
X21917766Y87613161D01*
X21943793Y87614369D01*
X22005677Y87601592D01*
G37*
G36*
X28395392Y87608918D02*
G01*
X28430647Y87587432D01*
X28452070Y87564434D01*
X28480023Y87523927D01*
X28487849Y87486201D01*
X28485221Y87459860D01*
X28470927Y87413762D01*
X28448556Y87377451D01*
X28447566Y87376434D01*
X28412127Y87353925D01*
X28366026Y87339099D01*
X28364140Y87338779D01*
X28320920Y87337368D01*
X28283936Y87353226D01*
X28259566Y87371930D01*
X28220081Y87421911D01*
X28206735Y87477325D01*
X28216975Y87531192D01*
X28248249Y87576530D01*
X28298005Y87606359D01*
X28348208Y87614369D01*
X28395392Y87608918D01*
G37*
G36*
X25472380Y94002633D02*
G01*
X25768384Y93959595D01*
X26058783Y93890585D01*
X26341732Y93796235D01*
X26615383Y93677176D01*
X26877891Y93534039D01*
X27127410Y93367455D01*
X27362092Y93178058D01*
X27580093Y92966477D01*
X27779565Y92733344D01*
X27958662Y92479291D01*
X28115539Y92204950D01*
X28140469Y92155107D01*
X28234941Y91949283D01*
X28310328Y91753898D01*
X28370184Y91557829D01*
X28418060Y91349953D01*
X28444419Y91203351D01*
X28480185Y90889174D01*
X28485523Y90575381D01*
X28461216Y90264080D01*
X28408051Y89957378D01*
X28326813Y89657385D01*
X28218286Y89366208D01*
X28083255Y89085955D01*
X27922507Y88818735D01*
X27736826Y88566656D01*
X27526996Y88331826D01*
X27295231Y88117551D01*
X27053374Y87933912D01*
X26791552Y87771100D01*
X26514653Y87631468D01*
X26227565Y87517369D01*
X25935177Y87431155D01*
X25812947Y87404023D01*
X25591308Y87367418D01*
X25364003Y87344279D01*
X25141407Y87335298D01*
X24933892Y87341164D01*
X24903724Y87343449D01*
X24575800Y87385616D01*
X24259066Y87456814D01*
X23953922Y87556932D01*
X23660772Y87685856D01*
X23640738Y87695943D01*
X23410920Y87822270D01*
X23203212Y87957947D01*
X23008587Y88109516D01*
X22818019Y88283523D01*
X22784592Y88316591D01*
X22608403Y88504485D01*
X22455524Y88694119D01*
X22319823Y88894083D01*
X22195164Y89112973D01*
X22143921Y89214051D01*
X22017720Y89505775D01*
X21921042Y89804972D01*
X21853642Y90109568D01*
X21815275Y90417487D01*
X21806426Y90703080D01*
X22088351Y90703080D01*
X22100693Y90404307D01*
X22142072Y90109649D01*
X22211770Y89821177D01*
X22309068Y89540957D01*
X22433248Y89271060D01*
X22583591Y89013553D01*
X22759380Y88770506D01*
X22959895Y88543987D01*
X23184339Y88336133D01*
X23425298Y88153922D01*
X23682043Y87996855D01*
X23951890Y87865785D01*
X24232157Y87761565D01*
X24520160Y87685048D01*
X24813215Y87637089D01*
X25108640Y87618539D01*
X25403750Y87630254D01*
X25403908Y87630268D01*
X25707149Y87673429D01*
X26001159Y87745269D01*
X26284213Y87844432D01*
X26554587Y87969557D01*
X26810556Y88119288D01*
X27050396Y88292265D01*
X27272382Y88487132D01*
X27474789Y88702528D01*
X27655892Y88937097D01*
X27813968Y89189480D01*
X27947291Y89458318D01*
X28043257Y89708892D01*
X28128197Y90011088D01*
X28181879Y90312938D01*
X28204302Y90614512D01*
X28195466Y90915882D01*
X28155372Y91217119D01*
X28084019Y91518294D01*
X28044660Y91644996D01*
X27934145Y91928689D01*
X27796789Y92197938D01*
X27634273Y92451061D01*
X27448278Y92686378D01*
X27240485Y92902206D01*
X27012576Y93096863D01*
X26766231Y93268668D01*
X26503133Y93415940D01*
X26224961Y93536996D01*
X26113801Y93576390D01*
X25814448Y93659934D01*
X25513166Y93712754D01*
X25211700Y93735168D01*
X24911792Y93727498D01*
X24615186Y93690063D01*
X24323626Y93623183D01*
X24038857Y93527178D01*
X23762621Y93402369D01*
X23496664Y93249076D01*
X23242727Y93067618D01*
X23213176Y93043990D01*
X22990280Y92843769D01*
X22788289Y92621554D01*
X22608767Y92379910D01*
X22453275Y92121403D01*
X22323376Y91848598D01*
X22220633Y91564059D01*
X22153649Y91304697D01*
X22105763Y91003899D01*
X22088351Y90703080D01*
X21806426Y90703080D01*
X21805696Y90726656D01*
X21824660Y91034998D01*
X21871922Y91340440D01*
X21947238Y91640908D01*
X22050361Y91934325D01*
X22181048Y92218618D01*
X22339053Y92491711D01*
X22524131Y92751531D01*
X22568040Y92806196D01*
X22780592Y93040709D01*
X23015423Y93253410D01*
X23272063Y93443932D01*
X23550043Y93611906D01*
X23682052Y93680079D01*
X23972912Y93806136D01*
X24269244Y93902432D01*
X24569204Y93969598D01*
X24870944Y94008265D01*
X25172618Y94019067D01*
X25472380Y94002633D01*
G37*
G36*
X24253354Y94679557D02*
G01*
X24594738Y94679515D01*
X24965530Y94679481D01*
X25146000Y94679476D01*
X25530722Y94679497D01*
X25885453Y94679539D01*
X26211464Y94679571D01*
X26510026Y94679560D01*
X26782410Y94679476D01*
X27029886Y94679285D01*
X27253726Y94678956D01*
X27455201Y94678456D01*
X27635580Y94677756D01*
X27796136Y94676821D01*
X27938139Y94675621D01*
X28062859Y94674124D01*
X28171568Y94672297D01*
X28265536Y94670110D01*
X28346035Y94667529D01*
X28414334Y94664524D01*
X28471706Y94661063D01*
X28519420Y94657113D01*
X28558748Y94652642D01*
X28590960Y94647620D01*
X28617328Y94642014D01*
X28639122Y94635791D01*
X28657612Y94628922D01*
X28674071Y94621372D01*
X28689768Y94613111D01*
X28705974Y94604107D01*
X28723961Y94594328D01*
X28733166Y94589569D01*
X28797361Y94548354D01*
X28869356Y94488474D01*
X28940955Y94418122D01*
X29003964Y94345494D01*
X29050188Y94278783D01*
X29057570Y94265165D01*
X29067716Y94245935D01*
X29077072Y94229069D01*
X29085670Y94213296D01*
X29093542Y94197345D01*
X29100720Y94179945D01*
X29107236Y94159826D01*
X29113121Y94135717D01*
X29118407Y94106346D01*
X29123127Y94070443D01*
X29127312Y94026738D01*
X29130994Y93973959D01*
X29134205Y93910835D01*
X29136976Y93836096D01*
X29139340Y93748471D01*
X29141329Y93646689D01*
X29142973Y93529479D01*
X29144306Y93395570D01*
X29145358Y93243692D01*
X29146162Y93072573D01*
X29146750Y92880943D01*
X29147154Y92667531D01*
X29147404Y92431067D01*
X29147534Y92170278D01*
X29147575Y91883895D01*
X29147559Y91570646D01*
X29147517Y91229262D01*
X29147482Y90858470D01*
X29147477Y90678000D01*
X29147499Y90293278D01*
X29147541Y89938547D01*
X29147573Y89612536D01*
X29147562Y89313974D01*
X29147477Y89041590D01*
X29147286Y88794114D01*
X29146957Y88570274D01*
X29146457Y88368799D01*
X29145756Y88188420D01*
X29144822Y88027864D01*
X29143622Y87885861D01*
X29142125Y87761141D01*
X29140298Y87652432D01*
X29138111Y87558464D01*
X29135530Y87477965D01*
X29132525Y87409666D01*
X29129064Y87352294D01*
X29125114Y87304580D01*
X29120643Y87265252D01*
X29115621Y87233040D01*
X29110014Y87206672D01*
X29103792Y87184878D01*
X29096922Y87166388D01*
X29089373Y87149929D01*
X29081112Y87134232D01*
X29072108Y87118026D01*
X29062329Y87100039D01*
X29057570Y87090834D01*
X29016355Y87026639D01*
X28956474Y86954644D01*
X28886123Y86883045D01*
X28813494Y86820036D01*
X28746784Y86773812D01*
X28733166Y86766430D01*
X28713955Y86756293D01*
X28697108Y86746944D01*
X28681358Y86738351D01*
X28665433Y86730484D01*
X28648066Y86723309D01*
X28627986Y86716797D01*
X28603923Y86710914D01*
X28574610Y86705630D01*
X28538775Y86700913D01*
X28495150Y86696731D01*
X28442465Y86693053D01*
X28379451Y86689847D01*
X28304838Y86687081D01*
X28217356Y86684724D01*
X28115738Y86682744D01*
X27998712Y86681110D01*
X27865009Y86679789D01*
X27713361Y86678751D01*
X27542497Y86677964D01*
X27351148Y86677396D01*
X27138045Y86677015D01*
X26901918Y86676790D01*
X26641498Y86676689D01*
X26355516Y86676681D01*
X26042701Y86676735D01*
X25701785Y86676817D01*
X25331497Y86676897D01*
X25139256Y86676926D01*
X21793200Y86677330D01*
X21691239Y86712095D01*
X21545462Y86777653D01*
X21417881Y86867598D01*
X21333613Y86955691D01*
X27818862Y86955691D01*
X28158831Y86960691D01*
X28270554Y86962447D01*
X28355806Y86964349D01*
X28419374Y86966931D01*
X28466047Y86970727D01*
X28500613Y86976272D01*
X28527859Y86984100D01*
X28552574Y86994745D01*
X28576954Y87007361D01*
X28666610Y87068812D01*
X28749210Y87150347D01*
X28813936Y87241017D01*
X28821504Y87254861D01*
X28833663Y87279666D01*
X28842905Y87304577D01*
X28849712Y87334326D01*
X28854568Y87373650D01*
X28857955Y87427282D01*
X28860355Y87499957D01*
X28862250Y87596410D01*
X28863309Y87665169D01*
X28868309Y88005138D01*
X28464621Y88005138D01*
X28352370Y88004552D01*
X28247879Y88002904D01*
X28156027Y88000357D01*
X28081693Y87997076D01*
X28029754Y87993225D01*
X28007341Y87989768D01*
X27946043Y87959367D01*
X27889249Y87909455D01*
X27847253Y87850242D01*
X27834427Y87818262D01*
X27830219Y87787725D01*
X27826444Y87730834D01*
X27823265Y87652495D01*
X27820849Y87557614D01*
X27819361Y87451097D01*
X27818949Y87359276D01*
X27818862Y86955691D01*
X21333613Y86955691D01*
X21310885Y86979450D01*
X21226861Y87110727D01*
X21169713Y87253790D01*
X21166824Y87265545D01*
X21164162Y87281379D01*
X21161719Y87302541D01*
X21159485Y87330280D01*
X21157450Y87365843D01*
X21155606Y87410478D01*
X21153943Y87465434D01*
X21152453Y87531957D01*
X21151126Y87611298D01*
X21149952Y87704702D01*
X21148924Y87813419D01*
X21148030Y87938697D01*
X21147665Y88006964D01*
X21423673Y88006964D01*
X21428683Y87666082D01*
X21430506Y87553495D01*
X21432551Y87467443D01*
X21435298Y87403200D01*
X21439227Y87356041D01*
X21444819Y87321240D01*
X21452555Y87294072D01*
X21462915Y87269810D01*
X21470497Y87254861D01*
X21537325Y87155689D01*
X21624146Y87070094D01*
X21723422Y87004515D01*
X21801016Y86972493D01*
X21828226Y86968781D01*
X21881261Y86965404D01*
X21954684Y86962564D01*
X22043057Y86960464D01*
X22140943Y86959306D01*
X22157521Y86959220D01*
X22474950Y86957876D01*
X22470137Y87391630D01*
X22468639Y87519510D01*
X22467100Y87619964D01*
X22465200Y87696830D01*
X22462617Y87753943D01*
X22459027Y87795138D01*
X22454111Y87824251D01*
X22447545Y87845119D01*
X22439008Y87861575D01*
X22429533Y87875563D01*
X22390761Y87920265D01*
X22345796Y87959915D01*
X22343563Y87961532D01*
X22327829Y87972073D01*
X22311088Y87980363D01*
X22289508Y87986723D01*
X22259262Y87991474D01*
X22216518Y87994935D01*
X22157448Y87997428D01*
X22078222Y87999274D01*
X21975009Y88000792D01*
X21858529Y88002143D01*
X21423673Y88006964D01*
X21147665Y88006964D01*
X21147264Y88081783D01*
X21146614Y88243926D01*
X21146072Y88426373D01*
X21145629Y88630373D01*
X21145276Y88857174D01*
X21145003Y89108023D01*
X21144802Y89384169D01*
X21144662Y89686860D01*
X21144575Y90017343D01*
X21144533Y90376868D01*
X21144524Y90678000D01*
X21425877Y90678000D01*
X21425877Y88288609D01*
X21883077Y88283643D01*
X22014550Y88282164D01*
X22118743Y88280683D01*
X22199636Y88278863D01*
X22261208Y88276367D01*
X22307441Y88272859D01*
X22342313Y88268000D01*
X22369805Y88261455D01*
X22393896Y88252885D01*
X22418566Y88241955D01*
X22428122Y88237487D01*
X22540201Y88170081D01*
X22628977Y88082870D01*
X22695726Y87976492D01*
X22746677Y87873056D01*
X22751644Y87415466D01*
X22756610Y86957876D01*
X25146000Y86957876D01*
X27535391Y86957876D01*
X27540357Y87415466D01*
X27545324Y87873056D01*
X27596275Y87976492D01*
X27665334Y88085750D01*
X27754753Y88172335D01*
X27863878Y88237487D01*
X27889699Y88249328D01*
X27913540Y88258689D01*
X27939382Y88265908D01*
X27971204Y88271321D01*
X28012988Y88275266D01*
X28068711Y88278079D01*
X28142355Y88280099D01*
X28237900Y88281660D01*
X28359324Y88283102D01*
X28408924Y88283643D01*
X28866124Y88288609D01*
X28866124Y90678000D01*
X28866123Y93067390D01*
X28408534Y93072356D01*
X27950944Y93077323D01*
X27847508Y93128274D01*
X27738250Y93197333D01*
X27651665Y93286752D01*
X27586513Y93395878D01*
X27574672Y93421698D01*
X27565311Y93445539D01*
X27558092Y93471381D01*
X27552679Y93503204D01*
X27548734Y93544987D01*
X27545921Y93600711D01*
X27543901Y93674355D01*
X27542340Y93769899D01*
X27540898Y93891323D01*
X27540357Y93940923D01*
X27539687Y94002585D01*
X27535391Y94398123D01*
X25146000Y94398123D01*
X22756610Y94398123D01*
X22751644Y93940923D01*
X22750165Y93809450D01*
X22748683Y93705257D01*
X22746864Y93624364D01*
X22744368Y93562792D01*
X22740859Y93516559D01*
X22736001Y93481687D01*
X22729456Y93454195D01*
X22720886Y93430104D01*
X22709956Y93405434D01*
X22705488Y93395878D01*
X22638082Y93283799D01*
X22550871Y93195023D01*
X22444493Y93128274D01*
X22341057Y93077323D01*
X21883467Y93072356D01*
X21425877Y93067390D01*
X21425877Y90678000D01*
X21144524Y90678000D01*
X21144503Y91062721D01*
X21144461Y91417452D01*
X21144429Y91743463D01*
X21144440Y92042025D01*
X21144524Y92314409D01*
X21144715Y92561885D01*
X21145044Y92785725D01*
X21145544Y92987200D01*
X21145855Y93067390D01*
X21146244Y93167579D01*
X21147179Y93328135D01*
X21147356Y93349036D01*
X21423673Y93349036D01*
X21858529Y93353856D01*
X21986586Y93355354D01*
X22087213Y93356891D01*
X22164239Y93358787D01*
X22221493Y93361363D01*
X22262806Y93364940D01*
X22292008Y93369837D01*
X22312927Y93376377D01*
X22329394Y93384879D01*
X22343563Y93394467D01*
X22388266Y93433239D01*
X22427916Y93478204D01*
X22429533Y93480437D01*
X22440074Y93496171D01*
X22448364Y93512912D01*
X22454724Y93534492D01*
X22459475Y93564738D01*
X22462936Y93607482D01*
X22465429Y93666552D01*
X22467275Y93745778D01*
X22468793Y93848991D01*
X22470144Y93965471D01*
X22474964Y94400308D01*
X27818862Y94400308D01*
X27818862Y94002585D01*
X27819262Y93891257D01*
X27820389Y93787791D01*
X27822127Y93697085D01*
X27824366Y93624041D01*
X27826992Y93573557D01*
X27829222Y93553058D01*
X27848014Y93509657D01*
X27883962Y93460075D01*
X27928865Y93413042D01*
X27974522Y93377287D01*
X28008614Y93362118D01*
X28033797Y93360154D01*
X28085661Y93358239D01*
X28159623Y93356466D01*
X28251104Y93354929D01*
X28355523Y93353720D01*
X28456909Y93352990D01*
X28868309Y93350861D01*
X28863309Y93690830D01*
X28861553Y93802553D01*
X28859651Y93887805D01*
X28857069Y93951373D01*
X28853273Y93998047D01*
X28847728Y94032612D01*
X28839900Y94059859D01*
X28829255Y94084573D01*
X28816639Y94108953D01*
X28755188Y94198609D01*
X28673653Y94281210D01*
X28582983Y94345936D01*
X28569139Y94353503D01*
X28544334Y94365662D01*
X28519423Y94374904D01*
X28489674Y94381712D01*
X28450350Y94386568D01*
X28396718Y94389954D01*
X28324043Y94392354D01*
X28227590Y94394249D01*
X28158831Y94395308D01*
X27818862Y94400308D01*
X22474964Y94400308D01*
X22474964Y94400327D01*
X22134082Y94395317D01*
X22021496Y94393494D01*
X21935444Y94391449D01*
X21871201Y94388702D01*
X21824042Y94384773D01*
X21789241Y94379181D01*
X21762073Y94371445D01*
X21737811Y94361085D01*
X21722862Y94353503D01*
X21631763Y94292428D01*
X21548141Y94211839D01*
X21482944Y94122557D01*
X21475361Y94108953D01*
X21461697Y94082410D01*
X21451330Y94057698D01*
X21443726Y94030041D01*
X21438355Y93994658D01*
X21434683Y93946772D01*
X21432178Y93881603D01*
X21430309Y93794374D01*
X21428683Y93689918D01*
X21423673Y93349036D01*
X21147356Y93349036D01*
X21148379Y93470138D01*
X21149876Y93594858D01*
X21151703Y93703567D01*
X21153890Y93797535D01*
X21156471Y93878034D01*
X21159476Y93946334D01*
X21162937Y94003705D01*
X21166887Y94051419D01*
X21171358Y94090747D01*
X21176380Y94122960D01*
X21181986Y94149327D01*
X21188209Y94171121D01*
X21195078Y94189612D01*
X21202628Y94206070D01*
X21210889Y94221767D01*
X21219893Y94237973D01*
X21229672Y94255960D01*
X21234431Y94265165D01*
X21275646Y94329361D01*
X21335526Y94401355D01*
X21405878Y94472954D01*
X21478506Y94535963D01*
X21545217Y94582187D01*
X21558835Y94589569D01*
X21578065Y94599715D01*
X21594931Y94609071D01*
X21610704Y94617669D01*
X21626655Y94625541D01*
X21644055Y94632719D01*
X21664174Y94639235D01*
X21688283Y94645120D01*
X21717654Y94650407D01*
X21753557Y94655127D01*
X21797262Y94659311D01*
X21850041Y94662993D01*
X21913165Y94666204D01*
X21987904Y94668976D01*
X22075529Y94671340D01*
X22177311Y94673328D01*
X22294521Y94674972D01*
X22428430Y94676305D01*
X22580308Y94677357D01*
X22751427Y94678162D01*
X22943057Y94678749D01*
X23156469Y94679153D01*
X23392933Y94679404D01*
X23653722Y94679532D01*
X23940105Y94679573D01*
X24253354Y94679557D01*
G37*
G36*
X25712100Y93455494D02*
G01*
X25843397Y93426581D01*
X25987819Y93381496D01*
X26140141Y93322419D01*
X26295137Y93251531D01*
X26447583Y93171010D01*
X26592254Y93083036D01*
X26703415Y93005372D01*
X26785363Y92940402D01*
X26868532Y92868150D01*
X26946913Y92794373D01*
X27014497Y92724828D01*
X27065274Y92665273D01*
X27080444Y92644169D01*
X27115697Y92564294D01*
X27129235Y92467835D01*
X27120729Y92361011D01*
X27099851Y92278341D01*
X27057176Y92164145D01*
X27000143Y92035169D01*
X26933645Y91901268D01*
X26862575Y91772293D01*
X26792010Y91658378D01*
X26749683Y91594714D01*
X26712888Y91539194D01*
X26685553Y91497757D01*
X26671604Y91476337D01*
X26671552Y91476255D01*
X26674541Y91470061D01*
X26699768Y91479634D01*
X26743758Y91502953D01*
X26803041Y91538002D01*
X26874143Y91582760D01*
X26953592Y91635210D01*
X27002713Y91668764D01*
X27096242Y91733284D01*
X27168426Y91782232D01*
X27223575Y91817900D01*
X27266000Y91842578D01*
X27300012Y91858557D01*
X27329921Y91868128D01*
X27360038Y91873583D01*
X27394674Y91877211D01*
X27395000Y91877241D01*
X27499835Y91877680D01*
X27588141Y91856115D01*
X27668072Y91809729D01*
X27719067Y91765258D01*
X27757752Y91725295D01*
X27785856Y91688619D01*
X27808334Y91646323D01*
X27830137Y91589503D01*
X27849335Y91531024D01*
X27890104Y91385749D01*
X27919389Y91239416D01*
X27938302Y91083891D01*
X27947951Y90911041D01*
X27949758Y90795230D01*
X27948480Y90656553D01*
X27942843Y90538774D01*
X27931690Y90431694D01*
X27913865Y90325113D01*
X27888210Y90208832D01*
X27879020Y90171355D01*
X27850338Y90073063D01*
X27815706Y89990802D01*
X27772323Y89923227D01*
X27717392Y89868996D01*
X27648114Y89826766D01*
X27561688Y89795192D01*
X27455317Y89772931D01*
X27326201Y89758640D01*
X27171542Y89750976D01*
X26998247Y89748608D01*
X26896433Y89748957D01*
X26802060Y89750301D01*
X26720765Y89752478D01*
X26658187Y89755330D01*
X26619962Y89758695D01*
X26615293Y89759507D01*
X26589046Y89761834D01*
X26590493Y89752122D01*
X26618704Y89730891D01*
X26672746Y89698664D01*
X26751687Y89655962D01*
X26854595Y89603306D01*
X26980538Y89541218D01*
X27128585Y89470220D01*
X27151597Y89459327D01*
X27243476Y89404566D01*
X27310393Y89336429D01*
X27357689Y89248639D01*
X27375343Y89196471D01*
X27392236Y89113637D01*
X27391133Y89036396D01*
X27370264Y88960522D01*
X27327862Y88881787D01*
X27262159Y88795964D01*
X27171388Y88698826D01*
X27164233Y88691676D01*
X26972371Y88521150D01*
X26758579Y88368161D01*
X26528865Y88236215D01*
X26289239Y88128822D01*
X26080785Y88059050D01*
X25960531Y88031129D01*
X25860162Y88022256D01*
X25774197Y88033211D01*
X25697150Y88064775D01*
X25623540Y88117730D01*
X25614824Y88125427D01*
X25541885Y88200080D01*
X25461862Y88297601D01*
X25378982Y88411713D01*
X25297469Y88536140D01*
X25221551Y88664607D01*
X25155454Y88790837D01*
X25129855Y88845651D01*
X25072054Y88974965D01*
X25062436Y88915990D01*
X25058962Y88886479D01*
X25057554Y88849650D01*
X25058415Y88801405D01*
X25061749Y88737641D01*
X25067760Y88654260D01*
X25076649Y88547160D01*
X25085952Y88441858D01*
X25093035Y88356444D01*
X25096217Y88294549D01*
X25095263Y88248642D01*
X25089939Y88211196D01*
X25080009Y88174683D01*
X25077378Y88166611D01*
X25028801Y88064658D01*
X24959459Y87984944D01*
X24871636Y87928590D01*
X24767613Y87896714D01*
X24649676Y87890437D01*
X24544216Y87905170D01*
X24349929Y87958874D01*
X24147591Y88035001D01*
X23945764Y88129495D01*
X23753011Y88238297D01*
X23577895Y88357349D01*
X23557853Y88372609D01*
X23490170Y88428144D01*
X23419047Y88492108D01*
X23349678Y88559230D01*
X23287254Y88624240D01*
X23236968Y88681867D01*
X23204011Y88726838D01*
X23197718Y88738220D01*
X23169144Y88831609D01*
X23165252Y88924304D01*
X23446530Y88924304D01*
X23446754Y88889481D01*
X23456996Y88859818D01*
X23473155Y88834065D01*
X23502554Y88800804D01*
X23551349Y88754161D01*
X23613641Y88699123D01*
X23683531Y88640679D01*
X23755120Y88583818D01*
X23822509Y88533527D01*
X23856462Y88509927D01*
X23997041Y88424861D01*
X24156947Y88343604D01*
X24324286Y88271589D01*
X24487166Y88214246D01*
X24533782Y88200605D01*
X24617121Y88179943D01*
X24678076Y88171826D01*
X24723108Y88176744D01*
X24758676Y88195188D01*
X24784315Y88219624D01*
X24807285Y88251138D01*
X24815072Y88284172D01*
X24811213Y88332359D01*
X24785225Y88595231D01*
X24778659Y88866631D01*
X24791192Y89137370D01*
X24822497Y89398258D01*
X24854983Y89568215D01*
X24863594Y89617237D01*
X24866351Y89667637D01*
X24862899Y89727151D01*
X24852881Y89803520D01*
X24843330Y89861429D01*
X25129020Y89861429D01*
X25139117Y89789068D01*
X25192472Y89515522D01*
X25275023Y89244069D01*
X25384808Y88979340D01*
X25519866Y88725969D01*
X25678236Y88488588D01*
X25704633Y88453667D01*
X25758506Y88386056D01*
X25799767Y88340985D01*
X25832677Y88314674D01*
X25861497Y88303348D01*
X25875592Y88302123D01*
X25905366Y88306748D01*
X25956495Y88319200D01*
X26020698Y88337344D01*
X26064121Y88350733D01*
X26289327Y88437316D01*
X26509773Y88550704D01*
X26718161Y88686546D01*
X26907194Y88840488D01*
X26945826Y88876704D01*
X27017006Y88947517D01*
X27066118Y89002902D01*
X27095476Y89046997D01*
X27107392Y89083940D01*
X27104182Y89117870D01*
X27094162Y89142065D01*
X27076835Y89166033D01*
X27047510Y89189516D01*
X27000905Y89215803D01*
X26931740Y89248183D01*
X26904859Y89259987D01*
X26706033Y89355326D01*
X26505272Y89468201D01*
X26311000Y89593221D01*
X26131642Y89724994D01*
X25987615Y89847034D01*
X25906883Y89910493D01*
X25813508Y89961556D01*
X25769589Y89980351D01*
X25639978Y90032513D01*
X25568835Y89987373D01*
X25479399Y89941824D01*
X25370619Y89904017D01*
X25254168Y89877776D01*
X25219014Y89872673D01*
X25129020Y89861429D01*
X24843330Y89861429D01*
X24840781Y89876884D01*
X24822367Y89922154D01*
X24781884Y89952949D01*
X24688004Y90011130D01*
X24595100Y90087423D01*
X24515950Y90170990D01*
X24498966Y90192890D01*
X24432094Y90283729D01*
X24321045Y90192087D01*
X24110869Y89999767D01*
X23919748Y89786471D01*
X23750788Y89556339D01*
X23607097Y89313509D01*
X23514358Y89117476D01*
X23479492Y89032528D01*
X23457162Y88970062D01*
X23446530Y88924304D01*
X23165252Y88924304D01*
X23164661Y88938383D01*
X23184374Y89051880D01*
X23192351Y89078262D01*
X23234790Y89191819D01*
X23291563Y89320222D01*
X23357794Y89453650D01*
X23428605Y89582286D01*
X23499120Y89696313D01*
X23499991Y89697622D01*
X23542318Y89761286D01*
X23579113Y89816805D01*
X23606448Y89858243D01*
X23620397Y89879662D01*
X23620448Y89879744D01*
X23617459Y89885938D01*
X23592233Y89876366D01*
X23548242Y89853046D01*
X23488960Y89817997D01*
X23417858Y89773239D01*
X23338409Y89720789D01*
X23289288Y89687235D01*
X23195759Y89622715D01*
X23123575Y89573767D01*
X23068426Y89538100D01*
X23026000Y89513421D01*
X22991989Y89497442D01*
X22962080Y89487871D01*
X22931963Y89482416D01*
X22897327Y89478788D01*
X22897001Y89478759D01*
X22792166Y89478320D01*
X22703860Y89499884D01*
X22623929Y89546270D01*
X22572934Y89590742D01*
X22534249Y89630704D01*
X22506144Y89667380D01*
X22483667Y89709676D01*
X22461864Y89766496D01*
X22442665Y89824976D01*
X22401897Y89970250D01*
X22372612Y90116583D01*
X22353699Y90272109D01*
X22344050Y90444958D01*
X22342296Y90557374D01*
X22616545Y90557374D01*
X22618530Y90477823D01*
X22625489Y90389462D01*
X22634004Y90310676D01*
X22657193Y90143941D01*
X22684847Y90007650D01*
X22717174Y89901276D01*
X22754385Y89824292D01*
X22796690Y89776172D01*
X22844298Y89756388D01*
X22854919Y89755784D01*
X22881629Y89764692D01*
X22926592Y89788885D01*
X22983301Y89824566D01*
X23037709Y89862422D01*
X23310724Y90043767D01*
X23590557Y90195359D01*
X23879421Y90318365D01*
X23950693Y90343886D01*
X24044461Y90378784D01*
X24118296Y90413014D01*
X24182916Y90452045D01*
X24230039Y90486409D01*
X24337892Y90569713D01*
X24341602Y90698102D01*
X24343716Y90720343D01*
X24623104Y90720343D01*
X24626951Y90603145D01*
X24658584Y90488679D01*
X24718003Y90381203D01*
X24778071Y90310460D01*
X24878929Y90229459D01*
X24989244Y90178093D01*
X25107846Y90156597D01*
X25233567Y90165206D01*
X25345473Y90196488D01*
X25419583Y90234776D01*
X25473329Y90276103D01*
X25847707Y90276103D01*
X25849136Y90263346D01*
X25865472Y90250779D01*
X25901379Y90235013D01*
X25961517Y90212659D01*
X25971015Y90209216D01*
X26076270Y90172098D01*
X26170081Y90141704D01*
X26259601Y90116313D01*
X26351978Y90094207D01*
X26454364Y90073666D01*
X26573908Y90052970D01*
X26709077Y90031722D01*
X26759449Y90027205D01*
X26833156Y90024595D01*
X26922335Y90023794D01*
X27019123Y90024708D01*
X27115659Y90027241D01*
X27204078Y90031298D01*
X27276519Y90036783D01*
X27295143Y90038837D01*
X27390102Y90051906D01*
X27459138Y90065610D01*
X27507557Y90082049D01*
X27540664Y90103324D01*
X27563762Y90131533D01*
X27573235Y90148934D01*
X27593960Y90204812D01*
X27614733Y90284770D01*
X27634251Y90381657D01*
X27651211Y90488323D01*
X27664310Y90597616D01*
X27671506Y90688445D01*
X27673798Y90803139D01*
X27668847Y90925946D01*
X27657551Y91051636D01*
X27640810Y91174980D01*
X27619523Y91290749D01*
X27594589Y91393712D01*
X27566908Y91478641D01*
X27537379Y91540305D01*
X27521329Y91561722D01*
X27490011Y91587980D01*
X27456419Y91598434D01*
X27415936Y91591906D01*
X27363940Y91567217D01*
X27295813Y91523187D01*
X27254292Y91493577D01*
X26988522Y91316604D01*
X26716539Y91168365D01*
X26433612Y91046370D01*
X26341754Y91013078D01*
X26248268Y90978177D01*
X26174743Y90944074D01*
X26110512Y90905308D01*
X26061869Y90869769D01*
X25953922Y90786099D01*
X25949628Y90656616D01*
X25940536Y90560310D01*
X25921135Y90462055D01*
X25894102Y90372324D01*
X25862116Y90301592D01*
X25856525Y90292438D01*
X25847707Y90276103D01*
X25473329Y90276103D01*
X25493652Y90291730D01*
X25506444Y90303773D01*
X25587738Y90402884D01*
X25641426Y90512187D01*
X25667468Y90627472D01*
X25665821Y90744531D01*
X25636445Y90859155D01*
X25579298Y90967137D01*
X25513735Y91045734D01*
X25415040Y91124580D01*
X25305265Y91176851D01*
X25188923Y91201092D01*
X25070531Y91195850D01*
X25056124Y91193114D01*
X24947857Y91161618D01*
X24857628Y91113118D01*
X24778266Y91045734D01*
X24698763Y90945897D01*
X24647042Y90836014D01*
X24623104Y90720343D01*
X24343716Y90720343D01*
X24352966Y90817633D01*
X24382171Y90930620D01*
X24386696Y90943723D01*
X24406729Y91002062D01*
X24422393Y91050646D01*
X24430846Y91080588D01*
X24431440Y91083677D01*
X24418883Y91100272D01*
X24380101Y91122137D01*
X24319411Y91147886D01*
X24241132Y91176132D01*
X24149583Y91205490D01*
X24049082Y91234573D01*
X23943947Y91261993D01*
X23838498Y91286365D01*
X23739231Y91305918D01*
X23664816Y91314948D01*
X23561171Y91321032D01*
X23430193Y91324092D01*
X23293754Y91324221D01*
X23143813Y91321848D01*
X23022132Y91316907D01*
X22925782Y91308959D01*
X22851834Y91297564D01*
X22797361Y91282283D01*
X22759432Y91262677D01*
X22736827Y91240707D01*
X22711630Y91191574D01*
X22687300Y91116122D01*
X22664922Y91019293D01*
X22645588Y90906029D01*
X22630385Y90781272D01*
X22626637Y90740523D01*
X22619320Y90640734D01*
X22616545Y90557374D01*
X22342296Y90557374D01*
X22342243Y90560769D01*
X22343519Y90699405D01*
X22349151Y90817147D01*
X22360297Y90924197D01*
X22378114Y91030757D01*
X22403760Y91147030D01*
X22413045Y91184896D01*
X22440875Y91281116D01*
X22474126Y91361960D01*
X22515547Y91428698D01*
X22567888Y91482600D01*
X22633898Y91524935D01*
X22716326Y91556973D01*
X22817922Y91579983D01*
X22918483Y91592400D01*
X23707970Y91592400D01*
X23715785Y91584584D01*
X23723600Y91592400D01*
X23715785Y91600215D01*
X23707970Y91592400D01*
X22918483Y91592400D01*
X22941434Y91595234D01*
X23089613Y91603997D01*
X23265206Y91607541D01*
X23328839Y91607781D01*
X23444125Y91607968D01*
X23531490Y91608530D01*
X23594276Y91609742D01*
X23635824Y91611876D01*
X23659475Y91615207D01*
X23668571Y91620007D01*
X23666451Y91626550D01*
X23657085Y91634635D01*
X23629108Y91651968D01*
X23577528Y91680220D01*
X23507035Y91717009D01*
X23422319Y91759956D01*
X23328067Y91806679D01*
X23228971Y91854798D01*
X23140404Y91896915D01*
X23048682Y91951359D01*
X22981844Y92019208D01*
X22934556Y92106725D01*
X22916658Y92159528D01*
X22899800Y92241091D01*
X22899913Y92258157D01*
X23181864Y92258157D01*
X23192924Y92217327D01*
X23228121Y92179239D01*
X23289854Y92141079D01*
X23359468Y92108819D01*
X23588079Y92000543D01*
X23814513Y91872135D01*
X24030327Y91728962D01*
X24227078Y91576387D01*
X24305354Y91507732D01*
X24388974Y91442958D01*
X24487494Y91390404D01*
X24522412Y91375648D01*
X24652023Y91323486D01*
X24723165Y91368627D01*
X24779808Y91399150D01*
X24847846Y91428439D01*
X24888093Y91442455D01*
X24957704Y91460777D01*
X25032950Y91476197D01*
X25071754Y91482096D01*
X25119953Y91489635D01*
X25152565Y91497922D01*
X25161610Y91503647D01*
X25159053Y91523017D01*
X25152281Y91565093D01*
X25142603Y91621810D01*
X25139538Y91639292D01*
X25128484Y91688376D01*
X25425649Y91688376D01*
X25429100Y91628872D01*
X25439114Y91552519D01*
X25451236Y91479028D01*
X25466009Y91438818D01*
X25499314Y91409058D01*
X25519031Y91398090D01*
X25612039Y91339748D01*
X25703374Y91263459D01*
X25780401Y91180154D01*
X25797660Y91157093D01*
X25857200Y91072744D01*
X25919724Y91120793D01*
X25954136Y91149543D01*
X26004590Y91194628D01*
X26064903Y91250397D01*
X26128895Y91311199D01*
X26144113Y91325913D01*
X26347932Y91543336D01*
X26523168Y91772562D01*
X26670637Y92014769D01*
X26777643Y92238523D01*
X26812509Y92323471D01*
X26834838Y92385937D01*
X26845471Y92431695D01*
X26845247Y92466518D01*
X26835005Y92496181D01*
X26818846Y92521934D01*
X26788984Y92555739D01*
X26739580Y92602902D01*
X26676458Y92658515D01*
X26605443Y92717665D01*
X26532362Y92775442D01*
X26463038Y92826937D01*
X26429187Y92850422D01*
X26336345Y92907529D01*
X26228757Y92965078D01*
X26112374Y93020648D01*
X25993144Y93071818D01*
X25877015Y93116168D01*
X25769936Y93151278D01*
X25677855Y93174725D01*
X25609470Y93184002D01*
X25561852Y93179949D01*
X25526565Y93158250D01*
X25510048Y93140647D01*
X25485576Y93106755D01*
X25477007Y93073327D01*
X25480563Y93025254D01*
X25480788Y93023640D01*
X25506164Y92768218D01*
X25513139Y92503267D01*
X25502045Y92238148D01*
X25473214Y91982221D01*
X25437018Y91787784D01*
X25428408Y91738768D01*
X25425649Y91688376D01*
X25128484Y91688376D01*
X25073650Y91931858D01*
X24981644Y92208147D01*
X24862527Y92470489D01*
X24715302Y92721212D01*
X24617607Y92860924D01*
X24558607Y92938481D01*
X24512915Y92993133D01*
X24476972Y93028292D01*
X24447216Y93047375D01*
X24420089Y93053794D01*
X24416409Y93053876D01*
X24377503Y93048130D01*
X24316781Y93032447D01*
X24241181Y93009166D01*
X24157638Y92980624D01*
X24073088Y92949157D01*
X23994469Y92917104D01*
X23946936Y92895691D01*
X23850953Y92845517D01*
X23748183Y92783818D01*
X23642851Y92713905D01*
X23539186Y92639090D01*
X23441413Y92562687D01*
X23353760Y92488007D01*
X23280454Y92418362D01*
X23225722Y92357066D01*
X23193790Y92307430D01*
X23192543Y92304538D01*
X23181864Y92258157D01*
X22899913Y92258157D01*
X22900303Y92316982D01*
X22919957Y92391389D01*
X22960553Y92468499D01*
X23023880Y92552503D01*
X23111730Y92647588D01*
X23135399Y92671275D01*
X23329087Y92842261D01*
X23544537Y92995103D01*
X23775983Y93126475D01*
X24017660Y93233051D01*
X24229348Y93302355D01*
X24338431Y93326725D01*
X24433008Y93333950D01*
X24517385Y93322127D01*
X24595864Y93289355D01*
X24672749Y93233733D01*
X24752344Y93153359D01*
X24838951Y93046332D01*
X24853890Y93026416D01*
X24994007Y92821918D01*
X25110563Y92617745D01*
X25162146Y92510348D01*
X25189418Y92450118D01*
X25206902Y92415299D01*
X25217341Y92402666D01*
X25223479Y92408990D01*
X25228062Y92431046D01*
X25228308Y92432558D01*
X25230381Y92468105D01*
X25229984Y92528545D01*
X25227429Y92607632D01*
X25223029Y92699121D01*
X25217095Y92796767D01*
X25209938Y92894325D01*
X25201872Y92985550D01*
X25199552Y93008532D01*
X25201213Y93123997D01*
X25229299Y93227983D01*
X25280944Y93317211D01*
X25353287Y93388404D01*
X25443463Y93438282D01*
X25548609Y93463567D01*
X25599152Y93466055D01*
X25712100Y93455494D01*
G37*
D13*
G04 #@! TO.C,C3*
X82945420Y78234000D02*
X83226580Y78234000D01*
X82945420Y77214000D02*
X83226580Y77214000D01*
G04 #@! TO.C,TP5*
X100006000Y58674000D02*
G75*
G02*
X97606000Y58674000I-1200000J0D01*
G01*
X97606000Y58674000D02*
G75*
G02*
X100006000Y58674000I1200000J0D01*
G01*
G04 #@! TO.C,R3*
X39313850Y21690359D02*
X39313850Y21997641D01*
X40073850Y21690359D02*
X40073850Y21997641D01*
G04 #@! TO.C,C4*
X83486164Y79354000D02*
X83701836Y79354000D01*
X83486164Y78634000D02*
X83701836Y78634000D01*
G04 #@! TO.C,R10*
X93854000Y78332359D02*
X93854000Y78639641D01*
X94614000Y78332359D02*
X94614000Y78639641D01*
G04 #@! TO.C,R5*
X39313850Y27534359D02*
X39313850Y27841641D01*
X40073850Y27534359D02*
X40073850Y27841641D01*
D10*
G04 #@! TO.C,D1*
X84304000Y102108000D02*
G75*
G02*
X84204000Y102108000I-50000J0D01*
G01*
X84204000Y102108000D02*
G75*
G02*
X84304000Y102108000I50000J0D01*
G01*
D13*
G04 #@! TO.C,J2*
X83782500Y76066000D02*
X83782500Y73406000D01*
X88922500Y76066000D02*
X83782500Y76066000D01*
X88922500Y76066000D02*
X88922500Y73406000D01*
X88922500Y73406000D02*
X83782500Y73406000D01*
X90192500Y76066000D02*
X91522500Y76066000D01*
X91522500Y76066000D02*
X91522500Y74736000D01*
G04 #@! TO.C,R2*
X92613641Y11210000D02*
X92306359Y11210000D01*
X92613641Y10450000D02*
X92306359Y10450000D01*
G04 #@! TO.C,TP2*
X85274000Y63500000D02*
G75*
G02*
X82874000Y63500000I-1200000J0D01*
G01*
X82874000Y63500000D02*
G75*
G02*
X85274000Y63500000I1200000J0D01*
G01*
D14*
G04 #@! TO.C,U3*
X29952950Y26568400D02*
X34194750Y26568400D01*
X34194750Y31851600D02*
X29952950Y31851600D01*
G04 #@! TO.C,Q1*
X28778200Y70548500D02*
X28778200Y70144640D01*
X28778200Y63967360D02*
X28778200Y63563500D01*
X28778200Y63563500D02*
X35255200Y63563500D01*
X35255200Y70548500D02*
X28778200Y70548500D01*
X35255200Y67754500D02*
X35255200Y70548500D01*
X35255200Y66357500D02*
X36271200Y66357500D01*
X35255200Y63563500D02*
X35255200Y66357500D01*
X36271200Y67754500D02*
X35255200Y67754500D01*
X36271200Y66357500D02*
X36271200Y67754500D01*
D12*
G04 #@! TO.C,G\u002A\u002A\u002A*
G36*
X32007349Y16760769D02*
G01*
X32009855Y16751189D01*
X32014641Y16727062D01*
X32021154Y16691395D01*
X32028840Y16647195D01*
X32034494Y16613551D01*
X32050899Y16523410D01*
X32071390Y16424680D01*
X32094713Y16322625D01*
X32119614Y16222508D01*
X32144838Y16129592D01*
X32168776Y16050238D01*
X32205124Y15943074D01*
X32242781Y15844437D01*
X32283086Y15752187D01*
X32327381Y15664186D01*
X32377006Y15578292D01*
X32433303Y15492366D01*
X32497613Y15404270D01*
X32571276Y15311862D01*
X32655635Y15213003D01*
X32752028Y15105555D01*
X32779720Y15075413D01*
X32860694Y14986278D01*
X32929618Y14907001D01*
X32987698Y14835588D01*
X33036138Y14770043D01*
X33076143Y14708371D01*
X33108918Y14648578D01*
X33135667Y14588668D01*
X33157595Y14526646D01*
X33175906Y14460518D01*
X33190397Y14395314D01*
X33214851Y14248633D01*
X33226237Y14113082D01*
X33224236Y13987400D01*
X33208533Y13870324D01*
X33178809Y13760595D01*
X33134749Y13656950D01*
X33076035Y13558128D01*
X33002350Y13462868D01*
X32939037Y13394965D01*
X32828687Y13296921D01*
X32708395Y13213456D01*
X32578721Y13144802D01*
X32440228Y13091194D01*
X32293479Y13052863D01*
X32139035Y13030043D01*
X32044007Y13023931D01*
X31998961Y13022768D01*
X31957497Y13022404D01*
X31924514Y13022839D01*
X31906205Y13023906D01*
X31800745Y13038061D01*
X31708805Y13054469D01*
X31626164Y13074147D01*
X31548605Y13098108D01*
X31471907Y13127367D01*
X31466128Y13129780D01*
X31341015Y13190346D01*
X31225221Y13262562D01*
X31120023Y13345121D01*
X31026697Y13436713D01*
X30946521Y13536027D01*
X30880772Y13641756D01*
X30830726Y13752590D01*
X30815853Y13796547D01*
X30807784Y13823563D01*
X30801704Y13847073D01*
X30797330Y13870234D01*
X30794380Y13896201D01*
X30792570Y13928128D01*
X30791618Y13969172D01*
X30791242Y14022486D01*
X30791168Y14072151D01*
X30791794Y14156836D01*
X30794117Y14227918D01*
X30798639Y14289536D01*
X30805867Y14345828D01*
X30816304Y14400932D01*
X30830454Y14458987D01*
X30844397Y14508993D01*
X30859710Y14558662D01*
X30876206Y14604555D01*
X30895011Y14648284D01*
X30917250Y14691464D01*
X30944049Y14735710D01*
X30976534Y14782635D01*
X31015830Y14833853D01*
X31063062Y14890978D01*
X31119357Y14955625D01*
X31185840Y15029407D01*
X31263635Y15113938D01*
X31274244Y15125376D01*
X31370070Y15231165D01*
X31453218Y15328797D01*
X31525329Y15420658D01*
X31588045Y15509133D01*
X31643005Y15596608D01*
X31691852Y15685467D01*
X31736225Y15778096D01*
X31758283Y15829039D01*
X31801340Y15940690D01*
X31843099Y16066009D01*
X31882460Y16200884D01*
X31918322Y16341206D01*
X31949587Y16482861D01*
X31975155Y16621738D01*
X31982089Y16665816D01*
X31989163Y16710853D01*
X31994717Y16740495D01*
X31999354Y16757002D01*
X32003673Y16762631D01*
X32007349Y16760769D01*
G37*
G36*
X32766699Y20098906D02*
G01*
X32906440Y20098797D01*
X33051695Y20098599D01*
X33201237Y20098310D01*
X33353839Y20097930D01*
X33462032Y20097609D01*
X34746702Y20093527D01*
X34825328Y20054655D01*
X34910340Y20007989D01*
X34983496Y19956959D01*
X35050723Y19897207D01*
X35078839Y19868223D01*
X35165168Y19763631D01*
X35239445Y19647423D01*
X35302054Y19518864D01*
X35353379Y19377218D01*
X35375326Y19299732D01*
X35380356Y19278650D01*
X35384513Y19256535D01*
X35387936Y19231237D01*
X35390764Y19200603D01*
X35393139Y19162481D01*
X35395199Y19114720D01*
X35397084Y19055167D01*
X35398934Y18981672D01*
X35400449Y18912998D01*
X35400946Y18880127D01*
X35401413Y18830195D01*
X35401849Y18763923D01*
X35402254Y18682031D01*
X35402628Y18585239D01*
X35402968Y18474269D01*
X35403276Y18349839D01*
X35403550Y18212671D01*
X35403789Y18063485D01*
X35403994Y17903002D01*
X35404162Y17731940D01*
X35404295Y17551022D01*
X35404390Y17360967D01*
X35404447Y17162495D01*
X35404466Y16956328D01*
X35404446Y16743184D01*
X35404387Y16523785D01*
X35404287Y16298851D01*
X35404146Y16069103D01*
X35403964Y15835260D01*
X35403739Y15598043D01*
X35403581Y15452633D01*
X35400016Y12307880D01*
X35359175Y12212066D01*
X35314784Y12115201D01*
X35268272Y12029739D01*
X35216345Y11950682D01*
X35155706Y11873037D01*
X35083062Y11791805D01*
X35079493Y11788023D01*
X34977649Y11687717D01*
X34875230Y11602516D01*
X34768703Y11529988D01*
X34654537Y11467704D01*
X34542059Y11418289D01*
X34475080Y11391682D01*
X32001545Y11392068D01*
X29528011Y11392454D01*
X29456887Y11421768D01*
X29338591Y11475304D01*
X29232076Y11534292D01*
X29133421Y11601471D01*
X29038704Y11679580D01*
X28944005Y11771358D01*
X28919757Y11796882D01*
X28838219Y11890151D01*
X28769807Y11982848D01*
X28710938Y12080481D01*
X28658030Y12188559D01*
X28652767Y12200712D01*
X29405452Y12200712D01*
X32003114Y12200712D01*
X34600776Y12200712D01*
X34598170Y14736712D01*
X34597937Y14957655D01*
X34597693Y15178889D01*
X34597438Y15399408D01*
X34597175Y15618206D01*
X34596905Y15834280D01*
X34596630Y16046623D01*
X34596350Y16254231D01*
X34596068Y16456099D01*
X34595785Y16651221D01*
X34595503Y16838593D01*
X34595222Y17017209D01*
X34594946Y17186065D01*
X34594674Y17344155D01*
X34594409Y17490475D01*
X34594152Y17624019D01*
X34593904Y17743782D01*
X34593668Y17848759D01*
X34593445Y17937946D01*
X34593239Y18009060D01*
X34590915Y18745408D01*
X34517671Y18705785D01*
X34498021Y18695129D01*
X34464155Y18676734D01*
X34417475Y18651361D01*
X34359381Y18619773D01*
X34291276Y18582732D01*
X34214558Y18541000D01*
X34130631Y18495340D01*
X34040895Y18446512D01*
X33946751Y18395280D01*
X33849601Y18342405D01*
X33848767Y18341952D01*
X33691407Y18256293D01*
X33548877Y18178705D01*
X33420378Y18108783D01*
X33305111Y18046120D01*
X33202276Y17990309D01*
X33111073Y17940945D01*
X33030704Y17897621D01*
X32960369Y17859932D01*
X32899268Y17827469D01*
X32846602Y17799829D01*
X32801571Y17776603D01*
X32763377Y17757386D01*
X32731220Y17741772D01*
X32704300Y17729355D01*
X32681818Y17719727D01*
X32662974Y17712484D01*
X32646970Y17707218D01*
X32633006Y17703524D01*
X32620281Y17700994D01*
X32607998Y17699224D01*
X32595357Y17697806D01*
X32581557Y17696334D01*
X32577433Y17695864D01*
X32527066Y17690423D01*
X32473935Y17685617D01*
X32416532Y17681393D01*
X32353355Y17677698D01*
X32282897Y17674479D01*
X32203653Y17671682D01*
X32114117Y17669253D01*
X32012786Y17667141D01*
X31898153Y17665291D01*
X31768714Y17663650D01*
X31626688Y17662200D01*
X31049341Y17656848D01*
X30457594Y17418906D01*
X30324361Y17365320D01*
X30206538Y17317867D01*
X30103033Y17276053D01*
X30012759Y17239385D01*
X29934623Y17207368D01*
X29867537Y17179508D01*
X29810410Y17155311D01*
X29762152Y17134282D01*
X29721673Y17115928D01*
X29687883Y17099755D01*
X29659692Y17085269D01*
X29636009Y17071975D01*
X29615745Y17059379D01*
X29597810Y17046988D01*
X29581113Y17034307D01*
X29564564Y17020842D01*
X29547346Y17006330D01*
X29511950Y16972970D01*
X29485952Y16939225D01*
X29467319Y16900831D01*
X29454019Y16853522D01*
X29444019Y16793032D01*
X29443388Y16788182D01*
X29440595Y16763768D01*
X29438017Y16735309D01*
X29435644Y16702079D01*
X29433468Y16663348D01*
X29431478Y16618390D01*
X29429668Y16566478D01*
X29428027Y16506883D01*
X29426547Y16438877D01*
X29425218Y16361735D01*
X29424033Y16274727D01*
X29422981Y16177127D01*
X29422054Y16068206D01*
X29421242Y15947238D01*
X29420538Y15813494D01*
X29419932Y15666247D01*
X29419415Y15504770D01*
X29418979Y15328335D01*
X29418613Y15136215D01*
X29418310Y14927681D01*
X29418087Y14730044D01*
X29417884Y14558030D01*
X29417619Y14385186D01*
X29417298Y14212883D01*
X29416924Y14042493D01*
X29416503Y13875387D01*
X29416039Y13712937D01*
X29415538Y13556512D01*
X29415004Y13407486D01*
X29414441Y13267229D01*
X29413856Y13137113D01*
X29413252Y13018509D01*
X29412634Y12912788D01*
X29412007Y12821321D01*
X29411376Y12745481D01*
X29411016Y12709690D01*
X29405452Y12200712D01*
X28652767Y12200712D01*
X28644085Y12220760D01*
X28607427Y12307485D01*
X28604003Y14314459D01*
X28603595Y14562997D01*
X28603256Y14794413D01*
X28602992Y15009364D01*
X28602812Y15208508D01*
X28602722Y15392504D01*
X28602731Y15562009D01*
X28602845Y15717682D01*
X28603073Y15860181D01*
X28603422Y15990163D01*
X28603899Y16108287D01*
X28604513Y16215211D01*
X28605269Y16311593D01*
X28606177Y16398090D01*
X28607244Y16475362D01*
X28608476Y16544066D01*
X28609883Y16604861D01*
X28611470Y16658403D01*
X28613247Y16705352D01*
X28615219Y16746365D01*
X28617396Y16782100D01*
X28619784Y16813216D01*
X28622391Y16840371D01*
X28625224Y16864222D01*
X28628292Y16885428D01*
X28631600Y16904647D01*
X28633809Y16916014D01*
X28672923Y17070747D01*
X28725610Y17216587D01*
X28791207Y17351874D01*
X28840043Y17432739D01*
X28871259Y17475236D01*
X28912491Y17524085D01*
X28960260Y17575776D01*
X29011082Y17626803D01*
X29061478Y17673655D01*
X29107965Y17712826D01*
X29143499Y17738556D01*
X29171569Y17757909D01*
X29192616Y17774933D01*
X29203004Y17786608D01*
X29203510Y17788396D01*
X29200227Y17798899D01*
X29190874Y17823963D01*
X29176189Y17861726D01*
X29156912Y17910324D01*
X29133784Y17967895D01*
X29107543Y18032576D01*
X29078931Y18102503D01*
X29074173Y18114076D01*
X29032441Y18215775D01*
X28997096Y18302647D01*
X28967614Y18376247D01*
X28943468Y18438128D01*
X28924136Y18489846D01*
X28909090Y18532955D01*
X28897808Y18569011D01*
X28889763Y18599567D01*
X28884430Y18626180D01*
X28881285Y18650402D01*
X28879804Y18673791D01*
X28879473Y18690737D01*
X28880165Y18732345D01*
X28883716Y18763240D01*
X28891426Y18790423D01*
X28903072Y18817658D01*
X28938252Y18882275D01*
X28976596Y18933611D01*
X29016450Y18969470D01*
X29018455Y18970819D01*
X29043653Y18985275D01*
X29083533Y19005283D01*
X29136191Y19029990D01*
X29199719Y19058547D01*
X29272214Y19090101D01*
X29351769Y19123801D01*
X29436478Y19158795D01*
X29466709Y19171078D01*
X29550888Y19204820D01*
X29620842Y19231956D01*
X29678653Y19252973D01*
X29726398Y19268360D01*
X29766159Y19278606D01*
X29800015Y19284198D01*
X29830046Y19285627D01*
X29858331Y19283379D01*
X29886950Y19277943D01*
X29903756Y19273727D01*
X29976080Y19245466D01*
X30040396Y19201469D01*
X30096328Y19142061D01*
X30143498Y19067569D01*
X30143814Y19066960D01*
X30157083Y19039776D01*
X30175773Y18999193D01*
X30198537Y18948257D01*
X30224027Y18890011D01*
X30250897Y18827500D01*
X30274878Y18770751D01*
X30313916Y18677583D01*
X30346674Y18599449D01*
X30373734Y18534982D01*
X30395679Y18482812D01*
X30413091Y18441571D01*
X30426553Y18409890D01*
X30436646Y18386401D01*
X30443954Y18369734D01*
X30449059Y18358522D01*
X30452542Y18351396D01*
X30454987Y18346987D01*
X30455671Y18345887D01*
X30462386Y18343134D01*
X30477350Y18345336D01*
X30502425Y18353091D01*
X30539470Y18366994D01*
X30590349Y18387640D01*
X30604493Y18393526D01*
X30651609Y18413191D01*
X30693391Y18430608D01*
X30726913Y18444560D01*
X30749249Y18453827D01*
X30757039Y18457026D01*
X30762877Y18465534D01*
X30772656Y18482737D01*
X31517379Y18482737D01*
X31520024Y18477404D01*
X31525951Y18475128D01*
X31526917Y18474945D01*
X31539432Y18474222D01*
X31567923Y18473478D01*
X31610585Y18472733D01*
X31665613Y18472008D01*
X31731202Y18471325D01*
X31805547Y18470704D01*
X31886842Y18470166D01*
X31973284Y18469731D01*
X31980423Y18469701D01*
X32414705Y18467912D01*
X33496244Y19011635D01*
X33626041Y19076900D01*
X33751448Y19139979D01*
X33871548Y19200412D01*
X33985425Y19257737D01*
X34092163Y19311490D01*
X34190846Y19361212D01*
X34280559Y19406438D01*
X34360384Y19446709D01*
X34429407Y19481561D01*
X34486710Y19510534D01*
X34531379Y19533164D01*
X34562496Y19548991D01*
X34579145Y19557551D01*
X34581805Y19558996D01*
X34573557Y19559404D01*
X34548519Y19559765D01*
X34507683Y19560077D01*
X34452040Y19560340D01*
X34382580Y19560553D01*
X34300296Y19560714D01*
X34206177Y19560824D01*
X34101216Y19560881D01*
X33986403Y19560884D01*
X33862730Y19560832D01*
X33731188Y19560725D01*
X33592767Y19560562D01*
X33448460Y19560342D01*
X33314521Y19560095D01*
X33137942Y19559729D01*
X32978284Y19559364D01*
X32834688Y19558989D01*
X32706295Y19558593D01*
X32592245Y19558164D01*
X32491679Y19557691D01*
X32403737Y19557164D01*
X32327560Y19556570D01*
X32262289Y19555899D01*
X32207064Y19555139D01*
X32161026Y19554279D01*
X32123315Y19553309D01*
X32093072Y19552216D01*
X32069437Y19550990D01*
X32051552Y19549619D01*
X32038556Y19548092D01*
X32029591Y19546398D01*
X32023796Y19544525D01*
X32021347Y19543223D01*
X32013045Y19533137D01*
X31999010Y19509865D01*
X31979096Y19473107D01*
X31953157Y19422561D01*
X31921045Y19357924D01*
X31882615Y19278897D01*
X31837720Y19185176D01*
X31786213Y19076460D01*
X31727949Y18952448D01*
X31662780Y18812838D01*
X31590560Y18657329D01*
X31578476Y18631243D01*
X31553960Y18578058D01*
X31536309Y18538787D01*
X31524806Y18511257D01*
X31518735Y18493297D01*
X31517379Y18482737D01*
X30772656Y18482737D01*
X30775980Y18488584D01*
X30795641Y18524823D01*
X30821152Y18572900D01*
X30851807Y18631463D01*
X30886898Y18699159D01*
X30925720Y18774636D01*
X30967565Y18856542D01*
X31011727Y18943524D01*
X31022609Y18965040D01*
X31094661Y19107428D01*
X31159292Y19234770D01*
X31216969Y19347958D01*
X31268159Y19447882D01*
X31313327Y19535433D01*
X31352940Y19611500D01*
X31387465Y19676976D01*
X31417367Y19732751D01*
X31443114Y19779715D01*
X31465171Y19818759D01*
X31484005Y19850774D01*
X31499317Y19875457D01*
X31547989Y19940653D01*
X31605215Y19999473D01*
X31666325Y20047397D01*
X31694940Y20064806D01*
X31741731Y20090480D01*
X31959547Y20096085D01*
X31994464Y20096722D01*
X32045935Y20097280D01*
X32112733Y20097760D01*
X32193631Y20098159D01*
X32287404Y20098476D01*
X32392823Y20098711D01*
X32508664Y20098862D01*
X32633697Y20098927D01*
X32766699Y20098906D01*
G37*
D13*
G04 #@! TO.C,R1*
X92611641Y14258000D02*
X92304359Y14258000D01*
X92611641Y13498000D02*
X92304359Y13498000D01*
G04 #@! TO.C,R13*
X16130000Y95098359D02*
X16130000Y95405641D01*
X16890000Y95098359D02*
X16890000Y95405641D01*
D15*
G04 #@! TO.C,M3*
X46274999Y61025002D02*
X46274999Y18925002D01*
X46274999Y61025002D02*
X86174998Y61025002D01*
X46274999Y18925002D02*
X86174998Y18924999D01*
X86174998Y61025002D02*
X86174998Y20224999D01*
X86174998Y20224999D02*
X86174998Y18924999D01*
G04 #@! TO.C,M1*
X90823946Y36398956D02*
X90823946Y20051056D01*
X90823946Y20051056D02*
X90958007Y19916995D01*
X90958007Y19916995D02*
X101198591Y19891592D01*
X92349996Y37925005D02*
X90823946Y36398956D01*
X92349996Y37925005D02*
X99774995Y37925005D01*
X99774995Y37925005D02*
X101224995Y36475006D01*
X101224995Y36475006D02*
X101224997Y19917998D01*
X101224997Y19917998D02*
X101198591Y19891592D01*
D13*
G04 #@! TO.C,TP1*
X100000000Y50700000D02*
G75*
G02*
X97600000Y50700000I-1200000J0D01*
G01*
X97600000Y50700000D02*
G75*
G02*
X100000000Y50700000I1200000J0D01*
G01*
D15*
G04 #@! TO.C,M5*
X34150000Y49000003D02*
X43250000Y49000003D01*
X34150000Y45900000D02*
X34150000Y46900002D01*
X34150000Y45900000D02*
X43250000Y45900000D01*
D13*
G04 #@! TO.C,R4*
X39313850Y24228359D02*
X39313850Y24535641D01*
X40073850Y24228359D02*
X40073850Y24535641D01*
D10*
G04 #@! TO.C,D2*
X89407000Y97028000D02*
G75*
G02*
X89307000Y97028000I-50000J0D01*
G01*
X89307000Y97028000D02*
G75*
G02*
X89407000Y97028000I50000J0D01*
G01*
D13*
G04 #@! TO.C,TP3*
X100000000Y54500000D02*
G75*
G02*
X97600000Y54500000I-1200000J0D01*
G01*
X97600000Y54500000D02*
G75*
G02*
X100000000Y54500000I1200000J0D01*
G01*
D15*
G04 #@! TO.C,M2*
X50144999Y79624999D02*
X50144999Y82825002D01*
X50144999Y67524999D02*
X50144999Y77925001D01*
X50144999Y65624999D02*
X50144999Y65924999D01*
X50144999Y65624999D02*
X65544999Y65624999D01*
X51644999Y86224997D02*
X66944998Y86224999D01*
X66944996Y79525001D02*
X66944996Y84325001D01*
X66944996Y73324999D02*
X66944996Y76024999D01*
X66944996Y70625001D02*
X66944996Y71725004D01*
X66944996Y67074999D02*
X66945001Y68624999D01*
X66944998Y85925001D02*
X66944998Y86224999D01*
D12*
G04 #@! TO.C,G\u002A\u002A\u002A*
G36*
X25067846Y75008154D02*
G01*
X25067846Y74656462D01*
X24892000Y74656462D01*
X24716154Y74656462D01*
X24716154Y75008154D01*
X24716154Y75359846D01*
X24892000Y75359846D01*
X25067846Y75359846D01*
X25067846Y75008154D01*
G37*
G36*
X25595384Y67993846D02*
G01*
X25595384Y67818000D01*
X24892000Y67818000D01*
X24188615Y67818000D01*
X24188615Y67993846D01*
X24188615Y68169693D01*
X24892000Y68169693D01*
X25595384Y68169693D01*
X25595384Y67993846D01*
G37*
G36*
X25595384Y67290462D02*
G01*
X25595384Y67114616D01*
X24892000Y67114616D01*
X24188615Y67114616D01*
X24188615Y67290462D01*
X24188615Y67466308D01*
X24892000Y67466308D01*
X25595384Y67466308D01*
X25595384Y67290462D01*
G37*
G36*
X25947077Y68873077D02*
G01*
X25947077Y68521385D01*
X24892000Y68521385D01*
X23836923Y68521385D01*
X23836923Y68873077D01*
X23836923Y69224770D01*
X24892000Y69224770D01*
X25947077Y69224770D01*
X25947077Y68873077D01*
G37*
G36*
X26474615Y69918385D02*
G01*
X26474615Y69556923D01*
X24892000Y69556923D01*
X23309384Y69556923D01*
X23309384Y69918385D01*
X23309384Y70279846D01*
X24892000Y70279846D01*
X26474615Y70279846D01*
X26474615Y69918385D01*
G37*
G36*
X25538272Y74247657D02*
G01*
X25595384Y74190545D01*
X25595384Y72401273D01*
X25595384Y70612000D01*
X24892000Y70612000D01*
X24188615Y70612000D01*
X24188615Y72401273D01*
X24188615Y74190545D01*
X24245727Y74247657D01*
X24302840Y74304770D01*
X24892000Y74304770D01*
X25481159Y74304770D01*
X25538272Y74247657D01*
G37*
G36*
X25593957Y66268293D02*
G01*
X25595863Y65773662D01*
X25534344Y65650550D01*
X25474249Y65551404D01*
X25404556Y65479904D01*
X25386277Y65466219D01*
X25309037Y65416641D01*
X25237201Y65384613D01*
X25158005Y65366519D01*
X25058684Y65358745D01*
X25002843Y65357641D01*
X24919295Y65357644D01*
X24864512Y65361065D01*
X24828194Y65370399D01*
X24800039Y65388143D01*
X24773266Y65413267D01*
X24726994Y65478351D01*
X24716154Y65532000D01*
X24733590Y65599361D01*
X24773266Y65650734D01*
X24808530Y65682006D01*
X24843913Y65699214D01*
X24892805Y65706458D01*
X24959852Y65707846D01*
X25070765Y65715959D01*
X25149909Y65741528D01*
X25201338Y65786404D01*
X25222035Y65827399D01*
X25230195Y65870140D01*
X25236950Y65942335D01*
X25241654Y66034371D01*
X25243662Y66136632D01*
X25243692Y66150377D01*
X25243692Y66411231D01*
X25155769Y66411231D01*
X25067846Y66411231D01*
X25067846Y66204574D01*
X25067406Y66112209D01*
X25064797Y66049991D01*
X25058086Y66008994D01*
X25045339Y65980288D01*
X25024625Y65954947D01*
X25010733Y65940805D01*
X24945649Y65894534D01*
X24892000Y65883693D01*
X24824639Y65901129D01*
X24773266Y65940805D01*
X24747861Y65967802D01*
X24731387Y65993716D01*
X24721912Y66027475D01*
X24717501Y66078007D01*
X24716223Y66154240D01*
X24716154Y66204574D01*
X24716154Y66411231D01*
X24509497Y66411231D01*
X24417131Y66411671D01*
X24354914Y66414280D01*
X24313916Y66420991D01*
X24285211Y66433737D01*
X24259869Y66454452D01*
X24245727Y66468344D01*
X24213099Y66505720D01*
X24195899Y66543745D01*
X24189378Y66597042D01*
X24188615Y66644190D01*
X24188615Y66762923D01*
X24890332Y66762923D01*
X25592050Y66762923D01*
X25593957Y66268293D01*
G37*
D13*
G04 #@! TO.C,R7*
X87220359Y102488000D02*
X87527641Y102488000D01*
X87220359Y101728000D02*
X87527641Y101728000D01*
D10*
G04 #@! TO.C,D3*
X91416000Y78994000D02*
G75*
G02*
X91316000Y78994000I-50000J0D01*
G01*
X91316000Y78994000D02*
G75*
G02*
X91416000Y78994000I50000J0D01*
G01*
D13*
G04 #@! TO.C,R6*
X39313850Y30167024D02*
X39313850Y30474306D01*
X40073850Y30167024D02*
X40073850Y30474306D01*
D14*
G04 #@! TO.C,Q2*
X28778200Y77914500D02*
X28778200Y77510640D01*
X28778200Y71333360D02*
X28778200Y70929500D01*
X28778200Y70929500D02*
X35255200Y70929500D01*
X35255200Y77914500D02*
X28778200Y77914500D01*
X35255200Y75120500D02*
X35255200Y77914500D01*
X35255200Y73723500D02*
X36271200Y73723500D01*
X35255200Y70929500D02*
X35255200Y73723500D01*
X36271200Y75120500D02*
X35255200Y75120500D01*
X36271200Y73723500D02*
X36271200Y75120500D01*
G04 #@! TO.C,U1*
X80891246Y95836119D02*
X82330405Y95836119D01*
X80891246Y94650460D02*
X80891246Y95836119D01*
X80891246Y80088119D02*
X80891246Y81273778D01*
X82330405Y80088119D02*
X80891246Y80088119D01*
X95707087Y95836119D02*
X101846246Y95836119D01*
X101846246Y95836119D02*
X101846246Y80088119D01*
X101846246Y80088119D02*
X95707087Y80088119D01*
D13*
G04 #@! TO.C,C2*
X88417267Y97388000D02*
X88632939Y97388000D01*
X88417267Y96668000D02*
X88632939Y96668000D01*
G04 #@! TO.C,TP4*
X47300000Y104300000D02*
G75*
G02*
X44900000Y104300000I-1200000J0D01*
G01*
X44900000Y104300000D02*
G75*
G02*
X47300000Y104300000I1200000J0D01*
G01*
G04 #@! TO.C,R9*
X90148598Y99968300D02*
X90148598Y99661018D01*
X90908598Y99968300D02*
X90908598Y99661018D01*
G04 #@! TO.C,C1*
X88356523Y100023469D02*
X88637683Y100023469D01*
X88356523Y99003469D02*
X88637683Y99003469D01*
G04 #@! TO.C,R8*
X41131258Y65292500D02*
X40656742Y65292500D01*
X41131258Y64247500D02*
X40656742Y64247500D01*
G04 #@! TO.C,R12*
X18670000Y95098359D02*
X18670000Y95405641D01*
X19430000Y95098359D02*
X19430000Y95405641D01*
D14*
G04 #@! TO.C,U4*
X13995400Y92221050D02*
X13995400Y87979250D01*
X19278600Y87979250D02*
X19278600Y92221050D01*
D12*
G04 #@! TO.C,G\u002A\u002A\u002A*
G36*
X77772846Y91449176D02*
G01*
X77999300Y91261728D01*
X78217422Y91081147D01*
X78425315Y90909007D01*
X78621081Y90746879D01*
X78802824Y90596335D01*
X78968644Y90458949D01*
X79116646Y90336292D01*
X79244931Y90229938D01*
X79351602Y90141458D01*
X79434761Y90072424D01*
X79492512Y90024410D01*
X79522955Y89998988D01*
X79527303Y89995280D01*
X79515086Y89980795D01*
X79475039Y89943142D01*
X79409333Y89884192D01*
X79320139Y89805817D01*
X79209626Y89709887D01*
X79079967Y89598276D01*
X78933331Y89472853D01*
X78771890Y89335490D01*
X78597813Y89188059D01*
X78413272Y89032432D01*
X78301219Y88938242D01*
X78111554Y88778707D01*
X77931062Y88626310D01*
X77761917Y88482918D01*
X77606290Y88350400D01*
X77466352Y88230625D01*
X77344277Y88125460D01*
X77242235Y88036775D01*
X77162399Y87966437D01*
X77106941Y87916315D01*
X77078033Y87888277D01*
X77074300Y87882857D01*
X77091256Y87868549D01*
X77135860Y87831076D01*
X77205808Y87772372D01*
X77298797Y87694369D01*
X77412522Y87598998D01*
X77544678Y87488192D01*
X77692961Y87363883D01*
X77855067Y87228004D01*
X78028692Y87082486D01*
X78211530Y86929262D01*
X78261307Y86887550D01*
X78447360Y86731587D01*
X78625631Y86582035D01*
X78793717Y86440918D01*
X78949214Y86310258D01*
X79089717Y86192080D01*
X79212822Y86088407D01*
X79316125Y86001264D01*
X79397222Y85932673D01*
X79453708Y85884658D01*
X79483179Y85859244D01*
X79485856Y85856833D01*
X79538098Y85808466D01*
X77800438Y84356093D01*
X77574469Y84167259D01*
X77356738Y83985377D01*
X77149133Y83812024D01*
X76953547Y83648774D01*
X76771870Y83497205D01*
X76605994Y83358892D01*
X76457810Y83235411D01*
X76329208Y83128339D01*
X76222080Y83039252D01*
X76138318Y82969726D01*
X76079811Y82921336D01*
X76048452Y82895660D01*
X76043554Y82891838D01*
X76040093Y82909093D01*
X76036860Y82964982D01*
X76033863Y83059061D01*
X76031105Y83190888D01*
X76028592Y83360020D01*
X76026330Y83566015D01*
X76024323Y83808428D01*
X76022577Y84086818D01*
X76021096Y84400742D01*
X76019887Y84749757D01*
X76019358Y84948821D01*
X76017261Y85821094D01*
X76014384Y87017685D01*
X74949538Y86122829D01*
X74773718Y85975303D01*
X74606556Y85835481D01*
X74450463Y85705352D01*
X74307848Y85586905D01*
X74181124Y85482128D01*
X74072701Y85393012D01*
X73984989Y85321544D01*
X73920400Y85269715D01*
X73881345Y85239512D01*
X73870113Y85232256D01*
X73853617Y85247905D01*
X73816260Y85288980D01*
X73762115Y85350821D01*
X73695257Y85428768D01*
X73619759Y85518161D01*
X73610966Y85528656D01*
X73524034Y85633557D01*
X73460650Y85712866D01*
X73418330Y85770138D01*
X73394596Y85808930D01*
X73386965Y85832797D01*
X73391084Y85843819D01*
X73409649Y85859743D01*
X73455845Y85898794D01*
X73527341Y85959015D01*
X73621806Y86038447D01*
X73736908Y86135134D01*
X73870315Y86247118D01*
X74019696Y86372440D01*
X74182720Y86509144D01*
X74357054Y86655273D01*
X74540368Y86808867D01*
X74588077Y86848831D01*
X74773646Y87004317D01*
X74845972Y87064954D01*
X76825230Y87064954D01*
X76825230Y85821094D01*
X76825249Y85570167D01*
X76825362Y85355551D01*
X76825660Y85174479D01*
X76826229Y85024187D01*
X76827157Y84901908D01*
X76828533Y84804875D01*
X76830446Y84730324D01*
X76832982Y84675488D01*
X76836230Y84637601D01*
X76840278Y84613896D01*
X76845215Y84601609D01*
X76851128Y84597973D01*
X76858106Y84600222D01*
X76863994Y84604040D01*
X76886548Y84621734D01*
X76935931Y84661888D01*
X77008990Y84721897D01*
X77102575Y84799156D01*
X77213536Y84891059D01*
X77338722Y84995001D01*
X77474981Y85108377D01*
X77605284Y85217000D01*
X77747364Y85335743D01*
X77879833Y85446835D01*
X77999748Y85547783D01*
X78104166Y85636090D01*
X78190144Y85709260D01*
X78254739Y85764799D01*
X78295008Y85800209D01*
X78308051Y85812923D01*
X78293808Y85827798D01*
X78253903Y85863696D01*
X78192801Y85916754D01*
X78114964Y85983105D01*
X78024857Y86058885D01*
X78001491Y86078388D01*
X77899930Y86163153D01*
X77776650Y86266240D01*
X77639825Y86380800D01*
X77497630Y86499988D01*
X77358240Y86616955D01*
X77259961Y86699519D01*
X76825230Y87064954D01*
X74845972Y87064954D01*
X74951072Y87153069D01*
X75117995Y87293102D01*
X75272053Y87422433D01*
X75410885Y87539075D01*
X75532129Y87641044D01*
X75633425Y87726354D01*
X75712410Y87793020D01*
X75766723Y87839058D01*
X75794004Y87862481D01*
X75796280Y87864531D01*
X75801752Y87871443D01*
X75803134Y87880316D01*
X75798571Y87892806D01*
X75786210Y87910567D01*
X75764197Y87935254D01*
X75730677Y87968523D01*
X75683797Y88012028D01*
X75621703Y88067424D01*
X75542540Y88136367D01*
X75444455Y88220511D01*
X75325593Y88321511D01*
X75184101Y88441022D01*
X75018124Y88580700D01*
X74825809Y88742199D01*
X74614204Y88919708D01*
X74425666Y89077833D01*
X74245663Y89228819D01*
X74076457Y89370767D01*
X73920311Y89501777D01*
X73779486Y89619953D01*
X73656244Y89723394D01*
X73552847Y89810203D01*
X73471558Y89878482D01*
X73414638Y89926331D01*
X73384350Y89951852D01*
X73379973Y89955581D01*
X73387577Y89973362D01*
X73416205Y90015185D01*
X73461341Y90075515D01*
X73518467Y90148817D01*
X73583069Y90229558D01*
X73650631Y90312202D01*
X73716635Y90391215D01*
X73776568Y90461063D01*
X73825911Y90516210D01*
X73860151Y90551123D01*
X73873778Y90560770D01*
X73890668Y90548513D01*
X73935020Y90513081D01*
X74004416Y90456479D01*
X74096436Y90380713D01*
X74208661Y90287790D01*
X74338674Y90179715D01*
X74484054Y90058496D01*
X74642383Y89926137D01*
X74811242Y89784645D01*
X74945687Y89671770D01*
X75120863Y89524691D01*
X75287261Y89385211D01*
X75442473Y89255334D01*
X75584089Y89137064D01*
X75709701Y89032406D01*
X75816901Y88943365D01*
X75903279Y88871946D01*
X75966427Y88820154D01*
X76003937Y88789992D01*
X76013825Y88782770D01*
X76015254Y88801883D01*
X76016716Y88857521D01*
X76018192Y88947132D01*
X76019663Y89068164D01*
X76021111Y89218065D01*
X76022516Y89394283D01*
X76023861Y89594266D01*
X76025126Y89815462D01*
X76025906Y89975880D01*
X76026292Y90055319D01*
X76027340Y90311286D01*
X76028253Y90580810D01*
X76028949Y90835616D01*
X76029851Y91208068D01*
X76825230Y91208068D01*
X76825230Y89975880D01*
X76825387Y89760428D01*
X76825838Y89556953D01*
X76826556Y89368749D01*
X76827515Y89199111D01*
X76828687Y89051333D01*
X76830045Y88928708D01*
X76831562Y88834531D01*
X76833211Y88772094D01*
X76834964Y88744693D01*
X76835374Y88743693D01*
X76851960Y88755856D01*
X76895414Y88790676D01*
X76962706Y88845650D01*
X77050807Y88918273D01*
X77156685Y89006041D01*
X77277312Y89106449D01*
X77409656Y89216994D01*
X77524105Y89312868D01*
X77665805Y89431877D01*
X77799789Y89544703D01*
X77922760Y89648549D01*
X78031419Y89740616D01*
X78122471Y89818107D01*
X78192618Y89878224D01*
X78238562Y89918168D01*
X78255162Y89933214D01*
X78307633Y89984385D01*
X77740439Y90453308D01*
X77603922Y90566146D01*
X77469444Y90677252D01*
X77341775Y90782687D01*
X77225686Y90878512D01*
X77125948Y90960790D01*
X77047332Y91025582D01*
X76999238Y91065150D01*
X76825230Y91208068D01*
X76029851Y91208068D01*
X76033923Y92888461D01*
X77772846Y91449176D01*
G37*
D14*
G04 #@! TO.C,U2*
X29952950Y20472400D02*
X34194750Y20472400D01*
X34194750Y25755600D02*
X29952950Y25755600D01*
D13*
G04 #@! TO.C,J3*
X93785000Y9140000D02*
X93785000Y8340000D01*
X93785000Y8340000D02*
X93935000Y8340000D01*
X97865000Y16680000D02*
X96455000Y16680000D01*
X97865000Y7520000D02*
X96455000Y7520000D01*
D15*
G04 #@! TO.C,M4*
X28925000Y44925000D02*
X28925000Y38525000D01*
X28925000Y35325000D02*
X28925000Y36625000D01*
X28925000Y35325000D02*
X43925000Y35325000D01*
X43325000Y44925000D02*
X28925000Y44925000D01*
X43925000Y35325000D02*
X43925000Y40425000D01*
D13*
G04 #@! TO.C,R11*
X41131258Y72658500D02*
X40656742Y72658500D01*
X41131258Y71613500D02*
X40656742Y71613500D01*
G04 #@! TD*
M02*
