G04 #@! TF.GenerationSoftware,KiCad,Pcbnew,8.0.7-8.0.7-0~ubuntu24.04.1*
G04 #@! TF.CreationDate,2024-12-18T21:36:49+00:00*
G04 #@! TF.ProjectId,hellenbremen,68656c6c-656e-4627-9265-6d656e2e6b69,rev?*
G04 #@! TF.SameCoordinates,Original*
G04 #@! TF.FileFunction,Legend,Bot*
G04 #@! TF.FilePolarity,Positive*
%FSLAX46Y46*%
G04 Gerber Fmt 4.6, Leading zero omitted, Abs format (unit mm)*
G04 Created by KiCad (PCBNEW 8.0.7-8.0.7-0~ubuntu24.04.1) date 2024-12-18 21:36:49*
%MOMM*%
%LPD*%
G01*
G04 APERTURE LIST*
%ADD10C,0.100000*%
%ADD11C,0.150000*%
%ADD12C,0.254000*%
%ADD13C,0.200000*%
%ADD14C,0.120000*%
%ADD15C,0.102320*%
G04 APERTURE END LIST*
D10*
X14433414Y29568939D02*
X14090557Y29568939D01*
X14261985Y28968939D02*
X14261985Y29568939D01*
X13890556Y28968939D02*
X13890556Y29568939D01*
X13890556Y29568939D02*
X13661985Y29568939D01*
X13661985Y29568939D02*
X13604842Y29540368D01*
X13604842Y29540368D02*
X13576271Y29511796D01*
X13576271Y29511796D02*
X13547699Y29454653D01*
X13547699Y29454653D02*
X13547699Y29368939D01*
X13547699Y29368939D02*
X13576271Y29311796D01*
X13576271Y29311796D02*
X13604842Y29283225D01*
X13604842Y29283225D02*
X13661985Y29254653D01*
X13661985Y29254653D02*
X13890556Y29254653D01*
X13319128Y28997510D02*
X13233414Y28968939D01*
X13233414Y28968939D02*
X13090556Y28968939D01*
X13090556Y28968939D02*
X13033414Y28997510D01*
X13033414Y28997510D02*
X13004842Y29026082D01*
X13004842Y29026082D02*
X12976271Y29083225D01*
X12976271Y29083225D02*
X12976271Y29140368D01*
X12976271Y29140368D02*
X13004842Y29197510D01*
X13004842Y29197510D02*
X13033414Y29226082D01*
X13033414Y29226082D02*
X13090556Y29254653D01*
X13090556Y29254653D02*
X13204842Y29283225D01*
X13204842Y29283225D02*
X13261985Y29311796D01*
X13261985Y29311796D02*
X13290556Y29340368D01*
X13290556Y29340368D02*
X13319128Y29397510D01*
X13319128Y29397510D02*
X13319128Y29454653D01*
X13319128Y29454653D02*
X13290556Y29511796D01*
X13290556Y29511796D02*
X13261985Y29540368D01*
X13261985Y29540368D02*
X13204842Y29568939D01*
X13204842Y29568939D02*
X13061985Y29568939D01*
X13061985Y29568939D02*
X12976271Y29540368D01*
X12747699Y29511796D02*
X12719127Y29540368D01*
X12719127Y29540368D02*
X12661985Y29568939D01*
X12661985Y29568939D02*
X12519127Y29568939D01*
X12519127Y29568939D02*
X12461985Y29540368D01*
X12461985Y29540368D02*
X12433413Y29511796D01*
X12433413Y29511796D02*
X12404842Y29454653D01*
X12404842Y29454653D02*
X12404842Y29397510D01*
X12404842Y29397510D02*
X12433413Y29311796D01*
X12433413Y29311796D02*
X12776270Y28968939D01*
X12776270Y28968939D02*
X12404842Y28968939D01*
X14041353Y52283225D02*
X14241353Y52283225D01*
X14241353Y51968939D02*
X14241353Y52568939D01*
X14241353Y52568939D02*
X13955639Y52568939D01*
X13727067Y51968939D02*
X13727067Y52568939D01*
X13384210Y51968939D02*
X13641353Y52311796D01*
X13384210Y52568939D02*
X13727067Y52226082D01*
X13155639Y51997510D02*
X13069925Y51968939D01*
X13069925Y51968939D02*
X12927067Y51968939D01*
X12927067Y51968939D02*
X12869925Y51997510D01*
X12869925Y51997510D02*
X12841353Y52026082D01*
X12841353Y52026082D02*
X12812782Y52083225D01*
X12812782Y52083225D02*
X12812782Y52140368D01*
X12812782Y52140368D02*
X12841353Y52197510D01*
X12841353Y52197510D02*
X12869925Y52226082D01*
X12869925Y52226082D02*
X12927067Y52254653D01*
X12927067Y52254653D02*
X13041353Y52283225D01*
X13041353Y52283225D02*
X13098496Y52311796D01*
X13098496Y52311796D02*
X13127067Y52340368D01*
X13127067Y52340368D02*
X13155639Y52397510D01*
X13155639Y52397510D02*
X13155639Y52454653D01*
X13155639Y52454653D02*
X13127067Y52511796D01*
X13127067Y52511796D02*
X13098496Y52540368D01*
X13098496Y52540368D02*
X13041353Y52568939D01*
X13041353Y52568939D02*
X12898496Y52568939D01*
X12898496Y52568939D02*
X12812782Y52540368D01*
X12555638Y51968939D02*
X12555638Y52568939D01*
X12555638Y52283225D02*
X12212781Y52283225D01*
X12212781Y51968939D02*
X12212781Y52568939D01*
X6147699Y59283225D02*
X6347699Y59283225D01*
X6347699Y58968939D02*
X6347699Y59568939D01*
X6347699Y59568939D02*
X6061985Y59568939D01*
X5833413Y58968939D02*
X5833413Y59568939D01*
X5204842Y59026082D02*
X5233414Y58997510D01*
X5233414Y58997510D02*
X5319128Y58968939D01*
X5319128Y58968939D02*
X5376271Y58968939D01*
X5376271Y58968939D02*
X5461985Y58997510D01*
X5461985Y58997510D02*
X5519128Y59054653D01*
X5519128Y59054653D02*
X5547699Y59111796D01*
X5547699Y59111796D02*
X5576271Y59226082D01*
X5576271Y59226082D02*
X5576271Y59311796D01*
X5576271Y59311796D02*
X5547699Y59426082D01*
X5547699Y59426082D02*
X5519128Y59483225D01*
X5519128Y59483225D02*
X5461985Y59540368D01*
X5461985Y59540368D02*
X5376271Y59568939D01*
X5376271Y59568939D02*
X5319128Y59568939D01*
X5319128Y59568939D02*
X5233414Y59540368D01*
X5233414Y59540368D02*
X5204842Y59511796D01*
X4947699Y58968939D02*
X4947699Y59568939D01*
X4947699Y59568939D02*
X4747699Y59140368D01*
X4747699Y59140368D02*
X4547699Y59568939D01*
X4547699Y59568939D02*
X4547699Y58968939D01*
X4261985Y58968939D02*
X4261985Y59568939D01*
X4261985Y59568939D02*
X4033414Y59568939D01*
X4033414Y59568939D02*
X3976271Y59540368D01*
X3976271Y59540368D02*
X3947700Y59511796D01*
X3947700Y59511796D02*
X3919128Y59454653D01*
X3919128Y59454653D02*
X3919128Y59368939D01*
X3919128Y59368939D02*
X3947700Y59311796D01*
X3947700Y59311796D02*
X3976271Y59283225D01*
X3976271Y59283225D02*
X4033414Y59254653D01*
X4033414Y59254653D02*
X4261985Y59254653D01*
X3690557Y58997510D02*
X3604843Y58968939D01*
X3604843Y58968939D02*
X3461985Y58968939D01*
X3461985Y58968939D02*
X3404843Y58997510D01*
X3404843Y58997510D02*
X3376271Y59026082D01*
X3376271Y59026082D02*
X3347700Y59083225D01*
X3347700Y59083225D02*
X3347700Y59140368D01*
X3347700Y59140368D02*
X3376271Y59197510D01*
X3376271Y59197510D02*
X3404843Y59226082D01*
X3404843Y59226082D02*
X3461985Y59254653D01*
X3461985Y59254653D02*
X3576271Y59283225D01*
X3576271Y59283225D02*
X3633414Y59311796D01*
X3633414Y59311796D02*
X3661985Y59340368D01*
X3661985Y59340368D02*
X3690557Y59397510D01*
X3690557Y59397510D02*
X3690557Y59454653D01*
X3690557Y59454653D02*
X3661985Y59511796D01*
X3661985Y59511796D02*
X3633414Y59540368D01*
X3633414Y59540368D02*
X3576271Y59568939D01*
X3576271Y59568939D02*
X3433414Y59568939D01*
X3433414Y59568939D02*
X3347700Y59540368D01*
X14247699Y31668939D02*
X14247699Y32268939D01*
X14247699Y32268939D02*
X14019128Y32268939D01*
X14019128Y32268939D02*
X13961985Y32240368D01*
X13961985Y32240368D02*
X13933414Y32211796D01*
X13933414Y32211796D02*
X13904842Y32154653D01*
X13904842Y32154653D02*
X13904842Y32068939D01*
X13904842Y32068939D02*
X13933414Y32011796D01*
X13933414Y32011796D02*
X13961985Y31983225D01*
X13961985Y31983225D02*
X14019128Y31954653D01*
X14019128Y31954653D02*
X14247699Y31954653D01*
X13676271Y31697510D02*
X13590557Y31668939D01*
X13590557Y31668939D02*
X13447699Y31668939D01*
X13447699Y31668939D02*
X13390557Y31697510D01*
X13390557Y31697510D02*
X13361985Y31726082D01*
X13361985Y31726082D02*
X13333414Y31783225D01*
X13333414Y31783225D02*
X13333414Y31840368D01*
X13333414Y31840368D02*
X13361985Y31897510D01*
X13361985Y31897510D02*
X13390557Y31926082D01*
X13390557Y31926082D02*
X13447699Y31954653D01*
X13447699Y31954653D02*
X13561985Y31983225D01*
X13561985Y31983225D02*
X13619128Y32011796D01*
X13619128Y32011796D02*
X13647699Y32040368D01*
X13647699Y32040368D02*
X13676271Y32097510D01*
X13676271Y32097510D02*
X13676271Y32154653D01*
X13676271Y32154653D02*
X13647699Y32211796D01*
X13647699Y32211796D02*
X13619128Y32240368D01*
X13619128Y32240368D02*
X13561985Y32268939D01*
X13561985Y32268939D02*
X13419128Y32268939D01*
X13419128Y32268939D02*
X13333414Y32240368D01*
X13076270Y31668939D02*
X13076270Y32268939D01*
X13076270Y32268939D02*
X12847699Y32268939D01*
X12847699Y32268939D02*
X12790556Y32240368D01*
X12790556Y32240368D02*
X12761985Y32211796D01*
X12761985Y32211796D02*
X12733413Y32154653D01*
X12733413Y32154653D02*
X12733413Y32068939D01*
X12733413Y32068939D02*
X12761985Y32011796D01*
X12761985Y32011796D02*
X12790556Y31983225D01*
X12790556Y31983225D02*
X12847699Y31954653D01*
X12847699Y31954653D02*
X13076270Y31954653D01*
X12504842Y32211796D02*
X12476270Y32240368D01*
X12476270Y32240368D02*
X12419128Y32268939D01*
X12419128Y32268939D02*
X12276270Y32268939D01*
X12276270Y32268939D02*
X12219128Y32240368D01*
X12219128Y32240368D02*
X12190556Y32211796D01*
X12190556Y32211796D02*
X12161985Y32154653D01*
X12161985Y32154653D02*
X12161985Y32097510D01*
X12161985Y32097510D02*
X12190556Y32011796D01*
X12190556Y32011796D02*
X12533413Y31668939D01*
X12533413Y31668939D02*
X12161985Y31668939D01*
X12447699Y51383225D02*
X12247699Y51383225D01*
X12161985Y51068939D02*
X12447699Y51068939D01*
X12447699Y51068939D02*
X12447699Y51668939D01*
X12447699Y51668939D02*
X12161985Y51668939D01*
X11990557Y51668939D02*
X11647700Y51668939D01*
X11819128Y51068939D02*
X11819128Y51668939D01*
X11476271Y51097510D02*
X11390557Y51068939D01*
X11390557Y51068939D02*
X11247699Y51068939D01*
X11247699Y51068939D02*
X11190557Y51097510D01*
X11190557Y51097510D02*
X11161985Y51126082D01*
X11161985Y51126082D02*
X11133414Y51183225D01*
X11133414Y51183225D02*
X11133414Y51240368D01*
X11133414Y51240368D02*
X11161985Y51297510D01*
X11161985Y51297510D02*
X11190557Y51326082D01*
X11190557Y51326082D02*
X11247699Y51354653D01*
X11247699Y51354653D02*
X11361985Y51383225D01*
X11361985Y51383225D02*
X11419128Y51411796D01*
X11419128Y51411796D02*
X11447699Y51440368D01*
X11447699Y51440368D02*
X11476271Y51497510D01*
X11476271Y51497510D02*
X11476271Y51554653D01*
X11476271Y51554653D02*
X11447699Y51611796D01*
X11447699Y51611796D02*
X11419128Y51640368D01*
X11419128Y51640368D02*
X11361985Y51668939D01*
X11361985Y51668939D02*
X11219128Y51668939D01*
X11219128Y51668939D02*
X11133414Y51640368D01*
X22047699Y44083225D02*
X22247699Y44083225D01*
X22247699Y43768939D02*
X22247699Y44368939D01*
X22247699Y44368939D02*
X21961985Y44368939D01*
X21733413Y43768939D02*
X21733413Y44368939D01*
X21733413Y44083225D02*
X21390556Y44083225D01*
X21390556Y43768939D02*
X21390556Y44368939D01*
X20990557Y44368939D02*
X20876271Y44368939D01*
X20876271Y44368939D02*
X20819128Y44340368D01*
X20819128Y44340368D02*
X20761985Y44283225D01*
X20761985Y44283225D02*
X20733414Y44168939D01*
X20733414Y44168939D02*
X20733414Y43968939D01*
X20733414Y43968939D02*
X20761985Y43854653D01*
X20761985Y43854653D02*
X20819128Y43797510D01*
X20819128Y43797510D02*
X20876271Y43768939D01*
X20876271Y43768939D02*
X20990557Y43768939D01*
X20990557Y43768939D02*
X21047700Y43797510D01*
X21047700Y43797510D02*
X21104842Y43854653D01*
X21104842Y43854653D02*
X21133414Y43968939D01*
X21133414Y43968939D02*
X21133414Y44168939D01*
X21133414Y44168939D02*
X21104842Y44283225D01*
X21104842Y44283225D02*
X21047700Y44340368D01*
X21047700Y44340368D02*
X20990557Y44368939D01*
X20504843Y44311796D02*
X20476271Y44340368D01*
X20476271Y44340368D02*
X20419129Y44368939D01*
X20419129Y44368939D02*
X20276271Y44368939D01*
X20276271Y44368939D02*
X20219129Y44340368D01*
X20219129Y44340368D02*
X20190557Y44311796D01*
X20190557Y44311796D02*
X20161986Y44254653D01*
X20161986Y44254653D02*
X20161986Y44197510D01*
X20161986Y44197510D02*
X20190557Y44111796D01*
X20190557Y44111796D02*
X20533414Y43768939D01*
X20533414Y43768939D02*
X20161986Y43768939D01*
X19904842Y43768939D02*
X19904842Y44368939D01*
X19904842Y44083225D02*
X19561985Y44083225D01*
X19561985Y43768939D02*
X19561985Y44368939D01*
X18961986Y44340368D02*
X19019129Y44368939D01*
X19019129Y44368939D02*
X19104843Y44368939D01*
X19104843Y44368939D02*
X19190557Y44340368D01*
X19190557Y44340368D02*
X19247700Y44283225D01*
X19247700Y44283225D02*
X19276271Y44226082D01*
X19276271Y44226082D02*
X19304843Y44111796D01*
X19304843Y44111796D02*
X19304843Y44026082D01*
X19304843Y44026082D02*
X19276271Y43911796D01*
X19276271Y43911796D02*
X19247700Y43854653D01*
X19247700Y43854653D02*
X19190557Y43797510D01*
X19190557Y43797510D02*
X19104843Y43768939D01*
X19104843Y43768939D02*
X19047700Y43768939D01*
X19047700Y43768939D02*
X18961986Y43797510D01*
X18961986Y43797510D02*
X18933414Y43826082D01*
X18933414Y43826082D02*
X18933414Y44026082D01*
X18933414Y44026082D02*
X19047700Y44026082D01*
X6161985Y31668939D02*
X6447699Y31668939D01*
X6447699Y31668939D02*
X6476271Y31383225D01*
X6476271Y31383225D02*
X6447699Y31411796D01*
X6447699Y31411796D02*
X6390557Y31440368D01*
X6390557Y31440368D02*
X6247699Y31440368D01*
X6247699Y31440368D02*
X6190557Y31411796D01*
X6190557Y31411796D02*
X6161985Y31383225D01*
X6161985Y31383225D02*
X6133414Y31326082D01*
X6133414Y31326082D02*
X6133414Y31183225D01*
X6133414Y31183225D02*
X6161985Y31126082D01*
X6161985Y31126082D02*
X6190557Y31097510D01*
X6190557Y31097510D02*
X6247699Y31068939D01*
X6247699Y31068939D02*
X6390557Y31068939D01*
X6390557Y31068939D02*
X6447699Y31097510D01*
X6447699Y31097510D02*
X6476271Y31126082D01*
X5961985Y31668939D02*
X5761985Y31068939D01*
X5761985Y31068939D02*
X5561985Y31668939D01*
X5390556Y31097510D02*
X5304842Y31068939D01*
X5304842Y31068939D02*
X5161984Y31068939D01*
X5161984Y31068939D02*
X5104842Y31097510D01*
X5104842Y31097510D02*
X5076270Y31126082D01*
X5076270Y31126082D02*
X5047699Y31183225D01*
X5047699Y31183225D02*
X5047699Y31240368D01*
X5047699Y31240368D02*
X5076270Y31297510D01*
X5076270Y31297510D02*
X5104842Y31326082D01*
X5104842Y31326082D02*
X5161984Y31354653D01*
X5161984Y31354653D02*
X5276270Y31383225D01*
X5276270Y31383225D02*
X5333413Y31411796D01*
X5333413Y31411796D02*
X5361984Y31440368D01*
X5361984Y31440368D02*
X5390556Y31497510D01*
X5390556Y31497510D02*
X5390556Y31554653D01*
X5390556Y31554653D02*
X5361984Y31611796D01*
X5361984Y31611796D02*
X5333413Y31640368D01*
X5333413Y31640368D02*
X5276270Y31668939D01*
X5276270Y31668939D02*
X5133413Y31668939D01*
X5133413Y31668939D02*
X5047699Y31640368D01*
X4790555Y31068939D02*
X4790555Y31668939D01*
X4790555Y31668939D02*
X4561984Y31668939D01*
X4561984Y31668939D02*
X4504841Y31640368D01*
X4504841Y31640368D02*
X4476270Y31611796D01*
X4476270Y31611796D02*
X4447698Y31554653D01*
X4447698Y31554653D02*
X4447698Y31468939D01*
X4447698Y31468939D02*
X4476270Y31411796D01*
X4476270Y31411796D02*
X4504841Y31383225D01*
X4504841Y31383225D02*
X4561984Y31354653D01*
X4561984Y31354653D02*
X4790555Y31354653D01*
X4219127Y31611796D02*
X4190555Y31640368D01*
X4190555Y31640368D02*
X4133413Y31668939D01*
X4133413Y31668939D02*
X3990555Y31668939D01*
X3990555Y31668939D02*
X3933413Y31640368D01*
X3933413Y31640368D02*
X3904841Y31611796D01*
X3904841Y31611796D02*
X3876270Y31554653D01*
X3876270Y31554653D02*
X3876270Y31497510D01*
X3876270Y31497510D02*
X3904841Y31411796D01*
X3904841Y31411796D02*
X4247698Y31068939D01*
X4247698Y31068939D02*
X3876270Y31068939D01*
X19771370Y25985675D02*
X19971370Y26271389D01*
X20114227Y25985675D02*
X20114227Y26585675D01*
X20114227Y26585675D02*
X19885656Y26585675D01*
X19885656Y26585675D02*
X19828513Y26557104D01*
X19828513Y26557104D02*
X19799942Y26528532D01*
X19799942Y26528532D02*
X19771370Y26471389D01*
X19771370Y26471389D02*
X19771370Y26385675D01*
X19771370Y26385675D02*
X19799942Y26328532D01*
X19799942Y26328532D02*
X19828513Y26299961D01*
X19828513Y26299961D02*
X19885656Y26271389D01*
X19885656Y26271389D02*
X20114227Y26271389D01*
X19314227Y26299961D02*
X19514227Y26299961D01*
X19514227Y25985675D02*
X19514227Y26585675D01*
X19514227Y26585675D02*
X19228513Y26585675D01*
X18999941Y25985675D02*
X18999941Y26585675D01*
X14347699Y26728629D02*
X14347699Y27328629D01*
X14347699Y27042915D02*
X14004842Y27042915D01*
X14004842Y26728629D02*
X14004842Y27328629D01*
X13747700Y27271486D02*
X13719128Y27300058D01*
X13719128Y27300058D02*
X13661986Y27328629D01*
X13661986Y27328629D02*
X13519128Y27328629D01*
X13519128Y27328629D02*
X13461986Y27300058D01*
X13461986Y27300058D02*
X13433414Y27271486D01*
X13433414Y27271486D02*
X13404843Y27214343D01*
X13404843Y27214343D02*
X13404843Y27157200D01*
X13404843Y27157200D02*
X13433414Y27071486D01*
X13433414Y27071486D02*
X13776271Y26728629D01*
X13776271Y26728629D02*
X13404843Y26728629D01*
X13033414Y27328629D02*
X12919128Y27328629D01*
X12919128Y27328629D02*
X12861985Y27300058D01*
X12861985Y27300058D02*
X12804842Y27242915D01*
X12804842Y27242915D02*
X12776271Y27128629D01*
X12776271Y27128629D02*
X12776271Y26928629D01*
X12776271Y26928629D02*
X12804842Y26814343D01*
X12804842Y26814343D02*
X12861985Y26757200D01*
X12861985Y26757200D02*
X12919128Y26728629D01*
X12919128Y26728629D02*
X13033414Y26728629D01*
X13033414Y26728629D02*
X13090557Y26757200D01*
X13090557Y26757200D02*
X13147699Y26814343D01*
X13147699Y26814343D02*
X13176271Y26928629D01*
X13176271Y26928629D02*
X13176271Y27128629D01*
X13176271Y27128629D02*
X13147699Y27242915D01*
X13147699Y27242915D02*
X13090557Y27300058D01*
X13090557Y27300058D02*
X13033414Y27328629D01*
X12547700Y26757200D02*
X12461986Y26728629D01*
X12461986Y26728629D02*
X12319128Y26728629D01*
X12319128Y26728629D02*
X12261986Y26757200D01*
X12261986Y26757200D02*
X12233414Y26785772D01*
X12233414Y26785772D02*
X12204843Y26842915D01*
X12204843Y26842915D02*
X12204843Y26900058D01*
X12204843Y26900058D02*
X12233414Y26957200D01*
X12233414Y26957200D02*
X12261986Y26985772D01*
X12261986Y26985772D02*
X12319128Y27014343D01*
X12319128Y27014343D02*
X12433414Y27042915D01*
X12433414Y27042915D02*
X12490557Y27071486D01*
X12490557Y27071486D02*
X12519128Y27100058D01*
X12519128Y27100058D02*
X12547700Y27157200D01*
X12547700Y27157200D02*
X12547700Y27214343D01*
X12547700Y27214343D02*
X12519128Y27271486D01*
X12519128Y27271486D02*
X12490557Y27300058D01*
X12490557Y27300058D02*
X12433414Y27328629D01*
X12433414Y27328629D02*
X12290557Y27328629D01*
X12290557Y27328629D02*
X12204843Y27300058D01*
X11947699Y26728629D02*
X11947699Y27328629D01*
X11947699Y27328629D02*
X11719128Y27328629D01*
X11719128Y27328629D02*
X11661985Y27300058D01*
X11661985Y27300058D02*
X11633414Y27271486D01*
X11633414Y27271486D02*
X11604842Y27214343D01*
X11604842Y27214343D02*
X11604842Y27128629D01*
X11604842Y27128629D02*
X11633414Y27071486D01*
X11633414Y27071486D02*
X11661985Y27042915D01*
X11661985Y27042915D02*
X11719128Y27014343D01*
X11719128Y27014343D02*
X11947699Y27014343D01*
X11004842Y26785772D02*
X11033414Y26757200D01*
X11033414Y26757200D02*
X11119128Y26728629D01*
X11119128Y26728629D02*
X11176271Y26728629D01*
X11176271Y26728629D02*
X11261985Y26757200D01*
X11261985Y26757200D02*
X11319128Y26814343D01*
X11319128Y26814343D02*
X11347699Y26871486D01*
X11347699Y26871486D02*
X11376271Y26985772D01*
X11376271Y26985772D02*
X11376271Y27071486D01*
X11376271Y27071486D02*
X11347699Y27185772D01*
X11347699Y27185772D02*
X11319128Y27242915D01*
X11319128Y27242915D02*
X11261985Y27300058D01*
X11261985Y27300058D02*
X11176271Y27328629D01*
X11176271Y27328629D02*
X11119128Y27328629D01*
X11119128Y27328629D02*
X11033414Y27300058D01*
X11033414Y27300058D02*
X11004842Y27271486D01*
X13969925Y47428629D02*
X13969925Y47000058D01*
X13969925Y47000058D02*
X13998496Y46914343D01*
X13998496Y46914343D02*
X14055639Y46857200D01*
X14055639Y46857200D02*
X14141353Y46828629D01*
X14141353Y46828629D02*
X14198496Y46828629D01*
X13712782Y46857200D02*
X13627068Y46828629D01*
X13627068Y46828629D02*
X13484210Y46828629D01*
X13484210Y46828629D02*
X13427068Y46857200D01*
X13427068Y46857200D02*
X13398496Y46885772D01*
X13398496Y46885772D02*
X13369925Y46942915D01*
X13369925Y46942915D02*
X13369925Y47000058D01*
X13369925Y47000058D02*
X13398496Y47057200D01*
X13398496Y47057200D02*
X13427068Y47085772D01*
X13427068Y47085772D02*
X13484210Y47114343D01*
X13484210Y47114343D02*
X13598496Y47142915D01*
X13598496Y47142915D02*
X13655639Y47171486D01*
X13655639Y47171486D02*
X13684210Y47200058D01*
X13684210Y47200058D02*
X13712782Y47257200D01*
X13712782Y47257200D02*
X13712782Y47314343D01*
X13712782Y47314343D02*
X13684210Y47371486D01*
X13684210Y47371486D02*
X13655639Y47400058D01*
X13655639Y47400058D02*
X13598496Y47428629D01*
X13598496Y47428629D02*
X13455639Y47428629D01*
X13455639Y47428629D02*
X13369925Y47400058D01*
X13141353Y46857200D02*
X13055639Y46828629D01*
X13055639Y46828629D02*
X12912781Y46828629D01*
X12912781Y46828629D02*
X12855639Y46857200D01*
X12855639Y46857200D02*
X12827067Y46885772D01*
X12827067Y46885772D02*
X12798496Y46942915D01*
X12798496Y46942915D02*
X12798496Y47000058D01*
X12798496Y47000058D02*
X12827067Y47057200D01*
X12827067Y47057200D02*
X12855639Y47085772D01*
X12855639Y47085772D02*
X12912781Y47114343D01*
X12912781Y47114343D02*
X13027067Y47142915D01*
X13027067Y47142915D02*
X13084210Y47171486D01*
X13084210Y47171486D02*
X13112781Y47200058D01*
X13112781Y47200058D02*
X13141353Y47257200D01*
X13141353Y47257200D02*
X13141353Y47314343D01*
X13141353Y47314343D02*
X13112781Y47371486D01*
X13112781Y47371486D02*
X13084210Y47400058D01*
X13084210Y47400058D02*
X13027067Y47428629D01*
X13027067Y47428629D02*
X12884210Y47428629D01*
X12884210Y47428629D02*
X12798496Y47400058D01*
X6033414Y62040368D02*
X6090557Y62068939D01*
X6090557Y62068939D02*
X6176271Y62068939D01*
X6176271Y62068939D02*
X6261985Y62040368D01*
X6261985Y62040368D02*
X6319128Y61983225D01*
X6319128Y61983225D02*
X6347699Y61926082D01*
X6347699Y61926082D02*
X6376271Y61811796D01*
X6376271Y61811796D02*
X6376271Y61726082D01*
X6376271Y61726082D02*
X6347699Y61611796D01*
X6347699Y61611796D02*
X6319128Y61554653D01*
X6319128Y61554653D02*
X6261985Y61497510D01*
X6261985Y61497510D02*
X6176271Y61468939D01*
X6176271Y61468939D02*
X6119128Y61468939D01*
X6119128Y61468939D02*
X6033414Y61497510D01*
X6033414Y61497510D02*
X6004842Y61526082D01*
X6004842Y61526082D02*
X6004842Y61726082D01*
X6004842Y61726082D02*
X6119128Y61726082D01*
X5747699Y61783225D02*
X5547699Y61783225D01*
X5461985Y61468939D02*
X5747699Y61468939D01*
X5747699Y61468939D02*
X5747699Y62068939D01*
X5747699Y62068939D02*
X5461985Y62068939D01*
X5233414Y61640368D02*
X4947700Y61640368D01*
X5290557Y61468939D02*
X5090557Y62068939D01*
X5090557Y62068939D02*
X4890557Y61468939D01*
X4347699Y61468939D02*
X4547699Y61754653D01*
X4690556Y61468939D02*
X4690556Y62068939D01*
X4690556Y62068939D02*
X4461985Y62068939D01*
X4461985Y62068939D02*
X4404842Y62040368D01*
X4404842Y62040368D02*
X4376271Y62011796D01*
X4376271Y62011796D02*
X4347699Y61954653D01*
X4347699Y61954653D02*
X4347699Y61868939D01*
X4347699Y61868939D02*
X4376271Y61811796D01*
X4376271Y61811796D02*
X4404842Y61783225D01*
X4404842Y61783225D02*
X4461985Y61754653D01*
X4461985Y61754653D02*
X4690556Y61754653D01*
X4119128Y61497510D02*
X4033414Y61468939D01*
X4033414Y61468939D02*
X3890556Y61468939D01*
X3890556Y61468939D02*
X3833414Y61497510D01*
X3833414Y61497510D02*
X3804842Y61526082D01*
X3804842Y61526082D02*
X3776271Y61583225D01*
X3776271Y61583225D02*
X3776271Y61640368D01*
X3776271Y61640368D02*
X3804842Y61697510D01*
X3804842Y61697510D02*
X3833414Y61726082D01*
X3833414Y61726082D02*
X3890556Y61754653D01*
X3890556Y61754653D02*
X4004842Y61783225D01*
X4004842Y61783225D02*
X4061985Y61811796D01*
X4061985Y61811796D02*
X4090556Y61840368D01*
X4090556Y61840368D02*
X4119128Y61897510D01*
X4119128Y61897510D02*
X4119128Y61954653D01*
X4119128Y61954653D02*
X4090556Y62011796D01*
X4090556Y62011796D02*
X4061985Y62040368D01*
X4061985Y62040368D02*
X4004842Y62068939D01*
X4004842Y62068939D02*
X3861985Y62068939D01*
X3861985Y62068939D02*
X3776271Y62040368D01*
X6061985Y41768939D02*
X6347699Y41768939D01*
X6347699Y41768939D02*
X6376271Y41483225D01*
X6376271Y41483225D02*
X6347699Y41511796D01*
X6347699Y41511796D02*
X6290557Y41540368D01*
X6290557Y41540368D02*
X6147699Y41540368D01*
X6147699Y41540368D02*
X6090557Y41511796D01*
X6090557Y41511796D02*
X6061985Y41483225D01*
X6061985Y41483225D02*
X6033414Y41426082D01*
X6033414Y41426082D02*
X6033414Y41283225D01*
X6033414Y41283225D02*
X6061985Y41226082D01*
X6061985Y41226082D02*
X6090557Y41197510D01*
X6090557Y41197510D02*
X6147699Y41168939D01*
X6147699Y41168939D02*
X6290557Y41168939D01*
X6290557Y41168939D02*
X6347699Y41197510D01*
X6347699Y41197510D02*
X6376271Y41226082D01*
X5861985Y41768939D02*
X5661985Y41168939D01*
X5661985Y41168939D02*
X5461985Y41768939D01*
X5290556Y41197510D02*
X5204842Y41168939D01*
X5204842Y41168939D02*
X5061984Y41168939D01*
X5061984Y41168939D02*
X5004842Y41197510D01*
X5004842Y41197510D02*
X4976270Y41226082D01*
X4976270Y41226082D02*
X4947699Y41283225D01*
X4947699Y41283225D02*
X4947699Y41340368D01*
X4947699Y41340368D02*
X4976270Y41397510D01*
X4976270Y41397510D02*
X5004842Y41426082D01*
X5004842Y41426082D02*
X5061984Y41454653D01*
X5061984Y41454653D02*
X5176270Y41483225D01*
X5176270Y41483225D02*
X5233413Y41511796D01*
X5233413Y41511796D02*
X5261984Y41540368D01*
X5261984Y41540368D02*
X5290556Y41597510D01*
X5290556Y41597510D02*
X5290556Y41654653D01*
X5290556Y41654653D02*
X5261984Y41711796D01*
X5261984Y41711796D02*
X5233413Y41740368D01*
X5233413Y41740368D02*
X5176270Y41768939D01*
X5176270Y41768939D02*
X5033413Y41768939D01*
X5033413Y41768939D02*
X4947699Y41740368D01*
X4690555Y41168939D02*
X4690555Y41768939D01*
X4690555Y41768939D02*
X4461984Y41768939D01*
X4461984Y41768939D02*
X4404841Y41740368D01*
X4404841Y41740368D02*
X4376270Y41711796D01*
X4376270Y41711796D02*
X4347698Y41654653D01*
X4347698Y41654653D02*
X4347698Y41568939D01*
X4347698Y41568939D02*
X4376270Y41511796D01*
X4376270Y41511796D02*
X4404841Y41483225D01*
X4404841Y41483225D02*
X4461984Y41454653D01*
X4461984Y41454653D02*
X4690555Y41454653D01*
X3776270Y41168939D02*
X4119127Y41168939D01*
X3947698Y41168939D02*
X3947698Y41768939D01*
X3947698Y41768939D02*
X4004841Y41683225D01*
X4004841Y41683225D02*
X4061984Y41626082D01*
X4061984Y41626082D02*
X4119127Y41597510D01*
X21302492Y36231609D02*
X21331064Y36203037D01*
X21331064Y36203037D02*
X21416778Y36174466D01*
X21416778Y36174466D02*
X21473921Y36174466D01*
X21473921Y36174466D02*
X21559635Y36203037D01*
X21559635Y36203037D02*
X21616778Y36260180D01*
X21616778Y36260180D02*
X21645349Y36317323D01*
X21645349Y36317323D02*
X21673921Y36431609D01*
X21673921Y36431609D02*
X21673921Y36517323D01*
X21673921Y36517323D02*
X21645349Y36631609D01*
X21645349Y36631609D02*
X21616778Y36688752D01*
X21616778Y36688752D02*
X21559635Y36745895D01*
X21559635Y36745895D02*
X21473921Y36774466D01*
X21473921Y36774466D02*
X21416778Y36774466D01*
X21416778Y36774466D02*
X21331064Y36745895D01*
X21331064Y36745895D02*
X21302492Y36717323D01*
X21045349Y36174466D02*
X21045349Y36774466D01*
X20702492Y36174466D02*
X20959635Y36517323D01*
X20702492Y36774466D02*
X21045349Y36431609D01*
X20445349Y36174466D02*
X20445349Y36774466D01*
X20445349Y36774466D02*
X20216778Y36774466D01*
X20216778Y36774466D02*
X20159635Y36745895D01*
X20159635Y36745895D02*
X20131064Y36717323D01*
X20131064Y36717323D02*
X20102492Y36660180D01*
X20102492Y36660180D02*
X20102492Y36574466D01*
X20102492Y36574466D02*
X20131064Y36517323D01*
X20131064Y36517323D02*
X20159635Y36488752D01*
X20159635Y36488752D02*
X20216778Y36460180D01*
X20216778Y36460180D02*
X20445349Y36460180D01*
X19873921Y36203037D02*
X19788207Y36174466D01*
X19788207Y36174466D02*
X19645349Y36174466D01*
X19645349Y36174466D02*
X19588207Y36203037D01*
X19588207Y36203037D02*
X19559635Y36231609D01*
X19559635Y36231609D02*
X19531064Y36288752D01*
X19531064Y36288752D02*
X19531064Y36345895D01*
X19531064Y36345895D02*
X19559635Y36403037D01*
X19559635Y36403037D02*
X19588207Y36431609D01*
X19588207Y36431609D02*
X19645349Y36460180D01*
X19645349Y36460180D02*
X19759635Y36488752D01*
X19759635Y36488752D02*
X19816778Y36517323D01*
X19816778Y36517323D02*
X19845349Y36545895D01*
X19845349Y36545895D02*
X19873921Y36603037D01*
X19873921Y36603037D02*
X19873921Y36660180D01*
X19873921Y36660180D02*
X19845349Y36717323D01*
X19845349Y36717323D02*
X19816778Y36745895D01*
X19816778Y36745895D02*
X19759635Y36774466D01*
X19759635Y36774466D02*
X19616778Y36774466D01*
X19616778Y36774466D02*
X19531064Y36745895D01*
X18988206Y36174466D02*
X19273920Y36174466D01*
X19273920Y36174466D02*
X19273920Y36774466D01*
X6376271Y43904409D02*
X6090557Y43904409D01*
X6433414Y43732980D02*
X6233414Y44332980D01*
X6233414Y44332980D02*
X6033414Y43732980D01*
X5861985Y43904409D02*
X5576271Y43904409D01*
X5919128Y43732980D02*
X5719128Y44332980D01*
X5719128Y44332980D02*
X5519128Y43732980D01*
X5404842Y44332980D02*
X5061985Y44332980D01*
X5233413Y43732980D02*
X5233413Y44332980D01*
X14327068Y64746384D02*
X13984211Y64746384D01*
X14155639Y64146384D02*
X14155639Y64746384D01*
X13469925Y64717813D02*
X13527068Y64746384D01*
X13527068Y64746384D02*
X13612782Y64746384D01*
X13612782Y64746384D02*
X13698496Y64717813D01*
X13698496Y64717813D02*
X13755639Y64660670D01*
X13755639Y64660670D02*
X13784210Y64603527D01*
X13784210Y64603527D02*
X13812782Y64489241D01*
X13812782Y64489241D02*
X13812782Y64403527D01*
X13812782Y64403527D02*
X13784210Y64289241D01*
X13784210Y64289241D02*
X13755639Y64232098D01*
X13755639Y64232098D02*
X13698496Y64174955D01*
X13698496Y64174955D02*
X13612782Y64146384D01*
X13612782Y64146384D02*
X13555639Y64146384D01*
X13555639Y64146384D02*
X13469925Y64174955D01*
X13469925Y64174955D02*
X13441353Y64203527D01*
X13441353Y64203527D02*
X13441353Y64403527D01*
X13441353Y64403527D02*
X13555639Y64403527D01*
X13212782Y64174955D02*
X13127068Y64146384D01*
X13127068Y64146384D02*
X12984210Y64146384D01*
X12984210Y64146384D02*
X12927068Y64174955D01*
X12927068Y64174955D02*
X12898496Y64203527D01*
X12898496Y64203527D02*
X12869925Y64260670D01*
X12869925Y64260670D02*
X12869925Y64317813D01*
X12869925Y64317813D02*
X12898496Y64374955D01*
X12898496Y64374955D02*
X12927068Y64403527D01*
X12927068Y64403527D02*
X12984210Y64432098D01*
X12984210Y64432098D02*
X13098496Y64460670D01*
X13098496Y64460670D02*
X13155639Y64489241D01*
X13155639Y64489241D02*
X13184210Y64517813D01*
X13184210Y64517813D02*
X13212782Y64574955D01*
X13212782Y64574955D02*
X13212782Y64632098D01*
X13212782Y64632098D02*
X13184210Y64689241D01*
X13184210Y64689241D02*
X13155639Y64717813D01*
X13155639Y64717813D02*
X13098496Y64746384D01*
X13098496Y64746384D02*
X12955639Y64746384D01*
X12955639Y64746384D02*
X12869925Y64717813D01*
X12298496Y64146384D02*
X12641353Y64146384D01*
X12469924Y64146384D02*
X12469924Y64746384D01*
X12469924Y64746384D02*
X12527067Y64660670D01*
X12527067Y64660670D02*
X12584210Y64603527D01*
X12584210Y64603527D02*
X12641353Y64574955D01*
X6447699Y66568939D02*
X6447699Y67168939D01*
X6447699Y67168939D02*
X6219128Y67168939D01*
X6219128Y67168939D02*
X6161985Y67140368D01*
X6161985Y67140368D02*
X6133414Y67111796D01*
X6133414Y67111796D02*
X6104842Y67054653D01*
X6104842Y67054653D02*
X6104842Y66968939D01*
X6104842Y66968939D02*
X6133414Y66911796D01*
X6133414Y66911796D02*
X6161985Y66883225D01*
X6161985Y66883225D02*
X6219128Y66854653D01*
X6219128Y66854653D02*
X6447699Y66854653D01*
X5504842Y66626082D02*
X5533414Y66597510D01*
X5533414Y66597510D02*
X5619128Y66568939D01*
X5619128Y66568939D02*
X5676271Y66568939D01*
X5676271Y66568939D02*
X5761985Y66597510D01*
X5761985Y66597510D02*
X5819128Y66654653D01*
X5819128Y66654653D02*
X5847699Y66711796D01*
X5847699Y66711796D02*
X5876271Y66826082D01*
X5876271Y66826082D02*
X5876271Y66911796D01*
X5876271Y66911796D02*
X5847699Y67026082D01*
X5847699Y67026082D02*
X5819128Y67083225D01*
X5819128Y67083225D02*
X5761985Y67140368D01*
X5761985Y67140368D02*
X5676271Y67168939D01*
X5676271Y67168939D02*
X5619128Y67168939D01*
X5619128Y67168939D02*
X5533414Y67140368D01*
X5533414Y67140368D02*
X5504842Y67111796D01*
X5247699Y66568939D02*
X5247699Y67168939D01*
X5247699Y66883225D02*
X4904842Y66883225D01*
X4904842Y66568939D02*
X4904842Y67168939D01*
X4504843Y67168939D02*
X4390557Y67168939D01*
X4390557Y67168939D02*
X4333414Y67140368D01*
X4333414Y67140368D02*
X4276271Y67083225D01*
X4276271Y67083225D02*
X4247700Y66968939D01*
X4247700Y66968939D02*
X4247700Y66768939D01*
X4247700Y66768939D02*
X4276271Y66654653D01*
X4276271Y66654653D02*
X4333414Y66597510D01*
X4333414Y66597510D02*
X4390557Y66568939D01*
X4390557Y66568939D02*
X4504843Y66568939D01*
X4504843Y66568939D02*
X4561986Y66597510D01*
X4561986Y66597510D02*
X4619128Y66654653D01*
X4619128Y66654653D02*
X4647700Y66768939D01*
X4647700Y66768939D02*
X4647700Y66968939D01*
X4647700Y66968939D02*
X4619128Y67083225D01*
X4619128Y67083225D02*
X4561986Y67140368D01*
X4561986Y67140368D02*
X4504843Y67168939D01*
X4019129Y67111796D02*
X3990557Y67140368D01*
X3990557Y67140368D02*
X3933415Y67168939D01*
X3933415Y67168939D02*
X3790557Y67168939D01*
X3790557Y67168939D02*
X3733415Y67140368D01*
X3733415Y67140368D02*
X3704843Y67111796D01*
X3704843Y67111796D02*
X3676272Y67054653D01*
X3676272Y67054653D02*
X3676272Y66997510D01*
X3676272Y66997510D02*
X3704843Y66911796D01*
X3704843Y66911796D02*
X4047700Y66568939D01*
X4047700Y66568939D02*
X3676272Y66568939D01*
X3447700Y66597510D02*
X3361986Y66568939D01*
X3361986Y66568939D02*
X3219128Y66568939D01*
X3219128Y66568939D02*
X3161986Y66597510D01*
X3161986Y66597510D02*
X3133414Y66626082D01*
X3133414Y66626082D02*
X3104843Y66683225D01*
X3104843Y66683225D02*
X3104843Y66740368D01*
X3104843Y66740368D02*
X3133414Y66797510D01*
X3133414Y66797510D02*
X3161986Y66826082D01*
X3161986Y66826082D02*
X3219128Y66854653D01*
X3219128Y66854653D02*
X3333414Y66883225D01*
X3333414Y66883225D02*
X3390557Y66911796D01*
X3390557Y66911796D02*
X3419128Y66940368D01*
X3419128Y66940368D02*
X3447700Y66997510D01*
X3447700Y66997510D02*
X3447700Y67054653D01*
X3447700Y67054653D02*
X3419128Y67111796D01*
X3419128Y67111796D02*
X3390557Y67140368D01*
X3390557Y67140368D02*
X3333414Y67168939D01*
X3333414Y67168939D02*
X3190557Y67168939D01*
X3190557Y67168939D02*
X3104843Y67140368D01*
X2847699Y66568939D02*
X2847699Y67168939D01*
X2847699Y66883225D02*
X2504842Y66883225D01*
X2504842Y66568939D02*
X2504842Y67168939D01*
X6447699Y28468939D02*
X6447699Y29068939D01*
X6447699Y29068939D02*
X6219128Y29068939D01*
X6219128Y29068939D02*
X6161985Y29040368D01*
X6161985Y29040368D02*
X6133414Y29011796D01*
X6133414Y29011796D02*
X6104842Y28954653D01*
X6104842Y28954653D02*
X6104842Y28868939D01*
X6104842Y28868939D02*
X6133414Y28811796D01*
X6133414Y28811796D02*
X6161985Y28783225D01*
X6161985Y28783225D02*
X6219128Y28754653D01*
X6219128Y28754653D02*
X6447699Y28754653D01*
X5504842Y28526082D02*
X5533414Y28497510D01*
X5533414Y28497510D02*
X5619128Y28468939D01*
X5619128Y28468939D02*
X5676271Y28468939D01*
X5676271Y28468939D02*
X5761985Y28497510D01*
X5761985Y28497510D02*
X5819128Y28554653D01*
X5819128Y28554653D02*
X5847699Y28611796D01*
X5847699Y28611796D02*
X5876271Y28726082D01*
X5876271Y28726082D02*
X5876271Y28811796D01*
X5876271Y28811796D02*
X5847699Y28926082D01*
X5847699Y28926082D02*
X5819128Y28983225D01*
X5819128Y28983225D02*
X5761985Y29040368D01*
X5761985Y29040368D02*
X5676271Y29068939D01*
X5676271Y29068939D02*
X5619128Y29068939D01*
X5619128Y29068939D02*
X5533414Y29040368D01*
X5533414Y29040368D02*
X5504842Y29011796D01*
X5247699Y28468939D02*
X5247699Y29068939D01*
X5247699Y28783225D02*
X4904842Y28783225D01*
X4904842Y28468939D02*
X4904842Y29068939D01*
X4504843Y29068939D02*
X4390557Y29068939D01*
X4390557Y29068939D02*
X4333414Y29040368D01*
X4333414Y29040368D02*
X4276271Y28983225D01*
X4276271Y28983225D02*
X4247700Y28868939D01*
X4247700Y28868939D02*
X4247700Y28668939D01*
X4247700Y28668939D02*
X4276271Y28554653D01*
X4276271Y28554653D02*
X4333414Y28497510D01*
X4333414Y28497510D02*
X4390557Y28468939D01*
X4390557Y28468939D02*
X4504843Y28468939D01*
X4504843Y28468939D02*
X4561986Y28497510D01*
X4561986Y28497510D02*
X4619128Y28554653D01*
X4619128Y28554653D02*
X4647700Y28668939D01*
X4647700Y28668939D02*
X4647700Y28868939D01*
X4647700Y28868939D02*
X4619128Y28983225D01*
X4619128Y28983225D02*
X4561986Y29040368D01*
X4561986Y29040368D02*
X4504843Y29068939D01*
X4019129Y29011796D02*
X3990557Y29040368D01*
X3990557Y29040368D02*
X3933415Y29068939D01*
X3933415Y29068939D02*
X3790557Y29068939D01*
X3790557Y29068939D02*
X3733415Y29040368D01*
X3733415Y29040368D02*
X3704843Y29011796D01*
X3704843Y29011796D02*
X3676272Y28954653D01*
X3676272Y28954653D02*
X3676272Y28897510D01*
X3676272Y28897510D02*
X3704843Y28811796D01*
X3704843Y28811796D02*
X4047700Y28468939D01*
X4047700Y28468939D02*
X3676272Y28468939D01*
X3447700Y28497510D02*
X3361986Y28468939D01*
X3361986Y28468939D02*
X3219128Y28468939D01*
X3219128Y28468939D02*
X3161986Y28497510D01*
X3161986Y28497510D02*
X3133414Y28526082D01*
X3133414Y28526082D02*
X3104843Y28583225D01*
X3104843Y28583225D02*
X3104843Y28640368D01*
X3104843Y28640368D02*
X3133414Y28697510D01*
X3133414Y28697510D02*
X3161986Y28726082D01*
X3161986Y28726082D02*
X3219128Y28754653D01*
X3219128Y28754653D02*
X3333414Y28783225D01*
X3333414Y28783225D02*
X3390557Y28811796D01*
X3390557Y28811796D02*
X3419128Y28840368D01*
X3419128Y28840368D02*
X3447700Y28897510D01*
X3447700Y28897510D02*
X3447700Y28954653D01*
X3447700Y28954653D02*
X3419128Y29011796D01*
X3419128Y29011796D02*
X3390557Y29040368D01*
X3390557Y29040368D02*
X3333414Y29068939D01*
X3333414Y29068939D02*
X3190557Y29068939D01*
X3190557Y29068939D02*
X3104843Y29040368D01*
X2533414Y29040368D02*
X2590557Y29068939D01*
X2590557Y29068939D02*
X2676271Y29068939D01*
X2676271Y29068939D02*
X2761985Y29040368D01*
X2761985Y29040368D02*
X2819128Y28983225D01*
X2819128Y28983225D02*
X2847699Y28926082D01*
X2847699Y28926082D02*
X2876271Y28811796D01*
X2876271Y28811796D02*
X2876271Y28726082D01*
X2876271Y28726082D02*
X2847699Y28611796D01*
X2847699Y28611796D02*
X2819128Y28554653D01*
X2819128Y28554653D02*
X2761985Y28497510D01*
X2761985Y28497510D02*
X2676271Y28468939D01*
X2676271Y28468939D02*
X2619128Y28468939D01*
X2619128Y28468939D02*
X2533414Y28497510D01*
X2533414Y28497510D02*
X2504842Y28526082D01*
X2504842Y28526082D02*
X2504842Y28726082D01*
X2504842Y28726082D02*
X2619128Y28726082D01*
X20838912Y59323179D02*
X20638912Y59323179D01*
X20553198Y59008893D02*
X20838912Y59008893D01*
X20838912Y59008893D02*
X20838912Y59608893D01*
X20838912Y59608893D02*
X20553198Y59608893D01*
X20381770Y59608893D02*
X20038913Y59608893D01*
X20210341Y59008893D02*
X20210341Y59608893D01*
X19496055Y59066036D02*
X19524627Y59037464D01*
X19524627Y59037464D02*
X19610341Y59008893D01*
X19610341Y59008893D02*
X19667484Y59008893D01*
X19667484Y59008893D02*
X19753198Y59037464D01*
X19753198Y59037464D02*
X19810341Y59094607D01*
X19810341Y59094607D02*
X19838912Y59151750D01*
X19838912Y59151750D02*
X19867484Y59266036D01*
X19867484Y59266036D02*
X19867484Y59351750D01*
X19867484Y59351750D02*
X19838912Y59466036D01*
X19838912Y59466036D02*
X19810341Y59523179D01*
X19810341Y59523179D02*
X19753198Y59580322D01*
X19753198Y59580322D02*
X19667484Y59608893D01*
X19667484Y59608893D02*
X19610341Y59608893D01*
X19610341Y59608893D02*
X19524627Y59580322D01*
X19524627Y59580322D02*
X19496055Y59551750D01*
X18953198Y59008893D02*
X19238912Y59008893D01*
X19238912Y59008893D02*
X19238912Y59608893D01*
X14024641Y54267510D02*
X14224641Y54267510D01*
X14224641Y53953224D02*
X14224641Y54553224D01*
X14224641Y54553224D02*
X13938927Y54553224D01*
X13710355Y53953224D02*
X13710355Y54553224D01*
X13367498Y53953224D02*
X13624641Y54296081D01*
X13367498Y54553224D02*
X13710355Y54210367D01*
X13138927Y53981795D02*
X13053213Y53953224D01*
X13053213Y53953224D02*
X12910355Y53953224D01*
X12910355Y53953224D02*
X12853213Y53981795D01*
X12853213Y53981795D02*
X12824641Y54010367D01*
X12824641Y54010367D02*
X12796070Y54067510D01*
X12796070Y54067510D02*
X12796070Y54124653D01*
X12796070Y54124653D02*
X12824641Y54181795D01*
X12824641Y54181795D02*
X12853213Y54210367D01*
X12853213Y54210367D02*
X12910355Y54238938D01*
X12910355Y54238938D02*
X13024641Y54267510D01*
X13024641Y54267510D02*
X13081784Y54296081D01*
X13081784Y54296081D02*
X13110355Y54324653D01*
X13110355Y54324653D02*
X13138927Y54381795D01*
X13138927Y54381795D02*
X13138927Y54438938D01*
X13138927Y54438938D02*
X13110355Y54496081D01*
X13110355Y54496081D02*
X13081784Y54524653D01*
X13081784Y54524653D02*
X13024641Y54553224D01*
X13024641Y54553224D02*
X12881784Y54553224D01*
X12881784Y54553224D02*
X12796070Y54524653D01*
X12253212Y53953224D02*
X12538926Y53953224D01*
X12538926Y53953224D02*
X12538926Y54553224D01*
X12804842Y23126082D02*
X12833414Y23097510D01*
X12833414Y23097510D02*
X12919128Y23068939D01*
X12919128Y23068939D02*
X12976271Y23068939D01*
X12976271Y23068939D02*
X13061985Y23097510D01*
X13061985Y23097510D02*
X13119128Y23154653D01*
X13119128Y23154653D02*
X13147699Y23211796D01*
X13147699Y23211796D02*
X13176271Y23326082D01*
X13176271Y23326082D02*
X13176271Y23411796D01*
X13176271Y23411796D02*
X13147699Y23526082D01*
X13147699Y23526082D02*
X13119128Y23583225D01*
X13119128Y23583225D02*
X13061985Y23640368D01*
X13061985Y23640368D02*
X12976271Y23668939D01*
X12976271Y23668939D02*
X12919128Y23668939D01*
X12919128Y23668939D02*
X12833414Y23640368D01*
X12833414Y23640368D02*
X12804842Y23611796D01*
X12204842Y23126082D02*
X12233414Y23097510D01*
X12233414Y23097510D02*
X12319128Y23068939D01*
X12319128Y23068939D02*
X12376271Y23068939D01*
X12376271Y23068939D02*
X12461985Y23097510D01*
X12461985Y23097510D02*
X12519128Y23154653D01*
X12519128Y23154653D02*
X12547699Y23211796D01*
X12547699Y23211796D02*
X12576271Y23326082D01*
X12576271Y23326082D02*
X12576271Y23411796D01*
X12576271Y23411796D02*
X12547699Y23526082D01*
X12547699Y23526082D02*
X12519128Y23583225D01*
X12519128Y23583225D02*
X12461985Y23640368D01*
X12461985Y23640368D02*
X12376271Y23668939D01*
X12376271Y23668939D02*
X12319128Y23668939D01*
X12319128Y23668939D02*
X12233414Y23640368D01*
X12233414Y23640368D02*
X12204842Y23611796D01*
X11747699Y23383225D02*
X11947699Y23383225D01*
X11947699Y23068939D02*
X11947699Y23668939D01*
X11947699Y23668939D02*
X11661985Y23668939D01*
X11090556Y23126082D02*
X11119128Y23097510D01*
X11119128Y23097510D02*
X11204842Y23068939D01*
X11204842Y23068939D02*
X11261985Y23068939D01*
X11261985Y23068939D02*
X11347699Y23097510D01*
X11347699Y23097510D02*
X11404842Y23154653D01*
X11404842Y23154653D02*
X11433413Y23211796D01*
X11433413Y23211796D02*
X11461985Y23326082D01*
X11461985Y23326082D02*
X11461985Y23411796D01*
X11461985Y23411796D02*
X11433413Y23526082D01*
X11433413Y23526082D02*
X11404842Y23583225D01*
X11404842Y23583225D02*
X11347699Y23640368D01*
X11347699Y23640368D02*
X11261985Y23668939D01*
X11261985Y23668939D02*
X11204842Y23668939D01*
X11204842Y23668939D02*
X11119128Y23640368D01*
X11119128Y23640368D02*
X11090556Y23611796D01*
X13904842Y25368939D02*
X14104842Y25654653D01*
X14247699Y25368939D02*
X14247699Y25968939D01*
X14247699Y25968939D02*
X14019128Y25968939D01*
X14019128Y25968939D02*
X13961985Y25940368D01*
X13961985Y25940368D02*
X13933414Y25911796D01*
X13933414Y25911796D02*
X13904842Y25854653D01*
X13904842Y25854653D02*
X13904842Y25768939D01*
X13904842Y25768939D02*
X13933414Y25711796D01*
X13933414Y25711796D02*
X13961985Y25683225D01*
X13961985Y25683225D02*
X14019128Y25654653D01*
X14019128Y25654653D02*
X14247699Y25654653D01*
X13790557Y25311796D02*
X13333414Y25311796D01*
X13190556Y25368939D02*
X13190556Y25968939D01*
X12847699Y25368939D02*
X13104842Y25711796D01*
X12847699Y25968939D02*
X13190556Y25626082D01*
X12590556Y25368939D02*
X12590556Y25968939D01*
X12590556Y25968939D02*
X12247699Y25368939D01*
X12247699Y25368939D02*
X12247699Y25968939D01*
X11961985Y25368939D02*
X11961985Y25968939D01*
X11619128Y25368939D02*
X11876271Y25711796D01*
X11619128Y25968939D02*
X11961985Y25626082D01*
X11361985Y25368939D02*
X11361985Y25968939D01*
X11361985Y25683225D02*
X11019128Y25683225D01*
X11019128Y25368939D02*
X11019128Y25968939D01*
X13942600Y59100569D02*
X13971172Y59071997D01*
X13971172Y59071997D02*
X14056886Y59043426D01*
X14056886Y59043426D02*
X14114029Y59043426D01*
X14114029Y59043426D02*
X14199743Y59071997D01*
X14199743Y59071997D02*
X14256886Y59129140D01*
X14256886Y59129140D02*
X14285457Y59186283D01*
X14285457Y59186283D02*
X14314029Y59300569D01*
X14314029Y59300569D02*
X14314029Y59386283D01*
X14314029Y59386283D02*
X14285457Y59500569D01*
X14285457Y59500569D02*
X14256886Y59557712D01*
X14256886Y59557712D02*
X14199743Y59614855D01*
X14199743Y59614855D02*
X14114029Y59643426D01*
X14114029Y59643426D02*
X14056886Y59643426D01*
X14056886Y59643426D02*
X13971172Y59614855D01*
X13971172Y59614855D02*
X13942600Y59586283D01*
X13714029Y59214855D02*
X13428315Y59214855D01*
X13771172Y59043426D02*
X13571172Y59643426D01*
X13571172Y59643426D02*
X13371172Y59043426D01*
X13171171Y59043426D02*
X13171171Y59643426D01*
X13171171Y59643426D02*
X12828314Y59043426D01*
X12828314Y59043426D02*
X12828314Y59643426D01*
X12542600Y59043426D02*
X12542600Y59643426D01*
X12542600Y59357712D02*
X12199743Y59357712D01*
X12199743Y59043426D02*
X12199743Y59643426D01*
X13747699Y33168939D02*
X13747699Y33768939D01*
X13747699Y33483225D02*
X13404842Y33483225D01*
X13404842Y33168939D02*
X13404842Y33768939D01*
X13147700Y33711796D02*
X13119128Y33740368D01*
X13119128Y33740368D02*
X13061986Y33768939D01*
X13061986Y33768939D02*
X12919128Y33768939D01*
X12919128Y33768939D02*
X12861986Y33740368D01*
X12861986Y33740368D02*
X12833414Y33711796D01*
X12833414Y33711796D02*
X12804843Y33654653D01*
X12804843Y33654653D02*
X12804843Y33597510D01*
X12804843Y33597510D02*
X12833414Y33511796D01*
X12833414Y33511796D02*
X13176271Y33168939D01*
X13176271Y33168939D02*
X12804843Y33168939D01*
X12433414Y33768939D02*
X12319128Y33768939D01*
X12319128Y33768939D02*
X12261985Y33740368D01*
X12261985Y33740368D02*
X12204842Y33683225D01*
X12204842Y33683225D02*
X12176271Y33568939D01*
X12176271Y33568939D02*
X12176271Y33368939D01*
X12176271Y33368939D02*
X12204842Y33254653D01*
X12204842Y33254653D02*
X12261985Y33197510D01*
X12261985Y33197510D02*
X12319128Y33168939D01*
X12319128Y33168939D02*
X12433414Y33168939D01*
X12433414Y33168939D02*
X12490557Y33197510D01*
X12490557Y33197510D02*
X12547699Y33254653D01*
X12547699Y33254653D02*
X12576271Y33368939D01*
X12576271Y33368939D02*
X12576271Y33568939D01*
X12576271Y33568939D02*
X12547699Y33683225D01*
X12547699Y33683225D02*
X12490557Y33740368D01*
X12490557Y33740368D02*
X12433414Y33768939D01*
X11947700Y33197510D02*
X11861986Y33168939D01*
X11861986Y33168939D02*
X11719128Y33168939D01*
X11719128Y33168939D02*
X11661986Y33197510D01*
X11661986Y33197510D02*
X11633414Y33226082D01*
X11633414Y33226082D02*
X11604843Y33283225D01*
X11604843Y33283225D02*
X11604843Y33340368D01*
X11604843Y33340368D02*
X11633414Y33397510D01*
X11633414Y33397510D02*
X11661986Y33426082D01*
X11661986Y33426082D02*
X11719128Y33454653D01*
X11719128Y33454653D02*
X11833414Y33483225D01*
X11833414Y33483225D02*
X11890557Y33511796D01*
X11890557Y33511796D02*
X11919128Y33540368D01*
X11919128Y33540368D02*
X11947700Y33597510D01*
X11947700Y33597510D02*
X11947700Y33654653D01*
X11947700Y33654653D02*
X11919128Y33711796D01*
X11919128Y33711796D02*
X11890557Y33740368D01*
X11890557Y33740368D02*
X11833414Y33768939D01*
X11833414Y33768939D02*
X11690557Y33768939D01*
X11690557Y33768939D02*
X11604843Y33740368D01*
X11376271Y33711796D02*
X11347699Y33740368D01*
X11347699Y33740368D02*
X11290557Y33768939D01*
X11290557Y33768939D02*
X11147699Y33768939D01*
X11147699Y33768939D02*
X11090557Y33740368D01*
X11090557Y33740368D02*
X11061985Y33711796D01*
X11061985Y33711796D02*
X11033414Y33654653D01*
X11033414Y33654653D02*
X11033414Y33597510D01*
X11033414Y33597510D02*
X11061985Y33511796D01*
X11061985Y33511796D02*
X11404842Y33168939D01*
X11404842Y33168939D02*
X11033414Y33168939D01*
X13877330Y56541972D02*
X13905902Y56513400D01*
X13905902Y56513400D02*
X13991616Y56484829D01*
X13991616Y56484829D02*
X14048759Y56484829D01*
X14048759Y56484829D02*
X14134473Y56513400D01*
X14134473Y56513400D02*
X14191616Y56570543D01*
X14191616Y56570543D02*
X14220187Y56627686D01*
X14220187Y56627686D02*
X14248759Y56741972D01*
X14248759Y56741972D02*
X14248759Y56827686D01*
X14248759Y56827686D02*
X14220187Y56941972D01*
X14220187Y56941972D02*
X14191616Y56999115D01*
X14191616Y56999115D02*
X14134473Y57056258D01*
X14134473Y57056258D02*
X14048759Y57084829D01*
X14048759Y57084829D02*
X13991616Y57084829D01*
X13991616Y57084829D02*
X13905902Y57056258D01*
X13905902Y57056258D02*
X13877330Y57027686D01*
X13648759Y56656258D02*
X13363045Y56656258D01*
X13705902Y56484829D02*
X13505902Y57084829D01*
X13505902Y57084829D02*
X13305902Y56484829D01*
X13105901Y56484829D02*
X13105901Y57084829D01*
X13105901Y57084829D02*
X12763044Y56484829D01*
X12763044Y56484829D02*
X12763044Y57084829D01*
X12191616Y56484829D02*
X12477330Y56484829D01*
X12477330Y56484829D02*
X12477330Y57084829D01*
X12647699Y45968939D02*
X12647699Y46568939D01*
X12647699Y46568939D02*
X12447699Y46140368D01*
X12447699Y46140368D02*
X12247699Y46568939D01*
X12247699Y46568939D02*
X12247699Y45968939D01*
X11990557Y46140368D02*
X11704843Y46140368D01*
X12047700Y45968939D02*
X11847700Y46568939D01*
X11847700Y46568939D02*
X11647700Y45968939D01*
X11447699Y45968939D02*
X11447699Y46568939D01*
X11447699Y46568939D02*
X11219128Y46568939D01*
X11219128Y46568939D02*
X11161985Y46540368D01*
X11161985Y46540368D02*
X11133414Y46511796D01*
X11133414Y46511796D02*
X11104842Y46454653D01*
X11104842Y46454653D02*
X11104842Y46368939D01*
X11104842Y46368939D02*
X11133414Y46311796D01*
X11133414Y46311796D02*
X11161985Y46283225D01*
X11161985Y46283225D02*
X11219128Y46254653D01*
X11219128Y46254653D02*
X11447699Y46254653D01*
X21359348Y51737376D02*
X21559348Y51737376D01*
X21559348Y51423090D02*
X21559348Y52023090D01*
X21559348Y52023090D02*
X21273634Y52023090D01*
X21045062Y51423090D02*
X21045062Y52023090D01*
X20845063Y52023090D02*
X20645063Y51423090D01*
X20645063Y51423090D02*
X20445063Y52023090D01*
X20330777Y52023090D02*
X20130777Y51423090D01*
X20130777Y51423090D02*
X19930777Y52023090D01*
X19816491Y52023090D02*
X19473634Y52023090D01*
X19645062Y51423090D02*
X19645062Y52023090D01*
X18930776Y51480233D02*
X18959348Y51451661D01*
X18959348Y51451661D02*
X19045062Y51423090D01*
X19045062Y51423090D02*
X19102205Y51423090D01*
X19102205Y51423090D02*
X19187919Y51451661D01*
X19187919Y51451661D02*
X19245062Y51508804D01*
X19245062Y51508804D02*
X19273633Y51565947D01*
X19273633Y51565947D02*
X19302205Y51680233D01*
X19302205Y51680233D02*
X19302205Y51765947D01*
X19302205Y51765947D02*
X19273633Y51880233D01*
X19273633Y51880233D02*
X19245062Y51937376D01*
X19245062Y51937376D02*
X19187919Y51994519D01*
X19187919Y51994519D02*
X19102205Y52023090D01*
X19102205Y52023090D02*
X19045062Y52023090D01*
X19045062Y52023090D02*
X18959348Y51994519D01*
X18959348Y51994519D02*
X18930776Y51965947D01*
X12104842Y35826082D02*
X12133414Y35797510D01*
X12133414Y35797510D02*
X12219128Y35768939D01*
X12219128Y35768939D02*
X12276271Y35768939D01*
X12276271Y35768939D02*
X12361985Y35797510D01*
X12361985Y35797510D02*
X12419128Y35854653D01*
X12419128Y35854653D02*
X12447699Y35911796D01*
X12447699Y35911796D02*
X12476271Y36026082D01*
X12476271Y36026082D02*
X12476271Y36111796D01*
X12476271Y36111796D02*
X12447699Y36226082D01*
X12447699Y36226082D02*
X12419128Y36283225D01*
X12419128Y36283225D02*
X12361985Y36340368D01*
X12361985Y36340368D02*
X12276271Y36368939D01*
X12276271Y36368939D02*
X12219128Y36368939D01*
X12219128Y36368939D02*
X12133414Y36340368D01*
X12133414Y36340368D02*
X12104842Y36311796D01*
X11561985Y35768939D02*
X11847699Y35768939D01*
X11847699Y35768939D02*
X11847699Y36368939D01*
X11447700Y36368939D02*
X11104843Y36368939D01*
X11276271Y35768939D02*
X11276271Y36368939D01*
X14055639Y34928629D02*
X14341353Y34928629D01*
X14341353Y34928629D02*
X14369925Y34642915D01*
X14369925Y34642915D02*
X14341353Y34671486D01*
X14341353Y34671486D02*
X14284211Y34700058D01*
X14284211Y34700058D02*
X14141353Y34700058D01*
X14141353Y34700058D02*
X14084211Y34671486D01*
X14084211Y34671486D02*
X14055639Y34642915D01*
X14055639Y34642915D02*
X14027068Y34585772D01*
X14027068Y34585772D02*
X14027068Y34442915D01*
X14027068Y34442915D02*
X14055639Y34385772D01*
X14055639Y34385772D02*
X14084211Y34357200D01*
X14084211Y34357200D02*
X14141353Y34328629D01*
X14141353Y34328629D02*
X14284211Y34328629D01*
X14284211Y34328629D02*
X14341353Y34357200D01*
X14341353Y34357200D02*
X14369925Y34385772D01*
X13855639Y34928629D02*
X13655639Y34328629D01*
X13655639Y34328629D02*
X13455639Y34928629D01*
X13284210Y34357200D02*
X13198496Y34328629D01*
X13198496Y34328629D02*
X13055638Y34328629D01*
X13055638Y34328629D02*
X12998496Y34357200D01*
X12998496Y34357200D02*
X12969924Y34385772D01*
X12969924Y34385772D02*
X12941353Y34442915D01*
X12941353Y34442915D02*
X12941353Y34500058D01*
X12941353Y34500058D02*
X12969924Y34557200D01*
X12969924Y34557200D02*
X12998496Y34585772D01*
X12998496Y34585772D02*
X13055638Y34614343D01*
X13055638Y34614343D02*
X13169924Y34642915D01*
X13169924Y34642915D02*
X13227067Y34671486D01*
X13227067Y34671486D02*
X13255638Y34700058D01*
X13255638Y34700058D02*
X13284210Y34757200D01*
X13284210Y34757200D02*
X13284210Y34814343D01*
X13284210Y34814343D02*
X13255638Y34871486D01*
X13255638Y34871486D02*
X13227067Y34900058D01*
X13227067Y34900058D02*
X13169924Y34928629D01*
X13169924Y34928629D02*
X13027067Y34928629D01*
X13027067Y34928629D02*
X12941353Y34900058D01*
X12369924Y34900058D02*
X12427067Y34928629D01*
X12427067Y34928629D02*
X12512781Y34928629D01*
X12512781Y34928629D02*
X12598495Y34900058D01*
X12598495Y34900058D02*
X12655638Y34842915D01*
X12655638Y34842915D02*
X12684209Y34785772D01*
X12684209Y34785772D02*
X12712781Y34671486D01*
X12712781Y34671486D02*
X12712781Y34585772D01*
X12712781Y34585772D02*
X12684209Y34471486D01*
X12684209Y34471486D02*
X12655638Y34414343D01*
X12655638Y34414343D02*
X12598495Y34357200D01*
X12598495Y34357200D02*
X12512781Y34328629D01*
X12512781Y34328629D02*
X12455638Y34328629D01*
X12455638Y34328629D02*
X12369924Y34357200D01*
X12369924Y34357200D02*
X12341352Y34385772D01*
X12341352Y34385772D02*
X12341352Y34585772D01*
X12341352Y34585772D02*
X12455638Y34585772D01*
X12084209Y34328629D02*
X12084209Y34928629D01*
X12084209Y34928629D02*
X11741352Y34328629D01*
X11741352Y34328629D02*
X11741352Y34928629D01*
X11455638Y34328629D02*
X11455638Y34928629D01*
X11455638Y34928629D02*
X11312781Y34928629D01*
X11312781Y34928629D02*
X11227067Y34900058D01*
X11227067Y34900058D02*
X11169924Y34842915D01*
X11169924Y34842915D02*
X11141353Y34785772D01*
X11141353Y34785772D02*
X11112781Y34671486D01*
X11112781Y34671486D02*
X11112781Y34585772D01*
X11112781Y34585772D02*
X11141353Y34471486D01*
X11141353Y34471486D02*
X11169924Y34414343D01*
X11169924Y34414343D02*
X11227067Y34357200D01*
X11227067Y34357200D02*
X11312781Y34328629D01*
X11312781Y34328629D02*
X11455638Y34328629D01*
X14327068Y67245763D02*
X13984211Y67245763D01*
X14155639Y66645763D02*
X14155639Y67245763D01*
X13469925Y67217192D02*
X13527068Y67245763D01*
X13527068Y67245763D02*
X13612782Y67245763D01*
X13612782Y67245763D02*
X13698496Y67217192D01*
X13698496Y67217192D02*
X13755639Y67160049D01*
X13755639Y67160049D02*
X13784210Y67102906D01*
X13784210Y67102906D02*
X13812782Y66988620D01*
X13812782Y66988620D02*
X13812782Y66902906D01*
X13812782Y66902906D02*
X13784210Y66788620D01*
X13784210Y66788620D02*
X13755639Y66731477D01*
X13755639Y66731477D02*
X13698496Y66674334D01*
X13698496Y66674334D02*
X13612782Y66645763D01*
X13612782Y66645763D02*
X13555639Y66645763D01*
X13555639Y66645763D02*
X13469925Y66674334D01*
X13469925Y66674334D02*
X13441353Y66702906D01*
X13441353Y66702906D02*
X13441353Y66902906D01*
X13441353Y66902906D02*
X13555639Y66902906D01*
X13212782Y66674334D02*
X13127068Y66645763D01*
X13127068Y66645763D02*
X12984210Y66645763D01*
X12984210Y66645763D02*
X12927068Y66674334D01*
X12927068Y66674334D02*
X12898496Y66702906D01*
X12898496Y66702906D02*
X12869925Y66760049D01*
X12869925Y66760049D02*
X12869925Y66817192D01*
X12869925Y66817192D02*
X12898496Y66874334D01*
X12898496Y66874334D02*
X12927068Y66902906D01*
X12927068Y66902906D02*
X12984210Y66931477D01*
X12984210Y66931477D02*
X13098496Y66960049D01*
X13098496Y66960049D02*
X13155639Y66988620D01*
X13155639Y66988620D02*
X13184210Y67017192D01*
X13184210Y67017192D02*
X13212782Y67074334D01*
X13212782Y67074334D02*
X13212782Y67131477D01*
X13212782Y67131477D02*
X13184210Y67188620D01*
X13184210Y67188620D02*
X13155639Y67217192D01*
X13155639Y67217192D02*
X13098496Y67245763D01*
X13098496Y67245763D02*
X12955639Y67245763D01*
X12955639Y67245763D02*
X12869925Y67217192D01*
X12641353Y67188620D02*
X12612781Y67217192D01*
X12612781Y67217192D02*
X12555639Y67245763D01*
X12555639Y67245763D02*
X12412781Y67245763D01*
X12412781Y67245763D02*
X12355639Y67217192D01*
X12355639Y67217192D02*
X12327067Y67188620D01*
X12327067Y67188620D02*
X12298496Y67131477D01*
X12298496Y67131477D02*
X12298496Y67074334D01*
X12298496Y67074334D02*
X12327067Y66988620D01*
X12327067Y66988620D02*
X12669924Y66645763D01*
X12669924Y66645763D02*
X12298496Y66645763D01*
X14127068Y41868939D02*
X14012782Y41868939D01*
X14012782Y41868939D02*
X13955639Y41840368D01*
X13955639Y41840368D02*
X13898496Y41783225D01*
X13898496Y41783225D02*
X13869925Y41668939D01*
X13869925Y41668939D02*
X13869925Y41468939D01*
X13869925Y41468939D02*
X13898496Y41354653D01*
X13898496Y41354653D02*
X13955639Y41297510D01*
X13955639Y41297510D02*
X14012782Y41268939D01*
X14012782Y41268939D02*
X14127068Y41268939D01*
X14127068Y41268939D02*
X14184211Y41297510D01*
X14184211Y41297510D02*
X14241353Y41354653D01*
X14241353Y41354653D02*
X14269925Y41468939D01*
X14269925Y41468939D02*
X14269925Y41668939D01*
X14269925Y41668939D02*
X14241353Y41783225D01*
X14241353Y41783225D02*
X14184211Y41840368D01*
X14184211Y41840368D02*
X14127068Y41868939D01*
X13612782Y41268939D02*
X13612782Y41868939D01*
X13612782Y41868939D02*
X13384211Y41868939D01*
X13384211Y41868939D02*
X13327068Y41840368D01*
X13327068Y41840368D02*
X13298497Y41811796D01*
X13298497Y41811796D02*
X13269925Y41754653D01*
X13269925Y41754653D02*
X13269925Y41668939D01*
X13269925Y41668939D02*
X13298497Y41611796D01*
X13298497Y41611796D02*
X13327068Y41583225D01*
X13327068Y41583225D02*
X13384211Y41554653D01*
X13384211Y41554653D02*
X13612782Y41554653D01*
X13041354Y41297510D02*
X12955640Y41268939D01*
X12955640Y41268939D02*
X12812782Y41268939D01*
X12812782Y41268939D02*
X12755640Y41297510D01*
X12755640Y41297510D02*
X12727068Y41326082D01*
X12727068Y41326082D02*
X12698497Y41383225D01*
X12698497Y41383225D02*
X12698497Y41440368D01*
X12698497Y41440368D02*
X12727068Y41497510D01*
X12727068Y41497510D02*
X12755640Y41526082D01*
X12755640Y41526082D02*
X12812782Y41554653D01*
X12812782Y41554653D02*
X12927068Y41583225D01*
X12927068Y41583225D02*
X12984211Y41611796D01*
X12984211Y41611796D02*
X13012782Y41640368D01*
X13012782Y41640368D02*
X13041354Y41697510D01*
X13041354Y41697510D02*
X13041354Y41754653D01*
X13041354Y41754653D02*
X13012782Y41811796D01*
X13012782Y41811796D02*
X12984211Y41840368D01*
X12984211Y41840368D02*
X12927068Y41868939D01*
X12927068Y41868939D02*
X12784211Y41868939D01*
X12784211Y41868939D02*
X12698497Y41840368D01*
X6033414Y33568939D02*
X6376271Y33568939D01*
X6204842Y33568939D02*
X6204842Y34168939D01*
X6204842Y34168939D02*
X6261985Y34083225D01*
X6261985Y34083225D02*
X6319128Y34026082D01*
X6319128Y34026082D02*
X6376271Y33997510D01*
X5804842Y34111796D02*
X5776270Y34140368D01*
X5776270Y34140368D02*
X5719128Y34168939D01*
X5719128Y34168939D02*
X5576270Y34168939D01*
X5576270Y34168939D02*
X5519128Y34140368D01*
X5519128Y34140368D02*
X5490556Y34111796D01*
X5490556Y34111796D02*
X5461985Y34054653D01*
X5461985Y34054653D02*
X5461985Y33997510D01*
X5461985Y33997510D02*
X5490556Y33911796D01*
X5490556Y33911796D02*
X5833413Y33568939D01*
X5833413Y33568939D02*
X5461985Y33568939D01*
X5290556Y34168939D02*
X5090556Y33568939D01*
X5090556Y33568939D02*
X4890556Y34168939D01*
X4833413Y33511796D02*
X4376270Y33511796D01*
X4033412Y33883225D02*
X3947698Y33854653D01*
X3947698Y33854653D02*
X3919127Y33826082D01*
X3919127Y33826082D02*
X3890555Y33768939D01*
X3890555Y33768939D02*
X3890555Y33683225D01*
X3890555Y33683225D02*
X3919127Y33626082D01*
X3919127Y33626082D02*
X3947698Y33597510D01*
X3947698Y33597510D02*
X4004841Y33568939D01*
X4004841Y33568939D02*
X4233412Y33568939D01*
X4233412Y33568939D02*
X4233412Y34168939D01*
X4233412Y34168939D02*
X4033412Y34168939D01*
X4033412Y34168939D02*
X3976270Y34140368D01*
X3976270Y34140368D02*
X3947698Y34111796D01*
X3947698Y34111796D02*
X3919127Y34054653D01*
X3919127Y34054653D02*
X3919127Y33997510D01*
X3919127Y33997510D02*
X3947698Y33940368D01*
X3947698Y33940368D02*
X3976270Y33911796D01*
X3976270Y33911796D02*
X4033412Y33883225D01*
X4033412Y33883225D02*
X4233412Y33883225D01*
X3661984Y33740368D02*
X3376270Y33740368D01*
X3719127Y33568939D02*
X3519127Y34168939D01*
X3519127Y34168939D02*
X3319127Y33568939D01*
X3204841Y34168939D02*
X2861984Y34168939D01*
X3033412Y33568939D02*
X3033412Y34168939D01*
X13998496Y36785772D02*
X14027068Y36757200D01*
X14027068Y36757200D02*
X14112782Y36728629D01*
X14112782Y36728629D02*
X14169925Y36728629D01*
X14169925Y36728629D02*
X14255639Y36757200D01*
X14255639Y36757200D02*
X14312782Y36814343D01*
X14312782Y36814343D02*
X14341353Y36871486D01*
X14341353Y36871486D02*
X14369925Y36985772D01*
X14369925Y36985772D02*
X14369925Y37071486D01*
X14369925Y37071486D02*
X14341353Y37185772D01*
X14341353Y37185772D02*
X14312782Y37242915D01*
X14312782Y37242915D02*
X14255639Y37300058D01*
X14255639Y37300058D02*
X14169925Y37328629D01*
X14169925Y37328629D02*
X14112782Y37328629D01*
X14112782Y37328629D02*
X14027068Y37300058D01*
X14027068Y37300058D02*
X13998496Y37271486D01*
X13741353Y36728629D02*
X13741353Y37328629D01*
X13398496Y36728629D02*
X13655639Y37071486D01*
X13398496Y37328629D02*
X13741353Y36985772D01*
X13141353Y36728629D02*
X13141353Y37328629D01*
X13141353Y37328629D02*
X12912782Y37328629D01*
X12912782Y37328629D02*
X12855639Y37300058D01*
X12855639Y37300058D02*
X12827068Y37271486D01*
X12827068Y37271486D02*
X12798496Y37214343D01*
X12798496Y37214343D02*
X12798496Y37128629D01*
X12798496Y37128629D02*
X12827068Y37071486D01*
X12827068Y37071486D02*
X12855639Y37042915D01*
X12855639Y37042915D02*
X12912782Y37014343D01*
X12912782Y37014343D02*
X13141353Y37014343D01*
X12569925Y36757200D02*
X12484211Y36728629D01*
X12484211Y36728629D02*
X12341353Y36728629D01*
X12341353Y36728629D02*
X12284211Y36757200D01*
X12284211Y36757200D02*
X12255639Y36785772D01*
X12255639Y36785772D02*
X12227068Y36842915D01*
X12227068Y36842915D02*
X12227068Y36900058D01*
X12227068Y36900058D02*
X12255639Y36957200D01*
X12255639Y36957200D02*
X12284211Y36985772D01*
X12284211Y36985772D02*
X12341353Y37014343D01*
X12341353Y37014343D02*
X12455639Y37042915D01*
X12455639Y37042915D02*
X12512782Y37071486D01*
X12512782Y37071486D02*
X12541353Y37100058D01*
X12541353Y37100058D02*
X12569925Y37157200D01*
X12569925Y37157200D02*
X12569925Y37214343D01*
X12569925Y37214343D02*
X12541353Y37271486D01*
X12541353Y37271486D02*
X12512782Y37300058D01*
X12512782Y37300058D02*
X12455639Y37328629D01*
X12455639Y37328629D02*
X12312782Y37328629D01*
X12312782Y37328629D02*
X12227068Y37300058D01*
X11969924Y36728629D02*
X11969924Y37328629D01*
X11969924Y37042915D02*
X11627067Y37042915D01*
X11627067Y36728629D02*
X11627067Y37328629D01*
X19901116Y69509853D02*
X20101116Y69509853D01*
X20101116Y69195567D02*
X20101116Y69795567D01*
X20101116Y69795567D02*
X19815402Y69795567D01*
X19586830Y69195567D02*
X19586830Y69795567D01*
X18958259Y69252710D02*
X18986831Y69224138D01*
X18986831Y69224138D02*
X19072545Y69195567D01*
X19072545Y69195567D02*
X19129688Y69195567D01*
X19129688Y69195567D02*
X19215402Y69224138D01*
X19215402Y69224138D02*
X19272545Y69281281D01*
X19272545Y69281281D02*
X19301116Y69338424D01*
X19301116Y69338424D02*
X19329688Y69452710D01*
X19329688Y69452710D02*
X19329688Y69538424D01*
X19329688Y69538424D02*
X19301116Y69652710D01*
X19301116Y69652710D02*
X19272545Y69709853D01*
X19272545Y69709853D02*
X19215402Y69766996D01*
X19215402Y69766996D02*
X19129688Y69795567D01*
X19129688Y69795567D02*
X19072545Y69795567D01*
X19072545Y69795567D02*
X18986831Y69766996D01*
X18986831Y69766996D02*
X18958259Y69738424D01*
X19870462Y23754986D02*
X20070462Y23754986D01*
X20070462Y23440700D02*
X20070462Y24040700D01*
X20070462Y24040700D02*
X19784748Y24040700D01*
X19356176Y23754986D02*
X19556176Y23754986D01*
X19556176Y23440700D02*
X19556176Y24040700D01*
X19556176Y24040700D02*
X19270462Y24040700D01*
X19041890Y23440700D02*
X19041890Y24040700D01*
X14041353Y39083225D02*
X14241353Y39083225D01*
X14241353Y38768939D02*
X14241353Y39368939D01*
X14241353Y39368939D02*
X13955639Y39368939D01*
X13441353Y38768939D02*
X13727067Y38768939D01*
X13727067Y38768939D02*
X13727067Y39368939D01*
X13269925Y38797510D02*
X13184211Y38768939D01*
X13184211Y38768939D02*
X13041353Y38768939D01*
X13041353Y38768939D02*
X12984211Y38797510D01*
X12984211Y38797510D02*
X12955639Y38826082D01*
X12955639Y38826082D02*
X12927068Y38883225D01*
X12927068Y38883225D02*
X12927068Y38940368D01*
X12927068Y38940368D02*
X12955639Y38997510D01*
X12955639Y38997510D02*
X12984211Y39026082D01*
X12984211Y39026082D02*
X13041353Y39054653D01*
X13041353Y39054653D02*
X13155639Y39083225D01*
X13155639Y39083225D02*
X13212782Y39111796D01*
X13212782Y39111796D02*
X13241353Y39140368D01*
X13241353Y39140368D02*
X13269925Y39197510D01*
X13269925Y39197510D02*
X13269925Y39254653D01*
X13269925Y39254653D02*
X13241353Y39311796D01*
X13241353Y39311796D02*
X13212782Y39340368D01*
X13212782Y39340368D02*
X13155639Y39368939D01*
X13155639Y39368939D02*
X13012782Y39368939D01*
X13012782Y39368939D02*
X12927068Y39340368D01*
X21898496Y66628629D02*
X22098496Y66914343D01*
X22241353Y66628629D02*
X22241353Y67228629D01*
X22241353Y67228629D02*
X22012782Y67228629D01*
X22012782Y67228629D02*
X21955639Y67200058D01*
X21955639Y67200058D02*
X21927068Y67171486D01*
X21927068Y67171486D02*
X21898496Y67114343D01*
X21898496Y67114343D02*
X21898496Y67028629D01*
X21898496Y67028629D02*
X21927068Y66971486D01*
X21927068Y66971486D02*
X21955639Y66942915D01*
X21955639Y66942915D02*
X22012782Y66914343D01*
X22012782Y66914343D02*
X22241353Y66914343D01*
X21641353Y66628629D02*
X21641353Y67228629D01*
X21641353Y66942915D02*
X21298496Y66942915D01*
X21298496Y66628629D02*
X21298496Y67228629D01*
X20898497Y67228629D02*
X20784211Y67228629D01*
X20784211Y67228629D02*
X20727068Y67200058D01*
X20727068Y67200058D02*
X20669925Y67142915D01*
X20669925Y67142915D02*
X20641354Y67028629D01*
X20641354Y67028629D02*
X20641354Y66828629D01*
X20641354Y66828629D02*
X20669925Y66714343D01*
X20669925Y66714343D02*
X20727068Y66657200D01*
X20727068Y66657200D02*
X20784211Y66628629D01*
X20784211Y66628629D02*
X20898497Y66628629D01*
X20898497Y66628629D02*
X20955640Y66657200D01*
X20955640Y66657200D02*
X21012782Y66714343D01*
X21012782Y66714343D02*
X21041354Y66828629D01*
X21041354Y66828629D02*
X21041354Y67028629D01*
X21041354Y67028629D02*
X21012782Y67142915D01*
X21012782Y67142915D02*
X20955640Y67200058D01*
X20955640Y67200058D02*
X20898497Y67228629D01*
X20412783Y67171486D02*
X20384211Y67200058D01*
X20384211Y67200058D02*
X20327069Y67228629D01*
X20327069Y67228629D02*
X20184211Y67228629D01*
X20184211Y67228629D02*
X20127069Y67200058D01*
X20127069Y67200058D02*
X20098497Y67171486D01*
X20098497Y67171486D02*
X20069926Y67114343D01*
X20069926Y67114343D02*
X20069926Y67057200D01*
X20069926Y67057200D02*
X20098497Y66971486D01*
X20098497Y66971486D02*
X20441354Y66628629D01*
X20441354Y66628629D02*
X20069926Y66628629D01*
X19812782Y66628629D02*
X19812782Y67228629D01*
X19812782Y66942915D02*
X19469925Y66942915D01*
X19469925Y66628629D02*
X19469925Y67228629D01*
X18869926Y67200058D02*
X18927069Y67228629D01*
X18927069Y67228629D02*
X19012783Y67228629D01*
X19012783Y67228629D02*
X19098497Y67200058D01*
X19098497Y67200058D02*
X19155640Y67142915D01*
X19155640Y67142915D02*
X19184211Y67085772D01*
X19184211Y67085772D02*
X19212783Y66971486D01*
X19212783Y66971486D02*
X19212783Y66885772D01*
X19212783Y66885772D02*
X19184211Y66771486D01*
X19184211Y66771486D02*
X19155640Y66714343D01*
X19155640Y66714343D02*
X19098497Y66657200D01*
X19098497Y66657200D02*
X19012783Y66628629D01*
X19012783Y66628629D02*
X18955640Y66628629D01*
X18955640Y66628629D02*
X18869926Y66657200D01*
X18869926Y66657200D02*
X18841354Y66685772D01*
X18841354Y66685772D02*
X18841354Y66885772D01*
X18841354Y66885772D02*
X18955640Y66885772D01*
X22647699Y48868939D02*
X22647699Y49468939D01*
X22647699Y49468939D02*
X22419128Y49468939D01*
X22419128Y49468939D02*
X22361985Y49440368D01*
X22361985Y49440368D02*
X22333414Y49411796D01*
X22333414Y49411796D02*
X22304842Y49354653D01*
X22304842Y49354653D02*
X22304842Y49268939D01*
X22304842Y49268939D02*
X22333414Y49211796D01*
X22333414Y49211796D02*
X22361985Y49183225D01*
X22361985Y49183225D02*
X22419128Y49154653D01*
X22419128Y49154653D02*
X22647699Y49154653D01*
X21704842Y48868939D02*
X21904842Y49154653D01*
X22047699Y48868939D02*
X22047699Y49468939D01*
X22047699Y49468939D02*
X21819128Y49468939D01*
X21819128Y49468939D02*
X21761985Y49440368D01*
X21761985Y49440368D02*
X21733414Y49411796D01*
X21733414Y49411796D02*
X21704842Y49354653D01*
X21704842Y49354653D02*
X21704842Y49268939D01*
X21704842Y49268939D02*
X21733414Y49211796D01*
X21733414Y49211796D02*
X21761985Y49183225D01*
X21761985Y49183225D02*
X21819128Y49154653D01*
X21819128Y49154653D02*
X22047699Y49154653D01*
X21133414Y49440368D02*
X21190557Y49468939D01*
X21190557Y49468939D02*
X21276271Y49468939D01*
X21276271Y49468939D02*
X21361985Y49440368D01*
X21361985Y49440368D02*
X21419128Y49383225D01*
X21419128Y49383225D02*
X21447699Y49326082D01*
X21447699Y49326082D02*
X21476271Y49211796D01*
X21476271Y49211796D02*
X21476271Y49126082D01*
X21476271Y49126082D02*
X21447699Y49011796D01*
X21447699Y49011796D02*
X21419128Y48954653D01*
X21419128Y48954653D02*
X21361985Y48897510D01*
X21361985Y48897510D02*
X21276271Y48868939D01*
X21276271Y48868939D02*
X21219128Y48868939D01*
X21219128Y48868939D02*
X21133414Y48897510D01*
X21133414Y48897510D02*
X21104842Y48926082D01*
X21104842Y48926082D02*
X21104842Y49126082D01*
X21104842Y49126082D02*
X21219128Y49126082D01*
X20876271Y48897510D02*
X20790557Y48868939D01*
X20790557Y48868939D02*
X20647699Y48868939D01*
X20647699Y48868939D02*
X20590557Y48897510D01*
X20590557Y48897510D02*
X20561985Y48926082D01*
X20561985Y48926082D02*
X20533414Y48983225D01*
X20533414Y48983225D02*
X20533414Y49040368D01*
X20533414Y49040368D02*
X20561985Y49097510D01*
X20561985Y49097510D02*
X20590557Y49126082D01*
X20590557Y49126082D02*
X20647699Y49154653D01*
X20647699Y49154653D02*
X20761985Y49183225D01*
X20761985Y49183225D02*
X20819128Y49211796D01*
X20819128Y49211796D02*
X20847699Y49240368D01*
X20847699Y49240368D02*
X20876271Y49297510D01*
X20876271Y49297510D02*
X20876271Y49354653D01*
X20876271Y49354653D02*
X20847699Y49411796D01*
X20847699Y49411796D02*
X20819128Y49440368D01*
X20819128Y49440368D02*
X20761985Y49468939D01*
X20761985Y49468939D02*
X20619128Y49468939D01*
X20619128Y49468939D02*
X20533414Y49440368D01*
X19990556Y48868939D02*
X20276270Y48868939D01*
X20276270Y48868939D02*
X20276270Y49468939D01*
X19790556Y48868939D02*
X19790556Y49468939D01*
X19790556Y49468939D02*
X19447699Y48868939D01*
X19447699Y48868939D02*
X19447699Y49468939D01*
X19161985Y48868939D02*
X19161985Y49468939D01*
X19161985Y49468939D02*
X19019128Y49468939D01*
X19019128Y49468939D02*
X18933414Y49440368D01*
X18933414Y49440368D02*
X18876271Y49383225D01*
X18876271Y49383225D02*
X18847700Y49326082D01*
X18847700Y49326082D02*
X18819128Y49211796D01*
X18819128Y49211796D02*
X18819128Y49126082D01*
X18819128Y49126082D02*
X18847700Y49011796D01*
X18847700Y49011796D02*
X18876271Y48954653D01*
X18876271Y48954653D02*
X18933414Y48897510D01*
X18933414Y48897510D02*
X19019128Y48868939D01*
X19019128Y48868939D02*
X19161985Y48868939D01*
X21176645Y28533975D02*
X21376645Y28819689D01*
X21519502Y28533975D02*
X21519502Y29133975D01*
X21519502Y29133975D02*
X21290931Y29133975D01*
X21290931Y29133975D02*
X21233788Y29105404D01*
X21233788Y29105404D02*
X21205217Y29076832D01*
X21205217Y29076832D02*
X21176645Y29019689D01*
X21176645Y29019689D02*
X21176645Y28933975D01*
X21176645Y28933975D02*
X21205217Y28876832D01*
X21205217Y28876832D02*
X21233788Y28848261D01*
X21233788Y28848261D02*
X21290931Y28819689D01*
X21290931Y28819689D02*
X21519502Y28819689D01*
X20948074Y28705404D02*
X20662360Y28705404D01*
X21005217Y28533975D02*
X20805217Y29133975D01*
X20805217Y29133975D02*
X20605217Y28533975D01*
X20062359Y28591118D02*
X20090931Y28562546D01*
X20090931Y28562546D02*
X20176645Y28533975D01*
X20176645Y28533975D02*
X20233788Y28533975D01*
X20233788Y28533975D02*
X20319502Y28562546D01*
X20319502Y28562546D02*
X20376645Y28619689D01*
X20376645Y28619689D02*
X20405216Y28676832D01*
X20405216Y28676832D02*
X20433788Y28791118D01*
X20433788Y28791118D02*
X20433788Y28876832D01*
X20433788Y28876832D02*
X20405216Y28991118D01*
X20405216Y28991118D02*
X20376645Y29048261D01*
X20376645Y29048261D02*
X20319502Y29105404D01*
X20319502Y29105404D02*
X20233788Y29133975D01*
X20233788Y29133975D02*
X20176645Y29133975D01*
X20176645Y29133975D02*
X20090931Y29105404D01*
X20090931Y29105404D02*
X20062359Y29076832D01*
X19462359Y28533975D02*
X19662359Y28819689D01*
X19805216Y28533975D02*
X19805216Y29133975D01*
X19805216Y29133975D02*
X19576645Y29133975D01*
X19576645Y29133975D02*
X19519502Y29105404D01*
X19519502Y29105404D02*
X19490931Y29076832D01*
X19490931Y29076832D02*
X19462359Y29019689D01*
X19462359Y29019689D02*
X19462359Y28933975D01*
X19462359Y28933975D02*
X19490931Y28876832D01*
X19490931Y28876832D02*
X19519502Y28848261D01*
X19519502Y28848261D02*
X19576645Y28819689D01*
X19576645Y28819689D02*
X19805216Y28819689D01*
X19205216Y28848261D02*
X19005216Y28848261D01*
X18919502Y28533975D02*
X19205216Y28533975D01*
X19205216Y28533975D02*
X19205216Y29133975D01*
X19205216Y29133975D02*
X18919502Y29133975D01*
X14041353Y24183225D02*
X14241353Y24183225D01*
X14241353Y23868939D02*
X14241353Y24468939D01*
X14241353Y24468939D02*
X13955639Y24468939D01*
X13755639Y24040368D02*
X13469925Y24040368D01*
X13812782Y23868939D02*
X13612782Y24468939D01*
X13612782Y24468939D02*
X13412782Y23868939D01*
X12869924Y23926082D02*
X12898496Y23897510D01*
X12898496Y23897510D02*
X12984210Y23868939D01*
X12984210Y23868939D02*
X13041353Y23868939D01*
X13041353Y23868939D02*
X13127067Y23897510D01*
X13127067Y23897510D02*
X13184210Y23954653D01*
X13184210Y23954653D02*
X13212781Y24011796D01*
X13212781Y24011796D02*
X13241353Y24126082D01*
X13241353Y24126082D02*
X13241353Y24211796D01*
X13241353Y24211796D02*
X13212781Y24326082D01*
X13212781Y24326082D02*
X13184210Y24383225D01*
X13184210Y24383225D02*
X13127067Y24440368D01*
X13127067Y24440368D02*
X13041353Y24468939D01*
X13041353Y24468939D02*
X12984210Y24468939D01*
X12984210Y24468939D02*
X12898496Y24440368D01*
X12898496Y24440368D02*
X12869924Y24411796D01*
X12269924Y23868939D02*
X12469924Y24154653D01*
X12612781Y23868939D02*
X12612781Y24468939D01*
X12612781Y24468939D02*
X12384210Y24468939D01*
X12384210Y24468939D02*
X12327067Y24440368D01*
X12327067Y24440368D02*
X12298496Y24411796D01*
X12298496Y24411796D02*
X12269924Y24354653D01*
X12269924Y24354653D02*
X12269924Y24268939D01*
X12269924Y24268939D02*
X12298496Y24211796D01*
X12298496Y24211796D02*
X12327067Y24183225D01*
X12327067Y24183225D02*
X12384210Y24154653D01*
X12384210Y24154653D02*
X12612781Y24154653D01*
X12012781Y24183225D02*
X11812781Y24183225D01*
X11727067Y23868939D02*
X12012781Y23868939D01*
X12012781Y23868939D02*
X12012781Y24468939D01*
X12012781Y24468939D02*
X11727067Y24468939D01*
X13932253Y69260095D02*
X14132253Y69545809D01*
X14275110Y69260095D02*
X14275110Y69860095D01*
X14275110Y69860095D02*
X14046539Y69860095D01*
X14046539Y69860095D02*
X13989396Y69831524D01*
X13989396Y69831524D02*
X13960825Y69802952D01*
X13960825Y69802952D02*
X13932253Y69745809D01*
X13932253Y69745809D02*
X13932253Y69660095D01*
X13932253Y69660095D02*
X13960825Y69602952D01*
X13960825Y69602952D02*
X13989396Y69574381D01*
X13989396Y69574381D02*
X14046539Y69545809D01*
X14046539Y69545809D02*
X14275110Y69545809D01*
X13675110Y69260095D02*
X13675110Y69860095D01*
X13046539Y69317238D02*
X13075111Y69288666D01*
X13075111Y69288666D02*
X13160825Y69260095D01*
X13160825Y69260095D02*
X13217968Y69260095D01*
X13217968Y69260095D02*
X13303682Y69288666D01*
X13303682Y69288666D02*
X13360825Y69345809D01*
X13360825Y69345809D02*
X13389396Y69402952D01*
X13389396Y69402952D02*
X13417968Y69517238D01*
X13417968Y69517238D02*
X13417968Y69602952D01*
X13417968Y69602952D02*
X13389396Y69717238D01*
X13389396Y69717238D02*
X13360825Y69774381D01*
X13360825Y69774381D02*
X13303682Y69831524D01*
X13303682Y69831524D02*
X13217968Y69860095D01*
X13217968Y69860095D02*
X13160825Y69860095D01*
X13160825Y69860095D02*
X13075111Y69831524D01*
X13075111Y69831524D02*
X13046539Y69802952D01*
X13704842Y28068939D02*
X13904842Y28354653D01*
X14047699Y28068939D02*
X14047699Y28668939D01*
X14047699Y28668939D02*
X13819128Y28668939D01*
X13819128Y28668939D02*
X13761985Y28640368D01*
X13761985Y28640368D02*
X13733414Y28611796D01*
X13733414Y28611796D02*
X13704842Y28554653D01*
X13704842Y28554653D02*
X13704842Y28468939D01*
X13704842Y28468939D02*
X13733414Y28411796D01*
X13733414Y28411796D02*
X13761985Y28383225D01*
X13761985Y28383225D02*
X13819128Y28354653D01*
X13819128Y28354653D02*
X14047699Y28354653D01*
X13590557Y28011796D02*
X13133414Y28011796D01*
X12990556Y28068939D02*
X12990556Y28668939D01*
X12647699Y28068939D02*
X12904842Y28411796D01*
X12647699Y28668939D02*
X12990556Y28326082D01*
X12390556Y28068939D02*
X12390556Y28668939D01*
X12390556Y28668939D02*
X12047699Y28068939D01*
X12047699Y28068939D02*
X12047699Y28668939D01*
X11761985Y28068939D02*
X11761985Y28668939D01*
X11419128Y28068939D02*
X11676271Y28411796D01*
X11419128Y28668939D02*
X11761985Y28326082D01*
X10876271Y28068939D02*
X11161985Y28068939D01*
X11161985Y28068939D02*
X11161985Y28668939D01*
X20908977Y61862102D02*
X20708977Y61862102D01*
X20623263Y61547816D02*
X20908977Y61547816D01*
X20908977Y61547816D02*
X20908977Y62147816D01*
X20908977Y62147816D02*
X20623263Y62147816D01*
X20451835Y62147816D02*
X20108978Y62147816D01*
X20280406Y61547816D02*
X20280406Y62147816D01*
X19566120Y61604959D02*
X19594692Y61576387D01*
X19594692Y61576387D02*
X19680406Y61547816D01*
X19680406Y61547816D02*
X19737549Y61547816D01*
X19737549Y61547816D02*
X19823263Y61576387D01*
X19823263Y61576387D02*
X19880406Y61633530D01*
X19880406Y61633530D02*
X19908977Y61690673D01*
X19908977Y61690673D02*
X19937549Y61804959D01*
X19937549Y61804959D02*
X19937549Y61890673D01*
X19937549Y61890673D02*
X19908977Y62004959D01*
X19908977Y62004959D02*
X19880406Y62062102D01*
X19880406Y62062102D02*
X19823263Y62119245D01*
X19823263Y62119245D02*
X19737549Y62147816D01*
X19737549Y62147816D02*
X19680406Y62147816D01*
X19680406Y62147816D02*
X19594692Y62119245D01*
X19594692Y62119245D02*
X19566120Y62090673D01*
X19308977Y61547816D02*
X19308977Y62147816D01*
X19308977Y61862102D02*
X18966120Y61862102D01*
X18966120Y61547816D02*
X18966120Y62147816D01*
X6061985Y51968939D02*
X6347699Y51968939D01*
X6347699Y51968939D02*
X6376271Y51683225D01*
X6376271Y51683225D02*
X6347699Y51711796D01*
X6347699Y51711796D02*
X6290557Y51740368D01*
X6290557Y51740368D02*
X6147699Y51740368D01*
X6147699Y51740368D02*
X6090557Y51711796D01*
X6090557Y51711796D02*
X6061985Y51683225D01*
X6061985Y51683225D02*
X6033414Y51626082D01*
X6033414Y51626082D02*
X6033414Y51483225D01*
X6033414Y51483225D02*
X6061985Y51426082D01*
X6061985Y51426082D02*
X6090557Y51397510D01*
X6090557Y51397510D02*
X6147699Y51368939D01*
X6147699Y51368939D02*
X6290557Y51368939D01*
X6290557Y51368939D02*
X6347699Y51397510D01*
X6347699Y51397510D02*
X6376271Y51426082D01*
X5861985Y51968939D02*
X5661985Y51368939D01*
X5661985Y51368939D02*
X5461985Y51968939D01*
X5290556Y51397510D02*
X5204842Y51368939D01*
X5204842Y51368939D02*
X5061984Y51368939D01*
X5061984Y51368939D02*
X5004842Y51397510D01*
X5004842Y51397510D02*
X4976270Y51426082D01*
X4976270Y51426082D02*
X4947699Y51483225D01*
X4947699Y51483225D02*
X4947699Y51540368D01*
X4947699Y51540368D02*
X4976270Y51597510D01*
X4976270Y51597510D02*
X5004842Y51626082D01*
X5004842Y51626082D02*
X5061984Y51654653D01*
X5061984Y51654653D02*
X5176270Y51683225D01*
X5176270Y51683225D02*
X5233413Y51711796D01*
X5233413Y51711796D02*
X5261984Y51740368D01*
X5261984Y51740368D02*
X5290556Y51797510D01*
X5290556Y51797510D02*
X5290556Y51854653D01*
X5290556Y51854653D02*
X5261984Y51911796D01*
X5261984Y51911796D02*
X5233413Y51940368D01*
X5233413Y51940368D02*
X5176270Y51968939D01*
X5176270Y51968939D02*
X5033413Y51968939D01*
X5033413Y51968939D02*
X4947699Y51940368D01*
X4376270Y51940368D02*
X4433413Y51968939D01*
X4433413Y51968939D02*
X4519127Y51968939D01*
X4519127Y51968939D02*
X4604841Y51940368D01*
X4604841Y51940368D02*
X4661984Y51883225D01*
X4661984Y51883225D02*
X4690555Y51826082D01*
X4690555Y51826082D02*
X4719127Y51711796D01*
X4719127Y51711796D02*
X4719127Y51626082D01*
X4719127Y51626082D02*
X4690555Y51511796D01*
X4690555Y51511796D02*
X4661984Y51454653D01*
X4661984Y51454653D02*
X4604841Y51397510D01*
X4604841Y51397510D02*
X4519127Y51368939D01*
X4519127Y51368939D02*
X4461984Y51368939D01*
X4461984Y51368939D02*
X4376270Y51397510D01*
X4376270Y51397510D02*
X4347698Y51426082D01*
X4347698Y51426082D02*
X4347698Y51626082D01*
X4347698Y51626082D02*
X4461984Y51626082D01*
X4119127Y51911796D02*
X4090555Y51940368D01*
X4090555Y51940368D02*
X4033413Y51968939D01*
X4033413Y51968939D02*
X3890555Y51968939D01*
X3890555Y51968939D02*
X3833413Y51940368D01*
X3833413Y51940368D02*
X3804841Y51911796D01*
X3804841Y51911796D02*
X3776270Y51854653D01*
X3776270Y51854653D02*
X3776270Y51797510D01*
X3776270Y51797510D02*
X3804841Y51711796D01*
X3804841Y51711796D02*
X4147698Y51368939D01*
X4147698Y51368939D02*
X3776270Y51368939D01*
X6347699Y46268939D02*
X6347699Y46868939D01*
X6090557Y46440368D02*
X5804843Y46440368D01*
X6147700Y46268939D02*
X5947700Y46868939D01*
X5947700Y46868939D02*
X5747700Y46268939D01*
X5633414Y46868939D02*
X5290557Y46868939D01*
X5461985Y46268939D02*
X5461985Y46868939D01*
X13027068Y44354792D02*
X12684211Y44354792D01*
X12855639Y43754792D02*
X12855639Y44354792D01*
X12484210Y43754792D02*
X12484210Y44354792D01*
X12484210Y44354792D02*
X12255639Y44354792D01*
X12255639Y44354792D02*
X12198496Y44326221D01*
X12198496Y44326221D02*
X12169925Y44297649D01*
X12169925Y44297649D02*
X12141353Y44240506D01*
X12141353Y44240506D02*
X12141353Y44154792D01*
X12141353Y44154792D02*
X12169925Y44097649D01*
X12169925Y44097649D02*
X12198496Y44069078D01*
X12198496Y44069078D02*
X12255639Y44040506D01*
X12255639Y44040506D02*
X12484210Y44040506D01*
X11912782Y43783363D02*
X11827068Y43754792D01*
X11827068Y43754792D02*
X11684210Y43754792D01*
X11684210Y43754792D02*
X11627068Y43783363D01*
X11627068Y43783363D02*
X11598496Y43811935D01*
X11598496Y43811935D02*
X11569925Y43869078D01*
X11569925Y43869078D02*
X11569925Y43926221D01*
X11569925Y43926221D02*
X11598496Y43983363D01*
X11598496Y43983363D02*
X11627068Y44011935D01*
X11627068Y44011935D02*
X11684210Y44040506D01*
X11684210Y44040506D02*
X11798496Y44069078D01*
X11798496Y44069078D02*
X11855639Y44097649D01*
X11855639Y44097649D02*
X11884210Y44126221D01*
X11884210Y44126221D02*
X11912782Y44183363D01*
X11912782Y44183363D02*
X11912782Y44240506D01*
X11912782Y44240506D02*
X11884210Y44297649D01*
X11884210Y44297649D02*
X11855639Y44326221D01*
X11855639Y44326221D02*
X11798496Y44354792D01*
X11798496Y44354792D02*
X11655639Y44354792D01*
X11655639Y44354792D02*
X11569925Y44326221D01*
X10998496Y43754792D02*
X11341353Y43754792D01*
X11169924Y43754792D02*
X11169924Y44354792D01*
X11169924Y44354792D02*
X11227067Y44269078D01*
X11227067Y44269078D02*
X11284210Y44211935D01*
X11284210Y44211935D02*
X11341353Y44183363D01*
X13747699Y30768939D02*
X13747699Y31368939D01*
X13747699Y31083225D02*
X13404842Y31083225D01*
X13404842Y30768939D02*
X13404842Y31368939D01*
X13147700Y31311796D02*
X13119128Y31340368D01*
X13119128Y31340368D02*
X13061986Y31368939D01*
X13061986Y31368939D02*
X12919128Y31368939D01*
X12919128Y31368939D02*
X12861986Y31340368D01*
X12861986Y31340368D02*
X12833414Y31311796D01*
X12833414Y31311796D02*
X12804843Y31254653D01*
X12804843Y31254653D02*
X12804843Y31197510D01*
X12804843Y31197510D02*
X12833414Y31111796D01*
X12833414Y31111796D02*
X13176271Y30768939D01*
X13176271Y30768939D02*
X12804843Y30768939D01*
X12433414Y31368939D02*
X12319128Y31368939D01*
X12319128Y31368939D02*
X12261985Y31340368D01*
X12261985Y31340368D02*
X12204842Y31283225D01*
X12204842Y31283225D02*
X12176271Y31168939D01*
X12176271Y31168939D02*
X12176271Y30968939D01*
X12176271Y30968939D02*
X12204842Y30854653D01*
X12204842Y30854653D02*
X12261985Y30797510D01*
X12261985Y30797510D02*
X12319128Y30768939D01*
X12319128Y30768939D02*
X12433414Y30768939D01*
X12433414Y30768939D02*
X12490557Y30797510D01*
X12490557Y30797510D02*
X12547699Y30854653D01*
X12547699Y30854653D02*
X12576271Y30968939D01*
X12576271Y30968939D02*
X12576271Y31168939D01*
X12576271Y31168939D02*
X12547699Y31283225D01*
X12547699Y31283225D02*
X12490557Y31340368D01*
X12490557Y31340368D02*
X12433414Y31368939D01*
X11947700Y30797510D02*
X11861986Y30768939D01*
X11861986Y30768939D02*
X11719128Y30768939D01*
X11719128Y30768939D02*
X11661986Y30797510D01*
X11661986Y30797510D02*
X11633414Y30826082D01*
X11633414Y30826082D02*
X11604843Y30883225D01*
X11604843Y30883225D02*
X11604843Y30940368D01*
X11604843Y30940368D02*
X11633414Y30997510D01*
X11633414Y30997510D02*
X11661986Y31026082D01*
X11661986Y31026082D02*
X11719128Y31054653D01*
X11719128Y31054653D02*
X11833414Y31083225D01*
X11833414Y31083225D02*
X11890557Y31111796D01*
X11890557Y31111796D02*
X11919128Y31140368D01*
X11919128Y31140368D02*
X11947700Y31197510D01*
X11947700Y31197510D02*
X11947700Y31254653D01*
X11947700Y31254653D02*
X11919128Y31311796D01*
X11919128Y31311796D02*
X11890557Y31340368D01*
X11890557Y31340368D02*
X11833414Y31368939D01*
X11833414Y31368939D02*
X11690557Y31368939D01*
X11690557Y31368939D02*
X11604843Y31340368D01*
X11033414Y30768939D02*
X11376271Y30768939D01*
X11204842Y30768939D02*
X11204842Y31368939D01*
X11204842Y31368939D02*
X11261985Y31283225D01*
X11261985Y31283225D02*
X11319128Y31226082D01*
X11319128Y31226082D02*
X11376271Y31197510D01*
D11*
X38359580Y72216667D02*
X38407200Y72264286D01*
X38407200Y72264286D02*
X38454819Y72407143D01*
X38454819Y72407143D02*
X38454819Y72502381D01*
X38454819Y72502381D02*
X38407200Y72645238D01*
X38407200Y72645238D02*
X38311961Y72740476D01*
X38311961Y72740476D02*
X38216723Y72788095D01*
X38216723Y72788095D02*
X38026247Y72835714D01*
X38026247Y72835714D02*
X37883390Y72835714D01*
X37883390Y72835714D02*
X37692914Y72788095D01*
X37692914Y72788095D02*
X37597676Y72740476D01*
X37597676Y72740476D02*
X37502438Y72645238D01*
X37502438Y72645238D02*
X37454819Y72502381D01*
X37454819Y72502381D02*
X37454819Y72407143D01*
X37454819Y72407143D02*
X37502438Y72264286D01*
X37502438Y72264286D02*
X37550057Y72216667D01*
X37454819Y71883333D02*
X37454819Y71216667D01*
X37454819Y71216667D02*
X38454819Y71645238D01*
X26159580Y72692858D02*
X26207200Y72740477D01*
X26207200Y72740477D02*
X26254819Y72883334D01*
X26254819Y72883334D02*
X26254819Y72978572D01*
X26254819Y72978572D02*
X26207200Y73121429D01*
X26207200Y73121429D02*
X26111961Y73216667D01*
X26111961Y73216667D02*
X26016723Y73264286D01*
X26016723Y73264286D02*
X25826247Y73311905D01*
X25826247Y73311905D02*
X25683390Y73311905D01*
X25683390Y73311905D02*
X25492914Y73264286D01*
X25492914Y73264286D02*
X25397676Y73216667D01*
X25397676Y73216667D02*
X25302438Y73121429D01*
X25302438Y73121429D02*
X25254819Y72978572D01*
X25254819Y72978572D02*
X25254819Y72883334D01*
X25254819Y72883334D02*
X25302438Y72740477D01*
X25302438Y72740477D02*
X25350057Y72692858D01*
X26254819Y71740477D02*
X26254819Y72311905D01*
X26254819Y72026191D02*
X25254819Y72026191D01*
X25254819Y72026191D02*
X25397676Y72121429D01*
X25397676Y72121429D02*
X25492914Y72216667D01*
X25492914Y72216667D02*
X25540533Y72311905D01*
X25350057Y71359524D02*
X25302438Y71311905D01*
X25302438Y71311905D02*
X25254819Y71216667D01*
X25254819Y71216667D02*
X25254819Y70978572D01*
X25254819Y70978572D02*
X25302438Y70883334D01*
X25302438Y70883334D02*
X25350057Y70835715D01*
X25350057Y70835715D02*
X25445295Y70788096D01*
X25445295Y70788096D02*
X25540533Y70788096D01*
X25540533Y70788096D02*
X25683390Y70835715D01*
X25683390Y70835715D02*
X26254819Y71407143D01*
X26254819Y71407143D02*
X26254819Y70788096D01*
X32359580Y76042858D02*
X32407200Y76090477D01*
X32407200Y76090477D02*
X32454819Y76233334D01*
X32454819Y76233334D02*
X32454819Y76328572D01*
X32454819Y76328572D02*
X32407200Y76471429D01*
X32407200Y76471429D02*
X32311961Y76566667D01*
X32311961Y76566667D02*
X32216723Y76614286D01*
X32216723Y76614286D02*
X32026247Y76661905D01*
X32026247Y76661905D02*
X31883390Y76661905D01*
X31883390Y76661905D02*
X31692914Y76614286D01*
X31692914Y76614286D02*
X31597676Y76566667D01*
X31597676Y76566667D02*
X31502438Y76471429D01*
X31502438Y76471429D02*
X31454819Y76328572D01*
X31454819Y76328572D02*
X31454819Y76233334D01*
X31454819Y76233334D02*
X31502438Y76090477D01*
X31502438Y76090477D02*
X31550057Y76042858D01*
X32454819Y75090477D02*
X32454819Y75661905D01*
X32454819Y75376191D02*
X31454819Y75376191D01*
X31454819Y75376191D02*
X31597676Y75471429D01*
X31597676Y75471429D02*
X31692914Y75566667D01*
X31692914Y75566667D02*
X31740533Y75661905D01*
X31454819Y74185715D02*
X31454819Y74661905D01*
X31454819Y74661905D02*
X31931009Y74709524D01*
X31931009Y74709524D02*
X31883390Y74661905D01*
X31883390Y74661905D02*
X31835771Y74566667D01*
X31835771Y74566667D02*
X31835771Y74328572D01*
X31835771Y74328572D02*
X31883390Y74233334D01*
X31883390Y74233334D02*
X31931009Y74185715D01*
X31931009Y74185715D02*
X32026247Y74138096D01*
X32026247Y74138096D02*
X32264342Y74138096D01*
X32264342Y74138096D02*
X32359580Y74185715D01*
X32359580Y74185715D02*
X32407200Y74233334D01*
X32407200Y74233334D02*
X32454819Y74328572D01*
X32454819Y74328572D02*
X32454819Y74566667D01*
X32454819Y74566667D02*
X32407200Y74661905D01*
X32407200Y74661905D02*
X32359580Y74709524D01*
X22010666Y53886420D02*
X22058285Y53838800D01*
X22058285Y53838800D02*
X22201142Y53791181D01*
X22201142Y53791181D02*
X22296380Y53791181D01*
X22296380Y53791181D02*
X22439237Y53838800D01*
X22439237Y53838800D02*
X22534475Y53934039D01*
X22534475Y53934039D02*
X22582094Y54029277D01*
X22582094Y54029277D02*
X22629713Y54219753D01*
X22629713Y54219753D02*
X22629713Y54362610D01*
X22629713Y54362610D02*
X22582094Y54553086D01*
X22582094Y54553086D02*
X22534475Y54648324D01*
X22534475Y54648324D02*
X22439237Y54743562D01*
X22439237Y54743562D02*
X22296380Y54791181D01*
X22296380Y54791181D02*
X22201142Y54791181D01*
X22201142Y54791181D02*
X22058285Y54743562D01*
X22058285Y54743562D02*
X22010666Y54695943D01*
X21153523Y54791181D02*
X21343999Y54791181D01*
X21343999Y54791181D02*
X21439237Y54743562D01*
X21439237Y54743562D02*
X21486856Y54695943D01*
X21486856Y54695943D02*
X21582094Y54553086D01*
X21582094Y54553086D02*
X21629713Y54362610D01*
X21629713Y54362610D02*
X21629713Y53981658D01*
X21629713Y53981658D02*
X21582094Y53886420D01*
X21582094Y53886420D02*
X21534475Y53838800D01*
X21534475Y53838800D02*
X21439237Y53791181D01*
X21439237Y53791181D02*
X21248761Y53791181D01*
X21248761Y53791181D02*
X21153523Y53838800D01*
X21153523Y53838800D02*
X21105904Y53886420D01*
X21105904Y53886420D02*
X21058285Y53981658D01*
X21058285Y53981658D02*
X21058285Y54219753D01*
X21058285Y54219753D02*
X21105904Y54314991D01*
X21105904Y54314991D02*
X21153523Y54362610D01*
X21153523Y54362610D02*
X21248761Y54410229D01*
X21248761Y54410229D02*
X21439237Y54410229D01*
X21439237Y54410229D02*
X21534475Y54362610D01*
X21534475Y54362610D02*
X21582094Y54314991D01*
X21582094Y54314991D02*
X21629713Y54219753D01*
X38409580Y76042858D02*
X38457200Y76090477D01*
X38457200Y76090477D02*
X38504819Y76233334D01*
X38504819Y76233334D02*
X38504819Y76328572D01*
X38504819Y76328572D02*
X38457200Y76471429D01*
X38457200Y76471429D02*
X38361961Y76566667D01*
X38361961Y76566667D02*
X38266723Y76614286D01*
X38266723Y76614286D02*
X38076247Y76661905D01*
X38076247Y76661905D02*
X37933390Y76661905D01*
X37933390Y76661905D02*
X37742914Y76614286D01*
X37742914Y76614286D02*
X37647676Y76566667D01*
X37647676Y76566667D02*
X37552438Y76471429D01*
X37552438Y76471429D02*
X37504819Y76328572D01*
X37504819Y76328572D02*
X37504819Y76233334D01*
X37504819Y76233334D02*
X37552438Y76090477D01*
X37552438Y76090477D02*
X37600057Y76042858D01*
X38504819Y75090477D02*
X38504819Y75661905D01*
X38504819Y75376191D02*
X37504819Y75376191D01*
X37504819Y75376191D02*
X37647676Y75471429D01*
X37647676Y75471429D02*
X37742914Y75566667D01*
X37742914Y75566667D02*
X37790533Y75661905D01*
X37504819Y74757143D02*
X37504819Y74090477D01*
X37504819Y74090477D02*
X38504819Y74519048D01*
D12*
X34689762Y62425682D02*
X34689762Y63695682D01*
X33359285Y62546635D02*
X33419761Y62486158D01*
X33419761Y62486158D02*
X33601190Y62425682D01*
X33601190Y62425682D02*
X33722142Y62425682D01*
X33722142Y62425682D02*
X33903571Y62486158D01*
X33903571Y62486158D02*
X34024523Y62607111D01*
X34024523Y62607111D02*
X34085000Y62728063D01*
X34085000Y62728063D02*
X34145476Y62969968D01*
X34145476Y62969968D02*
X34145476Y63151397D01*
X34145476Y63151397D02*
X34085000Y63393301D01*
X34085000Y63393301D02*
X34024523Y63514254D01*
X34024523Y63514254D02*
X33903571Y63635206D01*
X33903571Y63635206D02*
X33722142Y63695682D01*
X33722142Y63695682D02*
X33601190Y63695682D01*
X33601190Y63695682D02*
X33419761Y63635206D01*
X33419761Y63635206D02*
X33359285Y63574730D01*
X32149761Y62425682D02*
X32875476Y62425682D01*
X32512619Y62425682D02*
X32512619Y63695682D01*
X32512619Y63695682D02*
X32633571Y63514254D01*
X32633571Y63514254D02*
X32754523Y63393301D01*
X32754523Y63393301D02*
X32875476Y63332825D01*
D11*
X26341666Y47740420D02*
X26389285Y47692800D01*
X26389285Y47692800D02*
X26532142Y47645181D01*
X26532142Y47645181D02*
X26627380Y47645181D01*
X26627380Y47645181D02*
X26770237Y47692800D01*
X26770237Y47692800D02*
X26865475Y47788039D01*
X26865475Y47788039D02*
X26913094Y47883277D01*
X26913094Y47883277D02*
X26960713Y48073753D01*
X26960713Y48073753D02*
X26960713Y48216610D01*
X26960713Y48216610D02*
X26913094Y48407086D01*
X26913094Y48407086D02*
X26865475Y48502324D01*
X26865475Y48502324D02*
X26770237Y48597562D01*
X26770237Y48597562D02*
X26627380Y48645181D01*
X26627380Y48645181D02*
X26532142Y48645181D01*
X26532142Y48645181D02*
X26389285Y48597562D01*
X26389285Y48597562D02*
X26341666Y48549943D01*
X25770237Y48216610D02*
X25865475Y48264229D01*
X25865475Y48264229D02*
X25913094Y48311848D01*
X25913094Y48311848D02*
X25960713Y48407086D01*
X25960713Y48407086D02*
X25960713Y48454705D01*
X25960713Y48454705D02*
X25913094Y48549943D01*
X25913094Y48549943D02*
X25865475Y48597562D01*
X25865475Y48597562D02*
X25770237Y48645181D01*
X25770237Y48645181D02*
X25579761Y48645181D01*
X25579761Y48645181D02*
X25484523Y48597562D01*
X25484523Y48597562D02*
X25436904Y48549943D01*
X25436904Y48549943D02*
X25389285Y48454705D01*
X25389285Y48454705D02*
X25389285Y48407086D01*
X25389285Y48407086D02*
X25436904Y48311848D01*
X25436904Y48311848D02*
X25484523Y48264229D01*
X25484523Y48264229D02*
X25579761Y48216610D01*
X25579761Y48216610D02*
X25770237Y48216610D01*
X25770237Y48216610D02*
X25865475Y48168991D01*
X25865475Y48168991D02*
X25913094Y48121372D01*
X25913094Y48121372D02*
X25960713Y48026134D01*
X25960713Y48026134D02*
X25960713Y47835658D01*
X25960713Y47835658D02*
X25913094Y47740420D01*
X25913094Y47740420D02*
X25865475Y47692800D01*
X25865475Y47692800D02*
X25770237Y47645181D01*
X25770237Y47645181D02*
X25579761Y47645181D01*
X25579761Y47645181D02*
X25484523Y47692800D01*
X25484523Y47692800D02*
X25436904Y47740420D01*
X25436904Y47740420D02*
X25389285Y47835658D01*
X25389285Y47835658D02*
X25389285Y48026134D01*
X25389285Y48026134D02*
X25436904Y48121372D01*
X25436904Y48121372D02*
X25484523Y48168991D01*
X25484523Y48168991D02*
X25579761Y48216610D01*
X26554666Y66586420D02*
X26602285Y66538800D01*
X26602285Y66538800D02*
X26745142Y66491181D01*
X26745142Y66491181D02*
X26840380Y66491181D01*
X26840380Y66491181D02*
X26983237Y66538800D01*
X26983237Y66538800D02*
X27078475Y66634039D01*
X27078475Y66634039D02*
X27126094Y66729277D01*
X27126094Y66729277D02*
X27173713Y66919753D01*
X27173713Y66919753D02*
X27173713Y67062610D01*
X27173713Y67062610D02*
X27126094Y67253086D01*
X27126094Y67253086D02*
X27078475Y67348324D01*
X27078475Y67348324D02*
X26983237Y67443562D01*
X26983237Y67443562D02*
X26840380Y67491181D01*
X26840380Y67491181D02*
X26745142Y67491181D01*
X26745142Y67491181D02*
X26602285Y67443562D01*
X26602285Y67443562D02*
X26554666Y67395943D01*
X25649904Y67491181D02*
X26126094Y67491181D01*
X26126094Y67491181D02*
X26173713Y67014991D01*
X26173713Y67014991D02*
X26126094Y67062610D01*
X26126094Y67062610D02*
X26030856Y67110229D01*
X26030856Y67110229D02*
X25792761Y67110229D01*
X25792761Y67110229D02*
X25697523Y67062610D01*
X25697523Y67062610D02*
X25649904Y67014991D01*
X25649904Y67014991D02*
X25602285Y66919753D01*
X25602285Y66919753D02*
X25602285Y66681658D01*
X25602285Y66681658D02*
X25649904Y66586420D01*
X25649904Y66586420D02*
X25697523Y66538800D01*
X25697523Y66538800D02*
X25792761Y66491181D01*
X25792761Y66491181D02*
X26030856Y66491181D01*
X26030856Y66491181D02*
X26126094Y66538800D01*
X26126094Y66538800D02*
X26173713Y66586420D01*
X29309580Y76042858D02*
X29357200Y76090477D01*
X29357200Y76090477D02*
X29404819Y76233334D01*
X29404819Y76233334D02*
X29404819Y76328572D01*
X29404819Y76328572D02*
X29357200Y76471429D01*
X29357200Y76471429D02*
X29261961Y76566667D01*
X29261961Y76566667D02*
X29166723Y76614286D01*
X29166723Y76614286D02*
X28976247Y76661905D01*
X28976247Y76661905D02*
X28833390Y76661905D01*
X28833390Y76661905D02*
X28642914Y76614286D01*
X28642914Y76614286D02*
X28547676Y76566667D01*
X28547676Y76566667D02*
X28452438Y76471429D01*
X28452438Y76471429D02*
X28404819Y76328572D01*
X28404819Y76328572D02*
X28404819Y76233334D01*
X28404819Y76233334D02*
X28452438Y76090477D01*
X28452438Y76090477D02*
X28500057Y76042858D01*
X29404819Y75090477D02*
X29404819Y75661905D01*
X29404819Y75376191D02*
X28404819Y75376191D01*
X28404819Y75376191D02*
X28547676Y75471429D01*
X28547676Y75471429D02*
X28642914Y75566667D01*
X28642914Y75566667D02*
X28690533Y75661905D01*
X28738152Y74233334D02*
X29404819Y74233334D01*
X28357200Y74471429D02*
X29071485Y74709524D01*
X29071485Y74709524D02*
X29071485Y74090477D01*
X35309580Y76042858D02*
X35357200Y76090477D01*
X35357200Y76090477D02*
X35404819Y76233334D01*
X35404819Y76233334D02*
X35404819Y76328572D01*
X35404819Y76328572D02*
X35357200Y76471429D01*
X35357200Y76471429D02*
X35261961Y76566667D01*
X35261961Y76566667D02*
X35166723Y76614286D01*
X35166723Y76614286D02*
X34976247Y76661905D01*
X34976247Y76661905D02*
X34833390Y76661905D01*
X34833390Y76661905D02*
X34642914Y76614286D01*
X34642914Y76614286D02*
X34547676Y76566667D01*
X34547676Y76566667D02*
X34452438Y76471429D01*
X34452438Y76471429D02*
X34404819Y76328572D01*
X34404819Y76328572D02*
X34404819Y76233334D01*
X34404819Y76233334D02*
X34452438Y76090477D01*
X34452438Y76090477D02*
X34500057Y76042858D01*
X35404819Y75090477D02*
X35404819Y75661905D01*
X35404819Y75376191D02*
X34404819Y75376191D01*
X34404819Y75376191D02*
X34547676Y75471429D01*
X34547676Y75471429D02*
X34642914Y75566667D01*
X34642914Y75566667D02*
X34690533Y75661905D01*
X34404819Y74233334D02*
X34404819Y74423810D01*
X34404819Y74423810D02*
X34452438Y74519048D01*
X34452438Y74519048D02*
X34500057Y74566667D01*
X34500057Y74566667D02*
X34642914Y74661905D01*
X34642914Y74661905D02*
X34833390Y74709524D01*
X34833390Y74709524D02*
X35214342Y74709524D01*
X35214342Y74709524D02*
X35309580Y74661905D01*
X35309580Y74661905D02*
X35357200Y74614286D01*
X35357200Y74614286D02*
X35404819Y74519048D01*
X35404819Y74519048D02*
X35404819Y74328572D01*
X35404819Y74328572D02*
X35357200Y74233334D01*
X35357200Y74233334D02*
X35309580Y74185715D01*
X35309580Y74185715D02*
X35214342Y74138096D01*
X35214342Y74138096D02*
X34976247Y74138096D01*
X34976247Y74138096D02*
X34881009Y74185715D01*
X34881009Y74185715D02*
X34833390Y74233334D01*
X34833390Y74233334D02*
X34785771Y74328572D01*
X34785771Y74328572D02*
X34785771Y74519048D01*
X34785771Y74519048D02*
X34833390Y74614286D01*
X34833390Y74614286D02*
X34881009Y74661905D01*
X34881009Y74661905D02*
X34976247Y74709524D01*
X29309580Y72692858D02*
X29357200Y72740477D01*
X29357200Y72740477D02*
X29404819Y72883334D01*
X29404819Y72883334D02*
X29404819Y72978572D01*
X29404819Y72978572D02*
X29357200Y73121429D01*
X29357200Y73121429D02*
X29261961Y73216667D01*
X29261961Y73216667D02*
X29166723Y73264286D01*
X29166723Y73264286D02*
X28976247Y73311905D01*
X28976247Y73311905D02*
X28833390Y73311905D01*
X28833390Y73311905D02*
X28642914Y73264286D01*
X28642914Y73264286D02*
X28547676Y73216667D01*
X28547676Y73216667D02*
X28452438Y73121429D01*
X28452438Y73121429D02*
X28404819Y72978572D01*
X28404819Y72978572D02*
X28404819Y72883334D01*
X28404819Y72883334D02*
X28452438Y72740477D01*
X28452438Y72740477D02*
X28500057Y72692858D01*
X29404819Y71740477D02*
X29404819Y72311905D01*
X29404819Y72026191D02*
X28404819Y72026191D01*
X28404819Y72026191D02*
X28547676Y72121429D01*
X28547676Y72121429D02*
X28642914Y72216667D01*
X28642914Y72216667D02*
X28690533Y72311905D01*
X29404819Y70788096D02*
X29404819Y71359524D01*
X29404819Y71073810D02*
X28404819Y71073810D01*
X28404819Y71073810D02*
X28547676Y71169048D01*
X28547676Y71169048D02*
X28642914Y71264286D01*
X28642914Y71264286D02*
X28690533Y71359524D01*
X26099580Y76042858D02*
X26147200Y76090477D01*
X26147200Y76090477D02*
X26194819Y76233334D01*
X26194819Y76233334D02*
X26194819Y76328572D01*
X26194819Y76328572D02*
X26147200Y76471429D01*
X26147200Y76471429D02*
X26051961Y76566667D01*
X26051961Y76566667D02*
X25956723Y76614286D01*
X25956723Y76614286D02*
X25766247Y76661905D01*
X25766247Y76661905D02*
X25623390Y76661905D01*
X25623390Y76661905D02*
X25432914Y76614286D01*
X25432914Y76614286D02*
X25337676Y76566667D01*
X25337676Y76566667D02*
X25242438Y76471429D01*
X25242438Y76471429D02*
X25194819Y76328572D01*
X25194819Y76328572D02*
X25194819Y76233334D01*
X25194819Y76233334D02*
X25242438Y76090477D01*
X25242438Y76090477D02*
X25290057Y76042858D01*
X26194819Y75090477D02*
X26194819Y75661905D01*
X26194819Y75376191D02*
X25194819Y75376191D01*
X25194819Y75376191D02*
X25337676Y75471429D01*
X25337676Y75471429D02*
X25432914Y75566667D01*
X25432914Y75566667D02*
X25480533Y75661905D01*
X25194819Y74757143D02*
X25194819Y74138096D01*
X25194819Y74138096D02*
X25575771Y74471429D01*
X25575771Y74471429D02*
X25575771Y74328572D01*
X25575771Y74328572D02*
X25623390Y74233334D01*
X25623390Y74233334D02*
X25671009Y74185715D01*
X25671009Y74185715D02*
X25766247Y74138096D01*
X25766247Y74138096D02*
X26004342Y74138096D01*
X26004342Y74138096D02*
X26099580Y74185715D01*
X26099580Y74185715D02*
X26147200Y74233334D01*
X26147200Y74233334D02*
X26194819Y74328572D01*
X26194819Y74328572D02*
X26194819Y74614286D01*
X26194819Y74614286D02*
X26147200Y74709524D01*
X26147200Y74709524D02*
X26099580Y74757143D01*
X32309580Y72692858D02*
X32357200Y72740477D01*
X32357200Y72740477D02*
X32404819Y72883334D01*
X32404819Y72883334D02*
X32404819Y72978572D01*
X32404819Y72978572D02*
X32357200Y73121429D01*
X32357200Y73121429D02*
X32261961Y73216667D01*
X32261961Y73216667D02*
X32166723Y73264286D01*
X32166723Y73264286D02*
X31976247Y73311905D01*
X31976247Y73311905D02*
X31833390Y73311905D01*
X31833390Y73311905D02*
X31642914Y73264286D01*
X31642914Y73264286D02*
X31547676Y73216667D01*
X31547676Y73216667D02*
X31452438Y73121429D01*
X31452438Y73121429D02*
X31404819Y72978572D01*
X31404819Y72978572D02*
X31404819Y72883334D01*
X31404819Y72883334D02*
X31452438Y72740477D01*
X31452438Y72740477D02*
X31500057Y72692858D01*
X32404819Y71740477D02*
X32404819Y72311905D01*
X32404819Y72026191D02*
X31404819Y72026191D01*
X31404819Y72026191D02*
X31547676Y72121429D01*
X31547676Y72121429D02*
X31642914Y72216667D01*
X31642914Y72216667D02*
X31690533Y72311905D01*
X31404819Y71121429D02*
X31404819Y71026191D01*
X31404819Y71026191D02*
X31452438Y70930953D01*
X31452438Y70930953D02*
X31500057Y70883334D01*
X31500057Y70883334D02*
X31595295Y70835715D01*
X31595295Y70835715D02*
X31785771Y70788096D01*
X31785771Y70788096D02*
X32023866Y70788096D01*
X32023866Y70788096D02*
X32214342Y70835715D01*
X32214342Y70835715D02*
X32309580Y70883334D01*
X32309580Y70883334D02*
X32357200Y70930953D01*
X32357200Y70930953D02*
X32404819Y71026191D01*
X32404819Y71026191D02*
X32404819Y71121429D01*
X32404819Y71121429D02*
X32357200Y71216667D01*
X32357200Y71216667D02*
X32309580Y71264286D01*
X32309580Y71264286D02*
X32214342Y71311905D01*
X32214342Y71311905D02*
X32023866Y71359524D01*
X32023866Y71359524D02*
X31785771Y71359524D01*
X31785771Y71359524D02*
X31595295Y71311905D01*
X31595295Y71311905D02*
X31500057Y71264286D01*
X31500057Y71264286D02*
X31452438Y71216667D01*
X31452438Y71216667D02*
X31404819Y71121429D01*
X35309580Y72216667D02*
X35357200Y72264286D01*
X35357200Y72264286D02*
X35404819Y72407143D01*
X35404819Y72407143D02*
X35404819Y72502381D01*
X35404819Y72502381D02*
X35357200Y72645238D01*
X35357200Y72645238D02*
X35261961Y72740476D01*
X35261961Y72740476D02*
X35166723Y72788095D01*
X35166723Y72788095D02*
X34976247Y72835714D01*
X34976247Y72835714D02*
X34833390Y72835714D01*
X34833390Y72835714D02*
X34642914Y72788095D01*
X34642914Y72788095D02*
X34547676Y72740476D01*
X34547676Y72740476D02*
X34452438Y72645238D01*
X34452438Y72645238D02*
X34404819Y72502381D01*
X34404819Y72502381D02*
X34404819Y72407143D01*
X34404819Y72407143D02*
X34452438Y72264286D01*
X34452438Y72264286D02*
X34500057Y72216667D01*
X35404819Y71740476D02*
X35404819Y71550000D01*
X35404819Y71550000D02*
X35357200Y71454762D01*
X35357200Y71454762D02*
X35309580Y71407143D01*
X35309580Y71407143D02*
X35166723Y71311905D01*
X35166723Y71311905D02*
X34976247Y71264286D01*
X34976247Y71264286D02*
X34595295Y71264286D01*
X34595295Y71264286D02*
X34500057Y71311905D01*
X34500057Y71311905D02*
X34452438Y71359524D01*
X34452438Y71359524D02*
X34404819Y71454762D01*
X34404819Y71454762D02*
X34404819Y71645238D01*
X34404819Y71645238D02*
X34452438Y71740476D01*
X34452438Y71740476D02*
X34500057Y71788095D01*
X34500057Y71788095D02*
X34595295Y71835714D01*
X34595295Y71835714D02*
X34833390Y71835714D01*
X34833390Y71835714D02*
X34928628Y71788095D01*
X34928628Y71788095D02*
X34976247Y71740476D01*
X34976247Y71740476D02*
X35023866Y71645238D01*
X35023866Y71645238D02*
X35023866Y71454762D01*
X35023866Y71454762D02*
X34976247Y71359524D01*
X34976247Y71359524D02*
X34928628Y71311905D01*
X34928628Y71311905D02*
X34833390Y71264286D01*
X37284819Y66882858D02*
X36808628Y67216191D01*
X37284819Y67454286D02*
X36284819Y67454286D01*
X36284819Y67454286D02*
X36284819Y67073334D01*
X36284819Y67073334D02*
X36332438Y66978096D01*
X36332438Y66978096D02*
X36380057Y66930477D01*
X36380057Y66930477D02*
X36475295Y66882858D01*
X36475295Y66882858D02*
X36618152Y66882858D01*
X36618152Y66882858D02*
X36713390Y66930477D01*
X36713390Y66930477D02*
X36761009Y66978096D01*
X36761009Y66978096D02*
X36808628Y67073334D01*
X36808628Y67073334D02*
X36808628Y67454286D01*
X37284819Y65930477D02*
X37284819Y66501905D01*
X37284819Y66216191D02*
X36284819Y66216191D01*
X36284819Y66216191D02*
X36427676Y66311429D01*
X36427676Y66311429D02*
X36522914Y66406667D01*
X36522914Y66406667D02*
X36570533Y66501905D01*
X36618152Y65073334D02*
X37284819Y65073334D01*
X36237200Y65311429D02*
X36951485Y65549524D01*
X36951485Y65549524D02*
X36951485Y64930477D01*
D13*
G04 #@! TO.C,M5*
X37739000Y53237001D02*
X46839000Y53237001D01*
X37739000Y50136998D02*
X37739000Y51137000D01*
X37739000Y50136998D02*
X46839000Y50136998D01*
G04 #@! TO.C,M4*
X28947000Y45057000D02*
X28947000Y38657000D01*
X28947000Y35457000D02*
X28947000Y36757000D01*
X28947000Y35457000D02*
X43947000Y35457000D01*
X43347000Y45057000D02*
X28947000Y45057000D01*
X43947000Y35457000D02*
X43947000Y40557000D01*
G04 #@! TO.C,M1*
X69690635Y11443633D02*
X69665232Y1203049D01*
X69691638Y1176643D02*
X69665232Y1203049D01*
X69824696Y11577694D02*
X69690635Y11443633D01*
X86172596Y11577694D02*
X69824696Y11577694D01*
X86248646Y1176645D02*
X69691638Y1176643D01*
X87698646Y10051644D02*
X86172596Y11577694D01*
X87698646Y10051644D02*
X87698646Y2626645D01*
X87698646Y2626645D02*
X86248646Y1176645D01*
G04 #@! TO.C,M2*
X49128004Y82056999D02*
X49128004Y85257002D01*
X49128004Y69956999D02*
X49128004Y80357001D01*
X49128004Y68056999D02*
X49128004Y68356999D01*
X49128004Y68056999D02*
X64528004Y68056999D01*
X50628004Y88656997D02*
X65928003Y88656999D01*
X65928001Y81957001D02*
X65928001Y86757001D01*
X65928001Y75756999D02*
X65928001Y78456999D01*
X65928001Y73057001D02*
X65928001Y74157004D01*
X65928001Y69506999D02*
X65928006Y71056999D01*
X65928003Y88357001D02*
X65928003Y88656999D01*
G04 #@! TO.C,M3*
X51294999Y61565002D02*
X51294999Y19465002D01*
X51294999Y61565002D02*
X91194998Y61565002D01*
X51294999Y19465002D02*
X91194998Y19464999D01*
X91194998Y61565002D02*
X91194998Y20764999D01*
X91194998Y20764999D02*
X91194998Y19464999D01*
G04 #@! TO.C,M6*
X37993000Y27583001D02*
X47093000Y27583001D01*
X37993000Y24482998D02*
X37993000Y25483000D01*
X37993000Y24482998D02*
X47093000Y24482998D01*
D14*
G04 #@! TO.C,C7*
X38735000Y72211252D02*
X38735000Y71688748D01*
X40205000Y72211252D02*
X40205000Y71688748D01*
G04 #@! TO.C,C12*
X26695000Y72211252D02*
X26695000Y71688748D01*
X28165000Y72211252D02*
X28165000Y71688748D01*
G04 #@! TO.C,C15*
X32705000Y75138748D02*
X32705000Y75661252D01*
X34175000Y75138748D02*
X34175000Y75661252D01*
G04 #@! TO.C,C6*
X21736164Y53446000D02*
X21951836Y53446000D01*
X21736164Y52726000D02*
X21951836Y52726000D01*
G04 #@! TO.C,C17*
X38725000Y75138748D02*
X38725000Y75661252D01*
X40195000Y75138748D02*
X40195000Y75661252D01*
D13*
G04 #@! TO.C,IC1*
X25256000Y62275000D02*
X31656000Y62275000D01*
X25256000Y54775000D02*
X31656000Y54775000D01*
D15*
X30873000Y52432000D02*
X30873000Y52432000D01*
X30975000Y52432000D02*
X30975000Y52432000D01*
X30873000Y52432000D02*
G75*
G02*
X30975000Y52432000I51000J0D01*
G01*
X30975000Y52432000D02*
G75*
G02*
X30873000Y52432000I-51000J0D01*
G01*
D14*
G04 #@! TO.C,C8*
X26315580Y50040000D02*
X26034420Y50040000D01*
X26315580Y49020000D02*
X26034420Y49020000D01*
G04 #@! TO.C,C5*
X26280164Y66146000D02*
X26495836Y66146000D01*
X26280164Y65426000D02*
X26495836Y65426000D01*
G04 #@! TO.C,C14*
X29695000Y75138748D02*
X29695000Y75661252D01*
X31165000Y75138748D02*
X31165000Y75661252D01*
G04 #@! TO.C,C16*
X35715000Y75138748D02*
X35715000Y75661252D01*
X37185000Y75138748D02*
X37185000Y75661252D01*
G04 #@! TO.C,C11*
X29705000Y72211252D02*
X29705000Y71688748D01*
X31175000Y72211252D02*
X31175000Y71688748D01*
G04 #@! TO.C,C13*
X26685000Y75138748D02*
X26685000Y75661252D01*
X28155000Y75138748D02*
X28155000Y75661252D01*
G04 #@! TO.C,C10*
X32715000Y72211252D02*
X32715000Y71688748D01*
X34185000Y72211252D02*
X34185000Y71688748D01*
G04 #@! TO.C,C9*
X35725000Y72211252D02*
X35725000Y71688748D01*
X37195000Y72211252D02*
X37195000Y71688748D01*
G04 #@! TO.C,R14*
X37620000Y66086359D02*
X37620000Y66393641D01*
X38380000Y66086359D02*
X38380000Y66393641D01*
G04 #@! TD*
M02*
