G04 #@! TF.GenerationSoftware,KiCad,Pcbnew,8.0.6-8.0.6-0~ubuntu22.04.1*
G04 #@! TF.CreationDate,2024-11-14T01:32:20+00:00*
G04 #@! TF.ProjectId,hellenbremen,68656c6c-656e-4627-9265-6d656e2e6b69,rev?*
G04 #@! TF.SameCoordinates,Original*
G04 #@! TF.FileFunction,Soldermask,Top*
G04 #@! TF.FilePolarity,Negative*
%FSLAX46Y46*%
G04 Gerber Fmt 4.6, Leading zero omitted, Abs format (unit mm)*
G04 Created by KiCad (PCBNEW 8.0.6-8.0.6-0~ubuntu22.04.1) date 2024-11-14 01:32:20*
%MOMM*%
%LPD*%
G01*
G04 APERTURE LIST*
%ADD10C,2.000000*%
%ADD11C,0.600000*%
%ADD12C,1.600000*%
%ADD13C,1.500000*%
%ADD14R,0.711200X1.295400*%
%ADD15R,1.295400X0.711200*%
%ADD16R,0.889000X0.889000*%
%ADD17C,0.650000*%
G04 APERTURE END LIST*
G04 #@! TO.C,R2*
G36*
G01*
X93342000Y-84021000D02*
X93342000Y-84391000D01*
G75*
G02*
X93207000Y-84526000I-135000J0D01*
G01*
X92937000Y-84526000D01*
G75*
G02*
X92802000Y-84391000I0J135000D01*
G01*
X92802000Y-84021000D01*
G75*
G02*
X92937000Y-83886000I135000J0D01*
G01*
X93207000Y-83886000D01*
G75*
G02*
X93342000Y-84021000I0J-135000D01*
G01*
G37*
G36*
G01*
X92322000Y-84021000D02*
X92322000Y-84391000D01*
G75*
G02*
X92187000Y-84526000I-135000J0D01*
G01*
X91917000Y-84526000D01*
G75*
G02*
X91782000Y-84391000I0J135000D01*
G01*
X91782000Y-84021000D01*
G75*
G02*
X91917000Y-83886000I135000J0D01*
G01*
X92187000Y-83886000D01*
G75*
G02*
X92322000Y-84021000I0J-135000D01*
G01*
G37*
G04 #@! TD*
G04 #@! TO.C,R1*
G36*
G01*
X93340000Y-80973000D02*
X93340000Y-81343000D01*
G75*
G02*
X93205000Y-81478000I-135000J0D01*
G01*
X92935000Y-81478000D01*
G75*
G02*
X92800000Y-81343000I0J135000D01*
G01*
X92800000Y-80973000D01*
G75*
G02*
X92935000Y-80838000I135000J0D01*
G01*
X93205000Y-80838000D01*
G75*
G02*
X93340000Y-80973000I0J-135000D01*
G01*
G37*
G36*
G01*
X92320000Y-80973000D02*
X92320000Y-81343000D01*
G75*
G02*
X92185000Y-81478000I-135000J0D01*
G01*
X91915000Y-81478000D01*
G75*
G02*
X91780000Y-81343000I0J135000D01*
G01*
X91780000Y-80973000D01*
G75*
G02*
X91915000Y-80838000I135000J0D01*
G01*
X92185000Y-80838000D01*
G75*
G02*
X92320000Y-80973000I0J-135000D01*
G01*
G37*
G04 #@! TD*
D10*
G04 #@! TO.C,TP1*
X98656000Y-44328000D03*
G04 #@! TD*
D11*
G04 #@! TO.C,M5*
X38438995Y-47401003D03*
X38438995Y-48351003D03*
X38438995Y-49301001D03*
X29738995Y-48301003D03*
X29738995Y-47401003D03*
G04 #@! TD*
D10*
G04 #@! TO.C,J1*
X12756000Y-22500000D03*
X12756000Y-28300000D03*
X15086000Y-25400000D03*
X20886000Y-22500000D03*
X20886000Y-28300000D03*
D12*
X20886000Y-81920000D03*
X20886000Y-79380000D03*
X20886000Y-76840000D03*
X20886000Y-74300000D03*
X20886000Y-71760000D03*
X20886000Y-69220000D03*
X20886000Y-66680000D03*
X20886000Y-64140000D03*
X20886000Y-61600000D03*
X20886000Y-59060000D03*
X20886000Y-56520000D03*
X20886000Y-53980000D03*
X20886000Y-51440000D03*
X20886000Y-48900000D03*
X20886000Y-46360000D03*
X20886000Y-43820000D03*
X20886000Y-41280000D03*
X20886000Y-38740000D03*
X20886000Y-36200000D03*
X18346000Y-81920000D03*
X18346000Y-79380000D03*
X18346000Y-76840000D03*
X18346000Y-74300000D03*
X18346000Y-71760000D03*
X18346000Y-69220000D03*
X18346000Y-66680000D03*
X18346000Y-64140000D03*
X18346000Y-61600000D03*
X18346000Y-59060000D03*
X18346000Y-56520000D03*
X18346000Y-53980000D03*
X18346000Y-51440000D03*
X18346000Y-48900000D03*
X18346000Y-46360000D03*
X18346000Y-43820000D03*
X18346000Y-41280000D03*
X18346000Y-38740000D03*
X18346000Y-36200000D03*
X12296000Y-81920000D03*
X12296000Y-79380000D03*
X12296000Y-76840000D03*
X12296000Y-74300000D03*
X12296000Y-71760000D03*
X12296000Y-69220000D03*
X12296000Y-66680000D03*
X12296000Y-64140000D03*
X12296000Y-61600000D03*
X12296000Y-59060000D03*
X12296000Y-56520000D03*
X12296000Y-53980000D03*
X12296000Y-51440000D03*
X12296000Y-48900000D03*
X12296000Y-46360000D03*
X12296000Y-43820000D03*
X12296000Y-41280000D03*
X12296000Y-38740000D03*
X12296000Y-36200000D03*
X9756000Y-81920000D03*
X9756000Y-79380000D03*
X9756000Y-76840000D03*
X9756000Y-74300000D03*
X9756000Y-71760000D03*
X9756000Y-69220000D03*
X9756000Y-66680000D03*
X9756000Y-64140000D03*
X9756000Y-61600000D03*
X9756000Y-59060000D03*
X9756000Y-56520000D03*
X9756000Y-53980000D03*
X9756000Y-51440000D03*
X9756000Y-48900000D03*
X9756000Y-46360000D03*
X9756000Y-43820000D03*
X9756000Y-41280000D03*
X9756000Y-38740000D03*
X9756000Y-36200000D03*
G04 #@! TD*
D10*
G04 #@! TO.C,TP3*
X98656000Y-50932000D03*
G04 #@! TD*
D13*
G04 #@! TO.C,M2*
X45062995Y-62943001D03*
X45062995Y-69342998D03*
X45062995Y-71243001D03*
X45062995Y-75543001D03*
D11*
X45512994Y-77942998D03*
X45512994Y-78942999D03*
D13*
X45062995Y-81793001D03*
X29562998Y-62492999D03*
X29562998Y-64342998D03*
X29562998Y-69293001D03*
X29562998Y-81342999D03*
G04 #@! TD*
D14*
G04 #@! TO.C,U1*
X100900001Y-12024000D03*
X99900000Y-12024000D03*
X98900000Y-12024000D03*
X97899999Y-12024000D03*
X96900001Y-12024000D03*
X95900001Y-12024000D03*
X94900000Y-12024000D03*
X93899999Y-12024000D03*
X92899999Y-12024000D03*
X91900001Y-12024000D03*
X90900000Y-12024000D03*
X89900000Y-12024000D03*
X88899999Y-12024000D03*
D15*
X87250000Y-13423999D03*
X87250000Y-14424000D03*
X87250000Y-15424000D03*
X87250000Y-16424001D03*
X87250000Y-17423999D03*
X87250000Y-18423999D03*
X87250000Y-19424000D03*
X87250000Y-20424001D03*
X87250000Y-21424001D03*
X87250000Y-22423999D03*
X87250000Y-23424000D03*
X87250000Y-24424000D03*
X87250000Y-25424001D03*
D14*
X88899999Y-26824000D03*
X89900000Y-26824000D03*
X90900000Y-26824000D03*
X91900001Y-26824000D03*
X92899999Y-26824000D03*
X93899999Y-26824000D03*
X94900000Y-26824000D03*
X95900001Y-26824000D03*
X96900001Y-26824000D03*
X97899999Y-26824000D03*
X98900000Y-26824000D03*
X99900000Y-26824000D03*
X100900001Y-26824000D03*
D16*
X95100000Y-17544000D03*
X95100000Y-18744000D03*
X95100000Y-19944000D03*
X93900000Y-17544000D03*
X93900000Y-18744000D03*
X93900000Y-19944000D03*
X92700000Y-17544000D03*
X92700000Y-18744000D03*
X92700000Y-19944000D03*
G04 #@! TD*
D10*
G04 #@! TO.C,TP4*
X98656000Y-54488000D03*
G04 #@! TD*
G04 #@! TO.C,TP2*
X98656000Y-47630000D03*
G04 #@! TD*
D17*
G04 #@! TO.C,J3*
X95797000Y-85826000D03*
X95797000Y-80046000D03*
G36*
G01*
X95147000Y-86436000D02*
X94297000Y-86436000D01*
G75*
G02*
X94147000Y-86286000I0J150000D01*
G01*
X94147000Y-85986000D01*
G75*
G02*
X94297000Y-85836000I150000J0D01*
G01*
X95147000Y-85836000D01*
G75*
G02*
X95297000Y-85986000I0J-150000D01*
G01*
X95297000Y-86286000D01*
G75*
G02*
X95147000Y-86436000I-150000J0D01*
G01*
G37*
G36*
G01*
X95147000Y-85636000D02*
X94297000Y-85636000D01*
G75*
G02*
X94147000Y-85486000I0J150000D01*
G01*
X94147000Y-85186000D01*
G75*
G02*
X94297000Y-85036000I150000J0D01*
G01*
X95147000Y-85036000D01*
G75*
G02*
X95297000Y-85186000I0J-150000D01*
G01*
X95297000Y-85486000D01*
G75*
G02*
X95147000Y-85636000I-150000J0D01*
G01*
G37*
G36*
G01*
X95222000Y-84336000D02*
X94222000Y-84336000D01*
G75*
G02*
X94147000Y-84261000I0J75000D01*
G01*
X94147000Y-84111000D01*
G75*
G02*
X94222000Y-84036000I75000J0D01*
G01*
X95222000Y-84036000D01*
G75*
G02*
X95297000Y-84111000I0J-75000D01*
G01*
X95297000Y-84261000D01*
G75*
G02*
X95222000Y-84336000I-75000J0D01*
G01*
G37*
G36*
G01*
X95222000Y-83336000D02*
X94222000Y-83336000D01*
G75*
G02*
X94147000Y-83261000I0J75000D01*
G01*
X94147000Y-83111000D01*
G75*
G02*
X94222000Y-83036000I75000J0D01*
G01*
X95222000Y-83036000D01*
G75*
G02*
X95297000Y-83111000I0J-75000D01*
G01*
X95297000Y-83261000D01*
G75*
G02*
X95222000Y-83336000I-75000J0D01*
G01*
G37*
G36*
G01*
X95222000Y-82836000D02*
X94222000Y-82836000D01*
G75*
G02*
X94147000Y-82761000I0J75000D01*
G01*
X94147000Y-82611000D01*
G75*
G02*
X94222000Y-82536000I75000J0D01*
G01*
X95222000Y-82536000D01*
G75*
G02*
X95297000Y-82611000I0J-75000D01*
G01*
X95297000Y-82761000D01*
G75*
G02*
X95222000Y-82836000I-75000J0D01*
G01*
G37*
G36*
G01*
X95222000Y-81836000D02*
X94222000Y-81836000D01*
G75*
G02*
X94147000Y-81761000I0J75000D01*
G01*
X94147000Y-81611000D01*
G75*
G02*
X94222000Y-81536000I75000J0D01*
G01*
X95222000Y-81536000D01*
G75*
G02*
X95297000Y-81611000I0J-75000D01*
G01*
X95297000Y-81761000D01*
G75*
G02*
X95222000Y-81836000I-75000J0D01*
G01*
G37*
G36*
G01*
X95147000Y-80836000D02*
X94297000Y-80836000D01*
G75*
G02*
X94147000Y-80686000I0J150000D01*
G01*
X94147000Y-80386000D01*
G75*
G02*
X94297000Y-80236000I150000J0D01*
G01*
X95147000Y-80236000D01*
G75*
G02*
X95297000Y-80386000I0J-150000D01*
G01*
X95297000Y-80686000D01*
G75*
G02*
X95147000Y-80836000I-150000J0D01*
G01*
G37*
G36*
G01*
X95147000Y-80036000D02*
X94297000Y-80036000D01*
G75*
G02*
X94147000Y-79886000I0J150000D01*
G01*
X94147000Y-79586000D01*
G75*
G02*
X94297000Y-79436000I150000J0D01*
G01*
X95147000Y-79436000D01*
G75*
G02*
X95297000Y-79586000I0J-150000D01*
G01*
X95297000Y-79886000D01*
G75*
G02*
X95147000Y-80036000I-150000J0D01*
G01*
G37*
G36*
G01*
X95147000Y-80036000D02*
X94297000Y-80036000D01*
G75*
G02*
X94147000Y-79886000I0J150000D01*
G01*
X94147000Y-79586000D01*
G75*
G02*
X94297000Y-79436000I150000J0D01*
G01*
X95147000Y-79436000D01*
G75*
G02*
X95297000Y-79586000I0J-150000D01*
G01*
X95297000Y-79886000D01*
G75*
G02*
X95147000Y-80036000I-150000J0D01*
G01*
G37*
G36*
G01*
X95147000Y-80836000D02*
X94297000Y-80836000D01*
G75*
G02*
X94147000Y-80686000I0J150000D01*
G01*
X94147000Y-80386000D01*
G75*
G02*
X94297000Y-80236000I150000J0D01*
G01*
X95147000Y-80236000D01*
G75*
G02*
X95297000Y-80386000I0J-150000D01*
G01*
X95297000Y-80686000D01*
G75*
G02*
X95147000Y-80836000I-150000J0D01*
G01*
G37*
G36*
G01*
X95222000Y-81336000D02*
X94222000Y-81336000D01*
G75*
G02*
X94147000Y-81261000I0J75000D01*
G01*
X94147000Y-81111000D01*
G75*
G02*
X94222000Y-81036000I75000J0D01*
G01*
X95222000Y-81036000D01*
G75*
G02*
X95297000Y-81111000I0J-75000D01*
G01*
X95297000Y-81261000D01*
G75*
G02*
X95222000Y-81336000I-75000J0D01*
G01*
G37*
G36*
G01*
X95222000Y-82336000D02*
X94222000Y-82336000D01*
G75*
G02*
X94147000Y-82261000I0J75000D01*
G01*
X94147000Y-82111000D01*
G75*
G02*
X94222000Y-82036000I75000J0D01*
G01*
X95222000Y-82036000D01*
G75*
G02*
X95297000Y-82111000I0J-75000D01*
G01*
X95297000Y-82261000D01*
G75*
G02*
X95222000Y-82336000I-75000J0D01*
G01*
G37*
G36*
G01*
X95222000Y-83836000D02*
X94222000Y-83836000D01*
G75*
G02*
X94147000Y-83761000I0J75000D01*
G01*
X94147000Y-83611000D01*
G75*
G02*
X94222000Y-83536000I75000J0D01*
G01*
X95222000Y-83536000D01*
G75*
G02*
X95297000Y-83611000I0J-75000D01*
G01*
X95297000Y-83761000D01*
G75*
G02*
X95222000Y-83836000I-75000J0D01*
G01*
G37*
G36*
G01*
X95222000Y-84836000D02*
X94222000Y-84836000D01*
G75*
G02*
X94147000Y-84761000I0J75000D01*
G01*
X94147000Y-84611000D01*
G75*
G02*
X94222000Y-84536000I75000J0D01*
G01*
X95222000Y-84536000D01*
G75*
G02*
X95297000Y-84611000I0J-75000D01*
G01*
X95297000Y-84761000D01*
G75*
G02*
X95222000Y-84836000I-75000J0D01*
G01*
G37*
G36*
G01*
X95147000Y-85636000D02*
X94297000Y-85636000D01*
G75*
G02*
X94147000Y-85486000I0J150000D01*
G01*
X94147000Y-85186000D01*
G75*
G02*
X94297000Y-85036000I150000J0D01*
G01*
X95147000Y-85036000D01*
G75*
G02*
X95297000Y-85186000I0J-150000D01*
G01*
X95297000Y-85486000D01*
G75*
G02*
X95147000Y-85636000I-150000J0D01*
G01*
G37*
G36*
G01*
X95147000Y-86436000D02*
X94297000Y-86436000D01*
G75*
G02*
X94147000Y-86286000I0J150000D01*
G01*
X94147000Y-85986000D01*
G75*
G02*
X94297000Y-85836000I150000J0D01*
G01*
X95147000Y-85836000D01*
G75*
G02*
X95297000Y-85986000I0J-150000D01*
G01*
X95297000Y-86286000D01*
G75*
G02*
X95147000Y-86436000I-150000J0D01*
G01*
G37*
G36*
G01*
X96047000Y-89136000D02*
X94547000Y-89136000D01*
G75*
G02*
X94297000Y-88886000I0J250000D01*
G01*
X94297000Y-87206000D01*
G75*
G02*
X94547000Y-86956000I250000J0D01*
G01*
X96047000Y-86956000D01*
G75*
G02*
X96297000Y-87206000I0J-250000D01*
G01*
X96297000Y-88886000D01*
G75*
G02*
X96047000Y-89136000I-250000J0D01*
G01*
G37*
G36*
G01*
X99977000Y-89136000D02*
X98477000Y-89136000D01*
G75*
G02*
X98227000Y-88886000I0J250000D01*
G01*
X98227000Y-87206000D01*
G75*
G02*
X98477000Y-86956000I250000J0D01*
G01*
X99977000Y-86956000D01*
G75*
G02*
X100227000Y-87206000I0J-250000D01*
G01*
X100227000Y-88886000D01*
G75*
G02*
X99977000Y-89136000I-250000J0D01*
G01*
G37*
G36*
G01*
X96047000Y-78916000D02*
X94547000Y-78916000D01*
G75*
G02*
X94297000Y-78666000I0J250000D01*
G01*
X94297000Y-76986000D01*
G75*
G02*
X94547000Y-76736000I250000J0D01*
G01*
X96047000Y-76736000D01*
G75*
G02*
X96297000Y-76986000I0J-250000D01*
G01*
X96297000Y-78666000D01*
G75*
G02*
X96047000Y-78916000I-250000J0D01*
G01*
G37*
G36*
G01*
X99977000Y-78916000D02*
X98477000Y-78916000D01*
G75*
G02*
X98227000Y-78666000I0J250000D01*
G01*
X98227000Y-76986000D01*
G75*
G02*
X98477000Y-76736000I250000J0D01*
G01*
X99977000Y-76736000D01*
G75*
G02*
X100227000Y-76986000I0J-250000D01*
G01*
X100227000Y-78666000D01*
G75*
G02*
X99977000Y-78916000I-250000J0D01*
G01*
G37*
G04 #@! TD*
D11*
G04 #@! TO.C,M4*
X44588995Y-53649501D03*
X44588995Y-54849501D03*
X44588995Y-52449501D03*
X44588995Y-51249501D03*
X30163995Y-57709501D03*
X30163995Y-58709501D03*
G04 #@! TD*
M02*
