M48
; DRILL file {KiCad 8.0.6-8.0.6-0~ubuntu22.04.1} date 2024-11-26T10:45:18+0000
; FORMAT={2:4/ absolute / inch / suppress leading zeros}
; #@! TF.CreationDate,2024-11-26T10:45:18+00:00
; #@! TF.GenerationSoftware,Kicad,Pcbnew,8.0.6-8.0.6-0~ubuntu22.04.1
; #@! TF.FileFunction,MixedPlating,1,4
FMAT,2
INCH,TZ
; #@! TA.AperFunction,Plated,PTH,ViaDrill
T1C0.0118
; #@! TA.AperFunction,Plated,PTH,ComponentDrill
T2C0.0118
; #@! TA.AperFunction,Plated,PTH,ViaDrill
T3C0.0236
; #@! TA.AperFunction,Plated,PTH,ComponentDrill
T4C0.0394
; #@! TA.AperFunction,Plated,PTH,ComponentDrill
T5C0.0433
; #@! TA.AperFunction,Plated,PTH,ComponentDrill
T6C0.0591
; #@! TA.AperFunction,NonPlated,NPTH,ComponentDrill
T7C0.0256
; #@! TA.AperFunction,NonPlated,NPTH,ComponentDrill
T8C0.0827
; #@! TA.AperFunction,NonPlated,NPTH,ComponentDrill
T9C0.1772
%
G90
G05
T1
X1851Y39774
X1851Y37411
X1851Y35049
X1851Y6703
X1851Y4341
X1851Y1978
X2098Y7996
X4213Y39774
X4213Y27963
X4213Y20876
X4213Y1978
X4700Y19200
X6476Y13819
X6575Y39774
X6575Y37411
X6575Y4341
X6575Y1978
X8000Y15900
X8000Y13100
X8500Y17500
X8937Y39774
X8937Y37411
X8937Y35049
X8937Y4341
X8937Y1978
X9300Y12700
X9400Y21900
X9449Y21024
X9511Y17689
X9528Y9626
X9528Y6594
X9900Y13200
X10138Y7008
X10300Y17600
X10354Y10020
X10531Y21869
X10650Y11555
X10700Y12800
X11000Y12600
X11003Y21900
X11181Y19370
X11220Y17283
X11220Y15748
X11299Y39774
X11299Y6703
X11299Y4341
X11299Y1978
X11300Y12300
X11300Y7400
X11400Y21900
X11516Y20413
X11528Y11600
X11700Y19700
X12900Y12500
X12900Y11500
X12900Y10000
X12900Y8428
X12900Y6700
X13000Y5500
X13300Y21800
X13400Y18500
X13400Y9500
X13400Y6500
X13600Y8600
X13622Y22598
X13656Y19749
X13661Y22992
X13662Y39774
X13662Y4341
X13662Y1978
X13700Y11400
X13800Y5500
X14100Y7600
X14134Y12244
X14228Y10500
X14646Y19803
X14900Y5800
X15100Y7200
X16024Y39774
X16024Y37411
X16024Y30325
X16024Y27963
X16024Y23238
X16024Y4341
X16024Y1978
X16100Y25000
X16300Y8600
X16575Y21181
X16700Y25000
X16929Y9488
X17000Y5500
X17100Y18272
X17126Y34016
X17561Y32950
X17700Y12500
X18300Y17600
X18386Y39774
X18386Y37411
X18386Y30325
X18386Y16152
X18386Y4341
X18386Y1978
X18400Y13100
X18500Y9411
X19055Y32756
X19252Y23504
X19400Y25500
X19400Y25100
X19424Y14176
X19424Y11222
X19500Y11800
X19600Y21500
X19606Y16142
X19961Y23504
X20551Y7441
X20748Y39774
X20748Y37411
X20748Y4341
X20748Y1978
X22795Y7441
X23110Y39774
X23110Y37411
X23110Y4341
X23110Y1978
X23819Y6878
X25473Y39774
X25473Y37411
X25473Y4341
X25473Y1978
X26181Y28976
X26614Y6535
X27100Y31300
X27835Y39774
X27835Y37411
X28200Y28500
X30315Y24449
X32165Y24921
X32559Y27963
X32559Y6703
X33400Y30900
X33400Y29700
X33500Y30300
X34922Y27963
X34922Y6703
X34922Y4341
X34922Y1978
X35000Y39200
X35800Y30500
X35866Y4567
X36142Y23701
X36142Y22362
X36260Y20630
X36299Y18858
X36650Y13250
X37284Y39774
X37284Y30325
X37284Y11427
X38242Y24255
X39646Y27963
X39646Y25600
X39646Y23238
X39646Y20876
X39646Y18514
X39646Y16152
X39646Y13789
X39646Y11427
X39646Y9065
X39646Y4341
T2
X11505Y15038
X11505Y14644
X14937Y20723
X14937Y20369
X15037Y10623
X15037Y10269
X17184Y17581
X17184Y17109
X17184Y16637
X17184Y16164
X18362Y20723
X18362Y20349
X18362Y19975
X18462Y10623
X18462Y10249
X18462Y9875
X20274Y20222
X20274Y19278
X20274Y17860
X20274Y16915
X20274Y12663
X20274Y11246
X20274Y9396
X20274Y7978
X20274Y24002
X20274Y23057
X20274Y22585
X20274Y22112
X20274Y21640
X20274Y21167
X20274Y20695
X20274Y19750
X20274Y18805
X20274Y18333
X20274Y17388
X20274Y16443
X20274Y15970
X20274Y15498
X20274Y15026
X20274Y14553
X20274Y14081
X20274Y13608
X20274Y13136
X20274Y12191
X20274Y11718
X20274Y10774
X20274Y10301
X20274Y9868
X20274Y8923
X20274Y8451
X21140Y7742
X21258Y24159
X21455Y7742
X21652Y24159
X24093Y7742
X24171Y24159
X24407Y7742
X24722Y7742
X25037Y7742
X25352Y7742
X25667Y7742
X25877Y28566
X25877Y28172
X25982Y7742
X26297Y7742
X26612Y7742
X26927Y7742
X26927Y24159
X27242Y7742
X27321Y24159
X27557Y7742
X27715Y24159
X27872Y7742
X28108Y24159
X28187Y7742
X28502Y7742
X28502Y24159
X28817Y7742
X28896Y24159
X29132Y7742
X29289Y24159
X29447Y7742
X29683Y24159
X29762Y7742
X30077Y7742
X30392Y7742
X30707Y7742
X30904Y24159
X31022Y7742
X31219Y24159
X31337Y7742
X31652Y7742
X31967Y7742
X32281Y7742
X32596Y7742
X32911Y7742
X33226Y7742
X33541Y7742
X33856Y7742
X34171Y7742
X34486Y7742
X34801Y7742
X35825Y24159
X35825Y21797
X35825Y21482
X35825Y21167
X35825Y18096
X35825Y17781
X35825Y17467
X35825Y17152
X35825Y16837
X35825Y14671
X35825Y14356
X35825Y13726
X35825Y13411
X35825Y13096
X35825Y12781
X35825Y11837
X35825Y11522
X35825Y11207
X35825Y10892
X35825Y10577
X35825Y10262
X35825Y9632
X35825Y9317
X35825Y9002
X35825Y8687
X35825Y7742
X35825Y14041
X35825Y12467
X35825Y12152
X35825Y9947
X35825Y8372
X35825Y8057
T3
X2028Y11890
X2028Y10846
X4272Y13878
X5413Y13858
X9088Y6052
X9347Y22554
X9400Y23600
X13465Y21004
X13504Y24272
X14961Y37717
X14961Y33563
X15020Y27539
X15039Y30433
X15681Y24181
X15846Y34193
X15984Y31201
X16398Y28602
X37047Y38307
X37461Y38307
T4
X19598Y34648
X19598Y33920
X19598Y31971
X19598Y27227
X25700Y34471
X25700Y31952
X25700Y31204
X25700Y29511
X25700Y27050
X36700Y29300
X36700Y28300
X36700Y27300
T5
X2618Y27362
X2618Y26362
X2618Y25362
X2618Y24362
X2618Y23362
X2618Y22362
X2618Y21362
X2618Y20362
X2618Y19362
X2618Y18362
X2618Y17362
X2618Y16362
X2618Y15362
X2618Y14362
X2618Y13362
X2618Y12362
X2618Y11362
X2618Y10362
X2618Y9362
X3618Y27362
X3618Y26362
X3618Y25362
X3618Y24362
X3618Y23362
X3618Y22362
X3618Y21362
X3618Y20362
X3618Y19362
X3618Y18362
X3618Y17362
X3618Y16362
X3618Y15362
X3618Y14362
X3618Y13362
X3618Y12362
X3618Y11362
X3618Y10362
X3618Y9362
X6000Y27362
X6000Y26362
X6000Y25362
X6000Y24362
X6000Y23362
X6000Y22362
X6000Y21362
X6000Y20362
X6000Y19362
X6000Y18362
X6000Y17362
X6000Y16362
X6000Y15362
X6000Y14362
X6000Y13362
X6000Y12362
X6000Y11362
X6000Y10362
X6000Y9362
X7000Y27362
X7000Y26362
X7000Y25362
X7000Y24362
X7000Y23362
X7000Y22362
X7000Y21362
X7000Y20362
X7000Y19362
X7000Y18362
X7000Y17362
X7000Y16362
X7000Y15362
X7000Y14362
X7000Y13362
X7000Y12362
X7000Y11362
X7000Y10362
X7000Y9362
T6
X3799Y32756
X3799Y30472
X4717Y31614
X7000Y32756
X7000Y30472
T7
X37769Y5148
X37769Y2872
T8
X7004Y34724
X7004Y6772
T9
X3500Y36496
X3500Y5000
M30
