G04 #@! TF.GenerationSoftware,KiCad,Pcbnew,8.0.6-8.0.6-0~ubuntu22.04.1*
G04 #@! TF.CreationDate,2024-11-19T22:28:20+00:00*
G04 #@! TF.ProjectId,hellenbremen,68656c6c-656e-4627-9265-6d656e2e6b69,rev?*
G04 #@! TF.SameCoordinates,Original*
G04 #@! TF.FileFunction,Copper,L4,Bot*
G04 #@! TF.FilePolarity,Positive*
%FSLAX46Y46*%
G04 Gerber Fmt 4.6, Leading zero omitted, Abs format (unit mm)*
G04 Created by KiCad (PCBNEW 8.0.6-8.0.6-0~ubuntu22.04.1) date 2024-11-19 22:28:20*
%MOMM*%
%LPD*%
G01*
G04 APERTURE LIST*
G04 #@! TA.AperFunction,ComponentPad*
%ADD10C,0.600000*%
G04 #@! TD*
G04 #@! TA.AperFunction,SMDPad,CuDef*
%ADD11R,2.300000X0.200000*%
G04 #@! TD*
G04 #@! TA.AperFunction,SMDPad,CuDef*
%ADD12R,10.700000X0.200000*%
G04 #@! TD*
G04 #@! TA.AperFunction,SMDPad,CuDef*
%ADD13R,2.100000X0.200000*%
G04 #@! TD*
G04 #@! TA.AperFunction,SMDPad,CuDef*
%ADD14R,6.000000X0.200000*%
G04 #@! TD*
G04 #@! TA.AperFunction,SMDPad,CuDef*
%ADD15R,5.400000X0.200000*%
G04 #@! TD*
G04 #@! TA.AperFunction,SMDPad,CuDef*
%ADD16R,0.200000X1.400000*%
G04 #@! TD*
G04 #@! TA.AperFunction,SMDPad,CuDef*
%ADD17R,0.200000X5.000000*%
G04 #@! TD*
G04 #@! TA.AperFunction,SMDPad,CuDef*
%ADD18R,0.200000X6.800000*%
G04 #@! TD*
G04 #@! TA.AperFunction,SMDPad,CuDef*
%ADD19R,0.200000X4.500000*%
G04 #@! TD*
G04 #@! TA.AperFunction,SMDPad,CuDef*
%ADD20R,1.600000X0.200000*%
G04 #@! TD*
G04 #@! TA.AperFunction,SMDPad,CuDef*
%ADD21R,5.700000X0.200000*%
G04 #@! TD*
G04 #@! TA.AperFunction,SMDPad,CuDef*
%ADD22R,2.000000X0.200000*%
G04 #@! TD*
G04 #@! TA.AperFunction,SMDPad,CuDef*
%ADD23R,0.250000X6.185000*%
G04 #@! TD*
G04 #@! TA.AperFunction,SMDPad,CuDef*
%ADD24R,0.250000X1.115000*%
G04 #@! TD*
G04 #@! TA.AperFunction,SMDPad,CuDef*
%ADD25R,14.275000X0.250000*%
G04 #@! TD*
G04 #@! TA.AperFunction,SMDPad,CuDef*
%ADD26R,15.100000X0.250000*%
G04 #@! TD*
G04 #@! TA.AperFunction,SMDPad,CuDef*
%ADD27R,0.250000X5.175000*%
G04 #@! TD*
G04 #@! TA.AperFunction,ComponentPad*
%ADD28C,1.500000*%
G04 #@! TD*
G04 #@! TA.AperFunction,SMDPad,CuDef*
%ADD29O,0.200000X3.300000*%
G04 #@! TD*
G04 #@! TA.AperFunction,SMDPad,CuDef*
%ADD30O,0.200000X10.200000*%
G04 #@! TD*
G04 #@! TA.AperFunction,SMDPad,CuDef*
%ADD31O,0.200000X0.300000*%
G04 #@! TD*
G04 #@! TA.AperFunction,SMDPad,CuDef*
%ADD32O,17.000000X0.200000*%
G04 #@! TD*
G04 #@! TA.AperFunction,SMDPad,CuDef*
%ADD33O,15.400000X0.200000*%
G04 #@! TD*
G04 #@! TA.AperFunction,SMDPad,CuDef*
%ADD34O,0.200000X4.800000*%
G04 #@! TD*
G04 #@! TA.AperFunction,SMDPad,CuDef*
%ADD35O,0.200000X2.600000*%
G04 #@! TD*
G04 #@! TA.AperFunction,SMDPad,CuDef*
%ADD36O,0.200000X1.000000*%
G04 #@! TD*
G04 #@! TA.AperFunction,SMDPad,CuDef*
%ADD37O,0.200000X1.500000*%
G04 #@! TD*
G04 #@! TA.AperFunction,ComponentPad*
%ADD38R,1.700000X1.700000*%
G04 #@! TD*
G04 #@! TA.AperFunction,ComponentPad*
%ADD39O,1.700000X1.700000*%
G04 #@! TD*
G04 #@! TA.AperFunction,SMDPad,CuDef*
%ADD40O,0.200000X1.225000*%
G04 #@! TD*
G04 #@! TA.AperFunction,SMDPad,CuDef*
%ADD41O,9.300000X0.200000*%
G04 #@! TD*
G04 #@! TA.AperFunction,ComponentPad*
%ADD42C,2.000000*%
G04 #@! TD*
G04 #@! TA.AperFunction,ComponentPad*
%ADD43C,1.600000*%
G04 #@! TD*
G04 #@! TA.AperFunction,ViaPad*
%ADD44C,0.600000*%
G04 #@! TD*
G04 #@! TA.AperFunction,ViaPad*
%ADD45C,1.000000*%
G04 #@! TD*
G04 #@! TA.AperFunction,Conductor*
%ADD46C,0.200000*%
G04 #@! TD*
G04 APERTURE END LIST*
G04 #@! TO.P,M1,G,GND*
G04 #@! TO.N,GND*
G04 #@! TA.AperFunction,SMDPad,CuDef*
G36*
G01*
X99267500Y45900006D02*
X91977500Y45900006D01*
G75*
G02*
X91877500Y46000006I0J100000D01*
G01*
X91877500Y46000006D01*
G75*
G02*
X91977500Y46100006I100000J0D01*
G01*
X99267500Y46100006D01*
G75*
G02*
X99367500Y46000006I0J-100000D01*
G01*
X99367500Y46000006D01*
G75*
G02*
X99267500Y45900006I-100000J0D01*
G01*
G37*
G04 #@! TD.AperFunction*
G04 #@! TA.AperFunction,SMDPad,CuDef*
G36*
G01*
X92034876Y45918461D02*
X91610612Y45494197D01*
G75*
G02*
X91469190Y45494197I-70711J70711D01*
G01*
X91469190Y45494197D01*
G75*
G02*
X91469190Y45635619I70711J70711D01*
G01*
X91893454Y46059883D01*
G75*
G02*
X92034876Y46059883I70711J-70711D01*
G01*
X92034876Y46059883D01*
G75*
G02*
X92034876Y45918461I-70711J-70711D01*
G01*
G37*
G04 #@! TD.AperFunction*
G04 #@! TA.AperFunction,SMDPad,CuDef*
G36*
G01*
X100633809Y44515291D02*
X99226667Y45922433D01*
G75*
G02*
X99226667Y46063855I70711J70711D01*
G01*
X99226667Y46063855D01*
G75*
G02*
X99368089Y46063855I70711J-70711D01*
G01*
X100775231Y44656713D01*
G75*
G02*
X100775231Y44515291I-70711J-70711D01*
G01*
X100775231Y44515291D01*
G75*
G02*
X100633809Y44515291I-70711J70711D01*
G01*
G37*
G04 #@! TD.AperFunction*
G04 #@! TA.AperFunction,SMDPad,CuDef*
G36*
G01*
X100806643Y44579443D02*
X100806643Y28229443D01*
G75*
G02*
X100706643Y28129443I-100000J0D01*
G01*
X100706643Y28129443D01*
G75*
G02*
X100606643Y28229443I0J100000D01*
G01*
X100606643Y44579443D01*
G75*
G02*
X100706643Y44679443I100000J0D01*
G01*
X100706643Y44679443D01*
G75*
G02*
X100806643Y44579443I0J-100000D01*
G01*
G37*
G04 #@! TD.AperFunction*
G04 #@! TA.AperFunction,SMDPad,CuDef*
G36*
G01*
X91526832Y28307522D02*
X100696830Y28307522D01*
G75*
G02*
X100796830Y28207522I0J-100000D01*
G01*
X100796830Y28207522D01*
G75*
G02*
X100696830Y28107522I-100000J0D01*
G01*
X91526832Y28107522D01*
G75*
G02*
X91426832Y28207522I0J100000D01*
G01*
X91426832Y28207522D01*
G75*
G02*
X91526832Y28307522I100000J0D01*
G01*
G37*
G04 #@! TD.AperFunction*
G04 #@! TO.P,M1,N1,V5*
G04 #@! TO.N,unconnected-(M1-V5-PadN1)*
G04 #@! TA.AperFunction,SMDPad,CuDef*
G36*
G01*
X90824999Y34375006D02*
X90575001Y34375006D01*
G75*
G02*
X90450001Y34500006I0J125000D01*
G01*
X90450001Y34500006D01*
G75*
G02*
X90575001Y34625006I125000J0D01*
G01*
X90824999Y34625006D01*
G75*
G02*
X90949999Y34500006I0J-125000D01*
G01*
X90949999Y34500006D01*
G75*
G02*
X90824999Y34375006I-125000J0D01*
G01*
G37*
G04 #@! TD.AperFunction*
G04 #@! TO.P,M1,N2,V33*
G04 #@! TO.N,unconnected-(M1-V33-PadN2)*
G04 #@! TA.AperFunction,SMDPad,CuDef*
G36*
G01*
X90824999Y35475004D02*
X90575001Y35475004D01*
G75*
G02*
X90450001Y35600004I0J125000D01*
G01*
X90450001Y35600004D01*
G75*
G02*
X90575001Y35725004I125000J0D01*
G01*
X90824999Y35725004D01*
G75*
G02*
X90949999Y35600004I0J-125000D01*
G01*
X90949999Y35600004D01*
G75*
G02*
X90824999Y35475004I-125000J0D01*
G01*
G37*
G04 #@! TD.AperFunction*
G04 #@! TO.P,M1,N3,SWO*
G04 #@! TO.N,Net-(M1-SWO)*
G04 #@! TA.AperFunction,SMDPad,CuDef*
G36*
G01*
X90824999Y36575002D02*
X90575001Y36575002D01*
G75*
G02*
X90450001Y36700002I0J125000D01*
G01*
X90450001Y36700002D01*
G75*
G02*
X90575001Y36825002I125000J0D01*
G01*
X90824999Y36825002D01*
G75*
G02*
X90949999Y36700002I0J-125000D01*
G01*
X90949999Y36700002D01*
G75*
G02*
X90824999Y36575002I-125000J0D01*
G01*
G37*
G04 #@! TD.AperFunction*
G04 #@! TO.P,M1,N4,SWDIO*
G04 #@! TO.N,Net-(M1-SWDIO)*
G04 #@! TA.AperFunction,SMDPad,CuDef*
G36*
G01*
X90824999Y37675000D02*
X90575001Y37675000D01*
G75*
G02*
X90450001Y37800000I0J125000D01*
G01*
X90450001Y37800000D01*
G75*
G02*
X90575001Y37925000I125000J0D01*
G01*
X90824999Y37925000D01*
G75*
G02*
X90949999Y37800000I0J-125000D01*
G01*
X90949999Y37800000D01*
G75*
G02*
X90824999Y37675000I-125000J0D01*
G01*
G37*
G04 #@! TD.AperFunction*
G04 #@! TO.P,M1,N5,SWCLK*
G04 #@! TO.N,Net-(M1-SWCLK)*
G04 #@! TA.AperFunction,SMDPad,CuDef*
G36*
G01*
X90824999Y38774998D02*
X90575001Y38774998D01*
G75*
G02*
X90450001Y38899998I0J125000D01*
G01*
X90450001Y38899998D01*
G75*
G02*
X90575001Y39024998I125000J0D01*
G01*
X90824999Y39024998D01*
G75*
G02*
X90949999Y38899998I0J-125000D01*
G01*
X90949999Y38899998D01*
G75*
G02*
X90824999Y38774998I-125000J0D01*
G01*
G37*
G04 #@! TD.AperFunction*
G04 #@! TO.P,M1,N6,nReset*
G04 #@! TO.N,Net-(M1-nReset)*
G04 #@! TA.AperFunction,SMDPad,CuDef*
G36*
G01*
X90824999Y39874995D02*
X90575001Y39874995D01*
G75*
G02*
X90450001Y39999995I0J125000D01*
G01*
X90450001Y39999995D01*
G75*
G02*
X90575001Y40124995I125000J0D01*
G01*
X90824999Y40124995D01*
G75*
G02*
X90949999Y39999995I0J-125000D01*
G01*
X90949999Y39999995D01*
G75*
G02*
X90824999Y39874995I-125000J0D01*
G01*
G37*
G04 #@! TD.AperFunction*
G04 #@! TD*
D10*
G04 #@! TO.P,M3,E1,SPI2_SCK/CAN2_TX*
G04 #@! TO.N,unconnected-(M3-SPI2_SCK{slash}CAN2_TX-PadE1)*
X79250996Y27800004D03*
G04 #@! TO.P,M3,E2,SPI2_MISO*
G04 #@! TO.N,unconnected-(M3-SPI2_MISO-PadE2)*
X78450995Y27800004D03*
G04 #@! TO.P,M3,E3,SPI2_MOSI*
G04 #@! TO.N,unconnected-(M3-SPI2_MOSI-PadE3)*
X77650997Y27800004D03*
G04 #@! TO.P,M3,E4,SPI2_CS/CAN2_RX*
G04 #@! TO.N,unconnected-(M3-SPI2_CS{slash}CAN2_RX-PadE4)*
X76850996Y27800004D03*
G04 #@! TO.P,M3,E6,OUT_IO3*
G04 #@! TO.N,unconnected-(M3-OUT_IO3-PadE6)*
X76050995Y27800004D03*
G04 #@! TO.P,M3,E7,OUT_IO5*
G04 #@! TO.N,unconnected-(M3-OUT_IO5-PadE7)*
X75250997Y27800007D03*
G04 #@! TO.P,M3,E8,OUT_IO1*
G04 #@! TO.N,unconnected-(M3-OUT_IO1-PadE8)*
X74450996Y27800007D03*
G04 #@! TO.P,M3,E9,OUT_IO6*
G04 #@! TO.N,unconnected-(M3-OUT_IO6-PadE9)*
X73650992Y27800004D03*
G04 #@! TO.P,M3,E10,OUT_IO10*
G04 #@! TO.N,unconnected-(M3-OUT_IO10-PadE10)*
X72850996Y27800004D03*
G04 #@! TO.P,M3,E11,OUT_IO9*
G04 #@! TO.N,unconnected-(M3-OUT_IO9-PadE11)*
X72050996Y27800004D03*
G04 #@! TO.P,M3,E12,OUT_IO2*
G04 #@! TO.N,unconnected-(M3-OUT_IO2-PadE12)*
X71250995Y27800004D03*
G04 #@! TO.P,M3,E13,OUT_IO12*
G04 #@! TO.N,unconnected-(M3-OUT_IO12-PadE13)*
X70450996Y27800007D03*
G04 #@! TO.P,M3,E14,OUT_PWM5*
G04 #@! TO.N,unconnected-(M3-OUT_PWM5-PadE14)*
X69650995Y27800007D03*
G04 #@! TO.P,M3,E15,OUT_PWM4*
G04 #@! TO.N,unconnected-(M3-OUT_PWM4-PadE15)*
X68850994Y27800007D03*
G04 #@! TO.P,M3,E16,OUT_PWM3*
G04 #@! TO.N,unconnected-(M3-OUT_PWM3-PadE16)*
X68050996Y27800004D03*
G04 #@! TO.P,M3,E17,OUT_PWM2*
G04 #@! TO.N,MCU_CFC*
X67250995Y27800004D03*
G04 #@! TO.P,M3,E18,OUT_INJ2*
G04 #@! TO.N,MCU_INJ2*
X66450997Y27800004D03*
G04 #@! TO.P,M3,E19,OUT_INJ1*
G04 #@! TO.N,MCU_INJ1*
X65650996Y27800007D03*
G04 #@! TO.P,M3,E20,OUT_IO13*
G04 #@! TO.N,unconnected-(M3-OUT_IO13-PadE20)*
X64850995Y27800007D03*
G04 #@! TO.P,M3,E21,OUT_IO4*
G04 #@! TO.N,unconnected-(M3-OUT_IO4-PadE21)*
X64050996Y27800004D03*
G04 #@! TO.P,M3,E22,OUT_IO8*
G04 #@! TO.N,unconnected-(M3-OUT_IO8-PadE22)*
X63250995Y27800004D03*
G04 #@! TO.P,M3,E23,OUT_IO7*
G04 #@! TO.N,unconnected-(M3-OUT_IO7-PadE23)*
X62450994Y27800004D03*
G04 #@! TO.P,M3,E24,OUT_IO11*
G04 #@! TO.N,unconnected-(M3-OUT_IO11-PadE24)*
X61650996Y27800004D03*
G04 #@! TO.P,M3,E25,OUT_PWM7*
G04 #@! TO.N,unconnected-(M3-OUT_PWM7-PadE25)*
X60850995Y27800004D03*
G04 #@! TO.P,M3,E26,OUT_PWM6*
G04 #@! TO.N,unconnected-(M3-OUT_PWM6-PadE26)*
X60050997Y27800004D03*
G04 #@! TO.P,M3,E27,OUT_PWM1*
G04 #@! TO.N,MCU_CPC*
X59250996Y27800004D03*
G04 #@! TO.P,M3,E28,OUT_PWM8*
G04 #@! TO.N,unconnected-(M3-OUT_PWM8-PadE28)*
X58450995Y27800004D03*
G04 #@! TO.P,M3,E29,OUT_INJ3*
G04 #@! TO.N,unconnected-(M3-OUT_INJ3-PadE29)*
X57650996Y27800004D03*
G04 #@! TO.P,M3,E30,OUT_INJ4*
G04 #@! TO.N,unconnected-(M3-OUT_INJ4-PadE30)*
X56850995Y27800004D03*
G04 #@! TO.P,M3,E31,OUT_INJ5*
G04 #@! TO.N,unconnected-(M3-OUT_INJ5-PadE31)*
X56050997Y27800007D03*
G04 #@! TO.P,M3,E32,OUT_INJ6*
G04 #@! TO.N,unconnected-(M3-OUT_INJ6-PadE32)*
X55250994Y27800004D03*
G04 #@! TO.P,M3,E33,OUT_INJ7*
G04 #@! TO.N,MCU_ACR1*
X54450995Y27800004D03*
G04 #@! TO.P,M3,E34,OUT_INJ8*
G04 #@! TO.N,MCU_ACR2*
X53650997Y27800004D03*
G04 #@! TO.P,M3,E35,IO6*
G04 #@! TO.N,unconnected-(M3-IO6-PadE35)*
X52850996Y27800004D03*
G04 #@! TO.P,M3,E36,IO7*
G04 #@! TO.N,unconnected-(M3-IO7-PadE36)*
X52050995Y27800004D03*
G04 #@! TO.P,M3,E38,V5A_SWITCHABLE*
G04 #@! TO.N,+5VA*
X45351001Y27800007D03*
G04 #@! TO.P,M3,E39,GNDA*
G04 #@! TO.N,unconnected-(M3-GNDA-PadE39)*
X44551000Y27800004D03*
D11*
G04 #@! TO.P,M3,G,GND*
G04 #@! TO.N,GND*
X43201000Y69700009D03*
D12*
X76000998Y69700007D03*
D13*
X67800999Y69700007D03*
D14*
X55751000Y69700007D03*
D15*
X49051003Y69700007D03*
D16*
X42150997Y67900000D03*
D17*
X82050998Y66500005D03*
D18*
X82050998Y58000002D03*
D19*
X82050998Y48149999D03*
D20*
X80550999Y27600004D03*
D21*
X48700996Y27600004D03*
D22*
X43051003Y27600004D03*
D10*
G04 #@! TO.P,M3,N1,USBID*
G04 #@! TO.N,unconnected-(M3-USBID-PadN1)*
X81850999Y27800004D03*
G04 #@! TO.P,M3,N2,USBM*
G04 #@! TO.N,Net-(M3-USBM)*
X81851001Y28600002D03*
G04 #@! TO.P,M3,N3,USBP*
G04 #@! TO.N,Net-(M3-USBP)*
X81851001Y29400003D03*
G04 #@! TO.P,M3,N4,VBUS*
G04 #@! TO.N,Net-(M3-VBUS)*
X81850999Y30200002D03*
G04 #@! TO.P,M3,N5,BOOT0*
G04 #@! TO.N,unconnected-(M3-BOOT0-PadN5)*
X81850999Y31000003D03*
G04 #@! TO.P,M3,N6,SWO*
G04 #@! TO.N,Net-(M1-SWO)*
X81850999Y31800004D03*
G04 #@! TO.P,M3,N7,SWDIO*
G04 #@! TO.N,Net-(M1-SWDIO)*
X81850999Y32600002D03*
G04 #@! TO.P,M3,N8,SWCLK*
G04 #@! TO.N,Net-(M1-SWCLK)*
X81851001Y33400003D03*
G04 #@! TO.P,M3,N9,nReset*
G04 #@! TO.N,Net-(M1-nReset)*
X81850999Y34200001D03*
G04 #@! TO.P,M3,N10,SPI3_CS*
G04 #@! TO.N,unconnected-(M3-SPI3_CS-PadN10)*
X81850999Y35000002D03*
G04 #@! TO.P,M3,N11,SPI3_SCK*
G04 #@! TO.N,unconnected-(M3-SPI3_SCK-PadN11)*
X81850999Y35800003D03*
G04 #@! TO.P,M3,N12,SPI3_MISO*
G04 #@! TO.N,unconnected-(M3-SPI3_MISO-PadN12)*
X81850999Y36600004D03*
G04 #@! TO.P,M3,N13,SPI3_MOSI*
G04 #@! TO.N,unconnected-(M3-SPI3_MOSI-PadN13)*
X81850999Y37400003D03*
G04 #@! TO.P,M3,N14,I2C_SCL*
G04 #@! TO.N,unconnected-(M3-I2C_SCL-PadN14)*
X81850999Y38200004D03*
G04 #@! TO.P,M3,N15,I2C_SDA*
G04 #@! TO.N,unconnected-(M3-I2C_SDA-PadN15)*
X81851001Y39000005D03*
G04 #@! TO.P,M3,N16,IO1*
G04 #@! TO.N,unconnected-(M3-IO1-PadN16)*
X81851001Y39800005D03*
G04 #@! TO.P,M3,N17,UART2_TX*
G04 #@! TO.N,UART_BT_TX*
X81850999Y40600004D03*
G04 #@! TO.P,M3,N18,UART2_RX*
G04 #@! TO.N,UART_BT_RX*
X81850999Y41400005D03*
G04 #@! TO.P,M3,N19,IO2*
G04 #@! TO.N,unconnected-(M3-IO2-PadN19)*
X81850999Y42200003D03*
G04 #@! TO.P,M3,N20,IO4*
G04 #@! TO.N,unconnected-(M3-IO4-PadN20)*
X81850999Y43000004D03*
G04 #@! TO.P,M3,N21,IO3*
G04 #@! TO.N,unconnected-(M3-IO3-PadN21)*
X81851001Y43800003D03*
G04 #@! TO.P,M3,N22,V33*
G04 #@! TO.N,+3V3*
X81850999Y44600004D03*
G04 #@! TO.P,M3,N23,IO5*
G04 #@! TO.N,unconnected-(M3-IO5-PadN23)*
X81850999Y45400004D03*
G04 #@! TO.P,M3,N24,UART8_RX*
G04 #@! TO.N,unconnected-(M3-UART8_RX-PadN24)*
X81850999Y50900004D03*
G04 #@! TO.P,M3,N25,UART8_TX*
G04 #@! TO.N,unconnected-(M3-UART8_TX-PadN25)*
X81850999Y51700005D03*
G04 #@! TO.P,M3,N26,IN_VIGN*
G04 #@! TO.N,VIGN*
X81850999Y52500003D03*
G04 #@! TO.P,M3,N27,VBAT*
G04 #@! TO.N,unconnected-(M3-VBAT-PadN27)*
X81850999Y53300001D03*
G04 #@! TO.P,M3,N28,V33_SWITCHABLE*
G04 #@! TO.N,+3V3SW*
X81850999Y54100000D03*
G04 #@! TO.P,M3,N29,OUT_PWR_EN*
G04 #@! TO.N,PWR_EN*
X81850999Y61900004D03*
G04 #@! TO.P,M3,N30,V5A_SWITCHABLE*
G04 #@! TO.N,unconnected-(M3-V5A_SWITCHABLE-PadN30)*
X81850999Y62700003D03*
G04 #@! TO.P,M3,N31,VCC*
G04 #@! TO.N,+5V*
X81850999Y63500001D03*
G04 #@! TO.P,M3,N32,V33*
G04 #@! TO.N,+3V3*
X81850999Y69500005D03*
G04 #@! TO.P,M3,S1,IN_D4*
G04 #@! TO.N,unconnected-(M3-IN_D4-PadS1)*
X42350994Y28400005D03*
G04 #@! TO.P,M3,S2,IN_D3*
G04 #@! TO.N,unconnected-(M3-IN_D3-PadS2)*
X42350996Y29600006D03*
G04 #@! TO.P,M3,S3,IN_D2*
G04 #@! TO.N,unconnected-(M3-IN_D2-PadS3)*
X42350996Y30800003D03*
G04 #@! TO.P,M3,S4,IN_D1*
G04 #@! TO.N,unconnected-(M3-IN_D1-PadS4)*
X42350994Y32000003D03*
G04 #@! TO.P,M3,S5,VREF2*
G04 #@! TO.N,unconnected-(M3-VREF2-PadS5)*
X42350996Y33200003D03*
G04 #@! TO.P,M3,S6,IN_SENS4*
G04 #@! TO.N,unconnected-(M3-IN_SENS4-PadS6)*
X42350996Y34299991D03*
G04 #@! TO.P,M3,S7,IN_SENS3*
G04 #@! TO.N,unconnected-(M3-IN_SENS3-PadS7)*
X42350996Y35499991D03*
G04 #@! TO.P,M3,S8,IN_SENS2*
G04 #@! TO.N,unconnected-(M3-IN_SENS2-PadS8)*
X42350994Y36699989D03*
G04 #@! TO.P,M3,S9,IN_SENS1*
G04 #@! TO.N,MCU_KNOCK_R*
X42350996Y37899989D03*
G04 #@! TO.P,M3,S10,IN_AUX4*
G04 #@! TO.N,unconnected-(M3-IN_AUX4-PadS10)*
X42350996Y39099992D03*
G04 #@! TO.P,M3,S11,IN_AUX3*
G04 #@! TO.N,H2OSPC*
X42350994Y40299994D03*
G04 #@! TO.P,M3,S12,IN_AUX2*
G04 #@! TO.N,unconnected-(M3-IN_AUX2-PadS12)*
X42350996Y41499992D03*
G04 #@! TO.P,M3,S13,IN_AUX1*
G04 #@! TO.N,ETS*
X42350996Y42699990D03*
G04 #@! TO.P,M3,S14,IN_RES2*
G04 #@! TO.N,unconnected-(M3-IN_RES2-PadS14)*
X42350996Y43899997D03*
G04 #@! TO.P,M3,S15,IN_O2S2*
G04 #@! TO.N,H2OS2*
X42350996Y45099997D03*
G04 #@! TO.P,M3,S16,IN_O2S*
G04 #@! TO.N,H2OS1*
X42350996Y46299995D03*
G04 #@! TO.P,M3,S17,IN_RES1*
G04 #@! TO.N,IN_JSS*
X42350996Y47499995D03*
G04 #@! TO.P,M3,S18,IN_RES3*
G04 #@! TO.N,unconnected-(M3-IN_RES3-PadS18)*
X42350996Y48700000D03*
G04 #@! TO.P,M3,S19,IN_MAP3*
G04 #@! TO.N,unconnected-(M3-IN_MAP3-PadS19)*
X42350996Y49900001D03*
G04 #@! TO.P,M3,S20,IN_MAP2*
G04 #@! TO.N,unconnected-(M3-IN_MAP2-PadS20)*
X42350994Y51099998D03*
G04 #@! TO.P,M3,S21,IN_MAP1*
G04 #@! TO.N,IN_MAP*
X42350996Y52299998D03*
G04 #@! TO.P,M3,S22,IN_CRANK*
G04 #@! TO.N,IN_CRANK*
X42350994Y53500001D03*
G04 #@! TO.P,M3,S23,IN_KNOCK*
G04 #@! TO.N,MCU_KNOCK_F*
X42350996Y54700001D03*
G04 #@! TO.P,M3,S24,IN_CAM*
G04 #@! TO.N,unconnected-(M3-IN_CAM-PadS24)*
X42350996Y55899996D03*
G04 #@! TO.P,M3,S25,IN_VSS*
G04 #@! TO.N,unconnected-(M3-IN_VSS-PadS25)*
X42350994Y57099999D03*
G04 #@! TO.P,M3,S26,IN_IAT*
G04 #@! TO.N,IN_IAT*
X42350996Y58300004D03*
G04 #@! TO.P,M3,S27,IN_AT1*
G04 #@! TO.N,IN_AAT*
X42350994Y59500004D03*
G04 #@! TO.P,M3,S28,IN_CLT*
G04 #@! TO.N,IN_CLT*
X42350996Y60700002D03*
G04 #@! TO.P,M3,S29,IN_AT2*
G04 #@! TO.N,unconnected-(M3-IN_AT2-PadS29)*
X42350996Y61900002D03*
G04 #@! TO.P,M3,S30,IN_TPS*
G04 #@! TO.N,IN_TPS*
X42350996Y63100007D03*
G04 #@! TO.P,M3,S31,IN_PPS*
G04 #@! TO.N,IN_PPS*
X42350996Y64300007D03*
G04 #@! TO.P,M3,S32,IN_TPS2*
G04 #@! TO.N,IN_TPS2*
X42350996Y65500005D03*
G04 #@! TO.P,M3,S33,IN_PPS2*
G04 #@! TO.N,IN_PPS2*
X42350996Y66700005D03*
G04 #@! TO.P,M3,S35,VREF1*
G04 #@! TO.N,unconnected-(M3-VREF1-PadS35)*
X42350996Y69100005D03*
G04 #@! TO.P,M3,W1,GNDA*
G04 #@! TO.N,GNDA*
X44850999Y69500007D03*
G04 #@! TO.P,M3,W2,V5A_SWITCHABLE*
G04 #@! TO.N,+5VA*
X45851000Y69500007D03*
G04 #@! TO.P,M3,W3,V33_REF*
G04 #@! TO.N,unconnected-(M3-V33_REF-PadW3)*
X52251002Y69500005D03*
G04 #@! TO.P,M3,W4,IGN8*
G04 #@! TO.N,unconnected-(M3-IGN8-PadW4)*
X59250998Y69500005D03*
G04 #@! TO.P,M3,W5,IGN7*
G04 #@! TO.N,unconnected-(M3-IGN7-PadW5)*
X60250999Y69500005D03*
G04 #@! TO.P,M3,W6,IGN6*
G04 #@! TO.N,unconnected-(M3-IGN6-PadW6)*
X61250997Y69500005D03*
G04 #@! TO.P,M3,W7,IGN5*
G04 #@! TO.N,unconnected-(M3-IGN5-PadW7)*
X62250997Y69500005D03*
G04 #@! TO.P,M3,W8,IGN4*
G04 #@! TO.N,unconnected-(M3-IGN4-PadW8)*
X63250998Y69500005D03*
G04 #@! TO.P,M3,W9,IGN3*
G04 #@! TO.N,unconnected-(M3-IGN3-PadW9)*
X64250996Y69500005D03*
G04 #@! TO.P,M3,W10,IGN2*
G04 #@! TO.N,MCUIGN_2*
X65250996Y69500005D03*
G04 #@! TO.P,M3,W11,IGN1*
G04 #@! TO.N,MCUIGN_1*
X66250994Y69500005D03*
G04 #@! TO.P,M3,W12,CANH*
G04 #@! TO.N,CAN_H*
X69350998Y69500005D03*
G04 #@! TO.P,M3,W13,CANL*
G04 #@! TO.N,CAN_L*
X70150999Y69500005D03*
G04 #@! TD*
G04 #@! TO.P,M4,E1,HALL_EN*
G04 #@! TO.N,unconnected-(M4-HALL_EN-PadE1)*
X39837000Y45305000D03*
G04 #@! TO.P,M4,E2,NC*
G04 #@! TO.N,unconnected-(M4-NC-PadE2)*
X39837000Y44105000D03*
G04 #@! TO.P,M4,E3,OUT*
G04 #@! TO.N,IN_CRANK*
X39837000Y46505000D03*
G04 #@! TO.P,M4,E4,V5_IN*
G04 #@! TO.N,unconnected-(M4-V5_IN-PadE4)*
X39837000Y47705000D03*
D23*
G04 #@! TO.P,M4,G,GND*
G04 #@! TO.N,GND*
X25187000Y45037500D03*
D24*
X25187000Y38987500D03*
D25*
X32199500Y48005000D03*
D26*
X32612000Y38555000D03*
D27*
X40037000Y41017500D03*
D10*
G04 #@! TO.P,M4,W1,VR-/HALL*
G04 #@! TO.N,CRANK_LOW*
X25412000Y41245000D03*
G04 #@! TO.P,M4,W2,VR+*
G04 #@! TO.N,CRANK_HIGH*
X25412000Y40245000D03*
G04 #@! TD*
D28*
G04 #@! TO.P,M2,E1,VBAT*
G04 #@! TO.N,unconnected-(M2-VBAT-PadE1)*
X57658995Y94922999D03*
G04 #@! TO.P,M2,E2,V12*
G04 #@! TO.N,+12V*
X57658995Y88523002D03*
G04 #@! TO.P,M2,E3,VIGN*
G04 #@! TO.N,VIGN*
X57658995Y86622999D03*
G04 #@! TO.P,M2,E4,V5*
G04 #@! TO.N,+5V*
X57658995Y82322999D03*
D10*
G04 #@! TO.P,M2,E5,EN_5VP*
G04 #@! TO.N,PWR_EN*
X58108994Y79923002D03*
G04 #@! TO.P,M2,E6,PG_5VP*
G04 #@! TO.N,unconnected-(M2-PG_5VP-PadE6)*
X58108994Y78923001D03*
D29*
G04 #@! TO.P,M2,S1,GND*
G04 #@! TO.N,GND*
X41508999Y91072999D03*
D30*
X41508999Y82573001D03*
D31*
X41508999Y75472999D03*
D32*
X49908997Y75422999D03*
D33*
X50708998Y96022999D03*
D28*
X57658995Y76072999D03*
D31*
X58308996Y95972999D03*
D34*
X58308996Y91773001D03*
D35*
X58308996Y84422999D03*
D36*
X58308996Y80923002D03*
D37*
X58308996Y77623001D03*
D28*
G04 #@! TO.P,M2,V1,V12_PERM*
G04 #@! TO.N,+12V_BAT*
X42158998Y95373001D03*
G04 #@! TO.P,M2,V2,IN_VIGN*
G04 #@! TO.N,+12V_PSP*
X42158998Y93523002D03*
G04 #@! TO.P,M2,V3,V12_RAW*
G04 #@! TO.N,+12V_BAT*
X42158998Y88572999D03*
G04 #@! TO.P,M2,V4,5VP*
G04 #@! TO.N,+5VP*
X42158998Y76523001D03*
G04 #@! TD*
D38*
G04 #@! TO.P,J2,1,Pin_1*
G04 #@! TO.N,GND*
X92441000Y74290000D03*
D39*
G04 #@! TO.P,J2,2,Pin_2*
G04 #@! TO.N,DEBUG_RX*
X89901000Y74290000D03*
G04 #@! TO.P,J2,3,Pin_3*
G04 #@! TO.N,DEBUG_TX*
X87361000Y74290000D03*
G04 #@! TD*
D10*
G04 #@! TO.P,M6,E1,V5A*
G04 #@! TO.N,unconnected-(M6-V5A-PadE1)*
X34193000Y51874998D03*
D40*
G04 #@! TO.P,M6,E2,GND*
G04 #@! TO.N,GND*
X25293000Y49899998D03*
D41*
X29843000Y52474998D03*
X29843000Y49374998D03*
D10*
X34193000Y50924998D03*
G04 #@! TO.P,M6,E3,OUT_KNOCK*
G04 #@! TO.N,MCU_KNOCK_R*
X34193000Y49975000D03*
G04 #@! TO.P,M6,W1,IN_KNOCK*
G04 #@! TO.N,RAW_KNOCK_R*
X25493000Y50974998D03*
G04 #@! TO.P,M6,W2,VREF*
G04 #@! TO.N,unconnected-(M6-VREF-PadW2)*
X25493000Y51874998D03*
G04 #@! TD*
G04 #@! TO.P,M5,E1,V5A*
G04 #@! TO.N,unconnected-(M5-V5A-PadE1)*
X34243000Y56929998D03*
D40*
G04 #@! TO.P,M5,E2,GND*
G04 #@! TO.N,GND*
X25343000Y54954998D03*
D41*
X29893000Y57529998D03*
X29893000Y54429998D03*
D10*
X34243000Y55979998D03*
G04 #@! TO.P,M5,E3,OUT_KNOCK*
G04 #@! TO.N,MCU_KNOCK_F*
X34243000Y55030000D03*
G04 #@! TO.P,M5,W1,IN_KNOCK*
G04 #@! TO.N,RAW_KNOCK_F*
X25543000Y56029998D03*
G04 #@! TO.P,M5,W2,VREF*
G04 #@! TO.N,unconnected-(M5-VREF-PadW2)*
X25543000Y56929998D03*
G04 #@! TD*
D42*
G04 #@! TO.P,J1,1,CFC*
G04 #@! TO.N,CFC*
X9670000Y83200000D03*
G04 #@! TO.P,J1,2,GND*
G04 #@! TO.N,GND*
X9670000Y77400000D03*
G04 #@! TO.P,J1,3,GND*
X12000000Y80300000D03*
G04 #@! TO.P,J1,4,CPC*
G04 #@! TO.N,CPC*
X17800000Y83200000D03*
G04 #@! TO.P,J1,5,PSP1*
G04 #@! TO.N,+12V_PSP*
X17800000Y77400000D03*
D43*
G04 #@! TO.P,J1,6,FFI*
G04 #@! TO.N,INJ_1*
X17800000Y23780000D03*
G04 #@! TO.P,J1,7,RFI*
G04 #@! TO.N,INJ_2*
X17800000Y26320000D03*
G04 #@! TO.P,J1,8,RACRE*
G04 #@! TO.N,ACR_2*
X17800000Y28860000D03*
G04 #@! TO.P,J1,9,9*
G04 #@! TO.N,unconnected-(J1-Pad9)*
X17800000Y31400000D03*
G04 #@! TO.P,J1,10,10*
G04 #@! TO.N,unconnected-(J1-Pad10)*
X17800000Y33940000D03*
G04 #@! TO.P,J1,11,CKPSL*
G04 #@! TO.N,CRANK_LOW*
X17800000Y36480000D03*
G04 #@! TO.P,J1,12,12*
G04 #@! TO.N,unconnected-(J1-Pad12)*
X17800000Y39020000D03*
G04 #@! TO.P,J1,13,13*
G04 #@! TO.N,unconnected-(J1-Pad13)*
X17800000Y41560000D03*
G04 #@! TO.P,J1,14,FHO2HG*
G04 #@! TO.N,GND*
X17800000Y44100000D03*
G04 #@! TO.P,J1,15,15*
G04 #@! TO.N,unconnected-(J1-Pad15)*
X17800000Y46640000D03*
G04 #@! TO.P,J1,16,PRGSEL*
G04 #@! TO.N,unconnected-(J1-PRGSEL-Pad16)*
X17800000Y49180000D03*
G04 #@! TO.P,J1,17,FIVVTC*
G04 #@! TO.N,unconnected-(J1-FIVVTC-Pad17)*
X17800000Y51720000D03*
G04 #@! TO.P,J1,18,18*
G04 #@! TO.N,unconnected-(J1-Pad18)*
X17800000Y54260000D03*
G04 #@! TO.P,J1,19,19*
G04 #@! TO.N,unconnected-(J1-Pad19)*
X17800000Y56800000D03*
G04 #@! TO.P,J1,20,ETCL*
G04 #@! TO.N,unconnected-(J1-ETCL-Pad20)*
X17800000Y59340000D03*
G04 #@! TO.P,J1,21,ETCH*
G04 #@! TO.N,unconnected-(J1-ETCH-Pad21)*
X17800000Y61880000D03*
G04 #@! TO.P,J1,22,22*
G04 #@! TO.N,unconnected-(J1-Pad22)*
X17800000Y64420000D03*
G04 #@! TO.P,J1,23,RHO2HG*
G04 #@! TO.N,GND*
X17800000Y66960000D03*
G04 #@! TO.P,J1,24,FIC*
G04 #@! TO.N,IGN_1*
X17800000Y69500000D03*
G04 #@! TO.P,J1,25,FACRE*
G04 #@! TO.N,ACR_1*
X15260000Y23780000D03*
G04 #@! TO.P,J1,26,PCHO2SB1*
G04 #@! TO.N,H2OSPC*
X15260000Y26320000D03*
G04 #@! TO.P,J1,27,TPS2*
G04 #@! TO.N,IN_TPS2*
X15260000Y28860000D03*
G04 #@! TO.P,J1,28,PSP2*
G04 #@! TO.N,unconnected-(J1-PSP2-Pad28)*
X15260000Y31400000D03*
G04 #@! TO.P,J1,29,5VSNSGND1*
G04 #@! TO.N,GND*
X15260000Y33940000D03*
G04 #@! TO.P,J1,30,CKPSH*
G04 #@! TO.N,CRANK_HIGH*
X15260000Y36480000D03*
G04 #@! TO.P,J1,31,FLS*
G04 #@! TO.N,unconnected-(J1-FLS-Pad31)*
X15260000Y39020000D03*
G04 #@! TO.P,J1,32,OPS*
G04 #@! TO.N,unconnected-(J1-OPS-Pad32)*
X15260000Y41560000D03*
G04 #@! TO.P,J1,33,33*
G04 #@! TO.N,unconnected-(J1-Pad33)*
X15260000Y44100000D03*
G04 #@! TO.P,J1,34,JSS*
G04 #@! TO.N,IN_JSS*
X15260000Y46640000D03*
G04 #@! TO.P,J1,35,35*
G04 #@! TO.N,unconnected-(J1-Pad35)*
X15260000Y49180000D03*
G04 #@! TO.P,J1,36,FKSH*
G04 #@! TO.N,RAW_KNOCK_F*
X15260000Y51720000D03*
G04 #@! TO.P,J1,37,FKSL*
G04 #@! TO.N,unconnected-(J1-FKSL-Pad37)*
X15260000Y54260000D03*
G04 #@! TO.P,J1,38,CANL1*
G04 #@! TO.N,CAN_L*
X15260000Y56800000D03*
G04 #@! TO.P,J1,39,CANH1*
G04 #@! TO.N,CAN_H*
X15260000Y59340000D03*
G04 #@! TO.P,J1,40,40*
G04 #@! TO.N,unconnected-(J1-Pad40)*
X15260000Y61880000D03*
G04 #@! TO.P,J1,41,TGS1*
G04 #@! TO.N,IN_PPS*
X15260000Y64420000D03*
G04 #@! TO.P,J1,42,TGS2*
G04 #@! TO.N,IN_PPS2*
X15260000Y66960000D03*
G04 #@! TO.P,J1,43,RIC*
G04 #@! TO.N,IGN_2*
X15260000Y69500000D03*
G04 #@! TO.P,J1,44,CFFC*
G04 #@! TO.N,unconnected-(J1-CFFC-Pad44)*
X9210000Y23780000D03*
G04 #@! TO.P,J1,45,RKSH*
G04 #@! TO.N,RAW_KNOCK_R*
X9210000Y26320000D03*
G04 #@! TO.P,J1,46,RKSL*
G04 #@! TO.N,unconnected-(J1-RKSL-Pad46)*
X9210000Y28860000D03*
G04 #@! TO.P,J1,47,FHO2SB1*
G04 #@! TO.N,H2OS1*
X9210000Y31400000D03*
G04 #@! TO.P,J1,48,RHO2SB2*
G04 #@! TO.N,H2OS2*
X9210000Y33940000D03*
G04 #@! TO.P,J1,49,CLT*
G04 #@! TO.N,IN_CLT*
X9210000Y36480000D03*
G04 #@! TO.P,J1,50,50*
G04 #@! TO.N,unconnected-(J1-Pad50)*
X9210000Y39020000D03*
G04 #@! TO.P,J1,51,51*
G04 #@! TO.N,unconnected-(J1-Pad51)*
X9210000Y41560000D03*
G04 #@! TO.P,J1,52,TPS1*
G04 #@! TO.N,IN_TPS*
X9210000Y44100000D03*
G04 #@! TO.P,J1,53,MAP*
G04 #@! TO.N,IN_MAP*
X9210000Y46640000D03*
G04 #@! TO.P,J1,54,54*
G04 #@! TO.N,unconnected-(J1-Pad54)*
X9210000Y49180000D03*
G04 #@! TO.P,J1,55,ETS*
G04 #@! TO.N,ETS*
X9210000Y51720000D03*
G04 #@! TO.P,J1,56,56*
G04 #@! TO.N,unconnected-(J1-Pad56)*
X9210000Y54260000D03*
G04 #@! TO.P,J1,57,57*
G04 #@! TO.N,unconnected-(J1-Pad57)*
X9210000Y56800000D03*
G04 #@! TO.P,J1,58,58*
G04 #@! TO.N,unconnected-(J1-Pad58)*
X9210000Y59340000D03*
G04 #@! TO.P,J1,59,59*
G04 #@! TO.N,unconnected-(J1-Pad59)*
X9210000Y61880000D03*
G04 #@! TO.P,J1,60,60*
G04 #@! TO.N,unconnected-(J1-Pad60)*
X9210000Y64420000D03*
G04 #@! TO.P,J1,61,61*
G04 #@! TO.N,unconnected-(J1-Pad61)*
X9210000Y66960000D03*
G04 #@! TO.P,J1,62,62*
G04 #@! TO.N,unconnected-(J1-Pad62)*
X9210000Y69500000D03*
G04 #@! TO.P,J1,63,63*
G04 #@! TO.N,unconnected-(J1-Pad63)*
X6670000Y23780000D03*
G04 #@! TO.P,J1,64,64*
G04 #@! TO.N,unconnected-(J1-Pad64)*
X6670000Y26320000D03*
G04 #@! TO.P,J1,65,PCH2OSG*
G04 #@! TO.N,GND*
X6670000Y28860000D03*
G04 #@! TO.P,J1,66,66*
G04 #@! TO.N,unconnected-(J1-Pad66)*
X6670000Y31400000D03*
G04 #@! TO.P,J1,67,BATFU*
G04 #@! TO.N,+12V_BAT*
X6670000Y33940000D03*
G04 #@! TO.P,J1,68,68*
G04 #@! TO.N,unconnected-(J1-Pad68)*
X6670000Y36480000D03*
G04 #@! TO.P,J1,69,69*
G04 #@! TO.N,unconnected-(J1-Pad69)*
X6670000Y39020000D03*
G04 #@! TO.P,J1,70,5VPS1*
G04 #@! TO.N,unconnected-(J1-5VPS1-Pad70)*
X6670000Y41560000D03*
G04 #@! TO.P,J1,71,AAT*
G04 #@! TO.N,IN_AAT*
X6670000Y44100000D03*
G04 #@! TO.P,J1,72,IAT*
G04 #@! TO.N,IN_IAT*
X6670000Y46640000D03*
G04 #@! TO.P,J1,73,73*
G04 #@! TO.N,unconnected-(J1-Pad73)*
X6670000Y49180000D03*
G04 #@! TO.P,J1,74,5VSNSGND2*
G04 #@! TO.N,GND*
X6670000Y51720000D03*
G04 #@! TO.P,J1,75,75*
G04 #@! TO.N,unconnected-(J1-Pad75)*
X6670000Y54260000D03*
G04 #@! TO.P,J1,76,76*
G04 #@! TO.N,unconnected-(J1-Pad76)*
X6670000Y56800000D03*
G04 #@! TO.P,J1,77,FICMPSNS*
G04 #@! TO.N,unconnected-(J1-FICMPSNS-Pad77)*
X6670000Y59340000D03*
G04 #@! TO.P,J1,78,GEARSENS*
G04 #@! TO.N,unconnected-(J1-GEARSENS-Pad78)*
X6670000Y61880000D03*
G04 #@! TO.P,J1,79,79*
G04 #@! TO.N,unconnected-(J1-Pad79)*
X6670000Y64420000D03*
G04 #@! TO.P,J1,80,PCHO2SHTR*
G04 #@! TO.N,unconnected-(J1-PCHO2SHTR-Pad80)*
X6670000Y66960000D03*
G04 #@! TO.P,J1,81,81*
G04 #@! TO.N,unconnected-(J1-Pad81)*
X6670000Y69500000D03*
G04 #@! TD*
D44*
G04 #@! TO.N,IN_TPS2*
X39116000Y56642000D03*
G04 #@! TO.N,IN_CLT*
X36830000Y61214000D03*
G04 #@! TO.N,IN_MAP*
X21590000Y47498000D03*
X38100000Y52324000D03*
G04 #@! TO.N,ETS*
X21590000Y36068000D03*
X38608000Y37338000D03*
G04 #@! TO.N,IN_TPS*
X23622000Y63100007D03*
G04 #@! TO.N,+3V3SW*
X78994000Y78994000D03*
X84328000Y74930000D03*
X93726000Y77470000D03*
X87122000Y58671004D03*
X87402000Y99822000D03*
G04 #@! TO.N,VIGN*
X85598000Y55118000D03*
X85598000Y58928000D03*
D45*
G04 #@! TO.N,+12V_BAT*
X3302000Y84836000D03*
D44*
G04 #@! TO.N,UART_BT_TX*
X77470000Y83312000D03*
X80610000Y78994000D03*
G04 #@! TO.N,MCU_KNOCK_R*
X39561000Y49975000D03*
X41400000Y45400000D03*
G04 #@! TO.N,MCUIGN_2*
X62484000Y74930000D03*
G04 #@! TO.N,MCU_CFC*
X22352000Y87884000D03*
G04 #@! TO.N,MCU_CPC*
X21336000Y86868000D03*
G04 #@! TO.N,IN_JSS*
X36830000Y48768000D03*
G04 #@! TD*
D46*
G04 #@! TO.N,IN_IAT*
X6223000Y58166000D02*
X42216992Y58166000D01*
X42216992Y58166000D02*
X42350996Y58300004D01*
X5334000Y57277000D02*
X6223000Y58166000D01*
X5334000Y47966000D02*
X5334000Y57277000D01*
X6660000Y46640000D02*
X5334000Y47966000D01*
G04 #@! TO.N,IN_TPS2*
X23368000Y35052000D02*
X23368000Y52324000D01*
X15250000Y28860000D02*
X16350000Y29960000D01*
X18276000Y29960000D02*
X23368000Y35052000D01*
X16350000Y29960000D02*
X18276000Y29960000D01*
X23368000Y52324000D02*
X24384000Y53340000D01*
X35814000Y53340000D02*
X39116000Y56642000D01*
X24384000Y53340000D02*
X35814000Y53340000D01*
G04 #@! TO.N,IN_CLT*
X41836998Y61214000D02*
X42350996Y60700002D01*
X36830000Y61214000D02*
X41836998Y61214000D01*
G04 #@! TO.N,IN_PPS2*
X41436991Y65786000D02*
X16424000Y65786000D01*
X16424000Y65786000D02*
X15250000Y66960000D01*
X42350996Y66700005D02*
X41436991Y65786000D01*
G04 #@! TO.N,IN_MAP*
X11526000Y46640000D02*
X9200000Y46640000D01*
X38100000Y52324000D02*
X38124002Y52299998D01*
X19558000Y45466000D02*
X12700000Y45466000D01*
X38124002Y52299998D02*
X42350996Y52299998D01*
X21590000Y47498000D02*
X19558000Y45466000D01*
X12700000Y45466000D02*
X11526000Y46640000D01*
G04 #@! TO.N,ETS*
X9200000Y51720000D02*
X11272000Y51720000D01*
X11272000Y51720000D02*
X12616315Y50375685D01*
X22606000Y36830000D02*
X21590000Y35814000D01*
X20998315Y50375685D02*
X22606000Y48768000D01*
X22606000Y48768000D02*
X22606000Y36830000D01*
X12616315Y50375685D02*
X20998315Y50375685D01*
G04 #@! TO.N,IN_PPS*
X16350000Y63320000D02*
X18870000Y63320000D01*
X19850007Y64300007D02*
X42350996Y64300007D01*
X15250000Y64420000D02*
X16350000Y63320000D01*
X18870000Y63320000D02*
X19850007Y64300007D01*
G04 #@! TO.N,IN_TPS*
X23622000Y63100007D02*
X42350996Y63100007D01*
G04 #@! TO.N,Net-(M1-SWCLK)*
X90700000Y38899998D02*
X87921998Y38899998D01*
X82422003Y33400003D02*
X81851001Y33400003D01*
X87921998Y38899998D02*
X82422003Y33400003D01*
G04 #@! TO.N,Net-(M1-SWDIO)*
X81850999Y32600002D02*
X82638002Y32600002D01*
X87838000Y37800000D02*
X90700000Y37800000D01*
X82638002Y32600002D02*
X87838000Y37800000D01*
G04 #@! TO.N,Net-(M1-nReset)*
X88075257Y39999995D02*
X90700000Y39999995D01*
X81850999Y34200001D02*
X82275263Y34200001D01*
X82275263Y34200001D02*
X88075257Y39999995D01*
G04 #@! TO.N,Net-(M1-SWO)*
X81850999Y31800004D02*
X82854004Y31800004D01*
X87754002Y36700002D02*
X90700000Y36700002D01*
X82854004Y31800004D02*
X87754002Y36700002D01*
G04 #@! TO.N,UART_BT_TX*
X80610000Y79664000D02*
X77470000Y82804000D01*
X80610000Y78994000D02*
X80610000Y79664000D01*
X77470000Y82804000D02*
X77470000Y83312000D01*
G04 #@! TO.N,MCU_KNOCK_R*
X41400000Y45400000D02*
X41400000Y48136000D01*
X41400000Y48136000D02*
X39561000Y49975000D01*
G04 #@! TO.N,MCUIGN_2*
X65250996Y69500005D02*
X65250996Y72163004D01*
X65250996Y72163004D02*
X62484000Y74930000D01*
G04 #@! TO.N,H2OS2*
X12446000Y29210000D02*
X14085999Y27570001D01*
X14085999Y27570001D02*
X30872001Y27570001D01*
X41002000Y37700000D02*
X41002000Y43751001D01*
X9200000Y33940000D02*
X12446000Y30694000D01*
X30872001Y27570001D02*
X41002000Y37700000D01*
X12446000Y30694000D02*
X12446000Y29210000D01*
X41002000Y43751001D02*
X42350996Y45099997D01*
G04 #@! TO.N,IN_AAT*
X19457817Y60440000D02*
X20097817Y59800000D01*
X6660000Y44100000D02*
X4826000Y45934000D01*
X5576000Y60440000D02*
X19457817Y60440000D01*
X4826000Y59690000D02*
X5576000Y60440000D01*
X20097817Y59800000D02*
X42050998Y59800000D01*
X42050998Y59800000D02*
X42350994Y59500004D01*
X4826000Y45934000D02*
X4826000Y59690000D01*
G04 #@! TO.N,H2OSPC*
X42350994Y40299994D02*
X41402000Y39351000D01*
X41402000Y39351000D02*
X41402000Y36830000D01*
X29663843Y25091843D02*
X16488157Y25091843D01*
X41402000Y36830000D02*
X29663843Y25091843D01*
X16488157Y25091843D02*
X15260000Y26320000D01*
G04 #@! TD*
G04 #@! TA.AperFunction,Conductor*
G04 #@! TO.N,GND*
G36*
X7749024Y28134529D02*
G01*
X7800133Y28207518D01*
X7827341Y28265865D01*
X7873513Y28318304D01*
X7940707Y28337457D01*
X8007588Y28317242D01*
X8052105Y28265868D01*
X8079432Y28207266D01*
X8103191Y28173335D01*
X8209954Y28020859D01*
X8370858Y27859955D01*
X8370861Y27859953D01*
X8557266Y27729432D01*
X8614681Y27702659D01*
X8615275Y27702382D01*
X8667714Y27656209D01*
X8686866Y27589016D01*
X8666650Y27522135D01*
X8615275Y27477618D01*
X8557267Y27450569D01*
X8557265Y27450568D01*
X8370858Y27320046D01*
X8209954Y27159142D01*
X8079432Y26972735D01*
X8079431Y26972733D01*
X8052382Y26914725D01*
X8006209Y26862286D01*
X7939016Y26843134D01*
X7872135Y26863350D01*
X7827618Y26914725D01*
X7811255Y26949816D01*
X7800568Y26972734D01*
X7670047Y27159139D01*
X7670045Y27159142D01*
X7509141Y27320046D01*
X7402546Y27394683D01*
X7322734Y27450568D01*
X7264132Y27477895D01*
X7211694Y27524067D01*
X7192543Y27591261D01*
X7212759Y27658142D01*
X7264135Y27702659D01*
X7322482Y27729867D01*
X7395471Y27780976D01*
X6840234Y28336213D01*
X6882292Y28347482D01*
X7007708Y28419890D01*
X7110110Y28522292D01*
X7182518Y28647708D01*
X7193787Y28689766D01*
X7749024Y28134529D01*
G37*
G04 #@! TD.AperFunction*
G04 #@! TA.AperFunction,Conductor*
G36*
X41558065Y57545815D02*
G01*
X41603820Y57493011D01*
X41613764Y57423853D01*
X41608067Y57400545D01*
X41565627Y57279262D01*
X41565624Y57279249D01*
X41545429Y57100003D01*
X41545429Y57099996D01*
X41565624Y56920750D01*
X41565625Y56920745D01*
X41625205Y56750476D01*
X41721178Y56597737D01*
X41731236Y56587679D01*
X41764721Y56526356D01*
X41759737Y56456664D01*
X41731242Y56412323D01*
X41721185Y56402265D01*
X41721182Y56402262D01*
X41625207Y56249520D01*
X41565627Y56079251D01*
X41565626Y56079246D01*
X41545431Y55900000D01*
X41545431Y55899993D01*
X41565626Y55720747D01*
X41565627Y55720742D01*
X41625207Y55550473D01*
X41721180Y55397734D01*
X41731233Y55387681D01*
X41764718Y55326358D01*
X41759734Y55256666D01*
X41731239Y55212325D01*
X41721185Y55202270D01*
X41721182Y55202267D01*
X41625207Y55049525D01*
X41565627Y54879256D01*
X41565626Y54879251D01*
X41545431Y54700005D01*
X41545431Y54699998D01*
X41565626Y54520752D01*
X41565627Y54520747D01*
X41625207Y54350478D01*
X41721180Y54197739D01*
X41731236Y54187683D01*
X41764721Y54126360D01*
X41759737Y54056668D01*
X41731236Y54012321D01*
X41721178Y54002264D01*
X41625205Y53849525D01*
X41565625Y53679256D01*
X41565624Y53679251D01*
X41545429Y53500005D01*
X41545429Y53499998D01*
X41565624Y53320752D01*
X41565625Y53320747D01*
X41625205Y53150478D01*
X41662911Y53090470D01*
X41681911Y53023233D01*
X41661543Y52956398D01*
X41608275Y52911184D01*
X41557917Y52900498D01*
X38706942Y52900498D01*
X38639903Y52920183D01*
X38619261Y52936817D01*
X38602262Y52953816D01*
X38449523Y53049789D01*
X38279254Y53109369D01*
X38279249Y53109370D01*
X38100004Y53129565D01*
X38099996Y53129565D01*
X37920750Y53109370D01*
X37920745Y53109369D01*
X37750476Y53049789D01*
X37597737Y52953816D01*
X37470187Y52826265D01*
X37470184Y52826263D01*
X37374211Y52673524D01*
X37314631Y52503255D01*
X37314630Y52503250D01*
X37294435Y52324004D01*
X37294435Y52323997D01*
X37314630Y52144751D01*
X37314631Y52144746D01*
X37374211Y51974477D01*
X37436716Y51875002D01*
X37470184Y51821738D01*
X37597738Y51694184D01*
X37750478Y51598211D01*
X37920745Y51538632D01*
X37920750Y51538631D01*
X38099996Y51518435D01*
X38100000Y51518435D01*
X38100004Y51518435D01*
X38279249Y51538631D01*
X38279252Y51538632D01*
X38279255Y51538632D01*
X38449522Y51598211D01*
X38580471Y51680493D01*
X38646443Y51699498D01*
X41557915Y51699498D01*
X41624954Y51679813D01*
X41670709Y51627009D01*
X41680653Y51557851D01*
X41662909Y51509526D01*
X41625205Y51449522D01*
X41565625Y51279253D01*
X41565624Y51279248D01*
X41545429Y51100002D01*
X41545429Y51099995D01*
X41565624Y50920749D01*
X41565625Y50920744D01*
X41625205Y50750475D01*
X41721178Y50597736D01*
X41731233Y50587681D01*
X41764718Y50526358D01*
X41759734Y50456666D01*
X41731239Y50412325D01*
X41721185Y50402270D01*
X41721182Y50402267D01*
X41625207Y50249525D01*
X41565627Y50079256D01*
X41565626Y50079251D01*
X41545431Y49900005D01*
X41545431Y49899998D01*
X41565626Y49720752D01*
X41565627Y49720747D01*
X41625207Y49550478D01*
X41721180Y49397739D01*
X41731236Y49387683D01*
X41764721Y49326360D01*
X41759737Y49256668D01*
X41731242Y49212327D01*
X41721185Y49202269D01*
X41721182Y49202266D01*
X41625205Y49049521D01*
X41615344Y49021338D01*
X41574622Y48964563D01*
X41509669Y48938816D01*
X41441108Y48952273D01*
X41410622Y48974613D01*
X40391700Y49993535D01*
X40358215Y50054858D01*
X40356163Y50067314D01*
X40346368Y50154255D01*
X40286789Y50324522D01*
X40190816Y50477262D01*
X40063262Y50604816D01*
X39910523Y50700789D01*
X39740254Y50760369D01*
X39740249Y50760370D01*
X39561004Y50780565D01*
X39560996Y50780565D01*
X39381750Y50760370D01*
X39381745Y50760369D01*
X39211476Y50700789D01*
X39058737Y50604816D01*
X38931184Y50477263D01*
X38835211Y50324524D01*
X38775631Y50154255D01*
X38775630Y50154250D01*
X38755435Y49975004D01*
X38755435Y49974997D01*
X38775630Y49795751D01*
X38775631Y49795746D01*
X38835211Y49625477D01*
X38917957Y49493789D01*
X38931184Y49472738D01*
X39058738Y49345184D01*
X39211478Y49249211D01*
X39381745Y49189632D01*
X39468669Y49179839D01*
X39533080Y49152774D01*
X39542465Y49144300D01*
X39968693Y48718072D01*
X40002178Y48656749D01*
X39997194Y48587057D01*
X39955322Y48531124D01*
X39889858Y48506707D01*
X39867129Y48507171D01*
X39837004Y48510565D01*
X39836996Y48510565D01*
X39657750Y48490370D01*
X39657745Y48490369D01*
X39487476Y48430789D01*
X39334737Y48334816D01*
X39207184Y48207263D01*
X39116556Y48063028D01*
X39064221Y48016737D01*
X39011562Y48005000D01*
X37498440Y48005000D01*
X37431401Y48024685D01*
X37385646Y48077489D01*
X37375702Y48146647D01*
X37404727Y48210203D01*
X37410759Y48216681D01*
X37417867Y48223789D01*
X37459816Y48265738D01*
X37555789Y48418478D01*
X37615368Y48588745D01*
X37623030Y48656749D01*
X37635565Y48767997D01*
X37635565Y48768004D01*
X37615369Y48947250D01*
X37615368Y48947255D01*
X37589445Y49021338D01*
X37555789Y49117522D01*
X37459816Y49270262D01*
X37332262Y49397816D01*
X37240085Y49455735D01*
X37179523Y49493789D01*
X37009254Y49553369D01*
X37009249Y49553370D01*
X36830004Y49573565D01*
X36829996Y49573565D01*
X36650750Y49553370D01*
X36650745Y49553369D01*
X36480476Y49493789D01*
X36327737Y49397816D01*
X36200184Y49270263D01*
X36104211Y49117524D01*
X36044631Y48947255D01*
X36044630Y48947250D01*
X36024435Y48768004D01*
X36024435Y48767997D01*
X36044630Y48588751D01*
X36044631Y48588746D01*
X36104211Y48418477D01*
X36200184Y48265738D01*
X36249241Y48216681D01*
X36282726Y48155358D01*
X36277742Y48085666D01*
X36235870Y48029733D01*
X36170406Y48005316D01*
X36161560Y48005000D01*
X25137000Y48005000D01*
X25137000Y42084592D01*
X25117315Y42017553D01*
X25066804Y41972873D01*
X25062480Y41970791D01*
X24909737Y41874816D01*
X24782184Y41747263D01*
X24686211Y41594524D01*
X24626631Y41424255D01*
X24626630Y41424250D01*
X24606435Y41245004D01*
X24606435Y41244997D01*
X24626630Y41065751D01*
X24626633Y41065738D01*
X24686209Y40895480D01*
X24739309Y40810971D01*
X24758309Y40743734D01*
X24739309Y40679029D01*
X24686209Y40594521D01*
X24626633Y40424263D01*
X24626630Y40424250D01*
X24606435Y40245004D01*
X24606435Y40244997D01*
X24626630Y40065751D01*
X24626631Y40065746D01*
X24686211Y39895477D01*
X24782184Y39742738D01*
X24909738Y39615184D01*
X24993925Y39562286D01*
X25062478Y39519211D01*
X25066795Y39517132D01*
X25118658Y39470313D01*
X25137000Y39405409D01*
X25137000Y38605000D01*
X40037000Y38605000D01*
X40037000Y43238908D01*
X40056685Y43305947D01*
X40109489Y43351702D01*
X40120046Y43355950D01*
X40124465Y43357497D01*
X40186522Y43379211D01*
X40211526Y43394922D01*
X40278762Y43413924D01*
X40345598Y43393558D01*
X40390813Y43340291D01*
X40401500Y43289930D01*
X40401500Y38000097D01*
X40381815Y37933058D01*
X40365181Y37912416D01*
X39616246Y37163482D01*
X39554923Y37129997D01*
X39485231Y37134981D01*
X39429298Y37176853D01*
X39404881Y37242317D01*
X39405345Y37265047D01*
X39413565Y37337998D01*
X39413565Y37338004D01*
X39393369Y37517250D01*
X39393368Y37517255D01*
X39333788Y37687524D01*
X39253596Y37815148D01*
X39237816Y37840262D01*
X39110262Y37967816D01*
X39027287Y38019953D01*
X38957523Y38063789D01*
X38787254Y38123369D01*
X38787249Y38123370D01*
X38608004Y38143565D01*
X38607996Y38143565D01*
X38428750Y38123370D01*
X38428745Y38123369D01*
X38258476Y38063789D01*
X38105737Y37967816D01*
X37978184Y37840263D01*
X37882211Y37687524D01*
X37822631Y37517255D01*
X37822630Y37517250D01*
X37802435Y37338004D01*
X37802435Y37337997D01*
X37822630Y37158751D01*
X37822631Y37158746D01*
X37882211Y36988477D01*
X37921157Y36926496D01*
X37978184Y36835738D01*
X38105738Y36708184D01*
X38258478Y36612211D01*
X38428745Y36552632D01*
X38428750Y36552631D01*
X38607996Y36532435D01*
X38608000Y36532435D01*
X38608002Y36532435D01*
X38642771Y36536353D01*
X38680953Y36540655D01*
X38749775Y36528601D01*
X38801154Y36481252D01*
X38818779Y36413642D01*
X38797053Y36347236D01*
X38782518Y36329754D01*
X30659585Y28206820D01*
X30598262Y28173335D01*
X30571904Y28170501D01*
X19108066Y28170501D01*
X19041027Y28190186D01*
X18995272Y28242990D01*
X18985328Y28312148D01*
X18995684Y28346905D01*
X19026736Y28413498D01*
X19026739Y28413504D01*
X19085635Y28633308D01*
X19102634Y28827616D01*
X19105468Y28859999D01*
X19105468Y28860002D01*
X19095126Y28978211D01*
X19085635Y29086692D01*
X19026739Y29306496D01*
X18930568Y29512734D01*
X18886216Y29576076D01*
X18863890Y29642280D01*
X18880900Y29710048D01*
X18900107Y29734874D01*
X23726506Y34561272D01*
X23726511Y34561276D01*
X23736714Y34571480D01*
X23736716Y34571480D01*
X23848520Y34683284D01*
X23927577Y34820216D01*
X23968500Y34972943D01*
X23968500Y52023903D01*
X23988185Y52090942D01*
X24004819Y52111584D01*
X24596416Y52703181D01*
X24657739Y52736666D01*
X24684097Y52739500D01*
X24933825Y52739500D01*
X25000864Y52719815D01*
X25046619Y52667011D01*
X25056563Y52597853D01*
X25027538Y52534297D01*
X24999798Y52510507D01*
X24990739Y52504816D01*
X24863184Y52377261D01*
X24767211Y52224522D01*
X24707631Y52054253D01*
X24707630Y52054248D01*
X24687435Y51875002D01*
X24687435Y51874995D01*
X24707630Y51695749D01*
X24707633Y51695736D01*
X24767209Y51525479D01*
X24788893Y51490968D01*
X24807892Y51423731D01*
X24788893Y51359028D01*
X24767209Y51324518D01*
X24707633Y51154261D01*
X24707630Y51154248D01*
X24687435Y50975002D01*
X24687435Y50974995D01*
X24707630Y50795749D01*
X24707631Y50795744D01*
X24767211Y50625475D01*
X24850287Y50493261D01*
X24863184Y50472736D01*
X24990738Y50345182D01*
X25110089Y50270189D01*
X25143478Y50249209D01*
X25209954Y50225948D01*
X25266730Y50185226D01*
X25292478Y50120274D01*
X25293000Y50108906D01*
X25293000Y49374998D01*
X33609963Y49374998D01*
X33677002Y49355313D01*
X33687275Y49347946D01*
X33690738Y49345184D01*
X33809975Y49270262D01*
X33843478Y49249211D01*
X33977631Y49202269D01*
X34013745Y49189632D01*
X34013750Y49189631D01*
X34192996Y49169435D01*
X34193000Y49169435D01*
X34193004Y49169435D01*
X34372249Y49189631D01*
X34372252Y49189632D01*
X34372255Y49189632D01*
X34542522Y49249211D01*
X34695262Y49345184D01*
X34822816Y49472738D01*
X34918789Y49625478D01*
X34978368Y49795745D01*
X34978369Y49795751D01*
X34998565Y49974997D01*
X34998565Y49975004D01*
X34978369Y50154250D01*
X34978368Y50154255D01*
X34963450Y50196889D01*
X34918789Y50324522D01*
X34905807Y50345182D01*
X34869941Y50402263D01*
X34822816Y50477262D01*
X34695262Y50604816D01*
X34542524Y50700788D01*
X34542523Y50700789D01*
X34485478Y50720750D01*
X34476043Y50724052D01*
X34419269Y50764773D01*
X34393522Y50829726D01*
X34393000Y50841092D01*
X34393000Y51008906D01*
X34412685Y51075945D01*
X34465489Y51121700D01*
X34476046Y51125948D01*
X34483813Y51128666D01*
X34542522Y51149209D01*
X34695262Y51245182D01*
X34822816Y51372736D01*
X34918789Y51525476D01*
X34978368Y51695743D01*
X34978848Y51700002D01*
X34998565Y51874995D01*
X34998565Y51875002D01*
X34978369Y52054248D01*
X34978368Y52054253D01*
X34927187Y52200520D01*
X34918789Y52224520D01*
X34905956Y52244943D01*
X34856283Y52323997D01*
X34822816Y52377260D01*
X34695262Y52504814D01*
X34695260Y52504816D01*
X34686202Y52510507D01*
X34639912Y52562842D01*
X34629264Y52631895D01*
X34657639Y52695743D01*
X34716029Y52734115D01*
X34752175Y52739500D01*
X35727331Y52739500D01*
X35727347Y52739499D01*
X35734943Y52739499D01*
X35893054Y52739499D01*
X35893057Y52739499D01*
X36045785Y52780423D01*
X36125180Y52826262D01*
X36182716Y52859480D01*
X36294520Y52971284D01*
X36294520Y52971286D01*
X36304724Y52981489D01*
X36304728Y52981494D01*
X39134535Y55811302D01*
X39195856Y55844785D01*
X39208311Y55846837D01*
X39295255Y55856632D01*
X39465522Y55916211D01*
X39618262Y56012184D01*
X39745816Y56139738D01*
X39841789Y56292478D01*
X39901368Y56462745D01*
X39903312Y56479998D01*
X39921565Y56641997D01*
X39921565Y56642004D01*
X39901369Y56821250D01*
X39901368Y56821255D01*
X39841788Y56991524D01*
X39767817Y57109248D01*
X39745816Y57144262D01*
X39618262Y57271816D01*
X39515309Y57336506D01*
X39469018Y57388841D01*
X39458370Y57457895D01*
X39486745Y57521743D01*
X39545135Y57560115D01*
X39581281Y57565500D01*
X41491026Y57565500D01*
X41558065Y57545815D01*
G37*
G04 #@! TD.AperFunction*
G04 #@! TA.AperFunction,Conductor*
G36*
X11292942Y46019815D02*
G01*
X11313583Y46003182D01*
X12331284Y44985480D01*
X12331286Y44985479D01*
X12331290Y44985476D01*
X12468209Y44906427D01*
X12468212Y44906425D01*
X12468216Y44906423D01*
X12620943Y44865499D01*
X12620945Y44865499D01*
X12786654Y44865499D01*
X12786670Y44865500D01*
X13987375Y44865500D01*
X14054414Y44845815D01*
X14100169Y44793011D01*
X14110113Y44723853D01*
X14099757Y44689099D01*
X14092816Y44674211D01*
X14033261Y44546498D01*
X14033258Y44546489D01*
X13974366Y44326698D01*
X13974364Y44326687D01*
X13954532Y44100002D01*
X13954532Y44099999D01*
X13974364Y43873314D01*
X13974366Y43873303D01*
X14033258Y43653512D01*
X14033261Y43653503D01*
X14129431Y43447268D01*
X14129432Y43447266D01*
X14259954Y43260859D01*
X14420858Y43099955D01*
X14420861Y43099953D01*
X14607266Y42969432D01*
X14664681Y42942659D01*
X14665275Y42942382D01*
X14717714Y42896209D01*
X14736866Y42829016D01*
X14716650Y42762135D01*
X14665275Y42717618D01*
X14607267Y42690569D01*
X14607265Y42690568D01*
X14420858Y42560046D01*
X14259954Y42399142D01*
X14129432Y42212735D01*
X14129431Y42212733D01*
X14033261Y42006498D01*
X14033258Y42006489D01*
X13974366Y41786698D01*
X13974364Y41786687D01*
X13954532Y41560002D01*
X13954532Y41559999D01*
X13974364Y41333314D01*
X13974366Y41333303D01*
X14033258Y41113512D01*
X14033261Y41113503D01*
X14129431Y40907268D01*
X14129432Y40907266D01*
X14259954Y40720859D01*
X14420858Y40559955D01*
X14420861Y40559953D01*
X14607266Y40429432D01*
X14625887Y40420749D01*
X14665275Y40402382D01*
X14717714Y40356209D01*
X14736866Y40289016D01*
X14716650Y40222135D01*
X14665275Y40177618D01*
X14607267Y40150569D01*
X14607265Y40150568D01*
X14420858Y40020046D01*
X14259954Y39859142D01*
X14129432Y39672735D01*
X14129431Y39672733D01*
X14033261Y39466498D01*
X14033258Y39466489D01*
X13974366Y39246698D01*
X13974364Y39246687D01*
X13954532Y39020002D01*
X13954532Y39019999D01*
X13974364Y38793314D01*
X13974366Y38793303D01*
X14033258Y38573512D01*
X14033261Y38573503D01*
X14129431Y38367268D01*
X14129432Y38367266D01*
X14259954Y38180859D01*
X14420858Y38019955D01*
X14420861Y38019953D01*
X14607266Y37889432D01*
X14665275Y37862382D01*
X14717714Y37816209D01*
X14736866Y37749016D01*
X14716650Y37682135D01*
X14665275Y37637618D01*
X14607267Y37610569D01*
X14607265Y37610568D01*
X14420858Y37480046D01*
X14259954Y37319142D01*
X14129432Y37132735D01*
X14129431Y37132733D01*
X14033261Y36926498D01*
X14033258Y36926489D01*
X13974366Y36706698D01*
X13974364Y36706687D01*
X13954532Y36480002D01*
X13954532Y36479999D01*
X13974364Y36253314D01*
X13974366Y36253303D01*
X14033258Y36033512D01*
X14033261Y36033503D01*
X14129431Y35827268D01*
X14129432Y35827266D01*
X14259954Y35640859D01*
X14420858Y35479955D01*
X14420861Y35479953D01*
X14607266Y35349432D01*
X14665865Y35322107D01*
X14718305Y35275935D01*
X14737457Y35208742D01*
X14717242Y35141861D01*
X14665867Y35097343D01*
X14607513Y35070132D01*
X14607512Y35070132D01*
X14534526Y35019027D01*
X14534526Y35019026D01*
X15089765Y34463788D01*
X15047708Y34452518D01*
X14922292Y34380110D01*
X14819890Y34277708D01*
X14747482Y34152292D01*
X14736212Y34110236D01*
X14180974Y34665474D01*
X14180973Y34665474D01*
X14129868Y34592488D01*
X14129866Y34592484D01*
X14033734Y34386327D01*
X14033730Y34386318D01*
X13974860Y34166611D01*
X13974858Y34166600D01*
X13955034Y33940003D01*
X13955034Y33939998D01*
X13974858Y33713401D01*
X13974860Y33713390D01*
X14033730Y33493683D01*
X14033735Y33493669D01*
X14129863Y33287522D01*
X14180974Y33214528D01*
X14736212Y33769766D01*
X14747482Y33727708D01*
X14819890Y33602292D01*
X14922292Y33499890D01*
X15047708Y33427482D01*
X15089765Y33416213D01*
X14534526Y32860975D01*
X14607513Y32809868D01*
X14607521Y32809864D01*
X14665864Y32782658D01*
X14718304Y32736486D01*
X14737456Y32669293D01*
X14717241Y32602411D01*
X14665866Y32557895D01*
X14607272Y32530572D01*
X14607265Y32530568D01*
X14420858Y32400046D01*
X14259954Y32239142D01*
X14129432Y32052735D01*
X14129431Y32052733D01*
X14033261Y31846498D01*
X14033258Y31846489D01*
X13974366Y31626698D01*
X13974364Y31626687D01*
X13954532Y31400002D01*
X13954532Y31399999D01*
X13974364Y31173314D01*
X13974366Y31173303D01*
X14033258Y30953512D01*
X14033261Y30953503D01*
X14129431Y30747268D01*
X14129432Y30747266D01*
X14259954Y30560859D01*
X14420858Y30399955D01*
X14420861Y30399953D01*
X14607266Y30269432D01*
X14665275Y30242382D01*
X14717714Y30196209D01*
X14736866Y30129016D01*
X14716650Y30062135D01*
X14665275Y30017618D01*
X14607267Y29990569D01*
X14607265Y29990568D01*
X14420858Y29860046D01*
X14259954Y29699142D01*
X14129432Y29512735D01*
X14129431Y29512733D01*
X14033261Y29306498D01*
X14033258Y29306489D01*
X13974366Y29086698D01*
X13974364Y29086687D01*
X13954532Y28860002D01*
X13954532Y28854586D01*
X13953319Y28854586D01*
X13940722Y28791930D01*
X13892102Y28741751D01*
X13824072Y28725824D01*
X13758230Y28749204D01*
X13743284Y28761951D01*
X13082819Y29422416D01*
X13049334Y29483739D01*
X13046500Y29510097D01*
X13046500Y30773056D01*
X13045590Y30776455D01*
X13039279Y30800007D01*
X13005577Y30925785D01*
X12962727Y31000003D01*
X12926520Y31062716D01*
X12814716Y31174520D01*
X12810385Y31178851D01*
X12810374Y31178861D01*
X10499828Y33489407D01*
X10466343Y33550730D01*
X10467734Y33609182D01*
X10480000Y33654958D01*
X10495635Y33713308D01*
X10515468Y33940000D01*
X10495635Y34166692D01*
X10436739Y34386496D01*
X10340568Y34592734D01*
X10210047Y34779139D01*
X10210045Y34779142D01*
X10049141Y34940046D01*
X9862734Y35070568D01*
X9862728Y35070571D01*
X9804725Y35097618D01*
X9752285Y35143790D01*
X9733133Y35210983D01*
X9753348Y35277865D01*
X9804725Y35322382D01*
X9862734Y35349432D01*
X10049139Y35479953D01*
X10210047Y35640861D01*
X10340568Y35827266D01*
X10436739Y36033504D01*
X10495635Y36253308D01*
X10515468Y36480000D01*
X10515358Y36481252D01*
X10509114Y36552631D01*
X10495635Y36706692D01*
X10436739Y36926496D01*
X10340568Y37132734D01*
X10210047Y37319139D01*
X10210045Y37319142D01*
X10049141Y37480046D01*
X9862734Y37610568D01*
X9862728Y37610571D01*
X9804725Y37637618D01*
X9752285Y37683790D01*
X9733133Y37750983D01*
X9753348Y37817865D01*
X9804725Y37862382D01*
X9862734Y37889432D01*
X10049139Y38019953D01*
X10210047Y38180861D01*
X10340568Y38367266D01*
X10436739Y38573504D01*
X10495635Y38793308D01*
X10515468Y39020000D01*
X10495635Y39246692D01*
X10436739Y39466496D01*
X10340568Y39672734D01*
X10210047Y39859139D01*
X10210045Y39859142D01*
X10049141Y40020046D01*
X9862734Y40150568D01*
X9862728Y40150571D01*
X9804725Y40177618D01*
X9752285Y40223790D01*
X9733133Y40290983D01*
X9753348Y40357865D01*
X9804725Y40402382D01*
X9862734Y40429432D01*
X10049139Y40559953D01*
X10210047Y40720861D01*
X10340568Y40907266D01*
X10436739Y41113504D01*
X10495635Y41333308D01*
X10515468Y41560000D01*
X10513783Y41579255D01*
X10509801Y41624770D01*
X10495635Y41786692D01*
X10436739Y42006496D01*
X10340568Y42212734D01*
X10210047Y42399139D01*
X10210045Y42399142D01*
X10049141Y42560046D01*
X9862734Y42690568D01*
X9862728Y42690571D01*
X9804725Y42717618D01*
X9752285Y42763790D01*
X9733133Y42830983D01*
X9753348Y42897865D01*
X9804725Y42942382D01*
X9805319Y42942659D01*
X9862734Y42969432D01*
X10049139Y43099953D01*
X10210047Y43260861D01*
X10340568Y43447266D01*
X10436739Y43653504D01*
X10495635Y43873308D01*
X10515468Y44100000D01*
X10495635Y44326692D01*
X10436739Y44546496D01*
X10340568Y44752734D01*
X10210047Y44939139D01*
X10210045Y44939142D01*
X10049141Y45100046D01*
X9862734Y45230568D01*
X9862728Y45230571D01*
X9804725Y45257618D01*
X9752285Y45303790D01*
X9733133Y45370983D01*
X9753348Y45437865D01*
X9804725Y45482382D01*
X9862734Y45509432D01*
X10049139Y45639953D01*
X10210047Y45800861D01*
X10340118Y45986625D01*
X10394693Y46030248D01*
X10441692Y46039500D01*
X11225903Y46039500D01*
X11292942Y46019815D01*
G37*
G04 #@! TD.AperFunction*
G04 #@! TA.AperFunction,Conductor*
G36*
X8007865Y30856652D02*
G01*
X8052382Y30805275D01*
X8079429Y30747272D01*
X8079432Y30747266D01*
X8209954Y30560859D01*
X8370858Y30399955D01*
X8370861Y30399953D01*
X8557266Y30269432D01*
X8615275Y30242382D01*
X8667714Y30196209D01*
X8686866Y30129016D01*
X8666650Y30062135D01*
X8615275Y30017618D01*
X8557267Y29990569D01*
X8557265Y29990568D01*
X8370858Y29860046D01*
X8209954Y29699142D01*
X8079432Y29512735D01*
X8079428Y29512728D01*
X8052105Y29454134D01*
X8005932Y29401695D01*
X7938738Y29382544D01*
X7871858Y29402761D01*
X7827342Y29454136D01*
X7800136Y29512479D01*
X7800132Y29512487D01*
X7749025Y29585474D01*
X7193787Y29030236D01*
X7182518Y29072292D01*
X7110110Y29197708D01*
X7007708Y29300110D01*
X6882292Y29372518D01*
X6840234Y29383788D01*
X7395472Y29939026D01*
X7322480Y29990136D01*
X7264134Y30017343D01*
X7211695Y30063516D01*
X7192543Y30130709D01*
X7212759Y30197590D01*
X7264134Y30242107D01*
X7322734Y30269432D01*
X7509139Y30399953D01*
X7670047Y30560861D01*
X7800568Y30747266D01*
X7827618Y30805276D01*
X7873790Y30857715D01*
X7940983Y30876867D01*
X8007865Y30856652D01*
G37*
G04 #@! TD.AperFunction*
G04 #@! TA.AperFunction,Conductor*
G36*
X21970951Y46706411D02*
G01*
X22003179Y46644417D01*
X22005500Y46620536D01*
X22005500Y37130098D01*
X21985815Y37063059D01*
X21969181Y37042417D01*
X21821256Y36894492D01*
X21759933Y36861007D01*
X21719692Y36858953D01*
X21590004Y36873565D01*
X21589996Y36873565D01*
X21410750Y36853370D01*
X21410745Y36853369D01*
X21240476Y36793789D01*
X21087737Y36697816D01*
X20960184Y36570263D01*
X20864211Y36417524D01*
X20804631Y36247255D01*
X20804630Y36247250D01*
X20784435Y36068004D01*
X20784435Y36067997D01*
X20804630Y35888751D01*
X20804631Y35888746D01*
X20864211Y35718477D01*
X20938205Y35600717D01*
X20960184Y35565738D01*
X21087738Y35438184D01*
X21153517Y35396853D01*
X21175224Y35379541D01*
X21221284Y35333481D01*
X21358215Y35254423D01*
X21510943Y35213499D01*
X21510946Y35213499D01*
X21669054Y35213499D01*
X21669057Y35213499D01*
X21821785Y35254423D01*
X21958716Y35333481D01*
X22004779Y35379546D01*
X22026478Y35396851D01*
X22092262Y35438184D01*
X22219816Y35565738D01*
X22261149Y35631522D01*
X22278453Y35653220D01*
X22555820Y35930586D01*
X22617142Y35964070D01*
X22686834Y35959086D01*
X22742767Y35917214D01*
X22767184Y35851750D01*
X22767500Y35842904D01*
X22767500Y35352098D01*
X22747815Y35285059D01*
X22731181Y35264417D01*
X19239156Y31772393D01*
X19177833Y31738908D01*
X19108141Y31743892D01*
X19052208Y31785764D01*
X19031700Y31827983D01*
X19026743Y31846484D01*
X19026738Y31846498D01*
X18930568Y32052733D01*
X18930567Y32052735D01*
X18800045Y32239142D01*
X18639141Y32400046D01*
X18452734Y32530568D01*
X18452728Y32530571D01*
X18394725Y32557618D01*
X18342285Y32603790D01*
X18323133Y32670983D01*
X18343348Y32737865D01*
X18394725Y32782382D01*
X18395319Y32782659D01*
X18452734Y32809432D01*
X18639139Y32939953D01*
X18800047Y33100861D01*
X18930568Y33287266D01*
X19026739Y33493504D01*
X19085635Y33713308D01*
X19105468Y33940000D01*
X19085635Y34166692D01*
X19026739Y34386496D01*
X18930568Y34592734D01*
X18800047Y34779139D01*
X18800045Y34779142D01*
X18639141Y34940046D01*
X18452734Y35070568D01*
X18452728Y35070571D01*
X18394725Y35097618D01*
X18342285Y35143790D01*
X18323133Y35210983D01*
X18343348Y35277865D01*
X18394725Y35322382D01*
X18452734Y35349432D01*
X18639139Y35479953D01*
X18800047Y35640861D01*
X18930568Y35827266D01*
X19026739Y36033504D01*
X19085635Y36253308D01*
X19105468Y36480000D01*
X19105358Y36481252D01*
X19099114Y36552631D01*
X19085635Y36706692D01*
X19026739Y36926496D01*
X18930568Y37132734D01*
X18800047Y37319139D01*
X18800045Y37319142D01*
X18639141Y37480046D01*
X18452734Y37610568D01*
X18452728Y37610571D01*
X18394725Y37637618D01*
X18342285Y37683790D01*
X18323133Y37750983D01*
X18343348Y37817865D01*
X18394725Y37862382D01*
X18452734Y37889432D01*
X18639139Y38019953D01*
X18800047Y38180861D01*
X18930568Y38367266D01*
X19026739Y38573504D01*
X19085635Y38793308D01*
X19105468Y39020000D01*
X19085635Y39246692D01*
X19026739Y39466496D01*
X18930568Y39672734D01*
X18800047Y39859139D01*
X18800045Y39859142D01*
X18639141Y40020046D01*
X18452734Y40150568D01*
X18452728Y40150571D01*
X18394725Y40177618D01*
X18342285Y40223790D01*
X18323133Y40290983D01*
X18343348Y40357865D01*
X18394725Y40402382D01*
X18452734Y40429432D01*
X18639139Y40559953D01*
X18800047Y40720861D01*
X18930568Y40907266D01*
X19026739Y41113504D01*
X19085635Y41333308D01*
X19105468Y41560000D01*
X19103783Y41579255D01*
X19099801Y41624770D01*
X19085635Y41786692D01*
X19026739Y42006496D01*
X18930568Y42212734D01*
X18800047Y42399139D01*
X18800045Y42399142D01*
X18639141Y42560046D01*
X18519822Y42643593D01*
X18452734Y42690568D01*
X18394132Y42717895D01*
X18341694Y42764067D01*
X18322543Y42831261D01*
X18342759Y42898142D01*
X18394135Y42942659D01*
X18452482Y42969867D01*
X18525471Y43020976D01*
X17970234Y43576213D01*
X18012292Y43587482D01*
X18137708Y43659890D01*
X18240110Y43762292D01*
X18312518Y43887708D01*
X18323787Y43929766D01*
X18879024Y43374529D01*
X18930136Y43447522D01*
X19026264Y43653669D01*
X19026269Y43653683D01*
X19085139Y43873390D01*
X19085141Y43873401D01*
X19104966Y44099998D01*
X19104966Y44100003D01*
X19085141Y44326600D01*
X19085139Y44326611D01*
X19026269Y44546318D01*
X19026265Y44546327D01*
X18959692Y44689095D01*
X18949200Y44758173D01*
X18977720Y44821957D01*
X19036196Y44860196D01*
X19072074Y44865500D01*
X19471331Y44865500D01*
X19471347Y44865499D01*
X19478943Y44865499D01*
X19637054Y44865499D01*
X19637057Y44865499D01*
X19789785Y44906423D01*
X19864441Y44949526D01*
X19874751Y44955478D01*
X19926709Y44985476D01*
X19926708Y44985476D01*
X19926716Y44985480D01*
X20038520Y45097284D01*
X20038520Y45097286D01*
X20048724Y45107489D01*
X20048728Y45107494D01*
X21608535Y46667302D01*
X21669856Y46700785D01*
X21682311Y46702837D01*
X21769255Y46712632D01*
X21769258Y46712633D01*
X21840545Y46737577D01*
X21910324Y46741139D01*
X21970951Y46706411D01*
G37*
G04 #@! TD.AperFunction*
G04 #@! TA.AperFunction,Conductor*
G36*
X16339024Y33214529D02*
G01*
X16390133Y33287518D01*
X16417341Y33345865D01*
X16463513Y33398304D01*
X16530707Y33417457D01*
X16597588Y33397242D01*
X16642105Y33345868D01*
X16669432Y33287266D01*
X16669433Y33287265D01*
X16799954Y33100859D01*
X16960858Y32939955D01*
X16960861Y32939953D01*
X17147266Y32809432D01*
X17204681Y32782659D01*
X17205275Y32782382D01*
X17257714Y32736209D01*
X17276866Y32669016D01*
X17256650Y32602135D01*
X17205275Y32557618D01*
X17147267Y32530569D01*
X17147265Y32530568D01*
X16960858Y32400046D01*
X16799954Y32239142D01*
X16669432Y32052735D01*
X16669431Y32052733D01*
X16642382Y31994725D01*
X16596209Y31942286D01*
X16529016Y31923134D01*
X16462135Y31943350D01*
X16417618Y31994725D01*
X16390568Y32052733D01*
X16390567Y32052735D01*
X16260045Y32239142D01*
X16099141Y32400046D01*
X15912735Y32530567D01*
X15912736Y32530567D01*
X15912734Y32530568D01*
X15854132Y32557895D01*
X15801694Y32604067D01*
X15782543Y32671261D01*
X15802759Y32738142D01*
X15854135Y32782659D01*
X15912482Y32809867D01*
X15985471Y32860976D01*
X15430234Y33416213D01*
X15472292Y33427482D01*
X15597708Y33499890D01*
X15700110Y33602292D01*
X15772518Y33727708D01*
X15783787Y33769766D01*
X16339024Y33214529D01*
G37*
G04 #@! TD.AperFunction*
G04 #@! TA.AperFunction,Conductor*
G36*
X16597865Y35936652D02*
G01*
X16642382Y35885275D01*
X16669429Y35827272D01*
X16669432Y35827266D01*
X16799954Y35640859D01*
X16960858Y35479955D01*
X16960861Y35479953D01*
X17147266Y35349432D01*
X17181471Y35333482D01*
X17205275Y35322382D01*
X17257714Y35276209D01*
X17276866Y35209016D01*
X17256650Y35142135D01*
X17205275Y35097618D01*
X17147267Y35070569D01*
X17147265Y35070568D01*
X16960858Y34940046D01*
X16799954Y34779142D01*
X16669432Y34592735D01*
X16669428Y34592728D01*
X16642105Y34534134D01*
X16595932Y34481695D01*
X16528738Y34462544D01*
X16461858Y34482761D01*
X16417342Y34534136D01*
X16390136Y34592479D01*
X16390132Y34592487D01*
X16339025Y34665474D01*
X15783787Y34110236D01*
X15772518Y34152292D01*
X15700110Y34277708D01*
X15597708Y34380110D01*
X15472292Y34452518D01*
X15430234Y34463788D01*
X15985472Y35019026D01*
X15912480Y35070136D01*
X15854134Y35097343D01*
X15801695Y35143516D01*
X15782543Y35210709D01*
X15802759Y35277590D01*
X15854134Y35322107D01*
X15912734Y35349432D01*
X16099139Y35479953D01*
X16260047Y35640861D01*
X16390568Y35827266D01*
X16417618Y35885276D01*
X16463790Y35937715D01*
X16530983Y35956867D01*
X16597865Y35936652D01*
G37*
G04 #@! TD.AperFunction*
G04 #@! TA.AperFunction,Conductor*
G36*
X17287482Y43887708D02*
G01*
X17359890Y43762292D01*
X17462292Y43659890D01*
X17587708Y43587482D01*
X17629765Y43576213D01*
X17074526Y43020975D01*
X17147513Y42969868D01*
X17147521Y42969864D01*
X17205864Y42942658D01*
X17258304Y42896486D01*
X17277456Y42829293D01*
X17257241Y42762411D01*
X17205866Y42717895D01*
X17147272Y42690572D01*
X17147265Y42690568D01*
X16960858Y42560046D01*
X16799954Y42399142D01*
X16669432Y42212735D01*
X16669431Y42212733D01*
X16642382Y42154725D01*
X16596209Y42102286D01*
X16529016Y42083134D01*
X16462135Y42103350D01*
X16417618Y42154725D01*
X16396506Y42200000D01*
X16390568Y42212734D01*
X16260047Y42399139D01*
X16260045Y42399142D01*
X16099141Y42560046D01*
X15912734Y42690568D01*
X15912728Y42690571D01*
X15854725Y42717618D01*
X15802285Y42763790D01*
X15783133Y42830983D01*
X15803348Y42897865D01*
X15854725Y42942382D01*
X15855319Y42942659D01*
X15912734Y42969432D01*
X16099139Y43099953D01*
X16260047Y43260861D01*
X16390568Y43447266D01*
X16417893Y43505866D01*
X16464065Y43558305D01*
X16531258Y43577457D01*
X16598139Y43557242D01*
X16642657Y43505866D01*
X16669864Y43447520D01*
X16720974Y43374528D01*
X17276212Y43929766D01*
X17287482Y43887708D01*
G37*
G04 #@! TD.AperFunction*
G04 #@! TA.AperFunction,Conductor*
G36*
X24839582Y57545815D02*
G01*
X24885337Y57493011D01*
X24895281Y57423853D01*
X24877537Y57375528D01*
X24817211Y57279521D01*
X24757631Y57109253D01*
X24757630Y57109248D01*
X24737435Y56930002D01*
X24737435Y56929995D01*
X24757630Y56750749D01*
X24757633Y56750736D01*
X24817209Y56580479D01*
X24838893Y56545968D01*
X24857892Y56478731D01*
X24838893Y56414028D01*
X24817209Y56379518D01*
X24757633Y56209261D01*
X24757630Y56209248D01*
X24737435Y56030002D01*
X24737435Y56029995D01*
X24757630Y55850749D01*
X24757631Y55850744D01*
X24817211Y55680475D01*
X24884579Y55573261D01*
X24913184Y55527736D01*
X25040738Y55400182D01*
X25148269Y55332616D01*
X25193478Y55304209D01*
X25259954Y55280948D01*
X25316730Y55240226D01*
X25342478Y55175274D01*
X25343000Y55163906D01*
X25343000Y54429998D01*
X33659963Y54429998D01*
X33727002Y54410313D01*
X33737275Y54402946D01*
X33740738Y54400184D01*
X33880389Y54312435D01*
X33893478Y54304211D01*
X34019820Y54260002D01*
X34063745Y54244632D01*
X34063750Y54244631D01*
X34242996Y54224435D01*
X34243000Y54224435D01*
X34243004Y54224435D01*
X34422249Y54244631D01*
X34422252Y54244632D01*
X34422255Y54244632D01*
X34592522Y54304211D01*
X34745262Y54400184D01*
X34872816Y54527738D01*
X34968789Y54680478D01*
X35028368Y54850745D01*
X35028369Y54850751D01*
X35048565Y55029997D01*
X35048565Y55030004D01*
X35028369Y55209250D01*
X35028368Y55209255D01*
X35010595Y55260047D01*
X34968789Y55379522D01*
X34963662Y55387681D01*
X34875660Y55527736D01*
X34872816Y55532262D01*
X34745262Y55659816D01*
X34729957Y55669433D01*
X34592524Y55755788D01*
X34592523Y55755789D01*
X34526044Y55779051D01*
X34469269Y55819773D01*
X34443522Y55884726D01*
X34443000Y55896092D01*
X34443000Y56063906D01*
X34462685Y56130945D01*
X34515489Y56176700D01*
X34526046Y56180948D01*
X34533813Y56183666D01*
X34592522Y56204209D01*
X34745262Y56300182D01*
X34872816Y56427736D01*
X34968789Y56580476D01*
X35028368Y56750743D01*
X35036313Y56821255D01*
X35048565Y56929995D01*
X35048565Y56930002D01*
X35028369Y57109248D01*
X35028368Y57109253D01*
X34980347Y57246489D01*
X34968789Y57279520D01*
X34908462Y57375529D01*
X34889463Y57442764D01*
X34909831Y57509600D01*
X34963098Y57554814D01*
X35013457Y57565500D01*
X38650719Y57565500D01*
X38717758Y57545815D01*
X38763513Y57493011D01*
X38773457Y57423853D01*
X38744432Y57360297D01*
X38716691Y57336506D01*
X38613737Y57271816D01*
X38486184Y57144263D01*
X38390210Y56991522D01*
X38330630Y56821250D01*
X38320837Y56734332D01*
X38293770Y56669918D01*
X38285298Y56660535D01*
X35601584Y53976819D01*
X35540261Y53943334D01*
X35513903Y53940500D01*
X24470669Y53940500D01*
X24470653Y53940501D01*
X24463057Y53940501D01*
X24304943Y53940501D01*
X24231236Y53920751D01*
X24152212Y53899577D01*
X24143316Y53894439D01*
X24143311Y53894436D01*
X24015287Y53820523D01*
X24015282Y53820519D01*
X22887481Y52692718D01*
X22887477Y52692713D01*
X22838642Y52608126D01*
X22838642Y52608125D01*
X22808423Y52555786D01*
X22808423Y52555785D01*
X22767499Y52403057D01*
X22767499Y52403055D01*
X22767499Y52234954D01*
X22767500Y52234941D01*
X22767500Y49755097D01*
X22747815Y49688058D01*
X22695011Y49642303D01*
X22625853Y49632359D01*
X22562297Y49661384D01*
X22555819Y49667416D01*
X21485905Y50737330D01*
X21485903Y50737333D01*
X21367032Y50856204D01*
X21367027Y50856208D01*
X21273415Y50910254D01*
X21230100Y50935262D01*
X21077372Y50976186D01*
X20919258Y50976186D01*
X20911662Y50976186D01*
X20911646Y50976185D01*
X19082737Y50976185D01*
X19015698Y50995870D01*
X18969943Y51048674D01*
X18959999Y51117832D01*
X18970355Y51152590D01*
X19026739Y51273504D01*
X19085635Y51493308D01*
X19105468Y51720000D01*
X19085635Y51946692D01*
X19026739Y52166496D01*
X18930568Y52372734D01*
X18817441Y52534297D01*
X18800045Y52559142D01*
X18639141Y52720046D01*
X18452734Y52850568D01*
X18452728Y52850571D01*
X18394725Y52877618D01*
X18342285Y52923790D01*
X18323133Y52990983D01*
X18343348Y53057865D01*
X18394725Y53102382D01*
X18452734Y53129432D01*
X18639139Y53259953D01*
X18800047Y53420861D01*
X18930568Y53607266D01*
X19026739Y53813504D01*
X19085635Y54033308D01*
X19104123Y54244631D01*
X19105468Y54259999D01*
X19105468Y54260002D01*
X19099114Y54332631D01*
X19085635Y54486692D01*
X19033711Y54680477D01*
X19026741Y54706489D01*
X19026738Y54706498D01*
X19015865Y54729816D01*
X18930568Y54912734D01*
X18800047Y55099139D01*
X18800045Y55099142D01*
X18639141Y55260046D01*
X18452734Y55390568D01*
X18452728Y55390571D01*
X18394725Y55417618D01*
X18342285Y55463790D01*
X18323133Y55530983D01*
X18343348Y55597865D01*
X18394725Y55642382D01*
X18452734Y55669432D01*
X18639139Y55799953D01*
X18800047Y55960861D01*
X18930568Y56147266D01*
X19026739Y56353504D01*
X19085635Y56573308D01*
X19105468Y56800000D01*
X19103608Y56821255D01*
X19094095Y56929995D01*
X19085635Y57026692D01*
X19026739Y57246496D01*
X18960242Y57389097D01*
X18949751Y57458172D01*
X18978270Y57521956D01*
X19036747Y57560196D01*
X19072625Y57565500D01*
X24772543Y57565500D01*
X24839582Y57545815D01*
G37*
G04 #@! TD.AperFunction*
G04 #@! TA.AperFunction,Conductor*
G36*
X7749024Y50994529D02*
G01*
X7800133Y51067518D01*
X7827341Y51125865D01*
X7873513Y51178304D01*
X7940707Y51197457D01*
X8007588Y51177242D01*
X8052105Y51125868D01*
X8079432Y51067266D01*
X8120296Y51008906D01*
X8209954Y50880859D01*
X8370858Y50719955D01*
X8370861Y50719953D01*
X8557266Y50589432D01*
X8614681Y50562659D01*
X8615275Y50562382D01*
X8667714Y50516209D01*
X8686866Y50449016D01*
X8666650Y50382135D01*
X8615275Y50337618D01*
X8557267Y50310569D01*
X8557265Y50310568D01*
X8370858Y50180046D01*
X8209954Y50019142D01*
X8079432Y49832735D01*
X8079431Y49832733D01*
X8052382Y49774725D01*
X8006209Y49722286D01*
X7939016Y49703134D01*
X7872135Y49723350D01*
X7827618Y49774725D01*
X7827404Y49775184D01*
X7800568Y49832734D01*
X7670047Y50019139D01*
X7670045Y50019142D01*
X7509141Y50180046D01*
X7322735Y50310567D01*
X7322736Y50310567D01*
X7322734Y50310568D01*
X7264132Y50337895D01*
X7211694Y50384067D01*
X7192543Y50451261D01*
X7212759Y50518142D01*
X7264135Y50562659D01*
X7322482Y50589867D01*
X7395471Y50640976D01*
X6840234Y51196213D01*
X6882292Y51207482D01*
X7007708Y51279890D01*
X7110110Y51382292D01*
X7182518Y51507708D01*
X7193787Y51549766D01*
X7749024Y50994529D01*
G37*
G04 #@! TD.AperFunction*
G04 #@! TA.AperFunction,Conductor*
G36*
X8007865Y53716652D02*
G01*
X8052381Y53665276D01*
X8056662Y53656096D01*
X8079429Y53607272D01*
X8079432Y53607266D01*
X8209954Y53420859D01*
X8370858Y53259955D01*
X8370861Y53259953D01*
X8557266Y53129432D01*
X8615275Y53102382D01*
X8667714Y53056209D01*
X8686866Y52989016D01*
X8666650Y52922135D01*
X8615275Y52877618D01*
X8557267Y52850569D01*
X8557265Y52850568D01*
X8370858Y52720046D01*
X8209954Y52559142D01*
X8079432Y52372735D01*
X8079428Y52372728D01*
X8052105Y52314134D01*
X8005932Y52261695D01*
X7938738Y52242544D01*
X7871858Y52262761D01*
X7827342Y52314136D01*
X7800136Y52372479D01*
X7800132Y52372487D01*
X7749025Y52445474D01*
X7193787Y51890236D01*
X7182518Y51932292D01*
X7110110Y52057708D01*
X7007708Y52160110D01*
X6882292Y52232518D01*
X6840234Y52243788D01*
X7395472Y52799026D01*
X7322480Y52850136D01*
X7264134Y52877343D01*
X7211695Y52923516D01*
X7192543Y52990709D01*
X7212759Y53057590D01*
X7264134Y53102107D01*
X7322734Y53129432D01*
X7509139Y53259953D01*
X7670047Y53420861D01*
X7800568Y53607266D01*
X7827618Y53665276D01*
X7873790Y53717715D01*
X7940983Y53736867D01*
X8007865Y53716652D01*
G37*
G04 #@! TD.AperFunction*
G04 #@! TA.AperFunction,Conductor*
G36*
X33700864Y52719815D02*
G01*
X33746619Y52667011D01*
X33756563Y52597853D01*
X33727538Y52534297D01*
X33699798Y52510507D01*
X33690738Y52504815D01*
X33687281Y52502057D01*
X33622595Y52475646D01*
X33609965Y52475001D01*
X26076035Y52475001D01*
X26008996Y52494686D01*
X25998719Y52502057D01*
X25995261Y52504815D01*
X25986202Y52510507D01*
X25939912Y52562842D01*
X25929264Y52631895D01*
X25957639Y52695743D01*
X26016029Y52734115D01*
X26052175Y52739500D01*
X33633825Y52739500D01*
X33700864Y52719815D01*
G37*
G04 #@! TD.AperFunction*
G04 #@! TA.AperFunction,Conductor*
G36*
X16597865Y68956652D02*
G01*
X16642382Y68905275D01*
X16669429Y68847272D01*
X16669432Y68847266D01*
X16799954Y68660859D01*
X16960858Y68499955D01*
X16960861Y68499953D01*
X17147266Y68369432D01*
X17205865Y68342107D01*
X17258305Y68295935D01*
X17277457Y68228742D01*
X17257242Y68161861D01*
X17205867Y68117343D01*
X17147513Y68090132D01*
X17147512Y68090132D01*
X17074526Y68039027D01*
X17074526Y68039026D01*
X17629765Y67483788D01*
X17587708Y67472518D01*
X17462292Y67400110D01*
X17359890Y67297708D01*
X17287482Y67172292D01*
X17276212Y67130235D01*
X16720974Y67685474D01*
X16720973Y67685474D01*
X16669868Y67612488D01*
X16669868Y67612487D01*
X16642657Y67554133D01*
X16596484Y67501694D01*
X16529290Y67482543D01*
X16462409Y67502759D01*
X16417893Y67554135D01*
X16390682Y67612488D01*
X16390568Y67612734D01*
X16260047Y67799139D01*
X16260045Y67799142D01*
X16099141Y67960046D01*
X15912734Y68090568D01*
X15912728Y68090571D01*
X15854725Y68117618D01*
X15802285Y68163790D01*
X15783133Y68230983D01*
X15803348Y68297865D01*
X15854725Y68342382D01*
X15912734Y68369432D01*
X16099139Y68499953D01*
X16260047Y68660861D01*
X16390568Y68847266D01*
X16417618Y68905276D01*
X16463790Y68957715D01*
X16530983Y68976867D01*
X16597865Y68956652D01*
G37*
G04 #@! TD.AperFunction*
G04 #@! TA.AperFunction,Conductor*
G36*
X101442539Y106479815D02*
G01*
X101488294Y106427011D01*
X101499500Y106375500D01*
X101499500Y102124000D01*
X101479815Y102056961D01*
X101427011Y102011206D01*
X101375500Y102000000D01*
X96000000Y102000000D01*
X96000000Y96613304D01*
X95980315Y96546265D01*
X95927511Y96500510D01*
X95908097Y96493531D01*
X95866853Y96482480D01*
X95806812Y96466392D01*
X95692686Y96400500D01*
X95692683Y96400498D01*
X95599502Y96307317D01*
X95599500Y96307314D01*
X95533608Y96193188D01*
X95499500Y96065892D01*
X95499500Y79934109D01*
X95533608Y79806813D01*
X95537793Y79799565D01*
X95599500Y79692686D01*
X95692686Y79599500D01*
X95806814Y79533608D01*
X95908095Y79506471D01*
X95967753Y79470108D01*
X95998283Y79407261D01*
X96000000Y79386697D01*
X96000000Y74000000D01*
X101375500Y74000000D01*
X101442539Y73980315D01*
X101488294Y73927511D01*
X101499500Y73876000D01*
X101499500Y624500D01*
X101479815Y557461D01*
X101427011Y511706D01*
X101375500Y500500D01*
X624500Y500500D01*
X557461Y520185D01*
X511706Y572989D01*
X500500Y624500D01*
X500500Y12830458D01*
X7219500Y12830458D01*
X7219500Y12569543D01*
X7219501Y12569526D01*
X7253556Y12310850D01*
X7253557Y12310845D01*
X7253558Y12310839D01*
X7253559Y12310837D01*
X7321091Y12058800D01*
X7420942Y11817739D01*
X7420944Y11817735D01*
X7551409Y11591765D01*
X7551414Y11591759D01*
X7551415Y11591757D01*
X7710250Y11384758D01*
X7710256Y11384751D01*
X7894750Y11200257D01*
X7894756Y11200252D01*
X8101765Y11041409D01*
X8327735Y10910944D01*
X8448268Y10861018D01*
X8568799Y10811092D01*
X8568800Y10811092D01*
X8568802Y10811091D01*
X8820839Y10743558D01*
X9079536Y10709500D01*
X9079543Y10709500D01*
X9340457Y10709500D01*
X9340464Y10709500D01*
X9599161Y10743558D01*
X9851198Y10811091D01*
X10092265Y10910944D01*
X10318235Y11041409D01*
X10525244Y11200252D01*
X10709748Y11384756D01*
X10868591Y11591765D01*
X10999056Y11817735D01*
X11098909Y12058802D01*
X11166442Y12310839D01*
X11200500Y12569536D01*
X11200500Y12830464D01*
X11166442Y13089161D01*
X11098909Y13341198D01*
X10999056Y13582265D01*
X10868591Y13808235D01*
X10709748Y14015244D01*
X10709743Y14015250D01*
X10525249Y14199744D01*
X10525242Y14199750D01*
X10318243Y14358585D01*
X10318241Y14358586D01*
X10318235Y14358591D01*
X10092265Y14489056D01*
X10092261Y14489058D01*
X9851200Y14588909D01*
X9716134Y14625100D01*
X9599161Y14656442D01*
X9599155Y14656443D01*
X9599150Y14656444D01*
X9340474Y14690499D01*
X9340469Y14690500D01*
X9340464Y14690500D01*
X9079536Y14690500D01*
X9079530Y14690500D01*
X9079525Y14690499D01*
X8820849Y14656444D01*
X8820842Y14656443D01*
X8820839Y14656442D01*
X8771398Y14643195D01*
X8568799Y14588909D01*
X8327738Y14489058D01*
X8327734Y14489056D01*
X8101765Y14358591D01*
X8101756Y14358585D01*
X7894757Y14199750D01*
X7894750Y14199744D01*
X7710256Y14015250D01*
X7710250Y14015243D01*
X7551415Y13808244D01*
X7551409Y13808235D01*
X7420944Y13582266D01*
X7420942Y13582262D01*
X7321091Y13341201D01*
X7253559Y13089164D01*
X7253556Y13089151D01*
X7219501Y12830475D01*
X7219500Y12830458D01*
X500500Y12830458D01*
X500500Y17297635D01*
X16569500Y17297635D01*
X16569500Y17102366D01*
X16600045Y16909515D01*
X16660381Y16723816D01*
X16660382Y16723813D01*
X16708370Y16629633D01*
X16726271Y16594500D01*
X16749031Y16549833D01*
X16863793Y16391875D01*
X16863797Y16391870D01*
X17001869Y16253798D01*
X17001874Y16253794D01*
X17139653Y16153693D01*
X17159836Y16139029D01*
X17273565Y16081081D01*
X17333812Y16050383D01*
X17333815Y16050382D01*
X17426664Y16020214D01*
X17519516Y15990045D01*
X17608835Y15975899D01*
X17712366Y15959500D01*
X17712371Y15959500D01*
X17907634Y15959500D01*
X18001125Y15974309D01*
X18100484Y15990045D01*
X18286187Y16050383D01*
X18460164Y16139029D01*
X18618132Y16253799D01*
X18756201Y16391868D01*
X18870971Y16549836D01*
X18959617Y16723813D01*
X19019955Y16909516D01*
X19035691Y17008875D01*
X19050500Y17102366D01*
X19050500Y17177867D01*
X95379500Y17177867D01*
X95379500Y17042133D01*
X95414631Y16911025D01*
X95414632Y16911022D01*
X95482495Y16793480D01*
X95482497Y16793478D01*
X95482498Y16793476D01*
X95578476Y16697498D01*
X95578477Y16697497D01*
X95578479Y16697496D01*
X95696021Y16629633D01*
X95696022Y16629633D01*
X95696025Y16629631D01*
X95827133Y16594500D01*
X95827135Y16594500D01*
X95962865Y16594500D01*
X95962867Y16594500D01*
X96093975Y16629631D01*
X96211524Y16697498D01*
X96307502Y16793476D01*
X96375369Y16911025D01*
X96410500Y17042133D01*
X96410500Y17177867D01*
X96375369Y17308975D01*
X96307502Y17426524D01*
X96211524Y17522502D01*
X96211522Y17522503D01*
X96211520Y17522505D01*
X96093978Y17590368D01*
X96093979Y17590368D01*
X96078484Y17594520D01*
X95962867Y17625500D01*
X95827133Y17625500D01*
X95711515Y17594520D01*
X95696021Y17590368D01*
X95578479Y17522505D01*
X95578473Y17522500D01*
X95482500Y17426527D01*
X95482495Y17426521D01*
X95414632Y17308979D01*
X95414631Y17308975D01*
X95379500Y17177867D01*
X19050500Y17177867D01*
X19050500Y17297635D01*
X19030085Y17426527D01*
X19019955Y17490484D01*
X18959617Y17676187D01*
X18959617Y17676188D01*
X18928919Y17736435D01*
X18870971Y17850164D01*
X18856307Y17870347D01*
X18756206Y18008126D01*
X18756202Y18008131D01*
X18618130Y18146203D01*
X18618125Y18146207D01*
X18460167Y18260969D01*
X18460166Y18260970D01*
X18460164Y18260971D01*
X18404426Y18289371D01*
X18286187Y18349618D01*
X18286184Y18349619D01*
X18100485Y18409955D01*
X17907634Y18440500D01*
X17907629Y18440500D01*
X17712371Y18440500D01*
X17712366Y18440500D01*
X17519514Y18409955D01*
X17333815Y18349619D01*
X17333812Y18349618D01*
X17159832Y18260969D01*
X17001874Y18146207D01*
X17001869Y18146203D01*
X16863797Y18008131D01*
X16863793Y18008126D01*
X16749031Y17850168D01*
X16660382Y17676188D01*
X16660381Y17676185D01*
X16600045Y17490486D01*
X16569500Y17297635D01*
X500500Y17297635D01*
X500500Y45854946D01*
X4225498Y45854946D01*
X4225499Y45854943D01*
X4266423Y45702215D01*
X4266424Y45702213D01*
X4266423Y45702213D01*
X4281292Y45676461D01*
X4281293Y45676459D01*
X4345475Y45565291D01*
X4345481Y45565283D01*
X4464349Y45446415D01*
X4464355Y45446410D01*
X5375944Y44534820D01*
X5409429Y44473497D01*
X5408038Y44415048D01*
X5384367Y44326703D01*
X5384364Y44326687D01*
X5364532Y44100001D01*
X5364532Y44099999D01*
X5384364Y43873314D01*
X5384366Y43873303D01*
X5443258Y43653512D01*
X5443261Y43653503D01*
X5539431Y43447268D01*
X5539432Y43447266D01*
X5669954Y43260859D01*
X5830858Y43099955D01*
X5830861Y43099953D01*
X6017266Y42969432D01*
X6074681Y42942659D01*
X6075275Y42942382D01*
X6127714Y42896209D01*
X6146866Y42829016D01*
X6126650Y42762135D01*
X6075275Y42717618D01*
X6017267Y42690569D01*
X6017265Y42690568D01*
X5830858Y42560046D01*
X5669954Y42399142D01*
X5539432Y42212735D01*
X5539431Y42212733D01*
X5443261Y42006498D01*
X5443258Y42006489D01*
X5384366Y41786698D01*
X5384364Y41786687D01*
X5364532Y41560002D01*
X5364532Y41559999D01*
X5384364Y41333314D01*
X5384366Y41333303D01*
X5443258Y41113512D01*
X5443261Y41113503D01*
X5539431Y40907268D01*
X5539432Y40907266D01*
X5669954Y40720859D01*
X5830858Y40559955D01*
X5830861Y40559953D01*
X6017266Y40429432D01*
X6035887Y40420749D01*
X6075275Y40402382D01*
X6127714Y40356209D01*
X6146866Y40289016D01*
X6126650Y40222135D01*
X6075275Y40177618D01*
X6017267Y40150569D01*
X6017265Y40150568D01*
X5830858Y40020046D01*
X5669954Y39859142D01*
X5539432Y39672735D01*
X5539431Y39672733D01*
X5443261Y39466498D01*
X5443258Y39466489D01*
X5384366Y39246698D01*
X5384364Y39246687D01*
X5364532Y39020002D01*
X5364532Y39019999D01*
X5384364Y38793314D01*
X5384366Y38793303D01*
X5443258Y38573512D01*
X5443261Y38573503D01*
X5539431Y38367268D01*
X5539432Y38367266D01*
X5669954Y38180859D01*
X5830858Y38019955D01*
X5830861Y38019953D01*
X6017266Y37889432D01*
X6075275Y37862382D01*
X6127714Y37816209D01*
X6146866Y37749016D01*
X6126650Y37682135D01*
X6075275Y37637618D01*
X6017267Y37610569D01*
X6017265Y37610568D01*
X5830858Y37480046D01*
X5669954Y37319142D01*
X5539432Y37132735D01*
X5539431Y37132733D01*
X5443261Y36926498D01*
X5443258Y36926489D01*
X5384366Y36706698D01*
X5384364Y36706687D01*
X5364532Y36480002D01*
X5364532Y36479999D01*
X5384364Y36253314D01*
X5384366Y36253303D01*
X5443258Y36033512D01*
X5443261Y36033503D01*
X5539431Y35827268D01*
X5539432Y35827266D01*
X5669954Y35640859D01*
X5830858Y35479955D01*
X5830861Y35479953D01*
X6017266Y35349432D01*
X6051471Y35333482D01*
X6075275Y35322382D01*
X6127714Y35276209D01*
X6146866Y35209016D01*
X6126650Y35142135D01*
X6075275Y35097618D01*
X6017267Y35070569D01*
X6017265Y35070568D01*
X5830858Y34940046D01*
X5669954Y34779142D01*
X5539432Y34592735D01*
X5539431Y34592733D01*
X5443261Y34386498D01*
X5443258Y34386489D01*
X5384366Y34166698D01*
X5384364Y34166687D01*
X5364532Y33940002D01*
X5364532Y33939999D01*
X5384364Y33713314D01*
X5384366Y33713303D01*
X5443258Y33493512D01*
X5443261Y33493503D01*
X5539431Y33287268D01*
X5539432Y33287266D01*
X5669954Y33100859D01*
X5830858Y32939955D01*
X5830861Y32939953D01*
X6017266Y32809432D01*
X6074681Y32782659D01*
X6075275Y32782382D01*
X6127714Y32736209D01*
X6146866Y32669016D01*
X6126650Y32602135D01*
X6075275Y32557618D01*
X6017267Y32530569D01*
X6017265Y32530568D01*
X5830858Y32400046D01*
X5669954Y32239142D01*
X5539432Y32052735D01*
X5539431Y32052733D01*
X5443261Y31846498D01*
X5443258Y31846489D01*
X5384366Y31626698D01*
X5384364Y31626687D01*
X5364532Y31400002D01*
X5364532Y31399999D01*
X5384364Y31173314D01*
X5384366Y31173303D01*
X5443258Y30953512D01*
X5443261Y30953503D01*
X5539431Y30747268D01*
X5539432Y30747266D01*
X5669954Y30560859D01*
X5830858Y30399955D01*
X5830861Y30399953D01*
X6017266Y30269432D01*
X6075865Y30242107D01*
X6128305Y30195935D01*
X6147457Y30128742D01*
X6127242Y30061861D01*
X6075867Y30017343D01*
X6017513Y29990132D01*
X6017512Y29990132D01*
X5944526Y29939027D01*
X5944526Y29939026D01*
X6499765Y29383788D01*
X6457708Y29372518D01*
X6332292Y29300110D01*
X6229890Y29197708D01*
X6157482Y29072292D01*
X6146212Y29030236D01*
X5590974Y29585474D01*
X5590973Y29585474D01*
X5539868Y29512488D01*
X5539866Y29512484D01*
X5443734Y29306327D01*
X5443730Y29306318D01*
X5384860Y29086611D01*
X5384858Y29086600D01*
X5365034Y28860003D01*
X5365034Y28859998D01*
X5384858Y28633401D01*
X5384860Y28633390D01*
X5443730Y28413683D01*
X5443735Y28413669D01*
X5539863Y28207522D01*
X5590974Y28134528D01*
X6146212Y28689766D01*
X6157482Y28647708D01*
X6229890Y28522292D01*
X6332292Y28419890D01*
X6457708Y28347482D01*
X6499765Y28336213D01*
X5944526Y27780975D01*
X6017513Y27729868D01*
X6017521Y27729864D01*
X6075864Y27702658D01*
X6128304Y27656486D01*
X6147456Y27589293D01*
X6127241Y27522411D01*
X6075866Y27477895D01*
X6017272Y27450572D01*
X6017265Y27450568D01*
X5830858Y27320046D01*
X5669954Y27159142D01*
X5539432Y26972735D01*
X5539431Y26972733D01*
X5443261Y26766498D01*
X5443258Y26766489D01*
X5384366Y26546698D01*
X5384364Y26546687D01*
X5364532Y26320002D01*
X5364532Y26319999D01*
X5384364Y26093314D01*
X5384366Y26093303D01*
X5443258Y25873512D01*
X5443261Y25873503D01*
X5539431Y25667268D01*
X5539432Y25667266D01*
X5669954Y25480859D01*
X5830858Y25319955D01*
X5830861Y25319953D01*
X6017266Y25189432D01*
X6075275Y25162382D01*
X6127714Y25116209D01*
X6146866Y25049016D01*
X6126650Y24982135D01*
X6075275Y24937618D01*
X6017267Y24910569D01*
X6017265Y24910568D01*
X5830858Y24780046D01*
X5669954Y24619142D01*
X5539432Y24432735D01*
X5539431Y24432733D01*
X5443261Y24226498D01*
X5443258Y24226489D01*
X5384366Y24006698D01*
X5384364Y24006687D01*
X5364532Y23780002D01*
X5364532Y23779999D01*
X5384364Y23553314D01*
X5384366Y23553303D01*
X5443258Y23333512D01*
X5443261Y23333503D01*
X5539431Y23127268D01*
X5539432Y23127266D01*
X5669954Y22940859D01*
X5830858Y22779955D01*
X5830861Y22779953D01*
X6017266Y22649432D01*
X6223504Y22553261D01*
X6443308Y22494365D01*
X6605230Y22480199D01*
X6669998Y22474532D01*
X6670000Y22474532D01*
X6670002Y22474532D01*
X6726673Y22479491D01*
X6896692Y22494365D01*
X7116496Y22553261D01*
X7322734Y22649432D01*
X7509139Y22779953D01*
X7670047Y22940861D01*
X7800568Y23127266D01*
X7827618Y23185276D01*
X7873790Y23237715D01*
X7940983Y23256867D01*
X8007865Y23236652D01*
X8052382Y23185275D01*
X8079429Y23127272D01*
X8079432Y23127266D01*
X8209954Y22940859D01*
X8370858Y22779955D01*
X8370861Y22779953D01*
X8557266Y22649432D01*
X8763504Y22553261D01*
X8983308Y22494365D01*
X9145230Y22480199D01*
X9209998Y22474532D01*
X9210000Y22474532D01*
X9210002Y22474532D01*
X9266673Y22479491D01*
X9436692Y22494365D01*
X9656496Y22553261D01*
X9862734Y22649432D01*
X10049139Y22779953D01*
X10210047Y22940861D01*
X10340568Y23127266D01*
X10436739Y23333504D01*
X10495635Y23553308D01*
X10515468Y23780000D01*
X10495635Y24006692D01*
X10436739Y24226496D01*
X10340568Y24432734D01*
X10210047Y24619139D01*
X10210045Y24619142D01*
X10049141Y24780046D01*
X9862734Y24910568D01*
X9862728Y24910571D01*
X9804725Y24937618D01*
X9752285Y24983790D01*
X9733133Y25050983D01*
X9753348Y25117865D01*
X9804725Y25162382D01*
X9862734Y25189432D01*
X10049139Y25319953D01*
X10210047Y25480861D01*
X10340568Y25667266D01*
X10436739Y25873504D01*
X10495635Y26093308D01*
X10515468Y26320000D01*
X10495635Y26546692D01*
X10436739Y26766496D01*
X10340568Y26972734D01*
X10210047Y27159139D01*
X10210045Y27159142D01*
X10049141Y27320046D01*
X9862734Y27450568D01*
X9862728Y27450571D01*
X9804725Y27477618D01*
X9752285Y27523790D01*
X9733133Y27590983D01*
X9753348Y27657865D01*
X9804725Y27702382D01*
X9805319Y27702659D01*
X9862734Y27729432D01*
X10049139Y27859953D01*
X10210047Y28020861D01*
X10340568Y28207266D01*
X10436739Y28413504D01*
X10495635Y28633308D01*
X10512634Y28827616D01*
X10515468Y28859999D01*
X10515468Y28860002D01*
X10505126Y28978211D01*
X10495635Y29086692D01*
X10436739Y29306496D01*
X10340568Y29512734D01*
X10210047Y29699139D01*
X10210045Y29699142D01*
X10049141Y29860046D01*
X9862734Y29990568D01*
X9862728Y29990571D01*
X9804725Y30017618D01*
X9752285Y30063790D01*
X9733133Y30130983D01*
X9753348Y30197865D01*
X9804725Y30242382D01*
X9862734Y30269432D01*
X10049139Y30399953D01*
X10210047Y30560861D01*
X10340568Y30747266D01*
X10436739Y30953504D01*
X10495635Y31173308D01*
X10515468Y31400000D01*
X10509178Y31471891D01*
X10522944Y31540389D01*
X10571559Y31590572D01*
X10639588Y31606506D01*
X10705431Y31583131D01*
X10720387Y31570378D01*
X11809181Y30481584D01*
X11842666Y30420261D01*
X11845500Y30393903D01*
X11845500Y29296670D01*
X11845499Y29296652D01*
X11845499Y29130946D01*
X11845498Y29130946D01*
X11886424Y28978211D01*
X11886425Y28978210D01*
X11909030Y28939058D01*
X11909031Y28939056D01*
X11965475Y28841291D01*
X11965481Y28841283D01*
X12084349Y28722415D01*
X12084355Y28722410D01*
X13601138Y27205627D01*
X13601148Y27205616D01*
X13605478Y27201286D01*
X13605479Y27201285D01*
X13717283Y27089481D01*
X13804094Y27039362D01*
X13804096Y27039360D01*
X13842150Y27017390D01*
X13854214Y27010424D01*
X13971745Y26978931D01*
X14031404Y26942567D01*
X14061933Y26879720D01*
X14053638Y26810344D01*
X14052033Y26806754D01*
X14033262Y26766499D01*
X14033258Y26766489D01*
X13974366Y26546698D01*
X13974364Y26546687D01*
X13954532Y26320002D01*
X13954532Y26319999D01*
X13974364Y26093314D01*
X13974366Y26093303D01*
X14033258Y25873512D01*
X14033261Y25873503D01*
X14129431Y25667268D01*
X14129432Y25667266D01*
X14259954Y25480859D01*
X14420858Y25319955D01*
X14420861Y25319953D01*
X14607266Y25189432D01*
X14665275Y25162382D01*
X14717714Y25116209D01*
X14736866Y25049016D01*
X14716650Y24982135D01*
X14665275Y24937618D01*
X14607267Y24910569D01*
X14607265Y24910568D01*
X14420858Y24780046D01*
X14259954Y24619142D01*
X14129432Y24432735D01*
X14129431Y24432733D01*
X14033261Y24226498D01*
X14033258Y24226489D01*
X13974366Y24006698D01*
X13974364Y24006687D01*
X13954532Y23780002D01*
X13954532Y23779999D01*
X13974364Y23553314D01*
X13974366Y23553303D01*
X14033258Y23333512D01*
X14033261Y23333503D01*
X14129431Y23127268D01*
X14129432Y23127266D01*
X14259954Y22940859D01*
X14420858Y22779955D01*
X14420861Y22779953D01*
X14607266Y22649432D01*
X14813504Y22553261D01*
X15033308Y22494365D01*
X15195230Y22480199D01*
X15259998Y22474532D01*
X15260000Y22474532D01*
X15260002Y22474532D01*
X15316673Y22479491D01*
X15486692Y22494365D01*
X15706496Y22553261D01*
X15912734Y22649432D01*
X16099139Y22779953D01*
X16260047Y22940861D01*
X16390568Y23127266D01*
X16417618Y23185276D01*
X16463790Y23237715D01*
X16530983Y23256867D01*
X16597865Y23236652D01*
X16642382Y23185275D01*
X16669429Y23127272D01*
X16669432Y23127266D01*
X16799954Y22940859D01*
X16960858Y22779955D01*
X16960861Y22779953D01*
X17147266Y22649432D01*
X17353504Y22553261D01*
X17573308Y22494365D01*
X17735230Y22480199D01*
X17799998Y22474532D01*
X17800000Y22474532D01*
X17800002Y22474532D01*
X17856673Y22479491D01*
X18026692Y22494365D01*
X18246496Y22553261D01*
X18452734Y22649432D01*
X18639139Y22779953D01*
X18800047Y22940861D01*
X18811955Y22957867D01*
X95379500Y22957867D01*
X95379500Y22822133D01*
X95414631Y22691025D01*
X95414632Y22691022D01*
X95482495Y22573480D01*
X95482497Y22573478D01*
X95482498Y22573476D01*
X95578476Y22477498D01*
X95578477Y22477497D01*
X95578479Y22477496D01*
X95696021Y22409633D01*
X95696022Y22409633D01*
X95696025Y22409631D01*
X95827133Y22374500D01*
X95827135Y22374500D01*
X95962865Y22374500D01*
X95962867Y22374500D01*
X96093975Y22409631D01*
X96211524Y22477498D01*
X96307502Y22573476D01*
X96375369Y22691025D01*
X96410500Y22822133D01*
X96410500Y22957867D01*
X96375369Y23088975D01*
X96307502Y23206524D01*
X96211524Y23302502D01*
X96211522Y23302503D01*
X96211520Y23302505D01*
X96093978Y23370368D01*
X96093979Y23370368D01*
X96078484Y23374520D01*
X95962867Y23405500D01*
X95827133Y23405500D01*
X95711515Y23374520D01*
X95696021Y23370368D01*
X95578479Y23302505D01*
X95578473Y23302500D01*
X95482500Y23206527D01*
X95482495Y23206521D01*
X95414632Y23088979D01*
X95414631Y23088975D01*
X95379500Y22957867D01*
X18811955Y22957867D01*
X18930568Y23127266D01*
X19026739Y23333504D01*
X19085635Y23553308D01*
X19105468Y23780000D01*
X19085635Y24006692D01*
X19026739Y24226496D01*
X18985496Y24314940D01*
X18975005Y24384015D01*
X19003524Y24447799D01*
X19062001Y24486039D01*
X19097879Y24491343D01*
X29577174Y24491343D01*
X29577190Y24491342D01*
X29584786Y24491342D01*
X29742897Y24491342D01*
X29742900Y24491342D01*
X29895628Y24532266D01*
X29945747Y24561204D01*
X30032559Y24611323D01*
X30144363Y24723127D01*
X30144363Y24723129D01*
X30154571Y24733336D01*
X30154573Y24733339D01*
X41446281Y36025048D01*
X41507602Y36058531D01*
X41577294Y36053547D01*
X41633227Y36011675D01*
X41657644Y35946211D01*
X41642792Y35877938D01*
X41638955Y35871395D01*
X41625207Y35849516D01*
X41565627Y35679246D01*
X41565626Y35679241D01*
X41545431Y35499995D01*
X41545431Y35499988D01*
X41565626Y35320742D01*
X41565627Y35320737D01*
X41625207Y35150468D01*
X41721180Y34997729D01*
X41731237Y34987672D01*
X41764722Y34926349D01*
X41759738Y34856657D01*
X41731237Y34812310D01*
X41721180Y34802254D01*
X41625207Y34649515D01*
X41565627Y34479246D01*
X41565626Y34479241D01*
X41545431Y34299995D01*
X41545431Y34299988D01*
X41565626Y34120742D01*
X41565627Y34120737D01*
X41625207Y33950468D01*
X41709719Y33815969D01*
X41728719Y33748732D01*
X41709719Y33684025D01*
X41625207Y33549527D01*
X41565627Y33379258D01*
X41565626Y33379253D01*
X41545431Y33200007D01*
X41545431Y33200000D01*
X41565626Y33020754D01*
X41565627Y33020749D01*
X41625207Y32850480D01*
X41721180Y32697741D01*
X41731236Y32687685D01*
X41764721Y32626362D01*
X41759737Y32556670D01*
X41731236Y32512323D01*
X41721178Y32502266D01*
X41625205Y32349527D01*
X41565625Y32179258D01*
X41565624Y32179253D01*
X41545429Y32000007D01*
X41545429Y32000000D01*
X41565624Y31820754D01*
X41565625Y31820749D01*
X41625205Y31650480D01*
X41721178Y31497741D01*
X41731236Y31487683D01*
X41764721Y31426360D01*
X41759737Y31356668D01*
X41731236Y31312321D01*
X41721180Y31302266D01*
X41625207Y31149527D01*
X41565627Y30979258D01*
X41565626Y30979253D01*
X41545431Y30800007D01*
X41545431Y30800000D01*
X41565626Y30620754D01*
X41565627Y30620749D01*
X41625207Y30450480D01*
X41721180Y30297741D01*
X41731234Y30287687D01*
X41764719Y30226364D01*
X41759735Y30156672D01*
X41731240Y30112331D01*
X41721185Y30102275D01*
X41721182Y30102272D01*
X41625207Y29949530D01*
X41565627Y29779261D01*
X41565626Y29779256D01*
X41545431Y29600010D01*
X41545431Y29600003D01*
X41565626Y29420757D01*
X41565627Y29420752D01*
X41625207Y29250483D01*
X41721180Y29097744D01*
X41731235Y29087689D01*
X41764720Y29026366D01*
X41759736Y28956674D01*
X41731241Y28912333D01*
X41721183Y28902274D01*
X41721180Y28902271D01*
X41625205Y28749529D01*
X41565625Y28579260D01*
X41565624Y28579255D01*
X41545429Y28400009D01*
X41545429Y28400002D01*
X41565624Y28220756D01*
X41565625Y28220751D01*
X41625205Y28050482D01*
X41721178Y27897743D01*
X41848732Y27770189D01*
X42001472Y27674216D01*
X42090617Y27643024D01*
X42137343Y27613663D01*
X42150999Y27600007D01*
X42294624Y27600007D01*
X42308508Y27599227D01*
X42350992Y27594440D01*
X42350994Y27594440D01*
X42350996Y27594440D01*
X42393480Y27599227D01*
X42407364Y27600007D01*
X43684907Y27600007D01*
X43751946Y27580322D01*
X43797701Y27527518D01*
X43801948Y27516963D01*
X43825211Y27450481D01*
X43825212Y27450480D01*
X43921184Y27297742D01*
X44048738Y27170188D01*
X44139080Y27113422D01*
X44201471Y27074219D01*
X44201478Y27074215D01*
X44301088Y27039360D01*
X44371745Y27014636D01*
X44371750Y27014635D01*
X44550996Y26994439D01*
X44551000Y26994439D01*
X44551004Y26994439D01*
X44730249Y27014635D01*
X44730251Y27014636D01*
X44730255Y27014636D01*
X44730258Y27014638D01*
X44730262Y27014638D01*
X44907095Y27076515D01*
X44907846Y27074367D01*
X44966128Y27083970D01*
X44994590Y27075616D01*
X44994906Y27076518D01*
X45171746Y27014639D01*
X45171751Y27014638D01*
X45350997Y26994442D01*
X45351001Y26994442D01*
X45351005Y26994442D01*
X45530250Y27014638D01*
X45530253Y27014639D01*
X45530256Y27014639D01*
X45700523Y27074218D01*
X45853263Y27170191D01*
X45980817Y27297745D01*
X46076790Y27450485D01*
X46100051Y27516962D01*
X46140771Y27573737D01*
X46205723Y27599485D01*
X46217092Y27600007D01*
X51184902Y27600007D01*
X51251941Y27580322D01*
X51297696Y27527518D01*
X51301941Y27516969D01*
X51325206Y27450482D01*
X51421179Y27297742D01*
X51548733Y27170188D01*
X51639075Y27113422D01*
X51701466Y27074219D01*
X51701473Y27074215D01*
X51801083Y27039360D01*
X51871740Y27014636D01*
X51871745Y27014635D01*
X52050991Y26994439D01*
X52050995Y26994439D01*
X52050999Y26994439D01*
X52230244Y27014635D01*
X52230246Y27014636D01*
X52230250Y27014636D01*
X52230253Y27014638D01*
X52230257Y27014638D01*
X52407090Y27076515D01*
X52407842Y27074364D01*
X52466105Y27083971D01*
X52494586Y27075612D01*
X52494902Y27076514D01*
X52671733Y27014638D01*
X52671739Y27014637D01*
X52671741Y27014636D01*
X52671742Y27014636D01*
X52671746Y27014635D01*
X52850992Y26994439D01*
X52850996Y26994439D01*
X52851000Y26994439D01*
X53030245Y27014635D01*
X53030247Y27014636D01*
X53030251Y27014636D01*
X53030254Y27014638D01*
X53030258Y27014638D01*
X53207091Y27076515D01*
X53207843Y27074364D01*
X53266106Y27083971D01*
X53294587Y27075612D01*
X53294903Y27076514D01*
X53471734Y27014638D01*
X53471740Y27014637D01*
X53471742Y27014636D01*
X53471743Y27014636D01*
X53471747Y27014635D01*
X53650993Y26994439D01*
X53650997Y26994439D01*
X53651001Y26994439D01*
X53830246Y27014635D01*
X53830249Y27014636D01*
X53830252Y27014636D01*
X54000519Y27074215D01*
X54000519Y27074216D01*
X54007092Y27076515D01*
X54007845Y27074363D01*
X54066107Y27083970D01*
X54094582Y27075609D01*
X54094900Y27076515D01*
X54271740Y27014636D01*
X54271745Y27014635D01*
X54450991Y26994439D01*
X54450995Y26994439D01*
X54450999Y26994439D01*
X54630244Y27014635D01*
X54630246Y27014636D01*
X54630250Y27014636D01*
X54630253Y27014638D01*
X54630257Y27014638D01*
X54807090Y27076515D01*
X54807842Y27074364D01*
X54866105Y27083971D01*
X54894582Y27075612D01*
X54894899Y27076515D01*
X55071731Y27014638D01*
X55071737Y27014637D01*
X55071739Y27014636D01*
X55071740Y27014636D01*
X55071744Y27014635D01*
X55250990Y26994439D01*
X55250994Y26994439D01*
X55250998Y26994439D01*
X55430243Y27014635D01*
X55430245Y27014636D01*
X55430249Y27014636D01*
X55430252Y27014638D01*
X55430256Y27014638D01*
X55607089Y27076515D01*
X55607840Y27074368D01*
X55666123Y27083971D01*
X55694586Y27075614D01*
X55694903Y27076517D01*
X55871734Y27014641D01*
X55871740Y27014640D01*
X55871742Y27014639D01*
X55871743Y27014639D01*
X55871747Y27014638D01*
X56050993Y26994442D01*
X56050997Y26994442D01*
X56051001Y26994442D01*
X56230246Y27014638D01*
X56230248Y27014639D01*
X56230252Y27014639D01*
X56230255Y27014641D01*
X56230259Y27014641D01*
X56407092Y27076518D01*
X56407846Y27074363D01*
X56466088Y27083973D01*
X56494583Y27075611D01*
X56494900Y27076515D01*
X56671740Y27014636D01*
X56671745Y27014635D01*
X56850991Y26994439D01*
X56850995Y26994439D01*
X56850999Y26994439D01*
X57030244Y27014635D01*
X57030246Y27014636D01*
X57030250Y27014636D01*
X57030253Y27014638D01*
X57030257Y27014638D01*
X57207090Y27076515D01*
X57207842Y27074364D01*
X57266105Y27083971D01*
X57294586Y27075612D01*
X57294902Y27076514D01*
X57471733Y27014638D01*
X57471739Y27014637D01*
X57471741Y27014636D01*
X57471742Y27014636D01*
X57471746Y27014635D01*
X57650992Y26994439D01*
X57650996Y26994439D01*
X57651000Y26994439D01*
X57830245Y27014635D01*
X57830247Y27014636D01*
X57830251Y27014636D01*
X57830254Y27014638D01*
X57830258Y27014638D01*
X58007091Y27076515D01*
X58007843Y27074364D01*
X58066106Y27083971D01*
X58094583Y27075612D01*
X58094900Y27076515D01*
X58271732Y27014638D01*
X58271738Y27014637D01*
X58271740Y27014636D01*
X58271741Y27014636D01*
X58271745Y27014635D01*
X58450991Y26994439D01*
X58450995Y26994439D01*
X58450999Y26994439D01*
X58630244Y27014635D01*
X58630246Y27014636D01*
X58630250Y27014636D01*
X58630253Y27014638D01*
X58630257Y27014638D01*
X58807090Y27076515D01*
X58807842Y27074364D01*
X58866105Y27083971D01*
X58894586Y27075612D01*
X58894902Y27076514D01*
X59071733Y27014638D01*
X59071739Y27014637D01*
X59071741Y27014636D01*
X59071742Y27014636D01*
X59071746Y27014635D01*
X59250992Y26994439D01*
X59250996Y26994439D01*
X59251000Y26994439D01*
X59430245Y27014635D01*
X59430247Y27014636D01*
X59430251Y27014636D01*
X59430254Y27014638D01*
X59430258Y27014638D01*
X59607091Y27076515D01*
X59607843Y27074364D01*
X59666106Y27083971D01*
X59694587Y27075612D01*
X59694903Y27076514D01*
X59871734Y27014638D01*
X59871740Y27014637D01*
X59871742Y27014636D01*
X59871743Y27014636D01*
X59871747Y27014635D01*
X60050993Y26994439D01*
X60050997Y26994439D01*
X60051001Y26994439D01*
X60230246Y27014635D01*
X60230249Y27014636D01*
X60230252Y27014636D01*
X60400519Y27074215D01*
X60400519Y27074216D01*
X60407092Y27076515D01*
X60407845Y27074363D01*
X60466107Y27083970D01*
X60494582Y27075609D01*
X60494900Y27076515D01*
X60671740Y27014636D01*
X60671745Y27014635D01*
X60850991Y26994439D01*
X60850995Y26994439D01*
X60850999Y26994439D01*
X61030244Y27014635D01*
X61030246Y27014636D01*
X61030250Y27014636D01*
X61030253Y27014638D01*
X61030257Y27014638D01*
X61207090Y27076515D01*
X61207842Y27074364D01*
X61266105Y27083971D01*
X61294586Y27075612D01*
X61294902Y27076514D01*
X61471733Y27014638D01*
X61471739Y27014637D01*
X61471741Y27014636D01*
X61471742Y27014636D01*
X61471746Y27014635D01*
X61650992Y26994439D01*
X61650996Y26994439D01*
X61651000Y26994439D01*
X61830245Y27014635D01*
X61830248Y27014636D01*
X61830251Y27014636D01*
X62000518Y27074215D01*
X62000518Y27074216D01*
X62007091Y27076515D01*
X62007844Y27074363D01*
X62066106Y27083970D01*
X62094581Y27075609D01*
X62094899Y27076515D01*
X62271739Y27014636D01*
X62271744Y27014635D01*
X62450990Y26994439D01*
X62450994Y26994439D01*
X62450998Y26994439D01*
X62630243Y27014635D01*
X62630245Y27014636D01*
X62630249Y27014636D01*
X62630252Y27014638D01*
X62630256Y27014638D01*
X62807089Y27076515D01*
X62807841Y27074364D01*
X62866104Y27083971D01*
X62894585Y27075612D01*
X62894901Y27076514D01*
X63071732Y27014638D01*
X63071738Y27014637D01*
X63071740Y27014636D01*
X63071741Y27014636D01*
X63071745Y27014635D01*
X63250991Y26994439D01*
X63250995Y26994439D01*
X63250999Y26994439D01*
X63430244Y27014635D01*
X63430246Y27014636D01*
X63430250Y27014636D01*
X63430253Y27014638D01*
X63430257Y27014638D01*
X63607090Y27076515D01*
X63607842Y27074364D01*
X63666105Y27083971D01*
X63694586Y27075612D01*
X63694902Y27076514D01*
X63871733Y27014638D01*
X63871739Y27014637D01*
X63871741Y27014636D01*
X63871742Y27014636D01*
X63871746Y27014635D01*
X64050992Y26994439D01*
X64050996Y26994439D01*
X64051000Y26994439D01*
X64230245Y27014635D01*
X64230247Y27014636D01*
X64230251Y27014636D01*
X64230254Y27014638D01*
X64230258Y27014638D01*
X64407091Y27076515D01*
X64407842Y27074367D01*
X64466124Y27083970D01*
X64494584Y27075614D01*
X64494901Y27076517D01*
X64671732Y27014641D01*
X64671738Y27014640D01*
X64671740Y27014639D01*
X64671741Y27014639D01*
X64671745Y27014638D01*
X64850991Y26994442D01*
X64850995Y26994442D01*
X64850999Y26994442D01*
X65030244Y27014638D01*
X65030246Y27014639D01*
X65030250Y27014639D01*
X65030253Y27014641D01*
X65030257Y27014641D01*
X65207090Y27076518D01*
X65207842Y27074367D01*
X65266105Y27083974D01*
X65294586Y27075615D01*
X65294902Y27076517D01*
X65471733Y27014641D01*
X65471739Y27014640D01*
X65471741Y27014639D01*
X65471742Y27014639D01*
X65471746Y27014638D01*
X65650992Y26994442D01*
X65650996Y26994442D01*
X65651000Y26994442D01*
X65830245Y27014638D01*
X65830247Y27014639D01*
X65830251Y27014639D01*
X65830254Y27014641D01*
X65830258Y27014641D01*
X66007091Y27076518D01*
X66007844Y27074366D01*
X66066106Y27083973D01*
X66094586Y27075612D01*
X66094902Y27076515D01*
X66271734Y27014638D01*
X66271740Y27014637D01*
X66271742Y27014636D01*
X66271743Y27014636D01*
X66271747Y27014635D01*
X66450993Y26994439D01*
X66450997Y26994439D01*
X66451001Y26994439D01*
X66630246Y27014635D01*
X66630249Y27014636D01*
X66630252Y27014636D01*
X66800519Y27074215D01*
X66800519Y27074216D01*
X66807092Y27076515D01*
X66807845Y27074363D01*
X66866107Y27083970D01*
X66894582Y27075609D01*
X66894900Y27076515D01*
X67071740Y27014636D01*
X67071745Y27014635D01*
X67250991Y26994439D01*
X67250995Y26994439D01*
X67250999Y26994439D01*
X67430244Y27014635D01*
X67430246Y27014636D01*
X67430250Y27014636D01*
X67430253Y27014638D01*
X67430257Y27014638D01*
X67607090Y27076515D01*
X67607842Y27074364D01*
X67666105Y27083971D01*
X67694586Y27075612D01*
X67694902Y27076514D01*
X67871733Y27014638D01*
X67871739Y27014637D01*
X67871741Y27014636D01*
X67871742Y27014636D01*
X67871746Y27014635D01*
X68050992Y26994439D01*
X68050996Y26994439D01*
X68051000Y26994439D01*
X68230245Y27014635D01*
X68230247Y27014636D01*
X68230251Y27014636D01*
X68230254Y27014638D01*
X68230258Y27014638D01*
X68407091Y27076515D01*
X68407843Y27074364D01*
X68466107Y27083972D01*
X68494581Y27075612D01*
X68494899Y27076518D01*
X68671739Y27014639D01*
X68671744Y27014638D01*
X68850990Y26994442D01*
X68850994Y26994442D01*
X68850998Y26994442D01*
X69030243Y27014638D01*
X69030245Y27014639D01*
X69030249Y27014639D01*
X69030252Y27014641D01*
X69030256Y27014641D01*
X69207089Y27076518D01*
X69207841Y27074367D01*
X69266104Y27083974D01*
X69294585Y27075615D01*
X69294901Y27076517D01*
X69471732Y27014641D01*
X69471738Y27014640D01*
X69471740Y27014639D01*
X69471741Y27014639D01*
X69471745Y27014638D01*
X69650991Y26994442D01*
X69650995Y26994442D01*
X69650999Y26994442D01*
X69830244Y27014638D01*
X69830246Y27014639D01*
X69830250Y27014639D01*
X69830253Y27014641D01*
X69830257Y27014641D01*
X70007090Y27076518D01*
X70007842Y27074367D01*
X70066105Y27083974D01*
X70094586Y27075615D01*
X70094902Y27076517D01*
X70271733Y27014641D01*
X70271739Y27014640D01*
X70271741Y27014639D01*
X70271742Y27014639D01*
X70271746Y27014638D01*
X70450992Y26994442D01*
X70450996Y26994442D01*
X70451000Y26994442D01*
X70630245Y27014638D01*
X70630248Y27014639D01*
X70630251Y27014639D01*
X70800518Y27074218D01*
X70800518Y27074219D01*
X70807091Y27076518D01*
X70807845Y27074362D01*
X70866088Y27083974D01*
X70894582Y27075609D01*
X70894900Y27076515D01*
X71071740Y27014636D01*
X71071745Y27014635D01*
X71250991Y26994439D01*
X71250995Y26994439D01*
X71250999Y26994439D01*
X71430244Y27014635D01*
X71430246Y27014636D01*
X71430250Y27014636D01*
X71430253Y27014638D01*
X71430257Y27014638D01*
X71607090Y27076515D01*
X71607842Y27074364D01*
X71666105Y27083971D01*
X71694586Y27075612D01*
X71694902Y27076514D01*
X71871733Y27014638D01*
X71871739Y27014637D01*
X71871741Y27014636D01*
X71871742Y27014636D01*
X71871746Y27014635D01*
X72050992Y26994439D01*
X72050996Y26994439D01*
X72051000Y26994439D01*
X72230245Y27014635D01*
X72230247Y27014636D01*
X72230251Y27014636D01*
X72230254Y27014638D01*
X72230258Y27014638D01*
X72407091Y27076515D01*
X72407842Y27074367D01*
X72466124Y27083969D01*
X72494584Y27075612D01*
X72494901Y27076515D01*
X72671733Y27014638D01*
X72671739Y27014637D01*
X72671741Y27014636D01*
X72671742Y27014636D01*
X72671746Y27014635D01*
X72850992Y26994439D01*
X72850996Y26994439D01*
X72851000Y26994439D01*
X73030245Y27014635D01*
X73030247Y27014636D01*
X73030251Y27014636D01*
X73030254Y27014638D01*
X73030258Y27014638D01*
X73207091Y27076515D01*
X73207843Y27074366D01*
X73266123Y27083968D01*
X73294580Y27075612D01*
X73294897Y27076515D01*
X73471729Y27014638D01*
X73471735Y27014637D01*
X73471737Y27014636D01*
X73471738Y27014636D01*
X73471742Y27014635D01*
X73650988Y26994439D01*
X73650992Y26994439D01*
X73650996Y26994439D01*
X73830241Y27014635D01*
X73830243Y27014636D01*
X73830247Y27014636D01*
X73830250Y27014638D01*
X73830254Y27014638D01*
X74007087Y27076515D01*
X74007839Y27074365D01*
X74066105Y27083974D01*
X74094584Y27075613D01*
X74094901Y27076518D01*
X74271733Y27014641D01*
X74271739Y27014640D01*
X74271741Y27014639D01*
X74271742Y27014639D01*
X74271746Y27014638D01*
X74450992Y26994442D01*
X74450996Y26994442D01*
X74451000Y26994442D01*
X74630245Y27014638D01*
X74630247Y27014639D01*
X74630251Y27014639D01*
X74630254Y27014641D01*
X74630258Y27014641D01*
X74807091Y27076518D01*
X74807843Y27074367D01*
X74866106Y27083974D01*
X74894587Y27075615D01*
X74894903Y27076517D01*
X75071734Y27014641D01*
X75071740Y27014640D01*
X75071742Y27014639D01*
X75071743Y27014639D01*
X75071747Y27014638D01*
X75250993Y26994442D01*
X75250997Y26994442D01*
X75251001Y26994442D01*
X75430246Y27014638D01*
X75430248Y27014639D01*
X75430252Y27014639D01*
X75430255Y27014641D01*
X75430259Y27014641D01*
X75607092Y27076518D01*
X75607846Y27074363D01*
X75666088Y27083973D01*
X75694583Y27075611D01*
X75694900Y27076515D01*
X75871740Y27014636D01*
X75871745Y27014635D01*
X76050991Y26994439D01*
X76050995Y26994439D01*
X76050999Y26994439D01*
X76230244Y27014635D01*
X76230246Y27014636D01*
X76230250Y27014636D01*
X76230253Y27014638D01*
X76230257Y27014638D01*
X76407090Y27076515D01*
X76407842Y27074364D01*
X76466105Y27083971D01*
X76494586Y27075612D01*
X76494902Y27076514D01*
X76671733Y27014638D01*
X76671739Y27014637D01*
X76671741Y27014636D01*
X76671742Y27014636D01*
X76671746Y27014635D01*
X76850992Y26994439D01*
X76850996Y26994439D01*
X76851000Y26994439D01*
X77030245Y27014635D01*
X77030247Y27014636D01*
X77030251Y27014636D01*
X77030254Y27014638D01*
X77030258Y27014638D01*
X77207091Y27076515D01*
X77207843Y27074364D01*
X77266106Y27083971D01*
X77294587Y27075612D01*
X77294903Y27076514D01*
X77471734Y27014638D01*
X77471740Y27014637D01*
X77471742Y27014636D01*
X77471743Y27014636D01*
X77471747Y27014635D01*
X77650993Y26994439D01*
X77650997Y26994439D01*
X77651001Y26994439D01*
X77830246Y27014635D01*
X77830249Y27014636D01*
X77830252Y27014636D01*
X78000519Y27074215D01*
X78000519Y27074216D01*
X78007092Y27076515D01*
X78007845Y27074363D01*
X78066107Y27083970D01*
X78094582Y27075609D01*
X78094900Y27076515D01*
X78271740Y27014636D01*
X78271745Y27014635D01*
X78450991Y26994439D01*
X78450995Y26994439D01*
X78450999Y26994439D01*
X78630244Y27014635D01*
X78630246Y27014636D01*
X78630250Y27014636D01*
X78630253Y27014638D01*
X78630257Y27014638D01*
X78807090Y27076515D01*
X78807842Y27074364D01*
X78866105Y27083971D01*
X78894586Y27075612D01*
X78894902Y27076514D01*
X79071733Y27014638D01*
X79071739Y27014637D01*
X79071741Y27014636D01*
X79071742Y27014636D01*
X79071746Y27014635D01*
X79250992Y26994439D01*
X79250996Y26994439D01*
X79251000Y26994439D01*
X79430245Y27014635D01*
X79430248Y27014636D01*
X79430251Y27014636D01*
X79600518Y27074215D01*
X79753258Y27170188D01*
X79880812Y27297742D01*
X79976785Y27450482D01*
X80000046Y27516960D01*
X80040768Y27573735D01*
X80105720Y27599483D01*
X80117088Y27600005D01*
X80984907Y27600005D01*
X81051946Y27580320D01*
X81097701Y27527516D01*
X81101948Y27516960D01*
X81125208Y27450486D01*
X81125210Y27450482D01*
X81221183Y27297742D01*
X81348737Y27170188D01*
X81439079Y27113422D01*
X81501470Y27074219D01*
X81501477Y27074215D01*
X81601087Y27039360D01*
X81671744Y27014636D01*
X81671749Y27014635D01*
X81850995Y26994439D01*
X81850999Y26994439D01*
X81851003Y26994439D01*
X82030248Y27014635D01*
X82030251Y27014636D01*
X82030254Y27014636D01*
X82200521Y27074215D01*
X82353261Y27170188D01*
X82480815Y27297742D01*
X82576788Y27450482D01*
X82636367Y27620749D01*
X82638877Y27643024D01*
X82656564Y27800001D01*
X82656564Y27800008D01*
X82636368Y27979254D01*
X82636365Y27979267D01*
X82574489Y28156098D01*
X82576634Y28156849D01*
X82567038Y28215147D01*
X82575392Y28243592D01*
X82574490Y28243907D01*
X82636367Y28420740D01*
X82636370Y28420753D01*
X82656566Y28599999D01*
X82656566Y28600006D01*
X82636370Y28779252D01*
X82636367Y28779265D01*
X82574491Y28956096D01*
X82576636Y28956847D01*
X82567038Y29015147D01*
X82575394Y29043592D01*
X82574490Y29043908D01*
X82636367Y29220741D01*
X82636370Y29220754D01*
X82656566Y29400000D01*
X82656566Y29400007D01*
X82636370Y29579253D01*
X82636369Y29579258D01*
X82574490Y29756098D01*
X82576636Y29756850D01*
X82567038Y29815149D01*
X82575391Y29843592D01*
X82574488Y29843907D01*
X82636365Y30020740D01*
X82636368Y30020753D01*
X82656564Y30199999D01*
X82656564Y30200006D01*
X82636368Y30379252D01*
X82636365Y30379265D01*
X82574489Y30556096D01*
X82576634Y30556847D01*
X82567036Y30615147D01*
X82575392Y30643592D01*
X82574488Y30643908D01*
X82636365Y30820741D01*
X82636368Y30820754D01*
X82656564Y31000002D01*
X82656564Y31000007D01*
X82649622Y31061620D01*
X82661677Y31130442D01*
X82709026Y31181821D01*
X82772842Y31199503D01*
X82933058Y31199503D01*
X82933061Y31199503D01*
X83085789Y31240427D01*
X83144309Y31274214D01*
X83222720Y31319484D01*
X83334524Y31431288D01*
X83334524Y31431290D01*
X83344728Y31441493D01*
X83344731Y31441498D01*
X87966419Y36063183D01*
X88027742Y36096668D01*
X88054100Y36099502D01*
X89926309Y36099502D01*
X89993348Y36079817D01*
X90039103Y36027013D01*
X90049047Y35957855D01*
X90033041Y35912381D01*
X89996382Y35850395D01*
X89996380Y35850390D01*
X89952292Y35698638D01*
X89952290Y35698625D01*
X89949500Y35663175D01*
X89949500Y35536854D01*
X89949501Y35536828D01*
X89952291Y35501377D01*
X89996380Y35349619D01*
X89996382Y35349614D01*
X90076827Y35213588D01*
X90076829Y35213585D01*
X90076830Y35213584D01*
X90152728Y35137686D01*
X90186212Y35076365D01*
X90181228Y35006673D01*
X90152728Y34962325D01*
X90076831Y34886428D01*
X90076827Y34886423D01*
X89996382Y34750397D01*
X89996380Y34750392D01*
X89952292Y34598640D01*
X89952290Y34598627D01*
X89949500Y34563177D01*
X89949500Y34436856D01*
X89949501Y34436830D01*
X89952291Y34401379D01*
X89996380Y34249621D01*
X89996382Y34249616D01*
X90076827Y34113590D01*
X90076829Y34113587D01*
X90076830Y34113586D01*
X90188580Y34001836D01*
X90188582Y34001835D01*
X90188693Y34001724D01*
X90222178Y33940401D01*
X90225012Y33914042D01*
X90225012Y27925006D01*
X91558883Y27925006D01*
X91558883Y28123929D01*
X91578568Y28190968D01*
X91631372Y28236723D01*
X91682883Y28247929D01*
X100679698Y28247929D01*
X100705715Y28273946D01*
X100705715Y44582978D01*
X100364147Y44924546D01*
X99282910Y46005785D01*
X99245044Y46005785D01*
X99229921Y46004159D01*
X91977949Y46004159D01*
X91590549Y45616759D01*
X91529226Y45583274D01*
X91459534Y45588258D01*
X91437437Y45599108D01*
X91275010Y45700007D01*
X91275009Y45700007D01*
X91256986Y45689986D01*
X91255325Y45684327D01*
X91238691Y45663685D01*
X90225012Y44650007D01*
X90225012Y40724495D01*
X90205327Y40657456D01*
X90152523Y40611701D01*
X90101012Y40600495D01*
X87996200Y40600495D01*
X87843470Y40559572D01*
X87826668Y40549870D01*
X87826667Y40549870D01*
X87706544Y40480518D01*
X87706539Y40480514D01*
X87594735Y40368709D01*
X82860227Y35634202D01*
X82798904Y35600717D01*
X82729212Y35605701D01*
X82673279Y35647573D01*
X82648862Y35713037D01*
X82649325Y35735763D01*
X82656564Y35800003D01*
X82653492Y35827266D01*
X82636368Y35979253D01*
X82636365Y35979266D01*
X82574489Y36156097D01*
X82576634Y36156848D01*
X82567036Y36215148D01*
X82575392Y36243593D01*
X82574488Y36243909D01*
X82636365Y36420742D01*
X82636368Y36420755D01*
X82656564Y36600001D01*
X82656564Y36600008D01*
X82636368Y36779254D01*
X82636365Y36779267D01*
X82574488Y36956099D01*
X82576636Y36956851D01*
X82567034Y37015132D01*
X82575392Y37043592D01*
X82574488Y37043908D01*
X82636365Y37220741D01*
X82636368Y37220754D01*
X82656564Y37400000D01*
X82656564Y37400007D01*
X82636368Y37579253D01*
X82636365Y37579266D01*
X82574489Y37756097D01*
X82576634Y37756848D01*
X82567036Y37815148D01*
X82575392Y37843593D01*
X82574488Y37843909D01*
X82636365Y38020742D01*
X82636368Y38020755D01*
X82656564Y38200001D01*
X82656564Y38200008D01*
X82636368Y38379254D01*
X82636367Y38379259D01*
X82574488Y38556099D01*
X82576634Y38556851D01*
X82567038Y38615148D01*
X82575393Y38643594D01*
X82574490Y38643910D01*
X82626765Y38793303D01*
X82636369Y38820750D01*
X82656566Y39000005D01*
X82654313Y39019999D01*
X82636370Y39179255D01*
X82636367Y39179268D01*
X82574490Y39356100D01*
X82576638Y39356852D01*
X82567036Y39415133D01*
X82575393Y39443594D01*
X82574490Y39443910D01*
X82636367Y39620743D01*
X82636370Y39620756D01*
X82656566Y39800002D01*
X82656566Y39800009D01*
X82636370Y39979255D01*
X82636369Y39979260D01*
X82574490Y40156100D01*
X82576636Y40156852D01*
X82567038Y40215151D01*
X82575391Y40243594D01*
X82574488Y40243909D01*
X82636365Y40420742D01*
X82636368Y40420755D01*
X82656564Y40600001D01*
X82656564Y40600008D01*
X82636368Y40779254D01*
X82636365Y40779267D01*
X82574489Y40956098D01*
X82576634Y40956849D01*
X82567036Y41015149D01*
X82575392Y41043594D01*
X82574488Y41043910D01*
X82636365Y41220743D01*
X82636368Y41220756D01*
X82656564Y41400002D01*
X82656564Y41400009D01*
X82636368Y41579255D01*
X82636367Y41579260D01*
X82574488Y41756100D01*
X82576640Y41756854D01*
X82567033Y41815115D01*
X82575394Y41843591D01*
X82574488Y41843908D01*
X82585303Y41874816D01*
X82636367Y42020748D01*
X82643396Y42083134D01*
X82656564Y42200000D01*
X82656564Y42200007D01*
X82636368Y42379253D01*
X82636365Y42379266D01*
X82574489Y42556097D01*
X82576634Y42556848D01*
X82567036Y42615148D01*
X82575392Y42643593D01*
X82574488Y42643909D01*
X82636365Y42820742D01*
X82636368Y42820755D01*
X82656564Y43000001D01*
X82656564Y43000008D01*
X82636368Y43179254D01*
X82636365Y43179267D01*
X82574488Y43356099D01*
X82576637Y43356852D01*
X82567035Y43415131D01*
X82575394Y43443592D01*
X82574490Y43443908D01*
X82636367Y43620741D01*
X82636370Y43620754D01*
X82656566Y43800000D01*
X82656566Y43800007D01*
X82636370Y43979253D01*
X82636367Y43979266D01*
X82574491Y44156097D01*
X82576638Y44156849D01*
X82567035Y44215131D01*
X82575391Y44243593D01*
X82574488Y44243909D01*
X82636365Y44420742D01*
X82636368Y44420755D01*
X82656564Y44600001D01*
X82656564Y44600008D01*
X82636368Y44779254D01*
X82636365Y44779267D01*
X82574488Y44956099D01*
X82576636Y44956851D01*
X82567034Y45015132D01*
X82575391Y45043593D01*
X82574488Y45043909D01*
X82636365Y45220742D01*
X82636368Y45220755D01*
X82656564Y45400001D01*
X82656564Y45400008D01*
X82636368Y45579254D01*
X82636367Y45579259D01*
X82633218Y45588258D01*
X82576788Y45749526D01*
X82575301Y45751892D01*
X82495659Y45878642D01*
X82480815Y45902266D01*
X82353261Y46029820D01*
X82294885Y46066500D01*
X82200523Y46125792D01*
X82200519Y46125794D01*
X82134043Y46149055D01*
X82077267Y46189777D01*
X82051520Y46254729D01*
X82050998Y46266096D01*
X82050998Y50033912D01*
X82070683Y50100951D01*
X82123487Y50146706D01*
X82134044Y50150954D01*
X82200521Y50174215D01*
X82353261Y50270188D01*
X82480815Y50397742D01*
X82576788Y50550482D01*
X82636367Y50720749D01*
X82636739Y50724051D01*
X82656564Y50900001D01*
X82656564Y50900008D01*
X82636368Y51079254D01*
X82636365Y51079267D01*
X82574489Y51256098D01*
X82576634Y51256849D01*
X82567036Y51315149D01*
X82575392Y51343594D01*
X82574488Y51343910D01*
X82636365Y51520743D01*
X82636368Y51520756D01*
X82656564Y51700002D01*
X82656564Y51700009D01*
X82636368Y51879255D01*
X82636367Y51879260D01*
X82574488Y52056100D01*
X82576640Y52056854D01*
X82567033Y52115115D01*
X82575394Y52143591D01*
X82574488Y52143908D01*
X82609002Y52242544D01*
X82636367Y52320748D01*
X82636733Y52323997D01*
X82656564Y52500000D01*
X82656564Y52500007D01*
X82636368Y52679253D01*
X82636367Y52679258D01*
X82574488Y52856098D01*
X82576640Y52856852D01*
X82567033Y52915113D01*
X82575394Y52943589D01*
X82574488Y52943906D01*
X82602246Y53023233D01*
X82636367Y53120746D01*
X82636368Y53120752D01*
X82656564Y53299998D01*
X82656564Y53300005D01*
X82636368Y53479251D01*
X82636365Y53479264D01*
X82574488Y53656096D01*
X82576636Y53656848D01*
X82567034Y53715129D01*
X82575392Y53743589D01*
X82574488Y53743905D01*
X82636365Y53920738D01*
X82636368Y53920751D01*
X82656564Y54099997D01*
X82656564Y54100004D01*
X82636368Y54279250D01*
X82636367Y54279255D01*
X82576788Y54449522D01*
X82552494Y54488185D01*
X82480814Y54602263D01*
X82353261Y54729816D01*
X82200523Y54825788D01*
X82200519Y54825790D01*
X82134043Y54849051D01*
X82077267Y54889773D01*
X82051520Y54954725D01*
X82050998Y54966092D01*
X82050998Y55118004D01*
X84792435Y55118004D01*
X84792435Y55117997D01*
X84812630Y54938751D01*
X84812631Y54938746D01*
X84872211Y54768477D01*
X84968184Y54615738D01*
X85095738Y54488184D01*
X85248478Y54392211D01*
X85367741Y54350479D01*
X85418745Y54332632D01*
X85418750Y54332631D01*
X85597996Y54312435D01*
X85598000Y54312435D01*
X85598004Y54312435D01*
X85777249Y54332631D01*
X85777252Y54332632D01*
X85777255Y54332632D01*
X85947522Y54392211D01*
X86100262Y54488184D01*
X86227816Y54615738D01*
X86323789Y54768478D01*
X86383368Y54938745D01*
X86383369Y54938751D01*
X86403565Y55117997D01*
X86403565Y55118004D01*
X86383369Y55297250D01*
X86383368Y55297255D01*
X86370995Y55332616D01*
X86323789Y55467522D01*
X86227816Y55620262D01*
X86100262Y55747816D01*
X86017287Y55799953D01*
X85947523Y55843789D01*
X85777254Y55903369D01*
X85777249Y55903370D01*
X85598004Y55923565D01*
X85597996Y55923565D01*
X85418750Y55903370D01*
X85418745Y55903369D01*
X85248476Y55843789D01*
X85095737Y55747816D01*
X84968184Y55620263D01*
X84872211Y55467524D01*
X84812631Y55297255D01*
X84812630Y55297250D01*
X84792435Y55118004D01*
X82050998Y55118004D01*
X82050998Y58928004D01*
X84792435Y58928004D01*
X84792435Y58927997D01*
X84812630Y58748751D01*
X84812631Y58748746D01*
X84872211Y58578477D01*
X84968184Y58425738D01*
X85095738Y58298184D01*
X85248478Y58202211D01*
X85344127Y58168742D01*
X85418745Y58142632D01*
X85418750Y58142631D01*
X85597996Y58122435D01*
X85598000Y58122435D01*
X85598004Y58122435D01*
X85777249Y58142631D01*
X85777252Y58142632D01*
X85777255Y58142632D01*
X85947522Y58202211D01*
X86100262Y58298184D01*
X86185995Y58383918D01*
X86247314Y58417400D01*
X86317006Y58412416D01*
X86372940Y58370545D01*
X86390715Y58337188D01*
X86396210Y58321483D01*
X86460771Y58218735D01*
X86492184Y58168742D01*
X86619738Y58041188D01*
X86772478Y57945215D01*
X86942745Y57885636D01*
X86942750Y57885635D01*
X87121996Y57865439D01*
X87122000Y57865439D01*
X87122004Y57865439D01*
X87301249Y57885635D01*
X87301252Y57885636D01*
X87301255Y57885636D01*
X87471522Y57945215D01*
X87624262Y58041188D01*
X87751816Y58168742D01*
X87847789Y58321482D01*
X87907368Y58491749D01*
X87927565Y58671004D01*
X87918805Y58748751D01*
X87907369Y58850254D01*
X87907368Y58850259D01*
X87855761Y58997742D01*
X87847789Y59020526D01*
X87751816Y59173266D01*
X87624262Y59300820D01*
X87561909Y59339999D01*
X87471523Y59396793D01*
X87301254Y59456373D01*
X87301249Y59456374D01*
X87122004Y59476569D01*
X87121996Y59476569D01*
X86942750Y59456374D01*
X86942745Y59456373D01*
X86772476Y59396793D01*
X86619739Y59300821D01*
X86534007Y59215089D01*
X86472683Y59181605D01*
X86402992Y59186589D01*
X86347058Y59228461D01*
X86329283Y59261820D01*
X86323789Y59277523D01*
X86227815Y59430263D01*
X86100262Y59557816D01*
X85947523Y59653789D01*
X85777254Y59713369D01*
X85777249Y59713370D01*
X85598004Y59733565D01*
X85597996Y59733565D01*
X85418750Y59713370D01*
X85418745Y59713369D01*
X85248476Y59653789D01*
X85095737Y59557816D01*
X84968184Y59430263D01*
X84872211Y59277524D01*
X84812631Y59107255D01*
X84812630Y59107250D01*
X84792435Y58928004D01*
X82050998Y58928004D01*
X82050998Y61033912D01*
X82070683Y61100951D01*
X82123487Y61146706D01*
X82134044Y61150954D01*
X82200521Y61174215D01*
X82353261Y61270188D01*
X82480815Y61397742D01*
X82576788Y61550482D01*
X82636367Y61720749D01*
X82649148Y61834185D01*
X82656564Y61900001D01*
X82656564Y61900008D01*
X82636368Y62079254D01*
X82636365Y62079267D01*
X82574488Y62256099D01*
X82576636Y62256851D01*
X82567034Y62315132D01*
X82575392Y62343592D01*
X82574488Y62343908D01*
X82636365Y62520741D01*
X82636368Y62520754D01*
X82656564Y62700000D01*
X82656564Y62700007D01*
X82636368Y62879253D01*
X82636367Y62879258D01*
X82574488Y63056098D01*
X82576640Y63056852D01*
X82567033Y63115113D01*
X82575394Y63143589D01*
X82574488Y63143906D01*
X82600367Y63217865D01*
X82636367Y63320746D01*
X82647545Y63419955D01*
X82656564Y63499998D01*
X82656564Y63500005D01*
X82636368Y63679251D01*
X82636367Y63679256D01*
X82636169Y63679822D01*
X82576788Y63849523D01*
X82480815Y64002263D01*
X82353261Y64129817D01*
X82200521Y64225790D01*
X82200519Y64225791D01*
X82134043Y64249052D01*
X82077267Y64289774D01*
X82051520Y64354726D01*
X82050998Y64366093D01*
X82050998Y68633913D01*
X82070683Y68700952D01*
X82123487Y68746707D01*
X82134044Y68750955D01*
X82200521Y68774216D01*
X82353261Y68870189D01*
X82480815Y68997743D01*
X82576788Y69150483D01*
X82636367Y69320750D01*
X82650877Y69449529D01*
X82656564Y69500002D01*
X82656564Y69500009D01*
X82636368Y69679255D01*
X82636367Y69679260D01*
X82619915Y69726277D01*
X82576788Y69849527D01*
X82554264Y69885373D01*
X82480814Y70002268D01*
X82353261Y70129821D01*
X82200522Y70225794D01*
X82030253Y70285374D01*
X82030248Y70285375D01*
X81851003Y70305570D01*
X81850995Y70305570D01*
X81671749Y70285375D01*
X81671744Y70285374D01*
X81501475Y70225794D01*
X81348736Y70129821D01*
X81221183Y70002268D01*
X81125210Y69849529D01*
X81101950Y69783053D01*
X81061228Y69726277D01*
X80996276Y69700529D01*
X80984908Y69700007D01*
X71017090Y69700007D01*
X70950051Y69719692D01*
X70904296Y69772496D01*
X70900048Y69783053D01*
X70876787Y69849529D01*
X70780814Y70002268D01*
X70653261Y70129821D01*
X70500522Y70225794D01*
X70330253Y70285374D01*
X70330248Y70285375D01*
X70151003Y70305570D01*
X70150995Y70305570D01*
X69971749Y70285375D01*
X69971736Y70285372D01*
X69794905Y70223495D01*
X69794155Y70225639D01*
X69735838Y70216045D01*
X69707406Y70224396D01*
X69707092Y70223495D01*
X69530260Y70285372D01*
X69530247Y70285375D01*
X69351002Y70305570D01*
X69350994Y70305570D01*
X69171748Y70285375D01*
X69171743Y70285374D01*
X69001474Y70225794D01*
X68848735Y70129821D01*
X68721182Y70002268D01*
X68625209Y69849529D01*
X68601949Y69783053D01*
X68561227Y69726277D01*
X68496275Y69700529D01*
X68484907Y69700007D01*
X67117085Y69700007D01*
X67050046Y69719692D01*
X67004291Y69772496D01*
X67000043Y69783053D01*
X66976782Y69849529D01*
X66880809Y70002268D01*
X66753256Y70129821D01*
X66600517Y70225794D01*
X66430248Y70285374D01*
X66430243Y70285375D01*
X66250998Y70305570D01*
X66250990Y70305570D01*
X66071744Y70285375D01*
X66071736Y70285373D01*
X66016450Y70266027D01*
X65946672Y70262466D01*
X65886044Y70297195D01*
X65853817Y70359188D01*
X65851496Y70383069D01*
X65851496Y72242059D01*
X65851496Y72242061D01*
X65810573Y72394788D01*
X65810573Y72394789D01*
X65810573Y72394790D01*
X65781635Y72444909D01*
X65781633Y72444912D01*
X65731516Y72531720D01*
X65619712Y72643524D01*
X65619711Y72643525D01*
X65615381Y72647855D01*
X65615370Y72647865D01*
X63333231Y74930004D01*
X83522435Y74930004D01*
X83522435Y74929997D01*
X83542630Y74750751D01*
X83542631Y74750746D01*
X83602211Y74580477D01*
X83636816Y74525404D01*
X83698184Y74427738D01*
X83825738Y74300184D01*
X83978478Y74204211D01*
X84148742Y74144633D01*
X84148745Y74144632D01*
X84148750Y74144631D01*
X84327996Y74124435D01*
X84328000Y74124435D01*
X84328004Y74124435D01*
X84507249Y74144631D01*
X84507252Y74144632D01*
X84507255Y74144632D01*
X84677522Y74204211D01*
X84814056Y74290001D01*
X86005341Y74290001D01*
X86005341Y74290000D01*
X86025936Y74054597D01*
X86025938Y74054587D01*
X86087094Y73826345D01*
X86087096Y73826341D01*
X86087097Y73826337D01*
X86167004Y73654977D01*
X86186965Y73612170D01*
X86186967Y73612166D01*
X86295281Y73457479D01*
X86322505Y73418599D01*
X86489599Y73251505D01*
X86566135Y73197914D01*
X86683165Y73115968D01*
X86683167Y73115967D01*
X86683170Y73115965D01*
X86897337Y73016097D01*
X87125592Y72954937D01*
X87296319Y72940000D01*
X87360999Y72934341D01*
X87361000Y72934341D01*
X87361001Y72934341D01*
X87425681Y72940000D01*
X87596408Y72954937D01*
X87824663Y73016097D01*
X88038830Y73115965D01*
X88232401Y73251505D01*
X88399495Y73418599D01*
X88529425Y73604158D01*
X88584002Y73647783D01*
X88653500Y73654977D01*
X88715855Y73623454D01*
X88732575Y73604158D01*
X88862500Y73418605D01*
X88862505Y73418599D01*
X89029599Y73251505D01*
X89106135Y73197914D01*
X89223165Y73115968D01*
X89223167Y73115967D01*
X89223170Y73115965D01*
X89437337Y73016097D01*
X89665592Y72954937D01*
X89836319Y72940000D01*
X89900999Y72934341D01*
X89901000Y72934341D01*
X89901001Y72934341D01*
X89965681Y72940000D01*
X90136408Y72954937D01*
X90364663Y73016097D01*
X90578830Y73115965D01*
X90772401Y73251505D01*
X90894717Y73373822D01*
X90956036Y73407304D01*
X91025728Y73402320D01*
X91081662Y73360449D01*
X91098577Y73329472D01*
X91147646Y73197912D01*
X91147649Y73197907D01*
X91233809Y73082813D01*
X91233812Y73082810D01*
X91348906Y72996650D01*
X91348913Y72996646D01*
X91483620Y72946404D01*
X91483627Y72946402D01*
X91543155Y72940001D01*
X91543172Y72940000D01*
X92191000Y72940000D01*
X92191000Y73856988D01*
X92248007Y73824075D01*
X92375174Y73790000D01*
X92506826Y73790000D01*
X92633993Y73824075D01*
X92691000Y73856988D01*
X92691000Y72940000D01*
X93338828Y72940000D01*
X93338844Y72940001D01*
X93398372Y72946402D01*
X93398379Y72946404D01*
X93533086Y72996646D01*
X93533093Y72996650D01*
X93648187Y73082810D01*
X93648190Y73082813D01*
X93734350Y73197907D01*
X93734354Y73197914D01*
X93784596Y73332621D01*
X93784598Y73332628D01*
X93790999Y73392156D01*
X93791000Y73392173D01*
X93791000Y74040000D01*
X92874012Y74040000D01*
X92906925Y74097007D01*
X92941000Y74224174D01*
X92941000Y74355826D01*
X92906925Y74482993D01*
X92874012Y74540000D01*
X93791000Y74540000D01*
X93791000Y75187828D01*
X93790999Y75187845D01*
X93784598Y75247373D01*
X93784596Y75247380D01*
X93734354Y75382087D01*
X93734350Y75382094D01*
X93648190Y75497188D01*
X93648187Y75497191D01*
X93533093Y75583351D01*
X93533086Y75583355D01*
X93398379Y75633597D01*
X93398372Y75633599D01*
X93338844Y75640000D01*
X92691000Y75640000D01*
X92691000Y74723012D01*
X92633993Y74755925D01*
X92506826Y74790000D01*
X92375174Y74790000D01*
X92248007Y74755925D01*
X92191000Y74723012D01*
X92191000Y75640000D01*
X91543155Y75640000D01*
X91483627Y75633599D01*
X91483620Y75633597D01*
X91348913Y75583355D01*
X91348906Y75583351D01*
X91233812Y75497191D01*
X91233809Y75497188D01*
X91147649Y75382094D01*
X91147645Y75382087D01*
X91098578Y75250530D01*
X91056707Y75194596D01*
X90991242Y75170179D01*
X90922969Y75185031D01*
X90894715Y75206181D01*
X90850366Y75250530D01*
X90772401Y75328495D01*
X90772397Y75328498D01*
X90772396Y75328499D01*
X90578834Y75464033D01*
X90578830Y75464035D01*
X90507727Y75497191D01*
X90364663Y75563903D01*
X90364659Y75563904D01*
X90364655Y75563906D01*
X90136413Y75625062D01*
X90136403Y75625064D01*
X89901001Y75645659D01*
X89900999Y75645659D01*
X89665596Y75625064D01*
X89665586Y75625062D01*
X89437344Y75563906D01*
X89437337Y75563904D01*
X89437337Y75563903D01*
X89423816Y75557599D01*
X89223171Y75464036D01*
X89223169Y75464035D01*
X89029597Y75328495D01*
X88862505Y75161403D01*
X88732575Y74975842D01*
X88677998Y74932217D01*
X88608500Y74925023D01*
X88546145Y74956546D01*
X88529425Y74975842D01*
X88399494Y75161403D01*
X88232402Y75328494D01*
X88232395Y75328499D01*
X88038834Y75464033D01*
X88038830Y75464035D01*
X87967727Y75497191D01*
X87824663Y75563903D01*
X87824659Y75563904D01*
X87824655Y75563906D01*
X87596413Y75625062D01*
X87596403Y75625064D01*
X87361001Y75645659D01*
X87360999Y75645659D01*
X87125596Y75625064D01*
X87125586Y75625062D01*
X86897344Y75563906D01*
X86897337Y75563904D01*
X86897337Y75563903D01*
X86883816Y75557599D01*
X86683171Y75464036D01*
X86683169Y75464035D01*
X86489597Y75328495D01*
X86322505Y75161403D01*
X86186965Y74967831D01*
X86186964Y74967829D01*
X86087098Y74753665D01*
X86087094Y74753656D01*
X86025938Y74525414D01*
X86025936Y74525404D01*
X86005341Y74290001D01*
X84814056Y74290001D01*
X84830262Y74300184D01*
X84957816Y74427738D01*
X85053789Y74580478D01*
X85113368Y74750745D01*
X85117791Y74790000D01*
X85133565Y74929997D01*
X85133565Y74930004D01*
X85113369Y75109250D01*
X85113368Y75109255D01*
X85065036Y75247380D01*
X85053789Y75279522D01*
X84957816Y75432262D01*
X84830262Y75559816D01*
X84823753Y75563906D01*
X84677523Y75655789D01*
X84507254Y75715369D01*
X84507249Y75715370D01*
X84328004Y75735565D01*
X84327996Y75735565D01*
X84148750Y75715370D01*
X84148745Y75715369D01*
X83978476Y75655789D01*
X83825737Y75559816D01*
X83698184Y75432263D01*
X83602211Y75279524D01*
X83542631Y75109255D01*
X83542630Y75109250D01*
X83522435Y74930004D01*
X63333231Y74930004D01*
X63314700Y74948535D01*
X63281215Y75009858D01*
X63279163Y75022314D01*
X63269368Y75109255D01*
X63209789Y75279522D01*
X63113816Y75432262D01*
X62986262Y75559816D01*
X62979753Y75563906D01*
X62833523Y75655789D01*
X62663254Y75715369D01*
X62663249Y75715370D01*
X62484004Y75735565D01*
X62483996Y75735565D01*
X62304750Y75715370D01*
X62304745Y75715369D01*
X62134476Y75655789D01*
X61981737Y75559816D01*
X61854184Y75432263D01*
X61758211Y75279524D01*
X61698631Y75109255D01*
X61698630Y75109250D01*
X61678435Y74930004D01*
X61678435Y74929997D01*
X61698630Y74750751D01*
X61698631Y74750746D01*
X61758211Y74580477D01*
X61792816Y74525404D01*
X61854184Y74427738D01*
X61981738Y74300184D01*
X62134478Y74204211D01*
X62304745Y74144632D01*
X62391669Y74134839D01*
X62456080Y74107774D01*
X62465465Y74099300D01*
X64614177Y71950588D01*
X64647662Y71889265D01*
X64650496Y71862907D01*
X64650496Y70383069D01*
X64630811Y70316030D01*
X64578007Y70270275D01*
X64508849Y70260331D01*
X64485543Y70266027D01*
X64430256Y70285372D01*
X64430245Y70285375D01*
X64251000Y70305570D01*
X64250992Y70305570D01*
X64071746Y70285375D01*
X64071741Y70285374D01*
X63901470Y70225793D01*
X63816968Y70172697D01*
X63749732Y70153697D01*
X63685026Y70172697D01*
X63600523Y70225793D01*
X63430252Y70285374D01*
X63430247Y70285375D01*
X63251002Y70305570D01*
X63250994Y70305570D01*
X63071748Y70285375D01*
X63071735Y70285372D01*
X62901479Y70225796D01*
X62901470Y70225792D01*
X62816968Y70172696D01*
X62749731Y70153696D01*
X62685025Y70172696D01*
X62600520Y70225794D01*
X62430251Y70285374D01*
X62430246Y70285375D01*
X62251001Y70305570D01*
X62250993Y70305570D01*
X62071747Y70285375D01*
X62071734Y70285372D01*
X61901476Y70225796D01*
X61816968Y70172696D01*
X61749731Y70153696D01*
X61685026Y70172696D01*
X61600517Y70225796D01*
X61430259Y70285372D01*
X61430246Y70285375D01*
X61251001Y70305570D01*
X61250993Y70305570D01*
X61071747Y70285375D01*
X61071742Y70285374D01*
X60901471Y70225793D01*
X60816969Y70172697D01*
X60749733Y70153697D01*
X60685027Y70172697D01*
X60600524Y70225793D01*
X60430253Y70285374D01*
X60430248Y70285375D01*
X60251003Y70305570D01*
X60250995Y70305570D01*
X60071749Y70285375D01*
X60071736Y70285372D01*
X59901480Y70225796D01*
X59901471Y70225792D01*
X59816969Y70172696D01*
X59749732Y70153696D01*
X59685026Y70172696D01*
X59600521Y70225794D01*
X59430252Y70285374D01*
X59430247Y70285375D01*
X59251002Y70305570D01*
X59250994Y70305570D01*
X59071748Y70285375D01*
X59071743Y70285374D01*
X58901474Y70225794D01*
X58748735Y70129821D01*
X58621182Y70002268D01*
X58525209Y69849529D01*
X58501949Y69783053D01*
X58461227Y69726277D01*
X58396275Y69700529D01*
X58384907Y69700007D01*
X53117093Y69700007D01*
X53050054Y69719692D01*
X53004299Y69772496D01*
X53000051Y69783053D01*
X52976790Y69849529D01*
X52880817Y70002268D01*
X52753264Y70129821D01*
X52600525Y70225794D01*
X52430256Y70285374D01*
X52430251Y70285375D01*
X52251006Y70305570D01*
X52250998Y70305570D01*
X52071752Y70285375D01*
X52071747Y70285374D01*
X51901478Y70225794D01*
X51748739Y70129821D01*
X51621186Y70002268D01*
X51525213Y69849529D01*
X51501953Y69783053D01*
X51461231Y69726277D01*
X51396279Y69700529D01*
X51384911Y69700007D01*
X46717092Y69700007D01*
X46650053Y69719692D01*
X46604298Y69772496D01*
X46600050Y69783053D01*
X46576789Y69849529D01*
X46515865Y69946489D01*
X46480816Y70002269D01*
X46353262Y70129823D01*
X46351002Y70131243D01*
X46200523Y70225796D01*
X46030254Y70285376D01*
X46030249Y70285377D01*
X45851004Y70305572D01*
X45850996Y70305572D01*
X45671750Y70285377D01*
X45671737Y70285374D01*
X45501481Y70225798D01*
X45501472Y70225794D01*
X45416970Y70172698D01*
X45349733Y70153698D01*
X45285027Y70172698D01*
X45200522Y70225796D01*
X45030253Y70285376D01*
X45030248Y70285377D01*
X44851003Y70305572D01*
X44850995Y70305572D01*
X44671749Y70285377D01*
X44671744Y70285376D01*
X44501475Y70225796D01*
X44348736Y70129823D01*
X44221183Y70002270D01*
X44125209Y69849529D01*
X44101949Y69783053D01*
X44061227Y69726277D01*
X43996275Y69700529D01*
X43984907Y69700007D01*
X42934033Y69700007D01*
X42866994Y69719692D01*
X42856721Y69727059D01*
X42853257Y69729822D01*
X42700519Y69825794D01*
X42530250Y69885374D01*
X42530245Y69885375D01*
X42351000Y69905570D01*
X42350992Y69905570D01*
X42171746Y69885375D01*
X42171741Y69885374D01*
X42001472Y69825794D01*
X41848733Y69729821D01*
X41721180Y69602268D01*
X41625207Y69449529D01*
X41565627Y69279260D01*
X41565626Y69279255D01*
X41545431Y69100009D01*
X41545431Y69100002D01*
X41565626Y68920756D01*
X41565627Y68920751D01*
X41625207Y68750482D01*
X41698453Y68633913D01*
X41721180Y68597743D01*
X41848734Y68470189D01*
X42001474Y68374216D01*
X42067954Y68350954D01*
X42124730Y68310232D01*
X42150477Y68245279D01*
X42150999Y68233912D01*
X42150999Y67566098D01*
X42131314Y67499059D01*
X42078510Y67453304D01*
X42067955Y67449057D01*
X42001472Y67425794D01*
X42001471Y67425793D01*
X41848733Y67329821D01*
X41721180Y67202268D01*
X41625206Y67049527D01*
X41565626Y66879255D01*
X41555833Y66792337D01*
X41528766Y66727923D01*
X41520294Y66718540D01*
X41224573Y66422818D01*
X41163253Y66389334D01*
X41136894Y66386500D01*
X19153791Y66386500D01*
X19086752Y66406185D01*
X19040997Y66458989D01*
X19031053Y66528147D01*
X19034016Y66542593D01*
X19085139Y66733390D01*
X19085141Y66733401D01*
X19104966Y66959998D01*
X19104966Y66960003D01*
X19085141Y67186600D01*
X19085139Y67186611D01*
X19026269Y67406318D01*
X19026264Y67406332D01*
X18930136Y67612479D01*
X18930132Y67612487D01*
X18879025Y67685474D01*
X18323787Y67130237D01*
X18312518Y67172292D01*
X18240110Y67297708D01*
X18137708Y67400110D01*
X18012292Y67472518D01*
X17970234Y67483788D01*
X18525472Y68039026D01*
X18452480Y68090136D01*
X18394134Y68117343D01*
X18341695Y68163516D01*
X18322543Y68230709D01*
X18342759Y68297590D01*
X18394134Y68342107D01*
X18452734Y68369432D01*
X18639139Y68499953D01*
X18800047Y68660861D01*
X18930568Y68847266D01*
X19026739Y69053504D01*
X19085635Y69273308D01*
X19105468Y69500000D01*
X19085635Y69726692D01*
X19026739Y69946496D01*
X18930568Y70152734D01*
X18800047Y70339139D01*
X18800045Y70339142D01*
X18639141Y70500046D01*
X18452734Y70630568D01*
X18452732Y70630569D01*
X18246497Y70726739D01*
X18246488Y70726742D01*
X18026697Y70785634D01*
X18026693Y70785635D01*
X18026692Y70785635D01*
X18026691Y70785636D01*
X18026686Y70785636D01*
X17800002Y70805468D01*
X17799998Y70805468D01*
X17573313Y70785636D01*
X17573302Y70785634D01*
X17353511Y70726742D01*
X17353502Y70726739D01*
X17147267Y70630569D01*
X17147265Y70630568D01*
X16960858Y70500046D01*
X16799954Y70339142D01*
X16669432Y70152735D01*
X16669431Y70152733D01*
X16642382Y70094725D01*
X16596209Y70042286D01*
X16529016Y70023134D01*
X16462135Y70043350D01*
X16417618Y70094725D01*
X16390568Y70152734D01*
X16260047Y70339139D01*
X16260045Y70339142D01*
X16099141Y70500046D01*
X15912734Y70630568D01*
X15912732Y70630569D01*
X15706497Y70726739D01*
X15706488Y70726742D01*
X15486697Y70785634D01*
X15486693Y70785635D01*
X15486692Y70785635D01*
X15486691Y70785636D01*
X15486686Y70785636D01*
X15260002Y70805468D01*
X15259998Y70805468D01*
X15033313Y70785636D01*
X15033302Y70785634D01*
X14813511Y70726742D01*
X14813502Y70726739D01*
X14607267Y70630569D01*
X14607265Y70630568D01*
X14420858Y70500046D01*
X14259954Y70339142D01*
X14129432Y70152735D01*
X14129431Y70152733D01*
X14033261Y69946498D01*
X14033258Y69946489D01*
X13974366Y69726698D01*
X13974364Y69726687D01*
X13954532Y69500002D01*
X13954532Y69499999D01*
X13974364Y69273314D01*
X13974366Y69273303D01*
X14033258Y69053512D01*
X14033261Y69053503D01*
X14129431Y68847268D01*
X14129432Y68847266D01*
X14259954Y68660859D01*
X14420858Y68499955D01*
X14420861Y68499953D01*
X14607266Y68369432D01*
X14665275Y68342382D01*
X14717714Y68296209D01*
X14736866Y68229016D01*
X14716650Y68162135D01*
X14665275Y68117618D01*
X14607267Y68090569D01*
X14607265Y68090568D01*
X14420858Y67960046D01*
X14259954Y67799142D01*
X14129432Y67612735D01*
X14129431Y67612733D01*
X14033261Y67406498D01*
X14033258Y67406489D01*
X13974366Y67186698D01*
X13974364Y67186687D01*
X13954532Y66960002D01*
X13954532Y66959999D01*
X13974364Y66733314D01*
X13974366Y66733303D01*
X14033258Y66513512D01*
X14033261Y66513503D01*
X14129431Y66307268D01*
X14129432Y66307266D01*
X14259954Y66120859D01*
X14420858Y65959955D01*
X14420861Y65959953D01*
X14607266Y65829432D01*
X14665275Y65802382D01*
X14717714Y65756209D01*
X14736866Y65689016D01*
X14716650Y65622135D01*
X14665275Y65577618D01*
X14607267Y65550569D01*
X14607265Y65550568D01*
X14420858Y65420046D01*
X14259954Y65259142D01*
X14129432Y65072735D01*
X14129431Y65072733D01*
X14033261Y64866498D01*
X14033258Y64866489D01*
X13974366Y64646698D01*
X13974364Y64646687D01*
X13954532Y64420002D01*
X13954532Y64419999D01*
X13974364Y64193314D01*
X13974366Y64193303D01*
X14033258Y63973512D01*
X14033261Y63973503D01*
X14129431Y63767268D01*
X14129432Y63767266D01*
X14259954Y63580859D01*
X14420858Y63419955D01*
X14420861Y63419953D01*
X14607266Y63289432D01*
X14665275Y63262382D01*
X14717714Y63216209D01*
X14736866Y63149016D01*
X14716650Y63082135D01*
X14665275Y63037618D01*
X14607267Y63010569D01*
X14607265Y63010568D01*
X14420858Y62880046D01*
X14259954Y62719142D01*
X14129432Y62532735D01*
X14129431Y62532733D01*
X14033261Y62326498D01*
X14033258Y62326489D01*
X13974366Y62106698D01*
X13974364Y62106687D01*
X13954532Y61880002D01*
X13954532Y61879999D01*
X13974364Y61653314D01*
X13974366Y61653303D01*
X14033258Y61433512D01*
X14033261Y61433503D01*
X14052032Y61393250D01*
X14129432Y61227266D01*
X14129435Y61227262D01*
X14129870Y61226508D01*
X14129961Y61226132D01*
X14131720Y61222360D01*
X14130962Y61222007D01*
X14146348Y61158609D01*
X14123501Y61092581D01*
X14068583Y61049386D01*
X14022488Y61040500D01*
X10447512Y61040500D01*
X10380473Y61060185D01*
X10334718Y61112989D01*
X10324774Y61182147D01*
X10338636Y61222194D01*
X10338280Y61222360D01*
X10339887Y61225807D01*
X10340130Y61226508D01*
X10340564Y61227261D01*
X10340568Y61227266D01*
X10436739Y61433504D01*
X10495635Y61653308D01*
X10515468Y61880000D01*
X10495635Y62106692D01*
X10445328Y62294442D01*
X10436741Y62326489D01*
X10436738Y62326498D01*
X10428767Y62343592D01*
X10340568Y62532734D01*
X10210047Y62719139D01*
X10210045Y62719142D01*
X10049141Y62880046D01*
X9862734Y63010568D01*
X9862728Y63010571D01*
X9804725Y63037618D01*
X9752285Y63083790D01*
X9733133Y63150983D01*
X9753348Y63217865D01*
X9804725Y63262382D01*
X9862734Y63289432D01*
X10049139Y63419953D01*
X10210047Y63580861D01*
X10340568Y63767266D01*
X10436739Y63973504D01*
X10495635Y64193308D01*
X10515468Y64420000D01*
X10495635Y64646692D01*
X10436739Y64866496D01*
X10340568Y65072734D01*
X10210047Y65259139D01*
X10210045Y65259142D01*
X10049141Y65420046D01*
X9862734Y65550568D01*
X9862728Y65550571D01*
X9804725Y65577618D01*
X9752285Y65623790D01*
X9733133Y65690983D01*
X9753348Y65757865D01*
X9804725Y65802382D01*
X9862734Y65829432D01*
X10049139Y65959953D01*
X10210047Y66120861D01*
X10340568Y66307266D01*
X10436739Y66513504D01*
X10495635Y66733308D01*
X10515468Y66960000D01*
X10495635Y67186692D01*
X10436739Y67406496D01*
X10340568Y67612734D01*
X10210047Y67799139D01*
X10210045Y67799142D01*
X10049141Y67960046D01*
X9862734Y68090568D01*
X9862728Y68090571D01*
X9804725Y68117618D01*
X9752285Y68163790D01*
X9733133Y68230983D01*
X9753348Y68297865D01*
X9804725Y68342382D01*
X9862734Y68369432D01*
X10049139Y68499953D01*
X10210047Y68660861D01*
X10340568Y68847266D01*
X10436739Y69053504D01*
X10495635Y69273308D01*
X10515468Y69500000D01*
X10495635Y69726692D01*
X10436739Y69946496D01*
X10340568Y70152734D01*
X10210047Y70339139D01*
X10210045Y70339142D01*
X10049141Y70500046D01*
X9862734Y70630568D01*
X9862732Y70630569D01*
X9656497Y70726739D01*
X9656488Y70726742D01*
X9436697Y70785634D01*
X9436693Y70785635D01*
X9436692Y70785635D01*
X9436691Y70785636D01*
X9436686Y70785636D01*
X9210002Y70805468D01*
X9209998Y70805468D01*
X8983313Y70785636D01*
X8983302Y70785634D01*
X8763511Y70726742D01*
X8763502Y70726739D01*
X8557267Y70630569D01*
X8557265Y70630568D01*
X8370858Y70500046D01*
X8209954Y70339142D01*
X8079432Y70152735D01*
X8079431Y70152733D01*
X8052382Y70094725D01*
X8006209Y70042286D01*
X7939016Y70023134D01*
X7872135Y70043350D01*
X7827618Y70094725D01*
X7800568Y70152734D01*
X7670047Y70339139D01*
X7670045Y70339142D01*
X7509141Y70500046D01*
X7322734Y70630568D01*
X7322732Y70630569D01*
X7116497Y70726739D01*
X7116488Y70726742D01*
X6896697Y70785634D01*
X6896693Y70785635D01*
X6896692Y70785635D01*
X6896691Y70785636D01*
X6896686Y70785636D01*
X6670002Y70805468D01*
X6669998Y70805468D01*
X6443313Y70785636D01*
X6443302Y70785634D01*
X6223511Y70726742D01*
X6223502Y70726739D01*
X6017267Y70630569D01*
X6017265Y70630568D01*
X5830858Y70500046D01*
X5669954Y70339142D01*
X5539432Y70152735D01*
X5539431Y70152733D01*
X5443261Y69946498D01*
X5443258Y69946489D01*
X5384366Y69726698D01*
X5384364Y69726687D01*
X5364532Y69500002D01*
X5364532Y69499999D01*
X5384364Y69273314D01*
X5384366Y69273303D01*
X5443258Y69053512D01*
X5443261Y69053503D01*
X5539431Y68847268D01*
X5539432Y68847266D01*
X5669954Y68660859D01*
X5830858Y68499955D01*
X5830861Y68499953D01*
X6017266Y68369432D01*
X6075275Y68342382D01*
X6127714Y68296209D01*
X6146866Y68229016D01*
X6126650Y68162135D01*
X6075275Y68117618D01*
X6017267Y68090569D01*
X6017265Y68090568D01*
X5830858Y67960046D01*
X5669954Y67799142D01*
X5539432Y67612735D01*
X5539431Y67612733D01*
X5443261Y67406498D01*
X5443258Y67406489D01*
X5384366Y67186698D01*
X5384364Y67186687D01*
X5364532Y66960002D01*
X5364532Y66959999D01*
X5384364Y66733314D01*
X5384366Y66733303D01*
X5443258Y66513512D01*
X5443261Y66513503D01*
X5539431Y66307268D01*
X5539432Y66307266D01*
X5669954Y66120859D01*
X5830858Y65959955D01*
X5830861Y65959953D01*
X6017266Y65829432D01*
X6075275Y65802382D01*
X6127714Y65756209D01*
X6146866Y65689016D01*
X6126650Y65622135D01*
X6075275Y65577618D01*
X6017267Y65550569D01*
X6017265Y65550568D01*
X5830858Y65420046D01*
X5669954Y65259142D01*
X5539432Y65072735D01*
X5539431Y65072733D01*
X5443261Y64866498D01*
X5443258Y64866489D01*
X5384366Y64646698D01*
X5384364Y64646687D01*
X5364532Y64420002D01*
X5364532Y64419999D01*
X5384364Y64193314D01*
X5384366Y64193303D01*
X5443258Y63973512D01*
X5443261Y63973503D01*
X5539431Y63767268D01*
X5539432Y63767266D01*
X5669954Y63580859D01*
X5830858Y63419955D01*
X5830861Y63419953D01*
X6017266Y63289432D01*
X6075275Y63262382D01*
X6127714Y63216209D01*
X6146866Y63149016D01*
X6126650Y63082135D01*
X6075275Y63037618D01*
X6017267Y63010569D01*
X6017265Y63010568D01*
X5830858Y62880046D01*
X5669954Y62719142D01*
X5539432Y62532735D01*
X5539431Y62532733D01*
X5443261Y62326498D01*
X5443258Y62326489D01*
X5384366Y62106698D01*
X5384364Y62106687D01*
X5364532Y61880002D01*
X5364532Y61879999D01*
X5384364Y61653314D01*
X5384366Y61653303D01*
X5443258Y61433512D01*
X5443261Y61433503D01*
X5539431Y61227268D01*
X5539435Y61227261D01*
X5541264Y61224649D01*
X5541714Y61223315D01*
X5542138Y61222580D01*
X5541990Y61222495D01*
X5563588Y61158442D01*
X5546573Y61090675D01*
X5495622Y61042866D01*
X5471782Y61033759D01*
X5404155Y61015638D01*
X5344210Y60999576D01*
X5344209Y60999575D01*
X5294096Y60970641D01*
X5294095Y60970640D01*
X5250689Y60945580D01*
X5207285Y60920521D01*
X5207282Y60920519D01*
X4345479Y60058716D01*
X4325570Y60024232D01*
X4317155Y60009655D01*
X4266423Y59921785D01*
X4225499Y59769057D01*
X4225499Y59769055D01*
X4225499Y59600954D01*
X4225500Y59600941D01*
X4225500Y46020670D01*
X4225499Y46020652D01*
X4225499Y45854946D01*
X4225498Y45854946D01*
X500500Y45854946D01*
X500500Y77400006D01*
X8164859Y77400006D01*
X8164859Y77399995D01*
X8185385Y77152271D01*
X8185387Y77152262D01*
X8246412Y76911283D01*
X8346266Y76683636D01*
X8446564Y76530118D01*
X8992421Y77075976D01*
X9005359Y77044742D01*
X9087437Y76921903D01*
X9191903Y76817437D01*
X9314742Y76735359D01*
X9345974Y76722423D01*
X8799942Y76176391D01*
X8846768Y76139945D01*
X8846770Y76139944D01*
X9065385Y76021636D01*
X9065396Y76021631D01*
X9300506Y75940917D01*
X9545707Y75900000D01*
X9794293Y75900000D01*
X10039493Y75940917D01*
X10274603Y76021631D01*
X10274614Y76021636D01*
X10493228Y76139943D01*
X10493231Y76139945D01*
X10540056Y76176391D01*
X9994025Y76722422D01*
X10025258Y76735359D01*
X10148097Y76817437D01*
X10252563Y76921903D01*
X10334641Y77044742D01*
X10347577Y77075975D01*
X10893434Y76530118D01*
X10993731Y76683631D01*
X11093587Y76911283D01*
X11154612Y77152262D01*
X11154614Y77152271D01*
X11175141Y77399995D01*
X11175141Y77400006D01*
X16294357Y77400006D01*
X16294357Y77399995D01*
X16314890Y77152188D01*
X16314892Y77152176D01*
X16375936Y76911119D01*
X16475826Y76683394D01*
X16611833Y76475218D01*
X16611836Y76475215D01*
X16780256Y76292262D01*
X16976491Y76139526D01*
X16976493Y76139525D01*
X17194332Y76021636D01*
X17195190Y76021172D01*
X17414141Y75946006D01*
X17428964Y75940917D01*
X17430386Y75940429D01*
X17675665Y75899500D01*
X17924335Y75899500D01*
X18169614Y75940429D01*
X18404810Y76021172D01*
X18623509Y76139526D01*
X18819744Y76292262D01*
X18988164Y76475215D01*
X19124173Y76683393D01*
X19224063Y76911119D01*
X19285108Y77152179D01*
X19285116Y77152271D01*
X19305643Y77399995D01*
X19305643Y77400006D01*
X19285109Y77647813D01*
X19285107Y77647825D01*
X19224063Y77888882D01*
X19124173Y78116607D01*
X18988166Y78324783D01*
X18899832Y78420739D01*
X18819744Y78507738D01*
X18623509Y78660474D01*
X18623507Y78660475D01*
X18623506Y78660476D01*
X18404811Y78778828D01*
X18404802Y78778831D01*
X18169616Y78859571D01*
X17924335Y78900500D01*
X17675665Y78900500D01*
X17430383Y78859571D01*
X17195197Y78778831D01*
X17195188Y78778828D01*
X16976493Y78660476D01*
X16780257Y78507739D01*
X16611833Y78324783D01*
X16475826Y78116607D01*
X16375936Y77888882D01*
X16314892Y77647825D01*
X16314890Y77647813D01*
X16294357Y77400006D01*
X11175141Y77400006D01*
X11154614Y77647730D01*
X11154612Y77647739D01*
X11093587Y77888718D01*
X10993731Y78116370D01*
X10893434Y78269884D01*
X10347577Y77724027D01*
X10334641Y77755258D01*
X10252563Y77878097D01*
X10148097Y77982563D01*
X10025258Y78064641D01*
X9994025Y78077579D01*
X10540057Y78623610D01*
X10540056Y78623611D01*
X10493229Y78660057D01*
X10274614Y78778365D01*
X10274603Y78778370D01*
X10039493Y78859084D01*
X9794293Y78900000D01*
X9545707Y78900000D01*
X9300506Y78859084D01*
X9065396Y78778370D01*
X9065390Y78778368D01*
X8846761Y78660051D01*
X8799942Y78623612D01*
X8799942Y78623610D01*
X9345974Y78077579D01*
X9314742Y78064641D01*
X9191903Y77982563D01*
X9087437Y77878097D01*
X9005359Y77755258D01*
X8992422Y77724026D01*
X8446564Y78269884D01*
X8346267Y78116368D01*
X8246412Y77888718D01*
X8185387Y77647739D01*
X8185385Y77647730D01*
X8164859Y77400006D01*
X500500Y77400006D01*
X500500Y80300006D01*
X10494859Y80300006D01*
X10494859Y80299995D01*
X10515385Y80052271D01*
X10515387Y80052262D01*
X10576412Y79811283D01*
X10676266Y79583636D01*
X10776564Y79430118D01*
X11322421Y79975976D01*
X11335359Y79944742D01*
X11417437Y79821903D01*
X11521903Y79717437D01*
X11644742Y79635359D01*
X11675974Y79622423D01*
X11129942Y79076391D01*
X11176768Y79039945D01*
X11176770Y79039944D01*
X11395385Y78921636D01*
X11395396Y78921631D01*
X11630506Y78840917D01*
X11875707Y78800000D01*
X12124293Y78800000D01*
X12369493Y78840917D01*
X12604603Y78921631D01*
X12604614Y78921636D01*
X12823228Y79039943D01*
X12823231Y79039945D01*
X12870056Y79076391D01*
X12324025Y79622422D01*
X12355258Y79635359D01*
X12478097Y79717437D01*
X12582563Y79821903D01*
X12664641Y79944742D01*
X12677577Y79975975D01*
X13223434Y79430118D01*
X13323731Y79583631D01*
X13423587Y79811283D01*
X13484612Y80052262D01*
X13484614Y80052271D01*
X13505141Y80299995D01*
X13505141Y80300006D01*
X13484614Y80547730D01*
X13484612Y80547739D01*
X13423587Y80788718D01*
X13323731Y81016370D01*
X13223434Y81169884D01*
X12677577Y80624027D01*
X12664641Y80655258D01*
X12582563Y80778097D01*
X12478097Y80882563D01*
X12355258Y80964641D01*
X12324025Y80977579D01*
X12870057Y81523610D01*
X12870056Y81523611D01*
X12823229Y81560057D01*
X12604614Y81678365D01*
X12604603Y81678370D01*
X12369493Y81759084D01*
X12124293Y81800000D01*
X11875707Y81800000D01*
X11630506Y81759084D01*
X11395396Y81678370D01*
X11395390Y81678368D01*
X11176761Y81560051D01*
X11129942Y81523612D01*
X11129942Y81523610D01*
X11675974Y80977579D01*
X11644742Y80964641D01*
X11521903Y80882563D01*
X11417437Y80778097D01*
X11335359Y80655258D01*
X11322422Y80624026D01*
X10776564Y81169884D01*
X10676267Y81016368D01*
X10576412Y80788718D01*
X10515387Y80547739D01*
X10515385Y80547730D01*
X10494859Y80300006D01*
X500500Y80300006D01*
X500500Y83200006D01*
X8164357Y83200006D01*
X8164357Y83199995D01*
X8184890Y82952188D01*
X8184892Y82952176D01*
X8245936Y82711119D01*
X8345826Y82483394D01*
X8481833Y82275218D01*
X8481836Y82275215D01*
X8650256Y82092262D01*
X8846491Y81939526D01*
X9065190Y81821172D01*
X9300386Y81740429D01*
X9545665Y81699500D01*
X9794335Y81699500D01*
X10039614Y81740429D01*
X10274810Y81821172D01*
X10493509Y81939526D01*
X10689744Y82092262D01*
X10858164Y82275215D01*
X10994173Y82483393D01*
X11094063Y82711119D01*
X11155108Y82952179D01*
X11155109Y82952188D01*
X11175643Y83199995D01*
X11175643Y83200006D01*
X16294357Y83200006D01*
X16294357Y83199995D01*
X16314890Y82952188D01*
X16314892Y82952176D01*
X16375936Y82711119D01*
X16475826Y82483394D01*
X16611833Y82275218D01*
X16611836Y82275215D01*
X16780256Y82092262D01*
X16976491Y81939526D01*
X17195190Y81821172D01*
X17430386Y81740429D01*
X17675665Y81699500D01*
X17924335Y81699500D01*
X18169614Y81740429D01*
X18404810Y81821172D01*
X18623509Y81939526D01*
X18819744Y82092262D01*
X18988164Y82275215D01*
X19124173Y82483393D01*
X19224063Y82711119D01*
X19285108Y82952179D01*
X19285109Y82952188D01*
X19305643Y83199995D01*
X19305643Y83200006D01*
X19285109Y83447813D01*
X19285107Y83447825D01*
X19224063Y83688882D01*
X19124173Y83916607D01*
X18988166Y84124783D01*
X18966557Y84148256D01*
X18819744Y84307738D01*
X18623509Y84460474D01*
X18623507Y84460475D01*
X18623506Y84460476D01*
X18404811Y84578828D01*
X18404802Y84578831D01*
X18169616Y84659571D01*
X17924335Y84700500D01*
X17675665Y84700500D01*
X17430383Y84659571D01*
X17195197Y84578831D01*
X17195188Y84578828D01*
X16976493Y84460476D01*
X16780257Y84307739D01*
X16611833Y84124783D01*
X16475826Y83916607D01*
X16375936Y83688882D01*
X16314892Y83447825D01*
X16314890Y83447813D01*
X16294357Y83200006D01*
X11175643Y83200006D01*
X11155109Y83447813D01*
X11155107Y83447825D01*
X11094063Y83688882D01*
X10994173Y83916607D01*
X10858166Y84124783D01*
X10836557Y84148256D01*
X10689744Y84307738D01*
X10493509Y84460474D01*
X10493507Y84460475D01*
X10493506Y84460476D01*
X10274811Y84578828D01*
X10274802Y84578831D01*
X10039616Y84659571D01*
X9794335Y84700500D01*
X9545665Y84700500D01*
X9300383Y84659571D01*
X9065197Y84578831D01*
X9065188Y84578828D01*
X8846493Y84460476D01*
X8650257Y84307739D01*
X8481833Y84124783D01*
X8345826Y83916607D01*
X8245936Y83688882D01*
X8184892Y83447825D01*
X8184890Y83447813D01*
X8164357Y83200006D01*
X500500Y83200006D01*
X500500Y84836000D01*
X2296659Y84836000D01*
X2315975Y84639871D01*
X2373188Y84451267D01*
X2466086Y84277468D01*
X2466090Y84277461D01*
X2591116Y84125117D01*
X2743460Y84000091D01*
X2743467Y84000087D01*
X2917266Y83907189D01*
X2917269Y83907189D01*
X2917273Y83907186D01*
X3105868Y83849976D01*
X3302000Y83830659D01*
X3498132Y83849976D01*
X3686727Y83907186D01*
X3704353Y83916607D01*
X3860532Y84000087D01*
X3860538Y84000090D01*
X4012883Y84125117D01*
X4137910Y84277462D01*
X4230814Y84451273D01*
X4288024Y84639868D01*
X4307341Y84836000D01*
X4288024Y85032132D01*
X4230814Y85220727D01*
X4230811Y85220731D01*
X4230811Y85220734D01*
X4137913Y85394533D01*
X4137909Y85394540D01*
X4012883Y85546884D01*
X3860539Y85671910D01*
X3860532Y85671914D01*
X3686733Y85764812D01*
X3686727Y85764814D01*
X3498132Y85822024D01*
X3498129Y85822025D01*
X3302000Y85841341D01*
X3105870Y85822025D01*
X2917266Y85764812D01*
X2743467Y85671914D01*
X2743460Y85671910D01*
X2591116Y85546884D01*
X2466090Y85394540D01*
X2466086Y85394533D01*
X2373188Y85220734D01*
X2315975Y85032130D01*
X2296659Y84836000D01*
X500500Y84836000D01*
X500500Y86868004D01*
X20530435Y86868004D01*
X20530435Y86867997D01*
X20550630Y86688751D01*
X20550631Y86688746D01*
X20610211Y86518477D01*
X20681499Y86405024D01*
X20706184Y86365738D01*
X20833738Y86238184D01*
X20986478Y86142211D01*
X21156745Y86082632D01*
X21156750Y86082631D01*
X21335996Y86062435D01*
X21336000Y86062435D01*
X21336004Y86062435D01*
X21515249Y86082631D01*
X21515252Y86082632D01*
X21515255Y86082632D01*
X21685522Y86142211D01*
X21838262Y86238184D01*
X21965816Y86365738D01*
X22061789Y86518478D01*
X22121368Y86688745D01*
X22138520Y86840976D01*
X22141565Y86867997D01*
X22141565Y86868004D01*
X22132254Y86950643D01*
X22144309Y87019465D01*
X22191658Y87070844D01*
X22259268Y87088468D01*
X22269357Y87087746D01*
X22351996Y87078435D01*
X22352000Y87078435D01*
X22352004Y87078435D01*
X22531249Y87098631D01*
X22531252Y87098632D01*
X22531255Y87098632D01*
X22701522Y87158211D01*
X22854262Y87254184D01*
X22981816Y87381738D01*
X23077789Y87534478D01*
X23137368Y87704745D01*
X23137369Y87704751D01*
X23157565Y87883997D01*
X23157565Y87884004D01*
X23137369Y88063250D01*
X23137368Y88063255D01*
X23077788Y88233524D01*
X23032859Y88305027D01*
X22981816Y88386262D01*
X22854262Y88513816D01*
X22839638Y88523005D01*
X22701523Y88609789D01*
X22531254Y88669369D01*
X22531249Y88669370D01*
X22352004Y88689565D01*
X22351996Y88689565D01*
X22172750Y88669370D01*
X22172745Y88669369D01*
X22002476Y88609789D01*
X21849737Y88513816D01*
X21722184Y88386263D01*
X21626211Y88233524D01*
X21566631Y88063255D01*
X21566630Y88063250D01*
X21546435Y87884004D01*
X21546435Y87883995D01*
X21555745Y87801357D01*
X21543690Y87732535D01*
X21496340Y87681157D01*
X21428730Y87663533D01*
X21418643Y87664255D01*
X21336005Y87673565D01*
X21335996Y87673565D01*
X21156750Y87653370D01*
X21156745Y87653369D01*
X20986476Y87593789D01*
X20833737Y87497816D01*
X20706184Y87370263D01*
X20610211Y87217524D01*
X20550631Y87047255D01*
X20550630Y87047250D01*
X20530435Y86868004D01*
X500500Y86868004D01*
X500500Y88297635D01*
X16569500Y88297635D01*
X16569500Y88102366D01*
X16600045Y87909515D01*
X16660381Y87723816D01*
X16660382Y87723813D01*
X16749031Y87549833D01*
X16863793Y87391875D01*
X16863797Y87391870D01*
X17001869Y87253798D01*
X17001874Y87253794D01*
X17051796Y87217524D01*
X17159836Y87139029D01*
X17259067Y87088468D01*
X17333812Y87050383D01*
X17333815Y87050382D01*
X17343455Y87047250D01*
X17519516Y86990045D01*
X17608835Y86975899D01*
X17712366Y86959500D01*
X17712371Y86959500D01*
X17907634Y86959500D01*
X18001125Y86974309D01*
X18100484Y86990045D01*
X18286187Y87050383D01*
X18460164Y87139029D01*
X18618132Y87253799D01*
X18756201Y87391868D01*
X18870971Y87549836D01*
X18959617Y87723813D01*
X19019955Y87909516D01*
X19044305Y88063255D01*
X19050500Y88102366D01*
X19050500Y88297635D01*
X19032730Y88409826D01*
X19019955Y88490484D01*
X18961833Y88669368D01*
X18959618Y88676185D01*
X18959617Y88676188D01*
X18901129Y88790975D01*
X18870971Y88850164D01*
X18796742Y88952332D01*
X18756206Y89008126D01*
X18756202Y89008131D01*
X18618130Y89146203D01*
X18618125Y89146207D01*
X18460167Y89260969D01*
X18460166Y89260970D01*
X18460164Y89260971D01*
X18404426Y89289371D01*
X18286187Y89349618D01*
X18286184Y89349619D01*
X18100485Y89409955D01*
X17907634Y89440500D01*
X17907629Y89440500D01*
X17712371Y89440500D01*
X17712366Y89440500D01*
X17519514Y89409955D01*
X17333815Y89349619D01*
X17333812Y89349618D01*
X17159832Y89260969D01*
X17001874Y89146207D01*
X17001869Y89146203D01*
X16863797Y89008131D01*
X16863793Y89008126D01*
X16749031Y88850168D01*
X16660382Y88676188D01*
X16660381Y88676185D01*
X16600045Y88490486D01*
X16569500Y88297635D01*
X500500Y88297635D01*
X500500Y92830458D01*
X6919500Y92830458D01*
X6919500Y92569543D01*
X6919501Y92569526D01*
X6953556Y92310850D01*
X6953557Y92310845D01*
X6953558Y92310839D01*
X6953559Y92310837D01*
X7021091Y92058800D01*
X7120942Y91817739D01*
X7120944Y91817735D01*
X7251409Y91591765D01*
X7251414Y91591759D01*
X7251415Y91591757D01*
X7410250Y91384758D01*
X7410256Y91384751D01*
X7594750Y91200257D01*
X7594756Y91200252D01*
X7801765Y91041409D01*
X8027735Y90910944D01*
X8148268Y90861018D01*
X8268799Y90811092D01*
X8268800Y90811092D01*
X8268802Y90811091D01*
X8520839Y90743558D01*
X8779536Y90709500D01*
X8779543Y90709500D01*
X9040457Y90709500D01*
X9040464Y90709500D01*
X9299161Y90743558D01*
X9551198Y90811091D01*
X9792265Y90910944D01*
X10018235Y91041409D01*
X10225244Y91200252D01*
X10409748Y91384756D01*
X10568591Y91591765D01*
X10699056Y91817735D01*
X10798909Y92058802D01*
X10866442Y92310839D01*
X10900500Y92569536D01*
X10900500Y92830464D01*
X10866442Y93089161D01*
X10798909Y93341198D01*
X10699056Y93582265D01*
X10568591Y93808235D01*
X10409748Y94015244D01*
X10409743Y94015250D01*
X10225249Y94199744D01*
X10225242Y94199750D01*
X10018243Y94358585D01*
X10018241Y94358586D01*
X10018235Y94358591D01*
X9792265Y94489056D01*
X9792261Y94489058D01*
X9551200Y94588909D01*
X9416134Y94625100D01*
X9299161Y94656442D01*
X9299155Y94656443D01*
X9299150Y94656444D01*
X9040474Y94690499D01*
X9040469Y94690500D01*
X9040464Y94690500D01*
X8779536Y94690500D01*
X8779530Y94690500D01*
X8779525Y94690499D01*
X8520849Y94656444D01*
X8520842Y94656443D01*
X8520839Y94656442D01*
X8471398Y94643195D01*
X8268799Y94588909D01*
X8027738Y94489058D01*
X8027734Y94489056D01*
X7801765Y94358591D01*
X7801756Y94358585D01*
X7594757Y94199750D01*
X7594750Y94199744D01*
X7410256Y94015250D01*
X7410250Y94015243D01*
X7251415Y93808244D01*
X7251409Y93808235D01*
X7120944Y93582266D01*
X7120942Y93582262D01*
X7021091Y93341201D01*
X6966805Y93138602D01*
X6954767Y93093671D01*
X6953559Y93089164D01*
X6953556Y93089151D01*
X6919501Y92830475D01*
X6919500Y92830458D01*
X500500Y92830458D01*
X500500Y95373004D01*
X40903721Y95373004D01*
X40903721Y95372999D01*
X40922791Y95155026D01*
X40922791Y95155022D01*
X40979420Y94943679D01*
X40979422Y94943675D01*
X40979423Y94943671D01*
X41025659Y94844517D01*
X41071895Y94745363D01*
X41071896Y94745362D01*
X41197400Y94566124D01*
X41197404Y94566120D01*
X41227840Y94535684D01*
X41261325Y94474361D01*
X41256341Y94404669D01*
X41227843Y94360324D01*
X41197399Y94329879D01*
X41071898Y94150645D01*
X41071896Y94150641D01*
X41071896Y94150640D01*
X40983652Y93961400D01*
X40979424Y93952334D01*
X40979420Y93952325D01*
X40922791Y93740982D01*
X40922791Y93740978D01*
X40903721Y93523005D01*
X40903721Y93523000D01*
X40922791Y93305027D01*
X40922791Y93305023D01*
X40979420Y93093680D01*
X40979422Y93093676D01*
X40979423Y93093672D01*
X41025659Y92994518D01*
X41071895Y92895364D01*
X41071896Y92895363D01*
X41197400Y92716125D01*
X41343982Y92569543D01*
X41352122Y92561403D01*
X41456122Y92488582D01*
X41499747Y92434005D01*
X41508999Y92387007D01*
X41508999Y89708995D01*
X41489314Y89641956D01*
X41456123Y89607420D01*
X41352116Y89534594D01*
X41197400Y89379878D01*
X41071898Y89200642D01*
X41071896Y89200638D01*
X40979424Y89002331D01*
X40979420Y89002322D01*
X40922791Y88790979D01*
X40922791Y88790975D01*
X40903721Y88573002D01*
X40903721Y88572997D01*
X40922791Y88355024D01*
X40922791Y88355020D01*
X40979420Y88143677D01*
X40979422Y88143673D01*
X40979423Y88143669D01*
X41016921Y88063255D01*
X41071895Y87945361D01*
X41071896Y87945360D01*
X41197400Y87766122D01*
X41282365Y87681157D01*
X41352122Y87611400D01*
X41456122Y87538579D01*
X41499747Y87484002D01*
X41508999Y87437004D01*
X41508999Y77658997D01*
X41489314Y77591958D01*
X41456123Y77557422D01*
X41352116Y77484596D01*
X41197400Y77329880D01*
X41071898Y77150644D01*
X41071896Y77150640D01*
X40979424Y76952333D01*
X40979420Y76952324D01*
X40922791Y76740981D01*
X40922791Y76740977D01*
X40903721Y76523004D01*
X40903721Y76522999D01*
X40922791Y76305026D01*
X40922791Y76305022D01*
X40979420Y76093679D01*
X40979422Y76093675D01*
X40979423Y76093671D01*
X41013230Y76021172D01*
X41071895Y75895363D01*
X41071896Y75895362D01*
X41197400Y75716124D01*
X41352121Y75561403D01*
X41443825Y75497191D01*
X41456122Y75488581D01*
X41499747Y75434004D01*
X41500176Y75431822D01*
X41508999Y75422999D01*
X41531533Y75422999D01*
X41583937Y75411382D01*
X41729668Y75343426D01*
X41941021Y75286794D01*
X42123924Y75270793D01*
X42158996Y75267724D01*
X42158998Y75267724D01*
X42159000Y75267724D01*
X42187252Y75270196D01*
X42376975Y75286794D01*
X42588328Y75343426D01*
X42734058Y75411382D01*
X42786463Y75422999D01*
X58309002Y75422999D01*
X58309002Y77470004D01*
X92920435Y77470004D01*
X92920435Y77469997D01*
X92940630Y77290751D01*
X92940631Y77290746D01*
X93000211Y77120477D01*
X93047799Y77044742D01*
X93096184Y76967738D01*
X93223738Y76840184D01*
X93376478Y76744211D01*
X93401776Y76735359D01*
X93546745Y76684632D01*
X93546750Y76684631D01*
X93725996Y76664435D01*
X93726000Y76664435D01*
X93726004Y76664435D01*
X93905249Y76684631D01*
X93905252Y76684632D01*
X93905255Y76684632D01*
X94075522Y76744211D01*
X94228262Y76840184D01*
X94355816Y76967738D01*
X94451789Y77120478D01*
X94511368Y77290745D01*
X94515355Y77326131D01*
X94531565Y77469997D01*
X94531565Y77470004D01*
X94511369Y77649250D01*
X94511368Y77649255D01*
X94507959Y77658997D01*
X94451789Y77819522D01*
X94355816Y77972262D01*
X94228262Y78099816D01*
X94201920Y78116368D01*
X94075523Y78195789D01*
X93905254Y78255369D01*
X93905249Y78255370D01*
X93726004Y78275565D01*
X93725996Y78275565D01*
X93546750Y78255370D01*
X93546745Y78255369D01*
X93376476Y78195789D01*
X93223737Y78099816D01*
X93096184Y77972263D01*
X93000211Y77819524D01*
X92940631Y77649255D01*
X92940630Y77649250D01*
X92920435Y77470004D01*
X58309002Y77470004D01*
X58309002Y78056912D01*
X58328687Y78123951D01*
X58381491Y78169706D01*
X58392048Y78173954D01*
X58458516Y78197212D01*
X58611256Y78293185D01*
X58738810Y78420739D01*
X58834783Y78573479D01*
X58894362Y78743746D01*
X58898315Y78778831D01*
X58914559Y78922998D01*
X58914559Y78923005D01*
X58894363Y79102251D01*
X58894362Y79102256D01*
X58834782Y79272525D01*
X58781683Y79357031D01*
X58762683Y79424267D01*
X58781683Y79488974D01*
X58834783Y79573480D01*
X58894362Y79743747D01*
X58895729Y79755877D01*
X58914559Y79922999D01*
X58914559Y79923006D01*
X58894363Y80102252D01*
X58894362Y80102257D01*
X58834783Y80272524D01*
X58738810Y80425264D01*
X58611256Y80552818D01*
X58458516Y80648791D01*
X58458514Y80648792D01*
X58392047Y80672050D01*
X58335271Y80712772D01*
X58309524Y80777725D01*
X58309002Y80789091D01*
X58309002Y81187010D01*
X58328687Y81254049D01*
X58361879Y81288585D01*
X58465872Y81361401D01*
X58620593Y81516122D01*
X58746097Y81695360D01*
X58838570Y81893669D01*
X58895202Y82105022D01*
X58914272Y82322999D01*
X58895202Y82540976D01*
X58838570Y82752329D01*
X58746097Y82950637D01*
X58746095Y82950640D01*
X58746094Y82950642D01*
X58620594Y83129875D01*
X58550463Y83200006D01*
X58465872Y83284597D01*
X58426731Y83312004D01*
X76664435Y83312004D01*
X76664435Y83311997D01*
X76684630Y83132751D01*
X76684631Y83132746D01*
X76744211Y82962477D01*
X76840182Y82809741D01*
X76842441Y82806909D01*
X76843330Y82804732D01*
X76843889Y82803842D01*
X76843733Y82803745D01*
X76868854Y82742224D01*
X76869499Y82729590D01*
X76869499Y82724946D01*
X76869498Y82724946D01*
X76869499Y82724943D01*
X76910423Y82572215D01*
X76910424Y82572213D01*
X76910423Y82572213D01*
X76926367Y82544599D01*
X76926369Y82544597D01*
X76926370Y82544595D01*
X76961704Y82483394D01*
X76989479Y82435285D01*
X77108349Y82316415D01*
X77108355Y82316410D01*
X79537873Y79886892D01*
X79571358Y79825569D01*
X79566374Y79755877D01*
X79524502Y79699944D01*
X79459038Y79675527D01*
X79390765Y79690379D01*
X79384220Y79694217D01*
X79343523Y79719789D01*
X79173254Y79779369D01*
X79173249Y79779370D01*
X78994004Y79799565D01*
X78993996Y79799565D01*
X78814750Y79779370D01*
X78814745Y79779369D01*
X78644476Y79719789D01*
X78491737Y79623816D01*
X78364184Y79496263D01*
X78268211Y79343524D01*
X78208631Y79173255D01*
X78208630Y79173250D01*
X78188435Y78994004D01*
X78188435Y78993997D01*
X78208630Y78814751D01*
X78208631Y78814746D01*
X78268211Y78644477D01*
X78364184Y78491738D01*
X78491738Y78364184D01*
X78554441Y78324785D01*
X78604730Y78293186D01*
X78644478Y78268211D01*
X78814745Y78208632D01*
X78814750Y78208631D01*
X78993996Y78188435D01*
X78994000Y78188435D01*
X78994004Y78188435D01*
X79173249Y78208631D01*
X79173252Y78208632D01*
X79173255Y78208632D01*
X79343522Y78268211D01*
X79496262Y78364184D01*
X79623816Y78491738D01*
X79697006Y78608219D01*
X79749341Y78654510D01*
X79818395Y78665158D01*
X79882243Y78636783D01*
X79906994Y78608219D01*
X79980184Y78491738D01*
X80107738Y78364184D01*
X80170441Y78324785D01*
X80220730Y78293186D01*
X80260478Y78268211D01*
X80430745Y78208632D01*
X80430750Y78208631D01*
X80609996Y78188435D01*
X80610000Y78188435D01*
X80610004Y78188435D01*
X80789249Y78208631D01*
X80789252Y78208632D01*
X80789255Y78208632D01*
X80959522Y78268211D01*
X81112262Y78364184D01*
X81239816Y78491738D01*
X81335789Y78644478D01*
X81395368Y78814745D01*
X81404974Y78900000D01*
X81415565Y78993997D01*
X81415565Y78994004D01*
X81395369Y79173250D01*
X81395368Y79173255D01*
X81335789Y79343522D01*
X81239816Y79496262D01*
X81239815Y79496263D01*
X81237555Y79499097D01*
X81236665Y79501276D01*
X81236111Y79502158D01*
X81236265Y79502256D01*
X81211146Y79563784D01*
X81210501Y79576411D01*
X81210501Y79743056D01*
X81210316Y79743748D01*
X81169577Y79895784D01*
X81147450Y79934109D01*
X81090524Y80032710D01*
X81090518Y80032718D01*
X78241802Y82881433D01*
X78208317Y82942756D01*
X78212442Y83010069D01*
X78255366Y83132738D01*
X78255369Y83132751D01*
X78275565Y83311997D01*
X78275565Y83312004D01*
X78255369Y83491250D01*
X78255368Y83491255D01*
X78195788Y83661524D01*
X78099815Y83814263D01*
X77972262Y83941816D01*
X77819523Y84037789D01*
X77649254Y84097369D01*
X77649249Y84097370D01*
X77470004Y84117565D01*
X77469996Y84117565D01*
X77290750Y84097370D01*
X77290745Y84097369D01*
X77120476Y84037789D01*
X76967737Y83941816D01*
X76840184Y83814263D01*
X76744211Y83661524D01*
X76684631Y83491255D01*
X76684630Y83491250D01*
X76664435Y83312004D01*
X58426731Y83312004D01*
X58410842Y83323130D01*
X58361877Y83357416D01*
X58318253Y83411993D01*
X58309002Y83458990D01*
X58309002Y85487010D01*
X58328687Y85554049D01*
X58361879Y85588585D01*
X58465872Y85661401D01*
X58620593Y85816122D01*
X58746097Y85995360D01*
X58838570Y86193669D01*
X58895202Y86405022D01*
X58914272Y86622999D01*
X58895202Y86840976D01*
X58839092Y87050382D01*
X58838572Y87052322D01*
X58838571Y87052323D01*
X58838570Y87052329D01*
X58746097Y87250637D01*
X58746095Y87250640D01*
X58746094Y87250642D01*
X58620594Y87429875D01*
X58613465Y87437004D01*
X58565147Y87485322D01*
X58531664Y87546642D01*
X58536648Y87616334D01*
X58565146Y87660679D01*
X58620593Y87716125D01*
X58746097Y87895363D01*
X58838570Y88093672D01*
X58895202Y88305025D01*
X58914272Y88523002D01*
X58895202Y88740979D01*
X58838570Y88952332D01*
X58746097Y89150640D01*
X58746095Y89150643D01*
X58746094Y89150645D01*
X58620594Y89329878D01*
X58570594Y89379878D01*
X58465872Y89484600D01*
X58410842Y89523133D01*
X58361877Y89557419D01*
X58318253Y89611996D01*
X58309002Y89658993D01*
X58309002Y93787010D01*
X58328687Y93854049D01*
X58361879Y93888585D01*
X58452920Y93952332D01*
X58465872Y93961401D01*
X58620593Y94116122D01*
X58746097Y94295360D01*
X58838570Y94493669D01*
X58895202Y94705022D01*
X58914272Y94922999D01*
X58912463Y94943671D01*
X58910564Y94965381D01*
X58895202Y95140976D01*
X58838570Y95352329D01*
X58746097Y95550637D01*
X58746095Y95550640D01*
X58746094Y95550642D01*
X58620594Y95729875D01*
X58543655Y95806814D01*
X58465872Y95884597D01*
X58410842Y95923130D01*
X58361877Y95957416D01*
X58345964Y95977324D01*
X58345321Y95976680D01*
X58309002Y96012999D01*
X58307909Y96012999D01*
X58255504Y96024617D01*
X58238204Y96032684D01*
X58088325Y96102574D01*
X58088321Y96102575D01*
X58088317Y96102577D01*
X57876972Y96159206D01*
X57658997Y96178276D01*
X57658993Y96178276D01*
X57513677Y96165563D01*
X57441018Y96159206D01*
X57441015Y96159206D01*
X57229672Y96102577D01*
X57229665Y96102575D01*
X57229665Y96102574D01*
X57079787Y96032684D01*
X57062487Y96024617D01*
X57010082Y96012999D01*
X43301996Y96012999D01*
X43234957Y96032684D01*
X43200421Y96065876D01*
X43120597Y96179877D01*
X43107286Y96193188D01*
X42965875Y96334599D01*
X42786637Y96460103D01*
X42786638Y96460103D01*
X42786636Y96460104D01*
X42687482Y96506340D01*
X42588328Y96552576D01*
X42588324Y96552577D01*
X42588320Y96552579D01*
X42376975Y96609208D01*
X42159000Y96628278D01*
X42158996Y96628278D01*
X42013680Y96615565D01*
X41941021Y96609208D01*
X41941018Y96609208D01*
X41729675Y96552579D01*
X41729666Y96552575D01*
X41531359Y96460103D01*
X41531355Y96460101D01*
X41352119Y96334599D01*
X41197400Y96179880D01*
X41071898Y96000644D01*
X41071896Y96000640D01*
X41040872Y95934108D01*
X40981514Y95806814D01*
X40979424Y95802333D01*
X40979420Y95802324D01*
X40922791Y95590981D01*
X40922791Y95590977D01*
X40903721Y95373004D01*
X500500Y95373004D01*
X500500Y99822004D01*
X86596435Y99822004D01*
X86596435Y99821997D01*
X86616630Y99642751D01*
X86616631Y99642746D01*
X86676211Y99472477D01*
X86772184Y99319738D01*
X86899738Y99192184D01*
X87052478Y99096211D01*
X87222745Y99036632D01*
X87222750Y99036631D01*
X87401996Y99016435D01*
X87402000Y99016435D01*
X87402004Y99016435D01*
X87581249Y99036631D01*
X87581252Y99036632D01*
X87581255Y99036632D01*
X87751522Y99096211D01*
X87904262Y99192184D01*
X88031816Y99319738D01*
X88127789Y99472478D01*
X88187368Y99642745D01*
X88207565Y99822000D01*
X88187368Y100001255D01*
X88127789Y100171522D01*
X88031816Y100324262D01*
X87904262Y100451816D01*
X87751523Y100547789D01*
X87581254Y100607369D01*
X87581249Y100607370D01*
X87402004Y100627565D01*
X87401996Y100627565D01*
X87222750Y100607370D01*
X87222745Y100607369D01*
X87052476Y100547789D01*
X86899737Y100451816D01*
X86772184Y100324263D01*
X86676211Y100171524D01*
X86616631Y100001255D01*
X86616630Y100001250D01*
X86596435Y99822004D01*
X500500Y99822004D01*
X500500Y106375500D01*
X520185Y106442539D01*
X572989Y106488294D01*
X624500Y106499500D01*
X101375500Y106499500D01*
X101442539Y106479815D01*
G37*
G04 #@! TD.AperFunction*
G04 #@! TD*
M02*
