G04 #@! TF.GenerationSoftware,KiCad,Pcbnew,8.0.6-8.0.6-0~ubuntu22.04.1*
G04 #@! TF.CreationDate,2024-11-16T01:04:19+00:00*
G04 #@! TF.ProjectId,hellenbremen,68656c6c-656e-4627-9265-6d656e2e6b69,rev?*
G04 #@! TF.SameCoordinates,Original*
G04 #@! TF.FileFunction,Soldermask,Top*
G04 #@! TF.FilePolarity,Negative*
%FSLAX46Y46*%
G04 Gerber Fmt 4.6, Leading zero omitted, Abs format (unit mm)*
G04 Created by KiCad (PCBNEW 8.0.6-8.0.6-0~ubuntu22.04.1) date 2024-11-16 01:04:19*
%MOMM*%
%LPD*%
G01*
G04 APERTURE LIST*
%ADD10R,1.460500X0.533400*%
%ADD11C,2.000000*%
%ADD12C,0.600000*%
%ADD13C,1.500000*%
%ADD14C,1.600000*%
%ADD15R,0.711200X1.295400*%
%ADD16R,1.295400X0.711200*%
%ADD17R,0.889000X0.889000*%
%ADD18C,0.650000*%
G04 APERTURE END LIST*
G04 #@! TO.C,R2*
G36*
G01*
X93240000Y11015000D02*
X93240000Y10645000D01*
G75*
G02*
X93105000Y10510000I-135000J0D01*
G01*
X92835000Y10510000D01*
G75*
G02*
X92700000Y10645000I0J135000D01*
G01*
X92700000Y11015000D01*
G75*
G02*
X92835000Y11150000I135000J0D01*
G01*
X93105000Y11150000D01*
G75*
G02*
X93240000Y11015000I0J-135000D01*
G01*
G37*
G36*
G01*
X92220000Y11015000D02*
X92220000Y10645000D01*
G75*
G02*
X92085000Y10510000I-135000J0D01*
G01*
X91815000Y10510000D01*
G75*
G02*
X91680000Y10645000I0J135000D01*
G01*
X91680000Y11015000D01*
G75*
G02*
X91815000Y11150000I135000J0D01*
G01*
X92085000Y11150000D01*
G75*
G02*
X92220000Y11015000I0J-135000D01*
G01*
G37*
G04 #@! TD*
D10*
G04 #@! TO.C,U3*
X31426150Y27305000D03*
X31426150Y28575000D03*
X31426150Y29845000D03*
X31426150Y31115000D03*
X25977850Y31115000D03*
X25977850Y29845000D03*
X25977850Y28575000D03*
X25977850Y27305000D03*
G04 #@! TD*
G04 #@! TO.C,R1*
G36*
G01*
X93238000Y14063000D02*
X93238000Y13693000D01*
G75*
G02*
X93103000Y13558000I-135000J0D01*
G01*
X92833000Y13558000D01*
G75*
G02*
X92698000Y13693000I0J135000D01*
G01*
X92698000Y14063000D01*
G75*
G02*
X92833000Y14198000I135000J0D01*
G01*
X93103000Y14198000D01*
G75*
G02*
X93238000Y14063000I0J-135000D01*
G01*
G37*
G36*
G01*
X92218000Y14063000D02*
X92218000Y13693000D01*
G75*
G02*
X92083000Y13558000I-135000J0D01*
G01*
X91813000Y13558000D01*
G75*
G02*
X91678000Y13693000I0J135000D01*
G01*
X91678000Y14063000D01*
G75*
G02*
X91813000Y14198000I135000J0D01*
G01*
X92083000Y14198000D01*
G75*
G02*
X92218000Y14063000I0J-135000D01*
G01*
G37*
G04 #@! TD*
D11*
G04 #@! TO.C,TP1*
X98200000Y41000000D03*
G04 #@! TD*
D12*
G04 #@! TO.C,M5*
X43050000Y48400000D03*
X43050000Y47450000D03*
X43050000Y46500002D03*
X34350000Y47500000D03*
X34350000Y48400000D03*
G04 #@! TD*
D11*
G04 #@! TO.C,TP3*
X98200000Y47832000D03*
G04 #@! TD*
D13*
G04 #@! TO.C,M2*
X45274995Y85124999D03*
X45274995Y78725002D03*
X45274995Y76824999D03*
X45274995Y72524999D03*
D12*
X45724994Y70125002D03*
X45724994Y69125001D03*
D13*
X45274995Y66274999D03*
X29774998Y85575001D03*
X29774998Y83725002D03*
X29774998Y78774999D03*
X29774998Y66725001D03*
G04 #@! TD*
D11*
G04 #@! TO.C,J1*
X12906000Y84566000D03*
X12906000Y78766000D03*
X15236000Y81666000D03*
X21036000Y84566000D03*
X21036000Y78766000D03*
D14*
X21036000Y25146000D03*
X21036000Y27686000D03*
X21036000Y30226000D03*
X21036000Y32766000D03*
X21036000Y35306000D03*
X21036000Y37846000D03*
X21036000Y40386000D03*
X21036000Y42926000D03*
X21036000Y45466000D03*
X21036000Y48006000D03*
X21036000Y50546000D03*
X21036000Y53086000D03*
X21036000Y55626000D03*
X21036000Y58166000D03*
X21036000Y60706000D03*
X21036000Y63246000D03*
X21036000Y65786000D03*
X21036000Y68326000D03*
X21036000Y70866000D03*
X18496000Y25146000D03*
X18496000Y27686000D03*
X18496000Y30226000D03*
X18496000Y32766000D03*
X18496000Y35306000D03*
X18496000Y37846000D03*
X18496000Y40386000D03*
X18496000Y42926000D03*
X18496000Y45466000D03*
X18496000Y48006000D03*
X18496000Y50546000D03*
X18496000Y53086000D03*
X18496000Y55626000D03*
X18496000Y58166000D03*
X18496000Y60706000D03*
X18496000Y63246000D03*
X18496000Y65786000D03*
X18496000Y68326000D03*
X18496000Y70866000D03*
X12446000Y25146000D03*
X12446000Y27686000D03*
X12446000Y30226000D03*
X12446000Y32766000D03*
X12446000Y35306000D03*
X12446000Y37846000D03*
X12446000Y40386000D03*
X12446000Y42926000D03*
X12446000Y45466000D03*
X12446000Y48006000D03*
X12446000Y50546000D03*
X12446000Y53086000D03*
X12446000Y55626000D03*
X12446000Y58166000D03*
X12446000Y60706000D03*
X12446000Y63246000D03*
X12446000Y65786000D03*
X12446000Y68326000D03*
X12446000Y70866000D03*
X9906000Y25146000D03*
X9906000Y27686000D03*
X9906000Y30226000D03*
X9906000Y32766000D03*
X9906000Y35306000D03*
X9906000Y37846000D03*
X9906000Y40386000D03*
X9906000Y42926000D03*
X9906000Y45466000D03*
X9906000Y48006000D03*
X9906000Y50546000D03*
X9906000Y53086000D03*
X9906000Y55626000D03*
X9906000Y58166000D03*
X9906000Y60706000D03*
X9906000Y63246000D03*
X9906000Y65786000D03*
X9906000Y68326000D03*
X9906000Y70866000D03*
G04 #@! TD*
D15*
G04 #@! TO.C,U1*
X95018747Y95362119D03*
X94018746Y95362119D03*
X93018746Y95362119D03*
X92018745Y95362119D03*
X91018747Y95362119D03*
X90018747Y95362119D03*
X89018746Y95362119D03*
X88018745Y95362119D03*
X87018745Y95362119D03*
X86018747Y95362119D03*
X85018746Y95362119D03*
X84018746Y95362119D03*
X83018745Y95362119D03*
D16*
X81368746Y93962120D03*
X81368746Y92962119D03*
X81368746Y91962119D03*
X81368746Y90962118D03*
X81368746Y89962120D03*
X81368746Y88962120D03*
X81368746Y87962119D03*
X81368746Y86962118D03*
X81368746Y85962118D03*
X81368746Y84962120D03*
X81368746Y83962119D03*
X81368746Y82962119D03*
X81368746Y81962118D03*
D15*
X83018745Y80562119D03*
X84018746Y80562119D03*
X85018746Y80562119D03*
X86018747Y80562119D03*
X87018745Y80562119D03*
X88018745Y80562119D03*
X89018746Y80562119D03*
X90018747Y80562119D03*
X91018747Y80562119D03*
X92018745Y80562119D03*
X93018746Y80562119D03*
X94018746Y80562119D03*
X95018747Y80562119D03*
D17*
X89218746Y89842119D03*
X89218746Y88642119D03*
X89218746Y87442119D03*
X88018746Y89842119D03*
X88018746Y88642119D03*
X88018746Y87442119D03*
X86818746Y89842119D03*
X86818746Y88642119D03*
X86818746Y87442119D03*
G04 #@! TD*
D11*
G04 #@! TO.C,TP4*
X98200000Y51300000D03*
G04 #@! TD*
G04 #@! TO.C,TP2*
X98200000Y44400000D03*
G04 #@! TD*
D10*
G04 #@! TO.C,U2*
X31426150Y21209000D03*
X31426150Y22479000D03*
X31426150Y23749000D03*
X31426150Y25019000D03*
X25977850Y25019000D03*
X25977850Y23749000D03*
X25977850Y22479000D03*
X25977850Y21209000D03*
G04 #@! TD*
D18*
G04 #@! TO.C,J3*
X95695000Y9210000D03*
X95695000Y14990000D03*
G36*
G01*
X95045000Y8600000D02*
X94195000Y8600000D01*
G75*
G02*
X94045000Y8750000I0J150000D01*
G01*
X94045000Y9050000D01*
G75*
G02*
X94195000Y9200000I150000J0D01*
G01*
X95045000Y9200000D01*
G75*
G02*
X95195000Y9050000I0J-150000D01*
G01*
X95195000Y8750000D01*
G75*
G02*
X95045000Y8600000I-150000J0D01*
G01*
G37*
G36*
G01*
X95045000Y9400000D02*
X94195000Y9400000D01*
G75*
G02*
X94045000Y9550000I0J150000D01*
G01*
X94045000Y9850000D01*
G75*
G02*
X94195000Y10000000I150000J0D01*
G01*
X95045000Y10000000D01*
G75*
G02*
X95195000Y9850000I0J-150000D01*
G01*
X95195000Y9550000D01*
G75*
G02*
X95045000Y9400000I-150000J0D01*
G01*
G37*
G36*
G01*
X95120000Y10700000D02*
X94120000Y10700000D01*
G75*
G02*
X94045000Y10775000I0J75000D01*
G01*
X94045000Y10925000D01*
G75*
G02*
X94120000Y11000000I75000J0D01*
G01*
X95120000Y11000000D01*
G75*
G02*
X95195000Y10925000I0J-75000D01*
G01*
X95195000Y10775000D01*
G75*
G02*
X95120000Y10700000I-75000J0D01*
G01*
G37*
G36*
G01*
X95120000Y11700000D02*
X94120000Y11700000D01*
G75*
G02*
X94045000Y11775000I0J75000D01*
G01*
X94045000Y11925000D01*
G75*
G02*
X94120000Y12000000I75000J0D01*
G01*
X95120000Y12000000D01*
G75*
G02*
X95195000Y11925000I0J-75000D01*
G01*
X95195000Y11775000D01*
G75*
G02*
X95120000Y11700000I-75000J0D01*
G01*
G37*
G36*
G01*
X95120000Y12200000D02*
X94120000Y12200000D01*
G75*
G02*
X94045000Y12275000I0J75000D01*
G01*
X94045000Y12425000D01*
G75*
G02*
X94120000Y12500000I75000J0D01*
G01*
X95120000Y12500000D01*
G75*
G02*
X95195000Y12425000I0J-75000D01*
G01*
X95195000Y12275000D01*
G75*
G02*
X95120000Y12200000I-75000J0D01*
G01*
G37*
G36*
G01*
X95120000Y13200000D02*
X94120000Y13200000D01*
G75*
G02*
X94045000Y13275000I0J75000D01*
G01*
X94045000Y13425000D01*
G75*
G02*
X94120000Y13500000I75000J0D01*
G01*
X95120000Y13500000D01*
G75*
G02*
X95195000Y13425000I0J-75000D01*
G01*
X95195000Y13275000D01*
G75*
G02*
X95120000Y13200000I-75000J0D01*
G01*
G37*
G36*
G01*
X95045000Y14200000D02*
X94195000Y14200000D01*
G75*
G02*
X94045000Y14350000I0J150000D01*
G01*
X94045000Y14650000D01*
G75*
G02*
X94195000Y14800000I150000J0D01*
G01*
X95045000Y14800000D01*
G75*
G02*
X95195000Y14650000I0J-150000D01*
G01*
X95195000Y14350000D01*
G75*
G02*
X95045000Y14200000I-150000J0D01*
G01*
G37*
G36*
G01*
X95045000Y15000000D02*
X94195000Y15000000D01*
G75*
G02*
X94045000Y15150000I0J150000D01*
G01*
X94045000Y15450000D01*
G75*
G02*
X94195000Y15600000I150000J0D01*
G01*
X95045000Y15600000D01*
G75*
G02*
X95195000Y15450000I0J-150000D01*
G01*
X95195000Y15150000D01*
G75*
G02*
X95045000Y15000000I-150000J0D01*
G01*
G37*
G36*
G01*
X95045000Y15000000D02*
X94195000Y15000000D01*
G75*
G02*
X94045000Y15150000I0J150000D01*
G01*
X94045000Y15450000D01*
G75*
G02*
X94195000Y15600000I150000J0D01*
G01*
X95045000Y15600000D01*
G75*
G02*
X95195000Y15450000I0J-150000D01*
G01*
X95195000Y15150000D01*
G75*
G02*
X95045000Y15000000I-150000J0D01*
G01*
G37*
G36*
G01*
X95045000Y14200000D02*
X94195000Y14200000D01*
G75*
G02*
X94045000Y14350000I0J150000D01*
G01*
X94045000Y14650000D01*
G75*
G02*
X94195000Y14800000I150000J0D01*
G01*
X95045000Y14800000D01*
G75*
G02*
X95195000Y14650000I0J-150000D01*
G01*
X95195000Y14350000D01*
G75*
G02*
X95045000Y14200000I-150000J0D01*
G01*
G37*
G36*
G01*
X95120000Y13700000D02*
X94120000Y13700000D01*
G75*
G02*
X94045000Y13775000I0J75000D01*
G01*
X94045000Y13925000D01*
G75*
G02*
X94120000Y14000000I75000J0D01*
G01*
X95120000Y14000000D01*
G75*
G02*
X95195000Y13925000I0J-75000D01*
G01*
X95195000Y13775000D01*
G75*
G02*
X95120000Y13700000I-75000J0D01*
G01*
G37*
G36*
G01*
X95120000Y12700000D02*
X94120000Y12700000D01*
G75*
G02*
X94045000Y12775000I0J75000D01*
G01*
X94045000Y12925000D01*
G75*
G02*
X94120000Y13000000I75000J0D01*
G01*
X95120000Y13000000D01*
G75*
G02*
X95195000Y12925000I0J-75000D01*
G01*
X95195000Y12775000D01*
G75*
G02*
X95120000Y12700000I-75000J0D01*
G01*
G37*
G36*
G01*
X95120000Y11200000D02*
X94120000Y11200000D01*
G75*
G02*
X94045000Y11275000I0J75000D01*
G01*
X94045000Y11425000D01*
G75*
G02*
X94120000Y11500000I75000J0D01*
G01*
X95120000Y11500000D01*
G75*
G02*
X95195000Y11425000I0J-75000D01*
G01*
X95195000Y11275000D01*
G75*
G02*
X95120000Y11200000I-75000J0D01*
G01*
G37*
G36*
G01*
X95120000Y10200000D02*
X94120000Y10200000D01*
G75*
G02*
X94045000Y10275000I0J75000D01*
G01*
X94045000Y10425000D01*
G75*
G02*
X94120000Y10500000I75000J0D01*
G01*
X95120000Y10500000D01*
G75*
G02*
X95195000Y10425000I0J-75000D01*
G01*
X95195000Y10275000D01*
G75*
G02*
X95120000Y10200000I-75000J0D01*
G01*
G37*
G36*
G01*
X95045000Y9400000D02*
X94195000Y9400000D01*
G75*
G02*
X94045000Y9550000I0J150000D01*
G01*
X94045000Y9850000D01*
G75*
G02*
X94195000Y10000000I150000J0D01*
G01*
X95045000Y10000000D01*
G75*
G02*
X95195000Y9850000I0J-150000D01*
G01*
X95195000Y9550000D01*
G75*
G02*
X95045000Y9400000I-150000J0D01*
G01*
G37*
G36*
G01*
X95045000Y8600000D02*
X94195000Y8600000D01*
G75*
G02*
X94045000Y8750000I0J150000D01*
G01*
X94045000Y9050000D01*
G75*
G02*
X94195000Y9200000I150000J0D01*
G01*
X95045000Y9200000D01*
G75*
G02*
X95195000Y9050000I0J-150000D01*
G01*
X95195000Y8750000D01*
G75*
G02*
X95045000Y8600000I-150000J0D01*
G01*
G37*
G36*
G01*
X95945000Y5900000D02*
X94445000Y5900000D01*
G75*
G02*
X94195000Y6150000I0J250000D01*
G01*
X94195000Y7830000D01*
G75*
G02*
X94445000Y8080000I250000J0D01*
G01*
X95945000Y8080000D01*
G75*
G02*
X96195000Y7830000I0J-250000D01*
G01*
X96195000Y6150000D01*
G75*
G02*
X95945000Y5900000I-250000J0D01*
G01*
G37*
G36*
G01*
X99875000Y5900000D02*
X98375000Y5900000D01*
G75*
G02*
X98125000Y6150000I0J250000D01*
G01*
X98125000Y7830000D01*
G75*
G02*
X98375000Y8080000I250000J0D01*
G01*
X99875000Y8080000D01*
G75*
G02*
X100125000Y7830000I0J-250000D01*
G01*
X100125000Y6150000D01*
G75*
G02*
X99875000Y5900000I-250000J0D01*
G01*
G37*
G36*
G01*
X95945000Y16120000D02*
X94445000Y16120000D01*
G75*
G02*
X94195000Y16370000I0J250000D01*
G01*
X94195000Y18050000D01*
G75*
G02*
X94445000Y18300000I250000J0D01*
G01*
X95945000Y18300000D01*
G75*
G02*
X96195000Y18050000I0J-250000D01*
G01*
X96195000Y16370000D01*
G75*
G02*
X95945000Y16120000I-250000J0D01*
G01*
G37*
G36*
G01*
X99875000Y16120000D02*
X98375000Y16120000D01*
G75*
G02*
X98125000Y16370000I0J250000D01*
G01*
X98125000Y18050000D01*
G75*
G02*
X98375000Y18300000I250000J0D01*
G01*
X99875000Y18300000D01*
G75*
G02*
X100125000Y18050000I0J-250000D01*
G01*
X100125000Y16370000D01*
G75*
G02*
X99875000Y16120000I-250000J0D01*
G01*
G37*
G04 #@! TD*
D12*
G04 #@! TO.C,M4*
X43625000Y42125000D03*
X43625000Y40925000D03*
X43625000Y43325000D03*
X43625000Y44525000D03*
X29200000Y38065000D03*
X29200000Y37065000D03*
G04 #@! TD*
M02*
