G04 #@! TF.GenerationSoftware,KiCad,Pcbnew,8.0.6-8.0.6-0~ubuntu22.04.1*
G04 #@! TF.CreationDate,2024-11-17T23:12:27+00:00*
G04 #@! TF.ProjectId,hellenbremen,68656c6c-656e-4627-9265-6d656e2e6b69,rev?*
G04 #@! TF.SameCoordinates,Original*
G04 #@! TF.FileFunction,Legend,Bot*
G04 #@! TF.FilePolarity,Positive*
%FSLAX46Y46*%
G04 Gerber Fmt 4.6, Leading zero omitted, Abs format (unit mm)*
G04 Created by KiCad (PCBNEW 8.0.6-8.0.6-0~ubuntu22.04.1) date 2024-11-17 23:12:27*
%MOMM*%
%LPD*%
G01*
G04 APERTURE LIST*
%ADD10C,0.100000*%
%ADD11C,0.200000*%
G04 APERTURE END LIST*
D10*
X6350000Y88138000D02*
X28402612Y88138000D01*
X28402612Y22993450D01*
X6350000Y22993450D01*
X6350000Y88138000D01*
X22960116Y25130676D02*
X23160116Y25130676D01*
X23160116Y24816390D02*
X23160116Y25416390D01*
X23160116Y25416390D02*
X22874402Y25416390D01*
X22445830Y25130676D02*
X22645830Y25130676D01*
X22645830Y24816390D02*
X22645830Y25416390D01*
X22645830Y25416390D02*
X22360116Y25416390D01*
X22131544Y24816390D02*
X22131544Y25416390D01*
X17065185Y81233570D02*
X17093756Y81176427D01*
X17093756Y81176427D02*
X17093756Y81090713D01*
X17093756Y81090713D02*
X17065185Y81004999D01*
X17065185Y81004999D02*
X17008042Y80947856D01*
X17008042Y80947856D02*
X16950899Y80919285D01*
X16950899Y80919285D02*
X16836613Y80890713D01*
X16836613Y80890713D02*
X16750899Y80890713D01*
X16750899Y80890713D02*
X16636613Y80919285D01*
X16636613Y80919285D02*
X16579470Y80947856D01*
X16579470Y80947856D02*
X16522328Y81004999D01*
X16522328Y81004999D02*
X16493756Y81090713D01*
X16493756Y81090713D02*
X16493756Y81147856D01*
X16493756Y81147856D02*
X16522328Y81233570D01*
X16522328Y81233570D02*
X16550899Y81262142D01*
X16550899Y81262142D02*
X16750899Y81262142D01*
X16750899Y81262142D02*
X16750899Y81147856D01*
X16493756Y81519285D02*
X17093756Y81519285D01*
X17093756Y81519285D02*
X16493756Y81862142D01*
X16493756Y81862142D02*
X17093756Y81862142D01*
X16493756Y82147856D02*
X17093756Y82147856D01*
X17093756Y82147856D02*
X17093756Y82290713D01*
X17093756Y82290713D02*
X17065185Y82376427D01*
X17065185Y82376427D02*
X17008042Y82433570D01*
X17008042Y82433570D02*
X16950899Y82462141D01*
X16950899Y82462141D02*
X16836613Y82490713D01*
X16836613Y82490713D02*
X16750899Y82490713D01*
X16750899Y82490713D02*
X16636613Y82462141D01*
X16636613Y82462141D02*
X16579470Y82433570D01*
X16579470Y82433570D02*
X16522328Y82376427D01*
X16522328Y82376427D02*
X16493756Y82290713D01*
X16493756Y82290713D02*
X16493756Y82147856D01*
X14938410Y47670482D02*
X14938410Y48270482D01*
X14938410Y48270482D02*
X14738410Y47841911D01*
X14738410Y47841911D02*
X14538410Y48270482D01*
X14538410Y48270482D02*
X14538410Y47670482D01*
X14281268Y47841911D02*
X13995554Y47841911D01*
X14338411Y47670482D02*
X14138411Y48270482D01*
X14138411Y48270482D02*
X13938411Y47670482D01*
X13738410Y47670482D02*
X13738410Y48270482D01*
X13738410Y48270482D02*
X13509839Y48270482D01*
X13509839Y48270482D02*
X13452696Y48241911D01*
X13452696Y48241911D02*
X13424125Y48213339D01*
X13424125Y48213339D02*
X13395553Y48156196D01*
X13395553Y48156196D02*
X13395553Y48070482D01*
X13395553Y48070482D02*
X13424125Y48013339D01*
X13424125Y48013339D02*
X13452696Y47984768D01*
X13452696Y47984768D02*
X13509839Y47956196D01*
X13509839Y47956196D02*
X13738410Y47956196D01*
X16966984Y57917662D02*
X16995556Y57889090D01*
X16995556Y57889090D02*
X17081270Y57860519D01*
X17081270Y57860519D02*
X17138413Y57860519D01*
X17138413Y57860519D02*
X17224127Y57889090D01*
X17224127Y57889090D02*
X17281270Y57946233D01*
X17281270Y57946233D02*
X17309841Y58003376D01*
X17309841Y58003376D02*
X17338413Y58117662D01*
X17338413Y58117662D02*
X17338413Y58203376D01*
X17338413Y58203376D02*
X17309841Y58317662D01*
X17309841Y58317662D02*
X17281270Y58374805D01*
X17281270Y58374805D02*
X17224127Y58431948D01*
X17224127Y58431948D02*
X17138413Y58460519D01*
X17138413Y58460519D02*
X17081270Y58460519D01*
X17081270Y58460519D02*
X16995556Y58431948D01*
X16995556Y58431948D02*
X16966984Y58403376D01*
X16738413Y58031948D02*
X16452699Y58031948D01*
X16795556Y57860519D02*
X16595556Y58460519D01*
X16595556Y58460519D02*
X16395556Y57860519D01*
X16195555Y57860519D02*
X16195555Y58460519D01*
X16195555Y58460519D02*
X15852698Y57860519D01*
X15852698Y57860519D02*
X15852698Y58460519D01*
X15281270Y57860519D02*
X15566984Y57860519D01*
X15566984Y57860519D02*
X15566984Y58460519D01*
X17032254Y60476259D02*
X17060826Y60447687D01*
X17060826Y60447687D02*
X17146540Y60419116D01*
X17146540Y60419116D02*
X17203683Y60419116D01*
X17203683Y60419116D02*
X17289397Y60447687D01*
X17289397Y60447687D02*
X17346540Y60504830D01*
X17346540Y60504830D02*
X17375111Y60561973D01*
X17375111Y60561973D02*
X17403683Y60676259D01*
X17403683Y60676259D02*
X17403683Y60761973D01*
X17403683Y60761973D02*
X17375111Y60876259D01*
X17375111Y60876259D02*
X17346540Y60933402D01*
X17346540Y60933402D02*
X17289397Y60990545D01*
X17289397Y60990545D02*
X17203683Y61019116D01*
X17203683Y61019116D02*
X17146540Y61019116D01*
X17146540Y61019116D02*
X17060826Y60990545D01*
X17060826Y60990545D02*
X17032254Y60961973D01*
X16803683Y60590545D02*
X16517969Y60590545D01*
X16860826Y60419116D02*
X16660826Y61019116D01*
X16660826Y61019116D02*
X16460826Y60419116D01*
X16260825Y60419116D02*
X16260825Y61019116D01*
X16260825Y61019116D02*
X15917968Y60419116D01*
X15917968Y60419116D02*
X15917968Y61019116D01*
X15632254Y60419116D02*
X15632254Y61019116D01*
X15632254Y60733402D02*
X15289397Y60733402D01*
X15289397Y60419116D02*
X15289397Y61019116D01*
X14434496Y37577795D02*
X14463068Y37549223D01*
X14463068Y37549223D02*
X14548782Y37520652D01*
X14548782Y37520652D02*
X14605925Y37520652D01*
X14605925Y37520652D02*
X14691639Y37549223D01*
X14691639Y37549223D02*
X14748782Y37606366D01*
X14748782Y37606366D02*
X14777353Y37663509D01*
X14777353Y37663509D02*
X14805925Y37777795D01*
X14805925Y37777795D02*
X14805925Y37863509D01*
X14805925Y37863509D02*
X14777353Y37977795D01*
X14777353Y37977795D02*
X14748782Y38034938D01*
X14748782Y38034938D02*
X14691639Y38092081D01*
X14691639Y38092081D02*
X14605925Y38120652D01*
X14605925Y38120652D02*
X14548782Y38120652D01*
X14548782Y38120652D02*
X14463068Y38092081D01*
X14463068Y38092081D02*
X14434496Y38063509D01*
X13891639Y37520652D02*
X14177353Y37520652D01*
X14177353Y37520652D02*
X14177353Y38120652D01*
X13777354Y38120652D02*
X13434497Y38120652D01*
X13605925Y37520652D02*
X13605925Y38120652D01*
X24266299Y29909665D02*
X24466299Y30195379D01*
X24609156Y29909665D02*
X24609156Y30509665D01*
X24609156Y30509665D02*
X24380585Y30509665D01*
X24380585Y30509665D02*
X24323442Y30481094D01*
X24323442Y30481094D02*
X24294871Y30452522D01*
X24294871Y30452522D02*
X24266299Y30395379D01*
X24266299Y30395379D02*
X24266299Y30309665D01*
X24266299Y30309665D02*
X24294871Y30252522D01*
X24294871Y30252522D02*
X24323442Y30223951D01*
X24323442Y30223951D02*
X24380585Y30195379D01*
X24380585Y30195379D02*
X24609156Y30195379D01*
X24037728Y30081094D02*
X23752014Y30081094D01*
X24094871Y29909665D02*
X23894871Y30509665D01*
X23894871Y30509665D02*
X23694871Y29909665D01*
X23152013Y29966808D02*
X23180585Y29938236D01*
X23180585Y29938236D02*
X23266299Y29909665D01*
X23266299Y29909665D02*
X23323442Y29909665D01*
X23323442Y29909665D02*
X23409156Y29938236D01*
X23409156Y29938236D02*
X23466299Y29995379D01*
X23466299Y29995379D02*
X23494870Y30052522D01*
X23494870Y30052522D02*
X23523442Y30166808D01*
X23523442Y30166808D02*
X23523442Y30252522D01*
X23523442Y30252522D02*
X23494870Y30366808D01*
X23494870Y30366808D02*
X23466299Y30423951D01*
X23466299Y30423951D02*
X23409156Y30481094D01*
X23409156Y30481094D02*
X23323442Y30509665D01*
X23323442Y30509665D02*
X23266299Y30509665D01*
X23266299Y30509665D02*
X23180585Y30481094D01*
X23180585Y30481094D02*
X23152013Y30452522D01*
X22552013Y29909665D02*
X22752013Y30195379D01*
X22894870Y29909665D02*
X22894870Y30509665D01*
X22894870Y30509665D02*
X22666299Y30509665D01*
X22666299Y30509665D02*
X22609156Y30481094D01*
X22609156Y30481094D02*
X22580585Y30452522D01*
X22580585Y30452522D02*
X22552013Y30395379D01*
X22552013Y30395379D02*
X22552013Y30309665D01*
X22552013Y30309665D02*
X22580585Y30252522D01*
X22580585Y30252522D02*
X22609156Y30223951D01*
X22609156Y30223951D02*
X22666299Y30195379D01*
X22666299Y30195379D02*
X22894870Y30195379D01*
X22294870Y30223951D02*
X22094870Y30223951D01*
X22009156Y29909665D02*
X22294870Y29909665D01*
X22294870Y29909665D02*
X22294870Y30509665D01*
X22294870Y30509665D02*
X22009156Y30509665D01*
X22990770Y70885543D02*
X23190770Y70885543D01*
X23190770Y70571257D02*
X23190770Y71171257D01*
X23190770Y71171257D02*
X22905056Y71171257D01*
X22676484Y70571257D02*
X22676484Y71171257D01*
X22047913Y70628400D02*
X22076485Y70599828D01*
X22076485Y70599828D02*
X22162199Y70571257D01*
X22162199Y70571257D02*
X22219342Y70571257D01*
X22219342Y70571257D02*
X22305056Y70599828D01*
X22305056Y70599828D02*
X22362199Y70656971D01*
X22362199Y70656971D02*
X22390770Y70714114D01*
X22390770Y70714114D02*
X22419342Y70828400D01*
X22419342Y70828400D02*
X22419342Y70914114D01*
X22419342Y70914114D02*
X22390770Y71028400D01*
X22390770Y71028400D02*
X22362199Y71085543D01*
X22362199Y71085543D02*
X22305056Y71142686D01*
X22305056Y71142686D02*
X22219342Y71171257D01*
X22219342Y71171257D02*
X22162199Y71171257D01*
X22162199Y71171257D02*
X22076485Y71142686D01*
X22076485Y71142686D02*
X22047913Y71114114D01*
X22569964Y84117504D02*
X22541393Y84088932D01*
X22541393Y84088932D02*
X22512821Y84003218D01*
X22512821Y84003218D02*
X22512821Y83946075D01*
X22512821Y83946075D02*
X22541393Y83860361D01*
X22541393Y83860361D02*
X22598535Y83803218D01*
X22598535Y83803218D02*
X22655678Y83774647D01*
X22655678Y83774647D02*
X22769964Y83746075D01*
X22769964Y83746075D02*
X22855678Y83746075D01*
X22855678Y83746075D02*
X22969964Y83774647D01*
X22969964Y83774647D02*
X23027107Y83803218D01*
X23027107Y83803218D02*
X23084250Y83860361D01*
X23084250Y83860361D02*
X23112821Y83946075D01*
X23112821Y83946075D02*
X23112821Y84003218D01*
X23112821Y84003218D02*
X23084250Y84088932D01*
X23084250Y84088932D02*
X23055678Y84117504D01*
X22512821Y84374647D02*
X23112821Y84374647D01*
X23112821Y84374647D02*
X23112821Y84603218D01*
X23112821Y84603218D02*
X23084250Y84660361D01*
X23084250Y84660361D02*
X23055678Y84688932D01*
X23055678Y84688932D02*
X22998535Y84717504D01*
X22998535Y84717504D02*
X22912821Y84717504D01*
X22912821Y84717504D02*
X22855678Y84688932D01*
X22855678Y84688932D02*
X22827107Y84660361D01*
X22827107Y84660361D02*
X22798535Y84603218D01*
X22798535Y84603218D02*
X22798535Y84374647D01*
X22569964Y85317504D02*
X22541393Y85288932D01*
X22541393Y85288932D02*
X22512821Y85203218D01*
X22512821Y85203218D02*
X22512821Y85146075D01*
X22512821Y85146075D02*
X22541393Y85060361D01*
X22541393Y85060361D02*
X22598535Y85003218D01*
X22598535Y85003218D02*
X22655678Y84974647D01*
X22655678Y84974647D02*
X22769964Y84946075D01*
X22769964Y84946075D02*
X22855678Y84946075D01*
X22855678Y84946075D02*
X22969964Y84974647D01*
X22969964Y84974647D02*
X23027107Y85003218D01*
X23027107Y85003218D02*
X23084250Y85060361D01*
X23084250Y85060361D02*
X23112821Y85146075D01*
X23112821Y85146075D02*
X23112821Y85203218D01*
X23112821Y85203218D02*
X23084250Y85288932D01*
X23084250Y85288932D02*
X23055678Y85317504D01*
X17114295Y55643200D02*
X17314295Y55643200D01*
X17314295Y55328914D02*
X17314295Y55928914D01*
X17314295Y55928914D02*
X17028581Y55928914D01*
X16800009Y55328914D02*
X16800009Y55928914D01*
X16457152Y55328914D02*
X16714295Y55671771D01*
X16457152Y55928914D02*
X16800009Y55586057D01*
X16228581Y55357485D02*
X16142867Y55328914D01*
X16142867Y55328914D02*
X16000009Y55328914D01*
X16000009Y55328914D02*
X15942867Y55357485D01*
X15942867Y55357485D02*
X15914295Y55386057D01*
X15914295Y55386057D02*
X15885724Y55443200D01*
X15885724Y55443200D02*
X15885724Y55500343D01*
X15885724Y55500343D02*
X15914295Y55557485D01*
X15914295Y55557485D02*
X15942867Y55586057D01*
X15942867Y55586057D02*
X16000009Y55614628D01*
X16000009Y55614628D02*
X16114295Y55643200D01*
X16114295Y55643200D02*
X16171438Y55671771D01*
X16171438Y55671771D02*
X16200009Y55700343D01*
X16200009Y55700343D02*
X16228581Y55757485D01*
X16228581Y55757485D02*
X16228581Y55814628D01*
X16228581Y55814628D02*
X16200009Y55871771D01*
X16200009Y55871771D02*
X16171438Y55900343D01*
X16171438Y55900343D02*
X16114295Y55928914D01*
X16114295Y55928914D02*
X15971438Y55928914D01*
X15971438Y55928914D02*
X15885724Y55900343D01*
X15342866Y55328914D02*
X15628580Y55328914D01*
X15628580Y55328914D02*
X15628580Y55928914D01*
X23928566Y60698869D02*
X23728566Y60698869D01*
X23642852Y60384583D02*
X23928566Y60384583D01*
X23928566Y60384583D02*
X23928566Y60984583D01*
X23928566Y60984583D02*
X23642852Y60984583D01*
X23471424Y60984583D02*
X23128567Y60984583D01*
X23299995Y60384583D02*
X23299995Y60984583D01*
X22585709Y60441726D02*
X22614281Y60413154D01*
X22614281Y60413154D02*
X22699995Y60384583D01*
X22699995Y60384583D02*
X22757138Y60384583D01*
X22757138Y60384583D02*
X22842852Y60413154D01*
X22842852Y60413154D02*
X22899995Y60470297D01*
X22899995Y60470297D02*
X22928566Y60527440D01*
X22928566Y60527440D02*
X22957138Y60641726D01*
X22957138Y60641726D02*
X22957138Y60727440D01*
X22957138Y60727440D02*
X22928566Y60841726D01*
X22928566Y60841726D02*
X22899995Y60898869D01*
X22899995Y60898869D02*
X22842852Y60956012D01*
X22842852Y60956012D02*
X22757138Y60984583D01*
X22757138Y60984583D02*
X22699995Y60984583D01*
X22699995Y60984583D02*
X22614281Y60956012D01*
X22614281Y60956012D02*
X22585709Y60927440D01*
X22042852Y60384583D02*
X22328566Y60384583D01*
X22328566Y60384583D02*
X22328566Y60984583D01*
X8555428Y47703988D02*
X8555428Y48303988D01*
X8298286Y47875417D02*
X8012572Y47875417D01*
X8355429Y47703988D02*
X8155429Y48303988D01*
X8155429Y48303988D02*
X7955429Y47703988D01*
X7841143Y48303988D02*
X7498286Y48303988D01*
X7669714Y47703988D02*
X7669714Y48303988D01*
X17483158Y68621453D02*
X17140301Y68621453D01*
X17311729Y68021453D02*
X17311729Y68621453D01*
X16626015Y68592882D02*
X16683158Y68621453D01*
X16683158Y68621453D02*
X16768872Y68621453D01*
X16768872Y68621453D02*
X16854586Y68592882D01*
X16854586Y68592882D02*
X16911729Y68535739D01*
X16911729Y68535739D02*
X16940300Y68478596D01*
X16940300Y68478596D02*
X16968872Y68364310D01*
X16968872Y68364310D02*
X16968872Y68278596D01*
X16968872Y68278596D02*
X16940300Y68164310D01*
X16940300Y68164310D02*
X16911729Y68107167D01*
X16911729Y68107167D02*
X16854586Y68050024D01*
X16854586Y68050024D02*
X16768872Y68021453D01*
X16768872Y68021453D02*
X16711729Y68021453D01*
X16711729Y68021453D02*
X16626015Y68050024D01*
X16626015Y68050024D02*
X16597443Y68078596D01*
X16597443Y68078596D02*
X16597443Y68278596D01*
X16597443Y68278596D02*
X16711729Y68278596D01*
X16368872Y68050024D02*
X16283158Y68021453D01*
X16283158Y68021453D02*
X16140300Y68021453D01*
X16140300Y68021453D02*
X16083158Y68050024D01*
X16083158Y68050024D02*
X16054586Y68078596D01*
X16054586Y68078596D02*
X16026015Y68135739D01*
X16026015Y68135739D02*
X16026015Y68192882D01*
X16026015Y68192882D02*
X16054586Y68250024D01*
X16054586Y68250024D02*
X16083158Y68278596D01*
X16083158Y68278596D02*
X16140300Y68307167D01*
X16140300Y68307167D02*
X16254586Y68335739D01*
X16254586Y68335739D02*
X16311729Y68364310D01*
X16311729Y68364310D02*
X16340300Y68392882D01*
X16340300Y68392882D02*
X16368872Y68450024D01*
X16368872Y68450024D02*
X16368872Y68507167D01*
X16368872Y68507167D02*
X16340300Y68564310D01*
X16340300Y68564310D02*
X16311729Y68592882D01*
X16311729Y68592882D02*
X16254586Y68621453D01*
X16254586Y68621453D02*
X16111729Y68621453D01*
X16111729Y68621453D02*
X16026015Y68592882D01*
X15797443Y68564310D02*
X15768871Y68592882D01*
X15768871Y68592882D02*
X15711729Y68621453D01*
X15711729Y68621453D02*
X15568871Y68621453D01*
X15568871Y68621453D02*
X15511729Y68592882D01*
X15511729Y68592882D02*
X15483157Y68564310D01*
X15483157Y68564310D02*
X15454586Y68507167D01*
X15454586Y68507167D02*
X15454586Y68450024D01*
X15454586Y68450024D02*
X15483157Y68364310D01*
X15483157Y68364310D02*
X15826014Y68021453D01*
X15826014Y68021453D02*
X15454586Y68021453D01*
X22861024Y27361365D02*
X23061024Y27647079D01*
X23203881Y27361365D02*
X23203881Y27961365D01*
X23203881Y27961365D02*
X22975310Y27961365D01*
X22975310Y27961365D02*
X22918167Y27932794D01*
X22918167Y27932794D02*
X22889596Y27904222D01*
X22889596Y27904222D02*
X22861024Y27847079D01*
X22861024Y27847079D02*
X22861024Y27761365D01*
X22861024Y27761365D02*
X22889596Y27704222D01*
X22889596Y27704222D02*
X22918167Y27675651D01*
X22918167Y27675651D02*
X22975310Y27647079D01*
X22975310Y27647079D02*
X23203881Y27647079D01*
X22403881Y27675651D02*
X22603881Y27675651D01*
X22603881Y27361365D02*
X22603881Y27961365D01*
X22603881Y27961365D02*
X22318167Y27961365D01*
X22089595Y27361365D02*
X22089595Y27961365D01*
X23998631Y63237792D02*
X23798631Y63237792D01*
X23712917Y62923506D02*
X23998631Y62923506D01*
X23998631Y62923506D02*
X23998631Y63523506D01*
X23998631Y63523506D02*
X23712917Y63523506D01*
X23541489Y63523506D02*
X23198632Y63523506D01*
X23370060Y62923506D02*
X23370060Y63523506D01*
X22655774Y62980649D02*
X22684346Y62952077D01*
X22684346Y62952077D02*
X22770060Y62923506D01*
X22770060Y62923506D02*
X22827203Y62923506D01*
X22827203Y62923506D02*
X22912917Y62952077D01*
X22912917Y62952077D02*
X22970060Y63009220D01*
X22970060Y63009220D02*
X22998631Y63066363D01*
X22998631Y63066363D02*
X23027203Y63180649D01*
X23027203Y63180649D02*
X23027203Y63266363D01*
X23027203Y63266363D02*
X22998631Y63380649D01*
X22998631Y63380649D02*
X22970060Y63437792D01*
X22970060Y63437792D02*
X22912917Y63494935D01*
X22912917Y63494935D02*
X22827203Y63523506D01*
X22827203Y63523506D02*
X22770060Y63523506D01*
X22770060Y63523506D02*
X22684346Y63494935D01*
X22684346Y63494935D02*
X22655774Y63466363D01*
X22398631Y62923506D02*
X22398631Y63523506D01*
X22398631Y63237792D02*
X22055774Y63237792D01*
X22055774Y62923506D02*
X22055774Y63523506D01*
X8668588Y45380099D02*
X8382874Y45380099D01*
X8725731Y45208670D02*
X8525731Y45808670D01*
X8525731Y45808670D02*
X8325731Y45208670D01*
X8154302Y45380099D02*
X7868588Y45380099D01*
X8211445Y45208670D02*
X8011445Y45808670D01*
X8011445Y45808670D02*
X7811445Y45208670D01*
X7697159Y45808670D02*
X7354302Y45808670D01*
X7525730Y45208670D02*
X7525730Y45808670D01*
X16929750Y48316499D02*
X16929750Y47887928D01*
X16929750Y47887928D02*
X16958321Y47802213D01*
X16958321Y47802213D02*
X17015464Y47745070D01*
X17015464Y47745070D02*
X17101178Y47716499D01*
X17101178Y47716499D02*
X17158321Y47716499D01*
X16672607Y47745070D02*
X16586893Y47716499D01*
X16586893Y47716499D02*
X16444035Y47716499D01*
X16444035Y47716499D02*
X16386893Y47745070D01*
X16386893Y47745070D02*
X16358321Y47773642D01*
X16358321Y47773642D02*
X16329750Y47830785D01*
X16329750Y47830785D02*
X16329750Y47887928D01*
X16329750Y47887928D02*
X16358321Y47945070D01*
X16358321Y47945070D02*
X16386893Y47973642D01*
X16386893Y47973642D02*
X16444035Y48002213D01*
X16444035Y48002213D02*
X16558321Y48030785D01*
X16558321Y48030785D02*
X16615464Y48059356D01*
X16615464Y48059356D02*
X16644035Y48087928D01*
X16644035Y48087928D02*
X16672607Y48145070D01*
X16672607Y48145070D02*
X16672607Y48202213D01*
X16672607Y48202213D02*
X16644035Y48259356D01*
X16644035Y48259356D02*
X16615464Y48287928D01*
X16615464Y48287928D02*
X16558321Y48316499D01*
X16558321Y48316499D02*
X16415464Y48316499D01*
X16415464Y48316499D02*
X16329750Y48287928D01*
X16101178Y47745070D02*
X16015464Y47716499D01*
X16015464Y47716499D02*
X15872606Y47716499D01*
X15872606Y47716499D02*
X15815464Y47745070D01*
X15815464Y47745070D02*
X15786892Y47773642D01*
X15786892Y47773642D02*
X15758321Y47830785D01*
X15758321Y47830785D02*
X15758321Y47887928D01*
X15758321Y47887928D02*
X15786892Y47945070D01*
X15786892Y47945070D02*
X15815464Y47973642D01*
X15815464Y47973642D02*
X15872606Y48002213D01*
X15872606Y48002213D02*
X15986892Y48030785D01*
X15986892Y48030785D02*
X16044035Y48059356D01*
X16044035Y48059356D02*
X16072606Y48087928D01*
X16072606Y48087928D02*
X16101178Y48145070D01*
X16101178Y48145070D02*
X16101178Y48202213D01*
X16101178Y48202213D02*
X16072606Y48259356D01*
X16072606Y48259356D02*
X16044035Y48287928D01*
X16044035Y48287928D02*
X15986892Y48316499D01*
X15986892Y48316499D02*
X15844035Y48316499D01*
X15844035Y48316499D02*
X15758321Y48287928D01*
X17021907Y70635785D02*
X17221907Y70921499D01*
X17364764Y70635785D02*
X17364764Y71235785D01*
X17364764Y71235785D02*
X17136193Y71235785D01*
X17136193Y71235785D02*
X17079050Y71207214D01*
X17079050Y71207214D02*
X17050479Y71178642D01*
X17050479Y71178642D02*
X17021907Y71121499D01*
X17021907Y71121499D02*
X17021907Y71035785D01*
X17021907Y71035785D02*
X17050479Y70978642D01*
X17050479Y70978642D02*
X17079050Y70950071D01*
X17079050Y70950071D02*
X17136193Y70921499D01*
X17136193Y70921499D02*
X17364764Y70921499D01*
X16764764Y70635785D02*
X16764764Y71235785D01*
X16136193Y70692928D02*
X16164765Y70664356D01*
X16164765Y70664356D02*
X16250479Y70635785D01*
X16250479Y70635785D02*
X16307622Y70635785D01*
X16307622Y70635785D02*
X16393336Y70664356D01*
X16393336Y70664356D02*
X16450479Y70721499D01*
X16450479Y70721499D02*
X16479050Y70778642D01*
X16479050Y70778642D02*
X16507622Y70892928D01*
X16507622Y70892928D02*
X16507622Y70978642D01*
X16507622Y70978642D02*
X16479050Y71092928D01*
X16479050Y71092928D02*
X16450479Y71150071D01*
X16450479Y71150071D02*
X16393336Y71207214D01*
X16393336Y71207214D02*
X16307622Y71235785D01*
X16307622Y71235785D02*
X16250479Y71235785D01*
X16250479Y71235785D02*
X16164765Y71207214D01*
X16164765Y71207214D02*
X16136193Y71178642D01*
X24449002Y53113066D02*
X24649002Y53113066D01*
X24649002Y52798780D02*
X24649002Y53398780D01*
X24649002Y53398780D02*
X24363288Y53398780D01*
X24134716Y52798780D02*
X24134716Y53398780D01*
X23934717Y53398780D02*
X23734717Y52798780D01*
X23734717Y52798780D02*
X23534717Y53398780D01*
X23420431Y53398780D02*
X23220431Y52798780D01*
X23220431Y52798780D02*
X23020431Y53398780D01*
X22906145Y53398780D02*
X22563288Y53398780D01*
X22734716Y52798780D02*
X22734716Y53398780D01*
X22020430Y52855923D02*
X22049002Y52827351D01*
X22049002Y52827351D02*
X22134716Y52798780D01*
X22134716Y52798780D02*
X22191859Y52798780D01*
X22191859Y52798780D02*
X22277573Y52827351D01*
X22277573Y52827351D02*
X22334716Y52884494D01*
X22334716Y52884494D02*
X22363287Y52941637D01*
X22363287Y52941637D02*
X22391859Y53055923D01*
X22391859Y53055923D02*
X22391859Y53141637D01*
X22391859Y53141637D02*
X22363287Y53255923D01*
X22363287Y53255923D02*
X22334716Y53313066D01*
X22334716Y53313066D02*
X22277573Y53370209D01*
X22277573Y53370209D02*
X22191859Y53398780D01*
X22191859Y53398780D02*
X22134716Y53398780D01*
X22134716Y53398780D02*
X22049002Y53370209D01*
X22049002Y53370209D02*
X22020430Y53341637D01*
X14202669Y84145934D02*
X14174098Y84117362D01*
X14174098Y84117362D02*
X14145526Y84031648D01*
X14145526Y84031648D02*
X14145526Y83974505D01*
X14145526Y83974505D02*
X14174098Y83888791D01*
X14174098Y83888791D02*
X14231240Y83831648D01*
X14231240Y83831648D02*
X14288383Y83803077D01*
X14288383Y83803077D02*
X14402669Y83774505D01*
X14402669Y83774505D02*
X14488383Y83774505D01*
X14488383Y83774505D02*
X14602669Y83803077D01*
X14602669Y83803077D02*
X14659812Y83831648D01*
X14659812Y83831648D02*
X14716955Y83888791D01*
X14716955Y83888791D02*
X14745526Y83974505D01*
X14745526Y83974505D02*
X14745526Y84031648D01*
X14745526Y84031648D02*
X14716955Y84117362D01*
X14716955Y84117362D02*
X14688383Y84145934D01*
X14459812Y84603077D02*
X14459812Y84403077D01*
X14145526Y84403077D02*
X14745526Y84403077D01*
X14745526Y84403077D02*
X14745526Y84688791D01*
X14202669Y85260220D02*
X14174098Y85231648D01*
X14174098Y85231648D02*
X14145526Y85145934D01*
X14145526Y85145934D02*
X14145526Y85088791D01*
X14145526Y85088791D02*
X14174098Y85003077D01*
X14174098Y85003077D02*
X14231240Y84945934D01*
X14231240Y84945934D02*
X14288383Y84917363D01*
X14288383Y84917363D02*
X14402669Y84888791D01*
X14402669Y84888791D02*
X14488383Y84888791D01*
X14488383Y84888791D02*
X14602669Y84917363D01*
X14602669Y84917363D02*
X14659812Y84945934D01*
X14659812Y84945934D02*
X14716955Y85003077D01*
X14716955Y85003077D02*
X14745526Y85088791D01*
X14745526Y85088791D02*
X14745526Y85145934D01*
X14745526Y85145934D02*
X14716955Y85231648D01*
X14716955Y85231648D02*
X14688383Y85260220D01*
X25088150Y68004319D02*
X25288150Y68290033D01*
X25431007Y68004319D02*
X25431007Y68604319D01*
X25431007Y68604319D02*
X25202436Y68604319D01*
X25202436Y68604319D02*
X25145293Y68575748D01*
X25145293Y68575748D02*
X25116722Y68547176D01*
X25116722Y68547176D02*
X25088150Y68490033D01*
X25088150Y68490033D02*
X25088150Y68404319D01*
X25088150Y68404319D02*
X25116722Y68347176D01*
X25116722Y68347176D02*
X25145293Y68318605D01*
X25145293Y68318605D02*
X25202436Y68290033D01*
X25202436Y68290033D02*
X25431007Y68290033D01*
X24831007Y68004319D02*
X24831007Y68604319D01*
X24831007Y68318605D02*
X24488150Y68318605D01*
X24488150Y68004319D02*
X24488150Y68604319D01*
X24088151Y68604319D02*
X23973865Y68604319D01*
X23973865Y68604319D02*
X23916722Y68575748D01*
X23916722Y68575748D02*
X23859579Y68518605D01*
X23859579Y68518605D02*
X23831008Y68404319D01*
X23831008Y68404319D02*
X23831008Y68204319D01*
X23831008Y68204319D02*
X23859579Y68090033D01*
X23859579Y68090033D02*
X23916722Y68032890D01*
X23916722Y68032890D02*
X23973865Y68004319D01*
X23973865Y68004319D02*
X24088151Y68004319D01*
X24088151Y68004319D02*
X24145294Y68032890D01*
X24145294Y68032890D02*
X24202436Y68090033D01*
X24202436Y68090033D02*
X24231008Y68204319D01*
X24231008Y68204319D02*
X24231008Y68404319D01*
X24231008Y68404319D02*
X24202436Y68518605D01*
X24202436Y68518605D02*
X24145294Y68575748D01*
X24145294Y68575748D02*
X24088151Y68604319D01*
X23602437Y68547176D02*
X23573865Y68575748D01*
X23573865Y68575748D02*
X23516723Y68604319D01*
X23516723Y68604319D02*
X23373865Y68604319D01*
X23373865Y68604319D02*
X23316723Y68575748D01*
X23316723Y68575748D02*
X23288151Y68547176D01*
X23288151Y68547176D02*
X23259580Y68490033D01*
X23259580Y68490033D02*
X23259580Y68432890D01*
X23259580Y68432890D02*
X23288151Y68347176D01*
X23288151Y68347176D02*
X23631008Y68004319D01*
X23631008Y68004319D02*
X23259580Y68004319D01*
X23002436Y68004319D02*
X23002436Y68604319D01*
X23002436Y68318605D02*
X22659579Y68318605D01*
X22659579Y68004319D02*
X22659579Y68604319D01*
X22059580Y68575748D02*
X22116723Y68604319D01*
X22116723Y68604319D02*
X22202437Y68604319D01*
X22202437Y68604319D02*
X22288151Y68575748D01*
X22288151Y68575748D02*
X22345294Y68518605D01*
X22345294Y68518605D02*
X22373865Y68461462D01*
X22373865Y68461462D02*
X22402437Y68347176D01*
X22402437Y68347176D02*
X22402437Y68261462D01*
X22402437Y68261462D02*
X22373865Y68147176D01*
X22373865Y68147176D02*
X22345294Y68090033D01*
X22345294Y68090033D02*
X22288151Y68032890D01*
X22288151Y68032890D02*
X22202437Y68004319D01*
X22202437Y68004319D02*
X22145294Y68004319D01*
X22145294Y68004319D02*
X22059580Y68032890D01*
X22059580Y68032890D02*
X22031008Y68061462D01*
X22031008Y68061462D02*
X22031008Y68261462D01*
X22031008Y68261462D02*
X22145294Y68261462D01*
X17467297Y66122074D02*
X17124440Y66122074D01*
X17295868Y65522074D02*
X17295868Y66122074D01*
X16610154Y66093503D02*
X16667297Y66122074D01*
X16667297Y66122074D02*
X16753011Y66122074D01*
X16753011Y66122074D02*
X16838725Y66093503D01*
X16838725Y66093503D02*
X16895868Y66036360D01*
X16895868Y66036360D02*
X16924439Y65979217D01*
X16924439Y65979217D02*
X16953011Y65864931D01*
X16953011Y65864931D02*
X16953011Y65779217D01*
X16953011Y65779217D02*
X16924439Y65664931D01*
X16924439Y65664931D02*
X16895868Y65607788D01*
X16895868Y65607788D02*
X16838725Y65550645D01*
X16838725Y65550645D02*
X16753011Y65522074D01*
X16753011Y65522074D02*
X16695868Y65522074D01*
X16695868Y65522074D02*
X16610154Y65550645D01*
X16610154Y65550645D02*
X16581582Y65579217D01*
X16581582Y65579217D02*
X16581582Y65779217D01*
X16581582Y65779217D02*
X16695868Y65779217D01*
X16353011Y65550645D02*
X16267297Y65522074D01*
X16267297Y65522074D02*
X16124439Y65522074D01*
X16124439Y65522074D02*
X16067297Y65550645D01*
X16067297Y65550645D02*
X16038725Y65579217D01*
X16038725Y65579217D02*
X16010154Y65636360D01*
X16010154Y65636360D02*
X16010154Y65693503D01*
X16010154Y65693503D02*
X16038725Y65750645D01*
X16038725Y65750645D02*
X16067297Y65779217D01*
X16067297Y65779217D02*
X16124439Y65807788D01*
X16124439Y65807788D02*
X16238725Y65836360D01*
X16238725Y65836360D02*
X16295868Y65864931D01*
X16295868Y65864931D02*
X16324439Y65893503D01*
X16324439Y65893503D02*
X16353011Y65950645D01*
X16353011Y65950645D02*
X16353011Y66007788D01*
X16353011Y66007788D02*
X16324439Y66064931D01*
X16324439Y66064931D02*
X16295868Y66093503D01*
X16295868Y66093503D02*
X16238725Y66122074D01*
X16238725Y66122074D02*
X16095868Y66122074D01*
X16095868Y66122074D02*
X16010154Y66093503D01*
X15438725Y65522074D02*
X15781582Y65522074D01*
X15610153Y65522074D02*
X15610153Y66122074D01*
X15610153Y66122074D02*
X15667296Y66036360D01*
X15667296Y66036360D02*
X15724439Y65979217D01*
X15724439Y65979217D02*
X15781582Y65950645D01*
X24392146Y37607299D02*
X24420718Y37578727D01*
X24420718Y37578727D02*
X24506432Y37550156D01*
X24506432Y37550156D02*
X24563575Y37550156D01*
X24563575Y37550156D02*
X24649289Y37578727D01*
X24649289Y37578727D02*
X24706432Y37635870D01*
X24706432Y37635870D02*
X24735003Y37693013D01*
X24735003Y37693013D02*
X24763575Y37807299D01*
X24763575Y37807299D02*
X24763575Y37893013D01*
X24763575Y37893013D02*
X24735003Y38007299D01*
X24735003Y38007299D02*
X24706432Y38064442D01*
X24706432Y38064442D02*
X24649289Y38121585D01*
X24649289Y38121585D02*
X24563575Y38150156D01*
X24563575Y38150156D02*
X24506432Y38150156D01*
X24506432Y38150156D02*
X24420718Y38121585D01*
X24420718Y38121585D02*
X24392146Y38093013D01*
X24135003Y37550156D02*
X24135003Y38150156D01*
X23792146Y37550156D02*
X24049289Y37893013D01*
X23792146Y38150156D02*
X24135003Y37807299D01*
X23535003Y37550156D02*
X23535003Y38150156D01*
X23535003Y38150156D02*
X23306432Y38150156D01*
X23306432Y38150156D02*
X23249289Y38121585D01*
X23249289Y38121585D02*
X23220718Y38093013D01*
X23220718Y38093013D02*
X23192146Y38035870D01*
X23192146Y38035870D02*
X23192146Y37950156D01*
X23192146Y37950156D02*
X23220718Y37893013D01*
X23220718Y37893013D02*
X23249289Y37864442D01*
X23249289Y37864442D02*
X23306432Y37835870D01*
X23306432Y37835870D02*
X23535003Y37835870D01*
X22963575Y37578727D02*
X22877861Y37550156D01*
X22877861Y37550156D02*
X22735003Y37550156D01*
X22735003Y37550156D02*
X22677861Y37578727D01*
X22677861Y37578727D02*
X22649289Y37607299D01*
X22649289Y37607299D02*
X22620718Y37664442D01*
X22620718Y37664442D02*
X22620718Y37721585D01*
X22620718Y37721585D02*
X22649289Y37778727D01*
X22649289Y37778727D02*
X22677861Y37807299D01*
X22677861Y37807299D02*
X22735003Y37835870D01*
X22735003Y37835870D02*
X22849289Y37864442D01*
X22849289Y37864442D02*
X22906432Y37893013D01*
X22906432Y37893013D02*
X22935003Y37921585D01*
X22935003Y37921585D02*
X22963575Y37978727D01*
X22963575Y37978727D02*
X22963575Y38035870D01*
X22963575Y38035870D02*
X22935003Y38093013D01*
X22935003Y38093013D02*
X22906432Y38121585D01*
X22906432Y38121585D02*
X22849289Y38150156D01*
X22849289Y38150156D02*
X22706432Y38150156D01*
X22706432Y38150156D02*
X22620718Y38121585D01*
X22077860Y37550156D02*
X22363574Y37550156D01*
X22363574Y37550156D02*
X22363574Y38150156D01*
X14675758Y78308582D02*
X14704329Y78251439D01*
X14704329Y78251439D02*
X14704329Y78165725D01*
X14704329Y78165725D02*
X14675758Y78080011D01*
X14675758Y78080011D02*
X14618615Y78022868D01*
X14618615Y78022868D02*
X14561472Y77994297D01*
X14561472Y77994297D02*
X14447186Y77965725D01*
X14447186Y77965725D02*
X14361472Y77965725D01*
X14361472Y77965725D02*
X14247186Y77994297D01*
X14247186Y77994297D02*
X14190043Y78022868D01*
X14190043Y78022868D02*
X14132901Y78080011D01*
X14132901Y78080011D02*
X14104329Y78165725D01*
X14104329Y78165725D02*
X14104329Y78222868D01*
X14104329Y78222868D02*
X14132901Y78308582D01*
X14132901Y78308582D02*
X14161472Y78337154D01*
X14161472Y78337154D02*
X14361472Y78337154D01*
X14361472Y78337154D02*
X14361472Y78222868D01*
X14104329Y78594297D02*
X14704329Y78594297D01*
X14704329Y78594297D02*
X14104329Y78937154D01*
X14104329Y78937154D02*
X14704329Y78937154D01*
X14104329Y79222868D02*
X14704329Y79222868D01*
X14704329Y79222868D02*
X14704329Y79365725D01*
X14704329Y79365725D02*
X14675758Y79451439D01*
X14675758Y79451439D02*
X14618615Y79508582D01*
X14618615Y79508582D02*
X14561472Y79537153D01*
X14561472Y79537153D02*
X14447186Y79565725D01*
X14447186Y79565725D02*
X14361472Y79565725D01*
X14361472Y79565725D02*
X14247186Y79537153D01*
X14247186Y79537153D02*
X14190043Y79508582D01*
X14190043Y79508582D02*
X14132901Y79451439D01*
X14132901Y79451439D02*
X14104329Y79365725D01*
X14104329Y79365725D02*
X14104329Y79222868D01*
X14691315Y53134767D02*
X14491315Y53134767D01*
X14405601Y52820481D02*
X14691315Y52820481D01*
X14691315Y52820481D02*
X14691315Y53420481D01*
X14691315Y53420481D02*
X14405601Y53420481D01*
X14234173Y53420481D02*
X13891316Y53420481D01*
X14062744Y52820481D02*
X14062744Y53420481D01*
X13719887Y52849052D02*
X13634173Y52820481D01*
X13634173Y52820481D02*
X13491315Y52820481D01*
X13491315Y52820481D02*
X13434173Y52849052D01*
X13434173Y52849052D02*
X13405601Y52877624D01*
X13405601Y52877624D02*
X13377030Y52934767D01*
X13377030Y52934767D02*
X13377030Y52991910D01*
X13377030Y52991910D02*
X13405601Y53049052D01*
X13405601Y53049052D02*
X13434173Y53077624D01*
X13434173Y53077624D02*
X13491315Y53106195D01*
X13491315Y53106195D02*
X13605601Y53134767D01*
X13605601Y53134767D02*
X13662744Y53163338D01*
X13662744Y53163338D02*
X13691315Y53191910D01*
X13691315Y53191910D02*
X13719887Y53249052D01*
X13719887Y53249052D02*
X13719887Y53306195D01*
X13719887Y53306195D02*
X13691315Y53363338D01*
X13691315Y53363338D02*
X13662744Y53391910D01*
X13662744Y53391910D02*
X13605601Y53420481D01*
X13605601Y53420481D02*
X13462744Y53420481D01*
X13462744Y53420481D02*
X13377030Y53391910D01*
X17128628Y53134923D02*
X17328628Y53134923D01*
X17328628Y52820637D02*
X17328628Y53420637D01*
X17328628Y53420637D02*
X17042914Y53420637D01*
X16814342Y52820637D02*
X16814342Y53420637D01*
X16471485Y52820637D02*
X16728628Y53163494D01*
X16471485Y53420637D02*
X16814342Y53077780D01*
X16242914Y52849208D02*
X16157200Y52820637D01*
X16157200Y52820637D02*
X16014342Y52820637D01*
X16014342Y52820637D02*
X15957200Y52849208D01*
X15957200Y52849208D02*
X15928628Y52877780D01*
X15928628Y52877780D02*
X15900057Y52934923D01*
X15900057Y52934923D02*
X15900057Y52992066D01*
X15900057Y52992066D02*
X15928628Y53049208D01*
X15928628Y53049208D02*
X15957200Y53077780D01*
X15957200Y53077780D02*
X16014342Y53106351D01*
X16014342Y53106351D02*
X16128628Y53134923D01*
X16128628Y53134923D02*
X16185771Y53163494D01*
X16185771Y53163494D02*
X16214342Y53192066D01*
X16214342Y53192066D02*
X16242914Y53249208D01*
X16242914Y53249208D02*
X16242914Y53306351D01*
X16242914Y53306351D02*
X16214342Y53363494D01*
X16214342Y53363494D02*
X16185771Y53392066D01*
X16185771Y53392066D02*
X16128628Y53420637D01*
X16128628Y53420637D02*
X15985771Y53420637D01*
X15985771Y53420637D02*
X15900057Y53392066D01*
X15642913Y52820637D02*
X15642913Y53420637D01*
X15642913Y53134923D02*
X15300056Y53134923D01*
X15300056Y52820637D02*
X15300056Y53420637D01*
X15392255Y45730482D02*
X15049398Y45730482D01*
X15220826Y45130482D02*
X15220826Y45730482D01*
X14849397Y45130482D02*
X14849397Y45730482D01*
X14849397Y45730482D02*
X14620826Y45730482D01*
X14620826Y45730482D02*
X14563683Y45701911D01*
X14563683Y45701911D02*
X14535112Y45673339D01*
X14535112Y45673339D02*
X14506540Y45616196D01*
X14506540Y45616196D02*
X14506540Y45530482D01*
X14506540Y45530482D02*
X14535112Y45473339D01*
X14535112Y45473339D02*
X14563683Y45444768D01*
X14563683Y45444768D02*
X14620826Y45416196D01*
X14620826Y45416196D02*
X14849397Y45416196D01*
X14277969Y45159053D02*
X14192255Y45130482D01*
X14192255Y45130482D02*
X14049397Y45130482D01*
X14049397Y45130482D02*
X13992255Y45159053D01*
X13992255Y45159053D02*
X13963683Y45187625D01*
X13963683Y45187625D02*
X13935112Y45244768D01*
X13935112Y45244768D02*
X13935112Y45301911D01*
X13935112Y45301911D02*
X13963683Y45359053D01*
X13963683Y45359053D02*
X13992255Y45387625D01*
X13992255Y45387625D02*
X14049397Y45416196D01*
X14049397Y45416196D02*
X14163683Y45444768D01*
X14163683Y45444768D02*
X14220826Y45473339D01*
X14220826Y45473339D02*
X14249397Y45501911D01*
X14249397Y45501911D02*
X14277969Y45559053D01*
X14277969Y45559053D02*
X14277969Y45616196D01*
X14277969Y45616196D02*
X14249397Y45673339D01*
X14249397Y45673339D02*
X14220826Y45701911D01*
X14220826Y45701911D02*
X14163683Y45730482D01*
X14163683Y45730482D02*
X14020826Y45730482D01*
X14020826Y45730482D02*
X13935112Y45701911D01*
X13363683Y45130482D02*
X13706540Y45130482D01*
X13535111Y45130482D02*
X13535111Y45730482D01*
X13535111Y45730482D02*
X13592254Y45644768D01*
X13592254Y45644768D02*
X13649397Y45587625D01*
X13649397Y45587625D02*
X13706540Y45559053D01*
X22549718Y77870706D02*
X23149718Y77870706D01*
X23149718Y77870706D02*
X23149718Y78099277D01*
X23149718Y78099277D02*
X23121147Y78156420D01*
X23121147Y78156420D02*
X23092575Y78184991D01*
X23092575Y78184991D02*
X23035432Y78213563D01*
X23035432Y78213563D02*
X22949718Y78213563D01*
X22949718Y78213563D02*
X22892575Y78184991D01*
X22892575Y78184991D02*
X22864004Y78156420D01*
X22864004Y78156420D02*
X22835432Y78099277D01*
X22835432Y78099277D02*
X22835432Y77870706D01*
X22578290Y78442134D02*
X22549718Y78527848D01*
X22549718Y78527848D02*
X22549718Y78670706D01*
X22549718Y78670706D02*
X22578290Y78727848D01*
X22578290Y78727848D02*
X22606861Y78756420D01*
X22606861Y78756420D02*
X22664004Y78784991D01*
X22664004Y78784991D02*
X22721147Y78784991D01*
X22721147Y78784991D02*
X22778290Y78756420D01*
X22778290Y78756420D02*
X22806861Y78727848D01*
X22806861Y78727848D02*
X22835432Y78670706D01*
X22835432Y78670706D02*
X22864004Y78556420D01*
X22864004Y78556420D02*
X22892575Y78499277D01*
X22892575Y78499277D02*
X22921147Y78470706D01*
X22921147Y78470706D02*
X22978290Y78442134D01*
X22978290Y78442134D02*
X23035432Y78442134D01*
X23035432Y78442134D02*
X23092575Y78470706D01*
X23092575Y78470706D02*
X23121147Y78499277D01*
X23121147Y78499277D02*
X23149718Y78556420D01*
X23149718Y78556420D02*
X23149718Y78699277D01*
X23149718Y78699277D02*
X23121147Y78784991D01*
X22549718Y79042135D02*
X23149718Y79042135D01*
X23149718Y79042135D02*
X23149718Y79270706D01*
X23149718Y79270706D02*
X23121147Y79327849D01*
X23121147Y79327849D02*
X23092575Y79356420D01*
X23092575Y79356420D02*
X23035432Y79384992D01*
X23035432Y79384992D02*
X22949718Y79384992D01*
X22949718Y79384992D02*
X22892575Y79356420D01*
X22892575Y79356420D02*
X22864004Y79327849D01*
X22864004Y79327849D02*
X22835432Y79270706D01*
X22835432Y79270706D02*
X22835432Y79042135D01*
X22549718Y79956420D02*
X22549718Y79613563D01*
X22549718Y79784992D02*
X23149718Y79784992D01*
X23149718Y79784992D02*
X23064004Y79727849D01*
X23064004Y79727849D02*
X23006861Y79670706D01*
X23006861Y79670706D02*
X22978290Y79613563D01*
D11*
G04 #@! TO.C,M3*
X46274999Y61025002D02*
X46274999Y18925002D01*
X46274999Y61025002D02*
X86174998Y61025002D01*
X46274999Y18925002D02*
X86174998Y18924999D01*
X86174998Y61025002D02*
X86174998Y20224999D01*
X86174998Y20224999D02*
X86174998Y18924999D01*
G04 #@! TO.C,M1*
X90823946Y36399037D02*
X90823946Y20051137D01*
X90823946Y20051137D02*
X90958007Y19917076D01*
X90958007Y19917076D02*
X101198591Y19891673D01*
X92349996Y37925087D02*
X90823946Y36399037D01*
X92349996Y37925087D02*
X99774995Y37925087D01*
X99774995Y37925087D02*
X101224995Y36475087D01*
X101224995Y36475087D02*
X101224997Y19918079D01*
X101224997Y19918079D02*
X101198591Y19891673D01*
G04 #@! TO.C,M5*
X34150000Y49000003D02*
X43250000Y49000003D01*
X34150000Y45900000D02*
X34150000Y46900002D01*
X34150000Y45900000D02*
X43250000Y45900000D01*
G04 #@! TO.C,M2*
X50144999Y79624999D02*
X50144999Y82825002D01*
X50144999Y67524999D02*
X50144999Y77925001D01*
X50144999Y65624999D02*
X50144999Y65924999D01*
X50144999Y65624999D02*
X65544999Y65624999D01*
X51644999Y86224997D02*
X66944998Y86224999D01*
X66944996Y79525001D02*
X66944996Y84325001D01*
X66944996Y73324999D02*
X66944996Y76024999D01*
X66944996Y70625001D02*
X66944996Y71725004D01*
X66944996Y67074999D02*
X66945001Y68624999D01*
X66944998Y85925001D02*
X66944998Y86224999D01*
G04 #@! TO.C,M4*
X28925000Y44925000D02*
X28925000Y38525000D01*
X28925000Y35325000D02*
X28925000Y36625000D01*
X28925000Y35325000D02*
X43925000Y35325000D01*
X43325000Y44925000D02*
X28925000Y44925000D01*
X43925000Y35325000D02*
X43925000Y40425000D01*
G04 #@! TD*
M02*
