G04 #@! TF.GenerationSoftware,KiCad,Pcbnew,8.0.6-8.0.6-0~ubuntu22.04.1*
G04 #@! TF.CreationDate,2024-11-14T01:32:20+00:00*
G04 #@! TF.ProjectId,hellenbremen,68656c6c-656e-4627-9265-6d656e2e6b69,rev?*
G04 #@! TF.SameCoordinates,Original*
G04 #@! TF.FileFunction,Profile,NP*
%FSLAX46Y46*%
G04 Gerber Fmt 4.6, Leading zero omitted, Abs format (unit mm)*
G04 Created by KiCad (PCBNEW 8.0.6-8.0.6-0~ubuntu22.04.1) date 2024-11-14 01:32:20*
%MOMM*%
%LPD*%
G01*
G04 APERTURE LIST*
G04 #@! TA.AperFunction,Profile*
%ADD10C,0.050000*%
G04 #@! TD*
%ADD11C,0.150000*%
G04 APERTURE END LIST*
D10*
X0Y0D02*
X102000000Y0D01*
X102000000Y-107000000D01*
X0Y-107000000D01*
X0Y0D01*
D11*
X46476190Y6695181D02*
X45904762Y6695181D01*
X46190476Y6695181D02*
X46190476Y7695181D01*
X46190476Y7695181D02*
X46095238Y7552324D01*
X46095238Y7552324D02*
X46000000Y7457086D01*
X46000000Y7457086D02*
X45904762Y7409467D01*
X47095238Y7695181D02*
X47190476Y7695181D01*
X47190476Y7695181D02*
X47285714Y7647562D01*
X47285714Y7647562D02*
X47333333Y7599943D01*
X47333333Y7599943D02*
X47380952Y7504705D01*
X47380952Y7504705D02*
X47428571Y7314229D01*
X47428571Y7314229D02*
X47428571Y7076134D01*
X47428571Y7076134D02*
X47380952Y6885658D01*
X47380952Y6885658D02*
X47333333Y6790420D01*
X47333333Y6790420D02*
X47285714Y6742800D01*
X47285714Y6742800D02*
X47190476Y6695181D01*
X47190476Y6695181D02*
X47095238Y6695181D01*
X47095238Y6695181D02*
X47000000Y6742800D01*
X47000000Y6742800D02*
X46952381Y6790420D01*
X46952381Y6790420D02*
X46904762Y6885658D01*
X46904762Y6885658D02*
X46857143Y7076134D01*
X46857143Y7076134D02*
X46857143Y7314229D01*
X46857143Y7314229D02*
X46904762Y7504705D01*
X46904762Y7504705D02*
X46952381Y7599943D01*
X46952381Y7599943D02*
X47000000Y7647562D01*
X47000000Y7647562D02*
X47095238Y7695181D01*
X47809524Y7599943D02*
X47857143Y7647562D01*
X47857143Y7647562D02*
X47952381Y7695181D01*
X47952381Y7695181D02*
X48190476Y7695181D01*
X48190476Y7695181D02*
X48285714Y7647562D01*
X48285714Y7647562D02*
X48333333Y7599943D01*
X48333333Y7599943D02*
X48380952Y7504705D01*
X48380952Y7504705D02*
X48380952Y7409467D01*
X48380952Y7409467D02*
X48333333Y7266610D01*
X48333333Y7266610D02*
X47761905Y6695181D01*
X47761905Y6695181D02*
X48380952Y6695181D01*
X48809524Y6790420D02*
X48857143Y6742800D01*
X48857143Y6742800D02*
X48809524Y6695181D01*
X48809524Y6695181D02*
X48761905Y6742800D01*
X48761905Y6742800D02*
X48809524Y6790420D01*
X48809524Y6790420D02*
X48809524Y6695181D01*
X49476190Y7695181D02*
X49571428Y7695181D01*
X49571428Y7695181D02*
X49666666Y7647562D01*
X49666666Y7647562D02*
X49714285Y7599943D01*
X49714285Y7599943D02*
X49761904Y7504705D01*
X49761904Y7504705D02*
X49809523Y7314229D01*
X49809523Y7314229D02*
X49809523Y7076134D01*
X49809523Y7076134D02*
X49761904Y6885658D01*
X49761904Y6885658D02*
X49714285Y6790420D01*
X49714285Y6790420D02*
X49666666Y6742800D01*
X49666666Y6742800D02*
X49571428Y6695181D01*
X49571428Y6695181D02*
X49476190Y6695181D01*
X49476190Y6695181D02*
X49380952Y6742800D01*
X49380952Y6742800D02*
X49333333Y6790420D01*
X49333333Y6790420D02*
X49285714Y6885658D01*
X49285714Y6885658D02*
X49238095Y7076134D01*
X49238095Y7076134D02*
X49238095Y7314229D01*
X49238095Y7314229D02*
X49285714Y7504705D01*
X49285714Y7504705D02*
X49333333Y7599943D01*
X49333333Y7599943D02*
X49380952Y7647562D01*
X49380952Y7647562D02*
X49476190Y7695181D01*
X50428571Y7695181D02*
X50523809Y7695181D01*
X50523809Y7695181D02*
X50619047Y7647562D01*
X50619047Y7647562D02*
X50666666Y7599943D01*
X50666666Y7599943D02*
X50714285Y7504705D01*
X50714285Y7504705D02*
X50761904Y7314229D01*
X50761904Y7314229D02*
X50761904Y7076134D01*
X50761904Y7076134D02*
X50714285Y6885658D01*
X50714285Y6885658D02*
X50666666Y6790420D01*
X50666666Y6790420D02*
X50619047Y6742800D01*
X50619047Y6742800D02*
X50523809Y6695181D01*
X50523809Y6695181D02*
X50428571Y6695181D01*
X50428571Y6695181D02*
X50333333Y6742800D01*
X50333333Y6742800D02*
X50285714Y6790420D01*
X50285714Y6790420D02*
X50238095Y6885658D01*
X50238095Y6885658D02*
X50190476Y7076134D01*
X50190476Y7076134D02*
X50190476Y7314229D01*
X50190476Y7314229D02*
X50238095Y7504705D01*
X50238095Y7504705D02*
X50285714Y7599943D01*
X50285714Y7599943D02*
X50333333Y7647562D01*
X50333333Y7647562D02*
X50428571Y7695181D01*
X51380952Y7695181D02*
X51476190Y7695181D01*
X51476190Y7695181D02*
X51571428Y7647562D01*
X51571428Y7647562D02*
X51619047Y7599943D01*
X51619047Y7599943D02*
X51666666Y7504705D01*
X51666666Y7504705D02*
X51714285Y7314229D01*
X51714285Y7314229D02*
X51714285Y7076134D01*
X51714285Y7076134D02*
X51666666Y6885658D01*
X51666666Y6885658D02*
X51619047Y6790420D01*
X51619047Y6790420D02*
X51571428Y6742800D01*
X51571428Y6742800D02*
X51476190Y6695181D01*
X51476190Y6695181D02*
X51380952Y6695181D01*
X51380952Y6695181D02*
X51285714Y6742800D01*
X51285714Y6742800D02*
X51238095Y6790420D01*
X51238095Y6790420D02*
X51190476Y6885658D01*
X51190476Y6885658D02*
X51142857Y7076134D01*
X51142857Y7076134D02*
X51142857Y7314229D01*
X51142857Y7314229D02*
X51190476Y7504705D01*
X51190476Y7504705D02*
X51238095Y7599943D01*
X51238095Y7599943D02*
X51285714Y7647562D01*
X51285714Y7647562D02*
X51380952Y7695181D01*
X52333333Y7695181D02*
X52428571Y7695181D01*
X52428571Y7695181D02*
X52523809Y7647562D01*
X52523809Y7647562D02*
X52571428Y7599943D01*
X52571428Y7599943D02*
X52619047Y7504705D01*
X52619047Y7504705D02*
X52666666Y7314229D01*
X52666666Y7314229D02*
X52666666Y7076134D01*
X52666666Y7076134D02*
X52619047Y6885658D01*
X52619047Y6885658D02*
X52571428Y6790420D01*
X52571428Y6790420D02*
X52523809Y6742800D01*
X52523809Y6742800D02*
X52428571Y6695181D01*
X52428571Y6695181D02*
X52333333Y6695181D01*
X52333333Y6695181D02*
X52238095Y6742800D01*
X52238095Y6742800D02*
X52190476Y6790420D01*
X52190476Y6790420D02*
X52142857Y6885658D01*
X52142857Y6885658D02*
X52095238Y7076134D01*
X52095238Y7076134D02*
X52095238Y7314229D01*
X52095238Y7314229D02*
X52142857Y7504705D01*
X52142857Y7504705D02*
X52190476Y7599943D01*
X52190476Y7599943D02*
X52238095Y7647562D01*
X52238095Y7647562D02*
X52333333Y7695181D01*
X53857143Y6695181D02*
X53857143Y7361848D01*
X53857143Y7266610D02*
X53904762Y7314229D01*
X53904762Y7314229D02*
X54000000Y7361848D01*
X54000000Y7361848D02*
X54142857Y7361848D01*
X54142857Y7361848D02*
X54238095Y7314229D01*
X54238095Y7314229D02*
X54285714Y7218991D01*
X54285714Y7218991D02*
X54285714Y6695181D01*
X54285714Y7218991D02*
X54333333Y7314229D01*
X54333333Y7314229D02*
X54428571Y7361848D01*
X54428571Y7361848D02*
X54571428Y7361848D01*
X54571428Y7361848D02*
X54666667Y7314229D01*
X54666667Y7314229D02*
X54714286Y7218991D01*
X54714286Y7218991D02*
X54714286Y6695181D01*
X55190476Y6695181D02*
X55190476Y7361848D01*
X55190476Y7266610D02*
X55238095Y7314229D01*
X55238095Y7314229D02*
X55333333Y7361848D01*
X55333333Y7361848D02*
X55476190Y7361848D01*
X55476190Y7361848D02*
X55571428Y7314229D01*
X55571428Y7314229D02*
X55619047Y7218991D01*
X55619047Y7218991D02*
X55619047Y6695181D01*
X55619047Y7218991D02*
X55666666Y7314229D01*
X55666666Y7314229D02*
X55761904Y7361848D01*
X55761904Y7361848D02*
X55904761Y7361848D01*
X55904761Y7361848D02*
X56000000Y7314229D01*
X56000000Y7314229D02*
X56047619Y7218991D01*
X56047619Y7218991D02*
X56047619Y6695181D01*
D10*
X0Y500000D02*
X0Y6586420D01*
X102000000Y500000D02*
X102000000Y6586420D01*
X0Y6000000D02*
X102000000Y6000000D01*
X0Y6000000D02*
X102000000Y6000000D01*
X0Y6000000D02*
X1126504Y6586421D01*
X0Y6000000D02*
X1126504Y5413579D01*
X102000000Y6000000D02*
X100873496Y5413579D01*
X102000000Y6000000D02*
X100873496Y6586421D01*
D11*
X-13695181Y-58023809D02*
X-13695181Y-58595237D01*
X-13695181Y-58309523D02*
X-14695181Y-58309523D01*
X-14695181Y-58309523D02*
X-14552324Y-58404761D01*
X-14552324Y-58404761D02*
X-14457086Y-58499999D01*
X-14457086Y-58499999D02*
X-14409467Y-58595237D01*
X-14695181Y-57404761D02*
X-14695181Y-57309523D01*
X-14695181Y-57309523D02*
X-14647562Y-57214285D01*
X-14647562Y-57214285D02*
X-14599943Y-57166666D01*
X-14599943Y-57166666D02*
X-14504705Y-57119047D01*
X-14504705Y-57119047D02*
X-14314229Y-57071428D01*
X-14314229Y-57071428D02*
X-14076134Y-57071428D01*
X-14076134Y-57071428D02*
X-13885658Y-57119047D01*
X-13885658Y-57119047D02*
X-13790420Y-57166666D01*
X-13790420Y-57166666D02*
X-13742800Y-57214285D01*
X-13742800Y-57214285D02*
X-13695181Y-57309523D01*
X-13695181Y-57309523D02*
X-13695181Y-57404761D01*
X-13695181Y-57404761D02*
X-13742800Y-57499999D01*
X-13742800Y-57499999D02*
X-13790420Y-57547618D01*
X-13790420Y-57547618D02*
X-13885658Y-57595237D01*
X-13885658Y-57595237D02*
X-14076134Y-57642856D01*
X-14076134Y-57642856D02*
X-14314229Y-57642856D01*
X-14314229Y-57642856D02*
X-14504705Y-57595237D01*
X-14504705Y-57595237D02*
X-14599943Y-57547618D01*
X-14599943Y-57547618D02*
X-14647562Y-57499999D01*
X-14647562Y-57499999D02*
X-14695181Y-57404761D01*
X-14695181Y-56738094D02*
X-14695181Y-56071428D01*
X-14695181Y-56071428D02*
X-13695181Y-56499999D01*
X-13790420Y-55690475D02*
X-13742800Y-55642856D01*
X-13742800Y-55642856D02*
X-13695181Y-55690475D01*
X-13695181Y-55690475D02*
X-13742800Y-55738094D01*
X-13742800Y-55738094D02*
X-13790420Y-55690475D01*
X-13790420Y-55690475D02*
X-13695181Y-55690475D01*
X-14695181Y-55023809D02*
X-14695181Y-54928571D01*
X-14695181Y-54928571D02*
X-14647562Y-54833333D01*
X-14647562Y-54833333D02*
X-14599943Y-54785714D01*
X-14599943Y-54785714D02*
X-14504705Y-54738095D01*
X-14504705Y-54738095D02*
X-14314229Y-54690476D01*
X-14314229Y-54690476D02*
X-14076134Y-54690476D01*
X-14076134Y-54690476D02*
X-13885658Y-54738095D01*
X-13885658Y-54738095D02*
X-13790420Y-54785714D01*
X-13790420Y-54785714D02*
X-13742800Y-54833333D01*
X-13742800Y-54833333D02*
X-13695181Y-54928571D01*
X-13695181Y-54928571D02*
X-13695181Y-55023809D01*
X-13695181Y-55023809D02*
X-13742800Y-55119047D01*
X-13742800Y-55119047D02*
X-13790420Y-55166666D01*
X-13790420Y-55166666D02*
X-13885658Y-55214285D01*
X-13885658Y-55214285D02*
X-14076134Y-55261904D01*
X-14076134Y-55261904D02*
X-14314229Y-55261904D01*
X-14314229Y-55261904D02*
X-14504705Y-55214285D01*
X-14504705Y-55214285D02*
X-14599943Y-55166666D01*
X-14599943Y-55166666D02*
X-14647562Y-55119047D01*
X-14647562Y-55119047D02*
X-14695181Y-55023809D01*
X-14695181Y-54071428D02*
X-14695181Y-53976190D01*
X-14695181Y-53976190D02*
X-14647562Y-53880952D01*
X-14647562Y-53880952D02*
X-14599943Y-53833333D01*
X-14599943Y-53833333D02*
X-14504705Y-53785714D01*
X-14504705Y-53785714D02*
X-14314229Y-53738095D01*
X-14314229Y-53738095D02*
X-14076134Y-53738095D01*
X-14076134Y-53738095D02*
X-13885658Y-53785714D01*
X-13885658Y-53785714D02*
X-13790420Y-53833333D01*
X-13790420Y-53833333D02*
X-13742800Y-53880952D01*
X-13742800Y-53880952D02*
X-13695181Y-53976190D01*
X-13695181Y-53976190D02*
X-13695181Y-54071428D01*
X-13695181Y-54071428D02*
X-13742800Y-54166666D01*
X-13742800Y-54166666D02*
X-13790420Y-54214285D01*
X-13790420Y-54214285D02*
X-13885658Y-54261904D01*
X-13885658Y-54261904D02*
X-14076134Y-54309523D01*
X-14076134Y-54309523D02*
X-14314229Y-54309523D01*
X-14314229Y-54309523D02*
X-14504705Y-54261904D01*
X-14504705Y-54261904D02*
X-14599943Y-54214285D01*
X-14599943Y-54214285D02*
X-14647562Y-54166666D01*
X-14647562Y-54166666D02*
X-14695181Y-54071428D01*
X-14695181Y-53119047D02*
X-14695181Y-53023809D01*
X-14695181Y-53023809D02*
X-14647562Y-52928571D01*
X-14647562Y-52928571D02*
X-14599943Y-52880952D01*
X-14599943Y-52880952D02*
X-14504705Y-52833333D01*
X-14504705Y-52833333D02*
X-14314229Y-52785714D01*
X-14314229Y-52785714D02*
X-14076134Y-52785714D01*
X-14076134Y-52785714D02*
X-13885658Y-52833333D01*
X-13885658Y-52833333D02*
X-13790420Y-52880952D01*
X-13790420Y-52880952D02*
X-13742800Y-52928571D01*
X-13742800Y-52928571D02*
X-13695181Y-53023809D01*
X-13695181Y-53023809D02*
X-13695181Y-53119047D01*
X-13695181Y-53119047D02*
X-13742800Y-53214285D01*
X-13742800Y-53214285D02*
X-13790420Y-53261904D01*
X-13790420Y-53261904D02*
X-13885658Y-53309523D01*
X-13885658Y-53309523D02*
X-14076134Y-53357142D01*
X-14076134Y-53357142D02*
X-14314229Y-53357142D01*
X-14314229Y-53357142D02*
X-14504705Y-53309523D01*
X-14504705Y-53309523D02*
X-14599943Y-53261904D01*
X-14599943Y-53261904D02*
X-14647562Y-53214285D01*
X-14647562Y-53214285D02*
X-14695181Y-53119047D01*
X-14695181Y-52166666D02*
X-14695181Y-52071428D01*
X-14695181Y-52071428D02*
X-14647562Y-51976190D01*
X-14647562Y-51976190D02*
X-14599943Y-51928571D01*
X-14599943Y-51928571D02*
X-14504705Y-51880952D01*
X-14504705Y-51880952D02*
X-14314229Y-51833333D01*
X-14314229Y-51833333D02*
X-14076134Y-51833333D01*
X-14076134Y-51833333D02*
X-13885658Y-51880952D01*
X-13885658Y-51880952D02*
X-13790420Y-51928571D01*
X-13790420Y-51928571D02*
X-13742800Y-51976190D01*
X-13742800Y-51976190D02*
X-13695181Y-52071428D01*
X-13695181Y-52071428D02*
X-13695181Y-52166666D01*
X-13695181Y-52166666D02*
X-13742800Y-52261904D01*
X-13742800Y-52261904D02*
X-13790420Y-52309523D01*
X-13790420Y-52309523D02*
X-13885658Y-52357142D01*
X-13885658Y-52357142D02*
X-14076134Y-52404761D01*
X-14076134Y-52404761D02*
X-14314229Y-52404761D01*
X-14314229Y-52404761D02*
X-14504705Y-52357142D01*
X-14504705Y-52357142D02*
X-14599943Y-52309523D01*
X-14599943Y-52309523D02*
X-14647562Y-52261904D01*
X-14647562Y-52261904D02*
X-14695181Y-52166666D01*
X-13695181Y-50642856D02*
X-14361848Y-50642856D01*
X-14266610Y-50642856D02*
X-14314229Y-50595237D01*
X-14314229Y-50595237D02*
X-14361848Y-50499999D01*
X-14361848Y-50499999D02*
X-14361848Y-50357142D01*
X-14361848Y-50357142D02*
X-14314229Y-50261904D01*
X-14314229Y-50261904D02*
X-14218991Y-50214285D01*
X-14218991Y-50214285D02*
X-13695181Y-50214285D01*
X-14218991Y-50214285D02*
X-14314229Y-50166666D01*
X-14314229Y-50166666D02*
X-14361848Y-50071428D01*
X-14361848Y-50071428D02*
X-14361848Y-49928571D01*
X-14361848Y-49928571D02*
X-14314229Y-49833332D01*
X-14314229Y-49833332D02*
X-14218991Y-49785713D01*
X-14218991Y-49785713D02*
X-13695181Y-49785713D01*
X-13695181Y-49309523D02*
X-14361848Y-49309523D01*
X-14266610Y-49309523D02*
X-14314229Y-49261904D01*
X-14314229Y-49261904D02*
X-14361848Y-49166666D01*
X-14361848Y-49166666D02*
X-14361848Y-49023809D01*
X-14361848Y-49023809D02*
X-14314229Y-48928571D01*
X-14314229Y-48928571D02*
X-14218991Y-48880952D01*
X-14218991Y-48880952D02*
X-13695181Y-48880952D01*
X-14218991Y-48880952D02*
X-14314229Y-48833333D01*
X-14314229Y-48833333D02*
X-14361848Y-48738095D01*
X-14361848Y-48738095D02*
X-14361848Y-48595238D01*
X-14361848Y-48595238D02*
X-14314229Y-48499999D01*
X-14314229Y-48499999D02*
X-14218991Y-48452380D01*
X-14218991Y-48452380D02*
X-13695181Y-48452380D01*
D10*
X-500000Y0D02*
X-13586420Y0D01*
X-500000Y-107000000D02*
X-13586420Y-107000000D01*
X-13000000Y0D02*
X-13000000Y-107000000D01*
X-13000000Y0D02*
X-13000000Y-107000000D01*
X-13000000Y0D02*
X-12413579Y-1126504D01*
X-13000000Y0D02*
X-13586421Y-1126504D01*
X-13000000Y-107000000D02*
X-13586421Y-105873496D01*
X-13000000Y-107000000D02*
X-12413579Y-105873496D01*
M02*
