G04 #@! TF.GenerationSoftware,KiCad,Pcbnew,8.0.6-8.0.6-0~ubuntu22.04.1*
G04 #@! TF.CreationDate,2024-11-14T01:46:21+00:00*
G04 #@! TF.ProjectId,hellenbremen,68656c6c-656e-4627-9265-6d656e2e6b69,rev?*
G04 #@! TF.SameCoordinates,Original*
G04 #@! TF.FileFunction,Copper,L2,Inr*
G04 #@! TF.FilePolarity,Positive*
%FSLAX46Y46*%
G04 Gerber Fmt 4.6, Leading zero omitted, Abs format (unit mm)*
G04 Created by KiCad (PCBNEW 8.0.6-8.0.6-0~ubuntu22.04.1) date 2024-11-14 01:46:21*
%MOMM*%
%LPD*%
G01*
G04 APERTURE LIST*
G04 #@! TA.AperFunction,ComponentPad*
%ADD10C,0.600000*%
G04 #@! TD*
G04 #@! TA.AperFunction,Conductor*
%ADD11R,2.300000X0.200000*%
G04 #@! TD*
G04 #@! TA.AperFunction,Conductor*
%ADD12R,10.700000X0.200000*%
G04 #@! TD*
G04 #@! TA.AperFunction,Conductor*
%ADD13R,2.100000X0.200000*%
G04 #@! TD*
G04 #@! TA.AperFunction,Conductor*
%ADD14R,6.000000X0.200000*%
G04 #@! TD*
G04 #@! TA.AperFunction,Conductor*
%ADD15R,5.400000X0.200000*%
G04 #@! TD*
G04 #@! TA.AperFunction,Conductor*
%ADD16R,0.200000X1.400000*%
G04 #@! TD*
G04 #@! TA.AperFunction,Conductor*
%ADD17R,0.200000X5.000000*%
G04 #@! TD*
G04 #@! TA.AperFunction,Conductor*
%ADD18R,0.200000X6.800000*%
G04 #@! TD*
G04 #@! TA.AperFunction,Conductor*
%ADD19R,0.200000X4.500000*%
G04 #@! TD*
G04 #@! TA.AperFunction,Conductor*
%ADD20R,1.600000X0.200000*%
G04 #@! TD*
G04 #@! TA.AperFunction,Conductor*
%ADD21R,5.700000X0.200000*%
G04 #@! TD*
G04 #@! TA.AperFunction,Conductor*
%ADD22R,2.000000X0.200000*%
G04 #@! TD*
G04 #@! TA.AperFunction,Conductor*
%ADD23O,0.200000X1.225000*%
G04 #@! TD*
G04 #@! TA.AperFunction,Conductor*
%ADD24O,9.300000X0.200000*%
G04 #@! TD*
G04 #@! TA.AperFunction,ComponentPad*
%ADD25C,2.000000*%
G04 #@! TD*
G04 #@! TA.AperFunction,ComponentPad*
%ADD26C,1.600000*%
G04 #@! TD*
G04 #@! TA.AperFunction,ComponentPad*
%ADD27C,1.500000*%
G04 #@! TD*
G04 #@! TA.AperFunction,Conductor*
%ADD28O,0.200000X3.300000*%
G04 #@! TD*
G04 #@! TA.AperFunction,Conductor*
%ADD29O,0.200000X10.200000*%
G04 #@! TD*
G04 #@! TA.AperFunction,Conductor*
%ADD30O,0.200000X0.300000*%
G04 #@! TD*
G04 #@! TA.AperFunction,Conductor*
%ADD31O,17.000000X0.200000*%
G04 #@! TD*
G04 #@! TA.AperFunction,Conductor*
%ADD32O,15.400000X0.200000*%
G04 #@! TD*
G04 #@! TA.AperFunction,Conductor*
%ADD33O,0.200000X4.800000*%
G04 #@! TD*
G04 #@! TA.AperFunction,Conductor*
%ADD34O,0.200000X2.600000*%
G04 #@! TD*
G04 #@! TA.AperFunction,Conductor*
%ADD35O,0.200000X1.000000*%
G04 #@! TD*
G04 #@! TA.AperFunction,Conductor*
%ADD36O,0.200000X1.500000*%
G04 #@! TD*
G04 #@! TA.AperFunction,Conductor*
%ADD37R,0.250000X6.185000*%
G04 #@! TD*
G04 #@! TA.AperFunction,Conductor*
%ADD38R,0.250000X1.115000*%
G04 #@! TD*
G04 #@! TA.AperFunction,Conductor*
%ADD39R,14.275000X0.250000*%
G04 #@! TD*
G04 #@! TA.AperFunction,Conductor*
%ADD40R,15.100000X0.250000*%
G04 #@! TD*
G04 #@! TA.AperFunction,Conductor*
%ADD41R,0.250000X5.175000*%
G04 #@! TD*
G04 APERTURE END LIST*
D10*
G04 #@! TO.N,unconnected-(M3-SPI2_SCK{slash}CAN2_TX-PadE1)*
G04 #@! TO.C,M3*
X84434996Y27472999D03*
G04 #@! TO.N,unconnected-(M3-SPI2_MISO-PadE2)*
X83634995Y27472999D03*
G04 #@! TO.N,unconnected-(M3-SPI2_MOSI-PadE3)*
X82834997Y27472999D03*
G04 #@! TO.N,unconnected-(M3-SPI2_CS{slash}CAN2_RX-PadE4)*
X82034996Y27472999D03*
G04 #@! TO.N,unconnected-(M3-OUT_IO3-PadE6)*
X81234995Y27472999D03*
G04 #@! TO.N,unconnected-(M3-OUT_IO5-PadE7)*
X80434997Y27473002D03*
G04 #@! TO.N,unconnected-(M3-OUT_IO1-PadE8)*
X79634996Y27473002D03*
G04 #@! TO.N,unconnected-(M3-OUT_IO6-PadE9)*
X78834992Y27472999D03*
G04 #@! TO.N,unconnected-(M3-OUT_IO10-PadE10)*
X78034996Y27472999D03*
G04 #@! TO.N,unconnected-(M3-OUT_IO9-PadE11)*
X77234996Y27472999D03*
G04 #@! TO.N,unconnected-(M3-OUT_IO2-PadE12)*
X76434995Y27472999D03*
G04 #@! TO.N,unconnected-(M3-OUT_IO12-PadE13)*
X75634996Y27473002D03*
G04 #@! TO.N,unconnected-(M3-OUT_PWM5-PadE14)*
X74834995Y27473002D03*
G04 #@! TO.N,unconnected-(M3-OUT_PWM4-PadE15)*
X74034994Y27473002D03*
G04 #@! TO.N,unconnected-(M3-OUT_PWM3-PadE16)*
X73234996Y27472999D03*
G04 #@! TO.N,unconnected-(M3-OUT_PWM2-PadE17)*
X72434995Y27472999D03*
G04 #@! TO.N,unconnected-(M3-OUT_INJ2-PadE18)*
X71634997Y27472999D03*
G04 #@! TO.N,unconnected-(M3-OUT_INJ1-PadE19)*
X70834996Y27473002D03*
G04 #@! TO.N,unconnected-(M3-OUT_IO13-PadE20)*
X70034995Y27473002D03*
G04 #@! TO.N,unconnected-(M3-OUT_IO4-PadE21)*
X69234996Y27472999D03*
G04 #@! TO.N,unconnected-(M3-OUT_IO8-PadE22)*
X68434995Y27472999D03*
G04 #@! TO.N,unconnected-(M3-OUT_IO7-PadE23)*
X67634994Y27472999D03*
G04 #@! TO.N,unconnected-(M3-OUT_IO11-PadE24)*
X66834996Y27472999D03*
G04 #@! TO.N,unconnected-(M3-OUT_PWM7-PadE25)*
X66034995Y27472999D03*
G04 #@! TO.N,unconnected-(M3-OUT_PWM6-PadE26)*
X65234997Y27472999D03*
G04 #@! TO.N,unconnected-(M3-OUT_PWM1-PadE27)*
X64434996Y27472999D03*
G04 #@! TO.N,unconnected-(M3-OUT_PWM8-PadE28)*
X63634995Y27472999D03*
G04 #@! TO.N,unconnected-(M3-OUT_INJ3-PadE29)*
X62834996Y27472999D03*
G04 #@! TO.N,unconnected-(M3-OUT_INJ4-PadE30)*
X62034995Y27472999D03*
G04 #@! TO.N,unconnected-(M3-OUT_INJ5-PadE31)*
X61234997Y27473002D03*
G04 #@! TO.N,unconnected-(M3-OUT_INJ6-PadE32)*
X60434994Y27472999D03*
G04 #@! TO.N,unconnected-(M3-OUT_INJ7-PadE33)*
X59634995Y27472999D03*
G04 #@! TO.N,unconnected-(M3-OUT_INJ8-PadE34)*
X58834997Y27472999D03*
G04 #@! TO.N,unconnected-(M3-IO6-PadE35)*
X58034996Y27472999D03*
G04 #@! TO.N,unconnected-(M3-IO7-PadE36)*
X57234995Y27472999D03*
G04 #@! TO.N,unconnected-(M3-V5A_SWITCHABLE-PadE38)*
X50535001Y27473002D03*
G04 #@! TO.N,unconnected-(M3-GNDA-PadE39)*
X49735000Y27472999D03*
D11*
G04 #@! TO.N,GND*
X48385000Y69373004D03*
D12*
X81184998Y69373002D03*
D13*
X72984999Y69373002D03*
D14*
X60935000Y69373002D03*
D15*
X54235003Y69373002D03*
D16*
X47334997Y67572995D03*
D17*
X87234998Y66173000D03*
D18*
X87234998Y57672997D03*
D19*
X87234998Y47822994D03*
D20*
X85734999Y27272999D03*
D21*
X53884996Y27272999D03*
D22*
X48235003Y27272999D03*
D10*
G04 #@! TO.N,unconnected-(M3-USBID-PadN1)*
X87034999Y27472999D03*
G04 #@! TO.N,Net-(M3-USBM)*
X87035001Y28272997D03*
G04 #@! TO.N,Net-(M3-USBP)*
X87035001Y29072998D03*
G04 #@! TO.N,Net-(M3-VBUS)*
X87034999Y29872997D03*
G04 #@! TO.N,unconnected-(M3-BOOT0-PadN5)*
X87034999Y30672998D03*
G04 #@! TO.N,Net-(M1-SWO)*
X87034999Y31472999D03*
G04 #@! TO.N,Net-(M1-SWDIO)*
X87034999Y32272997D03*
G04 #@! TO.N,Net-(M1-SWCLK)*
X87035001Y33072998D03*
G04 #@! TO.N,Net-(M1-nReset)*
X87034999Y33872996D03*
G04 #@! TO.N,unconnected-(M3-SPI3_CS-PadN10)*
X87034999Y34672997D03*
G04 #@! TO.N,unconnected-(M3-SPI3_SCK-PadN11)*
X87034999Y35472998D03*
G04 #@! TO.N,unconnected-(M3-SPI3_MISO-PadN12)*
X87034999Y36272999D03*
G04 #@! TO.N,unconnected-(M3-SPI3_MOSI-PadN13)*
X87034999Y37072998D03*
G04 #@! TO.N,unconnected-(M3-I2C_SCL-PadN14)*
X87034999Y37872999D03*
G04 #@! TO.N,unconnected-(M3-I2C_SDA-PadN15)*
X87035001Y38673000D03*
G04 #@! TO.N,unconnected-(M3-IO1-PadN16)*
X87035001Y39473000D03*
G04 #@! TO.N,UART_BT_TX*
X87034999Y40272999D03*
G04 #@! TO.N,UART_BT_RX*
X87034999Y41073000D03*
G04 #@! TO.N,unconnected-(M3-IO2-PadN19)*
X87034999Y41872998D03*
G04 #@! TO.N,unconnected-(M3-IO4-PadN20)*
X87034999Y42672999D03*
G04 #@! TO.N,unconnected-(M3-IO3-PadN21)*
X87035001Y43472998D03*
G04 #@! TO.N,unconnected-(M3-V33-PadN22)*
X87034999Y44272999D03*
G04 #@! TO.N,unconnected-(M3-IO5-PadN23)*
X87034999Y45072999D03*
G04 #@! TO.N,unconnected-(M3-UART8_RX-PadN24)*
X87034999Y50572999D03*
G04 #@! TO.N,unconnected-(M3-UART8_TX-PadN25)*
X87034999Y51373000D03*
G04 #@! TO.N,unconnected-(M3-IN_VIGN-PadN26)*
X87034999Y52172998D03*
G04 #@! TO.N,unconnected-(M3-VBAT-PadN27)*
X87034999Y52972996D03*
G04 #@! TO.N,unconnected-(M3-V33_SWITCHABLE-PadN28)*
X87034999Y53772995D03*
G04 #@! TO.N,unconnected-(M3-OUT_PWR_EN-PadN29)*
X87034999Y61572999D03*
G04 #@! TO.N,unconnected-(M3-V5A_SWITCHABLE-PadN30)*
X87034999Y62372998D03*
G04 #@! TO.N,+5V*
X87034999Y63172996D03*
G04 #@! TO.N,unconnected-(M3-V33-PadN32)*
X87034999Y69173000D03*
G04 #@! TO.N,unconnected-(M3-IN_D4-PadS1)*
X47534994Y28073000D03*
G04 #@! TO.N,unconnected-(M3-IN_D3-PadS2)*
X47534996Y29273001D03*
G04 #@! TO.N,unconnected-(M3-IN_D2-PadS3)*
X47534996Y30472998D03*
G04 #@! TO.N,unconnected-(M3-IN_D1-PadS4)*
X47534994Y31672998D03*
G04 #@! TO.N,unconnected-(M3-VREF2-PadS5)*
X47534996Y32872998D03*
G04 #@! TO.N,unconnected-(M3-IN_SENS4-PadS6)*
X47534996Y33972986D03*
G04 #@! TO.N,unconnected-(M3-IN_SENS3-PadS7)*
X47534996Y35172986D03*
G04 #@! TO.N,unconnected-(M3-IN_SENS2-PadS8)*
X47534994Y36372984D03*
G04 #@! TO.N,unconnected-(M3-IN_SENS1-PadS9)*
X47534996Y37572984D03*
G04 #@! TO.N,unconnected-(M3-IN_AUX4-PadS10)*
X47534996Y38772987D03*
G04 #@! TO.N,unconnected-(M3-IN_AUX3-PadS11)*
X47534994Y39972989D03*
G04 #@! TO.N,unconnected-(M3-IN_AUX2-PadS12)*
X47534996Y41172987D03*
G04 #@! TO.N,unconnected-(M3-IN_AUX1-PadS13)*
X47534996Y42372985D03*
G04 #@! TO.N,unconnected-(M3-IN_RES2-PadS14)*
X47534996Y43572992D03*
G04 #@! TO.N,unconnected-(M3-IN_O2S2-PadS15)*
X47534996Y44772992D03*
G04 #@! TO.N,unconnected-(M3-IN_O2S-PadS16)*
X47534996Y45972990D03*
G04 #@! TO.N,unconnected-(M3-IN_RES1-PadS17)*
X47534996Y47172990D03*
G04 #@! TO.N,unconnected-(M3-IN_RES3-PadS18)*
X47534996Y48372995D03*
G04 #@! TO.N,unconnected-(M3-IN_MAP3-PadS19)*
X47534996Y49572996D03*
G04 #@! TO.N,unconnected-(M3-IN_MAP2-PadS20)*
X47534994Y50772993D03*
G04 #@! TO.N,IN_MAP*
X47534996Y51972993D03*
G04 #@! TO.N,IN_CRANK*
X47534994Y53172996D03*
G04 #@! TO.N,MCU_KNOCK*
X47534996Y54372996D03*
G04 #@! TO.N,unconnected-(M3-IN_CAM-PadS24)*
X47534996Y55572991D03*
G04 #@! TO.N,unconnected-(M3-IN_VSS-PadS25)*
X47534994Y56772994D03*
G04 #@! TO.N,IN_IAT*
X47534996Y57972999D03*
G04 #@! TO.N,unconnected-(M3-IN_AT1-PadS27)*
X47534994Y59172999D03*
G04 #@! TO.N,IN_CLT*
X47534996Y60372997D03*
G04 #@! TO.N,unconnected-(M3-IN_AT2-PadS29)*
X47534996Y61572997D03*
G04 #@! TO.N,IN_TPS*
X47534996Y62773002D03*
G04 #@! TO.N,IN_PPS*
X47534996Y63973002D03*
G04 #@! TO.N,unconnected-(M3-IN_TPS2-PadS32)*
X47534996Y65173000D03*
G04 #@! TO.N,unconnected-(M3-IN_PPS2-PadS33)*
X47534996Y66373000D03*
G04 #@! TO.N,unconnected-(M3-VREF1-PadS35)*
X47534996Y68773000D03*
G04 #@! TO.N,unconnected-(M3-GNDA-PadW1)*
X50034999Y69173002D03*
G04 #@! TO.N,unconnected-(M3-V5A_SWITCHABLE-PadW2)*
X51035000Y69173002D03*
G04 #@! TO.N,unconnected-(M3-V33_REF-PadW3)*
X57435002Y69173000D03*
G04 #@! TO.N,unconnected-(M3-IGN8-PadW4)*
X64434998Y69173000D03*
G04 #@! TO.N,unconnected-(M3-IGN7-PadW5)*
X65434999Y69173000D03*
G04 #@! TO.N,unconnected-(M3-IGN6-PadW6)*
X66434997Y69173000D03*
G04 #@! TO.N,unconnected-(M3-IGN5-PadW7)*
X67434997Y69173000D03*
G04 #@! TO.N,unconnected-(M3-IGN4-PadW8)*
X68434998Y69173000D03*
G04 #@! TO.N,unconnected-(M3-IGN3-PadW9)*
X69434996Y69173000D03*
G04 #@! TO.N,IGN_2*
X70434996Y69173000D03*
G04 #@! TO.N,IGN_1*
X71434994Y69173000D03*
G04 #@! TO.N,CAN_H*
X74534998Y69173000D03*
G04 #@! TO.N,CAN_L*
X75334999Y69173000D03*
G04 #@! TD*
G04 #@! TO.N,unconnected-(M5-V5A-PadE1)*
G04 #@! TO.C,M5*
X38438995Y59598997D03*
D23*
G04 #@! TO.N,GND*
X29538995Y57623997D03*
D24*
X34088995Y60198997D03*
X34088995Y57098997D03*
D10*
X38438995Y58648997D03*
G04 #@! TO.N,MCU_KNOCK*
X38438995Y57698999D03*
G04 #@! TO.N,RAW_KNOCK*
X29738995Y58698997D03*
G04 #@! TO.N,unconnected-(M5-VREF-PadW2)*
X29738995Y59598997D03*
G04 #@! TD*
D25*
G04 #@! TO.N,unconnected-(J1-CFC-Pad1)*
G04 #@! TO.C,J1*
X12756000Y84500000D03*
G04 #@! TO.N,GND*
X12756000Y78700000D03*
X15086000Y81600000D03*
G04 #@! TO.N,unconnected-(J1-CPC-Pad4)*
X20886000Y84500000D03*
G04 #@! TO.N,unconnected-(J1-PSP1-Pad5)*
X20886000Y78700000D03*
D26*
G04 #@! TO.N,unconnected-(J1-FFI-Pad6)*
X20886000Y25080000D03*
G04 #@! TO.N,unconnected-(J1-RFI-Pad7)*
X20886000Y27620000D03*
G04 #@! TO.N,unconnected-(J1-RACRE-Pad8)*
X20886000Y30160000D03*
G04 #@! TO.N,unconnected-(J1-Pad9)*
X20886000Y32700000D03*
G04 #@! TO.N,unconnected-(J1-Pad10)*
X20886000Y35240000D03*
G04 #@! TO.N,unconnected-(J1-CKPSL-Pad11)*
X20886000Y37780000D03*
G04 #@! TO.N,unconnected-(J1-Pad12)*
X20886000Y40320000D03*
G04 #@! TO.N,unconnected-(J1-Pad13)*
X20886000Y42860000D03*
G04 #@! TO.N,unconnected-(J1-FHO2HG-Pad14)*
X20886000Y45400000D03*
G04 #@! TO.N,unconnected-(J1-Pad15)*
X20886000Y47940000D03*
G04 #@! TO.N,unconnected-(J1-PRG_SELE-Pad16)*
X20886000Y50480000D03*
G04 #@! TO.N,unconnected-(J1-FIVVTC-Pad17)*
X20886000Y53020000D03*
G04 #@! TO.N,unconnected-(J1-Pad18)*
X20886000Y55560000D03*
G04 #@! TO.N,unconnected-(J1-Pad19)*
X20886000Y58100000D03*
G04 #@! TO.N,unconnected-(J1-ETCL-Pad20)*
X20886000Y60640000D03*
G04 #@! TO.N,unconnected-(J1-ETCH-Pad21)*
X20886000Y63180000D03*
G04 #@! TO.N,unconnected-(J1-Pad22)*
X20886000Y65720000D03*
G04 #@! TO.N,unconnected-(J1-RHO2HG-Pad23)*
X20886000Y68260000D03*
G04 #@! TO.N,IGN_1*
X20886000Y70800000D03*
G04 #@! TO.N,unconnected-(J1-FACRE-Pad25)*
X18346000Y25080000D03*
G04 #@! TO.N,unconnected-(J1-PCHO2SB1-Pad26)*
X18346000Y27620000D03*
G04 #@! TO.N,IN_TPS2*
X18346000Y30160000D03*
G04 #@! TO.N,unconnected-(J1-PSP2-Pad28)*
X18346000Y32700000D03*
G04 #@! TO.N,unconnected-(J1-5V_SNS_GND_2-Pad29)*
X18346000Y35240000D03*
G04 #@! TO.N,unconnected-(J1-CKPSH-Pad30)*
X18346000Y37780000D03*
G04 #@! TO.N,unconnected-(J1-FLS-Pad31)*
X18346000Y40320000D03*
G04 #@! TO.N,unconnected-(J1-OPS-Pad32)*
X18346000Y42860000D03*
G04 #@! TO.N,unconnected-(J1-Pad33)*
X18346000Y45400000D03*
G04 #@! TO.N,unconnected-(J1-JSS-Pad34)*
X18346000Y47940000D03*
G04 #@! TO.N,unconnected-(J1-Pad35)*
X18346000Y50480000D03*
G04 #@! TO.N,unconnected-(J1-FKSH-Pad36)*
X18346000Y53020000D03*
G04 #@! TO.N,unconnected-(J1-FKSL-Pad37)*
X18346000Y55560000D03*
G04 #@! TO.N,CAN_L*
X18346000Y58100000D03*
G04 #@! TO.N,CAN_H*
X18346000Y60640000D03*
G04 #@! TO.N,unconnected-(J1-Pad40)*
X18346000Y63180000D03*
G04 #@! TO.N,IN_PPS*
X18346000Y65720000D03*
G04 #@! TO.N,IN_PPS2*
X18346000Y68260000D03*
G04 #@! TO.N,IGN_2*
X18346000Y70800000D03*
G04 #@! TO.N,unconnected-(J1-CFFC-Pad44)*
X12296000Y25080000D03*
G04 #@! TO.N,unconnected-(J1-RKSH-Pad45)*
X12296000Y27620000D03*
G04 #@! TO.N,unconnected-(J1-RKSL-Pad46)*
X12296000Y30160000D03*
G04 #@! TO.N,unconnected-(J1-FHO2SB1-Pad47)*
X12296000Y32700000D03*
G04 #@! TO.N,unconnected-(J1-RHO2SB2-Pad48)*
X12296000Y35240000D03*
G04 #@! TO.N,IN_CLT*
X12296000Y37780000D03*
G04 #@! TO.N,unconnected-(J1-Pad50)*
X12296000Y40320000D03*
G04 #@! TO.N,unconnected-(J1-Pad51)*
X12296000Y42860000D03*
G04 #@! TO.N,IN_TPS*
X12296000Y45400000D03*
G04 #@! TO.N,IN_MAP*
X12296000Y47940000D03*
G04 #@! TO.N,unconnected-(J1-Pad54)*
X12296000Y50480000D03*
G04 #@! TO.N,unconnected-(J1-ETS-Pad55)*
X12296000Y53020000D03*
G04 #@! TO.N,unconnected-(J1-Pad56)*
X12296000Y55560000D03*
G04 #@! TO.N,unconnected-(J1-Pad57)*
X12296000Y58100000D03*
G04 #@! TO.N,unconnected-(J1-Pad58)*
X12296000Y60640000D03*
G04 #@! TO.N,unconnected-(J1-Pad59)*
X12296000Y63180000D03*
G04 #@! TO.N,unconnected-(J1-Pad60)*
X12296000Y65720000D03*
G04 #@! TO.N,unconnected-(J1-Pad61)*
X12296000Y68260000D03*
G04 #@! TO.N,unconnected-(J1-Pad62)*
X12296000Y70800000D03*
G04 #@! TO.N,unconnected-(J1-Pad63)*
X9756000Y25080000D03*
G04 #@! TO.N,unconnected-(J1-Pad64)*
X9756000Y27620000D03*
G04 #@! TO.N,unconnected-(J1-PCH2OSG-Pad65)*
X9756000Y30160000D03*
G04 #@! TO.N,unconnected-(J1-Pad66)*
X9756000Y32700000D03*
G04 #@! TO.N,unconnected-(J1-BATFU-Pad67)*
X9756000Y35240000D03*
G04 #@! TO.N,unconnected-(J1-Pad68)*
X9756000Y37780000D03*
G04 #@! TO.N,unconnected-(J1-Pad69)*
X9756000Y40320000D03*
G04 #@! TO.N,unconnected-(J1-5VPS1-Pad70)*
X9756000Y42860000D03*
G04 #@! TO.N,unconnected-(J1-AAT-Pad71)*
X9756000Y45400000D03*
G04 #@! TO.N,IN_IAT*
X9756000Y47940000D03*
G04 #@! TO.N,unconnected-(J1-Pad73)*
X9756000Y50480000D03*
G04 #@! TO.N,unconnected-(J1-5V_Sens_GND_2-Pad74)*
X9756000Y53020000D03*
G04 #@! TO.N,unconnected-(J1-Pad75)*
X9756000Y55560000D03*
G04 #@! TO.N,unconnected-(J1-Pad76)*
X9756000Y58100000D03*
G04 #@! TO.N,unconnected-(J1-FI_CMP_Sens-Pad77)*
X9756000Y60640000D03*
G04 #@! TO.N,unconnected-(J1-Gear_Pos_Sens-Pad78)*
X9756000Y63180000D03*
G04 #@! TO.N,unconnected-(J1-Pad79)*
X9756000Y65720000D03*
G04 #@! TO.N,unconnected-(J1-PCHO2SHTR-Pad80)*
X9756000Y68260000D03*
G04 #@! TO.N,unconnected-(J1-Pad81)*
X9756000Y70800000D03*
G04 #@! TD*
D27*
G04 #@! TO.N,unconnected-(M2-VBAT-PadE1)*
G04 #@! TO.C,M2*
X45062995Y44056999D03*
G04 #@! TO.N,unconnected-(M2-V12-PadE2)*
X45062995Y37657002D03*
G04 #@! TO.N,unconnected-(M2-VIGN-PadE3)*
X45062995Y35756999D03*
G04 #@! TO.N,+5V*
X45062995Y31456999D03*
D10*
G04 #@! TO.N,unconnected-(M2-EN_5VP-PadE5)*
X45512994Y29057002D03*
G04 #@! TO.N,unconnected-(M2-PG_5VP-PadE6)*
X45512994Y28057001D03*
D28*
G04 #@! TO.N,GND*
X28912999Y40206999D03*
D29*
X28912999Y31707001D03*
D30*
X28912999Y24606999D03*
D31*
X37312997Y24556999D03*
D32*
X38112998Y45156999D03*
D27*
X45062995Y25206999D03*
D30*
X45712996Y45106999D03*
D33*
X45712996Y40907001D03*
D34*
X45712996Y33556999D03*
D35*
X45712996Y30057002D03*
D36*
X45712996Y26757001D03*
D27*
G04 #@! TO.N,+12V_RAW*
X29562998Y44507001D03*
G04 #@! TO.N,unconnected-(M2-IN_VIGN-PadV2)*
X29562998Y42657002D03*
G04 #@! TO.N,+12V_RAW*
X29562998Y37706999D03*
G04 #@! TO.N,unconnected-(M2-5VP-PadV4)*
X29562998Y25657001D03*
G04 #@! TD*
D10*
G04 #@! TO.N,unconnected-(M4-HALL_EN-PadE1)*
G04 #@! TO.C,M4*
X44588995Y53350499D03*
G04 #@! TO.N,unconnected-(M4-NC-PadE2)*
X44588995Y52150499D03*
G04 #@! TO.N,IN_CRANK*
X44588995Y54550499D03*
G04 #@! TO.N,unconnected-(M4-V5_IN-PadE4)*
X44588995Y55750499D03*
D37*
G04 #@! TO.N,unconnected-(M4-GND-PadG)*
X29938995Y53082999D03*
D38*
X29938995Y47032999D03*
D39*
X36951495Y56050499D03*
D40*
X37363995Y46600499D03*
D41*
X44788995Y49062999D03*
D10*
G04 #@! TO.N,unconnected-(M4-VR-{slash}HALL-PadW1)*
X30163995Y49290499D03*
G04 #@! TO.N,unconnected-(M4-VR+-PadW2)*
X30163995Y48290499D03*
G04 #@! TD*
G04 #@! TA.AperFunction,Conductor*
G04 #@! TO.N,GND*
G36*
X101442539Y106479815D02*
G01*
X101488294Y106427011D01*
X101499500Y106375500D01*
X101499500Y624500D01*
X101479815Y557461D01*
X101427011Y511706D01*
X101375500Y500500D01*
X624500Y500500D01*
X557461Y520185D01*
X511706Y572989D01*
X500500Y624500D01*
X500500Y21249766D01*
X95221500Y21249766D01*
X95221500Y21098235D01*
X95260719Y20951864D01*
X95298602Y20886250D01*
X95336485Y20820635D01*
X95443635Y20713485D01*
X95574865Y20637719D01*
X95721234Y20598500D01*
X95721236Y20598500D01*
X95872764Y20598500D01*
X95872766Y20598500D01*
X96019135Y20637719D01*
X96150365Y20713485D01*
X96257515Y20820635D01*
X96333281Y20951865D01*
X96372500Y21098234D01*
X96372500Y21249766D01*
X96333281Y21396135D01*
X96257515Y21527365D01*
X96150365Y21634515D01*
X96084750Y21672398D01*
X96019136Y21710281D01*
X95945950Y21729891D01*
X95872766Y21749500D01*
X95721234Y21749500D01*
X95574863Y21710281D01*
X95443635Y21634515D01*
X95443632Y21634513D01*
X95336487Y21527368D01*
X95336485Y21527365D01*
X95260719Y21396137D01*
X95221500Y21249766D01*
X500500Y21249766D01*
X500500Y70800002D01*
X8450532Y70800002D01*
X8450532Y70799999D01*
X8470364Y70573314D01*
X8470366Y70573303D01*
X8529258Y70353512D01*
X8529261Y70353503D01*
X8625431Y70147268D01*
X8625432Y70147266D01*
X8755954Y69960859D01*
X8916858Y69799955D01*
X8916861Y69799953D01*
X9103266Y69669432D01*
X9161275Y69642382D01*
X9213714Y69596209D01*
X9232866Y69529016D01*
X9212650Y69462135D01*
X9161275Y69417618D01*
X9103267Y69390569D01*
X9103265Y69390568D01*
X8916858Y69260046D01*
X8755954Y69099142D01*
X8625432Y68912735D01*
X8625431Y68912733D01*
X8529261Y68706498D01*
X8529258Y68706489D01*
X8470366Y68486698D01*
X8470364Y68486687D01*
X8450532Y68260002D01*
X8450532Y68259999D01*
X8470364Y68033314D01*
X8470366Y68033303D01*
X8529258Y67813512D01*
X8529261Y67813503D01*
X8625431Y67607268D01*
X8625432Y67607266D01*
X8755954Y67420859D01*
X8916858Y67259955D01*
X8916861Y67259953D01*
X9103266Y67129432D01*
X9161275Y67102382D01*
X9213714Y67056209D01*
X9232866Y66989016D01*
X9212650Y66922135D01*
X9161275Y66877619D01*
X9156222Y66875262D01*
X9103267Y66850569D01*
X9103265Y66850568D01*
X8916858Y66720046D01*
X8755954Y66559142D01*
X8625432Y66372735D01*
X8625431Y66372733D01*
X8529261Y66166498D01*
X8529258Y66166489D01*
X8470366Y65946698D01*
X8470364Y65946687D01*
X8450532Y65720002D01*
X8450532Y65719999D01*
X8470364Y65493314D01*
X8470366Y65493303D01*
X8529258Y65273512D01*
X8529261Y65273503D01*
X8625431Y65067268D01*
X8625432Y65067266D01*
X8755954Y64880859D01*
X8916858Y64719955D01*
X8916861Y64719953D01*
X9103266Y64589432D01*
X9161275Y64562382D01*
X9213714Y64516209D01*
X9232866Y64449016D01*
X9212650Y64382135D01*
X9161275Y64337618D01*
X9103267Y64310569D01*
X9103265Y64310568D01*
X8916858Y64180046D01*
X8755954Y64019142D01*
X8625432Y63832735D01*
X8625431Y63832733D01*
X8529261Y63626498D01*
X8529258Y63626489D01*
X8470366Y63406698D01*
X8470364Y63406687D01*
X8450532Y63180002D01*
X8450532Y63179999D01*
X8470364Y62953314D01*
X8470366Y62953303D01*
X8529258Y62733512D01*
X8529261Y62733503D01*
X8625431Y62527268D01*
X8625432Y62527266D01*
X8755954Y62340859D01*
X8916858Y62179955D01*
X8916861Y62179953D01*
X9103266Y62049432D01*
X9161275Y62022382D01*
X9213714Y61976209D01*
X9232866Y61909016D01*
X9212650Y61842135D01*
X9161275Y61797618D01*
X9103267Y61770569D01*
X9103265Y61770568D01*
X8916858Y61640046D01*
X8755954Y61479142D01*
X8625432Y61292735D01*
X8625431Y61292733D01*
X8529261Y61086498D01*
X8529258Y61086489D01*
X8470366Y60866698D01*
X8470364Y60866687D01*
X8450532Y60640002D01*
X8450532Y60639999D01*
X8470364Y60413314D01*
X8470366Y60413303D01*
X8529258Y60193512D01*
X8529261Y60193503D01*
X8625431Y59987268D01*
X8625432Y59987266D01*
X8755954Y59800859D01*
X8916858Y59639955D01*
X8916861Y59639953D01*
X9103266Y59509432D01*
X9161275Y59482382D01*
X9213714Y59436209D01*
X9232866Y59369016D01*
X9212650Y59302135D01*
X9161275Y59257618D01*
X9103267Y59230569D01*
X9103265Y59230568D01*
X8916858Y59100046D01*
X8755954Y58939142D01*
X8625432Y58752735D01*
X8625431Y58752733D01*
X8529261Y58546498D01*
X8529258Y58546489D01*
X8470366Y58326698D01*
X8470364Y58326687D01*
X8450532Y58100002D01*
X8450532Y58099999D01*
X8470364Y57873314D01*
X8470366Y57873303D01*
X8529258Y57653512D01*
X8529261Y57653503D01*
X8625431Y57447268D01*
X8625432Y57447266D01*
X8755954Y57260859D01*
X8916858Y57099955D01*
X8916861Y57099953D01*
X9103266Y56969432D01*
X9140115Y56952249D01*
X9161275Y56942382D01*
X9213714Y56896209D01*
X9232866Y56829016D01*
X9212650Y56762135D01*
X9161275Y56717618D01*
X9103267Y56690569D01*
X9103265Y56690568D01*
X8916858Y56560046D01*
X8755954Y56399142D01*
X8625432Y56212735D01*
X8625431Y56212733D01*
X8529261Y56006498D01*
X8529258Y56006489D01*
X8470366Y55786698D01*
X8470364Y55786687D01*
X8450532Y55560002D01*
X8450532Y55559999D01*
X8470364Y55333314D01*
X8470366Y55333303D01*
X8529258Y55113512D01*
X8529261Y55113503D01*
X8625431Y54907268D01*
X8625432Y54907266D01*
X8755954Y54720859D01*
X8916858Y54559955D01*
X8916861Y54559953D01*
X9103266Y54429432D01*
X9160355Y54402811D01*
X9161275Y54402382D01*
X9213714Y54356209D01*
X9232866Y54289016D01*
X9212650Y54222135D01*
X9161275Y54177618D01*
X9103267Y54150569D01*
X9103265Y54150568D01*
X8916858Y54020046D01*
X8755954Y53859142D01*
X8625432Y53672735D01*
X8625431Y53672733D01*
X8529261Y53466498D01*
X8529258Y53466489D01*
X8470366Y53246698D01*
X8470364Y53246687D01*
X8450532Y53020002D01*
X8450532Y53019999D01*
X8470364Y52793314D01*
X8470366Y52793303D01*
X8529258Y52573512D01*
X8529261Y52573503D01*
X8625431Y52367268D01*
X8625432Y52367266D01*
X8755954Y52180859D01*
X8916858Y52019955D01*
X8916861Y52019953D01*
X9103266Y51889432D01*
X9153784Y51865875D01*
X9161275Y51862382D01*
X9213714Y51816209D01*
X9232866Y51749016D01*
X9212650Y51682135D01*
X9161275Y51637618D01*
X9103267Y51610569D01*
X9103265Y51610568D01*
X8916858Y51480046D01*
X8755954Y51319142D01*
X8625432Y51132735D01*
X8625431Y51132733D01*
X8529261Y50926498D01*
X8529258Y50926489D01*
X8470366Y50706698D01*
X8470364Y50706687D01*
X8450532Y50480002D01*
X8450532Y50479999D01*
X8470364Y50253314D01*
X8470366Y50253303D01*
X8529258Y50033512D01*
X8529261Y50033503D01*
X8625431Y49827268D01*
X8625432Y49827266D01*
X8755954Y49640859D01*
X8916858Y49479955D01*
X8916861Y49479953D01*
X9103266Y49349432D01*
X9161275Y49322382D01*
X9213714Y49276209D01*
X9232866Y49209016D01*
X9212650Y49142135D01*
X9161275Y49097618D01*
X9103267Y49070569D01*
X9103265Y49070568D01*
X8916858Y48940046D01*
X8755954Y48779142D01*
X8625432Y48592735D01*
X8625431Y48592733D01*
X8529261Y48386498D01*
X8529258Y48386489D01*
X8470366Y48166698D01*
X8470364Y48166687D01*
X8450532Y47940002D01*
X8450532Y47939999D01*
X8470364Y47713314D01*
X8470366Y47713303D01*
X8529258Y47493512D01*
X8529261Y47493503D01*
X8625431Y47287268D01*
X8625432Y47287266D01*
X8755954Y47100859D01*
X8916858Y46939955D01*
X8916861Y46939953D01*
X9103266Y46809432D01*
X9161275Y46782382D01*
X9213714Y46736209D01*
X9232866Y46669016D01*
X9212650Y46602135D01*
X9161275Y46557618D01*
X9103267Y46530569D01*
X9103265Y46530568D01*
X8916858Y46400046D01*
X8755954Y46239142D01*
X8625432Y46052735D01*
X8625431Y46052733D01*
X8529261Y45846498D01*
X8529258Y45846489D01*
X8470366Y45626698D01*
X8470364Y45626687D01*
X8450532Y45400002D01*
X8450532Y45399999D01*
X8470364Y45173314D01*
X8470366Y45173303D01*
X8529258Y44953512D01*
X8529261Y44953503D01*
X8625431Y44747268D01*
X8625432Y44747266D01*
X8755954Y44560859D01*
X8916858Y44399955D01*
X8916861Y44399953D01*
X9103266Y44269432D01*
X9122050Y44260673D01*
X9161275Y44242382D01*
X9213714Y44196209D01*
X9232866Y44129016D01*
X9212650Y44062135D01*
X9161275Y44017618D01*
X9103267Y43990569D01*
X9103265Y43990568D01*
X8916858Y43860046D01*
X8755954Y43699142D01*
X8625432Y43512735D01*
X8625431Y43512733D01*
X8529261Y43306498D01*
X8529258Y43306489D01*
X8470366Y43086698D01*
X8470364Y43086687D01*
X8450532Y42860002D01*
X8450532Y42859999D01*
X8470364Y42633314D01*
X8470366Y42633303D01*
X8529258Y42413512D01*
X8529261Y42413503D01*
X8625431Y42207268D01*
X8625432Y42207266D01*
X8755954Y42020859D01*
X8916858Y41859955D01*
X8916861Y41859953D01*
X9103266Y41729432D01*
X9161275Y41702382D01*
X9213714Y41656209D01*
X9232866Y41589016D01*
X9212650Y41522135D01*
X9161275Y41477618D01*
X9103267Y41450569D01*
X9103265Y41450568D01*
X8916858Y41320046D01*
X8755954Y41159142D01*
X8625432Y40972735D01*
X8625431Y40972733D01*
X8529261Y40766498D01*
X8529258Y40766489D01*
X8470366Y40546698D01*
X8470364Y40546687D01*
X8450532Y40320002D01*
X8450532Y40319999D01*
X8470364Y40093314D01*
X8470366Y40093303D01*
X8529258Y39873512D01*
X8529261Y39873503D01*
X8625431Y39667268D01*
X8625432Y39667266D01*
X8755954Y39480859D01*
X8916858Y39319955D01*
X8916861Y39319953D01*
X9103266Y39189432D01*
X9161275Y39162382D01*
X9213714Y39116209D01*
X9232866Y39049016D01*
X9212650Y38982135D01*
X9161275Y38937618D01*
X9103267Y38910569D01*
X9103265Y38910568D01*
X8916858Y38780046D01*
X8755954Y38619142D01*
X8625432Y38432735D01*
X8625431Y38432733D01*
X8529261Y38226498D01*
X8529258Y38226489D01*
X8470366Y38006698D01*
X8470364Y38006687D01*
X8450532Y37780002D01*
X8450532Y37779999D01*
X8470364Y37553314D01*
X8470366Y37553303D01*
X8529258Y37333512D01*
X8529261Y37333503D01*
X8625431Y37127268D01*
X8625432Y37127266D01*
X8755954Y36940859D01*
X8916858Y36779955D01*
X8916861Y36779953D01*
X9103266Y36649432D01*
X9161275Y36622382D01*
X9213714Y36576209D01*
X9232866Y36509016D01*
X9212650Y36442135D01*
X9161275Y36397618D01*
X9103267Y36370569D01*
X9103265Y36370568D01*
X8916858Y36240046D01*
X8755954Y36079142D01*
X8625432Y35892735D01*
X8625431Y35892733D01*
X8529261Y35686498D01*
X8529258Y35686489D01*
X8470366Y35466698D01*
X8470364Y35466687D01*
X8450532Y35240002D01*
X8450532Y35239999D01*
X8470364Y35013314D01*
X8470366Y35013303D01*
X8529258Y34793512D01*
X8529261Y34793503D01*
X8625431Y34587268D01*
X8625432Y34587266D01*
X8755954Y34400859D01*
X8916858Y34239955D01*
X8932375Y34229090D01*
X9103266Y34109432D01*
X9161275Y34082382D01*
X9213714Y34036209D01*
X9232866Y33969016D01*
X9212650Y33902135D01*
X9161275Y33857618D01*
X9103267Y33830569D01*
X9103265Y33830568D01*
X8916858Y33700046D01*
X8755954Y33539142D01*
X8625432Y33352735D01*
X8625431Y33352733D01*
X8529261Y33146498D01*
X8529258Y33146489D01*
X8470366Y32926698D01*
X8470364Y32926687D01*
X8450532Y32700002D01*
X8450532Y32699999D01*
X8470364Y32473314D01*
X8470366Y32473303D01*
X8529258Y32253512D01*
X8529261Y32253503D01*
X8625431Y32047268D01*
X8625432Y32047266D01*
X8755954Y31860859D01*
X8916858Y31699955D01*
X8916861Y31699953D01*
X9103266Y31569432D01*
X9161275Y31542382D01*
X9213714Y31496209D01*
X9232866Y31429016D01*
X9212650Y31362135D01*
X9161275Y31317618D01*
X9103267Y31290569D01*
X9103265Y31290568D01*
X8916858Y31160046D01*
X8755954Y30999142D01*
X8625432Y30812735D01*
X8625431Y30812733D01*
X8529261Y30606498D01*
X8529258Y30606489D01*
X8470366Y30386698D01*
X8470364Y30386687D01*
X8450532Y30160002D01*
X8450532Y30159999D01*
X8470364Y29933314D01*
X8470366Y29933303D01*
X8529258Y29713512D01*
X8529261Y29713503D01*
X8625431Y29507268D01*
X8625432Y29507266D01*
X8755954Y29320859D01*
X8916858Y29159955D01*
X8916861Y29159953D01*
X9103266Y29029432D01*
X9161275Y29002382D01*
X9213714Y28956209D01*
X9232866Y28889016D01*
X9212650Y28822135D01*
X9161275Y28777618D01*
X9103267Y28750569D01*
X9103265Y28750568D01*
X8916858Y28620046D01*
X8755954Y28459142D01*
X8625432Y28272735D01*
X8625431Y28272733D01*
X8529261Y28066498D01*
X8529258Y28066489D01*
X8470366Y27846698D01*
X8470364Y27846687D01*
X8450532Y27620002D01*
X8450532Y27619999D01*
X8470364Y27393314D01*
X8470366Y27393303D01*
X8529258Y27173512D01*
X8529261Y27173503D01*
X8625431Y26967268D01*
X8625432Y26967266D01*
X8755954Y26780859D01*
X8916858Y26619955D01*
X8916861Y26619953D01*
X9103266Y26489432D01*
X9161275Y26462382D01*
X9213714Y26416209D01*
X9232866Y26349016D01*
X9212650Y26282135D01*
X9161275Y26237618D01*
X9103267Y26210569D01*
X9103265Y26210568D01*
X8916858Y26080046D01*
X8755954Y25919142D01*
X8625432Y25732735D01*
X8625431Y25732733D01*
X8529261Y25526498D01*
X8529258Y25526489D01*
X8470366Y25306698D01*
X8470364Y25306687D01*
X8450532Y25080002D01*
X8450532Y25079999D01*
X8470364Y24853314D01*
X8470366Y24853303D01*
X8529258Y24633512D01*
X8529261Y24633503D01*
X8625431Y24427268D01*
X8625432Y24427266D01*
X8755954Y24240859D01*
X8916858Y24079955D01*
X8916861Y24079953D01*
X9103266Y23949432D01*
X9309504Y23853261D01*
X9529308Y23794365D01*
X9691230Y23780199D01*
X9755998Y23774532D01*
X9756000Y23774532D01*
X9756002Y23774532D01*
X9812673Y23779491D01*
X9982692Y23794365D01*
X10202496Y23853261D01*
X10408734Y23949432D01*
X10595139Y24079953D01*
X10756047Y24240861D01*
X10886568Y24427266D01*
X10913618Y24485276D01*
X10959790Y24537715D01*
X11026983Y24556867D01*
X11093865Y24536652D01*
X11138382Y24485275D01*
X11165429Y24427272D01*
X11165432Y24427266D01*
X11295954Y24240859D01*
X11456858Y24079955D01*
X11456861Y24079953D01*
X11643266Y23949432D01*
X11849504Y23853261D01*
X12069308Y23794365D01*
X12231230Y23780199D01*
X12295998Y23774532D01*
X12296000Y23774532D01*
X12296002Y23774532D01*
X12352673Y23779491D01*
X12522692Y23794365D01*
X12742496Y23853261D01*
X12948734Y23949432D01*
X13135139Y24079953D01*
X13296047Y24240861D01*
X13426568Y24427266D01*
X13522739Y24633504D01*
X13581635Y24853308D01*
X13601468Y25080000D01*
X13581635Y25306692D01*
X13522739Y25526496D01*
X13426568Y25732734D01*
X13296047Y25919139D01*
X13296045Y25919142D01*
X13135141Y26080046D01*
X12948734Y26210568D01*
X12948728Y26210571D01*
X12890725Y26237618D01*
X12838285Y26283790D01*
X12819133Y26350983D01*
X12839348Y26417865D01*
X12890725Y26462382D01*
X12948734Y26489432D01*
X13135139Y26619953D01*
X13296047Y26780861D01*
X13426568Y26967266D01*
X13522739Y27173504D01*
X13581635Y27393308D01*
X13601468Y27620000D01*
X13598645Y27652262D01*
X13592415Y27723478D01*
X13581635Y27846692D01*
X13522739Y28066496D01*
X13426568Y28272734D01*
X13296047Y28459139D01*
X13296045Y28459142D01*
X13135141Y28620046D01*
X12948734Y28750568D01*
X12948728Y28750571D01*
X12890725Y28777618D01*
X12838285Y28823790D01*
X12819133Y28890983D01*
X12839348Y28957865D01*
X12890725Y29002382D01*
X12948734Y29029432D01*
X13135139Y29159953D01*
X13296047Y29320861D01*
X13426568Y29507266D01*
X13522739Y29713504D01*
X13581635Y29933308D01*
X13601468Y30160000D01*
X13581635Y30386692D01*
X13522739Y30606496D01*
X13426568Y30812734D01*
X13296047Y30999139D01*
X13296045Y30999142D01*
X13135141Y31160046D01*
X12948734Y31290568D01*
X12948728Y31290571D01*
X12890725Y31317618D01*
X12838285Y31363790D01*
X12819133Y31430983D01*
X12839348Y31497865D01*
X12890725Y31542382D01*
X12948734Y31569432D01*
X13135139Y31699953D01*
X13296047Y31860861D01*
X13426568Y32047266D01*
X13522739Y32253504D01*
X13581635Y32473308D01*
X13599105Y32672996D01*
X13601468Y32699999D01*
X13601468Y32700002D01*
X13586333Y32872995D01*
X13581635Y32926692D01*
X13522739Y33146496D01*
X13426568Y33352734D01*
X13296047Y33539139D01*
X13296045Y33539142D01*
X13135141Y33700046D01*
X12948734Y33830568D01*
X12948728Y33830571D01*
X12890725Y33857618D01*
X12838285Y33903790D01*
X12819133Y33970983D01*
X12839348Y34037865D01*
X12890725Y34082382D01*
X12948734Y34109432D01*
X13135139Y34239953D01*
X13296047Y34400861D01*
X13426568Y34587266D01*
X13522739Y34793504D01*
X13581635Y35013308D01*
X13601468Y35240000D01*
X13581635Y35466692D01*
X13522739Y35686496D01*
X13426568Y35892734D01*
X13296047Y36079139D01*
X13296045Y36079142D01*
X13135141Y36240046D01*
X12948734Y36370568D01*
X12948728Y36370571D01*
X12890725Y36397618D01*
X12838285Y36443790D01*
X12819133Y36510983D01*
X12839348Y36577865D01*
X12890725Y36622382D01*
X12948734Y36649432D01*
X13135139Y36779953D01*
X13296047Y36940861D01*
X13426568Y37127266D01*
X13522739Y37333504D01*
X13581635Y37553308D01*
X13601468Y37780000D01*
X13581635Y38006692D01*
X13522739Y38226496D01*
X13426568Y38432734D01*
X13313833Y38593738D01*
X13296045Y38619142D01*
X13135141Y38780046D01*
X12948734Y38910568D01*
X12948728Y38910571D01*
X12890725Y38937618D01*
X12838285Y38983790D01*
X12819133Y39050983D01*
X12839348Y39117865D01*
X12890725Y39162382D01*
X12948734Y39189432D01*
X13135139Y39319953D01*
X13296047Y39480861D01*
X13426568Y39667266D01*
X13522739Y39873504D01*
X13581635Y40093308D01*
X13601468Y40320000D01*
X13581635Y40546692D01*
X13522739Y40766496D01*
X13426568Y40972734D01*
X13296047Y41159139D01*
X13296045Y41159142D01*
X13135141Y41320046D01*
X12948734Y41450568D01*
X12948728Y41450571D01*
X12890725Y41477618D01*
X12838285Y41523790D01*
X12819133Y41590983D01*
X12839348Y41657865D01*
X12890725Y41702382D01*
X12948734Y41729432D01*
X13135139Y41859953D01*
X13296047Y42020861D01*
X13426568Y42207266D01*
X13522739Y42413504D01*
X13581635Y42633308D01*
X13601468Y42860000D01*
X13600133Y42875254D01*
X13590265Y42988049D01*
X13581635Y43086692D01*
X13522739Y43306496D01*
X13426568Y43512734D01*
X13296047Y43699139D01*
X13296045Y43699142D01*
X13135141Y43860046D01*
X12948734Y43990568D01*
X12948728Y43990571D01*
X12890725Y44017618D01*
X12838285Y44063790D01*
X12819133Y44130983D01*
X12839348Y44197865D01*
X12890725Y44242382D01*
X12948734Y44269432D01*
X13135139Y44399953D01*
X13296047Y44560861D01*
X13426568Y44747266D01*
X13522739Y44953504D01*
X13581635Y45173308D01*
X13601468Y45400000D01*
X13599497Y45422523D01*
X13595280Y45470728D01*
X13581635Y45626692D01*
X13522739Y45846496D01*
X13426568Y46052734D01*
X13296047Y46239139D01*
X13296045Y46239142D01*
X13135141Y46400046D01*
X12948734Y46530568D01*
X12948728Y46530571D01*
X12890725Y46557618D01*
X12838285Y46603790D01*
X12819133Y46670983D01*
X12839348Y46737865D01*
X12890725Y46782382D01*
X12948734Y46809432D01*
X13135139Y46939953D01*
X13296047Y47100861D01*
X13426568Y47287266D01*
X13522739Y47493504D01*
X13581635Y47713308D01*
X13601468Y47940000D01*
X13581635Y48166692D01*
X13526357Y48372995D01*
X13522741Y48386489D01*
X13522738Y48386498D01*
X13426568Y48592733D01*
X13426567Y48592735D01*
X13393457Y48640021D01*
X13296047Y48779139D01*
X13296045Y48779142D01*
X13135141Y48940046D01*
X12948734Y49070568D01*
X12948728Y49070571D01*
X12890725Y49097618D01*
X12838285Y49143790D01*
X12819133Y49210983D01*
X12839348Y49277865D01*
X12890725Y49322382D01*
X12948734Y49349432D01*
X13135139Y49479953D01*
X13296047Y49640861D01*
X13426568Y49827266D01*
X13522739Y50033504D01*
X13581635Y50253308D01*
X13601468Y50480000D01*
X13581635Y50706692D01*
X13522739Y50926496D01*
X13426568Y51132734D01*
X13296047Y51319139D01*
X13296045Y51319142D01*
X13135141Y51480046D01*
X12948734Y51610568D01*
X12948728Y51610571D01*
X12890725Y51637618D01*
X12838285Y51683790D01*
X12819133Y51750983D01*
X12839348Y51817865D01*
X12890725Y51862382D01*
X12898216Y51865875D01*
X12948734Y51889432D01*
X13135139Y52019953D01*
X13296047Y52180861D01*
X13426568Y52367266D01*
X13522739Y52573504D01*
X13581635Y52793308D01*
X13601468Y53020000D01*
X13581635Y53246692D01*
X13522739Y53466496D01*
X13426568Y53672734D01*
X13296047Y53859139D01*
X13296045Y53859142D01*
X13135141Y54020046D01*
X12948734Y54150568D01*
X12948728Y54150571D01*
X12890725Y54177618D01*
X12838285Y54223790D01*
X12819133Y54290983D01*
X12839348Y54357865D01*
X12890725Y54402382D01*
X12891645Y54402811D01*
X12948734Y54429432D01*
X13135139Y54559953D01*
X13296047Y54720861D01*
X13426568Y54907266D01*
X13522739Y55113504D01*
X13581635Y55333308D01*
X13601468Y55560000D01*
X13600331Y55572991D01*
X13595801Y55624770D01*
X13581635Y55786692D01*
X13522739Y56006496D01*
X13426568Y56212734D01*
X13296047Y56399139D01*
X13296045Y56399142D01*
X13135141Y56560046D01*
X12948734Y56690568D01*
X12948728Y56690571D01*
X12890725Y56717618D01*
X12838285Y56763790D01*
X12819133Y56830983D01*
X12839348Y56897865D01*
X12890725Y56942382D01*
X12911874Y56952244D01*
X12948734Y56969432D01*
X13135139Y57099953D01*
X13296047Y57260861D01*
X13426568Y57447266D01*
X13522739Y57653504D01*
X13581635Y57873308D01*
X13601468Y58100000D01*
X13581635Y58326692D01*
X13522739Y58546496D01*
X13426568Y58752734D01*
X13296047Y58939139D01*
X13296045Y58939142D01*
X13135141Y59100046D01*
X12948734Y59230568D01*
X12948728Y59230571D01*
X12908188Y59249475D01*
X12890724Y59257619D01*
X12838285Y59303790D01*
X12819133Y59370983D01*
X12839348Y59437865D01*
X12890725Y59482382D01*
X12948734Y59509432D01*
X13135139Y59639953D01*
X13296047Y59800861D01*
X13426568Y59987266D01*
X13522739Y60193504D01*
X13581635Y60413308D01*
X13601468Y60640000D01*
X13581635Y60866692D01*
X13522739Y61086496D01*
X13426568Y61292734D01*
X13296047Y61479139D01*
X13296045Y61479142D01*
X13135141Y61640046D01*
X12948734Y61770568D01*
X12948728Y61770571D01*
X12890725Y61797618D01*
X12838285Y61843790D01*
X12819133Y61910983D01*
X12839348Y61977865D01*
X12890725Y62022382D01*
X12948734Y62049432D01*
X13135139Y62179953D01*
X13296047Y62340861D01*
X13426568Y62527266D01*
X13522739Y62733504D01*
X13581635Y62953308D01*
X13601468Y63180000D01*
X13581635Y63406692D01*
X13536916Y63573585D01*
X13522741Y63626489D01*
X13522738Y63626498D01*
X13444748Y63793747D01*
X13426568Y63832734D01*
X13296047Y64019139D01*
X13296045Y64019142D01*
X13135141Y64180046D01*
X12948734Y64310568D01*
X12948728Y64310571D01*
X12890725Y64337618D01*
X12838285Y64383790D01*
X12819133Y64450983D01*
X12839348Y64517865D01*
X12890725Y64562382D01*
X12948734Y64589432D01*
X13135139Y64719953D01*
X13296047Y64880861D01*
X13426568Y65067266D01*
X13522739Y65273504D01*
X13581635Y65493308D01*
X13601468Y65720000D01*
X13581635Y65946692D01*
X13522739Y66166496D01*
X13426568Y66372734D01*
X13296047Y66559139D01*
X13296045Y66559142D01*
X13135141Y66720046D01*
X12948734Y66850568D01*
X12948728Y66850571D01*
X12895778Y66875262D01*
X12890724Y66877619D01*
X12838285Y66923790D01*
X12819133Y66990983D01*
X12839348Y67057865D01*
X12890725Y67102382D01*
X12948734Y67129432D01*
X13135139Y67259953D01*
X13296047Y67420861D01*
X13426568Y67607266D01*
X13522739Y67813504D01*
X13581635Y68033308D01*
X13601468Y68260000D01*
X13581635Y68486692D01*
X13522739Y68706496D01*
X13426568Y68912734D01*
X13296047Y69099139D01*
X13296045Y69099142D01*
X13135141Y69260046D01*
X12948734Y69390568D01*
X12948728Y69390571D01*
X12890725Y69417618D01*
X12838285Y69463790D01*
X12819133Y69530983D01*
X12839348Y69597865D01*
X12890725Y69642382D01*
X12948734Y69669432D01*
X13135139Y69799953D01*
X13296047Y69960861D01*
X13426568Y70147266D01*
X13522739Y70353504D01*
X13581635Y70573308D01*
X13601468Y70800000D01*
X13601468Y70800002D01*
X17040532Y70800002D01*
X17040532Y70799999D01*
X17060364Y70573314D01*
X17060366Y70573303D01*
X17119258Y70353512D01*
X17119261Y70353503D01*
X17215431Y70147268D01*
X17215432Y70147266D01*
X17345954Y69960859D01*
X17506858Y69799955D01*
X17506861Y69799953D01*
X17693266Y69669432D01*
X17751275Y69642382D01*
X17803714Y69596209D01*
X17822866Y69529016D01*
X17802650Y69462135D01*
X17751275Y69417618D01*
X17693267Y69390569D01*
X17693265Y69390568D01*
X17506858Y69260046D01*
X17345954Y69099142D01*
X17215432Y68912735D01*
X17215431Y68912733D01*
X17119261Y68706498D01*
X17119258Y68706489D01*
X17060366Y68486698D01*
X17060364Y68486687D01*
X17040532Y68260002D01*
X17040532Y68259999D01*
X17060364Y68033314D01*
X17060366Y68033303D01*
X17119258Y67813512D01*
X17119261Y67813503D01*
X17215431Y67607268D01*
X17215432Y67607266D01*
X17345954Y67420859D01*
X17506858Y67259955D01*
X17506861Y67259953D01*
X17693266Y67129432D01*
X17751275Y67102382D01*
X17803714Y67056209D01*
X17822866Y66989016D01*
X17802650Y66922135D01*
X17751275Y66877619D01*
X17746222Y66875262D01*
X17693267Y66850569D01*
X17693265Y66850568D01*
X17506858Y66720046D01*
X17345954Y66559142D01*
X17215432Y66372735D01*
X17215431Y66372733D01*
X17119261Y66166498D01*
X17119258Y66166489D01*
X17060366Y65946698D01*
X17060364Y65946687D01*
X17040532Y65720002D01*
X17040532Y65719999D01*
X17060364Y65493314D01*
X17060366Y65493303D01*
X17119258Y65273512D01*
X17119261Y65273503D01*
X17215431Y65067268D01*
X17215432Y65067266D01*
X17345954Y64880859D01*
X17506858Y64719955D01*
X17506861Y64719953D01*
X17693266Y64589432D01*
X17751275Y64562382D01*
X17803714Y64516209D01*
X17822866Y64449016D01*
X17802650Y64382135D01*
X17751275Y64337618D01*
X17693267Y64310569D01*
X17693265Y64310568D01*
X17506858Y64180046D01*
X17345954Y64019142D01*
X17215432Y63832735D01*
X17215431Y63832733D01*
X17119261Y63626498D01*
X17119258Y63626489D01*
X17060366Y63406698D01*
X17060364Y63406687D01*
X17040532Y63180002D01*
X17040532Y63179999D01*
X17060364Y62953314D01*
X17060366Y62953303D01*
X17119258Y62733512D01*
X17119261Y62733503D01*
X17215431Y62527268D01*
X17215432Y62527266D01*
X17345954Y62340859D01*
X17506858Y62179955D01*
X17506861Y62179953D01*
X17693266Y62049432D01*
X17751275Y62022382D01*
X17803714Y61976209D01*
X17822866Y61909016D01*
X17802650Y61842135D01*
X17751275Y61797618D01*
X17693267Y61770569D01*
X17693265Y61770568D01*
X17506858Y61640046D01*
X17345954Y61479142D01*
X17215432Y61292735D01*
X17215431Y61292733D01*
X17119261Y61086498D01*
X17119258Y61086489D01*
X17060366Y60866698D01*
X17060364Y60866687D01*
X17040532Y60640002D01*
X17040532Y60639999D01*
X17060364Y60413314D01*
X17060366Y60413303D01*
X17119258Y60193512D01*
X17119261Y60193503D01*
X17215431Y59987268D01*
X17215432Y59987266D01*
X17345954Y59800859D01*
X17506858Y59639955D01*
X17506861Y59639953D01*
X17693266Y59509432D01*
X17751275Y59482382D01*
X17803714Y59436209D01*
X17822866Y59369016D01*
X17802650Y59302135D01*
X17751275Y59257618D01*
X17693267Y59230569D01*
X17693265Y59230568D01*
X17506858Y59100046D01*
X17345954Y58939142D01*
X17215432Y58752735D01*
X17215431Y58752733D01*
X17119261Y58546498D01*
X17119258Y58546489D01*
X17060366Y58326698D01*
X17060364Y58326687D01*
X17040532Y58100002D01*
X17040532Y58099999D01*
X17060364Y57873314D01*
X17060366Y57873303D01*
X17119258Y57653512D01*
X17119261Y57653503D01*
X17215431Y57447268D01*
X17215432Y57447266D01*
X17345954Y57260859D01*
X17506858Y57099955D01*
X17506861Y57099953D01*
X17693266Y56969432D01*
X17730115Y56952249D01*
X17751275Y56942382D01*
X17803714Y56896209D01*
X17822866Y56829016D01*
X17802650Y56762135D01*
X17751275Y56717618D01*
X17693267Y56690569D01*
X17693265Y56690568D01*
X17506858Y56560046D01*
X17345954Y56399142D01*
X17215432Y56212735D01*
X17215431Y56212733D01*
X17119261Y56006498D01*
X17119258Y56006489D01*
X17060366Y55786698D01*
X17060364Y55786687D01*
X17040532Y55560002D01*
X17040532Y55559999D01*
X17060364Y55333314D01*
X17060366Y55333303D01*
X17119258Y55113512D01*
X17119261Y55113503D01*
X17215431Y54907268D01*
X17215432Y54907266D01*
X17345954Y54720859D01*
X17506858Y54559955D01*
X17506861Y54559953D01*
X17693266Y54429432D01*
X17750355Y54402811D01*
X17751275Y54402382D01*
X17803714Y54356209D01*
X17822866Y54289016D01*
X17802650Y54222135D01*
X17751275Y54177618D01*
X17693267Y54150569D01*
X17693265Y54150568D01*
X17506858Y54020046D01*
X17345954Y53859142D01*
X17215432Y53672735D01*
X17215431Y53672733D01*
X17119261Y53466498D01*
X17119258Y53466489D01*
X17060366Y53246698D01*
X17060364Y53246687D01*
X17040532Y53020002D01*
X17040532Y53019999D01*
X17060364Y52793314D01*
X17060366Y52793303D01*
X17119258Y52573512D01*
X17119261Y52573503D01*
X17215431Y52367268D01*
X17215432Y52367266D01*
X17345954Y52180859D01*
X17506858Y52019955D01*
X17506861Y52019953D01*
X17693266Y51889432D01*
X17743784Y51865875D01*
X17751275Y51862382D01*
X17803714Y51816209D01*
X17822866Y51749016D01*
X17802650Y51682135D01*
X17751275Y51637618D01*
X17693267Y51610569D01*
X17693265Y51610568D01*
X17506858Y51480046D01*
X17345954Y51319142D01*
X17215432Y51132735D01*
X17215431Y51132733D01*
X17119261Y50926498D01*
X17119258Y50926489D01*
X17060366Y50706698D01*
X17060364Y50706687D01*
X17040532Y50480002D01*
X17040532Y50479999D01*
X17060364Y50253314D01*
X17060366Y50253303D01*
X17119258Y50033512D01*
X17119261Y50033503D01*
X17215431Y49827268D01*
X17215432Y49827266D01*
X17345954Y49640859D01*
X17506858Y49479955D01*
X17506861Y49479953D01*
X17693266Y49349432D01*
X17751275Y49322382D01*
X17803714Y49276209D01*
X17822866Y49209016D01*
X17802650Y49142135D01*
X17751275Y49097618D01*
X17693267Y49070569D01*
X17693265Y49070568D01*
X17506858Y48940046D01*
X17345954Y48779142D01*
X17215432Y48592735D01*
X17215431Y48592733D01*
X17119261Y48386498D01*
X17119258Y48386489D01*
X17060366Y48166698D01*
X17060364Y48166687D01*
X17040532Y47940002D01*
X17040532Y47939999D01*
X17060364Y47713314D01*
X17060366Y47713303D01*
X17119258Y47493512D01*
X17119261Y47493503D01*
X17215431Y47287268D01*
X17215432Y47287266D01*
X17345954Y47100859D01*
X17506858Y46939955D01*
X17506861Y46939953D01*
X17693266Y46809432D01*
X17751275Y46782382D01*
X17803714Y46736209D01*
X17822866Y46669016D01*
X17802650Y46602135D01*
X17751275Y46557618D01*
X17693267Y46530569D01*
X17693265Y46530568D01*
X17506858Y46400046D01*
X17345954Y46239142D01*
X17215432Y46052735D01*
X17215431Y46052733D01*
X17119261Y45846498D01*
X17119258Y45846489D01*
X17060366Y45626698D01*
X17060364Y45626687D01*
X17040532Y45400002D01*
X17040532Y45399999D01*
X17060364Y45173314D01*
X17060366Y45173303D01*
X17119258Y44953512D01*
X17119261Y44953503D01*
X17215431Y44747268D01*
X17215432Y44747266D01*
X17345954Y44560859D01*
X17506858Y44399955D01*
X17506861Y44399953D01*
X17693266Y44269432D01*
X17712050Y44260673D01*
X17751275Y44242382D01*
X17803714Y44196209D01*
X17822866Y44129016D01*
X17802650Y44062135D01*
X17751275Y44017618D01*
X17693267Y43990569D01*
X17693265Y43990568D01*
X17506858Y43860046D01*
X17345954Y43699142D01*
X17215432Y43512735D01*
X17215431Y43512733D01*
X17119261Y43306498D01*
X17119258Y43306489D01*
X17060366Y43086698D01*
X17060364Y43086687D01*
X17040532Y42860002D01*
X17040532Y42859999D01*
X17060364Y42633314D01*
X17060366Y42633303D01*
X17119258Y42413512D01*
X17119261Y42413503D01*
X17215431Y42207268D01*
X17215432Y42207266D01*
X17345954Y42020859D01*
X17506858Y41859955D01*
X17506861Y41859953D01*
X17693266Y41729432D01*
X17751275Y41702382D01*
X17803714Y41656209D01*
X17822866Y41589016D01*
X17802650Y41522135D01*
X17751275Y41477618D01*
X17693267Y41450569D01*
X17693265Y41450568D01*
X17506858Y41320046D01*
X17345954Y41159142D01*
X17215432Y40972735D01*
X17215431Y40972733D01*
X17119261Y40766498D01*
X17119258Y40766489D01*
X17060366Y40546698D01*
X17060364Y40546687D01*
X17040532Y40320002D01*
X17040532Y40319999D01*
X17060364Y40093314D01*
X17060366Y40093303D01*
X17119258Y39873512D01*
X17119261Y39873503D01*
X17215431Y39667268D01*
X17215432Y39667266D01*
X17345954Y39480859D01*
X17506858Y39319955D01*
X17506861Y39319953D01*
X17693266Y39189432D01*
X17751275Y39162382D01*
X17803714Y39116209D01*
X17822866Y39049016D01*
X17802650Y38982135D01*
X17751275Y38937618D01*
X17693267Y38910569D01*
X17693265Y38910568D01*
X17506858Y38780046D01*
X17345954Y38619142D01*
X17215432Y38432735D01*
X17215431Y38432733D01*
X17119261Y38226498D01*
X17119258Y38226489D01*
X17060366Y38006698D01*
X17060364Y38006687D01*
X17040532Y37780002D01*
X17040532Y37779999D01*
X17060364Y37553314D01*
X17060366Y37553303D01*
X17119258Y37333512D01*
X17119261Y37333503D01*
X17215431Y37127268D01*
X17215432Y37127266D01*
X17345954Y36940859D01*
X17506858Y36779955D01*
X17506861Y36779953D01*
X17693266Y36649432D01*
X17751275Y36622382D01*
X17803714Y36576209D01*
X17822866Y36509016D01*
X17802650Y36442135D01*
X17751275Y36397618D01*
X17693267Y36370569D01*
X17693265Y36370568D01*
X17506858Y36240046D01*
X17345954Y36079142D01*
X17215432Y35892735D01*
X17215431Y35892733D01*
X17119261Y35686498D01*
X17119258Y35686489D01*
X17060366Y35466698D01*
X17060364Y35466687D01*
X17040532Y35240002D01*
X17040532Y35239999D01*
X17060364Y35013314D01*
X17060366Y35013303D01*
X17119258Y34793512D01*
X17119261Y34793503D01*
X17215431Y34587268D01*
X17215432Y34587266D01*
X17345954Y34400859D01*
X17506858Y34239955D01*
X17522375Y34229090D01*
X17693266Y34109432D01*
X17751275Y34082382D01*
X17803714Y34036209D01*
X17822866Y33969016D01*
X17802650Y33902135D01*
X17751275Y33857618D01*
X17693267Y33830569D01*
X17693265Y33830568D01*
X17506858Y33700046D01*
X17345954Y33539142D01*
X17215432Y33352735D01*
X17215431Y33352733D01*
X17119261Y33146498D01*
X17119258Y33146489D01*
X17060366Y32926698D01*
X17060364Y32926687D01*
X17040532Y32700002D01*
X17040532Y32699999D01*
X17060364Y32473314D01*
X17060366Y32473303D01*
X17119258Y32253512D01*
X17119261Y32253503D01*
X17215431Y32047268D01*
X17215432Y32047266D01*
X17345954Y31860859D01*
X17506858Y31699955D01*
X17506861Y31699953D01*
X17693266Y31569432D01*
X17751275Y31542382D01*
X17803714Y31496209D01*
X17822866Y31429016D01*
X17802650Y31362135D01*
X17751275Y31317618D01*
X17693267Y31290569D01*
X17693265Y31290568D01*
X17506858Y31160046D01*
X17345954Y30999142D01*
X17215432Y30812735D01*
X17215431Y30812733D01*
X17119261Y30606498D01*
X17119258Y30606489D01*
X17060366Y30386698D01*
X17060364Y30386687D01*
X17040532Y30160002D01*
X17040532Y30159999D01*
X17060364Y29933314D01*
X17060366Y29933303D01*
X17119258Y29713512D01*
X17119261Y29713503D01*
X17215431Y29507268D01*
X17215432Y29507266D01*
X17345954Y29320859D01*
X17506858Y29159955D01*
X17506861Y29159953D01*
X17693266Y29029432D01*
X17751275Y29002382D01*
X17803714Y28956209D01*
X17822866Y28889016D01*
X17802650Y28822135D01*
X17751275Y28777618D01*
X17693267Y28750569D01*
X17693265Y28750568D01*
X17506858Y28620046D01*
X17345954Y28459142D01*
X17215432Y28272735D01*
X17215431Y28272733D01*
X17119261Y28066498D01*
X17119258Y28066489D01*
X17060366Y27846698D01*
X17060364Y27846687D01*
X17040532Y27620002D01*
X17040532Y27619999D01*
X17060364Y27393314D01*
X17060366Y27393303D01*
X17119258Y27173512D01*
X17119261Y27173503D01*
X17215431Y26967268D01*
X17215432Y26967266D01*
X17345954Y26780859D01*
X17506858Y26619955D01*
X17506861Y26619953D01*
X17693266Y26489432D01*
X17751275Y26462382D01*
X17803714Y26416209D01*
X17822866Y26349016D01*
X17802650Y26282135D01*
X17751275Y26237618D01*
X17693267Y26210569D01*
X17693265Y26210568D01*
X17506858Y26080046D01*
X17345954Y25919142D01*
X17215432Y25732735D01*
X17215431Y25732733D01*
X17119261Y25526498D01*
X17119258Y25526489D01*
X17060366Y25306698D01*
X17060364Y25306687D01*
X17040532Y25080002D01*
X17040532Y25079999D01*
X17060364Y24853314D01*
X17060366Y24853303D01*
X17119258Y24633512D01*
X17119261Y24633503D01*
X17215431Y24427268D01*
X17215432Y24427266D01*
X17345954Y24240859D01*
X17506858Y24079955D01*
X17506861Y24079953D01*
X17693266Y23949432D01*
X17899504Y23853261D01*
X18119308Y23794365D01*
X18281230Y23780199D01*
X18345998Y23774532D01*
X18346000Y23774532D01*
X18346002Y23774532D01*
X18402673Y23779491D01*
X18572692Y23794365D01*
X18792496Y23853261D01*
X18998734Y23949432D01*
X19185139Y24079953D01*
X19346047Y24240861D01*
X19476568Y24427266D01*
X19503618Y24485276D01*
X19549790Y24537715D01*
X19616983Y24556867D01*
X19683865Y24536652D01*
X19728382Y24485275D01*
X19755429Y24427272D01*
X19755432Y24427266D01*
X19885954Y24240859D01*
X20046858Y24079955D01*
X20046861Y24079953D01*
X20233266Y23949432D01*
X20439504Y23853261D01*
X20659308Y23794365D01*
X20821230Y23780199D01*
X20885998Y23774532D01*
X20886000Y23774532D01*
X20886002Y23774532D01*
X20942673Y23779491D01*
X21112692Y23794365D01*
X21332496Y23853261D01*
X21538734Y23949432D01*
X21725139Y24079953D01*
X21886047Y24240861D01*
X22016568Y24427266D01*
X22112739Y24633504D01*
X22171635Y24853308D01*
X22191468Y25080000D01*
X22171635Y25306692D01*
X22112739Y25526496D01*
X22016568Y25732734D01*
X21886047Y25919139D01*
X21886045Y25919142D01*
X21725141Y26080046D01*
X21538734Y26210568D01*
X21538728Y26210571D01*
X21480725Y26237618D01*
X21428285Y26283790D01*
X21409133Y26350983D01*
X21429348Y26417865D01*
X21480725Y26462382D01*
X21538734Y26489432D01*
X21725139Y26619953D01*
X21886047Y26780861D01*
X22016568Y26967266D01*
X22112739Y27173504D01*
X22171635Y27393308D01*
X22191468Y27620000D01*
X22188645Y27652262D01*
X22182415Y27723478D01*
X22171635Y27846692D01*
X22112739Y28066496D01*
X22016568Y28272734D01*
X21886047Y28459139D01*
X21886045Y28459142D01*
X21725141Y28620046D01*
X21538734Y28750568D01*
X21538728Y28750571D01*
X21480725Y28777618D01*
X21428285Y28823790D01*
X21409133Y28890983D01*
X21429348Y28957865D01*
X21480725Y29002382D01*
X21538734Y29029432D01*
X21725139Y29159953D01*
X21886047Y29320861D01*
X22016568Y29507266D01*
X22112739Y29713504D01*
X22171635Y29933308D01*
X22191468Y30160000D01*
X22171635Y30386692D01*
X22112739Y30606496D01*
X22016568Y30812734D01*
X21886047Y30999139D01*
X21886045Y30999142D01*
X21725141Y31160046D01*
X21538734Y31290568D01*
X21538728Y31290571D01*
X21480725Y31317618D01*
X21428285Y31363790D01*
X21409133Y31430983D01*
X21429348Y31497865D01*
X21480725Y31542382D01*
X21538734Y31569432D01*
X21725139Y31699953D01*
X21886047Y31860861D01*
X22016568Y32047266D01*
X22112739Y32253504D01*
X22171635Y32473308D01*
X22189105Y32672996D01*
X22191468Y32699999D01*
X22191468Y32700002D01*
X22176333Y32872995D01*
X22171635Y32926692D01*
X22112739Y33146496D01*
X22016568Y33352734D01*
X21886047Y33539139D01*
X21886045Y33539142D01*
X21725141Y33700046D01*
X21538734Y33830568D01*
X21538728Y33830571D01*
X21480725Y33857618D01*
X21428285Y33903790D01*
X21409133Y33970983D01*
X21429348Y34037865D01*
X21480725Y34082382D01*
X21538734Y34109432D01*
X21725139Y34239953D01*
X21886047Y34400861D01*
X22016568Y34587266D01*
X22112739Y34793504D01*
X22171635Y35013308D01*
X22191468Y35240000D01*
X22171635Y35466692D01*
X22112739Y35686496D01*
X22016568Y35892734D01*
X21886047Y36079139D01*
X21886045Y36079142D01*
X21725141Y36240046D01*
X21538734Y36370568D01*
X21538728Y36370571D01*
X21480725Y36397618D01*
X21428285Y36443790D01*
X21409133Y36510983D01*
X21429348Y36577865D01*
X21480725Y36622382D01*
X21538734Y36649432D01*
X21725139Y36779953D01*
X21886047Y36940861D01*
X22016568Y37127266D01*
X22112739Y37333504D01*
X22171635Y37553308D01*
X22191468Y37780000D01*
X22171635Y38006692D01*
X22112739Y38226496D01*
X22016568Y38432734D01*
X21903833Y38593738D01*
X21886045Y38619142D01*
X21725141Y38780046D01*
X21538734Y38910568D01*
X21538728Y38910571D01*
X21480725Y38937618D01*
X21428285Y38983790D01*
X21409133Y39050983D01*
X21429348Y39117865D01*
X21480725Y39162382D01*
X21538734Y39189432D01*
X21725139Y39319953D01*
X21886047Y39480861D01*
X22016568Y39667266D01*
X22112739Y39873504D01*
X22171635Y40093308D01*
X22191468Y40320000D01*
X22171635Y40546692D01*
X22112739Y40766496D01*
X22016568Y40972734D01*
X21886047Y41159139D01*
X21886045Y41159142D01*
X21725141Y41320046D01*
X21538734Y41450568D01*
X21538728Y41450571D01*
X21480725Y41477618D01*
X21428285Y41523790D01*
X21409133Y41590983D01*
X21429348Y41657865D01*
X21480725Y41702382D01*
X21538734Y41729432D01*
X21725139Y41859953D01*
X21886047Y42020861D01*
X22016568Y42207266D01*
X22112739Y42413504D01*
X22171635Y42633308D01*
X22191468Y42860000D01*
X22190133Y42875254D01*
X22180265Y42988049D01*
X22171635Y43086692D01*
X22112739Y43306496D01*
X22016568Y43512734D01*
X21886047Y43699139D01*
X21886045Y43699142D01*
X21725141Y43860046D01*
X21538734Y43990568D01*
X21538728Y43990571D01*
X21480725Y44017618D01*
X21428285Y44063790D01*
X21409133Y44130983D01*
X21429348Y44197865D01*
X21480725Y44242382D01*
X21538734Y44269432D01*
X21725139Y44399953D01*
X21832190Y44507004D01*
X28307721Y44507004D01*
X28307721Y44506999D01*
X28326791Y44289026D01*
X28326791Y44289022D01*
X28383420Y44077679D01*
X28383422Y44077675D01*
X28383423Y44077671D01*
X28411426Y44017618D01*
X28475895Y43879363D01*
X28489421Y43860046D01*
X28601400Y43700124D01*
X28601404Y43700120D01*
X28631840Y43669684D01*
X28665325Y43608361D01*
X28660341Y43538669D01*
X28631843Y43494324D01*
X28601399Y43463879D01*
X28475898Y43284645D01*
X28475896Y43284641D01*
X28400744Y43123476D01*
X28387652Y43095400D01*
X28383424Y43086334D01*
X28383420Y43086325D01*
X28326791Y42874982D01*
X28326791Y42874979D01*
X28324804Y42852262D01*
X28309121Y42672999D01*
X28307721Y42657002D01*
X28322004Y42493737D01*
X28326791Y42439027D01*
X28326791Y42439023D01*
X28383420Y42227680D01*
X28383422Y42227676D01*
X28383423Y42227672D01*
X28429659Y42128518D01*
X28475895Y42029364D01*
X28504842Y41988024D01*
X28601400Y41850125D01*
X28721873Y41729652D01*
X28756122Y41695403D01*
X28860122Y41622582D01*
X28903747Y41568005D01*
X28912999Y41521007D01*
X28912999Y38842995D01*
X28893314Y38775956D01*
X28860123Y38741420D01*
X28756116Y38668594D01*
X28601400Y38513878D01*
X28475898Y38334642D01*
X28475896Y38334638D01*
X28383424Y38136331D01*
X28383420Y38136322D01*
X28326791Y37924979D01*
X28326791Y37924975D01*
X28307721Y37707002D01*
X28307721Y37706997D01*
X28308881Y37693737D01*
X28319445Y37572984D01*
X28326791Y37489024D01*
X28326791Y37489020D01*
X28383420Y37277677D01*
X28383422Y37277673D01*
X28383423Y37277669D01*
X28408700Y37223462D01*
X28475895Y37079361D01*
X28480353Y37072995D01*
X28601400Y36900122D01*
X28706839Y36794683D01*
X28756122Y36745400D01*
X28860122Y36672579D01*
X28903747Y36618002D01*
X28912999Y36571004D01*
X28912999Y26792997D01*
X28893314Y26725958D01*
X28860123Y26691422D01*
X28756116Y26618596D01*
X28601400Y26463880D01*
X28475898Y26284644D01*
X28475896Y26284640D01*
X28383424Y26086333D01*
X28383420Y26086324D01*
X28326791Y25874981D01*
X28326791Y25874977D01*
X28307721Y25657004D01*
X28307721Y25656999D01*
X28326791Y25439026D01*
X28326791Y25439022D01*
X28383420Y25227679D01*
X28383422Y25227675D01*
X28383423Y25227671D01*
X28429659Y25128517D01*
X28475895Y25029363D01*
X28475896Y25029362D01*
X28601400Y24850124D01*
X28756121Y24695403D01*
X28844523Y24633503D01*
X28860122Y24622581D01*
X28903747Y24568004D01*
X28904176Y24565822D01*
X28912999Y24556999D01*
X28935533Y24556999D01*
X28987937Y24545382D01*
X29133668Y24477426D01*
X29345021Y24420794D01*
X29527924Y24404793D01*
X29562996Y24401724D01*
X29562998Y24401724D01*
X29563000Y24401724D01*
X29591252Y24404196D01*
X29780975Y24420794D01*
X29992328Y24477426D01*
X30138058Y24545382D01*
X30190463Y24556999D01*
X45713002Y24556999D01*
X45713002Y27190912D01*
X45732687Y27257951D01*
X45785491Y27303706D01*
X45796048Y27307954D01*
X45862516Y27331212D01*
X46015256Y27427185D01*
X46142810Y27554739D01*
X46238783Y27707479D01*
X46298362Y27877746D01*
X46298363Y27877752D01*
X46318559Y28056998D01*
X46318559Y28057005D01*
X46298363Y28236251D01*
X46298362Y28236256D01*
X46238782Y28406525D01*
X46185683Y28491031D01*
X46166683Y28558267D01*
X46185683Y28622974D01*
X46238783Y28707480D01*
X46298362Y28877747D01*
X46299743Y28890000D01*
X46318559Y29056999D01*
X46318559Y29057006D01*
X46298363Y29236252D01*
X46298362Y29236257D01*
X46238783Y29406524D01*
X46224129Y29429845D01*
X46187498Y29488144D01*
X46142810Y29559264D01*
X46015256Y29686818D01*
X45874497Y29775263D01*
X45862518Y29782790D01*
X45862514Y29782792D01*
X45796047Y29806050D01*
X45739271Y29846772D01*
X45713524Y29911725D01*
X45713002Y29923091D01*
X45713002Y30321010D01*
X45732687Y30388049D01*
X45765879Y30422585D01*
X45869872Y30495401D01*
X46024593Y30650122D01*
X46150097Y30829360D01*
X46242570Y31027669D01*
X46299202Y31239022D01*
X46318272Y31456999D01*
X46316872Y31472996D01*
X46310802Y31542382D01*
X46299202Y31674976D01*
X46242570Y31886329D01*
X46150097Y32084637D01*
X46150095Y32084640D01*
X46150094Y32084642D01*
X46024594Y32263875D01*
X45989112Y32299357D01*
X45869872Y32418597D01*
X45791737Y32473308D01*
X45765877Y32491416D01*
X45722253Y32545993D01*
X45713002Y32592990D01*
X45713002Y34621010D01*
X45732687Y34688049D01*
X45765879Y34722585D01*
X45867161Y34793503D01*
X45869872Y34795401D01*
X46024593Y34950122D01*
X46150097Y35129360D01*
X46242570Y35327669D01*
X46299202Y35539022D01*
X46318272Y35756999D01*
X46299202Y35974976D01*
X46242570Y36186329D01*
X46150097Y36384637D01*
X46150095Y36384640D01*
X46150094Y36384642D01*
X46024594Y36563875D01*
X46010604Y36577865D01*
X45969147Y36619322D01*
X45935664Y36680642D01*
X45940648Y36750334D01*
X45969146Y36794679D01*
X46024593Y36850125D01*
X46150097Y37029363D01*
X46242570Y37227672D01*
X46299202Y37439025D01*
X46318272Y37657002D01*
X46299202Y37874979D01*
X46248274Y38065043D01*
X46242572Y38086325D01*
X46242571Y38086326D01*
X46242570Y38086332D01*
X46150097Y38284640D01*
X46150095Y38284643D01*
X46150094Y38284645D01*
X46024594Y38463878D01*
X45974594Y38513878D01*
X45869872Y38618600D01*
X45814842Y38657133D01*
X45765877Y38691419D01*
X45722253Y38745996D01*
X45713002Y38792993D01*
X45713002Y42921010D01*
X45732687Y42988049D01*
X45765879Y43022585D01*
X45775175Y43029094D01*
X45869872Y43095401D01*
X46024593Y43250122D01*
X46150097Y43429360D01*
X46242570Y43627669D01*
X46299202Y43839022D01*
X46318272Y44056999D01*
X46316463Y44077671D01*
X46308124Y44172992D01*
X46299202Y44274976D01*
X46242570Y44486329D01*
X46150097Y44684637D01*
X46150095Y44684640D01*
X46150094Y44684642D01*
X46024594Y44863875D01*
X45952136Y44936333D01*
X45869872Y45018597D01*
X45814842Y45057130D01*
X45765877Y45091416D01*
X45749964Y45111324D01*
X45749321Y45110680D01*
X45713002Y45146999D01*
X45711909Y45146999D01*
X45659504Y45158617D01*
X45627986Y45173314D01*
X45492325Y45236574D01*
X45492321Y45236575D01*
X45492317Y45236577D01*
X45280972Y45293206D01*
X45062997Y45312276D01*
X45062993Y45312276D01*
X44917677Y45299563D01*
X44845018Y45293206D01*
X44845015Y45293206D01*
X44633672Y45236577D01*
X44633665Y45236575D01*
X44633665Y45236574D01*
X44483787Y45166684D01*
X44466487Y45158617D01*
X44414082Y45146999D01*
X30705996Y45146999D01*
X30638957Y45166684D01*
X30604421Y45199876D01*
X30524597Y45313877D01*
X30465483Y45372991D01*
X30369875Y45468599D01*
X30190637Y45594103D01*
X30190638Y45594103D01*
X30190636Y45594104D01*
X30091482Y45640340D01*
X29992328Y45686576D01*
X29992324Y45686577D01*
X29992322Y45686578D01*
X29825698Y45731225D01*
X29766038Y45767590D01*
X29735509Y45830437D01*
X29743804Y45899813D01*
X29788289Y45953691D01*
X29854841Y45974965D01*
X29857708Y45975000D01*
X44616112Y45975000D01*
X44616122Y45974999D01*
X44961867Y45975000D01*
X45021478Y45981408D01*
X45156326Y46031703D01*
X45271541Y46117953D01*
X45357791Y46233168D01*
X45408086Y46368016D01*
X45414495Y46427626D01*
X45414494Y51698371D01*
X45408086Y51757982D01*
X45386369Y51816209D01*
X45367845Y51865875D01*
X45362861Y51935567D01*
X45366982Y51950153D01*
X45374363Y51971244D01*
X45394560Y52150499D01*
X45392025Y52172995D01*
X45374364Y52329749D01*
X45374363Y52329754D01*
X45323450Y52475255D01*
X45314784Y52500021D01*
X45218811Y52652761D01*
X45208754Y52662818D01*
X45175269Y52724141D01*
X45180253Y52793833D01*
X45208754Y52838180D01*
X45218811Y52848237D01*
X45314784Y53000977D01*
X45374363Y53171244D01*
X45374560Y53172993D01*
X45394560Y53350496D01*
X45394560Y53350503D01*
X45374364Y53529749D01*
X45374363Y53529754D01*
X45323449Y53675258D01*
X45314784Y53700021D01*
X45218811Y53852761D01*
X45208754Y53862818D01*
X45175269Y53924141D01*
X45180253Y53993833D01*
X45208754Y54038180D01*
X45218811Y54048237D01*
X45314784Y54200977D01*
X45374363Y54371244D01*
X45374560Y54372993D01*
X45394560Y54550496D01*
X45394560Y54550503D01*
X45374364Y54729749D01*
X45374363Y54729754D01*
X45323449Y54875258D01*
X45314784Y54900021D01*
X45310230Y54907268D01*
X45268932Y54972994D01*
X45218811Y55052761D01*
X45208754Y55062818D01*
X45175269Y55124141D01*
X45180253Y55193833D01*
X45208754Y55238180D01*
X45218811Y55248237D01*
X45314784Y55400977D01*
X45374363Y55571244D01*
X45374364Y55571250D01*
X45394560Y55750496D01*
X45394560Y55750503D01*
X45374364Y55929749D01*
X45374363Y55929754D01*
X45347509Y56006498D01*
X45314784Y56100021D01*
X45218811Y56252761D01*
X45091257Y56380315D01*
X45061294Y56399142D01*
X44938518Y56476288D01*
X44768249Y56535868D01*
X44768244Y56535869D01*
X44588999Y56556064D01*
X44588991Y56556064D01*
X44487295Y56544606D01*
X44418473Y56556661D01*
X44399101Y56568559D01*
X44331326Y56619295D01*
X44331323Y56619297D01*
X44196477Y56669591D01*
X44196478Y56669591D01*
X44136878Y56675998D01*
X44136876Y56675999D01*
X44136868Y56675999D01*
X38668950Y56675999D01*
X38601911Y56695684D01*
X38556156Y56748488D01*
X38546212Y56817646D01*
X38575237Y56881202D01*
X38627995Y56917041D01*
X38788517Y56973210D01*
X38941257Y57069183D01*
X39068811Y57196737D01*
X39164784Y57349477D01*
X39224363Y57519744D01*
X39224364Y57519750D01*
X39244560Y57698996D01*
X39244560Y57699003D01*
X39224364Y57878249D01*
X39224363Y57878254D01*
X39209445Y57920888D01*
X39164784Y58048521D01*
X39151802Y58069181D01*
X39068810Y58201262D01*
X38941257Y58328815D01*
X38788519Y58424787D01*
X38788518Y58424788D01*
X38722039Y58448050D01*
X38665264Y58488772D01*
X38639517Y58553725D01*
X38638995Y58565091D01*
X38638995Y58732905D01*
X38658680Y58799944D01*
X38711484Y58845699D01*
X38722041Y58849947D01*
X38729808Y58852665D01*
X38788517Y58873208D01*
X38941257Y58969181D01*
X39068811Y59096735D01*
X39116733Y59173003D01*
X46729429Y59173003D01*
X46729429Y59172996D01*
X46749624Y58993750D01*
X46749625Y58993745D01*
X46809205Y58823476D01*
X46905178Y58670737D01*
X46915236Y58660679D01*
X46948721Y58599356D01*
X46943737Y58529664D01*
X46915236Y58485317D01*
X46905180Y58475262D01*
X46809207Y58322523D01*
X46749627Y58152254D01*
X46749626Y58152249D01*
X46729431Y57973003D01*
X46729431Y57972996D01*
X46749626Y57793750D01*
X46749627Y57793745D01*
X46809207Y57623476D01*
X46905180Y57470737D01*
X46915237Y57460680D01*
X46948722Y57399357D01*
X46943738Y57329665D01*
X46915243Y57285324D01*
X46905183Y57275263D01*
X46905180Y57275260D01*
X46809205Y57122518D01*
X46749625Y56952249D01*
X46749624Y56952244D01*
X46729429Y56772998D01*
X46729429Y56772991D01*
X46749624Y56593745D01*
X46749625Y56593740D01*
X46809205Y56423471D01*
X46905178Y56270732D01*
X46915236Y56260674D01*
X46948721Y56199351D01*
X46943737Y56129659D01*
X46915242Y56085318D01*
X46905185Y56075260D01*
X46905182Y56075257D01*
X46809207Y55922515D01*
X46749627Y55752246D01*
X46749626Y55752241D01*
X46729431Y55572995D01*
X46729431Y55572988D01*
X46749626Y55393742D01*
X46749627Y55393737D01*
X46809207Y55223468D01*
X46905180Y55070729D01*
X46915233Y55060676D01*
X46948718Y54999353D01*
X46943734Y54929661D01*
X46915239Y54885320D01*
X46905185Y54875265D01*
X46905182Y54875262D01*
X46809207Y54722520D01*
X46749627Y54552251D01*
X46749626Y54552246D01*
X46729431Y54373000D01*
X46729431Y54372993D01*
X46749626Y54193747D01*
X46749627Y54193742D01*
X46809207Y54023473D01*
X46905180Y53870734D01*
X46915236Y53860678D01*
X46948721Y53799355D01*
X46943737Y53729663D01*
X46915236Y53685316D01*
X46905178Y53675259D01*
X46809205Y53522520D01*
X46749625Y53352251D01*
X46749624Y53352246D01*
X46729429Y53173000D01*
X46729429Y53172993D01*
X46749624Y52993747D01*
X46749625Y52993742D01*
X46809205Y52823473D01*
X46905178Y52670734D01*
X46915236Y52660676D01*
X46948721Y52599353D01*
X46943737Y52529661D01*
X46915242Y52485320D01*
X46905185Y52475262D01*
X46905182Y52475259D01*
X46809207Y52322517D01*
X46749627Y52152248D01*
X46749626Y52152243D01*
X46729431Y51972997D01*
X46729431Y51972990D01*
X46749626Y51793744D01*
X46749627Y51793739D01*
X46809207Y51623470D01*
X46905180Y51470731D01*
X46915236Y51460675D01*
X46948721Y51399352D01*
X46943737Y51329660D01*
X46915236Y51285313D01*
X46905178Y51275256D01*
X46809205Y51122517D01*
X46749625Y50952248D01*
X46749624Y50952243D01*
X46729429Y50772997D01*
X46729429Y50772990D01*
X46749624Y50593744D01*
X46749625Y50593739D01*
X46809205Y50423470D01*
X46905178Y50270731D01*
X46915233Y50260676D01*
X46948718Y50199353D01*
X46943734Y50129661D01*
X46915239Y50085320D01*
X46905185Y50075265D01*
X46905182Y50075262D01*
X46809207Y49922520D01*
X46749627Y49752251D01*
X46749626Y49752246D01*
X46729431Y49573000D01*
X46729431Y49572993D01*
X46749626Y49393747D01*
X46749627Y49393742D01*
X46809207Y49223473D01*
X46905180Y49070734D01*
X46915236Y49060678D01*
X46948721Y48999355D01*
X46943737Y48929663D01*
X46915242Y48885322D01*
X46905185Y48875264D01*
X46905182Y48875261D01*
X46809207Y48722519D01*
X46749627Y48552250D01*
X46749626Y48552245D01*
X46729431Y48372999D01*
X46729431Y48372992D01*
X46749626Y48193746D01*
X46749627Y48193741D01*
X46809207Y48023472D01*
X46905180Y47870733D01*
X46915238Y47860675D01*
X46948723Y47799352D01*
X46943739Y47729660D01*
X46915244Y47685319D01*
X46905185Y47675259D01*
X46905182Y47675256D01*
X46809207Y47522514D01*
X46749627Y47352245D01*
X46749626Y47352240D01*
X46729431Y47172994D01*
X46729431Y47172987D01*
X46749626Y46993741D01*
X46749627Y46993736D01*
X46809207Y46823467D01*
X46905180Y46670728D01*
X46915237Y46660671D01*
X46948722Y46599348D01*
X46943738Y46529656D01*
X46915237Y46485309D01*
X46905180Y46475253D01*
X46809207Y46322514D01*
X46749627Y46152245D01*
X46749626Y46152240D01*
X46729431Y45972994D01*
X46729431Y45972987D01*
X46749626Y45793741D01*
X46749627Y45793736D01*
X46809207Y45623467D01*
X46905180Y45470728D01*
X46915236Y45460672D01*
X46948721Y45399349D01*
X46943737Y45329657D01*
X46915236Y45285310D01*
X46905180Y45275255D01*
X46809207Y45122516D01*
X46749627Y44952247D01*
X46749626Y44952242D01*
X46729431Y44772996D01*
X46729431Y44772989D01*
X46749626Y44593743D01*
X46749627Y44593738D01*
X46809207Y44423469D01*
X46905180Y44270730D01*
X46915237Y44260673D01*
X46948722Y44199350D01*
X46943738Y44129658D01*
X46915237Y44085311D01*
X46905180Y44075255D01*
X46809207Y43922516D01*
X46749627Y43752247D01*
X46749626Y43752242D01*
X46729431Y43572996D01*
X46729431Y43572989D01*
X46749626Y43393743D01*
X46749627Y43393738D01*
X46809207Y43223469D01*
X46905180Y43070730D01*
X46915239Y43060671D01*
X46948724Y42999348D01*
X46943740Y42929656D01*
X46915245Y42885315D01*
X46905185Y42875254D01*
X46905182Y42875251D01*
X46809207Y42722509D01*
X46749627Y42552240D01*
X46749626Y42552235D01*
X46729431Y42372989D01*
X46729431Y42372982D01*
X46749626Y42193736D01*
X46749627Y42193731D01*
X46809207Y42023462D01*
X46905180Y41870723D01*
X46915236Y41860667D01*
X46948721Y41799344D01*
X46943737Y41729652D01*
X46915236Y41685305D01*
X46905180Y41675250D01*
X46809207Y41522511D01*
X46749627Y41352242D01*
X46749626Y41352237D01*
X46729431Y41172991D01*
X46729431Y41172984D01*
X46749626Y40993738D01*
X46749627Y40993733D01*
X46809207Y40823464D01*
X46905180Y40670725D01*
X46915235Y40660670D01*
X46948720Y40599347D01*
X46943736Y40529655D01*
X46915235Y40485308D01*
X46905178Y40475252D01*
X46809205Y40322513D01*
X46749625Y40152244D01*
X46749624Y40152239D01*
X46729429Y39972993D01*
X46729429Y39972986D01*
X46749624Y39793740D01*
X46749625Y39793735D01*
X46809205Y39623466D01*
X46905178Y39470727D01*
X46915237Y39460668D01*
X46948722Y39399345D01*
X46943738Y39329653D01*
X46915237Y39285306D01*
X46905180Y39275250D01*
X46809207Y39122511D01*
X46749627Y38952242D01*
X46749626Y38952237D01*
X46729431Y38772991D01*
X46729431Y38772984D01*
X46749626Y38593738D01*
X46749627Y38593733D01*
X46809207Y38423464D01*
X46905180Y38270725D01*
X46915237Y38260668D01*
X46948722Y38199345D01*
X46943738Y38129653D01*
X46915243Y38085312D01*
X46905185Y38075253D01*
X46905182Y38075250D01*
X46809207Y37922508D01*
X46749627Y37752239D01*
X46749626Y37752234D01*
X46729431Y37572988D01*
X46729431Y37572981D01*
X46749626Y37393735D01*
X46749627Y37393730D01*
X46809207Y37223461D01*
X46905180Y37070722D01*
X46915236Y37060666D01*
X46948721Y36999343D01*
X46943737Y36929651D01*
X46915236Y36885304D01*
X46905178Y36875247D01*
X46809205Y36722508D01*
X46749625Y36552239D01*
X46749624Y36552234D01*
X46729429Y36372988D01*
X46729429Y36372981D01*
X46749624Y36193735D01*
X46749625Y36193730D01*
X46809205Y36023461D01*
X46905178Y35870722D01*
X46915235Y35860665D01*
X46948720Y35799342D01*
X46943736Y35729650D01*
X46915235Y35685303D01*
X46905180Y35675249D01*
X46809207Y35522510D01*
X46749627Y35352241D01*
X46749626Y35352236D01*
X46729431Y35172990D01*
X46729431Y35172983D01*
X46749626Y34993737D01*
X46749627Y34993732D01*
X46809207Y34823463D01*
X46905180Y34670724D01*
X46915237Y34660667D01*
X46948722Y34599344D01*
X46943738Y34529652D01*
X46915237Y34485305D01*
X46905180Y34475249D01*
X46809207Y34322510D01*
X46749627Y34152241D01*
X46749626Y34152236D01*
X46729431Y33972990D01*
X46729431Y33972983D01*
X46749626Y33793737D01*
X46749627Y33793732D01*
X46809207Y33623463D01*
X46893719Y33488964D01*
X46912719Y33421727D01*
X46893719Y33357020D01*
X46809207Y33222522D01*
X46749627Y33052253D01*
X46749626Y33052248D01*
X46729431Y32873002D01*
X46729431Y32872995D01*
X46749626Y32693749D01*
X46749627Y32693744D01*
X46809207Y32523475D01*
X46905180Y32370736D01*
X46915236Y32360680D01*
X46948721Y32299357D01*
X46943737Y32229665D01*
X46915236Y32185318D01*
X46905178Y32175261D01*
X46809205Y32022522D01*
X46749625Y31852253D01*
X46749624Y31852248D01*
X46729429Y31673002D01*
X46729429Y31672995D01*
X46749624Y31493749D01*
X46749625Y31493744D01*
X46809205Y31323475D01*
X46905178Y31170736D01*
X46915236Y31160678D01*
X46948721Y31099355D01*
X46943737Y31029663D01*
X46915236Y30985316D01*
X46905180Y30975261D01*
X46809207Y30822522D01*
X46749627Y30652253D01*
X46749626Y30652248D01*
X46729431Y30473002D01*
X46729431Y30472995D01*
X46749626Y30293749D01*
X46749627Y30293744D01*
X46809207Y30123475D01*
X46905180Y29970736D01*
X46915234Y29960682D01*
X46948719Y29899359D01*
X46943735Y29829667D01*
X46915240Y29785326D01*
X46905185Y29775270D01*
X46905182Y29775267D01*
X46809207Y29622525D01*
X46749627Y29452256D01*
X46749626Y29452251D01*
X46729431Y29273005D01*
X46729431Y29272998D01*
X46749626Y29093752D01*
X46749627Y29093747D01*
X46809207Y28923478D01*
X46905180Y28770739D01*
X46915235Y28760684D01*
X46948720Y28699361D01*
X46943736Y28629669D01*
X46915241Y28585328D01*
X46905183Y28575269D01*
X46905180Y28575266D01*
X46809205Y28422524D01*
X46749625Y28252255D01*
X46749624Y28252250D01*
X46729429Y28073004D01*
X46729429Y28072997D01*
X46749624Y27893751D01*
X46749625Y27893746D01*
X46809205Y27723477D01*
X46874225Y27619999D01*
X46905178Y27570738D01*
X47032732Y27443184D01*
X47185472Y27347211D01*
X47274617Y27316019D01*
X47321343Y27286658D01*
X47334999Y27273002D01*
X47478624Y27273002D01*
X47492508Y27272222D01*
X47534992Y27267435D01*
X47534994Y27267435D01*
X47534996Y27267435D01*
X47577480Y27272222D01*
X47591364Y27273002D01*
X48868907Y27273002D01*
X48935946Y27253317D01*
X48981701Y27200513D01*
X48985948Y27189958D01*
X49009211Y27123476D01*
X49009212Y27123475D01*
X49068095Y27029764D01*
X49105184Y26970737D01*
X49232738Y26843183D01*
X49323080Y26786417D01*
X49385471Y26747214D01*
X49385478Y26747210D01*
X49446213Y26725958D01*
X49555745Y26687631D01*
X49555750Y26687630D01*
X49734996Y26667434D01*
X49735000Y26667434D01*
X49735004Y26667434D01*
X49914249Y26687630D01*
X49914251Y26687631D01*
X49914255Y26687631D01*
X49914258Y26687633D01*
X49914262Y26687633D01*
X50091095Y26749510D01*
X50091846Y26747362D01*
X50150128Y26756965D01*
X50178590Y26748611D01*
X50178906Y26749513D01*
X50355746Y26687634D01*
X50355751Y26687633D01*
X50534997Y26667437D01*
X50535001Y26667437D01*
X50535005Y26667437D01*
X50714250Y26687633D01*
X50714253Y26687634D01*
X50714256Y26687634D01*
X50884523Y26747213D01*
X51037263Y26843186D01*
X51164817Y26970740D01*
X51260790Y27123480D01*
X51284051Y27189957D01*
X51324771Y27246732D01*
X51389723Y27272480D01*
X51401092Y27273002D01*
X56368902Y27273002D01*
X56435941Y27253317D01*
X56481696Y27200513D01*
X56485941Y27189964D01*
X56509206Y27123477D01*
X56509207Y27123475D01*
X56568090Y27029764D01*
X56605179Y26970737D01*
X56732733Y26843183D01*
X56823075Y26786417D01*
X56885466Y26747214D01*
X56885473Y26747210D01*
X56946208Y26725958D01*
X57055740Y26687631D01*
X57055745Y26687630D01*
X57234991Y26667434D01*
X57234995Y26667434D01*
X57234999Y26667434D01*
X57414244Y26687630D01*
X57414246Y26687631D01*
X57414250Y26687631D01*
X57414253Y26687633D01*
X57414257Y26687633D01*
X57591090Y26749510D01*
X57591842Y26747359D01*
X57650105Y26756966D01*
X57678586Y26748607D01*
X57678902Y26749509D01*
X57855733Y26687633D01*
X57855739Y26687632D01*
X57855741Y26687631D01*
X57855742Y26687631D01*
X57855746Y26687630D01*
X58034992Y26667434D01*
X58034996Y26667434D01*
X58035000Y26667434D01*
X58214245Y26687630D01*
X58214247Y26687631D01*
X58214251Y26687631D01*
X58214254Y26687633D01*
X58214258Y26687633D01*
X58391091Y26749510D01*
X58391843Y26747359D01*
X58450106Y26756966D01*
X58478587Y26748607D01*
X58478903Y26749509D01*
X58655734Y26687633D01*
X58655740Y26687632D01*
X58655742Y26687631D01*
X58655743Y26687631D01*
X58655747Y26687630D01*
X58834993Y26667434D01*
X58834997Y26667434D01*
X58835001Y26667434D01*
X59014246Y26687630D01*
X59014249Y26687631D01*
X59014252Y26687631D01*
X59184519Y26747210D01*
X59184519Y26747211D01*
X59191092Y26749510D01*
X59191845Y26747358D01*
X59250107Y26756965D01*
X59278582Y26748604D01*
X59278900Y26749510D01*
X59285472Y26747211D01*
X59285473Y26747210D01*
X59329329Y26731864D01*
X59455740Y26687631D01*
X59455745Y26687630D01*
X59634991Y26667434D01*
X59634995Y26667434D01*
X59634999Y26667434D01*
X59814244Y26687630D01*
X59814246Y26687631D01*
X59814250Y26687631D01*
X59814253Y26687633D01*
X59814257Y26687633D01*
X59991090Y26749510D01*
X59991842Y26747359D01*
X60050105Y26756966D01*
X60078582Y26748607D01*
X60078899Y26749510D01*
X60255731Y26687633D01*
X60255737Y26687632D01*
X60255739Y26687631D01*
X60255740Y26687631D01*
X60255744Y26687630D01*
X60434990Y26667434D01*
X60434994Y26667434D01*
X60434998Y26667434D01*
X60614243Y26687630D01*
X60614245Y26687631D01*
X60614249Y26687631D01*
X60614252Y26687633D01*
X60614256Y26687633D01*
X60791089Y26749510D01*
X60791840Y26747363D01*
X60850123Y26756966D01*
X60878586Y26748609D01*
X60878903Y26749512D01*
X61055734Y26687636D01*
X61055740Y26687635D01*
X61055742Y26687634D01*
X61055743Y26687634D01*
X61055747Y26687633D01*
X61234993Y26667437D01*
X61234997Y26667437D01*
X61235001Y26667437D01*
X61414246Y26687633D01*
X61414248Y26687634D01*
X61414252Y26687634D01*
X61414255Y26687636D01*
X61414259Y26687636D01*
X61591092Y26749513D01*
X61591846Y26747358D01*
X61650088Y26756968D01*
X61678583Y26748606D01*
X61678900Y26749510D01*
X61685472Y26747211D01*
X61685473Y26747210D01*
X61729329Y26731864D01*
X61855740Y26687631D01*
X61855745Y26687630D01*
X62034991Y26667434D01*
X62034995Y26667434D01*
X62034999Y26667434D01*
X62214244Y26687630D01*
X62214246Y26687631D01*
X62214250Y26687631D01*
X62214253Y26687633D01*
X62214257Y26687633D01*
X62391090Y26749510D01*
X62391842Y26747359D01*
X62450105Y26756966D01*
X62478586Y26748607D01*
X62478902Y26749509D01*
X62655733Y26687633D01*
X62655739Y26687632D01*
X62655741Y26687631D01*
X62655742Y26687631D01*
X62655746Y26687630D01*
X62834992Y26667434D01*
X62834996Y26667434D01*
X62835000Y26667434D01*
X63014245Y26687630D01*
X63014247Y26687631D01*
X63014251Y26687631D01*
X63014254Y26687633D01*
X63014258Y26687633D01*
X63191091Y26749510D01*
X63191843Y26747359D01*
X63250106Y26756966D01*
X63278583Y26748607D01*
X63278900Y26749510D01*
X63455732Y26687633D01*
X63455738Y26687632D01*
X63455740Y26687631D01*
X63455741Y26687631D01*
X63455745Y26687630D01*
X63634991Y26667434D01*
X63634995Y26667434D01*
X63634999Y26667434D01*
X63814244Y26687630D01*
X63814246Y26687631D01*
X63814250Y26687631D01*
X63814253Y26687633D01*
X63814257Y26687633D01*
X63991090Y26749510D01*
X63991842Y26747359D01*
X64050105Y26756966D01*
X64078586Y26748607D01*
X64078902Y26749509D01*
X64255733Y26687633D01*
X64255739Y26687632D01*
X64255741Y26687631D01*
X64255742Y26687631D01*
X64255746Y26687630D01*
X64434992Y26667434D01*
X64434996Y26667434D01*
X64435000Y26667434D01*
X64614245Y26687630D01*
X64614247Y26687631D01*
X64614251Y26687631D01*
X64614254Y26687633D01*
X64614258Y26687633D01*
X64791091Y26749510D01*
X64791843Y26747359D01*
X64850106Y26756966D01*
X64878587Y26748607D01*
X64878903Y26749509D01*
X65055734Y26687633D01*
X65055740Y26687632D01*
X65055742Y26687631D01*
X65055743Y26687631D01*
X65055747Y26687630D01*
X65234993Y26667434D01*
X65234997Y26667434D01*
X65235001Y26667434D01*
X65414246Y26687630D01*
X65414249Y26687631D01*
X65414252Y26687631D01*
X65584519Y26747210D01*
X65584519Y26747211D01*
X65591092Y26749510D01*
X65591845Y26747358D01*
X65650107Y26756965D01*
X65678582Y26748604D01*
X65678900Y26749510D01*
X65685472Y26747211D01*
X65685473Y26747210D01*
X65729329Y26731864D01*
X65855740Y26687631D01*
X65855745Y26687630D01*
X66034991Y26667434D01*
X66034995Y26667434D01*
X66034999Y26667434D01*
X66214244Y26687630D01*
X66214246Y26687631D01*
X66214250Y26687631D01*
X66214253Y26687633D01*
X66214257Y26687633D01*
X66391090Y26749510D01*
X66391842Y26747359D01*
X66450105Y26756966D01*
X66478586Y26748607D01*
X66478902Y26749509D01*
X66655733Y26687633D01*
X66655739Y26687632D01*
X66655741Y26687631D01*
X66655742Y26687631D01*
X66655746Y26687630D01*
X66834992Y26667434D01*
X66834996Y26667434D01*
X66835000Y26667434D01*
X67014245Y26687630D01*
X67014248Y26687631D01*
X67014251Y26687631D01*
X67184518Y26747210D01*
X67184518Y26747211D01*
X67191091Y26749510D01*
X67191844Y26747358D01*
X67250106Y26756965D01*
X67278581Y26748604D01*
X67278899Y26749510D01*
X67285471Y26747211D01*
X67285472Y26747210D01*
X67329328Y26731864D01*
X67455739Y26687631D01*
X67455744Y26687630D01*
X67634990Y26667434D01*
X67634994Y26667434D01*
X67634998Y26667434D01*
X67814243Y26687630D01*
X67814245Y26687631D01*
X67814249Y26687631D01*
X67814252Y26687633D01*
X67814256Y26687633D01*
X67991089Y26749510D01*
X67991841Y26747359D01*
X68050104Y26756966D01*
X68078585Y26748607D01*
X68078901Y26749509D01*
X68255732Y26687633D01*
X68255738Y26687632D01*
X68255740Y26687631D01*
X68255741Y26687631D01*
X68255745Y26687630D01*
X68434991Y26667434D01*
X68434995Y26667434D01*
X68434999Y26667434D01*
X68614244Y26687630D01*
X68614246Y26687631D01*
X68614250Y26687631D01*
X68614253Y26687633D01*
X68614257Y26687633D01*
X68791090Y26749510D01*
X68791842Y26747359D01*
X68850105Y26756966D01*
X68878586Y26748607D01*
X68878902Y26749509D01*
X69055733Y26687633D01*
X69055739Y26687632D01*
X69055741Y26687631D01*
X69055742Y26687631D01*
X69055746Y26687630D01*
X69234992Y26667434D01*
X69234996Y26667434D01*
X69235000Y26667434D01*
X69414245Y26687630D01*
X69414247Y26687631D01*
X69414251Y26687631D01*
X69414254Y26687633D01*
X69414258Y26687633D01*
X69591091Y26749510D01*
X69591842Y26747362D01*
X69650124Y26756965D01*
X69678584Y26748609D01*
X69678901Y26749512D01*
X69855732Y26687636D01*
X69855738Y26687635D01*
X69855740Y26687634D01*
X69855741Y26687634D01*
X69855745Y26687633D01*
X70034991Y26667437D01*
X70034995Y26667437D01*
X70034999Y26667437D01*
X70214244Y26687633D01*
X70214246Y26687634D01*
X70214250Y26687634D01*
X70214253Y26687636D01*
X70214257Y26687636D01*
X70391090Y26749513D01*
X70391842Y26747362D01*
X70450105Y26756969D01*
X70478586Y26748610D01*
X70478902Y26749512D01*
X70655733Y26687636D01*
X70655739Y26687635D01*
X70655741Y26687634D01*
X70655742Y26687634D01*
X70655746Y26687633D01*
X70834992Y26667437D01*
X70834996Y26667437D01*
X70835000Y26667437D01*
X71014245Y26687633D01*
X71014247Y26687634D01*
X71014251Y26687634D01*
X71014254Y26687636D01*
X71014258Y26687636D01*
X71191091Y26749513D01*
X71191844Y26747361D01*
X71250106Y26756968D01*
X71278586Y26748607D01*
X71278902Y26749510D01*
X71455734Y26687633D01*
X71455740Y26687632D01*
X71455742Y26687631D01*
X71455743Y26687631D01*
X71455747Y26687630D01*
X71634993Y26667434D01*
X71634997Y26667434D01*
X71635001Y26667434D01*
X71814246Y26687630D01*
X71814249Y26687631D01*
X71814252Y26687631D01*
X71984519Y26747210D01*
X71984519Y26747211D01*
X71991092Y26749510D01*
X71991845Y26747358D01*
X72050107Y26756965D01*
X72078582Y26748604D01*
X72078900Y26749510D01*
X72085472Y26747211D01*
X72085473Y26747210D01*
X72129329Y26731864D01*
X72255740Y26687631D01*
X72255745Y26687630D01*
X72434991Y26667434D01*
X72434995Y26667434D01*
X72434999Y26667434D01*
X72614244Y26687630D01*
X72614246Y26687631D01*
X72614250Y26687631D01*
X72614253Y26687633D01*
X72614257Y26687633D01*
X72791090Y26749510D01*
X72791842Y26747359D01*
X72850105Y26756966D01*
X72878586Y26748607D01*
X72878902Y26749509D01*
X73055733Y26687633D01*
X73055739Y26687632D01*
X73055741Y26687631D01*
X73055742Y26687631D01*
X73055746Y26687630D01*
X73234992Y26667434D01*
X73234996Y26667434D01*
X73235000Y26667434D01*
X73414245Y26687630D01*
X73414247Y26687631D01*
X73414251Y26687631D01*
X73414254Y26687633D01*
X73414258Y26687633D01*
X73591091Y26749510D01*
X73591843Y26747359D01*
X73650107Y26756967D01*
X73678581Y26748607D01*
X73678899Y26749513D01*
X73855739Y26687634D01*
X73855744Y26687633D01*
X74034990Y26667437D01*
X74034994Y26667437D01*
X74034998Y26667437D01*
X74214243Y26687633D01*
X74214245Y26687634D01*
X74214249Y26687634D01*
X74214252Y26687636D01*
X74214256Y26687636D01*
X74391089Y26749513D01*
X74391841Y26747362D01*
X74450104Y26756969D01*
X74478585Y26748610D01*
X74478901Y26749512D01*
X74655732Y26687636D01*
X74655738Y26687635D01*
X74655740Y26687634D01*
X74655741Y26687634D01*
X74655745Y26687633D01*
X74834991Y26667437D01*
X74834995Y26667437D01*
X74834999Y26667437D01*
X75014244Y26687633D01*
X75014246Y26687634D01*
X75014250Y26687634D01*
X75014253Y26687636D01*
X75014257Y26687636D01*
X75191090Y26749513D01*
X75191842Y26747362D01*
X75250105Y26756969D01*
X75278586Y26748610D01*
X75278902Y26749512D01*
X75455733Y26687636D01*
X75455739Y26687635D01*
X75455741Y26687634D01*
X75455742Y26687634D01*
X75455746Y26687633D01*
X75634992Y26667437D01*
X75634996Y26667437D01*
X75635000Y26667437D01*
X75814245Y26687633D01*
X75814248Y26687634D01*
X75814251Y26687634D01*
X75984518Y26747213D01*
X75984518Y26747214D01*
X75991091Y26749513D01*
X75991845Y26747357D01*
X76050088Y26756969D01*
X76078582Y26748604D01*
X76078900Y26749510D01*
X76085472Y26747211D01*
X76085473Y26747210D01*
X76129329Y26731864D01*
X76255740Y26687631D01*
X76255745Y26687630D01*
X76434991Y26667434D01*
X76434995Y26667434D01*
X76434999Y26667434D01*
X76614244Y26687630D01*
X76614246Y26687631D01*
X76614250Y26687631D01*
X76614253Y26687633D01*
X76614257Y26687633D01*
X76791090Y26749510D01*
X76791842Y26747359D01*
X76850105Y26756966D01*
X76878586Y26748607D01*
X76878902Y26749509D01*
X77055733Y26687633D01*
X77055739Y26687632D01*
X77055741Y26687631D01*
X77055742Y26687631D01*
X77055746Y26687630D01*
X77234992Y26667434D01*
X77234996Y26667434D01*
X77235000Y26667434D01*
X77414245Y26687630D01*
X77414247Y26687631D01*
X77414251Y26687631D01*
X77414254Y26687633D01*
X77414258Y26687633D01*
X77591091Y26749510D01*
X77591842Y26747362D01*
X77650124Y26756964D01*
X77678584Y26748607D01*
X77678901Y26749510D01*
X77855733Y26687633D01*
X77855739Y26687632D01*
X77855741Y26687631D01*
X77855742Y26687631D01*
X77855746Y26687630D01*
X78034992Y26667434D01*
X78034996Y26667434D01*
X78035000Y26667434D01*
X78214245Y26687630D01*
X78214247Y26687631D01*
X78214251Y26687631D01*
X78214254Y26687633D01*
X78214258Y26687633D01*
X78391091Y26749510D01*
X78391843Y26747361D01*
X78450123Y26756963D01*
X78478580Y26748607D01*
X78478897Y26749510D01*
X78655729Y26687633D01*
X78655735Y26687632D01*
X78655737Y26687631D01*
X78655738Y26687631D01*
X78655742Y26687630D01*
X78834988Y26667434D01*
X78834992Y26667434D01*
X78834996Y26667434D01*
X79014241Y26687630D01*
X79014243Y26687631D01*
X79014247Y26687631D01*
X79014250Y26687633D01*
X79014254Y26687633D01*
X79191087Y26749510D01*
X79191839Y26747360D01*
X79250105Y26756969D01*
X79278584Y26748608D01*
X79278901Y26749513D01*
X79455733Y26687636D01*
X79455739Y26687635D01*
X79455741Y26687634D01*
X79455742Y26687634D01*
X79455746Y26687633D01*
X79634992Y26667437D01*
X79634996Y26667437D01*
X79635000Y26667437D01*
X79814245Y26687633D01*
X79814247Y26687634D01*
X79814251Y26687634D01*
X79814254Y26687636D01*
X79814258Y26687636D01*
X79991091Y26749513D01*
X79991843Y26747362D01*
X80050106Y26756969D01*
X80078587Y26748610D01*
X80078903Y26749512D01*
X80255734Y26687636D01*
X80255740Y26687635D01*
X80255742Y26687634D01*
X80255743Y26687634D01*
X80255747Y26687633D01*
X80434993Y26667437D01*
X80434997Y26667437D01*
X80435001Y26667437D01*
X80614246Y26687633D01*
X80614248Y26687634D01*
X80614252Y26687634D01*
X80614255Y26687636D01*
X80614259Y26687636D01*
X80791092Y26749513D01*
X80791846Y26747358D01*
X80850088Y26756968D01*
X80878583Y26748606D01*
X80878900Y26749510D01*
X80885472Y26747211D01*
X80885473Y26747210D01*
X80929329Y26731864D01*
X81055740Y26687631D01*
X81055745Y26687630D01*
X81234991Y26667434D01*
X81234995Y26667434D01*
X81234999Y26667434D01*
X81414244Y26687630D01*
X81414246Y26687631D01*
X81414250Y26687631D01*
X81414253Y26687633D01*
X81414257Y26687633D01*
X81591090Y26749510D01*
X81591842Y26747359D01*
X81650105Y26756966D01*
X81678586Y26748607D01*
X81678902Y26749509D01*
X81855733Y26687633D01*
X81855739Y26687632D01*
X81855741Y26687631D01*
X81855742Y26687631D01*
X81855746Y26687630D01*
X82034992Y26667434D01*
X82034996Y26667434D01*
X82035000Y26667434D01*
X82214245Y26687630D01*
X82214247Y26687631D01*
X82214251Y26687631D01*
X82214254Y26687633D01*
X82214258Y26687633D01*
X82391091Y26749510D01*
X82391843Y26747359D01*
X82450106Y26756966D01*
X82478587Y26748607D01*
X82478903Y26749509D01*
X82655734Y26687633D01*
X82655740Y26687632D01*
X82655742Y26687631D01*
X82655743Y26687631D01*
X82655747Y26687630D01*
X82834993Y26667434D01*
X82834997Y26667434D01*
X82835001Y26667434D01*
X83014246Y26687630D01*
X83014249Y26687631D01*
X83014252Y26687631D01*
X83184519Y26747210D01*
X83184519Y26747211D01*
X83191092Y26749510D01*
X83191845Y26747358D01*
X83250107Y26756965D01*
X83278582Y26748604D01*
X83278900Y26749510D01*
X83285472Y26747211D01*
X83285473Y26747210D01*
X83329329Y26731864D01*
X83455740Y26687631D01*
X83455745Y26687630D01*
X83634991Y26667434D01*
X83634995Y26667434D01*
X83634999Y26667434D01*
X83814244Y26687630D01*
X83814246Y26687631D01*
X83814250Y26687631D01*
X83814253Y26687633D01*
X83814257Y26687633D01*
X83991090Y26749510D01*
X83991842Y26747359D01*
X84050105Y26756966D01*
X84078586Y26748607D01*
X84078902Y26749509D01*
X84255733Y26687633D01*
X84255739Y26687632D01*
X84255741Y26687631D01*
X84255742Y26687631D01*
X84255746Y26687630D01*
X84434992Y26667434D01*
X84434996Y26667434D01*
X84435000Y26667434D01*
X84614245Y26687630D01*
X84614248Y26687631D01*
X84614251Y26687631D01*
X84784518Y26747210D01*
X84937258Y26843183D01*
X85064812Y26970737D01*
X85160785Y27123477D01*
X85184046Y27189955D01*
X85224768Y27246730D01*
X85289720Y27272478D01*
X85301088Y27273000D01*
X86168907Y27273000D01*
X86235946Y27253315D01*
X86281701Y27200511D01*
X86285948Y27189955D01*
X86309209Y27123479D01*
X86309211Y27123475D01*
X86368094Y27029764D01*
X86405183Y26970737D01*
X86532737Y26843183D01*
X86623079Y26786417D01*
X86685470Y26747214D01*
X86685477Y26747210D01*
X86746212Y26725958D01*
X86855744Y26687631D01*
X86855749Y26687630D01*
X87034995Y26667434D01*
X87034999Y26667434D01*
X87035003Y26667434D01*
X87214248Y26687630D01*
X87214251Y26687631D01*
X87214254Y26687631D01*
X87384521Y26747210D01*
X87537261Y26843183D01*
X87664815Y26970737D01*
X87701905Y27029766D01*
X95221500Y27029766D01*
X95221500Y26878235D01*
X95260719Y26731864D01*
X95286258Y26687630D01*
X95336485Y26600635D01*
X95443635Y26493485D01*
X95574865Y26417719D01*
X95721234Y26378500D01*
X95721236Y26378500D01*
X95872764Y26378500D01*
X95872766Y26378500D01*
X96019135Y26417719D01*
X96150365Y26493485D01*
X96257515Y26600635D01*
X96333281Y26731865D01*
X96372500Y26878234D01*
X96372500Y27029766D01*
X96333281Y27176135D01*
X96257515Y27307365D01*
X96150365Y27414515D01*
X96084750Y27452398D01*
X96019136Y27490281D01*
X95945950Y27509891D01*
X95872766Y27529500D01*
X95721234Y27529500D01*
X95574863Y27490281D01*
X95443635Y27414515D01*
X95443632Y27414513D01*
X95336487Y27307368D01*
X95336485Y27307365D01*
X95260719Y27176137D01*
X95221500Y27029766D01*
X87701905Y27029766D01*
X87760788Y27123477D01*
X87820367Y27293744D01*
X87820496Y27294890D01*
X87840564Y27472996D01*
X87840564Y27473003D01*
X87820368Y27652249D01*
X87820365Y27652262D01*
X87758489Y27829093D01*
X87760634Y27829844D01*
X87751038Y27888142D01*
X87759392Y27916587D01*
X87758490Y27916902D01*
X87820367Y28093735D01*
X87820370Y28093748D01*
X87840566Y28272994D01*
X87840566Y28273001D01*
X87820370Y28452247D01*
X87820367Y28452260D01*
X87758491Y28629091D01*
X87760636Y28629842D01*
X87751038Y28688142D01*
X87759394Y28716587D01*
X87758490Y28716903D01*
X87820367Y28893736D01*
X87820370Y28893749D01*
X87840566Y29072995D01*
X87840566Y29073002D01*
X87820370Y29252248D01*
X87820369Y29252253D01*
X87758490Y29429093D01*
X87760636Y29429845D01*
X87751038Y29488144D01*
X87759391Y29516587D01*
X87758488Y29516902D01*
X87820365Y29693735D01*
X87820368Y29693748D01*
X87840564Y29872994D01*
X87840564Y29873001D01*
X87820368Y30052247D01*
X87820365Y30052260D01*
X87758489Y30229091D01*
X87760634Y30229842D01*
X87751036Y30288142D01*
X87759392Y30316587D01*
X87758488Y30316903D01*
X87820365Y30493736D01*
X87820368Y30493749D01*
X87840564Y30672995D01*
X87840564Y30673002D01*
X87820368Y30852248D01*
X87820365Y30852261D01*
X87758489Y31029092D01*
X87760634Y31029843D01*
X87751036Y31088143D01*
X87759392Y31116588D01*
X87758488Y31116904D01*
X87820365Y31293737D01*
X87820368Y31293750D01*
X87840564Y31472996D01*
X87840564Y31473003D01*
X87820368Y31652249D01*
X87820367Y31652254D01*
X87758488Y31829094D01*
X87760640Y31829848D01*
X87751033Y31888109D01*
X87759394Y31916585D01*
X87758488Y31916902D01*
X87817181Y32084638D01*
X87820367Y32093742D01*
X87820368Y32093748D01*
X87840564Y32272994D01*
X87840564Y32273001D01*
X87820368Y32452247D01*
X87820367Y32452252D01*
X87758488Y32629092D01*
X87760634Y32629844D01*
X87751038Y32688141D01*
X87759393Y32716587D01*
X87758490Y32716903D01*
X87820369Y32893744D01*
X87820370Y32893749D01*
X87840566Y33072995D01*
X87840566Y33073002D01*
X87820370Y33252248D01*
X87820367Y33252261D01*
X87758491Y33429092D01*
X87760639Y33429844D01*
X87751036Y33488125D01*
X87759394Y33516584D01*
X87758488Y33516901D01*
X87766270Y33539142D01*
X87820367Y33693741D01*
X87820368Y33693747D01*
X87840564Y33872993D01*
X87840564Y33873000D01*
X87820368Y34052246D01*
X87820365Y34052259D01*
X87758489Y34229090D01*
X87760634Y34229841D01*
X87751036Y34288141D01*
X87759392Y34316586D01*
X87758488Y34316902D01*
X87820365Y34493735D01*
X87820368Y34493748D01*
X87840564Y34672994D01*
X87840564Y34673001D01*
X87820368Y34852247D01*
X87820365Y34852260D01*
X87758489Y35029091D01*
X87760634Y35029842D01*
X87751036Y35088142D01*
X87759392Y35116587D01*
X87758488Y35116903D01*
X87820365Y35293736D01*
X87820368Y35293749D01*
X87840564Y35472995D01*
X87840564Y35473002D01*
X87820368Y35652248D01*
X87820365Y35652261D01*
X87758489Y35829092D01*
X87760634Y35829843D01*
X87751036Y35888143D01*
X87759392Y35916588D01*
X87758488Y35916904D01*
X87820365Y36093737D01*
X87820368Y36093750D01*
X87840564Y36272996D01*
X87840564Y36273003D01*
X87820368Y36452249D01*
X87820365Y36452262D01*
X87758488Y36629094D01*
X87760636Y36629846D01*
X87751034Y36688127D01*
X87759392Y36716587D01*
X87758488Y36716903D01*
X87820365Y36893736D01*
X87820368Y36893749D01*
X87840564Y37072995D01*
X87840564Y37073002D01*
X87820368Y37252248D01*
X87820365Y37252261D01*
X87758489Y37429092D01*
X87760634Y37429843D01*
X87751036Y37488143D01*
X87759392Y37516588D01*
X87758488Y37516904D01*
X87820365Y37693737D01*
X87820368Y37693750D01*
X87840564Y37872996D01*
X87840564Y37873003D01*
X87820368Y38052249D01*
X87820367Y38052254D01*
X87758488Y38229094D01*
X87760634Y38229846D01*
X87751038Y38288143D01*
X87759393Y38316589D01*
X87758490Y38316905D01*
X87778722Y38374725D01*
X87820369Y38493745D01*
X87820370Y38493751D01*
X87840566Y38672997D01*
X87840566Y38673004D01*
X87820370Y38852250D01*
X87820367Y38852263D01*
X87758490Y39029095D01*
X87760638Y39029847D01*
X87751036Y39088128D01*
X87759393Y39116589D01*
X87758490Y39116905D01*
X87820367Y39293738D01*
X87820370Y39293751D01*
X87840566Y39472997D01*
X87840566Y39473004D01*
X87820370Y39652250D01*
X87820369Y39652255D01*
X87758490Y39829095D01*
X87760636Y39829847D01*
X87751038Y39888146D01*
X87759391Y39916589D01*
X87758488Y39916904D01*
X87820365Y40093737D01*
X87820368Y40093750D01*
X87840564Y40272996D01*
X87840564Y40273003D01*
X87820368Y40452249D01*
X87820365Y40452262D01*
X87758489Y40629093D01*
X87760634Y40629844D01*
X87751036Y40688144D01*
X87759392Y40716589D01*
X87758488Y40716905D01*
X87820365Y40893738D01*
X87820368Y40893751D01*
X87840564Y41072997D01*
X87840564Y41073004D01*
X87820368Y41252250D01*
X87820367Y41252255D01*
X87758488Y41429095D01*
X87760640Y41429849D01*
X87751033Y41488110D01*
X87759394Y41516586D01*
X87758488Y41516903D01*
X87784410Y41590983D01*
X87820367Y41693743D01*
X87820554Y41695404D01*
X87840564Y41872995D01*
X87840564Y41873002D01*
X87820368Y42052248D01*
X87820365Y42052261D01*
X87758489Y42229092D01*
X87760634Y42229843D01*
X87751036Y42288143D01*
X87759392Y42316588D01*
X87758488Y42316904D01*
X87820365Y42493737D01*
X87820368Y42493750D01*
X87840564Y42672996D01*
X87840564Y42673003D01*
X87820368Y42852249D01*
X87820365Y42852262D01*
X87758488Y43029094D01*
X87760637Y43029847D01*
X87751035Y43088126D01*
X87759394Y43116587D01*
X87758490Y43116903D01*
X87820367Y43293736D01*
X87820370Y43293749D01*
X87840566Y43472995D01*
X87840566Y43473002D01*
X87820370Y43652248D01*
X87820367Y43652261D01*
X87758491Y43829092D01*
X87760638Y43829844D01*
X87751035Y43888126D01*
X87759391Y43916588D01*
X87758488Y43916904D01*
X87820365Y44093737D01*
X87820368Y44093750D01*
X87840564Y44272996D01*
X87840564Y44273003D01*
X87820368Y44452249D01*
X87820365Y44452262D01*
X87758488Y44629094D01*
X87760636Y44629846D01*
X87751034Y44688127D01*
X87759391Y44716588D01*
X87758488Y44716904D01*
X87820365Y44893737D01*
X87820368Y44893750D01*
X87840564Y45072996D01*
X87840564Y45073003D01*
X87820368Y45252249D01*
X87820367Y45252254D01*
X87798803Y45313880D01*
X87760788Y45422521D01*
X87664815Y45575261D01*
X87537261Y45702815D01*
X87448846Y45758370D01*
X87384523Y45798787D01*
X87384519Y45798789D01*
X87318043Y45822050D01*
X87261267Y45862772D01*
X87235520Y45927724D01*
X87234998Y45939091D01*
X87234998Y48060998D01*
X90632006Y48060998D01*
X90632006Y31735996D01*
X100757003Y31735996D01*
X100757004Y31735996D01*
X100782006Y31760997D01*
X100782006Y48110998D01*
X99357007Y49535996D01*
X92057006Y49535996D01*
X90632006Y48060998D01*
X87234998Y48060998D01*
X87234998Y49706907D01*
X87254683Y49773946D01*
X87307487Y49819701D01*
X87318044Y49823949D01*
X87384521Y49847210D01*
X87537261Y49943183D01*
X87664815Y50070737D01*
X87760788Y50223477D01*
X87820367Y50393744D01*
X87820368Y50393750D01*
X87840564Y50572996D01*
X87840564Y50573003D01*
X87820368Y50752249D01*
X87820365Y50752262D01*
X87758489Y50929093D01*
X87760634Y50929844D01*
X87751036Y50988144D01*
X87759392Y51016589D01*
X87758488Y51016905D01*
X87820365Y51193738D01*
X87820368Y51193751D01*
X87840564Y51372997D01*
X87840564Y51373004D01*
X87820368Y51552250D01*
X87820367Y51552255D01*
X87758488Y51729095D01*
X87760640Y51729849D01*
X87751033Y51788110D01*
X87759394Y51816586D01*
X87758488Y51816903D01*
X87813106Y51972993D01*
X87820367Y51993743D01*
X87823320Y52019953D01*
X87840564Y52172995D01*
X87840564Y52173002D01*
X87820368Y52352248D01*
X87820367Y52352253D01*
X87758488Y52529093D01*
X87760640Y52529847D01*
X87751033Y52588108D01*
X87759394Y52616584D01*
X87758488Y52616901D01*
X87771036Y52652762D01*
X87820367Y52793741D01*
X87820368Y52793747D01*
X87840564Y52972993D01*
X87840564Y52973000D01*
X87820368Y53152246D01*
X87820365Y53152259D01*
X87758488Y53329091D01*
X87760636Y53329843D01*
X87751034Y53388124D01*
X87759392Y53416584D01*
X87758488Y53416900D01*
X87820365Y53593733D01*
X87820368Y53593746D01*
X87840564Y53772992D01*
X87840564Y53772999D01*
X87820368Y53952245D01*
X87820367Y53952250D01*
X87760787Y54122519D01*
X87664814Y54275258D01*
X87537261Y54402811D01*
X87384523Y54498783D01*
X87384519Y54498785D01*
X87318043Y54522046D01*
X87261267Y54562768D01*
X87235520Y54627720D01*
X87234998Y54639087D01*
X87234998Y60706907D01*
X87254683Y60773946D01*
X87307487Y60819701D01*
X87318044Y60823949D01*
X87384521Y60847210D01*
X87537261Y60943183D01*
X87664815Y61070737D01*
X87760788Y61223477D01*
X87820367Y61393744D01*
X87820367Y61393747D01*
X87820368Y61393750D01*
X87840564Y61572996D01*
X87840564Y61573003D01*
X87820368Y61752249D01*
X87820365Y61752262D01*
X87758488Y61929094D01*
X87760636Y61929846D01*
X87751034Y61988127D01*
X87759392Y62016587D01*
X87758488Y62016903D01*
X87820365Y62193736D01*
X87820368Y62193749D01*
X87840564Y62372995D01*
X87840564Y62373002D01*
X87820368Y62552248D01*
X87820367Y62552253D01*
X87758488Y62729093D01*
X87760640Y62729847D01*
X87751033Y62788108D01*
X87759394Y62816584D01*
X87758488Y62816901D01*
X87820367Y62993742D01*
X87820368Y62993747D01*
X87840564Y63172993D01*
X87840564Y63173000D01*
X87820368Y63352246D01*
X87820367Y63352251D01*
X87760787Y63522520D01*
X87697349Y63623480D01*
X87664815Y63675258D01*
X87537261Y63802812D01*
X87489642Y63832733D01*
X87384523Y63898784D01*
X87384519Y63898786D01*
X87318043Y63922047D01*
X87261267Y63962769D01*
X87235520Y64027721D01*
X87234998Y64039088D01*
X87234998Y68306908D01*
X87254683Y68373947D01*
X87307487Y68419702D01*
X87318044Y68423950D01*
X87384521Y68447211D01*
X87537261Y68543184D01*
X87664815Y68670738D01*
X87760788Y68823478D01*
X87820367Y68993745D01*
X87832242Y69099139D01*
X87840564Y69172997D01*
X87840564Y69173004D01*
X87820368Y69352250D01*
X87820367Y69352255D01*
X87773309Y69486739D01*
X87760788Y69522522D01*
X87738264Y69558368D01*
X87668478Y69669432D01*
X87664815Y69675262D01*
X87537261Y69802816D01*
X87537258Y69802818D01*
X87384522Y69898789D01*
X87214253Y69958369D01*
X87214248Y69958370D01*
X87035003Y69978565D01*
X87034995Y69978565D01*
X86855749Y69958370D01*
X86855744Y69958369D01*
X86685475Y69898789D01*
X86532736Y69802816D01*
X86405183Y69675263D01*
X86309210Y69522524D01*
X86285950Y69456048D01*
X86245228Y69399272D01*
X86180276Y69373524D01*
X86168908Y69373002D01*
X76201090Y69373002D01*
X76134051Y69392687D01*
X76088296Y69445491D01*
X76084048Y69456048D01*
X76060787Y69522524D01*
X75968478Y69669432D01*
X75964815Y69675262D01*
X75837261Y69802816D01*
X75837258Y69802818D01*
X75684522Y69898789D01*
X75514253Y69958369D01*
X75514248Y69958370D01*
X75335003Y69978565D01*
X75334995Y69978565D01*
X75155749Y69958370D01*
X75155736Y69958367D01*
X74978905Y69896490D01*
X74978155Y69898634D01*
X74919838Y69889040D01*
X74891406Y69897391D01*
X74891092Y69896490D01*
X74714260Y69958367D01*
X74714247Y69958370D01*
X74535002Y69978565D01*
X74534994Y69978565D01*
X74355748Y69958370D01*
X74355743Y69958369D01*
X74185474Y69898789D01*
X74032735Y69802816D01*
X73905182Y69675263D01*
X73809209Y69522524D01*
X73785949Y69456048D01*
X73745227Y69399272D01*
X73680275Y69373524D01*
X73668907Y69373002D01*
X72301085Y69373002D01*
X72234046Y69392687D01*
X72188291Y69445491D01*
X72184043Y69456048D01*
X72160782Y69522524D01*
X72068473Y69669432D01*
X72064810Y69675262D01*
X71937256Y69802816D01*
X71937253Y69802818D01*
X71784517Y69898789D01*
X71614248Y69958369D01*
X71614243Y69958370D01*
X71434998Y69978565D01*
X71434990Y69978565D01*
X71255744Y69958370D01*
X71255739Y69958369D01*
X71085468Y69898788D01*
X71000966Y69845692D01*
X70933730Y69826692D01*
X70869024Y69845692D01*
X70784521Y69898788D01*
X70614250Y69958369D01*
X70614245Y69958370D01*
X70435000Y69978565D01*
X70434992Y69978565D01*
X70255746Y69958370D01*
X70255733Y69958367D01*
X70085475Y69898791D01*
X70000967Y69845691D01*
X69933730Y69826691D01*
X69869025Y69845691D01*
X69784516Y69898791D01*
X69614258Y69958367D01*
X69614245Y69958370D01*
X69435000Y69978565D01*
X69434992Y69978565D01*
X69255746Y69958370D01*
X69255741Y69958369D01*
X69085470Y69898788D01*
X69000968Y69845692D01*
X68933732Y69826692D01*
X68869026Y69845692D01*
X68784523Y69898788D01*
X68614252Y69958369D01*
X68614247Y69958370D01*
X68435002Y69978565D01*
X68434994Y69978565D01*
X68255748Y69958370D01*
X68255735Y69958367D01*
X68085479Y69898791D01*
X68085470Y69898787D01*
X68000968Y69845691D01*
X67933731Y69826691D01*
X67869025Y69845691D01*
X67784520Y69898789D01*
X67614251Y69958369D01*
X67614246Y69958370D01*
X67435001Y69978565D01*
X67434993Y69978565D01*
X67255747Y69958370D01*
X67255734Y69958367D01*
X67085476Y69898791D01*
X67000968Y69845691D01*
X66933731Y69826691D01*
X66869026Y69845691D01*
X66784517Y69898791D01*
X66614259Y69958367D01*
X66614246Y69958370D01*
X66435001Y69978565D01*
X66434993Y69978565D01*
X66255747Y69958370D01*
X66255742Y69958369D01*
X66085471Y69898788D01*
X66000969Y69845692D01*
X65933733Y69826692D01*
X65869027Y69845692D01*
X65784524Y69898788D01*
X65614253Y69958369D01*
X65614248Y69958370D01*
X65435003Y69978565D01*
X65434995Y69978565D01*
X65255749Y69958370D01*
X65255736Y69958367D01*
X65085480Y69898791D01*
X65085471Y69898787D01*
X65000969Y69845691D01*
X64933732Y69826691D01*
X64869026Y69845691D01*
X64784521Y69898789D01*
X64614252Y69958369D01*
X64614247Y69958370D01*
X64435002Y69978565D01*
X64434994Y69978565D01*
X64255748Y69958370D01*
X64255743Y69958369D01*
X64085474Y69898789D01*
X63932735Y69802816D01*
X63805182Y69675263D01*
X63709209Y69522524D01*
X63685949Y69456048D01*
X63645227Y69399272D01*
X63580275Y69373524D01*
X63568907Y69373002D01*
X58301093Y69373002D01*
X58234054Y69392687D01*
X58188299Y69445491D01*
X58184051Y69456048D01*
X58160790Y69522524D01*
X58068481Y69669432D01*
X58064818Y69675262D01*
X57937264Y69802816D01*
X57937261Y69802818D01*
X57784525Y69898789D01*
X57614256Y69958369D01*
X57614251Y69958370D01*
X57435006Y69978565D01*
X57434998Y69978565D01*
X57255752Y69958370D01*
X57255747Y69958369D01*
X57085478Y69898789D01*
X56932739Y69802816D01*
X56805186Y69675263D01*
X56709213Y69522524D01*
X56685953Y69456048D01*
X56645231Y69399272D01*
X56580279Y69373524D01*
X56568911Y69373002D01*
X51901092Y69373002D01*
X51834053Y69392687D01*
X51788298Y69445491D01*
X51784050Y69456048D01*
X51760789Y69522524D01*
X51756710Y69529016D01*
X51664816Y69675264D01*
X51537262Y69802818D01*
X51535002Y69804238D01*
X51384523Y69898791D01*
X51214254Y69958371D01*
X51214249Y69958372D01*
X51035004Y69978567D01*
X51034996Y69978567D01*
X50855750Y69958372D01*
X50855737Y69958369D01*
X50685481Y69898793D01*
X50685472Y69898789D01*
X50600970Y69845693D01*
X50533733Y69826693D01*
X50469027Y69845693D01*
X50384522Y69898791D01*
X50214253Y69958371D01*
X50214248Y69958372D01*
X50035003Y69978567D01*
X50034995Y69978567D01*
X49855749Y69958372D01*
X49855744Y69958371D01*
X49685475Y69898791D01*
X49532736Y69802818D01*
X49405183Y69675265D01*
X49309209Y69522524D01*
X49285949Y69456048D01*
X49245227Y69399272D01*
X49180275Y69373524D01*
X49168907Y69373002D01*
X48118033Y69373002D01*
X48050994Y69392687D01*
X48040721Y69400054D01*
X48037257Y69402817D01*
X47884519Y69498789D01*
X47714250Y69558369D01*
X47714245Y69558370D01*
X47535000Y69578565D01*
X47534992Y69578565D01*
X47355746Y69558370D01*
X47355741Y69558369D01*
X47185472Y69498789D01*
X47032733Y69402816D01*
X46905180Y69275263D01*
X46809207Y69122524D01*
X46749627Y68952255D01*
X46749626Y68952250D01*
X46729431Y68773004D01*
X46729431Y68772997D01*
X46749626Y68593751D01*
X46749627Y68593746D01*
X46809207Y68423477D01*
X46827169Y68394891D01*
X46905180Y68270738D01*
X47032734Y68143184D01*
X47185474Y68047211D01*
X47251954Y68023949D01*
X47308730Y67983227D01*
X47334477Y67918274D01*
X47334999Y67906907D01*
X47334999Y67239093D01*
X47315314Y67172054D01*
X47262510Y67126299D01*
X47251955Y67122052D01*
X47185472Y67098789D01*
X47185471Y67098788D01*
X47032733Y67002816D01*
X46905180Y66875263D01*
X46809207Y66722524D01*
X46749627Y66552255D01*
X46749626Y66552250D01*
X46729431Y66373004D01*
X46729431Y66372997D01*
X46749626Y66193751D01*
X46749627Y66193746D01*
X46809207Y66023477D01*
X46905180Y65870738D01*
X46915237Y65860681D01*
X46948722Y65799358D01*
X46943738Y65729666D01*
X46915237Y65685319D01*
X46905180Y65675263D01*
X46809207Y65522524D01*
X46749627Y65352255D01*
X46749626Y65352250D01*
X46729431Y65173004D01*
X46729431Y65172997D01*
X46749626Y64993751D01*
X46749627Y64993746D01*
X46809207Y64823477D01*
X46905180Y64670738D01*
X46915236Y64660682D01*
X46948721Y64599359D01*
X46943737Y64529667D01*
X46915236Y64485320D01*
X46905180Y64475265D01*
X46809207Y64322526D01*
X46749627Y64152257D01*
X46749626Y64152252D01*
X46729431Y63973006D01*
X46729431Y63972999D01*
X46749626Y63793753D01*
X46749627Y63793748D01*
X46809207Y63623479D01*
X46905180Y63470740D01*
X46915237Y63460683D01*
X46948722Y63399360D01*
X46943738Y63329668D01*
X46915237Y63285321D01*
X46905180Y63275265D01*
X46809207Y63122526D01*
X46749627Y62952257D01*
X46749626Y62952252D01*
X46729431Y62773006D01*
X46729431Y62772999D01*
X46749626Y62593753D01*
X46749627Y62593748D01*
X46809207Y62423479D01*
X46905180Y62270740D01*
X46915238Y62260682D01*
X46948723Y62199359D01*
X46943739Y62129667D01*
X46915244Y62085326D01*
X46905185Y62075266D01*
X46905182Y62075263D01*
X46809207Y61922521D01*
X46749627Y61752252D01*
X46749626Y61752247D01*
X46729431Y61573001D01*
X46729431Y61572994D01*
X46749626Y61393748D01*
X46749627Y61393743D01*
X46809207Y61223474D01*
X46905180Y61070735D01*
X46915237Y61060678D01*
X46948722Y60999355D01*
X46943738Y60929663D01*
X46915237Y60885316D01*
X46905180Y60875260D01*
X46809207Y60722521D01*
X46749627Y60552252D01*
X46749626Y60552247D01*
X46729431Y60373001D01*
X46729431Y60372994D01*
X46749626Y60193748D01*
X46749627Y60193743D01*
X46809207Y60023474D01*
X46905180Y59870735D01*
X46915235Y59860680D01*
X46948720Y59799357D01*
X46943736Y59729665D01*
X46915235Y59685318D01*
X46905178Y59675262D01*
X46809205Y59522523D01*
X46749625Y59352254D01*
X46749624Y59352249D01*
X46729429Y59173003D01*
X39116733Y59173003D01*
X39164784Y59249475D01*
X39224363Y59419742D01*
X39224364Y59419748D01*
X39244560Y59598994D01*
X39244560Y59599001D01*
X39224364Y59778247D01*
X39224363Y59778252D01*
X39164783Y59948521D01*
X39103988Y60045275D01*
X39068811Y60101259D01*
X38941257Y60228813D01*
X38788518Y60324786D01*
X38618249Y60384366D01*
X38618244Y60384367D01*
X38438999Y60404562D01*
X38438991Y60404562D01*
X38259745Y60384367D01*
X38259740Y60384366D01*
X38089471Y60324786D01*
X37936731Y60228812D01*
X37933276Y60226056D01*
X37868590Y60199645D01*
X37855960Y60199000D01*
X30322030Y60199000D01*
X30254991Y60218685D01*
X30244714Y60226056D01*
X30241258Y60228812D01*
X30241257Y60228813D01*
X30184491Y60264482D01*
X30088518Y60324786D01*
X29918249Y60384366D01*
X29918244Y60384367D01*
X29738999Y60404562D01*
X29738991Y60404562D01*
X29559745Y60384367D01*
X29559740Y60384366D01*
X29389471Y60324786D01*
X29236732Y60228813D01*
X29109179Y60101260D01*
X29013206Y59948521D01*
X28953626Y59778252D01*
X28953625Y59778247D01*
X28933430Y59599001D01*
X28933430Y59598994D01*
X28953625Y59419748D01*
X28953628Y59419735D01*
X29013204Y59249478D01*
X29034888Y59214967D01*
X29053887Y59147730D01*
X29034888Y59083027D01*
X29013204Y59048517D01*
X28953628Y58878260D01*
X28953625Y58878247D01*
X28933430Y58699001D01*
X28933430Y58698994D01*
X28953625Y58519748D01*
X28953626Y58519743D01*
X29013206Y58349474D01*
X29030141Y58322523D01*
X29109179Y58196735D01*
X29236733Y58069181D01*
X29389473Y57973208D01*
X29455949Y57949947D01*
X29512725Y57909225D01*
X29538473Y57844273D01*
X29538995Y57832905D01*
X29538995Y57098997D01*
X37855958Y57098997D01*
X37922997Y57079312D01*
X37933270Y57071945D01*
X37936732Y57069184D01*
X37936733Y57069183D01*
X38089473Y56973210D01*
X38249995Y56917041D01*
X38306771Y56876319D01*
X38332518Y56811366D01*
X38319062Y56742805D01*
X38270675Y56692402D01*
X38209040Y56675999D01*
X29766125Y56675999D01*
X29766118Y56675998D01*
X29706511Y56669591D01*
X29571666Y56619297D01*
X29571659Y56619293D01*
X29456450Y56533047D01*
X29456447Y56533044D01*
X29370201Y56417835D01*
X29370197Y56417828D01*
X29319903Y56282982D01*
X29313496Y56223383D01*
X29313495Y56223364D01*
X29313495Y49942629D01*
X29313496Y49942623D01*
X29319903Y49883016D01*
X29370197Y49748171D01*
X29370199Y49748168D01*
X29402732Y49704710D01*
X29427150Y49639246D01*
X29420508Y49589443D01*
X29378626Y49469754D01*
X29378625Y49469749D01*
X29358430Y49290503D01*
X29358430Y49290496D01*
X29378625Y49111250D01*
X29378628Y49111237D01*
X29438204Y48940979D01*
X29491304Y48856470D01*
X29510304Y48789233D01*
X29491304Y48724528D01*
X29438204Y48640020D01*
X29378628Y48469762D01*
X29378625Y48469749D01*
X29358430Y48290503D01*
X29358430Y48290496D01*
X29378625Y48111250D01*
X29378627Y48111242D01*
X29420507Y47991555D01*
X29424068Y47921776D01*
X29402733Y47876292D01*
X29370200Y47832834D01*
X29370197Y47832828D01*
X29319903Y47697982D01*
X29313496Y47638383D01*
X29313495Y47638364D01*
X29313495Y46427630D01*
X29313496Y46427623D01*
X29319903Y46368016D01*
X29370197Y46233171D01*
X29370201Y46233164D01*
X29456447Y46117955D01*
X29456450Y46117952D01*
X29571659Y46031706D01*
X29571666Y46031702D01*
X29661811Y45998080D01*
X29717745Y45956209D01*
X29742162Y45890745D01*
X29727310Y45822472D01*
X29677905Y45773066D01*
X29609633Y45758214D01*
X29607671Y45758370D01*
X29563000Y45762278D01*
X29562996Y45762278D01*
X29417680Y45749565D01*
X29345021Y45743208D01*
X29345018Y45743208D01*
X29133675Y45686579D01*
X29133668Y45686577D01*
X29133668Y45686576D01*
X29108629Y45674901D01*
X28935359Y45594103D01*
X28935355Y45594101D01*
X28756119Y45468599D01*
X28601400Y45313880D01*
X28475898Y45134644D01*
X28475896Y45134640D01*
X28383424Y44936333D01*
X28383420Y44936324D01*
X28326791Y44724981D01*
X28326791Y44724977D01*
X28307721Y44507004D01*
X21832190Y44507004D01*
X21886047Y44560861D01*
X22016568Y44747266D01*
X22112739Y44953504D01*
X22171635Y45173308D01*
X22191468Y45400000D01*
X22189497Y45422523D01*
X22185280Y45470728D01*
X22171635Y45626692D01*
X22112739Y45846496D01*
X22016568Y46052734D01*
X21886047Y46239139D01*
X21886045Y46239142D01*
X21725141Y46400046D01*
X21538734Y46530568D01*
X21538728Y46530571D01*
X21480725Y46557618D01*
X21428285Y46603790D01*
X21409133Y46670983D01*
X21429348Y46737865D01*
X21480725Y46782382D01*
X21538734Y46809432D01*
X21725139Y46939953D01*
X21886047Y47100861D01*
X22016568Y47287266D01*
X22112739Y47493504D01*
X22171635Y47713308D01*
X22191468Y47940000D01*
X22171635Y48166692D01*
X22116357Y48372995D01*
X22112741Y48386489D01*
X22112738Y48386498D01*
X22016568Y48592733D01*
X22016567Y48592735D01*
X21983457Y48640021D01*
X21886047Y48779139D01*
X21886045Y48779142D01*
X21725141Y48940046D01*
X21538734Y49070568D01*
X21538728Y49070571D01*
X21480725Y49097618D01*
X21428285Y49143790D01*
X21409133Y49210983D01*
X21429348Y49277865D01*
X21480725Y49322382D01*
X21538734Y49349432D01*
X21725139Y49479953D01*
X21886047Y49640861D01*
X22016568Y49827266D01*
X22112739Y50033504D01*
X22171635Y50253308D01*
X22191468Y50480000D01*
X22171635Y50706692D01*
X22112739Y50926496D01*
X22016568Y51132734D01*
X21886047Y51319139D01*
X21886045Y51319142D01*
X21725141Y51480046D01*
X21538734Y51610568D01*
X21538728Y51610571D01*
X21480725Y51637618D01*
X21428285Y51683790D01*
X21409133Y51750983D01*
X21429348Y51817865D01*
X21480725Y51862382D01*
X21488216Y51865875D01*
X21538734Y51889432D01*
X21725139Y52019953D01*
X21886047Y52180861D01*
X22016568Y52367266D01*
X22112739Y52573504D01*
X22171635Y52793308D01*
X22191468Y53020000D01*
X22171635Y53246692D01*
X22112739Y53466496D01*
X22016568Y53672734D01*
X21886047Y53859139D01*
X21886045Y53859142D01*
X21725141Y54020046D01*
X21538734Y54150568D01*
X21538728Y54150571D01*
X21480725Y54177618D01*
X21428285Y54223790D01*
X21409133Y54290983D01*
X21429348Y54357865D01*
X21480725Y54402382D01*
X21481645Y54402811D01*
X21538734Y54429432D01*
X21725139Y54559953D01*
X21886047Y54720861D01*
X22016568Y54907266D01*
X22112739Y55113504D01*
X22171635Y55333308D01*
X22191468Y55560000D01*
X22190331Y55572991D01*
X22185801Y55624770D01*
X22171635Y55786692D01*
X22112739Y56006496D01*
X22016568Y56212734D01*
X21886047Y56399139D01*
X21886045Y56399142D01*
X21725141Y56560046D01*
X21538734Y56690568D01*
X21538728Y56690571D01*
X21480725Y56717618D01*
X21428285Y56763790D01*
X21409133Y56830983D01*
X21429348Y56897865D01*
X21480725Y56942382D01*
X21501874Y56952244D01*
X21538734Y56969432D01*
X21725139Y57099953D01*
X21886047Y57260861D01*
X22016568Y57447266D01*
X22112739Y57653504D01*
X22171635Y57873308D01*
X22191468Y58100000D01*
X22171635Y58326692D01*
X22112739Y58546496D01*
X22016568Y58752734D01*
X21886047Y58939139D01*
X21886045Y58939142D01*
X21725141Y59100046D01*
X21538734Y59230568D01*
X21538728Y59230571D01*
X21498188Y59249475D01*
X21480724Y59257619D01*
X21428285Y59303790D01*
X21409133Y59370983D01*
X21429348Y59437865D01*
X21480725Y59482382D01*
X21538734Y59509432D01*
X21725139Y59639953D01*
X21886047Y59800861D01*
X22016568Y59987266D01*
X22112739Y60193504D01*
X22171635Y60413308D01*
X22191468Y60640000D01*
X22171635Y60866692D01*
X22112739Y61086496D01*
X22016568Y61292734D01*
X21886047Y61479139D01*
X21886045Y61479142D01*
X21725141Y61640046D01*
X21538734Y61770568D01*
X21538728Y61770571D01*
X21480725Y61797618D01*
X21428285Y61843790D01*
X21409133Y61910983D01*
X21429348Y61977865D01*
X21480725Y62022382D01*
X21538734Y62049432D01*
X21725139Y62179953D01*
X21886047Y62340861D01*
X22016568Y62527266D01*
X22112739Y62733504D01*
X22171635Y62953308D01*
X22191468Y63180000D01*
X22171635Y63406692D01*
X22126916Y63573585D01*
X22112741Y63626489D01*
X22112738Y63626498D01*
X22034748Y63793747D01*
X22016568Y63832734D01*
X21886047Y64019139D01*
X21886045Y64019142D01*
X21725141Y64180046D01*
X21538734Y64310568D01*
X21538728Y64310571D01*
X21480725Y64337618D01*
X21428285Y64383790D01*
X21409133Y64450983D01*
X21429348Y64517865D01*
X21480725Y64562382D01*
X21538734Y64589432D01*
X21725139Y64719953D01*
X21886047Y64880861D01*
X22016568Y65067266D01*
X22112739Y65273504D01*
X22171635Y65493308D01*
X22191468Y65720000D01*
X22171635Y65946692D01*
X22112739Y66166496D01*
X22016568Y66372734D01*
X21886047Y66559139D01*
X21886045Y66559142D01*
X21725141Y66720046D01*
X21538734Y66850568D01*
X21538728Y66850571D01*
X21485778Y66875262D01*
X21480724Y66877619D01*
X21428285Y66923790D01*
X21409133Y66990983D01*
X21429348Y67057865D01*
X21480725Y67102382D01*
X21538734Y67129432D01*
X21725139Y67259953D01*
X21886047Y67420861D01*
X22016568Y67607266D01*
X22112739Y67813504D01*
X22171635Y68033308D01*
X22191468Y68260000D01*
X22171635Y68486692D01*
X22112739Y68706496D01*
X22016568Y68912734D01*
X21886047Y69099139D01*
X21886045Y69099142D01*
X21725141Y69260046D01*
X21538734Y69390568D01*
X21538728Y69390571D01*
X21480725Y69417618D01*
X21428285Y69463790D01*
X21409133Y69530983D01*
X21429348Y69597865D01*
X21480725Y69642382D01*
X21538734Y69669432D01*
X21725139Y69799953D01*
X21886047Y69960861D01*
X22016568Y70147266D01*
X22112739Y70353504D01*
X22171635Y70573308D01*
X22191468Y70800000D01*
X22171635Y71026692D01*
X22112739Y71246496D01*
X22016568Y71452734D01*
X21886047Y71639139D01*
X21886045Y71639142D01*
X21725141Y71800046D01*
X21538734Y71930568D01*
X21538732Y71930569D01*
X21332497Y72026739D01*
X21332488Y72026742D01*
X21112697Y72085634D01*
X21112693Y72085635D01*
X21112692Y72085635D01*
X21112691Y72085636D01*
X21112686Y72085636D01*
X20886002Y72105468D01*
X20885998Y72105468D01*
X20659313Y72085636D01*
X20659302Y72085634D01*
X20439511Y72026742D01*
X20439502Y72026739D01*
X20233267Y71930569D01*
X20233265Y71930568D01*
X20046858Y71800046D01*
X19885954Y71639142D01*
X19755432Y71452735D01*
X19755431Y71452733D01*
X19728382Y71394725D01*
X19682209Y71342286D01*
X19615016Y71323134D01*
X19548135Y71343350D01*
X19503618Y71394725D01*
X19476568Y71452733D01*
X19476567Y71452735D01*
X19346045Y71639142D01*
X19185141Y71800046D01*
X18998734Y71930568D01*
X18998732Y71930569D01*
X18792497Y72026739D01*
X18792488Y72026742D01*
X18572697Y72085634D01*
X18572693Y72085635D01*
X18572692Y72085635D01*
X18572691Y72085636D01*
X18572686Y72085636D01*
X18346002Y72105468D01*
X18345998Y72105468D01*
X18119313Y72085636D01*
X18119302Y72085634D01*
X17899511Y72026742D01*
X17899502Y72026739D01*
X17693267Y71930569D01*
X17693265Y71930568D01*
X17506858Y71800046D01*
X17345954Y71639142D01*
X17215432Y71452735D01*
X17215431Y71452733D01*
X17119261Y71246498D01*
X17119258Y71246489D01*
X17060366Y71026698D01*
X17060364Y71026687D01*
X17040532Y70800002D01*
X13601468Y70800002D01*
X13581635Y71026692D01*
X13522739Y71246496D01*
X13426568Y71452734D01*
X13296047Y71639139D01*
X13296045Y71639142D01*
X13135141Y71800046D01*
X12948734Y71930568D01*
X12948732Y71930569D01*
X12742497Y72026739D01*
X12742488Y72026742D01*
X12522697Y72085634D01*
X12522693Y72085635D01*
X12522692Y72085635D01*
X12522691Y72085636D01*
X12522686Y72085636D01*
X12296002Y72105468D01*
X12295998Y72105468D01*
X12069313Y72085636D01*
X12069302Y72085634D01*
X11849511Y72026742D01*
X11849502Y72026739D01*
X11643267Y71930569D01*
X11643265Y71930568D01*
X11456858Y71800046D01*
X11295954Y71639142D01*
X11165432Y71452735D01*
X11165431Y71452733D01*
X11138382Y71394725D01*
X11092209Y71342286D01*
X11025016Y71323134D01*
X10958135Y71343350D01*
X10913618Y71394725D01*
X10886568Y71452733D01*
X10886567Y71452735D01*
X10756045Y71639142D01*
X10595141Y71800046D01*
X10408734Y71930568D01*
X10408732Y71930569D01*
X10202497Y72026739D01*
X10202488Y72026742D01*
X9982697Y72085634D01*
X9982693Y72085635D01*
X9982692Y72085635D01*
X9982691Y72085636D01*
X9982686Y72085636D01*
X9756002Y72105468D01*
X9755998Y72105468D01*
X9529313Y72085636D01*
X9529302Y72085634D01*
X9309511Y72026742D01*
X9309502Y72026739D01*
X9103267Y71930569D01*
X9103265Y71930568D01*
X8916858Y71800046D01*
X8755954Y71639142D01*
X8625432Y71452735D01*
X8625431Y71452733D01*
X8529261Y71246498D01*
X8529258Y71246489D01*
X8470366Y71026698D01*
X8470364Y71026687D01*
X8450532Y70800002D01*
X500500Y70800002D01*
X500500Y78700006D01*
X11250859Y78700006D01*
X11250859Y78699995D01*
X11271385Y78452271D01*
X11271387Y78452262D01*
X11332412Y78211283D01*
X11432266Y77983636D01*
X11532564Y77830118D01*
X12078421Y78375976D01*
X12091359Y78344742D01*
X12173437Y78221903D01*
X12277903Y78117437D01*
X12400742Y78035359D01*
X12431974Y78022423D01*
X11885942Y77476391D01*
X11932768Y77439945D01*
X11932770Y77439944D01*
X12151385Y77321636D01*
X12151396Y77321631D01*
X12386506Y77240917D01*
X12631707Y77200000D01*
X12880293Y77200000D01*
X13125493Y77240917D01*
X13360603Y77321631D01*
X13360614Y77321636D01*
X13579228Y77439943D01*
X13579231Y77439945D01*
X13626056Y77476391D01*
X13080025Y78022422D01*
X13111258Y78035359D01*
X13234097Y78117437D01*
X13338563Y78221903D01*
X13420641Y78344742D01*
X13433578Y78375975D01*
X13979434Y77830118D01*
X14079731Y77983631D01*
X14179587Y78211283D01*
X14240612Y78452262D01*
X14240614Y78452271D01*
X14261141Y78699995D01*
X14261141Y78700006D01*
X19380357Y78700006D01*
X19380357Y78699995D01*
X19400890Y78452188D01*
X19400892Y78452176D01*
X19461936Y78211119D01*
X19561826Y77983394D01*
X19697833Y77775218D01*
X19697836Y77775215D01*
X19866256Y77592262D01*
X20062491Y77439526D01*
X20062493Y77439525D01*
X20280332Y77321636D01*
X20281190Y77321172D01*
X20500141Y77246006D01*
X20514964Y77240917D01*
X20516386Y77240429D01*
X20761665Y77199500D01*
X21010335Y77199500D01*
X21255614Y77240429D01*
X21490810Y77321172D01*
X21709509Y77439526D01*
X21905744Y77592262D01*
X22074164Y77775215D01*
X22210173Y77983393D01*
X22310063Y78211119D01*
X22371108Y78452179D01*
X22371116Y78452271D01*
X22391643Y78699995D01*
X22391643Y78700006D01*
X22371109Y78947813D01*
X22371107Y78947825D01*
X22310063Y79188882D01*
X22210173Y79416607D01*
X22074166Y79624783D01*
X22052557Y79648256D01*
X21905744Y79807738D01*
X21709509Y79960474D01*
X21709507Y79960475D01*
X21709506Y79960476D01*
X21490811Y80078828D01*
X21490802Y80078831D01*
X21255616Y80159571D01*
X21010335Y80200500D01*
X20761665Y80200500D01*
X20516383Y80159571D01*
X20281197Y80078831D01*
X20281188Y80078828D01*
X20062493Y79960476D01*
X19866257Y79807739D01*
X19697833Y79624783D01*
X19561826Y79416607D01*
X19461936Y79188882D01*
X19400892Y78947825D01*
X19400890Y78947813D01*
X19380357Y78700006D01*
X14261141Y78700006D01*
X14240614Y78947730D01*
X14240612Y78947739D01*
X14179587Y79188718D01*
X14079731Y79416370D01*
X13979434Y79569884D01*
X13433577Y79024027D01*
X13420641Y79055258D01*
X13338563Y79178097D01*
X13234097Y79282563D01*
X13111258Y79364641D01*
X13080025Y79377579D01*
X13626057Y79923610D01*
X13626056Y79923611D01*
X13579229Y79960057D01*
X13360614Y80078365D01*
X13360603Y80078370D01*
X13125493Y80159084D01*
X12880293Y80200000D01*
X12631707Y80200000D01*
X12386506Y80159084D01*
X12151396Y80078370D01*
X12151390Y80078368D01*
X11932761Y79960051D01*
X11885942Y79923612D01*
X11885942Y79923610D01*
X12431974Y79377579D01*
X12400742Y79364641D01*
X12277903Y79282563D01*
X12173437Y79178097D01*
X12091359Y79055258D01*
X12078422Y79024026D01*
X11532564Y79569884D01*
X11432267Y79416368D01*
X11332412Y79188718D01*
X11271387Y78947739D01*
X11271385Y78947730D01*
X11250859Y78700006D01*
X500500Y78700006D01*
X500500Y81600006D01*
X13580859Y81600006D01*
X13580859Y81599995D01*
X13601385Y81352271D01*
X13601387Y81352262D01*
X13662412Y81111283D01*
X13762266Y80883636D01*
X13862564Y80730118D01*
X14408421Y81275976D01*
X14421359Y81244742D01*
X14503437Y81121903D01*
X14607903Y81017437D01*
X14730742Y80935359D01*
X14761974Y80922423D01*
X14215942Y80376391D01*
X14262768Y80339945D01*
X14262770Y80339944D01*
X14481385Y80221636D01*
X14481396Y80221631D01*
X14716506Y80140917D01*
X14961707Y80100000D01*
X15210293Y80100000D01*
X15455493Y80140917D01*
X15690603Y80221631D01*
X15690614Y80221636D01*
X15909228Y80339943D01*
X15909231Y80339945D01*
X15956056Y80376391D01*
X15410025Y80922422D01*
X15441258Y80935359D01*
X15564097Y81017437D01*
X15668563Y81121903D01*
X15750641Y81244742D01*
X15763577Y81275975D01*
X16309434Y80730118D01*
X16409731Y80883631D01*
X16509587Y81111283D01*
X16570612Y81352262D01*
X16570614Y81352271D01*
X16591141Y81599995D01*
X16591141Y81600006D01*
X16570614Y81847730D01*
X16570612Y81847739D01*
X16509587Y82088718D01*
X16409731Y82316370D01*
X16309434Y82469884D01*
X15763577Y81924027D01*
X15750641Y81955258D01*
X15668563Y82078097D01*
X15564097Y82182563D01*
X15441258Y82264641D01*
X15410025Y82277579D01*
X15956057Y82823610D01*
X15956056Y82823611D01*
X15909229Y82860057D01*
X15690614Y82978365D01*
X15690603Y82978370D01*
X15455493Y83059084D01*
X15210293Y83100000D01*
X14961707Y83100000D01*
X14716506Y83059084D01*
X14481396Y82978370D01*
X14481390Y82978368D01*
X14262761Y82860051D01*
X14215942Y82823612D01*
X14215942Y82823610D01*
X14761974Y82277579D01*
X14730742Y82264641D01*
X14607903Y82182563D01*
X14503437Y82078097D01*
X14421359Y81955258D01*
X14408422Y81924026D01*
X13862564Y82469884D01*
X13762267Y82316368D01*
X13662412Y82088718D01*
X13601387Y81847739D01*
X13601385Y81847730D01*
X13580859Y81600006D01*
X500500Y81600006D01*
X500500Y84500006D01*
X11250357Y84500006D01*
X11250357Y84499995D01*
X11270890Y84252188D01*
X11270892Y84252176D01*
X11331936Y84011119D01*
X11431826Y83783394D01*
X11567833Y83575218D01*
X11567836Y83575215D01*
X11736256Y83392262D01*
X11932491Y83239526D01*
X12151190Y83121172D01*
X12386386Y83040429D01*
X12631665Y82999500D01*
X12880335Y82999500D01*
X13125614Y83040429D01*
X13360810Y83121172D01*
X13579509Y83239526D01*
X13775744Y83392262D01*
X13944164Y83575215D01*
X14080173Y83783393D01*
X14180063Y84011119D01*
X14241108Y84252179D01*
X14261643Y84500000D01*
X14261643Y84500006D01*
X19380357Y84500006D01*
X19380357Y84499995D01*
X19400890Y84252188D01*
X19400892Y84252176D01*
X19461936Y84011119D01*
X19561826Y83783394D01*
X19697833Y83575218D01*
X19697836Y83575215D01*
X19866256Y83392262D01*
X20062491Y83239526D01*
X20281190Y83121172D01*
X20516386Y83040429D01*
X20761665Y82999500D01*
X21010335Y82999500D01*
X21255614Y83040429D01*
X21490810Y83121172D01*
X21709509Y83239526D01*
X21905744Y83392262D01*
X22074164Y83575215D01*
X22210173Y83783393D01*
X22310063Y84011119D01*
X22371108Y84252179D01*
X22391643Y84500000D01*
X22371108Y84747821D01*
X22310063Y84988881D01*
X22210173Y85216607D01*
X22074166Y85424783D01*
X22052557Y85448256D01*
X21905744Y85607738D01*
X21709509Y85760474D01*
X21709507Y85760475D01*
X21709506Y85760476D01*
X21490811Y85878828D01*
X21490802Y85878831D01*
X21255616Y85959571D01*
X21010335Y86000500D01*
X20761665Y86000500D01*
X20516383Y85959571D01*
X20281197Y85878831D01*
X20281188Y85878828D01*
X20062493Y85760476D01*
X19866257Y85607739D01*
X19697833Y85424783D01*
X19561826Y85216607D01*
X19461936Y84988882D01*
X19400892Y84747825D01*
X19400890Y84747813D01*
X19380357Y84500006D01*
X14261643Y84500006D01*
X14241108Y84747821D01*
X14180063Y84988881D01*
X14080173Y85216607D01*
X13944166Y85424783D01*
X13922557Y85448256D01*
X13775744Y85607738D01*
X13579509Y85760474D01*
X13579507Y85760475D01*
X13579506Y85760476D01*
X13360811Y85878828D01*
X13360802Y85878831D01*
X13125616Y85959571D01*
X12880335Y86000500D01*
X12631665Y86000500D01*
X12386383Y85959571D01*
X12151197Y85878831D01*
X12151188Y85878828D01*
X11932493Y85760476D01*
X11736257Y85607739D01*
X11567833Y85424783D01*
X11431826Y85216607D01*
X11331936Y84988882D01*
X11270892Y84747825D01*
X11270890Y84747813D01*
X11250357Y84500006D01*
X500500Y84500006D01*
X500500Y106375500D01*
X520185Y106442539D01*
X572989Y106488294D01*
X624500Y106499500D01*
X101375500Y106499500D01*
X101442539Y106479815D01*
G37*
G04 #@! TD.AperFunction*
G04 #@! TD*
G04 #@! TA.AperFunction,NonConductor*
G36*
X19683865Y70256652D02*
G01*
X19728382Y70205275D01*
X19755429Y70147272D01*
X19755432Y70147266D01*
X19885954Y69960859D01*
X20046858Y69799955D01*
X20046861Y69799953D01*
X20233266Y69669432D01*
X20291275Y69642382D01*
X20343714Y69596209D01*
X20362866Y69529016D01*
X20342650Y69462135D01*
X20291275Y69417618D01*
X20233267Y69390569D01*
X20233265Y69390568D01*
X20046858Y69260046D01*
X19885954Y69099142D01*
X19755432Y68912735D01*
X19755431Y68912733D01*
X19728382Y68854725D01*
X19682209Y68802286D01*
X19615016Y68783134D01*
X19548135Y68803350D01*
X19503618Y68854725D01*
X19476568Y68912733D01*
X19476567Y68912735D01*
X19346045Y69099142D01*
X19185141Y69260046D01*
X18998734Y69390568D01*
X18998728Y69390571D01*
X18940725Y69417618D01*
X18888285Y69463790D01*
X18869133Y69530983D01*
X18889348Y69597865D01*
X18940725Y69642382D01*
X18998734Y69669432D01*
X19185139Y69799953D01*
X19346047Y69960861D01*
X19476568Y70147266D01*
X19503618Y70205276D01*
X19549790Y70257715D01*
X19616983Y70276867D01*
X19683865Y70256652D01*
G37*
G04 #@! TD.AperFunction*
G04 #@! TA.AperFunction,NonConductor*
G36*
X19683865Y67716652D02*
G01*
X19728382Y67665275D01*
X19755429Y67607272D01*
X19755432Y67607266D01*
X19885954Y67420859D01*
X20046858Y67259955D01*
X20046861Y67259953D01*
X20233266Y67129432D01*
X20291275Y67102382D01*
X20343714Y67056209D01*
X20362866Y66989016D01*
X20342650Y66922135D01*
X20291275Y66877619D01*
X20286222Y66875262D01*
X20233267Y66850569D01*
X20233265Y66850568D01*
X20046858Y66720046D01*
X19885954Y66559142D01*
X19755432Y66372735D01*
X19755431Y66372733D01*
X19728382Y66314725D01*
X19682209Y66262286D01*
X19615016Y66243134D01*
X19548135Y66263350D01*
X19503618Y66314725D01*
X19476568Y66372733D01*
X19476567Y66372735D01*
X19476381Y66373000D01*
X19346047Y66559139D01*
X19346045Y66559142D01*
X19185141Y66720046D01*
X18998734Y66850568D01*
X18998728Y66850571D01*
X18945778Y66875262D01*
X18940724Y66877619D01*
X18888285Y66923790D01*
X18869133Y66990983D01*
X18889348Y67057865D01*
X18940725Y67102382D01*
X18998734Y67129432D01*
X19185139Y67259953D01*
X19346047Y67420861D01*
X19476568Y67607266D01*
X19503618Y67665276D01*
X19549790Y67717715D01*
X19616983Y67736867D01*
X19683865Y67716652D01*
G37*
G04 #@! TD.AperFunction*
G04 #@! TA.AperFunction,NonConductor*
G36*
X19683865Y65176652D02*
G01*
X19728382Y65125275D01*
X19755429Y65067272D01*
X19755432Y65067266D01*
X19885954Y64880859D01*
X20046858Y64719955D01*
X20046861Y64719953D01*
X20233266Y64589432D01*
X20291275Y64562382D01*
X20343714Y64516209D01*
X20362866Y64449016D01*
X20342650Y64382135D01*
X20291275Y64337618D01*
X20233267Y64310569D01*
X20233265Y64310568D01*
X20046858Y64180046D01*
X19885954Y64019142D01*
X19755432Y63832735D01*
X19755431Y63832733D01*
X19728382Y63774725D01*
X19682209Y63722286D01*
X19615016Y63703134D01*
X19548135Y63723350D01*
X19503618Y63774725D01*
X19494748Y63793747D01*
X19476568Y63832734D01*
X19346047Y64019139D01*
X19346045Y64019142D01*
X19185141Y64180046D01*
X18998734Y64310568D01*
X18998728Y64310571D01*
X18940725Y64337618D01*
X18888285Y64383790D01*
X18869133Y64450983D01*
X18889348Y64517865D01*
X18940725Y64562382D01*
X18998734Y64589432D01*
X19185139Y64719953D01*
X19346047Y64880861D01*
X19476568Y65067266D01*
X19503618Y65125276D01*
X19549790Y65177715D01*
X19616983Y65196867D01*
X19683865Y65176652D01*
G37*
G04 #@! TD.AperFunction*
G04 #@! TA.AperFunction,NonConductor*
G36*
X19683865Y62636652D02*
G01*
X19728382Y62585275D01*
X19755429Y62527272D01*
X19755432Y62527266D01*
X19885954Y62340859D01*
X20046858Y62179955D01*
X20046861Y62179953D01*
X20233266Y62049432D01*
X20291275Y62022382D01*
X20343714Y61976209D01*
X20362866Y61909016D01*
X20342650Y61842135D01*
X20291275Y61797618D01*
X20233267Y61770569D01*
X20233265Y61770568D01*
X20046858Y61640046D01*
X19885954Y61479142D01*
X19755432Y61292735D01*
X19755431Y61292733D01*
X19728382Y61234725D01*
X19682209Y61182286D01*
X19615016Y61163134D01*
X19548135Y61183350D01*
X19503618Y61234725D01*
X19476568Y61292733D01*
X19476567Y61292735D01*
X19346045Y61479142D01*
X19185141Y61640046D01*
X18998734Y61770568D01*
X18998728Y61770571D01*
X18940725Y61797618D01*
X18888285Y61843790D01*
X18869133Y61910983D01*
X18889348Y61977865D01*
X18940725Y62022382D01*
X18998734Y62049432D01*
X19185139Y62179953D01*
X19346047Y62340861D01*
X19476568Y62527266D01*
X19503618Y62585276D01*
X19549790Y62637715D01*
X19616983Y62656867D01*
X19683865Y62636652D01*
G37*
G04 #@! TD.AperFunction*
G04 #@! TA.AperFunction,NonConductor*
G36*
X19683865Y60096652D02*
G01*
X19728382Y60045275D01*
X19755429Y59987272D01*
X19755432Y59987266D01*
X19885954Y59800859D01*
X20046858Y59639955D01*
X20046861Y59639953D01*
X20233266Y59509432D01*
X20291275Y59482382D01*
X20343714Y59436209D01*
X20362866Y59369016D01*
X20342650Y59302135D01*
X20291275Y59257618D01*
X20233267Y59230569D01*
X20233265Y59230568D01*
X20046858Y59100046D01*
X19885954Y58939142D01*
X19755432Y58752735D01*
X19755431Y58752733D01*
X19736310Y58711728D01*
X19730373Y58698994D01*
X19728382Y58694725D01*
X19682209Y58642286D01*
X19615016Y58623134D01*
X19548135Y58643350D01*
X19503618Y58694725D01*
X19476568Y58752734D01*
X19346047Y58939139D01*
X19346045Y58939142D01*
X19185141Y59100046D01*
X18998734Y59230568D01*
X18998728Y59230571D01*
X18958188Y59249475D01*
X18940724Y59257619D01*
X18888285Y59303790D01*
X18869133Y59370983D01*
X18889348Y59437865D01*
X18940725Y59482382D01*
X18998734Y59509432D01*
X19185139Y59639953D01*
X19346047Y59800861D01*
X19476568Y59987266D01*
X19503618Y60045276D01*
X19549790Y60097715D01*
X19616983Y60116867D01*
X19683865Y60096652D01*
G37*
G04 #@! TD.AperFunction*
G04 #@! TA.AperFunction,NonConductor*
G36*
X19683865Y57556652D02*
G01*
X19728382Y57505275D01*
X19755429Y57447272D01*
X19755432Y57447266D01*
X19885954Y57260859D01*
X20046858Y57099955D01*
X20046861Y57099953D01*
X20233266Y56969432D01*
X20270115Y56952249D01*
X20291275Y56942382D01*
X20343714Y56896209D01*
X20362866Y56829016D01*
X20342650Y56762135D01*
X20291275Y56717618D01*
X20233267Y56690569D01*
X20233265Y56690568D01*
X20046858Y56560046D01*
X19885954Y56399142D01*
X19755432Y56212735D01*
X19755431Y56212733D01*
X19728382Y56154725D01*
X19682209Y56102286D01*
X19615016Y56083134D01*
X19548135Y56103350D01*
X19503618Y56154725D01*
X19495100Y56172992D01*
X19476568Y56212734D01*
X19346047Y56399139D01*
X19346045Y56399142D01*
X19185141Y56560046D01*
X18998734Y56690568D01*
X18998728Y56690571D01*
X18940725Y56717618D01*
X18888285Y56763790D01*
X18869133Y56830983D01*
X18889348Y56897865D01*
X18940725Y56942382D01*
X18961874Y56952244D01*
X18998734Y56969432D01*
X19185139Y57099953D01*
X19346047Y57260861D01*
X19476568Y57447266D01*
X19503618Y57505276D01*
X19549790Y57557715D01*
X19616983Y57576867D01*
X19683865Y57556652D01*
G37*
G04 #@! TD.AperFunction*
G04 #@! TA.AperFunction,NonConductor*
G36*
X19683865Y55016652D02*
G01*
X19728382Y54965275D01*
X19755429Y54907272D01*
X19755432Y54907266D01*
X19885954Y54720859D01*
X20046858Y54559955D01*
X20046861Y54559953D01*
X20233266Y54429432D01*
X20290355Y54402811D01*
X20291275Y54402382D01*
X20343714Y54356209D01*
X20362866Y54289016D01*
X20342650Y54222135D01*
X20291275Y54177618D01*
X20233267Y54150569D01*
X20233265Y54150568D01*
X20046858Y54020046D01*
X19885954Y53859142D01*
X19755432Y53672735D01*
X19755431Y53672733D01*
X19728382Y53614725D01*
X19682209Y53562286D01*
X19615016Y53543134D01*
X19548135Y53563350D01*
X19503618Y53614725D01*
X19476568Y53672733D01*
X19476567Y53672735D01*
X19474800Y53675258D01*
X19346047Y53859139D01*
X19346045Y53859142D01*
X19185141Y54020046D01*
X18998734Y54150568D01*
X18998728Y54150571D01*
X18940725Y54177618D01*
X18888285Y54223790D01*
X18869133Y54290983D01*
X18889348Y54357865D01*
X18940725Y54402382D01*
X18941645Y54402811D01*
X18998734Y54429432D01*
X19185139Y54559953D01*
X19346047Y54720861D01*
X19476568Y54907266D01*
X19503618Y54965276D01*
X19549790Y55017715D01*
X19616983Y55036867D01*
X19683865Y55016652D01*
G37*
G04 #@! TD.AperFunction*
G04 #@! TA.AperFunction,NonConductor*
G36*
X19683865Y52476652D02*
G01*
X19728382Y52425275D01*
X19755429Y52367272D01*
X19755432Y52367266D01*
X19885954Y52180859D01*
X20046858Y52019955D01*
X20046861Y52019953D01*
X20233266Y51889432D01*
X20283784Y51865875D01*
X20291275Y51862382D01*
X20343714Y51816209D01*
X20362866Y51749016D01*
X20342650Y51682135D01*
X20291275Y51637618D01*
X20233267Y51610569D01*
X20233265Y51610568D01*
X20046858Y51480046D01*
X19885954Y51319142D01*
X19755432Y51132735D01*
X19755431Y51132733D01*
X19728382Y51074725D01*
X19682209Y51022286D01*
X19615016Y51003134D01*
X19548135Y51023350D01*
X19503618Y51074725D01*
X19476568Y51132733D01*
X19476567Y51132735D01*
X19346045Y51319142D01*
X19185141Y51480046D01*
X18998734Y51610568D01*
X18998728Y51610571D01*
X18940725Y51637618D01*
X18888285Y51683790D01*
X18869133Y51750983D01*
X18889348Y51817865D01*
X18940725Y51862382D01*
X18948216Y51865875D01*
X18998734Y51889432D01*
X19185139Y52019953D01*
X19346047Y52180861D01*
X19476568Y52367266D01*
X19503618Y52425276D01*
X19549790Y52477715D01*
X19616983Y52496867D01*
X19683865Y52476652D01*
G37*
G04 #@! TD.AperFunction*
G04 #@! TA.AperFunction,NonConductor*
G36*
X19683865Y49936652D02*
G01*
X19728382Y49885275D01*
X19755429Y49827272D01*
X19755432Y49827266D01*
X19885954Y49640859D01*
X20046858Y49479955D01*
X20046861Y49479953D01*
X20233266Y49349432D01*
X20291275Y49322382D01*
X20343714Y49276209D01*
X20362866Y49209016D01*
X20342650Y49142135D01*
X20291275Y49097618D01*
X20233267Y49070569D01*
X20233265Y49070568D01*
X20046858Y48940046D01*
X19885954Y48779142D01*
X19755432Y48592735D01*
X19755431Y48592733D01*
X19728382Y48534725D01*
X19682209Y48482286D01*
X19615016Y48463134D01*
X19548135Y48483350D01*
X19503618Y48534725D01*
X19476568Y48592733D01*
X19476567Y48592735D01*
X19443457Y48640021D01*
X19346047Y48779139D01*
X19346045Y48779142D01*
X19185141Y48940046D01*
X18998734Y49070568D01*
X18998728Y49070571D01*
X18940725Y49097618D01*
X18888285Y49143790D01*
X18869133Y49210983D01*
X18889348Y49277865D01*
X18940725Y49322382D01*
X18998734Y49349432D01*
X19185139Y49479953D01*
X19346047Y49640861D01*
X19476568Y49827266D01*
X19503618Y49885276D01*
X19549790Y49937715D01*
X19616983Y49956867D01*
X19683865Y49936652D01*
G37*
G04 #@! TD.AperFunction*
G04 #@! TA.AperFunction,NonConductor*
G36*
X19683865Y47396652D02*
G01*
X19728382Y47345275D01*
X19755429Y47287272D01*
X19755432Y47287266D01*
X19885954Y47100859D01*
X20046858Y46939955D01*
X20046861Y46939953D01*
X20233266Y46809432D01*
X20291275Y46782382D01*
X20343714Y46736209D01*
X20362866Y46669016D01*
X20342650Y46602135D01*
X20291275Y46557618D01*
X20233267Y46530569D01*
X20233265Y46530568D01*
X20046858Y46400046D01*
X19885954Y46239142D01*
X19755432Y46052735D01*
X19755431Y46052733D01*
X19728382Y45994725D01*
X19682209Y45942286D01*
X19615016Y45923134D01*
X19548135Y45943350D01*
X19503618Y45994725D01*
X19486375Y46031703D01*
X19476568Y46052734D01*
X19346047Y46239139D01*
X19346045Y46239142D01*
X19185141Y46400046D01*
X18998734Y46530568D01*
X18998728Y46530571D01*
X18940725Y46557618D01*
X18888285Y46603790D01*
X18869133Y46670983D01*
X18889348Y46737865D01*
X18940725Y46782382D01*
X18998734Y46809432D01*
X19185139Y46939953D01*
X19346047Y47100861D01*
X19476568Y47287266D01*
X19503618Y47345276D01*
X19549790Y47397715D01*
X19616983Y47416867D01*
X19683865Y47396652D01*
G37*
G04 #@! TD.AperFunction*
G04 #@! TA.AperFunction,NonConductor*
G36*
X19683865Y44856652D02*
G01*
X19728382Y44805275D01*
X19755429Y44747272D01*
X19755432Y44747266D01*
X19885954Y44560859D01*
X20046858Y44399955D01*
X20046861Y44399953D01*
X20233266Y44269432D01*
X20252050Y44260673D01*
X20291275Y44242382D01*
X20343714Y44196209D01*
X20362866Y44129016D01*
X20342650Y44062135D01*
X20291275Y44017618D01*
X20233267Y43990569D01*
X20233265Y43990568D01*
X20046858Y43860046D01*
X19885954Y43699142D01*
X19755432Y43512735D01*
X19755431Y43512733D01*
X19728382Y43454725D01*
X19682209Y43402286D01*
X19615016Y43383134D01*
X19548135Y43403350D01*
X19503618Y43454725D01*
X19476568Y43512734D01*
X19346047Y43699139D01*
X19346045Y43699142D01*
X19185141Y43860046D01*
X18998734Y43990568D01*
X18998728Y43990571D01*
X18940725Y44017618D01*
X18888285Y44063790D01*
X18869133Y44130983D01*
X18889348Y44197865D01*
X18940725Y44242382D01*
X18998734Y44269432D01*
X19185139Y44399953D01*
X19346047Y44560861D01*
X19476568Y44747266D01*
X19503618Y44805276D01*
X19549790Y44857715D01*
X19616983Y44876867D01*
X19683865Y44856652D01*
G37*
G04 #@! TD.AperFunction*
G04 #@! TA.AperFunction,NonConductor*
G36*
X19683865Y42316652D02*
G01*
X19728382Y42265275D01*
X19755429Y42207272D01*
X19755432Y42207266D01*
X19885954Y42020859D01*
X20046858Y41859955D01*
X20046861Y41859953D01*
X20233266Y41729432D01*
X20291275Y41702382D01*
X20343714Y41656209D01*
X20362866Y41589016D01*
X20342650Y41522135D01*
X20291275Y41477618D01*
X20233267Y41450569D01*
X20233265Y41450568D01*
X20046858Y41320046D01*
X19885954Y41159142D01*
X19755432Y40972735D01*
X19755431Y40972733D01*
X19728382Y40914725D01*
X19682209Y40862286D01*
X19615016Y40843134D01*
X19548135Y40863350D01*
X19503618Y40914725D01*
X19476568Y40972733D01*
X19476567Y40972735D01*
X19346045Y41159142D01*
X19185141Y41320046D01*
X18998734Y41450568D01*
X18998728Y41450571D01*
X18940725Y41477618D01*
X18888285Y41523790D01*
X18869133Y41590983D01*
X18889348Y41657865D01*
X18940725Y41702382D01*
X18998734Y41729432D01*
X19185139Y41859953D01*
X19346047Y42020861D01*
X19476568Y42207266D01*
X19503618Y42265276D01*
X19549790Y42317715D01*
X19616983Y42336867D01*
X19683865Y42316652D01*
G37*
G04 #@! TD.AperFunction*
G04 #@! TA.AperFunction,NonConductor*
G36*
X19683865Y39776652D02*
G01*
X19728382Y39725275D01*
X19755429Y39667272D01*
X19755432Y39667266D01*
X19885954Y39480859D01*
X20046858Y39319955D01*
X20046861Y39319953D01*
X20233266Y39189432D01*
X20291275Y39162382D01*
X20343714Y39116209D01*
X20362866Y39049016D01*
X20342650Y38982135D01*
X20291275Y38937618D01*
X20233267Y38910569D01*
X20233265Y38910568D01*
X20046858Y38780046D01*
X19885954Y38619142D01*
X19755432Y38432735D01*
X19755431Y38432733D01*
X19728382Y38374725D01*
X19682209Y38322286D01*
X19615016Y38303134D01*
X19548135Y38323350D01*
X19503618Y38374725D01*
X19476568Y38432734D01*
X19363833Y38593738D01*
X19346045Y38619142D01*
X19185141Y38780046D01*
X18998734Y38910568D01*
X18998728Y38910571D01*
X18940725Y38937618D01*
X18888285Y38983790D01*
X18869133Y39050983D01*
X18889348Y39117865D01*
X18940725Y39162382D01*
X18998734Y39189432D01*
X19185139Y39319953D01*
X19346047Y39480861D01*
X19476568Y39667266D01*
X19503618Y39725276D01*
X19549790Y39777715D01*
X19616983Y39796867D01*
X19683865Y39776652D01*
G37*
G04 #@! TD.AperFunction*
G04 #@! TA.AperFunction,NonConductor*
G36*
X19683865Y37236652D02*
G01*
X19728382Y37185275D01*
X19755429Y37127272D01*
X19755432Y37127266D01*
X19885954Y36940859D01*
X20046858Y36779955D01*
X20046861Y36779953D01*
X20233266Y36649432D01*
X20291275Y36622382D01*
X20343714Y36576209D01*
X20362866Y36509016D01*
X20342650Y36442135D01*
X20291275Y36397618D01*
X20233267Y36370569D01*
X20233265Y36370568D01*
X20046858Y36240046D01*
X19885954Y36079142D01*
X19755432Y35892735D01*
X19755431Y35892733D01*
X19728382Y35834725D01*
X19682209Y35782286D01*
X19615016Y35763134D01*
X19548135Y35783350D01*
X19503618Y35834725D01*
X19486832Y35870722D01*
X19476568Y35892734D01*
X19346047Y36079139D01*
X19346045Y36079142D01*
X19185141Y36240046D01*
X18998734Y36370568D01*
X18998728Y36370571D01*
X18940725Y36397618D01*
X18888285Y36443790D01*
X18869133Y36510983D01*
X18889348Y36577865D01*
X18940725Y36622382D01*
X18998734Y36649432D01*
X19185139Y36779953D01*
X19346047Y36940861D01*
X19476568Y37127266D01*
X19503618Y37185276D01*
X19549790Y37237715D01*
X19616983Y37256867D01*
X19683865Y37236652D01*
G37*
G04 #@! TD.AperFunction*
G04 #@! TA.AperFunction,NonConductor*
G36*
X19683865Y34696652D02*
G01*
X19728382Y34645275D01*
X19755429Y34587272D01*
X19755432Y34587266D01*
X19885954Y34400859D01*
X20046858Y34239955D01*
X20062375Y34229090D01*
X20233266Y34109432D01*
X20291275Y34082382D01*
X20343714Y34036209D01*
X20362866Y33969016D01*
X20342650Y33902135D01*
X20291275Y33857618D01*
X20233267Y33830569D01*
X20233265Y33830568D01*
X20046858Y33700046D01*
X19885954Y33539142D01*
X19755432Y33352735D01*
X19755431Y33352733D01*
X19728382Y33294725D01*
X19682209Y33242286D01*
X19615016Y33223134D01*
X19548135Y33243350D01*
X19503618Y33294725D01*
X19476568Y33352733D01*
X19476567Y33352735D01*
X19346045Y33539142D01*
X19185141Y33700046D01*
X18998734Y33830568D01*
X18998728Y33830571D01*
X18940725Y33857618D01*
X18888285Y33903790D01*
X18869133Y33970983D01*
X18889348Y34037865D01*
X18940725Y34082382D01*
X18998734Y34109432D01*
X19185139Y34239953D01*
X19346047Y34400861D01*
X19476568Y34587266D01*
X19503618Y34645276D01*
X19549790Y34697715D01*
X19616983Y34716867D01*
X19683865Y34696652D01*
G37*
G04 #@! TD.AperFunction*
G04 #@! TA.AperFunction,NonConductor*
G36*
X19683865Y32156652D02*
G01*
X19728382Y32105275D01*
X19755429Y32047272D01*
X19755432Y32047266D01*
X19885954Y31860859D01*
X20046858Y31699955D01*
X20046861Y31699953D01*
X20233266Y31569432D01*
X20291275Y31542382D01*
X20343714Y31496209D01*
X20362866Y31429016D01*
X20342650Y31362135D01*
X20291275Y31317618D01*
X20233267Y31290569D01*
X20233265Y31290568D01*
X20046858Y31160046D01*
X19885954Y30999142D01*
X19755432Y30812735D01*
X19755431Y30812733D01*
X19728382Y30754725D01*
X19682209Y30702286D01*
X19615016Y30683134D01*
X19548135Y30703350D01*
X19503618Y30754725D01*
X19476568Y30812733D01*
X19476567Y30812735D01*
X19464925Y30829361D01*
X19346047Y30999139D01*
X19346045Y30999142D01*
X19185141Y31160046D01*
X18998734Y31290568D01*
X18998728Y31290571D01*
X18940725Y31317618D01*
X18888285Y31363790D01*
X18869133Y31430983D01*
X18889348Y31497865D01*
X18940725Y31542382D01*
X18998734Y31569432D01*
X19185139Y31699953D01*
X19346047Y31860861D01*
X19476568Y32047266D01*
X19503618Y32105276D01*
X19549790Y32157715D01*
X19616983Y32176867D01*
X19683865Y32156652D01*
G37*
G04 #@! TD.AperFunction*
G04 #@! TA.AperFunction,NonConductor*
G36*
X19683865Y29616652D02*
G01*
X19728382Y29565275D01*
X19755429Y29507272D01*
X19755432Y29507266D01*
X19885954Y29320859D01*
X20046858Y29159955D01*
X20046861Y29159953D01*
X20233266Y29029432D01*
X20291275Y29002382D01*
X20343714Y28956209D01*
X20362866Y28889016D01*
X20342650Y28822135D01*
X20291275Y28777618D01*
X20233267Y28750569D01*
X20233265Y28750568D01*
X20046858Y28620046D01*
X19885954Y28459142D01*
X19755432Y28272735D01*
X19755431Y28272733D01*
X19728382Y28214725D01*
X19682209Y28162286D01*
X19615016Y28143134D01*
X19548135Y28163350D01*
X19503618Y28214725D01*
X19486120Y28252250D01*
X19476568Y28272734D01*
X19346047Y28459139D01*
X19346045Y28459142D01*
X19185141Y28620046D01*
X18998734Y28750568D01*
X18998728Y28750571D01*
X18940725Y28777618D01*
X18888285Y28823790D01*
X18869133Y28890983D01*
X18889348Y28957865D01*
X18940725Y29002382D01*
X18998734Y29029432D01*
X19185139Y29159953D01*
X19346047Y29320861D01*
X19476568Y29507266D01*
X19503618Y29565276D01*
X19549790Y29617715D01*
X19616983Y29636867D01*
X19683865Y29616652D01*
G37*
G04 #@! TD.AperFunction*
G04 #@! TA.AperFunction,NonConductor*
G36*
X19683865Y27076652D02*
G01*
X19728382Y27025275D01*
X19755429Y26967272D01*
X19755432Y26967266D01*
X19885954Y26780859D01*
X20046858Y26619955D01*
X20046861Y26619953D01*
X20233266Y26489432D01*
X20291275Y26462382D01*
X20343714Y26416209D01*
X20362866Y26349016D01*
X20342650Y26282135D01*
X20291275Y26237618D01*
X20233267Y26210569D01*
X20233265Y26210568D01*
X20046858Y26080046D01*
X19885954Y25919142D01*
X19755432Y25732735D01*
X19755431Y25732733D01*
X19728382Y25674725D01*
X19682209Y25622286D01*
X19615016Y25603134D01*
X19548135Y25623350D01*
X19503618Y25674725D01*
X19476568Y25732733D01*
X19476567Y25732735D01*
X19346045Y25919142D01*
X19185141Y26080046D01*
X18998734Y26210568D01*
X18998728Y26210571D01*
X18940725Y26237618D01*
X18888285Y26283790D01*
X18869133Y26350983D01*
X18889348Y26417865D01*
X18940725Y26462382D01*
X18998734Y26489432D01*
X19185139Y26619953D01*
X19346047Y26780861D01*
X19476568Y26967266D01*
X19503618Y27025276D01*
X19549790Y27077715D01*
X19616983Y27096867D01*
X19683865Y27076652D01*
G37*
G04 #@! TD.AperFunction*
G04 #@! TA.AperFunction,NonConductor*
G36*
X11093865Y70256652D02*
G01*
X11138382Y70205275D01*
X11165429Y70147272D01*
X11165432Y70147266D01*
X11295954Y69960859D01*
X11456858Y69799955D01*
X11456861Y69799953D01*
X11643266Y69669432D01*
X11701275Y69642382D01*
X11753714Y69596209D01*
X11772866Y69529016D01*
X11752650Y69462135D01*
X11701275Y69417618D01*
X11643267Y69390569D01*
X11643265Y69390568D01*
X11456858Y69260046D01*
X11295954Y69099142D01*
X11165432Y68912735D01*
X11165431Y68912733D01*
X11138382Y68854725D01*
X11092209Y68802286D01*
X11025016Y68783134D01*
X10958135Y68803350D01*
X10913618Y68854725D01*
X10886568Y68912733D01*
X10886567Y68912735D01*
X10756045Y69099142D01*
X10595141Y69260046D01*
X10408734Y69390568D01*
X10408728Y69390571D01*
X10350725Y69417618D01*
X10298285Y69463790D01*
X10279133Y69530983D01*
X10299348Y69597865D01*
X10350725Y69642382D01*
X10408734Y69669432D01*
X10595139Y69799953D01*
X10756047Y69960861D01*
X10886568Y70147266D01*
X10913618Y70205276D01*
X10959790Y70257715D01*
X11026983Y70276867D01*
X11093865Y70256652D01*
G37*
G04 #@! TD.AperFunction*
G04 #@! TA.AperFunction,NonConductor*
G36*
X11093865Y67716652D02*
G01*
X11138382Y67665275D01*
X11165429Y67607272D01*
X11165432Y67607266D01*
X11295954Y67420859D01*
X11456858Y67259955D01*
X11456861Y67259953D01*
X11643266Y67129432D01*
X11701275Y67102382D01*
X11753714Y67056209D01*
X11772866Y66989016D01*
X11752650Y66922135D01*
X11701275Y66877619D01*
X11696222Y66875262D01*
X11643267Y66850569D01*
X11643265Y66850568D01*
X11456858Y66720046D01*
X11295954Y66559142D01*
X11165432Y66372735D01*
X11165431Y66372733D01*
X11138382Y66314725D01*
X11092209Y66262286D01*
X11025016Y66243134D01*
X10958135Y66263350D01*
X10913618Y66314725D01*
X10886568Y66372733D01*
X10886567Y66372735D01*
X10886381Y66373000D01*
X10756047Y66559139D01*
X10756045Y66559142D01*
X10595141Y66720046D01*
X10408734Y66850568D01*
X10408728Y66850571D01*
X10355778Y66875262D01*
X10350724Y66877619D01*
X10298285Y66923790D01*
X10279133Y66990983D01*
X10299348Y67057865D01*
X10350725Y67102382D01*
X10408734Y67129432D01*
X10595139Y67259953D01*
X10756047Y67420861D01*
X10886568Y67607266D01*
X10913618Y67665276D01*
X10959790Y67717715D01*
X11026983Y67736867D01*
X11093865Y67716652D01*
G37*
G04 #@! TD.AperFunction*
G04 #@! TA.AperFunction,NonConductor*
G36*
X11093865Y65176652D02*
G01*
X11138382Y65125275D01*
X11165429Y65067272D01*
X11165432Y65067266D01*
X11295954Y64880859D01*
X11456858Y64719955D01*
X11456861Y64719953D01*
X11643266Y64589432D01*
X11701275Y64562382D01*
X11753714Y64516209D01*
X11772866Y64449016D01*
X11752650Y64382135D01*
X11701275Y64337618D01*
X11643267Y64310569D01*
X11643265Y64310568D01*
X11456858Y64180046D01*
X11295954Y64019142D01*
X11165432Y63832735D01*
X11165431Y63832733D01*
X11138382Y63774725D01*
X11092209Y63722286D01*
X11025016Y63703134D01*
X10958135Y63723350D01*
X10913618Y63774725D01*
X10904748Y63793747D01*
X10886568Y63832734D01*
X10756047Y64019139D01*
X10756045Y64019142D01*
X10595141Y64180046D01*
X10408734Y64310568D01*
X10408728Y64310571D01*
X10350725Y64337618D01*
X10298285Y64383790D01*
X10279133Y64450983D01*
X10299348Y64517865D01*
X10350725Y64562382D01*
X10408734Y64589432D01*
X10595139Y64719953D01*
X10756047Y64880861D01*
X10886568Y65067266D01*
X10913618Y65125276D01*
X10959790Y65177715D01*
X11026983Y65196867D01*
X11093865Y65176652D01*
G37*
G04 #@! TD.AperFunction*
G04 #@! TA.AperFunction,NonConductor*
G36*
X11093865Y62636652D02*
G01*
X11138382Y62585275D01*
X11165429Y62527272D01*
X11165432Y62527266D01*
X11295954Y62340859D01*
X11456858Y62179955D01*
X11456861Y62179953D01*
X11643266Y62049432D01*
X11701275Y62022382D01*
X11753714Y61976209D01*
X11772866Y61909016D01*
X11752650Y61842135D01*
X11701275Y61797618D01*
X11643267Y61770569D01*
X11643265Y61770568D01*
X11456858Y61640046D01*
X11295954Y61479142D01*
X11165432Y61292735D01*
X11165431Y61292733D01*
X11138382Y61234725D01*
X11092209Y61182286D01*
X11025016Y61163134D01*
X10958135Y61183350D01*
X10913618Y61234725D01*
X10886568Y61292733D01*
X10886567Y61292735D01*
X10756045Y61479142D01*
X10595141Y61640046D01*
X10408734Y61770568D01*
X10408728Y61770571D01*
X10350725Y61797618D01*
X10298285Y61843790D01*
X10279133Y61910983D01*
X10299348Y61977865D01*
X10350725Y62022382D01*
X10408734Y62049432D01*
X10595139Y62179953D01*
X10756047Y62340861D01*
X10886568Y62527266D01*
X10913618Y62585276D01*
X10959790Y62637715D01*
X11026983Y62656867D01*
X11093865Y62636652D01*
G37*
G04 #@! TD.AperFunction*
G04 #@! TA.AperFunction,NonConductor*
G36*
X11093865Y60096652D02*
G01*
X11138382Y60045275D01*
X11165429Y59987272D01*
X11165432Y59987266D01*
X11295954Y59800859D01*
X11456858Y59639955D01*
X11456861Y59639953D01*
X11643266Y59509432D01*
X11701275Y59482382D01*
X11753714Y59436209D01*
X11772866Y59369016D01*
X11752650Y59302135D01*
X11701275Y59257618D01*
X11643267Y59230569D01*
X11643265Y59230568D01*
X11456858Y59100046D01*
X11295954Y58939142D01*
X11165432Y58752735D01*
X11165431Y58752733D01*
X11146310Y58711728D01*
X11140373Y58698994D01*
X11138382Y58694725D01*
X11092209Y58642286D01*
X11025016Y58623134D01*
X10958135Y58643350D01*
X10913618Y58694725D01*
X10886568Y58752734D01*
X10756047Y58939139D01*
X10756045Y58939142D01*
X10595141Y59100046D01*
X10408734Y59230568D01*
X10408728Y59230571D01*
X10368188Y59249475D01*
X10350724Y59257619D01*
X10298285Y59303790D01*
X10279133Y59370983D01*
X10299348Y59437865D01*
X10350725Y59482382D01*
X10408734Y59509432D01*
X10595139Y59639953D01*
X10756047Y59800861D01*
X10886568Y59987266D01*
X10913618Y60045276D01*
X10959790Y60097715D01*
X11026983Y60116867D01*
X11093865Y60096652D01*
G37*
G04 #@! TD.AperFunction*
G04 #@! TA.AperFunction,NonConductor*
G36*
X11093865Y57556652D02*
G01*
X11138382Y57505275D01*
X11165429Y57447272D01*
X11165432Y57447266D01*
X11295954Y57260859D01*
X11456858Y57099955D01*
X11456861Y57099953D01*
X11643266Y56969432D01*
X11680115Y56952249D01*
X11701275Y56942382D01*
X11753714Y56896209D01*
X11772866Y56829016D01*
X11752650Y56762135D01*
X11701275Y56717618D01*
X11643267Y56690569D01*
X11643265Y56690568D01*
X11456858Y56560046D01*
X11295954Y56399142D01*
X11165432Y56212735D01*
X11165431Y56212733D01*
X11138382Y56154725D01*
X11092209Y56102286D01*
X11025016Y56083134D01*
X10958135Y56103350D01*
X10913618Y56154725D01*
X10905100Y56172992D01*
X10886568Y56212734D01*
X10756047Y56399139D01*
X10756045Y56399142D01*
X10595141Y56560046D01*
X10408734Y56690568D01*
X10408728Y56690571D01*
X10350725Y56717618D01*
X10298285Y56763790D01*
X10279133Y56830983D01*
X10299348Y56897865D01*
X10350725Y56942382D01*
X10371874Y56952244D01*
X10408734Y56969432D01*
X10595139Y57099953D01*
X10756047Y57260861D01*
X10886568Y57447266D01*
X10913618Y57505276D01*
X10959790Y57557715D01*
X11026983Y57576867D01*
X11093865Y57556652D01*
G37*
G04 #@! TD.AperFunction*
G04 #@! TA.AperFunction,NonConductor*
G36*
X11093865Y55016652D02*
G01*
X11138382Y54965275D01*
X11165429Y54907272D01*
X11165432Y54907266D01*
X11295954Y54720859D01*
X11456858Y54559955D01*
X11456861Y54559953D01*
X11643266Y54429432D01*
X11700355Y54402811D01*
X11701275Y54402382D01*
X11753714Y54356209D01*
X11772866Y54289016D01*
X11752650Y54222135D01*
X11701275Y54177618D01*
X11643267Y54150569D01*
X11643265Y54150568D01*
X11456858Y54020046D01*
X11295954Y53859142D01*
X11165432Y53672735D01*
X11165431Y53672733D01*
X11138382Y53614725D01*
X11092209Y53562286D01*
X11025016Y53543134D01*
X10958135Y53563350D01*
X10913618Y53614725D01*
X10886568Y53672733D01*
X10886567Y53672735D01*
X10884800Y53675258D01*
X10756047Y53859139D01*
X10756045Y53859142D01*
X10595141Y54020046D01*
X10408734Y54150568D01*
X10408728Y54150571D01*
X10350725Y54177618D01*
X10298285Y54223790D01*
X10279133Y54290983D01*
X10299348Y54357865D01*
X10350725Y54402382D01*
X10351645Y54402811D01*
X10408734Y54429432D01*
X10595139Y54559953D01*
X10756047Y54720861D01*
X10886568Y54907266D01*
X10913618Y54965276D01*
X10959790Y55017715D01*
X11026983Y55036867D01*
X11093865Y55016652D01*
G37*
G04 #@! TD.AperFunction*
G04 #@! TA.AperFunction,NonConductor*
G36*
X11093865Y52476652D02*
G01*
X11138382Y52425275D01*
X11165429Y52367272D01*
X11165432Y52367266D01*
X11295954Y52180859D01*
X11456858Y52019955D01*
X11456861Y52019953D01*
X11643266Y51889432D01*
X11693784Y51865875D01*
X11701275Y51862382D01*
X11753714Y51816209D01*
X11772866Y51749016D01*
X11752650Y51682135D01*
X11701275Y51637618D01*
X11643267Y51610569D01*
X11643265Y51610568D01*
X11456858Y51480046D01*
X11295954Y51319142D01*
X11165432Y51132735D01*
X11165431Y51132733D01*
X11138382Y51074725D01*
X11092209Y51022286D01*
X11025016Y51003134D01*
X10958135Y51023350D01*
X10913618Y51074725D01*
X10886568Y51132733D01*
X10886567Y51132735D01*
X10756045Y51319142D01*
X10595141Y51480046D01*
X10408734Y51610568D01*
X10408728Y51610571D01*
X10350725Y51637618D01*
X10298285Y51683790D01*
X10279133Y51750983D01*
X10299348Y51817865D01*
X10350725Y51862382D01*
X10358216Y51865875D01*
X10408734Y51889432D01*
X10595139Y52019953D01*
X10756047Y52180861D01*
X10886568Y52367266D01*
X10913618Y52425276D01*
X10959790Y52477715D01*
X11026983Y52496867D01*
X11093865Y52476652D01*
G37*
G04 #@! TD.AperFunction*
G04 #@! TA.AperFunction,NonConductor*
G36*
X11093865Y49936652D02*
G01*
X11138382Y49885275D01*
X11165429Y49827272D01*
X11165432Y49827266D01*
X11295954Y49640859D01*
X11456858Y49479955D01*
X11456861Y49479953D01*
X11643266Y49349432D01*
X11701275Y49322382D01*
X11753714Y49276209D01*
X11772866Y49209016D01*
X11752650Y49142135D01*
X11701275Y49097618D01*
X11643267Y49070569D01*
X11643265Y49070568D01*
X11456858Y48940046D01*
X11295954Y48779142D01*
X11165432Y48592735D01*
X11165431Y48592733D01*
X11138382Y48534725D01*
X11092209Y48482286D01*
X11025016Y48463134D01*
X10958135Y48483350D01*
X10913618Y48534725D01*
X10886568Y48592733D01*
X10886567Y48592735D01*
X10853457Y48640021D01*
X10756047Y48779139D01*
X10756045Y48779142D01*
X10595141Y48940046D01*
X10408734Y49070568D01*
X10408728Y49070571D01*
X10350725Y49097618D01*
X10298285Y49143790D01*
X10279133Y49210983D01*
X10299348Y49277865D01*
X10350725Y49322382D01*
X10408734Y49349432D01*
X10595139Y49479953D01*
X10756047Y49640861D01*
X10886568Y49827266D01*
X10913618Y49885276D01*
X10959790Y49937715D01*
X11026983Y49956867D01*
X11093865Y49936652D01*
G37*
G04 #@! TD.AperFunction*
G04 #@! TA.AperFunction,NonConductor*
G36*
X11093865Y47396652D02*
G01*
X11138382Y47345275D01*
X11165429Y47287272D01*
X11165432Y47287266D01*
X11295954Y47100859D01*
X11456858Y46939955D01*
X11456861Y46939953D01*
X11643266Y46809432D01*
X11701275Y46782382D01*
X11753714Y46736209D01*
X11772866Y46669016D01*
X11752650Y46602135D01*
X11701275Y46557618D01*
X11643267Y46530569D01*
X11643265Y46530568D01*
X11456858Y46400046D01*
X11295954Y46239142D01*
X11165432Y46052735D01*
X11165431Y46052733D01*
X11138382Y45994725D01*
X11092209Y45942286D01*
X11025016Y45923134D01*
X10958135Y45943350D01*
X10913618Y45994725D01*
X10896375Y46031703D01*
X10886568Y46052734D01*
X10756047Y46239139D01*
X10756045Y46239142D01*
X10595141Y46400046D01*
X10408734Y46530568D01*
X10408728Y46530571D01*
X10350725Y46557618D01*
X10298285Y46603790D01*
X10279133Y46670983D01*
X10299348Y46737865D01*
X10350725Y46782382D01*
X10408734Y46809432D01*
X10595139Y46939953D01*
X10756047Y47100861D01*
X10886568Y47287266D01*
X10913618Y47345276D01*
X10959790Y47397715D01*
X11026983Y47416867D01*
X11093865Y47396652D01*
G37*
G04 #@! TD.AperFunction*
G04 #@! TA.AperFunction,NonConductor*
G36*
X11093865Y44856652D02*
G01*
X11138382Y44805275D01*
X11165429Y44747272D01*
X11165432Y44747266D01*
X11295954Y44560859D01*
X11456858Y44399955D01*
X11456861Y44399953D01*
X11643266Y44269432D01*
X11662050Y44260673D01*
X11701275Y44242382D01*
X11753714Y44196209D01*
X11772866Y44129016D01*
X11752650Y44062135D01*
X11701275Y44017618D01*
X11643267Y43990569D01*
X11643265Y43990568D01*
X11456858Y43860046D01*
X11295954Y43699142D01*
X11165432Y43512735D01*
X11165431Y43512733D01*
X11138382Y43454725D01*
X11092209Y43402286D01*
X11025016Y43383134D01*
X10958135Y43403350D01*
X10913618Y43454725D01*
X10886568Y43512734D01*
X10756047Y43699139D01*
X10756045Y43699142D01*
X10595141Y43860046D01*
X10408734Y43990568D01*
X10408728Y43990571D01*
X10350725Y44017618D01*
X10298285Y44063790D01*
X10279133Y44130983D01*
X10299348Y44197865D01*
X10350725Y44242382D01*
X10408734Y44269432D01*
X10595139Y44399953D01*
X10756047Y44560861D01*
X10886568Y44747266D01*
X10913618Y44805276D01*
X10959790Y44857715D01*
X11026983Y44876867D01*
X11093865Y44856652D01*
G37*
G04 #@! TD.AperFunction*
G04 #@! TA.AperFunction,NonConductor*
G36*
X11093865Y42316652D02*
G01*
X11138382Y42265275D01*
X11165429Y42207272D01*
X11165432Y42207266D01*
X11295954Y42020859D01*
X11456858Y41859955D01*
X11456861Y41859953D01*
X11643266Y41729432D01*
X11701275Y41702382D01*
X11753714Y41656209D01*
X11772866Y41589016D01*
X11752650Y41522135D01*
X11701275Y41477618D01*
X11643267Y41450569D01*
X11643265Y41450568D01*
X11456858Y41320046D01*
X11295954Y41159142D01*
X11165432Y40972735D01*
X11165431Y40972733D01*
X11138382Y40914725D01*
X11092209Y40862286D01*
X11025016Y40843134D01*
X10958135Y40863350D01*
X10913618Y40914725D01*
X10886568Y40972733D01*
X10886567Y40972735D01*
X10756045Y41159142D01*
X10595141Y41320046D01*
X10408734Y41450568D01*
X10408728Y41450571D01*
X10350725Y41477618D01*
X10298285Y41523790D01*
X10279133Y41590983D01*
X10299348Y41657865D01*
X10350725Y41702382D01*
X10408734Y41729432D01*
X10595139Y41859953D01*
X10756047Y42020861D01*
X10886568Y42207266D01*
X10913618Y42265276D01*
X10959790Y42317715D01*
X11026983Y42336867D01*
X11093865Y42316652D01*
G37*
G04 #@! TD.AperFunction*
G04 #@! TA.AperFunction,NonConductor*
G36*
X11093865Y39776652D02*
G01*
X11138382Y39725275D01*
X11165429Y39667272D01*
X11165432Y39667266D01*
X11295954Y39480859D01*
X11456858Y39319955D01*
X11456861Y39319953D01*
X11643266Y39189432D01*
X11701275Y39162382D01*
X11753714Y39116209D01*
X11772866Y39049016D01*
X11752650Y38982135D01*
X11701275Y38937618D01*
X11643267Y38910569D01*
X11643265Y38910568D01*
X11456858Y38780046D01*
X11295954Y38619142D01*
X11165432Y38432735D01*
X11165431Y38432733D01*
X11138382Y38374725D01*
X11092209Y38322286D01*
X11025016Y38303134D01*
X10958135Y38323350D01*
X10913618Y38374725D01*
X10886568Y38432734D01*
X10773833Y38593738D01*
X10756045Y38619142D01*
X10595141Y38780046D01*
X10408734Y38910568D01*
X10408728Y38910571D01*
X10350725Y38937618D01*
X10298285Y38983790D01*
X10279133Y39050983D01*
X10299348Y39117865D01*
X10350725Y39162382D01*
X10408734Y39189432D01*
X10595139Y39319953D01*
X10756047Y39480861D01*
X10886568Y39667266D01*
X10913618Y39725276D01*
X10959790Y39777715D01*
X11026983Y39796867D01*
X11093865Y39776652D01*
G37*
G04 #@! TD.AperFunction*
G04 #@! TA.AperFunction,NonConductor*
G36*
X11093865Y37236652D02*
G01*
X11138382Y37185275D01*
X11165429Y37127272D01*
X11165432Y37127266D01*
X11295954Y36940859D01*
X11456858Y36779955D01*
X11456861Y36779953D01*
X11643266Y36649432D01*
X11701275Y36622382D01*
X11753714Y36576209D01*
X11772866Y36509016D01*
X11752650Y36442135D01*
X11701275Y36397618D01*
X11643267Y36370569D01*
X11643265Y36370568D01*
X11456858Y36240046D01*
X11295954Y36079142D01*
X11165432Y35892735D01*
X11165431Y35892733D01*
X11138382Y35834725D01*
X11092209Y35782286D01*
X11025016Y35763134D01*
X10958135Y35783350D01*
X10913618Y35834725D01*
X10896832Y35870722D01*
X10886568Y35892734D01*
X10756047Y36079139D01*
X10756045Y36079142D01*
X10595141Y36240046D01*
X10408734Y36370568D01*
X10408728Y36370571D01*
X10350725Y36397618D01*
X10298285Y36443790D01*
X10279133Y36510983D01*
X10299348Y36577865D01*
X10350725Y36622382D01*
X10408734Y36649432D01*
X10595139Y36779953D01*
X10756047Y36940861D01*
X10886568Y37127266D01*
X10913618Y37185276D01*
X10959790Y37237715D01*
X11026983Y37256867D01*
X11093865Y37236652D01*
G37*
G04 #@! TD.AperFunction*
G04 #@! TA.AperFunction,NonConductor*
G36*
X11093865Y34696652D02*
G01*
X11138382Y34645275D01*
X11165429Y34587272D01*
X11165432Y34587266D01*
X11295954Y34400859D01*
X11456858Y34239955D01*
X11472375Y34229090D01*
X11643266Y34109432D01*
X11701275Y34082382D01*
X11753714Y34036209D01*
X11772866Y33969016D01*
X11752650Y33902135D01*
X11701275Y33857618D01*
X11643267Y33830569D01*
X11643265Y33830568D01*
X11456858Y33700046D01*
X11295954Y33539142D01*
X11165432Y33352735D01*
X11165431Y33352733D01*
X11138382Y33294725D01*
X11092209Y33242286D01*
X11025016Y33223134D01*
X10958135Y33243350D01*
X10913618Y33294725D01*
X10886568Y33352733D01*
X10886567Y33352735D01*
X10756045Y33539142D01*
X10595141Y33700046D01*
X10408734Y33830568D01*
X10408728Y33830571D01*
X10350725Y33857618D01*
X10298285Y33903790D01*
X10279133Y33970983D01*
X10299348Y34037865D01*
X10350725Y34082382D01*
X10408734Y34109432D01*
X10595139Y34239953D01*
X10756047Y34400861D01*
X10886568Y34587266D01*
X10913618Y34645276D01*
X10959790Y34697715D01*
X11026983Y34716867D01*
X11093865Y34696652D01*
G37*
G04 #@! TD.AperFunction*
G04 #@! TA.AperFunction,NonConductor*
G36*
X11093865Y32156652D02*
G01*
X11138382Y32105275D01*
X11165429Y32047272D01*
X11165432Y32047266D01*
X11295954Y31860859D01*
X11456858Y31699955D01*
X11456861Y31699953D01*
X11643266Y31569432D01*
X11701275Y31542382D01*
X11753714Y31496209D01*
X11772866Y31429016D01*
X11752650Y31362135D01*
X11701275Y31317618D01*
X11643267Y31290569D01*
X11643265Y31290568D01*
X11456858Y31160046D01*
X11295954Y30999142D01*
X11165432Y30812735D01*
X11165431Y30812733D01*
X11138382Y30754725D01*
X11092209Y30702286D01*
X11025016Y30683134D01*
X10958135Y30703350D01*
X10913618Y30754725D01*
X10886568Y30812733D01*
X10886567Y30812735D01*
X10874925Y30829361D01*
X10756047Y30999139D01*
X10756045Y30999142D01*
X10595141Y31160046D01*
X10408734Y31290568D01*
X10408728Y31290571D01*
X10350725Y31317618D01*
X10298285Y31363790D01*
X10279133Y31430983D01*
X10299348Y31497865D01*
X10350725Y31542382D01*
X10408734Y31569432D01*
X10595139Y31699953D01*
X10756047Y31860861D01*
X10886568Y32047266D01*
X10913618Y32105276D01*
X10959790Y32157715D01*
X11026983Y32176867D01*
X11093865Y32156652D01*
G37*
G04 #@! TD.AperFunction*
G04 #@! TA.AperFunction,NonConductor*
G36*
X11093865Y29616652D02*
G01*
X11138382Y29565275D01*
X11165429Y29507272D01*
X11165432Y29507266D01*
X11295954Y29320859D01*
X11456858Y29159955D01*
X11456861Y29159953D01*
X11643266Y29029432D01*
X11701275Y29002382D01*
X11753714Y28956209D01*
X11772866Y28889016D01*
X11752650Y28822135D01*
X11701275Y28777618D01*
X11643267Y28750569D01*
X11643265Y28750568D01*
X11456858Y28620046D01*
X11295954Y28459142D01*
X11165432Y28272735D01*
X11165431Y28272733D01*
X11138382Y28214725D01*
X11092209Y28162286D01*
X11025016Y28143134D01*
X10958135Y28163350D01*
X10913618Y28214725D01*
X10896120Y28252250D01*
X10886568Y28272734D01*
X10756047Y28459139D01*
X10756045Y28459142D01*
X10595141Y28620046D01*
X10408734Y28750568D01*
X10408728Y28750571D01*
X10350725Y28777618D01*
X10298285Y28823790D01*
X10279133Y28890983D01*
X10299348Y28957865D01*
X10350725Y29002382D01*
X10408734Y29029432D01*
X10595139Y29159953D01*
X10756047Y29320861D01*
X10886568Y29507266D01*
X10913618Y29565276D01*
X10959790Y29617715D01*
X11026983Y29636867D01*
X11093865Y29616652D01*
G37*
G04 #@! TD.AperFunction*
G04 #@! TA.AperFunction,NonConductor*
G36*
X11093865Y27076652D02*
G01*
X11138382Y27025275D01*
X11165429Y26967272D01*
X11165432Y26967266D01*
X11295954Y26780859D01*
X11456858Y26619955D01*
X11456861Y26619953D01*
X11643266Y26489432D01*
X11701275Y26462382D01*
X11753714Y26416209D01*
X11772866Y26349016D01*
X11752650Y26282135D01*
X11701275Y26237618D01*
X11643267Y26210569D01*
X11643265Y26210568D01*
X11456858Y26080046D01*
X11295954Y25919142D01*
X11165432Y25732735D01*
X11165431Y25732733D01*
X11138382Y25674725D01*
X11092209Y25622286D01*
X11025016Y25603134D01*
X10958135Y25623350D01*
X10913618Y25674725D01*
X10886568Y25732733D01*
X10886567Y25732735D01*
X10756045Y25919142D01*
X10595141Y26080046D01*
X10408734Y26210568D01*
X10408728Y26210571D01*
X10350725Y26237618D01*
X10298285Y26283790D01*
X10279133Y26350983D01*
X10299348Y26417865D01*
X10350725Y26462382D01*
X10408734Y26489432D01*
X10595139Y26619953D01*
X10756047Y26780861D01*
X10886568Y26967266D01*
X10913618Y27025276D01*
X10959790Y27077715D01*
X11026983Y27096867D01*
X11093865Y27076652D01*
G37*
G04 #@! TD.AperFunction*
M02*
