G04 #@! TF.GenerationSoftware,KiCad,Pcbnew,8.0.7-8.0.7-0~ubuntu24.04.1*
G04 #@! TF.CreationDate,2024-12-18T21:41:03+00:00*
G04 #@! TF.ProjectId,hellenbremen,68656c6c-656e-4627-9265-6d656e2e6b69,rev?*
G04 #@! TF.SameCoordinates,Original*
G04 #@! TF.FileFunction,Soldermask,Bot*
G04 #@! TF.FilePolarity,Negative*
%FSLAX46Y46*%
G04 Gerber Fmt 4.6, Leading zero omitted, Abs format (unit mm)*
G04 Created by KiCad (PCBNEW 8.0.7-8.0.7-0~ubuntu24.04.1) date 2024-12-18 21:41:03*
%MOMM*%
%LPD*%
G01*
G04 APERTURE LIST*
%ADD10C,0.600000*%
%ADD11C,1.500000*%
%ADD12C,0.650000*%
%ADD13R,1.700000X1.700000*%
%ADD14O,1.700000X1.700000*%
%ADD15C,4.250000*%
%ADD16C,2.500000*%
%ADD17C,1.700000*%
%ADD18R,0.650000X1.350000*%
%ADD19R,5.100000X4.400000*%
%ADD20R,1.350000X1.800000*%
G04 APERTURE END LIST*
D10*
G04 #@! TO.C,M5*
X46639000Y52636998D03*
X46639000Y51686998D03*
X46639000Y50737000D03*
X37939000Y51736998D03*
X37939000Y52636998D03*
G04 #@! TD*
G04 #@! TO.C,M4*
X43647000Y42257000D03*
X43647000Y41057000D03*
X43647000Y43457000D03*
X43647000Y44657000D03*
X29222000Y38197000D03*
X29222000Y37197000D03*
G04 #@! TD*
G04 #@! TO.C,M1*
G36*
G01*
X75948563Y11151644D02*
X75948563Y11401642D01*
G75*
G02*
X76073563Y11526642I125000J0D01*
G01*
X76073563Y11526642D01*
G75*
G02*
X76198563Y11401642I0J-125000D01*
G01*
X76198563Y11151644D01*
G75*
G02*
X76073563Y11026644I-125000J0D01*
G01*
X76073563Y11026644D01*
G75*
G02*
X75948563Y11151644I0J125000D01*
G01*
G37*
G36*
G01*
X77048561Y11151644D02*
X77048561Y11401642D01*
G75*
G02*
X77173561Y11526642I125000J0D01*
G01*
X77173561Y11526642D01*
G75*
G02*
X77298561Y11401642I0J-125000D01*
G01*
X77298561Y11151644D01*
G75*
G02*
X77173561Y11026644I-125000J0D01*
G01*
X77173561Y11026644D01*
G75*
G02*
X77048561Y11151644I0J125000D01*
G01*
G37*
G36*
G01*
X78148559Y11151644D02*
X78148559Y11401642D01*
G75*
G02*
X78273559Y11526642I125000J0D01*
G01*
X78273559Y11526642D01*
G75*
G02*
X78398559Y11401642I0J-125000D01*
G01*
X78398559Y11151644D01*
G75*
G02*
X78273559Y11026644I-125000J0D01*
G01*
X78273559Y11026644D01*
G75*
G02*
X78148559Y11151644I0J125000D01*
G01*
G37*
G36*
G01*
X79248557Y11151644D02*
X79248557Y11401642D01*
G75*
G02*
X79373557Y11526642I125000J0D01*
G01*
X79373557Y11526642D01*
G75*
G02*
X79498557Y11401642I0J-125000D01*
G01*
X79498557Y11151644D01*
G75*
G02*
X79373557Y11026644I-125000J0D01*
G01*
X79373557Y11026644D01*
G75*
G02*
X79248557Y11151644I0J125000D01*
G01*
G37*
G36*
G01*
X80348555Y11151644D02*
X80348555Y11401642D01*
G75*
G02*
X80473555Y11526642I125000J0D01*
G01*
X80473555Y11526642D01*
G75*
G02*
X80598555Y11401642I0J-125000D01*
G01*
X80598555Y11151644D01*
G75*
G02*
X80473555Y11026644I-125000J0D01*
G01*
X80473555Y11026644D01*
G75*
G02*
X80348555Y11151644I0J125000D01*
G01*
G37*
G36*
G01*
X81448552Y11151644D02*
X81448552Y11401642D01*
G75*
G02*
X81573552Y11526642I125000J0D01*
G01*
X81573552Y11526642D01*
G75*
G02*
X81698552Y11401642I0J-125000D01*
G01*
X81698552Y11151644D01*
G75*
G02*
X81573552Y11026644I-125000J0D01*
G01*
X81573552Y11026644D01*
G75*
G02*
X81448552Y11151644I0J125000D01*
G01*
G37*
G04 #@! TD*
D11*
G04 #@! TO.C,M2*
X65278000Y87556999D03*
X65278000Y81157002D03*
X65278000Y79256999D03*
X65278000Y74956999D03*
D10*
X65727999Y72557002D03*
X65727999Y71557001D03*
D11*
X65278000Y68706999D03*
X49778003Y88007001D03*
X49778003Y86157002D03*
X49778003Y81206999D03*
X49778003Y69157001D03*
G04 #@! TD*
D12*
G04 #@! TO.C,J3*
X95932528Y7295819D03*
X95932528Y13075819D03*
G04 #@! TD*
D13*
G04 #@! TO.C,J2*
X93218000Y74422000D03*
D14*
X93218000Y71882000D03*
X93218000Y69342000D03*
G04 #@! TD*
D15*
G04 #@! TO.C,J1*
X9150000Y13500000D03*
D16*
X17750000Y16890000D03*
X17750000Y88400000D03*
D15*
X9150000Y92000000D03*
D16*
X9950000Y83220000D03*
X9950000Y77410000D03*
X12650000Y80220000D03*
X17750000Y83220000D03*
X17750000Y77410000D03*
D17*
X17750000Y23790000D03*
X17750000Y26330000D03*
X17750000Y28870000D03*
X17750000Y31410000D03*
X17750000Y33950000D03*
X17750000Y36490000D03*
X17750000Y39030000D03*
X17750000Y41570000D03*
X17750000Y44110000D03*
X17750000Y46650000D03*
X17750000Y49190000D03*
X17750000Y51730000D03*
X17750000Y54270000D03*
X17750000Y56810000D03*
X17750000Y59350000D03*
X17750000Y61890000D03*
X17750000Y64430000D03*
X17750000Y66970000D03*
X17750000Y69510000D03*
X15210000Y23790000D03*
X15210000Y26330000D03*
X15210000Y28870000D03*
X15210000Y31410000D03*
X15210000Y33950000D03*
X15210000Y36490000D03*
X15210000Y39030000D03*
X15210000Y41570000D03*
X15210000Y44110000D03*
X15210000Y46650000D03*
X15210000Y49190000D03*
X15210000Y51730000D03*
X15210000Y54270000D03*
X15210000Y56810000D03*
X15210000Y59350000D03*
X15210000Y61890000D03*
X15210000Y64430000D03*
X15210000Y66970000D03*
X15210000Y69510000D03*
X10130000Y23790000D03*
X10130000Y26330000D03*
X10130000Y28870000D03*
X10130000Y31410000D03*
X10130000Y33950000D03*
X10130000Y36490000D03*
X10130000Y39030000D03*
X10130000Y41570000D03*
X10130000Y44110000D03*
X10130000Y46650000D03*
X10130000Y49190000D03*
X10130000Y51730000D03*
X10130000Y54270000D03*
X10130000Y56810000D03*
X10130000Y59350000D03*
X10130000Y61890000D03*
X10130000Y64430000D03*
X10130000Y66970000D03*
X10130000Y69510000D03*
X7590000Y23790000D03*
X7590000Y26330000D03*
X7590000Y28870000D03*
X7590000Y31410000D03*
X7590000Y33950000D03*
X7590000Y36490000D03*
X7590000Y39030000D03*
X7590000Y41570000D03*
X7590000Y44110000D03*
X7590000Y46650000D03*
X7590000Y49190000D03*
X7590000Y51730000D03*
X7590000Y54270000D03*
X7590000Y56810000D03*
X7590000Y59350000D03*
X7590000Y61890000D03*
X7590000Y64430000D03*
X7590000Y66970000D03*
X7590000Y69510000D03*
G04 #@! TD*
D10*
G04 #@! TO.C,M6*
X46893000Y26982998D03*
X46893000Y26032998D03*
X46893000Y25083000D03*
X38193000Y26082998D03*
X38193000Y26982998D03*
G04 #@! TD*
G04 #@! TO.C,C7*
G36*
G01*
X39945000Y70500000D02*
X38995000Y70500000D01*
G75*
G02*
X38745000Y70750000I0J250000D01*
G01*
X38745000Y71250000D01*
G75*
G02*
X38995000Y71500000I250000J0D01*
G01*
X39945000Y71500000D01*
G75*
G02*
X40195000Y71250000I0J-250000D01*
G01*
X40195000Y70750000D01*
G75*
G02*
X39945000Y70500000I-250000J0D01*
G01*
G37*
G36*
G01*
X39945000Y72400000D02*
X38995000Y72400000D01*
G75*
G02*
X38745000Y72650000I0J250000D01*
G01*
X38745000Y73150000D01*
G75*
G02*
X38995000Y73400000I250000J0D01*
G01*
X39945000Y73400000D01*
G75*
G02*
X40195000Y73150000I0J-250000D01*
G01*
X40195000Y72650000D01*
G75*
G02*
X39945000Y72400000I-250000J0D01*
G01*
G37*
G04 #@! TD*
G04 #@! TO.C,C12*
G36*
G01*
X27905000Y70500000D02*
X26955000Y70500000D01*
G75*
G02*
X26705000Y70750000I0J250000D01*
G01*
X26705000Y71250000D01*
G75*
G02*
X26955000Y71500000I250000J0D01*
G01*
X27905000Y71500000D01*
G75*
G02*
X28155000Y71250000I0J-250000D01*
G01*
X28155000Y70750000D01*
G75*
G02*
X27905000Y70500000I-250000J0D01*
G01*
G37*
G36*
G01*
X27905000Y72400000D02*
X26955000Y72400000D01*
G75*
G02*
X26705000Y72650000I0J250000D01*
G01*
X26705000Y73150000D01*
G75*
G02*
X26955000Y73400000I250000J0D01*
G01*
X27905000Y73400000D01*
G75*
G02*
X28155000Y73150000I0J-250000D01*
G01*
X28155000Y72650000D01*
G75*
G02*
X27905000Y72400000I-250000J0D01*
G01*
G37*
G04 #@! TD*
G04 #@! TO.C,C15*
G36*
G01*
X32965000Y76850000D02*
X33915000Y76850000D01*
G75*
G02*
X34165000Y76600000I0J-250000D01*
G01*
X34165000Y76100000D01*
G75*
G02*
X33915000Y75850000I-250000J0D01*
G01*
X32965000Y75850000D01*
G75*
G02*
X32715000Y76100000I0J250000D01*
G01*
X32715000Y76600000D01*
G75*
G02*
X32965000Y76850000I250000J0D01*
G01*
G37*
G36*
G01*
X32965000Y74950000D02*
X33915000Y74950000D01*
G75*
G02*
X34165000Y74700000I0J-250000D01*
G01*
X34165000Y74200000D01*
G75*
G02*
X33915000Y73950000I-250000J0D01*
G01*
X32965000Y73950000D01*
G75*
G02*
X32715000Y74200000I0J250000D01*
G01*
X32715000Y74700000D01*
G75*
G02*
X32965000Y74950000I250000J0D01*
G01*
G37*
G04 #@! TD*
G04 #@! TO.C,C6*
G36*
G01*
X22604000Y53256000D02*
X22604000Y52916000D01*
G75*
G02*
X22464000Y52776000I-140000J0D01*
G01*
X22184000Y52776000D01*
G75*
G02*
X22044000Y52916000I0J140000D01*
G01*
X22044000Y53256000D01*
G75*
G02*
X22184000Y53396000I140000J0D01*
G01*
X22464000Y53396000D01*
G75*
G02*
X22604000Y53256000I0J-140000D01*
G01*
G37*
G36*
G01*
X21644000Y53256000D02*
X21644000Y52916000D01*
G75*
G02*
X21504000Y52776000I-140000J0D01*
G01*
X21224000Y52776000D01*
G75*
G02*
X21084000Y52916000I0J140000D01*
G01*
X21084000Y53256000D01*
G75*
G02*
X21224000Y53396000I140000J0D01*
G01*
X21504000Y53396000D01*
G75*
G02*
X21644000Y53256000I0J-140000D01*
G01*
G37*
G04 #@! TD*
G04 #@! TO.C,C17*
G36*
G01*
X38985000Y76850000D02*
X39935000Y76850000D01*
G75*
G02*
X40185000Y76600000I0J-250000D01*
G01*
X40185000Y76100000D01*
G75*
G02*
X39935000Y75850000I-250000J0D01*
G01*
X38985000Y75850000D01*
G75*
G02*
X38735000Y76100000I0J250000D01*
G01*
X38735000Y76600000D01*
G75*
G02*
X38985000Y76850000I250000J0D01*
G01*
G37*
G36*
G01*
X38985000Y74950000D02*
X39935000Y74950000D01*
G75*
G02*
X40185000Y74700000I0J-250000D01*
G01*
X40185000Y74200000D01*
G75*
G02*
X39935000Y73950000I-250000J0D01*
G01*
X38985000Y73950000D01*
G75*
G02*
X38735000Y74200000I0J250000D01*
G01*
X38735000Y74700000D01*
G75*
G02*
X38985000Y74950000I250000J0D01*
G01*
G37*
G04 #@! TD*
D18*
G04 #@! TO.C,IC1*
X30956000Y53550000D03*
X29956000Y53550000D03*
X28956000Y53550000D03*
X27956000Y53550000D03*
X26956000Y53550000D03*
X25956000Y53550000D03*
X25956000Y63500000D03*
X26956000Y63500000D03*
X27956000Y63500000D03*
X28956000Y63500000D03*
X29956000Y63500000D03*
X30956000Y63500000D03*
D19*
X28456000Y58525000D03*
D20*
X31681000Y58525000D03*
X25231000Y58525000D03*
G04 #@! TD*
G04 #@! TO.C,C8*
G36*
G01*
X24950000Y49280000D02*
X24950000Y49780000D01*
G75*
G02*
X25175000Y50005000I225000J0D01*
G01*
X25625000Y50005000D01*
G75*
G02*
X25850000Y49780000I0J-225000D01*
G01*
X25850000Y49280000D01*
G75*
G02*
X25625000Y49055000I-225000J0D01*
G01*
X25175000Y49055000D01*
G75*
G02*
X24950000Y49280000I0J225000D01*
G01*
G37*
G36*
G01*
X26500000Y49280000D02*
X26500000Y49780000D01*
G75*
G02*
X26725000Y50005000I225000J0D01*
G01*
X27175000Y50005000D01*
G75*
G02*
X27400000Y49780000I0J-225000D01*
G01*
X27400000Y49280000D01*
G75*
G02*
X27175000Y49055000I-225000J0D01*
G01*
X26725000Y49055000D01*
G75*
G02*
X26500000Y49280000I0J225000D01*
G01*
G37*
G04 #@! TD*
G04 #@! TO.C,C5*
G36*
G01*
X27148000Y65956000D02*
X27148000Y65616000D01*
G75*
G02*
X27008000Y65476000I-140000J0D01*
G01*
X26728000Y65476000D01*
G75*
G02*
X26588000Y65616000I0J140000D01*
G01*
X26588000Y65956000D01*
G75*
G02*
X26728000Y66096000I140000J0D01*
G01*
X27008000Y66096000D01*
G75*
G02*
X27148000Y65956000I0J-140000D01*
G01*
G37*
G36*
G01*
X26188000Y65956000D02*
X26188000Y65616000D01*
G75*
G02*
X26048000Y65476000I-140000J0D01*
G01*
X25768000Y65476000D01*
G75*
G02*
X25628000Y65616000I0J140000D01*
G01*
X25628000Y65956000D01*
G75*
G02*
X25768000Y66096000I140000J0D01*
G01*
X26048000Y66096000D01*
G75*
G02*
X26188000Y65956000I0J-140000D01*
G01*
G37*
G04 #@! TD*
G04 #@! TO.C,C14*
G36*
G01*
X29955000Y76850000D02*
X30905000Y76850000D01*
G75*
G02*
X31155000Y76600000I0J-250000D01*
G01*
X31155000Y76100000D01*
G75*
G02*
X30905000Y75850000I-250000J0D01*
G01*
X29955000Y75850000D01*
G75*
G02*
X29705000Y76100000I0J250000D01*
G01*
X29705000Y76600000D01*
G75*
G02*
X29955000Y76850000I250000J0D01*
G01*
G37*
G36*
G01*
X29955000Y74950000D02*
X30905000Y74950000D01*
G75*
G02*
X31155000Y74700000I0J-250000D01*
G01*
X31155000Y74200000D01*
G75*
G02*
X30905000Y73950000I-250000J0D01*
G01*
X29955000Y73950000D01*
G75*
G02*
X29705000Y74200000I0J250000D01*
G01*
X29705000Y74700000D01*
G75*
G02*
X29955000Y74950000I250000J0D01*
G01*
G37*
G04 #@! TD*
G04 #@! TO.C,C16*
G36*
G01*
X35975000Y76850000D02*
X36925000Y76850000D01*
G75*
G02*
X37175000Y76600000I0J-250000D01*
G01*
X37175000Y76100000D01*
G75*
G02*
X36925000Y75850000I-250000J0D01*
G01*
X35975000Y75850000D01*
G75*
G02*
X35725000Y76100000I0J250000D01*
G01*
X35725000Y76600000D01*
G75*
G02*
X35975000Y76850000I250000J0D01*
G01*
G37*
G36*
G01*
X35975000Y74950000D02*
X36925000Y74950000D01*
G75*
G02*
X37175000Y74700000I0J-250000D01*
G01*
X37175000Y74200000D01*
G75*
G02*
X36925000Y73950000I-250000J0D01*
G01*
X35975000Y73950000D01*
G75*
G02*
X35725000Y74200000I0J250000D01*
G01*
X35725000Y74700000D01*
G75*
G02*
X35975000Y74950000I250000J0D01*
G01*
G37*
G04 #@! TD*
G04 #@! TO.C,C11*
G36*
G01*
X30915000Y70500000D02*
X29965000Y70500000D01*
G75*
G02*
X29715000Y70750000I0J250000D01*
G01*
X29715000Y71250000D01*
G75*
G02*
X29965000Y71500000I250000J0D01*
G01*
X30915000Y71500000D01*
G75*
G02*
X31165000Y71250000I0J-250000D01*
G01*
X31165000Y70750000D01*
G75*
G02*
X30915000Y70500000I-250000J0D01*
G01*
G37*
G36*
G01*
X30915000Y72400000D02*
X29965000Y72400000D01*
G75*
G02*
X29715000Y72650000I0J250000D01*
G01*
X29715000Y73150000D01*
G75*
G02*
X29965000Y73400000I250000J0D01*
G01*
X30915000Y73400000D01*
G75*
G02*
X31165000Y73150000I0J-250000D01*
G01*
X31165000Y72650000D01*
G75*
G02*
X30915000Y72400000I-250000J0D01*
G01*
G37*
G04 #@! TD*
G04 #@! TO.C,C13*
G36*
G01*
X26945000Y76850000D02*
X27895000Y76850000D01*
G75*
G02*
X28145000Y76600000I0J-250000D01*
G01*
X28145000Y76100000D01*
G75*
G02*
X27895000Y75850000I-250000J0D01*
G01*
X26945000Y75850000D01*
G75*
G02*
X26695000Y76100000I0J250000D01*
G01*
X26695000Y76600000D01*
G75*
G02*
X26945000Y76850000I250000J0D01*
G01*
G37*
G36*
G01*
X26945000Y74950000D02*
X27895000Y74950000D01*
G75*
G02*
X28145000Y74700000I0J-250000D01*
G01*
X28145000Y74200000D01*
G75*
G02*
X27895000Y73950000I-250000J0D01*
G01*
X26945000Y73950000D01*
G75*
G02*
X26695000Y74200000I0J250000D01*
G01*
X26695000Y74700000D01*
G75*
G02*
X26945000Y74950000I250000J0D01*
G01*
G37*
G04 #@! TD*
G04 #@! TO.C,C10*
G36*
G01*
X33925000Y70500000D02*
X32975000Y70500000D01*
G75*
G02*
X32725000Y70750000I0J250000D01*
G01*
X32725000Y71250000D01*
G75*
G02*
X32975000Y71500000I250000J0D01*
G01*
X33925000Y71500000D01*
G75*
G02*
X34175000Y71250000I0J-250000D01*
G01*
X34175000Y70750000D01*
G75*
G02*
X33925000Y70500000I-250000J0D01*
G01*
G37*
G36*
G01*
X33925000Y72400000D02*
X32975000Y72400000D01*
G75*
G02*
X32725000Y72650000I0J250000D01*
G01*
X32725000Y73150000D01*
G75*
G02*
X32975000Y73400000I250000J0D01*
G01*
X33925000Y73400000D01*
G75*
G02*
X34175000Y73150000I0J-250000D01*
G01*
X34175000Y72650000D01*
G75*
G02*
X33925000Y72400000I-250000J0D01*
G01*
G37*
G04 #@! TD*
G04 #@! TO.C,C9*
G36*
G01*
X36935000Y70500000D02*
X35985000Y70500000D01*
G75*
G02*
X35735000Y70750000I0J250000D01*
G01*
X35735000Y71250000D01*
G75*
G02*
X35985000Y71500000I250000J0D01*
G01*
X36935000Y71500000D01*
G75*
G02*
X37185000Y71250000I0J-250000D01*
G01*
X37185000Y70750000D01*
G75*
G02*
X36935000Y70500000I-250000J0D01*
G01*
G37*
G36*
G01*
X36935000Y72400000D02*
X35985000Y72400000D01*
G75*
G02*
X35735000Y72650000I0J250000D01*
G01*
X35735000Y73150000D01*
G75*
G02*
X35985000Y73400000I250000J0D01*
G01*
X36935000Y73400000D01*
G75*
G02*
X37185000Y73150000I0J-250000D01*
G01*
X37185000Y72650000D01*
G75*
G02*
X36935000Y72400000I-250000J0D01*
G01*
G37*
G04 #@! TD*
G04 #@! TO.C,R14*
G36*
G01*
X37815000Y67020000D02*
X38185000Y67020000D01*
G75*
G02*
X38320000Y66885000I0J-135000D01*
G01*
X38320000Y66615000D01*
G75*
G02*
X38185000Y66480000I-135000J0D01*
G01*
X37815000Y66480000D01*
G75*
G02*
X37680000Y66615000I0J135000D01*
G01*
X37680000Y66885000D01*
G75*
G02*
X37815000Y67020000I135000J0D01*
G01*
G37*
G36*
G01*
X37815000Y66000000D02*
X38185000Y66000000D01*
G75*
G02*
X38320000Y65865000I0J-135000D01*
G01*
X38320000Y65595000D01*
G75*
G02*
X38185000Y65460000I-135000J0D01*
G01*
X37815000Y65460000D01*
G75*
G02*
X37680000Y65595000I0J135000D01*
G01*
X37680000Y65865000D01*
G75*
G02*
X37815000Y66000000I135000J0D01*
G01*
G37*
G04 #@! TD*
M02*
