G04 #@! TF.GenerationSoftware,KiCad,Pcbnew,8.0.6-8.0.6-0~ubuntu22.04.1*
G04 #@! TF.CreationDate,2024-11-14T01:32:20+00:00*
G04 #@! TF.ProjectId,hellenbremen,68656c6c-656e-4627-9265-6d656e2e6b69,rev?*
G04 #@! TF.SameCoordinates,Original*
G04 #@! TF.FileFunction,Paste,Top*
G04 #@! TF.FilePolarity,Positive*
%FSLAX46Y46*%
G04 Gerber Fmt 4.6, Leading zero omitted, Abs format (unit mm)*
G04 Created by KiCad (PCBNEW 8.0.6-8.0.6-0~ubuntu22.04.1) date 2024-11-14 01:32:20*
%MOMM*%
%LPD*%
G01*
G04 APERTURE LIST*
%ADD10R,2.300000X0.200000*%
%ADD11R,10.700000X0.200000*%
%ADD12R,2.100000X0.200000*%
%ADD13R,6.000000X0.200000*%
%ADD14R,5.400000X0.200000*%
%ADD15R,0.200000X1.400000*%
%ADD16R,0.200000X5.000000*%
%ADD17R,0.200000X6.800000*%
%ADD18R,0.200000X4.500000*%
%ADD19R,1.600000X0.200000*%
%ADD20R,5.700000X0.200000*%
%ADD21R,2.000000X0.200000*%
%ADD22R,0.711200X1.295400*%
%ADD23R,1.295400X0.711200*%
%ADD24R,0.889000X0.889000*%
G04 APERTURE END LIST*
G04 #@! TO.C,R2*
G36*
G01*
X93342000Y-84021000D02*
X93342000Y-84391000D01*
G75*
G02*
X93207000Y-84526000I-135000J0D01*
G01*
X92937000Y-84526000D01*
G75*
G02*
X92802000Y-84391000I0J135000D01*
G01*
X92802000Y-84021000D01*
G75*
G02*
X92937000Y-83886000I135000J0D01*
G01*
X93207000Y-83886000D01*
G75*
G02*
X93342000Y-84021000I0J-135000D01*
G01*
G37*
G36*
G01*
X92322000Y-84021000D02*
X92322000Y-84391000D01*
G75*
G02*
X92187000Y-84526000I-135000J0D01*
G01*
X91917000Y-84526000D01*
G75*
G02*
X91782000Y-84391000I0J135000D01*
G01*
X91782000Y-84021000D01*
G75*
G02*
X91917000Y-83886000I135000J0D01*
G01*
X92187000Y-83886000D01*
G75*
G02*
X92322000Y-84021000I0J-135000D01*
G01*
G37*
G04 #@! TD*
G04 #@! TO.C,R1*
G36*
G01*
X93340000Y-80973000D02*
X93340000Y-81343000D01*
G75*
G02*
X93205000Y-81478000I-135000J0D01*
G01*
X92935000Y-81478000D01*
G75*
G02*
X92800000Y-81343000I0J135000D01*
G01*
X92800000Y-80973000D01*
G75*
G02*
X92935000Y-80838000I135000J0D01*
G01*
X93205000Y-80838000D01*
G75*
G02*
X93340000Y-80973000I0J-135000D01*
G01*
G37*
G36*
G01*
X92320000Y-80973000D02*
X92320000Y-81343000D01*
G75*
G02*
X92185000Y-81478000I-135000J0D01*
G01*
X91915000Y-81478000D01*
G75*
G02*
X91780000Y-81343000I0J135000D01*
G01*
X91780000Y-80973000D01*
G75*
G02*
X91915000Y-80838000I135000J0D01*
G01*
X92185000Y-80838000D01*
G75*
G02*
X92320000Y-80973000I0J-135000D01*
G01*
G37*
G04 #@! TD*
D10*
G04 #@! TO.C,M3*
X48385000Y-37626996D03*
D11*
X81184998Y-37626998D03*
D12*
X72984999Y-37626998D03*
D13*
X60935000Y-37626998D03*
D14*
X54235003Y-37626998D03*
D15*
X47334997Y-39427005D03*
D16*
X87234998Y-40827000D03*
D17*
X87234998Y-49327003D03*
D18*
X87234998Y-59177006D03*
D19*
X85734999Y-79727001D03*
D20*
X53884996Y-79727001D03*
D21*
X48235003Y-79727001D03*
G04 #@! TD*
D22*
G04 #@! TO.C,U1*
X100900001Y-12024000D03*
X99900000Y-12024000D03*
X98900000Y-12024000D03*
X97899999Y-12024000D03*
X96900001Y-12024000D03*
X95900001Y-12024000D03*
X94900000Y-12024000D03*
X93899999Y-12024000D03*
X92899999Y-12024000D03*
X91900001Y-12024000D03*
X90900000Y-12024000D03*
X89900000Y-12024000D03*
X88899999Y-12024000D03*
D23*
X87250000Y-13423999D03*
X87250000Y-14424000D03*
X87250000Y-15424000D03*
X87250000Y-16424001D03*
X87250000Y-17423999D03*
X87250000Y-18423999D03*
X87250000Y-19424000D03*
X87250000Y-20424001D03*
X87250000Y-21424001D03*
X87250000Y-22423999D03*
X87250000Y-23424000D03*
X87250000Y-24424000D03*
X87250000Y-25424001D03*
D22*
X88899999Y-26824000D03*
X89900000Y-26824000D03*
X90900000Y-26824000D03*
X91900001Y-26824000D03*
X92899999Y-26824000D03*
X93899999Y-26824000D03*
X94900000Y-26824000D03*
X95900001Y-26824000D03*
X96900001Y-26824000D03*
X97899999Y-26824000D03*
X98900000Y-26824000D03*
X99900000Y-26824000D03*
X100900001Y-26824000D03*
D24*
X95100000Y-17544000D03*
X95100000Y-18744000D03*
X95100000Y-19944000D03*
X93900000Y-17544000D03*
X93900000Y-18744000D03*
X93900000Y-19944000D03*
X92700000Y-17544000D03*
X92700000Y-18744000D03*
X92700000Y-19944000D03*
G04 #@! TD*
G04 #@! TO.C,J3*
G36*
G01*
X95147000Y-86436000D02*
X94297000Y-86436000D01*
G75*
G02*
X94147000Y-86286000I0J150000D01*
G01*
X94147000Y-85986000D01*
G75*
G02*
X94297000Y-85836000I150000J0D01*
G01*
X95147000Y-85836000D01*
G75*
G02*
X95297000Y-85986000I0J-150000D01*
G01*
X95297000Y-86286000D01*
G75*
G02*
X95147000Y-86436000I-150000J0D01*
G01*
G37*
G36*
G01*
X95147000Y-85636000D02*
X94297000Y-85636000D01*
G75*
G02*
X94147000Y-85486000I0J150000D01*
G01*
X94147000Y-85186000D01*
G75*
G02*
X94297000Y-85036000I150000J0D01*
G01*
X95147000Y-85036000D01*
G75*
G02*
X95297000Y-85186000I0J-150000D01*
G01*
X95297000Y-85486000D01*
G75*
G02*
X95147000Y-85636000I-150000J0D01*
G01*
G37*
G36*
G01*
X95222000Y-84336000D02*
X94222000Y-84336000D01*
G75*
G02*
X94147000Y-84261000I0J75000D01*
G01*
X94147000Y-84111000D01*
G75*
G02*
X94222000Y-84036000I75000J0D01*
G01*
X95222000Y-84036000D01*
G75*
G02*
X95297000Y-84111000I0J-75000D01*
G01*
X95297000Y-84261000D01*
G75*
G02*
X95222000Y-84336000I-75000J0D01*
G01*
G37*
G36*
G01*
X95222000Y-83336000D02*
X94222000Y-83336000D01*
G75*
G02*
X94147000Y-83261000I0J75000D01*
G01*
X94147000Y-83111000D01*
G75*
G02*
X94222000Y-83036000I75000J0D01*
G01*
X95222000Y-83036000D01*
G75*
G02*
X95297000Y-83111000I0J-75000D01*
G01*
X95297000Y-83261000D01*
G75*
G02*
X95222000Y-83336000I-75000J0D01*
G01*
G37*
G36*
G01*
X95222000Y-82836000D02*
X94222000Y-82836000D01*
G75*
G02*
X94147000Y-82761000I0J75000D01*
G01*
X94147000Y-82611000D01*
G75*
G02*
X94222000Y-82536000I75000J0D01*
G01*
X95222000Y-82536000D01*
G75*
G02*
X95297000Y-82611000I0J-75000D01*
G01*
X95297000Y-82761000D01*
G75*
G02*
X95222000Y-82836000I-75000J0D01*
G01*
G37*
G36*
G01*
X95222000Y-81836000D02*
X94222000Y-81836000D01*
G75*
G02*
X94147000Y-81761000I0J75000D01*
G01*
X94147000Y-81611000D01*
G75*
G02*
X94222000Y-81536000I75000J0D01*
G01*
X95222000Y-81536000D01*
G75*
G02*
X95297000Y-81611000I0J-75000D01*
G01*
X95297000Y-81761000D01*
G75*
G02*
X95222000Y-81836000I-75000J0D01*
G01*
G37*
G36*
G01*
X95147000Y-80836000D02*
X94297000Y-80836000D01*
G75*
G02*
X94147000Y-80686000I0J150000D01*
G01*
X94147000Y-80386000D01*
G75*
G02*
X94297000Y-80236000I150000J0D01*
G01*
X95147000Y-80236000D01*
G75*
G02*
X95297000Y-80386000I0J-150000D01*
G01*
X95297000Y-80686000D01*
G75*
G02*
X95147000Y-80836000I-150000J0D01*
G01*
G37*
G36*
G01*
X95147000Y-80036000D02*
X94297000Y-80036000D01*
G75*
G02*
X94147000Y-79886000I0J150000D01*
G01*
X94147000Y-79586000D01*
G75*
G02*
X94297000Y-79436000I150000J0D01*
G01*
X95147000Y-79436000D01*
G75*
G02*
X95297000Y-79586000I0J-150000D01*
G01*
X95297000Y-79886000D01*
G75*
G02*
X95147000Y-80036000I-150000J0D01*
G01*
G37*
G36*
G01*
X95147000Y-80036000D02*
X94297000Y-80036000D01*
G75*
G02*
X94147000Y-79886000I0J150000D01*
G01*
X94147000Y-79586000D01*
G75*
G02*
X94297000Y-79436000I150000J0D01*
G01*
X95147000Y-79436000D01*
G75*
G02*
X95297000Y-79586000I0J-150000D01*
G01*
X95297000Y-79886000D01*
G75*
G02*
X95147000Y-80036000I-150000J0D01*
G01*
G37*
G36*
G01*
X95147000Y-80836000D02*
X94297000Y-80836000D01*
G75*
G02*
X94147000Y-80686000I0J150000D01*
G01*
X94147000Y-80386000D01*
G75*
G02*
X94297000Y-80236000I150000J0D01*
G01*
X95147000Y-80236000D01*
G75*
G02*
X95297000Y-80386000I0J-150000D01*
G01*
X95297000Y-80686000D01*
G75*
G02*
X95147000Y-80836000I-150000J0D01*
G01*
G37*
G36*
G01*
X95222000Y-81336000D02*
X94222000Y-81336000D01*
G75*
G02*
X94147000Y-81261000I0J75000D01*
G01*
X94147000Y-81111000D01*
G75*
G02*
X94222000Y-81036000I75000J0D01*
G01*
X95222000Y-81036000D01*
G75*
G02*
X95297000Y-81111000I0J-75000D01*
G01*
X95297000Y-81261000D01*
G75*
G02*
X95222000Y-81336000I-75000J0D01*
G01*
G37*
G36*
G01*
X95222000Y-82336000D02*
X94222000Y-82336000D01*
G75*
G02*
X94147000Y-82261000I0J75000D01*
G01*
X94147000Y-82111000D01*
G75*
G02*
X94222000Y-82036000I75000J0D01*
G01*
X95222000Y-82036000D01*
G75*
G02*
X95297000Y-82111000I0J-75000D01*
G01*
X95297000Y-82261000D01*
G75*
G02*
X95222000Y-82336000I-75000J0D01*
G01*
G37*
G36*
G01*
X95222000Y-83836000D02*
X94222000Y-83836000D01*
G75*
G02*
X94147000Y-83761000I0J75000D01*
G01*
X94147000Y-83611000D01*
G75*
G02*
X94222000Y-83536000I75000J0D01*
G01*
X95222000Y-83536000D01*
G75*
G02*
X95297000Y-83611000I0J-75000D01*
G01*
X95297000Y-83761000D01*
G75*
G02*
X95222000Y-83836000I-75000J0D01*
G01*
G37*
G36*
G01*
X95222000Y-84836000D02*
X94222000Y-84836000D01*
G75*
G02*
X94147000Y-84761000I0J75000D01*
G01*
X94147000Y-84611000D01*
G75*
G02*
X94222000Y-84536000I75000J0D01*
G01*
X95222000Y-84536000D01*
G75*
G02*
X95297000Y-84611000I0J-75000D01*
G01*
X95297000Y-84761000D01*
G75*
G02*
X95222000Y-84836000I-75000J0D01*
G01*
G37*
G36*
G01*
X95147000Y-85636000D02*
X94297000Y-85636000D01*
G75*
G02*
X94147000Y-85486000I0J150000D01*
G01*
X94147000Y-85186000D01*
G75*
G02*
X94297000Y-85036000I150000J0D01*
G01*
X95147000Y-85036000D01*
G75*
G02*
X95297000Y-85186000I0J-150000D01*
G01*
X95297000Y-85486000D01*
G75*
G02*
X95147000Y-85636000I-150000J0D01*
G01*
G37*
G36*
G01*
X95147000Y-86436000D02*
X94297000Y-86436000D01*
G75*
G02*
X94147000Y-86286000I0J150000D01*
G01*
X94147000Y-85986000D01*
G75*
G02*
X94297000Y-85836000I150000J0D01*
G01*
X95147000Y-85836000D01*
G75*
G02*
X95297000Y-85986000I0J-150000D01*
G01*
X95297000Y-86286000D01*
G75*
G02*
X95147000Y-86436000I-150000J0D01*
G01*
G37*
G36*
G01*
X96047000Y-89136000D02*
X94547000Y-89136000D01*
G75*
G02*
X94297000Y-88886000I0J250000D01*
G01*
X94297000Y-87206000D01*
G75*
G02*
X94547000Y-86956000I250000J0D01*
G01*
X96047000Y-86956000D01*
G75*
G02*
X96297000Y-87206000I0J-250000D01*
G01*
X96297000Y-88886000D01*
G75*
G02*
X96047000Y-89136000I-250000J0D01*
G01*
G37*
G36*
G01*
X99977000Y-89136000D02*
X98477000Y-89136000D01*
G75*
G02*
X98227000Y-88886000I0J250000D01*
G01*
X98227000Y-87206000D01*
G75*
G02*
X98477000Y-86956000I250000J0D01*
G01*
X99977000Y-86956000D01*
G75*
G02*
X100227000Y-87206000I0J-250000D01*
G01*
X100227000Y-88886000D01*
G75*
G02*
X99977000Y-89136000I-250000J0D01*
G01*
G37*
G36*
G01*
X96047000Y-78916000D02*
X94547000Y-78916000D01*
G75*
G02*
X94297000Y-78666000I0J250000D01*
G01*
X94297000Y-76986000D01*
G75*
G02*
X94547000Y-76736000I250000J0D01*
G01*
X96047000Y-76736000D01*
G75*
G02*
X96297000Y-76986000I0J-250000D01*
G01*
X96297000Y-78666000D01*
G75*
G02*
X96047000Y-78916000I-250000J0D01*
G01*
G37*
G36*
G01*
X99977000Y-78916000D02*
X98477000Y-78916000D01*
G75*
G02*
X98227000Y-78666000I0J250000D01*
G01*
X98227000Y-76986000D01*
G75*
G02*
X98477000Y-76736000I250000J0D01*
G01*
X99977000Y-76736000D01*
G75*
G02*
X100227000Y-76986000I0J-250000D01*
G01*
X100227000Y-78666000D01*
G75*
G02*
X99977000Y-78916000I-250000J0D01*
G01*
G37*
G04 #@! TD*
M02*
