G04 #@! TF.GenerationSoftware,KiCad,Pcbnew,8.0.6-8.0.6-0~ubuntu22.04.1*
G04 #@! TF.CreationDate,2024-11-22T01:28:01+00:00*
G04 #@! TF.ProjectId,hellenbremen,68656c6c-656e-4627-9265-6d656e2e6b69,rev?*
G04 #@! TF.SameCoordinates,Original*
G04 #@! TF.FileFunction,Paste,Top*
G04 #@! TF.FilePolarity,Positive*
%FSLAX46Y46*%
G04 Gerber Fmt 4.6, Leading zero omitted, Abs format (unit mm)*
G04 Created by KiCad (PCBNEW 8.0.6-8.0.6-0~ubuntu22.04.1) date 2024-11-22 01:28:01*
%MOMM*%
%LPD*%
G01*
G04 APERTURE LIST*
%ADD10C,0.000000*%
%ADD11R,3.048000X1.397000*%
%ADD12R,5.918200X5.511800*%
%ADD13R,1.460500X0.533400*%
%ADD14R,0.533400X1.460500*%
%ADD15R,2.300000X0.200000*%
%ADD16R,10.700000X0.200000*%
%ADD17R,2.100000X0.200000*%
%ADD18R,6.000000X0.200000*%
%ADD19R,5.400000X0.200000*%
%ADD20R,0.200000X1.400000*%
%ADD21R,0.200000X5.000000*%
%ADD22R,0.200000X6.800000*%
%ADD23R,0.200000X4.500000*%
%ADD24R,1.600000X0.200000*%
%ADD25R,5.700000X0.200000*%
%ADD26R,2.000000X0.200000*%
%ADD27R,0.457200X1.422400*%
%ADD28R,7.800010X1.599997*%
%ADD29R,0.711200X1.295400*%
%ADD30R,1.295400X0.711200*%
%ADD31R,0.889000X0.889000*%
G04 APERTURE END LIST*
D10*
G04 #@! TO.C,U5*
G36*
X33580700Y55530900D02*
G01*
X28475300Y55530900D01*
X28475300Y59721900D01*
X33580700Y59721900D01*
X33580700Y55530900D01*
G37*
G36*
X29651650Y58424900D02*
G01*
X28575300Y58424900D01*
X28575300Y59621900D01*
X29651650Y59621900D01*
X29651650Y58424900D01*
G37*
G36*
X29651650Y57027900D02*
G01*
X28575300Y57027900D01*
X28575300Y58224900D01*
X29651650Y58224900D01*
X29651650Y57027900D01*
G37*
G36*
X29651650Y55630900D02*
G01*
X28575300Y55630900D01*
X28575300Y56827900D01*
X29651650Y56827900D01*
X29651650Y55630900D01*
G37*
G36*
X30928000Y58424900D02*
G01*
X29851650Y58424900D01*
X29851650Y59621900D01*
X30928000Y59621900D01*
X30928000Y58424900D01*
G37*
G36*
X30928000Y57027900D02*
G01*
X29851650Y57027900D01*
X29851650Y58224900D01*
X30928000Y58224900D01*
X30928000Y57027900D01*
G37*
G36*
X30928000Y55630900D02*
G01*
X29851650Y55630900D01*
X29851650Y56827900D01*
X30928000Y56827900D01*
X30928000Y55630900D01*
G37*
G36*
X32204350Y58424900D02*
G01*
X31128000Y58424900D01*
X31128000Y59621900D01*
X32204350Y59621900D01*
X32204350Y58424900D01*
G37*
G36*
X32204350Y57027900D02*
G01*
X31128000Y57027900D01*
X31128000Y58224900D01*
X32204350Y58224900D01*
X32204350Y57027900D01*
G37*
G36*
X32204350Y55630900D02*
G01*
X31128000Y55630900D01*
X31128000Y56827900D01*
X32204350Y56827900D01*
X32204350Y55630900D01*
G37*
G36*
X33480700Y58424900D02*
G01*
X32404350Y58424900D01*
X32404350Y59621900D01*
X33480700Y59621900D01*
X33480700Y58424900D01*
G37*
G36*
X33480700Y57027900D02*
G01*
X32404350Y57027900D01*
X32404350Y58224900D01*
X33480700Y58224900D01*
X33480700Y57027900D01*
G37*
G36*
X33480700Y55630900D02*
G01*
X32404350Y55630900D01*
X32404350Y56827900D01*
X33480700Y56827900D01*
X33480700Y55630900D01*
G37*
G04 #@! TD*
G04 #@! TO.C,R11*
G36*
G01*
X42818000Y74951000D02*
X42818000Y74401000D01*
G75*
G02*
X42618000Y74201000I-200000J0D01*
G01*
X42218000Y74201000D01*
G75*
G02*
X42018000Y74401000I0J200000D01*
G01*
X42018000Y74951000D01*
G75*
G02*
X42218000Y75151000I200000J0D01*
G01*
X42618000Y75151000D01*
G75*
G02*
X42818000Y74951000I0J-200000D01*
G01*
G37*
G36*
G01*
X41168000Y74951000D02*
X41168000Y74401000D01*
G75*
G02*
X40968000Y74201000I-200000J0D01*
G01*
X40568000Y74201000D01*
G75*
G02*
X40368000Y74401000I0J200000D01*
G01*
X40368000Y74951000D01*
G75*
G02*
X40568000Y75151000I200000J0D01*
G01*
X40968000Y75151000D01*
G75*
G02*
X41168000Y74951000I0J-200000D01*
G01*
G37*
G04 #@! TD*
G04 #@! TO.C,R6*
G36*
G01*
X35986710Y20422144D02*
X35616710Y20422144D01*
G75*
G02*
X35481710Y20557144I0J135000D01*
G01*
X35481710Y20827144D01*
G75*
G02*
X35616710Y20962144I135000J0D01*
G01*
X35986710Y20962144D01*
G75*
G02*
X36121710Y20827144I0J-135000D01*
G01*
X36121710Y20557144D01*
G75*
G02*
X35986710Y20422144I-135000J0D01*
G01*
G37*
G36*
G01*
X35986710Y21442144D02*
X35616710Y21442144D01*
G75*
G02*
X35481710Y21577144I0J135000D01*
G01*
X35481710Y21847144D01*
G75*
G02*
X35616710Y21982144I135000J0D01*
G01*
X35986710Y21982144D01*
G75*
G02*
X36121710Y21847144I0J-135000D01*
G01*
X36121710Y21577144D01*
G75*
G02*
X35986710Y21442144I-135000J0D01*
G01*
G37*
G04 #@! TD*
G04 #@! TO.C,C2*
G36*
G01*
X82834000Y77046000D02*
X82834000Y77386000D01*
G75*
G02*
X82974000Y77526000I140000J0D01*
G01*
X83254000Y77526000D01*
G75*
G02*
X83394000Y77386000I0J-140000D01*
G01*
X83394000Y77046000D01*
G75*
G02*
X83254000Y76906000I-140000J0D01*
G01*
X82974000Y76906000D01*
G75*
G02*
X82834000Y77046000I0J140000D01*
G01*
G37*
G36*
G01*
X83794000Y77046000D02*
X83794000Y77386000D01*
G75*
G02*
X83934000Y77526000I140000J0D01*
G01*
X84214000Y77526000D01*
G75*
G02*
X84354000Y77386000I0J-140000D01*
G01*
X84354000Y77046000D01*
G75*
G02*
X84214000Y76906000I-140000J0D01*
G01*
X83934000Y76906000D01*
G75*
G02*
X83794000Y77046000I0J140000D01*
G01*
G37*
G04 #@! TD*
G04 #@! TO.C,C7*
G36*
G01*
X77857500Y71416000D02*
X77857500Y70316000D01*
G75*
G02*
X77607500Y70066000I-250000J0D01*
G01*
X74782500Y70066000D01*
G75*
G02*
X74532500Y70316000I0J250000D01*
G01*
X74532500Y71416000D01*
G75*
G02*
X74782500Y71666000I250000J0D01*
G01*
X77607500Y71666000D01*
G75*
G02*
X77857500Y71416000I0J-250000D01*
G01*
G37*
G36*
G01*
X72782500Y71416000D02*
X72782500Y70316000D01*
G75*
G02*
X72532500Y70066000I-250000J0D01*
G01*
X69707500Y70066000D01*
G75*
G02*
X69457500Y70316000I0J250000D01*
G01*
X69457500Y71416000D01*
G75*
G02*
X69707500Y71666000I250000J0D01*
G01*
X72532500Y71666000D01*
G75*
G02*
X72782500Y71416000I0J-250000D01*
G01*
G37*
G04 #@! TD*
G04 #@! TO.C,D1*
G36*
G01*
X84325000Y74594500D02*
X84325000Y74249500D01*
G75*
G02*
X84177500Y74102000I-147500J0D01*
G01*
X83882500Y74102000D01*
G75*
G02*
X83735000Y74249500I0J147500D01*
G01*
X83735000Y74594500D01*
G75*
G02*
X83882500Y74742000I147500J0D01*
G01*
X84177500Y74742000D01*
G75*
G02*
X84325000Y74594500I0J-147500D01*
G01*
G37*
G36*
G01*
X83355000Y74594500D02*
X83355000Y74249500D01*
G75*
G02*
X83207500Y74102000I-147500J0D01*
G01*
X82912500Y74102000D01*
G75*
G02*
X82765000Y74249500I0J147500D01*
G01*
X82765000Y74594500D01*
G75*
G02*
X82912500Y74742000I147500J0D01*
G01*
X83207500Y74742000D01*
G75*
G02*
X83355000Y74594500I0J-147500D01*
G01*
G37*
G04 #@! TD*
G04 #@! TO.C,R12*
G36*
G01*
X23350000Y39439000D02*
X23350000Y39809000D01*
G75*
G02*
X23485000Y39944000I135000J0D01*
G01*
X23755000Y39944000D01*
G75*
G02*
X23890000Y39809000I0J-135000D01*
G01*
X23890000Y39439000D01*
G75*
G02*
X23755000Y39304000I-135000J0D01*
G01*
X23485000Y39304000D01*
G75*
G02*
X23350000Y39439000I0J135000D01*
G01*
G37*
G36*
G01*
X24370000Y39439000D02*
X24370000Y39809000D01*
G75*
G02*
X24505000Y39944000I135000J0D01*
G01*
X24775000Y39944000D01*
G75*
G02*
X24910000Y39809000I0J-135000D01*
G01*
X24910000Y39439000D01*
G75*
G02*
X24775000Y39304000I-135000J0D01*
G01*
X24505000Y39304000D01*
G75*
G02*
X24370000Y39439000I0J135000D01*
G01*
G37*
G04 #@! TD*
D11*
G04 #@! TO.C,Q1*
X38176200Y67306000D03*
D12*
X30822900Y69596000D03*
D11*
X38176200Y71886000D03*
G04 #@! TD*
G04 #@! TO.C,Q2*
X38176200Y74672000D03*
D12*
X30822900Y76962000D03*
D11*
X38176200Y79252000D03*
G04 #@! TD*
G04 #@! TO.C,C4*
G36*
G01*
X87914000Y97112000D02*
X87914000Y97452000D01*
G75*
G02*
X88054000Y97592000I140000J0D01*
G01*
X88334000Y97592000D01*
G75*
G02*
X88474000Y97452000I0J-140000D01*
G01*
X88474000Y97112000D01*
G75*
G02*
X88334000Y96972000I-140000J0D01*
G01*
X88054000Y96972000D01*
G75*
G02*
X87914000Y97112000I0J140000D01*
G01*
G37*
G36*
G01*
X88874000Y97112000D02*
X88874000Y97452000D01*
G75*
G02*
X89014000Y97592000I140000J0D01*
G01*
X89294000Y97592000D01*
G75*
G02*
X89434000Y97452000I0J-140000D01*
G01*
X89434000Y97112000D01*
G75*
G02*
X89294000Y96972000I-140000J0D01*
G01*
X89014000Y96972000D01*
G75*
G02*
X88874000Y97112000I0J140000D01*
G01*
G37*
G04 #@! TD*
G04 #@! TO.C,R3*
G36*
G01*
X35999000Y23606000D02*
X35629000Y23606000D01*
G75*
G02*
X35494000Y23741000I0J135000D01*
G01*
X35494000Y24011000D01*
G75*
G02*
X35629000Y24146000I135000J0D01*
G01*
X35999000Y24146000D01*
G75*
G02*
X36134000Y24011000I0J-135000D01*
G01*
X36134000Y23741000D01*
G75*
G02*
X35999000Y23606000I-135000J0D01*
G01*
G37*
G36*
G01*
X35999000Y24626000D02*
X35629000Y24626000D01*
G75*
G02*
X35494000Y24761000I0J135000D01*
G01*
X35494000Y25031000D01*
G75*
G02*
X35629000Y25166000I135000J0D01*
G01*
X35999000Y25166000D01*
G75*
G02*
X36134000Y25031000I0J-135000D01*
G01*
X36134000Y24761000D01*
G75*
G02*
X35999000Y24626000I-135000J0D01*
G01*
G37*
G04 #@! TD*
G04 #@! TO.C,C5*
G36*
G01*
X32260000Y63838000D02*
X32260000Y64178000D01*
G75*
G02*
X32400000Y64318000I140000J0D01*
G01*
X32680000Y64318000D01*
G75*
G02*
X32820000Y64178000I0J-140000D01*
G01*
X32820000Y63838000D01*
G75*
G02*
X32680000Y63698000I-140000J0D01*
G01*
X32400000Y63698000D01*
G75*
G02*
X32260000Y63838000I0J140000D01*
G01*
G37*
G36*
G01*
X33220000Y63838000D02*
X33220000Y64178000D01*
G75*
G02*
X33360000Y64318000I140000J0D01*
G01*
X33640000Y64318000D01*
G75*
G02*
X33780000Y64178000I0J-140000D01*
G01*
X33780000Y63838000D01*
G75*
G02*
X33640000Y63698000I-140000J0D01*
G01*
X33360000Y63698000D01*
G75*
G02*
X33220000Y63838000I0J140000D01*
G01*
G37*
G04 #@! TD*
G04 #@! TO.C,J3*
G36*
G01*
X95299000Y6564000D02*
X94449000Y6564000D01*
G75*
G02*
X94299000Y6714000I0J150000D01*
G01*
X94299000Y7014000D01*
G75*
G02*
X94449000Y7164000I150000J0D01*
G01*
X95299000Y7164000D01*
G75*
G02*
X95449000Y7014000I0J-150000D01*
G01*
X95449000Y6714000D01*
G75*
G02*
X95299000Y6564000I-150000J0D01*
G01*
G37*
G36*
G01*
X95299000Y7364000D02*
X94449000Y7364000D01*
G75*
G02*
X94299000Y7514000I0J150000D01*
G01*
X94299000Y7814000D01*
G75*
G02*
X94449000Y7964000I150000J0D01*
G01*
X95299000Y7964000D01*
G75*
G02*
X95449000Y7814000I0J-150000D01*
G01*
X95449000Y7514000D01*
G75*
G02*
X95299000Y7364000I-150000J0D01*
G01*
G37*
G36*
G01*
X95374000Y8664000D02*
X94374000Y8664000D01*
G75*
G02*
X94299000Y8739000I0J75000D01*
G01*
X94299000Y8889000D01*
G75*
G02*
X94374000Y8964000I75000J0D01*
G01*
X95374000Y8964000D01*
G75*
G02*
X95449000Y8889000I0J-75000D01*
G01*
X95449000Y8739000D01*
G75*
G02*
X95374000Y8664000I-75000J0D01*
G01*
G37*
G36*
G01*
X95374000Y9664000D02*
X94374000Y9664000D01*
G75*
G02*
X94299000Y9739000I0J75000D01*
G01*
X94299000Y9889000D01*
G75*
G02*
X94374000Y9964000I75000J0D01*
G01*
X95374000Y9964000D01*
G75*
G02*
X95449000Y9889000I0J-75000D01*
G01*
X95449000Y9739000D01*
G75*
G02*
X95374000Y9664000I-75000J0D01*
G01*
G37*
G36*
G01*
X95374000Y10164000D02*
X94374000Y10164000D01*
G75*
G02*
X94299000Y10239000I0J75000D01*
G01*
X94299000Y10389000D01*
G75*
G02*
X94374000Y10464000I75000J0D01*
G01*
X95374000Y10464000D01*
G75*
G02*
X95449000Y10389000I0J-75000D01*
G01*
X95449000Y10239000D01*
G75*
G02*
X95374000Y10164000I-75000J0D01*
G01*
G37*
G36*
G01*
X95374000Y11164000D02*
X94374000Y11164000D01*
G75*
G02*
X94299000Y11239000I0J75000D01*
G01*
X94299000Y11389000D01*
G75*
G02*
X94374000Y11464000I75000J0D01*
G01*
X95374000Y11464000D01*
G75*
G02*
X95449000Y11389000I0J-75000D01*
G01*
X95449000Y11239000D01*
G75*
G02*
X95374000Y11164000I-75000J0D01*
G01*
G37*
G36*
G01*
X95299000Y12164000D02*
X94449000Y12164000D01*
G75*
G02*
X94299000Y12314000I0J150000D01*
G01*
X94299000Y12614000D01*
G75*
G02*
X94449000Y12764000I150000J0D01*
G01*
X95299000Y12764000D01*
G75*
G02*
X95449000Y12614000I0J-150000D01*
G01*
X95449000Y12314000D01*
G75*
G02*
X95299000Y12164000I-150000J0D01*
G01*
G37*
G36*
G01*
X95299000Y12964000D02*
X94449000Y12964000D01*
G75*
G02*
X94299000Y13114000I0J150000D01*
G01*
X94299000Y13414000D01*
G75*
G02*
X94449000Y13564000I150000J0D01*
G01*
X95299000Y13564000D01*
G75*
G02*
X95449000Y13414000I0J-150000D01*
G01*
X95449000Y13114000D01*
G75*
G02*
X95299000Y12964000I-150000J0D01*
G01*
G37*
G36*
G01*
X95299000Y12964000D02*
X94449000Y12964000D01*
G75*
G02*
X94299000Y13114000I0J150000D01*
G01*
X94299000Y13414000D01*
G75*
G02*
X94449000Y13564000I150000J0D01*
G01*
X95299000Y13564000D01*
G75*
G02*
X95449000Y13414000I0J-150000D01*
G01*
X95449000Y13114000D01*
G75*
G02*
X95299000Y12964000I-150000J0D01*
G01*
G37*
G36*
G01*
X95299000Y12164000D02*
X94449000Y12164000D01*
G75*
G02*
X94299000Y12314000I0J150000D01*
G01*
X94299000Y12614000D01*
G75*
G02*
X94449000Y12764000I150000J0D01*
G01*
X95299000Y12764000D01*
G75*
G02*
X95449000Y12614000I0J-150000D01*
G01*
X95449000Y12314000D01*
G75*
G02*
X95299000Y12164000I-150000J0D01*
G01*
G37*
G36*
G01*
X95374000Y11664000D02*
X94374000Y11664000D01*
G75*
G02*
X94299000Y11739000I0J75000D01*
G01*
X94299000Y11889000D01*
G75*
G02*
X94374000Y11964000I75000J0D01*
G01*
X95374000Y11964000D01*
G75*
G02*
X95449000Y11889000I0J-75000D01*
G01*
X95449000Y11739000D01*
G75*
G02*
X95374000Y11664000I-75000J0D01*
G01*
G37*
G36*
G01*
X95374000Y10664000D02*
X94374000Y10664000D01*
G75*
G02*
X94299000Y10739000I0J75000D01*
G01*
X94299000Y10889000D01*
G75*
G02*
X94374000Y10964000I75000J0D01*
G01*
X95374000Y10964000D01*
G75*
G02*
X95449000Y10889000I0J-75000D01*
G01*
X95449000Y10739000D01*
G75*
G02*
X95374000Y10664000I-75000J0D01*
G01*
G37*
G36*
G01*
X95374000Y9164000D02*
X94374000Y9164000D01*
G75*
G02*
X94299000Y9239000I0J75000D01*
G01*
X94299000Y9389000D01*
G75*
G02*
X94374000Y9464000I75000J0D01*
G01*
X95374000Y9464000D01*
G75*
G02*
X95449000Y9389000I0J-75000D01*
G01*
X95449000Y9239000D01*
G75*
G02*
X95374000Y9164000I-75000J0D01*
G01*
G37*
G36*
G01*
X95374000Y8164000D02*
X94374000Y8164000D01*
G75*
G02*
X94299000Y8239000I0J75000D01*
G01*
X94299000Y8389000D01*
G75*
G02*
X94374000Y8464000I75000J0D01*
G01*
X95374000Y8464000D01*
G75*
G02*
X95449000Y8389000I0J-75000D01*
G01*
X95449000Y8239000D01*
G75*
G02*
X95374000Y8164000I-75000J0D01*
G01*
G37*
G36*
G01*
X95299000Y7364000D02*
X94449000Y7364000D01*
G75*
G02*
X94299000Y7514000I0J150000D01*
G01*
X94299000Y7814000D01*
G75*
G02*
X94449000Y7964000I150000J0D01*
G01*
X95299000Y7964000D01*
G75*
G02*
X95449000Y7814000I0J-150000D01*
G01*
X95449000Y7514000D01*
G75*
G02*
X95299000Y7364000I-150000J0D01*
G01*
G37*
G36*
G01*
X95299000Y6564000D02*
X94449000Y6564000D01*
G75*
G02*
X94299000Y6714000I0J150000D01*
G01*
X94299000Y7014000D01*
G75*
G02*
X94449000Y7164000I150000J0D01*
G01*
X95299000Y7164000D01*
G75*
G02*
X95449000Y7014000I0J-150000D01*
G01*
X95449000Y6714000D01*
G75*
G02*
X95299000Y6564000I-150000J0D01*
G01*
G37*
G36*
G01*
X96199000Y3864000D02*
X94699000Y3864000D01*
G75*
G02*
X94449000Y4114000I0J250000D01*
G01*
X94449000Y5794000D01*
G75*
G02*
X94699000Y6044000I250000J0D01*
G01*
X96199000Y6044000D01*
G75*
G02*
X96449000Y5794000I0J-250000D01*
G01*
X96449000Y4114000D01*
G75*
G02*
X96199000Y3864000I-250000J0D01*
G01*
G37*
G36*
G01*
X100129000Y3864000D02*
X98629000Y3864000D01*
G75*
G02*
X98379000Y4114000I0J250000D01*
G01*
X98379000Y5794000D01*
G75*
G02*
X98629000Y6044000I250000J0D01*
G01*
X100129000Y6044000D01*
G75*
G02*
X100379000Y5794000I0J-250000D01*
G01*
X100379000Y4114000D01*
G75*
G02*
X100129000Y3864000I-250000J0D01*
G01*
G37*
G36*
G01*
X96199000Y14084000D02*
X94699000Y14084000D01*
G75*
G02*
X94449000Y14334000I0J250000D01*
G01*
X94449000Y16014000D01*
G75*
G02*
X94699000Y16264000I250000J0D01*
G01*
X96199000Y16264000D01*
G75*
G02*
X96449000Y16014000I0J-250000D01*
G01*
X96449000Y14334000D01*
G75*
G02*
X96199000Y14084000I-250000J0D01*
G01*
G37*
G36*
G01*
X100129000Y14084000D02*
X98629000Y14084000D01*
G75*
G02*
X98379000Y14334000I0J250000D01*
G01*
X98379000Y16014000D01*
G75*
G02*
X98629000Y16264000I250000J0D01*
G01*
X100129000Y16264000D01*
G75*
G02*
X100379000Y16014000I0J-250000D01*
G01*
X100379000Y14334000D01*
G75*
G02*
X100129000Y14084000I-250000J0D01*
G01*
G37*
G04 #@! TD*
G04 #@! TO.C,R7*
G36*
G01*
X82788000Y75253000D02*
X82788000Y75623000D01*
G75*
G02*
X82923000Y75758000I135000J0D01*
G01*
X83193000Y75758000D01*
G75*
G02*
X83328000Y75623000I0J-135000D01*
G01*
X83328000Y75253000D01*
G75*
G02*
X83193000Y75118000I-135000J0D01*
G01*
X82923000Y75118000D01*
G75*
G02*
X82788000Y75253000I0J135000D01*
G01*
G37*
G36*
G01*
X83808000Y75253000D02*
X83808000Y75623000D01*
G75*
G02*
X83943000Y75758000I135000J0D01*
G01*
X84213000Y75758000D01*
G75*
G02*
X84348000Y75623000I0J-135000D01*
G01*
X84348000Y75253000D01*
G75*
G02*
X84213000Y75118000I-135000J0D01*
G01*
X83943000Y75118000D01*
G75*
G02*
X83808000Y75253000I0J135000D01*
G01*
G37*
G04 #@! TD*
D13*
G04 #@! TO.C,U6*
X34404300Y81788000D03*
X34404300Y83058000D03*
X34404300Y84328000D03*
X34404300Y85598000D03*
X28956000Y85598000D03*
X28956000Y84328000D03*
X28956000Y83058000D03*
X28956000Y81788000D03*
G04 #@! TD*
G04 #@! TO.C,R10*
G36*
G01*
X91930000Y77285000D02*
X91930000Y77655000D01*
G75*
G02*
X92065000Y77790000I135000J0D01*
G01*
X92335000Y77790000D01*
G75*
G02*
X92470000Y77655000I0J-135000D01*
G01*
X92470000Y77285000D01*
G75*
G02*
X92335000Y77150000I-135000J0D01*
G01*
X92065000Y77150000D01*
G75*
G02*
X91930000Y77285000I0J135000D01*
G01*
G37*
G36*
G01*
X92950000Y77285000D02*
X92950000Y77655000D01*
G75*
G02*
X93085000Y77790000I135000J0D01*
G01*
X93355000Y77790000D01*
G75*
G02*
X93490000Y77655000I0J-135000D01*
G01*
X93490000Y77285000D01*
G75*
G02*
X93355000Y77150000I-135000J0D01*
G01*
X93085000Y77150000D01*
G75*
G02*
X92950000Y77285000I0J135000D01*
G01*
G37*
G04 #@! TD*
G04 #@! TO.C,U3*
X34220150Y18161000D03*
X34220150Y19431000D03*
X34220150Y20701000D03*
X34220150Y21971000D03*
X28771850Y21971000D03*
X28771850Y20701000D03*
X28771850Y19431000D03*
X28771850Y18161000D03*
G04 #@! TD*
G04 #@! TO.C,R9*
G36*
G01*
X89921000Y98113000D02*
X89921000Y98483000D01*
G75*
G02*
X90056000Y98618000I135000J0D01*
G01*
X90326000Y98618000D01*
G75*
G02*
X90461000Y98483000I0J-135000D01*
G01*
X90461000Y98113000D01*
G75*
G02*
X90326000Y97978000I-135000J0D01*
G01*
X90056000Y97978000D01*
G75*
G02*
X89921000Y98113000I0J135000D01*
G01*
G37*
G36*
G01*
X90941000Y98113000D02*
X90941000Y98483000D01*
G75*
G02*
X91076000Y98618000I135000J0D01*
G01*
X91346000Y98618000D01*
G75*
G02*
X91481000Y98483000I0J-135000D01*
G01*
X91481000Y98113000D01*
G75*
G02*
X91346000Y97978000I-135000J0D01*
G01*
X91076000Y97978000D01*
G75*
G02*
X90941000Y98113000I0J135000D01*
G01*
G37*
G04 #@! TD*
G04 #@! TO.C,C1*
G36*
G01*
X82074000Y78236000D02*
X82074000Y78736000D01*
G75*
G02*
X82299000Y78961000I225000J0D01*
G01*
X82749000Y78961000D01*
G75*
G02*
X82974000Y78736000I0J-225000D01*
G01*
X82974000Y78236000D01*
G75*
G02*
X82749000Y78011000I-225000J0D01*
G01*
X82299000Y78011000D01*
G75*
G02*
X82074000Y78236000I0J225000D01*
G01*
G37*
G36*
G01*
X83624000Y78236000D02*
X83624000Y78736000D01*
G75*
G02*
X83849000Y78961000I225000J0D01*
G01*
X84299000Y78961000D01*
G75*
G02*
X84524000Y78736000I0J-225000D01*
G01*
X84524000Y78236000D01*
G75*
G02*
X84299000Y78011000I-225000J0D01*
G01*
X83849000Y78011000D01*
G75*
G02*
X83624000Y78236000I0J225000D01*
G01*
G37*
G04 #@! TD*
G04 #@! TO.C,C3*
G36*
G01*
X86900000Y98302000D02*
X86900000Y98802000D01*
G75*
G02*
X87125000Y99027000I225000J0D01*
G01*
X87575000Y99027000D01*
G75*
G02*
X87800000Y98802000I0J-225000D01*
G01*
X87800000Y98302000D01*
G75*
G02*
X87575000Y98077000I-225000J0D01*
G01*
X87125000Y98077000D01*
G75*
G02*
X86900000Y98302000I0J225000D01*
G01*
G37*
G36*
G01*
X88450000Y98302000D02*
X88450000Y98802000D01*
G75*
G02*
X88675000Y99027000I225000J0D01*
G01*
X89125000Y99027000D01*
G75*
G02*
X89350000Y98802000I0J-225000D01*
G01*
X89350000Y98302000D01*
G75*
G02*
X89125000Y98077000I-225000J0D01*
G01*
X88675000Y98077000D01*
G75*
G02*
X88450000Y98302000I0J225000D01*
G01*
G37*
G04 #@! TD*
G04 #@! TO.C,D2*
G36*
G01*
X89921000Y97109500D02*
X89921000Y97454500D01*
G75*
G02*
X90068500Y97602000I147500J0D01*
G01*
X90363500Y97602000D01*
G75*
G02*
X90511000Y97454500I0J-147500D01*
G01*
X90511000Y97109500D01*
G75*
G02*
X90363500Y96962000I-147500J0D01*
G01*
X90068500Y96962000D01*
G75*
G02*
X89921000Y97109500I0J147500D01*
G01*
G37*
G36*
G01*
X90891000Y97109500D02*
X90891000Y97454500D01*
G75*
G02*
X91038500Y97602000I147500J0D01*
G01*
X91333500Y97602000D01*
G75*
G02*
X91481000Y97454500I0J-147500D01*
G01*
X91481000Y97109500D01*
G75*
G02*
X91333500Y96962000I-147500J0D01*
G01*
X91038500Y96962000D01*
G75*
G02*
X90891000Y97109500I0J147500D01*
G01*
G37*
G04 #@! TD*
G04 #@! TO.C,R16*
G36*
G01*
X36253000Y84054000D02*
X35883000Y84054000D01*
G75*
G02*
X35748000Y84189000I0J135000D01*
G01*
X35748000Y84459000D01*
G75*
G02*
X35883000Y84594000I135000J0D01*
G01*
X36253000Y84594000D01*
G75*
G02*
X36388000Y84459000I0J-135000D01*
G01*
X36388000Y84189000D01*
G75*
G02*
X36253000Y84054000I-135000J0D01*
G01*
G37*
G36*
G01*
X36253000Y85074000D02*
X35883000Y85074000D01*
G75*
G02*
X35748000Y85209000I0J135000D01*
G01*
X35748000Y85479000D01*
G75*
G02*
X35883000Y85614000I135000J0D01*
G01*
X36253000Y85614000D01*
G75*
G02*
X36388000Y85479000I0J-135000D01*
G01*
X36388000Y85209000D01*
G75*
G02*
X36253000Y85074000I-135000J0D01*
G01*
G37*
G04 #@! TD*
D14*
G04 #@! TO.C,U4*
X23622000Y41217850D03*
X24892000Y41217850D03*
X26162000Y41217850D03*
X27432000Y41217850D03*
X27432000Y46666150D03*
X26162000Y46666150D03*
X24892000Y46666150D03*
X23622000Y46666150D03*
G04 #@! TD*
D13*
G04 #@! TO.C,U2*
X34220150Y23876000D03*
X34220150Y25146000D03*
X34220150Y26416000D03*
X34220150Y27686000D03*
X28771850Y27686000D03*
X28771850Y26416000D03*
X28771850Y25146000D03*
X28771850Y23876000D03*
G04 #@! TD*
G04 #@! TO.C,R2*
G36*
G01*
X93490000Y8979000D02*
X93490000Y8609000D01*
G75*
G02*
X93355000Y8474000I-135000J0D01*
G01*
X93085000Y8474000D01*
G75*
G02*
X92950000Y8609000I0J135000D01*
G01*
X92950000Y8979000D01*
G75*
G02*
X93085000Y9114000I135000J0D01*
G01*
X93355000Y9114000D01*
G75*
G02*
X93490000Y8979000I0J-135000D01*
G01*
G37*
G36*
G01*
X92470000Y8979000D02*
X92470000Y8609000D01*
G75*
G02*
X92335000Y8474000I-135000J0D01*
G01*
X92065000Y8474000D01*
G75*
G02*
X91930000Y8609000I0J135000D01*
G01*
X91930000Y8979000D01*
G75*
G02*
X92065000Y9114000I135000J0D01*
G01*
X92335000Y9114000D01*
G75*
G02*
X92470000Y8979000I0J-135000D01*
G01*
G37*
G04 #@! TD*
G04 #@! TO.C,D3*
G36*
G01*
X91928000Y78313500D02*
X91928000Y78658500D01*
G75*
G02*
X92075500Y78806000I147500J0D01*
G01*
X92370500Y78806000D01*
G75*
G02*
X92518000Y78658500I0J-147500D01*
G01*
X92518000Y78313500D01*
G75*
G02*
X92370500Y78166000I-147500J0D01*
G01*
X92075500Y78166000D01*
G75*
G02*
X91928000Y78313500I0J147500D01*
G01*
G37*
G36*
G01*
X92898000Y78313500D02*
X92898000Y78658500D01*
G75*
G02*
X93045500Y78806000I147500J0D01*
G01*
X93340500Y78806000D01*
G75*
G02*
X93488000Y78658500I0J-147500D01*
G01*
X93488000Y78313500D01*
G75*
G02*
X93340500Y78166000I-147500J0D01*
G01*
X93045500Y78166000D01*
G75*
G02*
X92898000Y78313500I0J147500D01*
G01*
G37*
G04 #@! TD*
D15*
G04 #@! TO.C,M3*
X50313000Y53691004D03*
D16*
X83112998Y53691002D03*
D17*
X74912999Y53691002D03*
D18*
X62863000Y53691002D03*
D19*
X56163003Y53691002D03*
D20*
X49262997Y51890995D03*
D21*
X89162998Y50491000D03*
D22*
X89162998Y41990997D03*
D23*
X89162998Y32140994D03*
D24*
X87662999Y11590999D03*
D25*
X55812996Y11590999D03*
D26*
X50163003Y11590999D03*
G04 #@! TD*
G04 #@! TO.C,R8*
G36*
G01*
X42818000Y67585000D02*
X42818000Y67035000D01*
G75*
G02*
X42618000Y66835000I-200000J0D01*
G01*
X42218000Y66835000D01*
G75*
G02*
X42018000Y67035000I0J200000D01*
G01*
X42018000Y67585000D01*
G75*
G02*
X42218000Y67785000I200000J0D01*
G01*
X42618000Y67785000D01*
G75*
G02*
X42818000Y67585000I0J-200000D01*
G01*
G37*
G36*
G01*
X41168000Y67585000D02*
X41168000Y67035000D01*
G75*
G02*
X40968000Y66835000I-200000J0D01*
G01*
X40568000Y66835000D01*
G75*
G02*
X40368000Y67035000I0J200000D01*
G01*
X40368000Y67585000D01*
G75*
G02*
X40568000Y67785000I200000J0D01*
G01*
X40968000Y67785000D01*
G75*
G02*
X41168000Y67585000I0J-200000D01*
G01*
G37*
G04 #@! TD*
G04 #@! TO.C,R15*
G36*
G01*
X36253000Y81518000D02*
X35883000Y81518000D01*
G75*
G02*
X35748000Y81653000I0J135000D01*
G01*
X35748000Y81923000D01*
G75*
G02*
X35883000Y82058000I135000J0D01*
G01*
X36253000Y82058000D01*
G75*
G02*
X36388000Y81923000I0J-135000D01*
G01*
X36388000Y81653000D01*
G75*
G02*
X36253000Y81518000I-135000J0D01*
G01*
G37*
G36*
G01*
X36253000Y82538000D02*
X35883000Y82538000D01*
G75*
G02*
X35748000Y82673000I0J135000D01*
G01*
X35748000Y82943000D01*
G75*
G02*
X35883000Y83078000I135000J0D01*
G01*
X36253000Y83078000D01*
G75*
G02*
X36388000Y82943000I0J-135000D01*
G01*
X36388000Y82673000D01*
G75*
G02*
X36253000Y82538000I-135000J0D01*
G01*
G37*
G04 #@! TD*
D27*
G04 #@! TO.C,U5*
X28528000Y52832000D03*
X29528000Y52832000D03*
X30528001Y52832000D03*
X31527999Y52832000D03*
X32528000Y52832000D03*
X33528000Y52832000D03*
X33528000Y62420800D03*
X32528000Y62420800D03*
X31527999Y62420800D03*
X30528001Y62420800D03*
X29528000Y62420800D03*
X28528000Y62420800D03*
D28*
X31028000Y57626400D03*
G04 #@! TD*
G04 #@! TO.C,R4*
G36*
G01*
X35999000Y26144000D02*
X35629000Y26144000D01*
G75*
G02*
X35494000Y26279000I0J135000D01*
G01*
X35494000Y26549000D01*
G75*
G02*
X35629000Y26684000I135000J0D01*
G01*
X35999000Y26684000D01*
G75*
G02*
X36134000Y26549000I0J-135000D01*
G01*
X36134000Y26279000D01*
G75*
G02*
X35999000Y26144000I-135000J0D01*
G01*
G37*
G36*
G01*
X35999000Y27164000D02*
X35629000Y27164000D01*
G75*
G02*
X35494000Y27299000I0J135000D01*
G01*
X35494000Y27569000D01*
G75*
G02*
X35629000Y27704000I135000J0D01*
G01*
X35999000Y27704000D01*
G75*
G02*
X36134000Y27569000I0J-135000D01*
G01*
X36134000Y27299000D01*
G75*
G02*
X35999000Y27164000I-135000J0D01*
G01*
G37*
G04 #@! TD*
G04 #@! TO.C,C8*
G36*
G01*
X31620223Y49065052D02*
X31120223Y49065052D01*
G75*
G02*
X30895223Y49290052I0J225000D01*
G01*
X30895223Y49740052D01*
G75*
G02*
X31120223Y49965052I225000J0D01*
G01*
X31620223Y49965052D01*
G75*
G02*
X31845223Y49740052I0J-225000D01*
G01*
X31845223Y49290052D01*
G75*
G02*
X31620223Y49065052I-225000J0D01*
G01*
G37*
G36*
G01*
X31620223Y50615052D02*
X31120223Y50615052D01*
G75*
G02*
X30895223Y50840052I0J225000D01*
G01*
X30895223Y51290052D01*
G75*
G02*
X31120223Y51515052I225000J0D01*
G01*
X31620223Y51515052D01*
G75*
G02*
X31845223Y51290052I0J-225000D01*
G01*
X31845223Y50840052D01*
G75*
G02*
X31620223Y50615052I-225000J0D01*
G01*
G37*
G04 #@! TD*
G04 #@! TO.C,R1*
G36*
G01*
X93492000Y12027000D02*
X93492000Y11657000D01*
G75*
G02*
X93357000Y11522000I-135000J0D01*
G01*
X93087000Y11522000D01*
G75*
G02*
X92952000Y11657000I0J135000D01*
G01*
X92952000Y12027000D01*
G75*
G02*
X93087000Y12162000I135000J0D01*
G01*
X93357000Y12162000D01*
G75*
G02*
X93492000Y12027000I0J-135000D01*
G01*
G37*
G36*
G01*
X92472000Y12027000D02*
X92472000Y11657000D01*
G75*
G02*
X92337000Y11522000I-135000J0D01*
G01*
X92067000Y11522000D01*
G75*
G02*
X91932000Y11657000I0J135000D01*
G01*
X91932000Y12027000D01*
G75*
G02*
X92067000Y12162000I135000J0D01*
G01*
X92337000Y12162000D01*
G75*
G02*
X92472000Y12027000I0J-135000D01*
G01*
G37*
G04 #@! TD*
D29*
G04 #@! TO.C,U1*
X95150001Y95400000D03*
X94150000Y95400000D03*
X93150000Y95400000D03*
X92149999Y95400000D03*
X91150001Y95400000D03*
X90150001Y95400000D03*
X89150000Y95400000D03*
X88149999Y95400000D03*
X87149999Y95400000D03*
X86150001Y95400000D03*
X85150000Y95400000D03*
X84150000Y95400000D03*
X83149999Y95400000D03*
D30*
X81500000Y94000001D03*
X81500000Y93000000D03*
X81500000Y92000000D03*
X81500000Y90999999D03*
X81500000Y90000001D03*
X81500000Y89000001D03*
X81500000Y88000000D03*
X81500000Y86999999D03*
X81500000Y85999999D03*
X81500000Y85000001D03*
X81500000Y84000000D03*
X81500000Y83000000D03*
X81500000Y81999999D03*
D29*
X83149999Y80600000D03*
X84150000Y80600000D03*
X85150000Y80600000D03*
X86150001Y80600000D03*
X87149999Y80600000D03*
X88149999Y80600000D03*
X89150000Y80600000D03*
X90150001Y80600000D03*
X91150001Y80600000D03*
X92149999Y80600000D03*
X93150000Y80600000D03*
X94150000Y80600000D03*
X95150001Y80600000D03*
D31*
X89350000Y89880000D03*
X89350000Y88680000D03*
X89350000Y87480000D03*
X88150000Y89880000D03*
X88150000Y88680000D03*
X88150000Y87480000D03*
X86950000Y89880000D03*
X86950000Y88680000D03*
X86950000Y87480000D03*
G04 #@! TD*
G04 #@! TO.C,C6*
G36*
G01*
X32288000Y51138000D02*
X32288000Y51478000D01*
G75*
G02*
X32428000Y51618000I140000J0D01*
G01*
X32708000Y51618000D01*
G75*
G02*
X32848000Y51478000I0J-140000D01*
G01*
X32848000Y51138000D01*
G75*
G02*
X32708000Y50998000I-140000J0D01*
G01*
X32428000Y50998000D01*
G75*
G02*
X32288000Y51138000I0J140000D01*
G01*
G37*
G36*
G01*
X33248000Y51138000D02*
X33248000Y51478000D01*
G75*
G02*
X33388000Y51618000I140000J0D01*
G01*
X33668000Y51618000D01*
G75*
G02*
X33808000Y51478000I0J-140000D01*
G01*
X33808000Y51138000D01*
G75*
G02*
X33668000Y50998000I-140000J0D01*
G01*
X33388000Y50998000D01*
G75*
G02*
X33248000Y51138000I0J140000D01*
G01*
G37*
G04 #@! TD*
G04 #@! TO.C,R13*
G36*
G01*
X25888000Y39439000D02*
X25888000Y39809000D01*
G75*
G02*
X26023000Y39944000I135000J0D01*
G01*
X26293000Y39944000D01*
G75*
G02*
X26428000Y39809000I0J-135000D01*
G01*
X26428000Y39439000D01*
G75*
G02*
X26293000Y39304000I-135000J0D01*
G01*
X26023000Y39304000D01*
G75*
G02*
X25888000Y39439000I0J135000D01*
G01*
G37*
G36*
G01*
X26908000Y39439000D02*
X26908000Y39809000D01*
G75*
G02*
X27043000Y39944000I135000J0D01*
G01*
X27313000Y39944000D01*
G75*
G02*
X27448000Y39809000I0J-135000D01*
G01*
X27448000Y39439000D01*
G75*
G02*
X27313000Y39304000I-135000J0D01*
G01*
X27043000Y39304000D01*
G75*
G02*
X26908000Y39439000I0J135000D01*
G01*
G37*
G04 #@! TD*
G04 #@! TO.C,R5*
G36*
G01*
X35999000Y17762000D02*
X35629000Y17762000D01*
G75*
G02*
X35494000Y17897000I0J135000D01*
G01*
X35494000Y18167000D01*
G75*
G02*
X35629000Y18302000I135000J0D01*
G01*
X35999000Y18302000D01*
G75*
G02*
X36134000Y18167000I0J-135000D01*
G01*
X36134000Y17897000D01*
G75*
G02*
X35999000Y17762000I-135000J0D01*
G01*
G37*
G36*
G01*
X35999000Y18782000D02*
X35629000Y18782000D01*
G75*
G02*
X35494000Y18917000I0J135000D01*
G01*
X35494000Y19187000D01*
G75*
G02*
X35629000Y19322000I135000J0D01*
G01*
X35999000Y19322000D01*
G75*
G02*
X36134000Y19187000I0J-135000D01*
G01*
X36134000Y18917000D01*
G75*
G02*
X35999000Y18782000I-135000J0D01*
G01*
G37*
G04 #@! TD*
M02*
