M48
; DRILL file {KiCad 8.0.6-8.0.6-0~ubuntu22.04.1} date 2024-11-22T01:28:01+0000
; FORMAT={2:4/ absolute / inch / suppress leading zeros}
; #@! TF.CreationDate,2024-11-22T01:28:01+00:00
; #@! TF.GenerationSoftware,Kicad,Pcbnew,8.0.6-8.0.6-0~ubuntu22.04.1
; #@! TF.FileFunction,MixedPlating,1,4
FMAT,2
INCH,TZ
; #@! TA.AperFunction,Plated,PTH,ComponentDrill
T1C0.0118
; #@! TA.AperFunction,Plated,PTH,ViaDrill
T2C0.0236
; #@! TA.AperFunction,Plated,PTH,ComponentDrill
T3C0.0394
; #@! TA.AperFunction,Plated,PTH,ComponentDrill
T4C0.0433
; #@! TA.AperFunction,Plated,PTH,ComponentDrill
T5C0.0591
; #@! TA.AperFunction,NonPlated,NPTH,ComponentDrill
T6C0.0256
; #@! TA.AperFunction,NonPlated,NPTH,ComponentDrill
T7C0.0827
; #@! TA.AperFunction,NonPlated,NPTH,ComponentDrill
T8C0.1772
%
G90
G05
T1
X12205Y14638
X12205Y14244
X14537Y12623
X14537Y12269
X14575Y19423
X14575Y19069
X17884Y17181
X17884Y16709
X17884Y16237
X17884Y15764
X17962Y12623
X17962Y12249
X17962Y11875
X18000Y19423
X18000Y19049
X18000Y18675
X19474Y17122
X19474Y16178
X19474Y14760
X19474Y13815
X19474Y9563
X19474Y8146
X19474Y6296
X19474Y4878
X19474Y20902
X19474Y19957
X19474Y19485
X19474Y19012
X19474Y18540
X19474Y18067
X19474Y17595
X19474Y16650
X19474Y15705
X19474Y15233
X19474Y14288
X19474Y13343
X19474Y12870
X19474Y12398
X19474Y11926
X19474Y11453
X19474Y10981
X19474Y10508
X19474Y10036
X19474Y9091
X19474Y8618
X19474Y7674
X19474Y7201
X19474Y6768
X19474Y5823
X19474Y5351
X20340Y4642
X20458Y21059
X20655Y4642
X20852Y21059
X23293Y4642
X23371Y21059
X23607Y4642
X23922Y4642
X24237Y4642
X24552Y4642
X24867Y4642
X25182Y4642
X25497Y4642
X25812Y4642
X26127Y4642
X26127Y21059
X26151Y24532
X26151Y24139
X26442Y4642
X26521Y21059
X26757Y4642
X26915Y21059
X27072Y4642
X27308Y21059
X27387Y4642
X27702Y4642
X27702Y21059
X28017Y4642
X28096Y21059
X28332Y4642
X28489Y21059
X28647Y4642
X28883Y21059
X28962Y4642
X29277Y4642
X29592Y4642
X29907Y4642
X30104Y21059
X30222Y4642
X30419Y21059
X30537Y4642
X30852Y4642
X31167Y4642
X31481Y4642
X31796Y4642
X32111Y4642
X32426Y4642
X32741Y4642
X33056Y4642
X33371Y4642
X33686Y4642
X34001Y4642
X35025Y21059
X35025Y18697
X35025Y18382
X35025Y18067
X35025Y14996
X35025Y14681
X35025Y14367
X35025Y14052
X35025Y13737
X35025Y11571
X35025Y11256
X35025Y10626
X35025Y10311
X35025Y9996
X35025Y9681
X35025Y8737
X35025Y8422
X35025Y8107
X35025Y7792
X35025Y7477
X35025Y7162
X35025Y6532
X35025Y6217
X35025Y5902
X35025Y5587
X35025Y4642
X35025Y10941
X35025Y9367
X35025Y9052
X35025Y6847
X35025Y5272
X35025Y4957
T2
X10300Y19100
X10500Y8200
X10500Y7200
T3
X19871Y30615
X19871Y29887
X19871Y27938
X19871Y23194
X25974Y30438
X25974Y27918
X25974Y27170
X25974Y25477
X25974Y23017
X36700Y29300
X36700Y28300
X36700Y27300
T4
X2618Y27362
X2618Y26362
X2618Y25362
X2618Y24362
X2618Y23362
X2618Y22362
X2618Y21362
X2618Y20362
X2618Y19362
X2618Y18362
X2618Y17362
X2618Y16362
X2618Y15362
X2618Y14362
X2618Y13362
X2618Y12362
X2618Y11362
X2618Y10362
X2618Y9362
X3618Y27362
X3618Y26362
X3618Y25362
X3618Y24362
X3618Y23362
X3618Y22362
X3618Y21362
X3618Y20362
X3618Y19362
X3618Y18362
X3618Y17362
X3618Y16362
X3618Y15362
X3618Y14362
X3618Y13362
X3618Y12362
X3618Y11362
X3618Y10362
X3618Y9362
X6000Y27362
X6000Y26362
X6000Y25362
X6000Y24362
X6000Y23362
X6000Y22362
X6000Y21362
X6000Y20362
X6000Y19362
X6000Y18362
X6000Y17362
X6000Y16362
X6000Y15362
X6000Y14362
X6000Y13362
X6000Y12362
X6000Y11362
X6000Y10362
X6000Y9362
X7000Y27362
X7000Y26362
X7000Y25362
X7000Y24362
X7000Y23362
X7000Y22362
X7000Y21362
X7000Y20362
X7000Y19362
X7000Y18362
X7000Y17362
X7000Y16362
X7000Y15362
X7000Y14362
X7000Y13362
X7000Y12362
X7000Y11362
X7000Y10362
X7000Y9362
T5
X3799Y32756
X3799Y30472
X4717Y31614
X7000Y32756
X7000Y30472
T6
X37775Y5100
X37775Y2824
T7
X7004Y34724
X7004Y6772
T8
X3500Y36496
X3500Y5000
M30
