G04 #@! TF.GenerationSoftware,KiCad,Pcbnew,8.0.7-8.0.7-0~ubuntu24.04.1*
G04 #@! TF.CreationDate,2025-01-02T20:04:47+00:00*
G04 #@! TF.ProjectId,hellenbremen,68656c6c-656e-4627-9265-6d656e2e6b69,rev?*
G04 #@! TF.SameCoordinates,Original*
G04 #@! TF.FileFunction,Soldermask,Top*
G04 #@! TF.FilePolarity,Negative*
%FSLAX46Y46*%
G04 Gerber Fmt 4.6, Leading zero omitted, Abs format (unit mm)*
G04 Created by KiCad (PCBNEW 8.0.7-8.0.7-0~ubuntu24.04.1) date 2025-01-02 20:04:47*
%MOMM*%
%LPD*%
G01*
G04 APERTURE LIST*
%ADD10C,0.600000*%
%ADD11C,2.000000*%
%ADD12R,1.460500X0.533400*%
%ADD13R,3.048000X1.397000*%
%ADD14R,5.918200X5.511800*%
%ADD15C,1.500000*%
%ADD16C,0.650000*%
%ADD17R,1.700000X1.700000*%
%ADD18O,1.700000X1.700000*%
%ADD19C,4.250000*%
%ADD20C,2.500000*%
%ADD21C,1.700000*%
%ADD22R,0.711200X1.295400*%
%ADD23R,1.295400X0.711200*%
%ADD24R,0.889000X0.889000*%
%ADD25R,1.150000X0.700000*%
%ADD26R,1.200000X0.700000*%
%ADD27R,4.100000X1.970000*%
%ADD28R,2.489200X0.939800*%
G04 APERTURE END LIST*
G04 #@! TO.C,R6*
G36*
G01*
X33620000Y30415000D02*
X33620000Y30785000D01*
G75*
G02*
X33755000Y30920000I135000J0D01*
G01*
X34025000Y30920000D01*
G75*
G02*
X34160000Y30785000I0J-135000D01*
G01*
X34160000Y30415000D01*
G75*
G02*
X34025000Y30280000I-135000J0D01*
G01*
X33755000Y30280000D01*
G75*
G02*
X33620000Y30415000I0J135000D01*
G01*
G37*
G36*
G01*
X34640000Y30415000D02*
X34640000Y30785000D01*
G75*
G02*
X34775000Y30920000I135000J0D01*
G01*
X35045000Y30920000D01*
G75*
G02*
X35180000Y30785000I0J-135000D01*
G01*
X35180000Y30415000D01*
G75*
G02*
X35045000Y30280000I-135000J0D01*
G01*
X34775000Y30280000D01*
G75*
G02*
X34640000Y30415000I0J135000D01*
G01*
G37*
G04 #@! TD*
D10*
G04 #@! TO.C,M5*
X46639000Y52636998D03*
X46639000Y51686998D03*
X46639000Y50737000D03*
X37939000Y51736998D03*
X37939000Y52636998D03*
G04 #@! TD*
G04 #@! TO.C,R11*
G36*
G01*
X42817998Y74951002D02*
X42817998Y74401002D01*
G75*
G02*
X42617998Y74201002I-200000J0D01*
G01*
X42217998Y74201002D01*
G75*
G02*
X42017998Y74401002I0J200000D01*
G01*
X42017998Y74951002D01*
G75*
G02*
X42217998Y75151002I200000J0D01*
G01*
X42617998Y75151002D01*
G75*
G02*
X42817998Y74951002I0J-200000D01*
G01*
G37*
G36*
G01*
X41167998Y74951002D02*
X41167998Y74401002D01*
G75*
G02*
X40967998Y74201002I-200000J0D01*
G01*
X40567998Y74201002D01*
G75*
G02*
X40367998Y74401002I0J200000D01*
G01*
X40367998Y74951002D01*
G75*
G02*
X40567998Y75151002I200000J0D01*
G01*
X40967998Y75151002D01*
G75*
G02*
X41167998Y74951002I0J-200000D01*
G01*
G37*
G04 #@! TD*
D11*
G04 #@! TO.C,FID3*
X100076000Y1778000D03*
G04 #@! TD*
G04 #@! TO.C,R16*
G36*
G01*
X40885000Y89320000D02*
X40515000Y89320000D01*
G75*
G02*
X40380000Y89455000I0J135000D01*
G01*
X40380000Y89725000D01*
G75*
G02*
X40515000Y89860000I135000J0D01*
G01*
X40885000Y89860000D01*
G75*
G02*
X41020000Y89725000I0J-135000D01*
G01*
X41020000Y89455000D01*
G75*
G02*
X40885000Y89320000I-135000J0D01*
G01*
G37*
G36*
G01*
X40885000Y90340000D02*
X40515000Y90340000D01*
G75*
G02*
X40380000Y90475000I0J135000D01*
G01*
X40380000Y90745000D01*
G75*
G02*
X40515000Y90880000I135000J0D01*
G01*
X40885000Y90880000D01*
G75*
G02*
X41020000Y90745000I0J-135000D01*
G01*
X41020000Y90475000D01*
G75*
G02*
X40885000Y90340000I-135000J0D01*
G01*
G37*
G04 #@! TD*
D10*
G04 #@! TO.C,M4*
X43647000Y42257000D03*
X43647000Y41057000D03*
X43647000Y43457000D03*
X43647000Y44657000D03*
X29222000Y38197000D03*
X29222000Y37197000D03*
G04 #@! TD*
G04 #@! TO.C,C2*
G36*
G01*
X82834000Y76284000D02*
X82834000Y76624000D01*
G75*
G02*
X82974000Y76764000I140000J0D01*
G01*
X83254000Y76764000D01*
G75*
G02*
X83394000Y76624000I0J-140000D01*
G01*
X83394000Y76284000D01*
G75*
G02*
X83254000Y76144000I-140000J0D01*
G01*
X82974000Y76144000D01*
G75*
G02*
X82834000Y76284000I0J140000D01*
G01*
G37*
G36*
G01*
X83794000Y76284000D02*
X83794000Y76624000D01*
G75*
G02*
X83934000Y76764000I140000J0D01*
G01*
X84214000Y76764000D01*
G75*
G02*
X84354000Y76624000I0J-140000D01*
G01*
X84354000Y76284000D01*
G75*
G02*
X84214000Y76144000I-140000J0D01*
G01*
X83934000Y76144000D01*
G75*
G02*
X83794000Y76284000I0J140000D01*
G01*
G37*
G04 #@! TD*
D12*
G04 #@! TO.C,U7*
X31172150Y57277000D03*
X31172150Y58547000D03*
X31172150Y59817000D03*
X31172150Y61087000D03*
X25723850Y61087000D03*
X25723850Y59817000D03*
X25723850Y58547000D03*
X25723850Y57277000D03*
G04 #@! TD*
G04 #@! TO.C,D1*
G36*
G01*
X84325000Y73324500D02*
X84325000Y72979500D01*
G75*
G02*
X84177500Y72832000I-147500J0D01*
G01*
X83882500Y72832000D01*
G75*
G02*
X83735000Y72979500I0J147500D01*
G01*
X83735000Y73324500D01*
G75*
G02*
X83882500Y73472000I147500J0D01*
G01*
X84177500Y73472000D01*
G75*
G02*
X84325000Y73324500I0J-147500D01*
G01*
G37*
G36*
G01*
X83355000Y73324500D02*
X83355000Y72979500D01*
G75*
G02*
X83207500Y72832000I-147500J0D01*
G01*
X82912500Y72832000D01*
G75*
G02*
X82765000Y72979500I0J147500D01*
G01*
X82765000Y73324500D01*
G75*
G02*
X82912500Y73472000I147500J0D01*
G01*
X83207500Y73472000D01*
G75*
G02*
X83355000Y73324500I0J-147500D01*
G01*
G37*
G04 #@! TD*
G04 #@! TO.C,R12*
G36*
G01*
X33713000Y48877000D02*
X33343000Y48877000D01*
G75*
G02*
X33208000Y49012000I0J135000D01*
G01*
X33208000Y49282000D01*
G75*
G02*
X33343000Y49417000I135000J0D01*
G01*
X33713000Y49417000D01*
G75*
G02*
X33848000Y49282000I0J-135000D01*
G01*
X33848000Y49012000D01*
G75*
G02*
X33713000Y48877000I-135000J0D01*
G01*
G37*
G36*
G01*
X33713000Y49897000D02*
X33343000Y49897000D01*
G75*
G02*
X33208000Y50032000I0J135000D01*
G01*
X33208000Y50302000D01*
G75*
G02*
X33343000Y50437000I135000J0D01*
G01*
X33713000Y50437000D01*
G75*
G02*
X33848000Y50302000I0J-135000D01*
G01*
X33848000Y50032000D01*
G75*
G02*
X33713000Y49897000I-135000J0D01*
G01*
G37*
G04 #@! TD*
D11*
G04 #@! TO.C,TP4*
X68850000Y81900000D03*
G04 #@! TD*
D13*
G04 #@! TO.C,Q1*
X38176200Y67306000D03*
D14*
X30822900Y69596000D03*
D13*
X38176200Y71886000D03*
G04 #@! TD*
G04 #@! TO.C,R4*
G36*
G01*
X31290000Y15755000D02*
X31660000Y15755000D01*
G75*
G02*
X31795000Y15620000I0J-135000D01*
G01*
X31795000Y15350000D01*
G75*
G02*
X31660000Y15215000I-135000J0D01*
G01*
X31290000Y15215000D01*
G75*
G02*
X31155000Y15350000I0J135000D01*
G01*
X31155000Y15620000D01*
G75*
G02*
X31290000Y15755000I135000J0D01*
G01*
G37*
G36*
G01*
X31290000Y14735000D02*
X31660000Y14735000D01*
G75*
G02*
X31795000Y14600000I0J-135000D01*
G01*
X31795000Y14330000D01*
G75*
G02*
X31660000Y14195000I-135000J0D01*
G01*
X31290000Y14195000D01*
G75*
G02*
X31155000Y14330000I0J135000D01*
G01*
X31155000Y14600000D01*
G75*
G02*
X31290000Y14735000I135000J0D01*
G01*
G37*
G04 #@! TD*
D11*
G04 #@! TO.C,FID2*
X100076000Y105156000D03*
G04 #@! TD*
D13*
G04 #@! TO.C,Q2*
X38176198Y74672002D03*
D14*
X30822898Y76962002D03*
D13*
X38176198Y79252002D03*
G04 #@! TD*
G04 #@! TO.C,C4*
G36*
G01*
X87914000Y97112000D02*
X87914000Y97452000D01*
G75*
G02*
X88054000Y97592000I140000J0D01*
G01*
X88334000Y97592000D01*
G75*
G02*
X88474000Y97452000I0J-140000D01*
G01*
X88474000Y97112000D01*
G75*
G02*
X88334000Y96972000I-140000J0D01*
G01*
X88054000Y96972000D01*
G75*
G02*
X87914000Y97112000I0J140000D01*
G01*
G37*
G36*
G01*
X88874000Y97112000D02*
X88874000Y97452000D01*
G75*
G02*
X89014000Y97592000I140000J0D01*
G01*
X89294000Y97592000D01*
G75*
G02*
X89434000Y97452000I0J-140000D01*
G01*
X89434000Y97112000D01*
G75*
G02*
X89294000Y96972000I-140000J0D01*
G01*
X89014000Y96972000D01*
G75*
G02*
X88874000Y97112000I0J140000D01*
G01*
G37*
G04 #@! TD*
G04 #@! TO.C,R18*
G36*
G01*
X32951000Y59674000D02*
X32581000Y59674000D01*
G75*
G02*
X32446000Y59809000I0J135000D01*
G01*
X32446000Y60079000D01*
G75*
G02*
X32581000Y60214000I135000J0D01*
G01*
X32951000Y60214000D01*
G75*
G02*
X33086000Y60079000I0J-135000D01*
G01*
X33086000Y59809000D01*
G75*
G02*
X32951000Y59674000I-135000J0D01*
G01*
G37*
G36*
G01*
X32951000Y60694000D02*
X32581000Y60694000D01*
G75*
G02*
X32446000Y60829000I0J135000D01*
G01*
X32446000Y61099000D01*
G75*
G02*
X32581000Y61234000I135000J0D01*
G01*
X32951000Y61234000D01*
G75*
G02*
X33086000Y61099000I0J-135000D01*
G01*
X33086000Y60829000D01*
G75*
G02*
X32951000Y60694000I-135000J0D01*
G01*
G37*
G04 #@! TD*
G04 #@! TO.C,R17*
G36*
G01*
X32494000Y57727000D02*
X32494000Y58097000D01*
G75*
G02*
X32629000Y58232000I135000J0D01*
G01*
X32899000Y58232000D01*
G75*
G02*
X33034000Y58097000I0J-135000D01*
G01*
X33034000Y57727000D01*
G75*
G02*
X32899000Y57592000I-135000J0D01*
G01*
X32629000Y57592000D01*
G75*
G02*
X32494000Y57727000I0J135000D01*
G01*
G37*
G36*
G01*
X33514000Y57727000D02*
X33514000Y58097000D01*
G75*
G02*
X33649000Y58232000I135000J0D01*
G01*
X33919000Y58232000D01*
G75*
G02*
X34054000Y58097000I0J-135000D01*
G01*
X34054000Y57727000D01*
G75*
G02*
X33919000Y57592000I-135000J0D01*
G01*
X33649000Y57592000D01*
G75*
G02*
X33514000Y57727000I0J135000D01*
G01*
G37*
G04 #@! TD*
D15*
G04 #@! TO.C,M2*
X65278000Y87556999D03*
X65278000Y81157002D03*
X65278000Y79256999D03*
X65278000Y74956999D03*
D10*
X65727999Y72557002D03*
X65727999Y71557001D03*
D15*
X65278000Y68706999D03*
X49778003Y88007001D03*
X49778003Y86157002D03*
X49778003Y81206999D03*
X49778003Y69157001D03*
G04 #@! TD*
G04 #@! TO.C,R15*
G36*
G01*
X40785000Y82010000D02*
X40415000Y82010000D01*
G75*
G02*
X40280000Y82145000I0J135000D01*
G01*
X40280000Y82415000D01*
G75*
G02*
X40415000Y82550000I135000J0D01*
G01*
X40785000Y82550000D01*
G75*
G02*
X40920000Y82415000I0J-135000D01*
G01*
X40920000Y82145000D01*
G75*
G02*
X40785000Y82010000I-135000J0D01*
G01*
G37*
G36*
G01*
X40785000Y83030000D02*
X40415000Y83030000D01*
G75*
G02*
X40280000Y83165000I0J135000D01*
G01*
X40280000Y83435000D01*
G75*
G02*
X40415000Y83570000I135000J0D01*
G01*
X40785000Y83570000D01*
G75*
G02*
X40920000Y83435000I0J-135000D01*
G01*
X40920000Y83165000D01*
G75*
G02*
X40785000Y83030000I-135000J0D01*
G01*
G37*
G04 #@! TD*
D11*
G04 #@! TO.C,TP3*
X70866000Y74930000D03*
G04 #@! TD*
G04 #@! TO.C,R7*
G36*
G01*
X82788000Y73983000D02*
X82788000Y74353000D01*
G75*
G02*
X82923000Y74488000I135000J0D01*
G01*
X83193000Y74488000D01*
G75*
G02*
X83328000Y74353000I0J-135000D01*
G01*
X83328000Y73983000D01*
G75*
G02*
X83193000Y73848000I-135000J0D01*
G01*
X82923000Y73848000D01*
G75*
G02*
X82788000Y73983000I0J135000D01*
G01*
G37*
G36*
G01*
X83808000Y73983000D02*
X83808000Y74353000D01*
G75*
G02*
X83943000Y74488000I135000J0D01*
G01*
X84213000Y74488000D01*
G75*
G02*
X84348000Y74353000I0J-135000D01*
G01*
X84348000Y73983000D01*
G75*
G02*
X84213000Y73848000I-135000J0D01*
G01*
X83943000Y73848000D01*
G75*
G02*
X83808000Y73983000I0J135000D01*
G01*
G37*
G04 #@! TD*
G04 #@! TO.C,R3*
G36*
G01*
X33185000Y27520000D02*
X32815000Y27520000D01*
G75*
G02*
X32680000Y27655000I0J135000D01*
G01*
X32680000Y27925000D01*
G75*
G02*
X32815000Y28060000I135000J0D01*
G01*
X33185000Y28060000D01*
G75*
G02*
X33320000Y27925000I0J-135000D01*
G01*
X33320000Y27655000D01*
G75*
G02*
X33185000Y27520000I-135000J0D01*
G01*
G37*
G36*
G01*
X33185000Y28540000D02*
X32815000Y28540000D01*
G75*
G02*
X32680000Y28675000I0J135000D01*
G01*
X32680000Y28945000D01*
G75*
G02*
X32815000Y29080000I135000J0D01*
G01*
X33185000Y29080000D01*
G75*
G02*
X33320000Y28945000I0J-135000D01*
G01*
X33320000Y28675000D01*
G75*
G02*
X33185000Y28540000I-135000J0D01*
G01*
G37*
G04 #@! TD*
G04 #@! TO.C,R10*
G36*
G01*
X91930000Y77285000D02*
X91930000Y77655000D01*
G75*
G02*
X92065000Y77790000I135000J0D01*
G01*
X92335000Y77790000D01*
G75*
G02*
X92470000Y77655000I0J-135000D01*
G01*
X92470000Y77285000D01*
G75*
G02*
X92335000Y77150000I-135000J0D01*
G01*
X92065000Y77150000D01*
G75*
G02*
X91930000Y77285000I0J135000D01*
G01*
G37*
G36*
G01*
X92950000Y77285000D02*
X92950000Y77655000D01*
G75*
G02*
X93085000Y77790000I135000J0D01*
G01*
X93355000Y77790000D01*
G75*
G02*
X93490000Y77655000I0J-135000D01*
G01*
X93490000Y77285000D01*
G75*
G02*
X93355000Y77150000I-135000J0D01*
G01*
X93085000Y77150000D01*
G75*
G02*
X92950000Y77285000I0J135000D01*
G01*
G37*
G04 #@! TD*
G04 #@! TO.C,FID4*
X1778000Y1778000D03*
G04 #@! TD*
G04 #@! TO.C,FID1*
X1778000Y105156000D03*
G04 #@! TD*
G04 #@! TO.C,R19*
G36*
G01*
X31315000Y21580000D02*
X31685000Y21580000D01*
G75*
G02*
X31820000Y21445000I0J-135000D01*
G01*
X31820000Y21175000D01*
G75*
G02*
X31685000Y21040000I-135000J0D01*
G01*
X31315000Y21040000D01*
G75*
G02*
X31180000Y21175000I0J135000D01*
G01*
X31180000Y21445000D01*
G75*
G02*
X31315000Y21580000I135000J0D01*
G01*
G37*
G36*
G01*
X31315000Y20560000D02*
X31685000Y20560000D01*
G75*
G02*
X31820000Y20425000I0J-135000D01*
G01*
X31820000Y20155000D01*
G75*
G02*
X31685000Y20020000I-135000J0D01*
G01*
X31315000Y20020000D01*
G75*
G02*
X31180000Y20155000I0J135000D01*
G01*
X31180000Y20425000D01*
G75*
G02*
X31315000Y20560000I135000J0D01*
G01*
G37*
G04 #@! TD*
G04 #@! TO.C,R20*
G36*
G01*
X31315000Y24230000D02*
X31685000Y24230000D01*
G75*
G02*
X31820000Y24095000I0J-135000D01*
G01*
X31820000Y23825000D01*
G75*
G02*
X31685000Y23690000I-135000J0D01*
G01*
X31315000Y23690000D01*
G75*
G02*
X31180000Y23825000I0J135000D01*
G01*
X31180000Y24095000D01*
G75*
G02*
X31315000Y24230000I135000J0D01*
G01*
G37*
G36*
G01*
X31315000Y23210000D02*
X31685000Y23210000D01*
G75*
G02*
X31820000Y23075000I0J-135000D01*
G01*
X31820000Y22805000D01*
G75*
G02*
X31685000Y22670000I-135000J0D01*
G01*
X31315000Y22670000D01*
G75*
G02*
X31180000Y22805000I0J135000D01*
G01*
X31180000Y23075000D01*
G75*
G02*
X31315000Y23210000I135000J0D01*
G01*
G37*
G04 #@! TD*
G04 #@! TO.C,R9*
G36*
G01*
X89921000Y98113000D02*
X89921000Y98483000D01*
G75*
G02*
X90056000Y98618000I135000J0D01*
G01*
X90326000Y98618000D01*
G75*
G02*
X90461000Y98483000I0J-135000D01*
G01*
X90461000Y98113000D01*
G75*
G02*
X90326000Y97978000I-135000J0D01*
G01*
X90056000Y97978000D01*
G75*
G02*
X89921000Y98113000I0J135000D01*
G01*
G37*
G36*
G01*
X90941000Y98113000D02*
X90941000Y98483000D01*
G75*
G02*
X91076000Y98618000I135000J0D01*
G01*
X91346000Y98618000D01*
G75*
G02*
X91481000Y98483000I0J-135000D01*
G01*
X91481000Y98113000D01*
G75*
G02*
X91346000Y97978000I-135000J0D01*
G01*
X91076000Y97978000D01*
G75*
G02*
X90941000Y98113000I0J135000D01*
G01*
G37*
G04 #@! TD*
G04 #@! TO.C,TP2*
X78700000Y64300000D03*
G04 #@! TD*
G04 #@! TO.C,C1*
G36*
G01*
X82074000Y78236000D02*
X82074000Y78736000D01*
G75*
G02*
X82299000Y78961000I225000J0D01*
G01*
X82749000Y78961000D01*
G75*
G02*
X82974000Y78736000I0J-225000D01*
G01*
X82974000Y78236000D01*
G75*
G02*
X82749000Y78011000I-225000J0D01*
G01*
X82299000Y78011000D01*
G75*
G02*
X82074000Y78236000I0J225000D01*
G01*
G37*
G36*
G01*
X83624000Y78236000D02*
X83624000Y78736000D01*
G75*
G02*
X83849000Y78961000I225000J0D01*
G01*
X84299000Y78961000D01*
G75*
G02*
X84524000Y78736000I0J-225000D01*
G01*
X84524000Y78236000D01*
G75*
G02*
X84299000Y78011000I-225000J0D01*
G01*
X83849000Y78011000D01*
G75*
G02*
X83624000Y78236000I0J225000D01*
G01*
G37*
G04 #@! TD*
G04 #@! TO.C,C3*
G36*
G01*
X86900000Y98302000D02*
X86900000Y98802000D01*
G75*
G02*
X87125000Y99027000I225000J0D01*
G01*
X87575000Y99027000D01*
G75*
G02*
X87800000Y98802000I0J-225000D01*
G01*
X87800000Y98302000D01*
G75*
G02*
X87575000Y98077000I-225000J0D01*
G01*
X87125000Y98077000D01*
G75*
G02*
X86900000Y98302000I0J225000D01*
G01*
G37*
G36*
G01*
X88450000Y98302000D02*
X88450000Y98802000D01*
G75*
G02*
X88675000Y99027000I225000J0D01*
G01*
X89125000Y99027000D01*
G75*
G02*
X89350000Y98802000I0J-225000D01*
G01*
X89350000Y98302000D01*
G75*
G02*
X89125000Y98077000I-225000J0D01*
G01*
X88675000Y98077000D01*
G75*
G02*
X88450000Y98302000I0J225000D01*
G01*
G37*
G04 #@! TD*
G04 #@! TO.C,D2*
G36*
G01*
X89921000Y97109500D02*
X89921000Y97454500D01*
G75*
G02*
X90068500Y97602000I147500J0D01*
G01*
X90363500Y97602000D01*
G75*
G02*
X90511000Y97454500I0J-147500D01*
G01*
X90511000Y97109500D01*
G75*
G02*
X90363500Y96962000I-147500J0D01*
G01*
X90068500Y96962000D01*
G75*
G02*
X89921000Y97109500I0J147500D01*
G01*
G37*
G36*
G01*
X90891000Y97109500D02*
X90891000Y97454500D01*
G75*
G02*
X91038500Y97602000I147500J0D01*
G01*
X91333500Y97602000D01*
G75*
G02*
X91481000Y97454500I0J-147500D01*
G01*
X91481000Y97109500D01*
G75*
G02*
X91333500Y96962000I-147500J0D01*
G01*
X91038500Y96962000D01*
G75*
G02*
X90891000Y97109500I0J147500D01*
G01*
G37*
G04 #@! TD*
D12*
G04 #@! TO.C,U4*
X31172150Y49149000D03*
X31172150Y50419000D03*
X31172150Y51689000D03*
X31172150Y52959000D03*
X25723850Y52959000D03*
X25723850Y51689000D03*
X25723850Y50419000D03*
X25723850Y49149000D03*
G04 #@! TD*
G04 #@! TO.C,U2*
X31172150Y28067000D03*
X31172150Y29337000D03*
X31172150Y30607000D03*
X31172150Y31877000D03*
X25723850Y31877000D03*
X25723850Y30607000D03*
X25723850Y29337000D03*
X25723850Y28067000D03*
G04 #@! TD*
D16*
G04 #@! TO.C,J3*
X95932528Y7295819D03*
X95932528Y13075819D03*
G36*
G01*
X95282528Y6685819D02*
X94432528Y6685819D01*
G75*
G02*
X94282528Y6835819I0J150000D01*
G01*
X94282528Y7135819D01*
G75*
G02*
X94432528Y7285819I150000J0D01*
G01*
X95282528Y7285819D01*
G75*
G02*
X95432528Y7135819I0J-150000D01*
G01*
X95432528Y6835819D01*
G75*
G02*
X95282528Y6685819I-150000J0D01*
G01*
G37*
G36*
G01*
X95282528Y7485819D02*
X94432528Y7485819D01*
G75*
G02*
X94282528Y7635819I0J150000D01*
G01*
X94282528Y7935819D01*
G75*
G02*
X94432528Y8085819I150000J0D01*
G01*
X95282528Y8085819D01*
G75*
G02*
X95432528Y7935819I0J-150000D01*
G01*
X95432528Y7635819D01*
G75*
G02*
X95282528Y7485819I-150000J0D01*
G01*
G37*
G36*
G01*
X95357528Y8785819D02*
X94357528Y8785819D01*
G75*
G02*
X94282528Y8860819I0J75000D01*
G01*
X94282528Y9010819D01*
G75*
G02*
X94357528Y9085819I75000J0D01*
G01*
X95357528Y9085819D01*
G75*
G02*
X95432528Y9010819I0J-75000D01*
G01*
X95432528Y8860819D01*
G75*
G02*
X95357528Y8785819I-75000J0D01*
G01*
G37*
G36*
G01*
X95357528Y9785819D02*
X94357528Y9785819D01*
G75*
G02*
X94282528Y9860819I0J75000D01*
G01*
X94282528Y10010819D01*
G75*
G02*
X94357528Y10085819I75000J0D01*
G01*
X95357528Y10085819D01*
G75*
G02*
X95432528Y10010819I0J-75000D01*
G01*
X95432528Y9860819D01*
G75*
G02*
X95357528Y9785819I-75000J0D01*
G01*
G37*
G36*
G01*
X95357528Y10285819D02*
X94357528Y10285819D01*
G75*
G02*
X94282528Y10360819I0J75000D01*
G01*
X94282528Y10510819D01*
G75*
G02*
X94357528Y10585819I75000J0D01*
G01*
X95357528Y10585819D01*
G75*
G02*
X95432528Y10510819I0J-75000D01*
G01*
X95432528Y10360819D01*
G75*
G02*
X95357528Y10285819I-75000J0D01*
G01*
G37*
G36*
G01*
X95357528Y11285819D02*
X94357528Y11285819D01*
G75*
G02*
X94282528Y11360819I0J75000D01*
G01*
X94282528Y11510819D01*
G75*
G02*
X94357528Y11585819I75000J0D01*
G01*
X95357528Y11585819D01*
G75*
G02*
X95432528Y11510819I0J-75000D01*
G01*
X95432528Y11360819D01*
G75*
G02*
X95357528Y11285819I-75000J0D01*
G01*
G37*
G36*
G01*
X95282528Y12285819D02*
X94432528Y12285819D01*
G75*
G02*
X94282528Y12435819I0J150000D01*
G01*
X94282528Y12735819D01*
G75*
G02*
X94432528Y12885819I150000J0D01*
G01*
X95282528Y12885819D01*
G75*
G02*
X95432528Y12735819I0J-150000D01*
G01*
X95432528Y12435819D01*
G75*
G02*
X95282528Y12285819I-150000J0D01*
G01*
G37*
G36*
G01*
X95282528Y13085819D02*
X94432528Y13085819D01*
G75*
G02*
X94282528Y13235819I0J150000D01*
G01*
X94282528Y13535819D01*
G75*
G02*
X94432528Y13685819I150000J0D01*
G01*
X95282528Y13685819D01*
G75*
G02*
X95432528Y13535819I0J-150000D01*
G01*
X95432528Y13235819D01*
G75*
G02*
X95282528Y13085819I-150000J0D01*
G01*
G37*
G36*
G01*
X95282528Y13085819D02*
X94432528Y13085819D01*
G75*
G02*
X94282528Y13235819I0J150000D01*
G01*
X94282528Y13535819D01*
G75*
G02*
X94432528Y13685819I150000J0D01*
G01*
X95282528Y13685819D01*
G75*
G02*
X95432528Y13535819I0J-150000D01*
G01*
X95432528Y13235819D01*
G75*
G02*
X95282528Y13085819I-150000J0D01*
G01*
G37*
G36*
G01*
X95282528Y12285819D02*
X94432528Y12285819D01*
G75*
G02*
X94282528Y12435819I0J150000D01*
G01*
X94282528Y12735819D01*
G75*
G02*
X94432528Y12885819I150000J0D01*
G01*
X95282528Y12885819D01*
G75*
G02*
X95432528Y12735819I0J-150000D01*
G01*
X95432528Y12435819D01*
G75*
G02*
X95282528Y12285819I-150000J0D01*
G01*
G37*
G36*
G01*
X95357528Y11785819D02*
X94357528Y11785819D01*
G75*
G02*
X94282528Y11860819I0J75000D01*
G01*
X94282528Y12010819D01*
G75*
G02*
X94357528Y12085819I75000J0D01*
G01*
X95357528Y12085819D01*
G75*
G02*
X95432528Y12010819I0J-75000D01*
G01*
X95432528Y11860819D01*
G75*
G02*
X95357528Y11785819I-75000J0D01*
G01*
G37*
G36*
G01*
X95357528Y10785819D02*
X94357528Y10785819D01*
G75*
G02*
X94282528Y10860819I0J75000D01*
G01*
X94282528Y11010819D01*
G75*
G02*
X94357528Y11085819I75000J0D01*
G01*
X95357528Y11085819D01*
G75*
G02*
X95432528Y11010819I0J-75000D01*
G01*
X95432528Y10860819D01*
G75*
G02*
X95357528Y10785819I-75000J0D01*
G01*
G37*
G36*
G01*
X95357528Y9285819D02*
X94357528Y9285819D01*
G75*
G02*
X94282528Y9360819I0J75000D01*
G01*
X94282528Y9510819D01*
G75*
G02*
X94357528Y9585819I75000J0D01*
G01*
X95357528Y9585819D01*
G75*
G02*
X95432528Y9510819I0J-75000D01*
G01*
X95432528Y9360819D01*
G75*
G02*
X95357528Y9285819I-75000J0D01*
G01*
G37*
G36*
G01*
X95357528Y8285819D02*
X94357528Y8285819D01*
G75*
G02*
X94282528Y8360819I0J75000D01*
G01*
X94282528Y8510819D01*
G75*
G02*
X94357528Y8585819I75000J0D01*
G01*
X95357528Y8585819D01*
G75*
G02*
X95432528Y8510819I0J-75000D01*
G01*
X95432528Y8360819D01*
G75*
G02*
X95357528Y8285819I-75000J0D01*
G01*
G37*
G36*
G01*
X95282528Y7485819D02*
X94432528Y7485819D01*
G75*
G02*
X94282528Y7635819I0J150000D01*
G01*
X94282528Y7935819D01*
G75*
G02*
X94432528Y8085819I150000J0D01*
G01*
X95282528Y8085819D01*
G75*
G02*
X95432528Y7935819I0J-150000D01*
G01*
X95432528Y7635819D01*
G75*
G02*
X95282528Y7485819I-150000J0D01*
G01*
G37*
G36*
G01*
X95282528Y6685819D02*
X94432528Y6685819D01*
G75*
G02*
X94282528Y6835819I0J150000D01*
G01*
X94282528Y7135819D01*
G75*
G02*
X94432528Y7285819I150000J0D01*
G01*
X95282528Y7285819D01*
G75*
G02*
X95432528Y7135819I0J-150000D01*
G01*
X95432528Y6835819D01*
G75*
G02*
X95282528Y6685819I-150000J0D01*
G01*
G37*
G36*
G01*
X96182528Y3985819D02*
X94682528Y3985819D01*
G75*
G02*
X94432528Y4235819I0J250000D01*
G01*
X94432528Y5915819D01*
G75*
G02*
X94682528Y6165819I250000J0D01*
G01*
X96182528Y6165819D01*
G75*
G02*
X96432528Y5915819I0J-250000D01*
G01*
X96432528Y4235819D01*
G75*
G02*
X96182528Y3985819I-250000J0D01*
G01*
G37*
G36*
G01*
X100112528Y3985819D02*
X98612528Y3985819D01*
G75*
G02*
X98362528Y4235819I0J250000D01*
G01*
X98362528Y5915819D01*
G75*
G02*
X98612528Y6165819I250000J0D01*
G01*
X100112528Y6165819D01*
G75*
G02*
X100362528Y5915819I0J-250000D01*
G01*
X100362528Y4235819D01*
G75*
G02*
X100112528Y3985819I-250000J0D01*
G01*
G37*
G36*
G01*
X96182528Y14205819D02*
X94682528Y14205819D01*
G75*
G02*
X94432528Y14455819I0J250000D01*
G01*
X94432528Y16135819D01*
G75*
G02*
X94682528Y16385819I250000J0D01*
G01*
X96182528Y16385819D01*
G75*
G02*
X96432528Y16135819I0J-250000D01*
G01*
X96432528Y14455819D01*
G75*
G02*
X96182528Y14205819I-250000J0D01*
G01*
G37*
G36*
G01*
X100112528Y14205819D02*
X98612528Y14205819D01*
G75*
G02*
X98362528Y14455819I0J250000D01*
G01*
X98362528Y16135819D01*
G75*
G02*
X98612528Y16385819I250000J0D01*
G01*
X100112528Y16385819D01*
G75*
G02*
X100362528Y16135819I0J-250000D01*
G01*
X100362528Y14455819D01*
G75*
G02*
X100112528Y14205819I-250000J0D01*
G01*
G37*
G04 #@! TD*
G04 #@! TO.C,R2*
G36*
G01*
X93525528Y9070819D02*
X93525528Y8700819D01*
G75*
G02*
X93390528Y8565819I-135000J0D01*
G01*
X93120528Y8565819D01*
G75*
G02*
X92985528Y8700819I0J135000D01*
G01*
X92985528Y9070819D01*
G75*
G02*
X93120528Y9205819I135000J0D01*
G01*
X93390528Y9205819D01*
G75*
G02*
X93525528Y9070819I0J-135000D01*
G01*
G37*
G36*
G01*
X92505528Y9070819D02*
X92505528Y8700819D01*
G75*
G02*
X92370528Y8565819I-135000J0D01*
G01*
X92100528Y8565819D01*
G75*
G02*
X91965528Y8700819I0J135000D01*
G01*
X91965528Y9070819D01*
G75*
G02*
X92100528Y9205819I135000J0D01*
G01*
X92370528Y9205819D01*
G75*
G02*
X92505528Y9070819I0J-135000D01*
G01*
G37*
G04 #@! TD*
G04 #@! TO.C,D3*
G36*
G01*
X91928000Y78313500D02*
X91928000Y78658500D01*
G75*
G02*
X92075500Y78806000I147500J0D01*
G01*
X92370500Y78806000D01*
G75*
G02*
X92518000Y78658500I0J-147500D01*
G01*
X92518000Y78313500D01*
G75*
G02*
X92370500Y78166000I-147500J0D01*
G01*
X92075500Y78166000D01*
G75*
G02*
X91928000Y78313500I0J147500D01*
G01*
G37*
G36*
G01*
X92898000Y78313500D02*
X92898000Y78658500D01*
G75*
G02*
X93045500Y78806000I147500J0D01*
G01*
X93340500Y78806000D01*
G75*
G02*
X93488000Y78658500I0J-147500D01*
G01*
X93488000Y78313500D01*
G75*
G02*
X93340500Y78166000I-147500J0D01*
G01*
X93045500Y78166000D01*
G75*
G02*
X92898000Y78313500I0J147500D01*
G01*
G37*
G04 #@! TD*
D11*
G04 #@! TO.C,TP5*
X98800000Y61600000D03*
G04 #@! TD*
G04 #@! TO.C,TP1*
X98806000Y56896000D03*
G04 #@! TD*
G04 #@! TO.C,R8*
G36*
G01*
X42818000Y67585000D02*
X42818000Y67035000D01*
G75*
G02*
X42618000Y66835000I-200000J0D01*
G01*
X42218000Y66835000D01*
G75*
G02*
X42018000Y67035000I0J200000D01*
G01*
X42018000Y67585000D01*
G75*
G02*
X42218000Y67785000I200000J0D01*
G01*
X42618000Y67785000D01*
G75*
G02*
X42818000Y67585000I0J-200000D01*
G01*
G37*
G36*
G01*
X41168000Y67585000D02*
X41168000Y67035000D01*
G75*
G02*
X40968000Y66835000I-200000J0D01*
G01*
X40568000Y66835000D01*
G75*
G02*
X40368000Y67035000I0J200000D01*
G01*
X40368000Y67585000D01*
G75*
G02*
X40568000Y67785000I200000J0D01*
G01*
X40968000Y67785000D01*
G75*
G02*
X41168000Y67585000I0J-200000D01*
G01*
G37*
G04 #@! TD*
G04 #@! TO.C,R1*
G36*
G01*
X93527528Y12118819D02*
X93527528Y11748819D01*
G75*
G02*
X93392528Y11613819I-135000J0D01*
G01*
X93122528Y11613819D01*
G75*
G02*
X92987528Y11748819I0J135000D01*
G01*
X92987528Y12118819D01*
G75*
G02*
X93122528Y12253819I135000J0D01*
G01*
X93392528Y12253819D01*
G75*
G02*
X93527528Y12118819I0J-135000D01*
G01*
G37*
G36*
G01*
X92507528Y12118819D02*
X92507528Y11748819D01*
G75*
G02*
X92372528Y11613819I-135000J0D01*
G01*
X92102528Y11613819D01*
G75*
G02*
X91967528Y11748819I0J135000D01*
G01*
X91967528Y12118819D01*
G75*
G02*
X92102528Y12253819I135000J0D01*
G01*
X92372528Y12253819D01*
G75*
G02*
X92507528Y12118819I0J-135000D01*
G01*
G37*
G04 #@! TD*
D17*
G04 #@! TO.C,J2*
X93218000Y74422000D03*
D18*
X93218000Y71882000D03*
X93218000Y69342000D03*
G04 #@! TD*
D19*
G04 #@! TO.C,J1*
X9150000Y13500000D03*
D20*
X17750000Y16890000D03*
X17750000Y88400000D03*
D19*
X9150000Y92000000D03*
D20*
X9950000Y83220000D03*
X9950000Y77410000D03*
X12650000Y80220000D03*
X17750000Y83220000D03*
X17750000Y77410000D03*
D21*
X17750000Y23790000D03*
X17750000Y26330000D03*
X17750000Y28870000D03*
X17750000Y31410000D03*
X17750000Y33950000D03*
X17750000Y36490000D03*
X17750000Y39030000D03*
X17750000Y41570000D03*
X17750000Y44110000D03*
X17750000Y46650000D03*
X17750000Y49190000D03*
X17750000Y51730000D03*
X17750000Y54270000D03*
X17750000Y56810000D03*
X17750000Y59350000D03*
X17750000Y61890000D03*
X17750000Y64430000D03*
X17750000Y66970000D03*
X17750000Y69510000D03*
X15210000Y23790000D03*
X15210000Y26330000D03*
X15210000Y28870000D03*
X15210000Y31410000D03*
X15210000Y33950000D03*
X15210000Y36490000D03*
X15210000Y39030000D03*
X15210000Y41570000D03*
X15210000Y44110000D03*
X15210000Y46650000D03*
X15210000Y49190000D03*
X15210000Y51730000D03*
X15210000Y54270000D03*
X15210000Y56810000D03*
X15210000Y59350000D03*
X15210000Y61890000D03*
X15210000Y64430000D03*
X15210000Y66970000D03*
X15210000Y69510000D03*
X10130000Y23790000D03*
X10130000Y26330000D03*
X10130000Y28870000D03*
X10130000Y31410000D03*
X10130000Y33950000D03*
X10130000Y36490000D03*
X10130000Y39030000D03*
X10130000Y41570000D03*
X10130000Y44110000D03*
X10130000Y46650000D03*
X10130000Y49190000D03*
X10130000Y51730000D03*
X10130000Y54270000D03*
X10130000Y56810000D03*
X10130000Y59350000D03*
X10130000Y61890000D03*
X10130000Y64430000D03*
X10130000Y66970000D03*
X10130000Y69510000D03*
X7590000Y23790000D03*
X7590000Y26330000D03*
X7590000Y28870000D03*
X7590000Y31410000D03*
X7590000Y33950000D03*
X7590000Y36490000D03*
X7590000Y39030000D03*
X7590000Y41570000D03*
X7590000Y44110000D03*
X7590000Y46650000D03*
X7590000Y49190000D03*
X7590000Y51730000D03*
X7590000Y54270000D03*
X7590000Y56810000D03*
X7590000Y59350000D03*
X7590000Y61890000D03*
X7590000Y64430000D03*
X7590000Y66970000D03*
X7590000Y69510000D03*
G04 #@! TD*
D22*
G04 #@! TO.C,U1*
X95100000Y95400000D03*
X94099999Y95400000D03*
X93099999Y95400000D03*
X92099998Y95400000D03*
X91100000Y95400000D03*
X90100000Y95400000D03*
X89099999Y95400000D03*
X88099998Y95400000D03*
X87099998Y95400000D03*
X86100000Y95400000D03*
X85099999Y95400000D03*
X84099999Y95400000D03*
X83099998Y95400000D03*
D23*
X81449999Y94000001D03*
X81449999Y93000000D03*
X81449999Y92000000D03*
X81449999Y90999999D03*
X81449999Y90000001D03*
X81449999Y89000001D03*
X81449999Y88000000D03*
X81449999Y86999999D03*
X81449999Y85999999D03*
X81449999Y85000001D03*
X81449999Y84000000D03*
X81449999Y83000000D03*
X81449999Y81999999D03*
D22*
X83099998Y80600000D03*
X84099999Y80600000D03*
X85099999Y80600000D03*
X86100000Y80600000D03*
X87099998Y80600000D03*
X88099998Y80600000D03*
X89099999Y80600000D03*
X90100000Y80600000D03*
X91100000Y80600000D03*
X92099998Y80600000D03*
X93099999Y80600000D03*
X94099999Y80600000D03*
X95100000Y80600000D03*
D24*
X89299999Y89880000D03*
X89299999Y88680000D03*
X89299999Y87480000D03*
X88099999Y89880000D03*
X88099999Y88680000D03*
X88099999Y87480000D03*
X86899999Y89880000D03*
X86899999Y88680000D03*
X86899999Y87480000D03*
G04 #@! TD*
D25*
G04 #@! TO.C,Q5*
X29575000Y11775000D03*
X29575000Y13045000D03*
X29575000Y14315000D03*
X29575000Y15585000D03*
D26*
X23700000Y15585000D03*
X23700000Y14315000D03*
X23700000Y13045000D03*
X23700000Y11775000D03*
D27*
X26350000Y12410000D03*
X26350000Y14950000D03*
G04 #@! TD*
D28*
G04 #@! TO.C,Q4*
X38000000Y89728000D03*
X38000000Y94300000D03*
D14*
X30900700Y92014000D03*
G04 #@! TD*
G04 #@! TO.C,R13*
G36*
G01*
X32951000Y51415000D02*
X32581000Y51415000D01*
G75*
G02*
X32446000Y51550000I0J135000D01*
G01*
X32446000Y51820000D01*
G75*
G02*
X32581000Y51955000I135000J0D01*
G01*
X32951000Y51955000D01*
G75*
G02*
X33086000Y51820000I0J-135000D01*
G01*
X33086000Y51550000D01*
G75*
G02*
X32951000Y51415000I-135000J0D01*
G01*
G37*
G36*
G01*
X32951000Y52435000D02*
X32581000Y52435000D01*
G75*
G02*
X32446000Y52570000I0J135000D01*
G01*
X32446000Y52840000D01*
G75*
G02*
X32581000Y52975000I135000J0D01*
G01*
X32951000Y52975000D01*
G75*
G02*
X33086000Y52840000I0J-135000D01*
G01*
X33086000Y52570000D01*
G75*
G02*
X32951000Y52435000I-135000J0D01*
G01*
G37*
G04 #@! TD*
G04 #@! TO.C,R5*
G36*
G01*
X31290000Y13205000D02*
X31660000Y13205000D01*
G75*
G02*
X31795000Y13070000I0J-135000D01*
G01*
X31795000Y12800000D01*
G75*
G02*
X31660000Y12665000I-135000J0D01*
G01*
X31290000Y12665000D01*
G75*
G02*
X31155000Y12800000I0J135000D01*
G01*
X31155000Y13070000D01*
G75*
G02*
X31290000Y13205000I135000J0D01*
G01*
G37*
G36*
G01*
X31290000Y12185000D02*
X31660000Y12185000D01*
G75*
G02*
X31795000Y12050000I0J-135000D01*
G01*
X31795000Y11780000D01*
G75*
G02*
X31660000Y11645000I-135000J0D01*
G01*
X31290000Y11645000D01*
G75*
G02*
X31155000Y11780000I0J135000D01*
G01*
X31155000Y12050000D01*
G75*
G02*
X31290000Y12185000I135000J0D01*
G01*
G37*
G04 #@! TD*
D10*
G04 #@! TO.C,M6*
X46893000Y26982998D03*
X46893000Y26032998D03*
X46893000Y25083000D03*
X38193000Y26082998D03*
X38193000Y26982998D03*
G04 #@! TD*
D25*
G04 #@! TO.C,Q6*
X29650000Y20240000D03*
X29650000Y21510000D03*
X29650000Y22780000D03*
X29650000Y24050000D03*
D26*
X23775000Y24050000D03*
X23775000Y22780000D03*
X23775000Y21510000D03*
X23775000Y20240000D03*
D27*
X26425000Y20875000D03*
X26425000Y23415000D03*
G04 #@! TD*
D28*
G04 #@! TO.C,Q3*
X38000000Y82300000D03*
X38000000Y86872000D03*
D14*
X30900700Y84586000D03*
G04 #@! TD*
M02*
